<?xml version="1.0" encoding="iso-8859-1"?>
<!-- Generator: Adobe Illustrator 19.0.0, SVG Export Plug-In . SVG Version: 6.00 Build 0)  -->
<svg version="1.1" id="Capa_1" xmlns="http://www.w3.org/2000/svg" xmlns:xlink="http://www.w3.org/1999/xlink" x="0px" y="0px"
	 viewBox="0 0 512.084 512.084" style="enable-background:new 0 0 512.084 512.084;" xml:space="preserve">
<g>
	<g transform="translate(19 19)">
		<path style="fill:#A4C2F7;" d="M347.975,245.537c0.008,27.16-10.779,53.211-29.984,72.416
			c-19.205,19.205-45.256,29.991-72.416,29.984c-4.281,0.019-8.559-0.266-12.8-0.853c-51.194-6.424-89.601-49.951-89.601-101.547
			s38.407-95.123,89.601-101.547c4.241-0.587,8.519-0.872,12.8-0.853c27.16-0.008,53.211,10.779,72.416,29.984
			C337.197,192.326,347.983,218.376,347.975,245.537z"/>
		<ellipse style="fill:#E3E7F2;" cx="232.775" cy="245.537" rx="89.6" ry="101.547"/>
		<g>
			<circle style="fill:#FFFFFF;" cx="245.575" cy="245.537" r="68.267"/>
			<path style="fill:#FFFFFF;" d="M168.775,245.537c-0.019-51.566,38.345-95.084,89.506-101.531
				c-4.213-0.551-8.457-0.842-12.706-0.869c-4.281-0.019-8.559,0.266-12.8,0.853c-51.194,6.424-89.601,49.951-89.601,101.547
				s38.407,95.123,89.601,101.547c4.241,0.587,8.519,0.872,12.8,0.853c4.25-0.027,8.494-0.318,12.708-0.869
				C207.122,340.621,168.757,297.103,168.775,245.537z"/>
		</g>
	</g>
	<g>
		<polygon style="fill:#FFFFFF;" points="8.575,494.92 119.509,494.92 503.509,494.92 503.509,511.986 119.509,511.986 
			8.575,511.986 		"/>
		<g>
			<path style="fill:#428DFF;" d="M264.575,187.737c-42.415,0-76.8,34.385-76.8,76.8s34.385,76.8,76.8,76.8s76.8-34.385,76.8-76.8
				C341.327,222.141,306.971,187.785,264.575,187.737z M264.575,324.27c-32.99,0-59.733-26.744-59.733-59.733
				s26.744-59.733,59.733-59.733s59.733,26.744,59.733,59.733C324.27,297.511,297.549,324.232,264.575,324.27z"/>
			<path style="fill:#428DFF;" d="M273.109,259.97v-29.567c0-4.713-3.82-8.533-8.533-8.533s-8.533,3.821-8.533,8.533v34.133
				c0,2.853,1.426,5.518,3.8,7.1l25.6,17.067c2.536,1.727,5.805,1.959,8.56,0.608c2.755-1.351,4.573-4.077,4.76-7.14
				s-1.284-5.99-3.853-7.668L273.109,259.97z"/>
			<path style="fill:#428DFF;" d="M511.596,117.278c-0.469-1.509-1.279-2.889-2.368-4.034c-0.116-0.106-0.165-0.253-0.286-0.354
				c-0.365-0.235-0.748-0.439-1.146-0.612c-0.99-0.702-2.164-1.097-3.377-1.137c-0.3-0.079-0.604-0.14-0.91-0.184h-34.133
				c-4.713,0-8.533,3.821-8.533,8.533s3.821,8.533,8.533,8.533h15.998L375.342,261.244c-1.69-58.925-49.215-106.213-108.147-107.609
				c-58.932-1.396-108.643,43.59-113.12,102.369h-17.499c-4.713,0-8.533,3.821-8.533,8.533s3.82,8.533,8.533,8.533h17.499
				c1.891,24.616,11.982,47.887,28.659,66.092l-10.892,13.079l-19.417-32.362c-1.456-2.424-4.018-3.971-6.842-4.129
				c-2.832-0.179-5.563,1.081-7.267,3.35L17.109,478.185V375.47h17.067c4.713,0,8.533-3.82,8.533-8.533s-3.821-8.533-8.533-8.533
				H17.109v-17.067h17.067c4.713,0,8.533-3.82,8.533-8.533s-3.821-8.533-8.533-8.533H17.109v-17.067h17.067
				c4.713,0,8.533-3.82,8.533-8.533s-3.821-8.533-8.533-8.533H17.109V273.07h25.6c4.713,0,8.533-3.82,8.533-8.533
				s-3.821-8.533-8.533-8.533h-25.6v-17.067h17.067c4.713,0,8.533-3.821,8.533-8.533s-3.821-8.533-8.533-8.533H17.109v-17.067
				h17.067c4.713,0,8.533-3.82,8.533-8.533s-3.821-8.533-8.533-8.533H17.109V170.67h17.067c4.713,0,8.533-3.821,8.533-8.533
				c0-4.713-3.821-8.533-8.533-8.533H17.109v-17.067h17.067c4.713,0,8.533-3.821,8.533-8.533c0-4.713-3.821-8.533-8.533-8.533
				H17.109v-17.067h17.067c4.713,0,8.533-3.821,8.533-8.533c0-4.713-3.821-8.533-8.533-8.533H17.109V29.116l19.567,19.567
				c3.336,3.308,8.719,3.296,12.041-0.026c3.322-3.322,3.333-8.705,0.025-12.041L14.616,2.49c-2.443-2.432-6.108-3.159-9.294-1.841
				s-5.268,4.42-5.28,7.867v494.933c0,0.198,0.1,0.365,0.112,0.559c0.055,0.596,0.174,1.184,0.354,1.755
				c0.118,0.486,0.278,0.96,0.48,1.417c0.268,0.501,0.586,0.973,0.949,1.409c0.31,0.43,0.66,0.829,1.046,1.192
				c0.161,0.144,0.242,0.342,0.417,0.475c0.422,0.275,0.868,0.51,1.332,0.704c0.244,0.145,0.495,0.278,0.752,0.397
				c0.978,0.405,2.023,0.624,3.082,0.645l0.092-0.021h34.05c4.713,0,8.533-3.82,8.533-8.533s-3.821-8.533-8.533-8.533H25.823
				l118.444-155.462l19.125,31.875c1.423,2.37,3.905,3.904,6.661,4.117c2.756,0.213,5.444-0.922,7.214-3.046l17.883-21.471
				c17.411,14.032,38.675,22.442,60.974,24.114c-0.007,0.143-0.082,0.263-0.082,0.407v17.067c0,4.713,3.82,8.533,8.533,8.533
				s8.533-3.82,8.533-8.533V375.45c0-0.144-0.075-0.265-0.082-0.407c47.23-3.677,86.923-36.921,98.832-82.772l123.117-149.064
				v10.418c0,4.713,3.821,8.533,8.533,8.533s8.533-3.82,8.533-8.533v-34.133c0-0.14-0.073-0.257-0.079-0.395
				C511.907,118.478,511.784,117.869,511.596,117.278z M264.575,358.404c-51.841,0-93.867-42.026-93.867-93.867
				s42.026-93.867,93.867-93.867s93.867,42.026,93.867,93.867C358.383,316.354,316.392,358.345,264.575,358.404z"/>
			<path style="fill:#428DFF;" d="M76.842,494.916c-2.259,0.033-4.422,0.917-6.059,2.475l-1.025,1.279
				c-0.324,0.476-0.583,0.993-0.771,1.538c-0.246,0.484-0.417,1.002-0.508,1.537c-0.096,0.563-0.153,1.133-0.171,1.704
				c0.031,2.259,0.915,4.423,2.475,6.059c1.994,2.07,4.908,2.979,7.726,2.409c2.818-0.57,5.149-2.539,6.183-5.222
				c0.438-1.027,0.67-2.13,0.684-3.246c0.022-2.27-0.87-4.453-2.475-6.058C81.295,495.786,79.112,494.894,76.842,494.916z"/>
			<path style="fill:#428DFF;" d="M264.575,452.249c2.263,0.001,4.434-0.898,6.035-2.499c1.6-1.6,2.499-3.771,2.499-6.035v-17.067
				c0-4.713-3.82-8.533-8.533-8.533s-8.533,3.82-8.533,8.533v17.067c-0.001,2.263,0.898,4.434,2.499,6.035
				C260.141,451.351,262.312,452.25,264.575,452.249z"/>
			<path style="fill:#428DFF;" d="M93.909,273.07c4.713,0,8.533-3.82,8.533-8.533s-3.821-8.533-8.533-8.533H76.842
				c-4.713,0-8.533,3.821-8.533,8.533s3.821,8.533,8.533,8.533H93.909z"/>
			<path style="fill:#428DFF;" d="M273.109,477.849c0-4.713-3.82-8.533-8.533-8.533s-8.533,3.82-8.533,8.533v17.067H110.975
				c-4.713,0-8.533,3.82-8.533,8.533s3.821,8.533,8.533,8.533h392.533v-17.067h-230.4V477.849z"/>
		</g>
	</g>
</g>
<g>
</g>
<g>
</g>
<g>
</g>
<g>
</g>
<g>
</g>
<g>
</g>
<g>
</g>
<g>
</g>
<g>
</g>
<g>
</g>
<g>
</g>
<g>
</g>
<g>
</g>
<g>
</g>
<g>
</g>
</svg>
