<?xml version="1.0" encoding="iso-8859-1"?>
<!-- Generator: Adobe Illustrator 19.0.0, SVG Export Plug-In . SVG Version: 6.00 Build 0)  -->
<svg version="1.1" id="Capa_1" xmlns="http://www.w3.org/2000/svg" xmlns:xlink="http://www.w3.org/1999/xlink" x="0px" y="0px"
	 viewBox="0 0 512.012 512.012" style="enable-background:new 0 0 512.012 512.012;" xml:space="preserve">
<g>
	<g transform="translate(8 4)">
		<path style="fill:#7FABFA;" d="M355.013,456.203l-0.683,0.512l-13.653,10.496l-9.557,7.339c-4.766,3.603-9.952,6.612-15.445,8.96
			c-3.565,1.516-7.246,2.743-11.008,3.669l-5.547,1.365l-23.467,5.803l-16.896,4.181c-0.094-0.011-0.188,0.02-0.256,0.085
			c-6.568,1.498-13.434,0.993-19.712-1.451c-3.737-1.516-7.175-3.683-10.155-6.4l-14.336-13.909l-90.112-87.381
			c-3.635-3.395-8.423-5.286-13.397-5.291H73.243c-3.409,0.045-6.696-1.272-9.13-3.659c-2.435-2.387-3.817-5.646-3.84-9.056V263.008
			c-0.047-3.886,1.76-7.561,4.864-9.899c2.898-2.4,6.708-3.399,10.411-2.731l45.227,8.107c0.12-0.013,0.241,0.017,0.341,0.085
			c6.988,1.237,14.123,1.41,21.163,0.512l13.312-1.621l27.648-3.413l-10.411,17.237c-4.809,7.83-3.217,17.993,3.755,23.979
			c0.382,0.334,0.78,0.647,1.195,0.939c3.363,2.478,7.428,3.823,11.605,3.84c4.371,0.023,8.617-1.453,12.032-4.181l20.651-16.213
			l0.085-0.085h24.917c4.772-0.013,9.384,1.716,12.971,4.864l50.432,44.117c1.507,1.331,2.802,2.885,3.84,4.608l48.726,81.664
			c0.921,1.514,1.693,3.115,2.304,4.779C370.513,432.731,366.289,447.706,355.013,456.203z"/>
		<path style="fill:#E3E7F2;" d="M329.413,456.203l-0.683,0.512l-13.653,10.496l-9.557,7.339c-4.766,3.603-9.952,6.612-15.445,8.96
			c-3.565,1.516-7.246,2.743-11.008,3.669l-5.547,1.365l-23.467,5.803l-11.264,2.816c-3.737-1.516-7.175-3.683-10.155-6.4
			l-14.336-13.909l-90.112-87.381c-3.635-3.395-8.423-5.286-13.397-5.291H73.243c-3.409,0.045-6.696-1.272-9.13-3.659
			c-2.435-2.387-3.817-5.646-3.84-9.056V263.008c-0.047-3.886,1.76-7.561,4.864-9.899l30.037,5.376
			c7.094,1.307,14.348,1.509,21.504,0.597l4.437-0.512l36.523-4.523l-2.048,3.413l-8.363,13.824
			c-5.121,8.322-2.963,19.184,4.949,24.917c3.363,2.478,7.428,3.823,11.605,3.84c4.371,0.023,8.617-1.453,12.032-4.181l0.768-0.597
			l19.968-15.701h24.917c0.203-0.014,0.406,0.015,0.597,0.085c4.56,0.08,8.944,1.773,12.373,4.779l50.432,44.117
			c1.507,1.331,2.802,2.885,3.84,4.608l48.725,81.664c0.921,1.514,1.693,3.115,2.304,4.779
			C344.913,432.731,340.689,447.706,329.413,456.203z"/>
		<path style="fill:#A4C2F7;" d="M435.739,299.872v81.493c-0.031,7.883-4.867,14.95-12.203,17.835l-58.197,20.395
			c-0.611-1.664-1.383-3.264-2.304-4.779L361.328,412l-47.019-78.848c-1.038-1.723-2.333-3.277-3.84-4.608l-50.432-44.117
			c-3.586-3.148-8.199-4.877-12.971-4.864h-24.917l-0.085,0.085l-20.651,16.213c-3.415,2.728-7.661,4.204-12.032,4.181
			c-4.178-0.017-8.242-1.362-11.605-3.84c-0.414-0.292-0.813-0.605-1.195-0.939c-6.972-5.985-8.564-16.149-3.755-23.979
			l10.411-17.237l7.253-10.581c3.609-5.365,9.662-8.568,16.128-8.533h56.491c15.448-0.021,30.558,4.521,43.435,13.056l17.408,11.605
			c1.167,0.552,2.28,1.209,3.328,1.963l20.139,13.909c11.007,10.619,26.062,15.969,41.301,14.677l14.677-1.28l18.261-1.621
			c3.577-0.34,7.132,0.831,9.807,3.23C434.14,292.872,435.689,296.28,435.739,299.872z"/>
		<path style="fill:#D4E1F4;" d="M410.139,299.872v81.493c-0.031,7.883-4.867,14.95-12.203,17.835L361.328,412l-47.019-78.848
			c-1.038-1.723-2.333-3.277-3.84-4.608l-50.432-44.117c-3.586-3.148-8.199-4.877-12.971-4.864h-24.917l-0.085,0.085
			c-0.191-0.07-0.394-0.099-0.597-0.085l-24.662,15.104l-20.224,0.597c-6.972-5.985-8.564-16.149-3.755-23.979l10.411-17.237
			l7.253-10.581c3.609-5.365,9.662-8.568,16.128-8.533h30.891c15.448-0.021,30.558,4.521,43.435,13.056l17.408,11.605
			c1.167,0.552,2.28,1.209,3.328,1.963l20.139,13.909c10.949,10.711,26.048,16.077,41.301,14.677l10.24-0.939l22.699-1.963
			c2.557-0.26,5.129,0.308,7.339,1.621C407.533,290.977,410.137,295.228,410.139,299.872z"/>
		<path style="fill:#A4C2F7;" d="M214.299,476.853l-0.256,0.256l-0.768,0.341c-7.631,2.812-15.825,3.748-23.893,2.731
			c-3.54-0.361-7.031-1.105-10.411-2.219L130.16,461.92c-7.623-2.482-14.573-6.687-20.309-12.288l-34.645-34.133
			c-3.053-3.496-4.959-7.845-5.461-12.459c-0.543-3.653-0.281-7.381,0.768-10.923l2.731-7.936h37.547
			c4.974,0.005,9.762,1.895,13.397,5.291L214.299,476.853z"/>
		<path style="fill:#D4E1F4;" d="M189.381,480.181c-3.54-0.361-7.031-1.105-10.411-2.219L130.16,461.92
			c-7.623-2.482-14.573-6.687-20.309-12.288l-34.645-34.133c-3.053-3.496-4.959-7.845-5.461-12.459h32.085
			c4.974,0.005,9.762,1.895,13.397,5.291L189.381,480.181z"/>
		<g>
			<circle style="fill:#E3E7F2;" cx="102.939" cy="98.4" r="25.6"/>
			<circle style="fill:#E3E7F2;" cx="188.272" cy="183.733" r="25.6"/>
			<circle style="fill:#E3E7F2;" cx="316.272" cy="55.733" r="25.6"/>
			<circle style="fill:#E3E7F2;" cx="376.005" cy="124" r="25.6"/>
		</g>
	</g>
	<g transform="translate(8 29)">
		<path style="fill:#FFFFFF;" d="M157.637,229.048l-21.304,2.638l10.04,1.799c0.12-0.013,0.241,0.017,0.341,0.085l36.523-4.523
			l-27.648,3.413L157.637,229.048z"/>
		<path style="fill:#FFFFFF;" d="M428.997,263.864l0.135-0.012c-1.024-0.555-2.119-0.969-3.254-1.232
			C426.972,262.883,428.022,263.302,428.997,263.864z"/>
		<path style="fill:#FFFFFF;" d="M421.659,262.243c1.172-0.098,2.351-0.027,3.503,0.213
			C424.009,262.224,422.83,262.152,421.659,262.243z"/>
		<path style="fill:#FFFFFF;" d="M403.31,263.829c-2.188-1.283-4.727-1.838-7.251-1.587l-3.192,0.276
			c1.995,0.685,4.03,1.248,6.094,1.687L403.31,263.829z"/>
		<path style="fill:#FFFFFF;" d="M204.571,452.963L155.76,436.92c-7.623-2.482-14.573-6.687-20.309-12.288l-34.645-34.133
			c-3.053-3.496-4.959-7.845-5.461-12.459c-0.543-3.653-0.281-7.381,0.768-10.923l2.731-7.936c-3.409,0.045-6.696-1.272-9.13-3.659
			c-2.435-2.387-3.817-5.646-3.84-9.056V238.008c-0.047-3.886,1.76-7.561,4.864-9.899l0.009-0.006l-15.199-2.724
			c-3.703-0.668-7.512,0.331-10.411,2.731c-3.104,2.337-4.911,6.013-4.864,9.899v108.459c0.023,3.409,1.406,6.669,3.84,9.056
			c2.435,2.387,5.721,3.704,9.13,3.659l-2.731,7.936c-1.049,3.541-1.311,7.269-0.768,10.923c0.502,4.614,2.409,8.963,5.461,12.459
			l34.645,34.133c5.737,5.601,12.686,9.806,20.309,12.288l48.811,16.043c3.38,1.114,6.87,1.857,10.411,2.219
			c6.314,0.785,12.719,0.371,18.879-1.222C207.025,453.654,205.788,453.358,204.571,452.963z"/>
	</g>
	<g>
		<path style="fill:#428DFF;" d="M428.864,282.713l-32.933,2.95c-12.773,1.202-25.423-3.305-34.558-12.313l-21.275-14.858
			c-1.227-0.84-2.504-1.604-3.825-2.287l-17.017-11.3c-14.268-9.485-31.025-14.532-48.158-14.504h-56.483
			c-9.299-0.024-18.002,4.573-23.225,12.267l-5.008,7.4l-37.108,4.571c-6.332,0.782-12.745,0.607-19.025-0.521l-45.2-8.096
			c-6.297-1.138-12.775,0.578-17.683,4.683c-4.832,4.019-7.626,9.978-7.625,16.262v108.5c0.019,7.559,4.048,14.54,10.583,18.338
			c-3.125,11.072-0.532,22.974,6.917,31.742l34.658,34.138c6.654,6.527,14.721,11.437,23.575,14.35l48.825,16.033
			c11.581,3.874,24.083,4.038,35.762,0.469l10.763,10.43c7.596,7.103,17.609,11.051,28.008,11.046
			c3.359-0.002,6.705-0.409,9.967-1.212l45.875-11.296c10.744-2.628,20.825-7.462,29.6-14.196l23.95-18.35
			c11.629-8.908,17.497-23.432,15.319-37.918l51.114-17.936c10.622-4.101,17.624-14.318,17.616-25.704v-81.487
			c-0.011-5.952-2.517-11.628-6.908-15.646C440.886,284.183,434.899,282.167,428.864,282.713z M189.614,473.85l-48.817-16.033
			c-6.354-2.086-12.143-5.607-16.917-10.292l-34.658-34.138c-2.892-4.247-3.837-9.525-2.6-14.513l0.719-2.121h31.456
			c2.741-0.021,5.39,0.992,7.417,2.837l78.777,76.342C199.782,476.156,194.575,475.451,189.614,473.85z M357.839,453.408
			l-0.078,0.06L308.555,374.7c-1.611-2.594-4.485-4.13-7.537-4.026c-3.052,0.104-5.815,1.831-7.246,4.529
			c-1.431,2.698-1.31,5.954,0.316,8.539l50.068,80.149l-10.268,7.867c-4.394,3.341-9.211,6.084-14.326,8.158l-36.849-60.495
			c-2.458-4.011-7.697-5.277-11.715-2.832s-5.301,7.68-2.868,11.706l34.476,56.599l-23.649,5.823l-28.993-39.984
			c-2.771-3.801-8.095-4.642-11.903-1.882c-3.808,2.761-4.664,8.083-1.913,11.898l24.616,33.948
			c-6.646,0.615-13.244-1.599-18.175-6.098L137.981,387.225c-5.204-4.859-12.063-7.554-19.183-7.537H81.222
			c-2.384,0.05-4.359-1.837-4.417-4.221v-108.5c0.001-1.23,0.555-2.394,1.508-3.171c1.033-0.861,2.394-1.218,3.717-0.975
			l45.208,8.096c7.961,1.424,16.09,1.647,24.117,0.662l23.444-2.889l-1.294,2.122c-7.426,12.128-4.288,27.926,7.208,36.296
			c10.158,7.485,24.062,7.27,33.983-0.525l18.378-14.479h22.022c2.675-0.006,5.261,0.961,7.275,2.721l50.467,44.183
			c0.838,0.732,1.555,1.591,2.125,2.546l48.775,81.671C369.72,433.325,367.183,446.304,357.839,453.408z M435.205,385.4
			c0.013,4.258-2.558,8.099-6.5,9.708l-51.164,17.948l-47.919-80.243c-1.487-2.493-3.357-4.737-5.542-6.65l-50.467-44.183
			c-5.128-4.48-11.707-6.947-18.517-6.942h-16.45v-4.221c0-4.713-3.821-8.533-8.533-8.533s-8.533,3.821-8.533,8.533v8.612
			l-17.45,13.75c-3.883,3.056-9.332,3.133-13.3,0.188c-4.336-3.148-5.533-9.096-2.75-13.675l10.347-16.977l7.095-10.481
			c2.05-3.001,5.457-4.788,9.092-4.767h56.483c13.771-0.026,27.241,4.029,38.708,11.654l17.442,11.583l0.95,0.546
			c0.769,0.379,1.509,0.812,2.217,1.296l19.525,13.5c12.685,12.154,30.014,18.215,47.508,16.617l32.933-2.95
			c1.265-0.11,2.519,0.306,3.467,1.15c0.863,0.779,1.357,1.887,1.358,3.05V385.4z"/>
		<path style="fill:#428DFF;" d="M506.732,0.658c-1.033-0.431-2.141-0.655-3.26-0.658h-25.6c-4.713,0-8.533,3.821-8.533,8.533
			s3.821,8.533,8.533,8.533h5l-81.636,81.636c-9.884-6.039-22.212-6.449-32.476-1.079L352.44,78.96
			c9.724-13.981,7.685-32.986-4.784-44.586c-12.469-11.6-31.571-12.264-44.815-1.557c-13.244,10.707-16.597,29.524-7.866,44.147
			l-81.472,81.472c-10.582-6.448-23.879-6.448-34.462,0l-38.806-38.806c3.133-5.204,4.804-11.156,4.836-17.23
			c0-18.851-15.282-34.133-34.133-34.133S76.805,83.549,76.805,102.4c0.039,5.558,1.452,11.02,4.113,15.899l-78.146,71.68
			c-2.246,2.06-3.223,5.162-2.562,8.138c0.661,2.975,2.859,5.372,5.767,6.288s6.082,0.21,8.328-1.85l78.05-71.592
			c10.79,7.154,24.739,7.44,35.814,0.735l38.806,38.806c-3.133,5.204-4.804,11.156-4.837,17.23
			c0,18.851,15.282,34.133,34.133,34.133s34.133-15.282,34.133-34.133c-0.032-6.074-1.703-12.027-4.836-17.23l81.472-81.472
			c9.884,6.039,22.212,6.449,32.476,1.079l16.32,18.664c-9.724,13.981-7.685,32.986,4.784,44.586s31.571,12.264,44.815,1.557
			c13.244-10.707,16.597-29.524,7.866-44.147l81.636-81.636v5c0,4.713,3.821,8.533,8.533,8.533c4.713,0,8.533-3.821,8.533-8.533
			v-25.6C511.992,5.086,509.915,1.983,506.732,0.658z M93.872,102.4c-0.006-7.725,5.177-14.491,12.638-16.496
			c7.46-2.005,15.337,1.252,19.204,7.94c3.867,6.688,2.759,15.139-2.701,20.604l-0.016,0.01l-0.011,0.016
			c-4.88,4.877-12.218,6.334-18.592,3.691C98.021,115.522,93.868,109.3,93.872,102.4z M196.272,204.8
			c-6.9,0.004-13.122-4.149-15.766-10.523s-1.186-13.712,3.692-18.592l0.016-0.01l0.011-0.016c3.195-3.196,7.528-4.992,12.047-4.992
			s8.853,1.796,12.047,4.992l0.011,0.016l0.016,0.01c4.878,4.88,6.335,12.218,3.692,18.592
			C209.394,200.651,203.172,204.804,196.272,204.8z M312.225,71.808l-0.011-0.016l-0.016-0.01c-5.004-4.945-6.472-12.449-3.7-18.916
			s9.22-10.577,16.252-10.361c7.032,0.216,13.216,4.713,15.587,11.337c2.371,6.624,0.447,14.024-4.851,18.654l-0.023,0.013
			l-0.012,0.016C328.748,78.492,318.548,78.177,312.225,71.808z M384.005,145.067c-7.105,0.03-13.478-4.363-15.979-11.013
			c-2.501-6.65-0.601-14.154,4.762-18.813l0.025-0.015l0.012-0.016c6.704-5.967,16.903-5.653,23.227,0.716l0.011,0.016l0.016,0.01
			c4.878,4.88,6.335,12.218,3.692,18.592C397.128,140.917,390.905,145.071,384.005,145.067z"/>
	</g>
</g>
<g>
</g>
<g>
</g>
<g>
</g>
<g>
</g>
<g>
</g>
<g>
</g>
<g>
</g>
<g>
</g>
<g>
</g>
<g>
</g>
<g>
</g>
<g>
</g>
<g>
</g>
<g>
</g>
<g>
</g>
</svg>
