<?xml version="1.0" encoding="iso-8859-1"?>
<!-- Generator: Adobe Illustrator 19.0.0, SVG Export Plug-In . SVG Version: 6.00 Build 0)  -->
<svg version="1.1" id="Capa_1" xmlns="http://www.w3.org/2000/svg" xmlns:xlink="http://www.w3.org/1999/xlink" x="0px" y="0px"
	 viewBox="0 0 512.02 512.02" style="enable-background:new 0 0 512.02 512.02;" xml:space="preserve">
<g transform="translate(0 -1)">
	<g transform="translate(1 2)">
		<path style="fill:#A4C2F7;" d="M84.333,289.146v179.2c0,4.526-1.798,8.868-4.998,12.068s-7.542,4.999-12.068,4.998H24.6
			c-9.414-0.028-17.039-7.652-17.067-17.067v-179.2c0.028-9.414,7.652-17.039,17.067-17.067h42.667
			C76.681,272.107,84.306,279.731,84.333,289.146z"/>
		<path style="fill:#E3E7F2;" d="M58.733,289.146v179.2c0,4.526-1.798,8.868-4.998,12.068c-3.201,3.201-7.542,4.999-12.068,4.998
			H24.6c-9.414-0.028-17.039-7.652-17.067-17.067v-179.2c0.028-9.414,7.652-17.039,17.067-17.067h17.067
			C51.081,272.107,58.706,279.731,58.733,289.146z"/>
		<path style="fill:#7FABFA;" d="M491.203,370.81l-159.915,97.365c-9.359,5.696-20.105,8.708-31.061,8.704H84.333l-2.048-0.427
			c1.335-2.494,2.038-5.278,2.048-8.107v-179.2h23.893c17.677,0.025,34.823,6.041,48.64,17.067
			c13.817,11.026,30.963,17.042,48.64,17.067h44.629c15.004-0.022,28.912,7.856,36.608,20.736l0.768,1.28
			c7.123,11.903,5.411,27.099-4.181,37.12c-0.145,0.219-0.317,0.42-0.512,0.597h20.053c3.686,0.002,7.348-0.604,10.837-1.792
			l151.637-50.517l6.315-2.133c9.56-3.139,20.058,0.155,26.112,8.192v0.085c3.966,5.267,5.515,11.968,4.263,18.442
			C500.783,361.762,496.847,367.402,491.203,370.81z"/>
		<g>
			<path style="fill:#E3E7F2;" d="M465.603,370.81l-159.915,97.365c-9.359,5.696-20.105,8.708-31.061,8.704H84.333l-2.048-0.427
				c1.335-2.494,2.038-5.278,2.048-8.107V289.231c17.084,0.355,33.577,6.322,46.933,16.981
				c13.817,11.026,30.963,17.042,48.64,17.067h44.629c15.004-0.022,28.912,7.856,36.608,20.736l0.768,1.28
				c7.275,12.16,5.34,27.711-4.693,37.717h20.053c2.035,0.017,4.066-0.183,6.059-0.597c1.623-0.267,3.221-0.667,4.779-1.195
				l157.952-52.651c6.435-2.109,13.467-1.331,19.285,2.133c2.657,1.543,4.979,3.603,6.827,6.059v0.085
				c3.966,5.267,5.515,11.968,4.263,18.442C475.184,361.762,471.247,367.402,465.603,370.81z"/>
			<path style="fill:#E3E7F2;" d="M391.533,156.668c0.044-29.435-11.629-57.677-32.443-78.491
				C338.277,57.363,310.035,45.69,280.6,45.734c-8.533,0-8.533,3.243-8.533,8.533v8.533c0,4.713-3.82,8.533-8.533,8.533h-17.067
				c-4.713,0-8.533-3.821-8.533-8.533v-8.533c0-5.284,0-8.533-8.533-8.533c-8.533,0-16.079,1.279-21.715-3.441
				c-7.86-6.532-16.438-12.148-25.568-16.74c-2.647-1.36-5.81-1.245-8.352,0.303c-2.541,1.548-4.094,4.307-4.099,7.283
				l-0.001,23.981c-0.046,7.897-3.707,15.338-9.936,20.193c-7.383,5.798-14.055,12.448-19.878,19.812
				c-11.159,15.251-28.648,24.601-47.528,25.409c-9.128,0.007-16.523,7.408-16.523,16.536v35.196
				c-0.102,9.021,7.12,16.42,16.141,16.538c18.352,0.009,35.605,8.746,46.473,23.534c9.401,12.316,21.036,22.753,34.297,30.766
				c6.313,3.876,9.384,11.397,7.588,18.583l-0.182,0.727c-1.082,4.326,1.35,8.755,5.58,10.165l13.699,4.566
				c2.746,0.915,5.769,0.376,8.029-1.432l10.404-8.323c3.812-2.986,8.692-4.255,13.476-3.504c7.847,1.139,15.765,1.712,23.694,1.716
				c16.416,0.019,32.741-2.437,48.425-7.286c5.314-1.586,11.068-0.439,15.367,3.063l16.67,13.336
				c2.902,2.321,6.972,2.498,10.064,0.437l15.225-10.15c3.088-2.058,4.491-5.876,3.471-9.445l-4.913-17.196
				c-1.657-5.724-0.172-11.898,3.908-16.241C381.028,206.147,391.178,181.969,391.533,156.668z"/>
		</g>
		<path style="fill:#A4C2F7;" d="M364.227,257.572c1.008,3.557-0.408,7.357-3.499,9.387l-15.189,10.155
			c-3.072,2.135-7.189,1.96-10.069-0.427l-6.741-5.461l6.4-4.267c3.091-2.029,4.507-5.829,3.499-9.387l-4.949-17.237
			c-1.639-5.719-0.148-11.878,3.925-16.213c17.819-17.953,27.975-42.121,28.331-67.413c-0.056-53.956-38.843-100.084-91.989-109.397
			c1.987-1.235,4.328-1.775,6.656-1.536c29.436-0.047,57.679,11.626,78.493,32.44c20.814,20.814,32.487,49.058,32.44,78.493
			c-0.355,25.292-10.512,49.46-28.331,67.413c-4.073,4.336-5.564,10.495-3.925,16.213L364.227,257.572z"/>
		<g>
			<path style="fill:#FFFFFF;" d="M465.311,330.686c-5.811-3.448-12.828-4.22-19.25-2.116l-130.719,43.573
				c-1.43,3.818-3.61,7.31-6.411,10.272c1.623-0.267,3.221-0.667,4.779-1.195L465.311,330.686z"/>
			<path style="fill:#FFFFFF;" d="M476.235,327.608c-1.553,0.166-3.085,0.488-4.574,0.962
				C473.151,328.099,474.683,327.777,476.235,327.608z"/>
			<path style="fill:#FFFFFF;" d="M477.237,327.527c1.287-0.098,2.579-0.089,3.865,0.026
				C479.816,327.437,478.524,327.428,477.237,327.527z"/>
			<path style="fill:#FFFFFF;" d="M117.923,122.534c18.881-0.808,36.369-10.157,47.528-25.409
				c5.823-7.364,12.495-14.014,19.878-19.812c6.229-4.854,9.89-12.295,9.936-20.192l0.002-23.958
				c-4.242-2.773-8.632-5.313-13.15-7.609c-2.647-1.36-5.81-1.245-8.352,0.303c-2.541,1.548-4.094,4.307-4.099,7.283l-0.002,23.981
				c-0.046,7.897-3.707,15.338-9.936,20.192c-7.383,5.798-14.055,12.448-19.878,19.812c-11.159,15.252-28.648,24.601-47.528,25.409
				c-9.128,0.007-16.523,7.408-16.523,16.536v35.196c-0.102,9.021,7.12,16.42,16.141,16.538
				c18.352,0.009,35.605,8.746,46.473,23.534c9.401,12.316,21.036,22.753,34.297,30.766c6.313,3.876,9.384,11.397,7.588,18.584
				l-0.182,0.727c-1.082,4.326,1.35,8.755,5.58,10.165l13.699,4.566c2.746,0.915,5.769,0.376,8.029-1.432l3.904-3.123l-0.032-0.011
				c-4.23-1.41-6.662-5.839-5.58-10.165l0.182-0.727c1.796-7.187-1.275-14.708-7.588-18.584
				c-13.261-8.013-24.896-18.45-34.297-30.766c-10.868-14.788-28.121-23.525-46.473-23.534c-9.021-0.118-16.243-7.517-16.141-16.538
				V139.07C101.4,129.942,108.795,122.541,117.923,122.534z"/>
			<path style="fill:#FFFFFF;" d="M490.619,330.552c-1.27-0.735-2.605-1.35-3.989-1.837
				C488.015,329.201,489.35,329.816,490.619,330.552z"/>
			<path style="fill:#FFFFFF;" d="M486.383,328.616c-1.469-0.484-2.983-0.82-4.518-1.006
				C483.401,327.794,484.914,328.131,486.383,328.616z"/>
			<path style="fill:#FFFFFF;" d="M267.937,267.087c-3.721-0.289-7.404-0.678-11.032-1.203c-3.403-0.5-6.878-0.008-10.008,1.419
				c2.69,0.134,5.37,0.298,8.103,0.298C259.368,267.601,263.68,267.42,267.937,267.087z"/>
			<path style="fill:#FFFFFF;" d="M33.133,468.346v-179.2c0.028-9.414,7.652-17.039,17.067-17.067H24.6
				c-9.414,0.028-17.039,7.652-17.067,17.067v179.2c0.028,9.414,7.653,17.039,17.067,17.067h25.6
				C40.786,485.385,33.161,477.76,33.133,468.346z"/>
			<path style="fill:#FFFFFF;" d="M107.573,476.879h2.36l-2.048-0.427C107.8,476.608,107.663,476.726,107.573,476.879z"/>
		</g>
	</g>
	<g>
		<polygon style="fill:#FFFFFF;" points="17.067,291.146 17.067,402.079 17.067,470.346 0,470.346 0,402.079 0,291.146 		"/>
		<g>
			<path style="fill:#428DFF;" d="M179.2,111.733c-10.938,0.541-20.572,7.373-24.7,17.517c-2.108,4.216-0.399,9.342,3.817,11.45
				c4.216,2.108,9.342,0.399,11.45-3.817c2.533-5.062,6.059-8.083,9.433-8.083c3.375,0,6.9,3.021,9.433,8.083
				c1.364,2.727,4.078,4.52,7.122,4.702c3.044,0.183,5.953-1.272,7.633-3.817c1.68-2.544,1.875-5.792,0.511-8.519
				C199.772,119.106,190.138,112.274,179.2,111.733z"/>
			<path style="fill:#428DFF;" d="M230.4,39.2c-1.617,0-3.2,0.042-4.75,0.083c-5.783,0.179-9.458,0.175-11.483-1.529
				c-8.356-6.964-17.485-12.944-27.208-17.821c-5.292-2.694-11.605-2.445-16.669,0.657c-5.064,3.102-8.153,8.613-8.156,14.551
				v23.979c-0.039,5.289-2.506,10.266-6.692,13.5c-7.914,6.216-15.066,13.344-21.308,21.237
				c-9.562,13.168-24.565,21.307-40.817,22.142c-13.83,0.031-25.03,11.241-25.05,25.071v35.196
				c0.016,6.743,2.704,13.205,7.475,17.971c4.526,4.546,10.677,7.101,17.092,7.1H93c15.656-0.012,30.373,7.467,39.592,20.121
				c10.03,13.187,22.466,24.355,36.65,32.917c3.319,2.121,4.796,6.21,3.6,9.963c-2.126,8.648,2.722,17.484,11.158,20.337
				l13.708,4.567c5.489,1.843,11.538,0.763,16.05-2.867l10.408-8.325c1.965-1.512,4.472-2.136,6.917-1.721
				c25.413,3.71,51.333,1.707,75.875-5.862c2.606-0.756,5.418-0.166,7.5,1.575l16.675,13.338c5.799,4.651,13.945,5.004,20.125,0.871
				l15.217-10.146c6.197-4.102,9.014-11.751,6.958-18.892l-4.917-17.196c-0.825-2.822-0.107-5.869,1.892-8.025
				c18.705-18.919,29.604-44.185,30.532-70.773c3.554-6.303,9.985-10.45,17.193-11.085c4.713,0,8.533-3.821,8.533-8.533
				c0-4.713-3.82-8.533-8.533-8.533c-6.746,0.005-13.333,2.048-18.898,5.861C389.737,81.363,339.943,39.149,281.6,39.2
				c-17.067,0-17.067,12.4-17.067,17.067V64.8h-17.067v-8.533C247.467,51.6,247.467,39.2,230.4,39.2z M264.533,81.867
				c9.421-0.011,17.056-7.645,17.067-17.067v-8.533c56.501,0.127,102.273,45.899,102.4,102.4
				c-0.32,23.128-9.641,45.22-25.983,61.587c-6.13,6.545-8.376,15.827-5.917,24.45l4.917,17.196l-15.225,10.15l-16.667-13.338
				c-6.509-5.28-15.215-6.983-23.233-4.546c-22.114,6.818-45.469,8.618-68.367,5.271c-7.119-1.076-14.365,0.838-20.025,5.288
				l-10.4,8.325l-13.517-5.3c2.721-10.8-1.903-22.113-11.408-27.917c-12.353-7.441-23.188-17.15-31.933-28.617
				c-12.441-16.775-32.025-26.749-52.908-26.946h-0.45c-1.947,0.123-3.84-0.671-5.117-2.146c-1.556-1.553-2.431-3.66-2.433-5.858
				v-35.196c0.008-4.416,3.584-7.994,8-8.004c21.525-0.711,41.526-11.286,54.234-28.675c5.406-6.836,11.601-13.008,18.458-18.387
				c8.294-6.457,13.153-16.373,13.175-26.884l0.075-23.946c8.543,4.302,16.571,9.556,23.933,15.663
				c6.648,4.71,14.854,6.683,22.917,5.508c1.392-0.038,2.817-0.079,4.275-0.079V64.8c0.011,9.421,7.645,17.056,17.067,17.067
				H264.533z"/>
			<path style="fill:#428DFF;" d="M8.533,367.946c2.259-0.034,4.422-0.918,6.059-2.475c3.3-3.365,3.3-8.752,0-12.117l-1.279-1.025
				c-0.476-0.324-0.993-0.583-1.538-0.771c-0.484-0.246-1.003-0.417-1.538-0.509c-0.563-0.096-1.133-0.153-1.704-0.171
				c-2.259,0.031-4.423,0.915-6.059,2.475c-3.222,3.397-3.222,8.721,0,12.117c0.815,0.771,1.77,1.379,2.813,1.792
				C6.314,367.701,7.417,367.933,8.533,367.946z"/>
			<path style="fill:#428DFF;" d="M505.583,333.642c-8.234-11.003-22.593-15.488-35.625-11.129l-157.95,52.654
				c-2.615,0.869-5.353,1.313-8.108,1.313h-4.901c4.056-11.107,2.89-23.45-3.174-33.6l-0.767-1.275
				c-9.294-15.382-25.937-24.804-43.908-24.858h-44.633c-15.742-0.02-31.012-5.377-43.317-15.196
				c-15.335-12.236-34.365-18.911-53.983-18.938H92.294c-3.592-10.199-13.214-17.033-24.028-17.067H25.6
				c-14.132,0.015-25.585,11.468-25.6,25.6v34.133c0,4.713,3.821,8.533,8.533,8.533s8.533-3.82,8.533-8.533v-34.133
				c0.005-4.711,3.822-8.529,8.533-8.533h42.667c4.711,0.005,8.529,3.822,8.533,8.533v179.2c-0.005,4.711-3.822,8.529-8.533,8.533
				H25.6c-4.711-0.005-8.529-3.822-8.533-8.533v-76.8c0-4.713-3.821-8.533-8.533-8.533S0,388.833,0,393.546v76.8
				c0.015,14.132,11.468,25.585,25.6,25.6h42.667c7.24-0.02,14.129-3.123,18.942-8.533h214.017
				c12.52,0.002,24.799-3.442,35.492-9.954l159.958-97.363c7.682-4.681,13.034-12.384,14.742-21.217
				c1.703-8.557-0.233-17.436-5.342-24.508C505.924,334.119,505.76,333.876,505.583,333.642z M494.658,355.65
				c-0.771,4.116-3.263,7.706-6.85,9.867L327.85,462.883c-8.023,4.882-17.234,7.463-26.625,7.463H93.867V299.679h15.35
				c15.742,0.02,31.012,5.377,43.317,15.196c15.335,12.236,34.365,18.911,53.983,18.938h44.633
				c11.979,0.033,23.073,6.313,29.267,16.567l0.767,1.271c4.656,7.767,4.155,17.578-1.269,24.829H228.05
				c-16.849-0.014-33.323,4.974-47.333,14.333l-6.25,4.167c-3.876,2.631-4.906,7.896-2.307,11.794s7.854,4.972,11.774,2.406
				l6.25-4.167c11.208-7.488,24.387-11.479,37.867-11.466h75.85c4.588,0,9.146-0.739,13.5-2.188l157.958-52.654
				c5.781-1.991,12.191-0.203,16.108,4.492c0.15,0.25,0.317,0.492,0.492,0.729C494.492,347.268,495.475,351.535,494.658,355.65
				L494.658,355.65z"/>
		</g>
	</g>
</g>
<g>
</g>
<g>
</g>
<g>
</g>
<g>
</g>
<g>
</g>
<g>
</g>
<g>
</g>
<g>
</g>
<g>
</g>
<g>
</g>
<g>
</g>
<g>
</g>
<g>
</g>
<g>
</g>
<g>
</g>
</svg>
