<?xml version="1.0" encoding="iso-8859-1"?>
<!-- Generator: Adobe Illustrator 19.0.0, SVG Export Plug-In . SVG Version: 6.00 Build 0)  -->
<svg version="1.1" id="Capa_1" xmlns="http://www.w3.org/2000/svg" xmlns:xlink="http://www.w3.org/1999/xlink" x="0px" y="0px"
	 viewBox="0 0 512 512" style="enable-background:new 0 0 512 512;" xml:space="preserve">
<g>
	<g transform="translate(0 1)">
		<path style="fill:#7FABFA;" d="M503.467,129.133v57.6H8.533v-57.6c-0.531-9.995,7.079-18.556,17.067-19.2h119.467v38.4h221.867
			v-38.4H486.4C496.388,110.578,503.998,119.139,503.467,129.133z"/>
		<g>
			<path style="fill:#A4C2F7;" d="M477.867,129.133v57.6H8.533v-57.6c-0.531-9.995,7.079-18.556,17.067-19.2h119.467v38.4h221.867
				v-38.4H460.8C470.788,110.578,478.398,119.139,477.867,129.133z"/>
			<path style="fill:#A4C2F7;" d="M145.067,41.667v68.267H76.8l0-68.267c-0.024-13.9,8.429-26.409,21.333-31.573
				c4.046-1.722,8.403-2.594,12.8-2.56c9.054-0.003,17.737,3.593,24.139,9.995C141.474,23.93,145.069,32.613,145.067,41.667z"/>
		</g>
		<path style="fill:#E3E7F2;" d="M119.467,41.667l0,68.267H76.8l0-68.267c-0.024-13.9,8.429-26.409,21.333-31.573
			C111.038,15.257,119.491,27.767,119.467,41.667z"/>
		<g>
			<path style="fill:#A4C2F7;" d="M366.933,33.133l0,110.933H145.067v-102.4c0.003-9.054-3.593-17.737-9.995-24.139
				c-6.402-6.402-15.085-9.997-24.139-9.995l230.4,0c6.792-0.009,13.309,2.685,18.112,7.488
				C364.248,19.824,366.942,26.341,366.933,33.133z"/>
			<path style="fill:#A4C2F7;" d="M162.133,314.733h187.733c9.426,0,17.067,7.641,17.067,17.067v153.6
				c0,9.426-7.641,17.067-17.067,17.067H162.133c-9.426,0-17.067-7.641-17.067-17.067V331.8
				C145.067,322.374,152.708,314.733,162.133,314.733z"/>
		</g>
		<g>
			<path style="fill:#E3E7F2;" d="M341.333,33.133l0,110.933H145.067v-102.4c0.003-9.054-3.593-17.737-9.995-24.139
				c-6.402-6.402-15.085-9.997-24.139-9.995l204.8,0c6.792-0.009,13.309,2.685,18.112,7.488
				C338.648,19.824,341.342,26.341,341.333,33.133z"/>
			<path style="fill:#E3E7F2;" d="M162.133,314.733h162.133c9.426,0,17.067,7.641,17.067,17.067v153.6
				c0,9.426-7.641,17.067-17.067,17.067H162.133c-9.426,0-17.067-7.641-17.067-17.067V331.8
				C145.067,322.374,152.708,314.733,162.133,314.733z"/>
		</g>
		<path style="fill:#A4C2F7;" d="M503.467,178.2v238.933c-0.028,9.414-7.653,17.039-17.067,17.067H366.933V331.8
			c-0.027-9.414-7.652-17.039-17.067-17.067H162.133c-9.414,0.028-17.039,7.652-17.067,17.067v102.4H25.6
			c-9.414-0.028-17.039-7.652-17.067-17.067V178.2H503.467z"/>
		<path style="fill:#D4E1F4;" d="M477.867,178.2v238.933c-0.028,9.414-7.653,17.039-17.067,17.067h-93.867V331.8
			c-0.027-9.414-7.652-17.039-17.067-17.067H162.133c-9.414,0.028-17.039,7.652-17.067,17.067v102.4H25.6
			c-9.414-0.028-17.039-7.652-17.067-17.067V178.2H477.867z"/>
		<path style="fill:#E3E7F2;" d="M51.2,212.333h51.2c4.713,0,8.533,3.821,8.533,8.533v51.2c0,4.713-3.821,8.533-8.533,8.533H51.2
			c-4.713,0-8.533-3.82-8.533-8.533v-51.2C42.667,216.154,46.487,212.333,51.2,212.333z"/>
		<g>
			<path style="fill:#FFFFFF;" d="M98.133,10.092C85.229,15.256,76.776,27.766,76.8,41.666l0,68.267h25.6V41.666
				c-0.024-13.9,8.429-26.41,21.333-31.574c4.046-1.722,8.403-2.594,12.8-2.561l-25.6,0.001
				C106.536,7.499,102.179,8.37,98.133,10.092z"/>
			<path style="fill:#FFFFFF;" d="M34.133,417.133v-288c-0.531-9.995,7.079-18.556,17.067-19.2H25.6
				c-9.988,0.644-17.598,9.205-17.067,19.2v288c0.028,9.414,7.653,17.039,17.067,17.067h25.6
				C41.786,434.172,34.161,426.548,34.133,417.133z"/>
			<rect x="366.933" y="144.067" style="fill:#FFFFFF;" width="25.6" height="8.533"/>
		</g>
	</g>
	<g>
		<polygon style="fill:#FFFFFF;" points="17.067,179.2 17.067,290.133 17.067,418.133 0,418.133 0,290.133 0,179.2 		"/>
		<g>
			<path style="fill:#428DFF;" d="M8.533,256c2.259-0.034,4.422-0.918,6.059-2.475c3.3-3.365,3.3-8.752,0-12.117l-1.279-1.025
				c-0.476-0.324-0.993-0.583-1.538-0.771c-0.484-0.246-1.003-0.417-1.538-0.509c-0.563-0.096-1.133-0.153-1.704-0.171
				c-2.259,0.031-4.423,0.915-6.059,2.475c-3.222,3.397-3.222,8.721,0,12.117c0.815,0.771,1.77,1.379,2.813,1.792
				C6.314,255.755,7.417,255.987,8.533,256z"/>
			<path style="fill:#428DFF;" d="M119.467,213.333c0-4.713-3.821-8.533-8.533-8.533H42.667c-4.713,0-8.533,3.82-8.533,8.533V281.6
				c0,4.713,3.821,8.533,8.533,8.533h68.267c4.713,0,8.533-3.821,8.533-8.533V213.333z M102.4,273.067H51.2v-51.2h51.2V273.067z"/>
			<path style="fill:#428DFF;" d="M213.333,204.8h-68.267c-4.713,0-8.533,3.82-8.533,8.533s3.821,8.533,8.533,8.533h68.267
				c4.713,0,8.533-3.821,8.533-8.533S218.046,204.8,213.333,204.8z"/>
			<path style="fill:#428DFF;" d="M179.2,59.733h153.6c4.713,0,8.533-3.821,8.533-8.533s-3.82-8.533-8.533-8.533H179.2
				c-4.713,0-8.533,3.821-8.533,8.533S174.487,59.733,179.2,59.733z"/>
			<path style="fill:#428DFF;" d="M179.2,93.867h153.6c4.713,0,8.533-3.821,8.533-8.533s-3.82-8.533-8.533-8.533H179.2
				c-4.713,0-8.533,3.821-8.533,8.533S174.487,93.867,179.2,93.867z"/>
			<path style="fill:#428DFF;" d="M486.4,102.4H375.467V34.133C375.445,15.291,360.176,0.022,341.333,0h-230.4
				C87.381,0.028,68.294,19.114,68.267,42.667V102.4H25.6C11.468,102.415,0.015,113.868,0,128v85.333
				c0,4.713,3.821,8.533,8.533,8.533s8.533-3.821,8.533-8.533v-25.6h477.867v230.4c-0.005,4.711-3.822,8.529-8.533,8.533H375.467
				V332.8c-0.015-14.132-11.468-25.585-25.6-25.6H162.133c-14.132,0.015-25.585,11.468-25.6,25.6v93.867H25.6
				c-4.71-0.006-8.527-3.823-8.533-8.533V281.6c0-4.713-3.821-8.533-8.533-8.533S0,276.887,0,281.6v136.533
				c0.015,14.132,11.468,25.585,25.6,25.6h110.933V486.4c0.015,14.132,11.468,25.585,25.6,25.6h187.733
				c14.132-0.015,25.585-11.468,25.6-25.6v-42.667H486.4c14.132-0.015,25.585-11.468,25.6-25.6V128
				C511.985,113.868,500.532,102.415,486.4,102.4z M358.4,486.4c-0.006,4.71-3.823,8.527-8.533,8.533H162.133
				c-4.71-0.006-8.527-3.823-8.533-8.533V332.8c0.006-4.71,3.823-8.527,8.533-8.533h187.733c4.71,0.006,8.527,3.823,8.533,8.533
				V486.4z M341.333,17.067c9.422,0.009,17.057,7.645,17.067,17.067v102.4H153.6V42.667c-0.019-2.656-0.286-5.304-0.799-7.909
				c-0.156-0.824-0.405-1.603-0.608-2.41c-0.418-1.717-0.944-3.407-1.573-5.058c-0.337-0.867-0.708-1.704-1.1-2.542
				c-0.715-1.527-1.521-3.009-2.413-4.44c-0.461-0.742-0.896-1.489-1.399-2.199c-0.237-0.335-0.415-0.713-0.661-1.041H341.333z
				 M85.333,42.667c0-14.138,11.462-25.6,25.6-25.6s25.6,11.462,25.6,25.6V102.4h-51.2V42.667z M17.067,170.667V128
				c0.006-4.71,3.823-8.527,8.533-8.533h110.933v17.067H128c-4.713,0-8.533,3.821-8.533,8.533c0,4.713,3.821,8.533,8.533,8.533h256
				c4.713,0,8.533-3.821,8.533-8.533c0-4.713-3.82-8.533-8.533-8.533h-8.533v-17.067H486.4c4.711,0.005,8.529,3.822,8.533,8.533
				v42.667H17.067z"/>
			<path style="fill:#428DFF;" d="M42.667,341.333H51.2v8.533c0,4.713,3.821,8.533,8.533,8.533s8.533-3.821,8.533-8.533v-8.533H76.8
				c4.713,0,8.533-3.82,8.533-8.533s-3.82-8.533-8.533-8.533h-8.533v-8.533c0-4.713-3.821-8.533-8.533-8.533
				s-8.533,3.821-8.533,8.533v8.533h-8.533c-4.713,0-8.533,3.82-8.533,8.533S37.954,341.333,42.667,341.333z"/>
			<path style="fill:#428DFF;" d="M281.6,384c0,4.713,3.821,8.533,8.533,8.533c4.713,0,8.533-3.82,8.533-8.533
				c0-16.483-14.683-30.271-34.133-33.443v-0.691c0-4.713-3.821-8.533-8.533-8.533c-4.713,0-8.533,3.821-8.533,8.533v0.691
				c-19.45,3.172-34.133,16.96-34.133,33.443c0,16.483,14.683,30.271,34.133,33.443v33.738c-9.811-2.41-17.067-8.723-17.067-15.981
				c0-4.713-3.821-8.533-8.533-8.533c-4.713,0-8.533,3.82-8.533,8.533c0,16.483,14.683,30.271,34.133,33.443v0.691
				c0,4.713,3.821,8.533,8.533,8.533c4.713,0,8.533-3.821,8.533-8.533v-0.691c19.45-3.172,34.133-16.96,34.133-33.443
				c0-16.483-14.683-30.271-34.133-33.443v-33.738C274.344,370.429,281.6,376.742,281.6,384z M230.4,384
				c0-7.258,7.256-13.571,17.067-15.981v31.962C237.656,397.571,230.4,391.258,230.4,384z M281.6,435.2
				c0,7.258-7.256,13.571-17.067,15.981v-31.962C274.344,421.629,281.6,427.942,281.6,435.2z"/>
			<circle style="fill:#428DFF;" cx="145.067" cy="247.467" r="8.533"/>
			<circle style="fill:#428DFF;" cx="145.067" cy="281.6" r="8.533"/>
			<circle style="fill:#428DFF;" cx="110.933" cy="315.733" r="8.533"/>
			<circle style="fill:#428DFF;" cx="110.933" cy="349.867" r="8.533"/>
			<circle style="fill:#428DFF;" cx="213.333" cy="247.467" r="8.533"/>
			<circle style="fill:#428DFF;" cx="213.333" cy="281.6" r="8.533"/>
			<circle style="fill:#428DFF;" cx="179.2" cy="247.467" r="8.533"/>
			<circle style="fill:#428DFF;" cx="179.2" cy="281.6" r="8.533"/>
			<circle style="fill:#428DFF;" cx="469.333" cy="401.067" r="8.533"/>
			<circle style="fill:#428DFF;" cx="435.2" cy="401.067" r="8.533"/>
		</g>
	</g>
</g>
<g>
</g>
<g>
</g>
<g>
</g>
<g>
</g>
<g>
</g>
<g>
</g>
<g>
</g>
<g>
</g>
<g>
</g>
<g>
</g>
<g>
</g>
<g>
</g>
<g>
</g>
<g>
</g>
<g>
</g>
</svg>
