<?xml version="1.0" encoding="iso-8859-1"?>
<!-- Generator: Adobe Illustrator 19.0.0, SVG Export Plug-In . SVG Version: 6.00 Build 0)  -->
<svg version="1.1" id="Capa_1" xmlns="http://www.w3.org/2000/svg" xmlns:xlink="http://www.w3.org/1999/xlink" x="0px" y="0px"
	 viewBox="0 0 511.984 511.984" style="enable-background:new 0 0 511.984 511.984;" xml:space="preserve">
<g>
	<g transform="translate(1 1)">
		<path style="fill:#A4C2F7;" d="M374.467,152.592C374.455,218.567,320.975,272.047,255,272.059c-4.275-0.01-8.548-0.238-12.8-0.683
			c-60.674-6.542-106.666-57.758-106.666-118.784S181.526,40.35,242.2,33.808c4.252-0.445,8.525-0.673,12.8-0.683
			C320.975,33.137,374.455,86.617,374.467,152.592z"/>
		<ellipse style="fill:#E3E7F2;" cx="242.2" cy="152.592" rx="106.667" ry="118.784"/>
		<path style="fill:#FFFFFF;" d="M314.733,126.992h-25.6c-4.713,0-8.533-3.821-8.533-8.533v-25.6c0-4.713-3.82-8.533-8.533-8.533
			h-34.133c-4.713,0-8.533,3.821-8.533,8.533v25.6c0,4.713-3.821,8.533-8.533,8.533h-25.6c-4.713,0-8.533,3.821-8.533,8.533v34.133
			c0,4.713,3.821,8.533,8.533,8.533h25.6c4.713,0,8.533,3.821,8.533,8.533v25.6c0,4.713,3.821,8.533,8.533,8.533h34.133
			c4.713,0,8.533-3.821,8.533-8.533v-25.6c0-4.713,3.821-8.533,8.533-8.533h25.6c4.713,0,8.533-3.82,8.533-8.533v-34.133
			C323.267,130.812,319.446,126.992,314.733,126.992z"/>
		<path style="fill:#A4C2F7;" d="M84.333,280.592v179.2c0,4.526-1.798,8.868-4.998,12.068s-7.542,4.999-12.068,4.998H24.6
			c-9.414-0.028-17.039-7.652-17.067-17.067v-179.2c0.028-9.414,7.652-17.039,17.067-17.067h42.667
			C76.681,263.553,84.306,271.178,84.333,280.592z"/>
		<path style="fill:#E3E7F2;" d="M58.733,280.592v179.2c0,4.526-1.798,8.868-4.998,12.068c-3.201,3.201-7.542,4.999-12.068,4.998
			H24.6c-9.414-0.028-17.039-7.652-17.067-17.067v-179.2c0.028-9.414,7.652-17.039,17.067-17.067h17.067
			C51.081,263.553,58.706,271.178,58.733,280.592z"/>
		<path style="fill:#7FABFA;" d="M491.203,362.256l-159.915,97.365c-9.359,5.696-20.105,8.708-31.061,8.704H84.333l-2.048-0.427
			c1.335-2.494,2.038-5.278,2.048-8.107v-179.2h23.893c17.677,0.025,34.823,6.041,48.64,17.067
			c13.817,11.026,30.963,17.042,48.64,17.067h44.629c15.004-0.022,28.912,7.856,36.608,20.736l0.768,1.28
			c7.123,11.903,5.411,27.099-4.181,37.12c-0.145,0.22-0.317,0.42-0.512,0.597h20.053c3.686,0.002,7.348-0.604,10.837-1.792
			l151.637-50.517l6.315-2.133c9.56-3.139,20.058,0.155,26.112,8.192v0.085c3.966,5.267,5.515,11.968,4.263,18.442
			C500.783,353.208,496.847,358.848,491.203,362.256z"/>
		<path style="fill:#E3E7F2;" d="M465.603,362.256l-159.915,97.365c-9.359,5.696-20.105,8.708-31.061,8.704H84.333l-2.048-0.427
			c1.335-2.494,2.038-5.278,2.048-8.107V280.677c17.084,0.355,33.577,6.322,46.933,16.981c13.817,11.026,30.963,17.042,48.64,17.067
			h44.629c15.004-0.022,28.912,7.856,36.608,20.736l0.768,1.28c7.275,12.16,5.34,27.711-4.693,37.717h20.053
			c2.035,0.017,4.066-0.183,6.059-0.597c1.623-0.267,3.221-0.667,4.779-1.195l157.952-52.651c6.435-2.109,13.467-1.331,19.285,2.133
			c2.657,1.543,4.979,3.603,6.827,6.059v0.085c3.966,5.267,5.515,11.968,4.263,18.442
			C475.184,353.208,471.247,358.848,465.603,362.256z"/>
		<g>
			<path style="fill:#FFFFFF;" d="M33.133,459.792v-179.2c0.028-9.414,7.652-17.039,17.067-17.067H24.6
				c-9.414,0.027-17.039,7.652-17.067,17.067v179.2c0.028,9.414,7.653,17.039,17.067,17.067h25.6
				C40.786,476.831,33.161,469.206,33.133,459.792z"/>
			<path style="fill:#FFFFFF;" d="M107.573,468.325h2.36l-2.048-0.427C107.8,468.054,107.663,468.173,107.573,468.325z"/>
			<path style="fill:#FFFFFF;" d="M481.102,318.999c-1.285-0.116-2.578-0.124-3.865-0.026
				C478.524,318.875,479.816,318.884,481.102,318.999z"/>
			<path style="fill:#FFFFFF;" d="M471.661,320.016c1.489-0.47,3.021-0.792,4.574-0.962
				C474.682,319.22,473.15,319.542,471.661,320.016z"/>
			<path style="fill:#FFFFFF;" d="M486.63,320.161c1.384,0.486,2.72,1.101,3.989,1.837
				C489.35,321.263,488.014,320.648,486.63,320.161z"/>
			<path style="fill:#FFFFFF;" d="M465.311,322.132c-5.811-3.448-12.828-4.22-19.25-2.116l-130.719,43.573
				c-1.43,3.818-3.61,7.31-6.411,10.272c1.623-0.267,3.221-0.667,4.779-1.195L465.311,322.132z"/>
			<path style="fill:#FFFFFF;" d="M242.2,271.376c4.252,0.445,8.525,0.673,12.8,0.683c4.25-0.007,8.496-0.239,12.721-0.695
				c-60.639-6.576-106.587-57.776-106.588-118.771S207.081,40.397,267.72,33.82c-4.225-0.456-8.471-0.688-12.72-0.695
				c-4.275,0.01-8.548,0.238-12.8,0.683c-60.674,6.542-106.666,57.758-106.666,118.784S181.526,264.834,242.2,271.376z"/>
			<path style="fill:#FFFFFF;" d="M486.383,320.062c-1.469-0.484-2.983-0.82-4.518-1.006
				C483.401,319.24,484.914,319.577,486.383,320.062z"/>
		</g>
	</g>
	<g>
		<polygon style="fill:#FFFFFF;" points="17.067,281.592 17.067,392.525 17.067,460.792 0,460.792 0,392.525 0,281.592 		"/>
		<g>
			<path style="fill:#428DFF;" d="M256,281.592c70.692,0,128-57.308,128-128s-57.308-128-128-128s-128,57.308-128,128
				C128.08,224.251,185.341,281.512,256,281.592z M256,42.659c61.267,0,110.933,49.667,110.933,110.933S317.267,264.525,256,264.525
				s-110.933-49.667-110.933-110.933C145.134,92.353,194.761,42.726,256,42.659z"/>
			<path style="fill:#428DFF;" d="M187.733,187.725h34.133v34.133c0,4.713,3.82,8.533,8.533,8.533h51.2
				c4.713,0,8.533-3.821,8.533-8.533v-34.133h34.133c4.713,0,8.533-3.821,8.533-8.533v-51.2c0-4.713-3.82-8.533-8.533-8.533h-34.133
				V85.325c0-4.713-3.821-8.533-8.533-8.533h-51.2c-4.713,0-8.533,3.821-8.533,8.533v34.133h-34.133
				c-4.713,0-8.533,3.821-8.533,8.533v51.2C179.2,183.905,183.021,187.725,187.733,187.725z M196.267,136.525H230.4
				c4.713,0,8.533-3.821,8.533-8.533V93.859h34.133v34.133c0,4.713,3.82,8.533,8.533,8.533h34.133v34.133H281.6
				c-4.713,0-8.533,3.821-8.533,8.533v34.133h-34.133v-34.133c0-4.713-3.821-8.533-8.533-8.533h-34.133V136.525z"/>
			<path style="fill:#428DFF;" d="M460.8,136.525c4.713,0,8.533-3.821,8.533-8.533V54.725l11.034,11.034
				c2.151,2.178,5.304,3.037,8.262,2.251c2.958-0.786,5.269-3.097,6.055-6.055c0.786-2.958-0.073-6.111-2.251-8.262l-25.597-25.597
				c-3.34-3.319-8.732-3.319-12.072,0l-25.597,25.597c-3.281,3.341-3.256,8.701,0.054,12.012c3.311,3.311,8.671,3.335,12.012,0.054
				l11.034-11.033v73.267C452.267,132.705,456.087,136.525,460.8,136.525z"/>
			<path style="fill:#428DFF;" d="M51.2,230.392c4.713,0,8.533-3.821,8.533-8.533v-73.267l11.034,11.034
				c3.338,3.296,8.711,3.279,12.029-0.038c3.317-3.317,3.334-8.691,0.038-12.029l-25.597-25.597c-3.34-3.319-8.732-3.319-12.072,0
				l-25.597,25.597c-3.281,3.341-3.256,8.701,0.054,12.012c3.311,3.311,8.671,3.335,12.012,0.054l11.034-11.033v73.267
				C42.667,226.571,46.487,230.392,51.2,230.392z"/>
			<path style="fill:#428DFF;" d="M8.533,358.392c2.259-0.034,4.422-0.918,6.059-2.475c3.3-3.365,3.3-8.752,0-12.117l-1.279-1.025
				c-0.476-0.324-0.993-0.583-1.538-0.771c-0.484-0.246-1.003-0.417-1.538-0.509c-0.563-0.096-1.133-0.153-1.704-0.171
				c-2.259,0.031-4.423,0.915-6.059,2.475c-3.222,3.397-3.222,8.721,0,12.117c0.815,0.771,1.77,1.379,2.813,1.792
				C6.314,358.147,7.417,358.379,8.533,358.392z"/>
			<path style="fill:#428DFF;" d="M469.954,312.959L312,365.613c-2.611,0.87-5.344,1.313-8.096,1.313h-4.903
				c4.054-11.114,2.883-23.463-3.188-33.617l-0.758-1.254c-9.285-15.387-25.928-24.813-43.9-24.862h-44.633
				c-15.745-0.02-31.017-5.377-43.325-15.196c-15.334-12.237-34.365-18.913-53.983-18.938H92.294
				c-3.592-10.199-13.214-17.033-24.028-17.067H25.6c-14.132,0.015-25.585,11.468-25.6,25.6v34.133c0,4.713,3.821,8.533,8.533,8.533
				s8.533-3.82,8.533-8.533v-34.133c0.006-4.71,3.823-8.527,8.533-8.533h42.667c4.71,0.006,8.527,3.823,8.533,8.533v179.2
				c-0.006,4.71-3.823,8.527-8.533,8.533H25.6c-4.71-0.006-8.527-3.823-8.533-8.533v-76.8c0-4.713-3.821-8.533-8.533-8.533
				S0,379.279,0,383.992v76.8c0.015,14.132,11.468,25.585,25.6,25.6h42.667c7.24-0.02,14.129-3.123,18.942-8.533h214.017
				c12.521,0.001,24.801-3.443,35.496-9.954l159.95-97.363c13.868-8.46,19.179-25.98,12.342-40.715
				C502.176,315.091,485.369,307.833,469.954,312.959L469.954,312.959z M494.663,346.092c-0.774,4.119-3.271,7.711-6.863,9.871
				l-159.954,97.367c-8.021,4.882-17.231,7.464-26.621,7.463H93.867V290.125h15.346c15.745,0.02,31.017,5.377,43.325,15.196
				c15.334,12.237,34.365,18.913,53.983,18.938h44.633c11.984,0.035,23.081,6.322,29.271,16.583l0.758,1.254
				c4.659,7.765,4.159,17.577-1.264,24.829h-51.866c-16.848-0.017-33.322,4.971-47.329,14.333l-6.254,4.167
				c-2.552,1.684-4.009,4.605-3.817,7.656c0.191,3.052,2.001,5.768,4.744,7.119c2.743,1.352,5.999,1.132,8.536-0.576l6.254-4.167
				c11.208-7.489,24.387-11.48,37.867-11.466h75.85c4.585,0,9.141-0.739,13.491-2.188l157.958-52.654
				c6.083-2.03,12.781,0.076,16.608,5.221C494.494,337.713,495.477,341.979,494.663,346.092z"/>
		</g>
	</g>
</g>
<g>
</g>
<g>
</g>
<g>
</g>
<g>
</g>
<g>
</g>
<g>
</g>
<g>
</g>
<g>
</g>
<g>
</g>
<g>
</g>
<g>
</g>
<g>
</g>
<g>
</g>
<g>
</g>
<g>
</g>
</svg>
