<?xml version="1.0" encoding="iso-8859-1"?>
<!-- Generator: Adobe Illustrator 19.0.0, SVG Export Plug-In . SVG Version: 6.00 Build 0)  -->
<svg version="1.1" id="Capa_1" xmlns="http://www.w3.org/2000/svg" xmlns:xlink="http://www.w3.org/1999/xlink" x="0px" y="0px"
	 viewBox="0 0 512 512" style="enable-background:new 0 0 512 512;" xml:space="preserve">
<g>
	<g transform="translate(1 1)">
		<g>
			<path style="fill:#A4C2F7;" d="M127,459.8v34.133c-0.014,4.707-3.826,8.519-8.533,8.533H33.133
				c-4.707-0.014-8.519-3.826-8.533-8.533V459.8H127z"/>
			<path style="fill:#A4C2F7;" d="M485.4,459.8v34.133c-0.014,4.707-3.826,8.519-8.533,8.533h-85.333
				c-4.707-0.014-8.519-3.826-8.533-8.533V459.8H485.4z"/>
		</g>
		<g>
			<path style="fill:#D4E1F4;" d="M101.4,459.8v34.133c-0.014,4.707-3.826,8.519-8.533,8.533H33.133
				c-4.707-0.014-8.519-3.826-8.533-8.533V459.8H101.4z"/>
			<path style="fill:#D4E1F4;" d="M459.8,459.8v34.133c-0.014,4.707-3.826,8.519-8.533,8.533h-59.733
				c-4.707-0.014-8.519-3.826-8.533-8.533V459.8H459.8z"/>
		</g>
		<path style="fill:#A4C2F7;" d="M24.6,7.533h460.8c9.426,0,17.067,7.641,17.067,17.067v426.667c0,9.426-7.641,17.067-17.067,17.067
			H24.6c-9.426,0-17.067-7.641-17.067-17.067V24.6C7.533,15.174,15.174,7.533,24.6,7.533z"/>
		<path style="fill:#E3E7F2;" d="M24.6,7.533h435.2c9.426,0,17.067,7.641,17.067,17.067v426.667c0,9.426-7.641,17.067-17.067,17.067
			H24.6c-9.426,0-17.067-7.641-17.067-17.067V24.6C7.533,15.174,15.174,7.533,24.6,7.533z"/>
		<path style="fill:#A4C2F7;" d="M50.2,41.667h409.6c4.713,0,8.533,3.821,8.533,8.533v375.467c0,4.713-3.82,8.533-8.533,8.533H50.2
			c-4.713,0-8.533-3.82-8.533-8.533V50.2C41.667,45.487,45.487,41.667,50.2,41.667z"/>
		<path style="fill:#D4E1F4;" d="M50.2,41.667h384c4.713,0,8.533,3.821,8.533,8.533v375.467c0,4.713-3.821,8.533-8.533,8.533h-384
			c-4.713,0-8.533-3.82-8.533-8.533V50.2C41.667,45.487,45.487,41.667,50.2,41.667z"/>
		<path style="fill:#A4C2F7;" d="M259.096,380.952c-2.581,1.28-5.611,1.28-8.192,0c-2.816-1.536-5.632-3.072-8.363-4.608
			c-105.813-61.184-108.8-176.213-107.52-207.275c0.191-4.476,3.8-8.048,8.277-8.192c48.47-2.901,82.347-32.853,99.243-51.968
			c2.219-2.56,4.182-4.864,5.803-6.912c1.617-2.023,4.067-3.2,6.656-3.2s5.039,1.177,6.656,3.2
			c14.08,17.749,50.261,55.552,105.045,58.88c4.477,0.144,8.086,3.716,8.277,8.192C376.259,200.899,373.101,321.133,259.096,380.952
			z"/>
		<g>
			<path style="fill:#E3E7F2;" d="M242.541,376.344c-105.813-61.184-108.8-176.213-107.52-207.275
				c0.191-4.476,3.8-8.048,8.277-8.192c48.47-2.901,82.347-32.853,99.243-51.968c16.896,19.115,50.773,49.067,99.243,51.968
				c4.477,0.144,8.087,3.716,8.277,8.192C351.341,200.131,348.355,315.16,242.541,376.344z"/>
			<path style="fill:#E3E7F2;" d="M459.8,84.333h42.667V152.6H459.8c-9.426,0-17.067-7.641-17.067-17.067V101.4
				C442.733,91.974,450.374,84.333,459.8,84.333z"/>
			<path style="fill:#E3E7F2;" d="M459.8,323.267h42.667v68.267H459.8c-9.426,0-17.067-7.641-17.067-17.067v-34.133
				C442.733,330.908,450.374,323.267,459.8,323.267z"/>
			<circle style="fill:#E3E7F2;" cx="92.867" cy="255" r="17.067"/>
		</g>
		<g>
			<path style="fill:#FFFFFF;" d="M50.2,493.933v-25.6c-9.414-0.028-17.039-7.652-17.067-17.067V24.6
				C33.161,15.186,40.786,7.561,50.2,7.533H24.6C15.186,7.561,7.561,15.186,7.533,24.6v426.667
				c0.028,9.414,7.653,17.039,17.067,17.067v25.6c0.014,4.707,3.826,8.519,8.533,8.533h25.6
				C54.026,502.453,50.214,498.64,50.2,493.933z"/>
			<path style="fill:#FFFFFF;" d="M408.6,493.933v-25.6H383v25.6c0.014,4.707,3.826,8.519,8.533,8.533h25.6
				C412.426,502.453,408.614,498.64,408.6,493.933z"/>
		</g>
	</g>
	<g>
		<polygon style="fill:#FFFFFF;" points="17.067,25.6 17.067,136.533 17.067,452.267 0,452.267 0,136.533 0,25.6 		"/>
		<g>
			<path style="fill:#428DFF;" d="M8.533,102.4c2.259-0.034,4.422-0.918,6.059-2.475c3.3-3.365,3.3-8.752,0-12.117l-1.279-1.025
				c-0.476-0.324-0.993-0.583-1.538-0.771c-0.484-0.246-1.003-0.417-1.538-0.509c-0.563-0.096-1.133-0.153-1.704-0.171
				c-2.259,0.031-4.423,0.915-6.059,2.475c-3.222,3.397-3.222,8.721,0,12.117c0.815,0.77,1.77,1.379,2.813,1.792
				C6.314,102.155,7.417,102.387,8.533,102.4z"/>
			<path style="fill:#428DFF;" d="M486.4,0H25.6C11.468,0.015,0.015,11.468,0,25.6v34.133c0,4.713,3.821,8.533,8.533,8.533
				s8.533-3.821,8.533-8.533V25.6c0.006-4.71,3.823-8.527,8.533-8.533h460.8c4.71,0.006,8.527,3.823,8.533,8.533v51.2h-17.067V51.2
				c-0.009-9.422-7.645-17.057-17.067-17.067H51.2c-9.422,0.009-17.057,7.645-17.067,17.067v375.467
				c0.009,9.422,7.645,17.057,17.067,17.067h409.6c9.422-0.009,17.057-7.645,17.067-17.067v-25.6h17.067v51.2
				c-0.006,4.71-3.823,8.527-8.533,8.533H25.6c-4.71-0.006-8.527-3.823-8.533-8.533V128c0-4.713-3.821-8.533-8.533-8.533
				S0,123.287,0,128v324.267c0.033,10.813,6.868,20.435,17.067,24.027v27.173c0,4.713,3.821,8.533,8.533,8.533H128
				c4.713,0,8.533-3.82,8.533-8.533v-25.6h238.933v25.6c0,4.713,3.821,8.533,8.533,8.533h102.4c4.713,0,8.533-3.82,8.533-8.533
				v-27.172c10.199-3.592,17.033-13.214,17.067-24.028V25.6C511.985,11.468,500.532,0.015,486.4,0z M119.467,494.933H34.133v-17.067
				h85.333V494.933z M477.867,494.933h-85.333v-17.067h85.333V494.933z M494.933,162.133v153.6h-17.067v-153.6H494.933z
				 M494.933,145.067H460.8c-4.71-0.006-8.527-3.823-8.533-8.533V102.4c0.006-4.71,3.823-8.527,8.533-8.533h34.133V145.067z
				 M460.8,426.667H51.2V51.2h409.6v25.6c-14.132,0.015-25.585,11.468-25.6,25.6v34.133c0.015,14.132,11.468,25.585,25.6,25.6v153.6
				c-14.132,0.015-25.585,11.468-25.6,25.6v34.133c0.015,14.132,11.468,25.585,25.6,25.6V426.667z M460.8,384
				c-4.71-0.006-8.527-3.823-8.533-8.533v-34.133c0.006-4.71,3.823-8.527,8.533-8.533h34.133V384H460.8z"/>
			<path style="fill:#428DFF;" d="M281.6,213.333c0,4.713,3.821,8.533,8.533,8.533c4.713,0,8.533-3.821,8.533-8.533
				c0-16.483-14.683-30.271-34.133-33.443V179.2c0-4.713-3.821-8.533-8.533-8.533c-4.713,0-8.533,3.821-8.533,8.533v0.691
				c-19.45,3.172-34.133,16.96-34.133,33.443s14.683,30.271,34.133,33.443v33.738c-9.811-2.41-17.067-8.723-17.067-15.981
				c0-4.713-3.821-8.533-8.533-8.533c-4.713,0-8.533,3.821-8.533,8.533c0,16.483,14.683,30.271,34.133,33.443v0.691
				c0,4.713,3.821,8.533,8.533,8.533c4.713,0,8.533-3.82,8.533-8.533v-0.691c19.45-3.172,34.133-16.96,34.133-33.443
				s-14.683-30.271-34.133-33.443v-33.739C274.344,199.762,281.6,206.076,281.6,213.333z M230.4,213.333
				c0-7.258,7.256-13.571,17.067-15.981v31.962C237.656,226.904,230.4,220.591,230.4,213.333z M281.6,264.533
				c0,7.258-7.256,13.571-17.067,15.981v-31.962C274.344,250.962,281.6,257.276,281.6,264.533z"/>
			<path style="fill:#428DFF;" d="M375.467,153.6c-70.983,0-111.833-63.625-112.237-64.267c-0.04-0.064-0.107-0.094-0.148-0.156
				c-0.754-0.838-1.553-1.636-2.392-2.389c-0.067-0.044-0.101-0.117-0.169-0.159c-0.411-0.196-0.839-0.357-1.278-0.481
				c-0.509-0.253-1.043-0.453-1.592-0.599c-1.082-0.077-2.168-0.08-3.25-0.01c-0.658,0.161-1.293,0.4-1.894,0.712
				c-0.354,0.106-0.7,0.236-1.036,0.39c-0.057,0.036-0.085,0.097-0.142,0.134c-0.845,0.756-1.649,1.557-2.406,2.4
				c-0.045,0.067-0.118,0.101-0.16,0.17c-0.4,0.642-40.983,64.254-112.229,64.254c-4.348,0-8.001,3.27-8.479,7.592
				c-0.179,1.596-16.104,160.325,124.129,230.442c0.324,0.141,0.658,0.261,0.997,0.36c0.232,0.082,0.45,0.187,0.688,0.248
				c0.692,0.186,1.406,0.284,2.123,0.292l0.009-0.001l0.009,0.001c0.719-0.008,1.435-0.107,2.13-0.294
				c0.228-0.059,0.437-0.16,0.659-0.238c0.347-0.1,0.688-0.223,1.019-0.368c140.233-70.117,124.308-228.846,124.129-230.442
				C383.467,156.87,379.815,153.6,375.467,153.6z M255.998,374.334c-110.466-57.853-112.931-173.315-111.51-203.893
				c58.602-3.357,96.549-43.029,111.514-62.045c14.96,19.007,52.886,58.647,111.437,62.037
				C368.537,200.785,365.146,317.103,255.998,374.334z"/>
			<path style="fill:#428DFF;" d="M93.867,230.4c-12.458-0.031-23.12,8.931-25.231,21.209c-2.111,12.278,4.945,24.287,16.698,28.418
				v35.706c0,4.713,3.821,8.533,8.533,8.533c4.713,0,8.533-3.821,8.533-8.533v-35.706c11.753-4.132,18.808-16.141,16.697-28.419
				C116.986,239.332,106.324,230.369,93.867,230.4z M93.867,264.533c-4.713,0-8.533-3.821-8.533-8.533
				c0-4.713,3.821-8.533,8.533-8.533c4.713,0,8.533,3.821,8.533,8.533C102.394,260.71,98.577,264.527,93.867,264.533z"/>
		</g>
	</g>
</g>
<g>
</g>
<g>
</g>
<g>
</g>
<g>
</g>
<g>
</g>
<g>
</g>
<g>
</g>
<g>
</g>
<g>
</g>
<g>
</g>
<g>
</g>
<g>
</g>
<g>
</g>
<g>
</g>
<g>
</g>
</svg>
