<?xml version="1.0" encoding="iso-8859-1"?>
<!-- Generator: Adobe Illustrator 19.0.0, SVG Export Plug-In . SVG Version: 6.00 Build 0)  -->
<svg version="1.1" id="Capa_1" xmlns="http://www.w3.org/2000/svg" xmlns:xlink="http://www.w3.org/1999/xlink" x="0px" y="0px"
	 viewBox="0 0 512.002 512.002" style="enable-background:new 0 0 512.002 512.002;" xml:space="preserve">
<g>
	<g transform="translate(1)">
		<path style="fill:#A4C2F7;" d="M417.134,133.037v76.032c0,10.752-12.459,20.651-33.451,28.501l-133.376,18.347
			c-7.253-0.085-14.421-0.256-21.419-0.597c-77.141-3.584-136.021-22.869-136.021-46.251v-76.032H417.134z"/>
		<path style="fill:#E3E7F2;" d="M391.534,133.037v76.032c0,10.752-12.459,20.651-33.451,28.501l-129.195,17.749
			c-77.141-3.584-136.021-22.869-136.021-46.251v-76.032H391.534z"/>
		<path style="fill:#35495E;" d="M498.26,99.027L264.08,10.199c-5.849-2.219-12.309-2.219-18.158,0L11.741,99.027
			c-0.663,0.251-1.101,0.887-1.101,1.596c0,0.709,0.438,1.344,1.101,1.596l234.18,88.827c5.849,2.219,12.309,2.219,18.158,0
			l234.181-88.827c0.663-0.251,1.101-0.887,1.101-1.596S498.923,99.278,498.26,99.027z"/>
		<path style="fill:#A4C2F7;" d="M498.286,102.231l-234.24,88.832c-3.076,1.171-6.353,1.722-9.643,1.621
			c-2.891-0.026-5.753-0.575-8.448-1.621l-234.24-88.832c-0.658-0.27-1.088-0.91-1.088-1.621s0.43-1.352,1.088-1.621l206.677-78.336
			l27.563-10.411c5.81-2.304,12.281-2.304,18.091,0l234.24,88.747c0.658,0.27,1.088,0.91,1.088,1.621
			S498.944,101.962,498.286,102.231z"/>
		<g>
			<path style="fill:#E3E7F2;" d="M460.995,114.349l-206.592,78.336c-2.891-0.026-5.753-0.575-8.448-1.621l-234.24-88.832
				c-0.658-0.27-1.088-0.91-1.088-1.621s0.43-1.352,1.088-1.621l206.677-78.336c2.886,0.068,5.741,0.616,8.448,1.621l234.155,88.832
				c0.69,0.24,1.152,0.891,1.152,1.621C462.147,113.458,461.685,114.108,460.995,114.349z"/>
			<circle style="fill:#E3E7F2;" cx="109.934" cy="392.535" r="25.6"/>
			<circle style="fill:#E3E7F2;" cx="195.267" cy="477.869" r="25.6"/>
			<circle style="fill:#E3E7F2;" cx="383" cy="435.202" r="25.6"/>
		</g>
		<path style="fill:#A4C2F7;" d="M400.92,334.082c-19.561,42.869-70.168,61.766-113.04,42.211
			c-42.871-19.555-61.776-70.159-42.228-113.034s70.15-61.787,113.027-42.244C401.444,240.688,420.31,291.19,400.92,334.082z"/>
		<path style="fill:#E3E7F2;" d="M375.32,334.082c-12.019,26.29-36.517,44.72-65.109,48.981
			c-41.689-6.455-72.411-42.393-72.305-84.578c0.107-42.185,31.011-77.967,72.731-84.211c7.751,1.223,15.301,3.491,22.443,6.741
			C375.95,240.59,394.855,291.194,375.32,334.082z"/>
	</g>
	<path style="fill:#FFFFFF;" d="M314.454,376.322c-42.878-19.567-61.786-70.179-42.24-113.067c1.172-2.57,2.558-4.966,3.943-7.359
		c-6.994-0.088-13.916-0.247-20.669-0.577c-77.141-3.584-136.021-22.869-136.021-46.251v-76.032h0.078l-81.23-30.805
		c-0.658-0.27-1.088-0.91-1.088-1.621s0.43-1.352,1.088-1.621l167.277-63.403L268.8,11.611l-3.721-1.411
		c-1.384-0.518-2.81-0.915-4.263-1.187c-3.179-0.636-6.453-0.636-9.632,0c-1.453,0.272-2.879,0.669-4.263,1.187l-66.929,25.387
		L12.715,98.989c-0.658,0.27-1.088,0.91-1.088,1.621s0.43,1.352,1.088,1.621l81.23,30.805h-0.078v76.032
		c0,23.381,58.88,42.667,136.021,46.251c6.753,0.329,13.675,0.489,20.669,0.577c-1.385,2.393-2.771,4.789-3.943,7.359
		c-13.122,28.436-9.564,61.782,9.261,86.81s49.876,37.695,80.836,32.975C329.02,381.827,321.531,379.567,314.454,376.322z"/>
	<g>
		<g>
			<polygon style="fill:#FFFFFF;" points="9.711,91.044 113.434,51.706 243.891,2.221 249.95,18.178 119.493,67.663 15.77,107.002 
							"/>
			<polygon style="fill:#FFFFFF;" points="9.711,91.044 113.434,51.706 243.891,2.221 249.95,18.178 119.493,67.663 15.77,107.002 
							"/>
		</g>
		<g>
			<path style="fill:#428DFF;" d="M73.054,82.629c2.599,1.228,5.645,1.044,8.078-0.488c2.432-1.532,3.914-4.2,3.929-7.075
				c0.045-1.115-0.129-2.229-0.513-3.277c-1.237-3.221-4.285-5.386-7.733-5.493c-3.448-0.107-6.625,1.865-8.059,5.003l-0.505,1.559
				c-0.134,0.56-0.193,1.135-0.176,1.711c-0.058,0.54-0.034,1.085,0.07,1.618c0.11,0.561,0.258,1.113,0.444,1.654
				C69.422,79.943,71.016,81.653,73.054,82.629z"/>
			<path style="fill:#428DFF;" d="M352.984,258.136l1.133-2.484c1.942-4.284,0.05-9.332-4.23-11.284
				c-4.279-1.952-9.332-0.073-11.295,4.201l-1.132,2.481c-5.396-1.25-11.008-1.235-16.397,0.044
				c-8.172,1.706-15.045,7.199-18.511,14.794c-3.466,7.595-3.112,16.386,0.953,23.677c2.571,4.906,6.238,9.154,10.717,12.414
				l-9.625,21.093c-1.131-1.175-2.095-2.501-2.862-3.94c-1.536-2.718-1.779-5.98-0.663-8.896c1.947-4.285,0.056-9.339-4.226-11.292
				s-9.338-0.07-11.299,4.209c-3.308,7.626-2.956,16.344,0.954,23.679c2.57,4.906,6.238,9.154,10.717,12.412l-1.133,2.484
				c-1.265,2.773-0.955,6.011,0.814,8.493c1.769,2.482,4.728,3.832,7.762,3.542c3.034-0.291,5.683-2.178,6.948-4.952l1.09-2.389
				c2.636,0.583,5.327,0.881,8.027,0.89c2.836,0.007,5.661-0.338,8.413-1.025c8.172-1.706,15.045-7.199,18.511-14.794
				c3.466-7.595,3.112-16.386-0.953-23.677c-2.571-4.907-6.238-9.154-10.717-12.414l9.625-21.093
				c1.131,1.175,2.095,2.501,2.863,3.94c1.536,2.718,1.779,5.98,0.662,8.896c-1.271,2.774-0.963,6.016,0.806,8.502
				c1.77,2.486,4.732,3.837,7.769,3.545c3.037-0.293,5.687-2.185,6.95-4.963c3.308-7.626,2.956-16.344-0.954-23.679
				C361.13,265.642,357.463,261.394,352.984,258.136z M318.738,281.869c-1.728-2.657-1.978-6.013-0.663-8.896
				c1.316-2.883,4.015-4.894,7.154-5.329c1.59-0.364,3.222-0.506,4.851-0.422l-8.48,18.585
				C320.47,284.632,319.506,283.307,318.738,281.869z M331.463,315.51c1.728,2.657,1.978,6.013,0.662,8.896
				s-4.015,4.894-7.154,5.329c-1.59,0.365-3.223,0.507-4.851,0.421l8.48-18.584C329.731,312.747,330.694,314.072,331.463,315.51z"/>
			<path style="fill:#428DFF;" d="M511.575,296.564c-0.455-1.521-1.247-2.919-2.316-4.092c-0.071-0.067-0.097-0.159-0.171-0.224
				c-0.335-0.226-0.686-0.427-1.051-0.6c-0.942-0.766-2.106-1.208-3.319-1.26c-0.409-0.117-0.828-0.202-1.25-0.253h-25.6
				c-4.713,0-8.533,3.82-8.533,8.533s3.821,8.533,8.533,8.533h6.796l-85.413,97.627c-8.006-4.253-17.434-4.931-25.966-1.869
				l-11.698-17.966c26.972-11.296,47.108-34.557,54.423-62.868c7.316-28.312,0.968-58.416-17.155-81.364
				c18.392-8.834,27.813-19.451,27.813-31.694v-70.188l17.067-6.473v74.174c0,4.713,3.821,8.533,8.533,8.533
				c4.713,0,8.533-3.821,8.533-8.533v-80.647l41.488-15.736c3.978-1.509,6.609-5.321,6.608-9.576
				c-0.001-4.255-2.633-8.066-6.612-9.574L268.104,2.219c-7.798-2.958-16.41-2.958-24.208,0l-0.007,0.004L105.458,54.731
				c-2.855,1.078-4.916,3.599-5.407,6.61s0.664,6.056,3.029,7.985c2.365,1.929,5.579,2.448,8.431,1.362l138.437-52.51l-0.001-0.002
				c3.9-1.479,8.207-1.479,12.107,0.001l217.35,82.446l-27.046,10.258L248.525,85.402c-4.671-0.576-8.926,2.74-9.51,7.41
				c-0.584,4.67,2.725,8.931,7.394,9.523l171.845,21.482L262.05,183.065c-3.898,1.483-8.206,1.483-12.104,0L32.592,100.623
				l15.09-5.724c4.4-1.676,6.611-6.599,4.941-11.001c-1.67-4.402-6.589-6.62-10.994-4.957L9.715,91.047l-0.003,0.001
				c-3.978,1.509-6.609,5.321-6.608,9.576c0.001,4.255,2.633,8.066,6.612,9.574l75.617,28.682v70.189
				c0,33.598,74.724,52.61,152.606,55.107c-17.479,44.254,0.926,94.586,42.829,117.126l-67.272,67.271
				c-10.581-6.449-23.878-6.449-34.459,0l-38.807-38.807c3.134-5.203,4.805-11.156,4.837-17.23
				c0-18.851-15.282-34.133-34.133-34.133S76.8,373.684,76.8,392.535c0.039,5.558,1.452,11.019,4.114,15.898L2.767,480.115
				c-2.246,2.06-3.223,5.162-2.562,8.138s2.859,5.372,5.767,6.288c2.907,0.915,6.082,0.21,8.328-1.85l78.051-71.593
				c10.789,7.154,24.738,7.441,35.812,0.735l38.807,38.807c-3.134,5.203-4.805,11.156-4.837,17.23
				c0,18.851,15.282,34.133,34.133,34.133S230.4,496.72,230.4,477.869c-0.032-6.074-1.703-12.026-4.837-17.23l72.232-72.232
				c15.161,4.821,31.343,5.45,46.832,1.822l14.313,21.982c-12.037,13.132-11.928,33.319,0.251,46.32
				c12.179,13.001,32.316,14.426,46.205,3.271c13.889-11.155,16.842-31.126,6.775-45.823l82.762-94.598v2.887
				c0,4.713,3.82,8.533,8.533,8.533s8.533-3.82,8.533-8.533v-25.6c0-0.098-0.053-0.179-0.056-0.276
				C511.889,297.771,511.766,297.158,511.575,296.564z M102.4,209.069v-63.715l141.492,53.669c7.799,2.961,16.413,2.961,24.213,0
				L409.6,145.354v63.715c0,4.469-6.305,11.523-23.215,18.601c-20.439-17.704-47.534-25.707-74.312-21.948
				c-26.778,3.759-50.623,18.912-65.398,41.559C157.205,245.849,102.4,224.311,102.4,209.069z M93.867,392.535
				c-0.006-7.724,5.177-14.49,12.637-16.495s15.336,1.251,19.203,7.937c3.867,6.687,2.761,15.137-2.697,20.603l-0.019,0.013
				l-0.013,0.019c-4.881,4.876-12.219,6.331-18.591,3.688C98.016,405.657,93.863,399.435,93.867,392.535z M196.267,494.935
				c-6.899,0.004-13.121-4.149-15.765-10.521c-2.644-6.373-1.188-13.71,3.688-18.591l0.019-0.013l0.013-0.019
				c3.195-3.195,7.528-4.99,12.046-4.99s8.851,1.795,12.046,4.99l0.013,0.019l0.019,0.013c4.876,4.881,6.331,12.219,3.688,18.591
				C209.388,490.787,203.166,494.939,196.267,494.935z M298.8,370.772l-0.188-0.074c-1.807-0.665-3.615-1.326-5.395-2.138
				c-38.749-17.112-56.672-62.092-40.311-101.164s60.986-57.86,100.367-42.257s59.027,59.857,44.187,99.532
				C382.62,364.346,338.754,384.844,298.8,370.772L298.8,370.772z M384,452.269c-7.609,0.052-14.333-4.939-16.486-12.237
				c-2.153-7.298,0.785-15.14,7.203-19.226s14.767-3.43,20.468,1.609l0.006,0.009l0.014,0.008c5.37,4.657,7.275,12.163,4.776,18.817
				C397.483,447.901,391.108,452.298,384,452.269z"/>
		</g>
	</g>
</g>
<g>
</g>
<g>
</g>
<g>
</g>
<g>
</g>
<g>
</g>
<g>
</g>
<g>
</g>
<g>
</g>
<g>
</g>
<g>
</g>
<g>
</g>
<g>
</g>
<g>
</g>
<g>
</g>
<g>
</g>
</svg>
