<?xml version="1.0" encoding="iso-8859-1"?>
<!-- Generator: Adobe Illustrator 19.0.0, SVG Export Plug-In . SVG Version: 6.00 Build 0)  -->
<svg version="1.1" id="Capa_1" xmlns="http://www.w3.org/2000/svg" xmlns:xlink="http://www.w3.org/1999/xlink" x="0px" y="0px"
	 viewBox="0 0 512 512" style="enable-background:new 0 0 512 512;" xml:space="preserve">
<g>
	<g transform="translate(2 18)">
		<path style="fill:#A4C2F7;" d="M151.6,246.533v238.933H15.067V246.533c0.028-9.414,7.652-17.039,17.067-17.067h102.4
			C143.948,229.494,151.572,237.119,151.6,246.533z"/>
		<path style="fill:#E3E7F2;" d="M126,246.533v238.933H15.067V246.533c0.028-9.414,7.652-17.039,17.067-17.067h76.8
			C118.348,229.494,125.973,237.119,126,246.533z"/>
		<path style="fill:#A4C2F7;" d="M322.267,152.667v332.8H185.733v-332.8c0.028-9.414,7.652-17.039,17.067-17.067h102.4
			C314.614,135.628,322.239,143.252,322.267,152.667z"/>
		<path style="fill:#E3E7F2;" d="M296.667,152.667v332.8H185.733v-332.8c0.028-9.414,7.652-17.039,17.067-17.067h76.8
			C289.014,135.628,296.639,143.252,296.667,152.667z"/>
		<path style="fill:#A4C2F7;" d="M492.933,314.8v170.667H356.4V314.8c0.027-9.414,7.652-17.039,17.067-17.067h102.4
			C485.281,297.761,492.906,305.386,492.933,314.8z"/>
		<path style="fill:#E3E7F2;" d="M467.333,314.8v170.667H356.4V314.8c0.027-9.414,7.652-17.039,17.067-17.067h76.8
			C459.681,297.761,467.306,305.386,467.333,314.8z"/>
		<g>
			<path style="fill:#FFFFFF;" d="M228.4,135.6h-25.6c-9.414,0.028-17.039,7.652-17.067,17.067v332.8h25.6v-332.8
				C211.361,143.252,218.986,135.628,228.4,135.6z"/>
			<path style="fill:#FFFFFF;" d="M399.067,297.733h-25.6c-9.414,0.028-17.039,7.652-17.067,17.067v170.667H382V314.8
				C382.028,305.386,389.652,297.761,399.067,297.733z"/>
			<path style="fill:#FFFFFF;" d="M57.733,229.467h-25.6c-9.414,0.028-17.039,7.652-17.067,17.067v238.933h25.6V246.533
				C40.694,237.119,48.319,229.494,57.733,229.467z"/>
		</g>
	</g>
	<g>
		<polygon style="fill:#FFFFFF;" points="25.6,264.533 25.6,375.467 25.6,503.467 8.533,503.467 8.533,375.467 8.533,264.533 		"/>
		<g>
			<path style="fill:#428DFF;" d="M503.467,494.933V332.8c-0.015-14.132-11.468-25.585-25.6-25.6h-102.4
				c-14.132,0.015-25.585,11.468-25.6,25.6v162.133H332.8V170.667c-0.015-14.132-11.468-25.585-25.6-25.6H204.8
				c-14.132,0.015-25.585,11.468-25.6,25.6v324.267h-17.067v-230.4c-0.015-14.132-11.468-25.585-25.6-25.6h-102.4
				c-14.132,0.015-25.585,11.468-25.6,25.6v34.133c0,4.713,3.821,8.533,8.533,8.533s8.533-3.82,8.533-8.533v-34.133
				c0.006-4.71,3.823-8.527,8.533-8.533h102.4c4.71,0.006,8.527,3.823,8.533,8.533v230.4H25.6v-128c0-4.713-3.821-8.533-8.533-8.533
				s-8.533,3.82-8.533,8.533v128c-4.713,0-8.533,3.821-8.533,8.533C0,508.18,3.821,512,8.533,512h494.933
				c4.713,0,8.533-3.82,8.533-8.533C512,498.754,508.18,494.933,503.467,494.933z M196.267,494.933V170.667
				c0.006-4.71,3.823-8.527,8.533-8.533h102.4c4.71,0.006,8.527,3.823,8.533,8.533v324.267H196.267z M366.933,494.933V332.8
				c0.006-4.71,3.823-8.527,8.533-8.533h102.4c4.71,0.006,8.527,3.823,8.533,8.533v162.133H366.933z"/>
			<path style="fill:#428DFF;" d="M17.067,341.333c2.259-0.034,4.422-0.918,6.059-2.475c3.3-3.365,3.3-8.752,0-12.117l-1.279-1.025
				c-0.476-0.324-0.993-0.583-1.538-0.771c-0.484-0.246-1.003-0.417-1.538-0.509c-0.563-0.096-1.133-0.153-1.704-0.171
				c-2.259,0.031-4.423,0.915-6.059,2.475c-3.221,3.397-3.221,8.72,0,12.117c0.815,0.771,1.77,1.379,2.813,1.792
				C14.847,341.088,15.95,341.32,17.067,341.333z"/>
			<path style="fill:#428DFF;" d="M256,128c4.713,0,8.533-3.821,8.533-8.533v-6.51c13.686-2.928,23.984-14.254,25.6-28.157
				c0-24.788-20.65-27.583-32.987-29.254c-14.762-2-18.213-3.379-18.213-12.346c0-6.492,9.546-12.267,17.067-12.267
				c7.193-0.618,14.12,2.872,17.904,9.021c2.027,4.228,7.084,6.029,11.327,4.034s6.082-7.039,4.119-11.296
				c-5.078-9.487-14.223-16.125-24.817-18.014V8.533C264.533,3.821,260.713,0,256,0c-4.713,0-8.533,3.821-8.533,8.533v6.529
				c-13.924,2.493-24.43,14.041-25.6,28.138c0,24.788,20.65,27.583,32.987,29.254c14.762,2,18.213,3.379,18.213,12.346
				c-2.349,7.414-9.291,12.403-17.067,12.267c-7.466-1.102-14.254-4.946-19.038-10.783c-1.939-2.372-5.001-3.522-8.021-3.013
				c-3.021,0.509-5.537,2.598-6.592,5.474c-1.055,2.876-0.487,6.097,1.489,8.438c6.282,7.296,14.46,12.712,23.629,15.649v6.634
				C247.467,124.179,251.287,128,256,128z"/>
			<path style="fill:#428DFF;" d="M375.467,247.467c0,4.713,3.821,8.533,8.533,8.533h6.95c6.342,19.452,23.983,33.01,44.412,34.133
				c11.919-0.173,23.269-5.129,31.497-13.754c2.147-2.165,2.975-5.31,2.174-8.251s-3.111-5.232-6.059-6.008
				c-2.948-0.777-6.086,0.078-8.233,2.243c-5.029,5.386-12.013,8.523-19.379,8.704c-10.984-0.638-20.764-7.167-25.566-17.067h16.87
				c4.713,0,8.533-3.82,8.533-8.533c0-4.713-3.82-8.533-8.533-8.533H403.85c-0.867-5.656-0.867-11.411,0-17.067h22.816
				c4.713,0,8.533-3.821,8.533-8.533s-3.82-8.533-8.533-8.533h-16.87c4.801-9.9,14.582-16.429,25.566-17.067
				c5.539,0.041,10.916,1.871,15.329,5.217c3.811,2.773,9.148,1.932,11.921-1.879c2.773-3.811,1.932-9.148-1.879-11.921
				c-7.339-5.455-16.227-8.426-25.371-8.483c-20.429,1.123-38.07,14.681-44.412,34.133H384c-4.713,0-8.533,3.82-8.533,8.533
				s3.821,8.533,8.533,8.533h2.695c-0.749,5.664-0.749,11.402,0,17.067H384C379.287,238.933,375.467,242.754,375.467,247.467z"/>
			<path style="fill:#428DFF;" d="M44.275,218.308c2.439,3.399,6.984,4.527,10.729,2.662c9.51-4.513,19.816-7.109,30.329-7.637
				c7.031-0.373,13.967,1.765,19.567,6.033c2.44,2.441,6.11,3.171,9.299,1.85c3.189-1.321,5.268-4.432,5.268-7.883v-17.067
				c0-4.713-3.821-8.533-8.533-8.533c-4.713,0-8.533,3.821-8.533,8.533v2.683c-5.505-1.816-11.27-2.723-17.067-2.683
				c-4.767,0.035-9.519,0.537-14.188,1.5c2.523-5.93,4.224-12.177,5.058-18.567h9.129c4.713,0,8.533-3.821,8.533-8.533
				c0-4.713-3.821-8.533-8.533-8.533H74.361c-1.707-2.882-3.676-5.601-5.882-8.121c-4.89-4.61-7.988-10.802-8.746-17.479
				c0.916-9.156,8.256-16.343,17.429-17.067c11.496,0,16.704,13.092,16.704,17.067c0,4.713,3.821,8.533,8.533,8.533
				c4.713,0,8.533-3.821,8.533-8.533c-0.72-18.406-15.373-33.217-33.771-34.133c-18.611,0.709-33.59,15.531-34.496,34.133
				c0.329,9.497,4.019,18.57,10.413,25.6H51.2c-4.713,0-8.533,3.821-8.533,8.533c0,4.713,3.821,8.533,8.533,8.533h7.732
				c-1.975,10.435-6.731,20.144-13.765,28.1C42.212,210.255,41.834,214.916,44.275,218.308z"/>
			<path style="fill:#428DFF;" d="M85.333,366.933c4.713,0,8.533-3.82,8.533-8.533v-39.133l2.5,2.5
				c2.151,2.178,5.304,3.037,8.262,2.251c2.958-0.786,5.269-3.097,6.055-6.055s-0.073-6.111-2.251-8.262l-17.064-17.064
				c-3.34-3.319-8.732-3.319-12.072,0L62.234,309.7c-3.281,3.341-3.256,8.701,0.054,12.012c3.311,3.311,8.671,3.335,12.012,0.054
				l2.5-2.5V358.4C76.8,363.113,80.621,366.933,85.333,366.933z"/>
			<path style="fill:#428DFF;" d="M432.703,360.903c-3.34-3.319-8.732-3.319-12.072,0l-17.064,17.064
				c-3.281,3.341-3.256,8.701,0.054,12.012c3.311,3.311,8.671,3.335,12.012,0.054l2.5-2.5v39.134c0,4.713,3.82,8.533,8.533,8.533
				s8.533-3.82,8.533-8.533v-39.133l2.5,2.5c3.338,3.296,8.711,3.279,12.029-0.038c3.317-3.317,3.334-8.691,0.038-12.029
				L432.703,360.903z"/>
			<path style="fill:#428DFF;" d="M262.036,198.769c-3.34-3.319-8.732-3.319-12.072,0L232.9,215.834
				c-3.281,3.341-3.256,8.701,0.054,12.012c3.311,3.311,8.671,3.335,12.012,0.054l2.5-2.5v39.134c0,4.713,3.821,8.533,8.533,8.533
				c4.713,0,8.533-3.82,8.533-8.533V225.4l2.5,2.5c3.338,3.296,8.711,3.279,12.029-0.038c3.317-3.317,3.334-8.691,0.038-12.029
				L262.036,198.769z"/>
		</g>
	</g>
</g>
<g>
</g>
<g>
</g>
<g>
</g>
<g>
</g>
<g>
</g>
<g>
</g>
<g>
</g>
<g>
</g>
<g>
</g>
<g>
</g>
<g>
</g>
<g>
</g>
<g>
</g>
<g>
</g>
<g>
</g>
</svg>
