<?xml version="1.0" encoding="iso-8859-1"?>
<!-- Generator: Adobe Illustrator 19.0.0, SVG Export Plug-In . SVG Version: 6.00 Build 0)  -->
<svg version="1.1" id="Capa_1" xmlns="http://www.w3.org/2000/svg" xmlns:xlink="http://www.w3.org/1999/xlink" x="0px" y="0px"
	 viewBox="0 0 512.005 512.005" style="enable-background:new 0 0 512.005 512.005;" xml:space="preserve">
<g>
	<g transform="translate(1 1)">
		<g>
			<path style="fill:#A4C2F7;" d="M502.469,280.6v204.8c-0.028,9.414-7.653,17.039-17.067,17.067H348.869
				c-9.414-0.028-17.039-7.653-17.067-17.067V280.6H502.469z"/>
			<path style="fill:#A4C2F7;" d="M502.469,91.501l0,189.099H331.802V92.867C331.785,45.745,293.59,7.55,246.469,7.533l172.031,0
				c22.275-0.016,43.642,8.825,59.393,24.576C493.643,47.86,502.485,69.227,502.469,91.501z"/>
		</g>
		<g>
			<path style="fill:#E3E7F2;" d="M476.869,280.6v204.8c-0.028,9.414-7.652,17.039-17.067,17.067H348.869
				c-9.414-0.028-17.039-7.653-17.067-17.067V280.6H476.869z"/>
			<path style="fill:#E3E7F2;" d="M476.869,91.501l0,189.099H331.802V92.867C331.785,45.745,293.59,7.55,246.469,7.533l146.431,0
				c22.275-0.016,43.642,8.825,59.393,24.576C468.043,47.86,476.885,69.227,476.869,91.501z"/>
			<path style="fill:#E3E7F2;" d="M374.469,314.733h85.333c4.713,0,8.533,3.821,8.533,8.533v17.067c0,4.713-3.821,8.533-8.533,8.533
				h-85.333c-4.713,0-8.533-3.821-8.533-8.533v-17.067C365.936,318.554,369.756,314.733,374.469,314.733z"/>
		</g>
		<path style="fill:#A4C2F7;" d="M331.802,92.867v324.267c-0.017,47.121-38.212,85.316-85.333,85.333H84.336
			c42.414-0.004,76.796-34.386,76.8-76.8V84.333c0-38.485,31.659-70.059,72.021-75.861c4.411-0.616,8.859-0.929,13.313-0.939
			C293.59,7.55,331.785,45.745,331.802,92.867z"/>
		<path style="fill:#E3E7F2;" d="M306.202,92.867v324.267c-0.017,47.121-38.212,85.316-85.333,85.333H84.336
			c42.414-0.004,76.796-34.386,76.8-76.8V84.333c0-38.485,31.659-70.059,72.021-75.861
			C275.093,14.545,306.206,50.493,306.202,92.867z"/>
		<path style="fill:#A4C2F7;" d="M161.136,186.733v236.288c0.514,41.104-30.732,75.66-71.68,79.275
			c-5.986,0.406-11.999,0.119-17.92-0.853c-36.955-6.276-63.995-38.292-64-75.776V186.733c0.028-9.414,7.652-17.039,17.067-17.067
			h119.467C153.483,169.694,161.108,177.319,161.136,186.733z"/>
		<g>
			<path style="fill:#E3E7F2;" d="M135.536,186.733v236.288c0.337,38.142-26.564,71.106-64,78.421
				c-36.955-6.276-63.995-38.292-64-75.776V186.733c0.028-9.414,7.652-17.039,17.067-17.067h93.867
				C127.883,169.694,135.508,177.319,135.536,186.733z"/>
			<rect x="365.936" y="383" style="fill:#E3E7F2;" width="34.133" height="34.133"/>
		</g>
	</g>
	<path style="fill:#FFFFFF;" d="M88.323,503.316c-1,0.039-1.979,0.151-2.988,0.151h25.6c1.008,0,1.988-0.112,2.988-0.151
		c-5.278,0.24-10.568-0.053-15.788-0.873c-36.955-6.276-63.995-38.292-64-75.776V187.733c0.028-9.414,7.652-17.039,17.067-17.067
		h-25.6c-9.414,0.028-17.039,7.652-17.067,17.067v238.933c0.005,37.484,27.045,69.5,64,75.776
		C77.755,503.263,83.045,503.555,88.323,503.316z"/>
	<g>
		<polygon style="fill:#FFFFFF;" points="17.069,187.733 17.069,298.667 17.069,426.667 0.002,426.667 0.002,298.667 0.002,187.733 
					"/>
		<g>
			<path style="fill:#428DFF;" d="M375.469,358.4h85.333c9.421-0.011,17.056-7.645,17.067-17.067v-17.067
				c-0.011-9.421-7.645-17.056-17.067-17.067h-85.333c-9.421,0.011-17.056,7.645-17.067,17.067v17.067
				C358.413,350.755,366.048,358.389,375.469,358.4z M375.469,324.267h85.333l0.009,17.067h-85.342V324.267z"/>
			<path style="fill:#428DFF;" d="M469.336,392.533h-8.533V384c0-4.713-3.82-8.533-8.533-8.533s-8.533,3.821-8.533,8.533v8.533
				h-8.533c-4.713,0-8.533,3.82-8.533,8.533s3.821,8.533,8.533,8.533h8.533v8.533c0,4.713,3.82,8.533,8.533,8.533
				s8.533-3.82,8.533-8.533V409.6h8.533c4.713,0,8.533-3.821,8.533-8.533S474.048,392.533,469.336,392.533z"/>
			<path style="fill:#428DFF;" d="M469.336,452.267h-34.133c-4.713,0-8.533,3.82-8.533,8.533s3.821,8.533,8.533,8.533h34.133
				c4.713,0,8.533-3.82,8.533-8.533S474.048,452.267,469.336,452.267z"/>
			<path style="fill:#428DFF;" d="M8.536,264.533c2.259-0.034,4.422-0.918,6.059-2.475c3.3-3.365,3.3-8.752,0-12.117l-1.279-1.025
				c-0.476-0.324-0.993-0.583-1.538-0.771c-0.484-0.246-1.003-0.417-1.538-0.509c-0.563-0.096-1.133-0.153-1.704-0.171
				c-2.259,0.031-4.423,0.915-6.059,2.475c-3.222,3.397-3.222,8.721,0,12.117c0.815,0.771,1.77,1.379,2.813,1.792
				C6.316,264.288,7.419,264.52,8.536,264.533z"/>
			<path style="fill:#428DFF;" d="M366.936,426.667h34.133c2.263,0.001,4.434-0.898,6.035-2.499c1.6-1.6,2.499-3.771,2.499-6.035
				V384c0.001-2.263-0.898-4.434-2.499-6.035s-3.771-2.499-6.035-2.499h-34.133c-2.263-0.001-4.434,0.898-6.035,2.499
				c-1.6,1.6-2.499,3.771-2.499,6.035v34.133c-0.001,2.263,0.898,4.434,2.499,6.035
				C362.501,425.768,364.672,426.667,366.936,426.667z M375.469,392.533h17.067V409.6h-17.067V392.533z"/>
			<path style="fill:#428DFF;" d="M419.536,0H247.469c-51.758,0-93.867,38.279-93.867,85.333v78.372
				c-2.733-1.012-5.62-1.544-8.533-1.572H25.602c-14.132,0.015-25.585,11.468-25.6,25.6v34.133c0,4.713,3.821,8.533,8.533,8.533
				s8.533-3.821,8.533-8.533v-34.133c0.005-4.711,3.822-8.529,8.533-8.533h119.467c4.711,0.005,8.529,3.822,8.533,8.533v236.296
				c0.362,31.339-19.978,59.166-49.948,68.334c-0.713,0.199-1.431,0.379-2.154,0.555c-1.248,0.313-2.509,0.593-3.783,0.833
				c-1.119,0.206-2.252,0.368-3.39,0.519c-1.05,0.141-2.101,0.278-3.167,0.367c-1.179,0.101-2.374,0.142-3.57,0.181
				c-18.483,0.645-36.433-6.25-49.732-19.102s-20.803-30.557-20.79-49.05V290.133c0-4.713-3.821-8.533-8.533-8.533
				s-8.533,3.821-8.533,8.533v136.533c0.042,23.589,9.806,46.117,26.992,62.275c15.749,14.87,36.607,23.126,58.267,23.063
				L85.388,512h162.081c30.605-0.022,59.273-14.978,76.8-40.066V486.4c0.015,14.132,11.468,25.585,25.6,25.6h136.533
				c14.132-0.015,25.585-11.468,25.6-25.6V92.467C511.944,41.423,470.579,0.058,419.536,0z M247.469,494.933H136.486
				c21.515-16.098,34.182-41.396,34.183-68.267V85.333c0-37.642,34.45-68.267,76.8-68.267c42.396,0.048,76.752,34.404,76.8,76.8
				v324.267C324.221,460.529,289.865,494.886,247.469,494.933z M494.936,486.4c-0.005,4.711-3.822,8.529-8.533,8.533H349.869
				c-4.711-0.005-8.529-3.822-8.533-8.533V290.133h153.6V486.4z M494.936,273.067h-153.6v-179.2
				c-0.017-3.605-0.24-7.206-0.669-10.785c-0.129-1.122-0.341-2.214-0.509-3.324c-0.368-2.424-0.801-4.822-1.351-7.182
				c-0.285-1.228-0.605-2.437-0.94-3.646c-0.621-2.252-1.331-4.459-2.114-6.64c-0.401-1.118-0.782-2.24-1.224-3.338
				c-1-2.485-2.125-4.901-3.327-7.277c-0.346-0.683-0.635-1.393-0.997-2.066c-1.61-2.994-3.382-5.898-5.306-8.7
				c-0.493-0.718-1.049-1.382-1.562-2.086c-1.492-2.051-3.038-4.053-4.688-5.975c-0.777-0.907-1.595-1.771-2.406-2.647
				c-1.529-1.651-3.113-3.246-4.752-4.784c-0.895-0.838-1.79-1.667-2.717-2.47c-1.788-1.548-3.648-3.005-5.55-4.416
				c-0.63-0.468-1.198-1.011-1.839-1.463h118.15c41.623,0.048,75.352,33.777,75.4,75.4V273.067z"/>
			<path style="fill:#428DFF;" d="M469.336,230.4h-102.4c-4.713,0-8.533,3.821-8.533,8.533c0,4.713,3.82,8.533,8.533,8.533h102.4
				c4.713,0,8.533-3.821,8.533-8.533C477.869,234.221,474.048,230.4,469.336,230.4z"/>
			<path style="fill:#428DFF;" d="M366.936,213.333h34.133c4.713,0,8.533-3.821,8.533-8.533c0-4.713-3.821-8.533-8.533-8.533
				h-34.133c-4.713,0-8.533,3.821-8.533,8.533C358.402,209.513,362.223,213.333,366.936,213.333z"/>
			<path style="fill:#428DFF;" d="M366.936,179.2h59.733c4.713,0,8.533-3.821,8.533-8.533c0-4.713-3.821-8.533-8.533-8.533h-59.733
				c-4.713,0-8.533,3.821-8.533,8.533C358.402,175.38,362.223,179.2,366.936,179.2z"/>
			<path style="fill:#428DFF;" d="M366.936,128c-4.713,0-8.533,3.821-8.533,8.533s3.82,8.533,8.533,8.533h102.4
				c4.713,0,8.533-3.821,8.533-8.533s-3.82-8.533-8.533-8.533H366.936z"/>
			<path style="fill:#428DFF;" d="M366.936,110.933h59.733c4.713,0,8.533-3.821,8.533-8.533c0-4.713-3.821-8.533-8.533-8.533
				h-59.733c-4.713,0-8.533,3.821-8.533,8.533C358.402,107.113,362.223,110.933,366.936,110.933z"/>
			<path style="fill:#428DFF;" d="M196.269,401.067h59.733c4.713,0,8.533-3.82,8.533-8.533s-3.82-8.533-8.533-8.533h-59.733
				c-4.713,0-8.533,3.82-8.533,8.533S191.556,401.067,196.269,401.067z"/>
			<path style="fill:#428DFF;" d="M298.669,418.133h-102.4c-4.713,0-8.533,3.82-8.533,8.533s3.821,8.533,8.533,8.533h102.4
				c4.713,0,8.533-3.82,8.533-8.533S303.382,418.133,298.669,418.133z"/>
			<path style="fill:#428DFF;" d="M298.669,349.867h-102.4c-4.713,0-8.533,3.82-8.533,8.533s3.821,8.533,8.533,8.533h102.4
				c4.713,0,8.533-3.82,8.533-8.533S303.382,349.867,298.669,349.867z"/>
			<path style="fill:#428DFF;" d="M196.269,332.8h42.667c4.713,0,8.533-3.82,8.533-8.533s-3.821-8.533-8.533-8.533h-42.667
				c-4.713,0-8.533,3.821-8.533,8.533S191.556,332.8,196.269,332.8z"/>
			<path style="fill:#428DFF;" d="M196.269,162.133h59.733c4.713,0,8.533-3.821,8.533-8.533s-3.82-8.533-8.533-8.533h-59.733
				c-4.713,0-8.533,3.82-8.533,8.533S191.556,162.133,196.269,162.133z"/>
			<path style="fill:#428DFF;" d="M196.269,93.867h42.667c4.713,0,8.533-3.821,8.533-8.533s-3.821-8.533-8.533-8.533h-42.667
				c-4.713,0-8.533,3.821-8.533,8.533S191.556,93.867,196.269,93.867z"/>
			<path style="fill:#428DFF;" d="M298.669,281.6h-102.4c-4.713,0-8.533,3.821-8.533,8.533c0,4.713,3.821,8.533,8.533,8.533h102.4
				c4.713,0,8.533-3.821,8.533-8.533C307.202,285.421,303.382,281.6,298.669,281.6z"/>
			<path style="fill:#428DFF;" d="M298.669,110.933h-102.4c-4.713,0-8.533,3.821-8.533,8.533c0,4.713,3.821,8.533,8.533,8.533h102.4
				c4.713,0,8.533-3.821,8.533-8.533C307.202,114.754,303.382,110.933,298.669,110.933z"/>
			<path style="fill:#428DFF;" d="M42.669,401.067h59.733c4.713,0,8.533-3.82,8.533-8.533S107.115,384,102.402,384H42.669
				c-4.713,0-8.533,3.82-8.533,8.533S37.956,401.067,42.669,401.067z"/>
			<path style="fill:#428DFF;" d="M42.669,435.2h85.333c4.713,0,8.533-3.82,8.533-8.533s-3.82-8.533-8.533-8.533H42.669
				c-4.713,0-8.533,3.82-8.533,8.533S37.956,435.2,42.669,435.2z"/>
			<path style="fill:#428DFF;" d="M42.669,366.933h34.133c4.713,0,8.533-3.82,8.533-8.533s-3.82-8.533-8.533-8.533H42.669
				c-4.713,0-8.533,3.82-8.533,8.533S37.956,366.933,42.669,366.933z"/>
			<path style="fill:#428DFF;" d="M42.669,264.533h85.333c4.713,0,8.533-3.821,8.533-8.533c0-4.713-3.82-8.533-8.533-8.533H42.669
				c-4.713,0-8.533,3.821-8.533,8.533C34.136,260.713,37.956,264.533,42.669,264.533z"/>
			<path style="fill:#428DFF;" d="M42.669,332.8h85.333c4.713,0,8.533-3.82,8.533-8.533s-3.82-8.533-8.533-8.533H42.669
				c-4.713,0-8.533,3.821-8.533,8.533S37.956,332.8,42.669,332.8z"/>
			<path style="fill:#428DFF;" d="M42.669,298.667h51.2c4.713,0,8.533-3.821,8.533-8.533c0-4.713-3.821-8.533-8.533-8.533h-51.2
				c-4.713,0-8.533,3.821-8.533,8.533C34.136,294.846,37.956,298.667,42.669,298.667z"/>
			<path style="fill:#428DFF;" d="M196.269,264.533h59.733c4.713,0,8.533-3.821,8.533-8.533c0-4.713-3.82-8.533-8.533-8.533h-59.733
				c-4.713,0-8.533,3.821-8.533,8.533C187.736,260.713,191.556,264.533,196.269,264.533z"/>
			<path style="fill:#428DFF;" d="M196.269,230.4h34.133c4.713,0,8.533-3.821,8.533-8.533c0-4.713-3.821-8.533-8.533-8.533h-34.133
				c-4.713,0-8.533,3.821-8.533,8.533C187.736,226.579,191.556,230.4,196.269,230.4z"/>
			<path style="fill:#428DFF;" d="M196.269,196.267h93.867c4.713,0,8.533-3.821,8.533-8.533c0-4.713-3.82-8.533-8.533-8.533h-93.867
				c-4.713,0-8.533,3.821-8.533,8.533C187.736,192.446,191.556,196.267,196.269,196.267z"/>
			<path style="fill:#428DFF;" d="M366.936,76.8h93.867c4.713,0,8.533-3.82,8.533-8.533c0-4.713-3.821-8.533-8.533-8.533h-93.867
				c-4.713,0-8.533,3.821-8.533,8.533C358.402,72.98,362.223,76.8,366.936,76.8z"/>
			<circle style="fill:#428DFF;" cx="366.936" cy="460.8" r="8.533"/>
			<circle style="fill:#428DFF;" cx="401.069" cy="460.8" r="8.533"/>
		</g>
	</g>
</g>
<g>
</g>
<g>
</g>
<g>
</g>
<g>
</g>
<g>
</g>
<g>
</g>
<g>
</g>
<g>
</g>
<g>
</g>
<g>
</g>
<g>
</g>
<g>
</g>
<g>
</g>
<g>
</g>
<g>
</g>
</svg>
