<?xml version="1.0" encoding="iso-8859-1"?>
<!-- Generator: Adobe Illustrator 19.0.0, SVG Export Plug-In . SVG Version: 6.00 Build 0)  -->
<svg version="1.1" id="Capa_1" xmlns="http://www.w3.org/2000/svg" xmlns:xlink="http://www.w3.org/1999/xlink" x="0px" y="0px"
	 viewBox="0 0 512.001 512.001" style="enable-background:new 0 0 512.001 512.001;" xml:space="preserve">
<g>
	<g transform="translate(1 1)">
		<path style="fill:#E3E7F2;" d="M502.467,121.501V98.367c0-3.037-2.462-5.499-5.499-5.499h-8.965
			c-2.521-0.025-4.701-1.763-5.286-4.215c-2.001-7.76-5.093-15.197-9.183-22.089c-1.322-2.149-1.008-4.923,0.762-6.722l6.357-6.358
			c2.148-2.148,2.148-5.63,0-7.777l-16.358-16.358c-1.031-1.031-2.43-1.611-3.889-1.611c-1.459,0-2.857,0.579-3.889,1.611
			l-6.358,6.358c-1.798,1.77-4.573,2.085-6.722,0.762c-6.892-4.09-14.329-7.182-22.089-9.183c-2.452-0.585-4.191-2.765-4.215-5.286
			v-8.965c0-3.037-2.462-5.499-5.499-5.499H388.5c-3.037,0-5.499,2.462-5.499,5.499v8.965c-0.025,2.521-1.763,4.701-4.215,5.286
			c-7.76,2.001-15.197,5.093-22.089,9.183c-2.149,1.323-4.923,1.008-6.722-0.762l-6.358-6.358c-1.031-1.031-2.43-1.611-3.889-1.611
			s-2.857,0.579-3.889,1.611l-16.358,16.358c-2.148,2.148-2.148,5.63,0,7.777l6.357,6.358c1.77,1.798,2.085,4.572,0.762,6.722
			c-4.09,6.892-7.181,14.329-9.183,22.089c-0.585,2.452-2.765,4.191-5.286,4.216h-8.965c-1.459,0-2.857,0.579-3.889,1.611
			c-1.031,1.031-1.611,2.43-1.611,3.889v23.134c0,3.037,2.462,5.499,5.499,5.499h8.965c2.521,0.025,4.701,1.763,5.286,4.215
			c2.001,7.76,5.093,15.197,9.183,22.089c1.322,2.149,1.008,4.923-0.762,6.722l-6.357,6.358c-2.148,2.148-2.148,5.63,0,7.777
			l16.358,16.358c1.031,1.031,2.43,1.611,3.889,1.611s2.857-0.579,3.889-1.611l6.358-6.358c1.798-1.77,4.573-2.085,6.722-0.762
			c6.892,4.09,14.329,7.182,22.089,9.184c2.452,0.585,4.191,2.765,4.215,5.286v8.964c0,1.459,0.579,2.857,1.611,3.889
			c1.031,1.031,2.43,1.611,3.889,1.611h23.134c3.037,0,5.499-2.462,5.499-5.499v-8.965c0.025-2.521,1.763-4.701,4.215-5.286
			c7.76-2.001,15.197-5.093,22.089-9.183c2.149-1.323,4.923-1.008,6.722,0.762l6.358,6.358c1.031,1.031,2.43,1.611,3.889,1.611
			c1.459,0,2.857-0.579,3.889-1.611l16.358-16.358c2.148-2.148,2.148-5.63,0-7.777l-6.357-6.358
			c-1.77-1.798-2.085-4.573-0.762-6.722c4.09-6.892,7.181-14.329,9.182-22.089c0.585-2.452,2.766-4.191,5.287-4.215h8.965
			C500.005,127.001,502.467,124.538,502.467,121.501z"/>
		<path style="fill:#A4C2F7;" d="M323.267,365.934c0.025,17.687-6.865,34.684-19.2,47.36c-9.708,10.246-15.061,23.859-14.933,37.973
			c-0.028,9.414-7.653,17.039-17.067,17.067h-34.817c-9.121-0.447-16.309-7.935-16.383-17.067
			c0.02-14.218-5.417-27.902-15.189-38.229c-17.305-18.056-23.337-44.136-15.717-67.957c7.62-23.821,27.668-41.558,52.24-46.219
			c1.664-0.346,3.344-0.602,5.035-0.768c19.331-2.198,38.682,3.951,53.198,16.904C314.951,327.951,323.257,346.479,323.267,365.934z
			"/>
		<path style="fill:#E3E7F2;" d="M297.667,365.934c0.025,17.687-6.865,34.684-19.2,47.36c-9.708,10.246-15.061,23.859-14.933,37.973
			c-0.028,9.414-7.653,17.039-17.067,17.067h-9.217c-9.121-0.447-16.309-7.935-16.383-17.067
			c0.02-14.218-5.417-27.902-15.189-38.229c-17.305-18.056-23.337-44.136-15.717-67.957c7.62-23.821,27.668-41.558,52.24-46.219
			C274.394,305.004,297.679,333.16,297.667,365.934z"/>
		<circle style="fill:#FFFFFF;" cx="400.067" cy="109.934" r="51.2"/>
		<path style="fill:#A4C2F7;" d="M212.334,109.934c0.007,27.16-10.779,53.211-29.984,72.416
			c-19.205,19.205-45.256,29.991-72.416,29.984c-4.281,0.019-8.559-0.266-12.8-0.853C45.94,205.057,7.533,161.53,7.533,109.934
			S45.94,14.811,97.134,8.387c4.241-0.587,8.519-0.872,12.8-0.853c27.16-0.007,53.211,10.779,72.416,29.984
			C201.555,56.723,212.342,82.774,212.334,109.934z"/>
		<ellipse style="fill:#E3E7F2;" cx="97.134" cy="109.934" rx="89.6" ry="101.547"/>
		<circle style="fill:#FFFFFF;" cx="109.934" cy="109.934" r="68.267"/>
		<path style="fill:#A4C2F7;" d="M502.467,98.329v23.211c-0.021,3.007-2.454,5.44-5.461,5.461h-9.045
			c-2.485,0.047-4.624,1.765-5.206,4.181c-2.023,7.762-5.125,15.201-9.215,22.101c-1.314,2.159-0.998,4.934,0.768,6.741l6.315,6.4
			c1.063,1.012,1.664,2.415,1.664,3.883c0,1.467-0.602,2.871-1.664,3.883l-16.299,16.299c-1.012,1.063-2.415,1.664-3.883,1.664
			s-2.871-0.601-3.883-1.664l-6.4-6.315c-0.932-0.985-2.229-1.541-3.584-1.536l8.448-8.448c1.063-1.012,1.664-2.415,1.664-3.883
			c0-1.467-0.602-2.871-1.664-3.883l-6.315-6.4c-1.766-1.808-2.082-4.583-0.768-6.741c4.09-6.9,7.192-14.34,9.216-22.101
			c0.582-2.416,2.722-4.134,5.206-4.181h9.045c3.007-0.021,5.44-2.454,5.461-5.461V98.329c-0.021-3.008-2.454-5.44-5.461-5.461
			h-9.045c-2.485-0.047-4.624-1.765-5.206-4.181c-2.023-7.762-5.125-15.201-9.215-22.101c-1.315-2.159-0.999-4.934,0.768-6.741
			l6.315-6.4c1.063-1.012,1.664-2.415,1.664-3.883c0-1.467-0.601-2.871-1.664-3.883l-8.448-8.448
			c1.355,0.004,2.652-0.552,3.584-1.536l6.4-6.315c1.012-1.063,2.415-1.664,3.883-1.664s2.871,0.601,3.883,1.664l16.298,16.299
			c1.063,1.012,1.664,2.415,1.664,3.883c0,1.467-0.601,2.871-1.664,3.883l-6.315,6.4c-1.767,1.808-2.083,4.583-0.768,6.741
			c4.09,6.9,7.192,14.34,9.216,22.101c0.582,2.416,2.722,4.134,5.206,4.181h9.046C500.014,92.888,502.446,95.321,502.467,98.329z"/>
		<g>
			<path style="fill:#FFFFFF;" d="M220.867,451.267c0.074,9.132,7.262,16.62,16.383,17.067h25.6
				c-9.121-0.447-16.309-7.935-16.383-17.067c0.02-14.218-5.417-27.902-15.189-38.229c-17.281-18.028-23.323-44.062-15.747-67.859
				c7.576-23.796,27.557-41.546,52.08-46.265c-6.714-1.279-13.58-1.556-20.375-0.821c-1.691,0.166-3.372,0.422-5.035,0.768
				c-24.572,4.661-44.62,22.398-52.24,46.219c-7.62,23.821-1.588,49.901,15.717,67.957
				C215.451,423.365,220.888,437.049,220.867,451.267z"/>
			<path style="fill:#FFFFFF;" d="M317.417,88.652c-0.585,2.452-2.765,4.191-5.285,4.215h-8.965c-1.459,0-2.858,0.579-3.889,1.611
				c-1.031,1.031-1.611,2.43-1.611,3.889v23.134c0,3.037,2.463,5.5,5.5,5.499h8.965c2.521,0.025,4.701,1.763,5.285,4.215
				c2.002,7.76,5.093,15.197,9.183,22.089c1.323,2.149,1.008,4.924-0.763,6.722l-6.357,6.358c-2.147,2.148-2.147,5.629,0,7.777
				l16.358,16.358c1.031,1.031,2.43,1.611,3.889,1.611s2.857-0.579,3.888-1.611l6.357-6.358c0.96-0.945,2.243-1.488,3.59-1.519
				l-8.482-8.482c-2.147-2.148-2.147-5.629,0-7.777l6.357-6.358c1.77-1.798,2.085-4.573,0.763-6.722
				c-4.09-6.892-7.182-14.329-9.183-22.089c-0.585-2.452-2.765-4.19-5.286-4.215h-8.965c-3.037,0-5.5-2.462-5.5-5.499V98.367
				c0-1.459,0.579-2.858,1.611-3.889c1.031-1.031,2.43-1.611,3.889-1.611h8.965c2.521-0.025,4.701-1.763,5.285-4.215
				c2.002-7.76,5.094-15.197,9.183-22.09c1.323-2.149,1.008-4.923-0.763-6.721l-6.357-6.358c-2.147-2.148-2.147-5.629,0-7.777
				l8.482-8.482c-1.346-0.031-2.629-0.575-3.589-1.519l-6.358-6.358c-2.148-2.147-5.629-2.147-7.777,0l-16.358,16.359
				c-2.147,2.148-2.147,5.629,0,7.777l6.357,6.358c1.77,1.798,2.085,4.572,0.763,6.721
				C322.511,73.455,319.419,80.892,317.417,88.652z"/>
			<path style="fill:#FFFFFF;" d="M33.134,109.934C33.115,58.368,71.479,14.85,122.64,8.403c-4.213-0.551-8.457-0.842-12.706-0.869
				c-4.281-0.019-8.559,0.266-12.8,0.853C45.94,14.811,7.533,58.339,7.533,109.934s38.407,95.123,89.601,101.547
				c4.241,0.587,8.519,0.872,12.8,0.853c4.25-0.027,8.494-0.318,12.708-0.869C71.481,205.018,33.116,161.5,33.134,109.934z"/>
		</g>
	</g>
	<g>
		<polygon style="fill:#FFFFFF;" points="102.401,349.867 102.401,238.934 102.401,213.334 119.467,213.334 119.467,238.934 
			119.467,349.867 		"/>
		<g>
			<path style="fill:#428DFF;" d="M221.867,494.934c-4.713,0-8.533,3.821-8.533,8.533c0,4.713,3.821,8.533,8.533,8.533h68.267
				c4.713,0,8.533-3.821,8.533-8.533c0-4.713-3.821-8.533-8.533-8.533H221.867z"/>
			<path style="fill:#428DFF;" d="M180.151,354.68c-3.841,23.763,3.711,47.949,20.392,65.304
				c8.285,8.697,12.871,20.271,12.791,32.283c0.015,14.132,11.468,25.585,25.6,25.6h34.133c14.132-0.015,25.585-11.468,25.6-25.6
				c-0.159-11.889,4.332-23.371,12.517-31.996c14.528-14.996,22.316-35.265,21.567-56.13c-0.748-20.865-9.969-40.524-25.534-54.441
				c-20.923-18.727-50.396-24.546-76.866-15.177C203.881,303.894,184.632,326.96,180.151,354.68L180.151,354.68z M256.076,307.197
				c14.682-0.046,28.854,5.381,39.75,15.22c12.108,10.817,19.283,26.102,19.869,42.327c0.587,16.225-5.466,31.989-16.761,43.652
				c-11.284,11.8-17.505,27.545-17.333,43.871c-0.005,4.711-3.822,8.529-8.533,8.533h-34.133c-4.713-0.007-8.531-3.829-8.533-8.542
				c0.088-16.413-6.201-32.218-17.542-44.083c-15.704-16.367-20.77-40.223-13.072-61.559c7.698-21.336,26.828-36.463,49.364-39.033
				C251.45,307.327,253.762,307.198,256.076,307.197L256.076,307.197z"/>
			<path style="fill:#428DFF;" d="M401.067,51.201c-32.99,0-59.733,26.744-59.733,59.733s26.744,59.733,59.733,59.733
				s59.733-26.744,59.733-59.733C460.762,77.96,434.041,51.239,401.067,51.201z M401.067,153.601
				c-23.564,0-42.667-19.103-42.667-42.667s19.103-42.667,42.667-42.667c23.564,0,42.667,19.103,42.667,42.667
				C443.706,134.487,424.62,153.573,401.067,153.601z"/>
			<path style="fill:#428DFF;" d="M497.967,85.334h-6.575c-2-7.018-4.811-13.778-8.375-20.146l4.667-4.671
				c5.475-5.482,5.475-14.363,0-19.846l-16.35-16.354c-5.551-5.31-14.297-5.312-19.85-0.004l-4.675,4.671
				c-6.363-3.569-13.124-6.378-20.142-8.371v-6.579c-0.008-7.747-6.286-14.026-14.033-14.033h-23.133
				c-7.747,0.008-14.026,6.286-14.033,14.033v6.579c-7.018,1.994-13.778,4.804-20.142,8.371l-4.683-4.679
				c-5.553-5.293-14.285-5.29-19.833,0.009l-16.358,16.358c-5.475,5.482-5.475,14.363,0,19.846l4.667,4.671
				c-3.564,6.367-6.375,13.128-8.375,20.145h-6.575c-7.747,0.008-14.025,6.286-14.033,14.033v3.033h-68.699
				C216.92,43.535,167.071-1.47,108.051,0.037S1.543,49.032,0.037,108.051S43.535,216.92,102.401,221.435v26.032
				c0,4.713,3.821,8.533,8.533,8.533c4.713,0,8.533-3.82,8.533-8.533v-26.032c54.452-4.262,97.706-47.515,101.968-101.968h68.699
				v3.033c0.008,7.747,6.286,14.026,14.033,14.033h6.575c2,7.018,4.811,13.778,8.375,20.146l-4.667,4.671
				c-5.475,5.482-5.475,14.363,0,19.846l16.35,16.354c5.551,5.31,14.297,5.311,19.85,0.004l4.675-4.671
				c6.363,3.569,13.124,6.378,20.142,8.371v6.579c0.008,7.747,6.286,14.026,14.033,14.033h3.033v128
				c-0.005,4.711-3.822,8.529-8.533,8.533h-25.6c-4.713,0-8.533,3.82-8.533,8.533s3.82,8.533,8.533,8.533h25.6
				c14.132-0.015,25.585-11.468,25.6-25.6v-128h3.033c7.747-0.008,14.026-6.286,14.033-14.033v-6.579
				c7.018-1.992,13.779-4.802,20.142-8.371l4.683,4.679c5.553,5.293,14.285,5.29,19.833-0.009l16.358-16.358
				c5.475-5.482,5.475-14.363,0-19.846l-4.667-4.671c3.564-6.367,6.375-13.128,8.375-20.146h6.575
				c7.747-0.008,14.025-6.286,14.033-14.033V99.367C511.993,91.62,505.715,85.342,497.967,85.334z M110.934,204.801
				c-51.841,0-93.867-42.026-93.867-93.867s42.026-93.867,93.867-93.867s93.867,42.026,93.867,93.867
				C204.742,162.751,162.751,204.742,110.934,204.801z M494.934,119.467h-5.933c-6.409,0.038-11.982,4.406-13.55,10.621
				c-1.8,6.981-4.58,13.671-8.258,19.871c-3.299,5.503-2.448,12.542,2.067,17.1l4.217,4.212l-12.075,12.071l-4.2-4.204
				c-4.555-4.526-11.602-5.383-17.108-2.079c-6.196,3.677-12.882,6.457-19.858,8.258c-6.225,1.558-10.602,7.137-10.634,13.554v5.929
				h-17.067v-5.929c-0.03-6.414-4.404-11.991-10.625-13.55c-6.976-1.802-13.662-4.582-19.858-8.258
				c-5.503-3.312-12.553-2.461-17.108,2.067l-4.208,4.212l-12.075-12.071l4.217-4.212c4.515-4.558,5.365-11.597,2.067-17.1
				c-3.679-6.201-6.459-12.893-8.258-19.875c-1.57-6.213-7.142-10.579-13.55-10.617h-5.933v-17.067h5.933
				c6.409-0.038,11.982-4.406,13.55-10.621c1.8-6.981,4.58-13.671,8.259-19.871c3.299-5.503,2.448-12.542-2.067-17.1l-4.217-4.212
				l12.075-12.071l4.2,4.204c4.554,4.528,11.602,5.385,17.108,2.079c6.196-3.677,12.882-6.457,19.858-8.258
				c6.225-1.558,10.602-7.137,10.633-13.554v-5.929h17.067v5.929c0.03,6.414,4.404,11.991,10.625,13.55
				c6.982,1.804,13.673,4.587,19.875,8.267c5.503,3.293,12.537,2.439,17.092-2.075l4.208-4.212l12.075,12.071l-4.217,4.212
				c-4.515,4.558-5.365,11.597-2.066,17.1c3.679,6.201,6.459,12.893,8.258,19.875c1.57,6.213,7.142,10.579,13.55,10.617h5.933
				V119.467z"/>
			<path style="fill:#428DFF;" d="M110.934,34.134c-42.415,0-76.8,34.385-76.8,76.8s34.385,76.8,76.8,76.8s76.8-34.385,76.8-76.8
				C187.686,68.538,153.33,34.182,110.934,34.134z M110.934,170.667c-32.99,0-59.733-26.744-59.733-59.733
				s26.744-59.733,59.733-59.733s59.733,26.744,59.733,59.733C170.629,143.908,143.908,170.629,110.934,170.667z"/>
			<path style="fill:#428DFF;" d="M119.467,107.401v-30.6c0-4.713-3.821-8.533-8.533-8.533c-4.713,0-8.533,3.82-8.533,8.533v34.133
				c0.001,2.263,0.9,4.433,2.5,6.033l17.067,17.067c3.341,3.281,8.701,3.256,12.012-0.054c3.311-3.311,3.335-8.671,0.054-12.012
				L119.467,107.401z"/>
			<path style="fill:#428DFF;" d="M264.534,264.534v-25.6c0-4.713-3.821-8.533-8.533-8.533c-4.713,0-8.533,3.821-8.533,8.533v25.6
				c0,4.713,3.821,8.533,8.533,8.533C260.714,273.067,264.534,269.247,264.534,264.534z"/>
			<path style="fill:#428DFF;" d="M171.526,270.392c-2.154-2.162-5.299-3.008-8.247-2.22c-2.948,0.788-5.251,3.091-6.039,6.039
				c-0.788,2.948,0.058,6.093,2.22,8.247l18.1,18.1c2.156,2.155,5.297,2.997,8.242,2.208c2.944-0.789,5.244-3.089,6.033-6.033
				c0.789-2.944-0.053-6.086-2.208-8.242L171.526,270.392z"/>
			<path style="fill:#428DFF;" d="M352.542,270.392c-1.6-1.601-3.77-2.5-6.033-2.5s-4.434,0.899-6.033,2.5l-18.1,18.1
				c-2.156,2.156-2.997,5.297-2.208,8.242c0.789,2.944,3.089,5.244,6.033,6.033s6.086-0.053,8.242-2.208l18.1-18.1
				c1.601-1.6,2.5-3.77,2.5-6.033S354.143,271.992,352.542,270.392z"/>
			<path style="fill:#428DFF;" d="M177.559,433.309l-18.1,18.1c-2.162,2.154-3.008,5.299-2.22,8.247
				c0.788,2.948,3.091,5.251,6.039,6.039c2.948,0.788,6.093-0.058,8.247-2.22l18.1-18.1c2.156-2.156,2.997-5.297,2.208-8.242
				c-0.789-2.944-3.089-5.244-6.033-6.033C182.856,430.312,179.715,431.154,177.559,433.309z"/>
			<path style="fill:#428DFF;" d="M322.376,433.309c-1.601,1.6-2.5,3.77-2.5,6.033s0.899,4.433,2.5,6.033l18.1,18.1
				c3.334,3.322,8.728,3.318,12.056-0.01c3.328-3.328,3.333-8.722,0.01-12.056l-18.1-18.1c-1.6-1.601-3.77-2.5-6.033-2.5
				C326.146,430.809,323.976,431.708,322.376,433.309z"/>
			<path style="fill:#428DFF;" d="M102.401,349.867c0.015,14.132,11.468,25.585,25.6,25.6h25.6c4.713,0,8.533-3.82,8.533-8.533
				s-3.821-8.533-8.533-8.533h-25.6c-4.711-0.005-8.529-3.822-8.533-8.533v-34.133c0-4.713-3.821-8.533-8.533-8.533
				c-4.713,0-8.533,3.821-8.533,8.533V349.867z"/>
			<path style="fill:#428DFF;" d="M107.692,289.455c0.484,0.246,1.002,0.417,1.537,0.508c0.563,0.096,1.133,0.153,1.704,0.171
				c2.259-0.031,4.423-0.915,6.059-2.475c2.07-1.994,2.979-4.908,2.409-7.726c-0.57-2.818-2.539-5.149-5.222-6.183
				c-1.027-0.438-2.13-0.67-3.246-0.684c-3.45,0.014-6.556,2.096-7.879,5.282c-1.323,3.187-0.606,6.856,1.82,9.31l1.279,1.025
				C106.631,289.008,107.148,289.268,107.692,289.455z"/>
			<circle style="fill:#428DFF;" cx="401.067" cy="110.934" r="8.533"/>
		</g>
	</g>
</g>
<g>
</g>
<g>
</g>
<g>
</g>
<g>
</g>
<g>
</g>
<g>
</g>
<g>
</g>
<g>
</g>
<g>
</g>
<g>
</g>
<g>
</g>
<g>
</g>
<g>
</g>
<g>
</g>
<g>
</g>
</svg>
