<?xml version="1.0" encoding="iso-8859-1"?>
<!-- Generator: Adobe Illustrator 19.0.0, SVG Export Plug-In . SVG Version: 6.00 Build 0)  -->
<svg version="1.1" id="Capa_1" xmlns="http://www.w3.org/2000/svg" xmlns:xlink="http://www.w3.org/1999/xlink" x="0px" y="0px"
	 viewBox="0 0 512.017 512.017" style="enable-background:new 0 0 512.017 512.017;" xml:space="preserve">
<g>
	<g transform="translate(3 1)">
		<path style="fill:#A4C2F7;" d="M483.409,101.4h-460.8l27.819-82.261c2.378-6.929,8.887-11.589,16.213-11.605h372.736
			c7.326,0.016,13.836,4.676,16.213,11.605L483.409,101.4z"/>
		<g>
			<path style="fill:#E3E7F2;" d="M457.809,101.4h-435.2l27.819-82.261c2.378-6.929,8.887-11.589,16.213-11.605h347.136
				c7.326,0.016,13.836,4.676,16.213,11.605L457.809,101.4z"/>
			<path style="fill:#E3E7F2;" d="M22.609,101.4h76.8v46.933c0,21.208-17.192,38.4-38.4,38.4s-38.4-17.192-38.4-38.4V101.4z"/>
		</g>
		<path style="fill:#D4E1F4;" d="M99.409,101.4h76.8v46.933c0,21.208-17.192,38.4-38.4,38.4s-38.4-17.192-38.4-38.4V101.4z"/>
		<path style="fill:#E3E7F2;" d="M176.209,101.4h76.8v46.933c0,21.208-17.192,38.4-38.4,38.4s-38.4-17.192-38.4-38.4V101.4z"/>
		<path style="fill:#D4E1F4;" d="M253.009,101.4h76.8v46.933c0,21.208-17.192,38.4-38.4,38.4c-21.208,0-38.4-17.192-38.4-38.4V101.4
			z"/>
		<path style="fill:#E3E7F2;" d="M329.809,101.4h76.8v46.933c0,21.208-17.192,38.4-38.4,38.4c-21.208,0-38.4-17.192-38.4-38.4V101.4
			z"/>
		<path style="fill:#A4C2F7;" d="M483.409,101.4l0,46.933c0.014,10.188-4.028,19.964-11.232,27.168
			c-7.204,7.204-16.979,11.246-27.168,11.232c-4.363,0.014-8.696-0.737-12.8-2.219c-15.358-5.391-25.627-19.905-25.6-36.181
			l0-46.933H483.409z"/>
		<path style="fill:#D4E1F4;" d="M457.809,101.4l0,46.933c0.027,16.277-10.242,30.791-25.6,36.181
			c-15.358-5.391-25.627-19.905-25.6-36.181l0-46.933H457.809z"/>
		<g>
			<path style="fill:#E3E7F2;" d="M99.409,148.333c0.005,12.823-6.4,24.8-17.067,31.916v219.818h34.133V180.249
				C105.808,173.133,99.404,161.156,99.409,148.333z"/>
			<path style="fill:#E3E7F2;" d="M406.609,148.333c-0.005,12.823,6.4,24.8,17.067,31.916v219.818h-34.133V180.249
				C400.209,173.133,406.613,161.156,406.609,148.333z"/>
		</g>
		<path style="fill:#A4C2F7;" d="M457.809,417.133v85.333h-409.6v-85.333c0.028-9.414,7.652-17.039,17.067-17.067h375.467
			C450.156,400.094,457.781,407.719,457.809,417.133z"/>
		<path style="fill:#E3E7F2;" d="M432.209,417.133v85.333h-384v-85.333c0.028-9.414,7.652-17.039,17.067-17.067h349.867
			C424.556,400.094,432.181,407.719,432.209,417.133z"/>
		<path style="fill:#A4C2F7;" d="M330.662,452.547c-15.883,34.73-52.868,54.72-90.624,48.981
			c-7.751-1.223-15.301-3.491-22.443-6.741c-31.408-14.323-51.095-46.156-49.881-80.654c1.214-34.498,23.089-64.869,55.426-76.949
			c32.337-12.081,68.767-3.492,92.303,21.76C338.979,384.195,344.985,421.139,330.662,452.547z"/>
		<path style="fill:#E3E7F2;" d="M305.062,452.547c-11.963,26.3-36.444,44.741-65.024,48.981
			c-7.751-1.223-15.301-3.491-22.443-6.741c-34.404-15.68-54.386-52.13-49.103-89.567s34.573-66.934,71.972-72.481
			c26.385,4.147,49.318,20.383,61.994,43.893C315.134,400.142,316.097,428.224,305.062,452.547z"/>
		<g>
			<path style="fill:#FFFFFF;" d="M142.075,186.303c2.874-0.308,5.704-0.942,8.435-1.891c-2.971-1.037-5.804-2.436-8.435-4.164
				V186.303z"/>
			<path style="fill:#FFFFFF;" d="M82.342,400.067H65.275c-9.414,0.028-17.039,7.652-17.067,17.067v85.333h25.6v-85.333
				c0.028-9.414,7.652-17.039,17.067-17.067h17.067"/>
			<path style="fill:#FFFFFF;" d="M73.907,184.412c-15.36-5.347-25.665-19.815-25.698-36.079V101.4l27.819-82.261
				c2.378-6.929,8.887-11.589,16.213-11.605h-25.6c-7.326,0.016-13.836,4.676-16.213,11.605L22.609,101.4v46.933
				c-0.07,12.506,5.989,24.254,16.218,31.449C49.057,186.976,62.161,188.706,73.907,184.412z"/>
		</g>
	</g>
	<g>
		<polygon style="fill:#FFFFFF;" points="93.875,181.248 93.875,292.181 93.875,401.067 76.809,401.067 76.809,292.181 
			76.809,181.248 		"/>
		<g>
			<path style="fill:#428DFF;" d="M244.975,244.966l2.5-2.5V281.6c0,4.713,3.821,8.533,8.533,8.533s8.533-3.821,8.533-8.533v-39.133
				l2.5,2.5c3.338,3.296,8.711,3.279,12.029-0.038c3.317-3.317,3.334-8.691,0.038-12.029l-17.059-17.059
				c-3.341-3.325-8.741-3.325-12.081,0L232.909,232.9c-3.281,3.341-3.256,8.701,0.054,12.012
				C236.274,248.223,241.634,248.247,244.975,244.966z"/>
			<path style="fill:#428DFF;" d="M321.775,296.166l2.5-2.5V332.8c0,4.713,3.821,8.533,8.533,8.533c4.713,0,8.533-3.82,8.533-8.533
				v-39.133l2.5,2.5c3.338,3.296,8.711,3.279,12.029-0.038c3.317-3.317,3.334-8.691,0.038-12.029l-17.059-17.059
				c-3.341-3.325-8.741-3.325-12.081,0L309.709,284.1c-3.281,3.341-3.256,8.701,0.054,12.012
				C313.074,299.423,318.434,299.447,321.775,296.166z"/>
			<path style="fill:#428DFF;" d="M168.175,296.166l2.5-2.5V332.8c0,4.713,3.821,8.533,8.533,8.533s8.533-3.82,8.533-8.533v-39.133
				l2.5,2.5c2.151,2.178,5.304,3.037,8.262,2.251c2.958-0.786,5.269-3.097,6.055-6.055s-0.073-6.111-2.251-8.262l-17.059-17.059
				c-3.341-3.325-8.741-3.325-12.081,0L156.109,284.1c-3.281,3.341-3.256,8.701,0.054,12.012
				C159.474,299.423,164.834,299.447,168.175,296.166z"/>
			<path style="fill:#428DFF;" d="M503.475,494.933h-34.133v-76.8c-0.015-14.132-11.468-25.585-25.6-25.6h-8.533V194.447
				c14.15,4.065,29.388,1.237,41.136-7.636c11.748-8.873,18.637-22.755,18.598-37.478V102.4c0-0.084-0.045-0.153-0.047-0.236
				c-0.007-0.849-0.143-1.693-0.403-2.502l-27.85-82.271C463.124,6.995,453.368-0.002,442.392,0H69.625
				c-10.976-0.002-20.732,6.995-24.25,17.392l-27.85,82.271c-0.259,0.808-0.395,1.651-0.402,2.5
				c-0.003,0.084-0.048,0.153-0.048,0.237v46.933c-0.039,14.722,6.85,28.605,18.598,37.478c11.748,8.873,26.986,11.701,41.136,7.636
				v20.935c0,4.713,3.821,8.533,8.533,8.533s8.533-3.821,8.533-8.533v-29.875c0.877-0.725,1.704-1.509,2.526-2.295
				c0.201-0.192,0.419-0.365,0.616-0.56c1.781-1.784,3.417-3.707,4.892-5.751c0.151-0.207,0.352-0.378,0.5-0.588
				c0.244,0.346,0.547,0.649,0.8,0.989c0.771,1.034,1.578,2.036,2.429,3.003c0.437,0.495,0.873,0.987,1.332,1.465
				c1.136,1.19,2.333,2.321,3.586,3.387c0.137,0.115,0.248,0.252,0.386,0.365v207.012H93.875V283.649
				c0-4.713-3.821-8.533-8.533-8.533s-8.533,3.821-8.533,8.533v108.884h-8.533c-14.132,0.015-25.585,11.468-25.6,25.6v76.8H8.542
				c-4.713,0-8.533,3.821-8.533,8.533c0,4.713,3.821,8.533,8.533,8.533H255.55c0.105,0.001,0.211,0.017,0.317,0.017l0.234-0.017
				h247.374c4.713,0,8.533-3.82,8.533-8.533C512.009,498.754,508.188,494.933,503.475,494.933z M418.142,185.521v207.013h-17.067
				V185.521c0.138-0.113,0.25-0.25,0.386-0.365c1.253-1.066,2.45-2.197,3.586-3.387c0.459-0.478,0.895-0.969,1.332-1.465
				c0.852-0.966,1.658-1.968,2.429-3.003c0.253-0.34,0.556-0.643,0.8-0.989c0.244,0.346,0.547,0.649,0.8,0.989
				c0.771,1.034,1.578,2.036,2.429,3.003c0.437,0.495,0.873,0.987,1.332,1.465c1.136,1.19,2.333,2.321,3.586,3.387
				C417.892,185.271,418.004,185.407,418.142,185.521z M324.275,149.333c0,16.495-13.372,29.867-29.867,29.867
				c-16.495,0-29.867-13.372-29.867-29.867v-38.4h59.733V149.333z M247.475,149.333c0,16.495-13.372,29.867-29.867,29.867
				s-29.867-13.372-29.867-29.867v-38.4h59.733V149.333z M170.675,149.333c0.118,12.282-7.336,23.37-18.754,27.898
				c-11.418,4.528-24.445,1.562-32.777-7.463c-0.48-0.508-0.89-1.075-1.334-1.616c-0.977-1.183-1.861-2.44-2.644-3.759
				c-0.389-0.659-0.758-1.328-1.096-2.017c-0.68-1.413-1.247-2.878-1.695-4.38c-0.196-0.64-0.443-1.256-0.596-1.914
				c-0.536-2.211-0.817-4.475-0.837-6.75v-38.4h59.733V149.333z M341.342,110.933h59.733v38.4c-0.02,2.274-0.301,4.538-0.837,6.747
				c-0.154,0.66-0.401,1.279-0.598,1.921c-0.448,1.501-1.014,2.963-1.693,4.374c-0.338,0.69-0.708,1.359-1.096,2.018
				c-0.783,1.318-1.666,2.573-2.642,3.755c-0.445,0.542-0.857,1.11-1.338,1.62c-1.511,1.633-3.199,3.093-5.033,4.353
				c-9.155,6.155-20.958,6.758-30.692,1.568c-9.734-5.19-15.812-15.326-15.804-26.357V110.933z M477.875,149.333
				c0.118,12.282-7.336,23.37-18.754,27.898c-11.418,4.528-24.445,1.562-32.777-7.463c-0.48-0.508-0.89-1.075-1.334-1.616
				c-0.977-1.183-1.861-2.44-2.644-3.759c-0.389-0.659-0.758-1.328-1.096-2.017c-0.68-1.413-1.247-2.878-1.695-4.38
				c-0.196-0.64-0.443-1.256-0.596-1.914c-0.536-2.211-0.817-4.475-0.837-6.75v-38.4h59.733V149.333z M61.542,22.867
				c1.173-3.466,4.424-5.799,8.083-5.8h372.767c3.659,0.001,6.91,2.334,8.083,5.8l24.033,71h-437L61.542,22.867z M34.142,149.333
				l0-38.4h59.733v38.4c-0.02,2.274-0.301,4.538-0.837,6.747c-0.154,0.66-0.401,1.279-0.598,1.921
				c-0.448,1.501-1.014,2.963-1.693,4.374c-0.338,0.69-0.708,1.359-1.096,2.018c-0.783,1.318-1.666,2.573-2.642,3.755
				c-0.445,0.542-0.857,1.11-1.338,1.62c-1.511,1.633-3.199,3.093-5.033,4.353c-9.155,6.155-20.958,6.758-30.692,1.568
				S34.134,160.365,34.142,149.333z M128.009,194.447c19.207,5.529,39.801-1.797,51.2-18.215
				c8.756,12.553,23.095,20.034,38.4,20.034s29.644-7.481,38.4-20.034c8.756,12.553,23.095,20.034,38.4,20.034
				s29.644-7.481,38.4-20.034c11.399,16.417,31.993,23.744,51.2,18.215v198.087h-37.76c-0.69-2.416-1.41-4.829-2.298-7.208
				c-13.28-35.568-46.678-59.635-84.621-60.978s-72.959,20.301-88.721,54.841c-1.934,4.322-3.542,8.784-4.809,13.346h-37.791
				V194.447z M224.125,488.025c-28.262-12.894-45.973-41.544-44.875-72.589c1.098-31.045,20.79-58.371,49.892-69.236
				s61.884-3.129,83.058,19.6s26.572,55.976,13.675,84.237c-8.353,18.62-23.817,33.119-42.936,40.257
				C263.819,497.433,242.638,496.615,224.125,488.025z M59.742,418.133c0.005-4.711,3.822-8.529,8.533-8.533h94.316
				c-3.14,33.471,11.929,66.052,39.468,85.333H59.742V418.133z M309.611,494.933c27.787-19.101,43.031-51.768,39.822-85.333h94.309
				c4.711,0.005,8.529,3.822,8.533,8.533v76.8H309.611z"/>
			<path style="fill:#428DFF;" d="M85.342,258.049c3.45-0.014,6.556-2.096,7.879-5.282s0.606-6.856-1.82-9.31l-1.279-1.025
				c-0.476-0.324-0.993-0.583-1.538-0.771c-0.484-0.245-1.002-0.417-1.537-0.508c-0.563-0.096-1.133-0.153-1.704-0.171
				c-2.259,0.032-4.423,0.915-6.059,2.475c-2.07,1.994-2.979,4.908-2.409,7.726c0.57,2.818,2.539,5.149,5.222,6.183
				C83.123,257.803,84.226,258.036,85.342,258.049z"/>
			<path style="fill:#428DFF;" d="M283.894,377.612l1.139-2.495c1.956-4.289,0.064-9.352-4.225-11.308
				c-4.289-1.956-9.352-0.064-11.308,4.225l-1.135,2.487c-13.721-4.846-28.872,1.588-34.913,14.826
				c-6.042,13.238-0.975,28.899,11.676,36.089l-9.636,21.113c-3.629-3.199-5.008-8.25-3.508-12.849
				c1.956-4.289,0.064-9.352-4.225-11.308c-4.289-1.956-9.352-0.064-11.308,4.225c-5.04,13.276-0.189,28.272,11.672,36.08
				l-1.139,2.495c-1.956,4.29-0.064,9.353,4.225,11.309s9.353,0.064,11.309-4.225l1.094-2.397c2.6,0.566,5.253,0.854,7.915,0.859
				c11.334,0.517,21.918-5.66,27.042-15.783c5.039-13.278,0.186-28.274-11.678-36.081l9.636-21.114
				c3.629,3.199,5.008,8.25,3.508,12.849c-1.265,2.775-0.954,6.014,0.816,8.497c1.77,2.483,4.731,3.833,7.767,3.542
				s5.685-2.181,6.951-4.955C300.607,400.416,295.756,385.42,283.894,377.612z M248.975,392.442
				c2.497-4.148,7.22-6.417,12.019-5.772l-8.498,18.62C248.865,402.093,247.481,397.043,248.975,392.442z M263.042,443.867
				c-2.497,4.148-7.22,6.415-12.018,5.769l8.496-18.617C263.152,434.216,264.536,439.265,263.042,443.867z"/>
		</g>
	</g>
</g>
<g>
</g>
<g>
</g>
<g>
</g>
<g>
</g>
<g>
</g>
<g>
</g>
<g>
</g>
<g>
</g>
<g>
</g>
<g>
</g>
<g>
</g>
<g>
</g>
<g>
</g>
<g>
</g>
<g>
</g>
</svg>
