<?xml version="1.0" encoding="iso-8859-1"?>
<!-- Generator: Adobe Illustrator 19.0.0, SVG Export Plug-In . SVG Version: 6.00 Build 0)  -->
<svg version="1.1" id="Capa_1" xmlns="http://www.w3.org/2000/svg" xmlns:xlink="http://www.w3.org/1999/xlink" x="0px" y="0px"
	 viewBox="0 0 512 512" style="enable-background:new 0 0 512 512;" xml:space="preserve">
<g>
	<g transform="translate(1 19)">
		<path style="fill:#A4C2F7;" d="M502.467,236.993c0.011,65.636-26.058,128.586-72.469,174.997S320.636,484.471,255,484.46
			c-4.267,0-8.533-0.085-12.715-0.341h-0.171C110.628,477.269,7.531,368.658,7.533,236.993H502.467z"/>
		<path style="fill:#E3E7F2;" d="M476.867,236.993c0.003,131.664-103.095,240.275-234.581,247.125h-0.171
			C110.629,477.269,7.531,368.658,7.533,236.993H476.867z"/>
		<path style="fill:#A4C2F7;" d="M340.419,275.991c-17.179,37.714-57.079,59.676-98.133,54.016
			c-9.098-1.172-17.962-3.733-26.283-7.595c-37.999-17.318-59.982-57.662-53.933-98.981c6.05-41.319,38.676-73.668,80.045-79.365
			c17.657-2.536,35.67,0.071,51.883,7.509C341.129,173.153,361.896,228.813,340.419,275.991z"/>
		<path style="fill:#E3E7F2;" d="M314.819,275.991c-13.285,29.277-40.677,49.677-72.533,54.016
			c-9.098-1.172-17.962-3.733-26.283-7.595c-37.999-17.318-59.982-57.662-53.933-98.981c6.05-41.319,38.676-73.668,80.045-79.365
			c9.086,1.182,17.944,3.713,26.283,7.509c22.662,10.334,40.288,29.252,48.995,52.588
			C326.099,227.498,325.173,253.338,314.819,275.991z"/>
	</g>
	<path style="fill:#FFFFFF;" d="M243.115,503.119h0.171c4.181,0.256,8.448,0.341,12.715,0.341c4.351,0,8.673-0.113,12.969-0.34
		l-0.083-0.002h-0.171c-131.486-6.85-234.584-115.461-234.581-247.125h-25.6C8.531,387.658,111.629,496.269,243.115,503.119z"/>
	<g>
		<path style="fill:#428DFF;" d="M503.467,247.46H357.942c-4.268-53.126-48.627-94.064-101.924-94.064
			s-97.656,40.938-101.924,94.064H8.533c-2.263-0.001-4.434,0.898-6.035,2.499S-0.001,253.73,0,255.993
			c-0.026,72.373,30.655,141.359,84.417,189.811c0.119,0.121,0.164,0.295,0.292,0.41c18.071,16.274,38.369,29.889,60.282,40.434
			c0.199,0.096,0.404,0.185,0.604,0.281c3.341,1.599,6.713,3.126,10.117,4.581c0.914,0.391,1.841,0.753,2.76,1.133
			c2.712,1.118,5.434,2.208,8.183,3.232c1.38,0.516,2.776,1,4.167,1.492c2.33,0.822,4.666,1.626,7.02,2.38
			c1.688,0.543,3.388,1.055,5.09,1.564c2.104,0.626,4.215,1.227,6.333,1.803c1.891,0.511,3.79,1.001,5.696,1.469
			c1.997,0.49,4,0.953,6.01,1.391c1.991,0.438,3.984,0.865,5.992,1.256c2.015,0.393,4.038,0.742,6.065,1.086
			c1.995,0.339,3.986,0.681,5.997,0.973c2.155,0.314,4.321,0.568,6.486,0.827c1.894,0.226,3.781,0.472,5.687,0.656
			c2.526,0.245,5.065,0.41,7.603,0.58c1.571,0.105,3.132,0.249,4.71,0.325c4.151,0.201,8.314,0.317,12.49,0.317
			c4.176,0,8.339-0.116,12.49-0.317c1.579-0.076,3.139-0.22,4.71-0.325c2.538-0.17,5.077-0.335,7.603-0.58
			c1.906-0.184,3.793-0.43,5.687-0.656c2.166-0.259,4.331-0.514,6.486-0.827c2.01-0.292,4.002-0.634,5.997-0.973
			c2.027-0.344,4.05-0.693,6.065-1.086c2.008-0.391,4.001-0.819,5.992-1.256c2.01-0.442,4.013-0.905,6.01-1.391
			c1.908-0.469,3.807-0.958,5.696-1.469c2.12-0.572,4.231-1.173,6.333-1.803c1.703-0.508,3.402-1.021,5.09-1.564
			c2.354-0.755,4.69-1.558,7.02-2.38c1.392-0.492,2.787-0.976,4.167-1.492c2.749-1.024,5.471-2.114,8.183-3.232
			c0.919-0.38,1.846-0.742,2.76-1.133c3.405-1.451,6.777-2.978,10.117-4.581c0.2-0.096,0.404-0.184,0.604-0.281
			c21.913-10.545,42.211-24.16,60.282-40.434c0.128-0.115,0.172-0.289,0.292-0.41c53.762-48.452,84.442-117.438,84.417-189.811
			c0.001-2.263-0.898-4.434-2.499-6.035C507.901,248.358,505.73,247.459,503.467,247.46z M400.693,272.249
			c-0.085,2.071-0.17,4.142-0.287,6.198c-0.108,1.908-0.245,3.803-0.381,5.698c-0.147,2.06-0.297,4.12-0.477,6.165
			c-0.164,1.866-0.353,3.718-0.542,5.57c-0.21,2.047-0.424,4.091-0.666,6.121c-0.216,1.817-0.454,3.62-0.695,5.422
			c-0.271,2.025-0.548,4.047-0.85,6.053c-0.268,1.782-0.557,3.552-0.85,5.318c-0.329,1.986-0.666,3.967-1.025,5.932
			c-0.321,1.755-0.659,3.499-1.004,5.237c-0.384,1.937-0.781,3.864-1.19,5.782c-0.371,1.72-0.755,3.431-1.152,5.131
			c-0.44,1.9-0.893,3.789-1.359,5.667c-0.418,1.677-0.849,3.343-1.291,4.998c-0.494,1.854-1,3.697-1.52,5.528
			c-0.466,1.636-0.943,3.262-1.43,4.877c-0.547,1.813-1.107,3.612-1.681,5.397c-0.509,1.582-1.027,3.155-1.555,4.717
			c-0.599,1.767-1.212,3.52-1.838,5.259c-0.552,1.536-1.113,3.062-1.684,4.577c-0.649,1.716-1.311,3.416-1.987,5.101
			c-0.593,1.485-1.195,2.959-1.806,4.424c-0.698,1.664-1.409,3.31-2.134,4.939c-0.587,1.327-1.181,2.644-1.782,3.953
			c-33.718-15.069-70.059-23.393-106.975-24.502v-17.829c1.418-0.118,2.813-0.302,4.215-0.477c1.118-0.142,2.23-0.306,3.341-0.485
			c1.784-0.283,3.561-0.576,5.314-0.951l0.188-0.046c4.278-0.933,8.491-2.143,12.612-3.621c0.46-0.163,0.924-0.309,1.382-0.479
			c1.801-0.671,3.568-1.399,5.32-2.167c0.801-0.35,1.593-0.716,2.385-1.085c1.581-0.741,3.156-1.485,4.691-2.304
			c1.335-0.707,2.633-1.485,3.937-2.251c1.463-0.865,2.914-1.74,4.328-2.674c1.832-1.202,3.632-2.451,5.389-3.772
			c0.63-0.477,1.24-0.975,1.858-1.466c1.787-1.41,3.528-2.881,5.224-4.413c0.429-0.389,0.859-0.772,1.281-1.168
			c6.431-6.012,12.053-12.835,16.722-20.298c0.457-0.727,0.883-1.471,1.323-2.21c0.978-1.655,1.916-3.346,2.812-5.07
			c0.543-1.044,1.075-2.091,1.583-3.155c0.225-0.474,0.484-0.921,0.703-1.399c0.307-0.672,0.517-1.363,0.808-2.039
			c0.894-2.067,1.735-4.156,2.494-6.291c0.385-1.084,0.736-2.168,1.082-3.257c0.655-2.063,1.247-4.15,1.775-6.263
			c0.295-1.185,0.568-2.372,0.819-3.559c0.423-2.007,0.778-4.033,1.08-6.081c0.191-1.289,0.367-2.576,0.508-3.866
			c0.095-0.877,0.27-1.729,0.343-2.611h42.885c-0.014,0.627-0.013,1.259-0.029,1.885
			C400.855,268.366,400.773,270.307,400.693,272.249z M399.743,446.559c-1.882,1.421-3.728,2.898-5.646,4.26l-0.13,0.091
			c-2.973,2.111-6.051,4.08-9.123,6.056c-2.368,1.52-4.731,3.048-7.147,4.481c-2.924,1.738-5.909,3.381-8.911,4.996
			c-2.796,1.5-5.613,2.955-8.464,4.341c-2.802,1.366-5.627,2.689-8.488,3.947c-3.262,1.43-6.564,2.757-9.886,4.04
			c-2.612,1.011-5.219,2.032-7.873,2.953c-0.874,0.302-1.772,0.533-2.651,0.826c0.18-0.15,0.35-0.323,0.529-0.473
			c2.788-2.344,5.539-4.781,8.227-7.37c0.292-0.282,0.571-0.59,0.862-0.873c2.411-2.355,4.773-4.819,7.099-7.364
			c0.787-0.861,1.562-1.744,2.338-2.627c1.944-2.209,3.855-4.485,5.733-6.826c0.659-0.821,1.327-1.619,1.978-2.456
			c2.428-3.121,4.799-6.343,7.114-9.667c0.431-0.623,0.841-1.279,1.268-1.909c1.894-2.794,3.744-5.657,5.552-8.59
			c0.68-1.102,1.351-2.214,2.015-3.337c1.596-2.683,3.154-5.421,4.674-8.213c10.027,5.183,19.704,11.018,28.966,17.469
			C405.162,442.471,402.45,444.512,399.743,446.559L399.743,446.559z M177.926,481.724c-2.655-0.921-5.261-1.942-7.873-2.953
			c-3.322-1.282-6.624-2.609-9.886-4.04c-2.861-1.258-5.686-2.581-8.488-3.947c-2.85-1.386-5.668-2.841-8.464-4.341
			c-3.003-1.616-5.988-3.258-8.911-4.996c-2.416-1.433-4.779-2.961-7.147-4.481c-3.072-1.976-6.149-3.945-9.123-6.056l-0.13-0.091
			c-1.919-1.362-3.765-2.839-5.646-4.26c-2.707-2.047-5.419-4.087-8.035-6.245c9.263-6.451,18.939-12.287,28.966-17.47
			c1.522,2.79,3.08,5.527,4.674,8.213c0.666,1.12,1.338,2.232,2.014,3.335c1.814,2.942,3.67,5.814,5.57,8.617
			c0.42,0.619,0.822,1.264,1.246,1.877c2.31,3.336,4.689,6.552,7.118,9.675c0.65,0.836,1.319,1.635,1.978,2.455
			c1.879,2.34,3.79,4.615,5.733,6.826c0.777,0.883,1.551,1.766,2.338,2.627c2.326,2.545,4.688,5.009,7.099,7.364
			c0.291,0.284,0.57,0.592,0.862,0.873c2.689,2.589,5.44,5.026,8.227,7.37c0.179,0.151,0.349,0.324,0.529,0.473
			C179.698,482.257,178.801,482.026,177.926,481.724z M136.576,391.422c-0.613-1.462-1.215-2.937-1.806-4.424
			c-0.674-1.686-1.337-3.387-1.987-5.101c-0.572-1.513-1.134-3.039-1.684-4.577c-0.626-1.74-1.238-3.493-1.838-5.259
			c-0.529-1.562-1.047-3.134-1.555-4.717c-0.573-1.786-1.134-3.585-1.681-5.397c-0.487-1.616-0.964-3.241-1.43-4.877
			c-0.521-1.83-1.028-3.672-1.52-5.528c-0.441-1.657-0.871-3.323-1.291-4.998c-0.468-1.877-0.921-3.766-1.359-5.667
			c-0.394-1.702-0.778-3.412-1.152-5.131c-0.413-1.915-0.81-3.842-1.19-5.782c-0.344-1.739-0.683-3.482-1.004-5.237
			c-0.359-1.966-0.696-3.946-1.025-5.932c-0.292-1.766-0.581-3.536-0.849-5.318c-0.302-2.006-0.579-4.028-0.85-6.053
			c-0.241-1.802-0.479-3.606-0.695-5.422c-0.242-2.03-0.456-4.073-0.666-6.121c-0.19-1.852-0.378-3.704-0.542-5.57
			c-0.18-2.044-0.33-4.104-0.477-6.165c-0.136-1.895-0.272-3.79-0.381-5.698c-0.117-2.056-0.202-4.127-0.287-6.198
			c-0.08-1.942-0.162-3.883-0.213-5.837c-0.017-0.626-0.016-1.258-0.029-1.885h42.885c1.594,19.203,8.603,37.56,20.214,52.939
			c0.836,1.117,1.783,2.156,2.667,3.241c1.095,1.336,2.15,2.705,3.31,3.984c1.345,1.489,2.804,2.883,4.242,4.297
			c0.834,0.818,1.629,1.672,2.491,2.461c1.411,1.294,2.913,2.5,4.405,3.721c1.04,0.852,2.059,1.724,3.132,2.535
			c1.339,1.009,2.739,1.947,4.137,2.896c1.399,0.953,2.799,1.897,4.246,2.782c1.193,0.725,2.42,1.406,3.652,2.087
			c1.808,1.005,3.637,1.963,5.51,2.859c0.528,0.252,1.011,0.558,1.545,0.802c0.519,0.237,1.053,0.39,1.574,0.618
			c2.312,1.013,4.668,1.931,7.065,2.774c0.955,0.335,1.903,0.688,2.862,0.993c2.476,0.79,5.001,1.454,7.554,2.056
			c0.864,0.204,1.722,0.452,2.588,0.632c2.813,0.585,5.677,1.021,8.568,1.369c0.565,0.068,1.128,0.188,1.693,0.246
			c0.683,0.071,1.375,0.107,2.063,0.164v17.829c-36.915,1.109-73.257,9.433-106.975,24.502c-0.603-1.306-1.197-2.624-1.782-3.953
			C137.988,394.728,137.277,393.082,136.576,391.422z M362.496,418.016c-0.833,1.484-1.683,2.936-2.538,4.385
			c-0.749,1.269-1.498,2.538-2.264,3.78c-0.867,1.406-1.754,2.779-2.642,4.149c-0.792,1.221-1.582,2.443-2.39,3.635
			c-0.903,1.332-1.825,2.627-2.748,3.922c-0.826,1.158-1.65,2.321-2.491,3.45c-0.948,1.271-1.917,2.503-2.885,3.735
			c-0.851,1.084-1.697,2.173-2.563,3.225c-0.988,1.202-1.996,2.359-3.004,3.52c-0.881,1.016-1.758,2.042-2.654,3.026
			c-1.023,1.125-2.067,2.203-3.109,3.286c-0.909,0.946-1.814,1.904-2.737,2.817c-1.059,1.048-2.139,2.045-3.216,3.05
			c-0.938,0.874-1.869,1.764-2.819,2.605c-1.084,0.96-2.189,1.864-3.29,2.779c-0.972,0.808-1.937,1.635-2.921,2.408
			c-1.121,0.881-2.263,1.701-3.4,2.535c-0.986,0.724-1.966,1.469-2.964,2.158c-1.159,0.8-2.339,1.534-3.513,2.285
			c-1.005,0.643-2.002,1.311-3.018,1.918c-1.191,0.711-2.401,1.352-3.605,2.013c-1.023,0.562-2.039,1.152-3.072,1.676
			c-1.234,0.627-2.488,1.178-3.736,1.751c-1.025,0.471-2.04,0.975-3.074,1.409c-1.283,0.539-2.586,0.997-3.883,1.48
			c-1.021,0.38-2.033,0.797-3.063,1.141c-1.333,0.446-2.685,0.804-4.031,1.189c-1.012,0.29-2.017,0.621-3.036,0.876
			c-1.422,0.355-2.861,0.615-4.296,0.902c-0.96,0.192-1.912,0.431-2.879,0.591c-1.58,0.262-3.177,0.422-4.771,0.599
			c-0.451,0.051-0.898,0.122-1.351,0.166V392.857c34.248,1.119,67.956,8.848,99.27,22.762
			C363.367,416.417,362.938,417.227,362.496,418.016z M246.116,494.31c-1.594-0.178-3.191-0.338-4.771-0.599
			c-0.966-0.16-1.918-0.399-2.879-0.591c-1.435-0.286-2.874-0.547-4.296-0.902c-1.02-0.255-2.024-0.586-3.036-0.876
			c-1.346-0.385-2.697-0.743-4.031-1.189c-1.029-0.344-2.042-0.761-3.063-1.141c-1.297-0.482-2.6-0.941-3.883-1.48
			c-1.034-0.434-2.049-0.938-3.074-1.409c-1.248-0.573-2.502-1.124-3.736-1.751c-1.033-0.524-2.049-1.115-3.072-1.676
			c-1.204-0.661-2.414-1.302-3.605-2.013c-1.015-0.606-2.012-1.275-3.018-1.918c-1.174-0.751-2.354-1.485-3.513-2.285
			c-0.998-0.689-1.977-1.434-2.964-2.158c-1.137-0.834-2.278-1.654-3.4-2.535c-0.984-0.773-1.95-1.599-2.921-2.408
			c-1.101-0.915-2.205-1.819-3.29-2.779c-0.95-0.841-1.881-1.73-2.819-2.605c-1.077-1.005-2.157-2.002-3.216-3.05
			c-0.923-0.913-1.828-1.871-2.737-2.817c-1.042-1.084-2.085-2.161-3.109-3.286c-0.896-0.984-1.773-2.01-2.654-3.026
			c-1.007-1.161-2.016-2.319-3.004-3.52c-0.866-1.052-1.713-2.142-2.563-3.225c-0.968-1.232-1.936-2.464-2.885-3.735
			c-0.842-1.129-1.665-2.291-2.491-3.45c-0.923-1.295-1.845-2.59-2.748-3.922c-0.808-1.192-1.598-2.414-2.39-3.635
			c-0.889-1.37-1.775-2.744-2.642-4.149c-0.766-1.242-1.515-2.511-2.264-3.78c-0.855-1.449-1.706-2.901-2.538-4.385
			c-0.442-0.789-0.871-1.599-1.308-2.397c31.314-13.914,65.022-21.643,99.27-22.762v101.619
			C247.014,494.432,246.567,494.361,246.116,494.31z M178.392,220.577c16.769-36.78,57.054-56.735,96.474-47.788
			s67.142,44.339,66.389,84.754c-0.02,1.134-0.106,2.252-0.171,3.375c-0.096,1.695-0.192,3.389-0.391,5.085
			c-0.122,1.044-0.314,2.067-0.475,3.099c-0.276,1.776-0.554,3.552-0.945,5.321c-0.197,0.892-0.456,1.76-0.681,2.642
			c-0.479,1.874-0.977,3.747-1.59,5.606c-0.267,0.809-0.586,1.592-0.877,2.39c-0.676,1.86-1.385,3.715-2.201,5.549
			c-0.427,0.957-0.902,1.886-1.362,2.824c-0.725,1.485-1.464,2.957-2.266,4.387c-0.721,1.275-1.496,2.514-2.278,3.746
			c-0.62,0.984-1.237,1.971-1.894,2.926c-1.089,1.57-2.24,3.092-3.429,4.582c-0.444,0.56-0.878,1.128-1.335,1.676
			c-1.398,1.667-2.868,3.272-4.388,4.827c-0.354,0.363-0.7,0.734-1.06,1.09c-1.563,1.545-3.199,3.014-4.878,4.434
			c-0.442,0.374-0.877,0.755-1.327,1.119c-1.548,1.258-3.159,2.437-4.794,3.586c-0.725,0.506-1.445,1.019-2.187,1.504
			c-1.363,0.895-2.768,1.726-4.183,2.544c-1.146,0.657-2.295,1.31-3.477,1.916c-1.087,0.563-2.198,1.081-3.312,1.598
			c-1.552,0.714-3.119,1.404-4.723,2.03c-0.919,0.36-1.851,0.692-2.785,1.021c-1.706,0.6-3.42,1.153-5.146,1.642
			c-1.074,0.303-2.159,0.576-3.249,0.838c-1.526,0.369-3.055,0.7-4.591,0.983c-1.429,0.259-2.872,0.474-4.324,0.662
			c-1.217,0.16-2.434,0.307-3.654,0.413c-1.792,0.153-3.603,0.235-5.424,0.274c-0.971,0.022-1.943,0.052-2.914,0.041
			c-1.909-0.024-3.794-0.14-5.671-0.287c-0.995-0.079-1.992-0.138-2.985-0.254c-1.652-0.189-3.275-0.468-4.896-0.749
			c-1.24-0.218-2.483-0.415-3.716-0.689c-1.283-0.282-2.537-0.64-3.799-0.979c-1.517-0.411-3.034-0.815-4.534-1.311
			c-1.013-0.334-1.998-0.727-2.994-1.098c-1.64-0.611-3.276-1.235-4.889-1.95c-0.975-0.434-1.921-0.919-2.876-1.388
			c-1.544-0.754-3.072-1.527-4.55-2.361c-1.173-0.666-2.315-1.38-3.452-2.099c-1.15-0.723-2.292-1.454-3.397-2.226
			c-1.293-0.906-2.548-1.86-3.789-2.835c-0.896-0.703-1.788-1.41-2.651-2.145c-1.253-1.068-2.464-2.183-3.652-3.32
			c-0.815-0.781-1.623-1.565-2.403-2.375c-1.072-1.109-2.102-2.258-3.113-3.424c-0.852-0.986-1.691-1.98-2.494-3.002
			c-0.802-1.014-1.569-2.057-2.325-3.107c-0.933-1.306-1.844-2.627-2.701-3.98c-0.517-0.811-1.009-1.636-1.499-2.465
			c-0.977-1.665-1.914-3.352-2.776-5.077c-0.294-0.584-0.572-1.177-0.853-1.769c-0.927-1.968-1.794-3.962-2.569-5.994
			c-0.169-0.441-0.327-0.886-0.488-1.331c-0.777-2.142-1.478-4.311-2.083-6.51c-0.123-0.451-0.234-0.906-0.351-1.36
			c-0.554-2.151-1.031-4.323-1.418-6.515c-0.113-0.646-0.201-1.301-0.299-1.952c-0.305-2-0.554-4.011-0.717-6.033
			c-0.074-0.954-0.104-1.919-0.146-2.881C170.205,246.317,172.788,232.866,178.392,220.577z M93.958,264.527
			c0.012,0.577,0.058,1.14,0.073,1.716c0.268,10.682,0.944,21.184,2.026,31.505c0.149,1.425,0.319,2.838,0.483,4.255
			c0.454,3.932,0.965,7.832,1.531,11.698c0.194,1.328,0.376,2.661,0.583,3.981c0.786,4.996,1.645,9.947,2.614,14.824
			c0.104,0.527,0.229,1.038,0.335,1.564c0.884,4.346,1.841,8.638,2.872,12.876c0.339,1.402,0.692,2.789,1.046,4.179
			c0.921,3.618,1.892,7.193,2.914,10.726c0.334,1.156,0.652,2.326,0.996,3.472c1.361,4.53,2.799,8.988,4.316,13.374
			c0.291,0.838,0.608,1.649,0.905,2.481c1.274,3.574,2.601,7.093,3.979,10.558c0.515,1.295,1.038,2.581,1.568,3.858
			c1.359,3.286,2.765,6.518,4.218,9.696c0.34,0.744,0.649,1.524,0.994,2.262c-11.876,6.248-23.278,13.359-34.113,21.276
			c-0.538-0.512-1.12-0.976-1.652-1.493c-0.337-0.328-0.655-0.674-0.99-1.003c-3.508-3.447-6.888-7.02-10.18-10.677
			c-0.756-0.84-1.521-1.67-2.265-2.52c-3.398-3.883-6.673-7.873-9.824-11.968c-0.617-0.804-1.206-1.63-1.814-2.442
			c-2.843-3.804-5.577-7.691-8.201-11.662c-0.429-0.65-0.881-1.284-1.303-1.939c-2.825-4.38-5.482-8.875-8.021-13.444
			c-0.58-1.043-1.145-2.095-1.71-3.147c-2.511-4.682-4.922-9.427-7.123-14.289c-0.112-0.247-0.207-0.501-0.318-0.748
			c-2.107-4.696-4.027-9.492-5.833-14.341c-0.406-1.09-0.82-2.176-1.21-3.273c-1.771-4.977-3.397-10.022-4.841-15.143
			c-0.258-0.915-0.48-1.845-0.727-2.765c-1.266-4.708-2.391-9.47-3.373-14.288c-0.177-0.868-0.382-1.726-0.549-2.597
			c-1.017-5.301-1.831-10.671-2.49-16.089c-0.145-1.191-0.267-2.388-0.394-3.584c-0.593-5.583-1.063-11.201-1.264-16.89H93.958z
			 M493.519,281.416c-0.127,1.196-0.25,2.393-0.394,3.584c-0.659,5.418-1.473,10.789-2.49,16.089
			c-0.167,0.871-0.372,1.729-0.549,2.597c-0.98,4.817-2.105,9.58-3.373,14.288c-0.247,0.92-0.469,1.85-0.727,2.765
			c-1.444,5.121-3.07,10.166-4.841,15.143c-0.391,1.097-0.804,2.184-1.21,3.273c-1.807,4.849-3.726,9.645-5.833,14.341
			c-0.111,0.247-0.207,0.502-0.318,0.748c-2.202,4.862-4.612,9.606-7.123,14.289c-0.565,1.053-1.13,2.104-1.71,3.147
			c-2.54,4.569-5.197,9.065-8.021,13.444c-0.422,0.655-0.874,1.288-1.303,1.939c-2.618,3.973-5.351,7.861-8.201,11.662
			c-0.607,0.812-1.196,1.638-1.814,2.442c-3.145,4.098-6.42,8.087-9.824,11.968c-0.744,0.85-1.509,1.681-2.265,2.52
			c-3.292,3.656-6.672,7.23-10.18,10.677c-0.335,0.329-0.653,0.676-0.99,1.003c-0.532,0.517-1.115,0.981-1.652,1.493
			c-10.835-7.917-22.236-15.028-34.112-21.276c0.345-0.738,0.655-1.518,0.994-2.262c1.452-3.18,2.858-6.412,4.218-9.696
			c0.529-1.28,1.052-2.566,1.568-3.858c1.378-3.465,2.705-6.984,3.979-10.558c0.297-0.832,0.614-1.643,0.905-2.481
			c1.522-4.38,2.96-8.838,4.316-13.374c0.344-1.147,0.662-2.317,0.996-3.472c1.021-3.534,1.993-7.11,2.914-10.726
			c0.354-1.391,0.707-2.779,1.046-4.181c1.02-4.222,1.973-8.494,2.859-12.816c0.111-0.549,0.242-1.084,0.351-1.635
			c0.968-4.872,1.826-9.817,2.611-14.809c0.208-1.32,0.389-2.654,0.583-3.982c0.567-3.868,1.077-7.767,1.531-11.698
			c0.164-1.417,0.334-2.829,0.483-4.255c1.076-10.31,1.751-20.812,2.026-31.505c0.015-0.576,0.061-1.139,0.073-1.716h76.742
			C494.583,270.215,494.113,275.834,493.519,281.416z"/>
		<path style="fill:#428DFF;" d="M102.4,213.327c2.263,0.001,4.434-0.898,6.035-2.499c1.6-1.6,2.499-3.771,2.499-6.035v-98.867
			l19.567,19.567c3.338,3.296,8.711,3.279,12.029-0.038c3.317-3.317,3.334-8.691,0.038-12.029l-34.126-34.126
			c-3.341-3.325-8.741-3.325-12.081,0l-34.126,34.126c-3.281,3.341-3.256,8.701,0.054,12.012c3.311,3.311,8.671,3.335,12.012,0.054
			l19.567-19.566v98.867c-0.001,2.263,0.898,4.434,2.499,6.035C97.966,212.428,100.137,213.327,102.4,213.327z"/>
		<path style="fill:#428DFF;" d="M409.6,213.327c2.263,0.001,4.434-0.898,6.035-2.499c1.6-1.6,2.499-3.771,2.499-6.035v-98.867
			l19.567,19.567c2.151,2.178,5.304,3.037,8.262,2.251c2.958-0.786,5.269-3.097,6.055-6.055c0.786-2.958-0.073-6.111-2.251-8.262
			l-34.126-34.126c-3.341-3.325-8.741-3.325-12.081,0l-34.126,34.126c-3.281,3.341-3.256,8.701,0.054,12.012
			c3.311,3.311,8.671,3.335,12.012,0.054l19.567-19.566v98.867c-0.001,2.263,0.898,4.434,2.499,6.035
			C405.166,212.428,407.337,213.327,409.6,213.327z"/>
		<path style="fill:#428DFF;" d="M256,136.527c2.263,0.001,4.434-0.898,6.035-2.499c1.6-1.6,2.499-3.771,2.499-6.035V29.127
			L284.1,48.694c2.151,2.178,5.304,3.037,8.262,2.251c2.958-0.786,5.269-3.097,6.055-6.055c0.786-2.958-0.073-6.111-2.251-8.262
			L262.041,2.501c-3.341-3.325-8.741-3.325-12.081,0l-34.126,34.126c-3.281,3.341-3.256,8.701,0.054,12.012
			c3.311,3.311,8.671,3.335,12.012,0.054l19.567-19.566v98.867c-0.001,2.263,0.898,4.434,2.499,6.035
			C251.566,135.628,253.737,136.527,256,136.527z"/>
		<path style="fill:#428DFF;" d="M226.382,300.337l-1.524,3.34c-1.265,2.775-0.954,6.014,0.816,8.497
			c1.77,2.483,4.731,3.833,7.767,3.542c3.036-0.292,5.685-2.181,6.951-4.955l1.495-3.277c3.014,0.713,6.099,1.08,9.196,1.094
			c12.129,0.567,23.462-6.036,28.95-16.867c5.447-14.489-0.03-30.812-13.114-39.084l11.387-24.954
			c1.674,1.576,3.074,3.419,4.144,5.454c1.812,3.217,2.084,7.077,0.742,10.517c-1.947,4.287-0.056,9.342,4.228,11.297
			c4.283,1.956,9.342,0.074,11.306-4.206c3.531-8.152,3.147-17.47-1.042-25.304c-2.867-5.489-7.004-10.214-12.066-13.781l1.524-3.34
			c1.956-4.289,0.065-9.352-4.225-11.308c-4.289-1.956-9.352-0.065-11.308,4.225l-1.52,3.331
			c-14.827-4.467-30.753,2.1-38.122,15.719c-5.447,14.489,0.03,30.812,13.114,39.084l-11.387,24.954
			c-1.674-1.576-3.074-3.419-4.144-5.454c-1.812-3.217-2.084-7.077-0.742-10.517c1.947-4.287,0.056-9.342-4.228-11.297
			c-4.283-1.956-9.342-0.074-11.306,4.206c-3.531,8.152-3.147,17.47,1.042,25.304C217.184,292.045,221.32,296.769,226.382,300.337z
			 M264.5,284.627c-3.189,5.208-9.268,7.898-15.267,6.757l10.365-22.714C264.395,272.45,266.347,278.806,264.5,284.627z
			 M247.492,227.36c3.195-5.205,9.274-7.895,15.275-6.757l-10.365,22.715C247.606,239.537,245.651,233.183,247.492,227.36z"/>
	</g>
</g>
<g>
</g>
<g>
</g>
<g>
</g>
<g>
</g>
<g>
</g>
<g>
</g>
<g>
</g>
<g>
</g>
<g>
</g>
<g>
</g>
<g>
</g>
<g>
</g>
<g>
</g>
<g>
</g>
<g>
</g>
</svg>
