<?xml version="1.0" encoding="iso-8859-1"?>
<!-- Generator: Adobe Illustrator 19.0.0, SVG Export Plug-In . SVG Version: 6.00 Build 0)  -->
<svg version="1.1" id="Capa_1" xmlns="http://www.w3.org/2000/svg" xmlns:xlink="http://www.w3.org/1999/xlink" x="0px" y="0px"
	 viewBox="0 0 512 512" style="enable-background:new 0 0 512 512;" xml:space="preserve">
<g>
	<g transform="translate(2 1)">
		<g>
			<path style="fill:#E3E7F2;" d="M228.4,417.133h51.2c4.713,0,8.533,3.82,8.533,8.533v76.8h-68.267v-76.8
				C219.867,420.954,223.687,417.133,228.4,417.133z"/>
			<path style="fill:#E3E7F2;" d="M322.267,417.133v85.333h68.267V109.933c0-4.713-3.82-8.533-8.533-8.533h-51.2
				c-4.713,0-8.533,3.821-8.533,8.533V152.6"/>
		</g>
		<path style="fill:#A4C2F7;" d="M433.2,7.533h51.2c4.713,0,8.533,3.821,8.533,8.533v486.4h-68.267v-486.4
			C424.667,11.354,428.487,7.533,433.2,7.533z"/>
		<g>
			<path style="fill:#E3E7F2;" d="M433.2,7.533h25.6c4.713,0,8.533,3.821,8.533,8.533v486.4h-42.667v-486.4
				C424.667,11.354,428.487,7.533,433.2,7.533z"/>
			<path style="fill:#E3E7F2;" d="M23.6,348.867h51.2c4.713,0,8.533,3.82,8.533,8.533v145.067H15.067V357.4
				C15.067,352.687,18.887,348.867,23.6,348.867z"/>
			<path style="fill:#E3E7F2;" d="M126,220.867h51.2c4.713,0,8.533,3.82,8.533,8.533v273.067h-68.267V229.4
				C117.467,224.687,121.287,220.867,126,220.867z"/>
		</g>
		<g>
			<path style="fill:#A4C2F7;" d="M322.181,207.469v6.229c0.192,4.035-1.261,7.976-4.028,10.92
				c-2.767,2.944-6.61,4.639-10.649,4.696h-23.467c-0.4,0.017-0.801-0.011-1.195-0.085c-2.484-0.193-4.885-0.983-6.997-2.304
				l-7.339-4.949c-2.709-1.793-6.151-2.059-9.103-0.704c-2.952,1.355-4.995,4.138-5.403,7.36c-0.074,0.365-0.103,0.737-0.085,1.109
				v4.608c0.001,2.275,0.853,4.467,2.389,6.144l57.344,65.621H202.715c0,0-34.133-9.643-34.133-85.333
				c0-53.931,26.453-86.357,58.539-97.707c5.595-2.036,11.409-3.41,17.323-4.096c2.42-0.266,4.839,0.514,6.648,2.144
				c1.809,1.63,2.836,3.954,2.824,6.389v10.069c0.003,1.711,0.69,3.351,1.908,4.553s2.866,1.867,4.578,1.847h13.995
				c2.93,0.047,5.473,2.033,6.229,4.864c2.731,11.093,11.264,37.888,31.488,44.715C318.096,195.568,322.143,201.157,322.181,207.469
				z"/>
			<rect x="202.757" y="306.157" style="fill:#A4C2F7;" width="110.933" height="34.133"/>
		</g>
		<rect x="202.8" y="306.157" style="fill:#E3E7F2;" width="85.333" height="34.133"/>
		<path style="fill:#A4C2F7;" d="M330.715,360.899v13.483c0.022,2.27-0.869,4.453-2.475,6.059c-1.605,1.605-3.789,2.497-6.059,2.475
			h-128c-2.266,0.008-4.441-0.889-6.043-2.491c-1.602-1.602-2.499-3.777-2.491-6.043v-13.483c0.009-2.281,0.931-4.463,2.56-6.059
			l14.507-14.592h110.933l14.592,14.592C329.846,356.445,330.738,358.629,330.715,360.899z"/>
		<g>
			<path style="fill:#E3E7F2;" d="M296.667,207.469v6.229c0.355,8.065-5.772,14.949-13.824,15.531
				c-0.279,0.071-0.566,0.099-0.853,0.085h-23.552c-1.504-0.012-2.999-0.242-4.437-0.683c-1.298-0.393-2.533-0.967-3.669-1.707
				l-7.424-4.949c-2.862-1.916-6.548-2.098-9.584-0.472c-3.037,1.625-4.929,4.793-4.922,8.237v4.608
				c0.009,2.258,0.826,4.437,2.304,6.144l57.429,65.621h-85.419c0,0-34.133-9.643-34.133-85.333
				c0-53.931,26.453-86.357,58.539-97.707c0.857,1.32,1.302,2.864,1.28,4.437v10.069c-0.002,1.698,0.671,3.327,1.872,4.528
				c1.201,1.201,2.83,1.874,4.528,1.872h13.995c2.948-0.005,5.52,2.002,6.229,4.864c2.731,11.093,11.264,37.888,31.488,44.715
				C292.537,195.529,296.626,201.131,296.667,207.469z"/>
			<path style="fill:#E3E7F2;" d="M305.2,360.899v13.483c0.008,2.266-0.889,4.441-2.491,6.043c-1.602,1.602-3.777,2.499-6.043,2.491
				H194.181c-2.266,0.008-4.441-0.889-6.043-2.491c-1.602-1.602-2.499-3.777-2.491-6.043v-13.483
				c0.009-2.281,0.931-4.463,2.56-6.059l14.507-14.592h85.419l14.592,14.592C304.297,356.467,305.183,358.636,305.2,360.899z"/>
		</g>
		<g>
			<path style="fill:#FFFFFF;" d="M49.2,348.867H23.6c-4.713,0-8.533,3.82-8.533,8.533v145.067h25.6V357.4
				C40.667,352.687,44.487,348.867,49.2,348.867z"/>
			<path style="fill:#FFFFFF;" d="M245.467,425.667c0-4.713,3.821-8.533,8.533-8.533h-25.6c-4.713,0-8.533,3.82-8.533,8.533v76.8
				h25.6V425.667z"/>
			<path style="fill:#FFFFFF;" d="M143.067,229.4c0-4.713,3.82-8.533,8.533-8.533H126c-4.713,0-8.533,3.82-8.533,8.533v273.067h25.6
				V229.4z"/>
			<path style="fill:#FFFFFF;" d="M211.333,374.806v8.108h8.448C215.247,382.913,211.521,379.336,211.333,374.806z"/>
			<path style="fill:#FFFFFF;" d="M424.667,16.067v486.4h25.6v-486.4c0-4.713,3.82-8.533,8.533-8.533h-25.6
				C428.487,7.533,424.667,11.354,424.667,16.067z"/>
			<path style="fill:#FFFFFF;" d="M282.843,229.229c0.394,0.074,0.794,0.103,1.195,0.085c-1.504-0.012-2.999-0.242-4.437-0.683
				c-0.04,0.225-0.058,0.454-0.053,0.683h2.442C282.276,229.329,282.564,229.3,282.843,229.229z"/>
		</g>
	</g>
	<g>
		<polygon style="fill:#FFFFFF;" points="435.2,17.067 435.2,128 435.2,503.467 418.133,503.467 418.133,128 418.133,17.067 		"/>
		<g>
			<path style="fill:#428DFF;" d="M265.75,230.071l7.375,4.921c3.811,2.545,8.292,3.901,12.875,3.896h23.542
				c6.309-0.066,12.326-2.67,16.694-7.224c4.368-4.554,6.719-10.674,6.522-16.981v-6.221c-0.052-9.972-6.449-18.804-15.908-21.962
				c-16.692-5.675-24.092-31.017-25.958-38.633c-1.622-6.696-7.627-11.403-14.517-11.379h-11.883v-7.963
				c0-4.886-2.087-9.539-5.735-12.789c-3.648-3.25-8.511-4.786-13.365-4.224c-41.467,4.95-83.3,40.975-83.3,110.308
				c0,62.406,22.8,83.805,34.133,90.608v25.325l-12.067,12.067c-3.212,3.194-5.013,7.541-5,12.071v13.529
				c0.011,9.421,7.645,17.056,17.067,17.067h128c9.421-0.011,17.056-7.645,17.067-17.067v-13.529c0.013-4.53-1.788-8.877-5-12.071
				l-12.067-12.067v-30.6c0-0.153-0.079-0.28-0.087-0.431c-0.04-0.86-0.211-1.708-0.507-2.516c-0.057-0.154-0.073-0.319-0.139-0.468
				c-0.343-0.801-0.807-1.545-1.375-2.206l-57.425-65.625l-0.2-0.529v-4.634L265.75,230.071z M307.158,332.754h-93.867v-17.067
				h93.867V332.754z M324.225,375.421h-128v-13.533l12.067-12.067h103.867l12.067,12.071V375.421z M251.85,247.158l45.033,51.462
				h-90.475c-4.725-2.313-27.25-16.533-27.25-76.8c0-62.9,36.767-89.604,68.267-93.296v10.071c0.008,8.258,6.7,14.95,14.958,14.958
				h12.342c3.483,13.317,13.408,41.204,36.625,49.104c2.541,0.806,4.286,3.139,4.342,5.804v6.221
				c0.185,1.774-0.371,3.545-1.535,4.896c-1.164,1.351-2.834,2.162-4.615,2.242H286c-1.213,0.001-2.399-0.357-3.408-1.029
				l-7.375-4.921c-5.486-3.657-12.539-3.998-18.351-0.887c-5.813,3.111-9.441,9.169-9.44,15.762v4.634
				C247.424,239.712,248.996,243.898,251.85,247.158z"/>
			<path style="fill:#428DFF;" d="M503.467,494.933V17.067C503.456,7.645,495.821,0.011,486.4,0h-51.2
				c-9.421,0.011-17.056,7.645-17.067,17.067V51.2c0,4.713,3.82,8.533,8.533,8.533s8.533-3.821,8.533-8.533V17.067h51.2v477.867
				h-51.2V119.467c0-4.713-3.82-8.533-8.533-8.533s-8.533,3.821-8.533,8.533v375.467h-17.067v-384
				c-0.011-9.421-7.645-17.056-17.067-17.067h-51.2c-9.421,0.011-17.056,7.645-17.067,17.067V153.6c0,4.713,3.821,8.533,8.533,8.533
				s8.533-3.821,8.533-8.533v-42.667H384v384h-51.2v-76.8c0-4.713-3.82-8.533-8.533-8.533s-8.533,3.82-8.533,8.533v76.8h-17.067
				v-68.267c-0.011-9.421-7.645-17.056-17.067-17.067h-51.2c-9.421,0.011-17.056,7.645-17.067,17.067v68.267h-17.067v-76.8
				c0-4.713-3.821-8.533-8.533-8.533c-4.713,0-8.533,3.82-8.533,8.533v76.8H128V230.4h8.533c4.713,0,8.533-3.821,8.533-8.533
				c0-4.713-3.821-8.533-8.533-8.533H128c-9.421,0.011-17.056,7.645-17.067,17.067v264.533H93.867V358.4
				c-0.011-9.421-7.645-17.056-17.067-17.067H25.6c-9.421,0.011-17.056,7.645-17.067,17.067v136.533
				c-4.713,0-8.533,3.821-8.533,8.533C0,508.18,3.821,512,8.533,512h494.933c4.713,0,8.533-3.82,8.533-8.533
				C512,498.754,508.18,494.933,503.467,494.933z M25.6,494.933V358.4h51.2v136.533H25.6z M230.4,494.933v-68.267h51.2v68.267H230.4
				z"/>
			<path style="fill:#428DFF;" d="M426.667,93.867c3.45-0.014,6.556-2.096,7.879-5.282c1.323-3.187,0.606-6.856-1.82-9.31
				l-1.279-1.025c-0.476-0.324-0.993-0.583-1.538-0.771c-0.484-0.246-1.003-0.417-1.538-0.508c-0.563-0.096-1.133-0.153-1.704-0.171
				c-2.259,0.031-4.423,0.915-6.059,2.475c-2.07,1.994-2.979,4.908-2.409,7.726c0.57,2.818,2.539,5.149,5.222,6.183
				C424.447,93.621,425.55,93.853,426.667,93.867z"/>
		</g>
	</g>
</g>
<g>
</g>
<g>
</g>
<g>
</g>
<g>
</g>
<g>
</g>
<g>
</g>
<g>
</g>
<g>
</g>
<g>
</g>
<g>
</g>
<g>
</g>
<g>
</g>
<g>
</g>
<g>
</g>
<g>
</g>
</svg>
