<?xml version="1.0" encoding="iso-8859-1"?>
<!-- Generator: Adobe Illustrator 19.0.0, SVG Export Plug-In . SVG Version: 6.00 Build 0)  -->
<svg version="1.1" id="Capa_1" xmlns="http://www.w3.org/2000/svg" xmlns:xlink="http://www.w3.org/1999/xlink" x="0px" y="0px"
	 viewBox="0 0 512.001 512.001" style="enable-background:new 0 0 512.001 512.001;" xml:space="preserve">
<g>
	<g transform="translate(1 1)">
		<g>
			<path style="fill:#E3E7F2;" d="M425.667,118.467l-42.667-25.6l-51.968,30.208c20.648,28.5,23.626,66.153,7.715,97.544
				s-48.039,51.25-83.232,51.446s-67.541-19.303-83.8-50.515l-2.048,1.963l-42.667,40.021l-42.667-25.6l-76.8,119.467v145.067
				h494.933V7.534L425.667,118.467z"/>
			<polygon style="fill:#E3E7F2;" points="84.334,237.934 84.334,502.467 7.534,502.467 7.534,357.401 			"/>
			<path style="fill:#E3E7F2;" d="M255.001,272.067v230.4h-85.333V223.513l2.048-1.963
				C187.858,252.628,219.981,272.112,255.001,272.067z"/>
			<path style="fill:#E3E7F2;" d="M340.334,217.369v285.099h-85.333v-230.4C291.698,272.104,325.044,250.729,340.334,217.369z"/>
			<path style="fill:#E3E7F2;" d="M425.667,118.467v384h-85.333V217.369c14.098-30.814,10.546-66.828-9.301-94.293l51.968-30.208
				L425.667,118.467z"/>
		</g>
		<path style="fill:#A4C2F7;" d="M348.867,178.201c0.021,24.902-9.861,48.789-27.469,66.397
			c-17.608,17.608-41.496,27.491-66.397,27.469c-4.308-0.024-8.611-0.309-12.885-0.853c-46.465-6.426-81.047-46.176-80.982-93.082
			c0.065-46.907,34.756-86.561,81.238-92.859c4.177-0.655,8.401-0.969,12.629-0.939c24.904-0.031,48.798,9.849,66.408,27.459
			S348.898,153.296,348.867,178.201z"/>
		<g>
			<path style="fill:#E3E7F2;" d="M323.267,178.201c0.04,46.945-34.635,86.689-81.152,93.013
				c-46.465-6.426-81.047-46.176-80.982-93.082c0.065-46.907,34.756-86.561,81.238-92.859
				C288.784,91.654,323.341,131.351,323.267,178.201z"/>
			<polygon style="fill:#E3E7F2;" points="169.667,223.513 169.667,502.467 84.334,502.467 84.334,237.934 127.001,263.534 			"/>
		</g>
		<polygon style="fill:#A4C2F7;" points="502.467,7.534 502.467,502.467 476.867,502.467 476.867,44.483 		"/>
	</g>
	<polygon style="fill:#FFFFFF;" points="34.134,358.401 103.809,250.019 85.334,238.934 8.534,358.401 8.534,503.467 
		34.134,503.467 	"/>
	<g>
		<polygon style="fill:#FFFFFF;" points="0.001,503.467 0.001,392.534 0.001,8.534 17.067,8.534 17.067,392.534 17.067,503.467 		
			"/>
		<g>
			<path style="fill:#428DFF;" d="M506.009,0.388c-3.562-1.111-7.433,0.22-9.558,3.287l-72.25,104.363l-35.808-21.487
				c-2.666-1.598-5.99-1.622-8.679-0.063l-45.686,26.557c-32.848-38.887-89.291-47.702-132.432-20.683
				s-59.849,81.649-39.202,128.177l-35.53,33.361l-37.137-22.283c-0.177-0.106-0.377-0.109-0.558-0.201
				c-1.029-0.454-2.119-0.755-3.235-0.895c-0.209-0.015-0.386-0.121-0.598-0.121c-0.304,0.043-0.606,0.104-0.903,0.182
				c-0.585,0.054-1.163,0.171-1.724,0.348c-1.554,0.503-2.923,1.459-3.93,2.745c-0.219,0.203-0.427,0.419-0.622,0.645
				l-61.088,95.025v-98.946h17.067c4.713,0,8.533-3.821,8.533-8.533c0-4.713-3.821-8.533-8.533-8.533H17.067v-17.067h17.067
				c4.713,0,8.533-3.821,8.533-8.533c0-4.713-3.821-8.533-8.533-8.533H17.067v-17.067h17.067c4.713,0,8.533-3.821,8.533-8.533
				s-3.821-8.533-8.533-8.533H17.067v-17.067h17.067c4.713,0,8.533-3.821,8.533-8.533c0-4.713-3.821-8.533-8.533-8.533H17.067
				V93.867h17.067c4.713,0,8.533-3.821,8.533-8.533c0-4.713-3.821-8.533-8.533-8.533H17.067V29.134L36.634,48.7
				c3.341,3.281,8.701,3.256,12.012-0.054s3.335-8.671,0.054-12.012L14.567,2.501c-2.44-2.44-6.11-3.169-9.298-1.849
				S0.001,5.083,0.001,8.534v392.533c0,4.713,3.821,8.533,8.533,8.533s8.533-3.82,8.533-8.533v-40.16l59.733-92.918v226.945H17.067
				v-25.6c0-4.713-3.821-8.533-8.533-8.533s-8.533,3.82-8.533,8.533v34.133c0,4.713,3.821,8.533,8.533,8.533h494.933
				c2.263,0.001,4.434-0.898,6.035-2.499c1.6-1.6,2.499-3.771,2.499-6.035V8.534C512.001,4.8,509.574,1.499,506.009,0.388z
				 M383.934,103.776l34.2,20.523v370.635h-68.267V220.002c13.193-30.125,10.988-64.773-5.919-92.981L383.934,103.776z
				 M247.467,281.168v213.766h-68.267V246.705C196.633,266.601,221.107,278.957,247.467,281.168z M264.534,281.168
				c26.361-2.212,50.834-14.567,68.267-34.464v248.229h-68.267V281.168z M256.001,93.867c47.128,0,85.333,38.205,85.333,85.333
				s-38.205,85.333-85.333,85.333s-85.333-38.205-85.333-85.333C170.72,132.094,208.894,93.92,256.001,93.867z M93.867,254.006
				l29.742,17.844c3.272,1.966,7.452,1.518,10.233-1.096l28.292-26.562v250.742H93.867V254.006z M494.934,494.934h-59.733V122.135
				l59.733-86.284V494.934z"/>
			<path style="fill:#428DFF;" d="M230.401,204.801c0-4.713-3.821-8.533-8.533-8.533s-8.533,3.821-8.533,8.533
				c0,16.483,14.683,30.271,34.133,33.443v0.691c0,4.713,3.82,8.533,8.533,8.533c4.713,0,8.533-3.821,8.533-8.533v-0.691
				c19.45-3.172,34.133-16.96,34.133-33.443s-14.683-30.271-34.133-33.443v-33.739c9.811,2.41,17.067,8.723,17.067,15.981
				c0,4.713,3.821,8.533,8.533,8.533s8.533-3.821,8.533-8.533c0-16.483-14.683-30.271-34.133-33.443v-0.691
				c0-4.713-3.821-8.533-8.533-8.533c-4.713,0-8.533,3.821-8.533,8.533v0.691c-19.45,3.172-34.133,16.96-34.133,33.443
				s14.683,30.271,34.133,33.443v33.738C237.656,218.371,230.401,212.058,230.401,204.801z M281.601,204.801
				c0,7.258-7.256,13.571-17.067,15.981v-31.962C274.345,191.229,281.601,197.543,281.601,204.801z M230.401,153.601
				c0-7.258,7.256-13.571,17.067-15.981v31.962C237.656,167.171,230.401,160.858,230.401,153.601z"/>
			<path style="fill:#428DFF;" d="M5.292,443.055c0.484,0.246,1.002,0.417,1.537,0.509c0.563,0.096,1.133,0.153,1.704,0.171
				c2.259-0.031,4.423-0.915,6.059-2.475c3.221-3.397,3.221-8.72,0-12.117c-0.815-0.771-1.77-1.379-2.813-1.792
				c-1.027-0.438-2.13-0.67-3.246-0.683c-2.259,0.034-4.422,0.918-6.059,2.475c-3.3,3.365-3.3,8.752,0,12.117l1.279,1.025
				C4.231,442.608,4.748,442.867,5.292,443.055z"/>
		</g>
	</g>
</g>
<g>
</g>
<g>
</g>
<g>
</g>
<g>
</g>
<g>
</g>
<g>
</g>
<g>
</g>
<g>
</g>
<g>
</g>
<g>
</g>
<g>
</g>
<g>
</g>
<g>
</g>
<g>
</g>
<g>
</g>
</svg>
