<?xml version="1.0" encoding="iso-8859-1"?>
<!-- Generator: Adobe Illustrator 19.0.0, SVG Export Plug-In . SVG Version: 6.00 Build 0)  -->
<svg version="1.1" id="Capa_1" xmlns="http://www.w3.org/2000/svg" xmlns:xlink="http://www.w3.org/1999/xlink" x="0px" y="0px"
	 viewBox="0 0 512.055 512.055" style="enable-background:new 0 0 512.055 512.055;" xml:space="preserve">
<g>
	<g transform="translate(17 14)">
		<polygon style="fill:#A4C2F7;" points="486.467,105.493 486.467,489.493 332.867,489.493 332.867,259.093 		"/>
		<polygon style="fill:#E3E7F2;" points="469.401,122.56 469.401,489.493 332.867,489.493 332.867,259.093 		"/>
		<polygon style="fill:#A4C2F7;" points="332.867,259.093 332.867,489.493 136.601,489.493 136.601,310.293 136.345,310.123 
			226.457,198.507 239.257,182.635 303.769,262.592 307.267,266.944 315.203,276.757 		"/>
		<g>
			<polygon style="fill:#E3E7F2;" points="307.267,259.093 307.267,489.493 136.601,489.493 136.601,310.293 136.345,310.123 
				226.457,198.507 289.603,276.757 			"/>
			<path style="fill:#E3E7F2;" d="M179.267,412.693h34.133c4.713,0,8.533,3.82,8.533,8.533v68.267h-51.2v-68.267
				C170.734,416.514,174.555,412.693,179.267,412.693z"/>
			<path style="fill:#E3E7F2;" d="M256.067,370.027h34.133c4.713,0,8.533,3.821,8.533,8.533v25.6c0,4.713-3.821,8.533-8.533,8.533
				h-34.133c-4.713,0-8.533-3.821-8.533-8.533v-25.6C247.534,373.847,251.355,370.027,256.067,370.027z"/>
			<path style="fill:#E3E7F2;" d="M375.534,412.693h34.133c4.713,0,8.533,3.82,8.533,8.533v68.267h-51.2v-68.267
				C367.001,416.514,370.821,412.693,375.534,412.693z"/>
			<path style="fill:#E3E7F2;" d="M460.867,370.027h25.6v42.667h-25.6c-4.713,0-8.533-3.821-8.533-8.533v-25.6
				C452.334,373.847,456.155,370.027,460.867,370.027z"/>
			<path style="fill:#E3E7F2;" d="M153.667,288.618v-80.725c0-4.713,3.82-8.533,8.533-8.533h25.6c4.713,0,8.533,3.821,8.533,8.533
				v27.904"/>
			<path style="fill:#E3E7F2;" d="M358.467,233.493v-63.659c0.014-4.707,3.826-8.52,8.533-8.533h25.6
				c4.707,0.014,8.52,3.826,8.533,8.533v20.992L358.467,233.493z"/>
		</g>
	</g>
	<polygon style="fill:#FFFFFF;" points="256.001,227.952 256.001,196.293 153.345,324.123 153.601,324.293 153.601,503.493 
		179.201,503.493 179.201,324.293 178.945,324.123 	"/>
	<g>
		<polygon style="fill:#FFFFFF;" points="0.001,503.493 0.001,392.56 0.001,8.56 17.067,8.56 17.067,392.56 17.067,503.493 		"/>
		<g>
			<path style="fill:#428DFF;" d="M8.534,409.627c4.707-0.014,8.519-3.826,8.533-8.533V366.96h17.067
				c4.713,0,8.533-3.821,8.533-8.533c0-4.713-3.821-8.533-8.533-8.533H17.067v-17.067h17.067c4.713,0,8.533-3.821,8.533-8.533
				s-3.821-8.533-8.533-8.533H17.067v-17.067h17.067c4.713,0,8.533-3.82,8.533-8.533s-3.821-8.533-8.533-8.533H17.067V264.56h17.067
				c4.713,0,8.533-3.82,8.533-8.533s-3.821-8.533-8.533-8.533H17.067v-17.067h17.067c4.713,0,8.533-3.82,8.533-8.533
				s-3.821-8.533-8.533-8.533H17.067v-17.067h17.067c4.713,0,8.533-3.821,8.533-8.533c0-4.713-3.821-8.533-8.533-8.533H17.067
				V162.16h17.067c4.713,0,8.533-3.821,8.533-8.533c0-4.713-3.821-8.533-8.533-8.533H17.067v-17.067h17.067
				c4.713,0,8.533-3.821,8.533-8.533c0-4.713-3.821-8.533-8.533-8.533H17.067V93.893h17.067c4.713,0,8.533-3.821,8.533-8.533
				c0-4.713-3.821-8.533-8.533-8.533H17.067V29.16l19.567,19.566c3.341,3.281,8.701,3.256,12.012-0.054s3.335-8.671,0.054-12.012
				L14.567,2.527c-2.44-2.44-6.11-3.169-9.298-1.849S0.001,5.109,0.001,8.56v392.533C0.015,405.8,3.827,409.612,8.534,409.627z"/>
			<path style="fill:#428DFF;" d="M3.755,442.31c0.476,0.324,0.993,0.583,1.538,0.771c0.484,0.246,1.002,0.417,1.537,0.509
				c0.563,0.096,1.133,0.153,1.704,0.171c2.259-0.031,4.423-0.915,6.059-2.475c3.221-3.397,3.221-8.72,0-12.117
				c-0.815-0.771-1.77-1.379-2.813-1.792c-1.027-0.438-2.13-0.67-3.246-0.683c-2.259,0.034-4.422,0.918-6.059,2.475
				c-3.3,3.365-3.3,8.752,0,12.117L3.755,442.31z"/>
			<path style="fill:#428DFF;" d="M315.734,375.493h-51.2c-4.713,0-8.533,3.82-8.533,8.533v42.667c0,4.713,3.82,8.533,8.533,8.533
				h51.2c4.713,0,8.533-3.82,8.533-8.533v-42.667C324.267,379.314,320.447,375.493,315.734,375.493z M307.201,418.16h-34.133v-25.6
				h34.133V418.16z"/>
			<path style="fill:#428DFF;" d="M503.467,375.493h-34.133c-4.713,0-8.533,3.82-8.533,8.533v42.667
				c0,4.713,3.821,8.533,8.533,8.533h34.133c4.713,0,8.533-3.82,8.533-8.533v-42.667
				C512.001,379.314,508.18,375.493,503.467,375.493z M494.934,418.16h-17.067v-25.6h17.067V418.16z"/>
			<path style="fill:#428DFF;" d="M497.434,113.46l-70.767,70.766v-0.392c-0.009-9.422-7.645-17.057-17.067-17.067h-25.6
				c-9.422,0.009-17.057,7.645-17.067,17.067v60.125l-23.097,23.097l-0.005,0.005l-10.945,10.946l-68.649-85.097
				c-1.335-3.228-4.484-5.333-7.978-5.334c-3.493-0.001-6.643,2.103-7.98,5.33l-26.412,32.72v-3.734
				c-0.009-9.422-7.645-17.057-17.067-17.067h-25.6c-9.422,0.009-17.057,7.645-17.067,17.067v77.732L17.067,479.336v-9.976
				c0-4.713-3.821-8.533-8.533-8.533s-8.533,3.82-8.533,8.533v34.133c0,0.156,0.081,0.286,0.089,0.44
				c0.055,0.588,0.172,1.168,0.35,1.731c0.106,0.507,0.259,1.003,0.456,1.482c0.247,0.45,0.534,0.876,0.858,1.273
				c0.329,0.496,0.709,0.955,1.135,1.369c0.115,0.103,0.165,0.247,0.286,0.345c0.405,0.275,0.834,0.514,1.282,0.712
				c0.322,0.21,0.659,0.397,1.008,0.56c0.974,0.394,2.013,0.604,3.063,0.62l0.002-0.001l0.002,0.001h494.933
				c4.713,0,8.533-3.821,8.533-8.533s-3.821-8.533-8.533-8.533h-59.733v-59.733c-0.009-9.422-7.645-17.057-17.067-17.067h-34.133
				c-9.422,0.009-17.057,7.645-17.067,17.067v59.733h-17.067V276.626l23.097-23.097l0.005-0.005l42.661-42.661l0.005-0.005
				l85.33-85.331c2.188-2.149,3.055-5.307,2.27-8.271c-0.785-2.965-3.1-5.28-6.065-6.065
				C502.741,110.405,499.583,111.272,497.434,113.46z M384.001,183.835h25.6v17.458l-25.6,25.6V183.835z M179.201,221.893h25.6
				v24.876l-25.6,31.714V221.893z M145.067,347.94v147.02H26.389L145.067,347.94z M196.267,494.96v-59.733h34.133v59.733H196.267z
				 M392.534,435.227h34.133v59.733h-34.133V435.227z M341.334,494.96h-93.867v-59.733c-0.009-9.422-7.645-17.057-17.067-17.067
				h-34.133c-9.422,0.009-17.057,7.645-17.067,17.067v59.733h-17.067V326.797l94.121-116.598l69.308,85.915
				c0.093,0.116,0.236,0.153,0.334,0.263c0.113,0.127,0.152,0.29,0.274,0.413c0.499,0.426,1.048,0.79,1.634,1.085
				c1.24,1.001,2.808,1.505,4.4,1.415l0.002-0.001l0.002,0.001c1.378,0.059,2.739-0.318,3.89-1.079
				c0.514-0.221,1.005-0.493,1.465-0.813c0.125-0.101,0.178-0.249,0.296-0.356c0.117-0.104,0.267-0.14,0.379-0.252l3.096-3.096
				V494.96z"/>
			<path style="fill:#428DFF;" d="M264.534,324.293c0-4.713-3.821-8.533-8.533-8.533h-17.067c0-4.713-3.821-8.533-8.533-8.533
				h-8.533c-4.713,0-8.533,3.82-8.533,8.533s3.821,8.533,8.533,8.533c0,4.713,3.821,8.533,8.533,8.533h25.6
				C260.714,332.827,264.534,329.006,264.534,324.293z"/>
			<path style="fill:#428DFF;" d="M221.867,358.427h-25.6c-4.713,0-8.533,3.821-8.533,8.533c-4.713,0-8.533,3.82-8.533,8.533
				s3.821,8.533,8.533,8.533h8.533c4.713,0,8.533-3.82,8.533-8.533h17.067c4.713,0,8.533-3.82,8.533-8.533
				S226.58,358.427,221.867,358.427z"/>
			<path style="fill:#428DFF;" d="M486.401,264.56c4.713,0,8.533-3.82,8.533-8.533s-3.82-8.533-8.533-8.533h-17.067
				c0-4.713-3.821-8.533-8.533-8.533h-8.533c-4.713,0-8.533,3.821-8.533,8.533c0,4.713,3.82,8.533,8.533,8.533
				c0,4.713,3.82,8.533,8.533,8.533H486.401z"/>
			<path style="fill:#428DFF;" d="M418.134,307.227c0-4.713-3.82-8.533-8.533-8.533h-25.6c-4.713,0-8.533,3.821-8.533,8.533
				c-4.713,0-8.533,3.82-8.533,8.533s3.821,8.533,8.533,8.533h8.533c4.713,0,8.533-3.82,8.533-8.533h17.067
				C414.314,315.76,418.134,311.939,418.134,307.227z"/>
			<path style="fill:#428DFF;" d="M401.067,392.56h8.533c0,4.713,3.82,8.533,8.533,8.533h17.067c4.713,0,8.533-3.821,8.533-8.533
				c0-4.713-3.821-8.533-8.533-8.533c0-4.713-3.821-8.533-8.533-8.533h-25.6c-4.713,0-8.533,3.82-8.533,8.533
				S396.355,392.56,401.067,392.56z"/>
		</g>
	</g>
</g>
<g>
</g>
<g>
</g>
<g>
</g>
<g>
</g>
<g>
</g>
<g>
</g>
<g>
</g>
<g>
</g>
<g>
</g>
<g>
</g>
<g>
</g>
<g>
</g>
<g>
</g>
<g>
</g>
<g>
</g>
</svg>
