<?xml version="1.0" encoding="iso-8859-1"?>
<!-- Generator: Adobe Illustrator 19.0.0, SVG Export Plug-In . SVG Version: 6.00 Build 0)  -->
<svg version="1.1" id="Capa_1" xmlns="http://www.w3.org/2000/svg" xmlns:xlink="http://www.w3.org/1999/xlink" x="0px" y="0px"
	 viewBox="0 0 512 512" style="enable-background:new 0 0 512 512;" xml:space="preserve">
<g>
	<g transform="translate(1 1)">
		<path style="fill:#A4C2F7;" d="M383.171,306.712C382.232,337.176,370.2,434.2,255.085,434.2c0,0,0.085-0.512,0.171-1.451
			c2.048-13.227,19.797-113.067,100.267-132.011c6.002-1.412,12.109-2.325,18.261-2.731c2.431-0.22,4.842,0.602,6.632,2.262
			S383.207,304.271,383.171,306.712z"/>
		<g>
			<path style="fill:#E3E7F2;" d="M357.4,306.712C356.632,337.176,347.075,434.2,255.085,434.2c0,0,0.085-0.512,0.171-1.451
				c2.048-13.227,19.797-113.067,100.267-132.011C356.798,302.464,357.459,304.567,357.4,306.712z"/>
			<path style="fill:#E3E7F2;" d="M255.105,468.333c0,0-11.817-94.532-87.097-99.962c-1.784-0.161-3.552,0.444-4.863,1.665
				c-1.311,1.22-2.042,2.94-2.009,4.731C161.822,397.133,170.638,468.333,255.105,468.333z"/>
		</g>
		<path style="fill:#A4C2F7;" d="M485.4,7.533H24.6C15.186,7.561,7.561,15.186,7.533,24.6v221.867
			c0.028,9.414,7.653,17.039,17.067,17.067h460.8c9.414-0.028,17.039-7.653,17.067-17.067V24.6
			C502.439,15.186,494.814,7.561,485.4,7.533z"/>
		<path style="fill:#E3E7F2;" d="M459.8,7.533H24.6C15.186,7.561,7.561,15.186,7.533,24.6v221.867
			c0.028,9.414,7.653,17.039,17.067,17.067h435.2c9.414-0.028,17.039-7.653,17.067-17.067V24.6
			C476.839,15.186,469.214,7.561,459.8,7.533z"/>
		<path style="fill:#A4C2F7;" d="M434.2,135.533c-0.002,9.053,3.593,17.737,9.995,24.139c6.402,6.402,15.085,9.997,24.139,9.995
			V229.4H41.667v-59.733c18.851,0,34.133-15.282,34.133-34.133S60.518,101.4,41.667,101.4V41.667h426.667V101.4
			c-9.053-0.003-17.737,3.593-24.139,9.995C437.793,117.796,434.197,126.48,434.2,135.533z"/>
		<g>
			<path style="fill:#E3E7F2;" d="M408.6,135.533c-0.003,9.053,3.593,17.737,9.995,24.139s15.085,9.997,24.139,9.995V229.4H41.667
				v-59.733c18.851,0,34.133-15.282,34.133-34.133S60.518,101.4,41.667,101.4V41.667h401.067V101.4
				c-9.054-0.003-17.737,3.593-24.139,9.995C412.193,117.796,408.597,126.48,408.6,135.533z"/>
			<circle style="fill:#E3E7F2;" cx="255" cy="135.533" r="93.867"/>
		</g>
		<g>
			<path style="fill:#FFFFFF;" d="M24.6,263.533h25.6c-9.414-0.028-17.039-7.653-17.067-17.067V24.6
				C33.161,15.186,40.786,7.561,50.2,7.533H24.6C15.186,7.561,7.561,15.186,7.533,24.6v221.867
				C7.561,255.881,15.186,263.506,24.6,263.533z"/>
			<path style="fill:#FFFFFF;" d="M255.105,468.333c0,0-0.128-0.992-0.419-2.716c-60.246-13.041-67.343-71.045-67.949-90.85
				c-0.024-0.945,0.174-1.882,0.578-2.736c-6.268-1.978-12.749-3.207-19.306-3.659c-1.784-0.161-3.552,0.444-4.863,1.665
				c-1.311,1.22-2.041,2.94-2.009,4.731C161.822,397.133,170.639,468.333,255.105,468.333z"/>
			<path style="fill:#FFFFFF;" d="M373.784,298.008c-6.152,0.406-12.26,1.319-18.261,2.731
				c-61.349,14.442-86.224,75.871-95.498,110.125c4.406,7.179,8.158,14.739,11.209,22.59c3.326-0.289,6.556-0.663,9.689-1.124
				c2.304-14.589,20.398-112.556,99.903-131.511C379.02,298.872,376.434,297.84,373.784,298.008z"/>
		</g>
	</g>
	<g>
		<polygon style="fill:#FFFFFF;" points="17.067,25.6 17.067,136.533 17.067,247.467 0,247.467 0,136.533 0,25.6 		"/>
		<g>
			<path style="fill:#428DFF;" d="M8.533,102.4c2.259-0.034,4.422-0.918,6.059-2.475c3.3-3.365,3.3-8.752,0-12.117l-1.279-1.025
				c-0.476-0.324-0.993-0.583-1.538-0.771c-0.484-0.246-1.003-0.417-1.538-0.509c-0.563-0.096-1.133-0.153-1.704-0.171
				c-2.259,0.031-4.423,0.915-6.059,2.475c-3.222,3.397-3.222,8.721,0,12.117c0.815,0.77,1.77,1.379,2.813,1.792
				C6.314,102.155,7.417,102.387,8.533,102.4z"/>
			<path style="fill:#428DFF;" d="M486.4,0H25.6C11.468,0.015,0.015,11.468,0,25.6v34.133c0,4.713,3.821,8.533,8.533,8.533
				s8.533-3.821,8.533-8.533V25.6c0.006-4.71,3.823-8.527,8.533-8.533h460.8c4.71,0.006,8.527,3.823,8.533,8.533v221.867
				c-0.006,4.71-3.823,8.527-8.533,8.533H25.6c-4.71-0.006-8.527-3.823-8.533-8.533V128c0-4.713-3.821-8.533-8.533-8.533
				S0,123.287,0,128v119.467c0.015,14.132,11.468,25.585,25.6,25.6h221.867V416.24c-13.568-25.947-37.257-52.454-77.842-55.381
				c-4.248-0.313-8.43,1.189-11.508,4.133c-2.994,2.877-4.632,6.887-4.508,11.038c0.705,23.099,9.892,96.531,93.858,101.372v17.532
				H59.733c-4.71-0.006-8.527-3.823-8.533-8.533V370.467l19.567,19.567c2.151,2.178,5.304,3.037,8.262,2.251
				c2.958-0.786,5.269-3.097,6.055-6.055s-0.073-6.111-2.251-8.262l-34.131-34.131c-3.34-3.319-8.732-3.319-12.072,0L2.5,377.967
				c-3.281,3.341-3.256,8.701,0.054,12.012c3.311,3.311,8.671,3.335,12.012,0.054l19.567-19.566V486.4
				c0.015,14.132,11.468,25.585,25.6,25.6h392.533c14.132-0.015,25.585-11.468,25.6-25.6V361.933l19.567,19.567
				c3.338,3.296,8.711,3.279,12.029-0.038c3.317-3.317,3.334-8.691,0.038-12.029l-34.131-34.131c-3.34-3.319-8.732-3.319-12.072,0
				l-34.13,34.131c-3.281,3.341-3.256,8.701,0.054,12.012c3.311,3.311,8.671,3.335,12.012,0.054l19.567-19.566V486.4
				c-0.006,4.71-3.823,8.527-8.533,8.533H264.533v-26.231c-0.01-0.145,0.056-0.282,0.037-0.428l-0.037-0.271v-24.495
				C379.5,438.83,391.719,339.072,392.671,307.975c0.142-4.782-1.746-9.402-5.196-12.717c-3.562-3.401-8.397-5.134-13.308-4.771
				c-60.526,4.364-92.849,48.282-109.633,86.426V273.067H486.4c14.132-0.015,25.585-11.468,25.6-25.6V25.6
				C511.985,11.468,500.532,0.015,486.4,0z M170.775,378.088c52.404,5.338,69.933,59.442,75.029,82.313
				C182.637,455.342,172.087,403.613,170.775,378.088z M375.613,307.45c-1.063,34.642-14.021,113.662-109.258,118.938
				C272.513,397.217,297.029,313.154,375.613,307.45z"/>
			<path style="fill:#428DFF;" d="M42.667,162.133c-4.713,0-8.533,3.821-8.533,8.533V230.4c0,4.713,3.821,8.533,8.533,8.533h426.667
				c4.713,0,8.533-3.821,8.533-8.533v-59.733c0-4.713-3.821-8.533-8.533-8.533c-14.138,0-25.6-11.462-25.6-25.6
				s11.462-25.6,25.6-25.6c4.713,0,8.533-3.821,8.533-8.533V42.667c0-4.713-3.821-8.533-8.533-8.533H42.667
				c-4.713,0-8.533,3.821-8.533,8.533V102.4c0,4.713,3.821,8.533,8.533,8.533c14.138,0,25.6,11.462,25.6,25.6
				S56.805,162.133,42.667,162.133z M460.8,51.2v43.529c-19.865,4.055-34.133,21.529-34.133,41.804s14.268,37.749,34.133,41.804
				v43.529H312.479c28.67-18.924,45.921-50.981,45.921-85.333S341.149,70.124,312.479,51.2H460.8z M256,221.867
				c-47.128,0-85.333-38.205-85.333-85.333S208.872,51.2,256,51.2s85.333,38.205,85.333,85.333
				C341.281,183.64,303.107,221.814,256,221.867z M51.2,94.729V51.2h148.321c-28.67,18.924-45.921,50.981-45.921,85.333
				s17.251,66.409,45.921,85.333H51.2v-43.529c19.865-4.055,34.133-21.529,34.133-41.804S71.065,98.784,51.2,94.729z"/>
			<path style="fill:#428DFF;" d="M392.533,162.133c4.713,0,8.533-3.821,8.533-8.533v-34.133c0-4.713-3.82-8.533-8.533-8.533
				S384,114.754,384,119.467V153.6C384,158.313,387.821,162.133,392.533,162.133z"/>
			<path style="fill:#428DFF;" d="M119.467,162.133c4.713,0,8.533-3.821,8.533-8.533v-34.133c0-4.713-3.821-8.533-8.533-8.533
				c-4.713,0-8.533,3.821-8.533,8.533V153.6C110.933,158.313,114.754,162.133,119.467,162.133z"/>
			<path style="fill:#428DFF;" d="M281.6,110.933c0,4.713,3.821,8.533,8.533,8.533c4.713,0,8.533-3.821,8.533-8.533
				c0-16.483-14.683-30.271-34.133-33.443V76.8c0-4.713-3.821-8.533-8.533-8.533c-4.713,0-8.533,3.821-8.533,8.533v0.691
				c-19.45,3.172-34.133,16.96-34.133,33.443s14.683,30.271,34.133,33.443v33.738c-9.811-2.41-17.067-8.723-17.067-15.981
				c0-4.713-3.821-8.533-8.533-8.533c-4.713,0-8.533,3.821-8.533,8.533c0,16.483,14.683,30.271,34.133,33.443v0.691
				c0,4.713,3.821,8.533,8.533,8.533c4.713,0,8.533-3.821,8.533-8.533v-0.691c19.45-3.172,34.133-16.96,34.133-33.443
				s-14.683-30.271-34.133-33.443V94.952C274.344,97.362,281.6,103.676,281.6,110.933z M230.4,110.933
				c0-7.258,7.256-13.571,17.067-15.981v31.962C237.656,124.504,230.4,118.191,230.4,110.933z M281.6,162.133
				c0,7.258-7.256,13.571-17.067,15.981v-31.962C274.344,148.562,281.6,154.876,281.6,162.133z"/>
		</g>
	</g>
</g>
<g>
</g>
<g>
</g>
<g>
</g>
<g>
</g>
<g>
</g>
<g>
</g>
<g>
</g>
<g>
</g>
<g>
</g>
<g>
</g>
<g>
</g>
<g>
</g>
<g>
</g>
<g>
</g>
<g>
</g>
</svg>
