<?xml version="1.0" encoding="iso-8859-1"?>
<!-- Generator: Adobe Illustrator 19.0.0, SVG Export Plug-In . SVG Version: 6.00 Build 0)  -->
<svg version="1.1" id="Capa_1" xmlns="http://www.w3.org/2000/svg" xmlns:xlink="http://www.w3.org/1999/xlink" x="0px" y="0px"
	 viewBox="0 0 512.095 512.095" style="enable-background:new 0 0 512.095 512.095;" xml:space="preserve">
<g>
	<g transform="translate(30)">
		<g>
			<path style="fill:#E3E7F2;" d="M422.267,50.558h-59.733V16.424c-0.197-4.52-4.012-8.03-8.533-7.851H234.533
				c-4.521-0.18-8.336,3.33-8.533,7.851v61.099c0.197,4.52,4.012,8.03,8.533,7.851H302.8v42.667
				c-0.02,2.371,0.973,4.638,2.731,6.229c1.567,1.483,3.645,2.308,5.803,2.304h110.933c4.707-0.014,8.519-3.826,8.533-8.533V59.091
				C430.786,54.384,426.974,50.572,422.267,50.558z"/>
			<path style="fill:#E3E7F2;" d="M362.533,16.424v68.949h-128c-4.521,0.179-8.336-3.33-8.533-7.851V16.424
				c0.197-4.52,4.012-8.03,8.533-7.851H354C358.521,8.394,362.336,11.904,362.533,16.424z"/>
		</g>
		<path style="fill:#A4C2F7;" d="M430.8,59.091v68.949c-0.014,4.707-3.826,8.519-8.533,8.533H311.333
			c-2.158,0.004-4.235-0.821-5.803-2.304l57.003-48.896V50.558h59.733C426.974,50.572,430.786,54.384,430.8,59.091z"/>
		<path style="fill:#E3E7F2;" d="M405.2,59.091v68.949c-0.014,4.707-3.826,8.519-8.533,8.533h-85.333
			c-2.158,0.004-4.235-0.821-5.803-2.304l57.003-48.896V50.558h34.133C401.374,50.572,405.186,54.384,405.2,59.091z"/>
		<path style="fill:#A4C2F7;" d="M465.787,453.587c-15.852,34.759-52.861,54.762-90.624,48.981
			c-7.751-1.223-15.301-3.491-22.443-6.741c-31.408-14.323-51.095-46.156-49.881-80.654s23.089-64.869,55.426-76.949
			c32.337-12.081,68.767-3.492,92.303,21.76C474.104,385.236,480.11,422.179,465.787,453.587z"/>
		<path style="fill:#E3E7F2;" d="M440.187,453.587c-11.963,26.3-36.444,44.741-65.024,48.981
			c-7.751-1.223-15.301-3.491-22.443-6.741c-34.404-15.68-54.386-52.13-49.103-89.568c5.283-37.437,34.573-66.934,71.972-72.48
			c26.385,4.147,49.318,20.383,61.994,43.893C450.259,401.182,451.222,429.264,440.187,453.587z"/>
		<g>
			<path style="fill:#FFFFFF;" d="M234.533,85.374h25.6c-4.521,0.179-8.336-3.33-8.533-7.851V16.424
				c0.197-4.52,4.012-8.03,8.533-7.851h-25.6c-4.521-0.18-8.336,3.33-8.533,7.851v61.099
				C226.197,82.043,230.012,85.553,234.533,85.374z"/>
			<path style="fill:#FFFFFF;" d="M400.675,502.549c-7.72-1.225-15.24-3.486-22.355-6.722
				c-34.347-15.646-54.331-52.002-49.133-89.385s34.343-66.907,71.655-72.589c-8.366-1.291-16.88-1.316-25.254-0.074
				c-37.399,5.547-66.689,35.043-71.972,72.48c-5.283,37.437,14.699,73.888,49.103,89.568c7.142,3.25,14.692,5.518,22.443,6.741
				C383.62,503.842,392.22,503.835,400.675,502.549z"/>
		</g>
	</g>
	<g>
		<polygon style="fill:#FFFFFF;" points="264.533,76.84 264.533,187.774 264.533,256.04 247.467,256.04 247.467,187.774 
			247.467,76.84 		"/>
		<g>
			<path style="fill:#428DFF;" d="M511.51,159.747c-0.052-0.314-0.121-0.626-0.206-0.933c-0.192-0.33-0.406-0.646-0.639-0.948
				c-0.339-0.647-0.761-1.247-1.253-1.786l-0.066-0.094c-0.324-0.238-0.665-0.452-1.021-0.639c-0.964-0.893-2.22-1.404-3.533-1.439
				c-0.433-0.126-0.877-0.216-1.325-0.268h-34.133c-4.713,0-8.533,3.821-8.533,8.533c0,4.713,3.821,8.533,8.533,8.533h14.254
				L340.867,320.94l-76.333-68.699V179.24c0-4.713-3.821-8.533-8.533-8.533c-4.713,0-8.533,3.821-8.533,8.533v73.898
				l-77.637,100.931L151.1,335.341c-1.682-1.703-4.009-2.609-6.4-2.492c-2.388,0.101-4.624,1.2-6.163,3.029L17.067,480.124V366.974
				h17.067c4.713,0,8.533-3.82,8.533-8.533s-3.821-8.533-8.533-8.533H17.067V332.84h17.067c4.713,0,8.533-3.821,8.533-8.533
				c0-4.713-3.821-8.533-8.533-8.533H17.067v-17.067h17.067c4.713,0,8.533-3.821,8.533-8.533c0-4.713-3.821-8.533-8.533-8.533
				H17.067v-17.067h25.6c4.713,0,8.533-3.821,8.533-8.533c0-4.713-3.821-8.533-8.533-8.533h-25.6V230.44h17.067
				c4.713,0,8.533-3.821,8.533-8.533c0-4.713-3.821-8.533-8.533-8.533H17.067v-17.067h17.067c4.713,0,8.533-3.821,8.533-8.533
				s-3.821-8.533-8.533-8.533H17.067v-17.067h17.067c4.713,0,8.533-3.82,8.533-8.533s-3.821-8.533-8.533-8.533H17.067V128.04h17.067
				c4.713,0,8.533-3.821,8.533-8.533c0-4.713-3.821-8.533-8.533-8.533H17.067V93.907h17.067c4.713,0,8.533-3.821,8.533-8.533
				c0-4.713-3.821-8.533-8.533-8.533H17.067V29.174L36.634,48.74c3.341,3.281,8.701,3.256,12.012-0.054s3.335-8.671,0.054-12.012
				L14.569,2.543c-2.444-2.43-6.108-3.153-9.292-1.835S0.012,5.128,0,8.574v494.933c0,0.126,0.067,0.23,0.072,0.355
				c0.055,0.598,0.175,1.189,0.356,1.761c0.095,0.499,0.235,0.988,0.417,1.462c0.244,0.442,0.527,0.862,0.845,1.254
				c0.322,0.509,0.697,0.982,1.12,1.41c0.092,0.085,0.13,0.204,0.227,0.285c0.423,0.3,0.873,0.559,1.345,0.774
				c0.334,0.227,0.684,0.428,1.048,0.603c0.985,0.401,2.036,0.613,3.098,0.626l0.002-0.001l0.002,0.001h409.121
				c0.105,0,0.211,0.017,0.317,0.017l0.234-0.017h85.262c4.713,0,8.533-3.821,8.533-8.533c0-4.713-3.82-8.533-8.533-8.533h-31.754
				c27.748-19.159,43.033-51.773,40.003-85.357c-3.03-33.584-23.906-62.935-54.636-76.818
				c-44.114-20.15-96.315-3.362-120.413,38.726s-12.152,95.605,27.557,123.449h-99.69v-17.067c0-4.713-3.821-8.533-8.533-8.533
				c-4.713,0-8.533,3.821-8.533,8.533v17.067H26.877l118.728-140.992l19.029,19.025c1.735,1.737,4.135,2.642,6.586,2.483
				c2.45-0.159,4.713-1.366,6.21-3.313l79.713-103.629l78.483,70.633c3.436,3.094,8.711,2.889,11.896-0.462l147.412-155.171v12.758
				c0,4.713,3.821,8.533,8.533,8.533c4.713,0,8.533-3.821,8.533-8.533v-34.133l-0.021-0.103
				C511.932,161.278,511.774,160.496,511.51,159.747z M348.242,386.311c12.896-28.26,41.545-45.969,72.589-44.87
				s58.369,20.791,69.233,49.892s3.129,61.882-19.6,83.056c-22.729,21.174-55.974,26.572-84.234,13.676
				C347.688,470.413,330.698,424.902,348.242,386.311z"/>
			<path style="fill:#428DFF;" d="M259.242,137.253c-0.484-0.246-1.002-0.417-1.537-0.508c-0.563-0.096-1.133-0.153-1.704-0.171
				c-2.259,0.031-4.423,0.915-6.059,2.475c-2.07,1.994-2.979,4.908-2.409,7.726c0.57,2.818,2.539,5.149,5.222,6.183
				c1.027,0.438,2.13,0.67,3.246,0.684c3.45-0.014,6.556-2.096,7.879-5.282c1.323-3.187,0.606-6.856-1.82-9.31l-1.279-1.025
				C260.303,137.699,259.786,137.44,259.242,137.253z"/>
			<path style="fill:#428DFF;" d="M341.333,145.107h110.933c9.422-0.009,17.057-7.645,17.067-17.067V59.115
				c-0.009-9.422-7.645-17.057-17.067-17.067h-51.2v-25.6C400.871,7.211,393.238-0.127,384,0.04H264.533
				c-9.238-0.168-16.871,7.171-17.067,16.408v94.525c0,4.713,3.821,8.533,8.533,8.533c4.713,0,8.533-3.821,8.533-8.533V93.907
				h59.733v34.133C324.276,137.462,331.912,145.098,341.333,145.107z M452.267,59.115v68.925h-96.372l42.193-36.192
				c0.095-0.082,0.148-0.194,0.24-0.279c0.685-0.743,1.281-1.562,1.778-2.442c0.147-0.293,0.276-0.595,0.386-0.904
				c0.268-0.753,0.427-1.541,0.472-2.339c0.011-0.179,0.103-0.33,0.103-0.511V59.115H452.267z M264.533,76.84V17.107L384,16.449
				V76.84h-51.2c-0.531,0.053-1.056,0.159-1.566,0.316l-66.701,0.342V76.84z M369.479,93.907l-28.146,24.142V93.907H369.479z"/>
			<path style="fill:#428DFF;" d="M264.533,324.307c0-4.713-3.821-8.533-8.533-8.533c-4.713,0-8.533,3.821-8.533,8.533v17.067
				c0,4.713,3.821,8.533,8.533,8.533c4.713,0,8.533-3.82,8.533-8.533V324.307z"/>
			<path style="fill:#428DFF;" d="M264.533,375.507c0-4.713-3.821-8.533-8.533-8.533c-4.713,0-8.533,3.82-8.533,8.533v17.067
				c0,4.713,3.821,8.533,8.533,8.533c4.713,0,8.533-3.82,8.533-8.533V375.507z"/>
			<path style="fill:#428DFF;" d="M256,418.174c-4.713,0-8.533,3.82-8.533,8.533v17.067c0,4.713,3.821,8.533,8.533,8.533
				c4.713,0,8.533-3.821,8.533-8.533v-17.067C264.533,421.994,260.713,418.174,256,418.174z"/>
			<path style="fill:#428DFF;" d="M76.8,247.507c-4.713,0-8.533,3.821-8.533,8.533c0,4.713,3.821,8.533,8.533,8.533h17.067
				c4.713,0,8.533-3.821,8.533-8.533c0-4.713-3.821-8.533-8.533-8.533H76.8z"/>
			<path style="fill:#428DFF;" d="M128,247.507c-4.713,0-8.533,3.821-8.533,8.533c0,4.713,3.821,8.533,8.533,8.533h17.067
				c4.713,0,8.533-3.821,8.533-8.533c0-4.713-3.821-8.533-8.533-8.533H128z"/>
			<path style="fill:#428DFF;" d="M179.2,247.507c-4.713,0-8.533,3.821-8.533,8.533c0,4.713,3.821,8.533,8.533,8.533h17.067
				c4.713,0,8.533-3.821,8.533-8.533c0-4.713-3.821-8.533-8.533-8.533H179.2z"/>
			<path style="fill:#428DFF;" d="M390.229,458.748l-1.133,2.484c-1.265,2.773-0.955,6.011,0.814,8.493
				c1.769,2.482,4.728,3.832,7.762,3.542s5.683-2.178,6.948-4.952l1.09-2.389c2.636,0.583,5.327,0.881,8.027,0.89
				c2.836,0.007,5.661-0.338,8.413-1.025c8.172-1.706,15.045-7.199,18.512-14.793c3.466-7.595,3.112-16.386-0.953-23.677
				c-2.571-4.907-6.238-9.154-10.717-12.414l9.625-21.093c1.131,1.175,2.095,2.501,2.862,3.94c1.536,2.718,1.779,5.98,0.663,8.896
				c-1.956,4.287-0.066,9.348,4.221,11.304c4.287,1.956,9.348,0.066,11.304-4.221c3.308-7.626,2.956-16.344-0.954-23.679
				c-2.57-4.906-6.238-9.154-10.717-12.412l1.134-2.484c1.942-4.284,0.05-9.332-4.23-11.284c-4.279-1.952-9.332-0.073-11.295,4.201
				l-1.132,2.481c-5.396-1.248-11.008-1.233-16.397,0.044c-8.172,1.706-15.045,7.199-18.511,14.794
				c-3.466,7.595-3.112,16.386,0.953,23.677c2.571,4.907,6.238,9.154,10.717,12.414l-9.625,21.093
				c-1.131-1.175-2.095-2.501-2.862-3.94c-1.536-2.718-1.779-5.98-0.663-8.896c1.947-4.286,0.056-9.339-4.226-11.292
				c-4.283-1.954-9.338-0.071-11.299,4.209c-3.308,7.626-2.956,16.344,0.954,23.679C382.083,451.242,385.75,455.49,390.229,458.748z
				 M424.475,435.015c1.728,2.657,1.978,6.013,0.662,8.896c-1.316,2.883-4.015,4.894-7.154,5.329
				c-1.59,0.362-3.222,0.503-4.85,0.419l8.479-18.582C422.743,432.252,423.706,433.577,424.475,435.015L424.475,435.015z
				 M411.75,401.374c-1.728-2.657-1.978-6.013-0.662-8.896c1.316-2.883,4.015-4.894,7.154-5.329c1.59-0.365,3.222-0.507,4.851-0.421
				l-8.48,18.584C413.482,404.137,412.519,402.812,411.75,401.374z"/>
		</g>
	</g>
</g>
<g>
</g>
<g>
</g>
<g>
</g>
<g>
</g>
<g>
</g>
<g>
</g>
<g>
</g>
<g>
</g>
<g>
</g>
<g>
</g>
<g>
</g>
<g>
</g>
<g>
</g>
<g>
</g>
<g>
</g>
</svg>
