<?xml version="1.0" encoding="iso-8859-1"?>
<!-- Generator: Adobe Illustrator 19.0.0, SVG Export Plug-In . SVG Version: 6.00 Build 0)  -->
<svg version="1.1" id="Capa_1" xmlns="http://www.w3.org/2000/svg" xmlns:xlink="http://www.w3.org/1999/xlink" x="0px" y="0px"
	 viewBox="0 0 512.004 512.004" style="enable-background:new 0 0 512.004 512.004;" xml:space="preserve">
<g>
	<g transform="translate(14 26)">
		<path style="fill:#A4C2F7;" d="M429.733,306.804c0.001,29.422-11.686,57.638-32.491,78.443
			c-20.804,20.804-49.021,32.492-78.443,32.491c-4.278,0.004-8.553-0.252-12.8-0.768c-55.935-6.484-98.133-53.856-98.133-110.165
			S250.065,203.122,306,196.638c4.247-0.516,8.522-0.772,12.8-0.768c29.422-0.001,57.638,11.686,78.443,32.491
			C418.047,249.165,429.734,277.382,429.733,306.804z"/>
		<ellipse style="fill:#E3E7F2;" cx="306" cy="306.804" rx="98.133" ry="110.165"/>
		<path style="fill:#D4E1F4;" d="M395.6,306.804c-0.004,42.414-34.386,76.796-76.8,76.8c-4.287,0.005-8.568-0.337-12.8-1.024
			c-36.957-6.273-63.998-38.29-63.998-75.776S269.043,237.3,306,231.028c4.232-0.687,8.513-1.029,12.8-1.024
			C361.214,230.007,395.597,264.39,395.6,306.804z"/>
		<ellipse style="fill:#FFFFFF;" cx="306" cy="306.804" rx="64" ry="75.776"/>
		<circle style="fill:#E3E7F2;" cx="131.067" cy="255.604" r="25.6"/>
	</g>
	<path style="fill:#FFFFFF;" d="M320,442.969c4.247,0.516,8.522,0.772,12.8,0.768c4.249-0.019,8.494-0.28,12.714-0.782
		c-55.897-6.521-98.047-53.875-98.048-110.151s42.15-103.63,98.046-110.152c-4.219-0.502-8.464-0.763-12.713-0.782
		c-4.278-0.004-8.553,0.252-12.8,0.768c-55.935,6.484-98.133,53.856-98.133,110.165S264.065,436.485,320,442.969z"/>
	<g>
		<polygon style="fill:#FFFFFF;" points="138.94,307.835 80.802,402.316 15.804,507.942 1.263,498.999 66.261,393.373 
			124.399,298.892 		"/>
		<g>
			<path style="fill:#428DFF;" d="M349.867,170.67c4.713,0,8.533-3.821,8.533-8.533v-39.133l2.5,2.5
				c2.151,2.178,5.304,3.037,8.262,2.251c2.958-0.786,5.269-3.097,6.055-6.055c0.786-2.958-0.073-6.111-2.251-8.262l-17.064-17.064
				c-3.34-3.319-8.732-3.319-12.072,0l-17.064,17.064c-3.281,3.341-3.256,8.701,0.054,12.012c3.311,3.311,8.671,3.335,12.012,0.054
				l2.5-2.5v39.134C341.333,166.85,345.154,170.67,349.867,170.67z"/>
			<path style="fill:#428DFF;" d="M162.133,170.67c4.713,0,8.533-3.821,8.533-8.533v-39.133l2.5,2.5
				c3.338,3.296,8.711,3.279,12.029-0.038c3.317-3.317,3.334-8.691,0.038-12.029l-17.064-17.064c-3.34-3.319-8.732-3.319-12.072,0
				l-17.064,17.064c-3.281,3.341-3.256,8.701,0.054,12.012c3.311,3.311,8.671,3.335,12.012,0.054l2.5-2.5v39.134
				C153.6,166.85,157.421,170.67,162.133,170.67z"/>
			<path style="fill:#428DFF;" d="M256,93.87c4.713,0,8.533-3.821,8.533-8.533V46.204l2.5,2.5c3.338,3.296,8.711,3.279,12.029-0.038
				c3.317-3.317,3.334-8.691,0.038-12.029l-17.064-17.064c-3.34-3.319-8.732-3.319-12.072,0L232.9,36.637
				c-3.281,3.341-3.256,8.701,0.054,12.012c3.311,3.311,8.671,3.335,12.012,0.054l2.5-2.5v39.134
				C247.467,90.05,251.287,93.87,256,93.87z"/>
			<path style="fill:#428DFF;" d="M109.309,339.702c4.016,2.455,9.261,1.206,11.74-2.795l14.047-22.829
				c3.221,1.052,6.583,1.611,9.971,1.659c11.201-0.012,21.681-5.525,28.036-14.748l41.503,15.34
				c-8.162,57.948,26.873,113.273,82.747,130.67c55.874,17.397,116.124-8.26,142.301-60.599s10.569-115.936-36.866-150.209
				L511.15,12.254c2.053-4.243,0.277-9.347-3.967-11.4c-4.243-2.053-9.347-0.277-11.4,3.967L388.238,227.072
				c-14.544-7.637-30.517-12.167-46.904-13.303V196.27c0-4.713-3.82-8.533-8.533-8.533s-8.533,3.821-8.533,8.533v17.499
				c-12.755,0.871-25.286,3.799-37.107,8.671l-6.46-12.919c-2.114-4.204-7.232-5.903-11.441-3.799
				c-4.209,2.104-5.92,7.218-3.826,11.432l6.514,13.028c-26.036,15.463-45.252,40.212-53.783,69.267l-39.3-14.526
				c0.109-1.109,0.335-2.183,0.335-3.319c0.048-15.388-10.207-28.906-25.039-33.006c-14.832-4.1-30.574,2.232-38.436,15.46
				c-7.862,13.228-5.901,30.082,4.789,41.151l-14,22.753C104.058,331.978,105.307,337.223,109.309,339.702z M332.8,230.404
				c56.554,0,102.4,45.846,102.4,102.4s-45.846,102.4-102.4,102.4s-102.4-45.846-102.4-102.4
				C230.465,276.277,276.273,230.468,332.8,230.404z M145.067,264.537c9.426,0,17.067,7.641,17.067,17.067
				s-7.641,17.067-17.067,17.067S128,291.029,128,281.604C128.009,272.182,135.645,264.546,145.067,264.537z"/>
			<path style="fill:#428DFF;" d="M91.42,368.772c2.946,1.797,6.682,1.651,9.478-0.369c2.797-2.021,4.109-5.522,3.328-8.883
				l-0.552-1.544c-0.236-0.525-0.54-1.017-0.906-1.462c-0.283-0.463-0.635-0.881-1.043-1.239c-0.43-0.377-0.885-0.724-1.362-1.039
				c-1.941-1.157-4.247-1.538-6.457-1.067c-2.808,0.614-5.109,2.619-6.101,5.317c-0.991,2.698-0.536,5.716,1.207,8.002
				C89.659,367.4,90.477,368.175,91.42,368.772z"/>
			<path style="fill:#428DFF;" d="M36.634,48.703c3.341,3.281,8.701,3.256,12.012-0.054s3.335-8.671,0.054-12.012L14.569,2.506
				c-2.444-2.43-6.108-3.153-9.292-1.835S0.012,5.091,0,8.537V503.47c0,4.713,3.821,8.533,8.533,8.533H435.2
				c4.713,0,8.533-3.821,8.533-8.533c0-4.713-3.821-8.533-8.533-8.533h-34.133v-8.533c0-4.713-3.82-8.533-8.533-8.533
				s-8.533,3.82-8.533,8.533v8.533h-17.067v-8.533c0-4.713-3.82-8.533-8.533-8.533s-8.533,3.82-8.533,8.533v8.533H332.8v-8.533
				c0-4.713-3.82-8.533-8.533-8.533s-8.533,3.82-8.533,8.533v8.533h-17.067v-8.533c0-4.713-3.821-8.533-8.533-8.533
				c-4.713,0-8.533,3.82-8.533,8.533v8.533h-17.067v-8.533c0-4.713-3.821-8.533-8.533-8.533c-4.713,0-8.533,3.82-8.533,8.533v8.533
				H230.4v-8.533c0-4.713-3.821-8.533-8.533-8.533c-4.713,0-8.533,3.82-8.533,8.533v8.533h-17.067v-8.533
				c0-4.713-3.821-8.533-8.533-8.533c-4.713,0-8.533,3.82-8.533,8.533v8.533h-17.067v-8.533c0-4.713-3.821-8.533-8.533-8.533
				s-8.533,3.82-8.533,8.533v8.533H128v-8.533c0-4.713-3.821-8.533-8.533-8.533c-4.713,0-8.533,3.82-8.533,8.533v8.533H93.867
				v-8.533c0-4.713-3.821-8.533-8.533-8.533s-8.533,3.82-8.533,8.533v8.533H59.733v-8.533c0-4.713-3.821-8.533-8.533-8.533
				s-8.533,3.82-8.533,8.533v8.533H23.804l61.468-99.89c1.621-2.597,1.726-5.864,0.276-8.56c-1.45-2.696-4.234-4.409-7.294-4.488
				c-3.06-0.079-5.929,1.487-7.517,4.104l-53.67,87.217V366.937h17.067c4.713,0,8.533-3.82,8.533-8.533s-3.821-8.533-8.533-8.533
				H17.067v-17.067h17.067c4.713,0,8.533-3.821,8.533-8.533c0-4.713-3.821-8.533-8.533-8.533H17.067V298.67h17.067
				c4.713,0,8.533-3.821,8.533-8.533c0-4.713-3.821-8.533-8.533-8.533H17.067v-17.067h17.067c4.713,0,8.533-3.821,8.533-8.533
				c0-4.713-3.821-8.533-8.533-8.533H17.067v-17.067h17.067c4.713,0,8.533-3.821,8.533-8.533c0-4.713-3.821-8.533-8.533-8.533
				H17.067V196.27h17.067c4.713,0,8.533-3.821,8.533-8.533s-3.821-8.533-8.533-8.533H17.067v-17.067h17.067
				c4.713,0,8.533-3.82,8.533-8.533s-3.821-8.533-8.533-8.533H17.067v-17.067h17.067c4.713,0,8.533-3.821,8.533-8.533
				c0-4.713-3.821-8.533-8.533-8.533H17.067V93.87h17.067c4.713,0,8.533-3.821,8.533-8.533c0-4.713-3.821-8.533-8.533-8.533H17.067
				V29.137L36.634,48.703z"/>
			<path style="fill:#428DFF;" d="M332.8,418.137c47.128,0,85.333-38.205,85.333-85.333S379.928,247.47,332.8,247.47
				s-85.333,38.205-85.333,85.333C247.519,379.91,285.693,418.085,332.8,418.137z M332.8,264.537
				c37.703,0,68.267,30.564,68.267,68.267S370.503,401.07,332.8,401.07s-68.267-30.564-68.267-68.267
				C264.576,295.119,295.115,264.58,332.8,264.537z"/>
			<path style="fill:#428DFF;" d="M352.367,364.437c3.341,3.281,8.701,3.256,12.012-0.054c3.311-3.311,3.335-8.671,0.054-12.012
				l-23.1-23.1v-39.133c0-4.713-3.82-8.533-8.533-8.533s-8.533,3.821-8.533,8.533v42.667c0.001,2.263,0.9,4.433,2.5,6.033
				L352.367,364.437z"/>
		</g>
	</g>
</g>
<g>
</g>
<g>
</g>
<g>
</g>
<g>
</g>
<g>
</g>
<g>
</g>
<g>
</g>
<g>
</g>
<g>
</g>
<g>
</g>
<g>
</g>
<g>
</g>
<g>
</g>
<g>
</g>
<g>
</g>
</svg>
