<?xml version="1.0" encoding="iso-8859-1"?>
<!-- Generator: Adobe Illustrator 19.0.0, SVG Export Plug-In . SVG Version: 6.00 Build 0)  -->
<svg version="1.1" id="Capa_1" xmlns="http://www.w3.org/2000/svg" xmlns:xlink="http://www.w3.org/1999/xlink" x="0px" y="0px"
	 viewBox="0 0 503.754 503.754" style="enable-background:new 0 0 503.754 503.754;" xml:space="preserve">
<g>
	<g transform="translate(1 1)">
		<path style="fill:#A4C2F7;" d="M494.361,24.254v318.951H7.373V24.254C7.4,14.994,14.9,7.494,24.16,7.467h453.414
			C486.834,7.494,494.334,14.994,494.361,24.254z"/>
		
			<linearGradient id="SVGID_1_" gradientUnits="userSpaceOnUse" x1="-58.0662" y1="647.5349" x2="-57.2134" y2="646.3618" gradientTransform="matrix(461.8072 0 0 -335.7377 26856.75 217385.2031)">
			<stop  offset="0" style="stop-color:#D3DFF2"/>
			<stop  offset="0.1717" style="stop-color:#D3DFF2"/>
			<stop  offset="0.2" style="stop-color:#D3DFF2"/>
			<stop  offset="0.2002" style="stop-color:#DAE2F2"/>
			<stop  offset="0.2007" style="stop-color:#EBEAF2"/>
			<stop  offset="0.2014" style="stop-color:#F6EFF2"/>
			<stop  offset="0.2023" style="stop-color:#FDF2F2"/>
			<stop  offset="0.205" style="stop-color:#FFF3F2"/>
			<stop  offset="0.2522" style="stop-color:#FFF3F2"/>
			<stop  offset="0.26" style="stop-color:#FFF3F2"/>
			<stop  offset="0.26" style="stop-color:#D3DFF2"/>
			<stop  offset="0.3974" style="stop-color:#D3DFF2"/>
			<stop  offset="0.42" style="stop-color:#D3DFF2"/>
			<stop  offset="0.4202" style="stop-color:#DAE2F2"/>
			<stop  offset="0.4207" style="stop-color:#EBEAF2"/>
			<stop  offset="0.4214" style="stop-color:#F6EFF2"/>
			<stop  offset="0.4223" style="stop-color:#FDF2F2"/>
			<stop  offset="0.425" style="stop-color:#FFF3F2"/>
			<stop  offset="0.4894" style="stop-color:#FFF3F2"/>
			<stop  offset="0.5" style="stop-color:#FFF3F2"/>
			<stop  offset="0.5" style="stop-color:#F8F0F2"/>
			<stop  offset="0.5001" style="stop-color:#E7E8F2"/>
			<stop  offset="0.5003" style="stop-color:#DCE3F2"/>
			<stop  offset="0.5005" style="stop-color:#D5E0F2"/>
			<stop  offset="0.501" style="stop-color:#D3DFF2"/>
			<stop  offset="0.7062" style="stop-color:#D3DFF2"/>
			<stop  offset="0.74" style="stop-color:#D3DFF2"/>
			<stop  offset="0.741" style="stop-color:#FFF3F2"/>
			<stop  offset="0.8346" style="stop-color:#FFF3F2"/>
			<stop  offset="0.85" style="stop-color:#FFF3F2"/>
			<stop  offset="0.851" style="stop-color:#D3DFF2"/>
		</linearGradient>
		<path style="fill:url(#SVGID_1_);" d="M469.18,24.254v318.951H7.373V24.254C7.4,14.994,14.9,7.494,24.16,7.467h428.233
			C461.653,7.494,469.153,14.994,469.18,24.254z"/>
		<path style="fill:#A4C2F7;" d="M410.426,150.156c0.001,28.939-11.495,56.693-31.958,77.157
			c-20.463,20.463-48.217,31.959-77.157,31.958c-4.208,0.004-8.413-0.248-12.59-0.755c-55.018-6.377-96.525-52.973-96.525-108.359
			s41.506-101.982,96.525-108.359c4.177-0.508,8.382-0.76,12.59-0.755c28.939-0.001,56.693,11.495,77.157,31.958
			C398.931,93.462,410.427,121.216,410.426,150.156z"/>
		<ellipse style="fill:#D4E1F4;" cx="288.721" cy="150.156" rx="96.525" ry="108.359"/>
		<circle style="fill:#E3E7F2;" cx="301.311" cy="150.156" r="75.541"/>
		<g>
			<rect x="200.59" y="401.959" style="fill:#A4C2F7;" width="100.721" height="67.148"/>
			<path style="fill:#A4C2F7;" d="M385.246,477.5v16.787H116.488V477.5c0.027-9.26,7.527-16.76,16.787-16.787h235.184
				C377.719,460.74,385.219,468.24,385.246,477.5z"/>
		</g>
		<g>
			<rect x="41.115" y="208.91" style="fill:#E3E7F2;" width="50.361" height="100.721"/>
			<rect x="91.475" y="99.795" style="fill:#E3E7F2;" width="50.361" height="209.836"/>
			<rect x="141.836" y="41.041" style="fill:#E3E7F2;" width="50.361" height="268.59"/>
		</g>
		<path style="fill:#A4C2F7;" d="M494.361,343.205v49.186c-0.011,9.915-8.047,17.951-17.962,17.962H25.503
			c-9.915-0.011-17.951-8.047-17.962-17.962v-49.186H494.361z"/>
		<g>
			<polygon style="fill:#E3E7F2;" points="276.131,401.959 276.131,469.107 175.41,469.107 175.41,460.713 200.59,460.713 
				200.59,410.352 175.41,410.352 175.41,401.959 			"/>
			<path style="fill:#E3E7F2;" d="M360.066,477.5v16.787H116.488V477.5c0.027-9.26,7.527-16.76,16.787-16.787h210.004
				C352.539,460.74,360.039,468.24,360.066,477.5z"/>
			<path style="fill:#E3E7F2;" d="M469.18,343.205v49.186c-0.011,9.915-8.047,17.951-17.962,17.962H25.503
				c-9.915-0.011-17.951-8.047-17.962-17.962v-49.186H469.18z"/>
			<path style="fill:#E3E7F2;" d="M393.341,208.612c-8.601,13.512-20.062,24.973-33.574,33.574l59.052,59.052
				c9.271,9.271,24.303,9.271,33.574,0c9.271-9.271,9.271-24.303,0-33.574L393.341,208.612z"/>
			<path style="fill:#E3E7F2;" d="M192.197,150.156v159.475h50.361v-67.627C211.187,221.997,192.198,187.363,192.197,150.156z"/>
			<path style="fill:#E3E7F2;" d="M242.557,242.004v67.627h50.361v-50.785C274.994,257.496,257.687,251.709,242.557,242.004z"/>
		</g>
		<g>
			<path style="fill:#FFFFFF;" d="M141.668,477.5c0.027-9.26,7.527-16.76,16.787-16.787h-25.18
				c-9.26,0.027-16.76,7.527-16.787,16.787v16.787h25.18V477.5z"/>
			<rect x="200.59" y="410.352" style="fill:#FFFFFF;" width="25.18" height="50.361"/>
			<path style="fill:#FFFFFF;" d="M7.541,392.39c0.011,9.915,8.046,17.951,17.962,17.962h25.18
				c-9.915-0.011-17.951-8.047-17.962-17.962v-49.186h-0.168V24.254c0.027-9.26,7.527-16.76,16.787-16.787H24.16
				C14.9,7.494,7.4,14.994,7.373,24.254v318.951h0.168V392.39z"/>
		</g>
	</g>
	<g>
		<polygon style="fill:#FFFFFF;" points="16.792,25.254 16.792,134.369 16.792,344.205 0.005,344.205 0.005,134.369 0.005,25.254 		
			"/>
		<g>
			<path style="fill:#428DFF;" d="M302.311,235.09c46.356,0,83.934-37.579,83.934-83.934s-37.579-83.934-83.934-83.934
				s-83.934,37.579-83.934,83.934C218.43,197.489,255.978,235.037,302.311,235.09z M302.311,84.008
				c37.085,0,67.148,30.063,67.148,67.148s-30.063,67.148-67.148,67.148s-67.148-30.063-67.148-67.148
				C235.206,114.089,265.245,84.051,302.311,84.008z"/>
			<path style="fill:#428DFF;" d="M8.397,100.795c2.222-0.034,4.349-0.903,5.959-2.434c3.246-3.31,3.246-8.608,0-11.918
				l-1.258-1.008c-0.468-0.319-0.977-0.574-1.512-0.758c-0.476-0.242-0.986-0.41-1.513-0.5c-0.554-0.094-1.114-0.151-1.676-0.168
				c-2.222,0.031-4.351,0.9-5.959,2.434c-3.169,3.341-3.169,8.577,0,11.918c0.802,0.758,1.741,1.356,2.766,1.763
				C6.214,100.554,7.299,100.782,8.397,100.795z"/>
			<path style="fill:#428DFF;" d="M478.574,0.074H25.18C11.28,0.089,0.015,11.354,0,25.254l0.003,0.015v33.558
				c0,4.636,3.758,8.393,8.393,8.393s8.393-3.758,8.393-8.393V25.254h-0.003c0.005-4.634,3.76-8.389,8.393-8.393h453.393
				c4.634,0.005,8.389,3.76,8.393,8.393v310.557H16.79V125.975c0-4.636-3.758-8.393-8.393-8.393s-8.393,3.758-8.393,8.393V344.19
				L0,344.205c0,0.259,0.125,0.478,0.148,0.731v48.47c0.014,14.54,11.796,26.324,26.336,26.34h166.713v33.574h-58.902
				c-13.9,0.015-25.165,11.28-25.18,25.18v16.787c-0.001,2.226,0.884,4.361,2.458,5.936c1.574,1.574,3.709,2.458,5.936,2.458
				h268.738c2.226,0.001,4.361-0.884,5.936-2.458c1.574-1.574,2.458-3.709,2.458-5.936V478.5c-0.015-13.9-11.28-25.165-25.18-25.18
				h-58.754v-33.574h166.713c14.54-0.016,26.322-11.8,26.336-26.34V25.254C503.739,11.354,492.474,0.089,478.574,0.074z
				 M377.852,478.5v8.393H125.902V478.5c0.005-4.634,3.76-8.389,8.393-8.393h235.164C374.093,470.111,377.848,473.866,377.852,478.5
				z M293.918,453.32h-83.934v-33.574h83.934V453.32z M486.967,393.406c-0.006,5.272-4.277,9.545-9.549,9.553H26.484
				c-5.272-0.009-9.543-4.281-9.549-9.553v-40.807h470.033V393.406z"/>
			<path style="fill:#428DFF;" d="M193.197,33.648h-50.361c-2.226-0.001-4.362,0.884-5.936,2.458
				c-1.574,1.574-2.458,3.709-2.458,5.936v50.361H92.475c-2.226-0.001-4.361,0.884-5.936,2.458s-2.458,3.709-2.458,5.936v100.721
				H42.115c-2.226-0.001-4.362,0.884-5.936,2.458c-1.574,1.574-2.458,3.709-2.458,5.936v100.721
				c-0.001,2.226,0.884,4.361,2.458,5.936c1.574,1.574,3.709,2.458,5.936,2.458h251.803c2.226,0.001,4.361-0.884,5.936-2.458
				c1.574-1.574,2.458-3.709,2.458-5.936v-41.967c20.014,0.008,39.693-5.13,57.148-14.922l54.427,54.43
				c12.566,12.446,32.827,12.398,45.334-0.109c12.506-12.506,12.555-32.768,0.109-45.334L404.9,208.298
				c31.314-56.037,11.807-126.835-43.789-158.927S234.453,35.799,201.59,90.942V42.041c0.001-2.226-0.884-4.361-2.458-5.936
				C197.558,34.531,195.423,33.647,193.197,33.648z M50.508,218.303h33.574v83.934H50.508V218.303z M100.869,209.91V109.189h33.574
				v193.049h-33.574V209.91z M151.23,100.795V50.434h33.574v251.803H151.23V100.795z M201.59,211.701
				c0.607,1.006,1.34,1.933,1.977,2.921c0.943,1.462,1.916,2.899,2.92,4.312c1.222,1.721,2.475,3.412,3.793,5.069
				c1.211,1.527,2.476,3.001,3.76,4.465c1.236,1.403,2.467,2.801,3.773,4.149c1.676,1.74,3.438,3.386,5.218,5.021
				c1.048,0.957,2.06,1.939,3.146,2.861c2.491,2.125,5.09,4.116,7.753,6.03c0.425,0.305,0.802,0.659,1.233,0.959v54.751H201.59
				V211.701z M285.525,267.361v34.877h-33.574v-45.004c0.422,0.2,0.864,0.358,1.289,0.553c2.066,0.954,4.153,1.857,6.281,2.694
				c0.614,0.24,1.238,0.451,1.854,0.68c7.408,2.763,15.079,4.764,22.893,5.971C284.689,267.197,285.102,267.3,285.525,267.361z
				 M395.467,222.607l51.992,51.991c5.994,5.994,5.994,15.712,0,21.705c-5.994,5.994-15.712,5.994-21.705,0l-51.984-51.992
				c0.232-0.178,0.428-0.4,0.66-0.58c7.647-5.971,14.53-12.859,20.496-20.51C395.094,223.007,395.301,222.823,395.467,222.607
				L395.467,222.607z M302.311,50.434c55.627,0,100.721,45.094,100.721,100.721s-45.094,100.721-100.721,100.721
				c-2.61,0-5.172-0.196-7.733-0.392l-0.022-0.006c-12.145-0.95-24.017-4.094-35.04-9.279c-0.435-0.206-0.869-0.415-1.3-0.627
				c-3.202-1.562-6.317-3.294-9.333-5.189c-0.36-0.227-0.734-0.432-1.09-0.663c-6.65-4.312-12.775-9.385-18.25-15.116
				c-0.804-0.843-1.576-1.716-2.351-2.586c-1.756-1.964-3.416-3.998-5.006-6.083c-0.809-1.064-1.635-2.114-2.402-3.21
				c-1.693-2.415-3.251-4.914-4.721-7.465c-0.414-0.718-0.893-1.392-1.291-2.122c-1.73-3.214-3.284-6.52-4.654-9.903
				c-0.49-1.195-0.893-2.432-1.338-3.651c-0.875-2.401-1.682-4.828-2.373-7.299c-0.371-1.322-0.715-2.656-1.031-4
				c-0.609-2.583-1.096-5.201-1.5-7.843c-0.185-1.2-0.41-2.386-0.551-3.599c-3.483-28.575,5.483-57.269,24.614-78.779
				S273.525,50.307,302.311,50.434z"/>
			<path style="fill:#428DFF;" d="M277.131,184.73c2.227,0.003,4.362-0.883,5.934-2.459l36.033-36.033v4.918
				c0,4.636,3.758,8.393,8.393,8.393c4.636,0,8.393-3.758,8.393-8.393v-25.18c-0.017-4.628-3.765-8.376-8.393-8.393h-25.18
				c-4.636,0-8.393,3.758-8.393,8.393s3.758,8.393,8.393,8.393h4.918l-36.033,36.033c-2.4,2.401-3.118,6.01-1.819,9.146
				C270.677,182.684,273.737,184.729,277.131,184.73z"/>
			<circle style="fill:#428DFF;" cx="251.951" cy="377.779" r="8.393"/>
		</g>
	</g>
</g>
<g>
</g>
<g>
</g>
<g>
</g>
<g>
</g>
<g>
</g>
<g>
</g>
<g>
</g>
<g>
</g>
<g>
</g>
<g>
</g>
<g>
</g>
<g>
</g>
<g>
</g>
<g>
</g>
<g>
</g>
</svg>
