<?xml version="1.0" encoding="iso-8859-1"?>
<!-- Generator: Adobe Illustrator 19.0.0, SVG Export Plug-In . SVG Version: 6.00 Build 0)  -->
<svg version="1.1" id="Capa_1" xmlns="http://www.w3.org/2000/svg" xmlns:xlink="http://www.w3.org/1999/xlink" x="0px" y="0px"
	 viewBox="0 0 512.004 512.004" style="enable-background:new 0 0 512.004 512.004;" xml:space="preserve">
<g>
	<g transform="translate(14 26)">
		<circle style="fill:#E3E7F2;" cx="131.067" cy="255.604" r="25.6"/>
		<path style="fill:#A4C2F7;" d="M429.733,306.804c0.001,29.422-11.687,57.638-32.491,78.443s-49.021,32.492-78.443,32.491
			c-4.278,0.004-8.553-0.252-12.8-0.768c-55.935-6.484-98.133-53.856-98.133-110.165S250.065,203.122,306,196.639
			c4.247-0.516,8.522-0.772,12.8-0.768c29.422-0.001,57.638,11.687,78.443,32.491S429.734,277.382,429.733,306.804z"/>
		<ellipse style="fill:#E3E7F2;" cx="306" cy="306.804" rx="98.133" ry="110.165"/>
		<path style="fill:#A4C2F7;" d="M395.6,306.804c-0.004,42.414-34.386,76.796-76.8,76.8c-4.287,0.005-8.568-0.337-12.8-1.024
			c-36.957-6.273-63.998-38.29-63.998-75.776s27.041-69.503,63.998-75.776c4.232-0.687,8.513-1.029,12.8-1.024
			C361.214,230.007,395.597,264.39,395.6,306.804z"/>
		<g>
			<ellipse style="fill:#E3E7F2;" cx="306" cy="306.804" rx="64" ry="75.776"/>
			<path style="fill:#E3E7F2;" d="M434,396.404l-25.6,25.6l46.933,46.933c3.201,3.201,7.542,4.999,12.068,4.999
				s8.867-1.798,12.068-4.999l1.464-1.464c3.201-3.201,4.999-7.542,4.999-12.068s-1.798-8.867-4.999-12.068L434,396.404z"/>
		</g>
		<path style="fill:#D4E1F4;" d="M412.364,366.234c-8.745,13.737-20.396,25.389-34.133,34.133l25.903,25.903l34.133-34.133
			L412.364,366.234z"/>
	</g>
	<path style="fill:#FFFFFF;" d="M320,442.969c4.247,0.516,8.522,0.772,12.8,0.768c4.226-0.022,8.446-0.287,12.642-0.794
		c-55.878-6.556-97.993-53.916-97.975-110.177c0.018-56.262,42.163-103.594,98.046-110.114c-4.219-0.502-8.464-0.763-12.713-0.782
		c-4.278-0.004-8.553,0.252-12.8,0.768c-55.935,6.484-98.133,53.856-98.133,110.165S264.065,436.486,320,442.969z"/>
	<g>
		<polygon style="fill:#FFFFFF;" points="138.94,307.836 80.802,402.317 15.804,507.942 1.263,498.999 66.261,393.374 
			124.399,298.893 		"/>
		<g>
			<path style="fill:#428DFF;" d="M332.8,418.137c47.128,0,85.333-38.205,85.333-85.333s-38.205-85.333-85.333-85.333
				s-85.333,38.205-85.333,85.333C247.521,379.91,285.694,418.083,332.8,418.137z M332.8,264.537
				c37.703,0,68.267,30.564,68.267,68.267s-30.564,68.267-68.267,68.267s-68.267-30.564-68.267-68.267
				C264.577,295.119,295.115,264.58,332.8,264.537z"/>
			<path style="fill:#428DFF;" d="M315.733,315.737c2.263,0.001,4.434-0.898,6.035-2.499c1.6-1.6,2.499-3.771,2.499-6.035
				c0-4.713,3.82-8.533,8.533-8.533s8.533,3.82,8.533,8.533c-0.188,6.063-2.62,11.84-6.825,16.212
				c-6.466,7.31-10.1,16.695-10.242,26.454c0,4.713,3.82,8.533,8.533,8.533s8.533-3.821,8.533-8.533
				c0.188-6.063,2.62-11.84,6.825-16.212c6.466-7.31,10.1-16.695,10.242-26.454c0-14.138-11.462-25.6-25.6-25.6
				c-14.138,0-25.6,11.462-25.6,25.6c-0.001,2.263,0.898,4.434,2.499,6.035C311.299,314.839,313.47,315.738,315.733,315.737z"/>
			<path style="fill:#428DFF;" d="M109.308,339.702c4.016,2.455,9.261,1.206,11.74-2.795l14.048-22.828
				c3.221,1.052,6.583,1.611,9.971,1.659c11.201-0.011,21.681-5.524,28.036-14.747l41.503,15.339
				c-6.339,44.871,13.3,89.458,50.686,115.069s86.056,27.82,125.608,5.702l21.2,21.203c1.6,1.601,3.77,2.5,6.033,2.5
				c1.374-0.035,2.719-0.408,3.916-1.084L463.3,500.97c4.798,4.801,11.307,7.499,18.094,7.5c6.787,0.002,13.297-2.693,18.098-7.492
				l1.475-1.471c9.983-10.003,9.983-26.201,0-36.204l-41.256-41.256c1.771-3.263,1.198-7.301-1.411-9.943l-21.202-21.205
				c29.563-52.793,14.798-119.365-34.313-154.71L511.15,12.254c2.053-4.243,0.277-9.347-3.967-11.4
				c-4.243-2.053-9.347-0.277-11.4,3.967l-107.55,222.251c-31.71-16.701-69.252-18.248-102.229-4.214s-57.89,42.161-67.84,76.592
				l-39.3-14.525c0.108-1.109,0.335-2.183,0.335-3.32c0.047-15.388-10.208-28.905-25.04-33.004
				c-14.832-4.099-30.573,2.233-38.435,15.461s-5.901,30.081,4.789,41.15l-14,22.751
				C104.058,331.978,105.307,337.223,109.308,339.702z M488.909,487.433l-1.483,1.475c-3.375,3.22-8.686,3.218-12.059-0.004
				l-40.9-40.9L448,434.471l40.9,40.9C492.223,478.704,492.227,484.096,488.909,487.433z M427.508,405.446l12.692,12.692
				l-22.067,22.067l-12.683-12.692c0.235-0.181,0.435-0.406,0.671-0.59c7.774-6.07,14.772-13.073,20.837-20.852
				C427.129,405.852,427.34,405.665,427.508,405.446z M332.8,230.404c56.554,0,102.4,45.846,102.4,102.4s-45.846,102.4-102.4,102.4
				s-102.4-45.846-102.4-102.4C230.463,276.276,276.272,230.467,332.8,230.404z M145.067,264.537
				c9.426,0,17.067,7.641,17.067,17.067s-7.641,17.067-17.067,17.067c-9.426,0-17.067-7.641-17.067-17.067
				C128.011,272.183,135.646,264.548,145.067,264.537z"/>
			<path style="fill:#428DFF;" d="M89.014,366.489c0.645,0.911,1.463,1.686,2.406,2.283c2.946,1.797,6.682,1.652,9.479-0.369
				c2.797-2.021,4.109-5.522,3.328-8.883l-0.552-1.544c-0.235-0.525-0.54-1.017-0.905-1.462c-0.284-0.463-0.636-0.88-1.044-1.239
				c-0.429-0.377-0.884-0.724-1.361-1.039c-1.941-1.157-4.247-1.538-6.457-1.067c-2.808,0.614-5.109,2.619-6.1,5.317
				C86.816,361.186,87.271,364.203,89.014,366.489L89.014,366.489z"/>
			<path style="fill:#428DFF;" d="M8.533,512.004H435.2c4.713,0,8.533-3.82,8.533-8.533c0-4.713-3.82-8.533-8.533-8.533h-34.133
				v-8.533c0-4.713-3.82-8.533-8.533-8.533s-8.533,3.82-8.533,8.533v8.533h-17.067v-8.533c0-4.713-3.82-8.533-8.533-8.533
				s-8.533,3.82-8.533,8.533v8.533H332.8v-8.533c0-4.713-3.821-8.533-8.533-8.533c-4.713,0-8.533,3.82-8.533,8.533v8.533h-17.067
				v-8.533c0-4.713-3.821-8.533-8.533-8.533c-4.713,0-8.533,3.82-8.533,8.533v8.533h-17.067v-8.533c0-4.713-3.821-8.533-8.533-8.533
				c-4.713,0-8.533,3.82-8.533,8.533v8.533H230.4v-8.533c0-4.713-3.821-8.533-8.533-8.533c-4.713,0-8.533,3.82-8.533,8.533v8.533
				h-17.067v-8.533c0-4.713-3.821-8.533-8.533-8.533s-8.533,3.82-8.533,8.533v8.533h-17.067v-8.533c0-4.713-3.82-8.533-8.533-8.533
				s-8.533,3.82-8.533,8.533v8.533H128v-8.533c0-4.713-3.821-8.533-8.533-8.533c-4.713,0-8.533,3.82-8.533,8.533v8.533H93.867
				v-8.533c0-4.713-3.821-8.533-8.533-8.533c-4.713,0-8.533,3.82-8.533,8.533v8.533H59.733v-8.533c0-4.713-3.821-8.533-8.533-8.533
				s-8.533,3.82-8.533,8.533v8.533H23.804l61.468-99.89c2.47-4.014,1.218-9.27-2.796-11.74c-4.014-2.47-9.27-1.218-11.74,2.796
				l-53.67,87.217V366.937h17.067c4.713,0,8.533-3.82,8.533-8.533s-3.821-8.533-8.533-8.533H17.067v-17.067h17.067
				c4.713,0,8.533-3.82,8.533-8.533s-3.821-8.533-8.533-8.533H17.067v-17.067h17.067c4.713,0,8.533-3.821,8.533-8.533
				c0-4.713-3.821-8.533-8.533-8.533H17.067v-17.067h17.067c4.713,0,8.533-3.821,8.533-8.533c0-4.713-3.821-8.533-8.533-8.533
				H17.067v-17.067h17.067c4.713,0,8.533-3.821,8.533-8.533c0-4.713-3.821-8.533-8.533-8.533H17.067v-17.067h17.067
				c4.713,0,8.533-3.821,8.533-8.533c0-4.713-3.821-8.533-8.533-8.533H17.067v-17.067h17.067c4.713,0,8.533-3.821,8.533-8.533
				s-3.821-8.533-8.533-8.533H17.067v-17.067h17.067c4.713,0,8.533-3.821,8.533-8.533c0-4.713-3.821-8.533-8.533-8.533H17.067
				V93.871h17.067c4.713,0,8.533-3.821,8.533-8.533c0-4.713-3.821-8.533-8.533-8.533H17.067V29.137l19.567,19.566
				c3.341,3.281,8.701,3.256,12.012-0.054s3.335-8.671,0.054-12.012L14.574,2.511C12.131,0.079,8.466-0.647,5.28,0.67
				S0.012,5.09,0,8.537v494.933c-0.001,2.263,0.898,4.434,2.499,6.035S6.27,512.005,8.533,512.004z"/>
			<circle style="fill:#428DFF;" cx="332.8" cy="375.471" r="8.533"/>
		</g>
	</g>
</g>
<g>
</g>
<g>
</g>
<g>
</g>
<g>
</g>
<g>
</g>
<g>
</g>
<g>
</g>
<g>
</g>
<g>
</g>
<g>
</g>
<g>
</g>
<g>
</g>
<g>
</g>
<g>
</g>
<g>
</g>
</svg>
