<?xml version="1.0" encoding="iso-8859-1"?>
<!-- Generator: Adobe Illustrator 19.0.0, SVG Export Plug-In . SVG Version: 6.00 Build 0)  -->
<svg version="1.1" id="Capa_1" xmlns="http://www.w3.org/2000/svg" xmlns:xlink="http://www.w3.org/1999/xlink" x="0px" y="0px"
	 viewBox="0 0 512 512" style="enable-background:new 0 0 512 512;" xml:space="preserve">
<g>
	<g transform="translate(1 1)">
		<g>
			<path style="fill:#E3E7F2;" d="M237.933,374.467h34.133V485.4c0,9.426-7.641,17.067-17.067,17.067
				c-9.426,0-17.067-7.641-17.067-17.067V374.467z"/>
			<path style="fill:#E3E7F2;" d="M317.976,383l54.187,93.867c3.049,5.274,3.052,11.774,0.009,17.052
				c-3.043,5.277-8.671,8.53-14.763,8.533c-6.092,0.003-11.723-3.244-14.771-8.518l-64-110.933h-47.275l-64,110.933
				c-4.713,8.153-15.143,10.942-23.296,6.229c-8.153-4.713-10.942-15.143-6.229-23.296L192.024,383l28.843-341.333
				c0-18.851,15.282-34.133,34.133-34.133s34.133,15.282,34.133,34.133L317.976,383z"/>
		</g>
		<path style="fill:#A4C2F7;" d="M24.6,41.667h460.8c9.426,0,17.067,7.641,17.067,17.067v307.2c0,9.426-7.641,17.067-17.067,17.067
			H24.6c-9.426,0-17.067-7.641-17.067-17.067v-307.2C7.533,49.308,15.174,41.667,24.6,41.667z"/>
		<path style="fill:#D4E1F4;" d="M24.6,41.667h435.2c9.426,0,17.067,7.641,17.067,17.067v307.2c0,9.426-7.641,17.067-17.067,17.067
			H24.6c-9.426,0-17.067-7.641-17.067-17.067v-307.2C7.533,49.308,15.174,41.667,24.6,41.667z"/>
		<path style="fill:#A4C2F7;" d="M58.733,229.4h136.533c9.426,0,17.067,7.641,17.067,17.067V331.8
			c0,9.426-7.641,17.067-17.067,17.067H58.733c-9.426,0-17.067-7.641-17.067-17.067v-85.333
			C41.667,237.041,49.308,229.4,58.733,229.4z"/>
		<path style="fill:#E3E7F2;" d="M58.733,229.4h110.933c9.426,0,17.067,7.641,17.067,17.067V331.8
			c0,9.426-7.641,17.067-17.067,17.067H58.733c-9.426,0-17.067-7.641-17.067-17.067v-85.333
			C41.667,237.041,49.308,229.4,58.733,229.4z"/>
		<path style="fill:#A4C2F7;" d="M212.333,246.467V255c-0.041,14.121-11.479,25.559-25.6,25.6H67.267
			c-14.121-0.041-25.559-11.479-25.6-25.6v-8.533c0.028-9.414,7.652-17.039,17.067-17.067h136.533
			C204.681,229.427,212.306,237.052,212.333,246.467z"/>
		<path style="fill:#E3E7F2;" d="M186.733,246.467V255c-0.041,14.121-11.479,25.559-25.6,25.6H67.267
			c-14.121-0.041-25.559-11.479-25.6-25.6v-8.533c0.028-9.414,7.652-17.039,17.067-17.067h110.933
			C179.081,229.427,186.706,237.052,186.733,246.467z"/>
	</g>
	<path style="fill:#FFFFFF;" d="M51.2,384c-9.414-0.028-17.039-7.652-17.067-17.067v-307.2c0.028-9.414,7.652-17.039,17.067-17.067
		H25.6c-9.414,0.028-17.039,7.652-17.067,17.067v307.2C8.561,376.348,16.186,383.972,25.6,384H51.2z"/>
	<g>
		<polygon style="fill:#FFFFFF;" points="17.067,59.733 17.067,170.667 17.067,366.933 0,366.933 0,170.667 0,59.733 		"/>
		<g>
			<path style="fill:#428DFF;" d="M95.078,221.867H59.733c-14.132,0.015-25.585,11.468-25.6,25.6V332.8
				c0.015,14.132,11.468,25.585,25.6,25.6h136.533c14.132-0.015,25.585-11.468,25.6-25.6v-85.333
				c-0.015-14.132-11.468-25.585-25.6-25.6h-35.345c-3.827-15.059-17.384-25.601-32.922-25.601S98.906,206.808,95.078,221.867z
				 M196.267,341.333H59.733c-4.711-0.005-8.529-3.822-8.533-8.533v-47.414c5.164,3.074,11.056,4.713,17.067,4.747h51.2v8.533
				c0,4.713,3.821,8.533,8.533,8.533s8.533-3.82,8.533-8.533v-8.533h51.2c6.01-0.034,11.902-1.673,17.067-4.747V332.8
				C204.795,337.511,200.978,341.329,196.267,341.333z M204.8,247.467V256c-0.011,9.421-7.645,17.056-17.067,17.067H68.267
				C58.845,273.056,51.211,265.421,51.2,256v-8.533c0.005-4.711,3.822-8.529,8.533-8.533h136.533
				C200.978,238.938,204.795,242.756,204.8,247.467z M128,213.333c6.096,0.002,11.727,3.254,14.775,8.533h-29.55
				C116.273,216.588,121.905,213.335,128,213.333z"/>
			<path style="fill:#428DFF;" d="M136.533,162.133c0.017-5.113,0.553-10.212,1.6-15.217c0.955-4.616-2.013-9.133-6.629-10.088
				c-4.616-0.955-9.133,2.013-10.088,6.629c-1.28,6.143-1.933,12.4-1.95,18.675c0,4.713,3.821,8.533,8.533,8.533
				S136.533,166.846,136.533,162.133z"/>
			<path style="fill:#428DFF;" d="M355.475,295.312c2.115,0.809,4.465,0.743,6.53-0.184c2.066-0.927,3.677-2.639,4.478-4.757
				c2.582-7.064,3.858-14.538,3.767-22.059c-0.016-4.904-0.439-9.799-1.267-14.633c-0.499-3.014-2.57-5.531-5.432-6.6
				c-2.861-1.07-6.076-0.529-8.43,1.419c-2.354,1.947-3.487,5.004-2.972,8.015c0.669,3.894,1.015,7.837,1.033,11.788
				c0.087,5.451-0.81,10.872-2.65,16.004C348.859,288.708,351.071,293.636,355.475,295.312z"/>
			<path style="fill:#428DFF;" d="M245.767,243.692c-2.257,0.158-4.359,1.207-5.842,2.915c-1.483,1.708-2.227,3.936-2.067,6.193
				c0.548,11.748,2.843,23.349,6.808,34.421c1.092,2.851,3.624,4.901,6.639,5.376c3.016,0.475,6.055-0.698,7.97-3.075
				c1.915-2.377,2.414-5.597,1.307-8.442c-3.338-9.491-5.261-19.42-5.708-29.471c-0.15-2.261-1.196-4.368-2.906-5.854
				C250.259,244.268,248.026,243.526,245.767,243.692z"/>
			<path style="fill:#428DFF;" d="M233.017,87.637c-3.737-2.872-9.095-2.17-11.967,1.567c-2.872,3.737-2.17,9.095,1.567,11.967
				c6.93,5.89,11.672,13.945,13.458,22.863c0.776,2.947,3.065,5.257,6.005,6.059c2.94,0.802,6.085-0.025,8.25-2.171
				c2.165-2.145,3.021-5.283,2.245-8.23C249.891,107.094,242.992,95.787,233.017,87.637z"/>
			<path style="fill:#428DFF;" d="M358.067,167.596c-2.075-0.903-4.424-0.944-6.529-0.112c-2.105,0.832-3.791,2.467-4.688,4.545
				c-3.989,9.584-5.963,19.887-5.8,30.267c0,1.863,0.056,3.739,0.167,5.629c0.26,4.51,3.991,8.035,8.508,8.038
				c0.167,0,0.333-0.004,0.5-0.013c2.26-0.131,4.375-1.155,5.88-2.846c1.505-1.691,2.277-3.911,2.145-6.171
				c-0.092-1.554-0.133-3.1-0.133-4.638c-0.157-8.042,1.334-16.032,4.383-23.475c0.901-2.076,0.94-4.426,0.108-6.531
				C361.777,170.185,360.143,168.496,358.067,167.596z"/>
			<path style="fill:#428DFF;" d="M303.05,324.267c6.346,0.035,12.683-0.449,18.95-1.446c4.648-0.773,7.79-5.168,7.017-9.817
				c-0.773-4.648-5.168-7.79-9.817-7.017c-9.741,1.617-19.682,1.624-29.425,0.021c-2.995-0.6-6.082,0.447-8.094,2.745
				c-2.012,2.298-2.643,5.496-1.653,8.386c0.99,2.89,3.449,5.03,6.447,5.611C291.938,323.789,297.489,324.297,303.05,324.267z"/>
			<path style="fill:#428DFF;" d="M248.367,162.046c-2.288-0.15-4.535,0.666-6.194,2.248s-2.58,3.788-2.539,6.081
				c-0.2,8.692-0.65,17.629-1.092,26.592l-0.292,5.842c-0.227,4.706,3.402,8.707,8.108,8.937l0.425,0.009
				c4.549-0.005,8.295-3.577,8.516-8.121l0.283-5.821c0.458-9.108,0.908-18.2,1.117-27.037
				C256.808,166.064,253.078,162.156,248.367,162.046z"/>
			<path style="fill:#428DFF;" d="M158.458,108.804c6.801-6.561,15.235-11.182,24.425-13.383c4.584-1.095,7.412-5.699,6.317-10.283
				c-1.095-4.584-5.699-7.412-10.283-6.317c-12.122,2.888-23.25,8.971-32.225,17.617c-2.209,2.102-3.129,5.223-2.413,8.187
				c0.716,2.964,2.958,5.321,5.883,6.183C153.087,111.67,156.249,110.906,158.458,108.804z"/>
			<path style="fill:#428DFF;" d="M394.225,154.979c5.069-0.951,10.218-1.413,15.375-1.379c4.713,0,8.533-3.821,8.533-8.533
				s-3.82-8.533-8.533-8.533c-6.254-0.033-12.496,0.535-18.642,1.696c-3,0.575-5.464,2.711-6.46,5.599s-0.372,6.088,1.636,8.39
				C388.143,154.52,391.228,155.573,394.225,154.979z"/>
			<path style="fill:#428DFF;" d="M429.167,168.166c1.6,1.601,3.77,2.5,6.033,2.5s4.433-0.899,6.033-2.5l11.033-11.033
				l11.034,11.034c2.151,2.178,5.304,3.037,8.262,2.251c2.958-0.786,5.269-3.097,6.055-6.055c0.786-2.958-0.073-6.111-2.251-8.262
				l-11.033-11.034l11.034-11.034c2.178-2.151,3.037-5.304,2.251-8.262s-3.097-5.269-6.055-6.055s-6.111,0.073-8.262,2.251
				L452.267,133l-11.034-11.034c-3.338-3.296-8.711-3.279-12.029,0.038c-3.317,3.317-3.334,8.691-0.038,12.029l11.033,11.034
				L429.166,156.1c-1.6,1.6-2.5,3.77-2.5,6.033C426.667,164.396,427.566,166.567,429.167,168.166z"/>
			<path style="fill:#428DFF;" d="M8.533,136.533c2.259-0.034,4.422-0.918,6.059-2.475c3.3-3.365,3.3-8.752,0-12.117l-1.279-1.025
				c-0.476-0.324-0.993-0.583-1.538-0.771c-0.484-0.246-1.003-0.417-1.538-0.509c-0.563-0.096-1.133-0.153-1.704-0.171
				c-2.259,0.031-4.423,0.915-6.059,2.475c-3.222,3.397-3.222,8.721,0,12.117c0.815,0.77,1.77,1.379,2.813,1.792
				C6.314,136.288,7.417,136.52,8.533,136.533z"/>
			<path style="fill:#428DFF;" d="M486.4,34.133H297.804C293.749,14.268,276.275,0,256,0s-37.749,14.268-41.804,34.133H25.6
				C11.468,34.149,0.015,45.601,0,59.733v34.133c0,4.713,3.821,8.533,8.533,8.533s8.533-3.821,8.533-8.533V59.733
				c0.005-4.711,3.822-8.529,8.533-8.533h460.8c4.711,0.005,8.529,3.822,8.533,8.533v307.2c-0.005,4.711-3.822,8.529-8.533,8.533
				H25.6c-4.711-0.005-8.529-3.822-8.533-8.533v-204.8c0-4.713-3.821-8.533-8.533-8.533S0,157.421,0,162.133v204.8
				c0.015,14.132,11.468,25.585,25.6,25.6h152.643l-46.818,81.092c-3.385,5.873-4.302,12.848-2.55,19.396
				c1.726,6.58,6.035,12.186,11.95,15.546c12.238,7.029,27.856,2.839,34.933-9.371l54.642-94.712V486.4
				c0,14.138,11.462,25.6,25.6,25.6c14.138,0,25.6-11.462,25.6-25.6v-81.917l54.633,94.696c7.076,12.216,22.696,16.413,34.942,9.388
				c5.915-3.36,10.224-8.966,11.95-15.546c1.753-6.558,0.83-13.544-2.567-19.421l-46.802-81.067H486.4
				c14.132-0.015,25.585-11.468,25.6-25.6v-307.2C511.985,45.601,500.532,34.149,486.4,34.133z M256,17.067
				c10.813,0.033,20.435,6.868,24.028,17.067h-48.055C235.565,23.934,245.187,17.1,256,17.067z M160.967,490.688
				c-2.372,4.066-7.591,5.441-11.658,3.071c-1.952-1.106-3.374-2.955-3.942-5.125c-0.583-2.195-0.275-4.532,0.858-6.5l51.729-89.6
				h19.639L160.967,490.688z M264.533,486.4c0,4.713-3.82,8.533-8.533,8.533s-8.533-3.821-8.533-8.533v-93.867h17.067V486.4z
				 M365.758,482.108c1.145,1.973,1.459,4.32,0.875,6.525c-0.568,2.17-1.99,4.019-3.942,5.125c-4.075,2.361-9.293,0.98-11.667-3.087
				l-56.618-98.138h19.639L365.758,482.108z"/>
		</g>
	</g>
</g>
<g>
</g>
<g>
</g>
<g>
</g>
<g>
</g>
<g>
</g>
<g>
</g>
<g>
</g>
<g>
</g>
<g>
</g>
<g>
</g>
<g>
</g>
<g>
</g>
<g>
</g>
<g>
</g>
<g>
</g>
</svg>
