<?xml version="1.0" encoding="iso-8859-1"?>
<!-- Generator: Adobe Illustrator 19.0.0, SVG Export Plug-In . SVG Version: 6.00 Build 0)  -->
<svg version="1.1" id="Capa_1" xmlns="http://www.w3.org/2000/svg" xmlns:xlink="http://www.w3.org/1999/xlink" x="0px" y="0px"
	 viewBox="0 0 512 512" style="enable-background:new 0 0 512 512;" xml:space="preserve">
<g>
	<g transform="translate(1 1)">
		<path style="fill:#A4C2F7;" d="M466.793,229.4h1.024v230.4c-0.028,9.414-7.653,17.039-17.067,17.067h-409.6
			c-9.414-0.028-17.039-7.653-17.067-17.067V229.4h1.024c-4.702-0.014-9.192-1.959-12.419-5.38
			c-3.227-3.42-4.907-8.016-4.648-12.711l6.571-110.933c0.559-9.016,8.033-16.042,17.067-16.043h428.544
			c9.033,0,16.508,7.027,17.067,16.043l6.571,110.933c0.259,4.695-1.421,9.291-4.648,12.711
			C475.985,227.441,471.495,229.386,466.793,229.4z"/>
		<path style="fill:#E3E7F2;" d="M442.217,229.4h1.024v230.4c0.001,4.527-1.796,8.868-4.997,12.069
			c-3.201,3.201-7.543,4.999-12.069,4.997H41.151c-9.414-0.028-17.039-7.653-17.067-17.067V229.4h1.024
			c-4.702-0.014-9.192-1.959-12.419-5.38c-3.227-3.42-4.907-8.016-4.648-12.711l6.571-110.933
			c0.559-9.016,8.033-16.042,17.067-16.043h404.053c9.004,0.036,16.434,7.055,16.981,16.043l6.571,110.933
			c0.259,4.695-1.421,9.291-4.648,12.711C451.409,227.441,446.919,229.386,442.217,229.4z"/>
		<path style="fill:#A4C2F7;" d="M294.306,84.333c0-26.317-19.617-42.667-51.2-42.667s-51.2,16.35-51.2,42.667h-34.133
			c0-44.772,34.133-76.8,85.333-76.8s85.333,32.028,85.333,76.8H294.306z"/>
		<path style="fill:#7FABFA;" d="M483.86,211.309c0.259,4.695-1.421,9.291-4.648,12.711c-3.227,3.42-7.717,5.365-12.419,5.38
			H297.151v-25.6c-0.027-9.414-7.652-17.039-17.067-17.067h-68.267c-9.414,0.028-17.039,7.652-17.067,17.067v25.6H25.108
			c-4.702-0.014-9.192-1.959-12.419-5.38c-3.227-3.42-4.907-8.016-4.648-12.711l6.571-110.933
			c0.559-9.016,8.033-16.042,17.067-16.043h428.544c9.033,0,16.508,7.027,17.067,16.043L483.86,211.309z"/>
		<g>
			<path style="fill:#E3E7F2;" d="M459.284,211.309c0.259,4.695-1.421,9.291-4.648,12.711c-3.227,3.42-7.717,5.365-12.419,5.38
				H297.151v-25.6c-0.027-9.414-7.652-17.039-17.067-17.067h-92.843c-9.414,0.028-17.039,7.652-17.067,17.067v25.6H25.108
				c-4.702-0.014-9.192-1.959-12.419-5.38c-3.227-3.42-4.907-8.016-4.648-12.711l6.571-110.933
				c0.559-9.016,8.033-16.042,17.067-16.043h404.053c9.004,0.036,16.434,7.055,16.981,16.043L459.284,211.309z"/>
			<path style="fill:#E3E7F2;" d="M211.817,186.733h68.267c9.426,0,17.067,7.641,17.067,17.067V255
				c0,9.426-7.641,17.067-17.067,17.067h-68.267c-9.426,0-17.067-7.641-17.067-17.067v-51.2
				C194.751,194.374,202.392,186.733,211.817,186.733z"/>
		</g>
		<path style="fill:#D4E1F4;" d="M211.817,272.067h68.267v78.042c0,18.166-14.726,32.892-32.892,32.892h-2.483
			c-8.723,0-17.09-3.465-23.258-9.634c-6.168-6.168-9.634-14.535-9.634-23.258V272.067z"/>
		<g>
			<path style="fill:#E3E7F2;" d="M348.351,400.067h34.133c9.426,0,17.067,7.641,17.067,17.067l0,0
				c0,9.426-7.641,17.067-17.067,17.067h-34.133c-9.426,0-17.067-7.641-17.067-17.067l0,0
				C331.284,407.708,338.925,400.067,348.351,400.067z"/>
			<path style="fill:#E3E7F2;" d="M348.351,434.2h34.133c9.426,0,17.067,7.641,17.067,17.067l0,0
				c0,9.426-7.641,17.067-17.067,17.067h-34.133c-9.426,0-17.067-7.641-17.067-17.067l0,0
				C331.284,441.841,338.925,434.2,348.351,434.2z"/>
			<path style="fill:#E3E7F2;" d="M348.351,468.333h34.133c9.426,0,17.067,7.641,17.067,17.067l0,0
				c0,9.426-7.641,17.067-17.067,17.067h-34.133c-9.426,0-17.067-7.641-17.067-17.067l0,0
				C331.284,475.974,338.925,468.333,348.351,468.333z"/>
			<path style="fill:#E3E7F2;" d="M280.084,434.2h34.133c9.426,0,17.067,7.641,17.067,17.067l0,0
				c0,9.426-7.641,17.067-17.067,17.067h-34.133c-9.426,0-17.067-7.641-17.067-17.067l0,0
				C263.017,441.841,270.658,434.2,280.084,434.2z"/>
			<path style="fill:#E3E7F2;" d="M348.351,365.933h34.133c9.426,0,17.067,7.641,17.067,17.067l0,0
				c0,9.426-7.641,17.067-17.067,17.067h-34.133c-9.426,0-17.067-7.641-17.067-17.067l0,0
				C331.284,373.574,338.925,365.933,348.351,365.933z"/>
			<path style="fill:#E3E7F2;" d="M280.084,468.333h34.133c9.426,0,17.067,7.641,17.067,17.067l0,0
				c0,9.426-7.641,17.067-17.067,17.067h-34.133c-9.426,0-17.067-7.641-17.067-17.067l0,0
				C263.017,475.974,270.658,468.333,280.084,468.333z"/>
		</g>
		<g>
			<path style="fill:#FFFFFF;" d="M255.906,8.318c-4.249-0.501-8.522-0.763-12.8-0.785c-51.2,0-85.333,32.028-85.333,76.8h25.6
				C183.373,43.421,211.926,13.234,255.906,8.318z"/>
			<path style="fill:#FFFFFF;" d="M24.084,229.4v230.4c0.028,9.414,7.653,17.039,17.067,17.067h25.6
				c-9.414-0.028-17.039-7.653-17.067-17.067V229.4h1.024c-4.702-0.014-9.192-1.959-12.419-5.38
				c-3.227-3.42-4.907-8.016-4.648-12.711l6.571-110.933c0.559-9.016,8.033-16.042,17.067-16.043h-25.6
				c-9.033,0-16.508,7.027-17.067,16.043L8.041,211.309c-0.259,4.695,1.421,9.291,4.648,12.711c3.227,3.42,7.717,5.365,12.419,5.38
				H24.084z"/>
		</g>
	</g>
	<g>
		<polygon style="fill:#FFFFFF;" points="33.617,230.4 33.617,341.333 33.617,460.8 16.551,460.8 16.551,341.333 16.551,230.4 		"/>
		<g>
			<path style="fill:#428DFF;" d="M16.551,237.011v27.522c0,4.713,3.821,8.533,8.533,8.533s8.533-3.82,8.533-8.533v-25.6h153.6V256
				c0.033,10.813,6.868,20.435,17.067,24.027v71.081c0.026,22.868,18.557,41.399,41.425,41.425h2.483
				c22.868-0.026,41.399-18.557,41.425-41.425v-71.081c10.199-3.592,17.033-13.215,17.067-24.028v-17.067h153.6v110.933
				c0,4.713,3.82,8.533,8.533,8.533s8.533-3.821,8.533-8.533V237.011c10.222-4.043,16.676-14.211,15.983-25.182L486.809,100.9
				c-0.8-13.528-11.999-24.091-25.55-24.1H340.404C336.273,31.17,299.027,0,246.951,0s-89.323,31.17-93.454,76.8H32.642
				c-13.55,0.008-24.748,10.57-25.55,24.096L0.568,211.821C-0.129,222.795,6.325,232.967,16.551,237.011z M272.551,351.108
				c-0.015,13.446-10.912,24.343-24.358,24.358h-2.483c-13.446-0.015-24.343-10.912-24.358-24.358V281.6h51.2V351.108z M289.617,256
				c-0.005,4.711-3.822,8.529-8.533,8.533h-68.267c-4.711-0.005-8.529-3.822-8.533-8.533v-51.2c0.005-4.711,3.822-8.529,8.533-8.533
				h68.267c4.711,0.005,8.529,3.822,8.533,8.533V256z M246.951,17.067c42.658,0,72.317,23.654,76.333,59.733h-17.225
				c-3.933-26.196-26.258-42.667-59.108-42.667S191.776,50.604,187.842,76.8h-17.225C174.634,40.721,204.292,17.067,246.951,17.067z
				 M288.58,76.8h-83.26c3.802-16.16,18.713-25.6,41.63-25.6S284.778,60.64,288.58,76.8z M24.126,101.892
				c0.27-4.506,4.002-8.023,8.517-8.025h428.617c4.516,0.002,8.248,3.521,8.516,8.029l6.525,110.942
				c0.136,2.345-0.701,4.641-2.312,6.35c-1.611,1.708-3.855,2.678-6.204,2.679h-161.1V204.8c-0.015-14.132-11.468-25.585-25.6-25.6
				h-68.267c-14.132,0.015-25.585,11.468-25.6,25.6v17.067h-161.1c-2.35-0.002-4.595-0.972-6.207-2.682
				c-1.612-1.71-2.447-4.009-2.309-6.355L24.126,101.892z"/>
			<path style="fill:#428DFF;" d="M16.551,460.8c0.015,14.132,11.468,25.585,25.6,25.6h187.733c4.713,0,8.533-3.82,8.533-8.533
				s-3.82-8.533-8.533-8.533H42.151c-4.711-0.005-8.529-3.822-8.533-8.533v-128c0-4.713-3.821-8.533-8.533-8.533
				s-8.533,3.82-8.533,8.533V460.8z"/>
			<path style="fill:#428DFF;" d="M25.084,307.2c2.259-0.034,4.422-0.918,6.059-2.475c3.3-3.365,3.3-8.752,0-12.117l-1.279-1.025
				c-0.476-0.324-0.993-0.583-1.538-0.771c-0.484-0.246-1.003-0.417-1.538-0.509c-0.563-0.096-1.133-0.153-1.704-0.171
				c-2.259,0.031-4.423,0.915-6.059,2.475c-3.221,3.397-3.221,8.72,0,12.117c0.815,0.771,1.77,1.379,2.813,1.792
				C22.865,306.955,23.968,307.187,25.084,307.2z"/>
			<path style="fill:#428DFF;" d="M383.484,358.4h-34.133c-10.117-0.044-19.303,5.899-23.408,15.146s-2.353,20.046,4.466,27.521
				c-7.118,7.682-8.69,18.987-3.938,28.32c-3.49-1.765-7.343-2.696-11.254-2.72h-34.133c-10.117-0.044-19.303,5.899-23.408,15.146
				c-4.105,9.247-2.353,20.046,4.466,27.521c-6.819,7.474-8.571,18.274-4.466,27.521c4.105,9.247,13.291,15.19,23.408,15.146h34.133
				c6.319-0.02,12.404-2.394,17.067-6.658c4.663,4.265,10.748,6.639,17.067,6.658h34.133c10.117,0.044,19.303-5.899,23.408-15.146
				c4.105-9.247,2.353-20.046-4.466-27.521c8.878-9.646,8.878-24.487,0-34.133c8.878-9.646,8.878-24.487,0-34.133
				c6.819-7.474,8.571-18.274,4.466-27.521S393.601,358.356,383.484,358.4z M349.351,375.467h34.133
				c4.713,0,8.533,3.821,8.533,8.533s-3.82,8.533-8.533,8.533h-34.133c-4.713,0-8.533-3.82-8.533-8.533
				S344.638,375.467,349.351,375.467z M392.017,418.133c-0.005,4.711-3.822,8.529-8.533,8.533h-34.133
				c-4.713,0-8.533-3.82-8.533-8.533s3.82-8.533,8.533-8.533h34.133C388.195,409.605,392.013,413.422,392.017,418.133z
				 M392.017,452.267c-0.005,4.711-3.822,8.529-8.533,8.533h-34.133c-4.713,0-8.533-3.82-8.533-8.533s3.82-8.533,8.533-8.533h34.133
				C388.195,443.738,392.013,447.556,392.017,452.267z M281.084,443.733h34.133c4.713,0,8.533,3.82,8.533,8.533
				s-3.82,8.533-8.533,8.533h-34.133c-4.713,0-8.533-3.82-8.533-8.533S276.371,443.733,281.084,443.733z M315.217,494.933h-34.133
				c-4.713,0-8.533-3.82-8.533-8.533s3.821-8.533,8.533-8.533h34.133c4.713,0,8.533,3.82,8.533,8.533
				S319.93,494.933,315.217,494.933z M383.484,494.933h-34.133c-4.713,0-8.533-3.82-8.533-8.533s3.82-8.533,8.533-8.533h34.133
				c4.713,0,8.533,3.82,8.533,8.533S388.197,494.933,383.484,494.933z"/>
			<path style="fill:#428DFF;" d="M494.417,420.571c0,4.713,3.82,8.533,8.533,8.533s8.533-3.82,8.533-8.533
				c0-16.192-14.434-29.296-34.133-32.268v-1.865c0-4.713-3.82-8.533-8.533-8.533s-8.533,3.821-8.533,8.533v1.865
				c-19.699,2.972-34.133,16.076-34.133,32.268c0,16.196,14.434,29.3,34.133,32.272v31.292c-9.712-2.287-17.067-8.199-17.067-14.802
				c0-4.713-3.82-8.533-8.533-8.533s-8.533,3.821-8.533,8.533c0,16.192,14.434,29.296,34.133,32.268v1.866
				c0,4.713,3.82,8.533,8.533,8.533s8.533-3.82,8.533-8.533v-1.865c19.699-2.972,34.133-16.076,34.133-32.268
				c0-16.192-14.434-29.296-34.133-32.268v-31.297C487.063,408.055,494.417,413.968,494.417,420.571z M443.217,420.571
				c0-6.603,7.354-12.516,17.067-14.803v29.608C450.571,433.089,443.217,427.173,443.217,420.571z M494.417,469.333
				c0,6.603-7.354,12.515-17.067,14.802v-29.605C487.063,456.818,494.417,462.731,494.417,469.333z"/>
			<circle style="fill:#428DFF;" cx="246.951" cy="349.867" r="8.533"/>
			<circle style="fill:#428DFF;" cx="246.951" cy="315.733" r="8.533"/>
		</g>
	</g>
</g>
<g>
</g>
<g>
</g>
<g>
</g>
<g>
</g>
<g>
</g>
<g>
</g>
<g>
</g>
<g>
</g>
<g>
</g>
<g>
</g>
<g>
</g>
<g>
</g>
<g>
</g>
<g>
</g>
<g>
</g>
</svg>
