<?xml version="1.0" encoding="iso-8859-1"?>
<!-- Generator: Adobe Illustrator 19.0.0, SVG Export Plug-In . SVG Version: 6.00 Build 0)  -->
<svg version="1.1" id="Capa_1" xmlns="http://www.w3.org/2000/svg" xmlns:xlink="http://www.w3.org/1999/xlink" x="0px" y="0px"
	 viewBox="0 0 512.02 512.02" style="enable-background:new 0 0 512.02 512.02;" xml:space="preserve">
<g>
	<g transform="translate(1 1)">
		<path style="fill:#A4C2F7;" d="M468.333,323.277v34.133l-153.6,51.2l-22.357-1.024l-156.843-7.509L105.581,287.01
			c25.685-41.216,87.552-71.083,161.365-74.325c4.523-0.256,9.045-0.341,13.653-0.341c99.328,0,180.651,48.043,187.221,108.885
			L468.333,323.277z"/>
		<path style="fill:#E3E7F2;" d="M442.733,323.277v34.133l-150.357,50.176l-156.843-7.509L105.581,287.01
			c25.685-41.216,87.552-71.083,161.365-74.325c93.867,3.584,168.96,50.176,175.275,108.544L442.733,323.277z"/>
		<path style="fill:#A4C2F7;" d="M280.711,135.48c0,0-12.263-110.87,221.489-110.87C502.2,24.61,519.242,135.48,280.711,135.48z"/>
		<g>
			<path style="fill:#E3E7F2;" d="M280.698,135.48c0,0-10.848-110.87,195.933-110.87C476.631,24.61,491.706,135.48,280.698,135.48z"
				/>
			<path style="fill:#E3E7F2;" d="M280.6,178.21c0,0,5.656-68.203-102.158-68.203C178.442,110.007,170.582,178.21,280.6,178.21z"/>
		</g>
		<path style="fill:#A4C2F7;" d="M84.333,289.144v179.2c0,4.526-1.798,8.868-4.998,12.068s-7.542,4.999-12.068,4.998H24.6
			c-9.414-0.028-17.039-7.652-17.067-17.067v-179.2c0.028-9.414,7.652-17.039,17.067-17.067h42.667
			C76.681,272.104,84.306,279.729,84.333,289.144z"/>
		<path style="fill:#E3E7F2;" d="M58.733,289.144v179.2c0,4.526-1.798,8.868-4.998,12.068c-3.201,3.201-7.542,4.999-12.068,4.998
			H24.6c-9.414-0.028-17.039-7.652-17.067-17.067v-179.2c0.028-9.414,7.652-17.039,17.067-17.067h17.067
			C51.081,272.104,58.706,279.729,58.733,289.144z"/>
		<path style="fill:#A4C2F7;" d="M491.203,370.808l-159.915,97.365c-9.359,5.696-20.105,8.708-31.061,8.704H84.333l-2.048-0.427
			c1.335-2.494,2.038-5.278,2.048-8.107v-179.2h23.893c17.677,0.025,34.823,6.041,48.64,17.067
			c13.817,11.026,30.963,17.042,48.64,17.067h44.629c15.004-0.022,28.912,7.856,36.608,20.736l0.768,1.28
			c7.123,11.903,5.411,27.099-4.181,37.12c-0.145,0.22-0.317,0.42-0.512,0.597h20.053c3.686,0.002,7.348-0.604,10.837-1.792
			l151.637-50.517l6.315-2.133c9.56-3.139,20.058,0.155,26.112,8.192v0.085c3.966,5.267,5.515,11.968,4.263,18.442
			C500.783,361.76,496.847,367.4,491.203,370.808z"/>
		<path style="fill:#D4E1F4;" d="M465.603,370.808l-159.915,97.365c-9.359,5.696-20.105,8.708-31.061,8.704H84.333l-2.048-0.427
			c1.335-2.494,2.038-5.278,2.048-8.107V289.229c17.084,0.355,33.577,6.322,46.933,16.981c13.817,11.026,30.963,17.042,48.64,17.067
			h44.629c15.004-0.022,28.912,7.856,36.608,20.736l0.768,1.28c7.275,12.16,5.34,27.711-4.693,37.717h20.053
			c2.035,0.017,4.066-0.183,6.059-0.597c-0.145,0.22-0.317,0.42-0.512,0.597h20.053c3.686,0.002,7.348-0.604,10.837-1.792
			l151.637-50.517c2.657,1.543,4.979,3.603,6.827,6.059v0.085c3.966,5.267,5.515,11.968,4.263,18.442
			C475.184,361.76,471.247,367.4,465.603,370.808z"/>
	</g>
	<g transform="translate(1 11)">
		<path style="fill:#FFFFFF;" d="M280.6,168.21c0,0,0.039-0.528,0.047-1.433c-75.244-8.799-77.045-56.349-76.699-65.293
			c-8.464-1.007-16.982-1.501-25.506-1.478C178.442,100.007,170.582,168.21,280.6,168.21z"/>
		<path style="fill:#FFFFFF;" d="M24.6,475.41h25.6c-9.414-0.028-17.039-7.652-17.067-17.067v-179.2
			c0.028-9.414,7.652-17.039,17.067-17.067H24.6c-9.414,0.027-17.039,7.652-17.067,17.067v179.2
			C7.561,467.758,15.186,475.383,24.6,475.41z"/>
		<path style="fill:#FFFFFF;" d="M109.933,279.144h21.813l-0.565-2.133c25.663-41.18,87.446-71.027,161.173-74.313
			c-3.905-0.151-7.788-0.354-11.754-0.354c-4.608,0-9.131,0.085-13.653,0.341c-71.139,3.125-131.081,31.014-158.332,69.925
			C109.484,274.679,109.932,276.9,109.933,279.144z"/>
		<path style="fill:#FFFFFF;" d="M107.885,466.45c-0.085,0.155-0.222,0.274-0.312,0.427h2.36L107.885,466.45z"/>
	</g>
	<g>
		<polygon style="fill:#FFFFFF;" points="17.067,290.144 17.067,401.077 17.067,469.344 0,469.344 0,401.077 0,290.144 		"/>
		<g>
			<path style="fill:#428DFF;" d="M8.533,366.944c2.259-0.034,4.422-0.918,6.059-2.475c3.3-3.365,3.3-8.752,0-12.117l-1.279-1.025
				c-0.476-0.324-0.993-0.583-1.538-0.771c-0.484-0.246-1.003-0.417-1.538-0.509c-0.563-0.096-1.133-0.153-1.704-0.171
				c-2.259,0.031-4.423,0.915-6.059,2.475c-3.222,3.397-3.222,8.721,0,12.117c0.815,0.771,1.77,1.379,2.813,1.792
				C6.314,366.699,7.417,366.931,8.533,366.944z"/>
			<path style="fill:#428DFF;" d="M25.6,494.944h42.667c7.24-0.02,14.129-3.123,18.942-8.533h214.017
				c12.521,0.001,24.801-3.443,35.496-9.954l159.954-97.363c7.682-4.681,13.034-12.384,14.742-21.217
				c1.703-8.557-0.233-17.436-5.342-24.508c-0.151-0.251-0.315-0.495-0.492-0.729c-6.662-8.866-17.462-13.619-28.499-12.542
				c-7.771-62.921-88.751-112.29-186.972-115.023l-0.021-25.112l0.013-0.048c0.103-1.753,0.097-3.511-0.018-5.264l-0.025-29.741
				c99.304-1.09,166.829-21.509,200.589-60.853c15.001-16.128,22.605-37.776,20.983-59.742c-0.642-4.162-4.222-7.235-8.433-7.237
				c-101.275,0-170.762,20.258-206.542,60.217c-14.633,15.377-23.036,35.64-23.58,56.861c-0.258-0.29-0.479-0.584-0.745-0.873
				c-18.817-20.442-50.071-30.808-92.892-30.808c-4.335,0.002-7.981,3.252-8.479,7.558c-0.993,17.029,4.902,33.742,16.358,46.379
				c17.287,19.394,46.192,29.747,85.709,31.068l0.015,17.536c-76.3,2.07-143.012,31.573-172.397,76.596h-8.354
				c-3.593-10.199-13.215-17.033-24.028-17.066H25.6c-14.132,0.015-25.585,11.468-25.6,25.6v34.133c0,4.713,3.821,8.533,8.533,8.533
				s8.533-3.82,8.533-8.533v-34.133c0.006-4.71,3.823-8.527,8.533-8.533h42.667c4.71,0.006,8.527,3.823,8.533,8.533v179.2
				c-0.006,4.71-3.823,8.527-8.533,8.533H25.6c-4.71-0.006-8.527-3.823-8.533-8.533v-76.8c0-4.713-3.821-8.533-8.533-8.533
				S0,387.831,0,392.544v76.8C0.015,483.476,11.468,494.928,25.6,494.944z M491.467,342.194c0.15,0.25,0.317,0.492,0.492,0.729
				c2.511,3.349,3.492,7.603,2.702,11.714c-0.79,4.111-3.278,7.698-6.852,9.878l-159.963,97.367
				c-8.021,4.882-17.231,7.464-26.621,7.463H93.867V298.677h15.346c15.745,0.02,31.017,5.377,43.325,15.196
				c15.334,12.237,34.365,18.913,53.983,18.938h44.633c11.984,0.035,23.081,6.322,29.271,16.583l0.758,1.254
				c4.659,7.765,4.159,17.577-1.264,24.829h-51.866c-16.848-0.017-33.322,4.971-47.329,14.333l-6.254,4.167
				c-2.552,1.684-4.009,4.605-3.817,7.656c0.191,3.052,2.001,5.768,4.744,7.119c2.743,1.352,5.999,1.132,8.536-0.576l6.254-4.167
				c11.208-7.489,24.387-11.48,37.867-11.466h75.85c4.585,0,9.141-0.739,13.491-2.188l157.963-52.654
				C481.139,335.711,487.55,337.498,491.467,342.194z M309.825,88.177c21.871-24.062,71.692-52.642,184.992-53.983
				c-1.41,14.417-7.413,28.001-17.125,38.75c-21.008,24.488-70.55,53.567-187.217,54.955
				C292.619,112.962,299.386,99.072,309.825,88.177z M200.304,145.323c-6.518-7.127-10.725-16.061-12.067-25.625
				c33.067,1.237,57.025,9.587,71.287,24.871c6.783,7.182,11.299,16.204,12.983,25.938
				C238.938,169.202,214.083,160.564,200.304,145.323z M273.059,222.08l0.007,8.339c0.005,4.709,3.824,8.524,8.533,8.525h0.009
				c4.713-0.005,8.529-3.829,8.525-8.542l-0.007-8.274c90.244,2.605,164.269,45.967,170.215,101.016
				c0.1,0.488,0.245,0.966,0.433,1.428L312,374.164c-2.611,0.87-5.344,1.313-8.096,1.313h-4.903
				c4.054-11.114,2.883-23.463-3.188-33.617l-0.758-1.254c-9.285-15.387-25.928-24.813-43.9-24.862h-44.633
				c-15.745-0.02-31.017-5.377-43.325-15.196c-12.148-9.665-26.668-15.892-42.044-18.029
				C150.004,247.413,208.423,223.994,273.059,222.08L273.059,222.08z"/>
		</g>
	</g>
</g>
<g>
</g>
<g>
</g>
<g>
</g>
<g>
</g>
<g>
</g>
<g>
</g>
<g>
</g>
<g>
</g>
<g>
</g>
<g>
</g>
<g>
</g>
<g>
</g>
<g>
</g>
<g>
</g>
<g>
</g>
</svg>
