<?xml version="1.0" encoding="iso-8859-1"?>
<!-- Generator: Adobe Illustrator 19.0.0, SVG Export Plug-In . SVG Version: 6.00 Build 0)  -->
<svg version="1.1" id="Capa_1" xmlns="http://www.w3.org/2000/svg" xmlns:xlink="http://www.w3.org/1999/xlink" x="0px" y="0px"
	 viewBox="0 0 512 512" style="enable-background:new 0 0 512 512;" xml:space="preserve">
<g>
	<g transform="translate(11 4)">
		<path style="fill:#A4C2F7;" d="M168.154,439.733h153.6V482.4c0,4.713-3.82,8.533-8.533,8.533H176.687
			c-4.713,0-8.533-3.82-8.533-8.533V439.733z"/>
		<path style="fill:#E3E7F2;" d="M168.154,439.733h128v43.41c0,4.302-3.488,7.79-7.79,7.79h-112.42c-4.302,0-7.79-3.488-7.79-7.79
			V439.733z"/>
		<path style="fill:#A4C2F7;" d="M364.079,331.787L321.754,456.8h-153.6l-42.325-124.928c-0.81-2.684-0.323-5.593,1.316-7.867
			c1.639-2.275,4.244-3.657,7.047-3.738h221.525c2.781,0.092,5.364,1.463,6.998,3.715
			C364.349,326.234,364.853,329.114,364.079,331.787z"/>
		<path style="fill:#D4E1F4;" d="M338.479,331.787L296.154,456.8h-128l-42.325-124.928c-0.81-2.684-0.323-5.593,1.316-7.867
			c1.639-2.275,4.244-3.657,7.047-3.738h195.925c2.781,0.092,5.364,1.463,6.998,3.715
			C338.749,326.234,339.253,329.114,338.479,331.787z"/>
		<path style="fill:#A4C2F7;" d="M244.954,260.533c-51.841,0-93.867,26.743-93.867,59.733H338.82
			C338.82,287.277,296.795,260.533,244.954,260.533z"/>
		<path style="fill:#E3E7F2;" d="M232.154,260.533c-44.772,0-81.067,26.743-81.067,59.733H313.22
			C313.22,287.277,276.926,260.533,232.154,260.533z"/>
		<path style="fill:#A4C2F7;" d="M322.607,159.413c-15.883,34.73-52.868,54.72-90.624,48.981
			c-7.751-1.223-15.301-3.491-22.443-6.741c-31.408-14.323-51.095-46.156-49.881-80.654c1.214-34.498,23.089-64.869,55.426-76.949
			s68.767-3.492,92.303,21.76C330.924,91.062,336.93,128.005,322.607,159.413z"/>
		<path style="fill:#E3E7F2;" d="M297.007,159.413c-11.963,26.3-36.444,44.741-65.024,48.981
			c-7.751-1.223-15.301-3.491-22.443-6.741c-34.404-15.68-54.386-52.13-49.103-89.567c5.283-37.437,34.573-66.934,71.972-72.481
			c26.385,4.147,49.318,20.383,61.994,43.893C307.079,107.008,308.042,135.09,297.007,159.413z"/>
	</g>
	<g transform="translate(11 5)">
		<path style="fill:#FFFFFF;" d="M209.54,200.653c7.142,3.25,14.692,5.518,22.443,6.741c8.451,1.275,17.046,1.267,25.495-0.024
			c-7.714-1.224-15.228-3.484-22.338-6.717c-34.347-15.646-54.331-52.002-49.133-89.385c5.198-37.383,34.343-66.907,71.655-72.589
			c-8.366-1.291-16.88-1.316-25.254-0.074c-37.399,5.547-66.689,35.043-71.972,72.481
			C155.154,148.523,175.137,184.973,209.54,200.653z"/>
		<path style="fill:#FFFFFF;" d="M168.154,455.8v26.343c0,2.066,0.821,4.047,2.281,5.508c1.461,1.461,3.442,2.282,5.508,2.282h25.6
			c-2.066,0-4.047-0.821-5.508-2.282c-1.461-1.461-2.281-3.442-2.281-5.508V455.8l-42.325-124.928
			c-0.81-2.684-0.323-5.593,1.316-7.867c1.639-2.275,4.244-3.657,7.047-3.738h16.896c0-31.515,33.143-57.266,75.135-59.512
			c-2.277-0.105-4.549-0.221-6.868-0.221c-2.319,0-4.592,0.116-6.868,0.221c-1.966-0.105-3.929-0.221-5.932-0.221
			c-44.772,0-81.067,26.743-81.067,59.733h-16.896c-2.803,0.081-5.408,1.463-7.047,3.738c-1.639,2.275-2.126,5.183-1.316,7.867
			L168.154,455.8z"/>
	</g>
	<g>
		<polygon style="fill:#FFFFFF;" points="171.073,463.539 135.48,358.468 128.747,338.603 144.909,333.124 151.642,352.998 
			187.235,458.061 		"/>
		<g>
			<path style="fill:#428DFF;" d="M153.455,403.825l1.541,0.56c0.555,0.154,1.128,0.234,1.704,0.236
				c0.537,0.077,1.083,0.074,1.619-0.012c0.564-0.09,1.122-0.219,1.669-0.385c2.13-0.755,3.895-2.286,4.944-4.288
				c1.321-2.553,1.247-5.604-0.197-8.09c-1.444-2.486-4.057-4.062-6.929-4.18c-1.113-0.085-2.232,0.049-3.293,0.394
				c-3.264,1.12-5.537,4.088-5.768,7.531C148.512,399.035,150.369,402.28,153.455,403.825z"/>
			<path style="fill:#428DFF;" d="M259.991,175.617c8.172-1.706,15.045-7.199,18.511-14.794c3.466-7.595,3.112-16.386-0.953-23.677
				c-2.571-4.907-6.238-9.154-10.717-12.414l9.625-21.093c1.131,1.175,2.095,2.501,2.862,3.94c1.536,2.718,1.779,5.98,0.663,8.896
				c-1.265,2.773-0.955,6.011,0.814,8.493c1.769,2.482,4.728,3.833,7.762,3.542c3.034-0.291,5.683-2.178,6.948-4.952
				c3.308-7.626,2.956-16.344-0.954-23.679c-2.57-4.906-6.238-9.154-10.717-12.412l1.133-2.484c1.942-4.284,0.05-9.332-4.23-11.284
				c-4.279-1.952-9.332-0.073-11.295,4.201l-1.133,2.482c-5.396-1.248-11.007-1.234-16.396,0.043
				c-8.172,1.706-15.045,7.199-18.511,14.794c-3.466,7.595-3.112,16.386,0.953,23.677c2.571,4.907,6.238,9.154,10.717,12.414
				l-9.625,21.093c-1.131-1.175-2.095-2.501-2.863-3.94c-1.536-2.718-1.779-5.98-0.663-8.896c1.265-2.773,0.955-6.011-0.814-8.493
				c-1.769-2.482-4.728-3.833-7.762-3.542c-3.034,0.291-5.683,2.178-6.948,4.952c-3.308,7.626-2.956,16.344,0.954,23.679
				c2.57,4.906,6.238,9.154,10.717,12.412l-1.133,2.484c-1.956,4.287-0.066,9.348,4.221,11.304
				c4.287,1.956,9.348,0.066,11.305-4.221l1.09-2.389c2.636,0.583,5.327,0.881,8.027,0.89
				C254.415,176.649,257.24,176.304,259.991,175.617z M249.591,111.2c-1.536-2.718-1.779-5.98-0.662-8.896
				c1.471-2.754,4.094-4.708,7.154-5.329c1.59-0.365,3.222-0.507,4.851-0.421l-8.48,18.584
				C251.323,113.963,250.36,112.638,249.591,111.2z M259.454,140.904c1.131,1.175,2.094,2.5,2.862,3.938
				c1.728,2.657,1.978,6.013,0.662,8.896c-1.316,2.883-4.015,4.894-7.154,5.329c-1.59,0.364-3.222,0.506-4.851,0.422
				L259.454,140.904z"/>
			<path style="fill:#428DFF;" d="M221.82,358.4c-4.713,0-8.533,3.82-8.533,8.533v25.6c0,4.713,3.821,8.533,8.533,8.533h68.267
				c4.713,0,8.533-3.82,8.533-8.533v-25.6c0-4.713-3.82-8.533-8.533-8.533s-8.533,3.82-8.533,8.533V384h-51.2v-17.067
				C230.354,362.221,226.533,358.4,221.82,358.4z"/>
			<path style="fill:#428DFF;" d="M136.487,452.267v17.067c-4.713,0-8.533,3.821-8.533,8.533s3.821,8.533,8.533,8.533v17.067
				c0,4.713,3.821,8.533,8.533,8.533c4.713,0,8.533-3.82,8.533-8.533V486.4h17.067v8.533c0,4.713,3.821,8.533,8.533,8.533h153.6
				c4.713,0,8.533-3.821,8.533-8.533V486.4h17.067v17.067c0,4.713,3.821,8.533,8.533,8.533c4.713,0,8.533-3.82,8.533-8.533V486.4
				c4.713,0,8.533-3.82,8.533-8.533s-3.82-8.533-8.533-8.533v-17.067c0-4.713-3.821-8.533-8.533-8.533
				c-4.713,0-8.533,3.82-8.533,8.533v17.067h-17.067v-7.125L383.341,338c1.461-5.372,0.321-11.118-3.079-15.525
				c-3.222-4.249-8.247-6.744-13.579-6.741h-9.173c-5.797-32.246-44.005-56.869-93.022-59.455v-35.013
				c48.369-4.248,85.473-44.754,85.473-93.309s-37.104-89.061-85.473-93.309V8.533c0-4.713-3.82-8.533-8.533-8.533
				s-8.533,3.821-8.533,8.533V34.65c-48.357,4.325-85.416,44.846-85.416,93.396s37.059,89.071,85.416,93.396v34.837
				c-49.017,2.586-87.226,27.209-93.022,59.455h-9.173c-5.352-0.003-10.394,2.511-13.613,6.788
				c-3.403,4.433-4.522,10.209-3.021,15.592c0.047,0.173,0.174,0.293,0.232,0.461l-0.079,0.027l9.47,27.953
				c0.978,2.888,3.423,5.034,6.412,5.63c2.99,0.597,6.071-0.447,8.082-2.738c2.012-2.291,2.648-5.481,1.67-8.368l-9.318-27.505
				c-0.066-0.269-0.006-0.553,0.164-0.771l221.787,0.267l-40.379,119.2H185.272l-8.989-26.533
				c-1.528-4.442-6.358-6.813-10.807-5.306c-4.449,1.507-6.843,6.326-5.357,10.782l10.501,30.996v7.128h-17.067v-17.067
				c0-4.713-3.821-8.533-8.533-8.533C140.307,443.733,136.487,447.554,136.487,452.267z M186.083,96.137
				c12.896-28.26,41.545-45.969,72.589-44.87s58.369,20.791,69.233,49.892s3.129,61.882-19.6,83.056s-55.974,26.572-84.234,13.676
				C185.529,180.239,168.539,134.728,186.083,96.137z M255.954,273.067c41.425,0,77.092,18.804,84.092,42.667H171.862
				C178.862,291.871,214.529,273.067,255.954,273.067z M324.22,469.333V486.4H187.687v-17.067H324.22z"/>
			<path style="fill:#428DFF;" d="M48.653,202.3l19.567-19.566V281.6c0,4.713,3.821,8.533,8.533,8.533s8.533-3.821,8.533-8.533
				v-98.867l19.567,19.567c3.338,3.296,8.711,3.279,12.029-0.038s3.334-8.691,0.038-12.029l-34.131-34.131
				c-3.34-3.319-8.732-3.319-12.072,0l-34.13,34.131c-3.281,3.341-3.256,8.701,0.054,12.012
				C39.952,205.556,45.313,205.58,48.653,202.3z"/>
			<path style="fill:#428DFF;" d="M407.053,48.7l19.567-19.566V128c0,4.713,3.821,8.533,8.533,8.533s8.533-3.821,8.533-8.533V29.133
				L463.254,48.7c2.151,2.178,5.304,3.037,8.262,2.251c2.958-0.786,5.269-3.097,6.055-6.055c0.786-2.958-0.073-6.111-2.251-8.262
				L441.19,2.503c-3.34-3.319-8.732-3.319-12.072,0l-34.13,34.131c-3.281,3.341-3.256,8.701,0.054,12.012
				C398.352,51.956,403.713,51.98,407.053,48.7z"/>
		</g>
	</g>
</g>
<g>
</g>
<g>
</g>
<g>
</g>
<g>
</g>
<g>
</g>
<g>
</g>
<g>
</g>
<g>
</g>
<g>
</g>
<g>
</g>
<g>
</g>
<g>
</g>
<g>
</g>
<g>
</g>
<g>
</g>
</svg>
