<?xml version="1.0" encoding="iso-8859-1"?>
<!-- Generator: Adobe Illustrator 19.0.0, SVG Export Plug-In . SVG Version: 6.00 Build 0)  -->
<svg version="1.1" id="Capa_1" xmlns="http://www.w3.org/2000/svg" xmlns:xlink="http://www.w3.org/1999/xlink" x="0px" y="0px"
	 viewBox="0 0 512.003 512.003" style="enable-background:new 0 0 512.003 512.003;" xml:space="preserve">
<g>
	<g transform="translate(1)">
		<g>
			<path style="fill:#E3E7F2;" d="M222.746,110.937H101.402c-9.414-0.028-17.039-7.652-17.067-17.067
				c0.068-9.397,7.669-16.999,17.067-17.067h121.344"/>
			<path style="fill:#E3E7F2;" d="M238.106,145.07H101.402c-9.414-0.028-17.039-7.652-17.067-17.067
				c0.068-9.397,7.669-16.999,17.067-17.067h121.344"/>
			<path style="fill:#E3E7F2;" d="M238.106,145.07H101.402c-9.397,0.068-16.999,7.669-17.067,17.067
				c0.028,9.414,7.652,17.039,17.067,17.067h136.533c9.397-0.068,16.999-7.669,17.067-17.067v-0.085"/>
			<path style="fill:#E3E7F2;" d="M383.002,217.262l-8.789,15.36l-19.883,37.291c-3.915,7.36-12.569,10.822-20.48,8.192
				l-78.848-26.453l-0.256-0.085l-71.765-24.064c-7.824-2.669-16.432,0.681-20.395,7.936l-27.307,49.835l-8.277,14.165L7.535,503.47
				h494.933V8.537L383.002,217.262z"/>
			<path style="fill:#E3E7F2;" d="M255.002,251.651V503.47h-128V299.438l8.277-14.165l27.307-49.835
				c3.962-7.255,12.571-10.604,20.395-7.936l71.765,24.064L255.002,251.651z"/>
			<path style="fill:#E3E7F2;" d="M383.002,217.262V503.47h-128V251.651l78.848,26.453c7.911,2.63,16.565-0.832,20.48-8.192
				l19.883-37.291L383.002,217.262z"/>
		</g>
		<polygon style="fill:#A4C2F7;" points="502.468,8.537 502.468,503.47 383.002,503.47 383.002,217.262 476.868,53.251 		"/>
		<polygon style="fill:#E3E7F2;" points="476.868,53.251 476.868,503.47 383.002,503.47 383.002,217.262 		"/>
		<path style="fill:#A4C2F7;" d="M383.94,129.283c-15.832,34.82-52.91,54.842-90.709,48.981c-7.721-1.235-15.241-3.503-22.357-6.741
			c-31.42-14.321-51.119-46.161-49.908-80.67c1.211-34.509,23.091-64.89,55.438-76.974c32.347-12.084,68.788-3.491,92.328,21.771
			S398.275,97.869,383.94,129.283z"/>
		<path style="fill:#E3E7F2;" d="M358.255,129.283c-11.991,26.277-36.458,44.708-65.024,48.981
			c-7.721-1.235-15.241-3.503-22.357-6.741c-34.343-15.711-54.283-52.12-49.025-89.519c5.258-37.399,34.465-66.898,71.809-72.529
			c26.385,4.147,49.318,20.383,61.994,43.893S369.291,104.96,358.255,129.283z"/>
	</g>
	<g transform="translate(1 1)">
		<path style="fill:#FFFFFF;" d="M84.335,161.137c0.028,9.414,7.653,17.039,17.067,17.067h25.6
			c-9.414-0.028-17.039-7.653-17.067-17.067c0.068-9.397,7.669-16.999,17.067-17.067c-9.414-0.028-17.039-7.653-17.067-17.067
			c0.068-9.397,7.669-16.999,17.067-17.067c-9.414-0.028-17.039-7.653-17.067-17.067c0.068-9.397,7.669-16.999,17.067-17.067h-25.6
			c-9.397,0.068-16.999,7.669-17.067,17.067c0.028,9.414,7.653,17.039,17.067,17.067c-9.397,0.068-16.999,7.669-17.067,17.067
			c0.028,9.414,7.653,17.039,17.067,17.067C92.004,144.138,84.403,151.739,84.335,161.137z"/>
		<path style="fill:#FFFFFF;" d="M152.602,298.438l8.277-14.165l27.307-49.835c1.01-1.855,2.364-3.502,3.988-4.853l-9.193-3.083
			c-7.824-2.669-16.432,0.681-20.395,7.936l-27.307,49.835l-8.277,14.165L7.535,502.47h25.6L152.602,298.438z"/>
		<path style="fill:#FFFFFF;" d="M374.212,231.622l-19.883,37.291c-1.052,1.945-2.47,3.668-4.177,5.073l9.297,3.119
			c7.911,2.63,16.565-0.832,20.48-8.192l19.883-37.291l8.789-15.36l93.867-164.011V7.537l-25.6,44.715l-93.867,164.011
			L374.212,231.622z"/>
	</g>
	<g>
		<polygon style="fill:#FFFFFF;" points="1.171,499.161 57.218,403.425 128.906,280.963 143.635,289.591 71.946,412.044 
			15.899,507.779 		"/>
		<g>
			<path style="fill:#428DFF;" d="M102.402,187.737h136.533c8.948,0.012,17.239-4.694,21.815-12.383
				c2.47,1.407,4.996,2.739,7.614,3.933c34.539,15.761,75.171,9.164,102.95-16.715c27.778-25.879,37.233-65.943,23.954-101.51
				c-13.277-35.568-46.673-59.635-84.614-60.979c-37.941-1.344-72.956,20.301-88.715,54.841c-1.934,4.322-3.542,8.784-4.809,13.346
				H102.402c-14.111,0.066-25.534,11.489-25.6,25.6c0.019,6.332,2.402,12.428,6.682,17.095c-4.295,4.634-6.682,10.72-6.682,17.039
				c0.019,6.332,2.402,12.428,6.682,17.095c-4.295,4.634-6.682,10.72-6.682,17.039C76.817,176.269,88.27,187.721,102.402,187.737z
				 M244.86,168.212c-1.558,1.592-3.698,2.479-5.925,2.458H102.402c-4.71-0.006-8.527-3.823-8.533-8.533
				c-0.007-2.298,0.937-4.497,2.608-6.075c1.558-1.592,3.698-2.479,5.925-2.458h132.579c3.546,4.32,7.477,8.309,11.743,11.92
				C246.279,166.529,245.646,167.442,244.86,168.212z M93.868,128.003c-0.007-2.298,0.937-4.497,2.608-6.075
				c1.558-1.592,3.698-2.479,5.925-2.458h114.681c0.693,2.43,1.418,4.856,2.311,7.25c1.271,3.352,2.73,6.629,4.37,9.817H102.402
				C97.691,136.531,93.874,132.714,93.868,128.003z M307.448,17.095c34.07,0.051,64.033,22.542,73.596,55.242
				c9.563,32.7-3.559,67.792-32.232,86.193c-28.673,18.401-66.041,15.713-91.785-6.603s-33.708-58.925-19.562-89.919
				C249.886,34.539,277.301,16.945,307.448,17.095z M96.477,87.795c1.558-1.592,3.698-2.479,5.925-2.458H213.92
				c-0.53,5.676-0.534,11.39-0.012,17.067H102.402c-4.71-0.006-8.527-3.823-8.533-8.533C93.862,91.572,94.806,89.373,96.477,87.795z
				"/>
			<path style="fill:#428DFF;" d="M35.321,448.254c0.247,0.52,0.562,1.005,0.937,1.442c0.294,0.456,0.655,0.866,1.07,1.215
				c0.438,0.368,0.9,0.705,1.384,1.009c1.966,1.114,4.28,1.444,6.479,0.924c2.794-0.675,5.05-2.731,5.982-5.45
				c0.932-2.719,0.41-5.726-1.382-7.973c-0.665-0.897-1.499-1.654-2.456-2.23c-1.967-1.111-4.28-1.442-6.479-0.925
				c-4.547,1.237-7.269,5.886-6.121,10.457L35.321,448.254z"/>
			<path style="fill:#428DFF;" d="M505.66,0.291c-3.738-1.002-7.681,0.645-9.596,4.008L367.673,228.633l-19.875,37.279
				c-1.95,3.689-6.29,5.415-10.242,4.075l-150.9-50.6c-11.753-3.956-24.651,1.092-30.596,11.975l-27.205,49.689l-6.714,11.468
				c-1.041,1.032-1.793,2.318-2.183,3.73L52.904,410.788c-2.359,4.065-0.987,9.273,3.069,11.648s9.269,1.022,11.659-3.026
				l51.836-88.545v164.071H23.419l9.725-16.613c2.381-4.067,1.014-9.294-3.053-11.675c-4.067-2.381-9.294-1.014-11.675,3.053
				L1.171,499.159l0.121,0.071c-0.806,1.27-1.252,2.736-1.29,4.24c0,4.713,3.821,8.533,8.533,8.533h494.933
				c4.713,0,8.533-3.82,8.533-8.533V8.537C512.003,4.668,509.399,1.283,505.66,0.291z M362.856,273.937l12.612-23.663v244.663
				H264.535V263.504l67.596,22.666C343.987,290.177,356.999,284.996,362.856,273.937z M136.535,301.712l7.097-12.124l-0.039-0.022
				c0.043-0.073,0.117-0.113,0.158-0.188l27.275-49.816c1.973-3.638,6.282-5.324,10.2-3.992l66.242,22.211v237.155H136.535V301.712z
				 M494.935,494.937h-102.4V219.535l102.4-178.91V494.937z"/>
			<path style="fill:#428DFF;" d="M279.451,134.437l-1.136,2.491c-1.265,2.773-0.955,6.011,0.814,8.493
				c1.769,2.482,4.728,3.833,7.762,3.542c3.034-0.291,5.683-2.178,6.948-4.952l1.091-2.389c2.637,0.583,5.329,0.881,8.03,0.89
				c2.836,0.007,5.661-0.338,8.413-1.025c8.171-1.708,15.043-7.201,18.508-14.795c3.465-7.594,3.111-16.385-0.954-23.676
				c-2.571-4.906-6.237-9.153-10.715-12.412l9.626-21.092c1.13,1.174,2.093,2.499,2.861,3.937c1.536,2.718,1.779,5.98,0.662,8.896
				c-1.271,2.774-0.963,6.016,0.806,8.502c1.77,2.486,4.732,3.837,7.769,3.545c3.037-0.293,5.687-2.185,6.95-4.963
				c3.308-7.626,2.956-16.344-0.954-23.679c-2.57-4.905-6.236-9.151-10.714-12.409l1.135-2.487c1.942-4.284,0.05-9.332-4.23-11.284
				c-4.279-1.952-9.332-0.073-11.295,4.201l-1.132,2.481c-5.397-1.251-11.011-1.236-16.401,0.044
				c-8.105,1.85-14.922,7.298-18.512,14.796c-3.308,7.624-2.956,16.341,0.954,23.675c2.571,4.907,6.238,9.155,10.718,12.415
				l-9.634,21.11c-3.63-3.2-5.011-8.252-3.514-12.854c1.265-2.775,0.954-6.014-0.816-8.497c-1.77-2.483-4.731-3.833-7.767-3.542
				c-3.036,0.292-5.685,2.181-6.951,4.955C262.733,111.632,267.587,126.629,279.451,134.437z M313.693,110.711
				c1.536,2.718,1.779,5.98,0.663,8.896c-1.468,2.755-4.09,4.71-7.15,5.329c-1.591,0.364-3.225,0.506-4.855,0.422l8.481-18.583
				C311.962,107.949,312.925,109.274,313.693,110.711L313.693,110.711z M300.968,77.07c-1.536-2.718-1.779-5.98-0.663-8.896
				c1.471-2.754,4.094-4.708,7.154-5.329c1.591-0.366,3.224-0.508,4.854-0.421l-8.482,18.586
				C302.701,79.834,301.737,78.509,300.968,77.07z"/>
		</g>
	</g>
</g>
<g>
</g>
<g>
</g>
<g>
</g>
<g>
</g>
<g>
</g>
<g>
</g>
<g>
</g>
<g>
</g>
<g>
</g>
<g>
</g>
<g>
</g>
<g>
</g>
<g>
</g>
<g>
</g>
<g>
</g>
</svg>
