<?xml version="1.0" encoding="iso-8859-1"?>
<!-- Generator: Adobe Illustrator 19.0.0, SVG Export Plug-In . SVG Version: 6.00 Build 0)  -->
<svg version="1.1" id="Capa_1" xmlns="http://www.w3.org/2000/svg" xmlns:xlink="http://www.w3.org/1999/xlink" x="0px" y="0px"
	 viewBox="0 0 503.606 503.606" style="enable-background:new 0 0 503.606 503.606;" xml:space="preserve">
<g>
	<g transform="translate(1 1)">
		<path style="fill:#A4C2F7;" d="M475.926,145.523l-16.283,1.511l-26.439,2.35c-5.712,0.535-11.47,0.309-17.123-0.671
			c-13.811-2.245-26.561-8.796-36.428-18.717l-26.104-18.298c-1.367-0.937-2.797-1.779-4.281-2.518L326.69,93.903
			c-16.634-11.231-36.25-17.224-56.32-17.207h-73.275c-8.417-0.012-16.273,4.216-20.9,11.247l-9.317,13.933l-53.298,6.631
			c-7.971,1.021-16.042,0.993-24.005-0.084c-1.259-0.252-2.518-0.42-3.777-0.671l-58.586-10.66
			c-4.902-0.886-9.944,0.447-13.768,3.639s-6.036,7.915-6.041,12.896v147.725c-0.006,4.454,1.761,8.727,4.91,11.877
			s7.423,4.916,11.877,4.91l-3.441,10.408c-3.024,9.041-0.685,19.014,6.043,25.768l44.905,44.905
			c7.389,7.375,16.379,12.947,26.271,16.283l63.287,21.068c2.898,1.001,5.874,1.759,8.897,2.266
			c5.383,1.089,10.891,1.428,16.367,1.007c6.595-0.348,13.102-1.678,19.305-3.945l1.007-0.42l18.885,17.878
			c4.68,4.467,10.344,7.773,16.535,9.652c7.296,2.295,15.089,2.498,22.494,0.587l4.784-1.175l17.374-4.365l36.26-9.065l1.091-0.252
			c5.204-1.333,10.286-3.102,15.193-5.287c6.783-3.032,13.18-6.864,19.053-11.415l17.039-13.178l13.262-10.324l0.755-0.588
			c14.589-11.393,20.037-30.971,13.43-48.262l75.373-26.859c9.58-3.78,15.872-13.035,15.864-23.334V162.226
			c0.011-4.717-1.969-9.22-5.453-12.4C485.287,146.645,480.622,145.083,475.926,145.523z"/>
		<path style="fill:#D4E1F4;" d="M459.643,147.034c-2.694-1.271-5.68-1.793-8.645-1.511l-34.917,3.189l-7.806,0.671
			c-19.845,1.822-39.471-5.284-53.55-19.389l-26.104-18.298c-1.367-0.937-2.797-1.779-4.281-2.518l-22.578-15.276
			c-16.634-11.231-36.25-17.224-56.32-17.207h-48.346c-8.417-0.012-16.273,4.216-20.9,11.247l-9.317,13.933l-53.298,6.631
			c-7.971,1.021-16.042,0.993-24.005-0.084l-0.923,0.084c-9.245,1.177-18.615,0.922-27.782-0.755l-45.66-8.31
			c-4.859,3.08-7.804,8.432-7.806,14.185v147.725c-0.006,4.454,1.761,8.727,4.91,11.877s7.423,4.916,11.877,4.91l-3.441,10.408
			c-3.024,9.041-0.685,19.014,6.043,25.768l44.905,44.905c7.389,7.375,16.379,12.947,26.271,16.283l63.287,21.068
			c2.898,1.001,5.874,1.759,8.897,2.266c3.656-0.683,7.249-1.665,10.744-2.938l1.007-0.42l4.616,4.365
			c6.595-0.348,13.102-1.678,19.305-3.945l1.007-0.42l18.885,17.878c4.68,4.467,10.344,7.773,16.535,9.652l2.35-0.588l17.374-4.365
			l36.26-9.065l1.091-0.252c5.203-1.333,10.285-3.102,15.192-5.288c6.783-3.032,13.18-6.864,19.053-11.415l17.039-13.178
			l13.262-10.324l0.755-0.588c14.589-11.393,20.037-30.971,13.43-48.262l75.373-26.859c9.58-3.78,15.872-13.035,15.864-23.334
			V162.226C469.318,155.712,465.549,149.78,459.643,147.034z"/>
		<path style="fill:#7FABFA;" d="M389.557,367.949l-0.755,0.587L375.54,378.86l-17.039,13.178
			c-5.873,4.551-12.27,8.383-19.053,11.415c-4.907,2.186-9.989,3.955-15.193,5.288l-1.091,0.252l-36.26,9.065l-17.374,4.365
			l-4.784,1.175c-7.406,1.911-15.199,1.707-22.494-0.588c-6.191-1.879-11.855-5.185-16.535-9.652l-18.885-17.878L90.247,285.022
			c-4.664-4.432-10.856-6.897-17.29-6.883H24.191c-4.454,0.006-8.727-1.761-11.877-4.91s-4.916-7.423-4.91-11.877V113.628
			c0.004-4.981,2.217-9.704,6.041-12.896s8.866-4.525,13.768-3.639l58.586,10.66c1.259,0.252,2.518,0.42,3.777,0.671
			c7.964,1.077,16.034,1.105,24.005,0.084l26.439-3.273l26.859-3.357h0.084l-13.681,22.662c-6.596,10.975-3.802,25.163,6.463,32.818
			h0.084c0.824,0.667,1.726,1.231,2.686,1.679c8.883,5.152,20.017,4.318,28.034-2.098l22.327-17.794
			c2.971-2.396,6.675-3.7,10.492-3.693h26.271c6.161,0.008,12.105,2.278,16.703,6.379l65.469,58.167
			c1.96,1.74,3.631,3.78,4.952,6.043l63.203,107.436c1.158,1.993,2.168,4.069,3.022,6.211
			C409.595,336.978,404.147,356.556,389.557,367.949z"/>
		<path style="fill:#E3E7F2;" d="M364.629,367.949l-0.755,0.587l-13.262,10.324l-17.039,13.178
			c-5.873,4.551-12.27,8.383-19.053,11.415c-4.907,2.186-9.989,3.955-15.192,5.288l-1.091,0.252l-36.26,9.065l-17.374,4.365
			l-2.35,0.588c-6.191-1.879-11.855-5.185-16.535-9.652l-18.885-17.878L90.247,285.022c-4.664-4.432-10.856-6.897-17.29-6.883
			H24.191c-4.454,0.006-8.727-1.761-11.877-4.91s-4.916-7.423-4.91-11.877V113.628c0.002-5.753,2.947-11.105,7.806-14.185
			l45.66,8.31c9.167,1.677,18.538,1.932,27.782,0.755l0.923-0.084c7.964,1.077,16.034,1.105,24.005,0.084l26.439-3.273
			l-11.667,19.305c-6.596,10.975-3.802,25.164,6.463,32.818h0.084c8.037,6.043,18.905,6.704,27.614,1.679
			c8.883,5.152,20.017,4.318,28.034-2.098l22.327-17.794c2.971-2.396,6.675-3.7,10.492-3.693h1.343
			c6.161,0.008,12.105,2.278,16.703,6.379l65.469,58.167c1.96,1.74,3.632,3.78,4.952,6.043l63.203,107.436
			c1.158,1.994,2.168,4.07,3.022,6.211C384.666,336.978,379.218,356.556,364.629,367.949z"/>
	</g>
	<path style="fill:#FFFFFF;" d="M25.191,279.139l-3.441,10.408c-3.024,9.041-0.685,19.014,6.043,25.768l44.905,44.905
		c7.389,7.375,16.379,12.947,26.271,16.283l63.287,21.068c2.898,1.001,5.874,1.759,8.897,2.266
		c5.383,1.089,10.891,1.428,16.367,1.007c2.855-0.176,5.695-0.539,8.503-1.086c-2.916-0.499-5.788-1.23-8.587-2.187l-63.287-21.068
		c-9.892-3.336-18.882-8.908-26.271-16.283l-44.905-44.905c-6.728-6.754-9.067-16.727-6.043-25.768l3.441-10.408
		c-4.454,0.006-8.727-1.761-11.877-4.91c-3.149-3.149-4.916-7.423-4.91-11.877V114.628c0.003-5.73,2.928-11.063,7.759-14.146
		l-13.131-2.389c-4.902-0.886-9.944,0.447-13.768,3.639s-6.036,7.915-6.041,12.896v147.725c-0.006,4.454,1.761,8.727,4.91,11.877
		S20.737,279.145,25.191,279.139z"/>
	<g>
		<polygon style="fill:#FFFFFF;" points="16.789,114.594 16.789,223.709 16.789,262.352 0.002,262.352 0.002,223.709 0.002,114.594 
					"/>
		<g>
			<path style="fill:#428DFF;" d="M8.393,190.139c2.222-0.034,4.349-0.903,5.959-2.434c3.246-3.31,3.246-8.608,0-11.918
				l-1.258-1.008c-0.468-0.319-0.977-0.574-1.512-0.758c-0.476-0.241-0.986-0.41-1.512-0.5c-0.554-0.094-1.114-0.151-1.676-0.168
				c-2.222,0.031-4.351,0.9-5.959,2.434c-3.169,3.341-3.169,8.577,0,11.918c0.802,0.758,1.741,1.356,2.766,1.763
				C6.211,189.898,7.296,190.126,8.393,190.139z"/>
			<path style="fill:#428DFF;" d="M14.352,285.082l-0.607,1.82c-4.069,12.062-0.923,25.388,8.111,34.357l44.934,44.934
				c8.3,8.282,18.406,14.529,29.525,18.25l63.307,21.102c14.919,4.973,31.022,5.141,46.041,0.48l15.262,14.459
				c9.315,8.867,21.681,13.815,34.541,13.82c4.151-0.002,8.285-0.513,12.311-1.52l59.48-14.873
				c13.608-3.381,26.353-9.585,37.41-18.209l31.057-24.156c14.966-11.725,22.065-30.872,18.36-49.519l68.419-24.37
				c12.775-5.063,21.148-17.431,21.102-31.172V163.225c-0.002-7.074-2.979-13.821-8.202-18.591s-12.212-7.124-19.257-6.487
				l-42.701,3.881c-17.369,1.615-34.553-4.605-46.865-16.963l-27.209-19.246c-1.537-1.076-3.145-2.048-4.811-2.91l-22.18-14.959
				c-18.013-12.176-39.262-18.671-61.004-18.647h-73.246c-11.228-0.009-21.714,5.603-27.934,14.951l-7.18,10.77l-49.291,6.164
				c-8.463,1.06-17.039,0.821-25.43-0.709L29.684,89.824c-7.346-1.336-14.906,0.658-20.638,5.442C3.314,100.05,0,107.131,0,114.598
				v33.574c0,4.636,3.758,8.393,8.393,8.393s8.393-3.758,8.393-8.393v-33.573c-0.016-2.491,1.091-4.857,3.012-6.443
				c1.899-1.622,4.433-2.29,6.885-1.816l58.607,10.656c10.069,1.836,20.36,2.122,30.516,0.848l36.028-4.504l-4.717,7.831
				c-8.278,13.904-5.431,31.738,6.765,42.373c12.195,10.635,30.251,11.03,42.899,0.938l24.645-19.639h29.195
				c4.112-0.003,8.081,1.507,11.152,4.242l65.422,58.148c1.309,1.165,2.429,2.527,3.32,4.037l63.234,107.496
				c8.509,14.548,4.951,33.146-8.328,43.525l-2.374,1.847l-65.343-106.182c-1.569-2.559-4.384-4.086-7.385-4.004
				c-3,0.082-5.729,1.761-7.155,4.402c-1.426,2.641-1.333,5.843,0.244,8.397l66.31,107.753l-15.355,11.943
				c-6.45,5.001-13.599,9.027-21.219,11.95l-48.966-81.609c-2.386-3.975-7.542-5.263-11.516-2.877
				c-3.975,2.386-5.263,7.542-2.877,11.516l46.72,77.867l-36.014,9.006l-38.645-54.102c-1.742-2.441-4.655-3.767-7.64-3.478
				c-2.985,0.289-5.589,2.148-6.832,4.877c-1.243,2.729-0.935,5.914,0.808,8.355l34.774,48.684
				c-10.918,2.509-22.367-0.622-30.487-8.34L96.992,279.947c-6.229-5.92-14.497-9.214-23.09-9.201H25.18
				c-4.633-0.006-8.387-3.76-8.393-8.393v-47.033c0-4.636-3.758-8.393-8.393-8.393S0,210.683,0,215.319v47.033
				C0.008,272.06,5.59,280.901,14.352,285.082z M344.988,202.762c-1.777-3.021-4.016-5.745-6.635-8.074l-65.422-58.152
				c-6.145-5.465-14.084-8.482-22.307-8.479h-23.738v-8.393c0-4.636-3.758-8.393-8.393-8.393s-8.393,3.758-8.393,8.393v12.742
				l-23.775,18.947c-5.977,4.755-14.41,4.88-20.525,0.303c-6.85-5.075-8.714-14.528-4.303-21.824l13.627-22.623
				c0.034-0.056,0.031-0.12,0.063-0.176l8.978-13.467c3.11-4.674,8.353-7.48,13.967-7.476h73.246
				c18.397-0.02,36.377,5.476,51.619,15.779l22.606,15.246l0.939,0.549c1.114,0.556,2.185,1.195,3.205,1.91l25.5,17.889
				c15.807,15.532,37.65,23.319,59.717,21.287l42.701-3.881c2.349-0.215,4.679,0.569,6.421,2.159
				c1.742,1.59,2.734,3.839,2.735,6.198v107.258c0.05,6.763-4.003,12.883-10.25,15.475l-68.335,24.335l-0.017-0.035L344.988,202.762
				z M73.902,287.533c4.297-0.005,8.43,1.643,11.545,4.602l105.385,99.838c-8.701,1.16-17.552,0.355-25.902-2.354l-63.307-21.102
				c-8.647-2.895-16.507-7.753-22.963-14.193l-44.934-44.934c-4.516-4.486-6.088-11.149-4.053-17.18l1.558-4.676H73.902z"/>
		</g>
	</g>
</g>
<g>
</g>
<g>
</g>
<g>
</g>
<g>
</g>
<g>
</g>
<g>
</g>
<g>
</g>
<g>
</g>
<g>
</g>
<g>
</g>
<g>
</g>
<g>
</g>
<g>
</g>
<g>
</g>
<g>
</g>
</svg>
