<?xml version="1.0" encoding="iso-8859-1"?>
<!-- Generator: Adobe Illustrator 19.0.0, SVG Export Plug-In . SVG Version: 6.00 Build 0)  -->
<svg version="1.1" id="Capa_1" xmlns="http://www.w3.org/2000/svg" xmlns:xlink="http://www.w3.org/1999/xlink" x="0px" y="0px"
	 viewBox="0 0 512.25 512.25" style="enable-background:new 0 0 512.25 512.25;" xml:space="preserve">
<g transform="translate(-1)">
	<g transform="translate(32 26)">
		<path style="fill:#A4C2F7;" d="M405.32,325.272c-15.852,34.759-52.861,54.762-90.624,48.981
			c-7.751-1.223-15.301-3.491-22.443-6.741c-31.408-14.323-51.095-46.156-49.881-80.654c1.214-34.498,23.089-64.869,55.426-76.949
			s68.767-3.492,92.303,21.76C413.637,256.92,419.643,293.864,405.32,325.272z"/>
		<path style="fill:#E3E7F2;" d="M379.72,325.272c-11.963,26.3-36.444,44.741-65.024,48.981c-7.751-1.223-15.301-3.491-22.443-6.741
			c-34.404-15.68-54.386-52.13-49.103-89.567s34.573-66.934,71.972-72.481c26.385,4.147,49.318,20.383,61.994,43.893
			C389.792,272.867,390.756,300.949,379.72,325.272z"/>
	</g>
	<path style="fill:#FFFFFF;" d="M324.253,393.512c7.142,3.25,14.692,5.518,22.443,6.741c8.457,1.273,17.057,1.267,25.513-0.02
		c-7.72-1.225-15.24-3.486-22.355-6.722c-34.347-15.646-54.331-52.002-49.133-89.385c5.198-37.383,34.343-66.907,71.655-72.589
		c-8.366-1.291-16.88-1.316-25.254-0.074c-37.399,5.547-66.689,35.043-71.972,72.481
		C269.867,341.382,289.85,377.832,324.253,393.512z"/>
	<g>
		<polygon style="fill:#FFFFFF;" points="1.267,503.592 1.267,392.659 1.267,8.658 18.333,8.658 18.333,392.659 18.333,503.592 		
			"/>
		<g>
			<path style="fill:#428DFF;" d="M154.6,324.392h34.133c4.713,0,8.533-3.82,8.533-8.533s-3.821-8.533-8.533-8.533H154.6
				c-4.713,0-8.533,3.821-8.533,8.533S149.887,324.392,154.6,324.392z"/>
			<path style="fill:#428DFF;" d="M77.8,324.392h34.133c4.713,0,8.533-3.82,8.533-8.533s-3.821-8.533-8.533-8.533H77.8
				c-4.713,0-8.533,3.821-8.533,8.533S73.087,324.392,77.8,324.392z"/>
			<path style="fill:#428DFF;" d="M9.8,409.725c4.707-0.014,8.519-3.826,8.533-8.533v-42.667H35.4c4.713,0,8.533-3.82,8.533-8.533
				s-3.821-8.533-8.533-8.533H18.333v-17.067H35.4c4.713,0,8.533-3.82,8.533-8.533s-3.821-8.533-8.533-8.533H18.333v-17.067H35.4
				c4.713,0,8.533-3.821,8.533-8.533c0-4.713-3.821-8.533-8.533-8.533H18.333v-17.067H35.4c4.713,0,8.533-3.821,8.533-8.533
				s-3.821-8.533-8.533-8.533H18.333v-17.067H35.4c4.713,0,8.533-3.821,8.533-8.533c0-4.713-3.821-8.533-8.533-8.533H18.333v-17.067
				H35.4c4.713,0,8.533-3.821,8.533-8.533c0-4.713-3.821-8.533-8.533-8.533H18.333v-17.067H35.4c4.713,0,8.533-3.821,8.533-8.533
				s-3.821-8.533-8.533-8.533H18.333v-17.067H35.4c4.713,0,8.533-3.821,8.533-8.533c0-4.713-3.821-8.533-8.533-8.533H18.333V85.458
				H35.4c4.713,0,8.533-3.82,8.533-8.533c0-4.713-3.821-8.533-8.533-8.533H18.333V29.258L37.9,48.825
				c3.341,3.281,8.701,3.256,12.012-0.054s3.335-8.671,0.054-12.012L15.833,2.625c-2.44-2.44-6.11-3.169-9.298-1.849
				S1.267,5.208,1.267,8.658v392.533C1.281,405.899,5.093,409.711,9.8,409.725z"/>
			<path style="fill:#428DFF;" d="M5.021,442.409c0.476,0.324,0.993,0.583,1.538,0.771c0.484,0.246,1.002,0.417,1.537,0.508
				c0.563,0.096,1.133,0.153,1.704,0.171c2.259-0.031,4.423-0.915,6.059-2.475c3.221-3.397,3.221-8.72,0-12.117
				c-0.815-0.771-1.77-1.379-2.813-1.792c-1.027-0.438-2.13-0.67-3.246-0.683c-2.259,0.034-4.422,0.918-6.059,2.475
				c-3.3,3.365-3.3,8.752,0,12.117L5.021,442.409z"/>
			<path style="fill:#428DFF;" d="M510.764,497.556l-34.131-34.13c-3.341-3.281-8.701-3.256-12.012,0.054
				c-3.311,3.311-3.335,8.671-0.054,12.012l19.566,19.567h-47.667v-8.533c0-4.713-3.82-8.533-8.533-8.533s-8.533,3.82-8.533,8.533
				v8.533h-17.067v-8.533c0-4.713-3.82-8.533-8.533-8.533s-8.533,3.82-8.533,8.533v8.533H368.2v-8.533
				c0-4.713-3.82-8.533-8.533-8.533s-8.533,3.82-8.533,8.533v8.533h-17.067v-8.533c0-4.713-3.82-8.533-8.533-8.533
				s-8.533,3.82-8.533,8.533v8.533h-17.067v-8.533c0-4.713-3.82-8.533-8.533-8.533s-8.533,3.82-8.533,8.533v8.533H265.8v-8.533
				c0-4.713-3.821-8.533-8.533-8.533c-4.713,0-8.533,3.82-8.533,8.533v8.533h-17.067v-8.533c0-4.713-3.82-8.533-8.533-8.533
				s-8.533,3.82-8.533,8.533v8.533h-17.067v-8.533c0-4.713-3.821-8.533-8.533-8.533c-4.713,0-8.533,3.82-8.533,8.533v8.533h-64.118
				c74.396-23.514,137.453-67.372,182.489-106.117c0.296-0.323,0.566-0.67,0.806-1.037c14.542,12.277,32.529,19.751,51.49,21.394
				v26.026c0,4.713,3.82,8.533,8.533,8.533s8.533-3.82,8.533-8.533v-26.199c36.733-3.238,68.141-27.743,80.214-62.585
				c12.074-34.843,2.563-73.527-24.291-98.799c0.211-0.216,0.411-0.444,0.597-0.683C480.825,163.867,513,76.975,513,8.658
				c0-4.713-3.82-8.533-8.533-8.533c-4.713,0-8.533,3.821-8.533,8.533c0,64.928-31.047,148.229-85.185,228.589
				c-27.523-18.014-62.483-20.252-92.078-5.893c-29.595,14.359-49.475,43.204-52.359,75.971H231.4c-4.713,0-8.533,3.821-8.533,8.533
				s3.82,8.533,8.533,8.533h34.906c1.774,18.965,9.246,36.95,21.433,51.589l-0.035,0.02
				c-61.512,52.925-157.61,115.572-269.37,118.755v-25.297c0-4.713-3.821-8.533-8.533-8.533s-8.533,3.821-8.533,8.533v32.813
				c-0.125,0.432-0.215,0.874-0.267,1.32c0,4.713,3.821,8.533,8.533,8.533l0.228-0.008l0.039,0.008h494.933
				c3.447-0.011,6.549-2.092,7.867-5.276C513.919,503.664,513.195,500,510.764,497.556z M289.817,283.996
				c12.896-28.26,41.545-45.969,72.589-44.87c31.044,1.099,58.369,20.791,69.233,49.892c10.864,29.102,3.129,61.882-19.6,83.056
				c-22.729,21.174-55.974,26.572-84.234,13.676C289.263,368.097,272.273,322.587,289.817,283.996z"/>
			<path style="fill:#428DFF;" d="M331.804,356.433l-1.133,2.484c-1.271,2.774-0.963,6.016,0.806,8.502
				c1.77,2.486,4.732,3.837,7.769,3.545c3.037-0.293,5.687-2.185,6.95-4.963l1.09-2.389c2.636,0.583,5.327,0.881,8.027,0.89
				c2.836,0.007,5.661-0.338,8.412-1.025c8.172-1.706,15.045-7.199,18.511-14.794c3.466-7.595,3.112-16.386-0.953-23.677
				c-2.571-4.907-6.238-9.154-10.717-12.414l9.625-21.093c1.131,1.175,2.095,2.501,2.863,3.94c1.536,2.718,1.779,5.98,0.663,8.896
				c-1.271,2.774-0.963,6.016,0.806,8.502c1.77,2.486,4.732,3.837,7.769,3.545s5.687-2.185,6.95-4.963
				c3.308-7.626,2.956-16.344-0.954-23.679c-2.57-4.906-6.238-9.154-10.717-12.412l1.133-2.484c1.265-2.773,0.955-6.011-0.814-8.493
				c-1.769-2.482-4.728-3.832-7.762-3.542c-3.034,0.291-5.683,2.178-6.948,4.952l-1.133,2.483
				c-5.396-1.249-11.007-1.235-16.396,0.042c-8.172,1.706-15.045,7.199-18.512,14.794c-3.466,7.595-3.112,16.386,0.953,23.677
				c2.571,4.907,6.238,9.154,10.717,12.414l-9.625,21.093c-1.131-1.175-2.095-2.501-2.863-3.94c-1.536-2.718-1.779-5.98-0.663-8.896
				c1.265-2.773,0.955-6.011-0.814-8.493c-1.769-2.482-4.728-3.833-7.762-3.542c-3.034,0.291-5.683,2.178-6.948,4.952
				c-3.308,7.626-2.956,16.344,0.954,23.679C323.658,348.927,327.325,353.175,331.804,356.433z M366.05,332.7
				c1.728,2.657,1.978,6.013,0.662,8.896c-1.316,2.883-4.015,4.894-7.154,5.329c-1.59,0.365-3.223,0.507-4.852,0.422l8.481-18.586
				C364.318,329.937,365.281,331.262,366.05,332.7z M353.325,299.059c-1.728-2.657-1.978-6.013-0.663-8.896s4.015-4.894,7.154-5.329
				c1.589-0.364,3.222-0.505,4.85-0.42l-8.479,18.583C355.057,301.822,354.094,300.496,353.325,299.059z"/>
		</g>
	</g>
</g>
<g>
</g>
<g>
</g>
<g>
</g>
<g>
</g>
<g>
</g>
<g>
</g>
<g>
</g>
<g>
</g>
<g>
</g>
<g>
</g>
<g>
</g>
<g>
</g>
<g>
</g>
<g>
</g>
<g>
</g>
</svg>
