<?xml version="1.0" encoding="iso-8859-1"?>
<!-- Generator: Adobe Illustrator 19.0.0, SVG Export Plug-In . SVG Version: 6.00 Build 0)  -->
<svg version="1.1" id="Capa_1" xmlns="http://www.w3.org/2000/svg" xmlns:xlink="http://www.w3.org/1999/xlink" x="0px" y="0px"
	 viewBox="0 0 512 512" style="enable-background:new 0 0 512 512;" xml:space="preserve">
<g>
	<g transform="translate(1 1)">
		<path style="fill:#A4C2F7;" d="M41.667,212.333h426.667c18.851,0,34.133,15.282,34.133,34.133v221.867
			c0,18.851-15.282,34.133-34.133,34.133H41.667c-18.851,0-34.133-15.282-34.133-34.133V246.467
			C7.533,227.615,22.815,212.333,41.667,212.333z"/>
		<g>
			<path style="fill:#E3E7F2;" d="M41.667,212.333h401.067c18.851,0,34.133,15.282,34.133,34.133v221.867
				c0,18.851-15.282,34.133-34.133,34.133H41.667c-18.851,0-34.133-15.282-34.133-34.133V246.467
				C7.533,227.615,22.815,212.333,41.667,212.333z"/>
			<path style="fill:#E3E7F2;" d="M408.6,41.667V127c0.002,9.053-3.593,17.737-9.995,24.138c-6.402,6.402-15.085,9.997-24.138,9.995
				H212.333l-51.2,51.2v-51.2h-25.6c-9.053,0.002-17.737-3.593-24.138-9.995c-6.402-6.402-9.997-15.085-9.995-24.138V41.667
				c-0.002-9.053,3.593-17.737,9.995-24.138s15.085-9.997,24.138-9.995h238.933c9.053-0.002,17.737,3.593,24.138,9.995
				S408.602,32.613,408.6,41.667z"/>
		</g>
		<g>
			<polygon style="fill:#FFFFFF;" points="203.8,263.533 203.8,400.067 306.2,331.8 			"/>
			<circle style="fill:#FFFFFF;" cx="169.667" cy="84.333" r="25.6"/>
			<circle style="fill:#FFFFFF;" cx="255" cy="84.333" r="25.6"/>
			<circle style="fill:#FFFFFF;" cx="340.333" cy="84.333" r="25.6"/>
		</g>
		<path style="fill:#A4C2F7;" d="M408.6,41.667V127c0.002,9.053-3.593,17.737-9.995,24.138s-15.085,9.997-24.138,9.995h-25.6
			c9.053,0.002,17.737-3.593,24.138-9.995S383.002,136.053,383,127V41.667c0.002-9.053-3.593-17.737-9.995-24.138
			s-15.085-9.997-24.138-9.995l25.6,0c9.053-0.002,17.737,3.593,24.138,9.995S408.602,32.613,408.6,41.667z"/>
		<g>
			<path style="fill:#FFFFFF;" d="M127,127V41.667c-0.002-9.053,3.593-17.737,9.995-24.138s15.085-9.997,24.138-9.995l-25.6,0
				c-9.053-0.002-17.737,3.593-24.138,9.995s-9.997,15.085-9.995,24.138V127c-0.002,9.053,3.593,17.737,9.995,24.138
				s15.085,9.997,24.138,9.995h25.6c-9.053,0.002-17.737-3.593-24.138-9.995S126.998,136.053,127,127z"/>
			<polygon style="fill:#FFFFFF;" points="186.733,186.733 186.733,161.133 161.133,161.133 161.133,212.333 			"/>
			<path style="fill:#FFFFFF;" d="M33.133,468.333V246.467c-0.002-9.053,3.593-17.737,9.995-24.138s15.085-9.997,24.138-9.995h-25.6
				c-9.053-0.002-17.737,3.593-24.138,9.995s-9.997,15.085-9.995,24.138v221.867c-0.002,9.053,3.593,17.737,9.995,24.138
				s15.085,9.997,24.138,9.995h25.6c-9.053,0.002-17.737-3.593-24.138-9.995S33.131,477.387,33.133,468.333z"/>
		</g>
	</g>
	<g>
		<polygon style="fill:#FFFFFF;" points="17.067,247.467 17.067,358.4 17.067,469.333 0,469.333 0,358.4 0,247.467 		"/>
		<g>
			<path style="fill:#428DFF;" d="M8.533,324.267c2.259-0.034,4.422-0.918,6.059-2.475c3.3-3.365,3.3-8.752,0-12.117l-1.279-1.025
				c-0.476-0.324-0.993-0.583-1.538-0.771c-0.484-0.246-1.003-0.417-1.538-0.509c-0.563-0.096-1.133-0.153-1.704-0.171
				c-2.259,0.031-4.423,0.915-6.059,2.475c-3.222,3.397-3.222,8.721,0,12.117c0.815,0.771,1.77,1.379,2.813,1.792
				C6.314,324.022,7.417,324.254,8.533,324.267z"/>
			<path style="fill:#428DFF;" d="M469.333,204.8h-286.6l34.133-34.133h158.6c23.553-0.028,42.639-19.114,42.667-42.667V42.667
				C418.106,19.114,399.019,0.028,375.467,0H136.533c-23.553,0.028-42.639,19.114-42.667,42.667V128
				c0.028,23.553,19.114,42.639,42.667,42.667H153.6V204.8H42.667C19.114,204.828,0.028,223.914,0,247.467V281.6
				c0,4.713,3.821,8.533,8.533,8.533s8.533-3.821,8.533-8.533v-34.133c0.015-14.132,11.468-25.585,25.6-25.6h426.667
				c14.132,0.015,25.585,11.468,25.6,25.6v221.867c-0.015,14.132-11.468,25.585-25.6,25.6H42.667
				c-14.132-0.015-25.585-11.468-25.6-25.6V349.867c0-4.713-3.821-8.533-8.533-8.533S0,345.154,0,349.867v119.467
				C0.028,492.886,19.114,511.972,42.667,512h426.667c23.553-0.028,42.639-19.114,42.667-42.667V247.467
				C511.972,223.914,492.886,204.828,469.333,204.8z M136.533,153.6c-14.132-0.015-25.585-11.468-25.6-25.6V42.667
				c0.015-14.132,11.468-25.585,25.6-25.6h238.933c14.132,0.015,25.585,11.468,25.6,25.6V128c-0.015,14.132-11.468,25.585-25.6,25.6
				H213.333c-2.263,0-4.434,0.899-6.033,2.5l-36.634,36.633v-30.6c0.001-2.264-0.897-4.435-2.498-6.035s-3.772-2.499-6.035-2.498
				H136.533z"/>
			<path style="fill:#428DFF;" d="M76.8,426.667c-2.264-0.001-4.435,0.897-6.035,2.498c-1.601,1.601-2.499,3.772-2.498,6.035v8.533
				H51.2c-4.713,0-8.533,3.82-8.533,8.533s3.821,8.533,8.533,8.533h17.067v8.533c0,4.713,3.821,8.533,8.533,8.533
				c4.713,0,8.533-3.821,8.533-8.533V460.8H460.8c4.713,0,8.533-3.82,8.533-8.533s-3.82-8.533-8.533-8.533H85.333V435.2
				c0.001-2.264-0.897-4.435-2.498-6.035C81.235,427.564,79.064,426.665,76.8,426.667z"/>
			<path style="fill:#428DFF;" d="M204.8,409.6c1.685,0,3.332-0.499,4.733-1.434l102.4-68.267c2.374-1.583,3.8-4.247,3.8-7.1
				c0-2.853-1.426-5.517-3.8-7.1l-102.4-68.267c-2.618-1.746-5.985-1.909-8.76-0.424c-2.775,1.485-4.507,4.377-4.506,7.524v136.533
				c0,2.263,0.898,4.434,2.499,6.034C200.366,408.702,202.537,409.6,204.8,409.6z M213.333,280.475l78.483,52.325l-78.483,52.325
				V280.475z"/>
			<path style="fill:#428DFF;" d="M204.8,85.333c0-18.851-15.282-34.133-34.133-34.133s-34.133,15.282-34.133,34.133
				s15.282,34.133,34.133,34.133C189.51,119.448,204.781,104.177,204.8,85.333z M153.6,85.333c0-9.426,7.641-17.067,17.067-17.067
				c9.426,0,17.067,7.641,17.067,17.067s-7.641,17.067-17.067,17.067C161.246,102.388,153.612,94.754,153.6,85.333z"/>
			<path style="fill:#428DFF;" d="M256,119.467c18.851,0,34.133-15.282,34.133-34.133S274.851,51.2,256,51.2
				c-18.851,0-34.133,15.282-34.133,34.133C221.885,104.177,237.156,119.448,256,119.467z M256,68.267
				c9.426,0,17.067,7.641,17.067,17.067S265.426,102.4,256,102.4c-9.426,0-17.067-7.641-17.067-17.067
				C238.946,75.913,246.579,68.279,256,68.267z"/>
			<path style="fill:#428DFF;" d="M341.333,119.467c18.851,0,34.133-15.282,34.133-34.133S360.185,51.2,341.333,51.2
				c-18.851,0-34.133,15.282-34.133,34.133C307.219,104.177,322.49,119.448,341.333,119.467z M341.333,68.267
				c9.426,0,17.067,7.641,17.067,17.067s-7.641,17.067-17.067,17.067c-9.426,0-17.067-7.641-17.067-17.067
				C324.279,75.913,331.913,68.279,341.333,68.267z"/>
		</g>
	</g>
</g>
<g>
</g>
<g>
</g>
<g>
</g>
<g>
</g>
<g>
</g>
<g>
</g>
<g>
</g>
<g>
</g>
<g>
</g>
<g>
</g>
<g>
</g>
<g>
</g>
<g>
</g>
<g>
</g>
<g>
</g>
</svg>
