<?xml version="1.0" encoding="iso-8859-1"?>
<!-- Generator: Adobe Illustrator 19.0.0, SVG Export Plug-In . SVG Version: 6.00 Build 0)  -->
<svg version="1.1" id="Capa_1" xmlns="http://www.w3.org/2000/svg" xmlns:xlink="http://www.w3.org/1999/xlink" x="0px" y="0px"
	 viewBox="0 0 512 512" style="enable-background:new 0 0 512 512;" xml:space="preserve">
<g>
	<g transform="translate(1 1)">
		<path style="fill:#E3E7F2;" d="M101.4,127H67.267c-9.053-0.002-17.737,3.593-24.139,9.995s-9.997,15.085-9.995,24.139v102.4
			h443.733l0-59.733c0.009-6.792-2.685-13.309-7.488-18.112c-4.803-4.803-11.32-7.497-18.112-7.488H408.6l-307.2-1.422V127z"/>
		<g>
			<path style="fill:#A4C2F7;" d="M476.867,203.8l0,59.733h-25.6V203.8c0.009-6.792-2.685-13.309-7.488-18.112
				c-4.803-4.803-11.32-7.497-18.112-7.488l25.6,0c6.792-0.009,13.309,2.685,18.112,7.488
				C474.182,190.491,476.876,197.008,476.867,203.8z"/>
			<path style="fill:#A4C2F7;" d="M502.296,265.752l-29.525,221.867c-1.137,8.507-8.399,14.856-16.981,14.848H54.211
				c-8.582,0.008-15.844-6.341-16.981-14.848L7.704,265.752c-0.642-4.868,0.845-9.776,4.08-13.469
				c3.236-3.693,7.906-5.813,12.816-5.816h460.8c4.91,0.004,9.58,2.123,12.816,5.816
				C501.451,255.976,502.938,260.884,502.296,265.752z"/>
		</g>
		<path style="fill:#E3E7F2;" d="M476.696,265.752l-29.525,221.867c-1.137,8.507-8.399,14.856-16.981,14.848H54.211
			c-8.582,0.008-15.844-6.341-16.981-14.848L7.704,265.752c-0.642-4.868,0.845-9.776,4.08-13.469
			c3.236-3.693,7.906-5.813,12.816-5.816h435.2c4.91,0.004,9.58,2.123,12.816,5.816
			C475.851,255.976,477.338,260.884,476.696,265.752z"/>
		<path style="fill:#A4C2F7;" d="M408.6,16.579l0,229.888H101.4l0-229.888c-0.013-2.403,0.935-4.712,2.635-6.411
			c1.699-1.699,4.008-2.648,6.411-2.634h289.108c2.403-0.013,4.712,0.935,6.411,2.634S408.613,14.176,408.6,16.579z"/>
		<path style="fill:#D4E1F4;" d="M383,16.579l0,229.888H101.4l0-229.888c-0.013-2.403,0.935-4.712,2.635-6.411
			c1.699-1.699,4.008-2.648,6.411-2.634h263.508c2.403-0.013,4.712,0.935,6.411,2.634C382.065,11.867,383.013,14.176,383,16.579z"/>
	</g>
	<path style="fill:#FFFFFF;" d="M63.829,488.619L34.304,266.752c-0.642-4.868,0.845-9.776,4.08-13.469
		c3.236-3.693,7.906-5.813,12.816-5.816h8.533v-85.333c-0.002-9.053,3.593-17.737,9.995-24.138s15.085-9.997,24.138-9.995h-25.6
		c-9.053-0.002-17.737,3.593-24.138,9.995s-9.997,15.085-9.995,24.138v85.333H25.6c-4.91,0.004-9.58,2.123-12.816,5.816
		c-3.236,3.693-4.722,8.601-4.08,13.469l29.525,221.867c1.137,8.507,8.399,14.856,16.981,14.848h25.6
		C72.228,503.475,64.967,497.126,63.829,488.619z"/>
	<g>
		<polygon style="fill:#FFFFFF;" points="17.143,265.66 31.804,375.62 46.729,487.526 29.807,489.779 14.891,377.873 0.23,267.913 
					"/>
		<g>
			<path style="fill:#428DFF;" d="M18.836,342.916c2.234-0.333,4.261-1.495,5.678-3.254c2.826-3.772,2.114-9.111-1.602-12.01
				l-1.403-0.847c-0.515-0.258-1.062-0.447-1.626-0.561c-0.512-0.179-1.048-0.281-1.591-0.3c-0.571-0.021-1.144-0.003-1.713,0.055
				c-2.235,0.33-4.263,1.493-5.678,3.254c-2.744,3.793-2.04,9.07,1.602,12.01c0.91,0.656,1.936,1.132,3.024,1.404
				C16.604,342.965,17.728,343.05,18.836,342.916z"/>
			<path style="fill:#428DFF;" d="M486.4,238.933V204.8c-0.019-18.844-15.29-34.115-34.133-34.133h-34.133V17.583
				C418.12,7.878,410.255,0.014,400.55,0h-289.1c-9.705,0.014-17.57,7.878-17.583,17.583v101.883h-25.6
				c-23.553,0.028-42.639,19.114-42.667,42.667v76.8c-7.378,0.004-14.396,3.189-19.256,8.741c-4.86,5.551-7.09,12.929-6.119,20.243
				l0.004,0.01l4.509,33.824c0.389,3.034,2.372,5.628,5.198,6.799s6.063,0.739,8.483-1.131c2.421-1.87,3.655-4.893,3.235-7.923
				l-4.51-33.833l-0.003,0.001c-0.325-2.438,0.417-4.899,2.038-6.75C20.8,257.062,23.14,256,25.6,256h460.8
				c2.461,0,4.802,1.063,6.422,2.915c1.62,1.852,2.363,4.313,2.036,6.752l-29.583,221.858c-0.576,4.234-4.185,7.395-8.458,7.409
				H55.183c-4.272-0.013-7.88-3.173-8.457-7.405h0.001L30.678,367.163c-0.644-4.651-4.926-7.908-9.581-7.287
				c-4.655,0.621-7.933,4.886-7.336,9.543l16.047,120.363v0.01c1.734,12.696,12.561,22.172,25.375,22.208h401.633
				c12.817-0.036,23.645-9.517,25.375-22.217l29.583-221.867c0.971-7.314-1.259-14.691-6.119-20.243
				C500.796,242.123,493.778,238.937,486.4,238.933z M42.667,162.133c0.015-14.132,11.468-25.585,25.6-25.6h25.6v102.4h-51.2
				V162.133z M110.95,238.933l0.5-221.867l289.616,0.517v221.35H110.95z M418.133,238.933v-51.2h34.133
				c9.421,0.012,17.054,7.646,17.067,17.067v34.133H418.133z"/>
			<path style="fill:#428DFF;" d="M196.267,59.733c-23.553,0.028-42.639,19.114-42.667,42.667c0,4.713,3.821,8.533,8.533,8.533
				s8.533-3.821,8.533-8.533c0-14.138,11.462-25.6,25.6-25.6c14.139,0,25.6,11.462,25.6,25.6s-11.462,25.6-25.6,25.6
				c-2.264-0.001-4.435,0.897-6.035,2.498c-1.601,1.601-2.499,3.772-2.498,6.035v25.6c0,4.713,3.82,8.533,8.533,8.533
				s8.533-3.821,8.533-8.533v-17.925c21.461-4.382,36.118-24.302,33.917-46.095S218.17,59.735,196.267,59.733z"/>
			<path style="fill:#428DFF;" d="M315.733,59.733c-23.553,0.028-42.639,19.114-42.667,42.667c0,4.713,3.821,8.533,8.533,8.533
				c4.713,0,8.533-3.821,8.533-8.533c0-14.138,11.462-25.6,25.6-25.6c14.138,0,25.6,11.462,25.6,25.6s-11.462,25.6-25.6,25.6
				c-2.264-0.001-4.435,0.897-6.035,2.498c-1.601,1.601-2.499,3.772-2.498,6.035v25.6c0,4.713,3.821,8.533,8.533,8.533
				c4.713,0,8.533-3.821,8.533-8.533v-17.925c21.461-4.382,36.118-24.302,33.917-46.095S337.637,59.735,315.733,59.733z"/>
			<path style="fill:#428DFF;" d="M202.325,190.208c-0.407-0.367-0.836-0.709-1.283-1.025c-0.474-0.324-0.99-0.582-1.533-0.767
				c-0.51-0.259-1.059-0.433-1.625-0.517c-2.779-0.473-5.619,0.381-7.676,2.308c-0.754,0.829-1.36,1.782-1.792,2.817
				c-1.362,3.175-0.652,6.859,1.792,9.301c0.829,0.754,1.782,1.36,2.817,1.792c2.065,0.911,4.418,0.911,6.483,0
				c1.034-0.434,1.986-1.04,2.817-1.792c2.444-2.441,3.154-6.125,1.792-9.3C203.685,191.991,203.079,191.038,202.325,190.208z"/>
			<path style="fill:#428DFF;" d="M321.792,190.208c-0.407-0.367-0.836-0.709-1.283-1.025c-0.474-0.324-0.99-0.582-1.533-0.767
				c-0.51-0.259-1.059-0.433-1.625-0.517c-2.779-0.473-5.619,0.381-7.676,2.308c-0.754,0.829-1.36,1.782-1.792,2.817
				c-1.362,3.175-0.652,6.859,1.792,9.301c0.829,0.754,1.782,1.36,2.817,1.792c2.065,0.911,4.418,0.911,6.483,0
				c1.034-0.434,1.986-1.04,2.817-1.792c2.444-2.441,3.154-6.125,1.792-9.3C323.152,191.991,322.546,191.038,321.792,190.208z"/>
		</g>
	</g>
</g>
<g>
</g>
<g>
</g>
<g>
</g>
<g>
</g>
<g>
</g>
<g>
</g>
<g>
</g>
<g>
</g>
<g>
</g>
<g>
</g>
<g>
</g>
<g>
</g>
<g>
</g>
<g>
</g>
<g>
</g>
</svg>
