<?xml version="1.0" encoding="iso-8859-1"?>
<!-- Generator: Adobe Illustrator 19.0.0, SVG Export Plug-In . SVG Version: 6.00 Build 0)  -->
<svg version="1.1" id="Capa_1" xmlns="http://www.w3.org/2000/svg" xmlns:xlink="http://www.w3.org/1999/xlink" x="0px" y="0px"
	 viewBox="0 0 512.009 512.009" style="enable-background:new 0 0 512.009 512.009;" xml:space="preserve">
<g>
	<g transform="translate(1 1)">
		<path style="fill:#A4C2F7;" d="M33.134,7.533h256c14.138,0,25.6,11.462,25.6,25.6v443.733c0,14.138-11.462,25.6-25.6,25.6h-256
			c-14.138,0-25.6-11.462-25.6-25.6V33.133C7.534,18.995,18.996,7.533,33.134,7.533z"/>
		<path style="fill:#D4E1F4;" d="M33.134,7.533h230.4c14.138,0,25.6,11.462,25.6,25.6v443.733c0,14.138-11.462,25.6-25.6,25.6
			h-230.4c-14.138,0-25.6-11.462-25.6-25.6V33.133C7.534,18.995,18.996,7.533,33.134,7.533z"/>
		<path style="fill:#A4C2F7;" d="M280.601,50.2v409.6c-0.014,4.707-3.826,8.519-8.533,8.533H50.201
			c-4.707-0.014-8.519-3.826-8.533-8.533V50.2c0.014-4.707,3.826-8.519,8.533-8.533h34.133c4.707,0.014,8.519,3.826,8.533,8.533
			v17.067c0.014,4.707,3.826,8.519,8.533,8.533h119.467c4.707-0.014,8.519-3.826,8.533-8.533V50.2
			c0.014-4.707,3.826-8.519,8.533-8.533h34.133C276.774,41.681,280.587,45.493,280.601,50.2z"/>
		<path style="fill:#E3E7F2;" d="M255.001,50.2v409.6c-0.014,4.707-3.826,8.519-8.533,8.533H50.201
			c-4.707-0.014-8.519-3.826-8.533-8.533V50.2c0.014-4.707,3.826-8.519,8.533-8.533h34.133c4.707,0.014,8.519,3.826,8.533,8.533
			v17.067c0.014,4.707,3.826,8.519,8.533,8.533h119.467c4.707-0.014,8.519-3.826,8.533-8.533V50.2
			c0.014-4.707,3.826-8.519,8.533-8.533h8.533C251.174,41.681,254.987,45.493,255.001,50.2z"/>
		<path style="fill:#D4E1F4;" d="M465.339,54.693L451.267,75.8v187.733h-34.133V75.8l-14.071-21.107
			c-1.829-2.744-1.914-6.296-0.217-9.124l22.822-38.036h17.067l22.822,38.036C467.253,48.397,467.168,51.949,465.339,54.693z"/>
		<path style="fill:#A4C2F7;" d="M468.334,323.267c-0.015,16.122,11.274,30.046,27.051,33.365c4.078,0.758,7.048,4.3,7.083,8.448
			v66.817c0.595,20.763-8.249,40.677-24.051,54.158c-15.802,13.481-36.862,19.077-57.271,15.218
			c-32.078-6.273-55.219-34.387-55.211-67.072v-69.121c0.035-4.148,3.004-7.69,7.083-8.448c15.768-3.333,27.05-17.249,27.05-33.365
			s-11.282-30.033-27.05-33.365c-4.079-0.758-7.048-4.3-7.083-8.448v-17.92c0.027-9.414,7.652-17.039,17.067-17.067h102.4
			c9.414,0.027,17.039,7.652,17.067,17.067v17.92c-0.034,4.148-3.004,7.69-7.083,8.448
			C479.609,293.221,468.32,307.145,468.334,323.267z"/>
		<path style="fill:#E3E7F2;" d="M442.734,323.267c-0.015,16.122,11.274,30.046,27.051,33.365c4.078,0.758,7.048,4.3,7.083,8.448
			v66.817c0.299,33.438-23.007,62.455-55.723,69.376c-32.078-6.273-55.219-34.387-55.211-67.072v-69.121
			c0.035-4.148,3.004-7.69,7.083-8.448c15.768-3.333,27.05-17.249,27.05-33.365s-11.282-30.033-27.05-33.365
			c-4.079-0.758-7.048-4.3-7.083-8.448v-17.92c0.027-9.414,7.652-17.039,17.067-17.067h76.8c9.414,0.027,17.039,7.652,17.067,17.067
			v17.92c-0.034,4.148-3.004,7.69-7.083,8.448C454.009,293.221,442.72,307.145,442.734,323.267z"/>
		<path style="fill:#A4C2F7;" d="M425.667,365.933h17.067c4.713,0,8.533,3.821,8.533,8.533v76.8c0,9.426-7.641,17.067-17.067,17.067
			s-17.067-7.641-17.067-17.067v-76.8C417.134,369.754,420.955,365.933,425.667,365.933z"/>
		<g>
			<path style="fill:#FFFFFF;" d="M391.534,434.2v-69.121c0.035-4.148,3.004-7.69,7.083-8.448
				c15.768-3.333,27.05-17.249,27.05-33.365s-11.282-30.033-27.05-33.365c-4.079-0.758-7.048-4.3-7.083-8.448v-17.92
				c0.027-9.414,7.652-17.039,17.067-17.067h-25.6c-9.414,0.027-17.039,7.652-17.067,17.067v17.92
				c0.034,4.148,3.004,7.69,7.083,8.448c15.768,3.333,27.05,17.249,27.05,33.365c0,16.116-11.282,30.033-27.05,33.365
				c-4.078,0.758-7.048,4.3-7.083,8.448V434.2c-0.009,32.685,23.133,60.799,55.211,67.072c5.794,1.076,11.7,1.42,17.579,1.024
				c2.664-0.185,5.313-0.534,7.934-1.045C414.622,494.944,391.526,466.851,391.534,434.2z"/>
			<path style="fill:#FFFFFF;" d="M33.134,476.867V33.133c-0.009-6.792,2.685-13.309,7.488-18.112s11.32-7.497,18.112-7.488l-25.6,0
				c-6.792-0.009-13.309,2.685-18.112,7.488s-7.497,11.32-7.488,18.112v443.733c-0.009,6.792,2.685,13.309,7.488,18.112
				s11.32,7.497,18.112,7.488h25.6c-6.792,0.009-13.309-2.685-18.112-7.488C35.819,490.176,33.125,483.659,33.134,476.867z"/>
		</g>
	</g>
	<g>
		<polygon style="fill:#FFFFFF;" points="17.067,34.133 17.067,145.067 17.067,477.867 0.001,477.867 0.001,145.067 0.001,34.133 		
			"/>
		<g>
			<path style="fill:#428DFF;" d="M8.534,110.933c2.259-0.034,4.422-0.918,6.059-2.475c3.3-3.365,3.3-8.752,0-12.117l-1.279-1.025
				c-0.476-0.324-0.993-0.583-1.538-0.771c-0.484-0.246-1.003-0.417-1.538-0.509c-0.563-0.096-1.133-0.153-1.704-0.171
				c-2.259,0.031-4.423,0.915-6.059,2.475c-3.222,3.397-3.222,8.721,0,12.117c0.815,0.77,1.77,1.379,2.813,1.792
				C6.315,110.688,7.418,110.92,8.534,110.933z"/>
			<path style="fill:#428DFF;" d="M290.134,0h-256C15.291,0.019,0.02,15.29,0.001,34.133v34.133c0,4.713,3.821,8.533,8.533,8.533
				s8.533-3.82,8.533-8.533V34.133c0.012-9.421,7.646-17.054,17.067-17.067h256c9.421,0.012,17.054,7.646,17.067,17.067v443.733
				c-0.012,9.421-7.646,17.054-17.067,17.067h-256c-9.421-0.012-17.054-7.646-17.067-17.067V136.533
				c0-4.713-3.821-8.533-8.533-8.533s-8.533,3.821-8.533,8.533v341.333C0.02,496.71,15.291,511.981,34.134,512h256
				c18.844-0.019,34.115-15.29,34.133-34.133V34.133C324.249,15.29,308.978,0.019,290.134,0z"/>
			<path style="fill:#428DFF;" d="M85.334,34.133H51.201C41.78,34.146,34.146,41.779,34.134,51.2v409.6
				c0.012,9.421,7.646,17.054,17.067,17.067h221.867c9.421-0.012,17.054-7.646,17.067-17.067V51.2
				c-0.012-9.421-7.646-17.054-17.067-17.067h-34.133c-9.421,0.012-17.054,7.646-17.067,17.067v17.067H102.401V51.2
				C102.389,41.779,94.755,34.146,85.334,34.133z M51.201,267.005l21.358-6.822l27.292,8.717c1.69,0.55,3.51,0.55,5.2,0
				l27.908-8.925l11.595,1.854l-21.754,22.354c-0.569,0.587-1.052,1.252-1.434,1.975l-16.575,31.458L65.817,334.35
				c-1.584,0.683-2.926,1.827-3.85,3.283l-10.767,17.052V267.005z M273.067,354.675L262.359,337.7
				c-0.678-1.078-1.589-1.989-2.667-2.667l-34.967-22.059l-22.1-35.017c-0.512-0.805-1.154-1.52-1.9-2.116l-18.15-14.464
				l8.792-1.403l27.95,8.925c1.69,0.55,3.51,0.55,5.2,0l27.25-8.717l21.3,6.818V354.675z M273.067,249.085l-18.7-5.985
				c-1.69-0.55-3.51-0.55-5.2,0l-27.25,8.717l-27.292-8.717c-1.273-0.419-2.628-0.522-3.95-0.3l-3.897,0.623l30.772-30.773
				l23.083-4.7c3.198-0.647,5.746-3.065,6.558-6.225l8.525-32.992l17.35-9.366V249.085z M133.651,242.8
				c-1.321-0.228-2.678-0.124-3.95,0.3l-27.25,8.717L75.159,243.1c-1.69-0.55-3.51-0.55-5.2,0l-18.758,5.994v-94.847l18.292,14.578
				l22.367,35.433c1.011,1.597,2.524,2.813,4.3,3.458l34.617,12.6l14.616,24.363L133.651,242.8z M51.201,385.563
				c0.81-0.592,1.507-1.324,2.058-2.163l21.725-34.408l39.317-16.883c1.796-0.772,3.272-2.137,4.183-3.867l17.408-33.042
				l17.709-18.196v31.029l-16.658,52.092c-0.665,2.076-0.51,4.327,0.433,6.292l24.125,50.267L147.375,460.8H51.201V385.563z
				 M165.292,460.8l13.501-42.15c0.665-2.076,0.51-4.327-0.433-6.292l-24.133-50.267l16.033-50.125c0.273-0.84,0.41-1.717,0.408-2.6
				v-35.653l18.292,14.578l22.367,35.433c0.678,1.075,1.589,1.984,2.667,2.658l34.967,22.05l22.05,34.958
				c0.551,0.84,1.248,1.575,2.058,2.169v75.24H165.292z M238.934,68.267V51.2h34.133v88.777l-28.733,15.506
				c-2.091,1.126-3.617,3.075-4.208,5.375l-8.117,31.433l-20.375,4.15c-1.641,0.333-3.148,1.141-4.333,2.325l-33.185,33.185
				l3.635-25.969c0.2-1.408,0.042-2.844-0.458-4.175l-13.3-35.575l13.433-42.008c0.542-1.691,0.542-3.509,0-5.2l-10.773-33.692
				h55.215C231.288,85.321,238.922,77.687,238.934,68.267z M148.739,85.333l11.603,36.292l-13.5,42.225
				c-0.586,1.826-0.539,3.796,0.133,5.592l13.575,36.317l-3.52,25.15l-13.18-21.967c-1.007-1.677-2.561-2.957-4.4-3.625
				l-34.717-12.642l-21.575-34.183c-0.512-0.805-1.154-1.52-1.9-2.116l-30.058-23.953V51.2h34.133v17.067
				c0.012,9.421,7.646,17.054,17.067,17.067H148.739z"/>
			<path style="fill:#428DFF;" d="M187.734,51.2c4.713,0,8.533-3.821,8.533-8.533s-3.821-8.533-8.533-8.533h-17.067
				c-4.713,0-8.533,3.821-8.533,8.533s3.821,8.533,8.533,8.533H187.734z"/>
			<path style="fill:#428DFF;" d="M486.401,238.933h-25.6V79.383l12.642-18.958v-0.009c3.633-5.494,3.801-12.582,0.433-18.242
				L451.051,4.142C449.508,1.572,446.731,0,443.734,0h-17.067c-2.997,0-5.774,1.572-7.317,4.142l-22.833,38.05
				c-3.361,5.66-3.189,12.743,0.442,18.233l12.642,18.958v159.55h-25.6c-14.132,0.015-25.585,11.468-25.6,25.6v17.958
				c0.025,8.169,5.829,15.177,13.85,16.725c11.825,2.515,20.282,12.957,20.284,25.047c0.002,12.09-8.451,22.535-20.275,25.053
				c-8.024,1.544-13.832,8.554-13.858,16.725V435.2c0.033,21.221,8.811,41.491,24.267,56.033
				c14.18,13.398,32.966,20.836,52.475,20.775c1.7,0,3.408-0.056,5.125-0.167c40.95-3.377,72.294-37.882,71.733-78.967v-66.833
				c-0.025-8.169-5.829-15.177-13.85-16.725c-11.825-2.515-20.281-12.957-20.284-25.047c-0.002-12.09,8.451-22.535,20.275-25.053
				c8.024-1.544,13.832-8.554,13.858-16.725v-17.958C511.985,250.401,500.533,238.949,486.401,238.933z M425.234,72.067
				l-14.075-21.108l20.342-33.892h7.4l20.333,33.875l0.009,0.025l-14.075,21.1c-0.934,1.402-1.433,3.049-1.434,4.733v162.133
				h-17.067V76.8C426.667,75.115,426.168,73.469,425.234,72.067z M494.634,282.517c-19.778,4.18-33.905,21.67-33.833,41.885
				c0.073,20.215,14.325,37.602,34.133,41.64v66.833c0.574,32.091-23.791,59.151-55.767,61.933
				c-16.496,1.099-32.71-4.688-44.782-15.985c-12.072-11.296-18.921-27.091-18.918-43.624l0.3-69.183
				c19.778-4.18,33.906-21.67,33.833-41.885c-0.073-20.215-14.325-37.602-34.133-41.64v-17.958c0.003-4.712,3.822-8.53,8.533-8.533
				h102.4c4.712,0.003,8.53,3.822,8.533,8.533L494.634,282.517z"/>
			<path style="fill:#428DFF;" d="M452.267,358.4h-34.133c-2.264-0.001-4.435,0.897-6.035,2.498
				c-1.601,1.601-2.499,3.772-2.498,6.035v85.333c0,14.138,11.462,25.6,25.6,25.6s25.6-11.462,25.6-25.6v-85.333
				c0.001-2.264-0.897-4.435-2.498-6.035C456.702,359.297,454.531,358.399,452.267,358.4z M443.734,452.267
				c0,4.713-3.82,8.533-8.533,8.533s-8.533-3.82-8.533-8.533v-76.8h17.067V452.267z"/>
			<path style="fill:#428DFF;" d="M138.151,51.029c0.566-0.082,1.115-0.255,1.625-0.513c0.543-0.188,1.059-0.447,1.533-0.771
				c0.425-0.338,0.858-0.679,1.284-1.021c3.3-3.365,3.3-8.752,0-12.117c-0.425-0.341-0.858-0.683-1.283-1.025
				c-0.475-0.324-0.99-0.583-1.533-0.771c-0.51-0.258-1.059-0.43-1.625-0.509c-1.093-0.258-2.232-0.258-3.325,0
				c-0.534,0.091-1.051,0.263-1.533,0.508c-0.546,0.187-1.064,0.447-1.542,0.771l-1.275,1.025c-3.3,3.365-3.3,8.752,0,12.117
				c1.627,1.573,3.796,2.459,6.059,2.475C137.077,51.184,137.617,51.127,138.151,51.029z"/>
		</g>
	</g>
</g>
<g>
</g>
<g>
</g>
<g>
</g>
<g>
</g>
<g>
</g>
<g>
</g>
<g>
</g>
<g>
</g>
<g>
</g>
<g>
</g>
<g>
</g>
<g>
</g>
<g>
</g>
<g>
</g>
<g>
</g>
</svg>
