<?xml version="1.0" encoding="iso-8859-1"?>
<!-- Generator: Adobe Illustrator 19.0.0, SVG Export Plug-In . SVG Version: 6.00 Build 0)  -->
<svg version="1.1" id="Capa_1" xmlns="http://www.w3.org/2000/svg" xmlns:xlink="http://www.w3.org/1999/xlink" x="0px" y="0px"
	 viewBox="0 0 512 512" style="enable-background:new 0 0 512 512;" xml:space="preserve">
<g>
	<g transform="translate(1 1)">
		<g>
			<path style="fill:#E3E7F2;" d="M490.776,220.779c-6.207-5.448-14.184-8.451-22.443-8.448H41.667
				c-18.838,0.033-34.1,15.296-34.133,34.133v221.867c0.033,18.838,15.296,34.1,34.133,34.133h426.667
				c18.838-0.033,34.1-15.296,34.133-34.133V246.465C502.48,236.612,498.214,227.24,490.776,220.779z"/>
			<path style="fill:#E3E7F2;" d="M207.896,357.398L19.224,494.017c-7.438-6.46-11.704-15.833-11.691-25.685V246.465
				c-0.014-9.852,4.252-19.225,11.691-25.685l4.523,3.328L207.896,357.398z"/>
		</g>
		<path style="fill:#A4C2F7;" d="M490.776,220.779L302.104,357.398l-27.051,19.627c-11.98,8.619-28.127,8.619-40.107,0l-2.816-2.048
			l-24.235-17.579L23.747,224.107l-4.523-3.328c6.207-5.448,14.184-8.451,22.443-8.448h426.667
			C476.592,212.328,484.569,215.331,490.776,220.779z"/>
		<path style="fill:#E3E7F2;" d="M444.952,220.779L256.28,357.398l-24.149,17.579l-24.235-17.579L23.747,224.107l-4.523-3.328
			c6.207-5.448,14.184-8.451,22.443-8.448h380.843C430.768,212.328,438.745,215.331,444.952,220.779z"/>
		<path style="fill:#A4C2F7;" d="M502.467,246.465v221.867c0.014,9.852-4.252,19.225-11.691,25.685l-16.725-12.117L302.104,357.398
			l171.947-124.502l16.725-12.117C498.214,227.24,502.48,236.612,502.467,246.465z"/>
		<g>
			<path style="fill:#E3E7F2;" d="M476.867,246.465v221.867c-0.001,4.668-0.96,9.285-2.816,13.568L302.104,357.398l171.947-124.502
				C475.907,237.179,476.865,241.797,476.867,246.465z"/>
			<path style="fill:#E3E7F2;" d="M398.531,173.846c2.048-14.091,2.048-28.405,0-42.496l-28.16-9.388
				c-2.686-10.263-6.763-20.11-12.117-29.268l13.227-26.539c-8.479-11.437-18.6-21.559-30.037-30.037l-26.539,13.226
				c-9.159-5.353-19.007-9.43-29.269-12.116l-9.387-28.16c-14.091-2.047-28.405-2.047-42.496,0l-9.387,28.16
				c-10.263,2.687-20.11,6.763-29.269,12.116l-26.539-13.226c-11.437,8.479-21.559,18.6-30.037,30.037l13.227,26.539
				c-5.354,9.158-9.431,19.006-12.117,29.269l-28.16,9.387c-2.048,14.091-2.048,28.405,0,42.496l28.16,9.387
				c2.686,10.263,6.763,20.111,12.117,29.269l-13.227,26.539c8.478,11.437,18.6,21.559,30.037,30.036l26.539-13.226
				c9.159,5.354,19.006,9.431,29.269,12.117l9.387,28.16c14.091,2.047,28.405,2.047,42.496,0l9.387-28.16
				c10.263-2.687,20.111-6.763,29.269-12.117l26.539,13.226c11.437-8.478,21.559-18.6,30.037-30.037l-13.227-26.539
				c5.354-9.159,9.431-19.006,12.117-29.269L398.531,173.846z M255,229.398c-42.415,0-76.8-34.385-76.8-76.8s34.385-76.8,76.8-76.8
				s76.8,34.385,76.8,76.8C331.796,195.012,297.414,229.394,255,229.398z"/>
		</g>
		<path style="fill:#A4C2F7;" d="M370.371,183.233c-2.686,10.263-6.763,20.111-12.117,29.269l13.227,26.539
			c-8.478,11.437-18.6,21.559-30.037,30.036l-15.872-7.935c2.219-1.877,4.352-3.925,6.4-5.973
			c5.026-5.028,9.675-10.418,13.909-16.128l-13.227-26.539c5.354-9.159,9.431-19.006,12.117-29.269l28.16-9.387
			c2.048-14.091,2.048-28.405,0-42.496l-28.16-9.388c-2.686-10.263-6.763-20.11-12.117-29.268l13.227-26.539
			c-4.234-5.71-8.883-11.101-13.909-16.128c-2.048-2.048-4.181-4.096-6.4-5.973l15.872-7.936
			c11.437,8.479,21.559,18.6,30.037,30.037l-13.227,26.539c5.354,9.158,9.431,19.006,12.117,29.269l28.16,9.388
			c2.048,14.091,2.048,28.405,0,42.496L370.371,183.233z"/>
	</g>
	<g transform="translate(1 4)">
		<path style="fill:#FFFFFF;" d="M164.12,236.041l13.227-26.539l-0.092-0.171c-3.962-6.8-7.224-13.984-9.735-21.443
			c-0.603-1.79-1.112-3.623-1.631-5.451c-0.21-0.74-0.464-1.459-0.659-2.205l-28.16-9.387c-2.048-14.091-2.048-28.405,0-42.496
			l28.16-9.387c0.196-0.746,0.449-1.466,0.659-2.205c0.518-1.828,1.028-3.661,1.631-5.451c2.511-7.458,5.773-14.643,9.736-21.442
			l0.092-0.171L164.12,63.155c4.234-5.71,8.883-11.101,13.909-16.128c2.095-2.095,4.261-4.05,6.442-5.979l-15.914-7.93
			c-11.437,8.479-21.559,18.6-30.037,30.037l13.227,26.539c-4.005,6.85-7.299,14.092-9.828,21.614
			c-0.603,1.788-1.113,3.622-1.631,5.451c-0.209,0.74-0.464,1.458-0.659,2.204l-28.16,9.387c-2.048,14.091-2.048,28.405,0,42.496
			l28.16,9.388c0.195,0.746,0.45,1.465,0.659,2.204c0.518,1.829,1.028,3.663,1.631,5.451c2.529,7.521,5.822,14.763,9.827,21.613
			l-13.227,26.539c8.479,11.437,18.6,21.559,30.037,30.037l15.913-7.93c-2.18-1.929-4.347-3.884-6.442-5.979
			C173.003,247.141,168.354,241.751,164.12,236.041z"/>
		<path style="fill:#FFFFFF;" d="M327.742,39.946c4.381,1.869,8.643,4.006,12.762,6.398l10.625-5.296
			c-3.149-2.785-6.358-5.459-9.686-7.93L327.742,39.946z"/>
		<path style="fill:#FFFFFF;" d="M33.133,465.331V243.465c0.033-18.838,15.296-34.1,34.133-34.133h-25.6
			c-18.838,0.033-34.1,15.296-34.133,34.133v221.867c0.033,18.838,15.296,34.1,34.133,34.133h25.6
			C48.429,499.432,33.166,484.169,33.133,465.331z"/>
	</g>
	<g>
		<polygon style="fill:#FFFFFF;" points="17.067,247.465 17.067,358.398 17.067,469.331 0,469.331 0,358.398 0,247.465 		"/>
		<g>
			<path style="fill:#428DFF;" d="M8.533,324.265c2.259-0.034,4.422-0.918,6.059-2.475c3.3-3.365,3.3-8.752,0-12.117l-1.279-1.025
				c-0.476-0.324-0.993-0.583-1.538-0.771c-0.484-0.246-1.003-0.417-1.538-0.509c-0.563-0.096-1.133-0.153-1.704-0.171
				c-2.259,0.031-4.423,0.915-6.059,2.475c-3.222,3.397-3.222,8.721,0,12.117c0.815,0.771,1.77,1.379,2.813,1.792
				C6.314,324.02,7.417,324.252,8.533,324.265z"/>
			<path style="fill:#428DFF;" d="M497.363,215.554c-0.428-0.438-0.902-0.829-1.414-1.167c-7.506-6.161-16.905-9.547-26.616-9.59
				h-68.267c-4.713,0-8.533,3.821-8.533,8.533c0,4.713,3.82,8.533,8.533,8.533h68.267c2.193,0.029,4.374,0.343,6.486,0.935
				L298.092,351.49l-0.025,0.017l-27.05,19.6c-8.951,6.517-21.083,6.517-30.033,0l-27.075-19.617l-0.064-0.029L36.132,222.815
				c2.127-0.601,4.324-0.92,6.534-0.95h68.267c4.713,0,8.533-3.821,8.533-8.533c0-4.713-3.821-8.533-8.533-8.533H42.667
				c-9.705,0.042-19.099,3.425-26.604,9.579c-0.497,0.329-0.958,0.71-1.375,1.135C5.398,223.535,0.04,235.19,0,247.465v34.133
				c0,4.713,3.821,8.533,8.533,8.533s8.533-3.821,8.533-8.533v-34.133c-0.005-5.089,1.515-10.063,4.364-14.279l172.919,125.214
				L21.43,483.609c-2.849-4.216-4.369-9.189-4.363-14.277V349.865c0-4.713-3.821-8.533-8.533-8.533S0,345.152,0,349.865v119.467
				c0.028,23.553,19.114,42.639,42.667,42.667h426.667c23.553-0.028,42.639-19.114,42.667-42.667V247.465
				C511.96,235.213,506.623,223.577,497.363,215.554z M317.656,358.403l172.915-125.215c2.849,4.216,4.368,9.188,4.362,14.276
				v221.867c0.006,5.088-1.514,10.061-4.363,14.277L317.656,358.403z M42.667,494.931c-2.193-0.029-4.373-0.344-6.485-0.935
				l172.716-125.06l22.069,15.988c14.924,10.856,35.143,10.856,50.067,0l22.074-15.985l172.711,125.058
				c-2.112,0.592-4.292,0.906-6.485,0.935H42.667z"/>
			<path style="fill:#428DFF;" d="M256,238.931c47.128,0,85.333-38.205,85.333-85.333S303.128,68.265,256,68.265
				s-85.333,38.205-85.333,85.333C170.722,200.703,208.895,238.876,256,238.931z M256,85.331c37.703,0,68.267,30.564,68.267,68.267
				S293.703,221.865,256,221.865c-37.703,0-68.267-30.564-68.267-68.267C187.776,115.913,218.315,85.374,256,85.331z"/>
			<path style="fill:#428DFF;" d="M109.783,124.265c-3.049,1.013-5.269,3.655-5.742,6.833c-2.189,14.92-2.189,30.08,0,45
				c0.473,3.178,2.693,5.82,5.742,6.833l23.883,7.967c2.406,7.904,5.571,15.556,9.45,22.85l-11.25,22.492
				c-1.433,2.874-1.134,6.309,0.775,8.892c9.002,12.102,19.723,22.823,31.825,31.825c2.586,1.901,6.016,2.2,8.892,0.775
				l22.492-11.25c7.294,3.879,14.946,7.044,22.85,9.45l7.967,23.883c1.013,3.049,3.655,5.269,6.833,5.742
				c14.92,2.189,30.08,2.189,45,0c3.178-0.473,5.82-2.693,6.833-5.742l7.967-23.883c7.904-2.406,15.556-5.571,22.85-9.45
				l22.492,11.25c2.873,1.437,6.31,1.138,8.892-0.775c12.102-9.002,22.823-19.723,31.825-31.825
				c1.909-2.583,2.208-6.018,0.775-8.892l-11.25-22.492c3.879-7.294,7.044-14.946,9.45-22.85l23.883-7.967
				c3.049-1.013,5.269-3.655,5.742-6.833c2.189-14.92,2.189-30.08,0-45c-0.473-3.178-2.693-5.82-5.742-6.833l-23.883-7.967
				c-2.406-7.904-5.571-15.556-9.45-22.85l11.25-22.492c1.433-2.874,1.134-6.309-0.775-8.892
				c-9.002-12.102-19.723-22.823-31.825-31.824c-2.582-1.912-6.018-2.212-8.892-0.775L316.15,40.715
				c-7.294-3.879-14.946-7.044-22.85-9.45l-7.967-23.883c-1.013-3.049-3.655-5.269-6.833-5.742c-14.921-2.183-30.079-2.183-45,0
				c-3.178,0.473-5.82,2.693-6.833,5.742L218.7,31.265c-7.904,2.406-15.556,5.571-22.85,9.45l-22.492-11.25
				c-2.875-1.428-6.307-1.129-8.892,0.775c-12.102,9.002-22.823,19.723-31.824,31.825c-1.909,2.583-2.208,6.018-0.775,8.892
				l11.25,22.492c-3.879,7.294-7.044,14.946-9.45,22.85L109.783,124.265z M143.342,131.065c2.724-0.909,4.81-3.125,5.55-5.9
				c2.517-9.532,6.301-18.683,11.25-27.208c1.447-2.486,1.544-5.535,0.258-8.108l-10.875-21.742
				c3.108-3.866,6.427-7.558,9.941-11.058c3.493-3.511,7.18-6.824,11.042-9.925l21.742,10.875c2.573,1.29,5.623,1.193,8.108-0.258
				c8.526-4.949,17.677-8.733,27.209-11.25c2.775-0.74,4.991-2.826,5.9-5.55l7.692-23.083c9.867-1.05,19.817-1.05,29.683,0
				l7.692,23.083c0.908,2.724,3.125,4.81,5.9,5.55c9.531,2.517,18.682,6.301,27.208,11.25c2.485,1.451,5.536,1.548,8.108,0.258
				l21.742-10.875c3.866,3.108,7.558,6.427,11.058,9.941c3.511,3.493,6.824,7.18,9.925,11.042L351.6,89.848
				c-1.286,2.574-1.189,5.622,0.258,8.108c4.949,8.526,8.733,17.677,11.25,27.209c0.74,2.775,2.826,4.991,5.55,5.9l23.083,7.692
				c1.055,9.866,1.055,19.817,0,29.683l-23.083,7.692c-2.724,0.908-4.81,3.125-5.55,5.9c-2.517,9.532-6.301,18.683-11.25,27.208
				c-1.447,2.486-1.544,5.535-0.258,8.108l10.875,21.742c-3.108,3.866-6.427,7.558-9.941,11.058
				c-3.494,3.511-7.18,6.824-11.042,9.925l-21.742-10.875c-2.573-1.29-5.623-1.193-8.108,0.258
				c-8.526,4.949-17.677,8.733-27.209,11.25c-2.775,0.74-4.991,2.826-5.9,5.55l-7.692,23.083c-9.867,1.05-19.817,1.05-29.683,0
				l-7.692-23.083c-0.909-2.724-3.125-4.81-5.9-5.55c-9.532-2.517-18.683-6.301-27.208-11.25c-2.485-1.451-5.536-1.548-8.108-0.258
				l-21.742,10.875c-3.866-3.108-7.558-6.427-11.058-9.941c-3.511-3.493-6.824-7.18-9.925-11.042l10.875-21.742
				c1.286-2.574,1.189-5.622-0.258-8.108c-4.949-8.526-8.733-17.677-11.25-27.209c-0.74-2.775-2.826-4.991-5.55-5.9l-23.083-7.692
				c-1.056-9.866-1.056-19.817,0-29.683L143.342,131.065z"/>
		</g>
	</g>
</g>
<g>
</g>
<g>
</g>
<g>
</g>
<g>
</g>
<g>
</g>
<g>
</g>
<g>
</g>
<g>
</g>
<g>
</g>
<g>
</g>
<g>
</g>
<g>
</g>
<g>
</g>
<g>
</g>
<g>
</g>
</svg>
