<?xml version="1.0" encoding="iso-8859-1"?>
<!-- Generator: Adobe Illustrator 19.0.0, SVG Export Plug-In . SVG Version: 6.00 Build 0)  -->
<svg version="1.1" id="Capa_1" xmlns="http://www.w3.org/2000/svg" xmlns:xlink="http://www.w3.org/1999/xlink" x="0px" y="0px"
	 viewBox="0 0 512 512" style="enable-background:new 0 0 512 512;" xml:space="preserve">
<g>
	<g transform="translate(1 5)">
		<path style="fill:#A4C2F7;" d="M442.733,140.067V404.6H67.267V140.067c0.028-9.414,7.652-17.039,17.067-17.067h341.333
			C435.081,123.028,442.706,130.652,442.733,140.067z"/>
		
			<linearGradient id="SVGID_1_" gradientUnits="userSpaceOnUse" x1="-49.804" y1="647.5403" x2="-48.9159" y2="646.4369" gradientTransform="matrix(349.8667 0 0 -281.6 17511.6016 182460.8125)">
			<stop  offset="0" style="stop-color:#D3DFF2"/>
			<stop  offset="0.1717" style="stop-color:#D3DFF2"/>
			<stop  offset="0.2" style="stop-color:#D3DFF2"/>
			<stop  offset="0.2002" style="stop-color:#DAE2F2"/>
			<stop  offset="0.2007" style="stop-color:#EBEAF2"/>
			<stop  offset="0.2014" style="stop-color:#F6EFF2"/>
			<stop  offset="0.2023" style="stop-color:#FDF2F2"/>
			<stop  offset="0.205" style="stop-color:#FFF3F2"/>
			<stop  offset="0.2522" style="stop-color:#FFF3F2"/>
			<stop  offset="0.26" style="stop-color:#FFF3F2"/>
			<stop  offset="0.26" style="stop-color:#D3DFF2"/>
			<stop  offset="0.3974" style="stop-color:#D3DFF2"/>
			<stop  offset="0.42" style="stop-color:#D3DFF2"/>
			<stop  offset="0.4202" style="stop-color:#DAE2F2"/>
			<stop  offset="0.4207" style="stop-color:#EBEAF2"/>
			<stop  offset="0.4214" style="stop-color:#F6EFF2"/>
			<stop  offset="0.4223" style="stop-color:#FDF2F2"/>
			<stop  offset="0.425" style="stop-color:#FFF3F2"/>
			<stop  offset="0.4894" style="stop-color:#FFF3F2"/>
			<stop  offset="0.5" style="stop-color:#FFF3F2"/>
			<stop  offset="0.5" style="stop-color:#F8F0F2"/>
			<stop  offset="0.5001" style="stop-color:#E7E8F2"/>
			<stop  offset="0.5003" style="stop-color:#DCE3F2"/>
			<stop  offset="0.5005" style="stop-color:#D5E0F2"/>
			<stop  offset="0.501" style="stop-color:#D3DFF2"/>
			<stop  offset="0.7062" style="stop-color:#D3DFF2"/>
			<stop  offset="0.74" style="stop-color:#D3DFF2"/>
			<stop  offset="0.741" style="stop-color:#FFF3F2"/>
			<stop  offset="0.8346" style="stop-color:#FFF3F2"/>
			<stop  offset="0.85" style="stop-color:#FFF3F2"/>
			<stop  offset="0.851" style="stop-color:#D3DFF2"/>
		</linearGradient>
		<path style="fill:url(#SVGID_1_);" d="M417.133,140.067V404.6H67.267V140.067c0.028-9.414,7.652-17.039,17.067-17.067h315.733
			C409.481,123.028,417.106,130.652,417.133,140.067z"/>
		<polygon style="fill:#7FABFA;" points="502.467,464.333 502.467,481.4 7.533,481.4 7.533,464.333 67.267,387.533 442.733,387.533 
					"/>
		<polygon style="fill:#A4C2F7;" points="476.867,464.333 476.867,481.4 7.533,481.4 7.533,464.333 67.267,387.533 417.133,387.533 
					"/>
		<path style="fill:#7FABFA;" d="M502.467,464.333V481.4c-0.028,9.414-7.653,17.039-17.067,17.067H24.6
			c-9.414-0.028-17.039-7.653-17.067-17.067v-17.067H502.467z"/>
		<g>
			<path style="fill:#A4C2F7;" d="M476.867,464.333V481.4c-0.028,9.414-7.653,17.039-17.067,17.067H24.6
				c-9.414-0.028-17.039-7.653-17.067-17.067v-17.067H476.867z"/>
			<path style="fill:#A4C2F7;" d="M391.533,351.011l0.001,36.523H118.465l0.001-37.802c-0.136-18.604,9.784-35.833,25.941-45.056
				l55.381-31.147c7.324-4.211,11.821-12.032,11.776-20.48v-14.763c0.008-1.386-0.442-2.736-1.28-3.84
				c-10.976-14.852-18.973-31.688-23.552-49.579v-89.6c0,0-6.571-50.859,55.467-57.002c4.253-0.424,8.526-0.624,12.8-0.598
				c75.691,0,68.267,57.6,68.267,57.6v89.6c-4.579,17.891-12.576,34.727-23.552,49.579c-0.838,1.104-1.288,2.454-1.28,3.84v15.36
				c-0.076,8.748,4.728,16.81,12.459,20.907l53.163,30.464C381.047,314.054,391.628,331.766,391.533,351.011z"/>
		</g>
		<path style="fill:#E3E7F2;" d="M365.933,351.011l0.001,36.523H118.465l0.001-37.802c-0.136-18.604,9.784-35.833,25.941-45.056
			l55.381-31.147c7.324-4.211,11.821-12.032,11.776-20.48v-14.763c0.008-1.386-0.442-2.736-1.28-3.84
			c-10.976-14.852-18.973-31.688-23.552-49.579v-89.6c0,0-6.571-50.859,55.467-57.002c62.037,6.143,55.467,57.002,55.467,57.002
			v89.6c-4.579,17.891-12.576,34.727-23.552,49.579c-0.838,1.104-1.288,2.454-1.28,3.84v15.36
			c-0.076,8.748,4.728,16.81,12.459,20.907l53.163,30.464C355.447,314.054,366.028,331.766,365.933,351.011z"/>
		<path style="fill:#FFFFFF;" d="M242.2,191.267h17.067c7.069,0,12.8,5.731,12.8,12.8v8.533c0,7.069-5.731,12.8-12.8,12.8H242.2
			c-7.069,0-12.8-5.731-12.8-12.8v-8.533C229.4,196.997,235.131,191.267,242.2,191.267z"/>
		<g>
			<rect x="152.6" y="105.933" style="fill:#A4C2F7;" width="34.133" height="59.733"/>
			<path style="fill:#A4C2F7;" d="M348.867,165.667h-25.6v-59.733H357.4v51.2C357.4,161.846,353.579,165.667,348.867,165.667z"/>
		</g>
	</g>
	<path style="fill:#FFFFFF;" d="M34.133,486.4v-17.067l59.733-76.8V145.067c0.027-9.414,7.652-17.039,17.067-17.067h-25.6
		c-9.414,0.027-17.039,7.652-17.067,17.067v247.467l-59.733,76.8V486.4c0.028,9.414,7.653,17.039,17.067,17.067h25.6
		C41.786,503.439,34.161,495.814,34.133,486.4z"/>
	<g>
		<polygon style="fill:#FFFFFF;" points="76.8,145.067 76.8,256 76.8,392.533 59.733,392.533 59.733,256 59.733,145.067 		"/>
		<g>
			<path style="fill:#428DFF;" d="M511.347,466.095c-0.059-0.144-0.16-0.257-0.227-0.397c-0.247-0.567-0.556-1.106-0.92-1.606
				l-57.933-74.485v-244.54c-0.015-14.132-11.468-25.585-25.6-25.6h-59.733v-8.533C367.975,50.834,320.196,1.221,260.1,0h-8.2
				c-60.096,1.221-107.875,50.834-106.833,110.933v8.533H85.333c-14.132,0.015-25.585,11.468-25.6,25.6V179.2
				c0,4.713,3.821,8.533,8.533,8.533c4.713,0,8.533-3.82,8.533-8.533v-34.133c0.003-4.712,3.822-8.53,8.533-8.533h59.733V192
				c-0.409,16.041,12.228,29.393,28.267,29.867h17.293c3.897,7.684,8.377,15.058,13.398,22.059v14.1
				c0.074,5.379-2.775,10.375-7.442,13.05l-55.342,31.15c-18.851,10.738-30.439,30.814-30.308,52.508V384H76.8V247.467
				c0-4.713-3.82-8.533-8.533-8.533c-4.713,0-8.533,3.821-8.533,8.533v142.14L1.8,464.092c-0.366,0.502-0.675,1.042-0.923,1.611
				c-0.066,0.139-0.165,0.249-0.223,0.391c-0.367,0.93-0.566,1.918-0.589,2.918C0.061,469.125,0,469.219,0,469.333V486.4
				c0.015,14.132,11.468,25.585,25.6,25.6h460.8c14.132-0.015,25.585-11.468,25.6-25.6v-17.067c0-0.115-0.06-0.208-0.065-0.322
				C511.913,468.012,511.714,467.025,511.347,466.095z M426.667,136.533c4.712,0.003,8.53,3.822,8.533,8.533V384h-34.133v-27.992
				c0.221-22.327-12.038-42.91-31.775-53.35l-53.5-30.7c-4.89-2.616-7.907-7.747-7.817-13.292v-14.741
				c11.47-15.665,19.826-33.385,24.617-52.2c0.14-0.61,0.21-1.233,0.208-1.859V179.2h17.067c9.421-0.012,17.054-7.646,17.067-17.067
				v-25.6H426.667z M349.867,162.133H332.8v-42.667h17.067V162.133z M251.9,17.067h8.2c47.386,1.019,86.155,38.044,89.354,85.333
				H332.8v-1.692c1.256-15.905-3.804-31.665-14.083-43.867C305.458,41.775,284.358,34.133,256,34.133s-49.458,7.642-62.717,22.708
				c-10.28,12.202-15.339,27.962-14.083,43.867v1.692h-16.654C165.744,55.111,204.514,18.086,251.9,17.067z M162.133,119.467H179.2
				v42.667h-17.067V119.467z M173.333,204.8c-6.61-0.478-11.604-6.186-11.2-12.8v-12.8H179.2v10.667
				c-0.002,0.625,0.068,1.249,0.208,1.858c1.026,4.433,2.321,8.799,3.878,13.075H173.333z M128,354.733
				c-0.134-15.523,8.121-29.909,21.592-37.625l55.317-31.142c10.066-5.686,16.26-16.381,16.183-27.942v-14.75
				c0.011-3.208-1.012-6.335-2.917-8.917c-2.927-4.023-5.648-8.193-8.154-12.492h12.277c2.038,9.926,10.769,17.055,20.902,17.067
				h17.067c11.778-0.011,21.322-9.556,21.333-21.333v-8.533c-0.011-11.778-9.556-21.322-21.333-21.333H243.2
				c-10.133,0.012-18.864,7.141-20.902,17.067h-20.824c-2.162-5.151-3.903-10.468-5.207-15.9v-88.633
				c-0.001-0.362-0.023-0.724-0.067-1.084c-0.81-11.241,2.732-22.363,9.892-31.067C215.975,56.892,232.767,51.2,256,51.2
				c23.125,0,39.867,5.642,49.766,16.767c7.253,8.718,10.849,19.905,10.034,31.216c-0.043,0.36-0.065,0.722-0.067,1.084V188.9
				c-4.385,16.4-11.82,31.827-21.917,45.475c-1.901,2.577-2.921,5.698-2.908,8.9v15.391c-0.134,11.798,6.302,22.692,16.7,28.267
				l53.508,30.7c14.129,7.584,22.928,22.339,22.884,38.375L384,384H127.998L128,354.733z M238.933,209.067
				c0.005-2.354,1.912-4.262,4.267-4.267h17.067c2.354,0.005,4.262,1.912,4.267,4.267v8.533c-0.005,2.354-1.912,4.262-4.267,4.267
				H243.2c-2.354-0.005-4.262-1.912-4.267-4.267V209.067z M72.442,401.067h367.117l46.458,59.733H25.983L72.442,401.067z
				 M494.933,486.4c-0.003,4.712-3.822,8.53-8.533,8.533H25.6c-4.712-0.003-8.53-3.822-8.533-8.533v-8.533h477.867V486.4z"/>
			<path style="fill:#428DFF;" d="M392.533,426.667H119.467c-4.713,0-8.533,3.82-8.533,8.533s3.821,8.533,8.533,8.533h273.067
				c4.713,0,8.533-3.821,8.533-8.533S397.246,426.667,392.533,426.667z"/>
			<path style="fill:#428DFF;" d="M85.333,426.667H76.8c-4.713,0-8.533,3.82-8.533,8.533s3.821,8.533,8.533,8.533h8.533
				c4.713,0,8.533-3.821,8.533-8.533S90.046,426.667,85.333,426.667z"/>
			<path style="fill:#428DFF;" d="M435.2,426.667h-8.533c-4.713,0-8.533,3.82-8.533,8.533s3.82,8.533,8.533,8.533h8.533
				c4.713,0,8.533-3.821,8.533-8.533S439.913,426.667,435.2,426.667z"/>
			<path style="fill:#428DFF;" d="M68.267,221.867c3.45-0.014,6.556-2.096,7.879-5.282s0.606-6.856-1.82-9.31l-1.279-1.025
				c-0.476-0.324-0.993-0.583-1.538-0.771c-0.484-0.246-1.003-0.417-1.538-0.508c-0.563-0.096-1.133-0.153-1.704-0.171
				c-2.259,0.031-4.423,0.915-6.059,2.475c-2.07,1.994-2.979,4.908-2.409,7.726c0.57,2.818,2.539,5.149,5.222,6.183
				C66.047,221.621,67.15,221.853,68.267,221.867z"/>
		</g>
	</g>
</g>
<g>
</g>
<g>
</g>
<g>
</g>
<g>
</g>
<g>
</g>
<g>
</g>
<g>
</g>
<g>
</g>
<g>
</g>
<g>
</g>
<g>
</g>
<g>
</g>
<g>
</g>
<g>
</g>
<g>
</g>
</svg>
