<?xml version="1.0" encoding="iso-8859-1"?>
<!-- Generator: Adobe Illustrator 19.0.0, SVG Export Plug-In . SVG Version: 6.00 Build 0)  -->
<svg version="1.1" id="Capa_1" xmlns="http://www.w3.org/2000/svg" xmlns:xlink="http://www.w3.org/1999/xlink" x="0px" y="0px"
	 viewBox="0 0 512 512" style="enable-background:new 0 0 512 512;" xml:space="preserve">
<g>
	<g transform="translate(1 1)">
		<path style="fill:#E3E7F2;" d="M255,16.048c-131.959,0-238.933,106.974-238.933,238.933S123.041,493.915,255,493.915
			S493.933,386.94,493.933,254.981C493.909,123.032,386.949,16.072,255,16.048z M255,417.115
			c-89.544,0-162.133-72.59-162.133-162.133S165.456,92.848,255,92.848s162.133,72.59,162.133,162.133
			C417.113,344.516,344.535,417.094,255,417.115z"/>
		<path style="fill:#A4C2F7;" d="M493.933,254.981C493.909,386.931,386.949,493.891,255,493.915c-4.267,0-8.533-0.085-12.8-0.341
			c126.806-6.801,226.139-111.604,226.139-238.592S369.006,23.19,242.2,16.389c4.267-0.256,8.533-0.341,12.8-0.341
			C386.949,16.072,493.909,123.032,493.933,254.981z"/>
		<g>
			<path style="fill:#D4E1F4;" d="M318.527,24.619l-20.492,74.458c-1.239,4.341-5.673,6.939-10.065,5.897
				c-21.693-4.791-44.17-4.791-65.864,0c-4.388,1.042-8.82-1.551-10.062-5.887l-20.572-74.468c-0.613-2.169-0.322-4.493,0.805-6.445
				s2.996-3.365,5.18-3.918c37.832-8.989,77.243-8.989,115.076-0.002c2.186,0.553,4.055,1.966,5.183,3.918
				C318.846,20.124,319.138,22.449,318.527,24.619z"/>
			<path style="fill:#D4E1F4;" d="M101.4,254.981c0.002,11.088,1.206,22.143,3.594,32.97c1.042,4.392-1.557,8.827-5.898,10.065
				l-74.458,20.491c-2.17,0.611-4.495,0.319-6.447-0.81c-1.952-1.129-3.365-2.998-3.918-5.183c-8.986-37.829-8.986-77.237,0-115.067
				c0.553-2.186,1.966-4.055,3.918-5.183s4.277-1.421,6.447-0.81l74.458,20.491c4.341,1.238,6.939,5.673,5.897,10.065
				C102.606,232.839,101.401,243.893,101.4,254.981z"/>
			<path style="fill:#D4E1F4;" d="M318.527,485.343c0.611,2.17,0.319,4.495-0.81,6.447c-1.129,1.952-2.998,3.365-5.183,3.918
				c-37.832,8.988-77.244,8.987-115.076-0.002c-2.185-0.553-4.053-1.966-5.18-3.918c-1.127-1.952-1.418-4.276-0.805-6.445
				l20.572-74.469c1.241-4.336,5.673-6.929,10.062-5.887c21.693,4.792,44.171,4.792,65.864,0c4.392-1.042,8.826,1.556,10.065,5.897
				L318.527,485.343z"/>
		</g>
		<path style="fill:#A4C2F7;" d="M502.467,254.981c0.028,19.37-2.234,38.676-6.741,57.515c-0.53,2.19-1.934,4.068-3.884,5.196
			c-1.951,1.128-4.278,1.409-6.441,0.777l-15.872-4.352l-58.624-16.128c-4.352-1.226-6.954-5.675-5.888-10.069
			c4.778-21.699,4.778-44.178,0-65.877c-1.067-4.394,1.536-8.844,5.888-10.069l58.624-16.127l15.872-4.352
			c2.163-0.632,4.49-0.351,6.441,0.777c1.951,1.128,3.354,3.006,3.884,5.196C500.232,216.306,502.495,235.611,502.467,254.981z"/>
		<path style="fill:#D4E1F4;" d="M476.867,254.981c0.028,19.37-2.234,38.676-6.741,57.515c-0.147,0.558-0.347,1.101-0.597,1.621
			l-58.624-16.127c-4.352-1.226-6.954-5.675-5.888-10.069c4.778-21.699,4.778-44.178,0-65.877
			c-1.067-4.394,1.536-8.844,5.888-10.069l58.624-16.127c0.25,0.52,0.45,1.063,0.597,1.621
			C474.632,216.306,476.895,235.611,476.867,254.981z"/>
		<g>
			<path style="fill:#FFFFFF;" d="M223.058,495.707c-2.185-0.553-4.053-1.966-5.181-3.918s-1.418-4.276-0.805-6.445l0.01-0.036
				C136.04,462.863,72.718,399.54,50.275,318.498l-0.038,0.01c-2.17,0.61-4.495,0.318-6.447-0.811
				c-1.952-1.129-3.364-2.998-3.918-5.183c-8.986-37.829-8.986-77.237,0-115.067c0.553-2.186,1.966-4.055,3.918-5.183
				c1.952-1.129,4.277-1.421,6.447-0.81l0.038,0.01C72.718,110.422,136.04,47.1,217.083,24.656l-0.01-0.038
				c-0.613-2.169-0.322-4.493,0.805-6.445s2.996-3.365,5.18-3.918c14.686-3.493,29.663-5.624,44.741-6.367
				c-4.244-0.216-8.504-0.375-12.799-0.375c-19.379-0.02-38.692,2.243-57.542,6.741c-2.185,0.553-4.053,1.966-5.18,3.918
				c-1.127,1.952-1.418,4.276-0.805,6.445l0.01,0.038C110.44,47.099,47.118,110.422,24.675,191.465l-0.038-0.01
				c-2.17-0.611-4.495-0.318-6.447,0.81c-1.952,1.129-3.365,2.998-3.918,5.183c-8.986,37.829-8.986,77.237,0,115.067
				c0.553,2.185,1.966,4.055,3.918,5.183s4.276,1.421,6.447,0.811l0.038-0.01c22.443,81.042,85.766,144.365,166.808,166.808
				l-0.01,0.036c-0.613,2.169-0.322,4.494,0.805,6.446c1.127,1.952,2.996,3.365,5.181,3.918c18.849,4.499,38.163,6.761,57.542,6.741
				c4.296,0,8.555-0.158,12.799-0.375C252.721,501.331,237.744,499.2,223.058,495.707z"/>
			<path style="fill:#FFFFFF;" d="M287.97,104.974c3.059,0.682,6.246-0.366,8.303-2.731c-5.206-0.556-10.437-0.844-15.673-0.861
				c-4.334,0-8.564,0.346-12.789,0.704C274.587,102.604,281.321,103.569,287.97,104.974z"/>
			<path style="fill:#FFFFFF;" d="M239.398,102.24c-0.815-0.905-1.414-1.983-1.754-3.152l-0.077-0.278
				c-6.183,1.72-12.258,3.808-18.192,6.252c0.909,0.114,1.83,0.085,2.73-0.087C227.814,103.735,233.587,102.822,239.398,102.24z"/>
			<path style="fill:#FFFFFF;" d="M296.273,407.72c-2.057-2.366-5.244-3.414-8.304-2.732c-6.649,1.406-13.383,2.371-20.158,2.89
				c4.225,0.358,8.454,0.704,12.789,0.704C285.836,408.564,291.067,408.276,296.273,407.72z"/>
			<path style="fill:#FFFFFF;" d="M237.645,410.875c0.339-1.17,0.938-2.247,1.753-3.152c-5.811-0.583-11.584-1.496-17.291-2.735
				c-0.901-0.173-1.824-0.203-2.734-0.088c5.935,2.445,12.011,4.533,18.195,6.253L237.645,410.875z"/>
		</g>
	</g>
	<g>
		<path style="fill:#428DFF;" d="M210.833,207.281c-1.6-1.601-3.77-2.5-6.033-2.5c-2.263,0-4.433,0.899-6.033,2.5L156.1,249.948
			c-1.601,1.6-2.5,3.77-2.5,6.033c0,2.263,0.899,4.433,2.5,6.033l42.667,42.667c3.332,3.332,8.735,3.332,12.067,0
			c3.332-3.332,3.332-8.735,0-12.067L174.2,255.981l36.634-36.634c1.6-1.6,2.5-3.77,2.5-6.033
			C213.333,211.051,212.434,208.881,210.833,207.281z"/>
		<path style="fill:#428DFF;" d="M313.233,207.281c-3.341-3.281-8.701-3.256-12.012,0.054c-3.311,3.311-3.335,8.671-0.054,12.012
			l36.633,36.634l-36.634,36.634c-2.178,2.151-3.037,5.304-2.251,8.262s3.097,5.269,6.055,6.055
			c2.958,0.786,6.111-0.073,8.262-2.251l42.667-42.667c1.601-1.6,2.5-3.77,2.5-6.033c0-2.263-0.899-4.433-2.5-6.033L313.233,207.281
			z"/>
		<path style="fill:#428DFF;" d="M275.412,188.04c-4.53-1.262-9.232,1.353-10.55,5.867l-34.133,119.467
			c-1.292,4.531,1.33,9.252,5.858,10.55c0.765,0.214,1.556,0.323,2.35,0.325c3.809-0.003,7.154-2.529,8.2-6.192l34.133-119.467
			C282.563,194.059,279.941,189.338,275.412,188.04z"/>
		<path style="fill:#428DFF;" d="M497.267,185.99c-1.434-0.817-2.98-1.419-4.589-1.787c-24.078-78.996-85.903-140.821-164.9-164.898
			c-0.366-1.609-0.966-3.156-1.783-4.59c-2.284-3.909-6.069-6.713-10.475-7.758c-39.144-9.25-79.906-9.25-119.05,0
			c-4.408,1.045-8.194,3.853-10.475,7.767c-0.814,1.432-1.413,2.976-1.778,4.582c-78.998,24.073-140.823,85.9-164.893,164.899
			c-1.609,0.369-3.156,0.97-4.592,1.785c-3.907,2.283-6.71,6.065-7.758,10.467c-9.3,39.136-9.3,79.906,0,119.042
			c1.046,4.405,3.849,8.191,7.758,10.475c1.437,0.829,2.988,1.444,4.603,1.823c24.079,78.981,85.897,140.792,164.881,164.861
			c0.366,1.606,0.965,3.15,1.778,4.582c2.281,3.914,6.067,6.721,10.475,7.767c39.138,9.3,79.912,9.3,119.05,0
			c4.406-1.045,8.191-3.849,10.475-7.758c0.816-1.434,1.417-2.98,1.783-4.59c78.984-24.073,140.804-85.883,164.889-164.864
			c1.614-0.378,3.164-0.992,4.599-1.822c3.908-2.282,6.712-6.064,7.758-10.467c9.3-39.136,9.3-79.906,0-119.042
			C503.981,192.058,501.177,188.273,497.267,185.99z M475.548,186.583l-57.553,15.841c-17.137-51.152-57.282-91.298-108.433-108.436
			l15.843-57.552C396.869,59.128,452.858,115.119,475.548,186.583z M302.84,402.204c-4.124-4.079-10.033-5.791-15.698-4.548
			c-20.488,4.496-41.708,4.496-62.196,0c-5.68-1.252-11.607,0.469-15.735,4.567c-47.152-15.293-84.122-52.251-99.43-99.398
			c4.086-4.124,5.798-10.042,4.544-15.71c-4.522-20.509-4.522-41.757,0-62.267c1.254-5.669-0.458-11.587-4.544-15.713
			c15.329-47.203,52.37-84.188,99.596-99.446c3.126,3.164,7.372,4.969,11.819,5.025c1.26-0.001,2.516-0.138,3.746-0.408
			c20.486-4.504,41.706-4.504,62.192,0c5.668,1.237,11.576-0.475,15.706-4.549c47.129,15.302,84.079,52.251,99.383,99.379
			c-4.087,4.121-5.8,10.036-4.547,15.703c4.522,20.512,4.522,41.763,0,62.275c-1.254,5.67,0.459,11.588,4.547,15.713
			C386.917,349.954,349.968,386.902,302.84,402.204z M256,17.048c18.606-0.015,37.149,2.146,55.253,6.439l-0.005,0.071
			l-20.366,73.785l-0.015,0.03l-0.003,0.033L290.8,97.64c-22.897-5.147-46.658-5.087-69.53,0.175l-0.032-0.115l-0.03-0.106
			l-20.357-72.593c0.012-0.505-0.022-1.009-0.104-1.507C218.851,19.201,237.394,17.038,256,17.048z M186.604,36.433l15.896,57.534
			c-51.181,17.123-91.353,57.282-108.493,108.457l-57.561-15.841C59.137,115.113,115.133,59.12,186.604,36.433z M23.372,200.696
			l0.053,0.027c0.065,0.017,0.129,0.01,0.194,0.025l73.752,20.354l0.025,0.012l0.041,0.006l0.221,0.061
			c-2.515,11.429-3.786,23.097-3.792,34.8c-0.022,11.717,1.309,23.397,3.967,34.808l-0.135,0.038
			c-0.102,0.025-0.201-0.006-0.302,0.021c-0.105,0.029-0.177,0.109-0.28,0.142l-72.181,20.154c-0.475-0.011-0.95,0.019-1.42,0.09
			c-4.299-18.103-6.463-36.646-6.448-55.252C17.067,237.373,19.183,218.826,23.372,200.696z M36.446,325.379l57.561-15.842
			c17.14,51.175,57.313,91.334,108.493,108.458l-15.895,57.535C115.133,452.844,59.137,396.85,36.446,325.379z M200.713,488.619
			l0.029-0.063c0.013-0.048-0.003-0.094,0.01-0.142l20.523-74.092c22.897,5.147,46.658,5.087,69.529-0.175l0.042,0.152
			c0.023,0.098-0.006,0.192,0.021,0.29c0.031,0.115,0.108,0.198,0.144,0.31l20.237,73.505l0.005,0.07
			C274.893,496.9,237.094,496.949,200.713,488.619z M325.406,475.527l-15.844-57.552c51.151-17.138,91.296-57.284,108.433-108.434
			l57.554,15.838C452.859,396.843,396.87,452.834,325.406,475.527z M488.628,311.267l-0.053-0.027
			c-0.044-0.013-0.087,0.002-0.132-0.009l-74.102-20.458c2.513-11.427,3.784-23.092,3.792-34.792
			c0.019-11.716-1.312-23.396-3.967-34.807c0.147-0.032,0.295-0.02,0.442-0.06c0.107-0.029,0.18-0.111,0.285-0.145l71.467-19.953
			c0.717-0.008,1.431-0.103,2.126-0.282c4.294,18.102,6.458,36.643,6.447,55.247C494.928,274.589,492.813,293.136,488.628,311.267z"
			/>
	</g>
</g>
<g>
</g>
<g>
</g>
<g>
</g>
<g>
</g>
<g>
</g>
<g>
</g>
<g>
</g>
<g>
</g>
<g>
</g>
<g>
</g>
<g>
</g>
<g>
</g>
<g>
</g>
<g>
</g>
<g>
</g>
</svg>
