<?xml version="1.0" encoding="iso-8859-1"?>
<!-- Generator: Adobe Illustrator 19.0.0, SVG Export Plug-In . SVG Version: 6.00 Build 0)  -->
<svg version="1.1" id="Capa_1" xmlns="http://www.w3.org/2000/svg" xmlns:xlink="http://www.w3.org/1999/xlink" x="0px" y="0px"
	 viewBox="0 0 512 512" style="enable-background:new 0 0 512 512;" xml:space="preserve">
<g>
	<g transform="translate(1 1)">
		<path style="fill:#CC4B4C;" d="M348.867,297.648v17.067H161.133v-17.067c5.18-21.576,10.894-43.114,15.635-64.77
			c0.491-4.413,1.922-8.669,4.197-12.482c4.216-5.209,10.595-8.189,17.296-8.081H311.74c7.446-0.132,14.441,3.561,18.531,9.784
			c0.825,1.703,1.423,3.507,1.779,5.365C337.598,250.872,343.204,274.267,348.867,297.648z"/>
		<path style="fill:#802F34;" d="M161.133,297.648h187.733v17.067c0,9.426-7.641,17.067-17.067,17.067H178.2
			c-9.426,0-17.067-7.641-17.067-17.067V297.648z"/>
		<circle style="fill:#ECF0F1;" cx="255" cy="272.048" r="25.6"/>
		<path style="fill:#E3E7F2;" d="M255,16.048c-131.959,0-238.933,106.974-238.933,238.933S123.041,493.915,255,493.915
			S493.933,386.94,493.933,254.981C493.909,123.032,386.949,16.072,255,16.048z M255,417.115
			c-89.544,0-162.133-72.59-162.133-162.133S165.456,92.848,255,92.848s162.133,72.59,162.133,162.133
			C417.113,344.516,344.535,417.094,255,417.115z"/>
		<path style="fill:#A4C2F7;" d="M493.933,254.981C493.909,386.93,386.949,493.891,255,493.915c-4.267,0-8.533-0.085-12.8-0.341
			c126.806-6.801,226.139-111.604,226.139-238.592S369.006,23.19,242.2,16.389c4.267-0.256,8.533-0.341,12.8-0.341
			C386.949,16.072,493.909,123.032,493.933,254.981z"/>
		<g>
			<path style="fill:#D4E1F4;" d="M318.527,24.619l-20.492,74.458c-1.239,4.341-5.673,6.939-10.065,5.897
				c-21.693-4.791-44.17-4.791-65.864,0c-4.388,1.042-8.82-1.551-10.062-5.887l-20.572-74.468c-0.613-2.169-0.322-4.493,0.805-6.445
				s2.996-3.365,5.18-3.918c37.832-8.989,77.243-8.989,115.076-0.002c2.186,0.553,4.055,1.966,5.183,3.918
				C318.846,20.124,319.138,22.449,318.527,24.619z"/>
			<path style="fill:#D4E1F4;" d="M101.4,254.981c0.002,11.088,1.206,22.143,3.594,32.97c1.042,4.392-1.557,8.827-5.898,10.065
				l-74.458,20.491c-2.17,0.611-4.495,0.319-6.447-0.81s-3.365-2.998-3.918-5.183c-8.986-37.829-8.986-77.237,0-115.067
				c0.553-2.186,1.966-4.055,3.918-5.183s4.277-1.421,6.447-0.81l74.458,20.491c4.341,1.238,6.939,5.673,5.897,10.065
				C102.606,232.839,101.401,243.893,101.4,254.981z"/>
			<path style="fill:#D4E1F4;" d="M318.527,485.343c0.611,2.17,0.319,4.495-0.81,6.447c-1.129,1.952-2.998,3.365-5.183,3.918
				c-37.832,8.987-77.244,8.987-115.076-0.002c-2.185-0.553-4.053-1.966-5.18-3.918c-1.127-1.952-1.418-4.276-0.805-6.445
				l20.572-74.469c1.241-4.336,5.673-6.929,10.062-5.887c21.693,4.792,44.171,4.792,65.864,0c4.392-1.042,8.826,1.556,10.065,5.897
				L318.527,485.343z"/>
		</g>
		<path style="fill:#A4C2F7;" d="M502.467,254.981c0.028,19.37-2.234,38.676-6.741,57.515c-0.53,2.19-1.934,4.068-3.884,5.196
			c-1.951,1.128-4.278,1.409-6.441,0.777l-15.872-4.352l-58.624-16.128c-4.352-1.226-6.954-5.675-5.888-10.069
			c4.778-21.699,4.778-44.178,0-65.877c-1.067-4.394,1.536-8.844,5.888-10.069l58.624-16.127l15.872-4.352
			c2.163-0.632,4.49-0.351,6.441,0.777c1.951,1.128,3.354,3.006,3.884,5.196C500.232,216.306,502.495,235.611,502.467,254.981z"/>
		<path style="fill:#D4E1F4;" d="M476.867,254.981c0.028,19.37-2.234,38.676-6.741,57.515c-0.147,0.558-0.347,1.101-0.597,1.621
			l-58.624-16.127c-4.352-1.226-6.954-5.675-5.888-10.069c4.778-21.699,4.778-44.178,0-65.877
			c-1.067-4.394,1.536-8.844,5.888-10.069l58.624-16.127c0.25,0.52,0.45,1.063,0.597,1.621
			C474.632,216.305,476.895,235.611,476.867,254.981z"/>
		<path style="fill:#A4C2F7;" d="M348.867,290.537v15.644H161.133v-15.644l17.835-68.132c4.269-6.453,11.55-10.263,19.285-10.09
			h113.493c7.747-0.226,15.054,3.597,19.285,10.09L348.867,290.537z"/>
		<path style="fill:#E3E7F2;" d="M323.267,290.537v15.644H161.133v-15.644l17.835-68.132c4.269-6.453,11.55-10.263,19.285-10.09
			h87.893c7.747-0.226,15.054,3.597,19.285,10.09L323.267,290.537z"/>
		<path style="fill:#A4C2F7;" d="M348.867,297.648v20.48c-1.065,8.415-8.623,14.461-17.067,13.653H178.2
			c-8.443,0.808-16.001-5.239-17.067-13.653v-20.48H348.867z"/>
		<path style="fill:#E3E7F2;" d="M323.267,297.648v20.48c-1.065,8.415-8.623,14.461-17.067,13.653h-128
			c-8.443,0.808-16.001-5.239-17.067-13.653v-20.48H323.267z"/>
		<g>
			<circle style="fill:#FFFFFF;" cx="255" cy="272.048" r="25.6"/>
			<path style="fill:#FFFFFF;" d="M223.058,495.707c-2.185-0.553-4.053-1.966-5.181-3.918c-1.127-1.952-1.418-4.276-0.805-6.445
				l0.01-0.036C136.04,462.863,72.718,399.54,50.275,318.498l-0.038,0.01c-2.17,0.61-4.495,0.318-6.447-0.811
				c-1.952-1.129-3.364-2.998-3.918-5.183c-8.986-37.829-8.986-77.237,0-115.067c0.553-2.186,1.966-4.055,3.918-5.183
				c1.952-1.129,4.277-1.421,6.447-0.81l0.038,0.01C72.718,110.422,136.04,47.099,217.083,24.656l-0.01-0.038
				c-0.613-2.169-0.322-4.493,0.805-6.445s2.996-3.365,5.18-3.918c14.686-3.493,29.663-5.624,44.741-6.367
				c-4.244-0.216-8.504-0.375-12.799-0.375c-19.379-0.02-38.692,2.243-57.542,6.741c-2.185,0.553-4.053,1.966-5.18,3.918
				c-1.127,1.952-1.418,4.276-0.805,6.445l0.01,0.038C110.44,47.099,47.118,110.422,24.675,191.465l-0.038-0.01
				c-2.17-0.611-4.495-0.318-6.447,0.81s-3.365,2.998-3.918,5.183c-8.986,37.829-8.986,77.237,0,115.067
				c0.553,2.185,1.966,4.055,3.918,5.183c1.952,1.129,4.276,1.421,6.447,0.811l0.038-0.01
				c22.443,81.042,85.766,144.365,166.808,166.808l-0.01,0.036c-0.613,2.169-0.322,4.494,0.805,6.446
				c1.127,1.952,2.996,3.365,5.181,3.918c18.849,4.499,38.163,6.761,57.542,6.741c4.296,0,8.555-0.158,12.799-0.375
				C252.721,501.331,237.744,499.2,223.058,495.707z"/>
			<path style="fill:#FFFFFF;" d="M287.97,104.974c3.059,0.682,6.246-0.366,8.303-2.731c-5.206-0.556-10.437-0.844-15.673-0.861
				c-4.334,0-8.564,0.346-12.789,0.704C274.587,102.604,281.321,103.569,287.97,104.974z"/>
			<path style="fill:#FFFFFF;" d="M296.273,407.72c-2.057-2.366-5.244-3.414-8.304-2.732c-6.649,1.406-13.383,2.371-20.158,2.89
				c4.225,0.358,8.454,0.704,12.789,0.704C285.836,408.564,291.067,408.276,296.273,407.72z"/>
			<path style="fill:#FFFFFF;" d="M237.645,99.087l-0.077-0.278c-6.183,1.72-12.258,3.808-18.192,6.252
				c0.909,0.114,1.83,0.085,2.73-0.087c5.708-1.239,11.481-2.151,17.292-2.734C238.584,101.334,237.984,100.257,237.645,99.087z"/>
			<path style="fill:#FFFFFF;" d="M237.645,410.875c0.339-1.169,0.938-2.247,1.753-3.152c-5.811-0.583-11.584-1.496-17.291-2.735
				c-0.901-0.173-1.824-0.203-2.734-0.088c5.935,2.445,12.011,4.533,18.195,6.253L237.645,410.875z"/>
			<path style="fill:#FFFFFF;" d="M186.733,318.127v-27.591l17.835-68.131c2.26-3.572,5.585-6.344,9.506-7.925
				c0.362-0.166,0.742-0.264,1.114-0.41c1.145-0.471,2.324-0.853,3.527-1.143c1.665-0.385,3.366-0.587,5.075-0.603l0.065-0.009
				h-25.6l-0.064,0.009c-1.708,0.016-3.41,0.218-5.075,0.603c-1.203,0.291-2.382,0.673-3.527,1.143
				c-0.371,0.147-0.752,0.245-1.114,0.41c-3.921,1.581-7.246,4.353-9.506,7.925l-17.835,68.131v27.591
				c1.065,8.415,8.623,14.462,17.067,13.654h25.6C195.356,332.589,187.798,326.542,186.733,318.127z"/>
		</g>
	</g>
	<g>
		<path style="fill:#428DFF;" d="M311.992,153.581H200.009c-26.457,0.907-47.203,23.031-46.409,49.492v1.708
			c0,4.713,3.821,8.533,8.533,8.533c4.713,0,8.533-3.821,8.533-8.533v-1.708c-0.556-15.532,10.326-29.137,25.6-32.006v34.052
			c-8.334,0.592-16.03,4.676-21.192,11.246c-2.749,4.116-4.537,8.799-5.229,13.7l-0.417,1.992
			c-3.046,13.917-6.571,28.075-9.979,41.775c-1.892,7.608-3.788,15.217-5.613,22.825c-0.018,0.286-0.021,0.573-0.009,0.859
			c-0.103,0.371-0.18,0.75-0.229,1.132v17.067c0.015,14.132,11.468,25.585,25.6,25.6h153.6c14.132-0.015,25.585-11.468,25.6-25.6
			v-17.067c-0.049-0.382-0.125-0.761-0.229-1.132c0.012-0.286,0.009-0.573-0.009-0.859l-4.217-17.55
			c-4.217-17.533-8.414-35.072-12.592-52.617c-2.291-12.381-13.03-21.406-25.621-21.532v-33.892
			c15.274,2.87,26.156,16.475,25.6,32.006v1.708c0,4.713,3.821,8.533,8.533,8.533c4.713,0,8.533-3.821,8.533-8.533v-1.708
			C359.195,176.612,338.449,154.488,311.992,153.581z M213.333,204.781v-34.133h85.333v34.133H213.333z M341.333,315.715
			c-0.005,4.711-3.822,8.529-8.533,8.533H179.2c-4.711-0.005-8.529-3.822-8.533-8.533v-8.533h170.667V315.715z M238.933,273.048
			c0-9.426,7.641-17.067,17.067-17.067c9.426,0,17.067,7.641,17.067,17.067s-7.641,17.067-17.067,17.067
			C246.579,290.104,238.944,282.469,238.933,273.048z M323.763,227.156c0.44,1.055,0.769,2.152,0.983,3.275
			c4.167,17.567,8.369,35.122,12.608,52.667l1.684,7.017h-53.652c3.074-5.164,4.713-11.056,4.747-17.067
			c0-18.851-15.282-34.133-34.133-34.133c-18.851,0-34.133,15.282-34.133,34.133c0.034,6.01,1.673,11.902,4.747,17.067h-53.618
			c0.996-4.058,2.001-8.111,3.017-12.158c3.438-13.817,6.992-28.1,10.088-42.242l0.471-2.258c0.284-2.475,1.063-4.867,2.292-7.033
			c2.618-2.988,6.424-4.663,10.395-4.575h113.483C317.055,221.741,321.157,223.717,323.763,227.156z"/>
		<path style="fill:#428DFF;" d="M497.267,185.989c-1.435-0.819-2.982-1.422-4.593-1.79
			c-24.071-78.998-85.897-140.824-164.895-164.896c-0.366-1.609-0.966-3.156-1.783-4.59c-2.284-3.909-6.069-6.713-10.475-7.758
			c-39.144-9.25-79.906-9.25-119.05,0c-4.408,1.045-8.194,3.853-10.475,7.767c-0.814,1.432-1.413,2.976-1.778,4.582
			c-78.997,24.073-140.822,85.9-164.893,164.898c-1.61,0.368-3.156,0.97-4.592,1.786c-3.907,2.283-6.71,6.065-7.758,10.467
			c-9.3,39.136-9.3,79.906,0,119.042c1.046,4.405,3.849,8.191,7.758,10.475c1.437,0.829,2.988,1.444,4.603,1.823
			c24.079,78.981,85.897,140.792,164.881,164.861c0.366,1.606,0.965,3.15,1.778,4.582c2.281,3.914,6.067,6.721,10.475,7.767
			c39.138,9.3,79.912,9.3,119.05,0c4.406-1.045,8.191-3.849,10.475-7.758c0.816-1.434,1.417-2.98,1.783-4.59
			c78.986-24.068,140.806-85.88,164.885-164.863c1.615-0.379,3.166-0.993,4.603-1.823c3.907-2.283,6.71-6.065,7.758-10.467
			c9.3-39.136,9.3-79.906,0-119.042C503.979,192.059,501.176,188.274,497.267,185.989z M475.554,186.583l-57.561,15.842
			c-17.132-51.154-57.278-91.302-108.43-108.438l15.844-57.552C396.873,59.125,452.864,115.116,475.554,186.583z M302.84,402.204
			c-4.124-4.079-10.033-5.791-15.698-4.548c-20.488,4.496-41.708,4.496-62.196,0c-5.68-1.25-11.605,0.471-15.733,4.568
			c-47.153-15.293-84.124-52.251-99.432-99.399c4.086-4.124,5.798-10.042,4.544-15.71c-4.522-20.509-4.522-41.757,0-62.267
			c1.254-5.669-0.458-11.587-4.544-15.713c15.329-47.203,52.37-84.188,99.596-99.446c3.126,3.164,7.372,4.969,11.819,5.025
			c1.26-0.001,2.516-0.138,3.746-0.408c20.486-4.504,41.706-4.504,62.192,0c5.668,1.237,11.576-0.475,15.706-4.549
			c47.13,15.301,84.079,52.25,99.379,99.38c-4.086,4.124-5.797,10.042-4.544,15.71c4.522,20.509,4.522,41.757,0,62.267
			c-1.254,5.669,0.458,11.586,4.544,15.71C386.918,349.954,349.969,386.903,302.84,402.204z M256,17.048
			c18.606-0.015,37.149,2.146,55.253,6.439l-0.005,0.071l-20.366,73.785l-0.015,0.03l-0.003,0.033L290.8,97.64
			c-22.897-5.147-46.658-5.087-69.53,0.175l-0.032-0.115l-0.03-0.106l-20.357-72.593c0.012-0.505-0.022-1.009-0.104-1.507
			C218.851,19.201,237.394,17.038,256,17.048z M186.604,36.433l15.896,57.534c-51.181,17.123-91.353,57.282-108.493,108.457
			l-57.561-15.841C59.137,115.113,115.133,59.12,186.604,36.433z M23.372,200.696l0.053,0.027c0.065,0.017,0.129,0.01,0.194,0.025
			l73.752,20.354l0.025,0.012l0.041,0.006l0.221,0.061c-2.515,11.429-3.786,23.097-3.792,34.8
			c-0.022,11.717,1.309,23.397,3.967,34.808l-0.135,0.038c-0.102,0.025-0.2-0.006-0.302,0.021c-0.105,0.029-0.177,0.109-0.28,0.142
			l-72.181,20.154c-0.475-0.011-0.95,0.019-1.42,0.09c-4.299-18.103-6.463-36.646-6.448-55.252
			C17.067,237.373,19.183,218.826,23.372,200.696z M36.446,325.379l57.561-15.842c17.14,51.175,57.313,91.334,108.493,108.458
			l-15.895,57.535C115.133,452.844,59.137,396.85,36.446,325.379z M200.713,488.619l0.029-0.063c0.013-0.048-0.003-0.094,0.01-0.142
			l20.523-74.092c22.897,5.147,46.658,5.087,69.529-0.175l0.042,0.152c0.023,0.098-0.006,0.192,0.021,0.29
			c0.031,0.115,0.108,0.198,0.144,0.31l20.237,73.505l0.005,0.07C274.893,496.9,237.094,496.949,200.713,488.619z M325.406,475.527
			l-15.844-57.552c51.152-17.135,91.298-57.284,108.43-108.437l57.561,15.842C452.864,396.846,396.872,452.837,325.406,475.527z
			 M488.628,311.267l-0.053-0.027c-0.044-0.012-0.087,0.002-0.131-0.009l-73.815-20.371l-0.025-0.012l-0.028-0.002l-0.235-0.065
			c2.515-11.429,3.786-23.097,3.792-34.8c0.022-11.717-1.309-23.396-3.967-34.807c0.146-0.032,0.292-0.02,0.438-0.06
			c0.105-0.029,0.177-0.109,0.28-0.142l71.472-19.956c0.719-0.007,1.434-0.102,2.13-0.282c4.298,18.101,6.462,36.643,6.447,55.247
			C494.932,274.589,492.817,293.136,488.628,311.267z"/>
	</g>
</g>
<g>
</g>
<g>
</g>
<g>
</g>
<g>
</g>
<g>
</g>
<g>
</g>
<g>
</g>
<g>
</g>
<g>
</g>
<g>
</g>
<g>
</g>
<g>
</g>
<g>
</g>
<g>
</g>
<g>
</g>
</svg>
