<?xml version="1.0" encoding="iso-8859-1"?>
<!-- Generator: Adobe Illustrator 19.0.0, SVG Export Plug-In . SVG Version: 6.00 Build 0)  -->
<svg version="1.1" id="Capa_1" xmlns="http://www.w3.org/2000/svg" xmlns:xlink="http://www.w3.org/1999/xlink" x="0px" y="0px"
	 viewBox="0 0 512 512" style="enable-background:new 0 0 512 512;" xml:space="preserve">
<g>
	<g transform="translate(1 1)">
		<path style="fill:#A4C2F7;" d="M348.867,186.733V485.4c-0.028,9.414-7.653,17.039-17.067,17.067H24.6
			c-9.414-0.028-17.039-7.653-17.067-17.067V186.733H348.867z"/>
		<path style="fill:#D4E1F4;" d="M323.267,186.733V485.4c-0.028,9.414-7.653,17.039-17.067,17.067H24.6
			c-9.414-0.028-17.039-7.653-17.067-17.067V186.733H323.267z"/>
		<g>
			<path style="fill:#E3E7F2;" d="M348.867,118.467v68.267H7.533v-51.2c0.027-9.414,7.652-17.039,17.067-17.067H348.867z"/>
			<path style="fill:#E3E7F2;" d="M50.2,220.867h17.067c4.713,0,8.533,3.82,8.533,8.533v230.4c0,4.713-3.821,8.533-8.533,8.533H50.2
				c-4.713,0-8.533-3.82-8.533-8.533V229.4C41.667,224.687,45.487,220.867,50.2,220.867z"/>
			<path style="fill:#E3E7F2;" d="M280.6,306.2h34.133v153.6c0,4.713-3.82,8.533-8.533,8.533h-17.067
				c-4.713,0-8.533-3.82-8.533-8.533V306.2z"/>
			<path style="fill:#E3E7F2;" d="M118.467,220.867h128V255h-128c-4.713,0-8.533-3.821-8.533-8.533V229.4
				C109.933,224.687,113.754,220.867,118.467,220.867z"/>
			<path style="fill:#E3E7F2;" d="M118.467,289.133h119.467c4.713,0,8.533,3.82,8.533,8.533V459.8c0,4.713-3.821,8.533-8.533,8.533
				H118.467c-4.713,0-8.533-3.82-8.533-8.533V297.667C109.933,292.954,113.754,289.133,118.467,289.133z"/>
		</g>
		<g>
			<path style="fill:#A4C2F7;" d="M502.467,75.8v213.333c-0.028,9.414-7.653,17.039-17.067,17.067H263.533
				c-9.414-0.028-17.039-7.652-17.067-17.067V75.8H502.467z"/>
			<path style="fill:#A4C2F7;" d="M502.467,24.6v51.2h-256V24.6c0.027-9.414,7.652-17.039,17.067-17.067H485.4
				C494.814,7.561,502.439,15.186,502.467,24.6z"/>
		</g>
		<g>
			<path style="fill:#E3E7F2;" d="M476.867,75.8v213.333c-0.028,9.414-7.653,17.039-17.067,17.067H263.533
				c-9.414-0.028-17.039-7.652-17.067-17.067V75.8H476.867z"/>
			<path style="fill:#E3E7F2;" d="M476.867,24.6v51.2h-230.4V24.6c0.027-9.414,7.652-17.039,17.067-17.067H459.8
				C469.214,7.561,476.839,15.186,476.867,24.6z"/>
		</g>
		<path style="fill:#A4C2F7;" d="M420.035,220.867H434.2c4.713,0,8.533-3.821,8.533-8.533V178.2H297.667v34.133
			c0,4.713,3.82,8.533,8.533,8.533H420.035z"/>
		<path style="fill:#E3E7F2;" d="M442.733,306.2v-6.039c-0.056-9.26-5.4-17.674-13.759-21.661l-34.217-14.421
			c-1.969-1.144-3.532-2.876-4.468-4.952c-0.437-0.901-0.373-1.965,0.169-2.808c0.542-0.843,1.483-1.343,2.484-1.32h21.864
			c0,0,13.675,1.502,19.168-6.552c0.322-0.463,0.297-1.084-0.061-1.521c-13.097-18.764-20.781-40.769-22.21-63.608
			c0,0-1.961-38.944-40.339-39.252c-21.19,0.656-38.417,17.298-39.805,38.453c-1.912,22.979-9.502,45.124-22.089,64.445
			c-0.306,0.455-0.324,1.045-0.046,1.517c3.866,4.834,9.971,7.303,16.111,6.517h24.666c1.065-0.031,2.03,0.627,2.389,1.63
			c0.359,1.003,0.031,2.124-0.812,2.775c-1.207,0.971-2.476,1.862-3.798,2.669l-28.809,16.235
			c-7.93,4.134-12.922,12.317-12.971,21.26v6.63H442.733z"/>
	</g>
	<path style="fill:#FFFFFF;" d="M34.133,486.4V136.533c0.027-9.414,7.652-17.039,17.067-17.067H25.6
		c-9.414,0.027-17.039,7.652-17.067,17.067V486.4c0.028,9.414,7.653,17.039,17.067,17.067h25.6
		C41.786,503.439,34.161,495.814,34.133,486.4z"/>
	<g>
		<polygon style="fill:#FFFFFF;" points="17.067,187.733 17.067,298.667 17.067,486.4 0,486.4 0,298.667 0,187.733 		"/>
		<g>
			<path style="fill:#428DFF;" d="M8.533,264.533c2.259-0.034,4.422-0.918,6.059-2.475c3.3-3.365,3.3-8.752,0-12.117l-1.279-1.025
				c-0.476-0.324-0.993-0.583-1.538-0.771c-0.484-0.246-1.003-0.417-1.538-0.509c-0.563-0.096-1.133-0.153-1.704-0.171
				c-2.259,0.031-4.423,0.915-6.059,2.475c-3.222,3.397-3.222,8.721,0,12.117c0.815,0.771,1.77,1.379,2.813,1.792
				C6.314,264.288,7.417,264.52,8.533,264.533z"/>
			<path style="fill:#428DFF;" d="M486.4,0H264.533c-14.132,0.015-25.585,11.468-25.6,25.6v85.333H25.6
				c-14.132,0.015-25.585,11.468-25.6,25.6v85.333c0,4.713,3.821,8.533,8.533,8.533s8.533-3.821,8.533-8.533v-25.6h221.867v17.067
				H119.467c-9.421,0.011-17.056,7.645-17.067,17.067v17.067c0.011,9.421,7.645,17.056,17.067,17.067h119.467V281.6H119.467
				c-9.421,0.011-17.056,7.645-17.067,17.067V460.8c0.011,9.421,7.645,17.056,17.067,17.067h119.467
				c9.421-0.011,17.056-7.645,17.067-17.067V314.16c2.733,1.012,5.62,1.544,8.533,1.573h8.533V460.8
				c0.011,9.421,7.645,17.056,17.067,17.067H307.2c9.421-0.011,17.056-7.645,17.067-17.067V315.733h17.067V486.4
				c-0.005,4.711-3.822,8.529-8.533,8.533H25.6c-4.711-0.005-8.529-3.822-8.533-8.533V290.133c0-4.713-3.821-8.533-8.533-8.533
				S0,285.421,0,290.133V486.4c0.015,14.132,11.468,25.585,25.6,25.6h307.2c14.132-0.015,25.585-11.468,25.6-25.6V315.733h128
				c14.132-0.015,25.585-11.468,25.6-25.6V25.6C511.985,11.468,500.532,0.015,486.4,0z M264.533,17.067H486.4
				c4.711,0.005,8.529,3.822,8.533,8.533v42.667H256V25.6C256.005,20.889,259.822,17.071,264.533,17.067z M17.067,179.2v-42.667
				c0.005-4.711,3.822-8.529,8.533-8.533h213.333v51.2H17.067z M119.467,247.467V230.4h119.467v17.067H119.467z M119.467,460.8
				V298.667h119.467l0.012,162.133H119.467z M307.212,460.8h-17.079V315.733H307.2L307.212,460.8z M315.854,298.667
				c0.718-5.125,3.892-9.577,8.504-11.925l28.579-16.108c1.757-1.036,3.442-2.192,5.042-3.458c3.739-2.88,5.223-7.825,3.688-12.289
				c-1.535-4.463-5.747-7.449-10.467-7.42h-24.667c-0.288,0-0.667,0.025-0.95,0.05c-1.504,0.117-3.016-0.01-4.479-0.375
				c3.961-6.809,7.337-13.943,10.089-21.324c0.27-0.531,0.483-1.089,0.633-1.666c4.834-12.818,7.939-26.223,9.232-39.86
				c0.999-16.637,14.354-29.859,31-30.692h0.238c15.358-0.606,28.727,10.405,31.076,25.594l-0.001,0.006
				c0.053,0.592,0.171,1.177,0.352,1.744c0.21,1.171,0.36,2.353,0.448,3.54c1.256,22.135,8.051,43.6,19.763,62.425
				c-2.349,0.603-4.783,0.809-7.2,0.608c-0.309-0.033-0.619-0.05-0.929-0.05h-21.863c-4.011-0.021-7.739,2.064-9.821,5.492
				c-2.075,3.355-2.238,7.553-0.429,11.058c1.846,3.867,4.926,7.01,8.754,8.933l33.796,14.225c4.616,2.175,7.883,6.464,8.754,11.492
				H315.854z M421.547,187.733H435.2v25.6h-8.258C424.051,205.067,422.238,196.463,421.547,187.733z M418.718,170.667
				c-5.674-20.717-24.82-34.835-46.289-34.133c-20.931,0.494-39.251,14.195-45.64,34.133H308
				c6.331-29.851,32.685-51.201,63.2-51.201c30.515,0,56.869,21.351,63.2,51.201H418.718z M307.2,187.733h16.26
				c-1.09,8.696-3.005,17.268-5.72,25.6H307.2V187.733z M486.4,298.667h-34.31c-0.938-11.741-8.121-22.069-18.802-27.034
				l-16.763-7.025c9.702,0.985,19.262-2.905,25.521-10.383c2.45-3.578,2.239-8.344-0.517-11.692
				c-2.801-3.816-5.252-7.877-7.324-12.133h0.995c9.421-0.011,17.056-7.645,17.067-17.067V179.2c0-40.908-37.883-76.8-81.067-76.8
				s-81.067,35.892-81.067,76.8v34.133c0.011,9.421,7.645,17.056,17.067,17.067h3.595c-2.178,4.415-4.645,8.683-7.383,12.775
				c-2.204,3.248-2.292,7.488-0.225,10.825c5.392,7.621,14.533,11.667,23.8,10.533h2.025l-12.842,7.233
				c-10.096,5.312-16.684,15.512-17.372,26.9h-34.265c-4.711-0.005-8.529-3.822-8.533-8.533v-204.8h238.933v204.8
				C494.929,294.844,491.111,298.662,486.4,298.667z"/>
			<path style="fill:#428DFF;" d="M68.267,477.867c9.421-0.011,17.056-7.645,17.067-17.067V230.4
				c-0.011-9.421-7.645-17.056-17.067-17.067H51.2c-9.421,0.011-17.056,7.645-17.067,17.067v230.4
				c0.011,9.421,7.645,17.056,17.067,17.067H68.267z M51.2,230.4h17.067l0.012,230.4H51.2V230.4z"/>
			<path style="fill:#428DFF;" d="M281.6,51.2c2.27,0.022,4.453-0.87,6.058-2.475c1.605-1.605,2.497-3.788,2.475-6.058
				c-0.033-2.259-0.917-4.422-2.475-6.059c-2.457-2.418-6.125-3.125-9.304-1.792c-1.033,0.433-1.984,1.039-2.813,1.792
				c-1.56,1.635-2.444,3.799-2.475,6.059c-0.022,2.27,0.87,4.453,2.475,6.058C277.147,50.33,279.33,51.222,281.6,51.2z"/>
			<path style="fill:#428DFF;" d="M315.733,51.2c2.27,0.022,4.453-0.87,6.058-2.475c1.605-1.605,2.497-3.788,2.475-6.058
				c-0.033-2.259-0.917-4.422-2.475-6.059c-2.457-2.418-6.125-3.125-9.304-1.792c-1.033,0.433-1.984,1.039-2.813,1.792
				c-1.56,1.635-2.444,3.799-2.475,6.059c-0.022,2.27,0.87,4.453,2.475,6.058C311.28,50.33,313.464,51.222,315.733,51.2z"/>
			<path style="fill:#428DFF;" d="M349.867,51.2c2.27,0.022,4.453-0.87,6.058-2.475c1.605-1.605,2.497-3.788,2.475-6.058
				c-0.033-2.259-0.917-4.422-2.475-6.059c-2.457-2.418-6.125-3.125-9.304-1.792c-1.033,0.433-1.984,1.039-2.813,1.792
				c-1.56,1.635-2.444,3.799-2.475,6.059c-0.022,2.27,0.87,4.453,2.475,6.058C345.413,50.33,347.597,51.222,349.867,51.2z"/>
			<path style="fill:#428DFF;" d="M48.725,147.541c-0.816-0.771-1.772-1.379-2.817-1.792c-2.077-0.858-4.41-0.858-6.487,0
				c-1.033,0.433-1.984,1.039-2.813,1.792c-0.773,0.815-1.383,1.772-1.796,2.817c-0.906,2.066-0.906,4.417,0,6.483
				c0.435,1.034,1.042,1.986,1.795,2.817c2.441,2.444,6.125,3.154,9.3,1.792c1.034-0.433,1.987-1.039,2.817-1.792
				c0.751-0.832,1.357-1.784,1.792-2.817c0.911-2.065,0.911-4.418,0-6.483C50.104,149.314,49.496,148.358,48.725,147.541z"/>
			<path style="fill:#428DFF;" d="M82.859,147.541c-0.816-0.771-1.772-1.379-2.817-1.792c-2.077-0.858-4.41-0.858-6.487,0
				c-1.033,0.433-1.984,1.039-2.813,1.792c-0.773,0.815-1.383,1.772-1.796,2.817c-0.906,2.066-0.906,4.417,0,6.483
				c0.435,1.034,1.042,1.986,1.795,2.817c2.441,2.444,6.125,3.154,9.3,1.792c1.034-0.433,1.987-1.039,2.817-1.792
				c0.751-0.832,1.357-1.784,1.792-2.817c0.911-2.065,0.911-4.418,0-6.483C84.237,149.314,83.629,148.358,82.859,147.541z"/>
			<path style="fill:#428DFF;" d="M118.783,150.358c-0.777-2.143-2.465-3.831-4.608-4.608c-2.077-0.858-4.41-0.858-6.487,0
				c-1.033,0.433-1.984,1.039-2.813,1.792c-0.773,0.815-1.383,1.772-1.796,2.817c-0.906,2.066-0.906,4.417,0,6.483
				c0.435,1.034,1.042,1.986,1.795,2.816c2.441,2.444,6.125,3.154,9.3,1.792c1.034-0.433,1.987-1.039,2.817-1.792
				c0.751-0.832,1.357-1.784,1.792-2.817C119.694,154.777,119.694,152.424,118.783,150.358L118.783,150.358z"/>
		</g>
	</g>
</g>
<g>
</g>
<g>
</g>
<g>
</g>
<g>
</g>
<g>
</g>
<g>
</g>
<g>
</g>
<g>
</g>
<g>
</g>
<g>
</g>
<g>
</g>
<g>
</g>
<g>
</g>
<g>
</g>
<g>
</g>
</svg>
