<?xml version="1.0" encoding="iso-8859-1"?>
<!-- Generator: Adobe Illustrator 19.0.0, SVG Export Plug-In . SVG Version: 6.00 Build 0)  -->
<svg version="1.1" id="Capa_1" xmlns="http://www.w3.org/2000/svg" xmlns:xlink="http://www.w3.org/1999/xlink" x="0px" y="0px"
	 viewBox="0 0 512.001 512.001" style="enable-background:new 0 0 512.001 512.001;" xml:space="preserve">
<g>
	<g transform="translate(1 1)">
		<g>
			<path style="fill:#E3E7F2;" d="M434.2,67.267l34.587,6.917c4.319,0.488,7.696,3.949,8.08,8.279v46.408
				c-0.383,4.329-3.761,7.79-8.08,8.279l-34.587,6.917V67.267z"/>
			<path style="fill:#E3E7F2;" d="M434.2,169.667l34.587,6.917c4.319,0.488,7.696,3.949,8.08,8.279v46.408
				c-0.383,4.329-3.761,7.79-8.08,8.279l-34.587,6.917V169.667z"/>
			<path style="fill:#E3E7F2;" d="M434.2,272.067l34.587,6.917c4.319,0.488,7.696,3.949,8.08,8.279v46.408
				c-0.383,4.329-3.761,7.79-8.08,8.279l-34.587,6.917V272.067z"/>
			<path style="fill:#E3E7F2;" d="M434.2,374.467l34.587,6.917c4.319,0.488,7.696,3.949,8.08,8.279v46.408
				c-0.383,4.329-3.761,7.79-8.08,8.279l-34.587,6.917V374.467z"/>
		</g>
		<path style="fill:#A4C2F7;" d="M92.867,7.534h332.8c9.426,0,17.067,7.641,17.067,17.067v460.8c0,9.426-7.641,17.067-17.067,17.067
			h-332.8c-9.426,0-17.067-7.641-17.067-17.067v-460.8C75.8,15.175,83.441,7.534,92.867,7.534z"/>
		<path style="fill:#E3E7F2;" d="M92.867,7.534h307.2c9.426,0,17.067,7.641,17.067,17.067v460.8c0,9.426-7.641,17.067-17.067,17.067
			h-307.2c-9.426,0-17.067-7.641-17.067-17.067v-460.8C75.8,15.175,83.441,7.534,92.867,7.534z"/>
		<g>
			<path style="fill:#D4E1F4;" d="M54.467,50.201H88.6c11.782,0,21.333,9.551,21.333,21.333l0,0
				c0,11.782-9.551,21.333-21.333,21.333H54.467c-11.782,0-21.333-9.551-21.333-21.333l0,0
				C33.134,59.752,42.685,50.201,54.467,50.201z"/>
			<path style="fill:#D4E1F4;" d="M54.467,127.001H88.6c11.782,0,21.333,9.551,21.333,21.333l0,0
				c0,11.782-9.551,21.333-21.333,21.333H54.467c-11.782,0-21.333-9.551-21.333-21.333l0,0
				C33.134,136.552,42.685,127.001,54.467,127.001z"/>
			<path style="fill:#D4E1F4;" d="M54.467,203.801H88.6c11.782,0,21.333,9.551,21.333,21.333l0,0
				c0,11.782-9.551,21.333-21.333,21.333H54.467c-11.782,0-21.333-9.551-21.333-21.333l0,0
				C33.134,213.352,42.685,203.801,54.467,203.801z"/>
			<path style="fill:#D4E1F4;" d="M54.467,280.601H88.6c11.782,0,21.333,9.551,21.333,21.333l0,0
				c0,11.782-9.551,21.333-21.333,21.333H54.467c-11.782,0-21.333-9.551-21.333-21.333l0,0
				C33.134,290.152,42.685,280.601,54.467,280.601z"/>
			<path style="fill:#D4E1F4;" d="M54.467,357.401H88.6c11.782,0,21.333,9.551,21.333,21.333l0,0
				c0,11.782-9.551,21.333-21.333,21.333H54.467c-11.782,0-21.333-9.551-21.333-21.333l0,0
				C33.134,366.952,42.685,357.401,54.467,357.401z"/>
			<path style="fill:#D4E1F4;" d="M54.467,434.201H88.6c11.782,0,21.333,9.551,21.333,21.333l0,0
				c0,11.782-9.551,21.333-21.333,21.333H54.467c-11.782,0-21.333-9.551-21.333-21.333l0,0
				C33.134,443.752,42.685,434.201,54.467,434.201z"/>
			<path style="fill:#D4E1F4;" d="M289.134,344.942V182.041c18.826-13.104,28.483-35.834,24.844-58.482
				c-3.638-22.648-19.928-41.21-41.911-47.758v40.192c0,9.426-7.641,17.067-17.067,17.067c-9.426,0-17.067-7.641-17.067-17.067
				V75.801c-21.984,6.548-38.273,25.11-41.911,47.758s6.018,45.378,24.845,58.482v162.901
				c-15.823,14.152-21.271,36.601-13.696,56.431c7.575,19.831,26.601,32.931,47.83,32.931s40.255-13.1,47.83-32.931
				C310.405,381.543,304.956,359.094,289.134,344.942z M255,400.067c-9.426,0-17.067-7.641-17.067-17.067
				s7.641-17.067,17.067-17.067c9.426,0,17.067,7.641,17.067,17.067C272.039,392.415,264.415,400.04,255,400.067z"/>
		</g>
		<path style="fill:#FFFFFF;" d="M101.4,485.401v-8.533H80.067c-11.782,0-21.333-9.551-21.333-21.333
			c0-11.782,9.551-21.333,21.333-21.333H101.4v-34.133H80.067c-11.782,0-21.333-9.551-21.333-21.333
			c0-11.782,9.551-21.333,21.333-21.333H101.4v-34.133H80.067c-11.782,0-21.333-9.551-21.333-21.333s9.551-21.333,21.333-21.333
			H101.4v-34.133H80.067c-11.782,0-21.333-9.551-21.333-21.333c0-11.782,9.551-21.333,21.333-21.333H101.4v-34.133H80.067
			c-11.782,0-21.333-9.551-21.333-21.333c0-11.782,9.551-21.333,21.333-21.333H101.4V92.867H80.067
			c-11.782,0-21.333-9.551-21.333-21.333s9.551-21.333,21.333-21.333H101.4v-25.6c0.027-9.414,7.652-17.039,17.067-17.067h-25.6
			C83.453,7.561,75.828,15.186,75.8,24.601v25.6H54.467c-11.782,0-21.333,9.551-21.333,21.333s9.551,21.333,21.333,21.333H75.8
			v34.133H54.467c-11.782,0-21.333,9.551-21.333,21.333c0,11.782,9.551,21.333,21.333,21.333H75.8v34.133H54.467
			c-11.782,0-21.333,9.551-21.333,21.333c0,11.782,9.551,21.333,21.333,21.333H75.8v34.133H54.467
			c-11.782,0-21.333,9.551-21.333,21.333s9.551,21.333,21.333,21.333H75.8v34.133H54.467c-11.782,0-21.333,9.551-21.333,21.333
			c0,11.782,9.551,21.333,21.333,21.333H75.8v34.133H54.467c-11.782,0-21.333,9.551-21.333,21.333
			c0,11.782,9.551,21.333,21.333,21.333H75.8v8.533c0.028,9.414,7.653,17.039,17.067,17.067h25.6
			C109.053,502.44,101.428,494.815,101.4,485.401z"/>
	</g>
	<g>
		<polygon style="fill:#FFFFFF;" points="93.867,0.001 204.8,0.001 426.667,0.001 426.667,17.067 204.8,17.067 93.867,17.067 		"/>
		<g>
			<path style="fill:#428DFF;" d="M168.192,14.593c0.771-0.815,1.379-1.77,1.792-2.813c0.438-1.027,0.67-2.13,0.683-3.246
				c-0.034-2.259-0.918-4.422-2.475-6.059c-3.365-3.3-8.752-3.3-12.117,0l-1.025,1.279c-0.324,0.476-0.583,0.993-0.771,1.538
				c-0.245,0.484-0.417,1.003-0.508,1.538c-0.096,0.563-0.153,1.133-0.171,1.704c0.031,2.259,0.915,4.423,2.475,6.059
				C159.472,17.814,164.795,17.814,168.192,14.593L168.192,14.593z"/>
			<path style="fill:#428DFF;" d="M473.475,66.909l-21.208-5.301V25.601c-0.015-14.132-11.468-25.585-25.6-25.6h-230.4
				c-4.713,0-8.533,3.821-8.533,8.533s3.82,8.533,8.533,8.533h230.4c4.711,0.005,8.529,3.822,8.533,8.533v460.8
				c-0.005,4.711-3.822,8.529-8.533,8.533h-332.8c-4.711-0.005-8.529-3.822-8.533-8.533H89.6c16.495,0,29.867-13.372,29.867-29.867
				c0-16.495-13.372-29.867-29.867-29.867h-4.267v-17.067H89.6c16.495,0,29.867-13.372,29.867-29.867
				c0-16.495-13.372-29.867-29.867-29.867h-4.267v-17.067H89.6c16.495,0,29.867-13.372,29.867-29.867
				c0-16.495-13.372-29.867-29.867-29.867h-4.267v-17.067H89.6c16.495,0,29.867-13.372,29.867-29.867s-13.372-29.867-29.867-29.867
				h-4.267v-17.067H89.6c16.495,0,29.867-13.372,29.867-29.867s-13.372-29.867-29.867-29.867h-4.267v-17.067H89.6
				c16.495,0,29.867-13.372,29.867-29.867S106.095,42.667,89.6,42.667h-4.267V25.601c0.005-4.711,3.822-8.529,8.533-8.533H128
				c4.713,0,8.533-3.821,8.533-8.533s-3.82-8.533-8.533-8.533H93.867c-14.132,0.015-25.585,11.468-25.6,25.6v17.067h-12.8
				c-16.495,0-29.867,13.372-29.867,29.867s13.372,29.867,29.867,29.867h12.8v17.067h-12.8c-16.495,0-29.867,13.372-29.867,29.867
				s13.372,29.867,29.867,29.867h12.8v17.067h-12.8c-16.495,0-29.867,13.372-29.867,29.867s13.372,29.867,29.867,29.867h12.8v17.067
				h-12.8c-16.495,0-29.867,13.372-29.867,29.867c0,16.495,13.372,29.867,29.867,29.867h12.8v17.067h-12.8
				c-16.495,0-29.867,13.372-29.867,29.867c0,16.495,13.372,29.867,29.867,29.867h12.8v17.067h-12.8
				c-16.495,0-29.867,13.372-29.867,29.867c0,16.495,13.372,29.867,29.867,29.867h12.8c0.015,14.132,11.468,25.585,25.6,25.6h332.8
				c14.132-0.015,25.585-11.468,25.6-25.6v-27.474l21.208-5.301c7.604-1.89,12.938-8.723,12.925-16.558v-46.4
				c0.013-7.835-5.321-14.668-12.925-16.558l-21.208-5.301v-12.281l21.208-5.301c7.604-1.89,12.938-8.723,12.925-16.558v-46.4
				c0.013-7.835-5.321-14.668-12.925-16.558l-21.208-5.301v-12.281l21.208-5.301c7.604-1.89,12.938-8.723,12.925-16.558v-46.4
				c0.013-7.835-5.321-14.668-12.925-16.558l-21.208-5.301v-12.281l21.208-5.301c7.604-1.89,12.938-8.723,12.925-16.558v-46.4
				C486.413,75.632,481.079,68.799,473.475,66.909z M42.667,72.534c0.008-7.066,5.734-12.792,12.8-12.8H89.6
				c7.069,0,12.8,5.731,12.8,12.8c0,7.069-5.731,12.8-12.8,12.8H55.467C48.401,85.326,42.675,79.6,42.667,72.534z M42.667,149.334
				c0.008-7.066,5.734-12.792,12.8-12.8H89.6c7.069,0,12.8,5.731,12.8,12.8c0,7.069-5.731,12.8-12.8,12.8H55.467
				C48.401,162.126,42.675,156.4,42.667,149.334z M42.667,226.134c0.008-7.066,5.734-12.792,12.8-12.8H89.6
				c7.069,0,12.8,5.731,12.8,12.8c0,7.069-5.731,12.8-12.8,12.8H55.467C48.401,238.926,42.675,233.2,42.667,226.134z
				 M42.667,302.934c0.008-7.066,5.734-12.792,12.8-12.8H89.6c7.069,0,12.8,5.731,12.8,12.8s-5.731,12.8-12.8,12.8H55.467
				C48.401,315.726,42.675,310,42.667,302.934z M42.667,379.734c0.008-7.066,5.734-12.792,12.8-12.8H89.6
				c7.069,0,12.8,5.731,12.8,12.8c0,7.069-5.731,12.8-12.8,12.8H55.467C48.401,392.526,42.675,386.8,42.667,379.734z
				 M55.467,469.334c-7.069,0-12.8-5.731-12.8-12.8s5.731-12.8,12.8-12.8H89.6c7.069,0,12.8,5.731,12.8,12.8s-5.731,12.8-12.8,12.8
				H55.467z M469.334,390.667v46.408l-17.067,4.267v-54.946L469.334,390.667z M469.334,288.267v46.408l-17.067,4.267v-54.946
				L469.334,288.267z M469.334,185.867v46.408l-17.067,4.267v-54.946L469.334,185.867z M469.334,129.876l-17.067,4.267V79.196
				l17.067,4.271V129.876z"/>
			<path style="fill:#428DFF;" d="M244.038,69.959c-2.162-1.606-4.954-2.103-7.538-1.342c-24.338,7.253-42.638,27.418-47.503,52.344
				c-4.864,24.926,4.511,50.492,24.336,66.364v154.958c-22.977,23.451-22.721,61.05,0.573,84.186
				c23.294,23.136,60.894,23.136,84.188,0c23.294-23.136,23.55-60.735,0.573-84.186V187.326
				c19.825-15.872,29.201-41.438,24.336-66.364c-4.865-24.926-23.164-45.091-47.503-52.344c-2.583-0.768-5.377-0.271-7.536,1.341
				s-3.431,4.148-3.43,6.843v40.192c0,4.713-3.82,8.533-8.533,8.533s-8.533-3.821-8.533-8.533V76.801
				C247.467,74.107,246.196,71.571,244.038,69.959z M256,142.593c14.132-0.015,25.585-11.468,25.6-25.6V89.659
				c15.17,8.763,24.809,24.671,25.554,42.174s-7.508,34.173-21.879,44.192c-2.302,1.595-3.675,4.217-3.675,7.017v162.9
				c-0.001,2.441,1.046,4.766,2.875,6.383c13.169,11.801,17.693,30.502,11.376,47.018c-6.318,16.516-22.168,27.423-39.851,27.423
				s-33.533-10.907-39.851-27.423c-6.318-16.516-1.793-35.217,11.376-47.018c1.829-1.617,2.876-3.942,2.875-6.383v-162.9
				c0-2.8-1.373-5.422-3.675-7.017c-14.371-10.02-22.624-26.689-21.879-44.192c0.745-17.503,10.384-33.411,25.554-42.174v27.334
				C230.416,131.125,241.868,142.577,256,142.593z"/>
			<path style="fill:#428DFF;" d="M230.4,384.001c0,14.138,11.462,25.6,25.6,25.6c14.138,0,25.6-11.462,25.6-25.6
				c0-14.138-11.462-25.6-25.6-25.6C241.868,358.416,230.416,369.869,230.4,384.001z M256,375.467c4.713,0,8.533,3.82,8.533,8.533
				s-3.82,8.533-8.533,8.533s-8.533-3.82-8.533-8.533C247.472,379.29,251.289,375.472,256,375.467z"/>
		</g>
	</g>
</g>
<g>
</g>
<g>
</g>
<g>
</g>
<g>
</g>
<g>
</g>
<g>
</g>
<g>
</g>
<g>
</g>
<g>
</g>
<g>
</g>
<g>
</g>
<g>
</g>
<g>
</g>
<g>
</g>
<g>
</g>
</svg>
