<?xml version="1.0" encoding="iso-8859-1"?>
<!-- Generator: Adobe Illustrator 19.0.0, SVG Export Plug-In . SVG Version: 6.00 Build 0)  -->
<svg version="1.1" id="Capa_1" xmlns="http://www.w3.org/2000/svg" xmlns:xlink="http://www.w3.org/1999/xlink" x="0px" y="0px"
	 viewBox="0 0 512 512" style="enable-background:new 0 0 512 512;" xml:space="preserve">
<g>
	<g transform="translate(1 1)">
		<path style="fill:#A4C2F7;" d="M502.467,71.517v256c0.002,9.053-3.593,17.737-9.995,24.139
			c-6.402,6.402-15.085,9.997-24.139,9.995h-281.6L97.219,466.781c-3.228,3.714-7.903,5.853-12.823,5.87s-9.609-2.092-12.862-5.785
			c-2.813-3.103-4.339-7.161-4.267-11.349V361.65h-25.6c-9.053,0.002-17.737-3.593-24.139-9.995s-9.997-15.085-9.995-24.139v-256
			c-0.002-9.053,3.593-17.737,9.995-24.139s15.085-9.997,24.139-9.995h426.667c9.053-0.002,17.737,3.593,24.139,9.995
			C498.874,53.78,502.469,62.463,502.467,71.517z"/>
		<g>
			<path style="fill:#E3E7F2;" d="M476.867,71.517v256c0.002,9.053-3.593,17.737-9.995,24.139
				c-6.402,6.402-15.085,9.997-24.139,9.995h-281.6L71.619,466.781l-0.085,0.085c-2.813-3.103-4.339-7.161-4.267-11.349V361.65
				h-25.6c-9.053,0.002-17.737-3.593-24.139-9.995s-9.997-15.085-9.995-24.139v-256c-0.002-9.053,3.593-17.737,9.995-24.139
				s15.085-9.997,24.139-9.995h401.067c9.053-0.002,17.737,3.593,24.139,9.995C473.274,53.78,476.869,62.463,476.867,71.517z"/>
			<polygon style="fill:#E3E7F2;" points="255,139.783 273.458,179.113 314.733,185.42 284.867,216.029 291.915,259.25 255,238.847 
				218.085,259.25 225.133,216.029 195.267,185.42 236.542,179.113 			"/>
			<polygon style="fill:#E3E7F2;" points="101.4,139.783 119.858,179.113 161.133,185.42 131.267,216.029 138.315,259.25 
				101.4,238.847 64.485,259.25 71.533,216.029 41.667,185.42 82.942,179.113 			"/>
			<polygon style="fill:#E3E7F2;" points="408.6,139.783 427.058,179.113 468.333,185.42 438.467,216.029 445.515,259.25 
				408.6,238.847 371.685,259.25 378.733,216.029 348.867,185.42 390.142,179.113 			"/>
		</g>
		<g>
			<path style="fill:#FFFFFF;" d="M33.133,327.517v-256c-0.002-9.053,3.593-17.737,9.995-24.139s15.085-9.997,24.139-9.995h-25.6
				c-9.053-0.002-17.737,3.593-24.139,9.995S7.531,62.463,7.533,71.517v256c-0.002,9.053,3.593,17.737,9.995,24.139
				c6.402,6.402,15.085,9.997,24.139,9.995h25.6c-9.053,0.002-17.737-3.593-24.139-9.995
				C36.726,345.254,33.131,336.57,33.133,327.517z"/>
			<path style="fill:#FFFFFF;" d="M92.867,455.517V361.65h-25.6v93.867c-0.072,4.188,1.454,8.246,4.267,11.349
				c3.239,3.674,7.901,5.779,12.799,5.778s9.56-2.106,12.798-5.781C94.32,463.76,92.795,459.703,92.867,455.517z"/>
		</g>
	</g>
	<g>
		<polygon style="fill:#FFFFFF;" points="17.067,72.517 17.067,183.45 17.067,328.517 0,328.517 0,183.45 0,72.517 		"/>
		<g>
			<path style="fill:#428DFF;" d="M8.533,149.317c2.259-0.034,4.422-0.918,6.059-2.475c3.3-3.365,3.3-8.752,0-12.117l-1.279-1.025
				c-0.476-0.324-0.993-0.583-1.538-0.771c-0.484-0.246-1.003-0.417-1.538-0.509c-0.563-0.096-1.133-0.153-1.704-0.171
				c-2.259,0.031-4.423,0.915-6.059,2.475c-3.222,3.397-3.222,8.721,0,12.117c0.815,0.77,1.77,1.379,2.813,1.792
				C6.314,149.072,7.417,149.304,8.533,149.317z"/>
			<path style="fill:#428DFF;" d="M469.333,29.85H42.667C19.114,29.878,0.028,48.964,0,72.517v34.133
				c0,4.713,3.821,8.533,8.533,8.533s8.533-3.821,8.533-8.533V72.517c0.015-14.132,11.468-25.585,25.6-25.6h426.667
				c14.132,0.015,25.585,11.468,25.6,25.6v256c-0.015,14.132-11.468,25.585-25.6,25.6h-281.6c-2.5,0.002-4.874,1.098-6.496,3
				L91.758,462.142c-2.343,2.675-6.098,3.618-9.427,2.366c-3.328-1.252-5.532-4.435-5.532-7.991V362.65
				c0.001-2.263-0.898-4.434-2.499-6.035c-1.6-1.6-3.771-2.499-6.035-2.499h-25.6c-14.132-0.015-25.585-11.468-25.6-25.6v-153.6
				c0-4.713-3.821-8.533-8.533-8.533S0,170.204,0,174.917v153.6c0.028,23.553,19.114,42.639,42.667,42.667h17.067v85.333
				c-0.058,10.684,6.574,20.263,16.596,23.967c2.905,1.096,5.983,1.66,9.088,1.667c7.4-0.021,14.427-3.253,19.258-8.858l87-102.108
				h277.658c23.553-0.028,42.639-19.114,42.667-42.667v-256C511.972,48.964,492.886,29.878,469.333,29.85z"/>
			<path style="fill:#428DFF;" d="M323.825,183.708c-1.016-3.033-3.642-5.243-6.804-5.725l-36.771-5.625l-16.525-35.2
				c-1.406-2.995-4.416-4.908-7.725-4.908c-3.309,0-6.319,1.913-7.725,4.908l-16.525,35.2l-36.771,5.625
				c-3.162,0.482-5.788,2.692-6.804,5.724c-1.016,3.033-0.25,6.378,1.983,8.668l26.858,27.525l-6.354,38.975
				c-0.528,3.226,0.834,6.469,3.506,8.351s6.184,2.073,9.044,0.49L256,249.592l32.788,18.125c2.86,1.582,6.372,1.392,9.044-0.49
				c2.672-1.882,4.033-5.126,3.506-8.351l-6.354-38.975l26.858-27.525C324.075,190.086,324.841,186.741,323.825,183.708z
				 M279.758,211.067c-1.893,1.938-2.751,4.66-2.313,7.333l4.221,25.883l-21.537-11.908c-2.569-1.422-5.689-1.422-8.258,0
				l-21.537,11.908l4.221-25.883c0.439-2.673-0.42-5.395-2.313-7.333l-18.271-18.725l24.858-3.8c2.814-0.426,5.23-2.231,6.438-4.808
				L256,160.867l10.733,22.867c1.208,2.578,3.623,4.382,6.438,4.808l24.858,3.8L279.758,211.067z"/>
			<path style="fill:#428DFF;" d="M170.225,183.708c-1.016-3.033-3.642-5.243-6.804-5.725l-36.771-5.625l-16.525-35.2
				c-1.406-2.995-4.416-4.908-7.725-4.908c-3.309,0-6.319,1.913-7.725,4.908l-16.525,35.2l-36.771,5.625
				c-3.162,0.482-5.788,2.692-6.804,5.724c-1.016,3.033-0.25,6.378,1.983,8.668L63.417,219.9l-6.354,38.975
				c-0.528,3.226,0.834,6.469,3.506,8.351c2.672,1.882,6.184,2.073,9.044,0.49l32.788-18.125l32.788,18.125
				c2.86,1.582,6.372,1.392,9.044-0.49c2.672-1.882,4.033-5.126,3.506-8.351l-6.354-38.975l26.858-27.525
				C170.475,190.086,171.241,186.741,170.225,183.708z M126.158,211.067c-1.893,1.938-2.751,4.66-2.313,7.333l4.221,25.883
				l-21.537-11.908c-2.569-1.422-5.689-1.422-8.258,0l-21.537,11.908l4.221-25.883c0.439-2.673-0.42-5.395-2.313-7.333
				l-18.271-18.725l24.858-3.8c2.814-0.426,5.23-2.231,6.438-4.808l10.733-22.867l10.733,22.867
				c1.208,2.578,3.623,4.382,6.438,4.808l24.858,3.8L126.158,211.067z"/>
			<path style="fill:#428DFF;" d="M477.425,183.708c-1.016-3.033-3.642-5.243-6.804-5.725l-36.771-5.625l-16.525-35.2
				c-1.406-2.995-4.416-4.908-7.725-4.908c-3.309,0-6.319,1.913-7.725,4.908l-16.525,35.2l-36.771,5.625
				c-3.162,0.482-5.788,2.692-6.804,5.724c-1.016,3.033-0.25,6.378,1.983,8.668l26.858,27.525l-6.354,38.975
				c-0.527,3.226,0.834,6.469,3.506,8.351c2.672,1.882,6.184,2.073,9.044,0.49l32.788-18.125l32.788,18.125
				c2.86,1.582,6.372,1.392,9.044-0.49c2.672-1.882,4.033-5.126,3.506-8.351l-6.354-38.975l26.858-27.525
				C477.675,190.086,478.441,186.741,477.425,183.708z M433.358,211.067c-1.893,1.938-2.751,4.66-2.313,7.333l4.221,25.883
				l-21.537-11.908c-2.569-1.422-5.689-1.422-8.258,0l-21.537,11.908l4.221-25.883c0.439-2.673-0.42-5.395-2.313-7.333
				l-18.271-18.725l24.858-3.8c2.814-0.426,5.23-2.231,6.438-4.808l10.733-22.867l10.733,22.867
				c1.208,2.578,3.623,4.382,6.438,4.808l24.858,3.8L433.358,211.067z"/>
		</g>
	</g>
</g>
<g>
</g>
<g>
</g>
<g>
</g>
<g>
</g>
<g>
</g>
<g>
</g>
<g>
</g>
<g>
</g>
<g>
</g>
<g>
</g>
<g>
</g>
<g>
</g>
<g>
</g>
<g>
</g>
<g>
</g>
</svg>
