<?xml version="1.0" encoding="iso-8859-1"?>
<!-- Generator: Adobe Illustrator 19.0.0, SVG Export Plug-In . SVG Version: 6.00 Build 0)  -->
<svg version="1.1" id="Capa_1" xmlns="http://www.w3.org/2000/svg" xmlns:xlink="http://www.w3.org/1999/xlink" x="0px" y="0px"
	 viewBox="0 0 512 512" style="enable-background:new 0 0 512 512;" xml:space="preserve">
<g>
	<g transform="translate(1 1)">
		<g>
			<path style="fill:#A4C2F7;" d="M24.6,7.533h460.8c9.426,0,17.067,7.641,17.067,17.067v460.8c0,9.426-7.641,17.067-17.067,17.067
				H24.6c-9.426,0-17.067-7.641-17.067-17.067V24.6C7.533,15.174,15.174,7.533,24.6,7.533z"/>
			<path style="fill:#A4C2F7;" d="M502.467,24.6v51.2H7.533V24.6C7.561,15.186,15.186,7.561,24.6,7.533h460.8
				C494.814,7.561,502.439,15.186,502.467,24.6z"/>
		</g>
		<path style="fill:#D4E1F4;" d="M24.6,7.533h435.2c9.426,0,17.067,7.641,17.067,17.067v460.8c0,9.426-7.641,17.067-17.067,17.067
			H24.6c-9.426,0-17.067-7.641-17.067-17.067V24.6C7.533,15.174,15.174,7.533,24.6,7.533z"/>
		<path style="fill:#E3E7F2;" d="M476.867,24.6v51.2H7.533V24.6C7.561,15.186,15.186,7.561,24.6,7.533h435.2
			C469.214,7.561,476.839,15.186,476.867,24.6z"/>
		<g>
			<path style="fill:#7FABFA;" d="M50.2,152.6h170.667c4.713,0,8.533,3.821,8.533,8.533v25.6c0,4.713-3.821,8.533-8.533,8.533H50.2
				c-4.713,0-8.533-3.821-8.533-8.533v-25.6C41.667,156.421,45.487,152.6,50.2,152.6z"/>
			<path style="fill:#7FABFA;" d="M50.2,263.533h409.6c4.713,0,8.533,3.82,8.533,8.533v119.467c0,4.713-3.82,8.533-8.533,8.533H50.2
				c-4.713,0-8.533-3.82-8.533-8.533V272.067C41.667,267.354,45.487,263.533,50.2,263.533z"/>
			<path style="fill:#7FABFA;" d="M289.133,152.6H459.8c4.713,0,8.533,3.821,8.533,8.533v25.6c0,4.713-3.82,8.533-8.533,8.533
				H289.133c-4.713,0-8.533-3.821-8.533-8.533v-25.6C280.6,156.421,284.421,152.6,289.133,152.6z"/>
		</g>
		<g>
			<path style="fill:#FFFFFF;" d="M50.2,152.6h145.067c4.713,0,8.533,3.821,8.533,8.533v25.6c0,4.713-3.821,8.533-8.533,8.533H50.2
				c-4.713,0-8.533-3.821-8.533-8.533v-25.6C41.667,156.421,45.487,152.6,50.2,152.6z"/>
			<path style="fill:#FFFFFF;" d="M50.2,263.533h384c4.713,0,8.533,3.82,8.533,8.533v119.467c0,4.713-3.821,8.533-8.533,8.533h-384
				c-4.713,0-8.533-3.82-8.533-8.533V272.067C41.667,267.354,45.487,263.533,50.2,263.533z"/>
			<path style="fill:#FFFFFF;" d="M289.133,152.6H434.2c4.713,0,8.533,3.821,8.533,8.533v25.6c0,4.713-3.821,8.533-8.533,8.533
				H289.133c-4.713,0-8.533-3.821-8.533-8.533v-25.6C280.6,156.421,284.421,152.6,289.133,152.6z"/>
		</g>
		<path style="fill:#A4C2F7;" d="M468.333,451.267c-0.069,9.397-7.67,16.998-17.067,17.067h-76.8
			c-9.414-0.028-17.039-7.652-17.067-17.067c0.068-9.397,7.669-16.998,17.067-17.067h76.8
			C460.681,434.227,468.306,441.852,468.333,451.267z"/>
		<path style="fill:#E3E7F2;" d="M442.733,451.267c-0.069,9.397-7.67,16.998-17.067,17.067h-51.2
			c-9.414-0.028-17.039-7.652-17.067-17.067c0.068-9.397,7.669-16.998,17.067-17.067h51.2
			C435.081,434.227,442.706,441.852,442.733,451.267z"/>
		<path style="fill:#FFFFFF;" d="M7.533,24.6v460.8c0.028,9.414,7.653,17.039,17.067,17.067h25.6
			c-9.414-0.028-17.039-7.653-17.067-17.067V24.6C33.161,15.186,40.786,7.561,50.2,7.533H24.6C15.186,7.561,7.561,15.186,7.533,24.6
			z"/>
	</g>
	<g>
		<polygon style="fill:#FFFFFF;" points="17.067,76.8 17.067,187.733 17.067,486.4 0,486.4 0,187.733 0,76.8 		"/>
		<g>
			<path style="fill:#428DFF;" d="M8.533,153.6c2.259-0.034,4.422-0.918,6.059-2.475c3.3-3.365,3.3-8.752,0-12.117l-1.279-1.025
				c-0.476-0.324-0.993-0.583-1.538-0.771c-0.484-0.246-1.003-0.417-1.538-0.509c-0.563-0.096-1.133-0.153-1.704-0.171
				c-2.259,0.031-4.423,0.915-6.059,2.475c-3.222,3.397-3.222,8.721,0,12.117c0.815,0.771,1.77,1.379,2.813,1.792
				C6.314,153.355,7.417,153.587,8.533,153.6z"/>
			<path style="fill:#428DFF;" d="M486.4,0H25.6C11.468,0.015,0.015,11.468,0,25.6v85.333c0,4.713,3.821,8.533,8.533,8.533
				s8.533-3.821,8.533-8.533v-25.6h477.867V486.4c-0.003,4.712-3.822,8.53-8.533,8.533H25.6c-4.712-0.003-8.53-3.822-8.533-8.533
				V179.2c0-4.713-3.821-8.533-8.533-8.533S0,174.487,0,179.2v307.2c0.015,14.132,11.468,25.585,25.6,25.6h460.8
				c14.132-0.015,25.585-11.468,25.6-25.6V25.6C511.985,11.468,500.532,0.015,486.4,0z M17.067,68.267V25.6
				c0.003-4.712,3.822-8.53,8.533-8.533h460.8c4.712,0.003,8.53,3.822,8.533,8.533v42.667H17.067z"/>
			<path style="fill:#428DFF;" d="M68.267,34.133H51.2c-4.713,0-8.533,3.821-8.533,8.533S46.487,51.2,51.2,51.2h17.067
				c4.713,0,8.533-3.821,8.533-8.533S72.98,34.133,68.267,34.133z"/>
			<path style="fill:#428DFF;" d="M460.8,34.133h-17.067c-4.713,0-8.533,3.821-8.533,8.533s3.821,8.533,8.533,8.533H460.8
				c4.713,0,8.533-3.821,8.533-8.533S465.513,34.133,460.8,34.133z"/>
			<path style="fill:#428DFF;" d="M375.467,34.133H136.533c-4.713,0-8.533,3.821-8.533,8.533s3.821,8.533,8.533,8.533h238.933
				c4.713,0,8.533-3.821,8.533-8.533S380.18,34.133,375.467,34.133z"/>
			<path style="fill:#428DFF;" d="M34.133,187.733c0.012,9.421,7.646,17.054,17.067,17.067h170.667
				c9.421-0.012,17.054-7.646,17.067-17.067v-25.6c-0.012-9.421-7.646-17.054-17.067-17.067H51.2
				c-9.421,0.012-17.054,7.646-17.067,17.067V187.733z M51.2,162.133h170.667l0.017,25.6H51.2V162.133z"/>
			<path style="fill:#428DFF;" d="M34.133,392.533c0.012,9.421,7.646,17.054,17.067,17.067h409.6
				c9.421-0.012,17.054-7.646,17.067-17.067V273.067c-0.012-9.421-7.646-17.054-17.067-17.067H51.2
				c-9.421,0.012-17.054,7.646-17.067,17.067V392.533z M51.2,273.067h409.6l0.017,119.467H51.2V273.067z"/>
			<path style="fill:#428DFF;" d="M273.067,187.733c0.012,9.421,7.646,17.054,17.067,17.067H460.8
				c9.421-0.012,17.054-7.646,17.067-17.067v-25.6c-0.012-9.421-7.646-17.054-17.067-17.067H290.133
				c-9.421,0.012-17.054,7.646-17.067,17.067V187.733z M290.133,162.133H460.8l0.017,25.6H290.133V162.133z"/>
			<path style="fill:#428DFF;" d="M102.4,128c4.713,0,8.533-3.821,8.533-8.533c0-4.713-3.821-8.533-8.533-8.533H42.667
				c-4.713,0-8.533,3.821-8.533,8.533c0,4.713,3.821,8.533,8.533,8.533H102.4z"/>
			<path style="fill:#428DFF;" d="M42.667,238.933H102.4c4.713,0,8.533-3.821,8.533-8.533s-3.821-8.533-8.533-8.533H42.667
				c-4.713,0-8.533,3.82-8.533,8.533S37.954,238.933,42.667,238.933z"/>
			<path style="fill:#428DFF;" d="M341.333,128c4.713,0,8.533-3.821,8.533-8.533c0-4.713-3.821-8.533-8.533-8.533H281.6
				c-4.713,0-8.533,3.821-8.533,8.533c0,4.713,3.82,8.533,8.533,8.533H341.333z"/>
			<path style="fill:#428DFF;" d="M452.267,426.667h-76.8c-14.138,0-25.6,11.462-25.6,25.6s11.462,25.6,25.6,25.6h76.8
				c14.138,0,25.6-11.462,25.6-25.6S466.405,426.667,452.267,426.667z M452.267,460.8h-76.8c-4.713,0-8.533-3.82-8.533-8.533
				s3.821-8.533,8.533-8.533h76.8c4.713,0,8.533,3.82,8.533,8.533S456.98,460.8,452.267,460.8z"/>
		</g>
	</g>
</g>
<g>
</g>
<g>
</g>
<g>
</g>
<g>
</g>
<g>
</g>
<g>
</g>
<g>
</g>
<g>
</g>
<g>
</g>
<g>
</g>
<g>
</g>
<g>
</g>
<g>
</g>
<g>
</g>
<g>
</g>
</svg>
