<?xml version="1.0" encoding="iso-8859-1"?>
<!-- Generator: Adobe Illustrator 19.0.0, SVG Export Plug-In . SVG Version: 6.00 Build 0)  -->
<svg version="1.1" id="Capa_1" xmlns="http://www.w3.org/2000/svg" xmlns:xlink="http://www.w3.org/1999/xlink" x="0px" y="0px"
	 viewBox="0 0 512 512" style="enable-background:new 0 0 512 512;" xml:space="preserve">
<g>
	<g transform="translate(1 1)">
		<path style="fill:#E3E7F2;" d="M445.208,303.467l55.893-22.356c1.819-17.361,1.819-34.864,0-52.225l-55.893-22.356
			c-2.379-9.443-5.489-18.687-9.301-27.649c-3.535-8.253-7.612-16.263-12.203-23.979l23.808-55.467
			c-5.462-6.741-11.349-13.227-17.493-19.456c-6.229-6.144-12.715-12.032-19.456-17.494l-55.467,23.808
			c-7.716-4.591-15.726-8.667-23.979-12.202c-8.961-3.813-18.205-6.923-27.648-9.302L281.113,8.896
			c-17.361-1.819-34.864-1.819-52.225,0L206.531,64.79c-9.443,2.379-18.687,5.489-27.648,9.302
			c-8.253,3.535-16.264,7.611-23.979,12.202L99.437,62.486c-6.741,5.461-13.227,11.349-19.456,17.493
			c-6.144,6.229-12.031,12.715-17.494,19.456l23.808,55.467c-4.591,7.716-8.667,15.726-12.202,23.979
			c-3.813,8.961-6.923,18.205-9.302,27.649L8.899,228.885c-1.819,17.361-1.819,34.864,0,52.225l55.893,22.356
			c2.379,9.443,5.489,18.687,9.302,27.648c3.535,8.253,7.611,16.264,12.202,23.979l-23.808,55.467
			c5.462,6.741,11.349,13.227,17.493,19.456c6.229,6.144,12.715,12.031,19.456,17.493l55.467-23.808
			c7.716,4.591,15.726,8.668,23.979,12.203c8.961,3.813,18.205,6.923,27.648,9.302l22.356,55.893
			c17.361,1.821,34.864,1.821,52.225,0l22.356-55.893c9.443-2.379,18.687-5.489,27.648-9.302
			c8.253-3.535,16.264-7.611,23.979-12.202l55.467,23.808c6.741-5.463,13.227-11.35,19.456-17.493
			c6.144-6.229,12.031-12.715,17.493-19.456l-23.808-55.467c4.591-7.716,8.668-15.726,12.203-23.979
			C439.719,322.154,442.829,312.91,445.208,303.467z M311.32,388.715c-36.022,15.133-76.618,15.133-112.64,0
			c-34.886-14.747-62.649-42.511-77.397-77.397c-15.133-36.022-15.133-76.619,0-112.641c14.748-34.885,42.511-62.649,77.397-77.397
			c36.022-15.132,76.618-15.132,112.64,0c34.885,14.748,62.649,42.512,77.397,77.397c15.133,36.022,15.133,76.619,0,112.641
			C373.97,346.204,346.206,373.967,311.32,388.715z"/>
		<g>
			<path style="fill:#D4E1F4;" d="M109.933,254.998c-0.039,19.345,3.821,38.5,11.35,56.32l-47.189,19.797
				c-3.813-8.961-6.923-18.205-9.302-27.648L8.899,281.111c-1.819-17.361-1.819-34.864,0-52.225l55.893-22.356
				c2.379-9.443,5.489-18.687,9.302-27.649l47.189,19.797C113.755,216.498,109.895,235.653,109.933,254.998z"/>
			<path style="fill:#D4E1F4;" d="M331.117,74.092l-19.797,47.189c-36.022-15.132-76.618-15.132-112.64,0l-19.797-47.189
				c8.961-3.813,18.205-6.923,27.648-9.302l22.356-55.893c17.361-1.819,34.864-1.819,52.225,0l22.356,55.894
				C312.912,67.169,322.156,70.279,331.117,74.092z"/>
			<path style="fill:#D4E1F4;" d="M502.467,254.998c0.017,8.722-0.438,17.439-1.365,26.112l-55.893,22.356
				c-2.379,9.443-5.489,18.687-9.302,27.648l-22.016-9.215l-25.174-10.581c15.133-36.022,15.133-76.619,0-112.641l25.174-10.581
				l22.016-9.216c3.812,8.961,6.922,18.206,9.301,27.649l55.893,22.356C502.028,237.559,502.484,246.275,502.467,254.998z"/>
			<path style="fill:#D4E1F4;" d="M331.117,435.905c-8.961,3.813-18.205,6.923-27.648,9.302l-22.356,55.893
				c-17.361,1.821-34.864,1.821-52.225,0l-22.356-55.893c-9.443-2.379-18.687-5.489-27.648-9.302l19.797-47.189
				c36.022,15.133,76.618,15.133,112.64,0L331.117,435.905z"/>
		</g>
		<g>
			<circle style="fill:#E3E7F2;" cx="255" cy="340.331" r="17.067"/>
			<path style="fill:#E3E7F2;" d="M252.133,288.897c-8.407-1.695-14.39-9.173-14.199-17.748v-8.397
				c0.301-12.259,9.033-22.684,21.049-25.131c13.461-2.115,22.908-14.402,21.493-27.955c-1.414-13.553-13.195-23.624-26.802-22.914
				c-13.608,0.71-24.276,11.952-24.273,25.578c-0.002,5.015-2.208,9.777-6.033,13.02c-3.825,3.244-8.883,4.642-13.832,3.823
				c-8.782-1.772-14.88-9.793-14.239-18.729c0.955-30.516,24.764-55.403,55.208-57.709c30.444-2.306,57.729,18.712,63.27,48.736
				c5.541,30.024-12.446,59.396-41.707,68.109v2.483c-0.002,5.028-2.219,9.799-6.06,13.043S257.09,289.738,252.133,288.897z"/>
		</g>
		<g>
			<path style="fill:#A4C2F7;" d="M447.513,410.561c-5.462,6.741-11.35,13.227-17.493,19.456
				c-6.229,6.144-12.715,12.031-19.456,17.493l-17.067-7.34c3.754-3.242,7.34-6.656,10.923-10.154
				c6.144-6.229,12.031-12.715,17.493-19.456l-23.808-55.467c4.591-7.716,8.667-15.726,12.202-23.979
				c1.28-2.985,2.475-6.057,3.584-9.216l22.016,9.216c-3.535,8.253-7.612,16.264-12.203,23.979L447.513,410.561z"/>
			<path style="fill:#A4C2F7;" d="M423.704,154.902c4.591,7.715,8.668,15.726,12.203,23.979l-22.016,9.216
				c-1.109-3.156-2.304-6.228-3.584-9.216c-3.535-8.253-7.612-16.263-12.203-23.979l23.808-55.467
				c-5.462-6.741-11.349-13.227-17.493-19.456c-3.583-3.499-7.169-6.913-10.923-10.154l17.067-7.34
				c6.741,5.462,13.227,11.35,19.456,17.494c6.144,6.229,12.031,12.715,17.493,19.456L423.704,154.902z"/>
			<path style="fill:#A4C2F7;" d="M502.467,254.998c0.017,8.722-0.438,17.439-1.365,26.112l-55.893,22.356
				c-2.379,9.443-5.489,18.687-9.302,27.648l-22.016-9.215c2.264-6.027,4.173-12.182,5.717-18.432l55.893-22.356
				c1.819-17.361,1.819-34.864,0-52.225l-55.893-22.356c-1.545-6.251-3.454-12.406-5.717-18.433l22.016-9.216
				c3.812,8.961,6.922,18.205,9.301,27.649l55.893,22.356C502.028,237.559,502.484,246.275,502.467,254.998z"/>
		</g>
	</g>
	<g transform="translate(1 7)">
		<path style="fill:#FFFFFF;" d="M419.112,434.192l-38.416-16.49c-3.657,2.195-7.404,4.235-11.207,6.178l41.074,17.63
			C413.468,439.156,416.302,436.69,419.112,434.192z"/>
		<path style="fill:#FFFFFF;" d="M64.792,297.467c2.379,9.443,5.489,18.687,9.302,27.648c3.535,8.253,7.611,16.264,12.202,23.979
			l-23.808,55.467c5.462,6.741,11.349,13.227,17.493,19.456c6.229,6.144,12.715,12.031,19.456,17.493l17.05-7.319
			c-3.71-3.299-7.361-6.679-10.906-10.175c-6.144-6.229-12.031-12.715-17.494-19.456l23.808-55.467
			c-4.591-7.716-8.667-15.726-12.202-23.979c-3.813-8.961-6.923-18.205-9.302-27.648L34.498,275.11
			c-1.819-17.361-1.819-34.864,0-52.225l55.894-22.356c2.379-9.443,5.489-18.687,9.302-27.649
			c3.535-8.253,7.611-16.263,12.202-23.979L88.088,93.435c5.462-6.741,11.349-13.227,17.493-19.456
			c3.545-3.496,7.196-6.877,10.906-10.175l-17.05-7.319c-6.741,5.462-13.227,11.35-19.456,17.494
			c-6.144,6.229-12.031,12.715-17.494,19.456l23.808,55.467c-4.591,7.716-8.667,15.726-12.202,23.979
			c-3.813,8.961-6.923,18.205-9.302,27.649L8.899,222.885c-1.819,17.361-1.819,34.864,0,52.225L64.792,297.467z"/>
	</g>
	<g>
		<path style="fill:#428DFF;" d="M505.275,221.956l-51.942-20.792c-2.317-8.282-5.158-16.409-8.507-24.33
			c-0.032-0.083-0.016-0.17-0.051-0.253c-0.046-0.109-0.142-0.176-0.192-0.282c-3.037-7.183-6.482-14.186-10.317-20.976
			l22.059-51.525c1.242-2.9,0.783-6.248-1.192-8.708c-11.379-14.035-24.19-26.846-38.225-38.225
			c-2.458-1.979-5.809-2.438-8.708-1.192l-51.525,22.059c-6.792-3.836-13.796-7.282-20.98-10.32
			c-0.105-0.049-0.17-0.143-0.278-0.188c-0.083-0.035-0.171-0.019-0.254-0.052c-7.921-3.35-16.047-6.191-24.329-8.506L290.042,6.723
			c-1.175-2.925-3.866-4.966-7-5.309c-17.979-1.883-36.105-1.883-54.083,0c-3.134,0.342-5.825,2.383-7,5.308l-20.792,51.942
			c-8.282,2.315-16.409,5.156-24.329,8.506c-0.083,0.032-0.171,0.017-0.254,0.052c-0.108,0.046-0.173,0.14-0.278,0.189
			c-7.184,3.039-14.189,6.484-20.98,10.32L103.8,55.673c-2.9-1.242-6.249-0.784-8.708,1.192
			c-14.035,11.379-26.846,24.19-38.225,38.225c-1.975,2.46-2.433,5.808-1.192,8.708l22.059,51.525
			c-3.835,6.79-7.28,13.794-10.317,20.977c-0.05,0.106-0.146,0.172-0.192,0.282c-0.035,0.083-0.019,0.17-0.051,0.253
			c-3.349,7.921-6.19,16.048-8.507,24.33L6.725,221.956c-2.925,1.175-4.966,3.866-5.308,7c-1.889,17.978-1.889,36.105,0,54.083
			c0.342,3.134,2.383,5.825,5.308,7l51.942,20.792c2.317,8.282,5.159,16.409,8.508,24.33c0.032,0.083,0.016,0.17,0.051,0.253
			c0.062,0.151,0.176,0.26,0.247,0.406c3.024,7.139,6.45,14.101,10.262,20.852l-22.059,51.525c-1.242,2.9-0.783,6.248,1.192,8.708
			c11.379,14.035,24.19,26.846,38.225,38.225c2.456,1.984,5.81,2.442,8.708,1.192l51.525-22.059
			c6.792,3.836,13.796,7.281,20.98,10.32c0.105,0.049,0.17,0.143,0.278,0.189c0.081,0.035,0.169,0.019,0.252,0.051
			c7.921,3.351,16.048,6.192,24.331,8.507l20.792,51.942c1.175,2.925,3.866,4.966,7,5.308c17.978,1.889,36.105,1.889,54.083,0
			c3.134-0.342,5.825-2.383,7-5.308l20.792-51.942c8.283-2.315,16.41-5.157,24.331-8.507c0.083-0.032,0.171-0.016,0.252-0.051
			c0.108-0.046,0.173-0.14,0.278-0.189c7.184-3.039,14.189-6.484,20.98-10.32l51.525,22.059c2.898,1.256,6.254,0.796,8.708-1.192
			c14.035-11.379,26.846-24.19,38.225-38.225c1.975-2.46,2.433-5.808,1.192-8.708l-22.059-51.525
			c3.812-6.751,7.238-13.713,10.261-20.852c0.071-0.146,0.184-0.255,0.247-0.406c0.035-0.083,0.019-0.17,0.051-0.253
			c3.349-7.921,6.19-16.048,8.507-24.33l51.942-20.792c2.925-1.175,4.966-3.866,5.309-7c1.889-17.978,1.889-36.105,0-54.083
			C510.241,225.822,508.201,223.131,505.275,221.956z M359.45,95.106l50.692-21.7c4.966,4.192,9.933,8.767,14.808,13.642
			c4.875,4.875,9.45,9.842,13.642,14.808l-21.7,50.692c-1.073,2.509-0.885,5.379,0.508,7.725c2.94,4.935,5.556,10.025,8.02,15.177
			l-31.565,13.244c-15.059-30.678-39.873-55.492-70.551-70.551l13.244-31.565c5.15,2.463,10.237,5.08,15.177,8.02
			C354.068,95.999,356.943,96.188,359.45,95.106z M256,392.531c-75.405,0-136.533-61.128-136.533-136.533
			S180.595,119.465,256,119.465s136.533,61.128,136.533,136.533C392.447,331.367,331.37,392.445,256,392.531z M209.608,74.073
			c2.639-0.674,4.799-2.565,5.817-5.092l20.45-51.092c13.394-1.1,26.856-1.1,40.25,0l20.45,51.092
			c1.017,2.527,3.178,4.418,5.817,5.092c6.244,1.633,12.397,3.594,18.435,5.873l-13.24,31.556
			c-33.321-12.139-69.854-12.139-103.175,0l-13.24-31.556C197.211,77.667,203.365,75.706,209.608,74.073z M73.408,101.856
			c4.192-4.966,8.767-9.933,13.642-14.808s9.842-9.45,14.808-13.642l50.692,21.7c2.507,1.082,5.381,0.892,7.725-0.508
			c4.94-2.94,10.027-5.556,15.177-8.02l13.244,31.565c-30.678,15.059-55.492,39.873-70.551,70.551L86.58,175.451
			c2.463-5.152,5.08-10.242,8.02-15.177c1.393-2.346,1.582-5.217,0.508-7.725L73.408,101.856z M17.892,276.123
			c-0.55-6.483-0.825-13.225-0.825-20.125s0.275-13.642,0.825-20.125l51.092-20.45c2.527-1.017,4.418-3.178,5.092-5.817
			c1.637-6.243,3.599-12.396,5.877-18.434l31.552,13.239c-12.139,33.321-12.139,69.854,0,103.175l-31.552,13.239
			c-2.278-6.038-4.24-12.192-5.877-18.434c-0.674-2.639-2.565-4.799-5.092-5.817L17.892,276.123z M152.55,416.89l-50.692,21.7
			c-4.966-4.192-9.933-8.767-14.808-13.642c-4.875-4.875-9.45-9.842-13.642-14.808l21.7-50.692c1.073-2.509,0.885-5.379-0.508-7.725
			c-2.94-4.935-5.556-10.025-8.02-15.177l31.565-13.244c15.059,30.678,39.873,55.492,70.551,70.551l-13.244,31.565
			c-5.15-2.463-10.238-5.08-15.177-8.02C157.933,415.993,155.057,415.804,152.55,416.89z M302.392,437.923
			c-2.639,0.674-4.799,2.565-5.817,5.092l-20.45,51.092c-13.394,1.1-26.856,1.1-40.25,0l-20.45-51.092
			c-1.017-2.527-3.178-4.418-5.817-5.092c-6.244-1.633-12.397-3.594-18.435-5.873l13.24-31.556
			c33.321,12.139,69.854,12.139,103.175,0l13.24,31.556C314.789,434.329,308.635,436.29,302.392,437.923L302.392,437.923z
			 M438.592,410.14c-4.192,4.966-8.767,9.933-13.642,14.808c-4.875,4.875-9.842,9.45-14.808,13.642l-50.692-21.7
			c-2.506-1.086-5.383-0.897-7.725,0.508c-4.94,2.94-10.027,5.556-15.177,8.02l-13.244-31.565
			c30.678-15.059,55.492-39.873,70.551-70.551l31.565,13.244c-2.463,5.152-5.08,10.242-8.02,15.177
			c-1.393,2.346-1.582,5.217-0.508,7.725L438.592,410.14z M494.108,276.123l-51.092,20.45c-2.527,1.017-4.418,3.177-5.092,5.817
			c-1.637,6.243-3.599,12.396-5.877,18.434l-31.552-13.239c12.139-33.321,12.139-69.854,0-103.175l31.552-13.239
			c2.278,6.038,4.24,12.192,5.877,18.434c0.674,2.639,2.565,4.799,5.092,5.817l51.092,20.45c0.55,6.483,0.825,13.225,0.825,20.125
			S494.658,269.64,494.108,276.123z"/>
		<path style="fill:#428DFF;" d="M256,315.731c-14.138,0-25.6,11.462-25.6,25.6c0,14.138,11.462,25.6,25.6,25.6
			c14.139,0,25.6-11.462,25.6-25.6C281.585,327.199,270.132,315.747,256,315.731z M256,349.865c-4.713,0-8.533-3.82-8.533-8.533
			s3.821-8.533,8.533-8.533c4.713,0,8.533,3.82,8.533,8.533C264.53,346.043,260.712,349.861,256,349.865z"/>
		<path style="fill:#428DFF;" d="M267.717,146.048c-19.485-3.364-39.472,1.876-54.801,14.365s-24.498,31.006-25.141,50.768
			c-0.757,13.22,8.407,24.951,21.417,27.417c7.415,1.215,14.989-0.889,20.715-5.754c5.726-4.865,9.027-11.999,9.026-19.513
			c0.004-9.075,7.11-16.559,16.173-17.032c9.063-0.473,16.91,6.231,17.858,15.256c0.948,9.025-5.334,17.213-14.297,18.634
			c-16.159,3.123-27.939,17.112-28.267,33.567v8.392c-0.158,12.746,8.84,23.773,21.358,26.175c1.392,0.225,2.799,0.339,4.208,0.341
			c12.735,0.013,23.545-9.331,25.375-21.933c28.367-11.326,45.761-40.113,42.594-70.493S297.81,151.278,267.717,146.048z
			 M270.625,262.406c-3.616,1.076-6.095,4.402-6.092,8.175v2.483c0.001,2.525-1.116,4.921-3.05,6.544
			c-1.935,1.623-4.488,2.305-6.975,1.865c-4.262-1.044-7.204-4.94-7.042-9.325v-8.392c0.269-8.07,5.961-14.938,13.842-16.7
			c16.414-2.576,28.59-16.596,28.841-33.209c0.251-16.613-11.496-30.995-27.825-34.066c-2.07-0.381-4.17-0.573-6.275-0.575
			c-9.059-0.011-17.751,3.579-24.162,9.98c-6.411,6.4-10.016,15.086-10.021,24.145c0.001,2.502-1.095,4.878-3,6.5
			c-1.937,1.638-4.498,2.339-7,1.917c-4.497-1.154-7.482-5.413-7.033-10.033c0.82-26.157,21.23-47.488,47.325-49.462
			s49.481,16.044,54.227,41.781S295.709,254.943,270.625,262.406L270.625,262.406z"/>
	</g>
</g>
<g>
</g>
<g>
</g>
<g>
</g>
<g>
</g>
<g>
</g>
<g>
</g>
<g>
</g>
<g>
</g>
<g>
</g>
<g>
</g>
<g>
</g>
<g>
</g>
<g>
</g>
<g>
</g>
<g>
</g>
</svg>
