<?xml version="1.0" encoding="iso-8859-1"?>
<!-- Generator: Adobe Illustrator 19.0.0, SVG Export Plug-In . SVG Version: 6.00 Build 0)  -->
<svg version="1.1" id="Capa_1" xmlns="http://www.w3.org/2000/svg" xmlns:xlink="http://www.w3.org/1999/xlink" x="0px" y="0px"
	 viewBox="0 0 512 512" style="enable-background:new 0 0 512 512;" xml:space="preserve">
<g>
	<g transform="translate(1 1)">
		<path style="fill:#D4E1F4;" d="M272.067,280.581v33.279c0.237,7.505-4.324,14.331-11.349,16.982
			c-5.233,1.833-11.029,1.019-15.554-2.184s-7.22-8.399-7.23-13.944v-34.133H272.067z"/>
		<g>
			<path style="fill:#E3E7F2;" d="M255,16.048c-131.959,0-238.933,106.974-238.933,238.933S123.041,493.915,255,493.915
				s238.933-106.974,238.933-238.933C493.909,123.032,386.949,16.072,255,16.048z M255,417.115
				c-89.544,0-162.133-72.59-162.133-162.133S165.456,92.848,255,92.848s162.133,72.59,162.133,162.133
				C417.113,344.516,344.535,417.094,255,417.115z"/>
			<path style="fill:#E3E7F2;" d="M237.933,297.648c-4.707-0.014-8.52-3.826-8.533-8.533v-6.571
				c-0.009-5.143-2.355-10.004-6.377-13.21c-16.978-13.562-23.546-36.363-16.386-56.879s26.491-34.278,48.22-34.33
				c21.73-0.052,41.125,13.617,48.384,34.098c7.259,20.481,0.8,43.314-16.113,56.957c-4.093,3.231-6.495,8.148-6.528,13.363v6.571
				c-0.014,4.707-3.826,8.52-8.533,8.533H237.933z"/>
		</g>
		<path style="fill:#A4C2F7;" d="M493.933,254.981C493.909,386.931,386.949,493.891,255,493.915c-4.267,0-8.533-0.085-12.8-0.341
			c126.806-6.801,226.139-111.604,226.139-238.592S369.006,23.19,242.2,16.389c4.267-0.256,8.533-0.341,12.8-0.341
			C386.949,16.072,493.909,123.032,493.933,254.981z"/>
		<g>
			<path style="fill:#D4E1F4;" d="M318.527,24.619l-20.492,74.458c-1.239,4.341-5.673,6.939-10.065,5.897
				c-21.693-4.791-44.17-4.791-65.864,0c-4.388,1.042-8.82-1.551-10.062-5.887l-20.572-74.468c-0.613-2.169-0.322-4.493,0.805-6.445
				s2.996-3.365,5.18-3.918c37.832-8.989,77.243-8.989,115.076-0.002c2.186,0.553,4.055,1.966,5.183,3.918
				C318.846,20.124,319.138,22.449,318.527,24.619z"/>
			<path style="fill:#D4E1F4;" d="M101.4,254.981c0.002,11.088,1.206,22.143,3.594,32.97c1.042,4.392-1.557,8.827-5.898,10.065
				l-74.458,20.491c-2.17,0.611-4.495,0.319-6.447-0.81c-1.952-1.129-3.365-2.998-3.918-5.183c-8.986-37.829-8.986-77.237,0-115.067
				c0.553-2.186,1.966-4.055,3.918-5.183c1.952-1.129,4.277-1.421,6.447-0.81l74.458,20.491c4.341,1.238,6.939,5.673,5.897,10.065
				C102.606,232.839,101.401,243.894,101.4,254.981z"/>
			<path style="fill:#D4E1F4;" d="M318.527,485.343c0.611,2.17,0.319,4.495-0.81,6.447c-1.129,1.952-2.998,3.365-5.183,3.918
				c-37.832,8.988-77.244,8.987-115.076-0.002c-2.185-0.553-4.053-1.966-5.18-3.918c-1.127-1.952-1.418-4.276-0.805-6.445
				l20.572-74.469c1.241-4.336,5.673-6.929,10.062-5.887c21.693,4.792,44.171,4.792,65.864,0c4.392-1.042,8.826,1.556,10.065,5.897
				L318.527,485.343z"/>
		</g>
		<path style="fill:#A4C2F7;" d="M502.467,254.981c0.028,19.37-2.234,38.676-6.741,57.515c-0.53,2.19-1.934,4.068-3.884,5.196
			c-1.951,1.128-4.278,1.409-6.441,0.777l-15.872-4.352l-58.624-16.128c-4.352-1.226-6.954-5.675-5.888-10.069
			c4.778-21.699,4.778-44.178,0-65.877c-1.067-4.394,1.536-8.844,5.888-10.069l58.624-16.127l15.872-4.352
			c2.163-0.632,4.49-0.351,6.441,0.777c1.951,1.128,3.354,3.006,3.884,5.196C500.232,216.306,502.495,235.611,502.467,254.981z"/>
		<path style="fill:#D4E1F4;" d="M476.867,254.981c0.028,19.37-2.234,38.676-6.741,57.515c-0.147,0.558-0.347,1.101-0.597,1.621
			l-58.624-16.128c-4.352-1.226-6.954-5.675-5.888-10.069c4.778-21.699,4.778-44.178,0-65.877
			c-1.067-4.394,1.536-8.844,5.888-10.069l58.624-16.127c0.25,0.52,0.45,1.063,0.597,1.621
			C474.632,216.306,476.895,235.611,476.867,254.981z"/>
		<g>
			<path style="fill:#FFFFFF;" d="M287.97,104.974c3.059,0.682,6.246-0.366,8.303-2.731c-5.206-0.556-10.437-0.844-15.673-0.861
				c-4.334,0-8.564,0.346-12.789,0.704C274.587,102.604,281.321,103.569,287.97,104.974z"/>
			<path style="fill:#FFFFFF;" d="M24.637,318.508l0.038-0.01c22.443,81.042,85.766,144.365,166.808,166.808l-0.01,0.036
				c-0.613,2.169-0.322,4.494,0.805,6.446c1.127,1.952,2.996,3.365,5.181,3.918c18.849,4.499,38.163,6.761,57.542,6.741
				c4.296,0,8.555-0.158,12.799-0.375c-15.077-0.742-30.054-2.873-44.74-6.367c-2.185-0.553-4.053-1.966-5.181-3.918
				s-1.418-4.276-0.805-6.445l0.01-0.036C136.041,462.862,72.719,399.54,50.275,318.498l-0.038,0.01
				c-2.17,0.61-4.495,0.318-6.447-0.811c-1.952-1.129-3.364-2.998-3.918-5.183c-8.986-37.829-8.986-77.237,0-115.067
				c0.553-2.186,1.966-4.055,3.918-5.183c1.952-1.129,4.277-1.421,6.447-0.81l0.038,0.01C72.718,110.422,136.04,47.1,217.083,24.656
				l-0.01-0.038c-0.613-2.169-0.322-4.493,0.805-6.445s2.996-3.365,5.18-3.918c14.686-3.493,29.663-5.624,44.741-6.367
				c-4.244-0.216-8.504-0.375-12.799-0.375c-19.379-0.02-38.692,2.243-57.542,6.741c-2.185,0.553-4.053,1.966-5.18,3.918
				c-1.127,1.952-1.418,4.276-0.805,6.445l0.01,0.038C110.44,47.099,47.118,110.422,24.675,191.465l-0.038-0.01
				c-2.17-0.611-4.495-0.318-6.447,0.81c-1.952,1.129-3.365,2.998-3.918,5.183c-8.986,37.829-8.986,77.237,0,115.067
				c0.553,2.185,1.966,4.055,3.918,5.183C20.142,318.826,22.467,319.119,24.637,318.508z"/>
			<path style="fill:#FFFFFF;" d="M237.645,99.087l-0.077-0.278c-6.183,1.72-12.258,3.808-18.192,6.252
				c0.909,0.114,1.83,0.085,2.73-0.087c5.708-1.239,11.481-2.151,17.292-2.734C238.584,101.335,237.984,100.257,237.645,99.087z"/>
			<path style="fill:#FFFFFF;" d="M263.533,297.648c-4.707-0.014-8.52-3.826-8.533-8.533v-6.571
				c-0.009-5.143-2.355-10.004-6.378-13.21c-15.139-12.09-22.143-31.698-18.091-50.643c4.052-18.945,18.465-33.973,37.225-38.812
				c-2.17-0.604-4.379-1.057-6.612-1.357c-22.716-2.747-44.497,9.912-53.353,31.01c-8.857,21.098-2.638,45.511,15.232,59.801
				c4.022,3.206,6.369,8.066,6.377,13.21v6.571c0.014,4.707,3.826,8.52,8.533,8.533H263.533z"/>
		</g>
	</g>
	<g>
		<path style="fill:#428DFF;" d="M263.125,171.048c-26.479-3.185-51.861,11.572-62.194,36.16
			c-10.333,24.587-3.112,53.046,17.694,69.732c2.012,1.609,3.201,4.032,3.241,6.608v6.567c0.02,6.069,3.272,11.667,8.533,14.692
			v10.908c0.021,8.239,3.987,15.969,10.667,20.792c4.333,3.14,9.549,4.828,14.9,4.825c2.85-0.003,5.681-0.467,8.383-1.375
			c10.586-3.734,17.554-13.871,17.25-25.092v-10.058c5.261-3.025,8.513-8.623,8.533-14.692v-6.567
			c0.052-2.645,1.295-5.125,3.383-6.75c18.68-15.081,26.512-39.882,19.881-62.956C306.767,190.769,286.962,173.91,263.125,171.048z
			 M264.533,314.865c0.177,3.818-2.016,7.349-5.517,8.883c-2.63,0.961-5.563,0.582-7.861-1.017
			c-2.299-1.599-3.675-4.216-3.689-7.016v-8.533h17.067V314.865z M282.783,263.523c-6.099,4.864-9.671,12.225-9.717,20.025v6.567
			h-34.133v-6.567c-0.018-7.741-3.545-15.057-9.591-19.892c-14.12-11.327-19.557-30.331-13.564-47.413
			c5.993-17.082,22.111-28.523,40.214-28.545c1.721,0.001,3.441,0.101,5.15,0.3c18.764,2.423,33.752,16.803,36.95,35.45
			C300.639,238.594,294.78,253.932,282.783,263.523z"/>
		<path style="fill:#428DFF;" d="M497.267,185.99c-1.434-0.817-2.98-1.419-4.588-1.787c-24.075-79-85.904-140.827-164.905-164.9
			c-0.366-1.608-0.966-3.154-1.782-4.588c-2.282-3.908-6.064-6.712-10.467-7.758c-39.144-9.25-79.906-9.25-119.05,0
			c-4.411,1.044-8.2,3.851-10.483,7.767c-0.81,1.433-1.406,2.976-1.771,4.58c-78.999,24.075-140.826,85.903-164.9,164.903
			c-1.608,0.367-3.154,0.967-4.588,1.783c-3.908,2.282-6.712,6.064-7.758,10.467c-9.3,39.136-9.3,79.906,0,119.042
			c1.044,4.406,3.848,8.192,7.758,10.475c1.435,0.83,2.985,1.443,4.599,1.822c24.083,78.982,85.903,140.793,164.888,164.864
			c0.365,1.605,0.961,3.148,1.771,4.58c2.283,3.915,6.073,6.723,10.483,7.767c39.136,9.3,79.906,9.3,119.042,0
			c4.406-1.044,8.192-3.848,10.475-7.758c0.816-1.433,1.416-2.979,1.782-4.588c78.988-24.07,140.81-85.882,164.894-164.866
			c1.614-0.378,3.164-0.992,4.599-1.822c3.908-2.282,6.712-6.064,7.758-10.467c9.3-39.136,9.3-79.906,0-119.042
			C503.981,192.059,501.177,188.273,497.267,185.99z M475.548,186.583l-57.553,15.84c-17.134-51.155-57.282-91.304-108.438-108.438
			l15.841-57.552C396.865,59.125,452.857,115.117,475.548,186.583z M302.838,402.205c-4.122-4.081-10.031-5.794-15.696-4.549
			c-20.49,4.492-41.71,4.492-62.2,0c-5.673-1.241-11.589,0.478-15.713,4.567c-47.16-15.286-84.14-52.246-99.451-99.398
			c4.086-4.121,5.799-10.035,4.547-15.702c-4.522-20.512-4.522-41.763,0-62.275c1.252-5.67-0.461-11.588-4.547-15.713
			c15.312-47.148,52.286-84.106,99.442-99.396c4.123,4.098,10.046,5.818,15.722,4.567c20.487-4.496,41.705-4.496,62.192,0
			c1.232,0.271,2.489,0.408,3.75,0.408c4.437-0.056,8.675-1.854,11.798-5.006c47.202,15.268,84.22,52.244,99.541,99.429
			c-4.086,4.121-5.798,10.035-4.547,15.702c4.522,20.512,4.522,41.763,0,62.275c-1.251,5.67,0.461,11.587,4.547,15.712
			C386.918,349.956,349.968,386.904,302.838,402.205z M311.253,23.489l-0.002,0.028L290.792,97.64
			c-22.895-5.155-46.656-5.095-69.525,0.175l-0.021-0.074l-0.056-0.201l-20.339-72.525c0.013-0.509-0.021-1.019-0.103-1.522
			C237.081,14.901,274.918,14.9,311.253,23.489L311.253,23.489z M186.606,36.431l15.89,57.538
			c-51.179,17.122-91.351,57.28-108.491,108.453l-57.554-15.838C59.142,115.115,115.137,59.121,186.606,36.431L186.606,36.431z
			 M23.372,200.696l0.053,0.027c0.065,0.017,0.129,0.01,0.194,0.025l74.04,20.442c-2.513,11.427-3.784,23.092-3.792,34.792
			c-0.019,11.717,1.312,23.396,3.967,34.808l-0.134,0.038c-0.103,0.024-0.205-0.007-0.307,0.021
			c-0.107,0.029-0.18,0.111-0.285,0.145l-72.124,20.145c-0.492-0.012-0.984,0.02-1.47,0.096
			c-4.293-18.104-6.456-36.647-6.446-55.252C17.071,237.374,19.186,218.827,23.372,200.696z M36.452,325.379l57.553-15.84
			c17.14,51.174,57.313,91.332,108.494,108.454l-15.891,57.538C115.137,452.841,59.143,396.848,36.452,325.379z M200.714,488.617
			l0.028-0.06c0.012-0.042-0.002-0.081,0.009-0.122l20.525-74.111c22.898,5.151,46.661,5.091,69.533-0.175l0.036,0.132
			c0.025,0.104-0.007,0.205,0.022,0.309c0.033,0.121,0.115,0.21,0.154,0.329l20.231,73.527l0.002,0.028
			C274.894,496.901,237.094,496.95,200.714,488.617z M325.398,475.53l-15.841-57.552c51.155-17.133,91.304-57.281,108.438-108.436
			l57.554,15.838C452.858,396.846,396.866,452.838,325.398,475.53L325.398,475.53z M488.628,311.267l-0.053-0.027
			c-0.044-0.013-0.087,0.002-0.132-0.009l-74.102-20.458c2.513-11.427,3.784-23.092,3.792-34.792
			c0.019-11.716-1.312-23.396-3.967-34.807c0.147-0.032,0.295-0.02,0.442-0.06c0.107-0.029,0.18-0.111,0.285-0.145l71.467-19.953
			c0.717-0.008,1.431-0.103,2.126-0.282c4.294,18.102,6.458,36.643,6.447,55.247C494.928,274.589,492.813,293.136,488.628,311.267z"
			/>
		<path style="fill:#428DFF;" d="M256.133,204.815h-0.025c-3.049,0.002-5.865,1.629-7.388,4.27
			c-1.523,2.641-1.521,5.894,0.004,8.533s4.344,4.265,7.392,4.263h0.017c4.706,0.006,8.519,3.819,8.525,8.525
			c0.007,4.709,3.825,8.523,8.533,8.525h0.009c4.712-0.008,8.526-3.83,8.525-8.542C281.697,216.27,270.253,204.833,256.133,204.815z
			"/>
		<path style="fill:#428DFF;" d="M153.609,238.948l17.067-0.017c4.713-0.002,8.531-3.825,8.529-8.538
			c-0.002-4.713-3.825-8.531-8.538-8.529h-0.009l-17.067,0.017c-4.713,0.002-8.531,3.825-8.529,8.538
			c0.002,4.713,3.825,8.531,8.538,8.529H153.609z"/>
		<path style="fill:#428DFF;" d="M156.958,203.498L173,209.323c0.936,0.334,1.923,0.506,2.917,0.508
			c4.146,0.003,7.695-2.974,8.412-7.057s-1.604-8.092-5.503-9.501l-16.033-5.825c-4.429-1.599-9.316,0.689-10.925,5.115
			S152.536,201.88,156.958,203.498z"/>
		<path style="fill:#428DFF;" d="M173.042,251.648l-16.033,5.858c-2.864,1.045-4.953,3.539-5.48,6.541
			c-0.527,3.003,0.588,6.059,2.925,8.017c2.337,1.958,5.541,2.52,8.405,1.475l16.033-5.858c2.864-1.045,4.953-3.539,5.48-6.541
			c0.527-3.003-0.588-6.059-2.925-8.017C179.11,251.165,175.906,250.603,173.042,251.648z"/>
		<path style="fill:#428DFF;" d="M358.4,221.848h-0.009l-17.067,0.017c-4.713,0.002-8.531,3.825-8.529,8.538
			c0.002,4.713,3.825,8.531,8.538,8.529h0.009l17.067-0.017c3.049-0.002,5.865-1.629,7.388-4.27
			c1.523-2.641,1.521-5.894-0.004-8.533C364.267,223.471,361.449,221.846,358.4,221.848z"/>
		<path style="fill:#428DFF;" d="M336.292,209.69c0.998,0,1.988-0.175,2.925-0.517l16.033-5.85
			c4.427-1.615,6.707-6.514,5.092-10.942c-1.615-4.427-6.514-6.707-10.942-5.092l-16.033,5.85c-3.89,1.419-6.2,5.425-5.479,9.502
			C328.608,206.718,332.151,209.69,336.292,209.69z"/>
		<path style="fill:#428DFF;" d="M355.292,257.323l-16.033-5.825c-4.429-1.599-9.316,0.689-10.925,5.115
			c-1.608,4.425,0.669,9.318,5.091,10.935l16.042,5.825c0.936,0.334,1.923,0.506,2.917,0.508c4.146,0.003,7.695-2.974,8.412-7.057
			C361.512,262.741,359.191,258.733,355.292,257.323z"/>
	</g>
</g>
<g>
</g>
<g>
</g>
<g>
</g>
<g>
</g>
<g>
</g>
<g>
</g>
<g>
</g>
<g>
</g>
<g>
</g>
<g>
</g>
<g>
</g>
<g>
</g>
<g>
</g>
<g>
</g>
<g>
</g>
</svg>
