<?xml version="1.0" encoding="iso-8859-1"?>
<!-- Generator: Adobe Illustrator 19.0.0, SVG Export Plug-In . SVG Version: 6.00 Build 0)  -->
<svg version="1.1" id="Capa_1" xmlns="http://www.w3.org/2000/svg" xmlns:xlink="http://www.w3.org/1999/xlink" x="0px" y="0px"
	 viewBox="0 0 512 512" style="enable-background:new 0 0 512 512;" xml:space="preserve">
<g>
	<g transform="translate(1 1)">
		<path style="fill:#A4C2F7;" d="M442.733,135.534V408.6H67.267V135.534c0.028-9.414,7.652-17.039,17.067-17.067h341.333
			C435.081,118.494,442.706,126.119,442.733,135.534z"/>
		
			<linearGradient id="SVGID_1_" gradientUnits="userSpaceOnUse" x1="-49.81" y1="651.5466" x2="-48.9097" y2="650.461" gradientTransform="matrix(349.8667 0 0 -290.1334 17511.5703 189146.4531)">
			<stop  offset="0" style="stop-color:#D3DFF2"/>
			<stop  offset="0.1717" style="stop-color:#D3DFF2"/>
			<stop  offset="0.2" style="stop-color:#D3DFF2"/>
			<stop  offset="0.2002" style="stop-color:#DAE2F2"/>
			<stop  offset="0.2007" style="stop-color:#EBEAF2"/>
			<stop  offset="0.2014" style="stop-color:#F6EFF2"/>
			<stop  offset="0.2023" style="stop-color:#FDF2F2"/>
			<stop  offset="0.205" style="stop-color:#FFF3F2"/>
			<stop  offset="0.2522" style="stop-color:#FFF3F2"/>
			<stop  offset="0.26" style="stop-color:#FFF3F2"/>
			<stop  offset="0.26" style="stop-color:#D3DFF2"/>
			<stop  offset="0.3974" style="stop-color:#D3DFF2"/>
			<stop  offset="0.42" style="stop-color:#D3DFF2"/>
			<stop  offset="0.4202" style="stop-color:#DAE2F2"/>
			<stop  offset="0.4207" style="stop-color:#EBEAF2"/>
			<stop  offset="0.4214" style="stop-color:#F6EFF2"/>
			<stop  offset="0.4223" style="stop-color:#FDF2F2"/>
			<stop  offset="0.425" style="stop-color:#FFF3F2"/>
			<stop  offset="0.4894" style="stop-color:#FFF3F2"/>
			<stop  offset="0.5" style="stop-color:#FFF3F2"/>
			<stop  offset="0.5" style="stop-color:#F8F0F2"/>
			<stop  offset="0.5001" style="stop-color:#E7E8F2"/>
			<stop  offset="0.5003" style="stop-color:#DCE3F2"/>
			<stop  offset="0.5005" style="stop-color:#D5E0F2"/>
			<stop  offset="0.501" style="stop-color:#D3DFF2"/>
			<stop  offset="0.7062" style="stop-color:#D3DFF2"/>
			<stop  offset="0.74" style="stop-color:#D3DFF2"/>
			<stop  offset="0.741" style="stop-color:#FFF3F2"/>
			<stop  offset="0.8346" style="stop-color:#FFF3F2"/>
			<stop  offset="0.85" style="stop-color:#FFF3F2"/>
			<stop  offset="0.851" style="stop-color:#D3DFF2"/>
		</linearGradient>
		<path style="fill:url(#SVGID_1_);" d="M417.133,135.534V408.6H67.267V135.534c0.028-9.414,7.652-17.039,17.067-17.067h315.733
			C409.481,118.494,417.106,126.119,417.133,135.534z"/>
		<polygon style="fill:#7FABFA;" points="502.467,468.334 502.467,485.4 7.533,485.4 7.533,468.334 67.267,391.534 442.733,391.534 
					"/>
		<polygon style="fill:#A4C2F7;" points="476.867,468.334 476.867,485.4 7.533,485.4 7.533,468.334 67.267,391.534 417.133,391.534 
					"/>
		<path style="fill:#7FABFA;" d="M502.467,468.334V485.4c-0.028,9.414-7.652,17.039-17.067,17.067H24.6
			c-9.414-0.028-17.039-7.652-17.067-17.067v-17.067H502.467z"/>
		<path style="fill:#A4C2F7;" d="M476.867,468.334V485.4c-0.028,9.414-7.653,17.039-17.067,17.067H24.6
			c-9.414-0.028-17.039-7.652-17.067-17.067v-17.067H476.867z"/>
		<path style="fill:#D4E1F4;" d="M360.217,83.395c-11.025-33.126-37.018-59.119-70.144-70.145c-22.76-7.622-47.384-7.622-70.144,0
			c-33.126,11.026-59.119,37.018-70.144,70.145c-3.824,11.296-5.755,23.146-5.718,35.072h51.201
			c0-32.99,26.744-59.733,59.734-59.733s59.734,26.744,59.734,59.733h51.201C365.972,106.541,364.04,94.691,360.217,83.395z"/>
		<g>
			<path style="fill:#E3E7F2;" d="M236.141,64.622c-17.866,5.92-31.883,19.937-37.803,37.803l-48.555-16.213
				c11.025-33.126,37.018-59.119,70.144-70.145L236.141,64.622z"/>
			<path style="fill:#E3E7F2;" d="M360.216,86.211l-22.613,7.595l-25.941,8.619c-5.92-17.866-19.936-31.883-37.803-37.803
				l13.568-40.619l2.645-7.935C323.198,27.092,349.191,53.085,360.216,86.211z"/>
		</g>
		<path style="fill:#A4C2F7;" d="M340.333,263.534L255,357.4l-12.8-14.08l-72.533-79.787h42.667v-102.4
			c0.014-4.707,3.826-8.52,8.533-8.533h68.267c4.707,0.014,8.52,3.826,8.533,8.533v102.4H340.333z"/>
		<path style="fill:#E3E7F2;" d="M314.733,263.534L242.2,343.32l-72.533-79.787h42.667v-102.4c0.014-4.707,3.826-8.52,8.533-8.533
			h42.667c4.707,0.014,8.52,3.826,8.533,8.533v102.4H314.733z"/>
		<g>
			<path style="fill:#A4C2F7;" d="M360.216,83.395c3.824,11.296,5.755,23.146,5.717,35.072h-25.6
				c0.011-8.296-0.905-16.568-2.731-24.661l22.613-7.595V83.395z"/>
			<path style="fill:#A4C2F7;" d="M360.216,86.211l-22.613,7.595c-0.853-3.499-1.792-6.997-2.987-10.411
				c-8.243-24.738-24.955-45.771-47.189-59.393l2.645-7.935C323.198,27.092,349.191,53.085,360.216,86.211z"/>
		</g>
		<g>
			<path style="fill:#FFFFFF;" d="M149.784,83.395c-3.824,11.296-5.755,23.146-5.718,35.072h25.601
				c-0.038-11.926,1.894-23.776,5.717-35.072c11.025-33.126,37.018-59.119,70.144-70.145c7.227-2.426,14.694-4.069,22.272-4.902
				c-4.248-0.516-8.521-0.788-12.8-0.815c-11.926-0.038-23.776,1.894-35.072,5.717C186.802,24.276,160.809,50.269,149.784,83.395z"
				/>
			<path style="fill:#FFFFFF;" d="M24.6,502.467h25.6c-9.414-0.028-17.039-7.652-17.067-17.067v-17.067l59.733-76.8v-256
				c0.027-9.414,7.652-17.039,17.067-17.067h-25.6c-9.414,0.027-17.039,7.652-17.067,17.067v256l-59.733,76.8V485.4
				C7.561,494.814,15.186,502.439,24.6,502.467z"/>
		</g>
	</g>
	<g>
		<polygon style="fill:#FFFFFF;" points="76.8,136.534 76.8,247.467 76.8,392.534 59.733,392.534 59.733,247.467 59.733,136.534 		
			"/>
		<g>
			<path style="fill:#428DFF;" d="M511.347,466.095c-0.059-0.144-0.16-0.257-0.227-0.397c-0.247-0.567-0.556-1.106-0.92-1.606
				l-57.933-74.485V136.534c-0.015-14.132-11.468-25.585-25.6-25.6h-51.632c-0.684-9.875-2.602-19.626-5.708-29.025
				c-0.022-0.073-0.003-0.145-0.027-0.217c-0.032-0.096-0.11-0.159-0.145-0.254c-11.969-35.362-39.728-63.13-75.086-75.11
				c-0.109-0.042-0.182-0.131-0.294-0.169c-0.084-0.028-0.168-0.006-0.252-0.031c-24.348-8.169-50.698-8.169-75.046,0
				c-0.084,0.025-0.168,0.003-0.252,0.031c-0.112,0.037-0.184,0.127-0.294,0.169c-35.344,11.976-63.095,39.728-75.071,75.072
				c-0.041,0.109-0.131,0.181-0.168,0.293c-0.028,0.083-0.006,0.167-0.031,0.25c-3.099,9.389-5.012,19.128-5.695,28.992H85.333
				c-14.132,0.015-25.585,11.468-25.6,25.6v34.133c0,4.713,3.821,8.533,8.533,8.533c4.713,0,8.533-3.821,8.533-8.533v-34.133
				c0.003-4.712,3.822-8.53,8.533-8.533h341.333c4.712,0.003,8.53,3.822,8.533,8.533V384H76.8V238.934
				c0-4.713-3.82-8.533-8.533-8.533c-4.713,0-8.533,3.821-8.533,8.533v150.673L1.8,464.092c-0.366,0.502-0.675,1.042-0.923,1.611
				c-0.066,0.139-0.165,0.249-0.223,0.391c-0.367,0.93-0.566,1.918-0.589,2.918C0.061,469.125,0,469.219,0,469.334V486.4
				c0.015,14.132,11.468,25.585,25.6,25.6h460.8c14.132-0.015,25.585-11.468,25.6-25.6v-17.067c0-0.115-0.06-0.208-0.065-0.322
				C511.913,468.012,511.714,467.025,511.347,466.095z M256,68.267c24.958,0.042,46.254,18.061,50.429,42.667H205.571
				C209.746,86.328,231.042,68.309,256,68.267z M322.944,106.167l32.462-10.844c1.258,5.129,2.115,10.348,2.562,15.61h-34.294
				C323.473,109.331,323.255,107.734,322.944,106.167z M350.084,79.114l-32.598,10.889c-6.741-13.991-18.03-25.281-32.022-32.021
				l10.887-32.6C320.458,35.786,339.679,55.007,350.084,79.114L350.084,79.114z M280.141,20.061L269.3,52.523
				c-8.779-1.764-17.821-1.764-26.6,0l-10.841-32.462C247.706,16.069,264.295,16.069,280.141,20.061L280.141,20.061z
				 M215.649,25.381l10.887,32.6c-13.992,6.74-25.282,18.029-32.022,32.021l-32.599-10.886
				C172.319,55.008,191.541,35.786,215.649,25.381L215.649,25.381z M156.593,95.325l32.463,10.842
				c-0.311,1.567-0.528,3.165-0.73,4.767h-34.294C154.479,105.672,155.336,100.454,156.593,95.325z M72.442,401.067h367.117
				l46.458,59.733H25.983L72.442,401.067z M494.933,486.4c-0.003,4.712-3.822,8.53-8.533,8.533H25.6
				c-4.712-0.003-8.53-3.822-8.533-8.533v-8.533h477.867V486.4z"/>
			<path style="fill:#428DFF;" d="M392.533,426.667H119.467c-4.713,0-8.533,3.82-8.533,8.533s3.821,8.533,8.533,8.533h273.067
				c4.713,0,8.533-3.82,8.533-8.533S397.246,426.667,392.533,426.667z"/>
			<path style="fill:#428DFF;" d="M85.333,426.667H76.8c-4.713,0-8.533,3.82-8.533,8.533s3.821,8.533,8.533,8.533h8.533
				c4.713,0,8.533-3.82,8.533-8.533S90.046,426.667,85.333,426.667z"/>
			<path style="fill:#428DFF;" d="M435.2,426.667h-8.533c-4.713,0-8.533,3.82-8.533,8.533s3.82,8.533,8.533,8.533h8.533
				c4.713,0,8.533-3.82,8.533-8.533S439.913,426.667,435.2,426.667z"/>
			<path style="fill:#428DFF;" d="M68.267,213.334c3.45-0.014,6.556-2.096,7.879-5.282c1.323-3.187,0.606-6.856-1.82-9.31
				l-1.279-1.025c-0.476-0.324-0.993-0.583-1.538-0.771c-0.484-0.246-1.003-0.417-1.538-0.508c-0.563-0.096-1.133-0.153-1.704-0.171
				c-2.259,0.031-4.423,0.915-6.059,2.475c-2.07,1.994-2.979,4.908-2.409,7.726c0.57,2.818,2.539,5.149,5.222,6.183
				C66.047,213.088,67.15,213.32,68.267,213.334z"/>
			<path style="fill:#428DFF;" d="M290.133,145.067h-68.267c-9.421,0.012-17.054,7.646-17.067,17.067V256h-34.133
				c-3.376,0.003-6.434,1.996-7.8,5.084c-1.366,3.088-0.785,6.69,1.483,9.191l85.333,93.867c1.619,1.778,3.912,2.792,6.317,2.792
				s4.698-1.014,6.317-2.792l85.333-93.867c2.268-2.501,2.85-6.104,1.483-9.191c-1.366-3.088-4.424-5.08-7.8-5.084H307.2v-93.867
				C307.188,152.713,299.554,145.079,290.133,145.067z M322.042,273.067L256,345.717l-66.042-72.65h23.375
				c2.264,0.001,4.435-0.897,6.035-2.498s2.499-3.772,2.498-6.035v-102.4h68.267v102.4c-0.001,2.264,0.897,4.435,2.498,6.035
				c1.601,1.601,3.772,2.499,6.035,2.498H322.042z"/>
		</g>
	</g>
</g>
<g>
</g>
<g>
</g>
<g>
</g>
<g>
</g>
<g>
</g>
<g>
</g>
<g>
</g>
<g>
</g>
<g>
</g>
<g>
</g>
<g>
</g>
<g>
</g>
<g>
</g>
<g>
</g>
<g>
</g>
</svg>
