<?xml version="1.0" encoding="iso-8859-1"?>
<!-- Generator: Adobe Illustrator 19.0.0, SVG Export Plug-In . SVG Version: 6.00 Build 0)  -->
<svg version="1.1" id="Capa_1" xmlns="http://www.w3.org/2000/svg" xmlns:xlink="http://www.w3.org/1999/xlink" x="0px" y="0px"
	 viewBox="0 0 512 512" style="enable-background:new 0 0 512 512;" xml:space="preserve">
<g>
	<g transform="translate(1 1)">
		<path style="fill:#E3E7F2;" d="M501.101,281.11c1.82-17.361,1.82-34.864,0-52.225l-55.893-22.356
			c-4.64-18.156-11.883-35.546-21.504-51.627l23.808-55.467c-5.461-6.741-11.349-13.227-17.493-19.456
			c-6.229-6.144-12.715-12.032-19.456-17.494l-55.467,23.808c-16.081-9.621-33.471-16.864-51.627-21.504L281.112,8.896
			c-17.36-1.819-34.864-1.819-52.224,0L206.53,64.79c-18.156,4.64-35.545,11.883-51.627,21.504L99.437,62.486
			c-6.741,5.461-13.227,11.349-19.456,17.493c-6.144,6.229-12.032,12.715-17.493,19.456l23.808,55.467
			c-9.621,16.081-16.864,33.471-21.504,51.627L8.898,228.885c-1.82,17.361-1.82,34.864,0,52.225l55.893,22.356
			c4.64,18.156,11.883,35.545,21.504,51.627L62.488,410.56c5.461,6.741,11.349,13.227,17.493,19.456
			c6.229,6.144,12.715,12.031,19.456,17.493l55.467-23.808c16.081,9.621,33.471,16.864,51.627,21.504l22.357,55.894
			c17.36,1.821,34.864,1.821,52.224,0l22.357-55.893c18.156-4.64,35.545-11.883,51.627-21.504l55.467,23.808
			c6.741-5.463,13.227-11.35,19.456-17.493c6.144-6.229,12.032-12.715,17.493-19.456l-23.808-55.467
			c9.621-16.081,16.864-33.47,21.504-51.627L501.101,281.11z M255,408.598c-84.831,0-153.6-68.769-153.6-153.6
			s68.769-153.6,153.6-153.6s153.6,68.769,153.6,153.6C408.593,339.826,339.828,408.591,255,408.598z"/>
		<path style="fill:#A4C2F7;" d="M445.208,303.467c-4.64,18.156-11.883,35.545-21.504,51.627l23.808,55.467
			c-5.461,6.741-11.349,13.227-17.493,19.456c-6.229,6.144-12.715,12.031-19.456,17.493l-17.067-7.34
			c3.755-3.242,7.339-6.656,10.923-10.154c6.144-6.229,12.032-12.715,17.493-19.456l-23.808-55.467
			c9.621-16.081,16.864-33.47,21.504-51.627l55.893-22.356c1.82-17.361,1.82-34.864,0-52.225l-55.893-22.356
			c-4.64-18.156-11.883-35.546-21.504-51.627l23.808-55.467c-5.461-6.741-11.349-13.227-17.493-19.456
			c-3.584-3.499-7.168-6.913-10.923-10.154l17.067-7.34c6.741,5.462,13.227,11.35,19.456,17.494
			c6.144,6.229,12.032,12.715,17.493,19.456l-23.808,55.467c9.621,16.081,16.864,33.471,21.504,51.627l55.893,22.356
			c1.82,17.361,1.82,34.864,0,52.225L445.208,303.467z"/>
	</g>
	<path style="fill:#FFFFFF;" d="M65.792,304.467c4.64,18.156,11.883,35.545,21.504,51.627L63.488,411.56
		c5.461,6.741,11.349,13.227,17.493,19.456c6.229,6.144,12.715,12.031,19.456,17.493l17.05-7.319
		c-3.711-3.299-7.361-6.679-10.906-10.175c-6.144-6.229-12.032-12.715-17.493-19.456l23.808-55.467
		c-9.621-16.081-16.864-33.47-21.504-51.627l-55.893-22.356c-1.82-17.361-1.82-34.864,0-52.225l55.893-22.356
		c4.64-18.156,11.883-35.546,21.504-51.627l-23.808-55.467c5.461-6.741,11.349-13.227,17.493-19.456
		c3.545-3.496,7.195-6.877,10.906-10.175l-17.05-7.319c-6.741,5.462-13.227,11.35-19.456,17.494
		c-6.144,6.229-12.032,12.715-17.493,19.456l23.808,55.467c-9.621,16.081-16.864,33.471-21.504,51.627L9.898,229.885
		c-1.82,17.361-1.82,34.864,0,52.225L65.792,304.467z"/>
	<g>
		<path style="fill:#428DFF;" d="M256,93.865c-89.544,0-162.133,72.59-162.133,162.133S166.456,418.131,256,418.131
			s162.133-72.59,162.133-162.133C418.031,166.496,345.501,93.966,256,93.865z M256,401.065
			c-80.118,0-145.067-64.949-145.067-145.067S175.882,110.931,256,110.931s145.067,64.949,145.067,145.067
			C400.977,336.079,336.081,400.975,256,401.065z"/>
		<path style="fill:#428DFF;" d="M256.075,145.065c-60.786-0.337-110.376,48.59-110.858,109.375v3.117
			c0.482,60.785,50.072,109.712,110.858,109.375H307.2c4.713,0,8.533-3.82,8.533-8.533s-3.82-8.533-8.533-8.533h-51.125
			c-51.365,0.348-93.321-40.944-93.792-92.308v-3.117c0.817-51.216,42.569-92.307,93.792-92.307s92.974,41.09,93.792,92.307v24.358
			c-0.162,14.793-12.265,26.664-27.058,26.542c-13.195,0.114-23.993-10.472-24.142-23.667v-76.875
			c0.001-2.264-0.897-4.435-2.498-6.035c-1.601-1.601-3.772-2.499-6.035-2.498h-40.958c-29.029-0.142-52.697,23.238-52.908,52.267
			v38.05c0.146,20.921,17.196,37.777,38.117,37.683h33.567c10.351,0.015,20.017-5.173,25.725-13.808
			c7.753,7.673,18.225,11.969,29.133,11.95c24.215,0.114,43.954-19.393,44.125-43.608V254.44
			C366.451,193.655,316.861,144.728,256.075,145.065z M281.6,282.715v11.15c-0.098,7.447-6.203,13.41-13.65,13.333h-33.567
			c-11.5,0.105-20.916-9.117-21.05-20.617v-38.05c0.2-19.608,16.233-35.354,35.842-35.2H281.6v68.342c0,0.242,0,0.475,0.009,0.717
			C281.6,282.498,281.6,282.606,281.6,282.715z"/>
		<path style="fill:#428DFF;" d="M505.266,221.956l-51.917-20.758c-4.462-16.022-10.883-31.433-19.117-45.884l22.117-51.517
			c1.251-2.914,0.782-6.28-1.217-8.742c-5.4-6.667-11.475-13.417-18.116-20.142c-6.642-6.558-13.392-12.633-20.075-18.058
			c-2.457-2.008-5.829-2.477-8.742-1.217l-51.517,22.125c-14.451-8.234-29.862-14.655-45.884-19.117L290.033,6.731
			c-1.172-2.929-3.863-4.974-6.999-5.317c-17.973-1.883-36.094-1.883-54.067,0c-3.136,0.343-5.828,2.387-7,5.316L201.2,58.648
			c-16.022,4.462-31.433,10.883-45.884,19.117L103.8,55.64c-2.912-1.259-6.284-0.79-8.742,1.217
			c-6.683,5.425-13.433,11.5-20.142,18.125c-6.575,6.658-12.65,13.408-18.05,20.075c-1.999,2.461-2.467,5.828-1.217,8.742
			l22.117,51.517c-8.234,14.451-14.655,29.862-19.117,45.884L6.733,221.956c-2.929,1.172-4.974,3.864-5.316,7
			c-1.889,17.978-1.889,36.105,0,54.083c0.343,3.136,2.387,5.828,5.316,7l51.917,20.758c4.462,16.022,10.883,31.433,19.117,45.884
			L55.65,408.199c-1.251,2.914-0.782,6.28,1.217,8.742c5.4,6.667,11.475,13.417,18.117,20.142
			c6.642,6.558,13.392,12.633,20.075,18.058c2.459,2.003,5.829,2.472,8.742,1.217l51.517-22.125
			c14.451,8.234,29.862,14.655,45.884,19.117l20.767,51.917c1.172,2.929,3.864,4.974,7,5.316c17.973,1.889,36.094,1.889,54.067,0
			c3.136-0.343,5.828-2.387,7-5.316l20.767-51.917c16.022-4.462,31.433-10.883,45.884-19.117l51.517,22.125
			c2.913,1.256,6.283,0.787,8.742-1.217c6.683-5.425,13.433-11.5,20.142-18.125c6.575-6.658,12.65-13.408,18.05-20.075
			c1.999-2.461,2.467-5.828,1.217-8.742l-22.117-51.517c8.234-14.451,14.655-29.862,19.117-45.884l51.917-20.758
			c2.929-1.172,4.974-3.864,5.316-7c1.889-17.978,1.889-36.105,0-54.083C510.241,225.82,508.196,223.128,505.266,221.956z
			 M494.108,276.123l-51.066,20.417c-2.533,1.011-4.428,3.174-5.1,5.817c-4.437,17.362-11.364,33.99-20.567,49.367
			c-1.4,2.35-1.592,5.227-0.517,7.742l21.75,50.667c-4.2,4.95-8.767,9.933-13.592,14.817c-4.933,4.867-9.925,9.45-14.883,13.667
			l-50.667-21.758c-2.516-1.07-5.391-0.879-7.742,0.517c-15.377,9.202-32.005,16.13-49.367,20.567
			c-2.643,0.672-4.805,2.567-5.817,5.1l-20.425,51.067c-13.389,1.1-26.845,1.1-40.233,0l-20.426-51.066
			c-1.011-2.533-3.174-4.428-5.817-5.1c-17.362-4.437-33.99-11.364-49.367-20.567c-2.351-1.395-5.226-1.587-7.742-0.517
			l-50.667,21.758c-4.958-4.208-9.933-8.783-14.817-13.6c-4.875-4.942-9.458-9.925-13.658-14.883l21.75-50.667
			c1.075-2.515,0.883-5.392-0.517-7.742c-9.202-15.377-16.13-32.005-20.567-49.367c-0.672-2.643-2.567-4.805-5.1-5.817
			l-51.066-20.417c-0.55-6.483-0.825-13.225-0.825-20.125c0-6.9,0.275-13.642,0.825-20.125l51.067-20.417
			c2.533-1.011,4.428-3.174,5.1-5.817c4.437-17.362,11.364-33.99,20.567-49.367c1.4-2.35,1.592-5.227,0.517-7.742l-21.75-50.667
			c4.2-4.95,8.767-9.933,13.592-14.817c4.933-4.867,9.925-9.45,14.883-13.667l50.667,21.758c2.516,1.07,5.391,0.879,7.742-0.517
			c15.377-9.202,32.005-16.13,49.367-20.567c2.643-0.672,4.805-2.567,5.817-5.1l20.425-51.067c13.389-1.1,26.845-1.1,40.233,0
			l20.425,51.067c1.011,2.533,3.174,4.428,5.817,5.1c17.362,4.437,33.99,11.364,49.367,20.567c2.351,1.395,5.226,1.587,7.742,0.517
			l50.667-21.758c4.958,4.208,9.933,8.783,14.817,13.6c4.875,4.942,9.458,9.925,13.658,14.883l-21.75,50.667
			c-1.075,2.515-0.883,5.392,0.517,7.742c9.202,15.377,16.13,32.005,20.567,49.367c0.672,2.643,2.567,4.805,5.1,5.817l51.067,20.417
			c0.55,6.483,0.825,13.225,0.825,20.125C494.933,262.898,494.658,269.64,494.108,276.123z"/>
	</g>
</g>
<g>
</g>
<g>
</g>
<g>
</g>
<g>
</g>
<g>
</g>
<g>
</g>
<g>
</g>
<g>
</g>
<g>
</g>
<g>
</g>
<g>
</g>
<g>
</g>
<g>
</g>
<g>
</g>
<g>
</g>
</svg>
