<?xml version="1.0" encoding="iso-8859-1"?>
<!-- Generator: Adobe Illustrator 19.0.0, SVG Export Plug-In . SVG Version: 6.00 Build 0)  -->
<svg version="1.1" id="Capa_1" xmlns="http://www.w3.org/2000/svg" xmlns:xlink="http://www.w3.org/1999/xlink" x="0px" y="0px"
	 viewBox="0 0 512 512" style="enable-background:new 0 0 512 512;" xml:space="preserve">
<g>
	<g transform="translate(1 5)">
		<g>
			<rect x="161.134" y="88.867" style="fill:#A4C2F7;" width="179.2" height="51.2"/>
			<path style="fill:#A4C2F7;" d="M357.4,278.734l0,14.933H144.067l0-15.957c-0.039-14.361,7.7-27.617,20.224-34.645l43.264-23.979
				c5.749-3.16,9.292-9.228,9.216-15.788V191.95c-0.01-1.04-0.338-2.052-0.939-2.901c-0.939-1.28-2.645-3.413-4.779-6.315
				c-4.005-5.362-7.517-11.074-10.496-17.067c-2.32-4.703-4.095-9.656-5.291-14.763v-68.95c0,0-3.157-37.631,42.667-43.519
				c4.246-0.531,8.521-0.788,12.8-0.768c59.136,0,55.467,44.287,55.467,44.287v68.95c-4.104,14.016-11.11,27.013-20.565,38.144
				c-0.601,0.849-0.929,1.861-0.939,2.901v11.861c-0.066,6.737,3.662,12.939,9.643,16.043l41.557,23.467
				C349.134,250.162,357.436,263.832,357.4,278.734z"/>
		</g>
		<path style="fill:#E3E7F2;" d="M331.8,278.734l0,14.933H144.067l0-15.957c-0.039-14.361,7.7-27.617,20.224-34.645l43.264-23.979
			c5.749-3.16,9.292-9.228,9.216-15.788V191.95c-0.01-1.04-0.338-2.052-0.939-2.901c-0.939-1.28-2.645-3.413-4.779-6.315
			c-4.005-5.362-7.517-11.074-10.496-17.067c-2.32-4.703-4.095-9.656-5.291-14.763v-68.95c0,0-3.157-37.631,42.667-43.519
			c45.824,5.889,42.667,43.52,42.667,43.52v68.949c-4.104,14.016-11.111,27.013-20.565,38.144c-0.601,0.849-0.929,1.861-0.939,2.901
			v11.861c-0.066,6.737,3.662,12.939,9.643,16.043l41.557,23.467C323.535,250.162,331.836,263.832,331.8,278.734z"/>
		<path style="fill:#A4C2F7;" d="M219.672,493.346l0,5.121H7.533l0-6.059c-0.059-14.366,7.641-27.645,20.139-34.731l44.8-20.821
			c2.058-1.317,4.025-2.771,5.888-4.352c0.927-0.749,1.462-1.881,1.451-3.073c0.025-1.064-0.375-2.095-1.112-2.864
			c-0.737-0.769-1.749-1.212-2.814-1.232H37.571c-2.043,0.211-4.101,0.211-6.144,0c-4.244-0.258-8.366-1.515-12.032-3.668
			c-4.937-3.232-6.443-9.784-3.413-14.848c16.441-29.25,26.776-61.531,30.379-94.891c0.45-10.617,2.761-21.073,6.827-30.891
			c6.515-19.225,22.829-33.488,42.752-37.376c4.224-0.768,8.507-1.167,12.8-1.195c59.648,0.513,62.72,64,62.72,64
			c0.768,40.107,22.272,82.773,33.536,99.243c1.872,2.673,2.459,6.04,1.602,9.19c-0.857,3.149-3.07,5.754-6.039,7.109
			c-7.773,2.847-16.068,3.981-24.32,3.327h-34.475c-1.484,0.196-2.784,1.093-3.494,2.412c-0.71,1.318-0.743,2.897-0.09,4.244
			c1.364,3.38,3.79,6.225,6.912,8.107l53.163,17.921c6.48,3.291,11.894,8.35,15.616,14.592
			C217.696,478.848,219.705,486.029,219.672,493.346z"/>
		<path style="fill:#E3E7F2;" d="M194.072,493.346l0,5.121H7.533l0-6.059c-0.059-14.366,7.641-27.645,20.139-34.731l44.8-20.821
			c2.058-1.317,4.025-2.771,5.888-4.352c0.927-0.749,1.462-1.881,1.451-3.073c0.025-1.064-0.375-2.095-1.112-2.864
			c-0.737-0.769-1.749-1.212-2.814-1.232H31.427c-4.244-0.258-8.366-1.515-12.032-3.668c-4.937-3.232-6.443-9.784-3.413-14.848
			c16.441-29.25,26.776-61.531,30.379-94.891c0.45-10.617,2.761-21.073,6.827-30.891c6.515-19.225,22.829-33.488,42.752-37.376
			c47.275,8.703,49.92,62.805,49.92,62.805c0.768,40.107,22.272,82.773,33.536,99.243c1.872,2.673,2.459,6.04,1.602,9.19
			c-0.857,3.149-3.07,5.754-6.039,7.109c-4.732,1.919-9.749,3.044-14.848,3.327h-0.512c-2.726,0.224-5.466,0.224-8.192,0h-34.731
			c-2.537,0.019-4.589,2.071-4.608,4.608c0.007,0.713,0.183,1.415,0.512,2.048c1.364,3.38,3.79,6.225,6.912,8.107l53.163,17.921
			c6.48,3.291,11.894,8.35,15.616,14.592C192.096,478.848,194.105,486.029,194.072,493.346z"/>
		<path style="fill:#A4C2F7;" d="M502.467,482.51v7.424c-0.014,4.707-3.826,8.52-8.533,8.533H297.667
			c-4.707-0.014-8.52-3.826-8.533-8.533v-7.424c-0.039-14.361,7.7-27.617,20.224-34.645l43.264-23.979
			c5.749-3.16,9.292-9.228,9.216-15.788V396.75c-0.01-1.04-0.338-2.052-0.939-2.901c-9.455-11.131-16.461-24.128-20.565-38.144
			v-68.95c0,0-3.157-37.631,42.667-43.52c4.246-0.531,8.521-0.788,12.8-0.767c59.136,0,55.467,44.288,55.467,44.288v68.95
			c-4.104,14.016-11.111,27.013-20.565,38.144c-0.601,0.849-0.929,1.861-0.939,2.901v11.349c-0.075,6.559,3.467,12.627,9.216,15.787
			l43.264,23.979C494.767,454.892,502.506,468.149,502.467,482.51z"/>
		<path style="fill:#E3E7F2;" d="M476.867,482.51v7.424c-0.014,4.707-3.826,8.52-8.533,8.533H297.667
			c-4.707-0.014-8.52-3.826-8.533-8.533v-7.424c-0.039-14.361,7.7-27.617,20.224-34.645l43.264-23.979
			c5.749-3.16,9.292-9.228,9.216-15.788V396.75c-0.01-1.04-0.338-2.052-0.939-2.901c-9.455-11.131-16.461-24.128-20.565-38.144
			v-68.95c0,0-3.157-37.631,42.667-43.52c45.824,5.889,42.667,43.52,42.667,43.52v68.95c-4.104,14.016-11.111,27.013-20.565,38.144
			c-0.601,0.849-0.929,1.861-0.939,2.901v11.349c-0.075,6.559,3.467,12.627,9.216,15.787l43.264,23.979
			C469.167,454.892,476.906,468.149,476.867,482.51z"/>
		<g>
			<path style="fill:#FFFFFF;" d="M121.539,243.662l0.024-0.003c-8.468-1.59-17.157-1.589-25.624,0.003
				c-19.923,3.888-36.237,18.151-42.752,37.376c-4.066,9.818-6.376,20.274-6.827,30.891c-3.603,33.36-13.938,65.641-30.379,94.891
				c-3.03,5.064-1.523,11.616,3.413,14.848c3.666,2.154,7.788,3.411,12.032,3.669c2.043,0.211,4.101,0.211,6.144,0h19.456
				c-4.244-0.258-8.366-1.515-12.032-3.669c-4.937-3.232-6.443-9.784-3.413-14.848c16.441-29.25,26.776-61.531,30.379-94.891
				c0.45-10.617,2.761-21.073,6.827-30.891C85.302,261.812,101.616,247.55,121.539,243.662z"/>
			<rect x="195.267" y="88.867" style="fill:#FFFFFF;" width="25.6" height="51.2"/>
			<path style="fill:#FFFFFF;" d="M250.734,37.667c-4.279-0.02-8.554,0.237-12.8,0.768c-45.824,5.889-42.667,43.52-42.667,43.52
				v6.912h25.6v-6.913c0,0-3.12-37.427,42.342-43.46C259.072,37.952,254.905,37.676,250.734,37.667z"/>
			<rect x="340.419" y="293.667" style="fill:#FFFFFF;" width="25.6" height="51.2"/>
			<path style="fill:#FFFFFF;" d="M395.847,242.467c-4.279-0.02-8.554,0.237-12.8,0.768c-45.824,5.889-42.667,43.52-42.667,43.52
				v6.912h25.6v-6.913c0,0-3.12-37.427,42.342-43.46C404.185,242.752,400.018,242.476,395.847,242.467z"/>
			<path style="fill:#FFFFFF;" d="M242.371,203.298V191.95c-0.01-1.04-0.338-2.052-0.939-2.901c-0.939-1.28-2.645-3.413-4.779-6.315
				c-4.005-5.362-7.517-11.074-10.496-17.067c-2.32-4.703-4.095-9.656-5.291-14.763v-10.837h-25.6v10.837
				c1.196,5.106,2.971,10.059,5.291,14.763c2.979,5.993,6.491,11.705,10.496,17.067c2.133,2.901,3.84,5.035,4.779,6.315
				c0.601,0.849,0.929,1.861,0.939,2.901v11.349c0.075,6.559-3.467,12.627-9.216,15.787l-43.264,23.979
				c-2.027,1.124-18.46,6.495-20.224,7.935c6.565,2.644,12.548,21.409,17.067,25.6c7.186-9.782,15.818-18.414,25.6-25.6
				l46.421-31.915C238.904,215.926,242.446,209.858,242.371,203.298z"/>
			<path style="fill:#FFFFFF;" d="M387.438,408.098V396.75c-0.01-1.04-0.338-2.052-0.939-2.901c-0.939-1.28-2.645-3.413-4.779-6.315
				c-4.005-5.362-7.517-11.074-10.496-17.067c-2.32-4.703-4.095-9.656-5.29-14.763v-10.837h-25.6v10.837
				c1.196,5.106,2.971,10.059,5.291,14.763c2.979,5.993,6.491,11.705,10.496,17.067c2.133,2.901,3.84,5.035,4.779,6.315
				c0.601,0.849,0.929,1.861,0.939,2.901v11.349c0.075,6.559-3.467,12.627-9.216,15.787L297.667,455.8
				c-2.027,1.124-6.77,41.226-8.533,42.667c6.565,2.644,12.548-4.191,17.067,0c3.495-5.935,0-34.133,25.6-42.667l46.421-31.915
				C383.971,420.726,387.513,414.658,387.438,408.098z"/>
			<path style="fill:#FFFFFF;" d="M183.109,425.44c0.677-0.023,1.353-0.056,2.094-0.104h-0.005
				C184.464,425.386,183.783,425.413,183.109,425.44z"/>
			<path style="fill:#FFFFFF;" d="M176.579,425.336h-0.341c0,0,1.297,0.102,3.267,0.141c-1.05-0.024-1.944-0.072-2.499-0.141
				H176.579z"/>
			<path style="fill:#FFFFFF;" d="M180.612,425.491c0.405,0.001,0.822-0.007,1.27-0.016
				C181.442,425.485,181.012,425.492,180.612,425.491z"/>
			<path style="fill:#FFFFFF;" d="M33.134,492.408c-0.059-14.366,7.641-27.645,20.139-34.731l44.8-20.821
				c2.058-1.317,4.025-2.771,5.888-4.352c0.927-0.749,1.462-1.881,1.451-3.073c0.025-1.064-0.375-2.095-1.112-2.864
				c-0.737-0.769-1.749-1.212-2.814-1.232h-25.6c1.065,0.02,2.077,0.464,2.814,1.232c0.737,0.769,1.137,1.799,1.112,2.864
				c0.011,1.192-0.523,2.324-1.451,3.073c-1.863,1.581-3.83,3.035-5.888,4.352l-44.8,20.821
				c-12.497,7.085-20.197,20.365-20.139,34.731l0,6.059h25.6V492.408z"/>
		</g>
	</g>
	<g>
		<polygon style="fill:#FFFFFF;" points="8.534,494.934 119.467,494.934 220.647,494.934 220.647,512 119.467,512 8.534,512 		"/>
		<g>
			<path style="fill:#428DFF;" d="M82.859,509.526c0.77-0.815,1.379-1.77,1.792-2.813c0.438-1.027,0.67-2.13,0.683-3.246
				c-0.014-3.45-2.096-6.556-5.282-7.879c-3.187-1.323-6.856-0.606-9.31,1.82l-1.025,1.279c-0.324,0.476-0.583,0.993-0.771,1.538
				c-0.246,0.484-0.417,1.002-0.508,1.537c-0.096,0.564-0.153,1.133-0.171,1.705c0.031,2.259,0.915,4.423,2.475,6.059
				C74.138,512.747,79.462,512.747,82.859,509.526L82.859,509.526z"/>
			<path style="fill:#428DFF;" d="M487.375,445.4l-43.366-24.033c-2.972-1.678-4.781-4.854-4.708-8.267v-10.133l0.333-0.442
				c9.75-11.67,16.896-25.287,20.958-39.942c0.14-0.618,0.21-1.25,0.208-1.883l-0.025-68.242
				c0.519-12.938-4.021-25.57-12.658-35.217c-11.183-12.15-28.45-18.308-51.317-18.308c-15.046-0.697-29.952,3.153-42.779,11.048
				c-3.384-3.725-7.335-6.891-11.708-9.381l-43.366-24.033c-2.973-1.678-4.785-4.853-4.717-8.267v-10.133l0.358-0.467
				c9.741-11.663,16.878-25.272,20.933-39.917c0.141-0.618,0.212-1.25,0.212-1.883l-0.001-2.3H332.8
				c9.421-0.011,17.056-7.645,17.067-17.067V93.867C349.808,42.05,307.817,0.059,256,0h-8.533
				C195.65,0.059,153.659,42.05,153.6,93.867v68.267c0.015,14.132,11.468,25.585,25.6,25.6h22.424
				c2.834,4.231,5.474,7.669,7.255,9.967l0.358,10.6c0.061,3.452-1.795,6.654-4.821,8.317l-43.35,24.033
				c-4.503,2.599-8.564,5.897-12.032,9.771c-11.654-7.707-25.365-11.711-39.335-11.487c-39.683,0.333-55.15,25.083-63.333,43.667
				c-4.463,10.722-7.001,22.147-7.496,33.75c-3.55,32.011-13.488,62.983-29.225,91.083c-5.468,9.075-2.661,20.858,6.313,26.492
				c7.006,3.965,15.055,5.694,23.071,4.958h20.642l-35.138,16.358C9.326,463.8-0.061,479.917,0,497.367v6.1
				c-0.001,2.263,0.898,4.434,2.499,6.035c1.6,1.6,3.771,2.499,6.035,2.499h34.133c4.713,0,8.533-3.82,8.533-8.533
				c0-4.713-3.821-8.533-8.533-8.533h-25.44c0.652-10.156,6.29-19.33,15.056-24.5l45.296-21.083c2.5-1.535,4.876-3.263,7.108-5.167
				c4.143-3.333,5.74-8.912,3.99-13.933c-1.75-5.021-6.469-8.398-11.786-8.434H38.571c-0.363,0.001-0.727,0.024-1.087,0.067
				c-4.367,0.395-8.754-0.482-12.633-2.525c-0.974-0.775-1.204-2.16-0.533-3.209c17.152-30.398,27.901-63.984,31.588-98.691
				c0.373-9.609,2.431-19.078,6.079-27.975c7.596-17.25,18.646-33.242,47.717-33.483c50.687,0.425,54.1,53.633,54.208,55.625
				c0.754,39.908,21.404,84,35.096,103.892c0.434,0.65,0.557,1.459,0.337,2.208c-0.16,0.641-0.599,1.176-1.196,1.458
				c-6.695,2.351-13.818,3.23-20.883,2.575h-33.971c-4.524-0.007-8.727,2.334-11.104,6.183c-2.439,3.866-2.699,8.72-0.687,12.825
				c2.23,5.002,5.978,9.174,10.713,11.925c0.379,0.193,0.772,0.357,1.175,0.492l52.525,17.708
				c8.991,4.859,14.978,13.87,15.974,24.042H110.934c-4.713,0-8.533,3.821-8.533,8.533c0,4.713,3.821,8.533,8.533,8.533h109.714
				c2.263,0,4.433-0.899,6.033-2.499c1.6-1.6,2.499-3.771,2.498-6.034v-5.133c0.123-18.072-9.943-34.672-26.025-42.917
				c-0.374-0.189-0.761-0.351-1.158-0.483l-47.825-16.125l22.258-0.025c9.705,0.884,19.484-0.476,28.579-3.975
				c5.261-2.321,9.206-6.877,10.75-12.417c1.623-5.642,0.636-11.714-2.692-16.55c-8.667-12.591-31.333-54.125-32.1-94.783
				c-0.059-1.222-0.186-2.536-0.321-3.858H332.8v53.5c0,0.634,0.071,1.266,0.212,1.883c4.055,14.645,11.192,28.254,20.933,39.917
				l0.358,10.6c0.061,3.452-1.795,6.654-4.821,8.317L306.221,445.4c-15.245,8.523-24.67,24.642-24.621,42.108v7.425
				c0.011,9.421,7.645,17.056,17.067,17.067h196.267c9.421-0.012,17.054-7.646,17.067-17.067v-7.425
				C512.05,470.042,502.623,453.922,487.375,445.4z M332.8,136.534h-17.067V102.4H332.8V136.534z M247.467,17.067H256
				c39.087,0.055,71.913,29.426,76.297,68.267h-16.546c-0.05-12.148-4.57-23.853-12.696-32.883
				c-11.187-12.158-28.454-18.317-51.321-18.317S211.6,40.292,200.413,52.45c-8.134,9.027-12.661,20.732-12.717,32.883H171.17
				C175.554,46.493,208.38,17.122,247.467,17.067z M170.667,102.4h17.067v34.133h-17.067V102.4z M179.2,170.667
				c-4.711-0.005-8.529-3.822-8.533-8.533V153.6h17.067v2.3c0,0.634,0.071,1.266,0.212,1.883c1.023,4.415,2.447,8.727,4.255,12.883
				H179.2z M161.775,261.909c2.198-2.517,4.781-4.669,7.654-6.375l43.158-23.933c8.523-4.639,13.796-13.597,13.716-23.3v-11.35
				c-0.03-2.881-0.953-5.682-2.642-8.017l-0.918-1.2h24.722c4.713,0,8.533-3.82,8.533-8.533s-3.82-8.533-8.533-8.533h-36.265
				c-2.804-4.955-4.956-10.252-6.402-15.758l-0.004-9.824l0.004-0.018v-51.2l-0.022-0.11l-0.003-7.44
				c-0.147-8.278,2.835-16.307,8.35-22.483c7.842-8.383,20.829-12.633,38.608-12.633s30.767,4.25,38.608,12.633
				c5.64,6.354,8.621,14.634,8.325,23.125v67.95c-3.64,11.846-9.616,22.842-17.575,32.341l-1.446,1.9
				c-1.601,2.287-2.467,5.008-2.483,7.8v11.35c-0.087,9.665,5.142,18.596,13.613,23.25l43.217,23.95
				c2.932,1.723,5.554,3.927,7.756,6.519c-5.737,8.263-8.867,18.055-8.986,28.114H177.085
				C173.926,279.794,168.719,270.195,161.775,261.909z M494.934,494.934H298.667l0-7.425c-0.052-11.261,6.008-21.665,15.829-27.175
				l43.158-23.933c8.523-4.639,13.796-13.597,13.716-23.3v-11.35c-0.03-2.881-0.953-5.682-2.642-8.017l-1.287-1.683
				c-7.96-9.498-13.936-20.495-17.575-32.342l-0.022-60.931l0.022-0.11l-0.022-0.11l-0.003-7.44
				c-0.147-8.278,2.835-16.307,8.35-22.483C366.034,260.25,379.021,256,396.8,256c17.775,0,30.767,4.25,38.608,12.633
				c5.638,6.355,8.618,14.634,8.325,23.125v67.95c-3.644,11.855-9.625,22.861-17.592,32.367l-1.417,1.85
				c-1.611,2.292-2.481,5.023-2.492,7.825v11.35c-0.091,9.665,5.137,18.597,13.608,23.25l43.258,23.983
				c9.824,5.508,15.886,15.912,15.833,27.175L494.934,494.934z"/>
		</g>
	</g>
</g>
<g>
</g>
<g>
</g>
<g>
</g>
<g>
</g>
<g>
</g>
<g>
</g>
<g>
</g>
<g>
</g>
<g>
</g>
<g>
</g>
<g>
</g>
<g>
</g>
<g>
</g>
<g>
</g>
<g>
</g>
</svg>
