<?xml version="1.0" encoding="iso-8859-1"?>
<!-- Generator: Adobe Illustrator 19.0.0, SVG Export Plug-In . SVG Version: 6.00 Build 0)  -->
<svg version="1.1" id="Capa_1" xmlns="http://www.w3.org/2000/svg" xmlns:xlink="http://www.w3.org/1999/xlink" x="0px" y="0px"
	 viewBox="0 0 512 512" style="enable-background:new 0 0 512 512;" xml:space="preserve">
<g>
	<g transform="translate(1 1)">
		<rect x="280.6" y="391.533" style="fill:#95A5A5;" width="68.267" height="102.4"/>
		<path style="fill:#BDC3C7;" d="M195.267,502.467h230.4V485.4c-0.028-9.414-7.652-17.039-17.067-17.067H195.267V502.467z"/>
		<path style="fill:#35495E;" d="M127,212.76V109.933c0.014-4.707,3.826-8.52,8.533-8.533h358.4c4.707,0.014,8.52,3.826,8.533,8.533
			V408.6c-0.014,4.707-3.826,8.52-8.533,8.533H127V212.76z"/>
		<g>
			<path style="fill:#BDC3C7;" d="M502.467,383v25.6c-0.014,4.707-3.826,8.52-8.533,8.533h-358.4c-4.713,0-8.533-3.821-8.533-8.533
				V383H502.467z"/>
			<path style="fill:#BDC3C7;" d="M502.467,109.933v25.6H127v-25.6c0.014-4.707,3.826-8.519,8.533-8.533h358.4
				C498.64,101.414,502.453,105.226,502.467,109.933z"/>
		</g>
		<g>
			<rect x="280.6" y="391.533" style="fill:#A4C2F7;" width="68.267" height="102.4"/>
			<path style="fill:#A4C2F7;" d="M425.667,485.4v17.067h-230.4v-34.133H408.6C418.014,468.361,425.639,475.986,425.667,485.4z"/>
		</g>
		<path style="fill:#D4E1F4;" d="M400.067,485.4v17.067h-204.8v-34.133H383C392.414,468.361,400.039,475.986,400.067,485.4z"/>
		<path style="fill:#A4C2F7;" d="M502.467,109.933V408.6c-0.014,4.707-3.826,8.519-8.533,8.533H127v-307.2
			c0.014-4.707,3.826-8.519,8.533-8.533h358.4C498.64,101.414,502.453,105.226,502.467,109.933z"/>
		
			<linearGradient id="SVGID_1_" gradientUnits="userSpaceOnUse" x1="-49.8078" y1="651.5544" x2="-48.9189" y2="650.4501" gradientTransform="matrix(349.8667 0 0 -281.6214 17571.334 183579.5625)">
			<stop  offset="0" style="stop-color:#D3DFF2"/>
			<stop  offset="0.1717" style="stop-color:#D3DFF2"/>
			<stop  offset="0.2" style="stop-color:#D3DFF2"/>
			<stop  offset="0.2002" style="stop-color:#DAE2F2"/>
			<stop  offset="0.2007" style="stop-color:#EBEAF2"/>
			<stop  offset="0.2014" style="stop-color:#F6EFF2"/>
			<stop  offset="0.2023" style="stop-color:#FDF2F2"/>
			<stop  offset="0.205" style="stop-color:#FFF3F2"/>
			<stop  offset="0.2522" style="stop-color:#FFF3F2"/>
			<stop  offset="0.26" style="stop-color:#FFF3F2"/>
			<stop  offset="0.26" style="stop-color:#D3DFF2"/>
			<stop  offset="0.3974" style="stop-color:#D3DFF2"/>
			<stop  offset="0.42" style="stop-color:#D3DFF2"/>
			<stop  offset="0.4202" style="stop-color:#DAE2F2"/>
			<stop  offset="0.4207" style="stop-color:#EBEAF2"/>
			<stop  offset="0.4214" style="stop-color:#F6EFF2"/>
			<stop  offset="0.4223" style="stop-color:#FDF2F2"/>
			<stop  offset="0.425" style="stop-color:#FFF3F2"/>
			<stop  offset="0.4894" style="stop-color:#FFF3F2"/>
			<stop  offset="0.5" style="stop-color:#FFF3F2"/>
			<stop  offset="0.5" style="stop-color:#F8F0F2"/>
			<stop  offset="0.5001" style="stop-color:#E7E8F2"/>
			<stop  offset="0.5003" style="stop-color:#DCE3F2"/>
			<stop  offset="0.5005" style="stop-color:#D5E0F2"/>
			<stop  offset="0.501" style="stop-color:#D3DFF2"/>
			<stop  offset="0.7062" style="stop-color:#D3DFF2"/>
			<stop  offset="0.74" style="stop-color:#D3DFF2"/>
			<stop  offset="0.741" style="stop-color:#FFF3F2"/>
			<stop  offset="0.8346" style="stop-color:#FFF3F2"/>
			<stop  offset="0.85" style="stop-color:#FFF3F2"/>
			<stop  offset="0.851" style="stop-color:#D3DFF2"/>
		</linearGradient>
		<path style="fill:url(#SVGID_1_);" d="M476.867,109.011v266.378c-0.282,4.445-4.085,7.837-8.533,7.611H127V109.011
			c0.282-4.445,4.085-7.837,8.533-7.611h332.8C472.782,101.173,476.585,104.566,476.867,109.011z"/>
		<path style="fill:#A4C2F7;" d="M502.467,383v25.6c-0.014,4.707-3.826,8.519-8.533,8.533h-25.6
			c4.707-0.014,8.519-3.826,8.533-8.533V383H502.467z"/>
		<path style="fill:#D4E1F4;" d="M476.867,383v25.6c-0.014,4.707-3.826,8.519-8.533,8.533h-332.8
			c-4.707-0.014-8.519-3.826-8.533-8.533V383H476.867z"/>
		<path style="fill:#A4C2F7;" d="M502.467,109.933v25.6h-25.6v-25.6c-0.014-4.707-3.826-8.519-8.533-8.533h25.6
			C498.64,101.414,502.453,105.226,502.467,109.933z"/>
		<path style="fill:#D4E1F4;" d="M476.867,109.933v25.6H127v-25.6c0.014-4.707,3.826-8.519,8.533-8.533h332.8
			C473.04,101.414,476.853,105.226,476.867,109.933z"/>
		<circle style="fill:#E3E7F2;" cx="314.733" cy="41.667" r="34.133"/>
		<g>
			<path style="fill:#A4C2F7;" d="M289.133,75.8h51.2c4.713,0,8.533,3.821,8.533,8.533v51.2c0,4.713-3.821,8.533-8.533,8.533h-51.2
				c-4.713,0-8.533-3.821-8.533-8.533v-51.2C280.6,79.621,284.421,75.8,289.133,75.8z"/>
			<path style="fill:#A4C2F7;" d="M260.291,496.494v5.973H7.533l0-7.083c-0.018-16.857,9.181-32.375,23.979-40.448l53.333-24.32
				c2.461-1.533,4.826-3.214,7.083-5.035c1.579-1.26,2.186-3.382,1.512-5.287c-0.673-1.904-2.479-3.173-4.499-3.161H43.288
				c-2.439,0.264-4.9,0.264-7.339,0c-5.008-0.347-9.876-1.804-14.251-4.266c-5.914-3.653-7.748-11.408-4.096-17.323
				c19.574-34.036,31.92-71.741,36.267-110.763c0.512-12.385,3.228-24.579,8.021-36.011c8.107-18.006,21.504-39.34,53.504-43.947
				c4.201-0.704,8.455-1.047,12.715-1.024c71.083,0.598,74.667,74.667,74.667,74.667c0.939,46.763,26.539,96.513,40.107,115.798
				c2.192,3.142,2.858,7.101,1.817,10.787c-1.041,3.686-3.681,6.711-7.193,8.242c-9.261,3.318-19.122,4.627-28.928,3.84h-15.104
				c-0.307,0.085-0.632,0.085-0.939,0h-7.851c-0.226,0.043-0.457,0.043-0.683,0h-16.299c-1.82,0.111-3.462,1.129-4.373,2.709
				s-0.967,3.511-0.15,5.141c1.707,3.92,4.602,7.204,8.277,9.387l63.317,20.907c15.619,7.804,25.494,23.757,25.515,41.217V496.494z"
				/>
		</g>
		<g>
			<path style="fill:#E3E7F2;" d="M234.691,496.494v5.973H7.533l0-7.083c-0.018-16.857,9.181-32.375,23.979-40.448l53.333-24.32
				c2.461-1.533,4.826-3.214,7.083-5.035c1.579-1.26,2.186-3.382,1.512-5.287c-0.673-1.904-2.479-3.173-4.499-3.161H35.949
				c-5.008-0.347-9.876-1.804-14.251-4.266c-5.914-3.653-7.748-11.408-4.096-17.323c19.574-34.036,31.92-71.741,36.267-110.763
				c0.512-12.385,3.228-24.579,8.021-36.011c8.107-18.006,21.504-39.34,53.504-43.947c58.624,8.788,61.781,73.643,61.781,73.643
				c0.939,46.763,26.539,96.513,40.107,115.798c2.191,3.142,2.858,7.101,1.817,10.787c-1.041,3.686-3.681,6.711-7.193,8.242
				c-5.879,2.325-12.114,3.624-18.432,3.84c-0.307,0.085-0.632,0.085-0.939,0h-0.853c-2.327,0.219-4.67,0.219-6.997,0
				c-0.226,0.043-0.457,0.043-0.683,0h-41.472c-1.894-0.026-3.665,0.935-4.675,2.538c-1.01,1.602-1.114,3.615-0.274,5.312
				c1.707,3.92,4.602,7.204,8.277,9.387l63.317,20.907c15.619,7.804,25.494,23.757,25.515,41.217V496.494z"/>
			<path style="fill:#E3E7F2;" d="M289.133,314.733H357.4c9.426,0,17.067,7.641,17.067,17.067l0,0
				c0,9.426-7.641,17.067-17.067,17.067h-68.267c-9.426,0-17.067-7.641-17.067-17.067l0,0
				C272.067,322.374,279.708,314.733,289.133,314.733z"/>
		</g>
	</g>
	<g transform="translate(1 11)">
		<path style="fill:#FFFFFF;" d="M33.133,485.383c-0.018-16.857,9.181-32.375,23.979-40.448l53.333-24.32
			c2.461-1.533,4.826-3.214,7.083-5.035c1.579-1.26,2.186-3.382,1.512-5.287c-0.673-1.904-2.479-3.173-4.499-3.161h-25.6
			c2.02-0.012,3.826,1.257,4.499,3.161c0.673,1.904,0.066,4.026-1.512,5.287c-2.257,1.82-4.622,3.502-7.083,5.035l-53.333,24.32
			c-14.798,8.073-23.997,23.591-23.979,40.448l0,7.083h25.6V485.383z"/>
		<path style="fill:#FFFFFF;" d="M140.995,194.824c3.837-0.632,7.717-0.96,11.605-0.98V99.01c0.282-4.445,4.085-7.837,8.533-7.61
			h-25.6c-4.448-0.226-8.251,3.166-8.533,7.61v94.833c-3.888,0.02-7.769,0.348-11.605,0.98c-32,4.607-45.397,25.941-53.504,43.947
			c-4.793,11.431-7.51,23.626-8.021,36.011c-4.347,39.021-16.693,76.727-36.267,110.763c-3.652,5.915-1.818,13.67,4.096,17.323
			c4.375,2.462,9.243,3.92,14.251,4.267c2.439,0.264,4.9,0.264,7.339,0h18.261c-5.008-0.347-9.876-1.805-14.251-4.267
			c-5.914-3.653-7.748-11.408-4.096-17.323c19.574-34.036,31.92-71.741,36.267-110.763c0.512-12.385,3.228-24.579,8.021-36.011
			C95.597,220.765,108.995,199.431,140.995,194.824z"/>
		<rect x="280.6" y="407.133" style="fill:#FFFFFF;" width="25.6" height="51.2"/>
		<path style="fill:#FFFFFF;" d="M219.075,407.133h-1.792c-2.327,0.219-4.67,0.219-6.997,0h-1.707c3.639,0.25,7.291,0.25,10.931,0
			H219.075z"/>
	</g>
	<g>
		<polygon style="fill:#FFFFFF;" points="8.533,494.933 119.467,494.933 261.248,494.933 261.248,512 119.467,512 8.533,512 		"/>
		<g>
			<path style="fill:#428DFF;" d="M494.933,93.867H358.4v-8.533c-0.015-6.69-3.939-12.755-10.036-15.509
				c6.439-7.588,9.993-17.205,10.036-27.157C358.4,19.103,339.298,0,315.733,0c-23.564,0-42.667,19.103-42.667,42.667
				c0.043,9.952,3.597,19.569,10.036,27.157c-6.097,2.755-10.021,8.819-10.036,15.509v8.533H136.533
				c-9.421,0.011-17.056,7.645-17.067,17.067v85.887c-39.214,3.954-55.455,29.727-64.337,49.479
				c-5.247,12.348-8.235,25.538-8.821,38.942c-2.975,45.025-26.871,93.442-35.008,106.85c-2.936,4.869-3.823,10.703-2.467,16.225
				c1.301,5.381,4.712,10.013,9.467,12.85c8.073,4.455,17.298,6.383,26.479,5.533h31.317l-47.642,21.717
				C10.91,457.981-0.005,476.368,0,496.35v7.117c-0.001,2.263,0.898,4.434,2.499,6.035c1.6,1.6,3.771,2.499,6.035,2.499h34.133
				c4.713,0,8.533-3.82,8.533-8.533c0-4.713-3.821-8.533-8.533-8.533H17.162c0.416-13.007,7.586-24.856,18.916-31.258l53.875-24.558
				c2.887-1.745,5.638-3.706,8.229-5.867c4.419-3.494,6.141-9.403,4.293-14.725c-1.849-5.322-6.863-8.89-12.497-8.892H44.321
				c-0.354,0.001-0.707,0.024-1.058,0.067c-5.592,0.469-11.205-0.633-16.204-3.183c-0.844-0.512-1.444-1.345-1.663-2.308
				c-0.274-1.112-0.096-2.286,0.496-3.267c9.325-15.367,34.233-65.909,37.446-114.567C63.8,275,66.292,263.798,70.696,253.3
				c8.712-19.367,22.373-39.162,57.157-39.912c0.052,0,0.095,0.029,0.147,0.029c0.081,0,0.148-0.044,0.229-0.046
				c0.292-0.006,0.556-0.035,0.851-0.037c61.967,0.508,66.071,63.875,66.204,66.3c0.892,46.258,25.35,97.408,41.579,120.5
				c0.742,1.05,0.964,2.383,0.6,3.617c-0.321,1.191-1.168,2.17-2.3,2.658c-4.907,1.911-10.099,2.99-15.362,3.192h-9.71l-0.533-0.033
				h-40.467c-4.838-0.003-9.333,2.494-11.889,6.601c-2.555,4.108-2.807,9.244-0.666,13.582c2.532,5.577,6.759,10.214,12.079,13.25
				c0.374,0.187,0.761,0.346,1.158,0.475l62.717,20.7c11.626,6.015,19.239,17.694,20.051,30.758H110.933
				c-4.713,0-8.533,3.821-8.533,8.533c0,4.713,3.82,8.533,8.533,8.533h315.733c2.263,0.001,4.434-0.898,6.035-2.499
				c1.6-1.6,2.499-3.771,2.499-6.035V486.4c-0.015-14.132-11.468-25.585-25.6-25.6h-51.2v-34.133h136.533
				c9.421-0.011,17.056-7.645,17.067-17.067V110.933C511.989,101.512,504.355,93.877,494.933,93.867z M494.933,110.933V128H358.4
				v-17.067H494.933z M290.133,85.333h51.2l0.004,17.046l-0.004,0.021l0.004,0.021l0.009,34.05l-0.013,0.062h-51.2V85.333z
				 M315.733,17.067c14.138,0,25.6,11.462,25.6,25.6s-11.462,25.6-25.6,25.6c-14.138,0-25.6-11.462-25.6-25.6
				C290.149,28.535,301.601,17.082,315.733,17.067z M273.067,110.933V128H136.533v-17.067H273.067z M136.533,196.732v-51.666
				h138.908c3.025,5.262,8.623,8.513,14.692,8.533h51.2c6.069-0.02,11.668-3.272,14.692-8.533h138.908v230.4H241.715
				C229.5,353.523,213.055,316,212.342,279.05C211.008,251.818,193.229,201.331,136.533,196.732z M239.6,448.642
				c-0.368-0.184-0.75-0.34-1.142-0.467l-62.55-20.642c-0.384-0.267-0.739-0.571-1.062-0.908l9.136-0.009
				c0.089,0.002,0.162,0.05,0.251,0.05h25.467c3.601,0.225,7.212,0.225,10.813,0h52.553v34.133h-17.539
				C251.013,455.8,245.613,451.678,239.6,448.642z M418.133,486.4v8.533H269.607c-0.261-5.842-1.459-11.605-3.549-17.067H409.6
				C414.311,477.871,418.129,481.689,418.133,486.4z M341.333,460.8h-51.2v-34.133h51.2V460.8z M349.867,409.6h-96.471
				c0.144-0.41,0.368-0.778,0.488-1.2c1.483-5.326,0.822-11.022-1.842-15.867h242.892V409.6H349.867z"/>
			<path style="fill:#428DFF;" d="M82.859,509.525c0.77-0.815,1.379-1.77,1.792-2.813c0.438-1.027,0.67-2.13,0.683-3.246
				c-0.014-3.45-2.096-6.556-5.282-7.879c-3.187-1.323-6.856-0.606-9.31,1.82l-1.025,1.279c-0.324,0.476-0.583,0.993-0.771,1.538
				c-0.246,0.484-0.417,1.002-0.508,1.537c-0.096,0.564-0.153,1.133-0.171,1.705c0.031,2.259,0.915,4.423,2.475,6.059
				C74.138,512.747,79.461,512.747,82.859,509.525L82.859,509.525z"/>
			<path style="fill:#428DFF;" d="M290.133,358.4H358.4c14.138,0,25.6-11.462,25.6-25.6s-11.462-25.6-25.6-25.6h-68.267
				c-14.138,0-25.6,11.462-25.6,25.6S275.995,358.4,290.133,358.4z M290.133,324.267H358.4c4.713,0,8.533,3.82,8.533,8.533
				s-3.82,8.533-8.533,8.533h-68.267c-4.713,0-8.533-3.82-8.533-8.533S285.421,324.267,290.133,324.267z"/>
			<path style="fill:#428DFF;" d="M298.667,213.333c2.263,0.001,4.434-0.898,6.035-2.499c1.6-1.6,2.499-3.771,2.499-6.035
				c0-9.426,7.641-17.067,17.067-17.067c9.426,0,17.067,7.641,17.067,17.067c0,9.426-7.641,17.067-17.067,17.067
				c-2.263-0.001-4.434,0.898-6.035,2.499c-1.6,1.6-2.499,3.771-2.499,6.035v17.067c0,4.713,3.821,8.533,8.533,8.533
				s8.533-3.82,8.533-8.533v-9.746c17.135-4.463,27.997-21.306,24.994-38.756s-18.87-29.693-36.512-28.172
				c-17.641,1.522-31.178,16.301-31.149,34.007c-0.001,2.263,0.898,4.434,2.499,6.035
				C294.233,212.435,296.403,213.334,298.667,213.333z"/>
			<path style="fill:#428DFF;" d="M418.133,324.267c3.559-0.012,6.73-2.247,7.94-5.594L437.7,330.3
				c3.341,3.281,8.701,3.256,12.012-0.054c3.311-3.311,3.335-8.671,0.054-12.012l-11.571-11.575
				c3.863-1.448,6.137-5.453,5.401-9.513c-0.736-4.06-4.271-7.012-8.397-7.012h-17.067c-1.021,0.018-2.031,0.222-2.98,0.601
				c-0.277,0.113-0.547,0.241-0.809,0.384c-0.642,0.322-1.239,0.724-1.779,1.198c-0.227,0.184-0.444,0.38-0.65,0.588
				c-0.627,0.665-1.141,1.428-1.522,2.258c-0.035,0.077-0.096,0.135-0.129,0.215l-0.014,0.023c-0.371,0.941-0.57,1.941-0.586,2.952
				c-0.004,0.111-0.064,0.203-0.064,0.315v17.067c-0.001,2.263,0.898,4.434,2.499,6.035
				C413.699,323.368,415.87,324.267,418.133,324.267z"/>
			<path style="fill:#428DFF;" d="M309.675,48.725c0.829,0.753,1.78,1.359,2.813,1.792c2.625,1.125,5.64,0.848,8.016-0.735
				s3.792-4.26,3.764-7.115c0.029-1.119-0.205-2.229-0.683-3.242c-0.433-1.034-1.039-1.986-1.791-2.817
				c-3.421-3.158-8.695-3.158-12.117,0c-0.755,0.829-1.363,1.782-1.796,2.817c-0.906,2.066-0.906,4.417,0,6.483
				C308.314,46.942,308.921,47.894,309.675,48.725z"/>
			<path style="fill:#428DFF;" d="M318.208,275.541c-1.559,1.635-2.443,3.799-2.475,6.059c-0.038,2.248,0.858,4.412,2.475,5.975
				c1.575,1.659,3.771,2.587,6.059,2.558c2.273-0.045,4.441-0.961,6.059-2.558c1.615-1.564,2.511-3.727,2.475-5.975
				c0.02-3.467-2.059-6.601-5.261-7.931C324.337,272.34,320.649,273.08,318.208,275.541z"/>
		</g>
	</g>
</g>
<g>
</g>
<g>
</g>
<g>
</g>
<g>
</g>
<g>
</g>
<g>
</g>
<g>
</g>
<g>
</g>
<g>
</g>
<g>
</g>
<g>
</g>
<g>
</g>
<g>
</g>
<g>
</g>
<g>
</g>
</svg>
