<?xml version="1.0" encoding="iso-8859-1"?>
<!-- Generator: Adobe Illustrator 19.0.0, SVG Export Plug-In . SVG Version: 6.00 Build 0)  -->
<svg version="1.1" id="Capa_1" xmlns="http://www.w3.org/2000/svg" xmlns:xlink="http://www.w3.org/1999/xlink" x="0px" y="0px"
	 viewBox="0 0 512.001 512.001" style="enable-background:new 0 0 512.001 512.001;" xml:space="preserve">
<g>
	<g transform="translate(1 1)">
		<rect x="280.601" y="391.534" style="fill:#95A5A5;" width="68.267" height="102.4"/>
		<path style="fill:#BDC3C7;" d="M195.268,502.467h230.4v-17.067c-0.028-9.414-7.652-17.039-17.067-17.067H195.268V502.467z"/>
		<path style="fill:#35495E;" d="M127.001,212.76V109.934c0.014-4.707,3.826-8.52,8.533-8.533h358.4
			c4.707,0.014,8.52,3.826,8.533,8.533v298.667c-0.014,4.707-3.826,8.52-8.533,8.533H127.001V212.76z"/>
		<g>
			<path style="fill:#BDC3C7;" d="M502.468,383.001v25.6c-0.014,4.707-3.826,8.52-8.533,8.533h-358.4
				c-4.713,0-8.533-3.82-8.533-8.533v-25.6H502.468z"/>
			<path style="fill:#BDC3C7;" d="M502.468,109.934v25.6H127.001v-25.6c0.014-4.707,3.826-8.519,8.533-8.533h358.4
				C498.641,101.415,502.454,105.227,502.468,109.934z"/>
		</g>
		<g>
			<rect x="280.601" y="391.534" style="fill:#A4C2F7;" width="68.267" height="102.4"/>
			<path style="fill:#A4C2F7;" d="M425.668,485.401v17.067h-230.4v-34.133h213.333C418.015,468.361,425.64,475.986,425.668,485.401z
				"/>
		</g>
		<path style="fill:#D4E1F4;" d="M400.068,485.401v17.067h-204.8v-34.133h187.733C392.415,468.361,400.04,475.986,400.068,485.401z"
			/>
		<path style="fill:#A4C2F7;" d="M502.468,109.934v298.667c-0.014,4.707-3.826,8.519-8.533,8.533H127.001v-307.2
			c0.014-4.707,3.826-8.519,8.533-8.533h358.4C498.641,101.415,502.454,105.227,502.468,109.934z"/>
		
			<linearGradient id="SVGID_1_" gradientUnits="userSpaceOnUse" x1="-49.8068" y1="651.5549" x2="-48.9179" y2="650.4506" gradientTransform="matrix(349.8667 0 0 -281.6214 17570.9883 183579.7031)">
			<stop  offset="0" style="stop-color:#D3DFF2"/>
			<stop  offset="0.1717" style="stop-color:#D3DFF2"/>
			<stop  offset="0.2" style="stop-color:#D3DFF2"/>
			<stop  offset="0.2002" style="stop-color:#DAE2F2"/>
			<stop  offset="0.2007" style="stop-color:#EBEAF2"/>
			<stop  offset="0.2014" style="stop-color:#F6EFF2"/>
			<stop  offset="0.2023" style="stop-color:#FDF2F2"/>
			<stop  offset="0.205" style="stop-color:#FFF3F2"/>
			<stop  offset="0.2522" style="stop-color:#FFF3F2"/>
			<stop  offset="0.26" style="stop-color:#FFF3F2"/>
			<stop  offset="0.26" style="stop-color:#D3DFF2"/>
			<stop  offset="0.3974" style="stop-color:#D3DFF2"/>
			<stop  offset="0.42" style="stop-color:#D3DFF2"/>
			<stop  offset="0.4202" style="stop-color:#DAE2F2"/>
			<stop  offset="0.4207" style="stop-color:#EBEAF2"/>
			<stop  offset="0.4214" style="stop-color:#F6EFF2"/>
			<stop  offset="0.4223" style="stop-color:#FDF2F2"/>
			<stop  offset="0.425" style="stop-color:#FFF3F2"/>
			<stop  offset="0.4894" style="stop-color:#FFF3F2"/>
			<stop  offset="0.5" style="stop-color:#FFF3F2"/>
			<stop  offset="0.5" style="stop-color:#F8F0F2"/>
			<stop  offset="0.5001" style="stop-color:#E7E8F2"/>
			<stop  offset="0.5003" style="stop-color:#DCE3F2"/>
			<stop  offset="0.5005" style="stop-color:#D5E0F2"/>
			<stop  offset="0.501" style="stop-color:#D3DFF2"/>
			<stop  offset="0.7062" style="stop-color:#D3DFF2"/>
			<stop  offset="0.74" style="stop-color:#D3DFF2"/>
			<stop  offset="0.741" style="stop-color:#FFF3F2"/>
			<stop  offset="0.8346" style="stop-color:#FFF3F2"/>
			<stop  offset="0.85" style="stop-color:#FFF3F2"/>
			<stop  offset="0.851" style="stop-color:#D3DFF2"/>
		</linearGradient>
		<path style="fill:url(#SVGID_1_);" d="M476.868,109.011V375.39c-0.282,4.445-4.085,7.837-8.533,7.611H127.001V109.011
			c0.282-4.445,4.085-7.837,8.533-7.611h332.8C472.783,101.174,476.586,104.566,476.868,109.011z"/>
		<path style="fill:#A4C2F7;" d="M502.468,383.001v25.6c-0.014,4.707-3.826,8.519-8.533,8.533h-25.6
			c4.707-0.014,8.519-3.826,8.533-8.533v-25.6H502.468z"/>
		<path style="fill:#D4E1F4;" d="M476.868,383.001v25.6c-0.014,4.707-3.826,8.519-8.533,8.533h-332.8
			c-4.707-0.014-8.519-3.826-8.533-8.533v-25.6H476.868z"/>
		<path style="fill:#A4C2F7;" d="M502.468,109.934v25.6h-25.6v-25.6c-0.014-4.707-3.826-8.519-8.533-8.533h25.6
			C498.641,101.415,502.454,105.227,502.468,109.934z"/>
		<path style="fill:#D4E1F4;" d="M476.868,109.934v25.6H127.001v-25.6c0.014-4.707,3.826-8.519,8.533-8.533h332.8
			C473.041,101.415,476.854,105.227,476.868,109.934z"/>
		<path style="fill:#A4C2F7;" d="M255.001,484.974l0,17.493H7.534l0.001-18.602c-0.091-16.741,8.889-32.218,23.467-40.449
			l50.176-27.989c6.683-3.676,10.811-10.721,10.752-18.348v-13.226c0.105-1.281-0.328-2.549-1.195-3.499
			c-14.933-14.421-23.467-48.555-23.467-48.555c-0.017-2.237-0.905-4.38-2.475-5.973l-3.584-3.584
			c-1.57-1.594-2.457-3.737-2.475-5.974v-27.135c0.017-2.237,0.905-4.38,2.475-5.973l3.584-3.584
			c1.57-1.594,2.457-3.737,2.475-5.974v-18.09c0,0-3.925-45.056,51.2-51.03c4.251-0.458,8.524-0.686,12.8-0.682
			c68.523,0,64,51.713,64,51.713v18.09c0.017,2.237,0.905,4.38,2.475,5.974l3.584,3.584c1.57,1.594,2.458,3.736,2.475,5.973v27.135
			c-0.017,2.237-0.905,4.38-2.475,5.974l-3.584,3.584c-1.57,1.594-2.458,3.736-2.475,5.973c0,0,0,17.067-23.467,48.554
			c-0.77,1.004-1.19,2.233-1.195,3.499v13.824c-0.038,7.846,4.308,15.057,11.264,18.688l48.213,27.393
			C245.445,451.755,255.058,467.656,255.001,484.974z"/>
		<g>
			<path style="fill:#E3E7F2;" d="M229.401,484.974l0,17.493H7.534l0.001-18.602c-0.091-16.741,8.889-32.218,23.467-40.449
				l50.176-27.989c6.683-3.676,10.811-10.721,10.752-18.348v-13.226c0.105-1.281-0.328-2.549-1.195-3.499
				c-14.933-14.421-23.467-48.555-23.467-48.555c-0.017-2.237-0.905-4.38-2.475-5.973l-3.584-3.584
				c-1.57-1.594-2.457-3.737-2.475-5.974v-27.135c0.017-2.237,0.905-4.38,2.475-5.973l3.584-3.584
				c1.57-1.594,2.457-3.737,2.475-5.974v-18.09c0,0-3.925-45.056,51.2-51.03c55.125,5.974,51.2,51.03,51.2,51.03v18.09
				c0.017,2.237,0.905,4.38,2.475,5.974l3.584,3.584c1.57,1.594,2.458,3.736,2.475,5.973v27.135
				c-0.017,2.237-0.905,4.38-2.475,5.974l-3.584,3.584c-1.57,1.594-2.458,3.736-2.475,5.973c0,0,0,17.067-23.467,48.554
				c-0.77,1.004-1.19,2.233-1.195,3.499v13.824c-0.038,7.846,4.308,15.057,11.264,18.688l48.213,27.393
				C219.845,451.755,229.458,467.656,229.401,484.974z"/>
			<circle style="fill:#E3E7F2;" cx="314.734" cy="41.667" r="34.133"/>
		</g>
		<g>
			<path style="fill:#A4C2F7;" d="M289.134,75.8h51.2c4.713,0,8.533,3.821,8.533,8.533v51.2c0,4.713-3.82,8.533-8.533,8.533h-51.2
				c-4.713,0-8.533-3.82-8.533-8.533v-51.2C280.601,79.621,284.422,75.8,289.134,75.8z"/>
			<path style="fill:#A4C2F7;" d="M411.502,297.667h14.165c4.713,0,8.533-3.82,8.533-8.533v-34.133H289.134v34.133
				c0,4.713,3.82,8.533,8.533,8.533H411.502z"/>
		</g>
		<path style="fill:#E3E7F2;" d="M434.201,383.001v-6.039c-0.056-9.26-5.4-17.674-13.759-21.661l-34.217-14.421
			c-1.969-1.144-3.532-2.876-4.468-4.952c-0.437-0.901-0.373-1.965,0.169-2.808c0.542-0.843,1.483-1.343,2.484-1.32h21.864
			c0,0,13.675,1.502,19.168-6.552c0.322-0.463,0.297-1.085-0.061-1.521c-13.097-18.764-20.781-40.769-22.21-63.608
			c0,0-1.961-38.944-40.339-39.252c-21.19,0.656-38.417,17.298-39.805,38.453c-1.912,22.979-9.502,45.124-22.089,64.445
			c-0.306,0.455-0.324,1.045-0.046,1.517c3.866,4.833,9.971,7.303,16.111,6.517h24.666c1.065-0.031,2.03,0.627,2.389,1.63
			c0.359,1.003,0.031,2.124-0.812,2.775c-1.207,0.971-2.476,1.862-3.798,2.669l-28.809,16.235
			c-7.93,4.134-12.922,12.317-12.971,21.26v6.63H434.201z"/>
	</g>
	<g transform="translate(1 11)">
		<path style="fill:#FFFFFF;" d="M33.134,473.865c-0.091-16.741,8.889-32.218,23.467-40.449l50.176-27.989
			c6.683-3.676,10.811-10.721,10.752-18.348v-13.226c0.105-1.281-0.328-2.549-1.195-3.499
			c-14.933-14.421-23.467-48.555-23.467-48.555c-0.017-2.237-0.905-4.38-2.475-5.973l-3.584-3.584
			c-1.57-1.594-2.457-3.737-2.475-5.974v-27.135c0.017-2.237,0.905-4.38,2.475-5.973l3.584-3.584
			c1.57-1.594,2.457-3.737,2.475-5.974v-18.09c0,0-3.925-45.056,51.2-51.03c2.667-0.29,5.551-0.461,8.533-0.566V99.011
			c0.282-4.445,4.085-7.837,8.533-7.61h-25.6c-4.448-0.226-8.251,3.166-8.533,7.61v94.906c-2.982,0.104-5.866,0.276-8.533,0.566
			c-55.125,5.974-51.2,51.03-51.2,51.03v18.09c-0.017,2.237-0.905,4.38-2.475,5.974l-3.584,3.584
			c-1.57,1.594-2.458,3.736-2.475,5.973v27.135c0.017,2.237,0.905,4.38,2.475,5.974l3.584,3.584c1.57,1.594,2.458,3.736,2.475,5.973
			c0,0,8.533,34.133,23.467,48.554c0.866,0.95,1.299,2.217,1.195,3.499v13.226c0.059,7.627-4.069,14.672-10.752,18.348
			l-50.176,27.989c-14.578,8.23-23.558,23.708-23.467,40.449l-0.001,18.602h25.601V473.865z"/>
		<rect x="280.601" y="407.134" style="fill:#FFFFFF;" width="25.6" height="51.2"/>
	</g>
	<g>
		<path style="fill:#428DFF;" d="M494.934,93.867H358.401v-8.533c-0.015-6.69-3.939-12.755-10.036-15.509
			c6.439-7.588,9.993-17.205,10.036-27.157C358.401,19.103,339.298,0,315.734,0c-23.564,0-42.667,19.103-42.667,42.667
			c0.043,9.952,3.597,19.569,10.036,27.157c-6.097,2.755-10.021,8.819-10.036,15.509v8.533H136.534
			c-9.421,0.011-17.056,7.645-17.067,17.067v86.031c-17.131,0.785-33.347,7.953-45.458,20.094
			c-9.665,10.822-14.779,24.958-14.275,39.458l0.025,18.025l-3.592,3.592c-3.168,3.192-4.952,7.503-4.967,12v27.133
			c0.01,4.502,1.798,8.818,4.975,12.008l3.558,3.525c0.001,0.697,0.086,1.391,0.254,2.067c0.362,1.45,8.808,34.7,24.408,51.2v12.017
			c0.055,4.532-2.399,8.723-6.379,10.892l-50.142,27.975c-17.318,9.71-27.994,28.062-27.875,47.917v18.6
			C0,505.731,0.899,507.901,2.5,509.502c1.6,1.6,3.771,2.499,6.035,2.499h418.133c2.263,0.001,4.434-0.898,6.035-2.499
			c1.6-1.6,2.499-3.771,2.499-6.035v-17.067c-0.015-14.132-11.468-25.585-25.6-25.6h-51.2v-34.133h136.533
			c9.421-0.011,17.056-7.645,17.067-17.067V110.934C511.99,101.513,504.356,93.878,494.934,93.867z M353.159,331.759
			c-1.53-4.488-5.75-7.502-10.492-7.492h-24.667c-0.288,0-0.667,0.025-0.95,0.05c-1.504,0.112-3.015-0.015-4.479-0.375
			c3.961-6.809,7.337-13.943,10.089-21.324c0.27-0.531,0.483-1.089,0.633-1.666c4.834-12.818,7.939-26.223,9.232-39.86
			c0.999-16.637,14.354-29.859,31-30.692h0.238c15.358-0.606,28.727,10.405,31.076,25.594l-0.001,0.006
			c0.053,0.592,0.171,1.177,0.352,1.744c0.21,1.171,0.36,2.353,0.448,3.54c1.256,22.135,8.051,43.6,19.763,62.425
			c-2.349,0.603-4.783,0.809-7.2,0.608c-0.309-0.033-0.619-0.05-0.929-0.05h-21.863c-4.011-0.021-7.739,2.064-9.821,5.492
			c-2.075,3.355-2.238,7.553-0.429,11.058c1.846,3.867,4.926,7.01,8.754,8.933l33.796,14.225c4.616,2.175,7.883,6.464,8.754,11.492
			H307.322c0.718-5.125,3.892-9.577,8.504-11.925l28.579-16.108c1.757-1.036,3.442-2.192,5.042-3.458
			C353.175,341.12,354.668,336.206,353.159,331.759z M413.014,264.534h13.653v25.6h-8.258
			C415.519,281.868,413.705,273.264,413.014,264.534z M410.185,247.467c-5.674-20.717-24.82-34.835-46.289-34.133h-0.35
			c-20.839,0.536-39.037,14.249-45.296,34.133h-18.783c6.331-29.851,32.685-51.201,63.2-51.201c30.515,0,56.869,21.351,63.2,51.201
			H410.185z M298.668,264.534h16.26c-1.09,8.696-3.005,17.268-5.72,25.6h-10.54V264.534z M443.557,375.467
			c-0.938-11.741-8.121-22.069-18.802-27.034l-16.763-7.025c9.704,0.993,19.267-2.898,25.521-10.383
			c2.45-3.578,2.239-8.344-0.517-11.692c-2.801-3.816-5.252-7.877-7.324-12.133h0.995c9.421-0.011,17.056-7.645,17.067-17.067
			v-34.133c0-40.908-37.883-76.8-81.067-76.8s-81.067,35.892-81.067,76.8v34.133c0.011,9.421,7.645,17.056,17.067,17.067h3.595
			c-2.178,4.415-4.645,8.683-7.383,12.775c-2.204,3.248-2.292,7.488-0.225,10.825c5.403,7.609,14.536,11.651,23.8,10.533h2.025
			l-12.842,7.233c-10.096,5.312-16.684,15.512-17.372,26.9h-102.97c16.914-25.992,17.502-40.861,17.48-42.608l3.575-3.575
			c3.181-3.191,4.973-7.51,4.983-12.017v-27.133c-0.016-4.501-1.803-8.815-4.975-12.008l-3.558-3.525l-0.033-17.342
			c0.676-14.744-4.435-29.169-14.242-40.2c-11.929-13.021-30.128-19.9-53.992-20.644v-51.348h138.908
			c3.025,5.262,8.623,8.513,14.692,8.533h51.2c6.069-0.02,11.668-3.272,14.692-8.533h138.908v230.4H443.557z M258.418,460.801
			c-5.039-10.062-13.13-18.273-23.117-23.458l-18.793-10.675h56.559v34.133H258.418z M341.334,85.334l0.004,17.046l-0.004,0.021
			l0.004,0.021l0.009,34.05l-0.013,0.062h-51.2v-51.2H341.334z M494.934,110.934v17.067H358.401v-17.067H494.934z M315.734,17.067
			c14.138,0,25.6,11.462,25.6,25.6s-11.462,25.6-25.6,25.6s-25.6-11.462-25.6-25.6C290.15,28.535,301.602,17.083,315.734,17.067z
			 M273.068,110.934v17.067H136.534v-17.067H273.068z M204.801,494.934H17.066l0.001-10.067c-0.116-13.655,7.196-26.294,19.092-33
			l50.063-27.925c9.455-5.155,15.311-15.09,15.242-25.858v-13.233c0.133-3.604-1.247-7.099-3.804-9.642
			c-10.458-10.092-18.421-34.183-20.908-43.675c-0.315-4.052-2.06-7.859-4.925-10.742l-3.558-3.525l-0.025-27.075l3.575-3.575
			c3.181-3.191,4.973-7.511,4.983-12.017l-0.029-18.775c-0.259-10.069,3.305-19.862,9.975-27.408
			c9.291-10.008,24.608-15.083,45.52-15.083s36.229,5.075,45.521,15.083c6.803,7.741,10.364,17.803,9.946,28.1v18.083
			c0.01,4.502,1.798,8.818,4.975,12.008l3.558,3.525l0.025,27.075l-3.592,3.592c-3.136,3.145-4.917,7.392-4.962,11.833
			c-0.009,0.15-0.854,15.542-21.792,43.633c-1.861,2.475-2.87,5.487-2.875,8.583v13.825c-0.081,10.928,5.926,20.993,15.583,26.108
			l48.529,27.567c12.553,6.496,20.392,19.492,20.284,33.625l0.001,8.958H204.801z M418.134,486.401v8.533h-153.6v-8.958
			c-0.008-2.714-0.213-5.424-0.613-8.108h145.679C414.312,477.872,418.13,481.69,418.134,486.401z M341.334,460.801h-51.2v-34.133
			h51.2V460.801z M349.868,409.601H186.531c-3.966-2.201-6.416-6.389-6.393-10.925l0-6.142h314.796v17.067H349.868z"/>
		<path style="fill:#428DFF;" d="M309.676,48.726c0.829,0.753,1.78,1.359,2.813,1.792c2.625,1.125,5.64,0.848,8.016-0.735
			c2.376-1.584,3.792-4.26,3.764-7.115c0.029-1.119-0.205-2.229-0.683-3.242c-0.433-1.034-1.039-1.986-1.791-2.817
			c-3.421-3.158-8.695-3.158-12.117,0c-0.755,0.829-1.363,1.782-1.796,2.817c-0.906,2.066-0.906,4.417,0,6.483
			C308.315,46.942,308.922,47.895,309.676,48.726z"/>
	</g>
</g>
<g>
</g>
<g>
</g>
<g>
</g>
<g>
</g>
<g>
</g>
<g>
</g>
<g>
</g>
<g>
</g>
<g>
</g>
<g>
</g>
<g>
</g>
<g>
</g>
<g>
</g>
<g>
</g>
<g>
</g>
</svg>
