<?xml version="1.0" encoding="iso-8859-1"?>
<!-- Generator: Adobe Illustrator 19.0.0, SVG Export Plug-In . SVG Version: 6.00 Build 0)  -->
<svg version="1.1" id="Capa_1" xmlns="http://www.w3.org/2000/svg" xmlns:xlink="http://www.w3.org/1999/xlink" x="0px" y="0px"
	 viewBox="0 0 512 512" style="enable-background:new 0 0 512 512;" xml:space="preserve">
<g>
	<g transform="translate(1 15)">
		<path style="fill:#A4C2F7;" d="M229.4,241c0,51.883-49.664,93.867-110.933,93.867c-4.277,0.033-8.551-0.196-12.8-0.683
			C50.456,328.894,7.533,289.212,7.533,241s42.923-87.893,98.133-93.184c4.249-0.487,8.523-0.715,12.8-0.683
			C179.736,147.133,229.4,189.117,229.4,241z"/>
		<ellipse style="fill:#E3E7F2;" cx="105.667" cy="241" rx="98.133" ry="93.184"/>
		<path style="fill:#A4C2F7;" d="M502.467,241c0,51.883-49.664,93.867-110.933,93.867c-4.277,0.033-8.551-0.196-12.8-0.683
			C323.523,328.894,280.6,289.212,280.6,241s42.923-87.893,98.133-93.184c4.249-0.487,8.523-0.715,12.8-0.683
			C452.803,147.133,502.467,189.117,502.467,241z"/>
		<ellipse style="fill:#E3E7F2;" cx="378.733" cy="241" rx="98.133" ry="93.184"/>
		<g>
			<path style="fill:#FFFFFF;" d="M404.333,147.816l0.047-0.004c-4.221-0.412-8.495-0.678-12.847-0.678
				c-4.277-0.032-8.551,0.196-12.8,0.683C323.523,153.107,280.6,192.787,280.6,241s42.923,87.893,98.133,93.183
				c4.249,0.488,8.523,0.716,12.8,0.683c4.354,0,8.629-0.267,12.851-0.679l-0.051-0.004C349.123,328.894,306.2,289.212,306.2,241
				S349.123,153.107,404.333,147.816z"/>
			<path style="fill:#FFFFFF;" d="M105.667,334.183c4.249,0.488,8.523,0.716,12.8,0.683c4.354,0,8.629-0.267,12.851-0.679
				l-0.051-0.004c-55.211-5.29-98.133-44.971-98.133-93.183s42.923-87.893,98.133-93.184l0.047-0.004
				c-4.221-0.412-8.495-0.678-12.847-0.678c-4.277-0.032-8.551,0.196-12.8,0.683C50.456,153.107,7.533,192.787,7.533,241
				S50.456,328.894,105.667,334.183z"/>
		</g>
	</g>
	<g>
		<path style="fill:#428DFF;" d="M392.533,153.6c-65.875,0-119.467,45.933-119.467,102.4c0,53.86,48.789,98.035,110.457,102.008
			C378.681,415.375,323.408,460.8,256,460.8c-49.037,0-93.624-24.758-114.766-61.985l21.516,7.902
			c4.423,1.625,9.326-0.644,10.95-5.067c1.625-4.423-0.644-9.326-5.067-10.95l-40.054-14.708c-4.18-1.579-8.861,0.414-10.62,4.521
			c-0.063,0.119-0.149,0.218-0.207,0.339c-0.031,0.076-0.098,0.13-0.127,0.207l-14.704,40.051
			c-1.625,4.425,0.646,9.329,5.071,10.954c4.425,1.625,9.33-0.646,10.954-5.071l7.297-19.879
			c24.043,43.042,73.59,70.754,129.757,70.754c76.861,0,139.777-53.051,144.597-119.817C462.709,354.469,512,310.133,512,256
			C512,199.533,458.408,153.6,392.533,153.6z M392.533,341.333c-56.462,0-102.4-38.283-102.4-85.333s45.938-85.333,102.4-85.333
			s102.4,38.283,102.4,85.333S448.996,341.333,392.533,341.333z"/>
		<path style="fill:#428DFF;" d="M85.333,230.4c0,4.713,3.821,8.533,8.533,8.533c4.713,0,8.533-3.821,8.533-8.533
			c0-9.426,7.641-17.067,17.067-17.067s17.067,7.641,17.067,17.067c0,9.426-7.641,17.067-17.067,17.067
			c-2.263-0.001-4.434,0.898-6.035,2.499c-1.6,1.6-2.499,3.771-2.499,6.035v17.067c0,4.713,3.821,8.533,8.533,8.533
			c4.713,0,8.533-3.82,8.533-8.533v-9.617c17.175-4.435,28.091-21.285,25.117-38.772s-18.846-29.782-36.522-28.29
			C98.92,197.88,85.333,212.662,85.333,230.4z"/>
		<path style="fill:#428DFF;" d="M409,217.383c-2.041-7.504-8.899-12.678-16.675-12.582c-7.776,0.096-14.503,5.438-16.359,12.99
			L358.6,296.833c-1.012,4.602,1.898,9.154,6.5,10.167c4.602,1.012,9.154-1.898,10.167-6.5l5.958-27.433h22.547L409.8,300.5
			c0.86,3.909,4.322,6.696,8.325,6.7c0.619-0.001,1.237-0.068,1.842-0.2c2.211-0.485,4.138-1.83,5.357-3.736
			c1.219-1.907,1.63-4.22,1.143-6.43L409,217.383z M384.931,256l7.502-34.542l7.59,34.542H384.931z"/>
		<path style="fill:#428DFF;" d="M338.3,110.35c-0.781,2.124-0.686,4.471,0.264,6.525c0.95,2.054,2.678,3.646,4.802,4.425
			l40.054,14.708c4.18,1.579,8.861-0.414,10.62-4.521c0.063-0.119,0.149-0.218,0.207-0.339c0.031-0.076,0.098-0.13,0.127-0.207
			l14.704-40.05c1.625-4.425-0.646-9.33-5.071-10.954c-4.425-1.625-9.33,0.646-10.954,5.071l-7.297,19.879
			C361.715,61.846,312.167,34.133,256,34.133c-76.861,0-139.777,53.051-144.597,119.817C49.291,157.531,0,201.867,0,256
			c0,56.467,53.592,102.4,119.467,102.4S238.933,312.467,238.933,256c0-53.86-48.789-98.035-110.457-102.008
			C133.319,96.625,188.592,51.2,256,51.2c49.037,0,93.624,24.758,114.766,61.985l-21.516-7.902
			c-2.124-0.782-4.471-0.687-6.525,0.263C340.671,106.497,339.079,108.225,338.3,110.35z M221.867,256
			c0,47.05-45.938,85.333-102.4,85.333S17.067,303.05,17.067,256s45.937-85.333,102.4-85.333S221.867,208.95,221.867,256z"/>
		<path style="fill:#428DFF;" d="M125.525,301.141c-2.451-2.425-6.123-3.133-9.3-1.792c-1.045,0.412-2.001,1.02-2.817,1.792
			c-0.754,0.829-1.36,1.782-1.792,2.817c-0.48,1.012-0.715,2.123-0.683,3.242c-0.03,2.855,1.385,5.532,3.761,7.115
			c2.376,1.584,5.39,1.86,8.014,0.735c1.034-0.434,1.986-1.04,2.817-1.792c2.444-2.441,3.154-6.125,1.792-9.3
			C126.885,302.923,126.279,301.971,125.525,301.141z"/>
	</g>
</g>
<g>
</g>
<g>
</g>
<g>
</g>
<g>
</g>
<g>
</g>
<g>
</g>
<g>
</g>
<g>
</g>
<g>
</g>
<g>
</g>
<g>
</g>
<g>
</g>
<g>
</g>
<g>
</g>
<g>
</g>
</svg>
