<?xml version="1.0" encoding="iso-8859-1"?>
<!-- Generator: Adobe Illustrator 19.0.0, SVG Export Plug-In . SVG Version: 6.00 Build 0)  -->
<svg version="1.1" id="Capa_1" xmlns="http://www.w3.org/2000/svg" xmlns:xlink="http://www.w3.org/1999/xlink" x="0px" y="0px"
	 viewBox="0 0 512 512" style="enable-background:new 0 0 512 512;" xml:space="preserve">
<g transform="translate(-1)">
	<g transform="translate(2 1)">
		<path style="fill:#7FABFA;" d="M67.317,50.2h307.2c9.426,0,17.067,7.641,17.067,17.067V485.4c0,9.426-7.641,17.067-17.067,17.067
			h-307.2c-9.426,0-17.067-7.641-17.067-17.067V67.267C50.251,57.841,57.892,50.2,67.317,50.2z"/>
		<path style="fill:#E3E7F2;" d="M67.317,50.2h281.6c9.426,0,17.067,7.641,17.067,17.067V485.4c0,9.426-7.641,17.067-17.067,17.067
			h-281.6c-9.426,0-17.067-7.641-17.067-17.067V67.267C50.251,57.841,57.892,50.2,67.317,50.2z"/>
		<path style="fill:#FFFFFF;" d="M357.451,92.867v324.267H186.784c0,28.277-22.923,51.2-51.2,51.2s-51.2-22.923-51.2-51.2V92.867
			c0.014-4.707,3.826-8.52,8.533-8.533h256C353.625,84.347,357.437,88.159,357.451,92.867z"/>
		<path style="fill:#A4C2F7;" d="M306.251,50.2v34.133c-0.014,4.707-3.826,8.52-8.533,8.533h-153.6
			c-4.707-0.014-8.52-3.826-8.533-8.533V50.2c0.014-4.707,3.826-8.52,8.533-8.533h42.667c-0.024-13.9,8.429-26.409,21.333-31.573
			c4.046-1.723,8.403-2.594,12.8-2.56c9.053-0.002,17.737,3.593,24.139,9.995c6.402,6.402,9.997,15.085,9.995,24.139h42.667
			C302.424,41.68,306.237,45.493,306.251,50.2z"/>
		<path style="fill:#E3E7F2;" d="M280.651,50.2v34.133c-0.014,4.707-3.826,8.52-8.533,8.533h-128
			c-4.707-0.014-8.52-3.826-8.533-8.533V50.2c0.014-4.707,3.826-8.52,8.533-8.533h42.667c-0.024-13.9,8.429-26.409,21.333-31.573
			c12.905,5.164,21.357,17.673,21.333,31.573h42.667C276.824,41.68,280.637,45.493,280.651,50.2z"/>
		<path style="fill:#7FABFA;" d="M459.851,417.133c-0.022,28.268-22.932,51.178-51.2,51.2l-273.067,0
			c5.82,0.015,11.598-0.996,17.067-2.988c20.467-7.184,34.158-26.521,34.133-48.213H459.851z"/>
		<path style="fill:#A4C2F7;" d="M434.251,417.133c-0.022,28.268-22.932,51.178-51.2,51.2l-247.467,0
			c5.82,0.015,11.598-0.996,17.067-2.988c20.467-7.184,34.158-26.521,34.133-48.213H434.251z"/>
		<g>
			<path style="fill:#E3E7F2;" d="M127.051,135.533h68.267c4.713,0,8.533,3.82,8.533,8.533v68.267c0,4.713-3.82,8.533-8.533,8.533
				h-68.267c-4.713,0-8.533-3.821-8.533-8.533v-68.267C118.517,139.354,122.338,135.533,127.051,135.533z"/>
			<path style="fill:#E3E7F2;" d="M127.051,255h68.267c4.713,0,8.533,3.821,8.533,8.533V331.8c0,4.713-3.82,8.533-8.533,8.533
				h-68.267c-4.713,0-8.533-3.82-8.533-8.533v-68.267C118.517,258.82,122.338,255,127.051,255z"/>
			<path style="fill:#E3E7F2;" d="M203.851,383v34.133h-17.067c0.024,21.692-13.666,41.028-34.133,48.212
				c-20.467-7.184-34.158-26.521-34.133-48.212V383c0.014-4.707,3.826-8.52,8.533-8.533h68.267
				C200.024,374.48,203.837,378.293,203.851,383z"/>
		</g>
		<path style="fill:#D4E1F4;" d="M357.451,92.867v324.267h-25.6V92.867c-0.014-4.707-3.826-8.52-8.533-8.533h25.6
			C353.625,84.347,357.437,88.159,357.451,92.867z"/>
	</g>
	<g transform="translate(2 5)">
		<path style="fill:#FFFFFF;" d="M92.917,46.2h-25.6c-9.414,0.027-17.039,7.652-17.067,17.067V481.4
			c0.028,9.414,7.653,17.039,17.067,17.067h25.6c-9.414-0.028-17.039-7.653-17.067-17.067V63.267
			C75.878,53.852,83.503,46.227,92.917,46.2z"/>
		<path style="fill:#FFFFFF;" d="M169.717,37.667h-25.6c-4.707,0.014-8.52,3.826-8.533,8.533h25.6
			C161.198,41.493,165.01,37.68,169.717,37.667z"/>
	</g>
	<g>
		<polygon style="fill:#FFFFFF;" points="60.784,68.267 60.784,179.2 60.784,486.4 43.717,486.4 43.717,179.2 43.717,68.267 		"/>
		<g>
			<path style="fill:#428DFF;" d="M43.717,486.4c0.015,14.132,11.468,25.585,25.6,25.6h307.2c14.132-0.015,25.585-11.468,25.6-25.6
				v-8.533h8.533c32.974-0.038,59.695-26.759,59.733-59.733c0.001-2.263-0.898-4.434-2.499-6.035c-1.6-1.6-3.771-2.499-6.035-2.499
				h-59.733V68.267c-0.015-14.132-11.468-25.585-25.6-25.6H314.41c-3.025-5.262-8.623-8.513-14.692-8.533h-34.992
				C260.669,14.268,243.193,0,222.917,0s-37.751,14.268-41.808,34.133h-34.992c-6.069,0.02-11.668,3.272-14.692,8.533H69.317
				c-14.132,0.015-25.585,11.468-25.6,25.6V102.4c0,4.713,3.821,8.533,8.533,8.533s8.533-3.821,8.533-8.533V68.267
				c0.005-4.711,3.822-8.529,8.533-8.533h59.733V76.8H94.917c-9.421,0.011-17.056,7.645-17.067,17.067v324.267
				c0.038,32.974,26.759,59.695,59.733,59.733h247.467v8.533c-0.005,4.711-3.822,8.529-8.533,8.533h-307.2
				c-4.711-0.005-8.529-3.822-8.533-8.533V170.667c0-4.713-3.821-8.533-8.533-8.533s-8.533,3.82-8.533,8.533V486.4z M410.651,460.8
				H179.307c9.373-9.162,15.464-21.159,17.328-34.133h255.823C448.378,446.518,430.917,460.773,410.651,460.8z M197.317,409.6
				h-8.533c-2.263-0.001-4.434,0.898-6.035,2.499c-1.6,1.6-2.499,3.771-2.499,6.035c-0.031,16.889-10.019,32.172-25.474,38.981
				c-15.601-6.677-25.721-22.011-25.726-38.981V384h68.267V409.6z M385.051,68.267V409.6h-17.067V93.867
				c-0.011-9.421-7.645-17.056-17.067-17.067h-34.133V59.733h59.733C381.228,59.738,385.046,63.556,385.051,68.267z M188.784,51.2
				c2.263,0.001,4.434-0.898,6.035-2.499c1.6-1.6,2.499-3.771,2.499-6.035c0-14.138,11.462-25.6,25.6-25.6
				c14.138,0,25.6,11.462,25.6,25.6c-0.001,2.263,0.898,4.434,2.499,6.035c1.6,1.6,3.771,2.499,6.035,2.499l42.667,0.025v34.108
				h-153.6V51.2H188.784z M94.917,418.133V93.867h36.508c3.025,5.262,8.623,8.513,14.692,8.533h153.6
				c6.069-0.02,11.668-3.272,14.692-8.533h36.508V409.6H214.384V384c-0.011-9.421-7.645-17.056-17.067-17.067h-68.267
				c-9.421,0.011-17.056,7.645-17.067,17.067v34.133c0.004,15.639,6.145,30.651,17.103,41.808
				C109.221,455.877,94.946,438.411,94.917,418.133z"/>
			<path style="fill:#428DFF;" d="M52.251,145.067c3.45-0.014,6.556-2.096,7.879-5.282c1.323-3.187,0.606-6.856-1.82-9.31
				l-1.279-1.025c-0.476-0.324-0.993-0.583-1.538-0.771c-0.484-0.246-1.003-0.417-1.538-0.508c-0.563-0.096-1.133-0.153-1.704-0.171
				c-2.259,0.031-4.423,0.915-6.059,2.475c-2.07,1.994-2.979,4.908-2.409,7.726c0.57,2.818,2.539,5.149,5.222,6.183
				C50.031,144.821,51.134,145.053,52.251,145.067z"/>
			<path style="fill:#428DFF;" d="M129.051,230.4h68.267c9.421-0.011,17.056-7.645,17.067-17.067v-42.208l30.121-18.825
				c2.584-1.615,4.11-4.486,4.004-7.532c-0.107-3.046-1.83-5.803-4.521-7.233c-2.691-1.43-5.94-1.317-8.525,0.298l-21.079,13.172
				v-5.939c-0.011-9.421-7.645-17.056-17.067-17.067h-68.267c-9.421,0.011-17.056,7.645-17.067,17.067v68.267
				C111.995,222.754,119.629,230.389,129.051,230.4z M129.051,145.067h68.267l0.003,16.604l-24.37,15.229l-12.267-12.266
				c-3.341-3.281-8.701-3.256-12.012,0.054c-3.311,3.311-3.335,8.671-0.054,12.012l17.067,17.067c2.808,2.812,7.187,3.31,10.554,1.2
				l21.086-13.179l0.005,31.546h-68.279V145.067z"/>
			<path style="fill:#428DFF;" d="M239.984,179.2c-0.001,2.263,0.898,4.434,2.499,6.035c1.6,1.6,3.771,2.499,6.035,2.499h76.8
				c4.713,0,8.533-3.82,8.533-8.533s-3.82-8.533-8.533-8.533h-76.8c-2.263-0.001-4.434,0.898-6.035,2.499
				C240.882,174.766,239.983,176.937,239.984,179.2z"/>
			<path style="fill:#428DFF;" d="M129.051,349.867h68.267c9.421-0.011,17.056-7.645,17.067-17.067v-42.208l30.121-18.825
				c2.584-1.615,4.11-4.486,4.004-7.532c-0.107-3.046-1.83-5.803-4.521-7.233c-2.691-1.43-5.94-1.317-8.525,0.299l-21.079,13.173
				v-5.939c-0.011-9.421-7.645-17.056-17.067-17.067h-68.267c-9.421,0.011-17.056,7.645-17.067,17.067V332.8
				C111.995,342.221,119.629,349.856,129.051,349.867z M129.051,264.533h68.267l0.003,16.604l-24.37,15.229L160.684,284.1
				c-3.341-3.281-8.701-3.256-12.012,0.054c-3.311,3.311-3.335,8.671-0.054,12.012l17.067,17.067c2.808,2.812,7.187,3.31,10.554,1.2
				l21.086-13.179l0.005,31.546h-68.279V264.533z"/>
			<path style="fill:#428DFF;" d="M325.317,290.133h-76.8c-4.713,0-8.533,3.82-8.533,8.533s3.821,8.533,8.533,8.533h76.8
				c4.713,0,8.533-3.82,8.533-8.533S330.03,290.133,325.317,290.133z"/>
		</g>
	</g>
</g>
<g>
</g>
<g>
</g>
<g>
</g>
<g>
</g>
<g>
</g>
<g>
</g>
<g>
</g>
<g>
</g>
<g>
</g>
<g>
</g>
<g>
</g>
<g>
</g>
<g>
</g>
<g>
</g>
<g>
</g>
</svg>
