<?xml version="1.0" encoding="iso-8859-1"?>
<!-- Generator: Adobe Illustrator 19.0.0, SVG Export Plug-In . SVG Version: 6.00 Build 0)  -->
<svg version="1.1" id="Capa_1" xmlns="http://www.w3.org/2000/svg" xmlns:xlink="http://www.w3.org/1999/xlink" x="0px" y="0px"
	 viewBox="0 0 512.009 512.009" style="enable-background:new 0 0 512.009 512.009;" xml:space="preserve">
<g>
	<g transform="translate(2 1)">
		<path style="fill:#D4E1F4;" d="M455.806,54.693L441.734,75.8v187.733h-34.133V75.8l-14.071-21.107
			c-1.829-2.744-1.914-6.296-0.217-9.124l22.822-38.036h17.067l22.822,38.036C457.719,48.397,457.635,51.949,455.806,54.693z"/>
		<g>
			<path style="fill:#A4C2F7;" d="M40.667,178.2h17.067v42.667H40.667c-9.426,0-17.067-7.641-17.067-17.067v-8.533
				C23.601,185.841,31.242,178.2,40.667,178.2z"/>
			<path style="fill:#A4C2F7;" d="M40.667,255h17.067v85.333H40.667c-9.426,0-17.067-7.641-17.067-17.067v-51.2
				C23.601,262.641,31.242,255,40.667,255z"/>
			<path style="fill:#A4C2F7;" d="M118.406,7.533h100.523c9.944,0,18.005,8.061,18.005,18.005v458.923
				c0,9.944-8.061,18.005-18.005,18.005H118.406c-9.944,0-18.005-8.061-18.005-18.005V25.539
				C100.401,15.595,108.462,7.533,118.406,7.533z"/>
		</g>
		<path style="fill:#E3E7F2;" d="M118.406,7.533h74.923c9.944,0,18.005,8.061,18.005,18.005v458.923
			c0,9.944-8.061,18.005-18.005,18.005h-74.923c-9.944,0-18.005-8.061-18.005-18.005V25.539
			C100.401,15.595,108.462,7.533,118.406,7.533z"/>
		<path style="fill:#A4C2F7;" d="M70.961,135.533h195.413c12.018,0,21.76,9.742,21.76,21.76v195.413
			c0,12.018-9.742,21.76-21.76,21.76H70.961c-12.018,0-21.76-9.742-21.76-21.76V157.293
			C49.201,145.276,58.943,135.533,70.961,135.533z"/>
		
			<linearGradient id="SVGID_1_" gradientUnits="userSpaceOnUse" x1="-50.7697" y1="651.3648" x2="-49.7694" y2="650.4717" gradientTransform="matrix(213.3333 0 0 -238.9333 10880.0391 155781.0781)">
			<stop  offset="0" style="stop-color:#D3DFF2"/>
			<stop  offset="0.1717" style="stop-color:#D3DFF2"/>
			<stop  offset="0.2" style="stop-color:#D3DFF2"/>
			<stop  offset="0.2002" style="stop-color:#DAE2F2"/>
			<stop  offset="0.2007" style="stop-color:#EBEAF2"/>
			<stop  offset="0.2014" style="stop-color:#F6EFF2"/>
			<stop  offset="0.2023" style="stop-color:#FDF2F2"/>
			<stop  offset="0.205" style="stop-color:#FFF3F2"/>
			<stop  offset="0.2522" style="stop-color:#FFF3F2"/>
			<stop  offset="0.26" style="stop-color:#FFF3F2"/>
			<stop  offset="0.26" style="stop-color:#D3DFF2"/>
			<stop  offset="0.3974" style="stop-color:#D3DFF2"/>
			<stop  offset="0.42" style="stop-color:#D3DFF2"/>
			<stop  offset="0.4202" style="stop-color:#DAE2F2"/>
			<stop  offset="0.4207" style="stop-color:#EBEAF2"/>
			<stop  offset="0.4214" style="stop-color:#F6EFF2"/>
			<stop  offset="0.4223" style="stop-color:#FDF2F2"/>
			<stop  offset="0.425" style="stop-color:#FFF3F2"/>
			<stop  offset="0.4894" style="stop-color:#FFF3F2"/>
			<stop  offset="0.5" style="stop-color:#FFF3F2"/>
			<stop  offset="0.5" style="stop-color:#F8F0F2"/>
			<stop  offset="0.5001" style="stop-color:#E7E8F2"/>
			<stop  offset="0.5003" style="stop-color:#DCE3F2"/>
			<stop  offset="0.5005" style="stop-color:#D5E0F2"/>
			<stop  offset="0.501" style="stop-color:#D3DFF2"/>
			<stop  offset="0.7062" style="stop-color:#D3DFF2"/>
			<stop  offset="0.74" style="stop-color:#D3DFF2"/>
			<stop  offset="0.741" style="stop-color:#FFF3F2"/>
			<stop  offset="0.8346" style="stop-color:#FFF3F2"/>
			<stop  offset="0.85" style="stop-color:#FFF3F2"/>
			<stop  offset="0.851" style="stop-color:#D3DFF2"/>
		</linearGradient>
		<path style="fill:url(#SVGID_1_);" d="M70.961,135.533h169.813c12.018,0,21.76,9.742,21.76,21.76v195.413
			c0,12.018-9.742,21.76-21.76,21.76H70.961c-12.018,0-21.76-9.742-21.76-21.76V157.293
			C49.201,145.276,58.943,135.533,70.961,135.533z"/>
		<path style="fill:#FFFFFF;" d="M244.614,266.265c1.138-7.467,1.138-15.063,0-22.529l-15.36-5.12
			c-1.387-5.225-3.453-10.245-6.144-14.933l7.253-14.421c-4.554-6.033-9.924-11.404-15.957-15.957l-14.422,7.253
			c-4.688-2.691-9.709-4.757-14.933-6.145l-5.119-15.359c-7.467-1.138-15.063-1.138-22.529,0l-5.119,15.359
			c-5.225,1.388-10.245,3.453-14.933,6.145l-14.422-7.253c-6.033,4.554-11.404,9.924-15.957,15.957l7.253,14.421
			c-2.691,4.688-4.757,9.709-6.144,14.933l-15.36,5.12c-1.138,7.467-1.138,15.063,0,22.529l15.36,5.119
			c1.387,5.225,3.452,10.245,6.144,14.933l-7.253,14.421c4.554,6.033,9.924,11.404,15.957,15.957l14.422-7.253
			c4.688,2.692,9.709,4.757,14.933,6.144l5.119,15.359c7.467,1.139,15.063,1.139,22.529,0l5.119-15.359
			c5.225-1.387,10.245-3.452,14.933-6.144l14.422,7.253c6.033-4.554,11.404-9.924,15.957-15.957l-7.253-14.422
			c2.692-4.688,4.757-9.708,6.144-14.933L244.614,266.265z M168.667,280.6c-14.138,0-25.6-11.461-25.6-25.6
			c0-14.138,11.462-25.6,25.6-25.6c14.139,0,25.6,11.462,25.6,25.6c0.009,6.792-2.685,13.309-7.488,18.112
			C181.976,277.915,175.46,280.609,168.667,280.6z"/>
		<path style="fill:#A4C2F7;" d="M458.801,323.267c-0.015,16.121,11.274,30.046,27.05,33.365c4.079,0.758,7.048,4.3,7.083,8.448
			v66.817c0.595,20.763-8.249,40.677-24.051,54.158c-15.802,13.481-36.862,19.077-57.271,15.218
			c-32.063-6.298-55.192-34.396-55.211-67.072v-69.121c0.035-4.148,3.005-7.69,7.083-8.448c15.768-3.333,27.05-17.249,27.05-33.365
			c0-16.116-11.282-30.032-27.05-33.365c-4.079-0.757-7.049-4.299-7.083-8.448v-17.92c0.027-9.414,7.652-17.039,17.067-17.067h102.4
			c9.414,0.027,17.039,7.652,17.067,17.067v17.92c-0.035,4.148-3.004,7.691-7.083,8.448
			C470.075,293.221,458.786,307.145,458.801,323.267z"/>
		<path style="fill:#E3E7F2;" d="M433.201,323.267c-0.015,16.121,11.274,30.046,27.05,33.365c4.079,0.758,7.048,4.3,7.083,8.448
			v66.817c0.299,33.438-23.007,62.455-55.723,69.376c-32.063-6.298-55.192-34.396-55.211-67.072v-69.121
			c0.035-4.148,3.005-7.69,7.083-8.448c15.768-3.333,27.05-17.249,27.05-33.365c0-16.116-11.282-30.032-27.05-33.365
			c-4.079-0.757-7.049-4.299-7.083-8.448v-17.92c0.027-9.414,7.652-17.039,17.067-17.067h76.8
			c9.414,0.027,17.039,7.652,17.067,17.067v17.92c-0.035,4.148-3.004,7.691-7.083,8.448
			C444.475,293.221,433.186,307.145,433.201,323.267z"/>
		<path style="fill:#A4C2F7;" d="M416.134,365.933h17.067c4.713,0,8.533,3.821,8.533,8.533v76.8c0,9.426-7.641,17.067-17.067,17.067
			c-9.426,0-17.067-7.641-17.067-17.067v-76.8C407.601,369.754,411.421,365.933,416.134,365.933z"/>
	</g>
	<g transform="translate(5 1)">
		<path style="fill:#FFFFFF;" d="M97.401,25.539l0,109.995h25.6V25.539c-0.014-4.779,1.879-9.367,5.259-12.747
			c3.38-3.38,7.967-5.272,12.747-5.259l-25.6,0c-4.779-0.014-9.367,1.879-12.747,5.259S97.387,20.759,97.401,25.539z"/>
		<path style="fill:#FFFFFF;" d="M115.406,502.467l25.6,0c-4.779,0.014-9.367-1.879-12.747-5.259
			c-3.38-3.38-5.272-7.967-5.259-12.747V374.467h-25.6l0,109.995c-0.014,4.779,1.879,9.367,5.259,12.747
			C106.039,500.588,110.627,502.48,115.406,502.467z"/>
		<path style="fill:#FFFFFF;" d="M408.611,501.272c5.794,1.076,11.7,1.42,17.579,1.024c2.664-0.185,5.313-0.534,7.934-1.045
			c-32.022-6.331-55.105-34.41-55.124-67.051v-69.121c0.035-4.148,3.005-7.69,7.083-8.448c15.768-3.333,27.05-17.249,27.05-33.365
			c0-16.116-11.282-30.032-27.05-33.365c-4.079-0.757-7.049-4.299-7.083-8.448v-17.92c0.027-9.414,7.652-17.039,17.067-17.067h-25.6
			c-9.414,0.027-17.039,7.652-17.067,17.067v17.92c0.035,4.148,3.004,7.691,7.083,8.448c15.768,3.333,27.05,17.249,27.05,33.365
			s-11.282,30.032-27.05,33.365c-4.079,0.758-7.048,4.3-7.083,8.448V434.2C353.419,466.876,376.548,494.974,408.611,501.272z"/>
		<path style="fill:#FFFFFF;" d="M71.801,356.461V153.539c-0.014-4.779,1.879-9.367,5.259-12.747s7.967-5.272,12.747-5.259l-25.6,0
			c-4.779-0.014-9.367,1.879-12.747,5.259s-5.272,7.967-5.259,12.747v202.923c-0.014,4.779,1.879,9.367,5.259,12.747
			c3.38,3.38,7.967,5.272,12.747,5.259l25.6,0c-4.779,0.014-9.367-1.879-12.747-5.259C73.68,365.829,71.787,361.241,71.801,356.461z
			"/>
	</g>
	<g>
		<path style="fill:#FFFFFF;" d="M110.934,375.467l0.035,110.499c0.127,2.845,1.55,5.474,3.862,7.137
			c1.121,0.84,2.422,1.407,3.801,1.656c0.795,0.132,1.6,0.19,2.406,0.174h99.907v17.067L121.038,512
			c-1.86,0.011-3.717-0.145-5.549-0.467c-3.884-0.719-7.553-2.31-10.733-4.654c-6.455-4.702-10.437-12.071-10.831-20.048
			l-0.057-111.365H110.934z"/>
		<g>
			<path style="fill:#428DFF;" d="M170.667,290.133c18.851,0,34.133-15.282,34.133-34.133c0-18.851-15.282-34.133-34.133-34.133
				S136.534,237.149,136.534,256C136.553,274.844,151.824,290.115,170.667,290.133z M170.667,238.933
				c9.426,0,17.067,7.641,17.067,17.067c0,9.426-7.641,17.067-17.067,17.067c-9.426,0-17.067-7.641-17.067-17.067
				C153.613,246.579,161.247,238.946,170.667,238.933z"/>
			<path style="fill:#428DFF;" d="M91.992,275.333l11.192,3.733c0.972,2.851,2.124,5.637,3.45,8.342l-5.275,10.55
				c-1.433,2.874-1.134,6.309,0.775,8.892c2.496,3.359,5.234,6.531,8.192,9.492c2.957,2.962,6.129,5.7,9.492,8.192
				c2.586,1.901,6.016,2.2,8.892,0.775l10.55-5.275c2.705,1.326,5.491,2.478,8.342,3.45l3.733,11.192
				c1.012,3.047,3.65,5.266,6.825,5.742c8.294,1.222,16.723,1.222,25.017,0c3.175-0.476,5.813-2.695,6.825-5.742l3.733-11.192
				c2.851-0.972,5.637-2.124,8.342-3.45l10.55,5.275c2.873,1.438,6.311,1.138,8.892-0.775c6.729-4.996,12.687-10.954,17.683-17.684
				c1.909-2.583,2.208-6.018,0.775-8.892l-5.275-10.55c1.326-2.705,2.478-5.491,3.45-8.342l11.192-3.733
				c3.047-1.012,5.266-3.65,5.742-6.825c1.222-8.294,1.222-16.723,0-25.017c-0.476-3.175-2.695-5.813-5.742-6.825l-11.192-3.733
				c-0.972-2.851-2.124-5.637-3.45-8.342l5.275-10.55c1.433-2.874,1.134-6.309-0.775-8.892
				c-4.996-6.729-10.954-12.687-17.683-17.683c-2.581-1.913-6.018-2.212-8.892-0.775l-10.55,5.275
				c-2.705-1.326-5.491-2.478-8.342-3.45l-3.733-11.192c-1.012-3.047-3.65-5.266-6.825-5.742c-8.293-1.233-16.723-1.233-25.017,0
				c-3.175,0.476-5.813,2.695-6.825,5.742l-3.733,11.192c-2.851,0.972-5.637,2.124-8.342,3.45l-10.55-5.275
				c-2.876-1.425-6.306-1.126-8.892,0.775c-3.365,2.494-6.541,5.235-9.5,8.2c-2.955,2.958-5.69,6.128-8.183,9.483
				c-1.909,2.583-2.208,6.018-0.775,8.892l5.275,10.55c-1.326,2.705-2.478,5.491-3.45,8.342l-11.192,3.733
				c-3.047,1.012-5.266,3.65-5.742,6.825c-1.222,8.294-1.222,16.723,0,25.017C86.726,271.683,88.946,274.322,91.992,275.333z
				 M102.567,251.125l10.192-3.4c2.714-0.903,4.795-3.106,5.542-5.867c1.205-4.509,2.995-8.84,5.325-12.883
				c1.434-2.483,1.525-5.519,0.242-8.083l-4.8-9.591c1.058-1.217,2.167-2.417,3.325-3.575c1.167-1.167,2.35-2.275,3.567-3.325
				l9.6,4.8c2.566,1.274,5.598,1.184,8.083-0.242c4.043-2.33,8.375-4.12,12.883-5.325c2.761-0.747,4.964-2.828,5.867-5.542
				l3.4-10.192c3.246-0.217,6.504-0.217,9.75,0l3.4,10.192c0.903,2.714,3.106,4.795,5.867,5.542
				c4.509,1.205,8.84,2.995,12.883,5.325c2.484,1.43,5.519,1.52,8.083,0.242l9.6-4.8c1.217,1.05,2.4,2.158,3.567,3.325
				c1.167,1.167,2.275,2.35,3.325,3.567l-4.8,9.6c-1.283,2.564-1.192,5.601,0.242,8.083c2.33,4.043,4.12,8.375,5.325,12.883
				c0.747,2.761,2.828,4.964,5.542,5.867l10.192,3.4c0.108,1.6,0.167,3.217,0.167,4.875c0,1.658-0.058,3.275-0.167,4.875
				l-10.192,3.4c-2.714,0.903-4.795,3.106-5.542,5.867c-1.205,4.509-2.995,8.84-5.325,12.883c-1.434,2.483-1.525,5.519-0.242,8.083
				l4.8,9.6c-1.05,1.217-2.158,2.4-3.325,3.567c-1.167,1.167-2.35,2.275-3.567,3.325l-9.6-4.8c-2.564-1.283-5.601-1.192-8.083,0.242
				c-4.043,2.33-8.375,4.12-12.883,5.325c-2.761,0.747-4.964,2.828-5.867,5.542l-3.4,10.192c-3.246,0.217-6.504,0.217-9.75,0
				l-3.4-10.192c-0.903-2.714-3.106-4.795-5.867-5.542c-4.509-1.205-8.84-2.995-12.883-5.325c-2.484-1.43-5.519-1.52-8.083-0.242
				l-9.6,4.8c-1.208-1.05-2.392-2.15-3.558-3.317c-1.158-1.167-2.275-2.358-3.333-3.583l4.8-9.591
				c1.283-2.564,1.192-5.601-0.242-8.083c-2.33-4.043-4.12-8.375-5.325-12.883c-0.747-2.761-2.828-4.964-5.542-5.867l-10.192-3.4
				c-0.108-1.601-0.167-3.217-0.167-4.876C102.401,254.342,102.459,252.725,102.567,251.125z"/>
			<path style="fill:#428DFF;" d="M102.401,452.267c3.45-0.014,6.556-2.096,7.879-5.282c1.323-3.187,0.606-6.856-1.82-9.31
				l-1.279-1.025c-0.476-0.324-0.993-0.583-1.538-0.771c-0.484-0.246-1.002-0.417-1.537-0.508c-0.564-0.096-1.133-0.153-1.705-0.171
				c-2.259,0.031-4.423,0.915-6.059,2.475c-2.07,1.994-2.979,4.908-2.409,7.726c0.57,2.818,2.539,5.149,5.222,6.183
				C100.182,452.021,101.284,452.253,102.401,452.267z"/>
			<path style="fill:#428DFF;" d="M34.134,349.867h8.533v3.875c0.02,16.703,13.555,30.239,30.258,30.258h20.942v25.6
				c0,4.713,3.821,8.533,8.533,8.533c4.713,0,8.533-3.821,8.533-8.533V384h119.467v101.475c-0.005,5.222-4.237,9.453-9.458,9.458
				h-99.905c-0.805,0.016-1.611-0.042-2.405-0.174c-1.379-0.249-2.68-0.816-3.801-1.656c-2.311-1.663-3.734-4.293-3.861-7.137
				l-0.036-8.099c0-4.713-3.821-8.533-8.533-8.533c-4.713,0-8.533,3.821-8.533,8.533c0.026,3.036-0.057,5.258,0.057,8.965
				c0.394,7.976,4.376,15.346,10.831,20.048c3.179,2.344,6.849,3.935,10.732,4.654c1.832,0.322,3.689,0.478,5.549,0.467h99.907
				c14.642-0.018,26.506-11.883,26.523-26.525V384h20.942c16.703-0.02,30.239-13.555,30.258-30.258V158.258
				c-0.02-16.703-13.555-30.239-30.258-30.258h-20.942V26.525C247.45,11.883,235.585,0.017,220.942,0h-100.55
				C105.75,0.017,93.885,11.883,93.867,26.525V128H72.926c-16.703,0.02-30.239,13.555-30.258,30.258v12.408h-8.533
				c-14.132,0.015-25.585,11.468-25.6,25.6v8.533c0.015,14.132,11.468,25.585,25.6,25.6h8.533v17.067h-8.533
				c-14.132,0.015-25.585,11.468-25.6,25.6v51.2C8.55,338.399,20.002,349.851,34.134,349.867z M110.934,26.525
				c0.005-5.222,4.237-9.453,9.458-9.458h100.55c5.222,0.005,9.453,4.237,9.458,9.458V128H110.934V26.525z M59.734,158.258
				c0.007-7.282,5.909-13.184,13.192-13.192h195.483c7.282,0.007,13.184,5.909,13.192,13.192v195.483
				c-0.007,7.282-5.909,13.184-13.192,13.192H72.926c-7.282-0.007-13.184-5.909-13.192-13.192V158.258z M34.134,213.333
				c-4.712-0.003-8.53-3.822-8.533-8.533v-8.533c0.003-4.712,3.822-8.53,8.533-8.533h8.533v25.6H34.134z M25.601,273.067
				c0.003-4.712,3.822-8.53,8.533-8.533h8.533V332.8h-8.533c-4.712-0.003-8.53-3.822-8.533-8.533V273.067z"/>
			<path style="fill:#428DFF;" d="M489.609,299.217c8.024-1.544,13.832-8.554,13.858-16.725v-17.958
				c-0.015-14.132-11.468-25.585-25.6-25.6h-25.6V79.383l12.642-18.958v-0.009c3.633-5.494,3.801-12.582,0.433-18.242L442.517,4.142
				C440.975,1.572,438.198,0,435.201,0h-17.067c-2.997,0-5.774,1.572-7.317,4.142l-22.833,38.05
				c-3.361,5.66-3.189,12.743,0.442,18.233l12.642,18.958v159.55h-25.6c-14.132,0.015-25.585,11.468-25.6,25.6v17.958
				c0.025,8.169,5.829,15.177,13.85,16.725c11.825,2.515,20.282,12.957,20.284,25.047c0.002,12.09-8.451,22.535-20.275,25.053
				c-8.024,1.544-13.832,8.554-13.858,16.725V435.2c0.033,21.221,8.811,41.491,24.267,56.033
				c14.18,13.398,32.966,20.836,52.475,20.775c1.7,0,3.408-0.056,5.125-0.167c40.95-3.377,72.294-37.882,71.733-78.967v-66.833
				c-0.025-8.169-5.829-15.177-13.85-16.725c-11.825-2.515-20.281-12.957-20.284-25.047
				C469.332,312.18,477.785,301.736,489.609,299.217L489.609,299.217z M416.701,72.067l-14.075-21.108l20.342-33.892h7.4
				l20.333,33.875l0.009,0.025l-14.075,21.1c-0.934,1.402-1.433,3.049-1.434,4.733v162.133h-17.067V76.8
				C418.133,75.115,417.635,73.469,416.701,72.067z M486.401,366.042v66.833c0.574,32.091-23.791,59.151-55.767,61.933
				c-16.496,1.099-32.71-4.688-44.782-15.985s-18.921-27.091-18.918-43.624l0.3-69.183c19.778-4.18,33.906-21.67,33.833-41.885
				s-14.325-37.602-34.133-41.64v-17.958c0.003-4.712,3.822-8.53,8.533-8.533h102.4c4.712,0.003,8.53,3.822,8.533,8.533l-0.3,17.983
				c-19.778,4.18-33.906,21.67-33.833,41.885C452.34,344.616,466.593,362.004,486.401,366.042z"/>
			<path style="fill:#428DFF;" d="M443.734,358.4h-34.133c-2.264-0.001-4.435,0.897-6.035,2.498
				c-1.601,1.601-2.499,3.772-2.498,6.035v85.333c0,14.138,11.462,25.6,25.6,25.6c14.138,0,25.6-11.462,25.6-25.6v-85.333
				c0.001-2.264-0.897-4.435-2.498-6.035C448.169,359.297,445.998,358.399,443.734,358.4z M435.201,452.267
				c0,4.713-3.82,8.533-8.533,8.533s-8.533-3.82-8.533-8.533v-76.8h17.067V452.267z"/>
		</g>
	</g>
</g>
<g>
</g>
<g>
</g>
<g>
</g>
<g>
</g>
<g>
</g>
<g>
</g>
<g>
</g>
<g>
</g>
<g>
</g>
<g>
</g>
<g>
</g>
<g>
</g>
<g>
</g>
<g>
</g>
<g>
</g>
</svg>
