<?xml version="1.0" encoding="iso-8859-1"?>
<!-- Generator: Adobe Illustrator 19.0.0, SVG Export Plug-In . SVG Version: 6.00 Build 0)  -->
<svg version="1.1" id="Capa_1" xmlns="http://www.w3.org/2000/svg" xmlns:xlink="http://www.w3.org/1999/xlink" x="0px" y="0px"
	 viewBox="0 0 512.001 512.001" style="enable-background:new 0 0 512.001 512.001;" xml:space="preserve">
<g>
	<g transform="translate(2 1)">
		<path style="fill:#E3E7F2;" d="M211.334,7.533l42.667,0c8.722-0.018,17.439,0.438,26.112,1.365l22.357,55.893
			c18.156,4.64,35.545,11.883,51.627,21.504l55.467-23.808c6.741,5.461,13.227,11.349,19.456,17.493
			c6.144,6.229,12.032,12.715,17.493,19.456l-23.808,55.467c9.621,16.081,16.864,33.471,21.504,51.627l55.893,22.357
			c1.82,17.36,1.82,34.864,0,52.224l-55.893,22.357c-4.64,18.156-11.883,35.545-21.504,51.627l23.808,55.467
			c-5.461,6.741-11.349,13.227-17.493,19.456c-6.229,6.144-12.715,12.032-19.456,17.493l-55.467-23.808
			c-16.081,9.621-33.471,16.864-51.627,21.504l-22.357,55.893c-8.673,0.927-17.39,1.383-26.112,1.365l-42.667,0v-102.4l17.067,6.315
			c8.453,1.477,17.019,2.219,25.6,2.219c84.831,0,153.6-68.769,153.6-153.6S338.831,101.4,254,101.4
			c-8.581,0-17.147,0.742-25.6,2.219l-17.067,14.848V7.533z"/>
		<g>
			<path style="fill:#A4C2F7;" d="M32.134,178.2H49.2v42.667H32.134c-9.426,0-17.067-7.641-17.067-17.067v-8.533
				C15.067,185.841,22.708,178.2,32.134,178.2z"/>
			<path style="fill:#A4C2F7;" d="M32.134,255H49.2v85.333H32.134c-9.426,0-17.067-7.641-17.067-17.067v-51.2
				C15.067,262.641,22.708,255,32.134,255z"/>
			<path style="fill:#A4C2F7;" d="M109.872,7.534h100.523c9.944,0,18.005,8.061,18.005,18.005v458.923
				c0,9.944-8.061,18.005-18.005,18.005H109.872c-9.944,0-18.005-8.061-18.005-18.005V25.539
				C91.867,15.595,99.928,7.534,109.872,7.534z"/>
		</g>
		<path style="fill:#E3E7F2;" d="M109.872,7.534h74.923c9.944,0,18.005,8.061,18.005,18.005v458.923
			c0,9.944-8.061,18.005-18.005,18.005h-74.923c-9.944,0-18.005-8.061-18.005-18.005V25.539
			C91.867,15.595,99.928,7.534,109.872,7.534z"/>
		<path style="fill:#A4C2F7;" d="M62.427,135.534H257.84c12.018,0,21.76,9.742,21.76,21.76v195.413
			c0,12.018-9.742,21.76-21.76,21.76H62.427c-12.018,0-21.76-9.742-21.76-21.76V157.294
			C40.667,145.276,50.409,135.534,62.427,135.534z"/>
		
			<linearGradient id="SVGID_1_" gradientUnits="userSpaceOnUse" x1="-50.7702" y1="651.3652" x2="-49.7699" y2="650.4721" gradientTransform="matrix(213.3333 0 0 -238.9333 10871.6045 155781.1875)">
			<stop  offset="0" style="stop-color:#D3DFF2"/>
			<stop  offset="0.1717" style="stop-color:#D3DFF2"/>
			<stop  offset="0.2" style="stop-color:#D3DFF2"/>
			<stop  offset="0.2002" style="stop-color:#DAE2F2"/>
			<stop  offset="0.2007" style="stop-color:#EBEAF2"/>
			<stop  offset="0.2014" style="stop-color:#F6EFF2"/>
			<stop  offset="0.2023" style="stop-color:#FDF2F2"/>
			<stop  offset="0.205" style="stop-color:#FFF3F2"/>
			<stop  offset="0.2522" style="stop-color:#FFF3F2"/>
			<stop  offset="0.26" style="stop-color:#FFF3F2"/>
			<stop  offset="0.26" style="stop-color:#D3DFF2"/>
			<stop  offset="0.3974" style="stop-color:#D3DFF2"/>
			<stop  offset="0.42" style="stop-color:#D3DFF2"/>
			<stop  offset="0.4202" style="stop-color:#DAE2F2"/>
			<stop  offset="0.4207" style="stop-color:#EBEAF2"/>
			<stop  offset="0.4214" style="stop-color:#F6EFF2"/>
			<stop  offset="0.4223" style="stop-color:#FDF2F2"/>
			<stop  offset="0.425" style="stop-color:#FFF3F2"/>
			<stop  offset="0.4894" style="stop-color:#FFF3F2"/>
			<stop  offset="0.5" style="stop-color:#FFF3F2"/>
			<stop  offset="0.5" style="stop-color:#F8F0F2"/>
			<stop  offset="0.5001" style="stop-color:#E7E8F2"/>
			<stop  offset="0.5003" style="stop-color:#DCE3F2"/>
			<stop  offset="0.5005" style="stop-color:#D5E0F2"/>
			<stop  offset="0.501" style="stop-color:#D3DFF2"/>
			<stop  offset="0.7062" style="stop-color:#D3DFF2"/>
			<stop  offset="0.74" style="stop-color:#D3DFF2"/>
			<stop  offset="0.741" style="stop-color:#FFF3F2"/>
			<stop  offset="0.8346" style="stop-color:#FFF3F2"/>
			<stop  offset="0.85" style="stop-color:#FFF3F2"/>
			<stop  offset="0.851" style="stop-color:#D3DFF2"/>
		</linearGradient>
		<path style="fill:url(#SVGID_1_);" d="M62.427,135.534H232.24c12.018,0,21.76,9.742,21.76,21.76v195.413
			c0,12.018-9.742,21.76-21.76,21.76H62.427c-12.018,0-21.76-9.742-21.76-21.76V157.294
			C40.667,145.276,50.409,135.534,62.427,135.534z"/>
		<path style="fill:#E3E7F2;" d="M235.861,310.991L165.937,181.93c-1.038-2.272-3.306-3.729-5.804-3.729s-4.766,1.457-5.804,3.729
			L84.405,310.991c-1.436,2.333-1.596,5.234-0.425,7.711s3.514,4.194,6.229,4.565h139.848c2.715-0.371,5.058-2.088,6.229-4.565
			C237.457,316.225,237.297,313.324,235.861,310.991z"/>
		<path style="fill:#A4C2F7;" d="M444.208,302.065c-4.634,18.317-11.876,35.873-21.504,52.13l23.808,56.008
			c-5.463,6.807-11.35,13.356-17.493,19.646c-6.229,6.204-12.715,12.149-19.456,17.664l-17.067-7.411
			c3.754-3.273,7.34-6.721,10.923-10.253c6.144-6.29,12.031-12.839,17.493-19.646l-23.808-56.008
			c9.628-16.257,16.87-33.813,21.504-52.13l55.893-22.574c1.819-17.531,1.819-35.203,0-52.734l-55.893-22.574
			c-4.633-18.317-11.875-35.873-21.504-52.13l23.808-56.008c-5.462-6.807-11.349-13.356-17.493-19.646
			c-3.583-3.533-7.169-6.98-10.923-10.253l17.067-7.411c6.741,5.515,13.227,11.46,19.456,17.664
			c6.144,6.29,12.031,12.839,17.493,19.646l-23.808,56.008c9.629,16.257,16.871,33.813,21.504,52.13l55.893,22.574
			c1.819,17.531,1.819,35.203,0,52.734L444.208,302.065z"/>
	</g>
	<g transform="translate(5 1)">
		<path style="fill:#FFFFFF;" d="M406.624,447.46c2.884-2.337,5.697-4.786,8.487-7.266l-38.414-16.49
			c-3.658,2.183-7.411,4.223-11.219,6.173l40.981,17.591l0.104,0.045L406.624,447.46z"/>
		<path style="fill:#FFFFFF;" d="M106.872,502.467l25.6,0c-4.779,0.014-9.367-1.879-12.747-5.259
			c-3.38-3.38-5.272-7.967-5.259-12.747V374.467h-25.6l0,109.995c-0.014,4.78,1.879,9.367,5.259,12.747
			C97.505,500.588,102.093,502.481,106.872,502.467z"/>
		<path style="fill:#FFFFFF;" d="M233.934,7.628V7.534h-0.939C233.317,7.534,233.616,7.611,233.934,7.628z"/>
		<path style="fill:#FFFFFF;" d="M233.934,502.373c-0.318,0.017-0.617,0.094-0.939,0.094h0.939V502.373z"/>
		<path style="fill:#FFFFFF;" d="M114.467,25.539c-0.014-4.779,1.879-9.367,5.259-12.747s7.967-5.272,12.747-5.259l-25.6,0
			c-4.779-0.014-9.367,1.879-12.747,5.259c-3.38,3.38-5.272,7.967-5.259,12.747l0,109.995h25.6V25.539z"/>
		<path style="fill:#FFFFFF;" d="M63.267,356.462V153.539c-0.014-4.779,1.879-9.367,5.259-12.747
			c3.38-3.38,7.967-5.272,12.747-5.259l-25.6,0c-4.779-0.014-9.367,1.879-12.747,5.259c-3.38,3.38-5.272,7.967-5.259,12.747v202.923
			c-0.014,4.78,1.879,9.367,5.259,12.747c3.38,3.38,7.967,5.272,12.747,5.259l25.6,0c-4.779,0.014-9.367-1.879-12.747-5.259
			C65.146,365.829,63.253,361.241,63.267,356.462z"/>
	</g>
	<g>
		<path style="fill:#FFFFFF;" d="M102.4,375.467l0.035,110.499c0.127,2.845,1.55,5.474,3.862,7.137
			c1.121,0.84,2.422,1.407,3.801,1.656c0.795,0.132,1.6,0.19,2.406,0.174h99.907v17.067L112.504,512
			c-1.86,0.011-3.717-0.145-5.549-0.467c-3.884-0.719-7.553-2.31-10.733-4.654c-6.455-4.702-10.437-12.071-10.831-20.048
			l-0.057-111.365H102.4z"/>
		<g>
			<path style="fill:#428DFF;" d="M505.267,221.967l-51.917-20.767c-4.462-16.022-10.883-31.433-19.117-45.884L456.35,103.8
				c1.251-2.914,0.782-6.28-1.217-8.742c-5.4-6.667-11.475-13.417-18.116-20.142c-6.658-6.575-13.408-12.65-20.075-18.05
				c-2.46-2.002-5.829-2.471-8.742-1.217l-51.517,22.117c-14.451-8.234-29.862-14.655-45.884-19.117L290.034,6.733
				c-1.172-2.929-3.863-4.974-7-5.316C274.055,0.456,265.03-0.017,256,0h-42.667c-0.11,0-0.2,0.058-0.309,0.062
				C212.815,0.058,212.619,0,212.409,0h-100.55C97.216,0.018,85.351,11.883,85.334,26.525V128H64.392
				c-16.703,0.02-30.239,13.555-30.258,30.258v12.408H25.6c-14.132,0.015-25.585,11.468-25.6,25.6v8.533
				c0.015,14.132,11.468,25.585,25.6,25.6h8.533v17.067H25.6c-14.132,0.015-25.585,11.468-25.6,25.6v51.2
				c0.015,14.132,11.468,25.585,25.6,25.6h8.533v3.875c0.02,16.703,13.555,30.239,30.258,30.258h20.942v25.6
				c0,4.713,3.821,8.533,8.533,8.533c4.713,0,8.533-3.82,8.533-8.533V384h119.467v101.475c-0.005,5.222-4.237,9.453-9.458,9.458
				h-99.905c-0.805,0.016-1.611-0.042-2.405-0.174c-1.379-0.249-2.68-0.816-3.801-1.656c-2.311-1.663-3.734-4.293-3.861-7.137
				l-0.036-8.099c0-4.713-3.821-8.533-8.533-8.533c-4.713,0-8.533,3.821-8.533,8.533c0.026,3.036-0.057,5.258,0.057,8.965
				c0.394,7.976,4.376,15.346,10.831,20.048c3.179,2.344,6.849,3.935,10.732,4.654c1.832,0.322,3.689,0.478,5.549,0.467h99.907
				c0.21,0,0.404-0.058,0.614-0.062c0.108,0.004,0.198,0.062,0.308,0.062H256c9.03,0.017,18.055-0.456,27.034-1.417
				c3.136-0.343,5.828-2.387,7-5.316l20.767-51.917c16.022-4.462,31.433-10.883,45.884-19.117l51.517,22.117
				c2.913,1.254,6.282,0.786,8.742-1.217c6.667-5.4,13.417-11.475,20.142-18.116c6.575-6.658,12.65-13.408,18.05-20.075
				c1.999-2.461,2.467-5.828,1.217-8.742l-22.117-51.517c8.234-14.451,14.655-29.862,19.117-45.884l51.917-20.767
				c2.929-1.172,4.974-3.864,5.316-7c1.889-17.973,1.889-36.094,0-54.067C510.241,225.831,508.197,223.139,505.267,221.967z
				 M102.4,26.525c0.005-5.222,4.237-9.453,9.458-9.458h100.55c5.222,0.005,9.453,4.237,9.458,9.458V128H102.4V26.525z
				 M25.6,213.334c-4.712-0.003-8.53-3.822-8.533-8.533v-8.533c0.003-4.712,3.822-8.53,8.533-8.533h8.533v25.6H25.6z M25.6,332.8
				c-4.712-0.003-8.53-3.822-8.533-8.533v-51.2c0.003-4.712,3.822-8.53,8.533-8.533h8.533V332.8H25.6z M93.867,366.934H64.392
				c-7.282-0.008-13.184-5.909-13.192-13.192V158.259c0.007-7.282,5.909-13.184,13.192-13.192h195.483
				c7.282,0.007,13.184,5.909,13.192,13.192v195.483c-0.007,7.282-5.909,13.184-13.192,13.192H93.867z M259.875,384
				c16.703-0.02,30.239-13.555,30.258-30.258V158.259c-0.02-16.703-13.555-30.239-30.258-30.258h-20.942v-15.898
				c5.66-0.737,11.359-1.127,17.067-1.169c80.118,0,145.067,64.949,145.067,145.067S336.118,401.067,256,401.067
				c-5.707-0.042-11.407-0.432-17.067-1.169V384H259.875z M494.109,276.117l-51.066,20.425c-2.533,1.011-4.428,3.174-5.1,5.817
				c-4.437,17.362-11.364,33.99-20.567,49.367c-1.4,2.35-1.592,5.227-0.517,7.742l21.75,50.667c-4.2,4.95-8.767,9.933-13.592,14.817
				c-4.942,4.875-9.925,9.458-14.883,13.658l-50.667-21.75c-2.514-1.079-5.393-0.887-7.742,0.517
				c-15.377,9.202-32.005,16.13-49.367,20.567c-2.643,0.672-4.805,2.567-5.817,5.1l-20.425,51.067
				c-6.475,0.55-13.217,0.825-20.117,0.825h-18.889c1.185-3.014,1.803-6.22,1.822-9.458v-68.381
				c5.666,0.655,11.363,1.002,17.067,1.04c89.544,0,162.133-72.59,162.133-162.133S345.544,93.867,256,93.867
				c-5.703,0.038-11.401,0.385-17.067,1.04V26.525c-0.019-3.238-0.637-6.445-1.822-9.458H256c6.9,0,13.642,0.275,20.117,0.825
				l20.425,51.067c1.011,2.533,3.174,4.428,5.817,5.1c17.362,4.437,33.99,11.364,49.367,20.567c2.347,1.407,5.228,1.6,7.742,0.517
				l50.667-21.75c4.95,4.2,9.933,8.767,14.817,13.592c4.875,4.942,9.458,9.925,13.658,14.883l-21.75,50.667
				c-1.075,2.515-0.883,5.392,0.517,7.742c9.202,15.377,16.13,32.005,20.567,49.367c0.672,2.643,2.567,4.805,5.1,5.817
				l51.067,20.425c0.55,6.475,0.825,13.217,0.825,20.117S494.659,269.642,494.109,276.117z"/>
			<path style="fill:#428DFF;" d="M245.025,325.201c3.133-5.302,3.259-11.857,0.333-17.275l-69.925-129.066
				c-2.557-4.995-7.68-8.152-13.291-8.192h-0.009c-5.615,0.04-10.743,3.197-13.308,8.192L78.909,307.917
				c-2.926,5.421-2.799,11.979,0.333,17.283c2.662,4.66,7.6,7.554,12.967,7.6h139.85
				C237.425,332.755,242.364,329.861,245.025,325.201z M94.084,315.734l68.05-125.608l68.05,125.608H94.084z"/>
			<path style="fill:#428DFF;" d="M153.6,230.4V256c0,4.713,3.821,8.533,8.533,8.533s8.533-3.82,8.533-8.533v-25.6
				c0-4.713-3.821-8.533-8.533-8.533S153.6,225.688,153.6,230.4z"/>
			<path style="fill:#428DFF;" d="M93.867,452.267c3.45-0.014,6.556-2.096,7.879-5.282c1.323-3.187,0.606-6.856-1.82-9.31
				l-1.279-1.025c-0.476-0.324-0.993-0.583-1.538-0.771c-0.484-0.246-1.002-0.417-1.537-0.508c-0.564-0.096-1.133-0.153-1.705-0.171
				c-2.259,0.031-4.423,0.915-6.059,2.475c-2.07,1.994-2.979,4.908-2.409,7.726c0.57,2.818,2.539,5.149,5.222,6.183
				C91.648,452.022,92.751,452.254,93.867,452.267z"/>
			<path style="fill:#428DFF;" d="M165.375,282.284c-3.181-1.299-6.829-0.596-9.3,1.792c-0.772,0.816-1.38,1.772-1.792,2.817
				c-0.911,2.065-0.911,4.418,0,6.483c0.434,1.034,1.04,1.986,1.792,2.817c3.365,3.3,8.752,3.3,12.117,0
				c0.752-0.831,1.358-1.783,1.792-2.817c0.437-1.026,0.669-2.127,0.683-3.242c-0.033-2.259-0.917-4.422-2.475-6.059
				C167.361,283.323,166.409,282.717,165.375,282.284z"/>
		</g>
	</g>
</g>
<g>
</g>
<g>
</g>
<g>
</g>
<g>
</g>
<g>
</g>
<g>
</g>
<g>
</g>
<g>
</g>
<g>
</g>
<g>
</g>
<g>
</g>
<g>
</g>
<g>
</g>
<g>
</g>
<g>
</g>
</svg>
