<?xml version="1.0" encoding="iso-8859-1"?>
<!-- Generator: Adobe Illustrator 19.0.0, SVG Export Plug-In . SVG Version: 6.00 Build 0)  -->
<svg version="1.1" id="Capa_1" xmlns="http://www.w3.org/2000/svg" xmlns:xlink="http://www.w3.org/1999/xlink" x="0px" y="0px"
	 viewBox="0 0 512.002 512.002" style="enable-background:new 0 0 512.002 512.002;" xml:space="preserve">
<g>
	<g transform="translate(1 1)">
		<path style="fill:#A4C2F7;" d="M417.133,297.668c-0.029,113.096-91.704,204.771-204.8,204.8c-4.352,0-8.619-0.171-12.8-0.427
			c-107.922-6.744-192-96.24-192-204.373s84.077-197.629,192-204.373c4.181-0.257,8.448-0.428,12.8-0.428
			C325.429,92.897,417.104,184.572,417.133,297.668z"/>
		<ellipse style="fill:#E3E7F2;" cx="199.533" cy="297.668" rx="192" ry="204.373"/>
		<path style="fill:#D4E1F4;" d="M281.539,339.651c-21.541,21.59-52.979,30.02-82.432,22.102L95.256,465.603
			c-23.622-16.427-43.511-37.653-58.368-62.293l101.888-101.888c-8.704-32.7,2.712-67.455,29.11-88.624s62.803-24.765,92.831-9.167
			l-45.568,45.483c-6.571,6.709-6.571,17.44,0,24.149l12.117,12.118c6.709,6.57,17.44,6.57,24.149,0l45.483-45.483
			C314.059,272.943,307.845,313.297,281.539,339.651z"/>
		<path style="fill:#A4C2F7;" d="M502.467,109.934c0.007,27.16-10.779,53.211-29.984,72.416s-45.256,29.991-72.416,29.984
			c-4.281,0.019-8.559-0.266-12.8-0.854c-51.193-6.424-89.599-49.951-89.599-101.546s38.406-95.122,89.599-101.546
			c4.241-0.587,8.519-0.872,12.8-0.853c27.16-0.007,53.211,10.779,72.416,29.984S502.474,82.774,502.467,109.934z"/>
		<ellipse style="fill:#E3E7F2;" cx="387.267" cy="109.934" rx="89.6" ry="101.547"/>
	</g>
	<path style="fill:#FFFFFF;" d="M37.888,404.31c0.187,0.311,0.42,0.59,0.609,0.899c3.329,5.448,6.899,10.722,10.71,15.823
		c0.478,0.641,0.947,1.283,1.433,1.918c4.018,5.25,8.275,10.296,12.77,15.139c0.204,0.22,0.395,0.448,0.6,0.667
		c4.806,5.111,9.869,9.973,15.17,14.568l0.302,0.254c33.82,29.34,76.362,46.724,121.051,49.464c4.181,0.256,8.448,0.427,12.8,0.427
		c4.28,0,8.518-0.175,12.734-0.433c-44.665-2.752-87.182-20.133-120.985-49.457l-0.302-0.254
		c-5.301-4.595-10.365-9.457-15.17-14.568c-0.205-0.219-0.396-0.447-0.6-0.667c-4.496-4.832-8.753-9.878-12.77-15.139
		c-0.485-0.634-0.955-1.277-1.433-1.918c-3.808-5.098-7.378-10.372-10.71-15.823c-0.189-0.309-0.422-0.588-0.609-0.899l0.036-0.036
		c-36.941-61.277-39.204-137.395-5.97-200.758S154.697,98.742,226.109,94.297c-4.228-0.262-8.481-0.429-12.776-0.429
		c-4.352,0-8.619,0.171-12.8,0.427C129.116,98.732,65.2,140.14,31.96,203.505S0.981,342.993,37.924,404.274L37.888,404.31z"/>
	<g>
		<path style="fill:#FFFFFF;" d="M0,298.668c0.253-76.832,41.618-147.648,108.417-185.609
			c32.058-17.981,68.16-27.521,104.917-27.724v17.067c-33.808,0.201-67.012,8.977-96.503,25.506
			c-61.451,34.931-99.511,100.076-99.763,170.761H0z"/>
		<g>
			<path style="fill:#428DFF;" d="M14.3,238.171c0.398,0.38,0.851,0.698,1.343,0.944c0.514,0.256,1.045,0.475,1.589,0.656
				c3.271,0.95,6.798-0.049,9.085-2.573c2.266-2.444,2.82-6.02,1.4-9.035c-0.51-0.999-1.195-1.899-2.023-2.656
				c-0.806-0.778-1.752-1.396-2.789-1.822c-2.108-0.806-4.45-0.745-6.514,0.171c-2.068,1.069-3.666,2.868-4.483,5.048
				c-0.781,2.168-0.71,4.553,0.198,6.671l0.918,1.386C13.395,237.418,13.823,237.826,14.3,238.171z"/>
			<path style="fill:#428DFF;" d="M401.067,0.001c-56.951,0.074-104.62,43.205-110.372,99.865
				c-24.643-9.667-50.889-14.597-77.361-14.531c-36.756,0.203-72.858,9.743-104.917,27.724
				c-31.979,18.121-58.733,44.199-77.666,75.704l-4.609,7.601c-1.08,2.049-1.295,4.446-0.596,6.654s2.253,4.045,4.315,5.1
				c4.092,2.067,9.087,0.489,11.248-3.554l4.254-6.984c17.418-28.996,42.037-52.996,71.466-69.672
				c29.492-16.529,62.696-25.305,96.503-25.506c26.543-0.062,52.814,5.349,77.173,15.894c3.74,55.372,47.826,99.458,103.197,103.2
				c10.531,24.363,15.942,50.631,15.896,77.173c0.048,71.286-38.585,136.985-100.904,171.597s-138.512,32.685-199.002-5.032
				l93.082-93.082c35.529,7.51,72.204-6.143,94.172-35.06c21.968-28.916,25.289-67.909,8.528-100.124
				c-1.254-2.413-3.584-4.085-6.272-4.499c-2.688-0.415-5.413,0.476-7.336,2.4l-45.449,45.434
				c-3.355,3.307-8.739,3.326-12.117,0.042l-12.083-12.083c-3.299-3.355-3.318-8.73-0.042-12.108l45.567-45.475
				c1.926-1.923,2.821-4.649,2.407-7.339c-0.413-2.69-2.084-5.022-4.499-6.278c-11.726-6.124-24.625-9.675-37.833-10.417
				c-29.235-1.751-57.612,10.244-76.726,32.434s-26.776,52.029-20.716,80.683L39.84,390.295
				c-14.981-28.216-22.802-59.68-22.773-91.627l0.832-16.341c0.406-5.436,1.106-10.846,2.097-16.206
				c0.512-4.585-2.513-8.819-7.016-9.821c-2.244-0.485-4.588-0.001-6.457,1.333c-1.869,1.333-3.088,3.393-3.36,5.672
				c-1.07,5.827-1.828,11.708-2.273,17.616L0,298.668c0,117.821,95.513,213.333,213.333,213.333s213.333-95.513,213.333-213.333
				c0.057-26.471-4.877-52.716-14.542-77.36c58.82-5.891,102.687-56.873,99.736-115.913S460.181-0.001,401.067,0.001z
				 M48.797,405.47l97.011-97.01c2.153-2.153,2.998-5.29,2.217-8.233c-7.261-27.34,1.068-56.46,21.688-75.826
				s50.205-25.852,77.037-16.891l-36.675,36.6c-9.851,10.056-9.832,26.15,0.042,36.183l12.158,12.158
				c10.06,9.834,26.138,9.816,36.175-0.042l36.575-36.567c9.001,26.83,2.526,56.436-16.853,77.059
				c-19.379,20.623-48.526,28.925-75.864,21.608c-2.942-0.805-6.089,0.039-8.233,2.208l-98.701,98.701
				C77.07,441.595,61.309,424.694,48.797,405.47z M401.067,204.801c-51.841,0-93.867-42.026-93.867-93.867
				s42.026-93.867,93.867-93.867s93.867,42.026,93.867,93.867C494.875,162.751,452.884,204.742,401.067,204.801z"/>
			<path style="fill:#428DFF;" d="M449.766,62.235c-1.6-1.601-3.77-2.5-6.033-2.5s-4.434,0.899-6.033,2.5l-36.633,36.633
				l-36.634-36.633c-3.341-3.281-8.701-3.256-12.012,0.054c-3.311,3.311-3.335,8.671-0.054,12.012L389,110.934l-36.634,36.634
				c-2.178,2.151-3.037,5.304-2.251,8.262c0.786,2.958,3.097,5.269,6.055,6.055c2.958,0.786,6.111-0.073,8.262-2.251l36.634-36.633
				l36.634,36.634c2.151,2.178,5.304,3.037,8.262,2.251c2.958-0.786,5.269-3.097,6.055-6.055c0.786-2.958-0.073-6.111-2.251-8.262
				l-36.633-36.634l36.634-36.634c1.6-1.6,2.5-3.77,2.5-6.033C452.266,66.005,451.367,63.834,449.766,62.235z"/>
		</g>
	</g>
</g>
<g>
</g>
<g>
</g>
<g>
</g>
<g>
</g>
<g>
</g>
<g>
</g>
<g>
</g>
<g>
</g>
<g>
</g>
<g>
</g>
<g>
</g>
<g>
</g>
<g>
</g>
<g>
</g>
<g>
</g>
</svg>
