<?xml version="1.0" encoding="iso-8859-1"?>
<!-- Generator: Adobe Illustrator 19.0.0, SVG Export Plug-In . SVG Version: 6.00 Build 0)  -->
<svg version="1.1" id="Capa_1" xmlns="http://www.w3.org/2000/svg" xmlns:xlink="http://www.w3.org/1999/xlink" x="0px" y="0px"
	 viewBox="0 0 512.001 512.001" style="enable-background:new 0 0 512.001 512.001;" xml:space="preserve">
<g>
	<g transform="translate(1 1)">
		<g>
			<path style="fill:#E3E7F2;" d="M434.2,67.267l34.587,6.917c4.319,0.488,7.697,3.949,8.08,8.279v46.408
				c-0.383,4.329-3.761,7.79-8.08,8.279l-34.587,6.917V67.267z"/>
			<path style="fill:#E3E7F2;" d="M434.2,169.667l34.587,6.917c4.319,0.488,7.697,3.949,8.08,8.279v46.408
				c-0.383,4.329-3.761,7.79-8.08,8.279l-34.587,6.917V169.667z"/>
			<path style="fill:#E3E7F2;" d="M434.2,272.067l34.587,6.917c4.319,0.488,7.697,3.949,8.08,8.279v46.408
				c-0.383,4.329-3.761,7.79-8.08,8.279l-34.587,6.917V272.067z"/>
			<path style="fill:#E3E7F2;" d="M434.2,374.467l34.587,6.917c4.319,0.488,7.697,3.949,8.08,8.279v46.408
				c-0.383,4.329-3.761,7.79-8.08,8.279l-34.587,6.917V374.467z"/>
		</g>
		<path style="fill:#A4C2F7;" d="M92.867,7.534h332.8c9.426,0,17.067,7.641,17.067,17.067v460.8c0,9.426-7.641,17.067-17.067,17.067
			h-332.8c-9.426,0-17.067-7.641-17.067-17.067v-460.8C75.8,15.175,83.441,7.534,92.867,7.534z"/>
		<path style="fill:#E3E7F2;" d="M92.867,7.534h307.2c9.426,0,17.067,7.641,17.067,17.067v460.8c0,9.426-7.641,17.067-17.067,17.067
			h-307.2c-9.426,0-17.067-7.641-17.067-17.067v-460.8C75.8,15.175,83.441,7.534,92.867,7.534z"/>
		<g>
			<circle style="fill:#FFFFFF;" cx="255" cy="152.601" r="34.133"/>
			<path style="fill:#FFFFFF;" d="M237.934,263.534v68.267c0,4.713-3.82,8.533-8.533,8.533h-17.067
				c-4.713,0-8.533,3.821-8.533,8.533v34.133c0,4.713,3.821,8.533,8.533,8.533h102.4c4.713,0,8.533-3.82,8.533-8.533v-34.133
				c0-4.713-3.821-8.533-8.533-8.533h-17.067c-4.713,0-8.533-3.82-8.533-8.533v-102.4c0-4.713-3.82-8.533-8.533-8.533h-59.733
				c-4.713,0-8.533,3.821-8.533,8.533v17.067c0,4.713,3.821,8.533,8.533,8.533h8.533
				C234.113,255.001,237.934,258.821,237.934,263.534z"/>
		</g>
		<g>
			<path style="fill:#D4E1F4;" d="M54.467,50.201H88.6c11.782,0,21.333,9.551,21.333,21.333l0,0
				c0,11.782-9.551,21.333-21.333,21.333H54.467c-11.782,0-21.333-9.551-21.333-21.333l0,0
				C33.134,59.752,42.685,50.201,54.467,50.201z"/>
			<path style="fill:#D4E1F4;" d="M54.467,127.001H88.6c11.782,0,21.333,9.551,21.333,21.333l0,0
				c0,11.782-9.551,21.333-21.333,21.333H54.467c-11.782,0-21.333-9.551-21.333-21.333l0,0
				C33.134,136.552,42.685,127.001,54.467,127.001z"/>
			<path style="fill:#D4E1F4;" d="M54.467,203.801H88.6c11.782,0,21.333,9.551,21.333,21.333l0,0
				c0,11.782-9.551,21.333-21.333,21.333H54.467c-11.782,0-21.333-9.551-21.333-21.333l0,0
				C33.134,213.352,42.685,203.801,54.467,203.801z"/>
			<path style="fill:#D4E1F4;" d="M54.467,280.601H88.6c11.782,0,21.333,9.551,21.333,21.333l0,0
				c0,11.782-9.551,21.333-21.333,21.333H54.467c-11.782,0-21.333-9.551-21.333-21.333l0,0
				C33.134,290.152,42.685,280.601,54.467,280.601z"/>
			<path style="fill:#D4E1F4;" d="M54.467,357.401H88.6c11.782,0,21.333,9.551,21.333,21.333l0,0
				c0,11.782-9.551,21.333-21.333,21.333H54.467c-11.782,0-21.333-9.551-21.333-21.333l0,0
				C33.134,366.952,42.685,357.401,54.467,357.401z"/>
			<path style="fill:#D4E1F4;" d="M54.467,434.201H88.6c11.782,0,21.333,9.551,21.333,21.333l0,0
				c0,11.782-9.551,21.333-21.333,21.333H54.467c-11.782,0-21.333-9.551-21.333-21.333l0,0
				C33.134,443.752,42.685,434.201,54.467,434.201z"/>
		</g>
		<path style="fill:#FFFFFF;" d="M92.867,502.467h25.6c-9.414-0.028-17.039-7.653-17.067-17.067v-8.533H80.067
			c-11.782,0-21.333-9.551-21.333-21.333c0-11.782,9.551-21.333,21.333-21.333H101.4v-34.133H80.067
			c-11.782,0-21.333-9.551-21.333-21.333c0-11.782,9.551-21.333,21.333-21.333H101.4v-34.133H80.067
			c-11.782,0-21.333-9.551-21.333-21.333s9.551-21.333,21.333-21.333H101.4v-34.133H80.067c-11.782,0-21.333-9.551-21.333-21.333
			c0-11.782,9.551-21.333,21.333-21.333H101.4v-34.133H80.067c-11.782,0-21.333-9.551-21.333-21.333
			c0-11.782,9.551-21.333,21.333-21.333H101.4V92.867H80.067c-11.782,0-21.333-9.551-21.333-21.333s9.551-21.333,21.333-21.333
			H101.4v-25.6c0.028-9.414,7.652-17.039,17.067-17.067h-25.6C83.453,7.562,75.828,15.186,75.8,24.601v25.6H54.467
			c-11.782,0-21.333,9.551-21.333,21.333s9.551,21.333,21.333,21.333H75.8v34.133H54.467c-11.782,0-21.333,9.551-21.333,21.333
			c0,11.782,9.551,21.333,21.333,21.333H75.8v34.133H54.467c-11.782,0-21.333,9.551-21.333,21.333
			c0,11.782,9.551,21.333,21.333,21.333H75.8v34.133H54.467c-11.782,0-21.333,9.551-21.333,21.333s9.551,21.333,21.333,21.333H75.8
			v34.133H54.467c-11.782,0-21.333,9.551-21.333,21.333c0,11.782,9.551,21.333,21.333,21.333H75.8v34.133H54.467
			c-11.782,0-21.333,9.551-21.333,21.333c0,11.782,9.551,21.333,21.333,21.333H75.8v8.533
			C75.828,494.815,83.453,502.44,92.867,502.467z"/>
	</g>
	<g>
		<polygon style="fill:#FFFFFF;" points="93.867,0.001 204.8,0.001 426.667,0.001 426.667,17.067 204.8,17.067 93.867,17.067 		"/>
		<g>
			<path style="fill:#428DFF;" d="M256,196.267c23.564,0,42.667-19.103,42.667-42.667S279.564,110.934,256,110.934
				s-42.667,19.103-42.667,42.667C213.361,177.153,232.448,196.24,256,196.267z M256,128.001c14.138,0,25.6,11.462,25.6,25.6
				c0,14.139-11.462,25.6-25.6,25.6s-25.6-11.462-25.6-25.6C230.416,139.469,241.868,128.016,256,128.001z"/>
			<path style="fill:#428DFF;" d="M213.334,332.801c-9.421,0.012-17.054,7.646-17.067,17.067v34.133
				c0.012,9.421,7.646,17.054,17.067,17.067h102.4c9.421-0.012,17.054-7.646,17.067-17.067v-34.133
				c-0.012-9.421-7.646-17.054-17.067-17.067h-17.067v-102.4c-0.012-9.421-7.646-17.054-17.067-17.067h-59.733
				c-9.421,0.012-17.054,7.646-17.067,17.067v17.067c0.012,9.421,7.646,17.054,17.067,17.067l8.533-0.017v68.284H213.334z
				 M230.4,247.467h-8.533v-17.067H281.6v102.4c0.012,9.421,7.646,17.054,17.067,17.067h17.067v34.133h-102.4v-34.133H230.4
				c9.421-0.012,17.054-7.646,17.067-17.067v-68.267C247.455,255.113,239.821,247.48,230.4,247.467z"/>
			<path style="fill:#428DFF;" d="M473.467,66.909l-21.2-5.3V25.601c-0.015-14.132-11.468-25.585-25.6-25.6h-230.4
				c-4.713,0-8.533,3.821-8.533,8.533s3.82,8.533,8.533,8.533h230.4c4.712,0.003,8.53,3.822,8.533,8.533v460.8
				c-0.003,4.712-3.822,8.53-8.533,8.533h-332.8c-4.712-0.003-8.53-3.822-8.533-8.533H89.6c16.495,0,29.867-13.372,29.867-29.867
				c0-16.495-13.372-29.867-29.867-29.867h-4.267v-17.067H89.6c16.495,0,29.867-13.372,29.867-29.867
				c0-16.495-13.372-29.867-29.867-29.867h-4.267v-17.067H89.6c16.495,0,29.867-13.372,29.867-29.867
				c0-16.495-13.372-29.867-29.867-29.867h-4.267v-17.067H89.6c16.495,0,29.867-13.372,29.867-29.867s-13.372-29.867-29.867-29.867
				h-4.267v-17.067H89.6c16.495,0,29.867-13.372,29.867-29.867s-13.372-29.867-29.867-29.867h-4.267v-17.067H89.6
				c16.495,0,29.867-13.372,29.867-29.867S106.095,42.667,89.6,42.667h-4.267V25.601c0.003-4.712,3.822-8.53,8.533-8.533H128
				c4.713,0,8.533-3.821,8.533-8.533S132.713,0.001,128,0.001H93.867c-14.132,0.015-25.585,11.468-25.6,25.6v17.067h-12.8
				c-16.495,0-29.867,13.372-29.867,29.867s13.372,29.867,29.867,29.867h12.8v17.067h-12.8c-16.495,0-29.867,13.372-29.867,29.867
				s13.372,29.867,29.867,29.867h12.8v17.067h-12.8c-16.495,0-29.867,13.372-29.867,29.867s13.372,29.867,29.867,29.867h12.8v17.067
				h-12.8c-16.495,0-29.867,13.372-29.867,29.867c0,16.495,13.372,29.867,29.867,29.867h12.8v17.067h-12.8
				c-16.495,0-29.867,13.372-29.867,29.867c0,16.495,13.372,29.867,29.867,29.867h12.8v17.067h-12.8
				c-16.495,0-29.867,13.372-29.867,29.867c0,16.495,13.372,29.867,29.867,29.867h12.8c0.015,14.132,11.468,25.585,25.6,25.6h332.8
				c14.132-0.015,25.585-11.468,25.6-25.6v-27.475l21.2-5.3c7.606-1.888,12.944-8.721,12.933-16.558v-46.4
				c0.011-7.837-5.327-14.671-12.933-16.558l-21.2-5.3v-12.283l21.2-5.3c7.606-1.888,12.944-8.721,12.933-16.558v-46.4
				c0.011-7.837-5.327-14.671-12.933-16.558l-21.2-5.3v-12.283l21.2-5.3c7.606-1.888,12.944-8.721,12.933-16.558v-46.4
				c0.011-7.837-5.327-14.671-12.933-16.558l-21.2-5.3v-12.283l21.2-5.3c7.606-1.888,12.944-8.721,12.933-16.558v-46.4
				C486.411,75.63,481.073,68.797,473.467,66.909z M42.667,72.534c0.008-7.066,5.734-12.792,12.8-12.8H89.6
				c7.069,0,12.8,5.731,12.8,12.8c0,7.069-5.731,12.8-12.8,12.8H55.467C48.401,85.326,42.675,79.6,42.667,72.534z M42.667,149.334
				c0.008-7.066,5.734-12.792,12.8-12.8H89.6c7.069,0,12.8,5.731,12.8,12.8c0,7.069-5.731,12.8-12.8,12.8H55.467
				C48.401,162.126,42.675,156.4,42.667,149.334z M42.667,226.134c0.008-7.066,5.734-12.792,12.8-12.8H89.6
				c7.069,0,12.8,5.731,12.8,12.8c0,7.069-5.731,12.8-12.8,12.8H55.467C48.401,238.926,42.675,233.2,42.667,226.134z
				 M42.667,302.934c0.008-7.066,5.734-12.792,12.8-12.8H89.6c7.069,0,12.8,5.731,12.8,12.8s-5.731,12.8-12.8,12.8H55.467
				C48.401,315.726,42.675,310,42.667,302.934z M42.667,379.734c0.008-7.066,5.734-12.792,12.8-12.8H89.6
				c7.069,0,12.8,5.731,12.8,12.8c0,7.069-5.731,12.8-12.8,12.8H55.467C48.401,392.526,42.675,386.8,42.667,379.734z
				 M55.467,469.334c-7.069,0-12.8-5.731-12.8-12.8s5.731-12.8,12.8-12.8H89.6c7.069,0,12.8,5.731,12.8,12.8s-5.731,12.8-12.8,12.8
				H55.467z M469.334,390.667v46.408l-17.067,4.267v-54.947L469.334,390.667z M469.334,288.267v46.408l-17.067,4.267v-54.947
				L469.334,288.267z M469.334,185.867v46.408l-17.067,4.267v-54.947L469.334,185.867z M469.334,129.876l-17.067,4.267V79.195
				l17.067,4.272V129.876z"/>
			<path style="fill:#428DFF;" d="M168.192,14.593c0.771-0.815,1.379-1.77,1.792-2.813c0.438-1.027,0.67-2.13,0.683-3.246
				c-0.034-2.259-0.918-4.422-2.475-6.059c-3.365-3.3-8.752-3.3-12.117,0l-1.025,1.279c-0.324,0.476-0.583,0.993-0.771,1.538
				c-0.245,0.484-0.417,1.003-0.508,1.538c-0.096,0.563-0.153,1.133-0.171,1.704c0.031,2.259,0.915,4.423,2.475,6.059
				C159.472,17.814,164.795,17.814,168.192,14.593L168.192,14.593z"/>
		</g>
	</g>
</g>
<g>
</g>
<g>
</g>
<g>
</g>
<g>
</g>
<g>
</g>
<g>
</g>
<g>
</g>
<g>
</g>
<g>
</g>
<g>
</g>
<g>
</g>
<g>
</g>
<g>
</g>
<g>
</g>
<g>
</g>
</svg>
