<?xml version="1.0" encoding="iso-8859-1"?>
<!-- Generator: Adobe Illustrator 19.0.0, SVG Export Plug-In . SVG Version: 6.00 Build 0)  -->
<svg version="1.1" id="Capa_1" xmlns="http://www.w3.org/2000/svg" xmlns:xlink="http://www.w3.org/1999/xlink" x="0px" y="0px"
	 viewBox="0 0 512.01 512.01" style="enable-background:new 0 0 512.01 512.01;" xml:space="preserve">
<g>
	<g transform="translate(1 1)">
		<g>
			<path style="fill:#E3E7F2;" d="M24.605,272.067v-34.133c0-127.246,103.154-230.4,230.4-230.4s230.4,103.154,230.4,230.4v34.133
				h-34.133v-34.133c0-108.395-87.872-196.267-196.267-196.267S58.738,129.539,58.738,237.934v34.133H24.605z"/>
			<path style="fill:#E3E7F2;" d="M58.738,357.401v102.4c0,4.713,3.821,8.533,8.533,8.533h75.885
				c8.574-0.191,16.052,5.792,17.748,14.199c0.84,4.957-0.546,10.032-3.79,13.874c-3.244,3.841-8.015,6.058-13.043,6.06h-102.4
				c-9.426,0-17.067-7.641-17.067-17.067v-128H58.738z"/>
		</g>
		<path style="fill:#A4C2F7;" d="M434.205,323.267c0.006,47.529-18.872,93.112-52.48,126.72s-79.191,52.486-126.72,52.48
			c-4.267,0-8.619-0.171-12.8-0.512C148.45,495.27,75.804,417.26,75.804,323.267S148.45,151.265,242.205,144.58
			c4.181-0.342,8.533-0.513,12.8-0.513c47.529-0.006,93.112,18.872,126.72,52.48S434.211,275.739,434.205,323.267z"/>
		<ellipse style="fill:#E3E7F2;" cx="242.205" cy="323.267" rx="166.4" ry="178.688"/>
		<path style="fill:#A4C2F7;" d="M485.405,237.934v34.133h-25.6v-34.133c-0.111-122.217-95.576-223.11-217.6-229.973
			c4.267-0.341,8.533-0.427,12.8-0.427C382.197,7.665,485.274,110.742,485.405,237.934z"/>
		<path style="fill:#E3E7F2;" d="M24.605,246.467h34.133c9.426,0,17.067,7.641,17.067,17.067v102.4
			c0,9.426-7.641,17.067-17.067,17.067H24.605c-9.426,0-17.067-7.641-17.067-17.067v-102.4
			C7.538,254.108,15.179,246.467,24.605,246.467z"/>
		<path style="fill:#A4C2F7;" d="M451.272,246.467h34.133c9.426,0,17.067,7.641,17.067,17.067v102.4
			c0,9.426-7.641,17.067-17.067,17.067h-34.133c-9.426,0-17.067-7.641-17.067-17.067v-102.4
			C434.205,254.108,441.846,246.467,451.272,246.467z"/>
		<path style="fill:#E3E7F2;" d="M451.272,246.467h8.533c9.426,0,17.067,7.641,17.067,17.067v102.4
			c0,9.426-7.641,17.067-17.067,17.067h-8.533c-9.426,0-17.067-7.641-17.067-17.067v-102.4
			C434.205,254.108,441.846,246.467,451.272,246.467z"/>
		<path style="fill:#FFFFFF;" d="M24.605,383.001v102.4c0,9.426,7.641,17.066,17.067,17.067h25.6
			c-9.426,0-17.066-7.641-17.067-17.067v-102.4c-9.426,0-17.066-7.641-17.067-17.067v-102.4c0-9.426,7.641-17.067,17.067-17.067
			v-8.533c0.136-122.216,95.58-223.11,217.6-230.026c-4.24-0.233-8.503-0.374-12.8-0.374
			c-127.192,0.131-230.269,103.208-230.4,230.4v8.533c-9.426,0-17.067,7.641-17.067,17.067v102.4
			C7.539,375.359,15.179,383,24.605,383.001z"/>
	</g>
	<g>
		<path style="fill:#FFFFFF;" d="M17.072,238.934c0.272-38.513,9.638-76.416,27.336-110.623
			c10.096-19.205,22.768-36.941,37.665-52.716c1.841-1.984,3.607-4.046,5.513-5.965l6.007-5.472
			c4.061-3.58,7.897-7.433,12.155-10.775c8.462-6.769,17.364-12.968,26.648-18.557c37.27-22.632,80.006-34.672,123.61-34.826v17.067
			c-40.478,0.152-80.149,11.334-114.748,32.344c-8.624,5.189-16.895,10.944-24.758,17.227c-3.959,3.1-7.506,6.701-11.285,10.019
			l-5.592,5.073c-1.77,1.784-3.402,3.707-5.112,5.552c-13.839,14.649-25.611,31.121-34.99,48.958
			C43.105,168,34.409,203.183,34.138,238.934H17.072z"/>
		<g>
			<path style="fill:#428DFF;" d="M494.938,240.507v-1.573c0.171-86.287-46.285-165.935-121.475-208.266
				S206.08-10.073,132.395,34.827c-9.284,5.589-18.186,11.788-26.648,18.557c-4.257,3.343-8.094,7.195-12.155,10.775l-6.007,5.472
				c-1.906,1.919-3.672,3.98-5.513,5.965c-14.897,15.775-27.569,33.511-37.665,52.716l-3.85,7.969
				c-1.049,2.025-1.215,4.394-0.459,6.546c0.756,2.152,2.366,3.897,4.451,4.822c4.264,1.858,9.239,0.111,11.406-4.005l3.565-7.402
				c9.378-17.837,21.151-34.309,34.99-48.958c1.71-1.845,3.342-3.768,5.112-5.552l5.592-5.073c3.78-3.318,7.326-6.919,11.285-10.019
				c7.863-6.283,16.134-12.038,24.758-17.227C209.673,7.714,295.28,6.234,365.096,45.543s112.947,113.27,112.776,193.391h-17.067
				c0-113.108-91.692-204.8-204.8-204.8s-204.8,91.692-204.8,204.8H34.138c0.192-10.956,1.093-21.887,2.698-32.726
				c0.548-4.611-2.582-8.854-7.15-9.691c-2.251-0.397-4.566,0.147-6.405,1.504c-1.839,1.357-3.041,3.409-3.326,5.676
				c-1.729,11.67-2.692,23.441-2.884,35.236v1.573c-10.199,3.592-17.034,13.214-17.067,24.027v102.4
				c0.033,10.813,6.868,20.435,17.067,24.027v95.44c0.015,14.132,11.468,25.585,25.6,25.6h102.4
				c12.328,0.09,22.911-8.752,25.014-20.9c77.138,39.864,171.563,21.467,228.092-44.442c0.213-0.165,0.341-0.436,0.539-0.623
				c15.478-18.095,27.371-38.971,35.044-61.513c4.805,5.103,11.501,8.001,18.51,8.01h34.133c14.132-0.015,25.585-11.468,25.6-25.6
				v-102.4C511.972,253.721,505.137,244.099,494.938,240.507z M256.005,51.201c103.634,0.117,187.616,84.1,187.733,187.733v1.573
				c-6.112,2.184-11.165,6.61-14.134,12.382c-28.923-70.395-97.494-116.355-173.599-116.355s-144.677,45.96-173.599,116.355
				c-2.969-5.772-8.022-10.198-14.134-12.382v-1.573C68.389,135.3,152.371,51.318,256.005,51.201z M390.425,429.057
				c-16.198-8.011-33.259-14.142-50.85-18.273c6.29-25.531,9.674-51.692,10.088-77.983h76.577
				C424.539,367.817,412.027,401.445,390.425,429.057z M133.108,442.388c14.112-6.572,28.866-11.667,44.026-15.204
				c6.56,22.461,17.712,43.315,32.748,61.243C180.649,480.187,154.146,464.294,133.108,442.388z M349.663,315.734
				c-0.414-26.291-3.798-52.452-10.087-77.983c17.592-4.131,34.653-10.262,50.85-18.273c21.601,27.612,34.113,61.24,35.814,96.256
				H349.663z M247.472,401.292c-19.524,0.396-38.983,2.37-58.189,5.902c-6.089-24.346-9.402-49.303-9.876-74.394h68.065V401.292z
				 M247.472,418.355v75.395c-21.659-5.61-40.861-32.236-53.352-70.134C211.741,420.487,229.579,418.729,247.472,418.355z
				 M179.407,315.734c0.474-25.091,3.788-50.048,9.876-74.394c19.206,3.532,38.665,5.506,58.189,5.902v68.492H179.407z
				 M247.472,154.785v75.395c-17.893-0.374-35.73-2.133-53.352-5.26C206.61,187.021,225.812,160.395,247.472,154.785z
				 M264.538,247.244c19.524-0.395,38.984-2.366,58.191-5.893c6.087,24.342,9.4,49.296,9.874,74.383h-68.065V247.244z
				 M264.538,230.18v-75.395c21.661,5.612,40.865,32.241,53.355,70.145C300.27,228.052,282.432,229.807,264.538,230.18z
				 M334.881,221.365c-6.56-22.466-17.713-43.325-32.753-61.257c29.245,8.243,55.758,24.147,76.8,46.067
				C364.809,212.743,350.048,217.834,334.881,221.365z M177.134,221.351c-15.16-3.538-29.914-8.633-44.026-15.204
				c21.038-21.906,47.541-37.799,76.774-46.039C194.845,178.036,183.694,198.89,177.134,221.351L177.134,221.351z M121.608,219.446
				c16.191,8.015,33.245,14.15,50.831,18.288c-6.293,25.537-9.678,51.703-10.092,78H85.771
				C87.472,280.704,99.992,247.064,121.608,219.446L121.608,219.446z M162.347,332.801c0.414,26.297,3.799,52.463,10.092,78
				c-17.586,4.137-34.64,10.273-50.831,18.287c-21.615-27.618-34.136-61.258-35.837-96.288H162.347z M264.538,493.75v-75.396
				c17.894,0.373,35.732,2.129,53.355,5.251C305.403,461.509,286.199,488.138,264.538,493.75z M264.538,401.291v-68.49h68.065
				c-0.474,25.088-3.787,50.041-9.874,74.383C303.523,403.657,284.062,401.687,264.538,401.291L264.538,401.291z M17.072,264.534
				c0.005-4.711,3.822-8.529,8.533-8.533h34.133c4.711,0.005,8.529,3.822,8.533,8.533v102.4c-0.005,4.711-3.822,8.529-8.533,8.533
				H25.605c-4.711-0.005-8.529-3.822-8.533-8.533V264.534z M151.58,491.926c-1.624,1.908-4.003,3.008-6.508,3.008h-102.4
				c-4.711-0.005-8.529-3.822-8.533-8.533v-93.867h17.067v68.267c0.011,9.421,7.645,17.056,17.067,17.067h75.883
				c4.385-0.16,8.281,2.78,9.329,7.042C153.927,487.415,153.229,489.987,151.58,491.926z M68.272,460.801v-69.84
				c3.785-1.332,7.203-3.538,9.977-6.437c7.515,22.094,19.086,42.592,34.117,60.443c0.31,0.434,0.659,0.838,1.045,1.206
				c4.384,5.121,9.039,10.004,13.944,14.628H68.272z M302.128,488.427c15.04-17.933,26.193-38.792,32.753-61.258
				c15.167,3.532,29.928,8.623,44.047,15.192C357.887,464.28,331.374,480.183,302.128,488.427z M494.938,366.934
				c-0.003,4.712-3.822,8.53-8.533,8.533h-34.133c-4.712-0.003-8.53-3.822-8.533-8.533v-102.4c0.003-4.712,3.822-8.53,8.533-8.533
				h34.133c4.712,0.003,8.53,3.822,8.533,8.533V366.934z"/>
			<path style="fill:#428DFF;" d="M30.59,178.411c0.404,0.365,0.862,0.667,1.357,0.895c0.52,0.238,1.056,0.44,1.604,0.604
				c2.175,0.542,4.473,0.264,6.456-0.779c0.935-0.553,1.752-1.284,2.406-2.151c1.924-2.654,2.299-6.128,0.984-9.131
				c-0.521-0.972-1.219-1.837-2.058-2.552c-0.826-0.743-1.789-1.319-2.834-1.697c-2.169-0.717-4.529-0.574-6.596,0.398
				c-2.095,1.059-3.677,2.916-4.388,5.153c-0.56,2.272-0.272,4.67,0.811,6.745l0.971,1.354
				C29.677,177.693,30.11,178.084,30.59,178.411z"/>
		</g>
	</g>
</g>
<g>
</g>
<g>
</g>
<g>
</g>
<g>
</g>
<g>
</g>
<g>
</g>
<g>
</g>
<g>
</g>
<g>
</g>
<g>
</g>
<g>
</g>
<g>
</g>
<g>
</g>
<g>
</g>
<g>
</g>
</svg>
