<?xml version="1.0" encoding="iso-8859-1"?>
<!-- Generator: Adobe Illustrator 19.0.0, SVG Export Plug-In . SVG Version: 6.00 Build 0)  -->
<svg version="1.1" id="Capa_1" xmlns="http://www.w3.org/2000/svg" xmlns:xlink="http://www.w3.org/1999/xlink" x="0px" y="0px"
	 viewBox="0 0 512.101 512.101" style="enable-background:new 0 0 512.101 512.101;" xml:space="preserve">
<g>
	<g transform="translate(1 1)">
		<path style="fill:#A4C2F7;" d="M387.317,476.525v25.941H11.85l0-27.648c-0.012-25.047,13.673-48.095,35.669-60.075l76.117-41.557
			c10.014-5.429,16.241-15.916,16.213-27.308v-19.711c-0.017-1.844-0.614-3.635-1.707-5.12
			c-15.075-19.652-26.097-42.102-32.427-66.048V135.533c0,0-9.301-70.315,81.067-76.373c4.096-0.256,8.363-0.427,12.8-0.427
			c104.021,0,93.867,76.8,93.867,76.8V255c-6.329,23.946-17.351,46.396-32.427,66.048c-1.093,1.485-1.69,3.276-1.707,5.12v20.565
			c-0.027,11.753,6.577,22.517,17.067,27.819l73.131,40.704C372.681,426.895,387.307,450.6,387.317,476.525z"/>
		<path style="fill:#E3E7F2;" d="M361.717,476.525v25.941H11.85l0-27.648c-0.012-25.047,13.673-48.095,35.669-60.075l76.117-41.557
			c10.014-5.429,16.241-15.916,16.213-27.308v-19.711c-0.017-1.844-0.614-3.635-1.707-5.12
			c-15.075-19.652-26.097-42.102-32.427-66.048V135.533c0,0-9.301-70.315,81.067-76.373c90.368,6.059,81.067,76.373,81.067,76.373
			V255c-6.329,23.946-17.351,46.396-32.427,66.048c-1.093,1.485-1.69,3.276-1.707,5.12v20.565
			c-0.027,11.753,6.577,22.517,17.067,27.819l73.131,40.704C347.081,426.895,361.707,450.6,361.717,476.525z"/>
		<g>
			<path style="fill:#A4C2F7;" d="M105.717,144.067V229.4H71.583c-9.414-0.028-17.039-7.653-17.067-17.067v-51.2
				c0.027-9.414,7.652-17.039,17.067-17.067H105.717z"/>
			<path style="fill:#A4C2F7;" d="M327.583,229.4H293.45v-85.333h34.133c9.426,0,17.067,7.641,17.067,17.067v51.2
				C344.65,221.759,337.009,229.4,327.583,229.4z"/>
		</g>
		<path style="fill:#FFFFFF;" d="M191.05,263.533h25.6c9.426,0,17.067,7.641,17.067,17.067l0,0c0,9.426-7.641,17.067-17.067,17.067
			h-25.6c-9.426,0-17.067-7.641-17.067-17.067l0,0C173.983,271.174,181.624,263.533,191.05,263.533z"/>
		<path style="fill:#D4E1F4;" d="M464.117,238.871V134.596c0.043-2.901,1.532-5.588,3.969-7.162
			c20.953-14.089,32.415-38.596,29.796-63.709c-2.619-25.113-18.89-46.728-42.299-56.192v51.2
			c-0.028,9.414-7.652,17.039-17.067,17.067H421.45c-9.414-0.028-17.039-7.652-17.067-17.067v-51.2
			c-23.409,9.463-39.68,31.078-42.299,56.192c-2.619,25.113,8.843,49.62,29.796,63.709c2.437,1.574,3.926,4.261,3.969,7.162v104.275
			c-0.043,2.901-1.532,5.588-3.969,7.162c-20.953,14.089-32.415,38.596-29.796,63.709c2.619,25.113,18.89,46.729,42.299,56.192
			v-51.2c0.028-9.414,7.652-17.039,17.067-17.067h17.067c9.414,0.028,17.039,7.652,17.067,17.067v51.2
			c23.409-9.463,39.68-31.078,42.299-56.192c2.619-25.113-8.843-49.62-29.796-63.709
			C465.649,244.459,464.16,241.771,464.117,238.871z"/>
		<path style="fill:#A4C2F7;" d="M498.25,302.616c-0.006,27.824-16.88,52.866-42.667,63.317v-18.261
			c12.994-14.709,19.012-34.309,16.511-53.776c-2.501-19.467-13.277-36.909-29.567-47.856c-2.466-1.555-3.975-4.253-4.011-7.168
			V134.595c0.035-2.915,1.545-5.613,4.011-7.168c16.29-10.947,27.067-28.389,29.567-47.856c2.501-19.467-3.517-39.066-16.511-53.776
			V7.533c23.402,9.465,39.669,31.072,42.296,56.178c2.627,25.106-8.816,49.612-29.752,63.716c-2.466,1.555-3.975,4.253-4.011,7.168
			v104.277c0.035,2.915,1.545,5.613,4.011,7.168C486.961,258.708,498.255,279.918,498.25,302.616z"/>
		<g>
			<path style="fill:#FFFFFF;" d="M37.45,474.819c-0.012-25.047,13.673-48.095,35.669-60.075l76.117-41.557
				c10.014-5.429,16.241-15.916,16.213-27.308v-19.711c-0.017-1.844-0.614-3.635-1.707-5.12
				c-15.075-19.652-26.097-42.102-32.427-66.048v-25.6h-25.6V255c6.329,23.946,17.351,46.396,32.427,66.048
				c1.093,1.485,1.69,3.276,1.707,5.12v19.711c0.028,11.391-6.199,21.879-16.213,27.308l-76.117,41.557
				c-21.997,11.979-35.682,35.028-35.669,60.075l0,27.648h25.6V474.819z"/>
			<path style="fill:#FFFFFF;" d="M212.138,59.183c-4.01-0.265-8.143-0.45-12.555-0.45c-4.437,0-8.704,0.171-12.8,0.427
				c-90.368,6.059-81.067,76.373-81.067,76.373v8.533h25.6v-8.533C131.317,135.533,122.041,65.355,212.138,59.183z"/>
			<path style="fill:#FFFFFF;" d="M361.717,70.851c-0.009,22.711,11.304,43.931,30.165,56.582c2.437,1.574,3.926,4.262,3.969,7.163
				v104.275c-0.043,2.9-1.532,5.588-3.969,7.162c-20.953,14.089-32.415,38.596-29.797,63.709
				c2.619,25.113,18.89,46.729,42.299,56.192v-18.327c-13-14.7-19.018-34.298-16.508-53.76c2.51-19.462,13.302-36.893,29.606-47.814
				c2.437-1.574,3.926-4.261,3.969-7.162V134.596c-0.043-2.901-1.532-5.588-3.969-7.163c-16.304-10.921-27.096-28.351-29.606-47.813
				c-2.51-19.462,3.508-39.06,16.508-53.76V7.533C378.597,17.985,361.723,43.027,361.717,70.851z"/>
			<rect x="105.717" y="144.067" style="fill:#FFFFFF;" width="25.6" height="85.333"/>
		</g>
	</g>
	<g>
		<polygon style="fill:#FFFFFF;" points="12.85,494.933 123.783,494.933 388.317,494.933 388.317,512 123.783,512 12.85,512 		"/>
		<g>
			<path style="fill:#428DFF;" d="M75.058,497.408l-1.025,1.279c-0.324,0.476-0.583,0.993-0.771,1.538
				c-0.246,0.484-0.417,1.002-0.508,1.537c-0.096,0.564-0.153,1.133-0.17,1.705c0.031,2.259,0.915,4.423,2.475,6.059
				c1.994,2.07,4.908,2.979,7.726,2.409s5.149-2.539,6.183-5.222c0.438-1.027,0.67-2.13,0.684-3.246
				c-0.014-3.45-2.096-6.556-5.282-7.879C81.181,494.264,77.512,494.982,75.058,497.408z"/>
			<path style="fill:#428DFF;" d="M12.85,512h34.133c4.713,0,8.533-3.82,8.533-8.533c0-4.713-3.821-8.533-8.533-8.533h-25.6v-19.117
				c-0.032-21.93,11.954-42.116,31.225-52.583l76.075-41.533c12.786-6.907,20.74-20.284,20.7-34.817v-19.675
				c0.017-3.721-1.199-7.343-3.458-10.3c-6.338-8.469-12.003-17.421-16.941-26.775h39.039c3.592,10.199,13.214,17.033,24.027,17.067
				h25.6c14.138,0,25.6-11.462,25.6-25.6s-11.462-25.6-25.6-25.6h-25.6c-10.813,0.033-20.435,6.868-24.028,17.067h-46.921
				c-2.378-5.869-4.334-11.902-5.851-18.05V136.533c0-0.373-0.025-0.747-0.075-1.117c-1.251-15.524,3.666-30.916,13.683-42.842
				c14.137-16.125,38.271-24.308,71.725-24.308c33.329,0,57.412,8.125,71.575,24.142c10.038,11.986,15.002,27.417,13.833,43.008
				c-0.05,0.37-0.075,0.743-0.075,1.117v118.483c-6.142,22.414-16.558,43.43-30.675,61.892c-2.26,2.957-3.476,6.579-3.458,10.3
				v20.525c-0.095,14.868,8.205,28.518,21.45,35.275l73.454,40.875c20.342,10.124,33.173,30.92,33.096,53.642v17.408H115.25
				c-4.713,0-8.533,3.821-8.533,8.533c0,4.713,3.821,8.533,8.533,8.533h273.067c2.263,0.001,4.434-0.898,6.035-2.499
				c1.6-1.6,2.499-3.771,2.499-6.035v-25.941c0.13-29.061-16.215-55.687-42.188-68.725l-73.437-40.867
				c-7.625-3.838-12.42-11.663-12.375-20.2l-0.042-20.475c15.774-20.656,27.315-44.224,33.958-69.35
				c0.145-0.626,0.218-1.266,0.217-1.908v-17.067h25.6c14.132-0.015,25.585-11.468,25.6-25.6v-51.2
				c-0.033-10.813-6.868-20.435-17.067-24.027v-1.573C337.117,61.128,275.989,0,200.583,0S64.05,61.128,64.05,136.533v1.573
				c-10.199,3.592-17.034,13.214-17.067,24.027v51.2c0.033,10.813,6.868,20.435,17.067,24.027V256
				c0.02,18.843,15.29,34.113,34.133,34.133h11.736c6.217,13.071,13.72,25.49,22.397,37.075v19.675
				c0.031,8.267-4.492,15.881-11.767,19.808l-76.1,41.55C19.685,421.695,4.28,447.634,4.317,475.817v27.65
				c-0.001,2.263,0.898,4.434,2.499,6.035C8.416,511.102,10.587,512.001,12.85,512z M192.05,273.067h25.6
				c4.713,0,8.533,3.82,8.533,8.533s-3.82,8.533-8.533,8.533h-25.6c-4.713,0-8.533-3.821-8.533-8.533
				S187.337,273.067,192.05,273.067z M337.117,213.333c-0.005,4.711-3.822,8.529-8.533,8.533h-25.6V153.6h25.6
				c4.711,0.005,8.529,3.822,8.533,8.533V213.333z M200.583,17.067c65.949,0.074,119.393,53.518,119.467,119.467h-17.025
				c1.538-20.037-4.888-39.872-17.883-55.2c-17.52-20-45.971-30.133-84.558-30.133s-67.038,10.133-84.558,30.133
				c-12.995,15.328-19.421,35.163-17.883,55.2H81.117C81.191,70.584,134.635,17.141,200.583,17.067z M64.05,162.133
				c0.005-4.711,3.822-8.529,8.533-8.533h25.6v68.267h-25.6c-4.711-0.005-8.529-3.822-8.533-8.533V162.133z M98.183,273.067
				c-9.421-0.011-17.056-7.645-17.067-17.067v-17.067h17.067V256c-0.001,0.642,0.072,1.283,0.217,1.908
				c1.22,5.133,2.726,10.193,4.51,15.158H98.183z"/>
			<path style="fill:#428DFF;" d="M354.183,303.617c-0.075,31.322,18.933,59.533,47.991,71.225c2.631,1.065,5.619,0.753,7.974-0.832
				s3.767-4.238,3.768-7.076v-51.2c0.005-4.711,3.822-8.529,8.533-8.533h17.067c4.711,0.005,8.529,3.822,8.533,8.533v51.2
				c0.001,2.839,1.413,5.492,3.767,7.077s5.344,1.897,7.974,0.831c26.375-10.682,44.687-35.067,47.59-63.375
				c2.904-28.308-10.075-55.902-33.732-71.717l0.208-104.242c23.566-15.852,36.456-43.42,33.511-71.668
				c-2.945-28.249-21.244-52.564-47.574-63.215c-2.631-1.066-5.621-0.755-7.976,0.831c-2.355,1.586-3.768,4.238-3.77,7.077v51.2
				c-0.005,4.711-3.822,8.529-8.533,8.533H422.45c-4.711-0.005-8.529-3.822-8.533-8.533v-51.2c-0.002-2.839-1.415-5.492-3.77-7.077
				c-2.355-1.586-5.344-1.897-7.976-0.831c-26.369,10.656-44.682,35.022-47.586,63.314c-2.904,28.292,10.078,55.87,33.732,71.661
				l-0.208,104.358C366.905,254.204,354.185,278.072,354.183,303.617z M397.65,121.358c-16.36-10.997-26.238-29.36-26.398-49.072
				c-0.16-19.712,9.419-38.233,25.598-49.494v36.942c0.015,14.132,11.468,25.585,25.6,25.6h17.067
				c14.132-0.015,25.585-11.468,25.6-25.6V22.792c16.179,11.262,25.758,29.782,25.598,49.494
				c-0.16,19.712-10.038,38.075-26.398,49.072c-4.787,3.165-7.686,8.503-7.733,14.242v104.267
				c0.048,5.738,2.947,11.077,7.733,14.242c16.36,10.997,26.238,29.36,26.398,49.072c0.16,19.712-9.419,38.233-25.598,49.494
				v-36.942c-0.015-14.132-11.468-25.585-25.6-25.6H422.45c-14.132,0.015-25.585,11.468-25.6,25.6v36.942
				c-16.179-11.262-25.758-29.782-25.598-49.494c0.16-19.712,10.038-38.075,26.398-49.072c4.787-3.165,7.686-8.503,7.733-14.242
				V135.6C405.336,129.862,402.437,124.523,397.65,121.358z"/>
		</g>
	</g>
</g>
<g>
</g>
<g>
</g>
<g>
</g>
<g>
</g>
<g>
</g>
<g>
</g>
<g>
</g>
<g>
</g>
<g>
</g>
<g>
</g>
<g>
</g>
<g>
</g>
<g>
</g>
<g>
</g>
<g>
</g>
</svg>
