<?xml version="1.0" encoding="iso-8859-1"?>
<!-- Generator: Adobe Illustrator 19.0.0, SVG Export Plug-In . SVG Version: 6.00 Build 0)  -->
<svg version="1.1" id="Capa_1" xmlns="http://www.w3.org/2000/svg" xmlns:xlink="http://www.w3.org/1999/xlink" x="0px" y="0px"
	 viewBox="0 0 512.003 512.003" style="enable-background:new 0 0 512.003 512.003;" xml:space="preserve">
<g>
	<g transform="translate(1 1)">
		<path style="fill:#E3E7F2;" d="M472.772,183.238c-2.686,10.263-6.763,20.111-12.117,29.269l13.227,26.539
			c-8.478,11.437-18.6,21.559-30.037,30.036l-26.539-13.226c-9.159,5.354-19.006,9.431-29.269,12.117l-9.387,28.16
			c-14.091,2.047-28.405,2.047-42.496,0l-9.387-28.16c-10.263-2.687-20.111-6.763-29.269-12.117
			c-1.942-1.065-3.771-2.323-5.461-3.755l-2.902-2.645l-8.533-23.125l29.099-2.645c4.011,0,21.248,4.352,24.149,1.964
			c7.598,2.509,15.551,3.777,23.552,3.754c32.823,0.034,62.039-20.794,72.709-51.835s0.434-65.43-25.473-85.584
			c-25.907-20.153-61.758-21.615-89.22-3.638c-0.171-0.427-1.109,0.085-2.475,0.939l-18.944-37.973l3.499-1.964
			c9.159-5.353,19.007-9.43,29.269-12.116l9.387-28.16c14.091-2.048,28.405-2.048,42.496,0l9.387,28.16
			c10.263,2.687,20.11,6.763,29.269,12.116l26.539-13.226c11.437,8.479,21.559,18.6,30.037,30.037l-13.227,26.539
			c5.354,9.158,9.431,19.006,12.117,29.269l28.16,9.388c2.048,14.091,2.048,28.405,0,42.496L472.772,183.238z"/>
		<path style="fill:#A4C2F7;" d="M383.002,476.528v25.941H7.535l0-27.648c-0.012-25.047,13.673-48.095,35.669-60.075l76.117-41.557
			c10.014-5.429,16.241-15.916,16.213-27.308v-19.711c-0.017-1.844-0.614-3.635-1.707-5.12
			c-15.075-19.652-26.097-42.102-32.427-66.048V135.536c0,0-9.301-70.315,81.067-76.373c4.096-0.256,8.363-0.427,12.8-0.427
			c104.021,0,93.867,76.8,93.867,76.8v119.467c-6.329,23.946-17.351,46.396-32.427,66.048c-1.093,1.485-1.69,3.276-1.707,5.12
			v20.565c-0.027,11.753,6.577,22.517,17.067,27.819l73.131,40.704C368.366,426.898,382.992,450.603,383.002,476.528z"/>
		<path style="fill:#E3E7F2;" d="M357.402,476.528v25.941H7.535l0-27.648c-0.012-25.047,13.673-48.095,35.669-60.075l76.117-41.557
			c10.014-5.429,16.241-15.916,16.213-27.308v-19.711c-0.017-1.844-0.614-3.635-1.707-5.12
			c-15.075-19.652-26.097-42.102-32.427-66.048V135.536c0,0-9.301-70.315,81.067-76.373c90.368,6.059,81.067,76.373,81.067,76.373
			v119.467c-6.329,23.946-17.351,46.396-32.427,66.048c-1.093,1.485-1.69,3.276-1.707,5.12v20.565
			c-0.027,11.753,6.577,22.517,17.067,27.819l73.131,40.704C342.766,426.898,357.392,450.603,357.402,476.528z"/>
		<g>
			<path style="fill:#A4C2F7;" d="M101.402,144.07v85.333H67.268c-9.414-0.028-17.039-7.653-17.067-17.067v-51.2
				c0.027-9.414,7.652-17.039,17.067-17.067H101.402z"/>
			<path style="fill:#A4C2F7;" d="M323.268,229.403h-34.133V144.07h34.133c9.426,0,17.067,7.641,17.067,17.067v51.2
				C340.335,221.762,332.694,229.403,323.268,229.403z"/>
		</g>
		<path style="fill:#FFFFFF;" d="M186.735,263.536h25.6c9.426,0,17.067,7.641,17.067,17.067l0,0c0,9.426-7.641,17.067-17.067,17.067
			h-25.6c-9.426,0-17.067-7.641-17.067-17.067l0,0C169.668,271.177,177.309,263.536,186.735,263.536z"/>
		<path style="fill:#A4C2F7;" d="M472.772,183.238c-2.686,10.263-6.763,20.111-12.117,29.269l13.227,26.539
			c-8.478,11.437-18.6,21.559-30.037,30.036l-15.872-7.935c2.219-1.877,4.352-3.925,6.4-5.973
			c5.026-5.028,9.675-10.418,13.909-16.128l-13.227-26.539c5.354-9.159,9.431-19.006,12.117-29.269l28.16-9.387
			c2.048-14.091,2.048-28.405,0-42.496l-28.16-9.388c-2.686-10.263-6.763-20.11-12.117-29.268l13.227-26.539
			c-4.234-5.71-8.883-11.101-13.909-16.128c-2.048-2.048-4.181-4.096-6.4-5.973l15.872-7.936
			c11.437,8.479,21.559,18.6,30.037,30.037l-13.227,26.539c5.354,9.158,9.431,19.006,12.117,29.269l28.16,9.388
			c2.048,14.091,2.048,28.405,0,42.496L472.772,183.238z"/>
	</g>
	<g transform="translate(1 7)">
		<path style="fill:#FFFFFF;" d="M33.135,468.822c-0.012-25.047,13.673-48.095,35.669-60.075l76.117-41.557
			c10.014-5.429,16.241-15.916,16.213-27.308v-19.711c-0.017-1.844-0.614-3.635-1.707-5.12
			c-15.075-19.652-26.097-42.102-32.427-66.048v-25.6h-25.6v25.6c6.329,23.946,17.351,46.396,32.427,66.048
			c1.093,1.485,1.69,3.276,1.707,5.12v19.711c0.028,11.391-6.199,21.879-16.213,27.308l-76.117,41.557
			c-21.997,11.979-35.682,35.028-35.669,60.075l0,27.648h25.6V468.822z"/>
		<path style="fill:#FFFFFF;" d="M207.823,53.186c-4.01-0.265-8.143-0.45-12.555-0.45c-4.437,0-8.704,0.171-12.8,0.427
			c-90.368,6.059-81.067,76.373-81.067,76.373v8.533h25.6v-8.533C127.002,129.536,117.726,59.358,207.823,53.186z"/>
		<rect x="101.402" y="138.07" style="fill:#FFFFFF;" width="25.6" height="85.333"/>
	</g>
	<g>
		<polygon style="fill:#FFFFFF;" points="8.535,494.936 119.468,494.936 384.002,494.936 384.002,512.003 119.468,512.003 
			8.535,512.003 		"/>
		<g>
			<path style="fill:#428DFF;" d="M504.627,124.261l-23.871-7.958c-2.389-7.904-5.554-15.552-9.45-22.833l11.213-22.5
				c1.433-2.875,1.13-6.311-0.783-8.892c-8.978-12.11-19.695-22.828-31.804-31.808c-2.583-1.911-6.019-2.214-8.896-0.783
				l-22.501,11.217c-7.281-3.896-14.929-7.061-22.833-9.45L387.748,7.37c-1.019-3.05-3.665-5.27-6.846-5.742
				c-14.923-2.15-30.077-2.15-45,0c-3.181,0.472-5.828,2.691-6.846,5.742l-7.954,23.883c-7.905,2.389-15.555,5.555-22.837,9.45
				l-10.527-5.235C247.79-0.863,190.162-10.186,140.798,11.696s-81.156,70.843-81.063,124.84v1.573
				c-10.199,3.592-17.034,13.214-17.067,24.027v51.2c0.033,10.813,6.868,20.435,17.067,24.027v18.64
				c0.02,18.843,15.29,34.113,34.133,34.133h11.736c6.217,13.071,13.72,25.49,22.397,37.075v19.675
				c0.031,8.267-4.492,15.881-11.767,19.808l-76.1,41.55C15.37,421.698-0.035,447.637,0.002,475.82v27.65
				c-0.001,2.263,0.898,4.434,2.499,6.035s3.771,2.499,6.035,2.499h34.133c4.713,0,8.533-3.821,8.533-8.533
				c0-4.713-3.821-8.533-8.533-8.533h-25.6V475.82c-0.032-21.93,11.954-42.116,31.225-52.583l76.075-41.533
				c12.786-6.907,20.74-20.284,20.7-34.817v-19.675c0.017-3.721-1.199-7.343-3.458-10.3c-6.338-8.469-12.003-17.421-16.941-26.775
				h39.039c3.592,10.199,13.214,17.033,24.027,17.067h25.6c14.139,0,25.6-11.462,25.6-25.6s-11.462-25.6-25.6-25.6h-25.6
				c-10.813,0.033-20.435,6.868-24.028,17.067h-46.921c-2.378-5.869-4.334-11.902-5.851-18.05V136.536
				c0-0.373-0.025-0.747-0.075-1.117c-1.251-15.524,3.666-30.916,13.683-42.842c14.137-16.125,38.271-24.308,71.725-24.308
				c33.329,0,57.412,8.125,71.575,24.142c10.038,11.986,15.002,27.417,13.833,43.008c-0.05,0.37-0.075,0.743-0.075,1.117V255.02
				c-6.142,22.414-16.558,43.43-30.675,61.892c-2.26,2.957-3.476,6.579-3.458,10.3v20.525c-0.095,14.868,8.205,28.518,21.45,35.275
				l73.454,40.875c20.342,10.124,33.173,30.92,33.096,53.642v17.408H110.935c-4.713,0-8.533,3.821-8.533,8.533
				c0,4.713,3.821,8.533,8.533,8.533h273.067c2.263,0.001,4.434-0.898,6.035-2.499c1.6-1.6,2.499-3.771,2.499-6.035v-25.941
				c0.13-29.061-16.215-55.687-42.188-68.725l-73.437-40.867c-7.625-3.838-12.42-11.663-12.375-20.2l-0.042-20.475
				c14.089-18.67,24.873-39.616,31.885-61.929c7.834,4.422,16.123,7.983,24.723,10.621l7.954,23.883
				c1.019,3.05,3.665,5.27,6.846,5.742c14.922,2.167,30.078,2.167,45,0c3.181-0.472,5.827-2.691,6.846-5.742l7.954-23.883
				c7.904-2.389,15.553-5.554,22.833-9.45l22.5,11.217c2.872,1.456,6.322,1.152,8.896-0.783
				c12.106-8.983,22.823-19.701,31.804-31.808c1.913-2.58,2.216-6.017,0.783-8.892l-11.213-22.5
				c3.895-7.281,7.061-14.929,9.45-22.833l23.871-7.958c3.053-1.014,5.275-3.66,5.746-6.842c2.172-14.921,2.172-30.079,0-45
				C509.901,127.921,507.679,125.275,504.627,124.261z M187.735,273.07h25.6c4.713,0,8.533,3.82,8.533,8.533
				s-3.821,8.533-8.533,8.533h-25.6c-4.713,0-8.533-3.82-8.533-8.533S183.022,273.07,187.735,273.07z M59.735,162.136
				c0.005-4.711,3.822-8.529,8.533-8.533h25.6v68.267h-25.6c-4.711-0.005-8.529-3.822-8.533-8.533V162.136z M93.868,273.07
				c-9.421-0.011-17.056-7.645-17.067-17.067v-17.067h17.067v17.067c-0.001,0.642,0.072,1.283,0.217,1.908
				c1.22,5.133,2.726,10.193,4.51,15.158H93.868z M280.827,81.336c-17.52-20-45.971-30.133-84.558-30.133
				s-67.038,10.133-84.558,30.133c-12.995,15.328-19.421,35.163-17.883,55.2H76.802c0-65.98,53.487-119.467,119.467-119.467
				s119.467,53.487,119.467,119.467H298.71C300.248,116.5,293.822,96.665,280.827,81.336z M298.668,153.603h25.6
				c4.711,0.005,8.529,3.822,8.533,8.533v51.2c-0.005,4.711-3.822,8.529-8.533,8.533h-25.6V153.603z M332.802,138.109v-1.573
				c-0.016-14.526-2.362-28.955-6.949-42.738c9.963-5.518,21.16-8.429,32.549-8.463c25.662-0.139,49.234,14.124,61.017,36.921
				c11.783,22.797,9.786,50.276-5.169,71.13c-14.955,20.854-40.342,31.56-65.714,27.712c0.847-2.502,1.297-5.121,1.332-7.763v-51.2
				C349.835,151.323,343.001,141.701,332.802,138.109z M494.148,168.453l-23.071,7.692c-2.736,0.908-4.827,3.137-5.558,5.925
				c-2.49,9.511-6.268,18.637-11.229,27.125c-1.453,2.487-1.555,5.539-0.271,8.117l10.842,21.758
				c-6.215,7.739-13.256,14.778-20.996,20.992l-21.75-10.842c-2.576-1.292-5.631-1.191-8.117,0.267
				c-8.487,4.963-17.613,8.739-27.125,11.225c-2.788,0.734-5.019,2.824-5.933,5.558l-7.688,23.083c-9.873,1.033-19.827,1.033-29.7,0
				l-7.688-23.083c-0.914-2.735-3.145-4.824-5.933-5.558c-9.644-2.532-18.894-6.376-27.492-11.425
				c-1.337-0.749-2.599-1.623-3.771-2.611v-7.74h25.6c4.144-0.029,8.218-1.077,11.862-3.051c7.251,2.021,14.744,3.047,22.271,3.051
				c35.457,0.143,67.308-21.655,80.012-54.758c12.704-33.103,3.615-70.613-22.834-94.228s-64.744-28.415-96.203-12.057
				c-3.676-7.691-8.064-15.02-13.108-21.892c7.482-4.096,15.425-7.287,23.661-9.506c2.788-0.734,5.019-2.824,5.933-5.558
				l7.688-23.083c9.873-1.033,19.827-1.033,29.7,0l7.688,23.083c0.914,2.735,3.145,4.824,5.933,5.558
				c9.512,2.486,18.638,6.262,27.125,11.225c2.487,1.454,5.54,1.554,8.117,0.267l21.75-10.842
				c7.743,6.211,14.783,13.25,20.996,20.992l-10.842,21.758c-1.284,2.578-1.183,5.63,0.271,8.117
				c4.961,8.488,8.739,17.614,11.229,27.125c0.732,2.788,2.823,5.017,5.558,5.925l23.071,7.692
				C495.198,148.626,495.198,158.581,494.148,168.453L494.148,168.453z"/>
			<path style="fill:#428DFF;" d="M82.86,509.528c0.77-0.815,1.379-1.77,1.792-2.813c0.438-1.027,0.67-2.13,0.683-3.246
				c-0.014-3.45-2.096-6.556-5.282-7.879c-3.187-1.323-6.856-0.606-9.31,1.82l-1.025,1.279c-0.324,0.476-0.583,0.993-0.771,1.538
				c-0.246,0.484-0.417,1.002-0.508,1.537c-0.096,0.564-0.153,1.133-0.171,1.704c0.031,2.259,0.915,4.423,2.475,6.059
				C74.14,512.75,79.463,512.75,82.86,509.528L82.86,509.528z"/>
		</g>
	</g>
</g>
<g>
</g>
<g>
</g>
<g>
</g>
<g>
</g>
<g>
</g>
<g>
</g>
<g>
</g>
<g>
</g>
<g>
</g>
<g>
</g>
<g>
</g>
<g>
</g>
<g>
</g>
<g>
</g>
<g>
</g>
</svg>
