<?xml version="1.0" encoding="iso-8859-1"?>
<!-- Generator: Adobe Illustrator 19.0.0, SVG Export Plug-In . SVG Version: 6.00 Build 0)  -->
<svg version="1.1" id="Capa_1" xmlns="http://www.w3.org/2000/svg" xmlns:xlink="http://www.w3.org/1999/xlink" x="0px" y="0px"
	 viewBox="0 0 512.193 512.193" style="enable-background:new 0 0 512.193 512.193;" xml:space="preserve">
<g transform="translate(0 -1)">
	<g transform="translate(1 1)">
		<path style="fill:#A4C2F7;" d="M33.23,179.393h443.733c14.138,0,25.6,11.462,25.6,25.6V478.06c0,14.138-11.462,25.6-25.6,25.6
			H33.23c-14.138,0-25.6-11.462-25.6-25.6V204.993C7.63,190.855,19.091,179.393,33.23,179.393z"/>
		<path style="fill:#D4E1F4;" d="M33.23,179.393h418.133c14.138,0,25.6,11.462,25.6,25.6V478.06c0,14.138-11.462,25.6-25.6,25.6
			H33.23c-14.138,0-25.6-11.462-25.6-25.6V204.993C7.63,190.855,19.091,179.393,33.23,179.393z"/>
		<path style="fill:#A4C2F7;" d="M50.297,213.526H442.83c4.713,0,8.533,3.821,8.533,8.533v238.933c0,4.713-3.82,8.533-8.533,8.533
			H50.297c-4.713,0-8.533-3.821-8.533-8.533V222.06C41.763,217.347,45.584,213.526,50.297,213.526z"/>
		
			<linearGradient id="SVGID_1_" gradientUnits="userSpaceOnUse" x1="-49.686" y1="652.7653" x2="-48.8657" y2="651.5349" gradientTransform="matrix(384 0 0 -256 19155.6973 167291.9531)">
			<stop  offset="0" style="stop-color:#D3DFF2"/>
			<stop  offset="0.1717" style="stop-color:#D3DFF2"/>
			<stop  offset="0.2" style="stop-color:#D3DFF2"/>
			<stop  offset="0.2002" style="stop-color:#DAE2F2"/>
			<stop  offset="0.2007" style="stop-color:#EBEAF2"/>
			<stop  offset="0.2014" style="stop-color:#F6EFF2"/>
			<stop  offset="0.2023" style="stop-color:#FDF2F2"/>
			<stop  offset="0.205" style="stop-color:#FFF3F2"/>
			<stop  offset="0.2522" style="stop-color:#FFF3F2"/>
			<stop  offset="0.26" style="stop-color:#FFF3F2"/>
			<stop  offset="0.26" style="stop-color:#D3DFF2"/>
			<stop  offset="0.3974" style="stop-color:#D3DFF2"/>
			<stop  offset="0.42" style="stop-color:#D3DFF2"/>
			<stop  offset="0.4202" style="stop-color:#DAE2F2"/>
			<stop  offset="0.4207" style="stop-color:#EBEAF2"/>
			<stop  offset="0.4214" style="stop-color:#F6EFF2"/>
			<stop  offset="0.4223" style="stop-color:#FDF2F2"/>
			<stop  offset="0.425" style="stop-color:#FFF3F2"/>
			<stop  offset="0.4894" style="stop-color:#FFF3F2"/>
			<stop  offset="0.5" style="stop-color:#FFF3F2"/>
			<stop  offset="0.5" style="stop-color:#F8F0F2"/>
			<stop  offset="0.5001" style="stop-color:#E7E8F2"/>
			<stop  offset="0.5003" style="stop-color:#DCE3F2"/>
			<stop  offset="0.5005" style="stop-color:#D5E0F2"/>
			<stop  offset="0.501" style="stop-color:#D3DFF2"/>
			<stop  offset="0.7062" style="stop-color:#D3DFF2"/>
			<stop  offset="0.74" style="stop-color:#D3DFF2"/>
			<stop  offset="0.741" style="stop-color:#FFF3F2"/>
			<stop  offset="0.8346" style="stop-color:#FFF3F2"/>
			<stop  offset="0.85" style="stop-color:#FFF3F2"/>
			<stop  offset="0.851" style="stop-color:#D3DFF2"/>
		</linearGradient>
		<path style="fill:url(#SVGID_1_);" d="M50.297,213.526H417.23c4.713,0,8.533,3.821,8.533,8.533v238.933
			c0,4.713-3.82,8.533-8.533,8.533H50.297c-4.713,0-8.533-3.821-8.533-8.533V222.06C41.763,217.347,45.584,213.526,50.297,213.526z"
			/>
		<path style="fill:#E3E7F2;" d="M400.163,153.793c0.003,38.475-15.279,75.375-42.485,102.581s-64.106,42.489-102.581,42.485
			c-15.033,0.028-29.978-2.304-44.288-6.912l-41.045,32.512v-53.419c-55.36-40.294-75.001-113.814-47.112-176.348
			s95.71-97.048,162.679-82.786S400.174,85.322,400.163,153.793z"/>
		<g>
			<circle style="fill:#FFFFFF;" cx="255.097" cy="76.993" r="17.067"/>
			<polygon style="fill:#FFFFFF;" points="238.03,162.326 238.03,213.526 220.963,213.526 220.963,247.66 289.23,247.66 
				289.23,213.526 272.163,213.526 272.163,128.193 220.963,128.193 220.963,162.326 			"/>
		</g>
		<path style="fill:#A4C2F7;" d="M400.163,153.793c0.003,38.475-15.279,75.375-42.485,102.581s-64.106,42.489-102.581,42.485
			c-4.352,0-8.704-0.171-12.971-0.598c74.898-6.527,132.39-69.209,132.434-144.391c0.044-75.182-57.373-137.932-132.264-144.547
			c4.254-0.416,8.526-0.615,12.8-0.597c38.475-0.003,75.375,15.279,102.581,42.485S400.167,115.318,400.163,153.793z"/>
	</g>
	<g transform="translate(1 2)">
		<path style="fill:#FFFFFF;" d="M135.63,152.793c0.015-75.18,57.49-137.878,132.385-144.415c-4.264-0.377-8.557-0.652-12.919-0.652
			c-4.274-0.018-8.546,0.181-12.8,0.597l0.264,0.035c-40.601,3.506-77.852,23.935-102.635,56.285s-34.809,73.635-27.625,113.749
			h25.6C136.394,169.943,135.634,161.377,135.63,152.793z"/>
		<path style="fill:#FFFFFF;" d="M33.23,502.66h25.6c-6.792,0.009-13.309-2.685-18.112-7.488s-7.497-11.32-7.488-18.112V203.993
			c-0.009-6.792,2.685-13.309,7.488-18.112s11.32-7.497,18.112-7.488l-25.6,0c-6.792-0.009-13.309,2.685-18.112,7.488
			s-7.497,11.32-7.488,18.112V477.06c-0.009,6.792,2.685,13.309,7.488,18.112S26.438,502.669,33.23,502.66z"/>
	</g>
	<g>
		<polygon style="fill:#FFFFFF;" points="17.163,205.993 17.163,316.926 17.163,479.06 0.097,479.06 0.097,316.926 0.097,205.993 		
			"/>
		<g>
			<path style="fill:#428DFF;" d="M8.63,282.793c2.259-0.034,4.422-0.918,6.059-2.475c3.3-3.365,3.3-8.752,0-12.117l-1.279-1.025
				c-0.476-0.324-0.993-0.583-1.538-0.771c-0.484-0.246-1.003-0.417-1.538-0.509c-0.563-0.096-1.133-0.153-1.704-0.171
				c-2.259,0.031-4.423,0.915-6.059,2.475c-3.222,3.397-3.222,8.721,0,12.117c0.815,0.771,1.77,1.379,2.813,1.792
				C6.411,282.548,7.514,282.78,8.63,282.793z"/>
			<path style="fill:#428DFF;" d="M477.963,171.86H408.69c6.638-58.641-20.911-115.898-70.875-147.305s-113.505-31.407-163.469,0
				s-77.513,88.664-70.875,147.305H34.23c-18.843,0.02-34.113,15.29-34.133,34.133v34.133c0,4.713,3.821,8.533,8.533,8.533
				s8.533-3.82,8.533-8.533v-34.133c0.011-9.421,7.645-17.056,17.067-17.067h72.152c1.321,5.78,2.975,11.478,4.954,17.067H51.297
				c-9.421,0.011-17.056,7.645-17.067,17.067v238.933c0.011,9.421,7.645,17.056,17.067,17.067H443.83
				c9.421-0.011,17.056-7.645,17.067-17.067V223.06c-0.011-9.421-7.645-17.056-17.067-17.067h-43.095
				c2.001-5.586,3.673-11.285,5.007-17.067h72.222c9.421,0.011,17.056,7.645,17.067,17.067v128h-8.533
				c-4.713,0-8.533,3.82-8.533,8.533s3.82,8.533,8.533,8.533h8.533v128c-0.011,9.421-7.645,17.056-17.067,17.067H34.23
				c-9.421-0.011-17.056-7.645-17.067-17.067V308.393c0-4.713-3.821-8.533-8.533-8.533s-8.533,3.82-8.533,8.533V479.06
				c0.02,18.843,15.29,34.113,34.133,34.133h443.733c18.843-0.02,34.113-15.29,34.133-34.133V205.993
				C512.076,187.15,496.806,171.88,477.963,171.86z M256.097,18.26c75.405,0,136.533,61.128,136.533,136.533
				s-61.128,136.533-136.533,136.533c-14.143,0.025-28.203-2.168-41.667-6.5c-2.714-0.872-5.684-0.334-7.921,1.434l-27.212,21.558
				v-35.775c0-2.735-1.311-5.304-3.525-6.908c-47.817-34.778-67.805-96.389-49.511-152.614S196.97,18.242,256.097,18.26z
				 M443.83,223.06v238.933H51.297V223.06h67.27c10.323,20.837,25.255,39.05,43.664,53.258v49.142
				c0.001,3.273,1.873,6.256,4.819,7.681c2.946,1.425,6.447,1.041,9.014-0.99l37.533-29.733
				c71.262,20.491,146.981-12.912,179.891-79.358H443.83z"/>
			<path style="fill:#428DFF;" d="M256.097,103.593c14.139,0,25.6-11.462,25.6-25.6s-11.461-25.6-25.6-25.6
				c-14.138,0-25.6,11.462-25.6,25.6C230.512,92.125,241.964,103.578,256.097,103.593z M256.097,69.46
				c4.713,0,8.533,3.821,8.533,8.533s-3.821,8.533-8.533,8.533c-4.713,0-8.533-3.821-8.533-8.533
				C247.568,73.282,251.386,69.464,256.097,69.46z"/>
			<path style="fill:#428DFF;" d="M221.963,257.193h68.267c2.263,0.001,4.434-0.898,6.035-2.499c1.6-1.6,2.499-3.771,2.499-6.035
				v-34.133c0.001-2.263-0.898-4.434-2.499-6.035c-1.6-1.6-3.771-2.499-6.035-2.499h-8.533v-76.8
				c0.001-2.263-0.898-4.434-2.499-6.035c-1.6-1.6-3.771-2.499-6.035-2.499h-51.2c-2.263-0.001-4.434,0.898-6.035,2.499
				c-1.6,1.6-2.499,3.771-2.499,6.035v34.133c-0.001,2.263,0.898,4.434,2.499,6.035c1.6,1.6,3.771,2.499,6.035,2.499h8.533v34.133
				h-8.533c-2.263-0.001-4.434,0.898-6.035,2.499c-1.6,1.6-2.499,3.771-2.499,6.035v34.133c-0.001,2.263,0.898,4.434,2.499,6.035
				S219.7,257.194,221.963,257.193z M230.497,223.06h8.533c2.263,0.001,4.434-0.898,6.035-2.499c1.6-1.6,2.499-3.771,2.499-6.035
				v-51.2c0.001-2.263-0.898-4.434-2.499-6.035c-1.6-1.6-3.771-2.499-6.035-2.499h-8.533v-17.067h34.133v76.8
				c-0.001,2.263,0.898,4.434,2.499,6.035c1.6,1.6,3.771,2.499,6.035,2.499h8.533v17.067h-51.2V223.06z"/>
			<path style="fill:#428DFF;" d="M82.93,421.827c-3.341-3.281-8.701-3.256-12.012,0.054s-3.335,8.671-0.054,12.012l8.533,8.533
				c2.149,2.188,5.307,3.055,8.271,2.27c2.965-0.785,5.28-3.1,6.065-6.065c0.785-2.965-0.082-6.122-2.27-8.271L82.93,421.827z"/>
			<path style="fill:#428DFF;" d="M82.93,379.16c-3.341-3.281-8.701-3.256-12.012,0.054c-3.311,3.311-3.335,8.671-0.054,12.012
				l51.2,51.2c2.149,2.188,5.307,3.055,8.271,2.27c2.965-0.785,5.28-3.1,6.065-6.065c0.785-2.965-0.082-6.122-2.27-8.271
				L82.93,379.16z"/>
		</g>
	</g>
</g>
<g>
</g>
<g>
</g>
<g>
</g>
<g>
</g>
<g>
</g>
<g>
</g>
<g>
</g>
<g>
</g>
<g>
</g>
<g>
</g>
<g>
</g>
<g>
</g>
<g>
</g>
<g>
</g>
<g>
</g>
</svg>
