<?xml version="1.0" encoding="iso-8859-1"?>
<!-- Generator: Adobe Illustrator 19.0.0, SVG Export Plug-In . SVG Version: 6.00 Build 0)  -->
<svg version="1.1" id="Capa_1" xmlns="http://www.w3.org/2000/svg" xmlns:xlink="http://www.w3.org/1999/xlink" x="0px" y="0px"
	 viewBox="0 0 512.005 512.005" style="enable-background:new 0 0 512.005 512.005;" xml:space="preserve">
<g transform="translate(0 -1)">
	<g transform="translate(1 2)">
		<rect x="186.736" y="400.072" style="fill:#A4C2F7;" width="136.533" height="85.333"/>
		<rect x="186.736" y="400.072" style="fill:#D4E1F4;" width="110.933" height="85.333"/>
		<g>
			
				<linearGradient id="SVGID_1_" gradientUnits="userSpaceOnUse" x1="-49.7985" y1="651.6829" x2="-48.9981" y2="650.4925" gradientTransform="matrix(494.9333 0 0 -332.8 24703.8789 216855.9375)">
				<stop  offset="0" style="stop-color:#D3DFF2"/>
				<stop  offset="0.1717" style="stop-color:#D3DFF2"/>
				<stop  offset="0.2" style="stop-color:#D3DFF2"/>
				<stop  offset="0.2002" style="stop-color:#DAE2F2"/>
				<stop  offset="0.2007" style="stop-color:#EBEAF2"/>
				<stop  offset="0.2014" style="stop-color:#F6EFF2"/>
				<stop  offset="0.2023" style="stop-color:#FDF2F2"/>
				<stop  offset="0.205" style="stop-color:#FFF3F2"/>
				<stop  offset="0.2522" style="stop-color:#FFF3F2"/>
				<stop  offset="0.26" style="stop-color:#FFF3F2"/>
				<stop  offset="0.26" style="stop-color:#D3DFF2"/>
				<stop  offset="0.3974" style="stop-color:#D3DFF2"/>
				<stop  offset="0.42" style="stop-color:#D3DFF2"/>
				<stop  offset="0.4202" style="stop-color:#DAE2F2"/>
				<stop  offset="0.4207" style="stop-color:#EBEAF2"/>
				<stop  offset="0.4214" style="stop-color:#F6EFF2"/>
				<stop  offset="0.4223" style="stop-color:#FDF2F2"/>
				<stop  offset="0.425" style="stop-color:#FFF3F2"/>
				<stop  offset="0.4894" style="stop-color:#FFF3F2"/>
				<stop  offset="0.5" style="stop-color:#FFF3F2"/>
				<stop  offset="0.5" style="stop-color:#F8F0F2"/>
				<stop  offset="0.5001" style="stop-color:#E7E8F2"/>
				<stop  offset="0.5003" style="stop-color:#DCE3F2"/>
				<stop  offset="0.5005" style="stop-color:#D5E0F2"/>
				<stop  offset="0.501" style="stop-color:#D3DFF2"/>
				<stop  offset="0.7062" style="stop-color:#D3DFF2"/>
				<stop  offset="0.74" style="stop-color:#D3DFF2"/>
				<stop  offset="0.741" style="stop-color:#FFF3F2"/>
				<stop  offset="0.8346" style="stop-color:#FFF3F2"/>
				<stop  offset="0.85" style="stop-color:#FFF3F2"/>
				<stop  offset="0.851" style="stop-color:#D3DFF2"/>
			</linearGradient>
			<path style="fill:url(#SVGID_1_);" d="M502.469,34.751v278.376c0,14.991-15.275,27.212-34.133,27.212H41.669
				c-18.859,0-34.133-12.221-34.133-27.212V34.751c0-14.991,15.275-27.212,34.133-27.212h426.667
				C487.195,7.539,502.469,19.759,502.469,34.751z"/>
			
				<linearGradient id="SVGID_2_" gradientUnits="userSpaceOnUse" x1="-49.7931" y1="651.6829" x2="-48.9927" y2="650.4925" gradientTransform="matrix(469.3333 0 0 -332.8 23423.9473 216855.9375)">
				<stop  offset="0" style="stop-color:#D3DFF2"/>
				<stop  offset="0.1717" style="stop-color:#D3DFF2"/>
				<stop  offset="0.2" style="stop-color:#D3DFF2"/>
				<stop  offset="0.2002" style="stop-color:#DAE2F2"/>
				<stop  offset="0.2007" style="stop-color:#EBEAF2"/>
				<stop  offset="0.2014" style="stop-color:#F6EFF2"/>
				<stop  offset="0.2023" style="stop-color:#FDF2F2"/>
				<stop  offset="0.205" style="stop-color:#FFF3F2"/>
				<stop  offset="0.2522" style="stop-color:#FFF3F2"/>
				<stop  offset="0.26" style="stop-color:#FFF3F2"/>
				<stop  offset="0.26" style="stop-color:#D3DFF2"/>
				<stop  offset="0.3974" style="stop-color:#D3DFF2"/>
				<stop  offset="0.42" style="stop-color:#D3DFF2"/>
				<stop  offset="0.4202" style="stop-color:#DAE2F2"/>
				<stop  offset="0.4207" style="stop-color:#EBEAF2"/>
				<stop  offset="0.4214" style="stop-color:#F6EFF2"/>
				<stop  offset="0.4223" style="stop-color:#FDF2F2"/>
				<stop  offset="0.425" style="stop-color:#FFF3F2"/>
				<stop  offset="0.4894" style="stop-color:#FFF3F2"/>
				<stop  offset="0.5" style="stop-color:#FFF3F2"/>
				<stop  offset="0.5" style="stop-color:#F8F0F2"/>
				<stop  offset="0.5001" style="stop-color:#E7E8F2"/>
				<stop  offset="0.5003" style="stop-color:#DCE3F2"/>
				<stop  offset="0.5005" style="stop-color:#D5E0F2"/>
				<stop  offset="0.501" style="stop-color:#D3DFF2"/>
				<stop  offset="0.7062" style="stop-color:#D3DFF2"/>
				<stop  offset="0.74" style="stop-color:#D3DFF2"/>
				<stop  offset="0.741" style="stop-color:#FFF3F2"/>
				<stop  offset="0.8346" style="stop-color:#FFF3F2"/>
				<stop  offset="0.85" style="stop-color:#FFF3F2"/>
				<stop  offset="0.851" style="stop-color:#D3DFF2"/>
			</linearGradient>
			<path style="fill:url(#SVGID_2_);" d="M476.869,34.751v278.376c0,14.991-15.275,27.212-34.133,27.212H41.669
				c-18.859,0-34.133-12.221-34.133-27.212V34.751c0-14.991,15.275-27.212,34.133-27.212h401.067
				C461.595,7.539,476.869,19.759,476.869,34.751z"/>
		</g>
		<path style="fill:#7FABFA;" d="M391.536,493.939v8.533H118.469l0-8.533c-0.009-6.792,2.685-13.309,7.488-18.112
			c4.803-4.803,11.32-7.497,18.112-7.488h221.867c6.792-0.009,13.309,2.685,18.112,7.488
			C388.851,480.63,391.545,487.146,391.536,493.939z"/>
		<path style="fill:#A4C2F7;" d="M365.936,493.939v8.533H118.469l0-8.533c-0.009-6.792,2.685-13.309,7.488-18.112
			c4.803-4.803,11.32-7.497,18.112-7.488h196.267c6.792-0.009,13.309,2.685,18.112,7.488
			C363.251,480.63,365.945,487.146,365.936,493.939z"/>
		<path style="fill:#7FABFA;" d="M502.469,331.805v44.117c-0.423,18.441-15.691,33.061-34.133,32.683H41.669
			c-18.442,0.378-33.711-14.242-34.133-32.683v-44.117H502.469z"/>
		<path style="fill:#A4C2F7;" d="M476.869,331.805v44.117c-0.423,18.441-15.691,33.061-34.133,32.683H41.669
			c-18.442,0.378-33.711-14.242-34.133-32.683v-44.117H476.869z"/>
		<g>
			<circle style="fill:#E3E7F2;" cx="101.403" cy="195.272" r="59.733"/>
			<circle style="fill:#E3E7F2;" cx="255.003" cy="195.272" r="59.733"/>
			<circle style="fill:#E3E7F2;" cx="408.603" cy="195.272" r="59.733"/>
		</g>
		<g>
			<path style="fill:#FFFFFF;" d="M41.669,408.605h25.6c-18.442,0.378-33.711-14.242-34.133-32.683v-44.117h9.427
				c-5.775-4.506-9.232-11.357-9.427-18.679V34.751c0-14.992,15.275-27.213,34.133-27.213h-25.6
				c-18.859,0-34.133,12.22-34.133,27.213v278.374c0.195,7.322,3.653,14.173,9.427,18.679H7.536v44.117
				C7.958,394.363,23.227,408.984,41.669,408.605z"/>
			<path style="fill:#FFFFFF;" d="M118.469,493.939l0,8.533h25.6v-8.533c-0.009-6.792,2.685-13.309,7.488-18.112
				c4.803-4.803,11.32-7.497,18.112-7.488h-25.6c-6.792-0.009-13.309,2.685-18.112,7.488
				C121.154,480.63,118.46,487.146,118.469,493.939z"/>
			<rect x="186.736" y="408.605" style="fill:#FFFFFF;" width="25.6" height="59.733"/>
		</g>
	</g>
	<g>
		<polygon style="fill:#FFFFFF;" points="17.069,42.221 17.069,153.155 17.069,377.923 0.003,377.923 0.003,153.155 0.003,42.221 		
			"/>
		<g>
			<path style="fill:#428DFF;" d="M170.669,197.272c0-37.703-30.564-68.267-68.267-68.267s-68.267,30.564-68.267,68.267
				s30.564,68.267,68.267,68.267C140.087,265.496,170.626,234.957,170.669,197.272z M51.203,197.272c0-28.277,22.923-51.2,51.2-51.2
				s51.2,22.923,51.2,51.2s-22.923,51.2-51.2,51.2C74.139,248.441,51.234,225.536,51.203,197.272z"/>
			<path style="fill:#428DFF;" d="M126.536,221.405c2.162-2.154,3.008-5.299,2.22-8.247c-0.788-2.948-3.091-5.251-6.039-6.039
				c-2.948-0.788-6.093,0.058-8.247,2.22c-6.758,6.433-17.375,6.433-24.133,0c-3.332-3.332-8.735-3.332-12.067,0
				c-3.332,3.332-3.332,8.735,0,12.067C91.605,234.716,113.2,234.716,126.536,221.405z"/>
			<path style="fill:#428DFF;" d="M324.269,197.272c0-37.703-30.564-68.267-68.267-68.267s-68.267,30.564-68.267,68.267
				s30.564,68.267,68.267,68.267C293.687,265.496,324.226,234.957,324.269,197.272z M204.803,197.272
				c0-28.277,22.923-51.2,51.2-51.2s51.2,22.923,51.2,51.2s-22.923,51.2-51.2,51.2C227.739,248.441,204.834,225.536,204.803,197.272
				z"/>
			<path style="fill:#428DFF;" d="M477.869,197.272c0-37.703-30.564-68.267-68.267-68.267s-68.267,30.564-68.267,68.267
				s30.564,68.267,68.267,68.267C447.287,265.496,477.826,234.957,477.869,197.272z M358.403,197.272
				c0-28.277,22.923-51.2,51.2-51.2c28.277,0,51.2,22.923,51.2,51.2s-22.923,51.2-51.2,51.2
				C381.339,248.441,358.434,225.536,358.403,197.272z"/>
			<path style="fill:#428DFF;" d="M421.669,227.855c3.332,3.332,8.735,3.332,12.067,0c3.332-3.332,3.332-8.735,0-12.067
				c-13.34-13.3-34.926-13.3-48.267,0c-3.332,3.332-3.332,8.735,0,12.067c3.332,3.332,8.735,3.332,12.067,0
				C404.206,221.206,414.999,221.206,421.669,227.855z"/>
			<path style="fill:#428DFF;" d="M281.603,214.339c0.001-2.263-0.898-4.434-2.499-6.035c-1.6-1.6-3.771-2.499-6.035-2.499h-34.133
				c-4.713,0-8.533,3.821-8.533,8.533s3.82,8.533,8.533,8.533h34.133c2.263,0.001,4.434-0.898,6.035-2.499
				C280.704,218.773,281.603,216.602,281.603,214.339z"/>
			<path style="fill:#428DFF;" d="M8.536,119.021c2.259-0.034,4.422-0.918,6.059-2.475c3.3-3.365,3.3-8.752,0-12.117l-1.279-1.025
				c-0.476-0.324-0.993-0.583-1.538-0.771c-0.484-0.246-1.003-0.417-1.538-0.509c-0.563-0.096-1.133-0.153-1.704-0.171
				c-2.259,0.031-4.423,0.915-6.059,2.475c-3.221,3.397-3.221,8.72,0,12.117c0.815,0.77,1.77,1.379,2.813,1.792
				C6.317,118.776,7.42,119.008,8.536,119.021z"/>
			<path style="fill:#428DFF;" d="M469.336,1.005H42.669C19.52,0.64,0.438,19.073,0.003,42.221v34.133
				c0,4.713,3.821,8.533,8.533,8.533s8.533-3.82,8.533-8.533V42.222c0.427-13.726,11.872-24.523,25.6-24.15h426.667
				c13.728-0.373,25.173,10.424,25.6,24.15v283.05H17.069V144.621c0-4.713-3.821-8.533-8.533-8.533s-8.533,3.821-8.533,8.533
				v233.301c0.435,23.148,19.517,41.581,42.667,41.216h136.533v42.667h-34.133c-18.843,0.02-34.113,15.29-34.133,34.133v8.533
				c-0.001,2.263,0.898,4.434,2.499,6.035c1.6,1.6,3.771,2.499,6.035,2.499h273.067c2.263,0.001,4.434-0.898,6.035-2.499
				c1.6-1.6,2.499-3.771,2.499-6.035v-8.533c-0.02-18.843-15.29-34.113-34.133-34.133h-34.133v-42.667h136.533
				c23.15,0.366,42.232-18.068,42.667-41.217v-335.7C511.568,19.073,492.486,0.639,469.336,1.005z M384.003,495.939h-256
				c0.011-9.421,7.645-17.056,17.067-17.067h221.867C376.357,478.883,383.992,486.518,384.003,495.939z M315.736,461.805H196.269
				v-42.667h119.467V461.805z M469.336,402.072H42.669c-13.728,0.373-25.173-10.424-25.6-24.15v-35.583h477.867v35.583
				C494.509,391.648,483.064,402.445,469.336,402.072z"/>
			<path style="fill:#428DFF;" d="M82.09,188.055c2.067,0.911,4.421,0.911,6.487,0c1.033-0.434,1.986-1.04,2.817-1.792
				c1.557-1.637,2.441-3.799,2.475-6.058c0.03-1.121-0.205-2.232-0.683-3.246c-0.78-2.141-2.467-3.828-4.608-4.608
				c-2.061-0.938-4.427-0.938-6.487,0c-1.033,0.434-1.984,1.041-2.813,1.795c-0.773,0.814-1.383,1.769-1.796,2.813
				c-0.436,1.027-0.667,2.13-0.679,3.246c0.016,2.263,0.902,4.432,2.475,6.059C80.107,187.016,81.058,187.621,82.09,188.055z"/>
			<path style="fill:#428DFF;" d="M116.224,188.055c2.067,0.911,4.421,0.911,6.487,0c1.033-0.434,1.986-1.04,2.817-1.792
				c1.557-1.637,2.441-3.799,2.475-6.058c0.03-1.121-0.205-2.232-0.683-3.246c-0.78-2.141-2.467-3.828-4.608-4.608
				c-2.061-0.938-4.427-0.938-6.487,0c-1.033,0.434-1.984,1.041-2.813,1.795c-0.773,0.814-1.383,1.769-1.796,2.813
				c-0.436,1.027-0.667,2.13-0.679,3.246c0.016,2.263,0.902,4.432,2.475,6.059C114.24,187.016,115.192,187.621,116.224,188.055z"/>
			<path style="fill:#428DFF;" d="M235.69,188.055c2.067,0.911,4.421,0.911,6.487,0c1.033-0.434,1.986-1.04,2.817-1.792
				c1.557-1.637,2.441-3.799,2.475-6.058c0.03-1.121-0.205-2.232-0.683-3.246c-0.78-2.141-2.467-3.828-4.608-4.608
				c-2.061-0.938-4.427-0.938-6.487,0c-1.033,0.434-1.985,1.041-2.813,1.795c-0.773,0.814-1.383,1.769-1.796,2.813
				c-0.436,1.027-0.667,2.13-0.679,3.246c0.016,2.263,0.902,4.432,2.475,6.059C233.707,187.016,234.658,187.621,235.69,188.055z"/>
			<path style="fill:#428DFF;" d="M269.824,188.055c2.066,0.911,4.421,0.911,6.487,0c1.033-0.434,1.986-1.04,2.817-1.792
				c1.557-1.637,2.441-3.799,2.475-6.058c0.03-1.121-0.204-2.232-0.683-3.246c-0.78-2.141-2.467-3.828-4.608-4.608
				c-2.061-0.938-4.427-0.938-6.487,0c-1.033,0.434-1.984,1.041-2.813,1.795c-0.773,0.814-1.383,1.769-1.796,2.813
				c-0.436,1.027-0.667,2.13-0.679,3.246c0.016,2.263,0.902,4.432,2.475,6.059C267.84,187.016,268.792,187.621,269.824,188.055z"/>
			<path style="fill:#428DFF;" d="M389.29,188.055c2.067,0.911,4.421,0.911,6.487,0c1.033-0.434,1.986-1.04,2.817-1.792
				c1.557-1.637,2.441-3.799,2.475-6.058c0.03-1.121-0.204-2.232-0.683-3.246c-0.78-2.141-2.467-3.828-4.608-4.608
				c-2.061-0.938-4.427-0.938-6.487,0c-1.033,0.434-1.984,1.041-2.813,1.795c-0.773,0.814-1.383,1.769-1.796,2.813
				c-0.436,1.027-0.667,2.13-0.679,3.246c0.016,2.263,0.902,4.432,2.475,6.059C387.307,187.016,388.258,187.621,389.29,188.055z"/>
			<path style="fill:#428DFF;" d="M423.424,188.055c2.067,0.911,4.421,0.911,6.487,0c1.033-0.434,1.986-1.04,2.817-1.792
				c1.557-1.637,2.441-3.799,2.475-6.058c0.03-1.121-0.204-2.232-0.683-3.246c-0.78-2.141-2.467-3.828-4.608-4.608
				c-2.061-0.938-4.427-0.938-6.487,0c-1.033,0.434-1.984,1.041-2.813,1.795c-0.773,0.814-1.383,1.769-1.796,2.813
				c-0.436,1.027-0.667,2.13-0.679,3.246c0.016,2.263,0.902,4.432,2.475,6.059C421.44,187.016,422.392,187.621,423.424,188.055z"/>
		</g>
	</g>
</g>
<g>
</g>
<g>
</g>
<g>
</g>
<g>
</g>
<g>
</g>
<g>
</g>
<g>
</g>
<g>
</g>
<g>
</g>
<g>
</g>
<g>
</g>
<g>
</g>
<g>
</g>
<g>
</g>
<g>
</g>
</svg>
