<?xml version="1.0" encoding="iso-8859-1"?>
<!-- Generator: Adobe Illustrator 19.0.0, SVG Export Plug-In . SVG Version: 6.00 Build 0)  -->
<svg version="1.1" id="Capa_1" xmlns="http://www.w3.org/2000/svg" xmlns:xlink="http://www.w3.org/1999/xlink" x="0px" y="0px"
	 viewBox="0 0 511.98 511.98" style="enable-background:new 0 0 511.98 511.98;" xml:space="preserve">
<g>
	<g transform="translate(0 1)">
		<path style="fill:#E3E7F2;" d="M503.447,41.801v76.8c0,4.713-3.821,8.533-8.533,8.533H349.847c-4.713,0-8.533,3.82-8.533,8.533
			v9.018c0,3.196-1.786,6.125-4.629,7.588c-2.842,1.463-6.264,1.214-8.865-0.644l-93.867-68.38c-2.303-1.645-3.64-4.324-3.571-7.153
			c0.069-2.829,1.536-5.439,3.917-6.97l93.867-60.105c2.626-1.688,5.964-1.808,8.704-0.312c2.74,1.496,4.444,4.368,4.444,7.49v8.533
			c0,4.713,3.82,8.533,8.533,8.533h145.067C499.626,33.268,503.447,37.088,503.447,41.801z"/>
		<path style="fill:#A4C2F7;" d="M499.864,245.392l-93.867,68.352c-2.596,1.851-6.007,2.099-8.844,0.645
			c-2.837-1.454-4.626-4.369-4.639-7.557v-9.045c-0.014-4.707-3.826-8.52-8.533-8.533H238.914c-4.707-0.014-8.52-3.826-8.533-8.533
			v-76.8c0.014-4.707,3.826-8.52,8.533-8.533H383.98c4.707-0.014,8.52-3.826,8.533-8.533v-8.533c0.003-3.119,1.707-5.987,4.445-7.48
			c2.738-1.493,6.072-1.374,8.696,0.313l93.867,60.075c2.398,1.527,3.878,4.149,3.947,6.992
			C503.537,241.061,502.185,243.751,499.864,245.392z"/>
		<path style="fill:#E3E7F2;" d="M465.73,245.392l-73.217,53.333v-0.939c-0.014-4.707-3.826-8.52-8.533-8.533H238.914
			c-4.707-0.014-8.52-3.826-8.533-8.533v-76.8c0.014-4.707,3.826-8.52,8.533-8.533H383.98c4.707-0.014,8.52-3.826,8.533-8.533
			v-2.304l72.875,46.677c2.398,1.527,3.878,4.149,3.947,6.992C469.404,241.061,468.052,243.751,465.73,245.392z"/>
		<path style="fill:#A4C2F7;" d="M419.052,442l-12.032,12.117l-11.52,11.435l-2.987,3.072l-8.619,8.533
			c-53.931,53.931-175.872,19.285-272.554-77.397C15.17,303.59-19.561,182.502,33.004,128.144l9.557-9.472l12.032-12.117
			c0.149-0.167,0.321-0.311,0.512-0.427l1.963-1.963L69.1,92.048c6.674-6.656,17.476-6.656,24.149,0l48.215,48.299
			c3.196,3.189,4.991,7.518,4.991,12.032c0,4.514-1.796,8.843-4.991,12.032l-12.033,12.117l-2.389,2.389l-16.982,16.981
			c-3.75,3.664-5.553,8.882-4.863,14.08c3.071,23.211,20.565,71.509,72.533,123.392c51.881,51.968,100.181,69.461,123.392,72.533
			c4.965,0.69,9.971-0.947,13.568-4.437l0.511-0.427l19.371-19.371l12.117-12.032c3.188-3.196,7.517-4.992,12.032-4.992
			c4.514,0,8.843,1.796,12.032,4.992l48.299,48.213C425.708,424.525,425.709,435.327,419.052,442z"/>
		<g>
			<path style="fill:#E3E7F2;" d="M404.545,456.422l-9.045,9.131l-2.987,3.072l-8.619,8.533
				c-53.931,53.931-175.872,19.285-272.554-77.397C15.17,303.59-19.561,182.502,33.004,128.144l9.557-9.472l12.032-12.117
				c0.149-0.167,0.321-0.311,0.512-0.427c6.678-6.324,17.191-6.134,23.637,0.427l48.299,48.213c6.57,6.709,6.57,17.44,0,24.149
				l-12.117,12.032l-4.864,4.949l-14.421,14.507c-3.829,3.578-5.649,8.813-4.864,13.995c2.987,23.211,20.48,71.509,72.533,123.392
				c51.797,52.053,100.181,69.547,123.392,72.533c5.178,0.744,10.394-1.069,13.995-4.864l13.995-13.995l0.511-0.427l4.865-4.949
				h0.085l12.031-12.032c6.676-6.571,17.389-6.571,24.065,0l48.298,48.299c3.234,3.168,5.056,7.505,5.056,12.032
				C409.601,448.917,407.779,453.254,404.545,456.422z"/>
			<path style="fill:#E3E7F2;" d="M419.052,442l-12.032,12.117l-6.059-6.059l-66.389-66.389l12.117-12.032
				c3.188-3.196,7.517-4.992,12.032-4.992c4.514,0,8.843,1.796,12.032,4.992l48.299,48.213
				C425.708,424.525,425.709,435.327,419.052,442z"/>
			<path style="fill:#E3E7F2;" d="M141.464,164.411l-12.033,12.117l-72.363-72.363L69.1,92.048c6.674-6.656,17.476-6.656,24.149,0
				l48.215,48.299c3.195,3.189,4.991,7.518,4.991,12.032C146.455,156.894,144.659,161.222,141.464,164.411z"/>
		</g>
		<path style="fill:#A4C2F7;" d="M503.447,41.787v76.8c-0.014,4.707-3.826,8.52-8.533,8.533h-25.6
			c4.707-0.014,8.52-3.826,8.533-8.533v-76.8c-0.014-4.707-3.826-8.52-8.533-8.533h25.6
			C499.621,33.267,503.433,37.08,503.447,41.787z"/>
		<g>
			<path style="fill:#FFFFFF;" d="M255.98,280.72v-76.8c0.014-4.707,3.826-8.52,8.533-8.533h-25.6
				c-4.707,0.014-8.52,3.826-8.533,8.533v76.8c0.014,4.707,3.826,8.52,8.533,8.533h25.6
				C259.806,289.24,255.994,285.428,255.98,280.72z"/>
			<polygon style="fill:#FFFFFF;" points="494.914,33.254 469.314,33.254 469.382,33.271 494.982,33.271 			"/>
			<path style="fill:#FFFFFF;" d="M328.166,9.023l-93.867,60.105c-2.38,1.53-3.848,4.141-3.917,6.969s1.268,5.508,3.571,7.153
				l93.867,68.38c2.601,1.858,6.023,2.106,8.865,0.643c2.842-1.463,4.629-4.391,4.629-7.588v-1.875l-81.76-59.56
				c-2.303-1.645-3.641-4.324-3.571-7.153c0.069-2.829,1.537-5.44,3.917-6.97l81.415-52.131v-0.795c0-3.122-1.704-5.994-4.444-7.49
				C334.129,7.215,330.791,7.335,328.166,9.023z"/>
			<path style="fill:#FFFFFF;" d="M326.745,501.979c-57.699-4.917-128.775-41.19-189.804-102.218
				C40.77,303.59,6.039,182.502,58.604,128.144l9.557-9.472l12.032-12.117c0.149-0.167,0.321-0.311,0.512-0.427l1.963-1.963
				l11.308-11.389l-0.728-0.729c-6.674-6.656-17.476-6.656-24.149,0l-12.032,12.117l-1.963,1.963
				c-0.191,0.116-0.363,0.26-0.511,0.427l-12.032,12.117l-9.557,9.472C-19.561,182.502,15.17,303.59,111.341,399.76
				C181.765,470.184,265.564,507.642,326.745,501.979z"/>
		</g>
	</g>
	<g>
		<path style="fill:#FFFFFF;" d="M105.299,406.802c-26.766-26.686-49.877-56.802-68.73-89.56
			c-17.451-29.343-29.194-61.721-34.611-95.428C0.721,213.229,0.067,204.57,0,195.896c0.225-8.823,1.265-17.606,3.106-26.238
			c3.617-17.846,12.207-34.306,24.777-47.479l12.068,12.068c-10.264,10.87-17.257,24.412-20.176,39.074
			c-1.592,7.496-2.499,15.121-2.709,22.781c0.077,7.814,0.677,15.615,1.794,23.349c5.129,31.577,16.176,61.902,32.56,89.379
			c18.095,31.419,40.271,60.305,65.948,85.903L105.299,406.802z"/>
		<g>
			<path style="fill:#428DFF;" d="M94.739,370.077c-3.072-3.514-8.383-3.944-11.981-0.971c-1.747,1.462-2.834,3.563-3.018,5.833
				c-0.184,2.27,0.55,4.519,2.039,6.243c7.243,9.079,15.694,17.055,23.51,25.609l0.009,0.012
				c67.233,67.225,147.1,104.925,209.533,104.925c27.714,1.32,54.788-8.598,75.092-27.508l35.175-35.175
				c9.978-10.007,9.978-26.201,0-36.208l-48.267-48.284c-10.014-9.964-26.199-9.96-36.208,0.009l-12.058,12.06l-0.009,0.006
				l-0.006,0.009l-19.344,19.349c-1.812,1.879-4.401,2.798-6.992,2.483c-9.317-1.242-58.825-10.458-118.475-70.108
				s-68.867-109.158-70.108-118.467c-0.315-2.589,0.601-5.177,2.475-6.992l31.442-31.425c9.969-10.012,9.965-26.201-0.009-36.208
				L99.272,87.004c-10.141-9.65-26.068-9.65-36.208,0l-35.183,35.175l-0.014,0.021c-12.561,13.17-21.144,29.622-24.761,47.459
				C1.265,178.29,0.225,187.073,0,195.896c0.067,8.673,0.721,17.332,1.957,25.917c5.417,33.707,17.16,66.086,34.611,95.428
				l4.365,7.568c1.129,1.993,3.028,3.434,5.252,3.984s4.576,0.16,6.503-1.077c3.881-2.525,5.145-7.624,2.891-11.668l-4.16-7.217
				c-16.384-27.478-27.431-57.802-32.56-89.38c-1.117-7.734-1.716-15.535-1.794-23.349c0.211-7.66,1.118-15.285,2.709-22.781
				c2.919-14.662,9.912-28.205,20.176-39.074l-0.002-0.003L57.03,117.17l60.339,60.339l-13.34,13.336
				c-5.64,5.559-8.348,13.44-7.317,21.292c3.967,29.75,25.733,79.075,74.958,128.292c49.217,49.225,98.542,70.992,128.3,74.958
				c7.853,1.035,15.737-1.678,21.292-7.325l13.329-13.329l60.338,60.337l0.002,0.002l-17.077,17.082
				c-50.467,50.442-167.317,15.742-260.492-77.417l0.003-0.003C109.856,386.487,101.686,378.815,94.739,370.077z M69.099,105.106
				l6.04-6.036c3.383-3.2,8.676-3.2,12.058,0l48.267,48.267c3.331,3.334,3.335,8.736,0.009,12.075l-6.034,6.032L69.099,105.106z
				 M406.997,443.004l-60.338-60.337l6.029-6.029c3.336-3.327,8.734-3.331,12.075-0.009l48.267,48.283
				c3.311,3.338,3.311,8.721,0,12.058L406.997,443.004L406.997,443.004z"/>
			<path style="fill:#428DFF;" d="M68.421,340.534c-1.092-0.164-2.205-0.118-3.28,0.135c-1.088,0.226-2.121,0.662-3.041,1.284
				c-1.854,1.331-3.136,3.313-3.592,5.548c-0.291,2.264,0.305,4.553,1.663,6.388c1.4,1.822,3.427,3.058,5.688,3.467l1.647,0.063
				c0.576-0.023,1.146-0.125,1.695-0.302c0.534-0.094,1.051-0.268,1.533-0.518c0.507-0.263,0.995-0.561,1.462-0.892
				c1.777-1.39,2.976-3.388,3.367-5.609C76.15,345.507,72.991,341.276,68.421,340.534L68.421,340.534z"/>
			<path style="fill:#428DFF;" d="M494.914,25.737H349.847v-8.533c0.001-6.241-3.405-11.985-8.881-14.978
				c-5.476-2.993-12.15-2.759-17.402,0.611l-93.875,60.108c-4.749,3.055-7.681,8.259-7.833,13.904
				c-0.152,5.644,2.496,10.999,7.074,14.305l93.933,68.417c5.2,3.719,12.044,4.219,17.729,1.294
				c5.685-2.925,9.257-8.784,9.254-15.177v-9.016h145.067c9.421-0.012,17.054-7.646,17.067-17.067v-76.8
				C511.968,33.384,504.334,25.75,494.914,25.737z M494.914,119.604H349.847c-9.421,0.012-17.054,7.646-17.067,17.067l0.067,9.058
				l-93.95-68.417l93.883-60.108v8.533c0.012,9.421,7.646,17.054,17.067,17.067l145.067-0.017V119.604z"/>
			<path style="fill:#428DFF;" d="M511.972,239.012c-0.134-5.659-3.074-10.882-7.842-13.933l-93.858-60.092
				c-5.252-3.373-11.926-3.611-17.404-0.619c-5.478,2.992-8.886,8.735-8.887,14.977v8.525H238.914
				c-9.421,0.012-17.054,7.646-17.067,17.067v76.8c0.012,9.421,7.646,17.054,17.067,17.067H383.98v9.017
				c0.002,9.42,7.63,17.059,17.05,17.075c3.589-0.01,7.085-1.14,10-3.233l93.8-68.333
				C509.441,250.039,512.117,244.674,511.972,239.012z M401.047,307.82v-9.016c-0.012-9.421-7.646-17.054-17.067-17.067H238.914
				v-76.8H383.98c9.421-0.012,17.054-7.646,17.067-17.067l0.017-8.516l93.783,60.133L401.047,307.82z"/>
		</g>
	</g>
</g>
<g>
</g>
<g>
</g>
<g>
</g>
<g>
</g>
<g>
</g>
<g>
</g>
<g>
</g>
<g>
</g>
<g>
</g>
<g>
</g>
<g>
</g>
<g>
</g>
<g>
</g>
<g>
</g>
<g>
</g>
</svg>
