<?xml version="1.0" encoding="iso-8859-1"?>
<!-- Generator: Adobe Illustrator 19.0.0, SVG Export Plug-In . SVG Version: 6.00 Build 0)  -->
<svg version="1.1" id="Capa_1" xmlns="http://www.w3.org/2000/svg" xmlns:xlink="http://www.w3.org/1999/xlink" x="0px" y="0px"
	 viewBox="0 0 503.942 503.942" style="enable-background:new 0 0 503.942 503.942;" xml:space="preserve">
<g>
	<g transform="translate(1 2)">
		<path style="fill:#A4C2F7;" d="M32.742,174.598h436.459c13.907,0,25.18,11.274,25.18,25.18v268.59
			c0,13.907-11.274,25.18-25.18,25.18H32.742c-13.907,0-25.18-11.274-25.18-25.18v-268.59
			C7.562,185.872,18.835,174.598,32.742,174.598z"/>
		<path style="fill:#D4E1F4;" d="M32.742,174.598h411.279c13.907,0,25.18,11.274,25.18,25.18v268.59
			c0,13.907-11.274,25.18-25.18,25.18H32.742c-13.907,0-25.18-11.274-25.18-25.18v-268.59
			C7.562,185.872,18.835,174.598,32.742,174.598z"/>
		<path style="fill:#A4C2F7;" d="M49.529,208.172h386.098c4.636,0,8.393,3.758,8.393,8.393v235.016c0,4.636-3.758,8.393-8.393,8.393
			H49.529c-4.636,0-8.393-3.758-8.393-8.393V216.565C41.135,211.93,44.893,208.172,49.529,208.172z"/>
		
			<linearGradient id="SVGID_1_" gradientUnits="userSpaceOnUse" x1="-53.809" y1="642.5054" x2="-52.9887" y2="641.275" gradientTransform="matrix(377.7049 0 0 -251.8033 20398.9922 161964.1094)">
			<stop  offset="0" style="stop-color:#D3DFF2"/>
			<stop  offset="0.1717" style="stop-color:#D3DFF2"/>
			<stop  offset="0.2" style="stop-color:#D3DFF2"/>
			<stop  offset="0.2002" style="stop-color:#DAE2F2"/>
			<stop  offset="0.2007" style="stop-color:#EBEAF2"/>
			<stop  offset="0.2014" style="stop-color:#F6EFF2"/>
			<stop  offset="0.2023" style="stop-color:#FDF2F2"/>
			<stop  offset="0.205" style="stop-color:#FFF3F2"/>
			<stop  offset="0.2522" style="stop-color:#FFF3F2"/>
			<stop  offset="0.26" style="stop-color:#FFF3F2"/>
			<stop  offset="0.26" style="stop-color:#D3DFF2"/>
			<stop  offset="0.3974" style="stop-color:#D3DFF2"/>
			<stop  offset="0.42" style="stop-color:#D3DFF2"/>
			<stop  offset="0.4202" style="stop-color:#DAE2F2"/>
			<stop  offset="0.4207" style="stop-color:#EBEAF2"/>
			<stop  offset="0.4214" style="stop-color:#F6EFF2"/>
			<stop  offset="0.4223" style="stop-color:#FDF2F2"/>
			<stop  offset="0.425" style="stop-color:#FFF3F2"/>
			<stop  offset="0.4894" style="stop-color:#FFF3F2"/>
			<stop  offset="0.5" style="stop-color:#FFF3F2"/>
			<stop  offset="0.5" style="stop-color:#F8F0F2"/>
			<stop  offset="0.5001" style="stop-color:#E7E8F2"/>
			<stop  offset="0.5003" style="stop-color:#DCE3F2"/>
			<stop  offset="0.5005" style="stop-color:#D5E0F2"/>
			<stop  offset="0.501" style="stop-color:#D3DFF2"/>
			<stop  offset="0.7062" style="stop-color:#D3DFF2"/>
			<stop  offset="0.74" style="stop-color:#D3DFF2"/>
			<stop  offset="0.741" style="stop-color:#FFF3F2"/>
			<stop  offset="0.8346" style="stop-color:#FFF3F2"/>
			<stop  offset="0.85" style="stop-color:#FFF3F2"/>
			<stop  offset="0.851" style="stop-color:#D3DFF2"/>
		</linearGradient>
		<path style="fill:url(#SVGID_1_);" d="M49.529,208.172h360.918c4.636,0,8.393,3.758,8.393,8.393v235.016
			c0,4.636-3.758,8.393-8.393,8.393H49.529c-4.636,0-8.393-3.758-8.393-8.393V216.565C41.135,211.93,44.893,208.172,49.529,208.172z
			"/>
		<path style="fill:#E3E7F2;" d="M411.203,146.564c5.4,9.054,10.032,18.543,13.848,28.37h-67.399
			c-23.004-36.762-63.314-59.09-106.68-59.09s-83.677,22.328-106.68,59.09h-67.4c3.816-9.827,8.449-19.316,13.848-28.37
			L68.162,93.937c5.205-6.379,10.744-12.506,16.619-18.466c5.832-5.863,11.997-11.383,18.466-16.535l52.71,22.494
			c15.244-9.1,31.727-15.941,48.934-20.312l21.319-53.047c16.458-1.791,33.062-1.791,49.52,0l21.319,53.047
			c17.208,4.371,33.691,11.213,48.935,20.312l52.71-22.494c6.469,5.152,12.634,10.673,18.466,16.535
			c5.875,5.959,11.414,12.087,16.619,18.466L411.203,146.564z"/>
		<path style="fill:#A4C2F7;" d="M326.512,459.975H150.25c2.446-3.073,5.542-5.567,9.066-7.302l42.218-22.075
			c4.574-2.163,7.485-6.775,7.47-11.835v-5.036c0-6.379-6.547-11.583-9.485-17.039c-8.31-15.528-7.302-31.979-7.302-49.018v-32.818
			c-0.143-19.575,14.197-36.245,33.574-39.03c1.94-0.338,3.906-0.506,5.875-0.504h13.43c10.492-0.05,20.568,4.102,27.979,11.529
			c7.411,7.427,11.541,17.512,11.469,28.004v28.789c0,15.948,1.679,31.811-5.204,46.668c-1.861,4.164-4.229,8.083-7.051,11.667
			c-2.568,2.366-4.18,5.591-4.532,9.065v5.036c0.007,5.053,2.912,9.654,7.47,11.835l42.218,24.761
			C320.971,454.408,324.067,456.901,326.512,459.975z"/>
		<path style="fill:#E3E7F2;" d="M301.332,459.975H150.25c2.446-3.073,5.542-5.567,9.066-7.302l42.218-22.075
			c4.574-2.163,7.485-6.775,7.47-11.835v-5.036c0-6.379-6.547-11.583-9.485-17.039c-8.31-15.528-7.302-31.979-7.302-49.018v-32.818
			c-0.143-19.575,14.197-36.245,33.574-39.03c19.376,2.784,33.717,19.455,33.574,39.03v28.789c0,15.948,1.679,31.811-5.204,46.668
			c-1.861,4.164-4.229,8.083-7.05,11.667c-2.568,2.366-4.18,5.591-4.532,9.065v5.036c0.007,5.053,2.912,9.654,7.47,11.835
			l42.218,24.761C295.79,454.408,298.886,456.901,301.332,459.975z"/>
		<g>
			<rect x="158.644" y="325.68" style="fill:#A4C2F7;" width="33.574" height="41.967"/>
			<path style="fill:#A4C2F7;" d="M284.545,325.68h33.574v33.574c0,4.636-3.758,8.393-8.393,8.393h-25.18V325.68z"/>
			<path style="fill:#A4C2F7;" d="M411.203,146.564c5.4,9.054,10.032,18.543,13.848,28.37h-25.18
				c-3.816-9.827-8.449-19.316-13.848-28.37L408.6,93.937c-5.205-6.379-10.744-12.507-16.619-18.466
				c-3.275-3.273-6.547-6.379-9.989-9.401l16.703-7.134c6.469,5.152,12.634,10.672,18.466,16.535
				c5.875,5.959,11.414,12.087,16.619,18.466L411.203,146.564z"/>
			<path style="fill:#A4C2F7;" d="M271.871,61.119L250.552,8.072c-3.945-0.42-7.974-0.755-12.002-1.007
				c4.112-0.252,8.225-0.336,12.422-0.336c8.272-0.017,16.539,0.431,24.761,1.343l21.319,53.047
				c13.16,3.343,25.911,8.129,38.022,14.269L271.871,61.119z"/>
		</g>
	</g>
	<g transform="translate(1 8)">
		<path style="fill:#FFFFFF;" d="M102.219,168.598c3.785-9.707,8.367-19.084,13.701-28.034L93.343,87.937
			c5.205-6.379,10.744-12.506,16.619-18.466c3.249-3.248,6.596-6.367,10.014-9.396l-16.729-7.139
			c-6.468,5.152-12.634,10.673-18.466,16.535c-5.875,5.959-11.414,12.087-16.619,18.466l22.578,52.627
			c-5.334,8.95-9.916,18.327-13.701,28.034H102.219z"/>
		<path style="fill:#FFFFFF;" d="M7.562,462.368c-0.009,6.681,2.641,13.091,7.365,17.815s11.134,7.374,17.815,7.365h25.18
			c-6.681,0.009-13.091-2.641-17.815-7.365s-7.374-11.134-7.365-17.815v-268.59c-0.009-6.681,2.641-13.091,7.365-17.815
			c4.724-4.724,11.134-7.374,17.815-7.365l-25.18,0c-6.681-0.009-13.091,2.641-17.815,7.365c-4.724,4.724-7.374,11.134-7.365,17.815
			V462.368z"/>
	</g>
	<g>
		<polygon style="fill:#FFFFFF;" points="0.168,470.368 0.168,361.254 0.168,201.778 16.955,201.778 16.955,361.254 16.955,470.368 
					"/>
		<g>
			<path style="fill:#428DFF;" d="M5.373,410.946c0.476,0.242,0.986,0.41,1.512,0.5c0.554,0.094,1.114,0.151,1.676,0.168
				c2.222-0.031,4.351-0.9,5.959-2.434c3.169-3.341,3.169-8.577,0-11.918c-0.802-0.758-1.741-1.356-2.766-1.763
				c-1.01-0.431-2.095-0.659-3.193-0.672c-2.222,0.034-4.349,0.903-5.959,2.434c-3.246,3.31-3.246,8.609,0,11.919l1.258,1.008
				C4.329,410.507,4.837,410.762,5.373,410.946z"/>
			<path style="fill:#428DFF;" d="M470.201,168.204h-38.634c-2.93-7.037-6.266-13.898-9.989-20.549l20.918-48.746
				c1.234-2.873,0.767-6.194-1.213-8.615c-5.279-6.467-10.885-12.697-17.189-19.09c-6.056-6.098-12.463-11.837-19.188-17.189
				c-2.417-1.901-5.677-2.338-8.508-1.139L347.57,73.721c-13.645-7.733-28.184-13.767-43.295-17.967L284.521,6.606
				c-1.147-2.861-3.773-4.861-6.836-5.205c-17.091-1.869-34.335-1.869-51.427,0c-3.063,0.344-5.69,2.344-6.836,5.205l-19.754,49.147
				c-15.111,4.2-29.651,10.234-43.295,17.967l-48.828-20.844c-2.831-1.202-6.093-0.765-8.508,1.139
				c-6.74,5.364-13.161,11.117-19.229,17.229c-6.262,6.352-11.869,12.582-17.148,19.049c-1.98,2.42-2.447,5.742-1.213,8.615
				l20.918,48.746c-3.723,6.651-7.059,13.512-9.989,20.549H33.742c-18.535,0.019-33.555,15.039-33.574,33.574v167.869
				c0,4.636,3.758,8.393,8.393,8.393s8.393-3.758,8.393-8.393V201.778c0.012-9.266,7.521-16.775,16.787-16.787h436.459
				c9.266,0.012,16.775,7.521,16.787,16.787V327.68h-8.393c-4.636,0-8.393,3.758-8.393,8.393s3.758,8.393,8.393,8.393h8.393v125.902
				c-0.012,9.266-7.521,16.775-16.787,16.787H33.742c-9.266-0.012-16.775-7.521-16.787-16.787v-33.574
				c0-4.636-3.758-8.393-8.393-8.393s-8.393,3.758-8.393,8.393v33.574c0.019,18.535,15.039,33.555,33.574,33.574h436.459
				c18.535-0.018,33.555-15.039,33.574-33.574v-268.59C503.756,183.244,488.736,168.223,470.201,168.204z M99.455,144.918
				L78.906,97.016c3.992-4.688,8.221-9.287,12.812-13.943c4.672-4.672,9.254-8.885,13.902-12.762L153.66,90.82
				c2.469,1.056,5.295,0.864,7.598-0.516c14.55-8.685,30.282-15.215,46.705-19.385c2.593-0.66,4.716-2.517,5.713-5l19.427-48.336
				c12.557-1.049,25.18-1.049,37.738,0l19.426,48.336c0.998,2.483,3.12,4.34,5.713,5c16.423,4.17,32.155,10.7,46.705,19.385
				c2.304,1.38,5.129,1.572,7.598,0.516l48.041-20.508c4.648,3.877,9.213,8.082,13.861,12.721
				c4.623,4.688,8.861,9.295,12.852,13.983l-20.549,47.901c-1.062,2.476-0.873,5.31,0.508,7.623
				c2.992,4.997,5.691,10.27,8.226,15.664h-50.097c-24.928-36.945-66.585-59.09-111.154-59.09s-86.225,22.145-111.154,59.09H90.72
				c2.536-5.393,5.235-10.667,8.226-15.664C100.328,150.227,100.517,147.393,99.455,144.918z M342.225,168.204H161.718
				c22.31-26.803,55.38-42.303,90.253-42.303S319.914,141.401,342.225,168.204z"/>
			<path style="fill:#428DFF;" d="M436.627,470.368c9.266-0.012,16.775-7.521,16.787-16.787V218.565
				c-0.012-9.266-7.521-16.775-16.787-16.787H50.529c-9.266,0.012-16.775,7.521-16.787,16.787v235.016
				c0.012,9.266,7.521,16.775,16.787,16.787H436.627z M218.398,420.754v-5.008c-0.029-1.395-0.222-2.781-0.574-4.131h17.361
				c4.636,0,8.393-3.758,8.393-8.393c0-4.636-3.758-8.393-8.393-8.393h-27.166l-0.064-0.098c-4.696-9.846-6.876-20.703-6.344-31.598
				V327.68l-0.004-0.023l0.004-10.772c-0.104-8.28,3.132-16.253,8.978-22.119c5.845-5.865,13.807-9.129,22.088-9.053h13.41
				c8.281-0.076,16.242,3.188,22.088,9.053c5.845,5.866,9.082,13.839,8.978,22.119v51.35c-0.143,7.087-1.646,14.08-4.426,20.6
				c-1.591,3.528-3.612,6.845-6.016,9.877l-0.598,0.738c-3.531,3.666-5.578,8.511-5.746,13.598v5.008
				c-0.003,8.039,4.468,15.411,11.598,19.123l28.057,16.402H180.526l25.748-13.418C213.655,436.501,218.345,428.993,218.398,420.754
				z M294.029,353.27c-0.049-2.541-0.09-5.091-0.09-7.64v-9.557h16.787l0.017,25.18h-16.642
				C294.102,358.58,294.072,355.914,294.029,353.27L294.029,353.27z M293.939,319.286v-2.402
				c0.153-12.747-4.837-25.018-13.841-34.043c-9.004-9.024-21.264-14.041-34.012-13.916h-13.41
				c-12.747-0.124-25.007,4.892-34.012,13.916c-9.004,9.024-13.993,21.295-13.841,34.043l-0.001,2.402H168.25
				c2.174-37.694,33.375-67.147,71.131-67.147s68.957,29.453,71.131,67.147H293.939z M168.037,336.073h16.778l-0.008,18.443
				c-0.012,2.235-0.018,4.484-0.006,6.738h-16.764V336.073z M168.037,378.041h17.664c0.676,5.733,2.021,11.367,4.007,16.787h-21.671
				V378.041z M50.529,218.565h386.098v235.016H330.968c-2.424-2.472-5.215-4.554-8.276-6.172l-42.778-25.008
				c-1.669-0.808-2.739-2.49-2.762-4.344v-5.008c0-0.475,0.525-1.205,2-3.033l0.656-0.811c3.269-4.104,6.017-8.597,8.18-13.377
				c2.539-5.653,4.246-11.644,5.069-17.787h17.669c9.266-0.012,16.775-7.521,16.787-16.787v-37.77
				c0-48.673-39.458-88.131-88.131-88.131s-88.131,39.458-88.131,88.131v71.344c0.012,9.266,7.521,16.775,16.787,16.787h31.388
				c1.038,1.189,1.786,2.604,2.185,4.131v5.008c-0.044,1.917-1.181,3.64-2.926,4.434l-42.131,21.959
				c-3.229,1.681-6.177,3.851-8.742,6.434H50.529V218.565z"/>
			<path style="fill:#428DFF;" d="M75.709,260.532c2.226,0.003,4.362-0.883,5.934-2.459l8.393-8.393
				c3.227-3.286,3.203-8.558-0.054-11.815c-3.257-3.257-8.529-3.28-11.815-0.054l-8.393,8.393c-2.4,2.4-3.118,6.01-1.819,9.146
				C69.255,258.487,72.315,260.532,75.709,260.532z"/>
			<path style="fill:#428DFF;" d="M132.004,237.811c-1.574-1.574-3.708-2.459-5.934-2.459c-2.226,0-4.361,0.885-5.934,2.459
				l-50.361,50.361c-2.142,2.116-2.987,5.217-2.214,8.127c0.773,2.91,3.046,5.183,5.956,5.956s6.011-0.072,8.127-2.214
				l50.361-50.361c1.574-1.574,2.459-3.708,2.459-5.934S133.578,239.385,132.004,237.811z"/>
		</g>
	</g>
</g>
<g>
</g>
<g>
</g>
<g>
</g>
<g>
</g>
<g>
</g>
<g>
</g>
<g>
</g>
<g>
</g>
<g>
</g>
<g>
</g>
<g>
</g>
<g>
</g>
<g>
</g>
<g>
</g>
<g>
</g>
</svg>
