<?xml version="1.0" encoding="iso-8859-1"?>
<!-- Generator: Adobe Illustrator 19.0.0, SVG Export Plug-In . SVG Version: 6.00 Build 0)  -->
<svg version="1.1" id="Capa_1" xmlns="http://www.w3.org/2000/svg" xmlns:xlink="http://www.w3.org/1999/xlink" x="0px" y="0px"
	 viewBox="0 0 512.017 512.017" style="enable-background:new 0 0 512.017 512.017;" xml:space="preserve">
<g transform="translate(0 -1)">
	<g transform="translate(1 2)">
		<g>
			<rect x="75.808" y="101.417" style="fill:#A4C2F7;" width="204.8" height="51.2"/>
			<path style="fill:#A4C2F7;" d="M290.336,280.617H66.08c3.084-3.978,7.021-7.215,11.52-9.472l57.003-28.501
				c5.806-2.919,9.471-8.861,9.472-15.36v-6.485c-0.141-4.883-2.305-9.489-5.973-12.715c-8.983-10.398-15.464-22.717-18.944-36.011
				c-0.477-1.518-0.707-3.102-0.683-4.693V92.883c0.032-26.612,20.417-48.776,46.933-51.029c1.365-0.085,2.816-0.171,4.267-0.171
				h17.067c28.268,0.022,51.178,22.932,51.2,51.2v74.496c0.025,1.591-0.206,3.175-0.683,4.693
				c-3.48,13.293-9.961,25.612-18.944,36.011c-3.669,3.226-5.832,7.831-5.973,12.715v6.485c0.001,6.499,3.666,12.441,9.472,15.36
				l57.003,28.501C283.316,273.402,287.252,276.638,290.336,280.617z"/>
		</g>
		<path style="fill:#E3E7F2;" d="M264.736,280.617H66.08c3.084-3.978,7.021-7.215,11.52-9.472l57.003-28.501
			c5.806-2.919,9.471-8.861,9.472-15.36v-6.485c-0.141-4.883-2.305-9.489-5.973-12.715c-8.983-10.398-15.464-22.717-18.944-36.011
			c-0.477-1.518-0.707-3.102-0.683-4.693V92.883c0.032-26.612,20.417-48.776,46.933-51.029
			c26.516,2.254,46.901,24.418,46.933,51.029v74.496c0.025,1.591-0.206,3.175-0.683,4.693c-3.48,13.293-9.961,25.612-18.944,36.011
			c-3.669,3.226-5.832,7.831-5.973,12.715v6.485c0.001,6.499,3.666,12.441,9.472,15.36l57.003,28.501
			C257.716,273.402,261.652,276.638,264.736,280.617z"/>
		<path style="fill:#A4C2F7;" d="M502.475,24.617v179.2c-0.028,9.414-7.652,17.039-17.067,17.067h-59.733l-51.2,51.2v-51.2h-25.6
			c-9.414-0.028-17.039-7.653-17.067-17.067v-179.2c0.027-9.414,7.652-17.039,17.067-17.067h136.533
			C494.823,7.577,502.447,15.202,502.475,24.617z"/>
		<path style="fill:#E3E7F2;" d="M476.875,24.617v179.2c-0.028,9.414-7.652,17.039-17.067,17.067h-59.733l-25.6,25.6v-25.6h-25.6
			c-9.414-0.028-17.039-7.653-17.067-17.067v-179.2c0.027-9.414,7.652-17.039,17.067-17.067h110.933
			C469.223,7.577,476.847,15.202,476.875,24.617z"/>
		<path style="fill:#A4C2F7;" d="M331.808,288.382v197.035h-307.2V288.382c0.015-4.282,3.483-7.75,7.765-7.765h291.669
			C328.325,280.632,331.793,284.1,331.808,288.382z"/>
		
			<linearGradient id="SVGID_1_" gradientUnits="userSpaceOnUse" x1="-49.7455" y1="651.4149" x2="-48.89" y2="650.2385" gradientTransform="matrix(281.6 0 0 -204.8 14053.2842 133674.6094)">
			<stop  offset="0" style="stop-color:#D3DFF2"/>
			<stop  offset="0.1717" style="stop-color:#D3DFF2"/>
			<stop  offset="0.2" style="stop-color:#D3DFF2"/>
			<stop  offset="0.2002" style="stop-color:#DAE2F2"/>
			<stop  offset="0.2007" style="stop-color:#EBEAF2"/>
			<stop  offset="0.2014" style="stop-color:#F6EFF2"/>
			<stop  offset="0.2023" style="stop-color:#FDF2F2"/>
			<stop  offset="0.205" style="stop-color:#FFF3F2"/>
			<stop  offset="0.2522" style="stop-color:#FFF3F2"/>
			<stop  offset="0.26" style="stop-color:#FFF3F2"/>
			<stop  offset="0.26" style="stop-color:#D3DFF2"/>
			<stop  offset="0.3974" style="stop-color:#D3DFF2"/>
			<stop  offset="0.42" style="stop-color:#D3DFF2"/>
			<stop  offset="0.4202" style="stop-color:#DAE2F2"/>
			<stop  offset="0.4207" style="stop-color:#EBEAF2"/>
			<stop  offset="0.4214" style="stop-color:#F6EFF2"/>
			<stop  offset="0.4223" style="stop-color:#FDF2F2"/>
			<stop  offset="0.425" style="stop-color:#FFF3F2"/>
			<stop  offset="0.4894" style="stop-color:#FFF3F2"/>
			<stop  offset="0.5" style="stop-color:#FFF3F2"/>
			<stop  offset="0.5" style="stop-color:#F8F0F2"/>
			<stop  offset="0.5001" style="stop-color:#E7E8F2"/>
			<stop  offset="0.5003" style="stop-color:#DCE3F2"/>
			<stop  offset="0.5005" style="stop-color:#D5E0F2"/>
			<stop  offset="0.501" style="stop-color:#D3DFF2"/>
			<stop  offset="0.7062" style="stop-color:#D3DFF2"/>
			<stop  offset="0.74" style="stop-color:#D3DFF2"/>
			<stop  offset="0.741" style="stop-color:#FFF3F2"/>
			<stop  offset="0.8346" style="stop-color:#FFF3F2"/>
			<stop  offset="0.85" style="stop-color:#FFF3F2"/>
			<stop  offset="0.851" style="stop-color:#D3DFF2"/>
		</linearGradient>
		<path style="fill:url(#SVGID_1_);" d="M306.208,288.382v197.035h-281.6V288.382c0.015-4.282,3.483-7.75,7.765-7.765h266.069
			C302.725,280.632,306.193,284.1,306.208,288.382z"/>
		<path style="fill:#E3E7F2;" d="M215.158,387.283c-9.656,16.724-29.34,24.878-47.993,19.879
			c-18.653-4.998-31.624-21.902-31.624-41.213s12.971-36.215,31.624-41.213c18.653-4.998,38.338,3.156,47.993,19.879
			c-7.096,4.781-11.349,12.777-11.349,21.333S208.062,382.502,215.158,387.283z"/>
		<path style="fill:#7FABFA;" d="M348.875,459.39v9.813c-0.023,18.37-14.91,33.257-33.28,33.28H40.822
			c-18.37-0.023-33.256-14.91-33.28-33.28v-9.813c0.028-4.466,3.641-8.079,8.107-8.107h325.12
			C345.234,451.311,348.847,454.924,348.875,459.39z"/>
		<path style="fill:#A4C2F7;" d="M323.275,459.39v9.813c-0.023,18.37-14.91,33.257-33.28,33.28H40.822
			c-18.37-0.023-33.256-14.91-33.28-33.28v-9.813c0.028-4.466,3.641-8.079,8.107-8.107h299.52
			C319.634,451.311,323.247,454.924,323.275,459.39z"/>
		<g>
			<path style="fill:#FFFFFF;" d="M417.142,118.483c9.425,0,17.066-7.641,17.067-17.067V58.75c0-9.426-7.641-17.067-17.067-17.067
				c-9.426,0-17.067,7.641-17.067,17.067v42.667C400.075,110.842,407.716,118.483,417.142,118.483z"/>
			<circle style="fill:#FFFFFF;" cx="417.142" cy="169.683" r="17.067"/>
		</g>
		<g>
			<polygon style="fill:#FFFFFF;" points="374.475,272.083 400.075,246.483 400.075,220.883 374.475,220.883 374.475,246.483 			"/>
			<path style="fill:#FFFFFF;" d="M357.408,203.817v-179.2c0.028-9.414,7.652-17.039,17.067-17.067h-25.6
				c-9.414,0.028-17.039,7.652-17.067,17.067v179.2c0.028,9.414,7.652,17.039,17.067,17.067h25.6
				C365.061,220.855,357.436,213.231,357.408,203.817z"/>
			<rect x="118.475" y="101.417" style="fill:#FFFFFF;" width="25.6" height="51.2"/>
			<path style="fill:#FFFFFF;" d="M103.2,271.145l57.003-28.501c5.806-2.919,9.471-8.861,9.472-15.36v-6.485
				c-0.141-4.883-2.305-9.489-5.973-12.715c-8.983-10.398-15.464-22.717-18.944-36.011c-0.477-1.518-0.707-3.102-0.683-4.693
				v-14.763h-25.6v14.763c-0.025,1.591,0.206,3.175,0.683,4.693c3.48,13.293,9.961,25.612,18.944,36.011
				c3.669,3.226,5.832,7.831,5.973,12.715v6.485c-0.001,6.499-3.666,12.441-9.472,15.36L77.6,271.145
				c-4.499,2.257-8.436,5.494-11.52,9.472h25.6C94.764,276.638,98.701,273.402,103.2,271.145z"/>
			<path style="fill:#FFFFFF;" d="M165.408,41.854c-26.516,2.254-46.901,24.418-46.933,51.029v8.533h25.6v-8.533
				c0.036-26.531,20.309-48.651,46.736-50.994c-1.347-0.107-2.696-0.206-4.07-0.206h-17.067
				C168.224,41.683,166.774,41.769,165.408,41.854z"/>
			<path style="fill:#FFFFFF;" d="M40.822,502.483h25.6c-18.37-0.023-33.256-14.91-33.28-33.28v-9.813
				c0.028-4.466,3.641-8.079,8.107-8.107h8.96V288.382c0.015-4.282,3.483-7.75,7.765-7.765h-25.6
				c-4.282,0.015-7.75,3.483-7.765,7.765v162.901h-8.96c-4.466,0.028-8.079,3.641-8.107,8.107v9.813
				C7.565,487.574,22.451,502.46,40.822,502.483z"/>
		</g>
	</g>
	<g>
		<path style="fill:#FFFFFF;" d="M17.073,453.283l0.002-160.976l-0.002-1.623c0.006-0.922,0.071-1.843,0.196-2.757
			c0.84-5.525,4.454-10.234,9.574-12.474c2.894-1.104,5.992-1.571,9.083-1.369h289.136v17.067H34.142v162.133H17.073z"/>
		<g>
			<path style="fill:#428DFF;" d="M41.85,513.017h274.717c23.099-0.024,41.818-18.743,41.842-41.842v-9.758
				c-0.009-9.201-7.466-16.657-16.667-16.667h-0.4V290.358c-0.01-8.984-7.291-16.266-16.275-16.275l-0.004,0.001v-0.001h-29.83
				c-3.361-3.485-7.282-6.383-11.6-8.575l-57.008-28.5c-2.907-1.48-4.742-4.463-4.75-7.725V222.8c0.184-2.524,1.373-4.868,3.3-6.508
				c10.12-11.284,17.382-24.833,21.175-39.508c0.778-2.388,1.158-4.888,1.125-7.4v-6.233h34.133
				c2.264,0.001,4.435-0.897,6.035-2.498c1.601-1.601,2.499-3.772,2.498-6.035v-51.2c0.001-2.264-0.897-4.435-2.498-6.035
				c-1.601-1.601-3.772-2.499-6.035-2.498h-0.226c-3.578-53.529-48.535-94.83-102.174-93.867
				c-53.64-0.963-98.596,40.338-102.174,93.867h-0.226c-2.264-0.001-4.435,0.897-6.035,2.498c-1.601,1.601-2.499,3.772-2.498,6.035
				v51.2c-0.001,2.264,0.897,4.435,2.498,6.035c1.601,1.601,3.772,2.499,6.035,2.498v17.067c0.012,9.421,7.646,17.054,17.067,17.067
				h26.129c3.266,7.044,7.734,13.465,13.204,18.975c1.943,1.645,3.144,4.002,3.333,6.542v6.483
				c-0.008,3.265-1.846,6.249-4.758,7.725l-57.058,28.533c-4.297,2.183-8.198,5.07-11.542,8.542H35.927
				c-3.091-0.202-6.189,0.265-9.083,1.369c-5.12,2.24-8.735,6.949-9.574,12.474c-0.125,0.914-0.191,1.835-0.196,2.757l0.002,1.623
				v58.576c0,4.713,3.821,8.533,8.533,8.533s8.533-3.821,8.533-8.533V291.15h290.133v153.6H34.142v-25.6
				c0-4.713-3.821-8.533-8.533-8.533s-8.533,3.82-8.533,8.533v25.6h-0.4c-9.201,0.009-16.657,7.466-16.667,16.667v9.758
				C0.032,494.274,18.751,512.993,41.85,513.017z M273.075,146.083h-25.6V111.95h25.6V146.083z M179.208,18.083
				c44.22-0.95,81.526,32.714,85.106,76.8h-16.839c-0.04-32.973-26.76-59.693-59.733-59.733h-17.067
				c-32.973,0.04-59.693,26.76-59.733,59.733H94.103C97.682,50.798,134.988,17.133,179.208,18.083z M85.342,146.083V111.95h25.6
				v34.133H85.342z M93.875,180.217V163.15h17.067v6.233c-0.041,2.407,0.308,4.804,1.033,7.1c0.334,1.135,0.731,2.409,1.159,3.733
				L93.875,180.217z M95.798,274.083l43.61-21.808c8.675-4.389,14.16-13.269,14.2-22.992V222.8
				c-0.112-7.24-3.249-14.102-8.65-18.925c-2.015-1.99-3.798-4.201-5.315-6.592h31.032c4.713,0,8.533-3.821,8.533-8.533
				c0-4.713-3.821-8.533-8.533-8.533h-39.43c-1.41-3.753-2.448-7-2.995-8.85c-0.183-0.645-0.264-1.314-0.242-1.983v-74.5
				c0.028-23.553,19.114-42.639,42.667-42.667h17.067c23.553,0.028,42.639,19.114,42.667,42.667v74.5
				c0.019,0.774-0.094,1.547-0.333,2.283c-3.112,11.841-8.797,22.849-16.65,32.242c-5.384,4.818-8.508,11.668-8.617,18.892v6.483
				c0.04,9.72,5.521,18.599,14.192,22.992l43.623,21.808H95.798z M25.554,461.806l0.054,0.011h307.2
				c0.661-0.051,1.313-0.183,1.943-0.392l6.591-0.008v9.758c-0.017,13.676-11.099,24.758-24.775,24.775H41.85
				c-13.676-0.017-24.758-11.099-24.775-24.775l-0.4-9.358L25.554,461.806z"/>
			<path style="fill:#428DFF;" d="M22.367,392.871c0.484,0.246,1.002,0.417,1.537,0.508c0.563,0.096,1.133,0.153,1.704,0.171
				c2.259-0.031,4.423-0.915,6.059-2.475c3.221-3.397,3.221-8.72,0-12.117c-0.815-0.771-1.77-1.379-2.813-1.792
				c-1.027-0.438-2.13-0.67-3.246-0.683c-2.259,0.034-4.422,0.918-6.059,2.475c-3.3,3.365-3.3,8.752,0,12.117l1.279,1.025
				C21.305,392.424,21.822,392.683,22.367,392.871z"/>
			<path style="fill:#428DFF;" d="M220.933,353.692c3.717-2.514,4.856-7.474,2.608-11.358
				c-11.592-20.061-35.212-29.837-57.592-23.836c-22.379,6.001-37.939,26.283-37.939,49.453c0,23.17,15.56,43.452,37.939,49.453
				c22.379,6.001,45.999-3.775,57.592-23.836c2.248-3.883,1.109-8.844-2.608-11.358c-4.746-3.193-7.592-8.538-7.592-14.258
				S216.188,356.886,220.933,353.692L220.933,353.692z M204.792,390.558c-6.454,7.369-15.788,11.574-25.583,11.525
				c-18.851,0-34.133-15.282-34.133-34.133c0-18.851,15.282-34.133,34.133-34.133c9.795-0.049,19.129,4.156,25.583,11.525
				C193.436,358.275,193.436,377.625,204.792,390.558L204.792,390.558z"/>
			<path style="fill:#428DFF;" d="M418.142,35.15c-14.132,0.015-25.585,11.468-25.6,25.6v42.667c0,14.138,11.462,25.6,25.6,25.6
				c14.138,0,25.6-11.462,25.6-25.6V60.75C443.726,46.618,432.274,35.165,418.142,35.15z M426.675,103.417
				c0,4.713-3.821,8.533-8.533,8.533s-8.533-3.821-8.533-8.533V60.75c0-4.713,3.82-8.533,8.533-8.533s8.533,3.821,8.533,8.533
				V103.417z"/>
			<path style="fill:#428DFF;" d="M486.408,1.017H349.875c-14.132,0.015-25.585,11.468-25.6,25.6v179.2
				c0.015,14.132,11.468,25.585,25.6,25.6h17.067v42.667c0,3.451,2.079,6.563,5.267,7.883s6.859,0.59,9.299-1.85l48.7-48.7h56.2
				c14.132-0.015,25.585-11.468,25.6-25.6v-179.2C511.993,12.484,500.54,1.032,486.408,1.017z M494.942,205.817
				c-0.003,4.712-3.822,8.53-8.533,8.533h-59.733c-2.263,0-4.434,0.899-6.033,2.5l-36.634,36.633v-30.6
				c0.001-2.264-0.897-4.435-2.498-6.035c-1.601-1.601-3.772-2.499-6.035-2.498h-25.6c-4.712-0.003-8.53-3.822-8.533-8.533v-179.2
				c0.003-4.712,3.822-8.53,8.533-8.533h136.533c4.712,0.003,8.53,3.822,8.533,8.533V205.817z"/>
			<path style="fill:#428DFF;" d="M418.142,146.083c-14.138,0-25.6,11.462-25.6,25.6c0,14.139,11.462,25.6,25.6,25.6
				c14.138,0,25.6-11.462,25.6-25.6C443.726,157.551,432.274,146.099,418.142,146.083z M418.142,180.217
				c-4.713,0-8.533-3.821-8.533-8.533c0-4.713,3.82-8.533,8.533-8.533s8.533,3.821,8.533,8.533
				C426.672,176.395,422.853,180.213,418.142,180.217z"/>
		</g>
	</g>
</g>
<g>
</g>
<g>
</g>
<g>
</g>
<g>
</g>
<g>
</g>
<g>
</g>
<g>
</g>
<g>
</g>
<g>
</g>
<g>
</g>
<g>
</g>
<g>
</g>
<g>
</g>
<g>
</g>
<g>
</g>
</svg>
