<?xml version="1.0" encoding="iso-8859-1"?>
<!-- Generator: Adobe Illustrator 19.0.0, SVG Export Plug-In . SVG Version: 6.00 Build 0)  -->
<svg version="1.1" id="Capa_1" xmlns="http://www.w3.org/2000/svg" xmlns:xlink="http://www.w3.org/1999/xlink" x="0px" y="0px"
	 viewBox="0 0 512 512" style="enable-background:new 0 0 512 512;" xml:space="preserve">
<g>
	<g transform="translate(1)">
		<g>
			<path style="fill:#A4C2F7;" d="M280.626,110.934v34.133c-0.014,4.707-3.826,8.519-8.533,8.533h-204.8v-42.667
				c0.014-4.707,3.826-8.519,8.533-8.533h196.267C276.799,102.414,280.612,106.227,280.626,110.934z"/>
			<path style="fill:#A4C2F7;" d="M286.087,281.6v51.2H70.023v-51.2c3.463-8.912,9.96-16.316,18.347-20.907l46.848-27.051
				c2.147-1.336,4.2-2.819,6.144-4.437c1.003-0.742,1.603-1.91,1.621-3.157c0.014-1.113-0.422-2.185-1.21-2.972
				c-0.787-0.787-1.859-1.223-2.972-1.21h-36.437c-2.299,0.21-4.613,0.21-6.912,0c-7.796-0.379-14.951-4.431-19.285-10.923
				c-0.47-0.727-0.47-1.662,0-2.389c19.265-27.466,30.468-59.772,32.341-93.269c1.947-30.102,23.13-55.493,52.395-62.805
				c4.038-0.865,8.158-1.294,12.288-1.28c62.379,0.512,65.536,65.451,65.536,65.451c0.812,33.353,12.364,65.555,32.939,91.819
				c0.537,0.664,0.571,1.602,0.085,2.304c-8.789,13.653-27.989,11.093-27.989,11.093h-18.518c-0.254,0.043-0.514,0.043-0.768,0
				h-5.291c-0.171,0.085-0.341,0-0.512,0h-10.667c-1.612,0.085-3.076,0.97-3.899,2.359c-0.823,1.389-0.897,3.098-0.197,4.553
				c1.515,3.414,4.048,6.275,7.253,8.192l55.637,24.064C275.492,265.35,282.338,272.651,286.087,281.6z"/>
		</g>
		<path style="fill:#E3E7F2;" d="M260.487,281.6v51.2H70.023v-51.2c3.463-8.912,9.96-16.316,18.347-20.907l46.848-27.051
			c2.147-1.336,4.2-2.819,6.144-4.437c1.003-0.742,1.603-1.91,1.621-3.157c0.014-1.113-0.422-2.185-1.21-2.972
			c-0.787-0.787-1.859-1.223-2.972-1.21H95.452c-7.796-0.379-14.951-4.431-19.285-10.923c-0.47-0.727-0.47-1.662,0-2.389
			c19.265-27.466,30.468-59.772,32.341-93.269c1.947-30.102,23.13-55.493,52.395-62.805c49.493,8.789,52.224,64.171,52.224,64.171
			c0.812,33.353,12.364,65.555,32.939,91.819c0.537,0.664,0.571,1.602,0.085,2.304c-4.706,6.665-12.242,10.764-20.395,11.093h-0.512
			c-0.254,0.043-0.514,0.043-0.768,0c-1.757,0.22-3.534,0.22-5.291,0c-0.171,0.085-0.341,0-0.512,0h-36.011
			c-1.29-0.001-2.528,0.511-3.44,1.424c-0.912,0.912-1.425,2.15-1.424,3.44c0.007,0.713,0.183,1.415,0.512,2.048
			c1.515,3.414,4.048,6.275,7.253,8.192l55.637,24.064C249.892,265.35,256.738,272.651,260.487,281.6z"/>
		<path style="fill:#D4E1F4;" d="M425.692,127.985l0.014,16.228c0.215,7.509-4.354,14.328-11.381,16.983
			c-5.228,1.816-11.011,0.997-15.529-2.201c-4.517-3.197-7.213-8.379-7.238-13.914l-0.015-17.067L425.692,127.985z"/>
		<path style="fill:#A4C2F7;" d="M440.796,99.499c-4.1,3.245-6.515,8.169-6.571,13.397v6.571c-0.014,4.707-3.826,8.519-8.533,8.533
			h-34.133c-4.707-0.014-8.519-3.826-8.533-8.533v-6.571c-0.032-5.148-2.383-10.007-6.4-13.227
			c-15.147-12.102-22.139-31.735-18.052-50.687c4.087-18.952,18.549-33.958,37.337-38.742c6.14-1.664,12.543-2.128,18.859-1.365
			c22.57,2.839,40.606,20.147,44.373,42.581C462.152,69.609,455.139,87.973,440.796,99.499z"/>
		<path style="fill:#E3E7F2;" d="M415.196,99.499c-4.1,3.245-6.515,8.169-6.571,13.397v6.571c-0.014,4.707-3.826,8.519-8.533,8.533
			h-8.533c-4.707-0.014-8.519-3.826-8.533-8.533v-6.571c-0.032-5.148-2.383-10.007-6.4-13.227
			c-15.147-12.102-22.139-31.735-18.052-50.687c4.087-18.952,18.549-33.958,37.337-38.742c18.699,4.839,33.073,19.806,37.152,38.686
			C437.142,67.805,430.23,87.372,415.196,99.499z"/>
		<path style="fill:#A4C2F7;" d="M331.826,289.366V486.4h-307.2V289.366c0.015-4.282,3.483-7.75,7.765-7.765H324.06
			C328.343,281.616,331.81,285.083,331.826,289.366z"/>
		
			<linearGradient id="SVGID_1_" gradientUnits="userSpaceOnUse" x1="-49.728" y1="652.3986" x2="-48.8725" y2="651.2222" gradientTransform="matrix(281.6 0 0 -204.8 14048.3779 133877.0625)">
			<stop  offset="0" style="stop-color:#D3DFF2"/>
			<stop  offset="0.1717" style="stop-color:#D3DFF2"/>
			<stop  offset="0.2" style="stop-color:#D3DFF2"/>
			<stop  offset="0.2002" style="stop-color:#DAE2F2"/>
			<stop  offset="0.2007" style="stop-color:#EBEAF2"/>
			<stop  offset="0.2014" style="stop-color:#F6EFF2"/>
			<stop  offset="0.2023" style="stop-color:#FDF2F2"/>
			<stop  offset="0.205" style="stop-color:#FFF3F2"/>
			<stop  offset="0.2522" style="stop-color:#FFF3F2"/>
			<stop  offset="0.26" style="stop-color:#FFF3F2"/>
			<stop  offset="0.26" style="stop-color:#D3DFF2"/>
			<stop  offset="0.3974" style="stop-color:#D3DFF2"/>
			<stop  offset="0.42" style="stop-color:#D3DFF2"/>
			<stop  offset="0.4202" style="stop-color:#DAE2F2"/>
			<stop  offset="0.4207" style="stop-color:#EBEAF2"/>
			<stop  offset="0.4214" style="stop-color:#F6EFF2"/>
			<stop  offset="0.4223" style="stop-color:#FDF2F2"/>
			<stop  offset="0.425" style="stop-color:#FFF3F2"/>
			<stop  offset="0.4894" style="stop-color:#FFF3F2"/>
			<stop  offset="0.5" style="stop-color:#FFF3F2"/>
			<stop  offset="0.5" style="stop-color:#F8F0F2"/>
			<stop  offset="0.5001" style="stop-color:#E7E8F2"/>
			<stop  offset="0.5003" style="stop-color:#DCE3F2"/>
			<stop  offset="0.5005" style="stop-color:#D5E0F2"/>
			<stop  offset="0.501" style="stop-color:#D3DFF2"/>
			<stop  offset="0.7062" style="stop-color:#D3DFF2"/>
			<stop  offset="0.74" style="stop-color:#D3DFF2"/>
			<stop  offset="0.741" style="stop-color:#FFF3F2"/>
			<stop  offset="0.8346" style="stop-color:#FFF3F2"/>
			<stop  offset="0.85" style="stop-color:#FFF3F2"/>
			<stop  offset="0.851" style="stop-color:#D3DFF2"/>
		</linearGradient>
		<path style="fill:url(#SVGID_1_);" d="M306.226,289.366V486.4h-281.6V289.366c0.015-4.282,3.483-7.75,7.765-7.765H298.46
			C302.743,281.616,306.21,285.083,306.226,289.366z"/>
		<path style="fill:#E3E7F2;" d="M215.175,388.267c-9.656,16.724-29.34,24.878-47.993,19.879
			c-18.653-4.998-31.624-21.902-31.624-41.213c0-19.311,12.971-36.215,31.624-41.213c18.653-4.998,38.338,3.156,47.993,19.88
			c-7.096,4.781-11.349,12.777-11.349,21.333S208.08,383.486,215.175,388.267z"/>
		<path style="fill:#7FABFA;" d="M348.892,460.374v9.813c-0.023,18.37-14.91,33.257-33.28,33.28H40.839
			c-18.37-0.023-33.256-14.91-33.28-33.28v-9.813c0.028-4.466,3.641-8.079,8.107-8.107h325.12
			C345.251,452.295,348.865,455.908,348.892,460.374z"/>
		<path style="fill:#A4C2F7;" d="M323.292,460.374v9.813c-0.023,18.37-14.91,33.257-33.28,33.28H40.839
			c-18.37-0.023-33.256-14.91-33.28-33.28v-9.813c0.028-4.466,3.641-8.079,8.107-8.107h299.52
			C319.651,452.295,323.264,455.908,323.292,460.374z"/>
		<g>
			<path style="fill:#FFFFFF;" d="M113.97,260.694l46.848-27.051c2.147-1.336,4.2-2.819,6.144-4.437
				c1.003-0.742,1.603-1.91,1.621-3.157c0.014-1.113-0.422-2.185-1.21-2.972s-1.859-1.223-2.972-1.21h-25.6
				c1.113-0.014,2.185,0.422,2.972,1.21c0.787,0.787,1.223,1.859,1.21,2.972c-0.018,1.248-0.618,2.416-1.621,3.157
				c-1.944,1.618-3.997,3.101-6.144,4.437L88.37,260.694c-8.387,4.591-14.884,11.995-18.347,20.907h25.6
				C99.086,272.688,105.583,265.285,113.97,260.694z"/>
			<path style="fill:#FFFFFF;" d="M417.144,128.015l8.548-0.008V128h-8.533c-4.707-0.014-8.519-3.826-8.533-8.533v-6.571
				c-0.032-5.148-2.383-10.007-6.4-13.227C387.084,87.572,380.091,67.948,384.17,49c4.08-18.947,18.529-33.955,37.308-38.749
				c-8.359-2.359-17.207-2.363-25.567-0.011c-18.788,4.784-33.25,19.79-37.337,38.742c-4.087,18.952,2.905,38.585,18.052,50.687
				c4.017,3.219,6.368,8.079,6.4,13.227v6.571c0.014,4.707,3.826,8.519,8.533,8.533h17.059l-17.075,0.015"/>
			<path style="fill:#FFFFFF;" d="M251.026,221.867h-0.181c-0.254,0.043-0.514,0.043-0.768,0c-1.757,0.22-3.534,0.22-5.291,0
				c-0.171,0.085-0.341,0-0.512,0h-0.512C246.178,222.093,248.61,222.093,251.026,221.867z"/>
			<path style="fill:#FFFFFF;" d="M40.839,503.467h25.6c-18.37-0.023-33.257-14.91-33.28-33.28v-9.813
				c0.028-4.466,3.641-8.079,8.107-8.107h8.96V289.366c0.015-4.282,3.483-7.75,7.765-7.765h-25.6
				c-4.282,0.015-7.75,3.483-7.765,7.765v162.901h-8.96c-4.466,0.028-8.079,3.641-8.107,8.107v9.813
				C7.583,488.557,22.469,503.443,40.839,503.467z"/>
			<path style="fill:#FFFFFF;" d="M186.503,52.48l0.067-0.011c-4.415-0.807-8.891-1.231-13.379-1.269
				c-4.13-0.014-8.25,0.415-12.288,1.28c-24.727,5.935-44.053,25.209-50.055,49.92h25.6C142.45,77.689,161.776,58.415,186.503,52.48
				z"/>
			<path style="fill:#FFFFFF;" d="M127.691,153.6h-25.6c-5.547,19.624-14.307,38.194-25.924,54.955c-0.47,0.727-0.47,1.662,0,2.389
				c4.334,6.491,11.489,10.544,19.285,10.923c2.299,0.21,4.613,0.21,6.912,0h18.688c-7.796-0.379-14.951-4.431-19.285-10.923
				c-0.47-0.727-0.47-1.662,0-2.389C113.384,191.794,122.144,173.224,127.691,153.6z"/>
			<path style="fill:#FFFFFF;" d="M136.448,102.4c0,0-7.958,45.733-8.757,51.2h-25.6l8.757-51.2"/>
		</g>
	</g>
	<g>
		<path style="fill:#FFFFFF;" d="M17.09,452.267l0.002-160.976l-0.002-1.623c0.006-0.922,0.071-1.843,0.196-2.757
			c0.84-5.525,4.454-10.234,9.574-12.474c2.894-1.104,5.992-1.571,9.083-1.369H325.08v17.067H34.159v162.133H17.09z"/>
		<g>
			<path style="fill:#428DFF;" d="M409.759,34.167h-0.025c-3.049,0.002-5.865,1.629-7.388,4.27s-1.521,5.894,0.004,8.533
				c1.526,2.639,4.344,4.264,7.392,4.263h0.017c4.706,0.006,8.519,3.819,8.525,8.525c0.007,4.709,3.825,8.523,8.533,8.525h0.009
				c4.712-0.008,8.526-3.83,8.525-8.542C435.323,45.622,423.879,34.186,409.759,34.167z"/>
			<path style="fill:#428DFF;" d="M307.226,59.784c0.008,4.707,3.826,8.518,8.533,8.516h0.017l8.533-0.017
				c3.049-0.003,5.864-1.632,7.386-4.274c1.522-2.642,1.518-5.895-0.009-8.533c-1.527-2.639-4.346-4.262-7.394-4.259h-0.017
				l-8.533,0.017c-2.264,0.003-4.433,0.906-6.03,2.51C308.114,55.347,307.22,57.52,307.226,59.784z"/>
			<path style="fill:#428DFF;" d="M333.884,23.292l-9.917-5.825c-2.629-1.545-5.882-1.57-8.535-0.066
				c-2.653,1.504-4.301,4.309-4.325,7.358c-0.024,3.049,1.581,5.88,4.21,7.425l9.917,5.825c4.063,2.372,9.278,1.01,11.662-3.046
				C339.28,30.907,337.933,25.687,333.884,23.292z"/>
			<path style="fill:#428DFF;" d="M325.251,81.667l-9.917,5.858c-4.059,2.398-5.406,7.632-3.008,11.692
				c2.398,4.059,7.632,5.406,11.692,3.008l9.917-5.858c4.049-2.402,5.389-7.63,2.995-11.684
				C334.534,80.629,329.309,79.28,325.251,81.667z"/>
			<path style="fill:#428DFF;" d="M503.492,51.2h-0.017l-8.533,0.017c-4.713,0.005-8.53,3.829-8.525,8.542s3.829,8.53,8.542,8.525
				h0.017l8.533-0.017c4.689-0.038,8.47-3.852,8.465-8.542C511.97,55.035,508.182,51.228,503.492,51.2z"/>
			<path style="fill:#428DFF;" d="M494.276,37.842l9.842-5.85c2.62-1.557,4.21-4.394,4.172-7.441
				c-0.039-3.047-1.7-5.843-4.358-7.333c-2.658-1.49-5.91-1.449-8.53,0.108l-9.842,5.85c-2.62,1.557-4.21,4.394-4.172,7.441
				c0.039,3.047,1.7,5.843,4.358,7.333C488.404,39.44,491.656,39.399,494.276,37.842L494.276,37.842z"/>
			<path style="fill:#428DFF;" d="M485.609,96.217l9.85,5.825c4.054,2.389,9.277,1.044,11.672-3.006
				c2.395-4.05,1.058-9.276-2.989-11.677l-9.85-5.825c-2.623-1.551-5.874-1.585-8.529-0.089c-2.655,1.496-4.31,4.295-4.342,7.342
				S482.986,94.666,485.609,96.217z"/>
			<path style="fill:#428DFF;" d="M416.809,0.442C399.841-1.6,382.81,3.719,370.02,15.055
				c-12.79,11.336-20.116,27.605-20.127,44.696c-0.042,18.134,8.209,35.293,22.4,46.583c2.015,1.588,3.193,4.01,3.2,6.575v6.575
				c0.021,6.064,3.268,11.659,8.523,14.686l0.01,10.922c0.031,8.216,3.989,15.922,10.65,20.733
				c4.341,3.151,9.569,4.846,14.933,4.842c2.855-0.005,5.691-0.466,8.4-1.367c10.564-3.76,17.517-13.882,17.234-25.092l-0.01-10.037
				c5.257-3.026,8.506-8.622,8.527-14.688v-6.55c0.049-2.661,1.307-5.154,3.417-6.775c16.743-13.419,24.939-34.831,21.433-56
				C464.146,24.003,443.126,3.829,416.809,0.442z M412.651,153.1c-2.682,0.963-5.665,0.549-7.983-1.108
				c-2.229-1.601-3.557-4.172-3.575-6.916l-0.009-8.525h17.084l0.009,7.675C418.349,148.043,416.152,151.571,412.651,153.1z
				 M436.459,92.875c-6.134,4.855-9.727,12.236-9.766,20.058v6.517h-0.009l-34.125,0.034v-6.575
				c0.008-7.754-3.531-15.085-9.609-19.9c-14.112-11.32-19.548-30.311-13.563-47.383s22.089-28.512,40.18-28.542
				c1.755,0,3.508,0.103,5.25,0.308c18.756,2.405,33.741,16.778,36.925,35.417C454.269,67.946,448.425,83.267,436.459,92.875
				L436.459,92.875z"/>
			<path style="fill:#428DFF;" d="M220.951,352.675c3.717-2.514,4.856-7.474,2.608-11.358
				c-11.592-20.061-35.212-29.837-57.592-23.836c-22.379,6.001-37.939,26.283-37.939,49.453c0,23.17,15.56,43.452,37.939,49.453
				c22.379,6.001,45.999-3.775,57.592-23.836c2.248-3.883,1.109-8.844-2.608-11.358c-4.746-3.193-7.592-8.538-7.592-14.258
				S216.205,355.869,220.951,352.675L220.951,352.675z M204.809,389.542c-6.454,7.369-15.788,11.574-25.583,11.525
				c-18.851,0-34.133-15.282-34.133-34.133c0-18.851,15.282-34.133,34.133-34.133c9.795-0.049,19.129,4.156,25.583,11.525
				C193.453,357.259,193.453,376.609,204.809,389.542L204.809,389.542z"/>
			<path style="fill:#428DFF;" d="M41.867,512h274.717c23.099-0.024,41.818-18.743,41.842-41.842V460.4
				c-0.009-9.201-7.466-16.657-16.667-16.667h-0.4V289.342c-0.01-8.984-7.291-16.266-16.275-16.275l-0.004,0.001v-0.001h-32.894
				c-4.865-8.564-12.175-15.481-20.994-19.867l-52.733-22.8h25.842c4.092,0.383,24.942,1.575,35.3-14.533
				c2.784-3.812,2.678-9.013-0.258-12.708c-9.628-12.395-17.222-26.243-22.499-41.025h16.248
				c9.421-0.012,17.054-7.646,17.067-17.067v-34.133c-0.012-9.421-7.646-17.054-17.067-17.067h-0.216
				C270.659,41.397,227.476,0,174.959,0s-95.7,41.397-97.917,93.867h-0.216c-9.421,0.012-17.054,7.646-17.067,17.067V179.2
				c0.029,8.659,6.55,15.919,15.156,16.873c-1.601,2.612-3.182,5.211-4.973,7.935c-2.211,3.442-2.247,7.848-0.092,11.325
				c7.681,10.883,20.718,16.67,33.942,15.067h20.975l-39.508,22.817c-8.277,4.6-15.05,11.493-19.504,19.85H35.944
				c-3.091-0.202-6.189,0.265-9.083,1.369c-5.12,2.24-8.735,6.949-9.574,12.474c-0.125,0.914-0.191,1.835-0.196,2.757l0.002,1.623
				v58.576c0,4.713,3.821,8.533,8.533,8.533s8.533-3.82,8.533-8.533v-59.733h290.133v153.6H34.159v-25.6
				c0-4.713-3.821-8.533-8.533-8.533s-8.533,3.82-8.533,8.533v25.6h-0.4c-9.201,0.009-16.657,7.466-16.667,16.667v9.758
				C0.049,493.257,18.769,511.977,41.867,512z M273.092,145.067h-21.23c-2.188-9.462-3.398-19.124-3.612-28.833
				c-0.082-1.671-0.244-3.452-0.471-5.3h25.313V145.067z M174.959,17.067c43.067,0.071,78.568,33.793,80.851,76.8h-11.911
				c-8.794-30.97-37.457-52.043-69.639-51.2c-31.524,0.564-59.182,21.159-68.756,51.2H94.109
				C96.391,50.86,131.892,17.138,174.959,17.067z M76.826,110.934h24.659c-0.157,1.201-0.369,2.383-0.476,3.6
				c-0.849,10.272-2.401,20.474-4.645,30.533H76.826V110.934z M76.826,179.2v-17.067h14.714c-2.083,5.828-4.511,11.527-7.272,17.067
				H76.826z M86.975,273.067c2-1.936,4.238-3.611,6.659-4.983l46.592-26.908c2.598-1.539,5.065-3.289,7.375-5.233
				c4.258-3.323,5.934-8.984,4.172-14.089c-1.762-5.106-6.572-8.528-11.973-8.519h-36.433c-0.357,0.001-0.713,0.024-1.067,0.067
				c-5.475,0.541-10.96-0.918-15.442-4.108c2.834-4.45,5.367-8.762,7.746-13.025h59.02c4.713,0,8.533-3.821,8.533-8.533
				c0-4.713-3.821-8.533-8.533-8.533h-50.55c8.494-20.069,13.542-41.427,14.933-63.175c2.75-31.642,27.2-56.292,55.742-56.292h0.375
				c53.4,0.433,56.95,55.033,57.067,57.083c0.852,33.334,11.821,65.62,31.45,92.575c-4.962,3.217-10.877,4.635-16.758,4.017
				c-0.373-0.05-0.749-0.075-1.125-0.075h-35.5c-4.63,0.001-8.929,2.398-11.363,6.336c-2.434,3.938-2.656,8.856-0.587,12.997
				c2.426,5.167,6.445,9.42,11.467,12.133l55.208,23.867c2.317,1.2,4.479,2.678,6.44,4.4H86.975z M25.572,460.789l0.054,0.011h307.2
				c0.661-0.051,1.313-0.183,1.943-0.392l6.591-0.008v9.758c-0.017,13.676-11.099,24.758-24.775,24.775H41.867
				c-13.676-0.017-24.758-11.099-24.775-24.775l-0.4-9.358L25.572,460.789z"/>
			<path style="fill:#428DFF;" d="M22.384,391.854c0.484,0.246,1.002,0.417,1.537,0.508c0.563,0.096,1.133,0.153,1.704,0.171
				c2.259-0.031,4.423-0.915,6.059-2.475c3.221-3.397,3.221-8.72,0-12.117c-0.815-0.771-1.77-1.379-2.813-1.792
				c-1.027-0.438-2.13-0.67-3.246-0.683c-2.259,0.034-4.422,0.918-6.059,2.475c-3.3,3.365-3.3,8.752,0,12.117l1.279,1.025
				C21.322,391.408,21.839,391.667,22.384,391.854z"/>
		</g>
	</g>
</g>
<g>
</g>
<g>
</g>
<g>
</g>
<g>
</g>
<g>
</g>
<g>
</g>
<g>
</g>
<g>
</g>
<g>
</g>
<g>
</g>
<g>
</g>
<g>
</g>
<g>
</g>
<g>
</g>
<g>
</g>
</svg>
