<?xml version="1.0" encoding="iso-8859-1"?>
<!-- Generator: Adobe Illustrator 19.0.0, SVG Export Plug-In . SVG Version: 6.00 Build 0)  -->
<svg version="1.1" id="Capa_1" xmlns="http://www.w3.org/2000/svg" xmlns:xlink="http://www.w3.org/1999/xlink" x="0px" y="0px"
	 viewBox="0 0 512 512" style="enable-background:new 0 0 512 512;" xml:space="preserve">
<g>
	<g transform="translate(1 1)">
		<g>
			<path style="fill:#A4C2F7;" d="M485.4,340.76V485.4H297.667V340.76c0-2.376,0.943-4.656,2.624-6.336
				c1.68-1.68,3.96-2.624,6.336-2.624H476.44c2.376,0,4.656,0.943,6.336,2.624C484.457,336.104,485.4,338.384,485.4,340.76z"/>
			<path style="fill:#A4C2F7;" d="M348.867,16.493v144.64H161.133V16.493c0-2.376,0.943-4.656,2.624-6.336
				c1.68-1.68,3.96-2.624,6.336-2.624h169.813c2.376,0,4.656,0.943,6.336,2.624C347.923,11.838,348.867,14.117,348.867,16.493z"/>
			<path style="fill:#A4C2F7;" d="M212.333,340.76V485.4H24.6V340.76c0-2.376,0.943-4.656,2.624-6.336
				c1.68-1.68,3.96-2.624,6.336-2.624h169.813c2.376,0,4.656,0.943,6.336,2.624C211.39,336.104,212.334,338.384,212.333,340.76z"/>
		</g>
		<g>
			
				<linearGradient id="SVGID_1_" gradientUnits="userSpaceOnUse" x1="-49.6763" y1="651.0831" x2="-48.7188" y2="650.0724" gradientTransform="matrix(162.1333 0 0 -153.6 8355.334 100340.0078)">
				<stop  offset="0" style="stop-color:#D3DFF2"/>
				<stop  offset="0.1717" style="stop-color:#D3DFF2"/>
				<stop  offset="0.2" style="stop-color:#D3DFF2"/>
				<stop  offset="0.2002" style="stop-color:#DAE2F2"/>
				<stop  offset="0.2007" style="stop-color:#EBEAF2"/>
				<stop  offset="0.2014" style="stop-color:#F6EFF2"/>
				<stop  offset="0.2023" style="stop-color:#FDF2F2"/>
				<stop  offset="0.205" style="stop-color:#FFF3F2"/>
				<stop  offset="0.2522" style="stop-color:#FFF3F2"/>
				<stop  offset="0.26" style="stop-color:#FFF3F2"/>
				<stop  offset="0.26" style="stop-color:#D3DFF2"/>
				<stop  offset="0.3974" style="stop-color:#D3DFF2"/>
				<stop  offset="0.42" style="stop-color:#D3DFF2"/>
				<stop  offset="0.4202" style="stop-color:#DAE2F2"/>
				<stop  offset="0.4207" style="stop-color:#EBEAF2"/>
				<stop  offset="0.4214" style="stop-color:#F6EFF2"/>
				<stop  offset="0.4223" style="stop-color:#FDF2F2"/>
				<stop  offset="0.425" style="stop-color:#FFF3F2"/>
				<stop  offset="0.4894" style="stop-color:#FFF3F2"/>
				<stop  offset="0.5" style="stop-color:#FFF3F2"/>
				<stop  offset="0.5" style="stop-color:#F8F0F2"/>
				<stop  offset="0.5001" style="stop-color:#E7E8F2"/>
				<stop  offset="0.5003" style="stop-color:#DCE3F2"/>
				<stop  offset="0.5005" style="stop-color:#D5E0F2"/>
				<stop  offset="0.501" style="stop-color:#D3DFF2"/>
				<stop  offset="0.7062" style="stop-color:#D3DFF2"/>
				<stop  offset="0.74" style="stop-color:#D3DFF2"/>
				<stop  offset="0.741" style="stop-color:#FFF3F2"/>
				<stop  offset="0.8346" style="stop-color:#FFF3F2"/>
				<stop  offset="0.85" style="stop-color:#FFF3F2"/>
				<stop  offset="0.851" style="stop-color:#D3DFF2"/>
			</linearGradient>
			<path style="fill:url(#SVGID_1_);" d="M459.8,340.76V485.4H297.667V340.76c0-2.376,0.943-4.656,2.624-6.336
				c1.68-1.68,3.96-2.624,6.336-2.624H450.84c2.376,0,4.656,0.943,6.336,2.624C458.857,336.104,459.8,338.384,459.8,340.76z"/>
			
				<linearGradient id="SVGID_2_" gradientUnits="userSpaceOnUse" x1="-49.6763" y1="651.0831" x2="-48.7188" y2="650.0724" gradientTransform="matrix(162.1333 0 0 -153.6 8218.8008 100015.7422)">
				<stop  offset="0" style="stop-color:#D3DFF2"/>
				<stop  offset="0.1717" style="stop-color:#D3DFF2"/>
				<stop  offset="0.2" style="stop-color:#D3DFF2"/>
				<stop  offset="0.2002" style="stop-color:#DAE2F2"/>
				<stop  offset="0.2007" style="stop-color:#EBEAF2"/>
				<stop  offset="0.2014" style="stop-color:#F6EFF2"/>
				<stop  offset="0.2023" style="stop-color:#FDF2F2"/>
				<stop  offset="0.205" style="stop-color:#FFF3F2"/>
				<stop  offset="0.2522" style="stop-color:#FFF3F2"/>
				<stop  offset="0.26" style="stop-color:#FFF3F2"/>
				<stop  offset="0.26" style="stop-color:#D3DFF2"/>
				<stop  offset="0.3974" style="stop-color:#D3DFF2"/>
				<stop  offset="0.42" style="stop-color:#D3DFF2"/>
				<stop  offset="0.4202" style="stop-color:#DAE2F2"/>
				<stop  offset="0.4207" style="stop-color:#EBEAF2"/>
				<stop  offset="0.4214" style="stop-color:#F6EFF2"/>
				<stop  offset="0.4223" style="stop-color:#FDF2F2"/>
				<stop  offset="0.425" style="stop-color:#FFF3F2"/>
				<stop  offset="0.4894" style="stop-color:#FFF3F2"/>
				<stop  offset="0.5" style="stop-color:#FFF3F2"/>
				<stop  offset="0.5" style="stop-color:#F8F0F2"/>
				<stop  offset="0.5001" style="stop-color:#E7E8F2"/>
				<stop  offset="0.5003" style="stop-color:#DCE3F2"/>
				<stop  offset="0.5005" style="stop-color:#D5E0F2"/>
				<stop  offset="0.501" style="stop-color:#D3DFF2"/>
				<stop  offset="0.7062" style="stop-color:#D3DFF2"/>
				<stop  offset="0.74" style="stop-color:#D3DFF2"/>
				<stop  offset="0.741" style="stop-color:#FFF3F2"/>
				<stop  offset="0.8346" style="stop-color:#FFF3F2"/>
				<stop  offset="0.85" style="stop-color:#FFF3F2"/>
				<stop  offset="0.851" style="stop-color:#D3DFF2"/>
			</linearGradient>
			<path style="fill:url(#SVGID_2_);" d="M323.267,16.493v144.64H161.133V16.493c0-2.376,0.943-4.656,2.624-6.336
				c1.68-1.68,3.96-2.624,6.336-2.624h144.213c2.376,0,4.656,0.943,6.336,2.624C322.323,11.838,323.267,14.117,323.267,16.493z"/>
			
				<linearGradient id="SVGID_3_" gradientUnits="userSpaceOnUse" x1="-49.6763" y1="651.0831" x2="-48.7188" y2="650.0724" gradientTransform="matrix(162.1333 0 0 -153.6 8082.2671 100340.0078)">
				<stop  offset="0" style="stop-color:#D3DFF2"/>
				<stop  offset="0.1717" style="stop-color:#D3DFF2"/>
				<stop  offset="0.2" style="stop-color:#D3DFF2"/>
				<stop  offset="0.2002" style="stop-color:#DAE2F2"/>
				<stop  offset="0.2007" style="stop-color:#EBEAF2"/>
				<stop  offset="0.2014" style="stop-color:#F6EFF2"/>
				<stop  offset="0.2023" style="stop-color:#FDF2F2"/>
				<stop  offset="0.205" style="stop-color:#FFF3F2"/>
				<stop  offset="0.2522" style="stop-color:#FFF3F2"/>
				<stop  offset="0.26" style="stop-color:#FFF3F2"/>
				<stop  offset="0.26" style="stop-color:#D3DFF2"/>
				<stop  offset="0.3974" style="stop-color:#D3DFF2"/>
				<stop  offset="0.42" style="stop-color:#D3DFF2"/>
				<stop  offset="0.4202" style="stop-color:#DAE2F2"/>
				<stop  offset="0.4207" style="stop-color:#EBEAF2"/>
				<stop  offset="0.4214" style="stop-color:#F6EFF2"/>
				<stop  offset="0.4223" style="stop-color:#FDF2F2"/>
				<stop  offset="0.425" style="stop-color:#FFF3F2"/>
				<stop  offset="0.4894" style="stop-color:#FFF3F2"/>
				<stop  offset="0.5" style="stop-color:#FFF3F2"/>
				<stop  offset="0.5" style="stop-color:#F8F0F2"/>
				<stop  offset="0.5001" style="stop-color:#E7E8F2"/>
				<stop  offset="0.5003" style="stop-color:#DCE3F2"/>
				<stop  offset="0.5005" style="stop-color:#D5E0F2"/>
				<stop  offset="0.501" style="stop-color:#D3DFF2"/>
				<stop  offset="0.7062" style="stop-color:#D3DFF2"/>
				<stop  offset="0.74" style="stop-color:#D3DFF2"/>
				<stop  offset="0.741" style="stop-color:#FFF3F2"/>
				<stop  offset="0.8346" style="stop-color:#FFF3F2"/>
				<stop  offset="0.85" style="stop-color:#FFF3F2"/>
				<stop  offset="0.851" style="stop-color:#D3DFF2"/>
			</linearGradient>
			<path style="fill:url(#SVGID_3_);" d="M186.733,340.76V485.4H24.6V340.76c0-2.376,0.943-4.656,2.624-6.336
				c1.68-1.68,3.96-2.624,6.336-2.624h144.213c2.376,0,4.656,0.943,6.336,2.624C185.79,336.104,186.734,338.384,186.733,340.76z"/>
		</g>
		<g>
			<path style="fill:#7FABFA;" d="M16.408,468.333h204.117c4.901,0,8.875,3.973,8.875,8.875v16.384c0,4.901-3.973,8.875-8.875,8.875
				H16.408c-4.901,0-8.875-3.973-8.875-8.875v-16.384C7.533,472.307,11.507,468.333,16.408,468.333z"/>
			<path style="fill:#7FABFA;" d="M289.475,468.333h204.117c4.901,0,8.875,3.973,8.875,8.875v16.384
				c0,4.901-3.973,8.875-8.875,8.875H289.475c-4.901,0-8.875-3.973-8.875-8.875v-16.384
				C280.6,472.307,284.573,468.333,289.475,468.333z"/>
			<path style="fill:#7FABFA;" d="M152.941,144.067h204.117c4.901,0,8.875,3.973,8.875,8.875v16.384
				c0,4.901-3.973,8.875-8.875,8.875H152.941c-4.901,0-8.875-3.973-8.875-8.875v-16.384c0-2.354,0.935-4.611,2.599-6.275
				C148.33,145.002,150.588,144.067,152.941,144.067z"/>
		</g>
		<g>
			<path style="fill:#A4C2F7;" d="M16.408,468.333h178.517c4.901,0,8.875,3.973,8.875,8.875v16.384c0,4.901-3.973,8.875-8.875,8.875
				H16.408c-4.901,0-8.875-3.973-8.875-8.875v-16.384C7.533,472.307,11.507,468.333,16.408,468.333z"/>
			<path style="fill:#A4C2F7;" d="M289.475,468.333h178.517c4.901,0,8.875,3.973,8.875,8.875v16.384
				c0,4.901-3.973,8.875-8.875,8.875H289.475c-4.901,0-8.875-3.973-8.875-8.875v-16.384
				C280.6,472.307,284.573,468.333,289.475,468.333z"/>
			<path style="fill:#A4C2F7;" d="M152.941,144.067h178.517c4.901,0,8.875,3.973,8.875,8.875v16.384
				c0,4.901-3.973,8.875-8.875,8.875H152.941c-4.901,0-8.875-3.973-8.875-8.875v-16.384c0-2.354,0.935-4.611,2.599-6.275
				C148.33,145.002,150.588,144.067,152.941,144.067z"/>
		</g>
		<g>
			<path style="fill:#FFFFFF;" d="M169.667,169.325v-16.384c0.026-4.89,3.984-8.848,8.875-8.875h8.192V16.493
				c0-2.376,0.943-4.656,2.624-6.336c1.68-1.68,3.96-2.624,6.336-2.624h-25.6c-2.376,0-4.656,0.943-6.336,2.624
				c-1.68,1.68-2.624,3.96-2.624,6.336v127.573h-8.192c-4.89,0.026-8.848,3.984-8.875,8.875v16.384
				c0.026,4.89,3.984,8.848,8.875,8.875h25.6C173.651,178.174,169.693,174.216,169.667,169.325z"/>
			<path style="fill:#FFFFFF;" d="M16.408,502.467h25.6c-4.89-0.026-8.848-3.984-8.875-8.875v-16.384
				c0.026-4.89,3.984-8.849,8.875-8.875H50.2V340.76c0-2.376,0.943-4.656,2.624-6.336c1.68-1.68,3.96-2.624,6.336-2.624h-25.6
				c-2.376,0-4.656,0.943-6.336,2.624c-1.68,1.68-2.624,3.96-2.624,6.336v127.573h-8.192c-4.89,0.026-8.848,3.984-8.875,8.875
				v16.384C7.56,498.482,11.518,502.44,16.408,502.467z"/>
			<path style="fill:#FFFFFF;" d="M297.667,340.76v127.573h-8.192c-4.89,0.026-8.849,3.984-8.875,8.875v16.384
				c0.026,4.89,3.984,8.848,8.875,8.875h25.6c-4.89-0.026-8.848-3.984-8.875-8.875v-16.384c0.026-4.89,3.984-8.849,8.875-8.875
				h8.192V340.76c0-2.376,0.943-4.656,2.624-6.336c1.68-1.68,3.96-2.624,6.336-2.624h-25.6c-2.376,0-4.656,0.943-6.336,2.624
				C298.61,336.104,297.666,338.384,297.667,340.76z"/>
		</g>
	</g>
	<g>
		<path style="fill:#FFFFFF;" d="M17.067,469.333V345.866c-0.141-2.767,0.029-5.541,0.509-8.269
			c1.493-6.087,6.127-10.911,12.15-12.646c0.984-0.279,1.99-0.476,3.006-0.589c1.046-0.089,2.122-0.105,2.447-0.095h169.204v17.067
			H35.179c-0.227-0.017-0.456-0.016-0.683,0.004l-0.064,0.019l-0.117,0.061c-0.316-3.264-0.13,9.491-0.182,16.983v110.933H17.067z"
			/>
		<g>
			<path style="fill:#428DFF;" d="M494.933,460.835V341.75c-0.01-9.652-7.832-17.473-17.483-17.483h-76.383v-34.133
				c-0.011-9.421-7.645-17.056-17.067-17.067H264.533v-85.333h93.517c9.614-0.012,17.405-7.803,17.417-17.417V153.95
				c-0.018-9.47-7.599-17.19-17.067-17.381V17.483C358.39,7.832,350.568,0.01,340.917,0H171.083
				c-9.652,0.01-17.473,7.832-17.483,17.483v119.085c-9.468,0.191-17.048,7.912-17.067,17.381v16.367
				c0.012,9.614,7.803,17.404,17.417,17.417h93.517v85.333H128c-9.421,0.011-17.056,7.645-17.067,17.067v34.133H35.179
				c-0.325-0.009-1.401,0.006-2.447,0.095c-1.017,0.113-2.022,0.31-3.006,0.589c-6.023,1.735-10.657,6.559-12.15,12.646
				c-0.479,2.729-0.65,5.503-0.509,8.27v21.067c0,4.713,3.821,8.533,8.533,8.533s8.533-3.82,8.533-8.533V358.4
				c0.052-7.492-0.134-20.247,0.182-16.983l0.117-0.061l0.064-0.019c0.227-0.02,0.455-0.021,0.683-0.004h167.632
				c0.643,0.222,1.311,0.362,1.989,0.417V460.8H34.133v-25.6c0-4.713-3.821-8.533-8.533-8.533s-8.533,3.82-8.533,8.533v25.635
				C7.599,461.027,0.019,468.747,0,478.217v16.367c0.012,9.614,7.803,17.404,17.417,17.417h204.1
				c9.614-0.012,17.404-7.803,17.417-17.417v-16.367c-0.018-9.47-7.599-17.19-17.067-17.381V341.75
				c-0.01-9.652-7.832-17.473-17.483-17.483H128v-34.133h256v34.133h-76.383c-9.652,0.01-17.473,7.832-17.483,17.483v119.085
				c-9.468,0.191-17.048,7.911-17.067,17.381v16.367c0.012,9.614,7.803,17.404,17.417,17.417h204.1
				c9.613-0.013,17.403-7.803,17.417-17.417v-16.367C511.98,468.748,504.4,461.028,494.933,460.835z M171.083,17.067l170.25,0.417
				v119.05H170.696L171.083,17.067z M153.6,170.317l0.35-16.717l204.45,0.35v16.367c0.002,0.093-0.035,0.183-0.101,0.249
				c-0.066,0.066-0.156,0.102-0.249,0.101L153.6,170.317z M221.867,494.583c0.002,0.093-0.035,0.183-0.101,0.249
				c-0.066,0.066-0.156,0.102-0.249,0.101l-204.45-0.35l0.35-16.717l204.45,0.35V494.583z M307.617,341.333l170.25,0.417V460.8
				H307.229L307.617,341.333z M494.933,494.583c0.002,0.093-0.034,0.184-0.1,0.25c-0.066,0.066-0.156,0.102-0.25,0.1l-204.45-0.35
				l0.35-16.717l204.45,0.35V494.583z"/>
			<path style="fill:#428DFF;" d="M349.867,358.4h-8.533c-4.713,0-8.533,3.82-8.533,8.533s3.82,8.533,8.533,8.533h8.533
				c4.713,0,8.533-3.82,8.533-8.533S354.579,358.4,349.867,358.4z"/>
			<path style="fill:#428DFF;" d="M443.733,358.4H384c-4.713,0-8.533,3.82-8.533,8.533s3.821,8.533,8.533,8.533h59.733
				c4.713,0,8.533-3.82,8.533-8.533S448.446,358.4,443.733,358.4z"/>
			<path style="fill:#428DFF;" d="M213.333,34.133H204.8c-4.713,0-8.533,3.821-8.533,8.533s3.821,8.533,8.533,8.533h8.533
				c4.713,0,8.533-3.821,8.533-8.533S218.046,34.133,213.333,34.133z"/>
			<path style="fill:#428DFF;" d="M307.2,34.133h-59.733c-4.713,0-8.533,3.821-8.533,8.533s3.821,8.533,8.533,8.533H307.2
				c4.713,0,8.533-3.821,8.533-8.533S311.913,34.133,307.2,34.133z"/>
			<path style="fill:#428DFF;" d="M22.358,408.921c0.484,0.246,1.002,0.417,1.537,0.508c0.563,0.096,1.133,0.153,1.704,0.171
				c2.259-0.031,4.423-0.915,6.059-2.475c3.221-3.397,3.221-8.72,0-12.117c-0.815-0.771-1.77-1.379-2.813-1.792
				c-1.027-0.438-2.13-0.67-3.246-0.683c-2.259,0.034-4.422,0.918-6.059,2.475c-3.3,3.365-3.3,8.752,0,12.117l1.279,1.025
				C21.297,408.474,21.814,408.733,22.358,408.921z"/>
			<path style="fill:#428DFF;" d="M76.8,375.467c4.713,0,8.533-3.82,8.533-8.533s-3.82-8.533-8.533-8.533h-8.533
				c-4.713,0-8.533,3.82-8.533,8.533s3.821,8.533,8.533,8.533H76.8z"/>
			<path style="fill:#428DFF;" d="M170.667,375.467c4.713,0,8.533-3.82,8.533-8.533s-3.821-8.533-8.533-8.533h-59.733
				c-4.713,0-8.533,3.82-8.533,8.533s3.821,8.533,8.533,8.533H170.667z"/>
		</g>
	</g>
</g>
<g>
</g>
<g>
</g>
<g>
</g>
<g>
</g>
<g>
</g>
<g>
</g>
<g>
</g>
<g>
</g>
<g>
</g>
<g>
</g>
<g>
</g>
<g>
</g>
<g>
</g>
<g>
</g>
<g>
</g>
</svg>
