<?xml version="1.0" encoding="iso-8859-1"?>
<!-- Generator: Adobe Illustrator 19.0.0, SVG Export Plug-In . SVG Version: 6.00 Build 0)  -->
<svg version="1.1" id="Capa_1" xmlns="http://www.w3.org/2000/svg" xmlns:xlink="http://www.w3.org/1999/xlink" x="0px" y="0px"
	 viewBox="0 0 512.012 512.012" style="enable-background:new 0 0 512.012 512.012;" xml:space="preserve">
<g>
	<g transform="translate(1 1)">
		<path style="fill:#7FABFA;" d="M202.349,355.956L65.815,492.489c-13.348,13.312-34.951,13.312-48.299,0
			c-2.91-2.93-5.253-6.373-6.912-10.155c-5.884-12.911-3.128-28.118,6.912-38.144L154.05,307.657l31.232,31.232L202.349,355.956z"/>
		<path style="fill:#E3E7F2;" d="M185.282,338.889L48.749,475.423c-6.406,6.401-15.094,9.993-24.149,9.984
			c-4.832,0.001-9.607-1.047-13.995-3.072c-5.884-12.911-3.128-28.118,6.912-38.144l42.667-42.667l30.208-30.208l63.659-63.659
			L185.282,338.889z"/>
		<path style="fill:#A4C2F7;" d="M502.466,212.34c-0.029,113.096-91.704,204.771-204.8,204.8c-4.352,0-8.619-0.171-12.8-0.427
			C176.944,409.968,92.867,320.473,92.867,212.34S176.944,14.712,284.866,7.967c4.181-0.256,8.448-0.427,12.8-0.427
			C410.762,7.569,502.437,99.244,502.466,212.34z"/>
		<ellipse style="fill:#E3E7F2;" cx="284.866" cy="212.34" rx="192" ry="204.373"/>
		<path style="fill:#A4C2F7;" d="M468.333,212.34c-0.095,94.217-76.449,170.572-170.667,170.667c-4.352,0-8.619-0.171-12.8-0.512
			c-89.037-6.678-157.871-80.867-157.871-170.155S195.829,48.863,284.866,42.185c4.181-0.342,8.448-0.512,12.8-0.512
			C391.883,41.768,468.238,118.122,468.333,212.34z"/>
		
			<linearGradient id="SVGID_1_" gradientUnits="userSpaceOnUse" x1="-49.7072" y1="651.4337" x2="-48.9838" y2="650.7625" gradientTransform="matrix(315.7333 0 0 -340.3094 15864.8818 221787.125)">
			<stop  offset="0" style="stop-color:#D3DFF2"/>
			<stop  offset="0.1717" style="stop-color:#D3DFF2"/>
			<stop  offset="0.2" style="stop-color:#D3DFF2"/>
			<stop  offset="0.2002" style="stop-color:#DAE2F2"/>
			<stop  offset="0.2007" style="stop-color:#EBEAF2"/>
			<stop  offset="0.2014" style="stop-color:#F6EFF2"/>
			<stop  offset="0.2023" style="stop-color:#FDF2F2"/>
			<stop  offset="0.205" style="stop-color:#FFF3F2"/>
			<stop  offset="0.2522" style="stop-color:#FFF3F2"/>
			<stop  offset="0.26" style="stop-color:#FFF3F2"/>
			<stop  offset="0.26" style="stop-color:#D3DFF2"/>
			<stop  offset="0.3974" style="stop-color:#D3DFF2"/>
			<stop  offset="0.42" style="stop-color:#D3DFF2"/>
			<stop  offset="0.4202" style="stop-color:#DAE2F2"/>
			<stop  offset="0.4207" style="stop-color:#EBEAF2"/>
			<stop  offset="0.4214" style="stop-color:#F6EFF2"/>
			<stop  offset="0.4223" style="stop-color:#FDF2F2"/>
			<stop  offset="0.425" style="stop-color:#FFF3F2"/>
			<stop  offset="0.4894" style="stop-color:#FFF3F2"/>
			<stop  offset="0.5" style="stop-color:#FFF3F2"/>
			<stop  offset="0.5" style="stop-color:#F8F0F2"/>
			<stop  offset="0.5001" style="stop-color:#E7E8F2"/>
			<stop  offset="0.5003" style="stop-color:#DCE3F2"/>
			<stop  offset="0.5005" style="stop-color:#D5E0F2"/>
			<stop  offset="0.501" style="stop-color:#D3DFF2"/>
			<stop  offset="0.7062" style="stop-color:#D3DFF2"/>
			<stop  offset="0.74" style="stop-color:#D3DFF2"/>
			<stop  offset="0.741" style="stop-color:#FFF3F2"/>
			<stop  offset="0.8346" style="stop-color:#FFF3F2"/>
			<stop  offset="0.85" style="stop-color:#FFF3F2"/>
			<stop  offset="0.851" style="stop-color:#D3DFF2"/>
		</linearGradient>
		<ellipse style="fill:url(#SVGID_1_);" cx="284.866" cy="212.34" rx="157.867" ry="170.155"/>
		
			<rect x="93.71" y="414.091" transform="matrix(-0.7071 0.7071 -0.7071 -0.7071 497.803 646.1172)" style="fill:#D4E1F4;" width="42.752" height="24.132"/>
		
			<rect x="69.541" y="379.941" transform="matrix(-0.7071 0.7071 -0.7071 -0.7071 439.4798 622.0131)" style="fill:#FFFFFF;" width="42.752" height="44.169"/>
		<g>
			<path style="fill:#E3E7F2;" d="M220.866,272.065c-4.527,0.006-8.87-1.793-12.067-5l-42.667-42.667c-3.201-3.2-5-7.54-5-12.067
				c0-4.526,1.799-8.867,5-12.067l42.667-42.667c6.668-6.643,17.455-6.632,24.11,0.023c6.655,6.655,6.666,17.442,0.023,24.11
				l-30.596,30.6l30.596,30.601c4.88,4.881,6.339,12.221,3.698,18.597C233.989,267.905,227.768,272.063,220.866,272.065z"/>
			<path style="fill:#E3E7F2;" d="M374.466,272.065c-6.902-0.001-13.123-4.159-15.765-10.536
				c-2.641-6.376-1.182-13.716,3.698-18.597l30.596-30.601l-30.596-30.6c-6.608-6.674-6.581-17.432,0.06-24.073
				c6.641-6.641,17.399-6.667,24.073-0.06l42.667,42.667c3.201,3.2,5,7.54,5,12.067c0,4.526-1.799,8.867-5,12.067l-42.667,42.667
				C383.336,270.272,378.993,272.071,374.466,272.065z"/>
			<path style="fill:#E3E7F2;" d="M289.154,280.607c-5.02,0.004-9.787-2.202-13.034-6.031c-3.247-3.829-4.644-8.892-3.82-13.844
				l17.067-102.4c1.551-9.297,10.345-15.576,19.642-14.025c9.297,1.551,15.576,10.345,14.025,19.642l-17.067,102.4
				C304.593,274.567,297.487,280.594,289.154,280.607z"/>
		</g>
		<path style="fill:#FFFFFF;" d="M17.517,444.191c-10.04,10.026-12.796,25.233-6.912,38.144c1.659,3.782,4.002,7.224,6.912,10.155
			c9.702,9.675,24.242,12.627,36.949,7.501c-4.25-1.709-8.111-4.26-11.349-7.501c-2.91-2.93-5.253-6.373-6.912-10.155
			c-5.884-12.911-3.128-28.118,6.912-38.144l42.667-42.667l70.561-70.561c-43.062-60.565-49.927-139.708-17.936-206.784
			S236.222,12.628,310.389,7.973c-4.212-0.259-8.446-0.433-12.723-0.433c-4.352,0-8.619,0.171-12.8,0.427
			c-74.183,4.628-140.032,49.095-172.041,116.177s-25.15,146.242,17.92,206.819l-70.561,70.562L17.517,444.191z"/>
	</g>
	<g>
		<path style="fill:#FFFFFF;" d="M85.333,213.34c0.236-76.836,41.599-147.663,108.405-185.622
			c32.064-17.976,68.17-27.511,104.928-27.711v17.067c-33.811,0.199-67.019,8.97-96.517,25.495
			c-61.457,34.929-99.514,100.083-99.749,170.772H85.333z"/>
		<g>
			<path style="fill:#428DFF;" d="M221.866,281.598c10.353-0.002,19.686-6.239,23.648-15.804c3.962-9.565,1.772-20.575-5.548-27.896
				l-24.562-24.567l24.562-24.567c9.982-10.001,9.984-26.196,0.004-36.2c-10.132-9.667-26.072-9.667-36.204,0l-42.667,42.667
				c-9.983,10.002-9.983,26.198,0,36.2l42.662,42.667C208.553,278.915,215.072,281.616,221.866,281.598z M173.166,207.298
				l42.671-42.667c1.599-1.601,3.769-2.5,6.031-2.5c2.263,0,4.432,0.899,6.031,2.5c3.325,3.335,3.325,8.732,0,12.067l-30.596,30.6
				c-1.601,1.6-2.5,3.77-2.5,6.033s0.899,4.433,2.5,6.033l30.596,30.6c3.326,3.335,3.324,8.734-0.004,12.067
				c-3.371,3.233-8.692,3.233-12.062,0l-42.667-42.667C169.841,216.03,169.841,210.633,173.166,207.298z"/>
			<path style="fill:#428DFF;" d="M357.362,274.098c4.8,4.802,11.312,7.5,18.102,7.5s13.302-2.698,18.102-7.5l42.667-42.667
				c9.983-10.002,9.983-26.198,0-36.2l-42.663-42.667c-10.132-9.667-26.072-9.667-36.204,0c-9.983,10.002-9.983,26.198,0,36.2
				l24.562,24.567l-24.562,24.567C347.384,247.9,347.382,264.095,357.362,274.098z M369.433,249.965l30.596-30.6
				c1.601-1.6,2.5-3.77,2.5-6.033s-0.899-4.433-2.5-6.033l-30.596-30.6c-3.326-3.335-3.324-8.734,0.004-12.067
				c1.599-1.601,3.769-2.5,6.031-2.5s4.432,0.899,6.031,2.5l42.667,42.667c3.325,3.335,3.325,8.732,0,12.067l-42.671,42.667
				c-3.371,3.233-8.692,3.233-12.062,0C366.108,258.697,366.108,253.3,369.433,249.965z"/>
			<path style="fill:#428DFF;" d="M285.924,289.79c1.398,0.231,2.812,0.348,4.229,0.35c12.52,0.029,23.21-9.035,25.229-21.392
				l17.067-102.4c1.117-6.702-0.476-13.573-4.429-19.1c-3.952-5.527-9.939-9.256-16.642-10.367
				c-13.923-2.245-27.056,7.148-29.429,21.05l-17.067,102.4C262.574,274.273,271.988,287.452,285.924,289.79z M298.783,160.732
				c0.503-3.007,2.572-5.517,5.428-6.585c2.856-1.068,6.064-0.531,8.417,1.408c2.353,1.939,3.492,4.986,2.989,7.993L298.549,265.94
				c-0.478,3.029-2.545,5.568-5.413,6.652s-6.098,0.545-8.459-1.411c-2.361-1.956-3.492-5.029-2.961-8.049L298.783,160.732z"/>
			<path style="fill:#428DFF;" d="M99.626,152.842c0.398,0.38,0.851,0.698,1.343,0.943c0.514,0.255,1.045,0.474,1.589,0.656
				c3.271,0.947,6.796-0.052,9.084-2.575c2.266-2.445,2.82-6.021,1.399-9.037c-0.51-0.999-1.196-1.898-2.023-2.655
				c-0.806-0.778-1.753-1.396-2.789-1.822c-2.109-0.806-4.451-0.744-6.514,0.172c-2.068,1.07-3.665,2.869-4.482,5.049
				c-0.781,2.169-0.71,4.553,0.2,6.671l0.92,1.386C98.721,152.09,99.149,152.497,99.626,152.842z"/>
			<path style="fill:#428DFF;" d="M298.666,0.007c-36.759,0.2-72.864,9.736-104.928,27.711
				c-31.986,18.118-58.743,44.2-77.672,75.713l-4.608,7.601c-1.079,2.05-1.293,4.446-0.594,6.655c0.699,2.208,2.254,4.045,4.316,5.1
				c4.093,2.066,9.087,0.487,11.247-3.557l4.253-6.984c17.414-29.001,42.034-53.004,71.468-69.677
				c29.499-16.524,62.707-25.296,96.517-25.495c108.395,0,196.267,87.872,196.267,196.267s-87.872,196.267-196.267,196.267
				S102.399,321.735,102.399,213.34l0.832-16.343c0.405-5.436,1.105-10.846,2.095-16.206c0.512-4.585-2.514-8.82-7.018-9.82
				c-2.244-0.484-4.588,0-6.456,1.334c-1.868,1.334-3.088,3.393-3.359,5.672c-1.069,5.827-1.827,11.708-2.271,17.616l-0.89,17.747
				c-0.04,41.818,12.285,82.714,35.425,117.545l-35.392,35.391l-0.008,0.005l-0.005,0.008l-30.198,30.197l-0.005,0.003l-0.003,0.005
				l-42.664,42.662c-16.651,16.673-16.642,43.685,0.02,60.347s43.674,16.671,60.347,0.02l42.662-42.664l0.005-0.003l0.003-0.005
				l30.197-30.198l0.008-0.005l0.005-0.008l35.391-35.392c76.128,50.304,175.823,46.611,248.02-9.188
				s100.902-151.344,71.413-237.694C471.064,58.016,389.913-0.012,298.666,0.007z M109.482,438.755L73.25,402.524l18.142-18.142
				l36.231,36.231L109.482,438.755z M60.783,487.457c-10.15,9.65-26.083,9.65-36.233,0c-9.983-10.015-9.983-26.219,0-36.233
				l36.634-36.633l36.233,36.233L60.783,487.457z M139.689,408.547l-36.23-36.23l27.438-27.438
				c10.59,13.477,22.753,25.639,36.229,36.229L139.689,408.547z"/>
			<path style="fill:#428DFF;" d="M298.666,392.54c98.969,0,179.2-80.231,179.2-179.2s-80.231-179.2-179.2-179.2
				s-179.2,80.231-179.2,179.2C119.578,312.263,199.743,392.427,298.666,392.54z M298.666,51.207
				c89.544,0,162.133,72.59,162.133,162.133s-72.59,162.133-162.133,162.133s-162.133-72.59-162.133-162.133
				C136.634,123.838,209.164,51.308,298.666,51.207z"/>
		</g>
	</g>
</g>
<g>
</g>
<g>
</g>
<g>
</g>
<g>
</g>
<g>
</g>
<g>
</g>
<g>
</g>
<g>
</g>
<g>
</g>
<g>
</g>
<g>
</g>
<g>
</g>
<g>
</g>
<g>
</g>
<g>
</g>
</svg>
