<?xml version="1.0" encoding="iso-8859-1"?>
<!-- Generator: Adobe Illustrator 19.0.0, SVG Export Plug-In . SVG Version: 6.00 Build 0)  -->
<svg version="1.1" id="Capa_1" xmlns="http://www.w3.org/2000/svg" xmlns:xlink="http://www.w3.org/1999/xlink" x="0px" y="0px"
	 viewBox="0 0 512 512" style="enable-background:new 0 0 512 512;" xml:space="preserve">
<g>
	<g transform="translate(1 1)">
		<path style="fill:#E3E7F2;" d="M101.4,127H67.266c-9.053-0.002-17.737,3.593-24.139,9.995s-9.997,15.085-9.995,24.139v102.4
			h443.733l0-59.733c0.009-6.792-2.685-13.309-7.488-18.112c-4.803-4.803-11.32-7.497-18.112-7.488H408.6l-307.2-1.422V127z"/>
		<g>
			<path style="fill:#A4C2F7;" d="M476.866,203.8l0,59.733h-25.6V203.8c0.009-6.792-2.685-13.309-7.488-18.112
				c-4.803-4.803-11.32-7.497-18.112-7.488l25.6,0c6.792-0.009,13.309,2.685,18.112,7.488
				C474.181,190.491,476.875,197.008,476.866,203.8z"/>
			<path style="fill:#A4C2F7;" d="M502.296,265.752L472.77,487.619c-1.137,8.507-8.399,14.856-16.981,14.848H54.21
				c-8.582,0.008-15.844-6.341-16.981-14.848L7.704,265.752c-0.642-4.868,0.845-9.776,4.08-13.469
				c3.236-3.693,7.906-5.813,12.816-5.816h460.8c4.91,0.004,9.58,2.123,12.816,5.816
				C501.451,255.976,502.938,260.884,502.296,265.752z"/>
		</g>
		<path style="fill:#E3E7F2;" d="M476.696,265.752L447.17,487.619c-1.137,8.507-8.399,14.856-16.981,14.848H54.21
			c-8.582,0.008-15.844-6.341-16.981-14.848L7.704,265.752c-0.642-4.868,0.845-9.776,4.08-13.469
			c3.236-3.693,7.906-5.813,12.816-5.816h435.2c4.91,0.004,9.58,2.123,12.816,5.816
			C475.851,255.976,477.338,260.884,476.696,265.752z"/>
		<path style="fill:#A4C2F7;" d="M408.6,16.579l0,229.888h-307.2l0-229.888c-0.013-2.403,0.935-4.712,2.635-6.411
			c1.699-1.699,4.008-2.648,6.411-2.634h289.108c2.403-0.013,4.712,0.935,6.411,2.634C407.664,11.867,408.613,14.176,408.6,16.579z"
			/>
		<path style="fill:#D4E1F4;" d="M383,16.579l0,229.888h-281.6l0-229.888c-0.013-2.403,0.935-4.712,2.635-6.411
			c1.699-1.699,4.008-2.648,6.411-2.634h263.508c2.403-0.013,4.712,0.935,6.411,2.634S383.013,14.176,383,16.579z"/>
		<g>
			<path style="fill:#E3E7F2;" d="M280.6,387.011l-128.093,79.104c-2.569,1.476-5.485,2.242-8.448,2.219
				c-7.752,0.007-14.535-5.209-16.519-12.703c-1.984-7.494,1.331-15.383,8.071-19.212L263.618,357.4L280.6,387.011z"/>
			<path style="fill:#E3E7F2;" d="M255,41.667c14.139,0,25.6,11.462,25.6,25.6v17.067h-51.2V67.267
				C229.4,53.129,240.861,41.667,255,41.667z"/>
			<path style="fill:#E3E7F2;" d="M220.866,84.334h68.267v68.267c0,18.851-15.282,34.133-34.133,34.133
				s-34.133-15.282-34.133-34.133V84.334z"/>
		</g>
		<path style="fill:#D4E1F4;" d="M383,348.867c0.005,18.107-7.186,35.474-19.989,48.277c-12.804,12.804-30.17,19.994-48.277,19.989
			c-4.294-0.005-8.579-0.405-12.8-1.195c-32.188-6.152-55.467-34.302-55.467-67.072s23.279-60.92,55.467-67.072
			c4.221-0.79,8.506-1.19,12.8-1.195c18.107-0.005,35.474,7.186,48.277,19.989C375.814,313.393,383.005,330.76,383,348.867z"/>
		<ellipse style="fill:#FFFFFF;" cx="301.933" cy="348.867" rx="55.467" ry="67.072"/>
	</g>
	<path style="fill:#FFFFFF;" d="M34.133,162.133v85.333H25.6c-4.91,0.004-9.58,2.123-12.816,5.816s-4.722,8.602-4.08,13.469
		l29.525,221.867c1.137,8.507,8.399,14.856,16.981,14.848h25.6c-8.583,0.008-15.844-6.341-16.981-14.848L34.304,266.752
		c-0.642-4.868,0.845-9.776,4.08-13.469s7.906-5.813,12.816-5.816h8.533v-85.333c-0.003-9.054,3.593-17.737,9.995-24.139
		c6.402-6.402,15.085-9.997,24.139-9.995h-25.6c-9.054-0.003-17.737,3.593-24.139,9.995S34.13,153.08,34.133,162.133z"/>
	<g>
		<polygon style="fill:#FFFFFF;" points="17.143,265.66 31.803,375.62 46.728,487.526 29.806,489.779 14.89,377.873 0.23,267.913 		
			"/>
		<g>
			<path style="fill:#428DFF;" d="M18.836,342.915c2.234-0.332,4.262-1.494,5.678-3.254c2.826-3.771,2.114-9.111-1.601-12.01
				l-1.404-0.847c-0.515-0.259-1.061-0.447-1.626-0.561c-0.512-0.18-1.049-0.281-1.591-0.301c-0.571-0.021-1.143-0.002-1.712,0.056
				c-2.235,0.33-4.263,1.492-5.678,3.254c-2.744,3.793-2.041,9.069,1.601,12.01c0.91,0.656,1.937,1.133,3.025,1.404
				C16.604,342.965,17.727,343.05,18.836,342.915z"/>
			<path style="fill:#428DFF;" d="M400.55,0h-289.1c-9.706,0.012-17.571,7.877-17.583,17.583v101.883h-25.6
				c-23.553,0.028-42.639,19.114-42.667,42.667v76.801c-7.378,0.002-14.397,3.187-19.257,8.739
				c-4.86,5.552-7.088,12.93-6.114,20.244H0.227l4.511,33.834c0.623,4.672,4.915,7.954,9.586,7.331
				c4.672-0.623,7.954-4.915,7.331-9.586l-4.51-33.827l0.001-0.009c-0.326-2.438,0.416-4.899,2.037-6.749
				c1.621-1.851,3.962-2.911,6.422-2.909h460.791c2.461-0.002,4.804,1.06,6.424,2.912c1.621,1.852,2.362,4.315,2.034,6.754
				l-29.579,221.858c-0.575,4.235-4.185,7.397-8.458,7.409H55.183c-4.272-0.013-7.881-3.173-8.457-7.406h0.001L30.678,367.163
				c-0.623-4.672-4.915-7.954-9.586-7.331c-4.672,0.623-7.954,4.915-7.331,9.586l16.048,120.36l-0.001,0.014
				c1.735,12.696,12.561,22.171,25.375,22.208h401.633c12.817-0.038,23.644-9.518,25.375-22.217l29.579-221.858
				c0.976-7.315-1.251-14.695-6.111-20.249c-4.86-5.554-11.88-8.74-19.26-8.742V204.8c-0.02-18.843-15.29-34.113-34.133-34.133
				h-34.133V17.583C418.121,7.877,410.256,0.012,400.55,0z M42.666,162.133c0.015-14.132,11.468-25.585,25.6-25.6h25.6v102.4h-51.2
				V162.133z M110.954,238.933l0.496-221.867l289.617,0.517v221.35H110.954z M452.266,187.733
				c9.421,0.011,17.056,7.645,17.067,17.067v34.133h-51.2v-51.2H452.266z"/>
			<path style="fill:#428DFF;" d="M332.8,119.467h-34.133v-18.941l21.208-5.301c7.601-1.889,12.935-8.718,12.925-16.55V42.667
				c0-4.713-3.82-8.533-8.533-8.533s-8.533,3.821-8.533,8.533v36.008l-17.527,4.381c-0.974-3.666-4.28-6.228-8.073-6.256v-8.533
				c0-18.851-15.282-34.133-34.133-34.133s-34.133,15.282-34.133,34.133V76.8c-3.793,0.028-7.099,2.59-8.073,6.256l-17.527-4.381
				V42.667c0-4.713-3.821-8.533-8.533-8.533c-4.713,0-8.533,3.821-8.533,8.533v36.008c-0.01,7.832,5.324,14.661,12.925,16.55
				l21.208,5.301v18.941H179.2c-4.713,0-8.533,3.821-8.533,8.533c0,4.713,3.821,8.533,8.533,8.533h34.133V153.6
				c0,0.79,0.191,1.528,0.233,2.308l-14.158,4.717c-6.976,2.315-11.682,8.842-11.675,16.192v36.517c0,4.713,3.821,8.533,8.533,8.533
				s8.533-3.821,8.533-8.533v-36.517l13.116-4.373c7.091,14.574,21.877,23.823,38.084,23.823s30.993-9.249,38.084-23.823
				l13.116,4.373v36.517c0,4.713,3.821,8.533,8.533,8.533c4.713,0,8.533-3.821,8.533-8.533v-36.517
				c0.009-7.346-4.694-13.87-11.667-16.183l-14.167-4.724c0.043-0.78,0.233-1.518,0.233-2.309v-17.067H332.8
				c4.713,0,8.533-3.821,8.533-8.533C341.333,123.287,337.512,119.467,332.8,119.467z M238.933,68.267
				c0-9.426,7.641-17.067,17.067-17.067s17.067,7.641,17.067,17.067V76.8h-34.133V68.267z M281.6,153.6
				c0,14.138-11.461,25.6-25.6,25.6c-14.138,0-25.6-11.462-25.6-25.6V93.867h51.2V153.6z"/>
			<path style="fill:#428DFF;" d="M280.633,352.341c0.492,0.089,0.991,0.134,1.492,0.133c4.138-0.004,7.676-2.975,8.396-7.05
				c2.487-13.907,15.743-23.191,29.662-20.775c3.001,0.528,6.056-0.584,8.014-2.919s2.522-5.537,1.479-8.4
				c-1.043-2.863-3.534-4.953-6.535-5.481c-23.205-4.085-45.33,11.406-49.429,34.608c-0.393,2.228,0.115,4.522,1.413,6.375
				C276.423,350.687,278.404,351.949,280.633,352.341z"/>
			<path style="fill:#428DFF;" d="M122.795,464.942c3.393,5.938,9.017,10.275,15.623,12.048c6.606,1.773,13.646,0.835,19.556-2.607
				l107.847-66.265c28.571,24.584,70.706,24.985,99.739,0.949c29.034-24.036,36.505-65.505,17.686-98.163
				s-58.444-46.988-93.798-33.921c-35.355,13.067-56.136,49.722-49.193,86.769l-107.881,66.256
				C120.156,437.066,115.886,452.638,122.795,464.942z M315.733,290.133c32.99,0,59.733,26.743,59.733,59.733
				S348.723,409.6,315.733,409.6S256,382.857,256,349.867C256.038,316.893,282.759,290.172,315.733,290.133z M141.079,444.692
				l104.329-64.068c2.307,5.216,5.189,10.159,8.592,14.736l-104.771,64.374c-4.106,2.092-9.13,0.704-11.579-3.2
				c-1.12-2.024-1.388-4.411-0.745-6.633C137.548,447.678,139.05,445.804,141.079,444.692z"/>
		</g>
	</g>
</g>
<g>
</g>
<g>
</g>
<g>
</g>
<g>
</g>
<g>
</g>
<g>
</g>
<g>
</g>
<g>
</g>
<g>
</g>
<g>
</g>
<g>
</g>
<g>
</g>
<g>
</g>
<g>
</g>
<g>
</g>
</svg>
