<?xml version="1.0" encoding="iso-8859-1"?>
<!-- Generator: Adobe Illustrator 19.0.0, SVG Export Plug-In . SVG Version: 6.00 Build 0)  -->
<svg version="1.1" id="Capa_1" xmlns="http://www.w3.org/2000/svg" xmlns:xlink="http://www.w3.org/1999/xlink" x="0px" y="0px"
	 viewBox="0 0 512.015 512.015" style="enable-background:new 0 0 512.015 512.015;" xml:space="preserve">
<g>
	<g transform="translate(1 1)">
		<path style="fill:#A4C2F7;" d="M24.6,7.541h375.467c9.426,0,17.067,7.641,17.067,17.067v460.8c0,9.426-7.641,17.067-17.067,17.067
			H24.6c-9.426,0-17.067-7.641-17.067-17.067v-460.8C7.533,15.182,15.174,7.541,24.6,7.541z"/>
		<path style="fill:#D4E1F4;" d="M24.6,7.541h349.867c9.426,0,17.067,7.641,17.067,17.067v460.8c0,9.426-7.641,17.067-17.067,17.067
			H24.6c-9.426,0-17.067-7.641-17.067-17.067v-460.8C7.533,15.182,15.174,7.541,24.6,7.541z"/>
		<path style="fill:#A4C2F7;" d="M50.2,109.941h324.267c4.713,0,8.533,3.821,8.533,8.533v68.267c0,4.713-3.821,8.533-8.533,8.533
			H50.2c-4.713,0-8.533-3.82-8.533-8.533v-68.267C41.667,113.761,45.487,109.941,50.2,109.941z"/>
		<g>
			<path style="fill:#E3E7F2;" d="M50.2,109.941h298.667c4.713,0,8.533,3.821,8.533,8.533v68.267c0,4.713-3.821,8.533-8.533,8.533
				H50.2c-4.713,0-8.533-3.82-8.533-8.533v-68.267C41.667,113.761,45.487,109.941,50.2,109.941z"/>
			<path style="fill:#E3E7F2;" d="M263.533,417.141H50.2c-4.707,0.014-8.52,3.826-8.533,8.533v34.133
				c0.014,4.707,3.826,8.52,8.533,8.533h238.933L263.533,417.141z"/>
			<path style="fill:#E3E7F2;" d="M365.933,229.407H229.4c-4.713,0-8.533,3.82-8.533,8.533v51.2c0,4.713,3.82,8.533,8.533,8.533
				h68.267L365.933,229.407z"/>
			<path style="fill:#E3E7F2;" d="M50.2,229.407h128c4.713,0,8.533,3.82,8.533,8.533v136.533c0,4.713-3.82,8.533-8.533,8.533h-128
				c-4.713,0-8.533-3.82-8.533-8.533V237.941C41.667,233.228,45.487,229.407,50.2,229.407z"/>
		</g>
		<path style="fill:#A4C2F7;" d="M417.133,24.607v51.2H7.533v-51.2C7.561,15.193,15.186,7.568,24.6,7.541h375.467
			C409.481,7.568,417.106,15.193,417.133,24.607z"/>
		<path style="fill:#E3E7F2;" d="M391.533,24.607v51.2h-384v-51.2C7.561,15.193,15.186,7.568,24.6,7.541h349.867
			C383.881,7.568,391.506,15.193,391.533,24.607z"/>
		<path style="fill:#7FABFA;" d="M502.467,365.941c0.01,36.214-14.372,70.948-39.979,96.555
			c-25.607,25.607-60.341,39.989-96.555,39.979c-4.274,0.018-8.546-0.182-12.8-0.597c-70.137-6.606-123.734-65.488-123.734-135.936
			s53.597-129.33,123.734-135.936c4.254-0.416,8.526-0.615,12.8-0.597c36.214-0.01,70.948,14.371,96.555,39.979
			S502.477,329.727,502.467,365.941z"/>
		<ellipse style="fill:#A4C2F7;" cx="353.133" cy="365.941" rx="123.733" ry="135.936"/>
		<g>
			<path style="fill:#FFFFFF;" d="M458.776,379.679c1.365-9.108,1.365-18.369,0-27.477l-18.773-6.229
				c-1.685-6.392-4.21-12.533-7.509-18.261l8.789-17.749c-5.453-7.388-11.983-13.917-19.371-19.371l-17.749,8.789
				c-5.728-3.299-11.869-5.824-18.261-7.509l-6.229-18.773c-9.108-1.365-18.369-1.365-27.477,0l-6.229,18.773
				c-6.392,1.685-12.533,4.21-18.261,7.509l-17.749-8.789c-7.388,5.453-13.917,11.983-19.371,19.371l8.789,17.749
				c-3.299,5.729-5.824,11.869-7.509,18.261l-18.773,6.229c-1.365,9.108-1.365,18.369,0,27.477l18.773,6.229
				c1.685,6.392,4.21,12.533,7.509,18.261l-8.789,17.749c5.454,7.388,11.983,13.917,19.371,19.371l17.749-8.789
				c5.728,3.299,11.869,5.824,18.261,7.509l6.229,18.773c9.108,1.365,18.369,1.365,27.477,0l6.229-18.773
				c6.392-1.685,12.533-4.21,18.262-7.509l17.749,8.789c7.388-5.453,13.917-11.983,19.371-19.371l-8.789-17.749
				c3.299-5.729,5.824-11.869,7.509-18.261L458.776,379.679z M365.933,408.607c-23.564,0-42.667-19.103-42.667-42.667
				c0-23.564,19.103-42.667,42.667-42.667c23.564,0,42.667,19.103,42.667,42.667C408.591,389.501,389.494,408.599,365.933,408.607z"
				/>
			<path style="fill:#FFFFFF;" d="M24.6,502.474h25.6c-9.414-0.028-17.039-7.652-17.067-17.067v-460.8
				C33.161,15.193,40.786,7.568,50.2,7.541H24.6C15.186,7.568,7.561,15.193,7.533,24.607v460.8
				C7.561,494.821,15.186,502.446,24.6,502.474z"/>
		</g>
	</g>
	<g>
		<polygon style="fill:#FFFFFF;" points="17.067,68.274 17.067,179.207 17.067,486.407 0,486.407 0,179.207 0,68.274 		"/>
		<g>
			<path style="fill:#428DFF;" d="M8.533,145.074c2.259-0.034,4.422-0.918,6.059-2.475c3.3-3.365,3.3-8.752,0-12.117l-1.279-1.025
				c-0.476-0.324-0.993-0.583-1.538-0.771c-0.484-0.246-1.003-0.417-1.538-0.509c-0.563-0.096-1.133-0.153-1.704-0.171
				c-2.259,0.031-4.423,0.915-6.059,2.475c-3.222,3.397-3.222,8.721,0,12.117c0.815,0.771,1.77,1.379,2.813,1.792
				C6.314,144.829,7.417,145.061,8.533,145.074z"/>
			<path style="fill:#428DFF;" d="M68.267,34.141H51.2c-4.713,0-8.533,3.821-8.533,8.533s3.821,8.533,8.533,8.533h17.067
				c4.713,0,8.533-3.821,8.533-8.533S72.98,34.141,68.267,34.141z"/>
			<path style="fill:#428DFF;" d="M375.467,34.141H358.4c-4.713,0-8.533,3.821-8.533,8.533s3.82,8.533,8.533,8.533h17.067
				c4.713,0,8.533-3.821,8.533-8.533S380.18,34.141,375.467,34.141z"/>
			<path style="fill:#428DFF;" d="M290.133,34.141h-153.6c-4.713,0-8.533,3.821-8.533,8.533s3.821,8.533,8.533,8.533h153.6
				c4.713,0,8.533-3.821,8.533-8.533S294.846,34.141,290.133,34.141z"/>
			<path style="fill:#428DFF;" d="M426.667,234.894V25.607c-0.015-14.132-11.468-25.585-25.6-25.6H25.6
				C11.468,0.023,0.015,11.475,0,25.607v76.8c0,4.713,3.821,8.533,8.533,8.533s8.533-3.821,8.533-8.533V85.341H409.6v142.957
				c-13.821-4.264-28.203-6.429-42.667-6.423H230.4c-9.421,0.011-17.056,7.645-17.067,17.067v51.2
				c0.011,9.421,7.645,17.056,17.067,17.067h4.486c-14.689,32.168-17.037,68.614-6.596,102.4H51.2
				c-9.421,0.011-17.056,7.645-17.067,17.067v34.133c0.011,9.421,7.645,17.056,17.067,17.067h222.447
				c7.77,6.552,16.204,12.272,25.165,17.067H25.6c-4.711-0.005-8.529-3.822-8.533-8.533V170.674c0-4.713-3.821-8.533-8.533-8.533
				S0,165.961,0,170.674v315.733c0.015,14.132,11.468,25.585,25.6,25.6h341.333c68.33,0.043,127.414-47.631,141.812-114.426
				C523.143,330.785,488.946,263.004,426.667,234.894z M17.067,68.274V25.607c0.005-4.711,3.822-8.529,8.533-8.533h375.467
				c4.711,0.005,8.529,3.822,8.533,8.533v42.667H17.067z M230.4,290.141v-51.2h68.412c-22.386,12.014-41.248,29.662-54.722,51.2
				H230.4z M51.2,426.674h183.686c5.588,12.33,12.872,23.819,21.641,34.133H51.2V426.674z M366.933,494.941
				c-70.692,0-128-57.308-128-128s57.308-128,128-128s128,57.308,128,128C494.855,437.6,437.593,494.862,366.933,494.941z"/>
			<path style="fill:#428DFF;" d="M51.2,204.807h324.267c9.421-0.011,17.056-7.645,17.067-17.067v-68.267
				c-0.011-9.421-7.645-17.056-17.067-17.067H51.2c-9.421,0.011-17.056,7.645-17.067,17.067v68.267
				C34.144,197.162,41.779,204.796,51.2,204.807z M51.2,119.474h324.267l0.012,68.267H51.2V119.474z"/>
			<path style="fill:#428DFF;" d="M34.133,375.474c0.011,9.421,7.645,17.056,17.067,17.067h128
				c9.421-0.011,17.056-7.645,17.067-17.067V238.941c-0.011-9.421-7.645-17.056-17.067-17.067h-128
				c-9.421,0.011-17.056,7.645-17.067,17.067V375.474z M51.2,238.941h128l0.012,136.533H51.2V238.941z"/>
			<path style="fill:#428DFF;" d="M366.933,315.741c-28.277,0-51.2,22.923-51.2,51.2c0,28.277,22.923,51.2,51.2,51.2
				s51.2-22.923,51.2-51.2C418.102,338.676,395.198,315.771,366.933,315.741z M366.933,401.074
				c-18.851,0-34.133-15.282-34.133-34.133c0-18.851,15.282-34.133,34.133-34.133c18.851,0,34.133,15.282,34.133,34.133
				C401.047,385.784,385.776,401.054,366.933,401.074z"/>
			<path style="fill:#428DFF;" d="M443.079,328.549l6.871-13.733c1.437-2.876,1.138-6.316-0.775-8.9
				c-5.998-8.073-13.15-15.222-21.225-21.217c-2.584-1.905-6.017-2.204-8.892-0.775l-13.729,6.867
				c-3.772-1.897-7.68-3.509-11.692-4.825l-4.862-14.583c-1.019-3.043-3.656-5.26-6.829-5.742c-9.956-1.45-20.069-1.45-30.025,0
				c-3.173,0.481-5.81,2.698-6.829,5.742l-4.862,14.583c-4.012,1.316-7.92,2.928-11.692,4.825l-13.729-6.867
				c-2.873-1.437-6.31-1.137-8.892,0.775c-8.073,5.998-15.224,13.146-21.225,21.217c-1.913,2.584-2.212,6.024-0.775,8.9
				l6.871,13.733c-1.901,3.771-3.516,7.679-4.833,11.692l-14.579,4.867c-3.045,1.014-5.262,3.651-5.738,6.825
				c-1.472,9.951-1.472,20.065,0,30.017c0.475,3.174,2.693,5.811,5.738,6.825l14.579,4.867c1.317,4.012,2.933,7.921,4.833,11.692
				l-6.871,13.733c-1.437,2.876-1.138,6.316,0.775,8.9c5.998,8.073,13.15,15.222,21.225,21.217c2.583,1.908,6.018,2.208,8.892,0.775
				l13.729-6.867c3.772,1.897,7.68,3.509,11.692,4.825l4.862,14.583c1.019,3.043,3.656,5.26,6.829,5.742
				c9.955,1.467,20.07,1.467,30.025,0c3.173-0.481,5.81-2.698,6.829-5.742l4.862-14.583c4.012-1.316,7.92-2.928,11.692-4.825
				l13.729,6.867c2.876,1.424,6.306,1.125,8.892-0.775c8.073-5.998,15.224-13.146,21.225-21.217c1.913-2.584,2.212-6.024,0.775-8.9
				l-6.871-13.734c1.901-3.771,3.516-7.679,4.833-11.692l14.583-4.867c3.047-1.017,5.265-3.657,5.742-6.833
				c1.461-9.947,1.461-20.053,0-30c-0.477-3.176-2.695-5.816-5.742-6.833l-14.583-4.867
				C446.596,336.228,444.98,332.32,443.079,328.549z M452.267,366.941c0,2.509-0.1,4.95-0.308,7.358l-13.65,4.558
				c-2.714,0.902-4.794,3.105-5.538,5.867c-1.522,5.669-3.773,11.118-6.696,16.208c-1.432,2.48-1.522,5.514-0.242,8.075
				l6.425,12.842c-1.575,1.875-3.237,3.692-4.979,5.425c-1.783,1.783-3.579,3.433-5.433,4.992L409,425.841
				c-2.562-1.283-5.598-1.192-8.079,0.242c-5.087,2.923-10.533,5.172-16.2,6.692c-2.763,0.746-4.969,2.827-5.875,5.542l-4.55,13.65
				c-4.899,0.417-9.825,0.417-14.725,0l-4.55-13.65c-0.906-2.715-3.112-4.795-5.875-5.542c-5.667-1.52-11.113-3.769-16.2-6.692
				c-2.48-1.438-5.518-1.529-8.079-0.242l-12.846,6.425c-1.85-1.558-3.65-3.209-5.429-4.983c-1.742-1.742-3.403-3.553-4.983-5.433
				l6.425-12.842c1.281-2.561,1.19-5.595-0.242-8.075c-2.923-5.091-5.174-10.539-6.696-16.208c-0.744-2.761-2.824-4.965-5.538-5.867
				l-13.65-4.558c-0.208-2.408-0.308-4.841-0.308-7.358s0.1-4.95,0.308-7.358l13.65-4.558c2.714-0.902,4.794-3.105,5.538-5.867
				c1.522-5.669,3.773-11.118,6.696-16.208c1.432-2.48,1.522-5.514,0.242-8.075l-6.425-12.842c1.575-1.875,3.237-3.692,4.979-5.425
				c1.783-1.783,3.579-3.433,5.433-4.992l12.846,6.425c2.564,1.274,5.596,1.184,8.079-0.242c5.087-2.923,10.533-5.172,16.2-6.692
				c2.763-0.746,4.969-2.827,5.875-5.542l4.55-13.65c4.899-0.417,9.825-0.417,14.725,0l4.55,13.65
				c0.906,2.715,3.112,4.795,5.875,5.542c5.667,1.52,11.113,3.769,16.2,6.692c2.485,1.422,5.514,1.512,8.079,0.242l12.846-6.425
				c1.85,1.558,3.65,3.209,5.429,4.984c1.742,1.742,3.403,3.553,4.983,5.433l-6.425,12.842c-1.281,2.561-1.19,5.595,0.242,8.075
				c2.923,5.091,5.174,10.539,6.696,16.208c0.744,2.761,2.824,4.965,5.538,5.867l13.65,4.558
				C452.167,361.991,452.267,364.432,452.267,366.941z"/>
		</g>
	</g>
</g>
<g>
</g>
<g>
</g>
<g>
</g>
<g>
</g>
<g>
</g>
<g>
</g>
<g>
</g>
<g>
</g>
<g>
</g>
<g>
</g>
<g>
</g>
<g>
</g>
<g>
</g>
<g>
</g>
<g>
</g>
</svg>
