<?xml version="1.0" encoding="iso-8859-1"?>
<!-- Generator: Adobe Illustrator 19.0.0, SVG Export Plug-In . SVG Version: 6.00 Build 0)  -->
<svg version="1.1" id="Capa_1" xmlns="http://www.w3.org/2000/svg" xmlns:xlink="http://www.w3.org/1999/xlink" x="0px" y="0px"
	 viewBox="0 0 512 512" style="enable-background:new 0 0 512 512;" xml:space="preserve">
<g>
	<g transform="translate(1 1)">
		<path style="fill:#E3E7F2;" d="M101.4,127H67.267c-9.053-0.002-17.737,3.593-24.139,9.995s-9.997,15.085-9.995,24.139v102.4
			h443.733l0-59.733c0.009-6.792-2.685-13.309-7.488-18.112c-4.803-4.803-11.32-7.497-18.112-7.488H408.6l-307.2-1.422V127z"/>
		<g>
			<path style="fill:#A4C2F7;" d="M476.867,203.8l0,59.733h-25.6V203.8c0.009-6.792-2.685-13.309-7.488-18.112
				c-4.803-4.803-11.32-7.497-18.112-7.488l25.6,0c6.792-0.009,13.309,2.685,18.112,7.488
				C474.182,190.491,476.876,197.008,476.867,203.8z"/>
			<path style="fill:#A4C2F7;" d="M502.296,265.752l-29.525,221.867c-1.137,8.507-8.399,14.856-16.981,14.848H54.211
				c-8.582,0.008-15.844-6.341-16.981-14.848L7.704,265.752c-0.642-4.868,0.845-9.776,4.08-13.469
				c3.236-3.693,7.906-5.813,12.816-5.816h460.8c4.91,0.004,9.58,2.123,12.816,5.816
				C501.451,255.976,502.938,260.884,502.296,265.752z"/>
		</g>
		<path style="fill:#E3E7F2;" d="M476.696,265.752l-29.525,221.867c-1.137,8.507-8.399,14.856-16.981,14.848H54.211
			c-8.582,0.008-15.844-6.341-16.981-14.848L7.704,265.752c-0.642-4.868,0.845-9.776,4.08-13.469
			c3.236-3.693,7.906-5.813,12.816-5.816h435.2c4.91,0.004,9.58,2.123,12.816,5.816
			C475.851,255.976,477.338,260.884,476.696,265.752z"/>
		<path style="fill:#A4C2F7;" d="M408.6,16.579l0,229.888H101.4l0-229.888c-0.013-2.403,0.935-4.712,2.635-6.411
			c1.699-1.699,4.008-2.648,6.411-2.634h289.108c2.403-0.013,4.712,0.935,6.411,2.634S408.613,14.176,408.6,16.579z"/>
		<path style="fill:#D4E1F4;" d="M383,16.579l0,229.888H101.4l0-229.888c-0.013-2.403,0.935-4.712,2.635-6.411
			c1.699-1.699,4.008-2.648,6.411-2.634h263.508c2.403-0.013,4.712,0.935,6.411,2.634C382.065,11.867,383.013,14.176,383,16.579z"/>
		<path style="fill:#E3E7F2;" d="M347.557,190.819L262.094,54.352c-1.524-2.452-4.207-3.943-7.094-3.943
			c-2.887,0-5.57,1.491-7.094,3.943l-85.463,136.468c-1.639,2.598-1.742,5.88-0.269,8.576c1.473,2.696,4.291,4.381,7.363,4.405
			h170.925c3.072-0.023,5.89-1.709,7.363-4.405C349.299,196.7,349.196,193.417,347.557,190.819z"/>
		<g>
			<path style="fill:#FFFFFF;" d="M253.976,388.205c1.365-9.108,1.365-18.369,0-27.477l-18.774-6.229
				c-1.685-6.392-4.21-12.533-7.508-18.261l8.789-17.749c-5.454-7.388-11.983-13.917-19.371-19.371l-17.75,8.789
				c-5.728-3.299-11.868-5.824-18.26-7.509l-6.23-18.773c-9.108-1.365-18.369-1.365-27.477,0l-6.23,18.773
				c-6.392,1.685-12.532,4.21-18.261,7.509l-17.75-8.789c-7.388,5.454-13.917,11.983-19.371,19.371l8.789,17.749
				c-3.299,5.729-5.823,11.869-7.508,18.261l-18.774,6.229c-1.365,9.108-1.365,18.369,0,27.477l18.774,6.229
				c1.685,6.392,4.21,12.533,7.509,18.261l-8.789,17.749c5.454,7.388,11.983,13.917,19.371,19.371l17.749-8.789
				c5.728,3.299,11.868,5.824,18.26,7.509l6.23,18.773c9.108,1.365,18.369,1.365,27.477,0l6.23-18.773
				c6.392-1.685,12.532-4.21,18.261-7.509l17.75,8.789c7.388-5.454,13.917-11.983,19.371-19.371l-8.789-17.749
				c3.299-5.729,5.823-11.869,7.508-18.261L253.976,388.205z M161.133,417.133c-23.564,0-42.667-19.103-42.667-42.667
				c0-23.564,19.103-42.667,42.667-42.667s42.667,19.103,42.667,42.667C203.791,398.027,184.694,417.125,161.133,417.133z"/>
			<path style="fill:#FFFFFF;" d="M441.88,368.664c1.138-7.466,1.138-15.062,0-22.528l-15.36-5.12
				c-1.387-5.225-3.453-10.245-6.144-14.933l7.253-14.421c-4.554-6.033-9.924-11.403-15.957-15.957l-14.422,7.253
				c-4.688-2.692-9.708-4.757-14.933-6.144l-5.119-15.36c-7.467-1.138-15.063-1.138-22.529,0l-5.119,15.36
				c-5.225,1.387-10.245,3.452-14.933,6.144l-14.422-7.253c-6.033,4.554-11.403,9.924-15.957,15.957l7.253,14.421
				c-2.691,4.688-4.757,9.709-6.144,14.933l-15.36,5.12c-1.138,7.466-1.138,15.062,0,22.528l15.36,5.12
				c1.387,5.225,3.453,10.245,6.144,14.933l-7.253,14.421c4.554,6.033,9.924,11.404,15.957,15.957l14.422-7.253
				c4.688,2.692,9.708,4.758,14.933,6.144l5.119,15.36c7.467,1.138,15.063,1.138,22.529,0l5.119-15.36
				c5.225-1.386,10.246-3.452,14.933-6.144l14.422,7.253c6.033-4.554,11.404-9.924,15.957-15.957l-7.253-14.421
				c2.691-4.688,4.757-9.709,6.144-14.933L441.88,368.664z M365.933,383c-14.138,0-25.6-11.462-25.6-25.6
				c0-14.138,11.462-25.6,25.6-25.6c14.138,0,25.6,11.462,25.6,25.6c0.009,6.792-2.685,13.309-7.488,18.112
				C379.242,380.315,372.726,383.009,365.933,383z"/>
		</g>
	</g>
	<path style="fill:#FFFFFF;" d="M38.229,488.619c1.137,8.507,8.399,14.856,16.981,14.848h25.6
		c-8.582,0.008-15.844-6.341-16.981-14.848L34.304,266.752c-0.642-4.868,0.845-9.776,4.08-13.469s7.906-5.813,12.816-5.816h8.533
		v-85.333c-0.002-9.053,3.593-17.737,9.995-24.139c6.402-6.402,15.085-9.997,24.139-9.995h-25.6
		c-9.053-0.002-17.737,3.593-24.139,9.995s-9.997,15.085-9.995,24.139v85.333H25.6c-4.91,0.004-9.58,2.123-12.816,5.816
		s-4.722,8.602-4.08,13.469L38.229,488.619z"/>
	<g>
		<polygon style="fill:#FFFFFF;" points="17.143,265.66 31.804,375.62 46.729,487.526 29.807,489.779 14.891,377.873 0.23,267.913 
					"/>
		<g>
			<path style="fill:#428DFF;" d="M18.836,342.915c2.234-0.333,4.261-1.494,5.678-3.254c2.826-3.772,2.114-9.111-1.602-12.01
				l-1.403-0.847c-0.515-0.259-1.061-0.447-1.626-0.561c-0.512-0.179-1.048-0.281-1.591-0.301c-0.571-0.021-1.144-0.002-1.713,0.056
				c-2.235,0.33-4.263,1.492-5.678,3.254c-2.744,3.793-2.04,9.07,1.602,12.01c0.91,0.656,1.936,1.133,3.024,1.404
				C16.604,342.965,17.728,343.05,18.836,342.915z"/>
			<path style="fill:#428DFF;" d="M452.267,170.667h-34.133V17.583C418.12,7.878,410.255,0.014,400.55,0h-289.1
				c-9.705,0.014-17.57,7.878-17.583,17.583v101.883h-25.6c-23.553,0.028-42.639,19.114-42.667,42.667v76.8
				c-7.378,0.004-14.396,3.189-19.256,8.741c-4.86,5.551-7.09,12.929-6.119,20.243l0.004,0.01l4.509,33.824
				c0.387,3.036,2.37,5.632,5.197,6.804s6.066,0.74,8.487-1.132c2.421-1.872,3.655-4.897,3.233-7.928l-4.51-33.834l-0.003,0.001
				c-0.325-2.438,0.418-4.898,2.038-6.749C20.8,257.062,23.14,256,25.6,256h460.8c2.461,0,4.802,1.063,6.422,2.915
				c1.62,1.852,2.363,4.313,2.036,6.752l-29.583,221.858c-0.576,4.234-4.185,7.395-8.458,7.409H55.183
				c-4.271-0.014-7.88-3.173-8.457-7.406h0.001L30.678,367.163c-0.385-3.038-2.368-5.636-5.196-6.809s-6.068-0.741-8.49,1.132
				s-3.655,4.9-3.231,7.932l16.047,120.363v0.011c1.734,12.696,12.561,22.172,25.375,22.208h401.633
				c12.817-0.036,23.645-9.517,25.375-22.217l29.583-221.867c0.971-7.314-1.259-14.691-6.119-20.243
				c-4.86-5.551-11.878-8.737-19.256-8.741V204.8C486.381,185.956,471.11,170.685,452.267,170.667z M42.667,162.133
				c0.015-14.132,11.468-25.585,25.6-25.6h25.6v102.4h-51.2V162.133z M110.95,238.933l0.5-221.867l289.616,0.517v221.35H110.95z
				 M418.133,238.933v-51.2h34.133c9.421,0.012,17.054,7.646,17.067,17.067v34.133H418.133z"/>
			<path style="fill:#428DFF;" d="M355.792,187.283L270.325,50.825c-3.083-4.943-8.497-7.948-14.323-7.95
				c-5.826-0.002-11.241,3-14.327,7.942l-85.467,136.475c-3.284,5.228-3.474,11.826-0.499,17.235
				c2.976,5.409,8.65,8.78,14.824,8.806h170.933c6.174-0.026,11.848-3.397,14.824-8.807c2.976-5.409,2.785-12.007-0.499-17.235
				V187.283z M170.675,196.35l85.183-136.467l85.417,136.383L170.675,196.35z M341.467,196.267h-0.017l7.108-4.45L341.467,196.267z"
				/>
			<path style="fill:#428DFF;" d="M247.467,102.4v34.133c0,4.713,3.82,8.533,8.533,8.533c4.713,0,8.533-3.821,8.533-8.533V102.4
				c0-4.713-3.821-8.533-8.533-8.533C251.287,93.867,247.467,97.687,247.467,102.4z"/>
			<path style="fill:#428DFF;" d="M162.133,426.667c20.708,0,39.378-12.474,47.303-31.607c7.925-19.132,3.544-41.154-11.099-55.797
				s-36.665-19.024-55.797-11.099c-19.132,7.925-31.607,26.594-31.607,47.303C110.964,403.731,133.869,426.636,162.133,426.667z
				 M162.133,341.333c18.851,0,34.133,15.282,34.133,34.133c0,18.851-15.282,34.133-34.133,34.133S128,394.318,128,375.467
				C128.019,356.623,143.29,341.352,162.133,341.333z"/>
			<path style="fill:#428DFF;" d="M66.575,353.633c-3.043,1.017-5.26,3.653-5.742,6.825c-1.467,9.952-1.467,20.065,0,30.017
				c0.482,3.172,2.699,5.808,5.742,6.825l14.583,4.867c1.314,4.012,2.927,7.92,4.825,11.692l-6.867,13.733
				c-1.433,2.874-1.134,6.309,0.775,8.892c5.998,8.076,13.149,15.227,21.225,21.225c2.586,1.901,6.016,2.2,8.892,0.775l13.733-6.867
				c3.771,1.898,7.679,3.511,11.692,4.825l4.867,14.583c1.017,3.043,3.653,5.26,6.825,5.742c9.952,1.467,20.065,1.467,30.017,0
				c3.172-0.482,5.808-2.699,6.825-5.742l4.867-14.583c4.012-1.314,7.92-2.927,11.692-4.825l13.733,6.867
				c2.873,1.437,6.31,1.138,8.892-0.775c8.076-5.998,15.227-13.149,21.225-21.225c1.909-2.583,2.208-6.018,0.775-8.892
				l-6.867-13.734c1.898-3.771,3.511-7.679,4.825-11.692l14.583-4.867c3.043-1.017,5.26-3.653,5.742-6.825
				c1.467-9.952,1.467-20.065,0-30.017c-0.482-3.172-2.699-5.808-5.742-6.825l-14.583-4.867c-1.314-4.012-2.927-7.92-4.825-11.692
				l6.867-13.733c1.433-2.874,1.134-6.309-0.775-8.892c-5.998-8.076-13.149-15.227-21.225-21.225
				c-2.583-1.908-6.018-2.207-8.892-0.775l-13.733,6.867c-3.771-1.898-7.679-3.511-11.692-4.825l-4.867-14.583
				c-1.017-3.043-3.653-5.26-6.825-5.742c-9.953-1.45-20.064-1.45-30.017,0c-3.172,0.482-5.808,2.699-6.825,5.742l-4.867,14.583
				c-4.012,1.314-7.92,2.927-11.692,4.825l-13.733-6.867c-2.875-1.428-6.307-1.129-8.892,0.775
				c-8.076,5.998-15.227,13.149-21.225,21.225c-1.909,2.583-2.208,6.018-0.775,8.892l6.867,13.733
				c-1.898,3.771-3.511,7.679-4.825,11.692L66.575,353.633z M90.758,363.55c2.714-0.903,4.795-3.106,5.542-5.867
				c1.519-5.67,3.768-11.118,6.692-16.208c1.434-2.48,1.525-5.514,0.242-8.075l-6.425-12.842c1.567-1.867,3.228-3.678,4.983-5.433
				c1.75-1.75,3.561-3.411,5.433-4.983l12.842,6.425c2.564,1.27,5.592,1.179,8.075-0.242c5.09-2.923,10.538-5.173,16.208-6.692
				c2.761-0.747,4.964-2.828,5.867-5.542l4.558-13.65c4.897-0.417,9.82-0.417,14.717,0l4.558,13.65
				c0.903,2.714,3.106,4.795,5.867,5.542c5.67,1.519,11.118,3.768,16.208,6.692c2.481,1.429,5.513,1.52,8.075,0.242l12.842-6.425
				c1.867,1.567,3.678,3.228,5.433,4.983c1.75,1.75,3.411,3.561,4.983,5.433l-6.425,12.842c-1.283,2.561-1.192,5.595,0.242,8.075
				c2.923,5.09,5.173,10.538,6.692,16.208c0.747,2.761,2.828,4.964,5.542,5.867l13.65,4.558c0.208,2.408,0.308,4.842,0.308,7.358
				c0,2.517-0.1,4.95-0.308,7.358l-13.65,4.558c-2.714,0.903-4.795,3.106-5.542,5.867c-1.519,5.67-3.768,11.118-6.692,16.208
				c-1.434,2.48-1.525,5.514-0.242,8.075l6.425,12.842c-1.567,1.867-3.228,3.678-4.983,5.433c-1.75,1.75-3.561,3.411-5.433,4.983
				l-12.842-6.425c-2.561-1.283-5.595-1.192-8.075,0.242c-5.09,2.923-10.538,5.173-16.208,6.692
				c-2.761,0.747-4.964,2.828-5.867,5.542l-4.558,13.65c-4.897,0.417-9.82,0.417-14.717,0l-4.558-13.65
				c-0.903-2.714-3.106-4.795-5.867-5.542c-5.67-1.519-11.118-3.768-16.208-6.692c-2.481-1.429-5.513-1.52-8.075-0.242
				l-12.842,6.425c-1.867-1.567-3.678-3.228-5.433-4.983c-1.75-1.75-3.411-3.561-4.983-5.433l6.425-12.842
				c1.283-2.561,1.192-5.595-0.242-8.075c-2.923-5.09-5.173-10.538-6.692-16.208c-0.747-2.761-2.828-4.964-5.542-5.867l-13.65-4.558
				c-0.208-2.408-0.308-4.842-0.308-7.358c0-2.517,0.1-4.95,0.308-7.358L90.758,363.55z"/>
			<path style="fill:#428DFF;" d="M366.933,392.533c18.851,0,34.133-15.282,34.133-34.133c0-18.851-15.282-34.133-34.133-34.133
				c-18.851,0-34.133,15.282-34.133,34.133C332.819,377.244,348.09,392.515,366.933,392.533z M366.933,341.333
				c9.426,0,17.067,7.641,17.067,17.067s-7.641,17.067-17.067,17.067s-17.067-7.641-17.067-17.067
				C349.879,348.979,357.513,341.346,366.933,341.333z"/>
			<path style="fill:#428DFF;" d="M288.258,339.067c-3.047,1.012-5.266,3.65-5.742,6.825c-1.222,8.294-1.222,16.723,0,25.017
				c0.476,3.175,2.695,5.813,5.742,6.825l11.192,3.733c0.972,2.851,2.124,5.637,3.45,8.342l-5.275,10.55
				c-1.433,2.874-1.134,6.309,0.775,8.892c2.496,3.359,5.234,6.531,8.192,9.492c2.957,2.962,6.129,5.7,9.492,8.192
				c2.584,1.905,6.017,2.205,8.892,0.775l10.55-5.275c2.705,1.326,5.491,2.478,8.342,3.45l3.733,11.192
				c1.012,3.047,3.65,5.266,6.825,5.742c8.294,1.222,16.723,1.222,25.017,0c3.175-0.476,5.813-2.695,6.825-5.742L390,425.884
				c2.851-0.972,5.637-2.124,8.342-3.45l10.55,5.275c2.873,1.438,6.311,1.138,8.892-0.775c6.729-4.996,12.687-10.954,17.683-17.684
				c1.909-2.583,2.208-6.018,0.775-8.892l-5.275-10.55c1.326-2.705,2.478-5.491,3.45-8.342l11.192-3.733
				c3.047-1.012,5.266-3.65,5.742-6.825c1.222-8.294,1.222-16.723,0-25.017c-0.476-3.175-2.695-5.813-5.742-6.825l-11.192-3.733
				c-0.972-2.851-2.124-5.637-3.45-8.342l5.275-10.55c1.433-2.874,1.134-6.309-0.775-8.892
				c-4.996-6.729-10.954-12.687-17.683-17.683c-2.581-1.912-6.018-2.212-8.892-0.775l-10.55,5.275
				c-2.705-1.326-5.491-2.478-8.342-3.45l-3.733-11.192c-1.012-3.047-3.65-5.266-6.825-5.742c-8.293-1.233-16.723-1.233-25.017,0
				c-3.175,0.476-5.813,2.695-6.825,5.742l-3.733,11.192c-2.851,0.972-5.637,2.124-8.342,3.45l-10.55-5.275
				c-2.876-1.425-6.306-1.126-8.892,0.775c-3.365,2.494-6.541,5.235-9.5,8.2c-2.955,2.958-5.69,6.128-8.183,9.483
				c-1.909,2.583-2.208,6.018-0.775,8.892l5.275,10.55c-1.326,2.705-2.478,5.491-3.45,8.342L288.258,339.067z M309.025,350.125
				c2.714-0.903,4.795-3.106,5.542-5.867c1.205-4.509,2.995-8.84,5.325-12.883c1.434-2.483,1.525-5.52,0.242-8.083l-4.8-9.591
				c1.058-1.217,2.167-2.417,3.325-3.575c1.167-1.167,2.35-2.275,3.567-3.325l9.6,4.8c2.566,1.274,5.598,1.183,8.083-0.242
				c4.043-2.33,8.375-4.12,12.883-5.325c2.761-0.747,4.964-2.828,5.867-5.542l3.4-10.192c3.246-0.217,6.504-0.217,9.75,0l3.4,10.192
				c0.903,2.714,3.106,4.795,5.867,5.542c4.509,1.205,8.84,2.995,12.883,5.325c2.484,1.429,5.519,1.52,8.083,0.242l9.6-4.8
				c1.217,1.05,2.4,2.158,3.567,3.325c1.167,1.167,2.275,2.35,3.325,3.567l-4.8,9.6c-1.283,2.564-1.192,5.601,0.242,8.083
				c2.33,4.043,4.12,8.375,5.325,12.883c0.747,2.761,2.828,4.964,5.542,5.867l10.192,3.4c0.108,1.6,0.167,3.217,0.167,4.875
				c0,1.658-0.058,3.275-0.167,4.875l-10.192,3.4c-2.714,0.903-4.795,3.106-5.542,5.867c-1.205,4.509-2.995,8.84-5.325,12.883
				c-1.434,2.483-1.525,5.52-0.242,8.083l4.8,9.6c-1.05,1.217-2.158,2.4-3.325,3.567c-1.167,1.167-2.35,2.275-3.567,3.325l-9.6-4.8
				c-2.564-1.283-5.601-1.192-8.083,0.242c-4.043,2.33-8.375,4.12-12.883,5.325c-2.761,0.747-4.964,2.828-5.867,5.542l-3.4,10.192
				c-3.246,0.217-6.504,0.217-9.75,0l-3.4-10.192c-0.903-2.714-3.106-4.795-5.867-5.542c-4.509-1.205-8.84-2.995-12.883-5.325
				c-2.485-1.425-5.518-1.516-8.083-0.242l-9.6,4.8c-1.208-1.05-2.392-2.15-3.558-3.317c-1.158-1.167-2.275-2.358-3.333-3.583
				l4.8-9.591c1.283-2.564,1.192-5.601-0.242-8.083c-2.33-4.043-4.12-8.375-5.325-12.883c-0.747-2.761-2.828-4.964-5.542-5.867
				l-10.192-3.4c-0.108-1.601-0.167-3.217-0.167-4.876c0-1.658,0.058-3.275,0.167-4.875L309.025,350.125z"/>
			<path style="fill:#428DFF;" d="M259.242,162.817c-3.181-1.299-6.829-0.596-9.3,1.792c-0.772,0.816-1.38,1.772-1.792,2.817
				c-0.911,2.065-0.911,4.418,0,6.483c0.434,1.034,1.04,1.986,1.792,2.817c3.365,3.3,8.752,3.3,12.117,0
				c0.752-0.831,1.358-1.783,1.792-2.817c0.437-1.026,0.669-2.127,0.683-3.242c-0.033-2.259-0.917-4.422-2.475-6.059
				C261.228,163.856,260.275,163.25,259.242,162.817z"/>
		</g>
	</g>
</g>
<g>
</g>
<g>
</g>
<g>
</g>
<g>
</g>
<g>
</g>
<g>
</g>
<g>
</g>
<g>
</g>
<g>
</g>
<g>
</g>
<g>
</g>
<g>
</g>
<g>
</g>
<g>
</g>
<g>
</g>
</svg>
