<?xml version="1.0" encoding="iso-8859-1"?>
<!-- Generator: Adobe Illustrator 19.0.0, SVG Export Plug-In . SVG Version: 6.00 Build 0)  -->
<svg version="1.1" id="Capa_1" xmlns="http://www.w3.org/2000/svg" xmlns:xlink="http://www.w3.org/1999/xlink" x="0px" y="0px"
	 viewBox="0 0 512.006 512.006" style="enable-background:new 0 0 512.006 512.006;" xml:space="preserve">
<g transform="translate(-1)">
	<g transform="translate(2 1)">
		<path style="fill:#A4C2F7;" d="M502.472,289.132v136.533c-0.004,42.414-34.386,76.796-76.8,76.8
			c-4.287,0.005-8.568-0.337-12.8-1.024c-36.955-6.276-63.995-38.292-64-75.776V289.132c0.009-23.561,19.106-42.658,42.667-42.667
			h34.133L502.472,289.132z"/>
		<path style="fill:#E3E7F2;" d="M476.872,289.132v136.533c-0.005,37.484-27.045,69.5-64,75.776
			c-36.955-6.276-63.995-38.292-64-75.776V289.132c0.009-23.561,19.106-42.658,42.667-42.667h8.533L476.872,289.132z"/>
		<path style="fill:#A4C2F7;" d="M502.472,289.132v34.133h-76.8v-76.8h34.133C483.366,246.474,502.463,265.571,502.472,289.132z"/>
		<g>
			<path style="fill:#E3E7F2;" d="M476.872,289.132v34.133h-51.2v-76.8h8.533C457.766,246.474,476.863,265.571,476.872,289.132z"/>
			<path style="fill:#E3E7F2;" d="M425.672,246.465v76.8h-76.8v-34.133c0.009-23.561,19.106-42.658,42.667-42.667H425.672z"/>
		</g>
		<path style="fill:#A4C2F7;" d="M212.339,108.569c0.518,29.667-11.875,58.097-33.963,77.909
			c-16.708,15.581-26.065,37.488-25.771,60.331H67.272c0.02-11.516-2.363-22.909-6.997-33.451
			c-4.622-10.532-11.36-20.001-19.797-27.818C11.224,158.535,0.276,117.02,12.41,79.102S57.557,13.735,97.053,8.729
			c5.711-0.772,11.48-1.029,17.237-0.768C168.233,10.743,210.947,54.573,212.339,108.569z"/>
		<path style="fill:#E3E7F2;" d="M186.739,108.569c0.518,29.667-11.875,58.097-33.963,77.909
			c-16.708,15.581-26.065,37.488-25.771,60.331H67.272c0.02-11.516-2.363-22.909-6.997-33.451
			c-4.622-10.532-11.36-20.001-19.797-27.818C11.224,158.535,0.276,117.02,12.41,79.102S57.557,13.735,97.053,8.729
			C147.421,15.448,185.439,57.772,186.739,108.569z"/>
		<g>
			<path style="fill:#A4C2F7;" d="M161.139,263.875c-0.068,9.397-7.669,16.999-17.067,17.067H75.379
				c-9.241-0.272-16.602-7.822-16.64-17.067c0.068-9.398,7.669-16.999,17.067-17.067h68.267
				C153.486,246.836,161.111,254.461,161.139,263.875z"/>
			<path style="fill:#A4C2F7;" d="M152.605,298.009c-0.068,9.397-7.669,16.999-17.067,17.067h-51.2
				c-9.414-0.028-17.039-7.653-17.067-17.067c0.068-9.397,7.669-16.999,17.067-17.067h51.2
				C144.953,280.969,152.578,288.594,152.605,298.009z"/>
		</g>
		<g>
			<path style="fill:#D4E1F4;" d="M135.539,263.875c-0.068,9.397-7.669,16.999-17.067,17.067H75.379
				c-9.241-0.272-16.602-7.822-16.64-17.067c0.068-9.398,7.669-16.999,17.067-17.067h42.667
				C127.886,246.836,135.511,254.461,135.539,263.875z"/>
			<path style="fill:#D4E1F4;" d="M127.005,298.009c-0.068,9.397-7.669,16.999-17.067,17.067h-25.6
				c-9.414-0.028-17.039-7.653-17.067-17.067c0.068-9.397,7.669-16.999,17.067-17.067h26.112
				C119.662,281.251,126.977,288.793,127.005,298.009z"/>
			<path style="fill:#D4E1F4;" d="M92.872,315.075h34.133v17.067c0,9.426-7.641,17.067-17.067,17.067s-17.067-7.641-17.067-17.067
				V315.075z"/>
		</g>
		<g>
			<path style="fill:#FFFFFF;" d="M118.472,315.075h-8.533c-9.414-0.028-17.039-7.652-17.067-17.067
				c0.068-9.397,7.669-16.998,17.067-17.067h-8.96c-9.241-0.272-16.602-7.822-16.64-17.067c0.068-9.397,7.669-16.998,17.067-17.067
				h-8.534c0.02-11.516-2.363-22.909-6.998-33.451c-4.621-10.532-11.36-20.002-19.797-27.819
				C36.824,158.534,25.876,117.02,38.01,79.101s45.147-65.366,84.644-70.373h0.002c-2.764-0.351-5.542-0.651-8.365-0.768
				c-5.757-0.261-11.526-0.004-17.237,0.768c-39.497,5.006-72.51,32.454-84.644,70.373s-1.186,79.433,28.068,106.438
				c8.437,7.817,15.176,17.286,19.797,27.819c4.634,10.542,7.018,21.935,6.998,33.451h8.533
				c-9.397,0.068-16.998,7.669-17.067,17.067c0.038,9.245,7.399,16.794,16.64,17.067h8.96c-9.397,0.068-16.998,7.669-17.067,17.067
				c0.028,9.414,7.653,17.039,17.067,17.067h8.533"/>
			<path style="fill:#FFFFFF;" d="M374.472,425.665V289.132c0.009-23.561,19.106-42.658,42.667-42.667h-25.6
				c-23.561,0.009-42.658,19.106-42.667,42.667v136.533c0.005,37.484,27.045,69.5,64,75.776c4.232,0.687,8.513,1.029,12.8,1.024
				c4.174-0.028,8.338-0.396,12.452-1.099C401.333,494.949,374.479,463.012,374.472,425.665z"/>
		</g>
	</g>
	<g>
		<path style="fill:#FFFFFF;" d="M359.405,307.199v119.005l0.343,7.227l1.068,7.092l1.835,6.926
			c9.144,28.21,35.367,47.36,65.021,47.484v17.067c-37.08-0.124-69.876-24.076-81.278-59.359c-0.87-2.859-1.539-5.781-2.294-8.674
			l-1.336-8.867l-0.425-8.896V307.199H359.405z"/>
		<g>
			<path style="fill:#428DFF;" d="M171.672,110.932c0,4.713,3.82,8.533,8.533,8.533s8.533-3.821,8.533-8.533
				c-0.046-42.396-34.404-76.754-76.8-76.8c-4.713,0-8.533,3.821-8.533,8.533s3.821,8.533,8.533,8.533
				C144.912,51.238,171.632,77.959,171.672,110.932z"/>
			<path style="fill:#428DFF;" d="M350.872,383.999c3.45-0.014,6.556-2.096,7.879-5.282c1.323-3.187,0.606-6.856-1.82-9.31
				l-1.279-1.025c-0.476-0.324-0.993-0.583-1.538-0.771c-0.484-0.246-1.002-0.417-1.537-0.508c-0.564-0.096-1.133-0.153-1.705-0.171
				c-2.259,0.031-4.423,0.915-6.059,2.475c-2.07,1.994-2.979,4.908-2.409,7.726c0.57,2.818,2.539,5.149,5.222,6.183
				C348.653,383.753,349.756,383.985,350.872,383.999z"/>
			<path style="fill:#428DFF;" d="M461.805,238.932h-25.6v-29.867c0-49.485-40.115-89.6-89.6-89.6s-89.6,40.115-89.6,89.6v217.6
				c0,37.703-30.564,68.267-68.267,68.267s-68.267-30.564-68.267-68.267v-69.839c10.199-3.592,17.033-13.214,17.067-24.028v-8.533
				c14.132-0.015,25.585-11.468,25.6-25.6c-0.028-4.411-1.208-8.738-3.425-12.551c6.777-4.224,11.172-11.391,11.863-19.347
				c0.691-7.956-2.401-15.773-8.348-21.103c0.132-19.802,8.409-38.678,22.885-52.19c23.885-21.504,37.286-52.299,36.742-84.433
				C221.188,50.618,174.992,3.24,116.63,0.099C70.137-1.855,27.364,25.407,9.504,68.377s-7.012,92.519,27.168,124.096
				c14.835,13.775,23.479,32.957,23.973,53.195c-5.945,5.33-9.036,13.147-8.344,21.102c0.692,7.955,5.086,15.12,11.863,19.344
				c-2.216,3.814-3.397,8.14-3.425,12.551c0.015,14.132,11.468,25.585,25.6,25.6v8.533c0.033,10.813,6.868,20.435,17.067,24.027
				v69.84c0,47.128,38.205,85.333,85.333,85.333s85.333-38.205,85.333-85.333v-217.6c0-40.059,32.474-72.533,72.533-72.533
				s72.533,32.474,72.533,72.533v29.867h-25.6c-28.264,0.031-51.169,22.936-51.2,51.2v51.2c0,4.713,3.82,8.533,8.533,8.533
				s8.533-3.821,8.533-8.533v-8.533h136.533v93.867c-0.1,33.579-24.596,62.104-57.774,67.277s-65.195-14.54-75.514-46.494
				l-1.835-6.926l-1.068-7.092l-0.343-7.227v-16.605c0-4.713-3.821-8.533-8.533-8.533s-8.533,3.821-8.533,8.533v16.605l0.425,8.896
				l1.336,8.867c0.755,2.893,1.423,5.816,2.294,8.674c12.799,40.058,52.875,64.818,94.426,58.341
				c41.551-6.478,72.188-42.262,72.186-84.315V290.132C512.974,261.868,490.069,238.963,461.805,238.932z M77.805,273.065
				c-4.713,0-8.533-3.82-8.533-8.533s3.82-8.533,8.533-8.533h68.267c4.713,0,8.533,3.821,8.533,8.533s-3.821,8.533-8.533,8.533
				H77.805z M77.405,238.932c-2.141-22.577-12.517-43.576-29.15-58.992c-19.214-17.808-30.15-42.81-30.184-69.008
				c-0.006-25.59,10.438-50.072,28.913-67.778s43.379-27.099,68.946-26.005c49.373,2.666,88.45,42.75,89.858,92.175
				c0.466,27.199-10.875,53.266-31.092,71.467c-16.416,15.121-26.507,35.891-28.25,58.142H77.405z M77.805,298.665
				c0.003-4.712,3.822-8.53,8.533-8.533h51.2c4.713,0,8.533,3.82,8.533,8.533s-3.821,8.533-8.533,8.533h-51.2
				C81.627,307.195,77.808,303.377,77.805,298.665z M120.472,324.265v8.533c0,4.713-3.821,8.533-8.533,8.533
				c-4.713,0-8.533-3.82-8.533-8.533v-8.533H120.472z M359.405,307.199v-17.067c0.019-18.844,15.29-34.115,34.133-34.133h25.6
				v59.733h-59.733V307.199z M436.205,315.732v-59.733h25.6c18.844,0.019,34.115,15.29,34.133,34.133v25.6H436.205z"/>
		</g>
	</g>
</g>
<g>
</g>
<g>
</g>
<g>
</g>
<g>
</g>
<g>
</g>
<g>
</g>
<g>
</g>
<g>
</g>
<g>
</g>
<g>
</g>
<g>
</g>
<g>
</g>
<g>
</g>
<g>
</g>
<g>
</g>
</svg>
