<?xml version="1.0" encoding="iso-8859-1"?>
<!-- Generator: Adobe Illustrator 19.0.0, SVG Export Plug-In . SVG Version: 6.00 Build 0)  -->
<svg version="1.1" id="Capa_1" xmlns="http://www.w3.org/2000/svg" xmlns:xlink="http://www.w3.org/1999/xlink" x="0px" y="0px"
	 viewBox="0 0 512 512" style="enable-background:new 0 0 512 512;" xml:space="preserve">
<g>
	<g transform="translate(1 1)">
		<path style="fill:#A4C2F7;" d="M33.133,7.533h256c14.138,0,25.6,11.462,25.6,25.6v443.733c0,14.138-11.462,25.6-25.6,25.6h-256
			c-14.138,0-25.6-11.462-25.6-25.6V33.133C7.533,18.995,18.995,7.533,33.133,7.533z"/>
		<path style="fill:#D4E1F4;" d="M33.133,7.533h230.4c14.138,0,25.6,11.462,25.6,25.6v443.733c0,14.138-11.462,25.6-25.6,25.6
			h-230.4c-14.138,0-25.6-11.462-25.6-25.6V33.133C7.533,18.995,18.995,7.533,33.133,7.533z"/>
		<path style="fill:#A4C2F7;" d="M280.6,50.2v409.6c-0.014,4.707-3.826,8.519-8.533,8.533H50.2
			c-4.707-0.014-8.519-3.826-8.533-8.533V50.2c0.014-4.707,3.826-8.519,8.533-8.533h34.133c4.707,0.014,8.519,3.826,8.533,8.533
			v17.067c0.014,4.707,3.826,8.519,8.533,8.533h119.467c4.707-0.014,8.519-3.826,8.533-8.533V50.2
			c0.014-4.707,3.826-8.519,8.533-8.533h34.133C276.774,41.681,280.586,45.493,280.6,50.2z"/>
		
			<linearGradient id="SVGID_1_" gradientUnits="userSpaceOnUse" x1="-50.0084" y1="651.5433" x2="-48.5319" y2="650.8051" gradientTransform="matrix(213.3333 0 0 -426.6667 10659.3066 278089.3438)">
			<stop  offset="0" style="stop-color:#D3DFF2"/>
			<stop  offset="0.1717" style="stop-color:#D3DFF2"/>
			<stop  offset="0.2" style="stop-color:#D3DFF2"/>
			<stop  offset="0.2002" style="stop-color:#DAE2F2"/>
			<stop  offset="0.2007" style="stop-color:#EBEAF2"/>
			<stop  offset="0.2014" style="stop-color:#F6EFF2"/>
			<stop  offset="0.2023" style="stop-color:#FDF2F2"/>
			<stop  offset="0.205" style="stop-color:#FFF3F2"/>
			<stop  offset="0.2522" style="stop-color:#FFF3F2"/>
			<stop  offset="0.26" style="stop-color:#FFF3F2"/>
			<stop  offset="0.26" style="stop-color:#D3DFF2"/>
			<stop  offset="0.3974" style="stop-color:#D3DFF2"/>
			<stop  offset="0.42" style="stop-color:#D3DFF2"/>
			<stop  offset="0.4202" style="stop-color:#DAE2F2"/>
			<stop  offset="0.4207" style="stop-color:#EBEAF2"/>
			<stop  offset="0.4214" style="stop-color:#F6EFF2"/>
			<stop  offset="0.4223" style="stop-color:#FDF2F2"/>
			<stop  offset="0.425" style="stop-color:#FFF3F2"/>
			<stop  offset="0.4894" style="stop-color:#FFF3F2"/>
			<stop  offset="0.5" style="stop-color:#FFF3F2"/>
			<stop  offset="0.5" style="stop-color:#F8F0F2"/>
			<stop  offset="0.5001" style="stop-color:#E7E8F2"/>
			<stop  offset="0.5003" style="stop-color:#DCE3F2"/>
			<stop  offset="0.5005" style="stop-color:#D5E0F2"/>
			<stop  offset="0.501" style="stop-color:#D3DFF2"/>
			<stop  offset="0.7062" style="stop-color:#D3DFF2"/>
			<stop  offset="0.74" style="stop-color:#D3DFF2"/>
			<stop  offset="0.741" style="stop-color:#FFF3F2"/>
			<stop  offset="0.8346" style="stop-color:#FFF3F2"/>
			<stop  offset="0.85" style="stop-color:#FFF3F2"/>
			<stop  offset="0.851" style="stop-color:#D3DFF2"/>
		</linearGradient>
		<path style="fill:url(#SVGID_1_);" d="M255,50.2v409.6c-0.014,4.707-3.826,8.519-8.533,8.533H50.2
			c-4.707-0.014-8.519-3.826-8.533-8.533V50.2c0.014-4.707,3.826-8.519,8.533-8.533h34.133c4.707,0.014,8.519,3.826,8.533,8.533
			v17.067c0.014,4.707,3.826,8.519,8.533,8.533h119.467c4.707-0.014,8.519-3.826,8.533-8.533V50.2
			c0.014-4.707,3.826-8.519,8.533-8.533h8.533C251.174,41.681,254.986,45.493,255,50.2z"/>
		<path style="fill:#E3E7F2;" d="M445.208,303.469c-4.64,18.156-11.883,35.545-21.504,51.627l23.808,55.467
			c-5.461,6.741-11.349,13.227-17.493,19.456c-6.229,6.144-12.715,12.032-19.456,17.493l-55.467-23.808
			c-12.729,7.577-26.268,13.702-40.363,18.261v-45.483C371.621,372.481,408.6,316.743,408.6,255s-36.98-117.481-93.867-141.483
			V68.035c14.094,4.559,27.633,10.685,40.363,18.261l55.467-23.808c6.741,5.461,13.227,11.349,19.456,17.493
			c6.144,6.229,12.032,12.715,17.493,19.456l-23.808,55.467c9.621,16.081,16.864,33.471,21.504,51.627l55.893,22.357
			c1.82,17.36,1.82,34.864,0,52.224L445.208,303.469z"/>
		<path style="fill:#D4E1F4;" d="M156.44,267.459l-22.101,26.112c-0.761-0.534-1.45-1.165-2.048-1.877l-39.424-45.227L75.8,237.933
			V203.8h34.133l8.533,21.333L156.44,267.459z"/>
		<path style="fill:#E3E7F2;" d="M220.44,359.789c-10.746,9.188-26.905,7.928-36.096-2.816l-30.635-33.365l33.451-39.595
			l36.096,39.68c4.42,5.157,6.608,11.861,6.079,18.632C228.807,349.097,225.607,355.38,220.44,359.789z"/>
		<path style="fill:#D4E1F4;" d="M246.467,229.4c0.002,9.053-3.593,17.737-9.995,24.139c-6.402,6.402-15.085,9.997-24.139,9.995
			c-2.41,0.007-4.814-0.251-7.168-0.768l-18.005,21.248l-33.451,39.595l-30.72,36.267c-6.095,7.149-16.821,8.032-24.004,1.976
			c-7.183-6.056-8.125-16.776-2.108-23.992l37.461-44.288l22.101-26.112l23.381-27.648c-1.057-3.37-1.603-6.879-1.621-10.411
			c-0.003-9.053,3.593-17.737,9.995-24.139s15.085-9.997,24.139-9.995c4.458-0.005,8.871,0.895,12.971,2.645l-19.797,26.368
			c-2.813,3.774-2.051,9.111,1.707,11.947c1.485,1.093,3.276,1.69,5.12,1.707c2.682-0.018,5.204-1.278,6.827-3.413l19.797-26.453
			C243.836,214.105,246.488,221.638,246.467,229.4z"/>
		<path style="fill:#A4C2F7;" d="M445.208,303.469c-4.64,18.156-11.883,35.545-21.504,51.627l23.808,55.467
			c-5.461,6.741-11.349,13.227-17.493,19.456c-6.229,6.144-12.715,12.032-19.456,17.493l-17.067-7.339
			c3.755-3.243,7.339-6.656,10.923-10.155c6.144-6.229,12.032-12.715,17.493-19.456l-23.808-55.467
			c9.621-16.081,16.864-33.47,21.504-51.627l55.893-22.357c1.82-17.36,1.82-34.864,0-52.224l-55.893-22.357
			c-4.64-18.156-11.883-35.545-21.504-51.627l23.808-55.467c-5.461-6.741-11.349-13.227-17.493-19.456
			c-3.584-3.499-7.168-6.912-10.923-10.155l17.067-7.339c6.741,5.461,13.227,11.349,19.456,17.493
			c6.144,6.229,12.032,12.715,17.493,19.456l-23.808,55.467c9.621,16.081,16.864,33.471,21.504,51.627l55.893,22.357
			c1.82,17.36,1.82,34.864,0,52.224L445.208,303.469z"/>
		<g>
			<path style="fill:#FFFFFF;" d="M419.113,440.194l-38.417-16.49c-3.67,2.182-7.434,4.213-11.247,6.161l41.114,17.647
				C413.468,445.158,416.303,442.692,419.113,440.194z"/>
			<path style="fill:#FFFFFF;" d="M33.133,502.467h25.6c-6.792,0.009-13.309-2.685-18.112-7.488s-7.497-11.32-7.488-18.112V33.133
				c-0.009-6.792,2.685-13.309,7.488-18.112s11.32-7.497,18.112-7.488l-25.6,0c-6.792-0.009-13.309,2.685-18.112,7.488
				s-7.497,11.32-7.488,18.112v443.733c-0.009,6.792,2.685,13.309,7.488,18.112S26.341,502.476,33.133,502.467z"/>
			<path style="fill:#FFFFFF;" d="M410.563,62.488L369.45,80.135c3.813,1.947,7.576,3.979,11.246,6.161l38.417-16.49
				C416.303,67.308,413.468,64.842,410.563,62.488z"/>
		</g>
	</g>
	<g>
		<polygon style="fill:#FFFFFF;" points="17.067,34.133 17.067,145.067 17.067,477.867 0,477.867 0,145.067 0,34.133 		"/>
		<g>
			<path style="fill:#428DFF;" d="M85.333,34.133H51.2C41.78,34.146,34.146,41.779,34.133,51.2v409.6
				c0.012,9.421,7.646,17.054,17.067,17.067h221.867c9.421-0.012,17.054-7.646,17.067-17.067V51.2
				c-0.012-9.421-7.646-17.054-17.067-17.067h-34.133c-9.421,0.012-17.054,7.646-17.067,17.067v17.067H102.4V51.2
				C102.388,41.779,94.754,34.146,85.333,34.133z M221.867,85.333c9.421-0.012,17.054-7.646,17.067-17.067V51.2h34.133v409.6H51.2
				V51.2h34.133v17.067c0.012,9.421,7.646,17.054,17.067,17.067H221.867z"/>
			<path style="fill:#428DFF;" d="M187.733,51.2c4.713,0,8.533-3.821,8.533-8.533s-3.82-8.533-8.533-8.533h-17.067
				c-4.713,0-8.533,3.821-8.533,8.533s3.821,8.533,8.533,8.533H187.733z"/>
			<path style="fill:#428DFF;" d="M68.267,204.8v34.133c0,3.232,1.826,6.187,4.717,7.633l15.558,7.779l35.35,40.547L91.358,333.35
				c-9.095,10.813-7.715,26.949,3.084,36.061s26.937,7.757,36.066-3.028l24.446-28.889l23.954,26.089
				c7.957,9.285,20.273,13.605,32.287,11.325s21.89-10.814,25.89-22.369c4-11.555,1.514-24.368-6.518-33.588L199.52,284.83
				l10.088-11.921c1.233,0.108,2.475,0.158,3.725,0.158c18.166,0.075,34.371-11.407,40.322-28.571
				c5.951-17.164,0.332-36.213-13.982-47.399c-0.227-0.294-0.475-0.571-0.741-0.83c-0.193-0.144-0.425-0.172-0.625-0.299
				c-7.238-5.329-15.986-8.214-24.975-8.235c-12.765-0.02-24.866,5.684-32.973,15.544c-8.107,9.86-11.365,22.836-8.877,35.356
				l-14.237,16.83l-30.416-33.9l-7.972-19.93c-1.296-3.241-4.435-5.366-7.925-5.367H76.8c-2.264-0.001-4.435,0.897-6.035,2.498
				C69.164,200.365,68.266,202.536,68.267,204.8z M217.783,330.25c2.947,3.438,4.403,7.908,4.048,12.422
				c-0.355,4.514-2.492,8.701-5.94,11.637c-7.335,5.952-18.068,5.02-24.267-2.108l-25.558-27.838l22.339-26.398L217.783,330.25z
				 M187.342,246.317c1.875-2.222,2.493-5.245,1.642-8.025c-0.811-2.553-1.233-5.213-1.25-7.892
				c0.015-14.132,11.468-25.585,25.6-25.6c2.578,0.036,5.134,0.466,7.582,1.276l-14.407,19.207
				c-1.838,2.438-2.234,5.672-1.036,8.481c1.197,2.809,3.804,4.763,6.836,5.125c3.032,0.362,6.026-0.924,7.85-3.373l14.469-19.29
				c5.242,7.85,5.734,17.949,1.279,26.271c-4.455,8.322-13.133,13.512-22.572,13.502c-1.79,0.004-3.576-0.186-5.325-0.567
				c-3.095-0.687-6.315,0.401-8.358,2.825l-82.15,97.083c-3.095,3.464-8.34,3.948-12.017,1.108
				c-3.609-3.05-4.096-8.435-1.092-12.083L187.342,246.317z M111.542,229.3c0.361,0.881,0.868,1.695,1.501,2.407l0.075,0.126
				l33.003,36.783l-11.078,13.095l-34.682-39.784l-0.013-0.015l-0.047-0.054c-0.377-0.35-0.786-0.664-1.222-0.936
				c-0.424-0.412-0.891-0.777-1.394-1.089l-0.074-0.037l-0.009-0.004l-12.268-6.134v-20.325h19.825L111.542,229.3z"/>
			<path style="fill:#428DFF;" d="M8.533,110.933c2.259-0.034,4.422-0.918,6.059-2.475c3.3-3.365,3.3-8.752,0-12.117l-1.279-1.025
				c-0.476-0.324-0.993-0.583-1.538-0.771c-0.484-0.246-1.003-0.417-1.538-0.509c-0.563-0.096-1.133-0.153-1.704-0.171
				c-2.259,0.031-4.423,0.915-6.059,2.475c-3.222,3.397-3.222,8.721,0,12.117c0.815,0.77,1.77,1.379,2.813,1.792
				C6.314,110.688,7.417,110.92,8.533,110.933z"/>
			<path style="fill:#428DFF;" d="M505.267,221.967L453.35,201.2c-4.462-16.022-10.883-31.433-19.117-45.884L456.35,103.8
				c1.251-2.914,0.782-6.28-1.217-8.742c-5.4-6.667-11.475-13.417-18.116-20.142c-6.658-6.575-13.408-12.65-20.075-18.05
				c-2.46-2.002-5.829-2.471-8.742-1.217l-51.525,22.117c-10.358-5.846-21.201-10.788-32.409-14.772V34.133
				C324.248,15.29,308.977,0.019,290.133,0h-256C15.29,0.019,0.019,15.29,0,34.133v34.133C0,72.98,3.821,76.8,8.533,76.8
				s8.533-3.82,8.533-8.533V34.133c0.012-9.421,7.646-17.054,17.067-17.067h256c9.421,0.012,17.054,7.646,17.067,17.067v443.733
				c-0.012,9.421-7.646,17.054-17.067,17.067h-256c-9.421-0.012-17.054-7.646-17.067-17.067V136.533
				c0-4.713-3.821-8.533-8.533-8.533S0,131.821,0,136.533v341.333C0.019,496.71,15.29,511.981,34.133,512h256
				c18.844-0.019,34.115-15.29,34.133-34.133v-28.861c11.207-3.984,22.05-8.926,32.408-14.772L408.2,456.35
				c2.914,1.251,6.28,0.782,8.742-1.217c6.667-5.4,13.417-11.475,20.142-18.116c6.575-6.658,12.65-13.408,18.05-20.075
				c1.999-2.461,2.467-5.828,1.217-8.742l-22.117-51.517c8.234-14.451,14.655-29.862,19.117-45.884l51.917-20.767
				c2.929-1.172,4.974-3.864,5.316-7c1.889-17.973,1.889-36.094,0-54.067C510.241,225.83,508.196,223.138,505.267,221.967z
				 M324.267,128.079c47.268,25.176,76.8,74.366,76.8,127.921s-29.532,102.744-76.8,127.921V128.079z M494.108,276.117
				l-51.066,20.425c-2.533,1.011-4.428,3.174-5.1,5.817c-4.437,17.362-11.364,33.99-20.567,49.367
				c-1.4,2.35-1.592,5.227-0.517,7.742l21.75,50.667c-4.2,4.95-8.767,9.933-13.592,14.817c-4.942,4.875-9.925,9.458-14.883,13.658
				l-50.667-21.75c-2.509-1.09-5.389-0.9-7.733,0.508c-8.78,5.212-17.965,9.709-27.467,13.447v-27.895
				c57.236-26.508,93.867-83.842,93.867-146.918s-36.631-120.411-93.867-146.918V81.186c9.501,3.738,18.687,8.235,27.467,13.447
				c2.347,1.401,5.223,1.59,7.733,0.508l50.667-21.75c4.95,4.2,9.933,8.767,14.817,13.592c4.875,4.942,9.458,9.925,13.658,14.883
				l-21.75,50.667c-1.075,2.515-0.883,5.392,0.517,7.742c9.202,15.377,16.13,32.005,20.567,49.367
				c0.672,2.643,2.567,4.805,5.1,5.817l51.067,20.425c0.55,6.475,0.825,13.217,0.825,20.117
				C494.934,262.9,494.658,269.642,494.108,276.117z"/>
			<path style="fill:#428DFF;" d="M138.15,51.029c0.566-0.082,1.115-0.255,1.625-0.513c0.543-0.188,1.059-0.447,1.533-0.771
				c0.425-0.338,0.858-0.679,1.284-1.021c3.3-3.365,3.3-8.752,0-12.117c-0.425-0.341-0.858-0.683-1.283-1.025
				c-0.475-0.324-0.99-0.583-1.533-0.771c-0.51-0.258-1.059-0.43-1.625-0.509c-1.093-0.258-2.232-0.258-3.325,0
				c-0.534,0.091-1.051,0.263-1.533,0.508c-0.546,0.187-1.064,0.447-1.542,0.771l-1.275,1.025c-3.3,3.365-3.3,8.752,0,12.117
				c1.627,1.573,3.796,2.459,6.059,2.475C137.076,51.184,137.616,51.127,138.15,51.029z"/>
		</g>
	</g>
</g>
<g>
</g>
<g>
</g>
<g>
</g>
<g>
</g>
<g>
</g>
<g>
</g>
<g>
</g>
<g>
</g>
<g>
</g>
<g>
</g>
<g>
</g>
<g>
</g>
<g>
</g>
<g>
</g>
<g>
</g>
</svg>
