<?xml version="1.0" encoding="iso-8859-1"?>
<!-- Generator: Adobe Illustrator 19.0.0, SVG Export Plug-In . SVG Version: 6.00 Build 0)  -->
<svg version="1.1" id="Capa_1" xmlns="http://www.w3.org/2000/svg" xmlns:xlink="http://www.w3.org/1999/xlink" x="0px" y="0px"
	 viewBox="0 0 512 512" style="enable-background:new 0 0 512 512;" xml:space="preserve">
<g>
	<g transform="translate(1 1)">
		<g>
			<rect x="280.6" y="344.601" style="fill:#A4C2F7;" width="68.267" height="102.4"/>
			<path style="fill:#A4C2F7;" d="M425.667,438.467v17.067h-230.4v-34.133H408.6C418.015,421.428,425.639,429.053,425.667,438.467z"
				/>
		</g>
		<path style="fill:#D4E1F4;" d="M400.067,438.467v17.067h-204.8v-34.133H383C392.415,421.428,400.039,429.053,400.067,438.467z"/>
		<path style="fill:#A4C2F7;" d="M502.467,63.001v298.667c-0.014,4.707-3.826,8.519-8.533,8.533H127v-307.2
			c0.014-4.707,3.826-8.519,8.533-8.533h358.4C498.641,54.481,502.453,58.294,502.467,63.001z"/>
		
			<linearGradient id="SVGID_1_" gradientUnits="userSpaceOnUse" x1="-49.8317" y1="651.5756" x2="-48.8948" y2="650.5374" gradientTransform="matrix(349.8667 0 0 -315.7333 17571.2285 205773.8281)">
			<stop  offset="0" style="stop-color:#D3DFF2"/>
			<stop  offset="0.1717" style="stop-color:#D3DFF2"/>
			<stop  offset="0.2" style="stop-color:#D3DFF2"/>
			<stop  offset="0.2002" style="stop-color:#DAE2F2"/>
			<stop  offset="0.2007" style="stop-color:#EBEAF2"/>
			<stop  offset="0.2014" style="stop-color:#F6EFF2"/>
			<stop  offset="0.2023" style="stop-color:#FDF2F2"/>
			<stop  offset="0.205" style="stop-color:#FFF3F2"/>
			<stop  offset="0.2522" style="stop-color:#FFF3F2"/>
			<stop  offset="0.26" style="stop-color:#FFF3F2"/>
			<stop  offset="0.26" style="stop-color:#D3DFF2"/>
			<stop  offset="0.3974" style="stop-color:#D3DFF2"/>
			<stop  offset="0.42" style="stop-color:#D3DFF2"/>
			<stop  offset="0.4202" style="stop-color:#DAE2F2"/>
			<stop  offset="0.4207" style="stop-color:#EBEAF2"/>
			<stop  offset="0.4214" style="stop-color:#F6EFF2"/>
			<stop  offset="0.4223" style="stop-color:#FDF2F2"/>
			<stop  offset="0.425" style="stop-color:#FFF3F2"/>
			<stop  offset="0.4894" style="stop-color:#FFF3F2"/>
			<stop  offset="0.5" style="stop-color:#FFF3F2"/>
			<stop  offset="0.5" style="stop-color:#F8F0F2"/>
			<stop  offset="0.5001" style="stop-color:#E7E8F2"/>
			<stop  offset="0.5003" style="stop-color:#DCE3F2"/>
			<stop  offset="0.5005" style="stop-color:#D5E0F2"/>
			<stop  offset="0.501" style="stop-color:#D3DFF2"/>
			<stop  offset="0.7062" style="stop-color:#D3DFF2"/>
			<stop  offset="0.74" style="stop-color:#D3DFF2"/>
			<stop  offset="0.741" style="stop-color:#FFF3F2"/>
			<stop  offset="0.8346" style="stop-color:#FFF3F2"/>
			<stop  offset="0.85" style="stop-color:#FFF3F2"/>
			<stop  offset="0.851" style="stop-color:#D3DFF2"/>
		</linearGradient>
		<path style="fill:url(#SVGID_1_);" d="M476.867,63.001v298.667c-0.014,4.707-3.826,8.519-8.533,8.533H127v-307.2
			c0.014-4.707,3.826-8.519,8.533-8.533h332.8C473.041,54.481,476.853,58.294,476.867,63.001z"/>
		<path style="fill:#A4C2F7;" d="M502.467,336.067v25.6c-0.014,4.707-3.826,8.519-8.533,8.533h-25.6
			c4.707-0.014,8.519-3.826,8.533-8.533v-25.6H502.467z"/>
		<path style="fill:#D4E1F4;" d="M476.867,336.067v25.6c-0.014,4.707-3.826,8.519-8.533,8.533h-332.8
			c-4.707-0.014-8.519-3.826-8.533-8.533v-25.6H476.867z"/>
		<path style="fill:#A4C2F7;" d="M502.467,63.001v25.6h-25.6v-25.6c-0.014-4.707-3.826-8.519-8.533-8.533h25.6
			C498.641,54.481,502.453,58.294,502.467,63.001z"/>
		<path style="fill:#D4E1F4;" d="M476.867,63.001v25.6H127v-25.6c0.014-4.707,3.826-8.519,8.533-8.533h332.8
			C473.041,54.481,476.853,58.294,476.867,63.001z"/>
		<g>
			<rect x="24.6" y="250.734" style="fill:#A4C2F7;" width="179.2" height="51.2"/>
			<path style="fill:#A4C2F7;" d="M220.867,440.601l0,14.933H7.533l0-15.957c-0.038-14.361,7.7-27.617,20.224-34.645l43.264-23.979
				c5.749-3.159,9.292-9.227,9.216-15.787v-11.349c-0.01-1.04-0.338-2.052-0.939-2.901c-0.939-1.28-2.645-3.413-4.779-6.315
				c-4.004-5.362-7.517-11.074-10.496-17.067c-2.32-4.703-4.095-9.656-5.291-14.763v-68.949c0,0-3.157-37.632,42.667-43.52
				c4.246-0.532,8.521-0.788,12.8-0.768c59.136,0,55.467,44.288,55.467,44.288v68.949c-4.104,14.016-11.11,27.013-20.565,38.144
				c-0.601,0.849-0.929,1.861-0.939,2.901v11.861c-0.066,6.737,3.662,12.939,9.643,16.043l41.557,23.467
				C212.601,412.029,220.902,425.699,220.867,440.601z"/>
		</g>
		<path style="fill:#E3E7F2;" d="M195.267,440.601l0,14.933H7.533l0-15.957c-0.038-14.361,7.7-27.617,20.224-34.645l43.264-23.979
			c5.749-3.159,9.292-9.227,9.216-15.787v-11.349c-0.01-1.04-0.338-2.052-0.939-2.901c-0.939-1.28-2.645-3.413-4.779-6.315
			c-4.004-5.362-7.517-11.074-10.496-17.067c-2.32-4.703-4.095-9.656-5.291-14.763v-68.949c0,0-3.157-37.632,42.667-43.52
			c45.824,5.888,42.667,43.52,42.667,43.52v68.949c-4.104,14.016-11.11,27.013-20.565,38.144c-0.601,0.849-0.929,1.861-0.939,2.901
			v11.861c-0.066,6.737,3.662,12.939,9.643,16.043l41.557,23.467C187.001,412.029,195.302,425.699,195.267,440.601z"/>
		<path style="fill:#FFFFFF;" d="M331.815,259.252l0.014,16.228c0.216,7.509-4.354,14.328-11.381,16.983
			c-5.228,1.816-11.011,0.997-15.529-2.201s-7.213-8.379-7.238-13.914l-0.015-17.067L331.815,259.252z"/>
		<path style="fill:#E3E7F2;" d="M365.284,182.754c2.965,18.147-4.045,36.489-18.359,48.032c-4.116,3.24-6.54,8.173-6.591,13.411
			v6.552c0,4.713-3.82,8.533-8.533,8.533h-34.133c-4.713,0-8.533-3.82-8.533-8.533v-6.573c-0.011-5.161-2.371-10.035-6.411-13.245
			c-17.812-14.292-24.004-38.653-15.177-59.716c8.827-21.062,30.537-33.731,53.217-31.053
			C343.441,142.839,361.605,160.215,365.284,182.754L365.284,182.754z"/>
		<g>
			<rect x="280.6" y="370.201" style="fill:#FFFFFF;" width="25.6" height="51.2"/>
			<rect x="58.734" y="250.734" style="fill:#FFFFFF;" width="25.6" height="51.2"/>
			<path style="fill:#FFFFFF;" d="M126.615,200.372c-4.116-0.547-8.263-0.827-12.415-0.838c-4.279-0.02-8.554,0.236-12.8,0.768
				c-45.824,5.888-42.667,43.52-42.667,43.52v6.912h25.6v-6.912C84.334,243.822,81.221,206.432,126.615,200.372z"/>
			<path style="fill:#FFFFFF;" d="M152.6,200.412V63.001c0.014-4.707,3.826-8.519,8.533-8.533h-25.6
				c-4.707,0.014-8.519,3.826-8.533,8.533v137.301c4.246-0.532,8.521-0.788,12.8-0.768
				C144.082,199.544,148.358,199.837,152.6,200.412z"/>
			<path style="fill:#FFFFFF;" d="M33.134,439.577c-0.038-14.361,7.7-27.617,20.224-34.645l43.264-23.979
				c5.749-3.159,9.292-9.227,9.216-15.787v-11.349c-0.01-1.04-0.338-2.052-0.939-2.901c-0.939-1.28-2.645-3.413-4.779-6.315
				c-4.004-5.362-7.517-11.074-10.496-17.067c-2.32-4.703-4.095-9.656-5.29-14.763v-10.837h-25.6v10.837
				c1.196,5.106,2.971,10.059,5.291,14.763c2.979,5.993,6.492,11.705,10.496,17.067c2.133,2.901,3.84,5.035,4.779,6.315
				c0.601,0.849,0.929,1.861,0.939,2.901v11.349c0.076,6.559-3.467,12.628-9.216,15.787l-43.264,23.979
				c-12.524,7.028-20.262,20.284-20.224,34.645l0,15.957h25.6V439.577z"/>
		</g>
	</g>
	<g>
		<polygon style="fill:#FFFFFF;" points="136.534,46.934 247.467,46.934 494.934,46.934 494.934,64.001 247.467,64.001 
			136.534,64.001 		"/>
		<g>
			<path style="fill:#428DFF;" d="M315.717,183.501h0.017c4.707,0.005,8.524,3.817,8.533,8.525c0.007,4.709,3.825,8.523,8.533,8.525
				h0.009c4.711-0.008,8.526-3.83,8.525-8.541c-0.029-14.122-11.478-25.56-25.6-25.575h-0.025c-4.713,0.002-8.531,3.825-8.529,8.538
				C307.182,179.685,311.004,183.503,315.717,183.501L315.717,183.501z"/>
			<path style="fill:#428DFF;" d="M278.4,238.601c2.015,1.588,3.193,4.01,3.2,6.575v6.575c0.021,6.071,3.275,11.671,8.54,14.694
				l0.01,10.914c0.031,8.216,3.989,15.922,10.65,20.733c4.341,3.151,9.569,4.846,14.934,4.842c2.855-0.005,5.691-0.466,8.4-1.367
				c10.557-3.769,17.505-13.885,17.233-25.092l-0.01-10.046c5.248-3.029,8.49-8.62,8.51-14.679v-6.55
				c0.049-2.661,1.307-5.154,3.417-6.775c16.743-13.419,24.939-34.831,21.433-56c-5.01-30.716-32.759-52.443-63.781-49.936
				S256.014,160.896,256,192.018C255.959,210.152,264.21,227.31,278.4,238.601z M318.775,285.367
				c-2.682,0.963-5.665,0.549-7.983-1.108c-2.229-1.601-3.558-4.172-3.575-6.917l-0.009-8.525h17.084l0.009,7.667
				C324.472,280.303,322.276,283.833,318.775,285.367z M287.409,160.126c7.765-6.964,17.836-10.803,28.267-10.775
				c1.755,0,3.508,0.103,5.25,0.308c18.756,2.405,33.741,16.778,36.925,35.417c2.527,15.137-3.318,30.458-15.283,40.067
				c-6.134,4.855-9.728,12.236-9.767,20.058v6.517l-34.133,0.033v-6.575c0.008-7.754-3.531-15.085-9.609-19.9
				c-9.813-7.849-15.66-19.63-15.978-32.191C272.762,180.523,278.006,168.462,287.409,160.126L287.409,160.126z"/>
			<path style="fill:#428DFF;" d="M198.742,49.409l-1.025,1.279c-0.324,0.476-0.583,0.993-0.771,1.538
				c-0.246,0.484-0.417,1.002-0.508,1.537c-0.096,0.564-0.153,1.133-0.17,1.705c0.031,2.259,0.915,4.423,2.475,6.059
				c1.994,2.07,4.908,2.979,7.726,2.409c2.818-0.57,5.149-2.539,6.183-5.222c0.438-1.027,0.67-2.13,0.684-3.246
				c-0.014-3.45-2.096-6.556-5.282-7.879C204.865,46.265,201.195,46.983,198.742,49.409z"/>
			<path style="fill:#428DFF;" d="M494.934,46.934h-256c-4.713,0-8.533,3.821-8.533,8.533s3.821,8.533,8.533,8.533h256v17.067
				h-358.4V64.001h34.133c4.713,0,8.533-3.821,8.533-8.533s-3.821-8.533-8.533-8.533h-34.133
				c-9.421,0.012-17.054,7.646-17.067,17.067v93.867h-8.533c-51.817,0.059-93.808,42.05-93.867,93.867v68.267
				c0.015,14.132,11.468,25.585,25.6,25.6h22.427c2.845,4.246,5.495,7.694,7.282,10l0.35,10.592c0.04,3.437-1.806,6.619-4.808,8.292
				l-43.233,23.967C9.395,406.95-0.062,423.092,0,440.584v15.95c-0.001,2.264,0.897,4.435,2.498,6.035
				c1.601,1.601,3.772,2.499,6.035,2.498h418.133c2.264,0.001,4.435-0.897,6.035-2.498c1.601-1.601,2.499-3.772,2.498-6.035v-17.067
				c-0.015-14.132-11.468-25.585-25.6-25.6h-51.2v-34.133h136.533c9.421-0.012,17.054-7.646,17.067-17.067V64.001
				C511.988,54.58,504.354,46.946,494.934,46.934z M136.534,98.134h358.4v230.4H174.733c1.809-4.156,3.235-8.468,4.259-12.883
				c0.14-0.618,0.21-1.25,0.208-1.883l-0.001-2.3h17.068c9.421-0.012,17.054-7.646,17.067-17.067v-42.667
				c-0.072-45.219-32.342-83.974-76.8-92.236V98.134z M221.677,413.867c-4.363-6.361-10.233-11.543-17.085-15.083l-33.723-19.05
				h102.198v34.133H221.677z M196.267,260.267v34.133H179.2v-34.133H196.267z M110.934,174.934h8.533
				c39.088,0.053,71.915,29.425,76.297,68.267h-16.547c-0.065-12.156-4.593-23.864-12.724-32.9
				c-11.192-12.142-28.45-18.3-51.292-18.3s-40.1,6.158-51.292,18.3c-8.14,9.032-12.675,20.741-12.742,32.9H34.637
				C39.019,204.359,71.846,174.987,110.934,174.934z M34.134,260.267H51.2v34.133H34.134V260.267z M42.667,328.534
				c-4.712-0.003-8.53-3.822-8.533-8.533v-8.533H51.2v2.3c-0.002,0.634,0.068,1.265,0.208,1.883
				c1.025,4.415,2.451,8.727,4.259,12.883H42.667z M204.8,448.001H17.066l0-7.417c-0.063-11.279,6.017-21.698,15.867-27.192
				l43.208-23.95c8.46-4.67,13.695-13.587,13.65-23.25v-11.35c0.015-2.913-0.928-5.75-2.683-8.075l-0.892-1.167h24.717
				c4.713,0,8.533-3.821,8.533-8.533c0-4.713-3.821-8.533-8.533-8.533H74.669c-2.805-4.955-4.957-10.251-6.402-15.758l-0.004-9.824
				l0.004-0.018v-51.2l-0.022-0.11l-0.003-7.415c-0.139-8.289,2.851-16.326,8.375-22.508c7.842-8.383,20.825-12.633,38.583-12.633
				s30.742,4.25,38.583,12.633c5.648,6.358,8.637,14.642,8.35,23.142v67.933c-3.641,11.858-9.626,22.865-17.6,32.367l-1.233,1.608
				c-1.759,2.329-2.705,5.172-2.692,8.092v11.841c-0.093,9.837,5.32,18.901,14.025,23.484l41.883,23.65
				c10.397,5.331,16.903,16.066,16.817,27.75l0.001,6.433H204.8z M418.134,439.467v8.533H230.4v-6.433
				c-0.033-3.58-0.458-7.146-1.267-10.633H409.6C414.312,430.937,418.13,434.756,418.134,439.467z M341.334,413.867h-51.2v-34.133
				h51.2V413.867z M349.867,362.667H157.675v-6.617l0.35-0.45c1.786-2.306,4.437-5.754,7.282-10h329.627v17.067H349.867z"/>
		</g>
	</g>
</g>
<g>
</g>
<g>
</g>
<g>
</g>
<g>
</g>
<g>
</g>
<g>
</g>
<g>
</g>
<g>
</g>
<g>
</g>
<g>
</g>
<g>
</g>
<g>
</g>
<g>
</g>
<g>
</g>
<g>
</g>
</svg>
