<?xml version="1.0" encoding="iso-8859-1"?>
<!-- Generator: Adobe Illustrator 19.0.0, SVG Export Plug-In . SVG Version: 6.00 Build 0)  -->
<svg version="1.1" id="Capa_1" xmlns="http://www.w3.org/2000/svg" xmlns:xlink="http://www.w3.org/1999/xlink" x="0px" y="0px"
	 viewBox="0 0 512 512" style="enable-background:new 0 0 512 512;" xml:space="preserve">
<g>
	<g transform="translate(1 1)">
		<g>
			<path style="fill:#A4C2F7;" d="M24.6,7.533h460.8c9.426,0,17.067,7.641,17.067,17.067v460.8c0,9.426-7.641,17.067-17.067,17.067
				H24.6c-9.426,0-17.067-7.641-17.067-17.067V24.6C7.533,15.174,15.174,7.533,24.6,7.533z"/>
			<path style="fill:#A4C2F7;" d="M502.467,24.6v51.2H7.533V24.6C7.561,15.186,15.186,7.561,24.6,7.533h460.8
				C494.814,7.561,502.439,15.186,502.467,24.6z"/>
		</g>
		<path style="fill:#D4E1F4;" d="M24.6,7.533h435.2c9.426,0,17.067,7.641,17.067,17.067v460.8c0,9.426-7.641,17.067-17.067,17.067
			H24.6c-9.426,0-17.067-7.641-17.067-17.067V24.6C7.533,15.174,15.174,7.533,24.6,7.533z"/>
		<path style="fill:#E3E7F2;" d="M476.867,24.6v51.2H7.533V24.6C7.561,15.186,15.186,7.561,24.6,7.533h435.2
			C469.214,7.561,476.839,15.186,476.867,24.6z"/>
		<path style="fill:#A4C2F7;" d="M50.2,109.933h187.733c4.713,0,8.533,3.82,8.533,8.533v179.2c0,4.713-3.821,8.533-8.533,8.533H50.2
			c-4.713,0-8.533-3.82-8.533-8.533v-179.2C41.667,113.754,45.487,109.933,50.2,109.933z"/>
		<path style="fill:#E3E7F2;" d="M50.2,109.933h162.133c4.713,0,8.533,3.82,8.533,8.533v179.2c0,4.713-3.821,8.533-8.533,8.533H50.2
			c-4.713,0-8.533-3.82-8.533-8.533v-179.2C41.667,113.754,45.487,109.933,50.2,109.933z"/>
		<g>
			<path style="fill:#7FABFA;" d="M289.133,109.933H459.8c4.713,0,8.533,3.82,8.533,8.533v179.2c0,4.713-3.82,8.533-8.533,8.533
				H289.133c-4.713,0-8.533-3.82-8.533-8.533v-179.2C280.6,113.754,284.421,109.933,289.133,109.933z"/>
			<path style="fill:#7FABFA;" d="M50.2,348.867h409.6c4.713,0,8.533,3.82,8.533,8.533v102.4c0,4.713-3.82,8.533-8.533,8.533H50.2
				c-4.713,0-8.533-3.82-8.533-8.533V357.4C41.667,352.687,45.487,348.867,50.2,348.867z"/>
		</g>
		<g>
			<path style="fill:#E3E7F2;" d="M289.133,109.933H434.2c4.713,0,8.533,3.82,8.533,8.533v179.2c0,4.713-3.821,8.533-8.533,8.533
				H289.133c-4.713,0-8.533-3.82-8.533-8.533v-179.2C280.6,113.754,284.421,109.933,289.133,109.933z"/>
			<path style="fill:#E3E7F2;" d="M50.2,348.867h384c4.713,0,8.533,3.82,8.533,8.533v102.4c0,4.713-3.821,8.533-8.533,8.533h-384
				c-4.713,0-8.533-3.82-8.533-8.533V357.4C41.667,352.687,45.487,348.867,50.2,348.867z"/>
			<path style="fill:#E3E7F2;" d="M365.933,417.133L365.933,417.133c0-9.426,7.641-17.067,17.067-17.067h34.133
				c9.426,0,17.067,7.641,17.067,17.067l0,0c0,9.426-7.641,17.067-17.067,17.067H383C373.574,434.2,365.933,426.559,365.933,417.133
				z"/>
		</g>
		<path style="fill:#A4C2F7;" d="M212.333,300.141v6.059H75.8v-6.656c0.041-8.942,5.036-17.124,12.971-21.248l28.843-16.213
			c0.768-0.427,2.218-1.536,3.755-2.645c0.621-0.456,0.973-1.193,0.939-1.963c0.015-0.661-0.241-1.299-0.709-1.766
			c-0.467-0.467-1.105-0.723-1.766-0.709H91.331c-4.9-0.063-9.471-2.475-12.288-6.485c-0.299-0.468-0.299-1.068,0-1.536
			c12.588-19.314,20.183-41.452,22.101-64.427c1.335-16.467,12.081-30.672,27.563-36.437c3.948-1.384,8.105-2.076,12.288-2.048
			c38.315,0.341,40.277,39.253,40.277,39.253c1.426,22.838,9.133,44.839,22.272,63.573c0.342,0.455,0.342,1.081,0,1.536
			c-5.461,8.107-19.115,6.571-19.115,6.571h-21.163c-0.394,0.068-0.795,0.097-1.195,0.085h-0.085
			c-0.886,0.132-1.657,0.677-2.077,1.468c-0.421,0.791-0.441,1.734-0.056,2.543c0.94,2.091,2.525,3.825,4.523,4.949l34.219,14.421
			C206.948,282.463,212.284,290.881,212.333,300.141z"/>
		<path style="fill:#E3E7F2;" d="M186.733,300.141v6.059H75.8v-6.656c0.041-8.942,5.036-17.124,12.971-21.248l28.843-16.213
			c0.768-0.427,2.218-1.536,3.755-2.645c0.621-0.456,0.973-1.193,0.939-1.963c0.015-0.661-0.241-1.299-0.709-1.766
			c-0.467-0.467-1.105-0.723-1.766-0.709H91.331c-4.9-0.063-9.471-2.475-12.288-6.485c-0.299-0.468-0.299-1.068,0-1.536
			c12.588-19.314,20.183-41.452,22.101-64.427c1.335-16.467,12.081-30.672,27.563-36.437c25.515,7.851,26.965,37.205,26.965,37.205
			c1.426,22.838,9.133,44.839,22.272,63.573c0.342,0.455,0.342,1.081,0,1.536c-3.631,4.318-9.038,6.738-14.677,6.571
			c-0.394,0.068-0.795,0.097-1.195,0.085h-0.085c-1.053,0.056-2.109,0.028-3.157-0.085h-21.845c-1.625-0.02-2.96,1.277-2.987,2.901
			c0.003,0.412,0.09,0.818,0.256,1.195c0.94,2.091,2.525,3.825,4.523,4.949l34.219,14.421
			C181.348,282.463,186.684,290.881,186.733,300.141z"/>
		<path style="fill:#FFFFFF;" d="M24.6,502.467h25.6c-9.414-0.028-17.039-7.653-17.067-17.067V24.6
			C33.161,15.186,40.786,7.561,50.2,7.533H24.6C15.186,7.561,7.561,15.186,7.533,24.6v460.8
			C7.561,494.814,15.186,502.439,24.6,502.467z"/>
	</g>
	<g>
		<polygon style="fill:#FFFFFF;" points="17.067,76.8 17.067,187.733 17.067,486.4 0,486.4 0,187.733 0,76.8 		"/>
		<g>
			<path style="fill:#428DFF;" d="M8.533,153.6c2.259-0.034,4.422-0.918,6.059-2.475c3.3-3.365,3.3-8.752,0-12.117l-1.279-1.025
				c-0.476-0.324-0.993-0.583-1.538-0.771c-0.484-0.246-1.003-0.417-1.538-0.509c-0.563-0.096-1.133-0.153-1.704-0.171
				c-2.259,0.031-4.423,0.915-6.059,2.475c-3.222,3.397-3.222,8.721,0,12.117c0.815,0.771,1.77,1.379,2.813,1.792
				C6.314,153.355,7.417,153.587,8.533,153.6z"/>
			<path style="fill:#428DFF;" d="M486.4,0H25.6C11.468,0.015,0.015,11.468,0,25.6v85.333c0,4.713,3.821,8.533,8.533,8.533
				s8.533-3.821,8.533-8.533v-25.6h477.867V486.4c-0.003,4.712-3.822,8.53-8.533,8.533H25.6c-4.712-0.003-8.53-3.822-8.533-8.533
				V179.2c0-4.713-3.821-8.533-8.533-8.533S0,174.487,0,179.2v307.2c0.015,14.132,11.468,25.585,25.6,25.6h460.8
				c14.132-0.015,25.585-11.468,25.6-25.6V25.6C511.985,11.468,500.532,0.015,486.4,0z M17.067,68.267V25.6
				c0.003-4.712,3.822-8.53,8.533-8.533h460.8c4.712,0.003,8.53,3.822,8.533,8.533v42.667H17.067z"/>
			<path style="fill:#428DFF;" d="M68.267,34.133H51.2c-4.713,0-8.533,3.821-8.533,8.533S46.487,51.2,51.2,51.2h17.067
				c4.713,0,8.533-3.821,8.533-8.533S72.98,34.133,68.267,34.133z"/>
			<path style="fill:#428DFF;" d="M460.8,34.133h-17.067c-4.713,0-8.533,3.821-8.533,8.533s3.821,8.533,8.533,8.533H460.8
				c4.713,0,8.533-3.821,8.533-8.533S465.513,34.133,460.8,34.133z"/>
			<path style="fill:#428DFF;" d="M375.467,34.133H136.533c-4.713,0-8.533,3.821-8.533,8.533s3.821,8.533,8.533,8.533h238.933
				c4.713,0,8.533-3.821,8.533-8.533S380.18,34.133,375.467,34.133z"/>
			<path style="fill:#428DFF;" d="M51.2,315.733h187.733c9.421-0.012,17.054-7.646,17.067-17.067v-179.2
				c-0.012-9.421-7.646-17.054-17.067-17.067H51.2c-9.421,0.012-17.054,7.646-17.067,17.067v179.2
				C34.146,308.087,41.779,315.721,51.2,315.733z M85.45,298.667c0.718-5.126,3.894-9.579,8.508-11.925l28.6-16.117
				c1.747-1.03,3.42-2.18,5.008-3.442c3.745-2.877,5.236-7.823,3.703-12.29c-1.533-4.467-5.747-7.456-10.47-7.426H96.133
				c-0.283,0-0.667,0.025-0.95,0.05c-1.505,0.112-3.018-0.015-4.483-0.375c11.229-19.212,18.046-40.68,19.958-62.85
				c0.997-16.641,14.358-29.865,31.008-30.692h0.233c17.279-0.14,31.47,13.617,31.867,30.892
				c1.256,22.136,8.053,43.601,19.767,62.425c-2.348,0.593-4.778,0.795-7.192,0.6c-0.31-0.033-0.622-0.05-0.933-0.05h-21.867
				c-4.01-0.021-7.736,2.064-9.817,5.492c-2.072,3.356-2.237,7.551-0.433,11.058c1.845,3.866,4.923,7.008,8.75,8.933l33.8,14.225
				c4.618,2.172,7.884,6.462,8.75,11.492H85.45z M51.2,119.467h187.733l0.017,179.2h-17.26c-0.936-11.74-8.118-22.068-18.798-27.034
				l-16.767-7.025c9.719,0.98,19.291-2.926,25.55-10.425c2.406-3.579,2.186-8.31-0.542-11.65
				c-11.976-17.337-18.998-37.611-20.309-58.641c-0.523-26.496-22.292-47.625-48.792-47.358h-0.35
				c-25.496,0.807-46.246,20.778-48.025,46.225c-1.777,21.538-8.873,42.297-20.65,60.417c-2.202,3.249-2.29,7.488-0.225,10.825
				c5.397,7.615,14.534,11.659,23.8,10.533h2.025l-12.842,7.242c-10.095,5.309-16.681,15.507-17.368,26.892H51.2V119.467z"/>
			<path style="fill:#428DFF;" d="M460.8,315.733c9.421-0.012,17.054-7.646,17.067-17.067v-179.2
				c-0.012-9.421-7.646-17.054-17.067-17.067H290.133c-9.421,0.012-17.054,7.646-17.067,17.067v179.2
				c0.012,9.421,7.646,17.054,17.067,17.067H460.8z M290.133,119.467H460.8l0.017,179.2H290.133V119.467z"/>
			<path style="fill:#428DFF;" d="M34.133,460.8c0.012,9.421,7.646,17.054,17.067,17.067h409.6
				c9.421-0.012,17.054-7.646,17.067-17.067V358.4c-0.012-9.421-7.646-17.054-17.067-17.067H51.2
				c-9.421,0.012-17.054,7.646-17.067,17.067V460.8z M51.2,358.4h409.6l0.017,102.4H51.2V358.4z"/>
			<path style="fill:#428DFF;" d="M418.133,392.533H384c-14.138,0-25.6,11.462-25.6,25.6c0,14.138,11.462,25.6,25.6,25.6h34.133
				c14.138,0,25.6-11.462,25.6-25.6C443.733,403.995,432.272,392.533,418.133,392.533z M418.133,426.667H384
				c-4.713,0-8.533-3.82-8.533-8.533s3.821-8.533,8.533-8.533h34.133c4.713,0,8.533,3.82,8.533,8.533
				S422.846,426.667,418.133,426.667z"/>
			<path style="fill:#428DFF;" d="M435.2,145.067c-2.264-0.001-4.435,0.897-6.035,2.498c-1.601,1.601-2.499,3.772-2.498,6.035
				v110.933c0,4.713,3.82,8.533,8.533,8.533s8.533-3.82,8.533-8.533V153.6c0.001-2.264-0.897-4.435-2.498-6.035
				C439.635,145.964,437.464,145.065,435.2,145.067z"/>
			<path style="fill:#428DFF;" d="M76.8,384c-2.264-0.001-4.435,0.897-6.035,2.498c-1.601,1.601-2.499,3.772-2.498,6.035v34.133
				c0,4.713,3.821,8.533,8.533,8.533s8.533-3.82,8.533-8.533v-34.133c0.001-2.264-0.897-4.435-2.498-6.035
				C81.235,384.897,79.064,383.999,76.8,384z"/>
		</g>
	</g>
</g>
<g>
</g>
<g>
</g>
<g>
</g>
<g>
</g>
<g>
</g>
<g>
</g>
<g>
</g>
<g>
</g>
<g>
</g>
<g>
</g>
<g>
</g>
<g>
</g>
<g>
</g>
<g>
</g>
<g>
</g>
</svg>
