<?xml version="1.0" encoding="iso-8859-1"?>
<!-- Generator: Adobe Illustrator 19.0.0, SVG Export Plug-In . SVG Version: 6.00 Build 0)  -->
<svg version="1.1" id="Capa_1" xmlns="http://www.w3.org/2000/svg" xmlns:xlink="http://www.w3.org/1999/xlink" x="0px" y="0px"
	 viewBox="0 0 512 512" style="enable-background:new 0 0 512 512;" xml:space="preserve">
<g>
	<g transform="translate(1 5)">
		<g>
			<rect x="169.667" y="88.867" style="fill:#A4C2F7;" width="179.2" height="51.2"/>
			<path style="fill:#A4C2F7;" d="M365.933,278.733l0,14.933H152.6l0-15.957c-0.038-14.361,7.7-27.617,20.224-34.645l43.264-23.979
				c5.749-3.159,9.292-9.227,9.216-15.787v-11.349c-0.01-1.04-0.338-2.052-0.939-2.901c-0.939-1.28-2.645-3.413-4.779-6.315
				c-4.004-5.362-7.517-11.074-10.496-17.067c-2.32-4.703-4.095-9.656-5.291-14.763V81.955c0,0-3.157-37.632,42.667-43.52
				c4.246-0.532,8.521-0.788,12.8-0.768c59.136,0,55.467,44.288,55.467,44.288v68.949c-4.104,14.016-11.11,27.013-20.565,38.144
				c-0.601,0.849-0.929,1.861-0.939,2.901v11.861c-0.066,6.737,3.662,12.939,9.643,16.043l41.557,23.467
				C357.667,250.161,365.969,263.832,365.933,278.733z"/>
		</g>
		<path style="fill:#E3E7F2;" d="M340.333,278.733l0,14.933H152.6l0-15.957c-0.038-14.361,7.7-27.617,20.224-34.645l43.264-23.979
			c5.749-3.159,9.292-9.227,9.216-15.787v-11.349c-0.01-1.04-0.338-2.052-0.939-2.901c-0.939-1.28-2.645-3.413-4.779-6.315
			c-4.004-5.362-7.517-11.074-10.496-17.067c-2.32-4.703-4.095-9.656-5.291-14.763V81.955c0,0-3.157-37.632,42.667-43.52
			c45.824,5.888,42.667,43.52,42.667,43.52v68.949c-4.104,14.016-11.11,27.013-20.565,38.144c-0.601,0.849-0.929,1.861-0.939,2.901
			v11.861c-0.066,6.737,3.662,12.939,9.643,16.043l41.557,23.467C332.068,250.162,340.369,263.832,340.333,278.733z"/>
		<g>
			<path style="fill:#A4C2F7;" d="M195.267,353.4v128H24.6v-128c0.014-4.707,3.826-8.519,8.533-8.533h153.6
				C191.44,344.881,195.253,348.693,195.267,353.4z"/>
			<path style="fill:#A4C2F7;" d="M485.4,353.4v128H314.733v-128c0.014-4.707,3.826-8.519,8.533-8.533h153.6
				C481.574,344.881,485.386,348.693,485.4,353.4z"/>
		</g>
		<g>
			<path style="fill:#E3E7F2;" d="M169.667,353.4v128H24.6v-128c0.014-4.707,3.826-8.519,8.533-8.533h128
				C165.84,344.881,169.653,348.693,169.667,353.4z"/>
			<path style="fill:#E3E7F2;" d="M459.8,353.4v128H314.733v-128c0.014-4.707,3.826-8.519,8.533-8.533h128
				C455.974,344.881,459.786,348.693,459.8,353.4z"/>
		</g>
		<g>
			<path style="fill:#7FABFA;" d="M16.067,464.333H203.8c4.713,0,8.533,3.821,8.533,8.533v17.067c0,4.713-3.821,8.533-8.533,8.533
				H16.067c-4.713,0-8.533-3.821-8.533-8.533v-17.067C7.533,468.154,11.354,464.333,16.067,464.333z"/>
			<path style="fill:#7FABFA;" d="M306.2,464.333h187.733c4.713,0,8.533,3.821,8.533,8.533v17.067c0,4.713-3.821,8.533-8.533,8.533
				H306.2c-4.713,0-8.533-3.821-8.533-8.533v-17.067C297.667,468.154,301.487,464.333,306.2,464.333z"/>
		</g>
		<g>
			<path style="fill:#A4C2F7;" d="M16.067,464.333H178.2c4.713,0,8.533,3.821,8.533,8.533v17.067c0,4.713-3.82,8.533-8.533,8.533
				H16.067c-4.713,0-8.533-3.821-8.533-8.533v-17.067C7.533,468.154,11.354,464.333,16.067,464.333z"/>
			<path style="fill:#A4C2F7;" d="M306.2,464.333h162.133c4.713,0,8.533,3.821,8.533,8.533v17.067c0,4.713-3.821,8.533-8.533,8.533
				H306.2c-4.713,0-8.533-3.821-8.533-8.533v-17.067C297.667,468.154,301.487,464.333,306.2,464.333z"/>
		</g>
		<g>
			<path style="fill:#FFFFFF;" d="M178.2,277.709c-0.038-14.361,7.7-27.617,20.224-34.645l43.264-23.979
				c5.749-3.159,9.292-9.227,9.216-15.787v-11.349c-0.01-1.04-0.338-2.052-0.939-2.901c-0.939-1.28-2.645-3.413-4.779-6.315
				c-4.004-5.362-7.517-11.074-10.496-17.067c-2.32-4.703-4.095-9.656-5.291-14.763v-10.837h-25.6v10.837
				c1.196,5.106,2.971,10.059,5.291,14.763c2.979,5.993,6.492,11.705,10.496,17.067c2.133,2.901,3.84,5.035,4.779,6.315
				c0.601,0.849,0.929,1.861,0.939,2.901v11.349c0.076,6.559-3.467,12.628-9.216,15.787l-43.264,23.979
				c-12.524,7.028-20.262,20.284-20.224,34.645l0,15.957h25.6V277.709z"/>
			<path style="fill:#FFFFFF;" d="M16.067,498.467h25.6c-4.707-0.014-8.519-3.826-8.533-8.533v-17.067
				c0.014-4.707,3.826-8.519,8.533-8.533H50.2V353.4c0.014-4.707,3.826-8.519,8.533-8.533h-25.6
				c-4.707,0.014-8.519,3.826-8.533,8.533v110.933h-8.533c-4.707,0.014-8.519,3.826-8.533,8.533v17.067
				C7.547,494.64,11.36,498.453,16.067,498.467z"/>
			<rect x="203.8" y="88.867" style="fill:#FFFFFF;" width="25.6" height="51.2"/>
			<path style="fill:#FFFFFF;" d="M271.742,38.493c-4.136-0.541-8.303-0.818-12.475-0.827c-4.279-0.02-8.554,0.236-12.8,0.768
				c-45.824,5.888-42.667,43.52-42.667,43.52v6.912h25.6v-6.912C229.4,81.955,226.28,44.526,271.742,38.493z"/>
			<path style="fill:#FFFFFF;" d="M331.8,464.333h8.533V353.4c0.014-4.707,3.826-8.519,8.533-8.533h-25.6
				c-4.707,0.014-8.519,3.826-8.533,8.533v110.933H306.2c-4.707,0.014-8.519,3.826-8.533,8.533v17.067
				c0.014,4.707,3.826,8.519,8.533,8.533h25.6c-4.707-0.014-8.519-3.826-8.533-8.533v-17.067
				C323.281,468.16,327.093,464.347,331.8,464.333z"/>
		</g>
	</g>
	<g>
		<path style="fill:#FFFFFF;" d="M17.067,469.333V358.4c0.02-7.179,4.516-13.582,11.26-16.04c1.637-0.6,3.358-0.938,5.1-1.001
			l2.962-0.026h151.344V358.4h-153.6v110.933H17.067z"/>
		<g>
			<path style="fill:#428DFF;" d="M22.358,408.921c0.484,0.246,1.002,0.417,1.537,0.508c0.563,0.096,1.133,0.153,1.704,0.171
				c2.259-0.031,4.423-0.915,6.059-2.475c3.221-3.397,3.221-8.72,0-12.117c-0.815-0.771-1.77-1.379-2.813-1.792
				c-1.027-0.438-2.13-0.67-3.246-0.683c-2.259,0.034-4.422,0.918-6.059,2.475c-3.3,3.365-3.3,8.752,0,12.117l1.279,1.025
				C21.297,408.474,21.814,408.733,22.358,408.921z"/>
			<path style="fill:#428DFF;" d="M494.933,460.8V358.4c-0.012-9.421-7.646-17.054-17.067-17.067h-153.6
				c-9.421,0.011-17.056,7.645-17.067,17.067v42.667h-42.667V307.2H358.4c9.421-0.011,17.056-7.645,17.067-17.067v-7.425
				c0.049-17.466-9.376-33.585-24.621-42.108l-43.366-24.033c-2.973-1.678-4.785-4.853-4.717-8.267v-10.133l0.358-0.467
				c9.741-11.663,16.878-25.272,20.933-39.917c0.141-0.618,0.212-1.25,0.212-1.883l-0.001-2.3h17.068
				c9.421-0.011,17.056-7.645,17.067-17.067V93.867C358.341,42.05,316.35,0.059,264.533,0H256
				c-51.817,0.059-93.808,42.05-93.867,93.867v68.267c0.015,14.132,11.468,25.585,25.6,25.6h22.424
				c2.834,4.231,5.474,7.668,7.255,9.967l0.358,10.6c0.061,3.452-1.795,6.654-4.821,8.317L169.688,240.6
				c-15.245,8.523-24.67,24.642-24.621,42.108v7.425c0.011,9.421,7.645,17.056,17.067,17.067h85.333v93.867H204.8V358.4
				c-0.011-9.421-7.645-17.056-17.067-17.067H36.389l-2.962,0.026c-1.742,0.063-3.463,0.401-5.1,1.001
				c-6.745,2.458-11.24,8.861-11.26,16.04v8.533c0,4.713,3.821,8.533,8.533,8.533s8.533-3.82,8.533-8.533V358.4h153.6v102.4h-153.6
				v-25.6c0-4.713-3.821-8.533-8.533-8.533s-8.533,3.82-8.533,8.533v25.6C7.645,460.811,0.011,468.445,0,477.867v17.067
				c0.011,9.421,7.645,17.056,17.067,17.067H204.8c9.421-0.011,17.056-7.645,17.067-17.067v-17.067
				c-0.011-9.421-7.645-17.056-17.067-17.067v-42.667h102.4V460.8c-9.421,0.011-17.056,7.645-17.067,17.067v17.067
				c0.011,9.421,7.645,17.056,17.067,17.067h187.733c9.421-0.012,17.054-7.646,17.067-17.067v-17.067
				C511.988,468.446,504.354,460.812,494.933,460.8z M341.333,136.533h-17.067V102.4h17.067V136.533z M256,17.067h8.533
				c39.087,0.055,71.913,29.426,76.297,68.267h-16.546c-0.05-12.148-4.57-23.853-12.696-32.883
				c-11.187-12.158-28.454-18.317-51.321-18.317s-40.133,6.158-51.321,18.317c-8.134,9.027-12.661,20.732-12.717,32.883h-16.526
				C184.087,46.493,216.913,17.121,256,17.067z M179.2,102.4h17.067v34.133H179.2V102.4z M187.733,170.667
				c-4.711-0.005-8.529-3.822-8.533-8.533V153.6h17.067v2.3c0,0.634,0.071,1.266,0.212,1.883c1.023,4.415,2.447,8.727,4.255,12.883
				H187.733z M162.133,282.708c-0.052-11.261,6.008-21.665,15.829-27.175l43.158-23.933c8.523-4.639,13.796-13.597,13.716-23.3
				v-11.35c-0.03-2.881-0.953-5.682-2.642-8.017l-0.918-1.2H256c4.713,0,8.533-3.82,8.533-8.533s-3.821-8.533-8.533-8.533h-36.265
				c-2.804-4.955-4.956-10.252-6.402-15.758l-0.004-9.824l0.004-0.018v-51.2l-0.022-0.11l-0.003-7.44
				c-0.147-8.278,2.835-16.307,8.35-22.483C229.5,55.45,242.487,51.2,260.267,51.2c17.779,0,30.767,4.25,38.608,12.633
				c5.64,6.354,8.621,14.634,8.325,23.125v67.95c-3.64,11.846-9.616,22.842-17.575,32.341l-1.446,1.9
				c-1.601,2.287-2.467,5.008-2.483,7.8v11.35c-0.087,9.665,5.142,18.596,13.613,23.25l43.262,23.983
				c9.822,5.51,15.882,15.914,15.829,27.175l0,7.425H162.133L162.133,282.708z M204.812,494.933H17.067v-17.067H204.8
				L204.812,494.933z M324.267,358.4h153.6v102.4h-153.6V358.4z M307.2,494.933v-17.067h187.733l0.017,17.067H307.2z"/>
			<path style="fill:#428DFF;" d="M68.267,392.533c4.713,0,8.533-3.82,8.533-8.533s-3.82-8.533-8.533-8.533h-8.533
				c-4.713,0-8.533,3.821-8.533,8.533s3.821,8.533,8.533,8.533H68.267z"/>
			<path style="fill:#428DFF;" d="M162.133,392.533c4.713,0,8.533-3.82,8.533-8.533s-3.821-8.533-8.533-8.533H102.4
				c-4.713,0-8.533,3.821-8.533,8.533s3.821,8.533,8.533,8.533H162.133z"/>
			<path style="fill:#428DFF;" d="M358.4,375.467h-8.533c-4.713,0-8.533,3.821-8.533,8.533s3.821,8.533,8.533,8.533h8.533
				c4.713,0,8.533-3.82,8.533-8.533S363.113,375.467,358.4,375.467z"/>
			<path style="fill:#428DFF;" d="M452.267,375.467h-59.733c-4.713,0-8.533,3.821-8.533,8.533s3.82,8.533,8.533,8.533h59.733
				c4.713,0,8.533-3.82,8.533-8.533S456.98,375.467,452.267,375.467z"/>
		</g>
	</g>
</g>
<g>
</g>
<g>
</g>
<g>
</g>
<g>
</g>
<g>
</g>
<g>
</g>
<g>
</g>
<g>
</g>
<g>
</g>
<g>
</g>
<g>
</g>
<g>
</g>
<g>
</g>
<g>
</g>
<g>
</g>
</svg>
