<?xml version="1.0" encoding="iso-8859-1"?>
<!-- Generator: Adobe Illustrator 19.0.0, SVG Export Plug-In . SVG Version: 6.00 Build 0)  -->
<svg version="1.1" id="Capa_1" xmlns="http://www.w3.org/2000/svg" xmlns:xlink="http://www.w3.org/1999/xlink" x="0px" y="0px"
	 viewBox="0 0 512 512" style="enable-background:new 0 0 512 512;" xml:space="preserve">
<g>
	<g transform="translate(1 4)">
		<rect x="186.733" y="414.133" style="fill:#A4C2F7;" width="136.533" height="68.267"/>
		<rect x="186.733" y="414.133" style="fill:#D4E1F4;" width="110.933" height="68.267"/>
		<path style="fill:#A4C2F7;" d="M502.467,71.349v327.168c-0.423,18.441-15.691,33.061-34.133,32.683H41.667
			c-18.442,0.378-33.711-14.242-34.133-32.683V71.349c0.422-18.441,15.691-33.061,34.133-32.683h426.667
			C486.775,38.288,502.044,52.908,502.467,71.349z"/>
		
			<linearGradient id="SVGID_1_" gradientUnits="userSpaceOnUse" x1="-49.8338" y1="648.6699" x2="-48.9574" y2="647.6219" gradientTransform="matrix(469.3333 0 0 -392.5477 23425.2012 254663.125)">
			<stop  offset="0" style="stop-color:#D3DFF2"/>
			<stop  offset="0.1717" style="stop-color:#D3DFF2"/>
			<stop  offset="0.2" style="stop-color:#D3DFF2"/>
			<stop  offset="0.2002" style="stop-color:#DAE2F2"/>
			<stop  offset="0.2007" style="stop-color:#EBEAF2"/>
			<stop  offset="0.2014" style="stop-color:#F6EFF2"/>
			<stop  offset="0.2023" style="stop-color:#FDF2F2"/>
			<stop  offset="0.205" style="stop-color:#FFF3F2"/>
			<stop  offset="0.2522" style="stop-color:#FFF3F2"/>
			<stop  offset="0.26" style="stop-color:#FFF3F2"/>
			<stop  offset="0.26" style="stop-color:#D3DFF2"/>
			<stop  offset="0.3974" style="stop-color:#D3DFF2"/>
			<stop  offset="0.42" style="stop-color:#D3DFF2"/>
			<stop  offset="0.4202" style="stop-color:#DAE2F2"/>
			<stop  offset="0.4207" style="stop-color:#EBEAF2"/>
			<stop  offset="0.4214" style="stop-color:#F6EFF2"/>
			<stop  offset="0.4223" style="stop-color:#FDF2F2"/>
			<stop  offset="0.425" style="stop-color:#FFF3F2"/>
			<stop  offset="0.4894" style="stop-color:#FFF3F2"/>
			<stop  offset="0.5" style="stop-color:#FFF3F2"/>
			<stop  offset="0.5" style="stop-color:#F8F0F2"/>
			<stop  offset="0.5001" style="stop-color:#E7E8F2"/>
			<stop  offset="0.5003" style="stop-color:#DCE3F2"/>
			<stop  offset="0.5005" style="stop-color:#D5E0F2"/>
			<stop  offset="0.501" style="stop-color:#D3DFF2"/>
			<stop  offset="0.7062" style="stop-color:#D3DFF2"/>
			<stop  offset="0.74" style="stop-color:#D3DFF2"/>
			<stop  offset="0.741" style="stop-color:#FFF3F2"/>
			<stop  offset="0.8346" style="stop-color:#FFF3F2"/>
			<stop  offset="0.85" style="stop-color:#FFF3F2"/>
			<stop  offset="0.851" style="stop-color:#D3DFF2"/>
		</linearGradient>
		<path style="fill:url(#SVGID_1_);" d="M476.867,71.349v327.168c-0.423,18.441-15.691,33.061-34.133,32.683H41.667
			c-18.442,0.378-33.711-14.242-34.133-32.683V71.349c0.422-18.441,15.691-33.061,34.133-32.683h401.067
			C461.175,38.288,476.444,52.908,476.867,71.349z"/>
		<g>
			<path style="fill:#7FABFA;" d="M391.533,490.933v8.533H118.467l0-8.533c-0.009-6.792,2.685-13.309,7.488-18.112
				s11.32-7.497,18.112-7.488h221.867c6.792-0.009,13.309,2.685,18.112,7.488C388.848,477.624,391.542,484.141,391.533,490.933z"/>
			<path style="fill:#7FABFA;" d="M502.467,380v18.517c-0.423,18.441-15.691,33.061-34.133,32.683H41.667
				c-18.442,0.378-33.711-14.242-34.133-32.683V380H502.467z"/>
		</g>
		<g>
			<path style="fill:#A4C2F7;" d="M365.933,490.933v8.533H118.467l0-8.533c-0.009-6.792,2.685-13.309,7.488-18.112
				s11.32-7.497,18.112-7.488h196.267c6.792-0.009,13.309,2.685,18.112,7.488C363.248,477.624,365.942,484.141,365.933,490.933z"/>
			<path style="fill:#A4C2F7;" d="M476.867,380v18.517c-0.423,18.441-15.691,33.061-34.133,32.683H41.667
				c-18.442,0.378-33.711-14.242-34.133-32.683V380H476.867z"/>
			<path style="fill:#A4C2F7;" d="M391.533,352.011L391.534,380H118.465l0.001-29.269c-0.135-18.604,9.784-35.832,25.941-45.056
				l55.381-31.147c7.324-4.211,11.821-12.032,11.776-20.48v-14.763c0.007-1.386-0.443-2.736-1.28-3.84
				c-10.976-14.852-18.973-31.688-23.552-49.579v-89.6c0,0-6.571-50.859,55.467-57.003c4.253-0.424,8.526-0.624,12.8-0.597
				c75.691,0,68.267,57.6,68.267,57.6v89.6c-4.579,17.891-12.576,34.727-23.552,49.579c-0.837,1.104-1.287,2.454-1.28,3.84v15.36
				c-0.076,8.748,4.728,16.81,12.459,20.907l53.163,30.464C381.047,315.054,391.628,332.766,391.533,352.011z"/>
		</g>
		<path style="fill:#E3E7F2;" d="M365.933,352.011L365.934,380H118.465l0.001-29.269c-0.135-18.604,9.784-35.832,25.941-45.056
			l55.381-31.147c7.324-4.211,11.821-12.032,11.776-20.48v-14.763c0.007-1.386-0.443-2.736-1.28-3.84
			c-10.976-14.852-18.973-31.688-23.552-49.579v-89.6c0,0-6.571-50.859,55.467-57.003c62.037,6.144,55.467,57.003,55.467,57.003
			v89.6c-4.579,17.891-12.576,34.727-23.552,49.579c-0.837,1.104-1.287,2.454-1.28,3.84v15.36
			c-0.076,8.748,4.728,16.81,12.459,20.907l53.163,30.464C355.447,315.054,366.028,332.766,365.933,352.011z"/>
		<path style="fill:#FFFFFF;" d="M242.2,192.267h17.067c7.069,0,12.8,5.731,12.8,12.8v8.533c0,7.069-5.731,12.8-12.8,12.8H242.2
			c-7.069,0-12.8-5.731-12.8-12.8v-8.533C229.4,197.997,235.131,192.267,242.2,192.267z"/>
		<g>
			<rect x="152.6" y="106.933" style="fill:#A4C2F7;" width="34.133" height="59.733"/>
			<path style="fill:#A4C2F7;" d="M348.867,166.667h-25.6v-59.733H357.4v51.2C357.4,162.846,353.579,166.667,348.867,166.667z"/>
		</g>
		<g>
			<rect x="186.733" y="431.2" style="fill:#FFFFFF;" width="25.6" height="34.133"/>
			<path style="fill:#FFFFFF;" d="M41.667,431.2h25.6c-18.442,0.378-33.711-14.242-34.133-32.683V71.349
				c0.422-18.441,15.691-33.061,34.133-32.683h-25.6C23.225,38.288,7.956,52.908,7.533,71.349v327.168
				C7.956,416.958,23.225,431.578,41.667,431.2z"/>
			<path style="fill:#FFFFFF;" d="M169.667,465.333h-25.6c-6.792-0.009-13.309,2.685-18.112,7.488s-7.497,11.32-7.488,18.112
				l0,8.533h25.6v-8.533c-0.009-6.792,2.685-13.309,7.488-18.112C156.358,468.018,162.874,465.324,169.667,465.333z"/>
		</g>
	</g>
	<g>
		<polygon style="fill:#FFFFFF;" points="17.067,75.349 17.067,186.283 17.067,402.517 0,402.517 0,186.283 0,75.349 		"/>
		<g>
			<path style="fill:#428DFF;" d="M8.533,152.149c2.259-0.034,4.422-0.918,6.059-2.475c3.3-3.365,3.3-8.752,0-12.117l-1.279-1.025
				c-0.476-0.324-0.993-0.583-1.538-0.771c-0.484-0.246-1.003-0.417-1.538-0.509c-0.563-0.096-1.133-0.153-1.704-0.171
				c-2.259,0.031-4.423,0.915-6.059,2.475c-3.222,3.397-3.222,8.721,0,12.117c0.815,0.77,1.77,1.379,2.813,1.792
				C6.314,151.904,7.417,152.136,8.533,152.149z"/>
			<path style="fill:#428DFF;" d="M469.333,34.133H337.01C317.279,12.492,289.381,0.112,260.096,0h-8.192
				c-29.285,0.112-57.183,12.492-76.914,34.133H42.667C19.517,33.767,0.434,52.201,0,75.349v34.133c0,4.713,3.821,8.533,8.533,8.533
				s8.533-3.821,8.533-8.533V75.35c0.427-13.726,11.872-24.523,25.6-24.15h119.356c-11.107,17.942-16.98,38.631-16.956,59.733V192
				c-0.411,16.041,12.227,29.395,28.267,29.867h17.292c3.899,7.683,8.379,15.057,13.399,22.059v14.1
				c0.074,5.38-2.777,10.377-7.446,13.05l-55.337,31.15c-18.854,10.735-30.443,30.813-30.308,52.508v20.733H17.067V177.749
				c0-4.713-3.821-8.533-8.533-8.533S0,173.037,0,177.749v224.768c0.434,23.149,19.517,41.582,42.667,41.216H179.2V460.8h-34.133
				c-18.843,0.02-34.113,15.29-34.133,34.133v8.533c-0.001,2.263,0.898,4.434,2.499,6.035c1.6,1.6,3.771,2.499,6.035,2.499h273.067
				c2.263,0.001,4.434-0.898,6.035-2.499c1.6-1.6,2.499-3.771,2.499-6.035v-8.533c-0.02-18.843-15.29-34.113-34.133-34.133H332.8
				v-17.067h136.533c23.15,0.366,42.232-18.068,42.667-41.217V75.35C511.566,52.201,492.483,33.767,469.333,34.133z M469.333,51.2
				c13.728-0.373,25.173,10.424,25.6,24.15v300.117h-93.867v-19.458c0.221-22.328-12.04-42.912-31.779-53.35l-53.5-30.7
				c-4.887-2.619-7.901-7.748-7.813-13.292v-14.741c11.47-15.665,19.828-33.386,24.621-52.2c0.137-0.61,0.205-1.233,0.204-1.859
				V179.2h17.067c9.421-0.011,17.056-7.645,17.067-17.067v-51.2c0.024-21.102-5.848-41.791-16.956-59.733H469.333z M332.8,119.467
				h17.067v42.667H332.8V119.467z M251.904,17.067h8.192c47.387,1.019,86.157,38.044,89.357,85.333H332.8v-1.692
				c1.256-15.905-3.804-31.665-14.083-43.867C305.454,41.775,284.354,34.133,256,34.133c-28.354,0-49.454,7.642-62.717,22.708
				c-10.28,12.202-15.339,27.962-14.083,43.867v1.692h-16.653C165.747,55.111,204.517,18.086,251.904,17.067z M162.133,119.467
				H179.2v42.667h-17.067V119.467z M173.333,204.8c-6.61-0.478-11.604-6.186-11.2-12.8v-12.8H179.2v10.667
				c-0.001,0.625,0.067,1.248,0.204,1.858c1.025,4.433,2.32,8.8,3.878,13.075H173.333z M128,354.733
				c-0.137-15.525,8.122-29.913,21.596-37.625l55.313-31.142c10.066-5.686,16.26-16.381,16.183-27.942v-14.75
				c0.013-3.209-1.01-6.336-2.917-8.917c-2.927-4.023-5.649-8.193-8.154-12.492h12.277c2.039,9.925,10.769,17.054,20.902,17.067
				h17.067c11.777-0.012,21.321-9.556,21.333-21.333v-8.533c-0.012-11.777-9.556-21.321-21.333-21.333H243.2
				c-10.133,0.013-18.863,7.141-20.902,17.067h-20.827c-2.161-5.148-3.902-10.463-5.205-15.892v-88.642
				c0-0.362-0.024-0.724-0.071-1.084c-0.805-11.242,2.74-22.363,9.9-31.067C215.975,56.892,232.767,51.2,256,51.2
				c23.125,0,39.871,5.642,49.766,16.767c7.251,8.719,10.848,19.905,10.038,31.216c-0.047,0.359-0.07,0.721-0.071,1.084v88.642
				c-4.386,16.398-11.823,31.823-21.921,45.467c-1.9,2.577-2.918,5.698-2.904,8.9v15.391c-0.134,11.798,6.302,22.692,16.7,28.267
				l53.508,30.7c14.129,7.584,22.928,22.339,22.884,38.375l0,19.458H127.998L128,354.733z M238.933,209.067
				c0.003-2.355,1.912-4.264,4.267-4.267h17.067c2.355,0.003,4.264,1.912,4.267,4.267v8.533c-0.003,2.355-1.912,4.264-4.267,4.267
				H243.2c-2.355-0.003-4.264-1.912-4.267-4.267V209.067z M384,494.933H128c0.011-9.421,7.645-17.056,17.067-17.067h221.867
				C376.355,477.877,383.989,485.512,384,494.933z M315.733,460.8H196.267v-17.067h119.467V460.8z M469.333,426.667H42.667
				c-13.728,0.373-25.173-10.424-25.6-24.15v-9.983h477.867v9.983C494.506,416.243,483.061,427.04,469.333,426.667z"/>
		</g>
	</g>
</g>
<g>
</g>
<g>
</g>
<g>
</g>
<g>
</g>
<g>
</g>
<g>
</g>
<g>
</g>
<g>
</g>
<g>
</g>
<g>
</g>
<g>
</g>
<g>
</g>
<g>
</g>
<g>
</g>
<g>
</g>
</svg>
