<?xml version="1.0" encoding="iso-8859-1"?>
<!-- Generator: Adobe Illustrator 19.0.0, SVG Export Plug-In . SVG Version: 6.00 Build 0)  -->
<svg version="1.1" id="Capa_1" xmlns="http://www.w3.org/2000/svg" xmlns:xlink="http://www.w3.org/1999/xlink" x="0px" y="0px"
	 viewBox="0 0 512.001 512.001" style="enable-background:new 0 0 512.001 512.001;" xml:space="preserve">
<g>
	<g transform="translate(1 1)">
		<g>
			<path style="fill:#A4C2F7;" d="M24.601,7.534h460.8c9.426,0,17.067,7.641,17.067,17.067v460.8
				c0,9.426-7.641,17.067-17.067,17.067h-460.8c-9.426,0-17.067-7.641-17.067-17.067V24.6C7.534,15.175,15.175,7.534,24.601,7.534z"
				/>
			<path style="fill:#A4C2F7;" d="M502.467,24.6v51.2H7.534V24.6c0.028-9.414,7.652-17.039,17.067-17.067h460.8
				C494.815,7.561,502.44,15.186,502.467,24.6z"/>
		</g>
		<path style="fill:#D4E1F4;" d="M24.601,7.534h435.2c9.426,0,17.067,7.641,17.067,17.067v460.8c0,9.426-7.641,17.067-17.067,17.067
			h-435.2c-9.426,0-17.067-7.641-17.067-17.067V24.6C7.534,15.175,15.175,7.534,24.601,7.534z"/>
		<g>
			<path style="fill:#E3E7F2;" d="M476.867,24.6v51.2H7.534V24.6c0.028-9.414,7.652-17.039,17.067-17.067h435.2
				C469.215,7.561,476.84,15.186,476.867,24.6z"/>
			<circle style="fill:#E3E7F2;" cx="417.134" cy="391.534" r="25.6"/>
			<path style="fill:#E3E7F2;" d="M459.801,459.8c0.848-11.555-3.374-22.907-11.567-31.1c-8.193-8.193-19.545-12.415-31.1-11.567
				c-11.555-0.848-22.907,3.374-31.1,11.567c-8.193,8.193-12.415,19.545-11.567,31.1H459.801z"/>
			<path style="fill:#E3E7F2;" d="M50.201,383v68.267c0.014,4.707,3.826,8.519,8.533,8.533h247.467
				c4.707-0.014,8.519-3.826,8.533-8.533v-8.533l34.133-25.6l-34.133-25.6V383c-0.014-4.707-3.826-8.519-8.533-8.533H58.734
				C54.027,374.481,50.215,378.293,50.201,383z"/>
			<circle style="fill:#E3E7F2;" cx="92.867" cy="135.534" r="25.6"/>
			<path style="fill:#E3E7F2;" d="M50.201,203.8c-0.848-11.555,3.374-22.907,11.567-31.1s19.545-12.415,31.1-11.567
				c11.555-0.848,22.907,3.374,31.1,11.567s12.415,19.545,11.567,31.1H50.201z"/>
		</g>
		<path style="fill:#A4C2F7;" d="M459.801,127v68.267c-0.014,4.707-3.826,8.519-8.533,8.533H203.801
			c-4.707-0.014-8.519-3.826-8.533-8.533v-8.533l-34.133-25.6l34.133-25.6V127c0.014-4.707,3.826-8.519,8.533-8.533h247.467
			C455.974,118.481,459.787,122.293,459.801,127z"/>
		<g>
			<circle style="fill:#E3E7F2;" cx="92.867" cy="263.534" r="25.6"/>
			<path style="fill:#E3E7F2;" d="M50.201,331.8c-0.848-11.555,3.374-22.907,11.567-31.1c8.193-8.193,19.545-12.415,31.1-11.567
				c11.555-0.848,22.907,3.374,31.1,11.567c8.193,8.193,12.415,19.545,11.567,31.1H50.201z"/>
		</g>
		<path style="fill:#A4C2F7;" d="M459.801,255v68.267c-0.014,4.707-3.826,8.519-8.533,8.533H203.801
			c-4.707-0.014-8.519-3.826-8.533-8.533v-8.533l-34.133-25.6l34.133-25.6V255c0.014-4.707,3.826-8.519,8.533-8.533h247.467
			C455.974,246.481,459.787,250.293,459.801,255z"/>
		<g>
			<path style="fill:#E3E7F2;" d="M434.201,127v68.267c-0.014,4.707-3.826,8.519-8.533,8.533H203.801
				c-4.707-0.014-8.519-3.826-8.533-8.533v-8.533l-34.133-25.6l34.133-25.6V127c0.014-4.707,3.826-8.519,8.533-8.533h221.867
				C430.374,118.481,434.187,122.293,434.201,127z"/>
			<path style="fill:#E3E7F2;" d="M434.201,255v68.267c-0.014,4.707-3.826,8.519-8.533,8.533H203.801
				c-4.707-0.014-8.519-3.826-8.533-8.533v-8.533l-34.133-25.6l34.133-25.6V255c0.014-4.707,3.826-8.519,8.533-8.533h221.867
				C430.374,246.481,434.187,250.293,434.201,255z"/>
		</g>
		<path style="fill:#FFFFFF;" d="M24.601,502.467h25.6c-9.414-0.028-17.039-7.653-17.067-17.067V24.6
			c0.028-9.414,7.652-17.039,17.067-17.067h-25.6C15.186,7.561,7.562,15.186,7.534,24.6v460.8
			C7.562,494.815,15.187,502.439,24.601,502.467z"/>
	</g>
	<g>
		<polygon style="fill:#FFFFFF;" points="0.001,486.4 0.001,375.467 0.001,25.6 17.067,25.6 17.067,375.467 17.067,486.4 		"/>
		<g>
			<path style="fill:#428DFF;" d="M5.292,425.988c0.484,0.246,1.002,0.417,1.537,0.509c0.563,0.096,1.133,0.153,1.704,0.171
				c2.259-0.031,4.423-0.915,6.059-2.475c3.221-3.397,3.221-8.72,0-12.117c-0.815-0.771-1.77-1.379-2.813-1.792
				c-1.027-0.438-2.13-0.67-3.246-0.683c-2.259,0.034-4.422,0.918-6.059,2.475c-3.3,3.365-3.3,8.752,0,12.117l1.279,1.025
				C4.231,425.541,4.748,425.801,5.292,425.988z"/>
			<path style="fill:#428DFF;" d="M486.401,0h-460.8C11.469,0.016,0.016,11.468,0.001,25.6V384c0,4.713,3.821,8.533,8.533,8.533
				s8.533-3.82,8.533-8.533V85.334h477.867V486.4c-0.005,4.711-3.822,8.529-8.533,8.533h-460.8
				c-4.711-0.005-8.529-3.822-8.533-8.533v-34.133c0-4.713-3.821-8.533-8.533-8.533s-8.533,3.82-8.533,8.533V486.4
				c0.015,14.132,11.468,25.585,25.6,25.6h460.8c14.132-0.015,25.585-11.468,25.6-25.6V25.6C511.985,11.468,500.533,0.016,486.401,0
				z M17.067,68.267V25.6c0.005-4.711,3.822-8.529,8.533-8.533h460.8c4.711,0.005,8.529,3.822,8.533,8.533v42.667H17.067z"/>
			<path style="fill:#428DFF;" d="M68.267,34.134H51.201c-4.713,0-8.533,3.821-8.533,8.533s3.821,8.533,8.533,8.533h17.067
				c4.713,0,8.533-3.821,8.533-8.533S72.98,34.134,68.267,34.134z"/>
			<path style="fill:#428DFF;" d="M460.801,34.134h-17.067c-4.713,0-8.533,3.821-8.533,8.533s3.82,8.533,8.533,8.533h17.067
				c4.713,0,8.533-3.821,8.533-8.533S465.514,34.134,460.801,34.134z"/>
			<path style="fill:#428DFF;" d="M375.467,34.134H136.534c-4.713,0-8.533,3.821-8.533,8.533s3.821,8.533,8.533,8.533h238.933
				c4.713,0,8.533-3.821,8.533-8.533S380.18,34.134,375.467,34.134z"/>
			<path style="fill:#428DFF;" d="M366.934,460.8c-0.001,2.263,0.898,4.434,2.499,6.035c1.6,1.6,3.771,2.499,6.035,2.499h85.333
				c2.263,0.001,4.434-0.898,6.035-2.499c1.6-1.6,2.499-3.771,2.499-6.035c0.951-18.923-9.237-36.657-26.063-45.368
				c12.499-13.606,11.903-34.688-1.345-47.567c-13.248-12.879-34.338-12.879-47.586,0c-13.248,12.879-13.844,33.96-1.345,47.567
				C376.171,424.143,365.983,441.878,366.934,460.8z M401.067,392.534c0-9.426,7.641-17.067,17.067-17.067
				s17.067,7.641,17.067,17.067S427.56,409.6,418.134,409.6C408.713,409.59,401.078,401.955,401.067,392.534z M418.134,426.667
				c16.14-1.616,30.755,9.593,33.379,25.6h-66.758C387.379,436.26,401.994,425.051,418.134,426.667z"/>
			<path style="fill:#428DFF;" d="M42.667,452.267c0.011,9.421,7.645,17.056,17.067,17.067h247.467
				c9.421-0.011,17.056-7.645,17.067-17.067V448l30.721-23.042c2.148-1.611,3.412-4.14,3.412-6.825c0-2.685-1.264-5.214-3.412-6.825
				l-30.721-23.042V384c-0.011-9.421-7.645-17.056-17.067-17.067H59.734c-9.421,0.011-17.056,7.645-17.067,17.067V452.267z
				 M59.734,384h247.467v8.533c-0.001,2.685,1.263,5.214,3.412,6.825l25.033,18.775l-25.033,18.775
				c-2.149,1.611-3.413,4.139-3.412,6.825v8.533H59.734V384z"/>
			<path style="fill:#428DFF;" d="M42.667,204.8c-0.001,2.263,0.898,4.434,2.499,6.035c1.6,1.6,3.771,2.499,6.035,2.499h85.333
				c2.263,0.001,4.434-0.898,6.035-2.499c1.6-1.6,2.499-3.771,2.499-6.035c0.951-18.923-9.237-36.657-26.063-45.368
				c12.499-13.606,11.903-34.688-1.345-47.567s-34.338-12.879-47.586,0s-13.844,33.96-1.345,47.567
				C51.905,168.143,41.717,185.878,42.667,204.8z M76.801,136.534c0-9.426,7.641-17.067,17.067-17.067s17.067,7.641,17.067,17.067
				c0,9.426-7.641,17.067-17.067,17.067C84.446,153.59,76.811,145.955,76.801,136.534z M93.867,170.667
				c16.14-1.616,30.755,9.593,33.379,25.6H60.488C63.112,180.26,77.728,169.051,93.867,170.667z"/>
			<path style="fill:#428DFF;" d="M204.801,213.334h247.467c9.421-0.011,17.056-7.645,17.067-17.067V128
				c-0.011-9.421-7.645-17.056-17.067-17.067H204.801c-9.421,0.011-17.056,7.645-17.067,17.067v4.267l-30.721,23.042
				c-2.148,1.611-3.412,4.14-3.412,6.825s1.264,5.214,3.412,6.825L187.734,192v4.267
				C187.745,205.688,195.38,213.323,204.801,213.334z M176.355,162.134l25.033-18.775c2.149-1.61,3.413-4.139,3.412-6.825V128
				l247.467,0.025v68.242H204.801v-8.533c0.001-2.686-1.263-5.214-3.412-6.825L176.355,162.134z"/>
			<path style="fill:#428DFF;" d="M51.201,341.334h85.333c2.263,0.001,4.434-0.898,6.035-2.499c1.6-1.6,2.499-3.771,2.499-6.035
				c0.951-18.923-9.237-36.657-26.063-45.368c12.499-13.606,11.903-34.688-1.345-47.567c-13.248-12.879-34.338-12.879-47.586,0
				c-13.248,12.879-13.844,33.96-1.345,47.567c-16.825,8.711-27.013,26.445-26.063,45.368c-0.001,2.263,0.898,4.434,2.499,6.035
				C46.766,340.435,48.937,341.334,51.201,341.334z M76.801,264.534c0-9.426,7.641-17.067,17.067-17.067s17.067,7.641,17.067,17.067
				c0,9.426-7.641,17.067-17.067,17.067C84.446,281.59,76.811,273.955,76.801,264.534z M93.867,298.667
				c16.14-1.616,30.755,9.593,33.379,25.6H60.488C63.112,308.26,77.728,297.051,93.867,298.667z"/>
			<path style="fill:#428DFF;" d="M157.013,296.959L187.734,320v4.267c0.011,9.421,7.645,17.056,17.067,17.067h247.467
				c9.421-0.011,17.056-7.645,17.067-17.067V256c-0.011-9.421-7.645-17.056-17.067-17.067H204.801
				c-9.421,0.011-17.056,7.645-17.067,17.067v4.267l-30.721,23.042c-2.148,1.611-3.412,4.14-3.412,6.825
				C153.601,292.819,154.865,295.348,157.013,296.959z M201.388,271.359c2.149-1.61,3.413-4.139,3.412-6.825V256l247.467,0.025
				v68.242H204.801v-8.533c0.001-2.685-1.263-5.214-3.412-6.825l-25.033-18.775L201.388,271.359z"/>
		</g>
	</g>
</g>
<g>
</g>
<g>
</g>
<g>
</g>
<g>
</g>
<g>
</g>
<g>
</g>
<g>
</g>
<g>
</g>
<g>
</g>
<g>
</g>
<g>
</g>
<g>
</g>
<g>
</g>
<g>
</g>
<g>
</g>
</svg>
