<?xml version="1.0" encoding="iso-8859-1"?>
<!-- Generator: Adobe Illustrator 19.0.0, SVG Export Plug-In . SVG Version: 6.00 Build 0)  -->
<svg version="1.1" id="Capa_1" xmlns="http://www.w3.org/2000/svg" xmlns:xlink="http://www.w3.org/1999/xlink" x="0px" y="0px"
	 viewBox="0 0 512.015 512.015" style="enable-background:new 0 0 512.015 512.015;" xml:space="preserve">
<g>
	<g transform="translate(1 1)">
		<path style="fill:#A4C2F7;" d="M24.601,7.541h375.467c9.426,0,17.067,7.641,17.067,17.067v460.8
			c0,9.426-7.641,17.067-17.067,17.067H24.601c-9.426,0-17.067-7.641-17.067-17.067v-460.8C7.534,15.182,15.175,7.541,24.601,7.541z
			"/>
		<path style="fill:#D4E1F4;" d="M24.601,7.541h349.867c9.426,0,17.067,7.641,17.067,17.067v460.8
			c0,9.426-7.641,17.067-17.067,17.067H24.601c-9.426,0-17.067-7.641-17.067-17.067v-460.8C7.534,15.182,15.175,7.541,24.601,7.541z
			"/>
		<path style="fill:#A4C2F7;" d="M50.201,109.941h324.267c4.713,0,8.533,3.82,8.533,8.533v68.267c0,4.713-3.821,8.533-8.533,8.533
			H50.201c-4.713,0-8.533-3.821-8.533-8.533v-68.267C41.667,113.761,45.488,109.941,50.201,109.941z"/>
		<g>
			<path style="fill:#E3E7F2;" d="M50.201,109.941h298.667c4.713,0,8.533,3.82,8.533,8.533v68.267c0,4.713-3.82,8.533-8.533,8.533
				H50.201c-4.713,0-8.533-3.821-8.533-8.533v-68.267C41.667,113.761,45.488,109.941,50.201,109.941z"/>
			<path style="fill:#E3E7F2;" d="M263.534,417.141H50.201c-4.707,0.014-8.52,3.826-8.533,8.533v34.133
				c0.014,4.707,3.826,8.52,8.533,8.533h238.933L263.534,417.141z"/>
			<path style="fill:#E3E7F2;" d="M365.934,229.408H229.401c-4.713,0-8.533,3.821-8.533,8.533v51.2c0,4.713,3.821,8.533,8.533,8.533
				h68.267L365.934,229.408z"/>
			<path style="fill:#E3E7F2;" d="M50.201,229.408h128c4.713,0,8.533,3.821,8.533,8.533v136.533c0,4.713-3.821,8.533-8.533,8.533
				h-128c-4.713,0-8.533-3.82-8.533-8.533V237.941C41.667,233.228,45.488,229.408,50.201,229.408z"/>
		</g>
		<path style="fill:#A4C2F7;" d="M417.134,24.608v51.2H7.534v-51.2c0.028-9.414,7.652-17.039,17.067-17.067h375.467
			C409.482,7.568,417.107,15.193,417.134,24.608z"/>
		<path style="fill:#E3E7F2;" d="M391.534,24.608v51.2h-384v-51.2c0.028-9.414,7.652-17.039,17.067-17.067h349.867
			C383.882,7.568,391.507,15.193,391.534,24.608z"/>
		<path style="fill:#7FABFA;" d="M502.467,365.941c0.01,36.214-14.372,70.948-39.979,96.555s-60.341,39.989-96.555,39.979
			c-4.274,0.018-8.546-0.182-12.8-0.597C282.997,495.271,229.4,436.389,229.4,365.941s53.597-129.33,123.734-135.936
			c4.254-0.416,8.526-0.615,12.8-0.597c36.214-0.01,70.948,14.371,96.555,39.979C488.096,294.993,502.477,329.727,502.467,365.941z"
			/>
		<ellipse style="fill:#A4C2F7;" cx="353.134" cy="365.941" rx="123.733" ry="135.936"/>
		<g>
			<path style="fill:#E3E7F2;" d="M331.801,365.941c-0.018,4.871,1.061,9.683,3.157,14.08l-54.528,24.747
				c-11.15-24.684-11.15-52.97,0-77.653l54.528,24.747C332.862,356.258,331.783,361.07,331.801,365.941z"/>
			<path style="fill:#E3E7F2;" d="M404.761,451.445c-24.684,11.151-52.97,11.151-77.653,0l24.747-54.528
				c8.915,4.21,19.245,4.21,28.16,0L404.761,451.445z"/>
			<path style="fill:#E3E7F2;" d="M459.801,365.941c0.016,13.391-2.836,26.63-8.363,38.827l-54.528-24.747
				c4.21-8.915,4.21-19.245,0-28.16l54.528-24.747C456.965,339.311,459.817,352.55,459.801,365.941z"/>
		</g>
		<g>
			<path style="fill:#FFFFFF;" d="M327.107,280.437l24.747,54.528c-7.529,3.347-13.549,9.367-16.896,16.896l-54.528-24.747
				C289.848,306.433,306.426,289.854,327.107,280.437z"/>
			<path style="fill:#FFFFFF;" d="M351.854,396.917l-24.747,54.528c-20.681-9.418-37.26-25.996-46.677-46.677l54.528-24.747
				C338.305,387.55,344.325,393.57,351.854,396.917z"/>
			<path style="fill:#FFFFFF;" d="M396.91,380.021l54.528,24.747c-9.418,20.681-25.996,37.26-46.677,46.677l-24.747-54.528
				C387.543,393.57,393.563,387.55,396.91,380.021z"/>
			<path style="fill:#FFFFFF;" d="M380.014,334.965l24.747-54.528c20.681,9.418,37.26,25.996,46.677,46.677l-54.528,24.747
				C393.563,344.332,387.543,338.312,380.014,334.965z"/>
		</g>
		<path style="fill:#E3E7F2;" d="M404.761,280.437l-24.747,54.528c-8.915-4.21-19.245-4.21-28.16,0l-24.747-54.528
			C351.791,269.287,380.077,269.287,404.761,280.437z"/>
		<path style="fill:#FFFFFF;" d="M24.601,502.474h25.6c-9.414-0.028-17.039-7.652-17.067-17.067v-460.8
			c0.028-9.414,7.652-17.039,17.067-17.067h-25.6C15.186,7.568,7.562,15.193,7.534,24.608v460.8
			C7.562,494.822,15.187,502.447,24.601,502.474z"/>
	</g>
	<g>
		<polygon style="fill:#FFFFFF;" points="0.001,486.408 0.001,375.474 0.001,25.608 17.067,25.608 17.067,375.474 17.067,486.408 		
			"/>
		<g>
			<path style="fill:#428DFF;" d="M5.292,425.995c0.484,0.246,1.002,0.417,1.537,0.508c0.563,0.096,1.133,0.153,1.704,0.171
				c2.259-0.031,4.423-0.915,6.059-2.475c3.221-3.397,3.221-8.72,0-12.117c-0.815-0.771-1.77-1.379-2.813-1.792
				c-1.027-0.438-2.13-0.67-3.246-0.683c-2.259,0.034-4.422,0.918-6.059,2.475c-3.3,3.365-3.3,8.752,0,12.117l1.279,1.025
				C4.231,425.549,4.748,425.808,5.292,425.995z"/>
			<path style="fill:#428DFF;" d="M68.267,34.141H51.201c-4.713,0-8.533,3.821-8.533,8.533s3.821,8.533,8.533,8.533h17.067
				c4.713,0,8.533-3.821,8.533-8.533S72.98,34.141,68.267,34.141z"/>
			<path style="fill:#428DFF;" d="M375.467,34.141h-17.067c-4.713,0-8.533,3.821-8.533,8.533s3.82,8.533,8.533,8.533h17.067
				c4.713,0,8.533-3.821,8.533-8.533S380.18,34.141,375.467,34.141z"/>
			<path style="fill:#428DFF;" d="M290.134,34.141h-153.6c-4.713,0-8.533,3.821-8.533,8.533s3.821,8.533,8.533,8.533h153.6
				c4.713,0,8.533-3.821,8.533-8.533S294.847,34.141,290.134,34.141z"/>
			<path style="fill:#428DFF;" d="M426.667,234.894V25.608c-0.015-14.132-11.468-25.585-25.6-25.6H25.601
				c-14.132,0.015-25.585,11.468-25.6,25.6v358.4c0,4.713,3.821,8.533,8.533,8.533s8.533-3.821,8.533-8.533V85.341h392.533v142.957
				c-13.821-4.264-28.203-6.429-42.667-6.423H230.401c-9.421,0.011-17.056,7.645-17.067,17.067v51.2
				c0.011,9.421,7.645,17.056,17.067,17.067h4.486c-14.689,32.168-17.037,68.614-6.596,102.4H51.201
				c-9.421,0.011-17.056,7.645-17.067,17.067v34.133c0.011,9.421,7.645,17.056,17.067,17.067h222.447
				c7.77,6.552,16.204,12.272,25.165,17.067H25.601c-4.711-0.005-8.529-3.822-8.533-8.533v-34.133c0-4.713-3.821-8.533-8.533-8.533
				s-8.533,3.821-8.533,8.533v34.133c0.015,14.132,11.468,25.585,25.6,25.6h341.333c68.33,0.043,127.414-47.631,141.812-114.426
				S488.947,263.004,426.667,234.894z M17.067,68.274V25.608c0.005-4.711,3.822-8.529,8.533-8.533h375.467
				c4.711,0.005,8.529,3.822,8.533,8.533v42.667H17.067z M230.401,290.141v-51.2h68.412c-22.386,12.014-41.248,29.662-54.722,51.2
				H230.401z M51.201,426.674h183.686c5.588,12.33,12.872,23.819,21.641,34.133H51.201V426.674z M366.934,494.941
				c-70.692,0-128-57.308-128-128s57.308-128,128-128s128,57.308,128,128C494.855,437.601,437.594,494.862,366.934,494.941z"/>
			<path style="fill:#428DFF;" d="M51.201,204.808h324.267c9.421-0.011,17.056-7.645,17.067-17.067v-68.267
				c-0.011-9.421-7.645-17.056-17.067-17.067H51.201c-9.421,0.011-17.056,7.645-17.067,17.067v68.267
				C34.145,197.162,41.779,204.797,51.201,204.808z M51.201,119.474h324.267l0.012,68.267H51.201V119.474z"/>
			<path style="fill:#428DFF;" d="M34.134,375.474c0.011,9.421,7.645,17.056,17.067,17.067h128
				c9.421-0.011,17.056-7.645,17.067-17.067V238.941c-0.011-9.421-7.645-17.056-17.067-17.067h-128
				c-9.421,0.011-17.056,7.645-17.067,17.067V375.474z M51.201,238.941h128l0.012,136.533H51.201V238.941z"/>
			<path style="fill:#428DFF;" d="M459.743,323.945c-10.23-21.959-27.881-39.604-49.843-49.827
				c-0.225-0.128-0.375-0.334-0.615-0.443c-0.192-0.088-0.395-0.065-0.59-0.138c-26.549-11.994-56.973-11.994-83.521,0.001
				c-0.194,0.072-0.397,0.049-0.589,0.137c-0.24,0.109-0.39,0.316-0.615,0.443c-21.961,10.222-39.611,27.866-49.842,49.823
				c-0.167,0.209-0.323,0.426-0.468,0.65c-0.091,0.2-0.067,0.411-0.141,0.614c-11.979,26.535-11.979,56.938,0,83.473
				c0.074,0.202,0.051,0.414,0.141,0.614c0.182,0.331,0.388,0.649,0.614,0.952c10.252,21.82,27.841,39.347,49.696,49.522
				c0.224,0.128,0.374,0.334,0.614,0.443c0.179,0.082,0.371,0.051,0.553,0.12c26.569,12.017,57.025,12.017,83.594,0
				c0.182-0.069,0.374-0.038,0.553-0.12c0.24-0.108,0.39-0.315,0.614-0.443c21.856-10.175,39.445-27.702,49.696-49.522
				c0.227-0.303,0.432-0.621,0.614-0.952c0.091-0.2,0.067-0.411,0.141-0.614c11.979-26.535,11.979-56.938,0-83.473
				c-0.074-0.202-0.051-0.414-0.141-0.614C460.065,324.368,459.909,324.152,459.743,323.945z M377.488,390.149
				c-0.113,0.051-0.18,0.153-0.29,0.209c-6.534,2.911-13.996,2.91-20.53-0.001c-0.109-0.055-0.176-0.157-0.289-0.208
				c-0.054-0.025-0.111-0.016-0.166-0.039c-5.485-2.551-9.893-6.957-12.445-12.442c-0.024-0.055-0.014-0.115-0.039-0.17
				c-0.053-0.116-0.157-0.184-0.214-0.296c-2.865-6.453-2.91-13.808-0.124-20.295c0.102-0.186,0.249-0.33,0.339-0.525
				c0.025-0.055,0.015-0.115,0.039-0.171c2.554-5.487,6.964-9.895,12.453-12.445c0.051-0.022,0.107-0.011,0.158-0.034
				c0.114-0.051,0.181-0.154,0.291-0.21c6.532-2.909,13.992-2.909,20.525-0.001c0.111,0.056,0.178,0.159,0.292,0.211
				c0.051,0.024,0.107,0.013,0.159,0.035c5.488,2.55,9.898,6.957,12.451,12.443c0.024,0.056,0.014,0.116,0.04,0.172
				c0.09,0.198,0.24,0.343,0.342,0.531c2.78,6.484,2.736,13.832-0.124,20.282c-0.058,0.115-0.165,0.185-0.219,0.304
				c-0.025,0.056-0.016,0.115-0.04,0.171c-2.552,5.484-6.96,9.89-12.445,12.441C377.6,390.134,377.542,390.125,377.488,390.149
				L377.488,390.149z M281.601,366.941c0.015-9.29,1.556-18.514,4.561-27.305l39.258,17.806c-1.535,6.239-1.535,12.758,0,18.997
				l-39.257,17.806C283.157,385.455,281.616,376.231,281.601,366.941z M408.449,357.442l39.257-17.806
				c6.081,17.695,6.081,36.914,0,54.609l-39.257-17.806C409.984,370.2,409.984,363.682,408.449,357.442z M440.617,324.105
				l-39.283,17.824c-2.625-3.6-5.794-6.769-9.394-9.393l17.827-39.28C422.536,300.711,433.163,311.337,440.617,324.105
				L440.617,324.105z M394.242,286.17l-17.816,39.255c-6.236-1.533-12.75-1.533-18.985,0l-17.816-39.255
				C357.323,280.087,376.545,280.087,394.242,286.17z M324.1,293.255l17.827,39.28c-3.6,2.624-6.769,5.793-9.394,9.393
				l-39.283-17.824C300.705,311.337,311.332,300.711,324.1,293.255L324.1,293.255z M293.25,409.777l39.283-17.824
				c2.625,3.6,5.794,6.769,9.394,9.393l-17.827,39.28C311.332,433.171,300.705,422.545,293.25,409.777z M339.626,447.712
				l17.816-39.255c6.236,1.533,12.75,1.533,18.985,0l17.816,39.255C376.545,453.795,357.323,453.795,339.626,447.712z
				 M409.768,440.626l-17.827-39.28c3.6-2.624,6.769-5.793,9.394-9.393l39.283,17.824
				C433.163,422.545,422.536,433.171,409.768,440.626L409.768,440.626z"/>
		</g>
	</g>
</g>
<g>
</g>
<g>
</g>
<g>
</g>
<g>
</g>
<g>
</g>
<g>
</g>
<g>
</g>
<g>
</g>
<g>
</g>
<g>
</g>
<g>
</g>
<g>
</g>
<g>
</g>
<g>
</g>
<g>
</g>
</svg>
