<?xml version="1.0" encoding="iso-8859-1"?>
<!-- Generator: Adobe Illustrator 19.0.0, SVG Export Plug-In . SVG Version: 6.00 Build 0)  -->
<svg version="1.1" id="Capa_1" xmlns="http://www.w3.org/2000/svg" xmlns:xlink="http://www.w3.org/1999/xlink" x="0px" y="0px"
	 viewBox="0 0 512 512" style="enable-background:new 0 0 512 512;" xml:space="preserve">
<g transform="translate(0 -1)">
	<g>
		<path style="fill:#E3E7F2;" d="M495.969,16.871c9.997,9.997,9.997,26.207,0,36.204l-76.8,76.8l-36.204-36.204l76.8-76.8
			C469.762,6.873,485.971,6.873,495.969,16.871z"/>
		<path style="fill:#7FABFA;" d="M432.896,130.97l-2.304,4.608c-12.651,25.27-21.15,52.412-25.173,80.384
			c-4.608,4.608-13.824,3.67-25.429-1.536c-5.304-2.446-10.411-5.299-15.275-8.533c-9.064-5.968-17.575-12.736-25.429-20.224
			c-2.133-1.792-4.181-3.84-6.229-5.888c-1.877-1.877-3.669-3.669-5.376-5.632c-0.092-0.006-0.164-0.079-0.171-0.171
			c-0.085-0.171-0.256-0.256-0.341-0.427c-7.488-7.855-14.257-16.365-20.225-25.429c-3.234-4.864-6.087-9.971-8.533-15.275
			c-5.205-11.605-6.144-20.821-1.535-25.429c27.972-4.023,55.113-12.523,80.383-25.173l4.608-2.304
			c3.284-1.592,7.216-0.943,9.813,1.621l39.595,39.595C433.85,123.748,434.501,127.687,432.896,130.97z"/>
		<path style="fill:#E3E7F2;" d="M414.635,113.562l-2.304,4.523c-12.65,25.27-21.15,52.412-25.174,80.384
			c-4.607,4.608-13.824,3.669-25.429-1.536c-5.304-2.446-10.411-5.299-15.275-8.533c-6.579-4.312-12.851-9.074-18.773-14.251
			c-0.092-0.006-0.164-0.079-0.171-0.171c-0.085-0.171-0.256-0.256-0.341-0.427c-7.488-7.855-14.257-16.365-20.225-25.429
			c-3.234-4.864-6.087-9.971-8.533-15.275c-5.205-11.605-6.144-20.821-1.535-25.429c27.972-4.023,55.113-12.523,80.383-25.173
			l4.608-2.304c2.308-1.136,5.005-1.167,7.339-0.085l23.808,23.808C415.59,106.289,416.239,110.251,414.635,113.562z"/>
		<path style="fill:#A4C2F7;" d="M179.2,162.97c-4.352,0-8.619,0.171-12.8,0.512C77.363,170.159,8.529,244.349,8.529,333.636
			S77.363,497.113,166.4,503.791c4.181,0.341,8.448,0.512,12.8,0.512c94.257,0,170.667-76.41,170.667-170.667
			S273.457,162.97,179.2,162.97z M179.2,316.57c9.426,0,17.067,7.641,17.067,17.067c0,9.426-7.641,17.067-17.067,17.067
			c-9.426,0-17.067-7.641-17.067-17.067C162.133,324.211,169.774,316.57,179.2,316.57z"/>
		<path style="fill:#E3E7F2;" d="M166.4,163.482C77.363,170.159,8.529,244.349,8.529,333.636S77.363,497.113,166.4,503.791
			c89.037-6.678,157.871-80.867,157.871-170.155S255.437,170.159,166.4,163.482z M179.2,350.703c-4.922,0-9.597-2.151-12.8-5.888
			c-3.203,3.737-7.878,5.888-12.8,5.888c-9.426,0-17.067-7.641-17.067-17.067c0-9.426,7.641-17.067,17.067-17.067
			c4.922,0,9.597,2.151,12.8,5.888c3.203-3.737,7.878-5.888,12.8-5.888c9.426,0,17.067,7.641,17.067,17.067
			C196.267,343.062,188.626,350.703,179.2,350.703z"/>
		<path style="fill:#D4E1F4;" d="M179.2,282.436c-4.323-0.001-8.628,0.573-12.8,1.707c-22.602,5.818-38.4,26.197-38.4,49.536
			s15.798,43.718,38.4,49.536c4.184,1.064,8.483,1.608,12.8,1.621c28.277,0,51.2-22.923,51.2-51.2
			C230.4,305.359,207.477,282.436,179.2,282.436z M162.133,333.636c0.097-9.385,7.681-16.97,17.067-17.067
			c9.426,0,17.067,7.641,17.067,17.067c0,9.426-7.641,17.067-17.067,17.067C169.815,350.606,162.23,343.022,162.133,333.636z"/>
		<g>
			<polygon style="fill:#E3E7F2;" points="179.2,162.97 164.113,135.39 136.533,120.303 164.113,105.216 179.2,77.636 
				194.287,105.216 221.867,120.303 194.287,135.39 			"/>
			<polygon style="fill:#E3E7F2;" points="392.533,376.303 377.446,348.723 349.867,333.636 377.446,318.549 392.533,290.97 
				407.62,318.549 435.2,333.636 407.62,348.723 			"/>
			<polygon style="fill:#E3E7F2;" points="264.533,299.503 252.467,277.436 230.4,265.37 252.467,253.304 264.533,231.236 
				276.6,253.304 298.667,265.37 276.6,277.436 			"/>
		</g>
	</g>
	<g transform="translate(0 13)">
		<path style="fill:#FFFFFF;" d="M166.4,490.791c4.181,0.341,8.448,0.512,12.8,0.512c4.059,0,8.035-0.328,12.024-0.607
			c-88.701-7.044-157.09-81.08-157.09-170.06s68.39-163.016,157.09-170.06c-3.989-0.279-7.965-0.607-12.024-0.607
			c-4.352,0-8.619,0.171-12.8,0.512C77.363,157.159,8.529,231.349,8.529,320.636S77.363,484.113,166.4,490.791z"/>
		<path style="fill:#FFFFFF;" d="M296.875,94.418c-4.608,4.608-3.669,13.824,1.535,25.429c2.446,5.304,5.299,10.411,8.533,15.275
			c5.968,9.064,12.737,17.574,20.225,25.429c0.084,0.171,0.255,0.256,0.341,0.427c0.006,0.092,0.079,0.164,0.171,0.171
			c1.707,1.963,3.499,3.755,5.376,5.632c2.048,2.048,4.096,4.096,6.229,5.888c7.855,7.488,16.365,14.256,25.429,20.224
			c4.864,3.235,9.97,6.087,15.275,8.533c11.605,5.205,20.821,6.144,25.429,1.536c0.072-0.502,0.201-0.992,0.276-1.493l-0.105-0.043
			c-5.304-2.446-10.411-5.299-15.275-8.533c-9.064-5.968-17.575-12.736-25.429-20.224c-2.133-1.792-4.181-3.84-6.229-5.888
			c-1.877-1.877-3.669-3.669-5.376-5.632c-0.092-0.006-0.164-0.079-0.171-0.171c-0.085-0.171-0.256-0.256-0.341-0.427
			c-7.488-7.855-14.257-16.365-20.225-25.429c-3.234-4.864-6.087-9.971-8.533-15.275c-5.205-11.605-6.144-20.821-1.535-25.429
			H296.875z"/>
	</g>
	<g transform="translate(0 1)">
		<path style="fill:#FFFFFF;" d="M0,332.636c0.249-98.866,80.334-178.951,179.2-179.2v17.067
			c-89.441,0.248-161.885,72.693-162.133,162.133H0z"/>
		<g>
			<path style="fill:#428DFF;" d="M3.564,297.029l-2.661,17.721L0,332.636c-0.045,96.229,75.953,175.298,172.109,179.063
				s178.103-69.12,185.582-165.059l13.468,7.371l13.892,25.383c1.494,2.738,4.364,4.442,7.483,4.442s5.989-1.704,7.483-4.442
				l13.892-25.383l25.383-13.891c2.738-1.494,4.442-4.364,4.442-7.483s-1.704-5.989-4.442-7.483l-25.383-13.892l-13.891-25.384
				c-1.626-2.561-4.449-4.113-7.483-4.113c-3.034,0-5.857,1.551-7.483,4.113l-13.892,25.383l-13.468,7.371
				c-6.984-87.788-76.699-157.503-164.487-164.486l7.371-13.468l25.383-13.891c2.738-1.494,4.442-4.364,4.442-7.483
				c0-3.119-1.704-5.989-4.442-7.483l-25.383-13.892l-13.891-25.384c-1.626-2.561-4.45-4.112-7.483-4.112
				c-3.034,0-5.857,1.551-7.483,4.112l-13.892,25.383l-25.383,13.892c-2.738,1.494-4.442,4.364-4.442,7.483s1.704,5.989,4.442,7.483
				l25.383,13.892l7.34,13.41c-50.855,4.048-97.576,29.573-128.458,70.18l-5.36,7.179c-2.665,3.887-1.675,9.199,2.212,11.864
				c3.887,2.665,9.199,1.675,11.864-2.212l4.861-6.489c48.121-63.031,134.812-81.933,204.804-44.655s102.684,119.763,77.234,194.868
				c-25.45,75.105-101.552,120.725-179.788,107.774c-78.235-12.951-135.577-80.66-135.468-159.96l0.819-16.203l2.407-16.031
				c0.941-4.474-1.843-8.885-6.286-9.961c-2.26-0.535-4.64-0.139-6.605,1.1C5.438,292.781,4.054,294.759,3.564,297.029z
				 M154.317,119.303l13.892-7.6c1.432-0.782,2.61-1.96,3.392-3.392l7.6-13.892l7.6,13.892c0.782,1.432,1.959,2.61,3.392,3.392
				l13.892,7.6l-13.892,7.6c-1.432,0.782-2.609,1.959-3.392,3.392l-7.6,13.892l-7.6-13.892c-0.782-1.432-1.96-2.609-3.392-3.392
				L154.317,119.303z M381.542,325.036c1.432-0.782,2.609-1.96,3.392-3.392l7.6-13.892l7.6,13.892
				c0.782,1.432,1.959,2.61,3.392,3.392l13.891,7.6l-13.892,7.6c-1.432,0.782-2.609,1.959-3.392,3.392l-7.6,13.892l-7.6-13.892
				c-0.782-1.432-1.96-2.609-3.392-3.392l-13.892-7.6L381.542,325.036z"/>
			<path style="fill:#428DFF;" d="M15.059,271.116c0.329,0.478,0.722,0.908,1.169,1.278c0.367,0.401,0.794,0.744,1.266,1.015
				c0.496,0.285,1.011,0.534,1.542,0.747c2.119,0.733,4.431,0.675,6.51-0.163c0.979-0.452,1.861-1.09,2.597-1.879
				c2.231-2.372,2.981-5.777,1.952-8.867c-0.422-1.025-1.028-1.964-1.786-2.771c-0.74-0.834-1.633-1.519-2.63-2.018
				c-2.061-0.966-4.418-1.084-6.566-0.33c-2.179,0.905-3.955,2.572-4.996,4.69c-0.801,2.221-0.762,4.659,0.109,6.853L15.059,271.116
				z"/>
			<path style="fill:#428DFF;" d="M453.733,9.836l-60.342,60.342c-2.594-2.597-6.559-3.242-9.842-1.6l-10.125,5.05
				c-24.449,12.238-50.716,20.444-77.783,24.3c-0.323,0.092-0.639,0.204-0.948,0.336c-1.137,0.256-2.193,0.787-3.075,1.548
				c-0.278,0.161-0.546,0.339-0.802,0.532c-0.206,0.206-0.331,0.456-0.525,0.668c-0.137,0.168-0.271,0.324-0.396,0.502
				c-14.523,17.155,8.695,54.879,37.121,83.305c22.425,22.425,50.667,41.675,70.017,41.675c5.019,0.171,9.916-1.568,13.702-4.867
				c0.15-0.119,0.298-0.225,0.44-0.354c0.1-0.095,0.219-0.156,0.317-0.255c0.171-0.23,0.329-0.468,0.475-0.715
				c0.784-0.855,1.329-1.901,1.58-3.033c0.146-0.35,0.266-0.71,0.361-1.077c3.857-27.07,12.063-53.339,24.3-77.792l5.05-10.117
				c1.643-3.283,0.999-7.249-1.6-9.842L502,58.103c6.403-6.399,10-15.081,10-24.133s-3.597-17.734-10-24.133
				C488.497-3.064,467.237-3.064,453.733,9.836z M422.942,130.778c-12.361,24.804-20.842,51.358-25.148,78.735
				c-5.449-0.271-10.758-1.812-15.504-4.502c1.851-8.027,4.121-15.952,6.802-23.741c0.994-2.882,0.376-6.075-1.623-8.378
				c-1.999-2.302-5.074-3.363-8.067-2.783s-5.449,2.712-6.444,5.594c-2.444,7.076-4.369,13.779-6.067,20.368
				c-7.647-5.247-14.887-11.064-21.659-17.401l17.983-17.983c3.332-3.332,3.332-8.735,0-12.067c-3.332-3.332-8.735-3.332-12.067,0
				l-17.983,17.983c-6.338-6.77-12.156-14.01-17.402-21.658c6.589-1.698,13.292-3.623,20.369-6.067
				c2.882-0.994,5.014-3.451,5.594-6.444s-0.481-6.068-2.783-8.067c-2.302-1.999-5.496-2.617-8.378-1.623
				c-7.789,2.68-15.713,4.951-23.74,6.802c-2.689-4.746-4.231-10.056-4.502-15.504c27.374-4.304,53.925-12.786,78.725-25.148
				l4.617-2.3l39.575,39.575L422.942,130.778z M489.933,46.036l-60.342,60.342l-24.133-24.133L465.8,21.903
				c6.752-6.45,17.382-6.45,24.133,0c3.201,3.2,5,7.54,5,12.067S493.135,42.837,489.933,46.036z"/>
			<path style="fill:#428DFF;" d="M179.2,187.57c-47.994,0.035-92.869,23.789-119.883,63.458c-2.656,3.894-1.652,9.203,2.241,11.859
				s9.203,1.652,11.859-2.241c23.834-35.009,63.432-55.974,105.783-56.009c4.713,0,8.533-3.821,8.533-8.533
				C187.733,191.39,183.913,187.57,179.2,187.57z"/>
			<path style="fill:#428DFF;" d="M52.158,281.861c-4.478-1.465-9.296,0.969-10.775,5.442c-0.975,2.975-1.861,5.992-2.658,9.05
				c-1.187,4.561,1.548,9.221,6.108,10.408c0.704,0.185,1.43,0.278,2.158,0.275c3.882-0.003,7.273-2.626,8.25-6.383
				c0.708-2.708,1.483-5.375,2.358-8.017c0.708-2.151,0.533-4.494-0.488-6.516C56.092,284.1,54.31,282.568,52.158,281.861z"/>
			<path style="fill:#428DFF;" d="M284.983,404.628c-23.834,35.008-63.432,55.974-105.783,56.008c-4.713,0-8.533,3.82-8.533,8.533
				s3.82,8.533,8.533,8.533c47.994-0.035,92.869-23.789,119.883-63.458c2.656-3.894,1.652-9.203-2.241-11.859
				S287.639,400.734,284.983,404.628L284.983,404.628z"/>
			<path style="fill:#428DFF;" d="M306.242,383.411c4.478,1.468,9.298-0.967,10.775-5.442c0.975-2.975,1.861-5.992,2.658-9.05
				c0.768-2.95-0.096-6.086-2.267-8.227c-2.171-2.14-5.319-2.96-8.258-2.15c-2.939,0.81-5.223,3.126-5.991,6.077
				c-0.708,2.708-1.483,5.375-2.358,8.017c-0.708,2.15-0.533,4.494,0.488,6.515C302.309,381.173,304.091,382.705,306.242,383.411z"
				/>
			<path style="fill:#428DFF;" d="M179.2,307.036c-14.138,0-25.6,11.462-25.6,25.6c0,14.138,11.462,25.6,25.6,25.6
				s25.6-11.462,25.6-25.6C204.785,318.504,193.332,307.052,179.2,307.036z M179.2,341.17c-4.713,0-8.533-3.82-8.533-8.533
				s3.82-8.533,8.533-8.533s8.533,3.821,8.533,8.533C187.73,337.348,183.912,341.167,179.2,341.17z"/>
			<path style="fill:#428DFF;" d="M179.2,272.903c-32.99,0-59.733,26.744-59.733,59.733S146.21,392.37,179.2,392.37
				s59.733-26.744,59.733-59.733C238.893,299.663,212.173,272.943,179.2,272.903z M179.2,375.303
				c-23.564,0-42.667-19.103-42.667-42.667c0-23.564,19.103-42.667,42.667-42.667s42.667,19.103,42.667,42.667
				C221.839,356.189,202.753,375.275,179.2,375.303z"/>
			<path style="fill:#428DFF;" d="M302.758,256.886l-19.867-10.875l-10.875-19.867c-1.626-2.561-4.45-4.112-7.483-4.112
				s-5.857,1.551-7.483,4.112l-10.875,19.867l-19.867,10.875c-2.738,1.494-4.442,4.364-4.442,7.483c0,3.119,1.704,5.989,4.442,7.483
				l19.867,10.875l10.875,19.867c1.494,2.738,4.364,4.442,7.483,4.442s5.989-1.704,7.483-4.442l10.875-19.867l19.866-10.875
				c2.738-1.494,4.442-4.364,4.442-7.483S305.496,258.381,302.758,256.886L302.758,256.886z M272.508,268.953
				c-1.432,0.782-2.609,1.959-3.392,3.392l-4.583,8.375l-4.583-8.375c-0.782-1.432-1.959-2.609-3.392-3.392l-8.375-4.583
				l8.375-4.583c1.432-0.782,2.609-1.959,3.392-3.392l4.583-8.375l4.583,8.375c0.782,1.432,1.959,2.609,3.392,3.392l8.375,4.583
				L272.508,268.953z"/>
		</g>
	</g>
</g>
<g>
</g>
<g>
</g>
<g>
</g>
<g>
</g>
<g>
</g>
<g>
</g>
<g>
</g>
<g>
</g>
<g>
</g>
<g>
</g>
<g>
</g>
<g>
</g>
<g>
</g>
<g>
</g>
<g>
</g>
</svg>
