<?xml version="1.0" encoding="iso-8859-1"?>
<!-- Generator: Adobe Illustrator 19.0.0, SVG Export Plug-In . SVG Version: 6.00 Build 0)  -->
<svg version="1.1" id="Capa_1" xmlns="http://www.w3.org/2000/svg" xmlns:xlink="http://www.w3.org/1999/xlink" x="0px" y="0px"
	 viewBox="0 0 512.103 512.103" style="enable-background:new 0 0 512.103 512.103;" xml:space="preserve">
<g transform="translate(-1 -1)">
	<g transform="translate(1 1)">
		<path style="fill:#D4E1F4;" d="M392.566,264.594v59.733c0,9.426,7.641,17.067,17.067,17.067c9.426,0,17.067-7.641,17.067-17.067
			v-59.733H392.566z"/>
		<path style="fill:#7FABFA;" d="M341.281,349.329c-0.427,3.328-4.437,6.059-6.827,7.851c-5.291,3.84-16.043,6.4-17.323,13.312
			c-0.726,3.509-0.307,7.158,1.195,10.411c3.669,7.509,7.68,11.605,4.864,13.909c-2.816,2.389-10.496,8.021-10.496,8.021
			s7.168,9.13,3.243,11.861c-5.035,3.499-11.349,5.12-13.056,11.691c-0.507,5.143,0.016,10.335,1.536,15.275
			c0.527,4.86-0.117,9.776-1.877,14.336c-2.53,9.173-11.771,14.785-21.077,12.8c-2.731-0.597-6.827-1.451-11.861-2.731
			c-11.093-2.731-26.709-6.912-43.093-12.288c-2.929,1.469-5.678,3.273-8.192,5.376c-12.436,12.431-21.737,27.64-27.136,44.373
			h-25.6l-139.947-0.171l-0.512-0.341c28.587-40.789,30.891-94.123,16.811-140.715c-2.774-10.423-6.905-20.435-12.288-29.781
			c-5.509-8.216-10.061-17.034-13.568-26.283c-6.616-18.285-8.923-37.851-6.741-57.173c4.142-38.697,24.918-73.677,56.917-95.829
			c21.086-13.637,45.269-21.737,70.315-23.552l9.813-0.085l24.32-0.085c21.95,1.798,43.607,6.21,64.512,13.141
			c15.125,4.483,28.923,12.598,40.192,23.637c10.976,11.463,19.485,25.055,25.003,39.936c2.543,7.343,4.624,14.839,6.229,22.443
			c2.649,8.359,5.901,16.516,9.728,24.405c1.036,2.422,1.503,5.049,1.365,7.68c-1.28,8.875-14.848,12.8-14.933,21.931
			c0.084,2.03,0.702,4.002,1.792,5.717c8.002,16.593,17.819,32.247,29.269,46.677C336.502,338.407,341.963,344.721,341.281,349.329z
			"/>
		<path style="fill:#E3E7F2;" d="M315.681,349.329c-0.427,3.328-4.437,6.059-6.827,7.851c-5.291,3.84-16.043,6.4-17.323,13.312
			c-0.726,3.509-0.307,7.158,1.195,10.411c3.669,7.509,7.68,11.605,4.864,13.909c-2.816,2.389-10.496,8.021-10.496,8.021
			s7.168,9.13,3.243,11.861c-5.035,3.499-11.349,5.12-13.056,11.691c-0.507,5.143,0.016,10.335,1.536,15.275
			c0.527,4.86-0.117,9.776-1.877,14.336c-1.364,4.025-3.924,7.539-7.339,10.069c-11.093-2.731-26.709-6.912-43.093-12.288
			c-2.929,1.469-5.678,3.273-8.192,5.376c-5.632-1.621-11.435-3.413-17.408-5.376c-23.125,11.264-35.328,49.749-35.328,49.749
			l-139.947-0.171l-0.512-0.341c28.587-40.789,30.891-94.123,16.811-140.715c-2.774-10.423-6.905-20.435-12.288-29.781
			c-5.509-8.216-10.061-17.034-13.568-26.283c-6.616-18.285-8.923-37.851-6.741-57.173c4.142-38.697,24.918-73.677,56.917-95.829
			c21.086-13.637,45.269-21.737,70.315-23.552l9.813-0.085c21.511,1.895,42.73,6.276,63.232,13.056
			c15.125,4.483,28.923,12.598,40.192,23.637c10.976,11.463,19.485,25.055,25.003,39.936c2.543,7.343,4.624,14.839,6.229,22.443
			c2.649,8.359,5.901,16.516,9.728,24.405c1.036,2.422,1.503,5.049,1.365,7.68c-1.28,8.875-14.848,12.8-14.933,21.931
			c0.084,2.03,0.702,4.002,1.792,5.717c8.002,16.593,17.819,32.247,29.269,46.677C310.902,338.407,316.363,344.721,315.681,349.329z
			"/>
		<path style="fill:#A4C2F7;" d="M136.593,250.514V119.527c0-9.426,7.641-17.067,17.067-17.067s17.067,7.641,17.067,17.067v130.987
			H136.593z"/>
		<circle style="fill:#D4E1F4;" cx="153.633" cy="298.727" r="51.2"/>
		<path style="fill:#A4C2F7;" d="M473.974,170.812c-18.804,17.01-29.737,41.038-30.208,66.389v10.325h-68.267v-12.288
			c-0.402-24.378-11.059-47.458-29.355-63.573c-26.794-24.603-36.96-62.473-26.089-97.187s40.821-60.021,76.863-64.947
			c7.885-1.183,15.893-1.298,23.808-0.341c36.228,4.301,66.684,29.201,78.1,63.851S500.551,145.819,473.974,170.812z"/>
		<path style="fill:#E3E7F2;" d="M448.374,170.812c-18.804,17.01-29.737,41.038-30.208,66.389v10.325h-42.667v-12.288
			c-0.402-24.378-11.059-47.458-29.355-63.573c-26.794-24.603-36.96-62.473-26.089-97.187s40.821-60.021,76.863-64.947
			c35.809,4.919,65.604,29.977,76.591,64.412S474.717,146.063,448.374,170.812z"/>
		<g>
			<path style="fill:#A4C2F7;" d="M452.299,256.06c-0.068,9.397-7.669,16.999-17.067,17.067h-51.712
				c-9.211-0.309-16.526-7.851-16.555-17.067c0.068-9.397,7.669-16.999,17.067-17.067h51.2
				C444.647,239.021,452.272,246.646,452.299,256.06z"/>
			<path style="fill:#A4C2F7;" d="M443.766,290.193c-0.068,9.397-7.669,16.998-17.067,17.067h-34.133
				c-9.414-0.028-17.039-7.652-17.067-17.067c0.068-9.397,7.669-16.999,17.067-17.067h34.133
				C436.114,273.154,443.739,280.779,443.766,290.193z"/>
		</g>
		<g>
			<path style="fill:#D4E1F4;" d="M426.699,256.06c-0.068,9.397-7.669,16.999-17.067,17.067h-26.112
				c-9.211-0.309-16.526-7.851-16.555-17.067c0.068-9.397,7.669-16.999,17.067-17.067h25.6
				C419.047,239.021,426.672,246.646,426.699,256.06z"/>
			<path style="fill:#D4E1F4;" d="M418.166,290.193c-0.068,9.397-7.669,16.998-17.067,17.067h-8.533
				c-9.414-0.028-17.039-7.652-17.067-17.067c0.068-9.397,7.669-16.999,17.067-17.067h9.216
				C410.906,273.568,418.098,281.059,418.166,290.193z"/>
		</g>
		<g>
			<path style="fill:#FFFFFF;" d="M281.462,468.796c4.758,1.098,9.759,0.104,13.734-2.732c-11.093-2.73-26.707-6.911-43.089-12.287
				c-2.921,1.465-5.662,3.264-8.17,5.36c9.699,2.828,18.639,5.199,25.664,6.928C274.635,467.345,278.731,468.199,281.462,468.796z"
				/>
			<path style="fill:#FFFFFF;" d="M25.633,503.356l139.947,0.171h25.6l-139.947-0.171l-0.512-0.341
				c28.587-40.789,30.891-94.123,16.811-140.715c-2.774-10.423-6.905-20.435-12.288-29.781
				c-5.509-8.216-10.061-17.034-13.568-26.283c-6.616-18.285-8.923-37.851-6.741-57.173c4.142-38.697,24.918-73.677,56.917-95.829
				c21.086-13.637,45.269-21.737,70.315-23.552h0.027v-10.155c0.013-4.122,1.53-8.098,4.267-11.181
				c-4.651-5.383-12.163-7.301-18.826-4.807c-6.663,2.494-11.068,8.873-11.041,15.988v10.155h-0.027
				c-25.045,1.815-49.229,9.915-70.315,23.552c-31.999,22.152-52.775,57.132-56.917,95.829c-2.182,19.323,0.125,38.888,6.741,57.173
				c3.507,9.249,8.059,18.067,13.568,26.283c5.383,9.346,9.514,19.359,12.288,29.781c14.08,46.592,11.776,99.925-16.811,140.715
				L25.633,503.356z"/>
			<path style="fill:#FFFFFF;" d="M418.166,307.26c-9.414-0.028-17.039-7.652-17.067-17.067c0.068-9.397,7.669-16.999,17.067-17.067
				h-9.045c-9.211-0.309-16.526-7.851-16.555-17.067c-0.024-4.528,1.793-8.871,5.035-12.032c1.043-1.037,2.219-1.931,3.499-2.656
				v-6.133c-0.402-24.378-11.059-47.458-29.355-63.573c-26.794-24.603-36.96-62.473-26.089-97.187s40.821-60.021,76.863-64.947
				l0.226-0.019c-0.677-0.094-1.337-0.244-2.018-0.322c-7.915-0.957-15.923-0.842-23.808,0.341
				c-36.041,4.925-65.992,30.232-76.863,64.947c-10.871,34.714-0.705,72.584,26.089,97.187
				c18.296,16.115,28.953,39.195,29.355,63.573v6.133c-1.279,0.726-2.456,1.619-3.499,2.656c-3.241,3.161-5.059,7.505-5.035,12.032
				c0.029,9.216,7.344,16.757,16.555,17.067h9.045c-9.397,0.068-16.999,7.669-17.067,17.067c0.028,9.414,7.653,17.039,17.067,17.067
				"/>
		</g>
	</g>
	<g>
		<polygon style="fill:#FFFFFF;" points="26.633,495.823 137.566,495.934 192.179,495.993 192.162,513.06 137.549,513 
			26.616,512.89 		"/>
		<g>
			<path style="fill:#428DFF;" d="M88.838,498.362l-1.026,1.278c-0.325,0.476-0.584,0.993-0.772,1.537
				c-0.246,0.484-0.418,1.002-0.51,1.537c-0.097,0.563-0.154,1.133-0.173,1.704c0.03,2.259,0.911,4.424,2.469,6.06
				c1.992,2.072,4.905,2.984,7.723,2.417c2.818-0.567,5.152-2.533,6.188-5.215c0.439-1.026,0.672-2.129,0.686-3.245
				c-0.01-3.45-2.089-6.558-5.274-7.884C94.964,495.225,91.294,495.939,88.838,498.362z"/>
			<path style="fill:#428DFF;" d="M333.266,369.152c2.737-1.272,5.353-2.789,7.817-4.533c4.854-2.853,8.334-7.563,9.633-13.042
				c-0.026-7.524-3.092-14.719-8.5-19.95l-0.817-1.017c-11.038-13.974-20.514-29.114-28.258-45.15
				c-0.25-0.483-0.767-1.483-0.825-1.692c0.009-1.008,2.908-3.642,4.642-5.208c5.203-3.805,8.836-9.379,10.217-15.675
				c0.343-4.05-0.294-8.123-1.858-11.875c-1.183-3.092-2.567-6.1-3.95-9.108c-2.292-4.532-4.113-9.288-5.433-14.192l-0.317-1.325
				c-1.611-7.524-3.695-14.939-6.242-22.2c-5.904-15.964-15.039-30.537-26.833-42.808c-12.235-12.062-27.243-20.935-43.708-25.842
				c-19.047-6.237-38.688-10.488-58.609-12.683v-2.325c0-14.138-11.462-25.6-25.6-25.6s-25.6,11.462-25.6,25.6v2.554
				c-23.729,2.815-46.493,11.048-66.533,24.062C28.374,170.686,6.225,207.941,1.841,249.16c-2.31,20.605,0.154,41.466,7.2,60.967
				c3.714,9.819,8.531,19.184,14.358,27.917c4.974,8.705,8.79,18.023,11.35,27.717c14.917,49.534,9.133,98.258-15.867,133.683
				c-1.835,2.604-2.068,6.013-0.603,8.841c1.465,2.829,4.384,4.606,7.569,4.609c0.265,0,0.502-0.158,0.766-0.183v0.179l34.133,0.035
				c3.049,0.003,5.867-1.621,7.394-4.259c1.527-2.639,1.53-5.892,0.009-8.533c-1.522-2.642-4.337-4.271-7.386-4.274l-19.621-0.02
				c20.852-38.065,24.605-86.323,9.938-135.036c-2.998-11.172-7.462-21.899-13.275-31.9c-5.158-7.707-9.432-15.97-12.742-24.633
				c-6.143-17.047-8.284-35.277-6.258-53.283c3.817-36.203,23.235-68.941,53.175-89.65c17.21-11.182,36.696-18.387,57.041-21.088
				V245.84c-19.462,9.187-32.468,28.143-34.037,49.608c-1.568,21.464,8.545,42.11,26.465,54.028
				c17.92,11.918,40.87,13.262,60.059,3.516l25.855,36.959c1.124,1.606,2.766,2.777,4.65,3.317l59.733,17.067
				c0.765,0.214,1.556,0.323,2.35,0.325c4.256-0.003,7.858-3.141,8.446-7.356s-2.02-8.219-6.113-9.385l-56.817-16.233
				l-24.138-34.502c14.415-13.476,21.217-33.218,18.162-52.712c-3.055-19.495-15.57-36.21-33.416-44.63V140.007
				c18.118,2.142,35.977,6.079,53.316,11.753c13.824,4.054,26.442,11.436,36.75,21.5c10.165,10.591,18.032,23.168,23.108,36.942
				c2.285,6.574,4.158,13.284,5.608,20.092l0.3,1.275c1.559,6.039,3.758,11.894,6.558,17.467c1.233,2.683,2.467,5.358,3.425,7.817
				c0.466,1.186,0.793,2.422,0.975,3.683c-0.175,1.217-2.825,3.625-4.767,5.375c-5.775,4.052-9.511,10.408-10.242,17.425
				c-0.007,3.517,0.941,6.971,2.742,9.992c8.259,17.075,18.373,33.189,30.159,48.05l0.75,0.933c1.714,2.035,3.288,4.184,4.708,6.433
				c-1.021,0.897-2.086,1.743-3.191,2.533c-1.517,0.968-3.098,1.831-4.733,2.583c-6.033,2.992-14.3,7.083-15.933,15.958
				c-1.103,5.341-0.439,10.895,1.892,15.825c1.142,2.342,2.308,4.375,3.333,6.15c0.051,0.1,0.106,0.197,0.167,0.292
				c-3.033,2.325-6.492,4.85-6.508,4.867c-1.868,1.364-3.102,3.429-3.416,5.721c-0.314,2.292,0.317,4.613,1.749,6.429
				c0.392,0.508,0.85,1.175,1.275,1.858c-6.079,2.675-10.687,7.87-12.617,14.225c-1.059,4.882-0.867,9.953,0.558,14.742
				c0.283,1.283,0.583,2.567,0.767,3.942c0.334,3.466-0.161,6.962-1.442,10.2c-1.123,5.157-6.192,8.445-11.358,7.367
				c-6.902-1.412-29.02-6.733-53.102-14.459c-0.464-0.197-0.945-0.351-1.437-0.461c-15.748-4.913-31.125-10.947-46.012-18.055
				c-4.215-2.096-9.331-0.383-11.433,3.829c-2.102,4.212-0.394,9.331,3.816,11.437c10.917,5.296,22.131,9.956,33.586,13.957
				c-10.149,11.17-18.081,24.169-23.373,38.303l-57.171-0.059c-3.049-0.003-5.867,1.621-7.394,4.259
				c-1.527,2.639-1.53,5.892-0.009,8.533c1.522,2.642,4.337,4.271,7.386,4.274l63.147,0.065v-0.002l0.012,0.002
				c3.717-0.003,7.005-2.409,8.133-5.95c2.931-9.217,13.497-33.63,28.366-42.999c21.602,6.846,41.797,11.945,52.076,14.041
				c1.889,0.39,3.813,0.589,5.742,0.592c11.595-0.164,21.748-7.821,25.092-18.925c2.217-5.826,3-12.1,2.283-18.292
				c-0.242-1.783-0.625-3.567-1.025-5.342c-0.695-2.146-0.936-4.414-0.708-6.658c0.308-1.183,1.45-1.983,4.958-3.958
				c1.592-0.9,3.191-1.817,4.708-2.875c2.557-1.779,4.26-4.541,4.7-7.625c0.333-3.089-0.198-6.211-1.533-9.016
				c1.8-1.375,3.567-2.742,4.617-3.633c7.625-6.233,2.6-14.95,0.183-19.142c-0.85-1.483-1.833-3.175-2.817-5.183
				c-0.625-1.495-0.813-3.136-0.542-4.733C328.459,371.607,330.774,370.187,333.266,369.152z M197.291,299.727
				c0,23.564-19.103,42.667-42.667,42.667s-42.667-19.103-42.667-42.667c0-23.564,19.103-42.667,42.667-42.667
				C178.177,257.088,197.263,276.174,197.291,299.727z M154.624,239.993c-2.857,0.023-5.709,0.25-8.533,0.682V120.527
				c0-4.713,3.82-8.533,8.533-8.533s8.533,3.821,8.533,8.533v120.148C160.333,240.244,157.481,240.016,154.624,239.993z"/>
			<path style="fill:#428DFF;" d="M422.733,1.76C378.6-3.479,336.124,20.342,317.578,60.73
				c-18.546,40.389-8.93,88.129,23.805,118.188c16.568,14.473,26.227,35.288,26.583,57.284v1.917
				c-5.988,5.314-9.118,13.143-8.443,21.12c0.674,7.978,5.073,15.17,11.869,19.404c-2.217,3.813-3.398,8.14-3.426,12.551
				c0.033,10.813,6.868,20.435,17.067,24.027v10.106c0,14.138,11.462,25.6,25.6,25.6c14.138,0,25.6-11.462,25.6-25.6v-10.106
				c10.199-3.592,17.033-13.214,17.067-24.028c-0.028-4.411-1.208-8.738-3.425-12.551c6.794-4.233,11.193-11.424,11.868-19.4
				c0.675-7.976-2.452-15.804-8.438-21.119c0.425-22.976,10.393-44.74,27.511-60.071c24.271-22.698,35.944-55.808,31.275-88.708
				v-0.009C505.489,43.319,468.873,7.433,422.733,1.76z M444.766,257.06c-0.003,4.712-3.822,8.53-8.533,8.533h-51.2
				c-4.713,0-8.533-3.821-8.533-8.533c0-4.713,3.821-8.533,8.533-8.533h51.2C440.944,248.53,444.763,252.349,444.766,257.06z
				 M410.633,333.86c-4.712-0.003-8.53-3.822-8.533-8.533v-8.533h17.067v8.533C419.163,330.038,415.344,333.857,410.633,333.86z
				 M427.699,299.727h-34.133c-4.713,0-8.533-3.821-8.533-8.533c0-4.713,3.82-8.533,8.533-8.533h34.133
				c4.713,0,8.533,3.821,8.533,8.533C436.233,295.906,432.412,299.727,427.699,299.727z M469.124,165.618
				c-18.801,17.041-30.462,40.561-32.642,65.842h-51.576c-1.651-25.08-13.151-48.489-31.991-65.125
				c-25.86-23.731-34.559-60.873-21.927-93.619s44.021-54.424,79.119-54.641c35.098-0.216,66.752,21.072,79.787,53.66
				C502.93,104.324,494.69,141.57,469.124,165.618L469.124,165.618z"/>
			<path style="fill:#428DFF;" d="M410.633,35.193c-4.713,0-8.533,3.821-8.533,8.533s3.821,8.533,8.533,8.533
				c28.264,0.031,51.169,22.936,51.2,51.2c0,4.713,3.821,8.533,8.533,8.533c4.713,0,8.533-3.821,8.533-8.533
				C478.856,65.775,448.318,35.237,410.633,35.193z"/>
		</g>
	</g>
</g>
<g>
</g>
<g>
</g>
<g>
</g>
<g>
</g>
<g>
</g>
<g>
</g>
<g>
</g>
<g>
</g>
<g>
</g>
<g>
</g>
<g>
</g>
<g>
</g>
<g>
</g>
<g>
</g>
<g>
</g>
</svg>
