<?xml version="1.0" encoding="iso-8859-1"?>
<!-- Generator: Adobe Illustrator 19.0.0, SVG Export Plug-In . SVG Version: 6.00 Build 0)  -->
<svg version="1.1" id="Capa_1" xmlns="http://www.w3.org/2000/svg" xmlns:xlink="http://www.w3.org/1999/xlink" x="0px" y="0px"
	 viewBox="0 0 512.001 512.001" style="enable-background:new 0 0 512.001 512.001;" xml:space="preserve">
<g>
	<g transform="translate(1 1)">
		<path style="fill:#E3E7F2;" d="M445.208,303.467c-4.64,18.156-11.883,35.545-21.504,51.627l23.808,55.467
			c-5.461,6.741-11.349,13.227-17.493,19.456c-6.229,6.144-12.715,12.032-19.456,17.493l-55.467-23.808
			c-16.081,9.621-33.47,16.864-51.627,21.504l-22.357,55.893c-8.673,0.927-17.39,1.383-26.112,1.365v-93.867
			c84.831,0,153.6-68.769,153.6-153.6s-68.769-153.6-153.6-153.6s-153.6,68.769-153.6,153.6H7.534
			c-0.018-8.722,0.438-17.439,1.365-26.112l55.893-22.357c4.64-18.156,11.883-35.545,21.504-51.627L62.488,99.435
			c5.461-6.741,11.349-13.227,17.493-19.456c6.229-6.144,12.715-12.032,19.456-17.493l55.467,23.808
			c16.081-9.621,33.471-16.864,51.627-21.504l22.357-55.893c17.36-1.82,34.864-1.82,52.224,0L303.47,64.79
			c18.156,4.64,35.545,11.883,51.627,21.504l55.467-23.808c6.741,5.461,13.227,11.349,19.456,17.493
			c6.144,6.229,12.032,12.715,17.493,19.456l-23.808,55.467c9.621,16.081,16.864,33.471,21.504,51.627l55.893,22.357
			c1.82,17.36,1.82,34.864,0,52.224L445.208,303.467z"/>
		<path style="fill:#A4C2F7;" d="M445.208,303.467c-4.64,18.156-11.883,35.545-21.504,51.627l23.808,55.467
			c-5.461,6.741-11.349,13.227-17.493,19.456c-6.229,6.144-12.715,12.032-19.456,17.493l-17.067-7.339
			c3.755-3.243,7.339-6.656,10.923-10.155c6.144-6.229,12.032-12.715,17.493-19.456l-23.808-55.467
			c9.621-16.081,16.864-33.471,21.504-51.627l55.893-22.357c1.82-17.36,1.82-34.864,0-52.224l-55.893-22.357
			c-4.64-18.156-11.883-35.545-21.504-51.627l23.808-55.467c-5.461-6.741-11.349-13.227-17.493-19.456
			c-3.584-3.499-7.168-6.912-10.923-10.155l17.067-7.339c6.741,5.461,13.227,11.349,19.456,17.493
			c6.144,6.229,12.032,12.715,17.493,19.456l-23.808,55.467c9.621,16.081,16.864,33.471,21.504,51.627l55.893,22.357
			c1.82,17.36,1.82,34.864,0,52.224L445.208,303.467z"/>
		<path style="fill:#E3E7F2;" d="M184.686,289.131l-58.368,58.368L96.11,377.707l-81.067,81.067c-9.984,9.994-9.984,26.187,0,36.181
			c4.793,4.807,11.302,7.509,18.091,7.509s13.298-2.702,18.091-7.509l81.067-81.067l30.208-30.208l58.368-58.368L184.686,289.131z"
			/>
		
			<rect x="107.943" y="355.099" transform="matrix(-0.7071 0.7071 -0.7071 -0.7071 489.9448 558.4207)" style="fill:#D4E1F4;" width="42.752" height="51.166"/>
		<path style="fill:#A4C2F7;" d="M357.4,254.998c-0.053,47.653-33.006,88.957-79.458,99.593
			c-46.452,10.635-94.093-12.215-114.876-55.098s-9.198-94.436,27.932-124.306s89.968-30.143,127.404-0.657
			C343.049,193.957,357.423,223.616,357.4,254.998z"/>
		<path style="fill:#E3E7F2;" d="M340.334,237.931c-0.021,39.223-22.434,74.992-57.721,92.118s-77.255,12.603-108.082-11.649
			c-32.082-40.78-28.613-99.106,8.077-135.795s95.015-40.159,135.795-8.077C332.657,192.584,340.386,214.928,340.334,237.931z"/>
	</g>
	<g transform="translate(1 7)">
		<path style="fill:#FFFFFF;" d="M380.696,417.702c-3.658,2.183-7.411,4.223-11.219,6.173l41.085,17.635
			c2.905-2.354,5.74-4.82,8.55-7.318L380.696,417.702z"/>
		<path style="fill:#FFFFFF;" d="M380.696,80.294l38.417-16.49c-2.81-2.498-5.645-4.965-8.55-7.318l-41.086,17.635
			C373.285,76.072,377.038,78.111,380.696,80.294z"/>
		<path style="fill:#FFFFFF;" d="M34.499,222.886l55.894-22.357c4.64-18.156,11.883-35.545,21.504-51.627L88.088,93.435
			c5.461-6.741,11.349-13.227,17.493-19.456c3.545-3.496,7.195-6.876,10.906-10.175l-17.05-7.318
			c-6.741,5.461-13.227,11.349-19.456,17.493c-6.144,6.229-12.032,12.715-17.493,19.456l23.808,55.467
			c-9.621,16.081-16.864,33.471-21.504,51.627L8.899,222.886c-0.927,8.673-1.383,17.39-1.366,26.112h25.601
			C33.116,240.276,33.572,231.559,34.499,222.886z"/>
		<path style="fill:#FFFFFF;" d="M15.043,488.955c8.167,8.251,20.898,9.892,30.891,3.983c-1.935-1.084-3.714-2.423-5.291-3.983
			c-9.984-9.994-9.984-26.187,0-36.181l81.067-81.067l30.208-30.208l40.497-40.497c-17.526-29.674-18.932-66.177-3.74-97.111
			s44.938-52.138,79.135-56.411c-29.185-3.871-58.616,5.08-80.705,24.543s-34.672,47.535-34.505,76.975
			c-0.015,18.296,4.895,36.259,14.215,52.004l-40.497,40.497L96.11,371.707l-81.067,81.067
			C5.059,462.768,5.059,478.961,15.043,488.955z"/>
	</g>
	<g>
		<polygon style="fill:#FFFFFF;" points="10.01,453.741 88.448,375.303 161.733,302.018 173.799,314.085 100.515,387.369 
			22.076,465.807 		"/>
		<g>
			<path style="fill:#428DFF;" d="M22.077,465.808l24.136-24.136c3.3-3.338,3.284-8.714-0.035-12.033
				c-3.319-3.319-8.695-3.334-12.033-0.035l-24.133,24.133l-0.003,0.002c-13.289,13.311-13.311,34.862-0.05,48.2
				c6.369,6.481,15.089,10.109,24.175,10.058c9.063,0.055,17.763-3.554,24.125-10.008l147.31-147.309
				c48.745,24.989,108.427,10.777,140.679-33.499c32.252-44.276,27.476-105.44-11.258-144.173
				c-38.734-38.733-99.898-43.508-144.174-11.256s-58.487,91.934-33.497,140.679l-36.032,36.032l-0.002,0.002l-0.002,0.002
				l-30.204,30.204l-0.003,0.002l-0.002,0.003l-8.657,8.656c-2.176,2.152-3.034,5.304-2.248,8.261
				c0.786,2.958,3.096,5.268,6.054,6.054c2.958,0.786,6.11-0.071,8.261-2.248l2.626-2.626l24.115,24.115l-75.083,75.084
				c-6.739,6.436-17.354,6.414-24.067-0.05c-6.65-6.664-6.65-17.453,0-24.117L22.077,465.808z M256,162.131
				c51.841,0,93.867,42.026,93.867,93.867S307.842,349.865,256,349.865s-93.867-42.026-93.867-93.867
				C162.192,204.181,204.184,162.19,256,162.131z M190.666,345.449L163.5,372.615l-24.115-24.115l27.166-27.165
				C173.308,330.56,181.441,338.693,190.666,345.449z M109.177,378.708l18.142-18.142l24.115,24.115l-18.142,18.142L109.177,378.708
				z"/>
			<path style="fill:#428DFF;" d="M57.197,416.211c0.331,0.466,0.693,0.909,1.084,1.326c1.62,1.575,3.775,2.48,6.034,2.534
				c2.874,0.054,5.577-1.364,7.166-3.759c1.589-2.395,1.846-5.436,0.68-8.064c-0.417-1.036-1.032-1.979-1.812-2.778
				c-2.449-2.43-6.117-3.154-9.306-1.836c-3.189,1.318-5.276,4.42-5.295,7.87l0.179,1.629c0.107,0.566,0.29,1.115,0.542,1.632
				C56.637,415.28,56.883,415.768,57.197,416.211z"/>
			<path style="fill:#428DFF;" d="M203.717,220.648c2.521,0.005,4.914-1.109,6.533-3.042c13.748-16.301,35.114-24.082,56.125-20.442
				c4.632,0.803,9.04-2.292,9.858-6.921s-2.264-9.047-6.891-9.879c-27.005-4.692-54.471,5.305-72.142,26.258
				c-2.133,2.538-2.603,6.081-1.206,9.087C197.391,218.716,200.402,220.642,203.717,220.648z"/>
			<path style="fill:#428DFF;" d="M196.334,253.065c0.126-2.498,0.407-4.986,0.842-7.45c0.815-4.644-2.29-9.069-6.933-9.883
				c-4.644-0.815-9.069,2.29-9.883,6.933c-0.552,3.159-0.911,6.348-1.075,9.55c-0.229,4.706,3.394,8.71,8.1,8.95
				c0.142,0.009,0.283,0.009,0.433,0.009C192.362,261.169,196.106,257.604,196.334,253.065z"/>
			<path style="fill:#428DFF;" d="M505.267,221.965l-51.917-20.767c-4.462-16.022-10.883-31.433-19.117-45.884l22.117-51.517
				c1.251-2.914,0.782-6.28-1.217-8.742c-5.4-6.667-11.475-13.417-18.116-20.142c-6.658-6.575-13.408-12.65-20.075-18.05
				c-2.458-2.006-5.829-2.475-8.742-1.217l-51.517,22.117c-14.451-8.234-29.862-14.655-45.884-19.117L290.034,6.731
				c-1.172-2.929-3.863-4.974-7-5.316c-17.973-1.883-36.094-1.883-54.067,0c-3.136,0.343-5.828,2.387-7,5.316l-20.767,51.917
				c-16.022,4.462-31.433,10.883-45.884,19.117L103.8,55.648c-2.912-1.259-6.284-0.789-8.742,1.217
				c-6.667,5.4-13.417,11.475-20.142,18.117c-6.575,6.658-12.65,13.408-18.05,20.075c-1.999,2.461-2.467,5.828-1.217,8.742
				l22.117,51.517c-8.234,14.451-14.655,29.862-19.117,45.884L6.734,221.965c-2.929,1.172-4.974,3.864-5.316,7
				C0.456,237.944-0.017,246.968,0,255.998c-0.001,2.264,0.897,4.435,2.498,6.035s3.772,2.499,6.035,2.498H102.4
				c2.264,0.001,4.435-0.897,6.035-2.498c1.601-1.601,2.499-3.772,2.498-6.035c0-58.674,35.344-111.571,89.552-134.024
				s116.603-10.042,158.092,31.447s53.9,103.885,31.447,158.092S314.674,401.065,256,401.065c-2.264-0.001-4.435,0.897-6.035,2.498
				c-1.601,1.601-2.499,3.772-2.498,6.035v93.867c-0.001,2.264,0.897,4.435,2.498,6.035c1.601,1.601,3.772,2.499,6.035,2.498
				c9.03,0.017,18.055-0.456,27.034-1.417c3.136-0.343,5.828-2.387,7-5.316l20.767-51.917c16.022-4.462,31.433-10.883,45.884-19.117
				l51.517,22.117c2.914,1.25,6.28,0.782,8.742-1.217c6.667-5.4,13.417-11.475,20.142-18.116c6.575-6.658,12.65-13.408,18.05-20.075
				c1.999-2.461,2.467-5.828,1.217-8.742l-22.117-51.517c8.234-14.451,14.655-29.862,19.117-45.884l51.917-20.767
				c2.929-1.172,4.974-3.864,5.316-7c1.889-17.973,1.889-36.094,0-54.067C510.242,225.828,508.197,223.136,505.267,221.965z
				 M494.109,276.115l-51.066,20.425c-2.533,1.011-4.428,3.174-5.1,5.817c-4.437,17.362-11.364,33.99-20.567,49.367
				c-1.4,2.35-1.592,5.227-0.517,7.742l21.75,50.667c-4.2,4.95-8.767,9.933-13.592,14.817c-4.942,4.875-9.925,9.458-14.883,13.658
				l-50.667-21.75c-2.513-1.083-5.394-0.891-7.742,0.517c-15.377,9.202-32.005,16.13-49.367,20.567
				c-2.643,0.672-4.805,2.567-5.817,5.1l-20.425,51.067c-3.775,0.317-7.65,0.55-11.583,0.683v-76.883
				c87.208-4.596,155.108-77.438,153.575-164.754c-1.533-87.316-71.947-157.73-159.263-159.263
				c-87.316-1.533-160.158,66.367-164.754,153.575H17.209c0.133-3.933,0.367-7.808,0.683-11.583l51.067-20.425
				c2.533-1.011,4.428-3.174,5.1-5.817c4.437-17.362,11.364-33.99,20.567-49.367c1.4-2.35,1.592-5.227,0.517-7.742l-21.75-50.667
				c4.2-4.95,8.767-9.933,13.592-14.817c4.942-4.875,9.925-9.458,14.883-13.658l50.667,21.75c2.514,1.079,5.393,0.887,7.742-0.517
				c15.377-9.202,32.005-16.13,49.367-20.567c2.643-0.672,4.805-2.567,5.817-5.1l20.425-51.067c13.389-1.1,26.845-1.1,40.233,0
				l20.425,51.067c1.011,2.533,3.174,4.428,5.817,5.1c17.362,4.437,33.99,11.364,49.367,20.567c2.349,1.403,5.228,1.596,7.742,0.517
				l50.667-21.75c4.95,4.2,9.933,8.767,14.817,13.592c4.875,4.942,9.458,9.925,13.658,14.883l-21.75,50.667
				c-1.075,2.515-0.883,5.392,0.517,7.742c9.202,15.377,16.13,32.005,20.567,49.367c0.672,2.643,2.567,4.805,5.1,5.817
				l51.067,20.425c0.55,6.475,0.825,13.217,0.825,20.117S494.659,269.64,494.109,276.115z"/>
		</g>
	</g>
</g>
<g>
</g>
<g>
</g>
<g>
</g>
<g>
</g>
<g>
</g>
<g>
</g>
<g>
</g>
<g>
</g>
<g>
</g>
<g>
</g>
<g>
</g>
<g>
</g>
<g>
</g>
<g>
</g>
<g>
</g>
</svg>
