<?xml version="1.0" encoding="iso-8859-1"?>
<!-- Generator: Adobe Illustrator 19.0.0, SVG Export Plug-In . SVG Version: 6.00 Build 0)  -->
<svg version="1.1" id="Capa_1" xmlns="http://www.w3.org/2000/svg" xmlns:xlink="http://www.w3.org/1999/xlink" x="0px" y="0px"
	 viewBox="0 0 511.951 511.951" style="enable-background:new 0 0 511.951 511.951;" xml:space="preserve">
<g>
	<g transform="translate(9 13)">
		<path style="fill:#A4C2F7;" d="M409.096,260.066c0,2.816-0.085,5.717-0.171,8.533c-1.218,22.66-7.178,44.812-17.493,65.024
			c-2.554,5.1-5.433,10.031-8.619,14.763c-12.294,19.035-28.496,35.237-47.531,47.531c-4.732,3.186-9.663,6.064-14.763,8.619
			c-20.212,10.315-42.364,16.275-65.024,17.493c-2.816,0.085-5.717,0.171-8.533,0.171c-2.816,0-5.717-0.085-8.533-0.171
			c-1.451-0.085-2.816-0.171-4.267-0.341c-21.188-1.64-41.839-7.47-60.757-17.152c-5.1-2.554-10.031-5.433-14.763-8.619
			c-19.035-12.294-35.237-28.496-47.531-47.531c-3.186-4.732-6.064-9.663-8.619-14.763C92.178,313.411,86.218,291.259,85,268.599
			c-0.085-2.816-0.171-5.717-0.171-8.533c0-2.816,0.085-5.717,0.171-8.533c1.218-22.66,7.178-44.812,17.493-65.024
			c2.554-5.1,5.433-10.031,8.619-14.763c12.294-19.035,28.496-35.237,47.531-47.531c4.732-3.186,9.663-6.064,14.763-8.619
			c18.918-9.682,39.569-15.512,60.757-17.152c1.451-0.171,2.816-0.256,4.267-0.341c2.816-0.085,5.717-0.171,8.533-0.171
			c2.816,0,5.717,0.085,8.533,0.171c22.66,1.219,44.812,7.178,65.024,17.493c5.1,2.554,10.031,5.433,14.763,8.619
			c19.035,12.294,35.237,28.496,47.531,47.531c3.186,4.732,6.064,9.663,8.619,14.763c10.316,20.212,16.275,42.364,17.493,65.024
			C409.011,254.348,409.096,257.25,409.096,260.066z"/>
		<path style="fill:#E3E7F2;" d="M383.496,260.066c0,2.816-0.085,5.717-0.171,8.533c-1.218,22.66-7.178,44.812-17.493,65.024
			c-2.554,5.1-5.433,10.031-8.619,14.763c-12.294,19.035-28.496,35.237-47.531,47.531c-4.732,3.186-9.663,6.064-14.763,8.619
			c-18.918,9.682-39.569,15.512-60.757,17.152c-21.188-1.64-41.839-7.47-60.757-17.152c-5.1-2.554-10.031-5.433-14.763-8.619
			c-19.035-12.294-35.237-28.496-47.531-47.531c-3.186-4.732-6.064-9.663-8.619-14.763C92.178,313.411,86.218,291.259,85,268.599
			c-0.085-2.816-0.171-5.717-0.171-8.533c0-2.816,0.085-5.717,0.171-8.533c1.218-22.66,7.178-44.812,17.493-65.024
			c2.554-5.1,5.433-10.031,8.619-14.763c12.294-19.035,28.496-35.237,47.531-47.531c4.732-3.186,9.663-6.064,14.763-8.619
			c18.918-9.682,39.569-15.512,60.757-17.152c21.188,1.64,41.84,7.47,60.757,17.152c5.1,2.554,10.031,5.433,14.763,8.619
			c19.035,12.294,35.237,28.496,47.531,47.531c3.186,4.732,6.064,9.663,8.619,14.763c10.316,20.212,16.275,42.364,17.493,65.024
			C383.411,254.348,383.496,257.25,383.496,260.066z"/>
		<g>
			<circle style="fill:#FFFFFF;" cx="246.963" cy="260.066" r="25.6"/>
			<path style="fill:#FFFFFF;" d="M102.493,333.623c2.554,5.1,5.433,10.031,8.619,14.763c12.294,19.035,28.496,35.237,47.531,47.531
				c4.732,3.186,9.663,6.064,14.763,8.619c18.918,9.682,39.569,15.512,60.757,17.152c1.451,0.171,2.816,0.256,4.267,0.341
				c2.816,0.085,5.717,0.171,8.533,0.171c2.816,0,5.717-0.085,8.533-0.171c1.273-0.07,2.498-0.307,3.763-0.406
				c-21.012-1.685-41.486-7.492-60.254-17.088c-5.1-2.554-10.031-5.433-14.763-8.619c-19.035-12.294-35.237-28.496-47.531-47.531
				c-3.186-4.732-6.064-9.663-8.619-14.763c-10.315-20.212-16.275-42.364-17.493-65.024c-0.085-2.816-0.171-5.717-0.171-8.533
				c0-2.816,0.085-5.717,0.171-8.533c1.218-22.66,7.178-44.812,17.493-65.024c2.554-5.1,5.433-10.031,8.619-14.763
				c12.294-19.035,28.496-35.237,47.531-47.531c4.732-3.186,9.663-6.064,14.763-8.619c18.769-9.596,39.243-15.403,60.256-17.087
				c-1.266-0.099-2.491-0.336-3.765-0.406c-2.816-0.085-5.717-0.171-8.533-0.171c-2.816,0-5.717,0.085-8.533,0.171
				c-1.451,0.085-2.816,0.171-4.267,0.341c-21.188,1.64-41.84,7.47-60.757,17.152c-5.1,2.554-10.031,5.433-14.763,8.619
				c-19.035,12.294-35.237,28.496-47.531,47.531c-3.186,4.732-6.064,9.663-8.619,14.763C92.178,206.721,86.218,228.872,85,251.532
				c-0.085,2.816-0.171,5.717-0.171,8.533c0,2.816,0.085,5.717,0.171,8.533C86.218,291.259,92.178,313.411,102.493,333.623z"/>
		</g>
	</g>
	<g>
		<path style="fill:#FFFFFF;" d="M17.029,273.066c0.261-38.51,9.603-76.415,27.267-110.636
			c10.081-19.222,22.749-36.972,37.65-52.755c1.841-1.986,3.609-4.047,5.514-5.97l6.01-5.473c4.063-3.581,7.901-7.435,12.161-10.778
			c8.467-6.77,17.375-12.968,26.665-18.555c37.299-22.607,80.051-34.627,123.666-34.767v17.067
			C215.47,51.337,175.78,62.5,141.151,83.489c-8.629,5.185-16.904,10.938-24.771,17.221c-3.961,3.101-7.508,6.702-11.289,10.02
			l-5.594,5.073c-1.769,1.787-3.402,3.709-5.111,5.556c-13.841,14.654-25.608,31.137-34.971,48.988
			c-16.386,31.777-25.059,66.966-25.319,102.719H17.029z"/>
		<g>
			<path style="fill:#428DFF;" d="M19.902,237.833c-1.722,11.669-2.682,23.439-2.873,35.233
				c0.03,125.035,96.453,228.903,221.141,238.213c124.688,9.311,235.468-79.085,254.067-202.729
				c18.599-123.644-61.274-240.718-183.184-268.501c-4.598-1.045-9.172,1.836-10.217,6.433c-1.045,4.598,1.836,9.172,6.433,10.217
				c113.221,25.793,187.405,134.519,170.133,249.349c-17.272,114.83-120.159,196.922-235.957,188.267
				c-115.799-8.655-205.34-105.128-205.351-221.25c0.191-10.957,1.089-21.891,2.689-32.732c0.547-4.611-2.586-8.853-7.154-9.686
				c-2.251-0.395-4.566,0.149-6.405,1.507S20.186,235.565,19.902,237.833z"/>
			<path style="fill:#428DFF;" d="M105.631,87.454c-4.26,3.342-8.098,7.196-12.161,10.778l-6.01,5.473
				c-1.905,1.923-3.672,3.983-5.514,5.97c-14.901,15.783-27.569,33.533-37.65,52.755l-3.846,7.972
				c-1.048,2.026-1.213,4.394-0.456,6.545c0.757,2.151,2.369,3.894,4.454,4.817c4.266,1.854,9.24,0.104,11.405-4.013l3.561-7.404
				c9.363-17.851,21.13-34.334,34.971-48.988c1.709-1.846,3.343-3.768,5.111-5.556l5.594-5.073c3.781-3.318,7.328-6.92,11.289-10.02
				c7.867-6.282,16.142-12.035,24.771-17.221c27.936-17.073,59.378-27.593,91.964-30.77L205.679,79.19
				c-3.376,3.275-3.466,8.665-0.2,12.05s8.655,3.49,12.05,0.233l44.425-42.867c1.868-1.798,2.815-4.349,2.575-6.93
				s-1.642-4.913-3.809-6.337L209.146,1.407c-3.935-2.591-9.226-1.502-11.817,2.434c-2.591,3.935-1.502,9.226,2.434,11.817
				l30.685,20.191c-34.778,3.532-68.32,14.827-98.152,33.051C123.006,74.486,114.098,80.684,105.631,87.454z"/>
			<path style="fill:#428DFF;" d="M31.824,198.126c-2.096,1.057-3.675,2.917-4.379,5.157c-0.559,2.272-0.27,4.67,0.814,6.744
				l0.972,1.354c0.375,0.443,0.809,0.833,1.289,1.16c0.404,0.365,0.862,0.667,1.358,0.894c0.52,0.238,1.056,0.439,1.604,0.603
				c2.175,0.54,4.473,0.261,6.456-0.784c0.934-0.554,1.751-1.285,2.405-2.153c1.919-2.658,2.289-6.132,0.973-9.134
				c-0.521-0.971-1.22-1.836-2.059-2.55c-0.827-0.743-1.79-1.318-2.835-1.695C36.251,197.007,33.89,197.152,31.824,198.126z"/>
			<path style="fill:#428DFF;" d="M171.459,124.985c-0.282,0.078-0.559,0.172-0.83,0.28c-0.289,0.222-0.563,0.464-0.82,0.723
				c-25.155,14.799-46.123,35.766-60.922,60.921c-0.26,0.258-0.502,0.533-0.725,0.823c-0.108,0.27-0.2,0.545-0.278,0.826
				c-30.119,52.313-30.119,116.702,0,169.016c0.078,0.28,0.17,0.556,0.278,0.826c0.303,0.489,0.656,0.945,1.053,1.361
				c14.78,24.918,35.625,45.69,60.594,60.382c0.257,0.259,0.53,0.501,0.82,0.723c0.37,0.186,0.753,0.344,1.146,0.473
				c52.153,29.858,116.22,29.858,168.374,0c0.393-0.129,0.777-0.287,1.146-0.473c0.289-0.222,0.563-0.464,0.82-0.723
				c24.969-14.692,45.814-35.464,60.594-60.382c0.396-0.417,0.749-0.873,1.053-1.362c0.108-0.27,0.2-0.546,0.278-0.826
				c30.119-52.313,30.119-116.702,0-169.016c-0.077-0.28-0.17-0.556-0.278-0.826c-0.221-0.288-0.462-0.561-0.721-0.816
				c-14.799-25.158-35.768-46.128-60.926-60.928c-0.393-0.542-0.986-0.903-1.648-1.002
				C288.157,94.87,223.771,94.869,171.459,124.985L171.459,124.985z M384.395,189.059l-7.066,4.081
				c-4.08,2.358-5.477,7.575-3.121,11.656s7.573,5.481,11.655,3.127l7.037-4.065c9.566,18.877,15.094,39.541,16.23,60.673h-8.101
				c-4.713,0-8.533,3.821-8.533,8.533s3.821,8.533,8.533,8.533h8.101c-1.136,21.132-6.664,41.796-16.23,60.673l-7.037-4.065
				c-2.641-1.526-5.896-1.527-8.537-0.002s-4.269,4.344-4.268,7.394c0.001,3.05,1.629,5.868,4.272,7.392l7.066,4.081
				c-11.614,17.692-26.735,32.813-44.427,44.427l-4.081-7.066c-1.523-2.642-4.341-4.271-7.392-4.272
				c-3.05-0.001-5.869,1.626-7.394,4.268c-1.525,2.642-1.524,5.896,0.002,8.537l4.065,7.037
				c-18.877,9.566-39.541,15.094-60.673,16.23v-8.101c0-4.713-3.82-8.533-8.533-8.533s-8.533,3.821-8.533,8.533v8.101
				c-21.132-1.136-41.796-6.664-60.673-16.23l4.065-7.037c2.353-4.082,0.954-9.299-3.127-11.655
				c-4.081-2.356-9.298-0.958-11.656,3.121l-4.081,7.066c-17.692-11.614-32.813-26.735-44.427-44.427l7.066-4.081
				c2.642-1.523,4.271-4.341,4.272-7.392s-1.626-5.869-4.268-7.394c-2.642-1.525-5.896-1.524-8.537,0.002l-7.037,4.065
				c-9.566-18.877-15.094-39.541-16.23-60.673h8.101c4.713,0,8.533-3.82,8.533-8.533s-3.821-8.533-8.533-8.533h-8.101
				c1.136-21.132,6.664-41.796,16.23-60.673l7.037,4.065c2.641,1.526,5.896,1.527,8.537,0.002s4.269-4.344,4.268-7.394
				c-0.001-3.05-1.629-5.868-4.272-7.392l-7.066-4.081c11.614-17.692,26.735-32.813,44.427-44.427l4.081,7.066
				c1.524,2.642,4.341,4.271,7.392,4.272c3.05,0.001,5.869-1.626,7.394-4.268c1.525-2.642,1.524-5.896-0.002-8.537l-4.065-7.037
				c18.877-9.566,39.541-15.094,60.673-16.23v8.101c0,4.713,3.821,8.533,8.533,8.533s8.533-3.82,8.533-8.533v-8.101
				c21.132,1.136,41.796,6.664,60.673,16.23l-4.065,7.037c-2.353,4.082-0.954,9.299,3.127,11.655
				c4.081,2.356,9.298,0.958,11.656-3.121l4.081-7.066C357.661,156.247,372.782,171.367,384.395,189.059z"/>
			<path style="fill:#428DFF;" d="M324.229,264.532h-35.345c-3.111-11.947-12.441-21.277-24.388-24.388v-60.945
				c0-4.713-3.82-8.533-8.533-8.533s-8.533,3.821-8.533,8.533v60.945c-16.101,4.129-26.871,19.277-25.481,35.841
				s14.531,29.706,31.095,31.095c16.564,1.389,31.712-9.38,35.841-25.481h35.345c4.713,0,8.533-3.82,8.533-8.533
				S328.942,264.532,324.229,264.532z M255.963,290.132c-9.426,0-17.067-7.641-17.067-17.067c0-9.426,7.641-17.067,17.067-17.067
				c9.426,0,17.067,7.641,17.067,17.067C273.017,282.486,265.383,290.12,255.963,290.132z"/>
		</g>
	</g>
</g>
<g>
</g>
<g>
</g>
<g>
</g>
<g>
</g>
<g>
</g>
<g>
</g>
<g>
</g>
<g>
</g>
<g>
</g>
<g>
</g>
<g>
</g>
<g>
</g>
<g>
</g>
<g>
</g>
<g>
</g>
</svg>
