<?xml version="1.0" encoding="iso-8859-1"?>
<!-- Generator: Adobe Illustrator 19.0.0, SVG Export Plug-In . SVG Version: 6.00 Build 0)  -->
<svg version="1.1" id="Capa_1" xmlns="http://www.w3.org/2000/svg" xmlns:xlink="http://www.w3.org/1999/xlink" x="0px" y="0px"
	 viewBox="0 0 512.042 512.042" style="enable-background:new 0 0 512.042 512.042;" xml:space="preserve">
<g transform="translate(-1)">
	<g transform="translate(1)">
		<path style="fill:#A4C2F7;" d="M471.569,377.595c-1.446,2.519-2.211,5.372-2.219,8.277v117.504l-25.6-15.36l-38.059-22.784
			c-5.631-3.351-12.675-3.219-18.176,0.341c-1.109,0.682-2.219,1.365-3.413,2.048c-42.443,25.814-91.712,38.161-141.312,35.413
			c-2.56-0.085-5.035-0.256-7.595-0.512C105.474,491.593,6.401,382.029,8.538,251.866S113.292,15.45,243.302,8.784h0.085
			c10.835-0.581,21.696-0.438,32.512,0.427c84.17,6.808,159.065,56.051,198.677,130.629
			C514.189,214.418,513.055,304.043,471.569,377.595z"/>
		<path style="fill:#E3E7F2;" d="M445.969,377.595c-1.446,2.519-2.211,5.372-2.219,8.277v117.504l-59.648-35.755l-4.011-2.389
			c-5.631-3.351-12.675-3.219-18.176,0.341c-35.799,22.583-76.845,35.491-119.125,37.461c-2.56-0.085-5.035-0.256-7.595-0.512
			C105.474,491.593,6.401,382.029,8.538,251.866S113.292,15.45,243.302,8.784h0.085c2.304,0.085,4.608,0.256,6.912,0.427
			c84.17,6.808,159.065,56.051,198.677,130.629S487.455,304.043,445.969,377.595z"/>
		<path style="fill:#A4C2F7;" d="M452.283,255.91c-0.015,108.389-87.878,196.251-196.267,196.267c-4.352,0-8.619-0.171-12.8-0.427
			c-103.204-6.741-183.465-92.416-183.465-195.84S140.013,66.811,243.217,60.07c4.181-0.256,8.448-0.427,12.8-0.427
			C364.405,59.658,452.268,147.521,452.283,255.91z"/>
		<ellipse style="fill:#E3E7F2;" cx="243.217" cy="255.91" rx="183.467" ry="195.84"/>
		<g>
			<circle style="fill:#FFFFFF;" cx="256.017" cy="144.976" r="34.133"/>
			<path style="fill:#FFFFFF;" d="M238.95,255.91v68.267c0,4.713-3.821,8.533-8.533,8.533H213.35c-4.713,0-8.533,3.82-8.533,8.533
				v34.133c0,4.713,3.821,8.533,8.533,8.533h102.4c4.713,0,8.533-3.821,8.533-8.533v-34.133c0-4.713-3.82-8.533-8.533-8.533h-17.067
				c-4.713,0-8.533-3.821-8.533-8.533v-102.4c0-4.713-3.82-8.533-8.533-8.533h-59.733c-4.713,0-8.533,3.821-8.533,8.533v17.067
				c0,4.713,3.821,8.533,8.533,8.533h8.533C235.129,247.376,238.95,251.197,238.95,255.91z"/>
		</g>
	</g>
	<g transform="translate(1 1)">
		<path style="fill:#FFFFFF;" d="M9.318,274.963c10.141,120.418,105.49,216.056,225.877,226.56c2.56,0.256,5.035,0.427,7.595,0.512
			c8.356,0.44,16.59,0.317,24.758-0.057c-2.261-0.092-4.477-0.228-6.753-0.455C131.239,490.609,32.224,381.297,34.138,251.296
			S138.242,14.945,268.063,7.849c-8.219-0.447-16.455-0.469-24.676-0.065h-0.085C176.481,11.22,113.897,41.563,69.816,91.898
			S3.91,208.273,9.318,274.963z"/>
		<path style="fill:#FFFFFF;" d="M396.464,474.032l47.286,28.345v-15.345l-34.048-20.409
			C405.391,469.246,400.945,471.67,396.464,474.032z"/>
	</g>
	<g>
		<path style="fill:#FFFFFF;" d="M1.834,276.642c-3.097-38.296,2.457-76.798,16.251-112.657
			c10.169-25.461,24.076-49.265,41.262-70.627c17.62-21,38.315-39.214,61.381-54.027c23.295-14.471,48.692-25.245,75.286-31.94
			c26.696-6.202,54.158-8.454,81.507-6.682l-1.325,17.015c-25.545-1.632-51.191,0.472-76.128,6.245
			c-24.808,6.257-48.5,16.309-70.239,29.799c-21.525,13.84-40.844,30.843-57.306,50.436c-16.021,19.947-28.999,42.158-38.51,65.91
			c-12.881,33.482-18.064,69.432-15.165,105.189L1.834,276.642z"/>
		<g>
			<path style="fill:#428DFF;" d="M257.017,187.643c23.564,0,42.667-19.103,42.667-42.667s-19.102-42.667-42.667-42.667
				c-23.564,0-42.667,19.103-42.667,42.667C214.378,168.529,233.464,187.616,257.017,187.643z M257.017,119.376
				c14.138,0,25.6,11.462,25.6,25.6c0,14.139-11.462,25.6-25.6,25.6s-25.6-11.462-25.6-25.6
				C231.432,130.844,242.884,119.392,257.017,119.376z"/>
			<path style="fill:#428DFF;" d="M214.35,392.443h102.4c9.421-0.011,17.056-7.645,17.067-17.067v-34.133
				c-0.011-9.421-7.645-17.056-17.067-17.067h-17.067v-102.4c-0.011-9.421-7.645-17.056-17.067-17.067h-59.733
				c-9.421,0.011-17.056,7.645-17.067,17.067v17.067c0.011,9.421,7.645,17.056,17.067,17.067l8.533-0.009v68.275H214.35
				c-9.421,0.011-17.056,7.645-17.067,17.067v34.133C197.294,384.798,204.929,392.432,214.35,392.443z M214.35,341.243h17.067
				c9.421-0.011,17.056-7.645,17.067-17.067V255.91c-0.011-9.421-7.645-17.056-17.067-17.067h-8.533v-17.067h59.733v102.4
				c0.011,9.421,7.645,17.056,17.067,17.067h17.067v34.133h-102.4V341.243z"/>
			<path style="fill:#428DFF;" d="M1.677,241.391c-0.523,5.858-0.612,11.746-0.267,17.616l0.423,17.621l-0.001,0.006
				c10.677,124.503,109.233,223.353,233.704,234.4c7.233,0.583,14.435,0.878,21.604,0.884c48.094,0.09,95.226-13.471,135.917-39.108
				c2.777-1.823,6.342-1.936,9.229-0.292l63.675,38.175c2.636,1.581,5.918,1.622,8.593,0.108c2.675-1.515,4.328-4.351,4.328-7.425
				V385.868c0.013-1.428,0.395-2.829,1.108-4.067c42.934-76.095,44.108-168.828,3.115-245.986S364.611,7.725,277.521,0.71V0.709
				c-27.35-1.771-54.811,0.48-81.507,6.682c-26.594,6.695-51.991,17.469-75.286,31.94C97.662,54.144,76.967,72.358,59.347,93.358
				c-17.186,21.362-31.092,45.166-41.261,70.627c-1.175,2.697-1.868,5.578-2.823,8.359c-1.539,4.455,0.825,9.313,5.279,10.852
				c4.455,1.539,9.313-0.825,10.852-5.279c0.891-2.594,1.516-5.289,2.62-7.802c9.511-23.751,22.489-45.962,38.51-65.909
				c16.462-19.593,35.781-36.595,57.306-50.436c21.739-13.49,45.432-23.541,70.24-29.799c24.935-5.772,50.579-7.876,76.121-6.245
				l0.006,0.002c81.271,6.565,153.59,54.106,191.841,126.112s37.158,158.545-2.899,229.563c-2.165,3.799-3.309,8.094-3.321,12.467
				V488.31l-50.75-30.425c-8.391-4.982-18.876-4.798-27.087,0.475c-43.817,27.603-95.456,40.125-147.05,35.658
				C120.78,483.718,28.811,391.48,18.85,275.302l-0.002-0.006l-0.373-16.483c-0.341-5.486-0.26-10.991,0.242-16.465
				c0.29-4.611-3.168-8.605-7.773-8.979c-2.295-0.173-4.564,0.576-6.303,2.083C2.901,236.957,1.835,239.095,1.677,241.391z"/>
			<path style="fill:#428DFF;" d="M9.8,215.241c0.43,0.322,0.908,0.575,1.417,0.749c0.539,0.185,1.09,0.331,1.649,0.439
				c2.252,0.315,4.542-0.184,6.459-1.407c0.91-0.639,1.692-1.442,2.308-2.367c1.867-2.788,1.874-6.425,0.019-9.22
				c-0.653-0.918-1.465-1.712-2.398-2.343c-0.912-0.653-1.94-1.127-3.029-1.396c-2.197-0.488-4.498-0.087-6.401,1.115
				c-3.922,2.762-4.995,8.111-2.442,12.172l1.056,1.24C8.842,214.624,9.301,214.967,9.8,215.241z"/>
			<path style="fill:#428DFF;" d="M257.017,460.71c113.108,0,204.8-91.692,204.8-204.8s-91.692-204.8-204.8-204.8
				s-204.8,91.692-204.8,204.8C52.346,368.964,143.962,460.581,257.017,460.71z M257.017,68.176
				c103.682,0,187.733,84.051,187.733,187.733s-84.051,187.733-187.733,187.733S69.283,359.592,69.283,255.91
				C69.4,152.276,153.383,68.294,257.017,68.176z"/>
		</g>
	</g>
</g>
<g>
</g>
<g>
</g>
<g>
</g>
<g>
</g>
<g>
</g>
<g>
</g>
<g>
</g>
<g>
</g>
<g>
</g>
<g>
</g>
<g>
</g>
<g>
</g>
<g>
</g>
<g>
</g>
<g>
</g>
</svg>
