<?xml version="1.0" encoding="iso-8859-1"?>
<!-- Generator: Adobe Illustrator 19.0.0, SVG Export Plug-In . SVG Version: 6.00 Build 0)  -->
<svg version="1.1" id="Capa_1" xmlns="http://www.w3.org/2000/svg" xmlns:xlink="http://www.w3.org/1999/xlink" x="0px" y="0px"
	 viewBox="0 0 512 512" style="enable-background:new 0 0 512 512;" xml:space="preserve">
<g>
	<g transform="translate(1 1)">
		<g>
			<rect x="50.2" y="203.8" style="fill:#A4C2F7;" width="409.6" height="213.333"/>
			<rect x="50.2" y="50.2" style="fill:#A4C2F7;" width="409.6" height="196.267"/>
		</g>
		<g>
			<rect x="50.2" y="203.8" style="fill:#D4E1F4;" width="384" height="213.333"/>
			<rect x="50.2" y="50.2" style="fill:#D4E1F4;" width="384" height="196.267"/>
		</g>
		<g>
			<path style="fill:#A4C2F7;" d="M33.133,434.2H75.8v46.933c0,11.782-9.551,21.333-21.333,21.333s-21.333-9.551-21.333-21.333
				V434.2z"/>
			<path style="fill:#A4C2F7;" d="M434.2,434.2h42.667v46.933c0,11.782-9.551,21.333-21.333,21.333s-21.333-9.551-21.333-21.333
				V434.2z"/>
			<path style="fill:#A4C2F7;" d="M33.133,331.8h443.733c14.138,0,25.6,11.462,25.6,25.6v68.267c0,14.138-11.462,25.6-25.6,25.6
				H33.133c-14.138,0-25.6-11.462-25.6-25.6V357.4C7.533,343.262,18.995,331.8,33.133,331.8z"/>
			<path style="fill:#A4C2F7;" d="M33.133,169.667h443.733c14.138,0,25.6,11.462,25.6,25.6v68.267c0,14.138-11.462,25.6-25.6,25.6
				H33.133c-14.138,0-25.6-11.462-25.6-25.6v-68.267C7.533,181.128,18.995,169.667,33.133,169.667z"/>
			<path style="fill:#A4C2F7;" d="M33.133,7.533h443.733c14.138,0,25.6,11.462,25.6,25.6V101.4c0,14.138-11.462,25.6-25.6,25.6
				H33.133c-14.138,0-25.6-11.462-25.6-25.6V33.133C7.533,18.995,18.995,7.533,33.133,7.533z"/>
		</g>
		<g>
			<path style="fill:#E3E7F2;" d="M33.133,331.8h418.133c14.138,0,25.6,11.462,25.6,25.6v68.267c0,14.138-11.462,25.6-25.6,25.6
				H33.133c-14.138,0-25.6-11.462-25.6-25.6V357.4C7.533,343.262,18.995,331.8,33.133,331.8z"/>
			<path style="fill:#E3E7F2;" d="M33.133,169.667h418.133c14.138,0,25.6,11.462,25.6,25.6v68.267c0,14.138-11.462,25.6-25.6,25.6
				H33.133c-14.138,0-25.6-11.462-25.6-25.6v-68.267C7.533,181.128,18.995,169.667,33.133,169.667z"/>
			<path style="fill:#E3E7F2;" d="M33.133,7.533h418.133c14.138,0,25.6,11.462,25.6,25.6V101.4c0,14.138-11.462,25.6-25.6,25.6
				H33.133c-14.138,0-25.6-11.462-25.6-25.6V33.133C7.533,18.995,18.995,7.533,33.133,7.533z"/>
			<circle style="fill:#E3E7F2;" cx="67.267" cy="391.533" r="17.067"/>
			<circle style="fill:#E3E7F2;" cx="67.267" cy="229.4" r="17.067"/>
			<circle style="fill:#E3E7F2;" cx="67.267" cy="67.267" r="17.067"/>
			<circle style="fill:#E3E7F2;" cx="135.533" cy="67.267" r="17.067"/>
		</g>
		<path style="fill:#A4C2F7;" d="M391.533,482.499v19.968H118.467v-21.248c-0.224-18.941,9.662-36.566,25.941-46.251l55.381-31.915
			c7.408-4.419,11.896-12.453,11.775-21.077v-15.104c0.021-1.414-0.429-2.795-1.279-3.925
			c-11.04-15.285-19.036-32.552-23.552-50.859v-91.904c0,0-6.571-52.139,55.467-58.453c4.011-0.341,8.277-0.597,12.8-0.597
			c75.691,0,68.267,59.051,68.267,59.051v91.904c-4.516,18.307-12.512,35.573-23.552,50.859c-0.85,1.13-1.3,2.511-1.279,3.925
			v15.787c-0.11,8.889,4.677,17.119,12.459,21.419l53.163,31.317C381.202,444.827,391.763,462.932,391.533,482.499z"/>
		<path style="fill:#E3E7F2;" d="M365.933,482.499v19.968H118.467v-21.248c-0.224-18.941,9.662-36.566,25.941-46.251l55.381-31.915
			c7.408-4.419,11.896-12.453,11.775-21.077v-15.104c0.021-1.414-0.429-2.795-1.279-3.925
			c-11.04-15.285-19.036-32.552-23.552-50.859v-91.904c0,0-6.571-52.139,55.467-58.453c62.037,6.315,55.467,58.453,55.467,58.453
			v91.904c-4.516,18.307-12.512,35.573-23.552,50.859c-0.85,1.13-1.3,2.511-1.279,3.925v15.787
			c-0.11,8.889,4.677,17.119,12.459,21.419l53.163,31.317C355.602,444.827,366.163,462.932,365.933,482.499z"/>
		<path style="fill:#FFFFFF;" d="M250.733,323.267h15.77c7.069,0,12.8,5.731,12.8,12.8v8.533c0,7.069-5.731,12.8-12.8,12.8h-15.77
			c-7.069,0-12.8-5.731-12.8-12.8v-8.533C237.933,328.997,243.664,323.267,250.733,323.267z"/>
		<g>
			<rect x="152.6" y="246.467" style="fill:#A4C2F7;" width="34.133" height="51.2"/>
			<path style="fill:#A4C2F7;" d="M323.267,246.467H357.4v42.667c0,4.713-3.821,8.533-8.533,8.533h-25.6V246.467z"/>
		</g>
		<g>
			<path style="fill:#FFFFFF;" d="M58.733,451.267c-6.792,0.009-13.309-2.685-18.112-7.488s-7.497-11.32-7.488-18.112V357.4
				c-0.009-6.792,2.685-13.309,7.488-18.112c4.803-4.803,11.32-7.497,18.112-7.488H75.8v-42.667H58.733
				c-6.792,0.009-13.309-2.685-18.112-7.488c-4.803-4.803-7.497-11.32-7.488-18.112v-68.267c-0.009-6.792,2.685-13.309,7.488-18.112
				s11.32-7.497,18.112-7.488H75.8V127H58.733c-6.792,0.009-13.309-2.685-18.112-7.488c-4.803-4.803-7.497-11.32-7.488-18.112
				V33.133c-0.009-6.792,2.685-13.309,7.488-18.112s11.32-7.497,18.112-7.488h-25.6c-6.792-0.009-13.309,2.685-18.112,7.488
				s-7.497,11.32-7.488,18.112V101.4c-0.009,6.792,2.685,13.309,7.488,18.112c4.803,4.803,11.32,7.497,18.112,7.488H50.2v42.667
				H33.133c-6.792-0.009-13.309,2.685-18.112,7.488s-7.497,11.32-7.488,18.112v68.267c-0.009,6.792,2.685,13.309,7.488,18.112
				c4.803,4.803,11.32,7.497,18.112,7.488H50.2V331.8H33.133c-6.792-0.009-13.309,2.685-18.112,7.488
				c-4.803,4.803-7.497,11.32-7.488,18.112v68.267c-0.009,6.792,2.685,13.309,7.488,18.112s11.32,7.497,18.112,7.488"/>
			<path style="fill:#FFFFFF;" d="M434.2,451.267l0,29.867c-0.036,8.096,4.533,15.508,11.783,19.113
				c7.25,3.604,15.918,2.773,22.35-2.143c-5.357-3.998-8.519-10.286-8.533-16.97v-29.867H434.2z"/>
		</g>
	</g>
	<g>
		<path style="fill:#428DFF;" d="M68.267,366.933c-14.138,0-25.6,11.462-25.6,25.6s11.462,25.6,25.6,25.6s25.6-11.462,25.6-25.6
			C93.851,378.401,82.399,366.949,68.267,366.933z M68.267,401.067c-4.713,0-8.533-3.82-8.533-8.533S63.554,384,68.267,384
			c4.713,0,8.533,3.82,8.533,8.533C76.795,397.244,72.978,401.062,68.267,401.067z"/>
		<path style="fill:#428DFF;" d="M332.8,366.933c-4.713,0-8.533,3.821-8.533,8.533c0,4.713,3.82,8.533,8.533,8.533h128
			c4.713,0,8.533-3.821,8.533-8.533c0-4.713-3.82-8.533-8.533-8.533H332.8z"/>
		<path style="fill:#428DFF;" d="M460.8,401.067h-85.333c-4.713,0-8.533,3.821-8.533,8.533c0,4.713,3.821,8.533,8.533,8.533H460.8
			c4.713,0,8.533-3.821,8.533-8.533C469.333,404.887,465.513,401.067,460.8,401.067z"/>
		<path style="fill:#428DFF;" d="M93.867,230.4c0-14.138-11.462-25.6-25.6-25.6s-25.6,11.462-25.6,25.6
			c0,14.139,11.462,25.6,25.6,25.6C82.399,255.985,93.851,244.532,93.867,230.4z M59.733,230.4c0-4.713,3.821-8.533,8.533-8.533
			c4.713,0,8.533,3.82,8.533,8.533s-3.82,8.533-8.533,8.533C63.556,238.929,59.738,235.111,59.733,230.4z"/>
		<path style="fill:#428DFF;" d="M392.533,204.8c-4.713,0-8.533,3.82-8.533,8.533s3.82,8.533,8.533,8.533H460.8
			c4.713,0,8.533-3.821,8.533-8.533s-3.82-8.533-8.533-8.533H392.533z"/>
		<path style="fill:#428DFF;" d="M460.8,238.933h-68.267c-4.713,0-8.533,3.821-8.533,8.533c0,4.713,3.82,8.533,8.533,8.533H460.8
			c4.713,0,8.533-3.82,8.533-8.533C469.333,242.754,465.513,238.933,460.8,238.933z"/>
		<path style="fill:#428DFF;" d="M477.867,0H34.133C15.29,0.02,0.02,15.29,0,34.133V102.4c0.02,18.843,15.29,34.113,34.133,34.133
			h8.533v25.6h-8.533C15.29,162.153,0.02,177.424,0,196.267v68.267c0.02,18.843,15.29,34.113,34.133,34.133h8.533v25.6h-8.533
			C15.29,324.287,0.02,339.557,0,358.4v68.267c0.046,15.521,10.569,29.053,25.6,32.922v22.545C25.6,498.628,38.972,512,55.467,512
			s29.867-13.372,29.867-29.867V460.8h29.394c-2.48,6.864-3.763,14.102-3.794,21.4v21.267c-0.001,2.263,0.898,4.434,2.499,6.035
			c1.6,1.6,3.771,2.499,6.035,2.499h273.067c2.263,0.001,4.434-0.898,6.035-2.499c1.6-1.6,2.499-3.771,2.499-6.035v-19.954
			c-0.02-7.764-1.449-15.459-4.217-22.712h29.817v21.333c0,16.495,13.372,29.867,29.867,29.867s29.867-13.372,29.867-29.867v-22.545
			c15.031-3.869,25.554-17.4,25.6-32.922V358.4c-0.02-18.843-15.29-34.113-34.133-34.133h-8.533v-25.6h8.533
			c18.843-0.02,34.113-15.29,34.133-34.133v-68.267c-0.02-18.843-15.29-34.113-34.133-34.133h-8.533v-25.6h8.533
			c18.843-0.02,34.113-15.29,34.133-34.133V34.133C511.98,15.29,496.71,0.02,477.867,0z M59.733,136.533h134.781
			c-10.577,6.866-19.87,15.53-27.458,25.6H59.733V136.533z M349.867,227.554l0.002,11.379H332.8v-17.288
			c0.198-2.762,0.211-5.534,0.039-8.297l0.003-0.015l-0.006-0.029c-0.566-13.616-5.694-26.647-14.56-36.996
			C304.967,161.242,284.017,153.6,256,153.6c-28.017,0-48.967,7.642-62.275,22.708c-10.602,12.622-15.818,28.905-14.525,45.338
			v17.288h-17.068l0.002-11.379c-0.288-49.899,39.868-90.616,89.767-91.021h8.2C309.998,136.938,350.154,177.655,349.867,227.554z
			 M332.8,256h17.067l0.009,34.092l-0.009,0.041H332.8V256z M179.2,290.133h-17.067V256H179.2V290.133z M162.133,320.496V307.2
			H179.2v5.908c0.001,0.609,0.065,1.217,0.192,1.813c1.353,6.09,3.17,12.067,5.435,17.879h-12.094
			C166.43,332.287,161.708,326.806,162.133,320.496z M17.067,264.533v-68.267c0.011-9.421,7.645-17.056,17.067-17.067H156.49
			c-7.503,15.015-11.414,31.569-11.423,48.354V281.6H34.133C24.712,281.589,17.077,273.955,17.067,264.533z M59.733,298.667h85.333
			v21.829c0.042,1.263,0.162,2.522,0.358,3.771H59.733V298.667z M68.267,482.133c0,7.069-5.731,12.8-12.8,12.8
			s-12.8-5.731-12.8-12.8V460.8h25.6V482.133z M76.8,443.733H34.133c-9.421-0.011-17.056-7.645-17.067-17.067V358.4
			c0.011-9.421,7.645-17.056,17.067-17.067h119.134c5.034,5.407,12.078,8.495,19.466,8.533h19.941
			c3.388,6.417,7.18,12.612,11.351,18.55v14.6c0.114,5.559-2.758,10.752-7.525,13.613l-55.342,31.958
			c-6.68,3.867-12.531,9.014-17.219,15.146H76.8z M384.002,494.933H128V482.2c-0.221-15.881,8.039-30.676,21.675-38.821
			l55.317-31.946c10.071-5.903,16.213-16.744,16.1-28.417v-15.133c0.014-3.205-0.987-6.332-2.859-8.933
			c-1.237-1.717-3.433-4.941-5.957-9.083h18.555c2.039,9.926,10.77,17.055,20.903,17.067h15.775
			c11.777-0.012,21.321-9.556,21.333-21.333v-8.533c-0.012-11.777-9.556-21.321-21.333-21.333h-15.775
			c-10.133,0.012-18.863,7.141-20.902,17.067h-27.499c-3.017-6.632-5.384-13.54-7.066-20.629v-90.963
			c-0.001-0.354-0.024-0.707-0.067-1.058c-0.841-11.769,2.854-23.414,10.325-32.546c9.916-11.237,26.566-16.937,49.475-16.937
			c22.808,0,39.408,5.65,49.35,16.788c6.163,7.239,9.815,16.28,10.406,25.769l-0.023,0.11c0,0.093,0.05,0.171,0.053,0.263
			c0.179,2.181,0.183,4.372,0.013,6.554c-0.043,0.351-0.065,0.704-0.067,1.058v90.963c-1.383,5.887-3.253,11.649-5.591,17.226
			l-0.073,0.168c-4.341,10.372-9.814,20.232-16.32,29.403c-1.862,2.599-2.856,5.72-2.842,8.917v15.788
			c-0.17,11.911,6.212,22.954,16.617,28.754l53.517,31.496c14.307,8.016,23.108,23.192,22.958,39.591L384.002,494.933z
			 M247.467,337.067c0.003-2.355,1.912-4.264,4.267-4.267h15.775c2.355,0.003,4.264,1.912,4.267,4.267v8.533
			c-0.003,2.355-1.912,4.264-4.267,4.267h-15.775c-2.355-0.003-4.264-1.912-4.267-4.267V337.067z M469.333,482.133
			c0,7.069-5.731,12.8-12.8,12.8s-12.8-5.731-12.8-12.8V460.8h25.6V482.133z M494.933,358.4v68.267
			c-0.011,9.421-7.645,17.056-17.067,17.067h-90.768c-4.863-6.039-10.89-11.04-17.724-14.704l-53.5-31.488
			c-4.995-2.808-8.033-8.142-7.9-13.871v-15.254c6.011-8.534,11.23-17.6,15.592-27.083h154.3
			C487.288,341.344,494.923,348.979,494.933,358.4z M452.267,324.267H330.138c0.94-3.046,1.779-6.167,2.471-9.346
			c0.126-0.596,0.19-1.203,0.192-1.813V307.2h17.067c6.069-0.02,11.668-3.272,14.693-8.533h87.707V324.267z M494.933,196.267v68.267
			c-0.011,9.421-7.645,17.056-17.067,17.067H366.933v-54.046c-0.009-16.785-3.92-33.339-11.423-48.354h122.356
			C487.288,179.211,494.923,186.845,494.933,196.267z M452.267,162.133H344.944c-7.589-10.07-16.882-18.734-27.458-25.6h134.781
			V162.133z M494.933,102.4c-0.011,9.421-7.645,17.056-17.067,17.067H34.133c-9.421-0.011-17.056-7.645-17.067-17.067V34.133
			c0.011-9.421,7.645-17.056,17.067-17.067h443.733c9.421,0.011,17.056,7.645,17.067,17.067V102.4z"/>
		<path style="fill:#428DFF;" d="M68.267,42.667c-14.138,0-25.6,11.462-25.6,25.6s11.462,25.6,25.6,25.6s25.6-11.462,25.6-25.6
			C93.851,54.135,82.399,42.682,68.267,42.667z M68.267,76.8c-4.713,0-8.533-3.82-8.533-8.533c0-4.713,3.821-8.533,8.533-8.533
			c4.713,0,8.533,3.821,8.533,8.533C76.795,72.978,72.978,76.795,68.267,76.8z"/>
		<path style="fill:#428DFF;" d="M136.533,42.667c-14.138,0-25.6,11.462-25.6,25.6s11.462,25.6,25.6,25.6s25.6-11.462,25.6-25.6
			C162.118,54.135,150.665,42.682,136.533,42.667z M136.533,76.8c-4.713,0-8.533-3.82-8.533-8.533c0-4.713,3.821-8.533,8.533-8.533
			s8.533,3.821,8.533,8.533C145.062,72.978,141.244,76.795,136.533,76.8z"/>
		<path style="fill:#428DFF;" d="M460.8,42.667H307.2c-4.713,0-8.533,3.821-8.533,8.533s3.82,8.533,8.533,8.533h153.6
			c4.713,0,8.533-3.821,8.533-8.533S465.513,42.667,460.8,42.667z"/>
		<path style="fill:#428DFF;" d="M460.8,76.8H307.2c-4.713,0-8.533,3.821-8.533,8.533s3.82,8.533,8.533,8.533h153.6
			c4.713,0,8.533-3.821,8.533-8.533S465.513,76.8,460.8,76.8z"/>
	</g>
</g>
<g>
</g>
<g>
</g>
<g>
</g>
<g>
</g>
<g>
</g>
<g>
</g>
<g>
</g>
<g>
</g>
<g>
</g>
<g>
</g>
<g>
</g>
<g>
</g>
<g>
</g>
<g>
</g>
<g>
</g>
</svg>
