<?xml version="1.0" encoding="iso-8859-1"?>
<!-- Generator: Adobe Illustrator 19.0.0, SVG Export Plug-In . SVG Version: 6.00 Build 0)  -->
<svg version="1.1" id="Capa_1" xmlns="http://www.w3.org/2000/svg" xmlns:xlink="http://www.w3.org/1999/xlink" x="0px" y="0px"
	 viewBox="0 0 512 512" style="enable-background:new 0 0 512 512;" xml:space="preserve">
<g>
	<g transform="translate(1 20)">
		<g>
			<rect x="16.067" y="218.933" style="fill:#A4C2F7;" width="256" height="59.733"/>
			<path style="fill:#A4C2F7;" d="M297.667,470.923v12.544H7.533v-13.824c0.183-18.734,10.821-35.794,27.563-44.203l61.184-33.792
				c2.816-1.677,5.523-3.53,8.107-5.547c1.29-0.928,2.052-2.422,2.048-4.011c0-1.41-0.572-2.76-1.586-3.741s-2.381-1.509-3.79-1.464
				h-52.48c-2.781,0.263-5.581,0.263-8.363,0c-5.767-0.339-11.39-1.942-16.469-4.693c-3.212-1.819-5.535-4.879-6.423-8.462
				s-0.262-7.374,1.73-10.482c12.203-19.115,38.229-65.195,41.643-113.92c0.595-13.609,3.751-26.984,9.301-39.424
				c9.387-20.053,25.003-43.776,62.976-48.384c4.33-0.556,8.69-0.841,13.056-0.853c81.493,0.683,85.675,81.664,85.675,81.664
				c1.024,51.2,30.464,98.475,45.995,119.552c2.51,3.437,3.276,7.847,2.071,11.928c-1.204,4.082-4.242,7.369-8.215,8.893
				c-10.665,3.638-21.961,5.061-33.195,4.182h-46.507c-2.103-0.069-4.089,0.964-5.24,2.725c-1.151,1.761-1.299,3.995-0.392,5.893
				c2.049,4.315,5.35,7.912,9.472,10.325l72.704,29.952c8.708,4.089,16.097,10.533,21.333,18.603
				C294.904,452.269,297.662,461.492,297.667,470.923z"/>
		</g>
		<path style="fill:#E3E7F2;" d="M272.067,470.923v12.544H7.533v-13.824c0.183-18.734,10.821-35.794,27.563-44.203l61.184-33.792
			c2.816-1.677,5.523-3.53,8.107-5.547c1.29-0.928,2.052-2.422,2.048-4.011c0-1.41-0.572-2.76-1.586-3.741s-2.381-1.509-3.79-1.464
			H40.216c-5.767-0.339-11.39-1.942-16.469-4.693c-3.212-1.819-5.535-4.879-6.423-8.462s-0.262-7.374,1.73-10.482
			c12.203-19.115,38.229-65.195,41.643-113.92c0.595-13.609,3.751-26.984,9.301-39.424c9.387-20.053,25.003-43.776,62.976-48.384
			c69.376,8.363,73.131,80.811,73.131,80.811c1.024,51.2,30.464,98.475,45.995,119.552c2.51,3.437,3.276,7.847,2.071,11.928
			c-1.204,4.082-4.242,7.369-8.215,8.893c-6.374,2.406-13.08,3.816-19.883,4.182c-4.432,0.313-8.88,0.313-13.312,0h-46.507
			c-3.403-0.036-6.21,2.657-6.315,6.059c0.025,0.895,0.259,1.771,0.683,2.56c2.049,4.315,5.35,7.912,9.472,10.325l72.704,29.952
			c8.708,4.089,16.097,10.533,21.333,18.603C269.304,452.269,272.062,461.493,272.067,470.923z"/>
		<g>
			<path style="fill:#FFFFFF;" d="M122.733,304.267H139.8c7.069,0,12.8,5.731,12.8,12.8v8.533c0,7.069-5.731,12.8-12.8,12.8h-17.067
				c-7.069,0-12.8-5.731-12.8-12.8v-8.533C109.933,309.997,115.664,304.267,122.733,304.267z"/>
			<path style="fill:#FFFFFF;" d="M238.858,376.922l0.446,0.03L238.858,376.922z"/>
			<path style="fill:#FFFFFF;" d="M217.453,376.885c-0.258,0.047-0.512,0.112-0.761,0.194c2.37,0.061,5.643,0.058,9.38-0.194
				H217.453z"/>
			<path style="fill:#FFFFFF;" d="M33.133,469.643c0.183-18.734,10.821-35.794,27.563-44.203l61.184-33.792
				c2.816-1.677,5.523-3.53,8.107-5.547c1.29-0.928,2.052-2.422,2.048-4.011c0-1.41-0.572-2.76-1.586-3.741s-2.381-1.509-3.79-1.464
				h-25.6c1.41-0.045,2.777,0.483,3.79,1.464s1.585,2.331,1.586,3.741c0.004,1.589-0.759,3.082-2.048,4.011
				c-2.583,2.017-5.291,3.869-8.107,5.547L35.096,425.44c-16.742,8.408-27.38,25.469-27.563,44.203v13.824h25.6V469.643z"/>
			<polygon style="fill:#FFFFFF;" points="58.733,278.667 78.991,278.667 89.155,218.933 58.733,218.933 			"/>
			<path style="fill:#FFFFFF;" d="M23.747,372.192c5.08,2.752,10.702,4.354,16.469,4.693c2.781,0.263,5.581,0.263,8.363,0h17.237
				c-5.767-0.339-11.389-1.942-16.469-4.693c-3.212-1.819-5.535-4.879-6.423-8.462c-0.888-3.583-0.262-7.374,1.73-10.482
				c14.807-23.171,26.362-48.266,34.339-74.581h-25.6c-7.977,26.315-19.532,51.41-34.339,74.581
				c-1.992,3.108-2.617,6.899-1.73,10.482S20.534,370.373,23.747,372.192z"/>
			<path style="fill:#FFFFFF;" d="M158.552,151.523c-4.154-0.523-8.335-0.809-12.522-0.857c-4.366,0.012-8.726,0.297-13.056,0.853
				C95,156.128,79.384,179.851,69.997,199.904c-2.85,6.083-5.011,12.466-6.442,19.029h25.6c1.431-6.563,3.592-12.946,6.442-19.029
				C104.982,179.855,120.594,156.138,158.552,151.523z"/>
			<path style="fill:#FFFFFF;" d="M249.411,377.006l0.319-0.017L249.411,377.006z"/>
			<path style="fill:#FFFFFF;" d="M245.433,377.105c-0.262,0.002-0.527,0.004-0.777,0.003
				C244.916,377.109,245.16,377.107,245.433,377.105z"/>
			<path style="fill:#FFFFFF;" d="M241.077,377.039l0.714,0.026L241.077,377.039z"/>
		</g>
	</g>
	<g>
		<polygon style="fill:#FFFFFF;" points="8.533,494.933 119.467,494.933 298.667,494.933 298.667,512 119.467,512 8.533,512 		"/>
		<g>
			<path style="fill:#428DFF;" d="M82.859,509.525c0.77-0.815,1.379-1.77,1.792-2.813c0.438-1.027,0.67-2.13,0.683-3.246
				c-0.014-3.45-2.096-6.556-5.282-7.879c-3.187-1.323-6.856-0.606-9.31,1.82l-1.025,1.279c-0.324,0.476-0.583,0.993-0.771,1.538
				c-0.246,0.484-0.417,1.002-0.508,1.537c-0.096,0.564-0.153,1.133-0.171,1.705c0.031,2.259,0.915,4.423,2.475,6.059
				C74.138,512.747,79.461,512.747,82.859,509.525L82.859,509.525z"/>
			<path style="fill:#428DFF;" d="M470.158,69.65l-0.021-0.02c-0.113-0.139-0.207-0.291-0.321-0.43
				C435.285,26.644,383.799,1.408,329.008,0.183c-1.543-0.092-3.025-0.136-4.527-0.14C324.406,0.041,324.343,0,324.267,0
				c-0.08,0-0.145,0.043-0.225,0.045c-0.234,0.001-0.489,0.02-0.724,0.023c-1.228,0.014-2.45,0.036-3.51,0.102
				c-54.866,1.163-106.446,26.39-141.05,68.983c-0.117,0.142-0.218,0.307-0.334,0.45l-0.049,0.046l-0.022,0.049
				c-7.418,9.106-13.959,18.893-19.536,29.23c-2.246,4.142-0.709,9.321,3.433,11.567c4.142,2.246,9.321,0.709,11.567-3.433
				c4.018-7.309,8.562-14.317,13.596-20.968c11.261,7.077,23.204,13.006,35.65,17.697c-1.711,5.713-3.259,11.285-4.487,16.687
				c-1.029,4.592,1.853,9.15,6.442,10.191c4.589,1.041,9.155-1.829,10.208-6.416c1.105-4.87,2.493-9.905,4.027-15.061
				c24.846,7.398,50.565,11.458,76.482,12.073V179.2h-29.95c-4.713,0-8.533,3.821-8.533,8.533c0,4.713,3.821,8.533,8.533,8.533
				h29.95v57.8c-3.02,0.09-6.045,0.146-9.05,0.329c-4.692,0.299-8.258,4.339-7.973,9.032c0.285,4.693,4.313,8.272,9.007,8.002
				c2.664-0.16,5.343-0.203,8.017-0.286v87.07c-0.57-0.025-1.148-0.031-1.717-0.059c-4.685-0.194-8.65,3.428-8.879,8.111
				c-0.229,4.684,3.364,8.675,8.045,8.938c3.634,0.175,7.358,0.263,11.083,0.263c1.608,0,3.133-0.087,4.458-0.171
				c54.883-1.168,106.476-26.408,141.083-69.021c0.116-0.142,0.211-0.296,0.327-0.438l0.023-0.02l0.012-0.028
				c55.774-68.826,55.773-167.294-0.003-236.118L470.158,69.65z M461.14,289.384c-11.309-7.108-23.305-13.058-35.807-17.761
				c7.161-24.502,11.086-49.835,11.675-75.356h57.568C493.022,229.957,481.372,262.401,461.14,289.384z M332.8,357.641v-86.557
				c24.102,0.625,48.02,4.399,71.143,11.227C387.763,324.968,361.246,353.046,332.8,357.641z M437.008,179.2
				c-0.589-25.52-4.515-50.853-11.678-75.355c12.503-4.703,24.501-10.654,35.811-17.763c20.233,26.983,31.882,59.428,33.435,93.118
				H437.008z M332.8,17.824c28.411,4.595,54.894,32.599,71.08,75.166c-23.115,6.732-47.01,10.416-71.08,10.96V17.824z
				 M450.353,72.751c-9.616,5.872-19.754,10.844-30.285,14.852c-7.768-22.125-19.992-42.421-35.915-59.634
				C409.47,37.413,432.166,52.766,450.353,72.751z M264.327,28.02c-15.893,17.207-28.098,37.483-35.865,59.582
				c-10.529-4.008-20.666-8.979-30.281-14.851C216.352,52.785,239.03,37.449,264.327,28.02z M244.651,92.989
				c16.185-42.565,42.668-70.574,71.083-75.162v86.124C291.663,103.406,267.767,99.721,244.651,92.989z M332.8,121.266
				c25.866-0.615,51.535-4.66,76.336-12.03c6.599,22.759,10.231,46.275,10.807,69.964H332.8V121.266z M419.943,196.267
				c-0.576,23.635-4.193,47.097-10.759,69.808c-24.819-7.368-50.502-11.423-76.384-12.061v-57.747H419.943z M384.212,347.445
				c15.893-17.205,28.097-37.481,35.86-59.58c10.529,4.008,20.666,8.979,30.281,14.851
				C432.183,322.68,409.507,338.016,384.212,347.445z"/>
			<path style="fill:#428DFF;" d="M8.533,512h34.133c4.713,0,8.533-3.82,8.533-8.533c0-4.713-3.821-8.533-8.533-8.533h-25.6v-5.267
				c0.204-15.635,9.147-29.838,23.158-36.779L101.25,419.2c3.25-1.851,6.346-3.959,9.259-6.304c4.72-3.45,6.65-9.566,4.767-15.1
				c-1.922-5.667-7.258-9.465-13.242-9.425H49.617c-0.337,0-0.674,0.02-1.008,0.058c-6.749,0.591-13.531-0.68-19.608-3.675
				c-1.189-0.648-2.05-1.765-2.375-3.079c-0.325-1.329-0.087-2.732,0.658-3.879c3.985-6.259,9.821-16.039,15.918-28.157
				c0.717,0.058,1.402,0.228,2.132,0.228h66.031c2.039,9.926,10.769,17.054,20.902,17.067h17.067
				c11.777-0.012,21.321-9.556,21.333-21.333v-8.533c-0.012-11.777-9.556-21.321-21.333-21.333h-17.067
				c-10.133,0.012-18.863,7.141-20.902,17.067H51.071c10.383-23.071,16.848-47.712,19.129-72.908
				c0.54-12.538,3.417-24.865,8.483-36.346c10.258-21.742,26.408-44.017,68.258-44.346c72.342,0.571,77.092,70.637,77.25,73.338
				c1.133,55.512,33.683,105.487,47.625,124.4c0.929,1.226,1.228,2.816,0.808,4.296c-0.465,1.639-1.68,2.959-3.275,3.558
				c-9.67,3.183-19.878,4.4-30.025,3.579h-46.466c-5.202-0.041-10.04,2.662-12.733,7.112c-2.605,4.24-2.786,9.538-0.475,13.946
				c2.945,6.117,7.789,11.118,13.808,14.258l72.292,29.829c14.709,6.655,24.222,21.239,24.383,37.383v4.033h-179.2
				c-4.713,0-8.533,3.821-8.533,8.533c0,4.713,3.82,8.533,8.533,8.533h187.733c2.263,0.001,4.434-0.898,6.035-2.499
				c1.6-1.6,2.499-3.771,2.499-6.035V490.9c-0.169-22.885-13.65-43.576-34.517-52.975l-72.292-29.829
				c-1.205-0.658-2.256-1.566-3.083-2.662l41.242-0.029c12.622,0.998,25.313-0.642,37.267-4.817
				c6.463-2.596,11.355-8.045,13.242-14.75c1.849-6.544,0.553-13.575-3.508-19.029c-13.495-18.344-24.515-38.386-32.774-59.608
				h11.757c9.421-0.011,17.056-7.645,17.067-17.067v-42.667c-0.02-6.534-3.775-12.481-9.666-15.308
				C264.177,172.822,213.783,128.335,153.941,128h-9.216c-59.824,0.298-110.21,44.788-117.912,104.115
				c-5.936,2.811-9.728,8.784-9.747,15.352V320c-0.023,8.799,3.775,17.175,10.409,22.956c-5.593,11.005-10.923,19.916-14.592,25.673
				c-3.239,5.095-4.256,11.291-2.817,17.154c1.435,5.852,5.23,10.848,10.483,13.8c9.07,4.753,19.319,6.785,29.517,5.854h40.808
				l-58.708,32.409C12.584,447.73,0.169,467.731,0,489.667v13.8c-0.001,2.263,0.898,4.434,2.499,6.035
				C4.099,511.102,6.27,512.001,8.533,512z M128,337.067c0.003-2.355,1.912-4.264,4.267-4.267h17.067
				c2.355,0.003,4.264,1.912,4.267,4.267v8.533c-0.003,2.355-1.912,4.264-4.267,4.267h-17.067c-2.355-0.003-4.264-1.912-4.267-4.267
				V337.067z M34.133,247.467h20.228c-0.51,3.611-0.923,7.336-1.195,11.242c-0.807,10.615-2.582,21.133-5.303,31.425H34.133V247.467
				z M264.533,290.133h-17.374c-3.562-12.438-5.547-25.275-5.909-38.208c-0.007-0.117-0.114-1.751-0.482-4.458h23.765V290.133z
				 M144.725,145.067h9.216c49.795,0.268,92.211,36.248,100.596,85.333h-17.453c-7.726-26.415-29.495-67.791-90.143-68.267
				c-52.317,0.412-72.817,31.092-83.692,54.129c-2.092,4.57-3.824,9.297-5.18,14.138H44.199
				C52.519,181.306,94.932,145.303,144.725,145.067z M34.133,320v-12.8h8.597c-2.252,6.542-4.703,12.824-7.257,18.742
				C34.599,324.083,34.141,322.055,34.133,320z"/>
		</g>
	</g>
</g>
<g>
</g>
<g>
</g>
<g>
</g>
<g>
</g>
<g>
</g>
<g>
</g>
<g>
</g>
<g>
</g>
<g>
</g>
<g>
</g>
<g>
</g>
<g>
</g>
<g>
</g>
<g>
</g>
<g>
</g>
</svg>
