<?xml version="1.0" encoding="iso-8859-1"?>
<!-- Generator: Adobe Illustrator 19.0.0, SVG Export Plug-In . SVG Version: 6.00 Build 0)  -->
<svg version="1.1" id="Capa_1" xmlns="http://www.w3.org/2000/svg" xmlns:xlink="http://www.w3.org/1999/xlink" x="0px" y="0px"
	 viewBox="0 0 512.101 512.101" style="enable-background:new 0 0 512.101 512.101;" xml:space="preserve">
<g>
	<g transform="translate(1 20)">
		<g>
			<rect x="41.717" y="218.933" style="fill:#A4C2F7;" width="213.333" height="59.733"/>
			<path style="fill:#A4C2F7;" d="M289.184,464.011v19.456H7.584l0-20.736c-0.013-18.775,10.232-36.057,26.709-45.056l57.088-31.147
				c7.508-4.08,12.188-11.935,12.203-20.48v-14.763c0.008-1.386-0.442-2.736-1.28-3.84c-12.18-14.499-21.191-31.388-26.453-49.579
				v-89.6c0,0-4.864-51.115,59.733-57.003c4.253-0.424,8.526-0.624,12.8-0.597c77.995,0,72.533,57.6,72.533,57.6v89.6
				c-5.262,18.191-14.273,35.079-26.453,49.579c-0.838,1.104-1.288,2.454-1.28,3.84v15.36c-0.012,8.824,4.936,16.905,12.8,20.907
				l54.869,30.464C278.204,426.79,289.154,444.568,289.184,464.011z"/>
		</g>
		<path style="fill:#E3E7F2;" d="M263.584,464.011v19.456h-256l0-20.736c-0.013-18.775,10.232-36.057,26.709-45.056l57.088-31.147
			c7.508-4.08,12.188-11.935,12.203-20.48v-14.763c0.008-1.386-0.442-2.736-1.28-3.84c-12.18-14.499-21.191-31.388-26.453-49.579
			v-89.6c0,0-4.864-51.115,59.733-57.003c64.597,5.888,59.733,57.003,59.733,57.003v89.6c-5.262,18.191-14.273,35.079-26.453,49.579
			c-0.838,1.104-1.288,2.454-1.28,3.84v15.36c-0.012,8.824,4.936,16.905,12.8,20.907l54.869,30.464
			C252.604,426.79,263.554,444.568,263.584,464.011z"/>
		<g>
			<path style="fill:#FFFFFF;" d="M139.851,304.267h17.067c7.069,0,12.8,5.731,12.8,12.8v8.533c0,7.069-5.731,12.8-12.8,12.8
				h-17.067c-7.069,0-12.8-5.731-12.8-12.8v-8.533C127.051,309.997,132.781,304.267,139.851,304.267z"/>
			<path style="fill:#FFFFFF;" d="M161.184,151.264l0.116-0.005c-4.035-0.376-8.319-0.592-12.916-0.592
				c-4.274-0.026-8.547,0.173-12.8,0.597c-64.597,5.888-59.733,57.003-59.733,57.003v10.667h25.6v-10.667
				C101.451,208.267,96.587,157.152,161.184,151.264z"/>
			<rect x="75.851" y="218.933" style="fill:#FFFFFF;" width="25.6" height="59.733"/>
			<path style="fill:#FFFFFF;" d="M33.184,462.731c-0.013-18.775,10.232-36.057,26.709-45.056l57.088-31.147
				c7.508-4.08,12.188-11.935,12.203-20.48v-14.763c0.008-1.386-0.442-2.736-1.28-3.84c-12.181-14.499-21.191-31.388-26.453-49.579
				v-19.2h-25.6v19.2c5.262,18.191,14.273,35.079,26.453,49.579c0.838,1.104,1.288,2.454,1.28,3.84v14.763
				c-0.015,8.545-4.695,16.4-12.203,20.48l-57.088,31.147c-16.478,8.999-26.723,26.281-26.709,45.056l0,20.736h25.6V462.731z"/>
		</g>
	</g>
	<g>
		<polygon style="fill:#FFFFFF;" points="8.584,494.933 119.517,494.933 290.184,494.933 290.184,512 119.517,512 8.584,512 		"/>
		<g>
			<path style="fill:#428DFF;" d="M70.792,497.408l-1.025,1.279c-0.324,0.476-0.583,0.993-0.771,1.538
				c-0.246,0.484-0.417,1.002-0.508,1.537c-0.096,0.564-0.153,1.133-0.171,1.705c0.031,2.259,0.915,4.423,2.475,6.059
				c1.994,2.07,4.908,2.979,7.726,2.409c2.818-0.57,5.149-2.539,6.183-5.222c0.438-1.027,0.67-2.13,0.684-3.246
				c-0.014-3.45-2.096-6.556-5.282-7.879C76.915,494.264,73.246,494.982,70.792,497.408z"/>
			<path style="fill:#428DFF;" d="M8.584,512h34.133c4.713,0,8.533-3.82,8.533-8.533c0-4.713-3.821-8.533-8.533-8.533h-25.6v-12.204
				c-0.025-15.667,8.54-30.087,22.308-37.562l57.05-31.146c10.279-5.556,16.672-16.312,16.642-27.996v-14.754
				c0.018-3.258-1.049-6.429-3.033-9.012l-1.083-1.408c-1.849-2.388-4.792-6.212-8.011-10.983h18.959
				c2.039,9.926,10.769,17.054,20.902,17.066h17.067c11.777-0.012,21.321-9.556,21.333-21.333v-8.533
				c-0.012-11.777-9.556-21.321-21.333-21.333h-17.067c-10.133,0.012-18.863,7.141-20.902,17.067H91.206
				c-2.469-5.103-4.42-10.441-5.822-15.933l-0.009-18.158l0.009-0.042v-59.733c0-0.064-0.035-0.117-0.036-0.181l-0.005-11.294
				c-0.351-11.197,3.549-22.111,10.917-30.55c10.683-11.75,28.558-17.708,53.125-17.708c24.442,0,42.258,5.896,52.958,17.529
				c7.626,8.686,11.585,19.992,11.042,31.538v88.604c-4.857,16.089-12.887,31.043-23.617,43.979l-1.058,1.379
				c-1.998,2.589-3.075,5.771-3.059,9.042v15.396c-0.087,11.929,6.562,22.886,17.183,28.317l55.175,30.7
				c14.53,7.237,23.695,22.092,23.642,38.325v10.925H110.984c-4.713,0-8.533,3.821-8.533,8.533c0,4.713,3.821,8.533,8.533,8.533
				h179.2c2.263,0.001,4.434-0.898,6.035-2.499c1.6-1.6,2.499-3.771,2.499-6.035v-19.458c0.107-22.571-12.572-43.256-32.733-53.404
				l-55.158-30.696c-4.999-2.515-8.141-7.646-8.108-13.242v-14.663l0.542-0.704c12.495-15.099,21.684-32.65,26.975-51.521
				c0.143-0.628,0.215-1.269,0.217-1.913l-0.005-10.667h17.072c9.421-0.011,17.056-7.645,17.067-17.067v-51.2
				C264.515,177.695,214.889,128.069,153.651,128h-8.533c-61.238,0.069-110.864,49.695-110.933,110.933v51.2
				c0.02,6.069,3.272,11.668,8.533,14.692V320c-0.409,16.041,12.228,29.393,28.267,29.867H80.9
				c4.372,7.472,9.253,14.633,14.609,21.433l0.542,0.704v14.021c0.022,5.423-2.945,10.417-7.717,12.992l-57.066,31.158
				c-19.264,10.459-31.248,30.634-31.217,52.554v20.738c-0.001,2.263,0.898,4.434,2.499,6.035C4.15,511.102,6.321,512.001,8.584,512
				z M136.584,337.067c0.003-2.355,1.912-4.264,4.267-4.267h17.067c2.355,0.003,4.264,1.912,4.267,4.267v8.533
				c-0.003,2.355-1.912,4.264-4.267,4.267h-17.067c-2.355-0.003-4.264-1.912-4.267-4.267V337.067z M51.251,290.133v-42.667h17.067
				v42.667H51.251z M247.517,290.133h-17.067v-42.667h17.067V290.133z M145.117,145.067h8.533
				c48.5,0.068,88.98,37.038,93.434,85.333H230.41l-0.001-1.325c0.835-15.991-4.651-31.669-15.275-43.65
				c-14.05-15.454-36.175-23.292-65.75-23.292c-21.263-1.3-42.313,4.862-59.519,17.422l-0.018,0.013
				c-2.209,1.801-4.285,3.758-6.213,5.857c-10.469,11.754-15.961,27.115-15.317,42.842v2.133H51.683
				C56.137,182.105,96.617,145.134,145.117,145.067z M70.984,332.8c-6.61-0.478-11.604-6.185-11.2-12.8v-12.8h8.533v10.667
				c0.001,0.644,0.074,1.285,0.217,1.913c1.064,4.436,2.452,8.788,4.151,13.021H70.984z"/>
			<path style="fill:#428DFF;" d="M470.209,69.65l-0.021-0.02c-0.113-0.14-0.207-0.291-0.321-0.43
				C435.335,26.644,383.85,1.408,329.059,0.183c-1.543-0.092-3.025-0.136-4.527-0.14C324.457,0.041,324.394,0,324.317,0
				c-0.08,0-0.145,0.043-0.225,0.045c-0.234,0.001-0.489,0.02-0.724,0.023c-1.228,0.014-2.45,0.036-3.51,0.102
				c-54.866,1.163-106.446,26.39-141.05,68.983c-0.117,0.141-0.218,0.308-0.334,0.45l-0.049,0.046l-0.022,0.049
				c-7.418,9.106-13.959,18.893-19.536,29.23c-2.246,4.142-0.709,9.321,3.433,11.567c4.142,2.246,9.321,0.709,11.567-3.433
				c4.018-7.309,8.562-14.317,13.596-20.968c11.263,7.078,23.208,13.008,35.655,17.699c-1.833,6.114-3.495,12.177-4.768,18.052
				c-0.645,2.98,0.35,6.078,2.608,8.126c2.259,2.048,5.438,2.736,8.342,1.804c2.903-0.932,5.089-3.342,5.733-6.322
				c1.143-5.281,2.632-10.744,4.271-16.26c24.845,7.397,50.563,11.457,76.479,12.072V179.2h-35.583
				c-4.713,0-8.533,3.821-8.533,8.533c0,4.713,3.82,8.533,8.533,8.533h35.583v57.84c-8.911,0.24-17.806,0.76-26.583,1.781
				c-4.681,0.543-8.035,4.778-7.492,9.458c0.543,4.681,4.778,8.035,9.458,7.492c8.127-0.941,16.364-1.422,24.617-1.656v86.317
				c-18.598-3.9-35.066-14.613-46.167-30.036c-1.907-2.379-4.938-3.56-7.952-3.097c-3.014,0.462-5.552,2.497-6.658,5.338
				c-1.107,2.841-0.614,6.056,1.293,8.435c2.752,3.432,5.599,6.577,8.5,9.55c-4.794-1.782-9.546-3.725-14.217-5.95
				c-2.755-1.332-6.013-1.086-8.538,0.645c-2.524,1.73-3.928,4.681-3.68,7.731c0.249,3.05,2.112,5.734,4.884,7.033
				c25.307,12.108,53.013,18.37,81.067,18.321c1.608,0,3.133-0.087,4.458-0.171c54.883-1.168,106.476-26.408,141.083-69.021
				c0.116-0.142,0.211-0.296,0.327-0.438l0.023-0.02l0.012-0.028c55.774-68.826,55.773-167.294-0.003-236.118L470.209,69.65z
				 M461.19,289.384c-11.309-7.108-23.305-13.058-35.807-17.761c7.161-24.502,11.086-49.835,11.675-75.356h57.568
				C493.073,229.957,481.423,262.401,461.19,289.384z M332.851,357.641v-86.46c24.094,0.619,48.005,4.373,71.13,11.166
				C387.8,324.983,361.288,353.047,332.851,357.641z M437.059,179.2c-0.589-25.52-4.515-50.853-11.678-75.355
				c12.503-4.703,24.501-10.654,35.811-17.763c20.233,26.983,31.882,59.428,33.435,93.118H437.059z M332.851,17.824
				c28.411,4.595,54.894,32.599,71.08,75.166c-23.115,6.732-47.01,10.416-71.08,10.96V17.824z M450.403,72.751
				c-9.616,5.872-19.754,10.844-30.285,14.852c-7.768-22.125-19.992-42.421-35.915-59.634
				C409.521,37.413,432.217,52.766,450.403,72.751z M264.374,28.021c-15.893,17.206-28.096,37.483-35.858,59.582
				c-10.531-4.008-20.669-8.98-30.285-14.852C216.401,52.785,239.078,37.45,264.374,28.021z M244.701,92.989
				c16.186-42.565,42.674-70.574,71.083-75.162v86.124C291.714,103.406,267.817,99.721,244.701,92.989z M332.851,121.266
				c25.866-0.615,51.535-4.66,76.336-12.03c6.599,22.759,10.231,46.275,10.807,69.964h-87.143V121.266z M419.994,196.267
				c-0.576,23.648-4.196,47.123-10.77,69.845c-24.82-7.338-50.499-11.374-76.373-12.002v-57.844H419.994z M384.263,347.445
				c15.893-17.205,28.097-37.481,35.86-59.58c10.529,4.008,20.666,8.979,30.281,14.851
				C432.234,322.68,409.557,338.016,384.263,347.445z"/>
		</g>
	</g>
</g>
<g>
</g>
<g>
</g>
<g>
</g>
<g>
</g>
<g>
</g>
<g>
</g>
<g>
</g>
<g>
</g>
<g>
</g>
<g>
</g>
<g>
</g>
<g>
</g>
<g>
</g>
<g>
</g>
<g>
</g>
</svg>
