<?xml version="1.0" encoding="iso-8859-1"?>
<!-- Generator: Adobe Illustrator 19.0.0, SVG Export Plug-In . SVG Version: 6.00 Build 0)  -->
<svg version="1.1" id="Capa_1" xmlns="http://www.w3.org/2000/svg" xmlns:xlink="http://www.w3.org/1999/xlink" x="0px" y="0px"
	 viewBox="0 0 512 512" style="enable-background:new 0 0 512 512;" xml:space="preserve">
<g>
	<g transform="translate(1 1)">
		<g>
			<path style="fill:#E3E7F2;" d="M373.187,272.493c1.706-11.6,1.706-23.387,0-34.987l-28.286-9.429
				c-1.817-6.115-4.256-12.027-7.279-17.644l13.318-26.636c-6.996-9.409-15.33-17.743-24.739-24.739l-26.635,13.318
				c-5.617-3.023-11.529-5.462-17.644-7.278l-9.429-28.286c-11.6-1.706-23.387-1.706-34.987,0l-9.429,28.286
				c-6.115,1.817-12.027,4.255-17.644,7.278l-26.635-13.318c-9.409,6.996-17.743,15.33-24.739,24.739l13.318,26.636
				c-3.023,5.617-5.462,11.529-7.279,17.644l-28.286,9.429c-1.706,11.6-1.706,23.387,0,34.987l28.286,9.429
				c1.817,6.115,4.255,12.027,7.278,17.644l-13.318,26.635c6.996,9.409,15.33,17.743,24.739,24.739l26.635-13.318
				c5.617,3.023,11.529,5.462,17.644,7.279l9.429,28.285c11.6,1.706,23.387,1.706,34.987,0l9.429-28.286
				c6.115-1.817,12.027-4.256,17.644-7.279l26.635,13.318c9.409-6.996,17.743-15.33,24.739-24.739l-13.318-26.635
				c3.023-5.617,5.462-11.529,7.278-17.644L373.187,272.493z M255,306.2c-28.277,0-51.2-22.923-51.2-51.2s22.923-51.2,51.2-51.2
				s51.2,22.923,51.2,51.2S283.277,306.2,255,306.2z"/>
			<path style="fill:#E3E7F2;" d="M228.485,459.8H118.467c-18.851,0-34.133-15.282-34.133-34.133V408.6H50.2v17.067
				c0,37.703,30.564,68.267,68.267,68.267H229.4L228.485,459.8z"/>
			<path style="fill:#E3E7F2;" d="M75.8,229.4c0-103.517,80.388-187.733,179.2-187.733S434.2,125.883,434.2,229.4h34.133
				C468.333,106.866,372.821,7.533,255,7.533S41.667,106.866,41.667,229.4H75.8z"/>
		</g>
		<path style="fill:#A4C2F7;" d="M101.4,237.933V408.6c-0.014,4.707-3.826,8.519-8.533,8.533h-51.2
			c-9.053,0.002-17.737-3.593-24.139-9.995c-6.402-6.402-9.997-15.085-9.995-24.139V263.533c-0.003-9.054,3.593-17.737,9.995-24.139
			s15.085-9.997,24.139-9.995h51.2C97.574,229.414,101.386,233.226,101.4,237.933z"/>
		<path style="fill:#E3E7F2;" d="M75.8,237.933V408.6c-0.014,4.707-3.826,8.519-8.533,8.533h-25.6
			c-9.053,0.002-17.737-3.593-24.139-9.995c-6.402-6.402-9.997-15.085-9.995-24.139V263.533c-0.003-9.054,3.593-17.737,9.995-24.139
			s15.085-9.997,24.139-9.995h25.6C71.974,229.414,75.786,233.226,75.8,237.933z"/>
		<path style="fill:#A4C2F7;" d="M502.467,263.533V383c0.002,9.053-3.593,17.737-9.995,24.139
			c-6.402,6.402-15.085,9.997-24.139,9.995h-51.2c-4.707-0.014-8.519-3.826-8.533-8.533V237.933
			c0.014-4.707,3.826-8.519,8.533-8.533h51.2c9.054-0.003,17.737,3.593,24.139,9.995S502.469,254.48,502.467,263.533z"/>
		<path style="fill:#E3E7F2;" d="M476.867,263.533V383c0.002,9.053-3.593,17.737-9.995,24.139
			c-6.402,6.402-15.085,9.997-24.139,9.995h-25.6c-4.707-0.014-8.519-3.826-8.533-8.533V237.933
			c0.014-4.707,3.826-8.519,8.533-8.533h25.6c9.053-0.003,17.737,3.593,24.139,9.995S476.869,254.48,476.867,263.533z"/>
		<path style="fill:#A4C2F7;" d="M212.333,451.267h76.8c4.713,0,8.533,3.82,8.533,8.533v34.133c0,4.713-3.821,8.533-8.533,8.533
			h-76.8c-4.713,0-8.533-3.821-8.533-8.533V459.8C203.8,455.087,207.621,451.267,212.333,451.267z"/>
		<path style="fill:#E3E7F2;" d="M212.333,451.267h51.2c4.713,0,8.533,3.82,8.533,8.533v34.133c0,4.713-3.82,8.533-8.533,8.533
			h-51.2c-4.713,0-8.533-3.821-8.533-8.533V459.8C203.8,455.087,207.621,451.267,212.333,451.267z"/>
		<g>
			<path style="fill:#A4C2F7;" d="M468.333,229.4h-25.6c0-118.101-88.661-214.613-200.533-221.44
				c4.267-0.256,8.533-0.427,12.8-0.427C372.845,7.533,468.333,106.861,468.333,229.4z"/>
			<path style="fill:#A4C2F7;" d="M344.941,281.88c-1.846,6.12-4.304,12.038-7.339,17.664l13.312,26.624
				c-6.95,9.453-15.294,17.797-24.747,24.747l-16.043-8.021c1.312-1.069,2.566-2.208,3.755-3.413
				c4.133-4.151,7.955-8.6,11.435-13.312l-13.312-26.624c3.034-5.626,5.493-11.544,7.339-17.664l28.245-9.387
				c1.707-11.6,1.707-23.387,0-34.987l-28.245-9.387c-1.846-6.12-4.305-12.038-7.339-17.664l13.312-26.624
				c-3.48-4.712-7.302-9.161-11.435-13.312c-1.189-1.205-2.442-2.344-3.755-3.413l16.043-8.021
				c9.453,6.95,17.797,15.294,24.747,24.747l-13.312,26.624c3.034,5.626,5.493,11.544,7.339,17.664l28.245,9.387
				c1.707,11.6,1.707,23.387,0,34.987L344.941,281.88z"/>
		</g>
		<g>
			<path style="fill:#FFFFFF;" d="M212.333,502.467h25.6c-4.707-0.014-8.519-3.826-8.533-8.533h-25.6
				C203.814,498.64,207.626,502.453,212.333,502.467z"/>
			<path style="fill:#FFFFFF;" d="M41.667,417.133H50.2v8.533c0,37.703,30.564,68.267,68.267,68.267h25.6
				c-37.703,0-68.267-30.564-68.267-68.267v-8.533h-8.533c-9.053,0.002-17.737-3.593-24.139-9.995S33.131,392.053,33.133,383
				V263.533c-0.003-9.054,3.593-17.737,9.995-24.139s15.085-9.997,24.139-9.995c0-118.061,88.678-214.545,200.536-221.434
				c-4.239-0.261-8.501-0.433-12.803-0.433c-4.256,0-8.474,0.167-12.668,0.422L242.2,7.96l0.036,0.003
				C130.362,14.834,41.667,111.327,41.667,229.4c-9.054-0.003-17.737,3.593-24.139,9.995s-9.997,15.085-9.995,24.139V383
				c-0.002,9.053,3.593,17.737,9.995,24.139S32.613,417.136,41.667,417.133z"/>
			<path style="fill:#FFFFFF;" d="M170.524,339.476c4.134,4.146,8.571,7.978,13.275,11.465l16.032-8.016
				c-1.24-1.141-2.498-2.24-3.707-3.448c-4.145-4.135-7.977-8.572-11.465-13.275l13.318-26.635
				c-3.023-5.617-5.462-11.529-7.278-17.644l-28.286-9.429c-1.706-11.6-1.706-23.387,0-34.987l28.286-9.429
				c1.817-6.115,4.256-12.027,7.279-17.644l-13.318-26.636c3.487-4.703,7.32-9.14,11.465-13.275
				c1.208-1.208,2.468-2.308,3.707-3.448l-16.033-8.016c-9.409,6.996-17.743,15.33-24.739,24.739l13.318,26.636
				c-3.023,5.617-5.462,11.529-7.279,17.644l-28.286,9.429c-1.706,11.6-1.706,23.387,0,34.987l28.286,9.429
				c1.817,6.115,4.255,12.027,7.278,17.644l-13.318,26.635C162.547,330.904,166.379,335.341,170.524,339.476z"/>
			<path style="fill:#FFFFFF;" d="M237.933,451.267h-25.6c-4.707,0.014-8.519,3.826-8.533,8.533h25.6
				C229.414,455.093,233.226,451.281,237.933,451.267z"/>
		</g>
	</g>
	<g>
		<polygon style="fill:#FFFFFF;" points="17.067,264.533 17.067,375.467 17.067,384 0,384 0,375.467 0,264.533 		"/>
		<g>
			<path style="fill:#428DFF;" d="M8.533,341.333c2.259-0.034,4.422-0.918,6.059-2.475c3.3-3.365,3.3-8.752,0-12.117l-1.279-1.025
				c-0.476-0.324-0.993-0.583-1.538-0.771c-0.484-0.246-1.003-0.417-1.538-0.509c-0.563-0.096-1.133-0.153-1.704-0.171
				c-2.259,0.031-4.423,0.915-6.059,2.475c-3.222,3.397-3.222,8.721,0,12.117c0.815,0.771,1.77,1.379,2.813,1.792
				C6.314,341.088,7.417,341.32,8.533,341.333z"/>
			<path style="fill:#428DFF;" d="M153.2,332.279c7.501,10.085,16.436,19.019,26.52,26.521c2.582,1.915,6.022,2.214,8.896,0.775
				l22.779-11.392c3.561,1.715,7.219,3.221,10.954,4.513l8.062,24.192c1.017,3.047,3.657,5.265,6.833,5.742
				c12.436,1.828,25.072,1.828,37.508,0c3.176-0.477,5.816-2.695,6.833-5.742l8.062-24.192c3.736-1.291,7.393-2.798,10.954-4.513
				l22.779,11.392c2.874,1.441,6.315,1.142,8.896-0.775c10.085-7.501,19.02-16.436,26.521-26.521
				c1.913-2.583,2.212-6.021,0.775-8.896l-11.392-22.779c1.717-3.56,3.224-7.218,4.513-10.954l24.192-8.062
				c3.047-1.017,5.265-3.657,5.742-6.833c1.828-12.436,1.828-25.072,0-37.508c-0.477-3.176-2.695-5.816-5.742-6.833l-24.192-8.062
				c-1.291-3.736-2.798-7.393-4.513-10.954l11.392-22.779c1.437-2.875,1.138-6.313-0.775-8.896
				c-7.501-10.085-16.436-19.02-26.521-26.521c-2.583-1.913-6.021-2.213-8.896-0.775l-22.779,11.392
				c-3.56-1.717-7.218-3.224-10.954-4.513l-8.062-24.192c-1.017-3.047-3.657-5.265-6.833-5.742c-12.435-1.842-25.073-1.842-37.508,0
				c-3.176,0.477-5.816,2.695-6.833,5.742l-8.062,24.192c-3.736,1.289-7.394,2.796-10.954,4.513l-22.779-11.392
				c-2.876-1.433-6.311-1.133-8.896,0.775c-10.085,7.501-19.02,16.436-26.521,26.52c-1.913,2.583-2.212,6.021-0.775,8.896
				l11.392,22.779c-1.715,3.561-3.221,7.219-4.513,10.954l-24.192,8.062c-3.047,1.017-5.265,3.657-5.742,6.833
				c-1.828,12.436-1.828,25.072,0,37.508c0.477,3.176,2.695,5.816,5.742,6.833l24.192,8.062c1.289,3.736,2.796,7.394,4.513,10.954
				l-11.392,22.779C150.987,326.258,151.287,329.697,153.2,332.279z M145.613,267.096c-0.728-7.379-0.728-14.812,0-22.192
				l23.188-7.729c2.638-0.879,4.681-2.99,5.475-5.654c1.649-5.555,3.864-10.926,6.608-16.029c1.324-2.447,1.372-5.386,0.129-7.875
				l-10.917-21.825c2.321-2.833,4.787-5.554,7.462-8.233c2.679-2.675,5.4-5.146,8.233-7.462l21.825,10.912
				c2.488,1.24,5.423,1.193,7.871-0.125c5.105-2.745,10.477-4.959,16.033-6.608c2.665-0.794,4.775-2.837,5.654-5.475l7.729-23.188
				c7.379-0.733,14.813-0.733,22.192,0l7.729,23.188c0.879,2.638,2.99,4.681,5.654,5.475c5.556,1.649,10.929,3.863,16.033,6.608
				c2.447,1.318,5.383,1.365,7.871,0.125l21.825-10.912c2.833,2.317,5.554,4.787,8.233,7.462c2.675,2.679,5.142,5.4,7.462,8.233
				l-10.917,21.825c-1.243,2.489-1.195,5.428,0.129,7.875c2.745,5.103,4.959,10.474,6.608,16.029
				c0.794,2.665,2.837,4.775,5.475,5.654l23.188,7.729c0.728,7.379,0.728,14.812,0,22.192l-23.188,7.729
				c-2.638,0.879-4.681,2.989-5.475,5.654c-1.649,5.556-3.863,10.929-6.608,16.033c-1.32,2.447-1.367,5.383-0.125,7.871
				l10.912,21.825c-2.317,2.833-4.787,5.554-7.462,8.233c-2.679,2.675-5.4,5.142-8.233,7.462l-21.825-10.917
				c-2.488-1.249-5.43-1.201-7.875,0.129c-5.103,2.745-10.474,4.959-16.029,6.608c-2.665,0.794-4.775,2.837-5.654,5.475
				l-7.729,23.187c-7.379,0.733-14.813,0.733-22.192,0l-7.729-23.187c-0.879-2.638-2.99-4.681-5.654-5.475
				c-5.555-1.649-10.926-3.864-16.029-6.608c-2.445-1.33-5.387-1.378-7.875-0.129l-21.825,10.917
				c-2.833-2.321-5.554-4.787-8.233-7.462c-2.675-2.679-5.146-5.4-7.462-8.233l10.912-21.825c1.242-2.488,1.195-5.424-0.125-7.871
				c-2.745-5.105-4.959-10.477-6.608-16.033c-0.794-2.665-2.837-4.775-5.475-5.654L145.613,267.096z"/>
			<path style="fill:#428DFF;" d="M256,315.733c32.99,0,59.733-26.743,59.733-59.733S288.99,196.267,256,196.267
				S196.267,223.01,196.267,256C196.304,288.974,223.026,315.696,256,315.733z M256,213.333c23.564,0,42.667,19.103,42.667,42.667
				c0,23.564-19.103,42.667-42.667,42.667c-23.564,0-42.667-19.103-42.667-42.667C213.361,232.447,232.447,213.361,256,213.333z"/>
			<path style="fill:#428DFF;" d="M477.679,222.71C473.752,99.221,375.854,0,256,0S38.248,99.221,34.321,222.71
				C14.387,226.709,0.032,244.202,0,264.533v34.133c0,4.713,3.821,8.533,8.533,8.533s8.533-3.82,8.533-8.533v-34.133
				c0.015-14.132,11.468-25.585,25.6-25.6h51.2V409.6h-51.2c-14.132-0.015-25.585-11.468-25.6-25.6v-17.067
				c0-4.713-3.821-8.533-8.533-8.533S0,362.221,0,366.933V384c0.028,23.553,19.114,42.639,42.667,42.667
				c0.049,42.395,34.405,76.751,76.8,76.8h79.173c3.024,5.262,8.624,8.514,14.693,8.533h76.8
				c9.422-0.009,17.057-7.645,17.067-17.067V460.8c-0.009-9.422-7.645-17.057-17.067-17.067h-76.8
				c-6.07,0.019-11.669,3.271-14.693,8.533h-79.173c-14.132-0.015-25.585-11.468-25.6-25.6c9.422-0.009,17.057-7.645,17.067-17.067
				V238.933c-0.009-9.422-7.645-17.057-17.067-17.067h-8.121C90.03,127.028,164.639,51.2,256,51.2s165.97,75.828,170.255,170.667
				h-8.121c-9.421,0.011-17.056,7.645-17.067,17.067V409.6c0.011,9.421,7.645,17.056,17.067,17.067h51.2
				C492.886,426.639,511.972,407.553,512,384V264.533C511.968,244.202,497.613,226.709,477.679,222.71z M213.333,460.8h76.8
				l0.012,34.133h-76.812V460.8z M119.467,469.333h76.8V486.4h-76.8c-32.974-0.037-59.696-26.759-59.733-59.733H76.8
				C76.828,450.219,95.914,469.306,119.467,469.333z M256,34.133c-100.779,0-183.234,83.459-187.526,187.733H51.408
				c4.32-113.687,94.415-204.8,204.592-204.8s200.272,91.113,204.592,204.8h-17.066C439.234,117.593,356.779,34.133,256,34.133z
				 M494.933,384c-0.015,14.132-11.468,25.585-25.6,25.6h-51.2V238.933h51.2c14.132,0.015,25.585,11.468,25.6,25.6V384z"/>
		</g>
	</g>
</g>
<g>
</g>
<g>
</g>
<g>
</g>
<g>
</g>
<g>
</g>
<g>
</g>
<g>
</g>
<g>
</g>
<g>
</g>
<g>
</g>
<g>
</g>
<g>
</g>
<g>
</g>
<g>
</g>
<g>
</g>
</svg>
