<?xml version="1.0" encoding="iso-8859-1"?>
<!-- Generator: Adobe Illustrator 19.0.0, SVG Export Plug-In . SVG Version: 6.00 Build 0)  -->
<svg version="1.1" id="Capa_1" xmlns="http://www.w3.org/2000/svg" xmlns:xlink="http://www.w3.org/1999/xlink" x="0px" y="0px"
	 viewBox="0 0 512 512" style="enable-background:new 0 0 512 512;" xml:space="preserve">
<g>
	<g transform="translate(1 1)">
		<g>
			<path style="fill:#E3E7F2;" d="M228.485,459.8H118.467c-18.851,0-34.133-15.282-34.133-34.133V408.6H50.2v17.067
				c0,37.703,30.564,68.267,68.267,68.267H229.4L228.485,459.8z"/>
			<path style="fill:#E3E7F2;" d="M75.8,229.4c0-103.517,80.388-187.733,179.2-187.733S434.2,125.883,434.2,229.4h34.133
				C468.333,106.866,372.821,7.533,255,7.533S41.667,106.866,41.667,229.4H75.8z"/>
		</g>
		<g>
			<path style="fill:#A4C2F7;" d="M127,237.933V408.6c-0.014,4.707-3.826,8.519-8.533,8.533h-76.8
				c-9.053,0.002-17.737-3.593-24.139-9.995c-6.402-6.402-9.997-15.085-9.995-24.139V263.533
				c-0.003-9.054,3.593-17.737,9.995-24.139s15.085-9.997,24.139-9.995h76.8C123.174,229.414,126.986,233.226,127,237.933z"/>
			<path style="fill:#A4C2F7;" d="M502.467,263.533V383c0.002,9.053-3.593,17.737-9.995,24.139
				c-6.402,6.402-15.085,9.997-24.139,9.995h-76.8c-4.707-0.014-8.519-3.826-8.533-8.533V237.933
				c0.014-4.707,3.826-8.519,8.533-8.533h76.8c9.054-0.003,17.737,3.593,24.139,9.995S502.469,254.48,502.467,263.533z"/>
		</g>
		<g>
			<path style="fill:#E3E7F2;" d="M101.4,237.933V408.6c-0.014,4.707-3.826,8.519-8.533,8.533h-51.2
				c-9.053,0.002-17.737-3.593-24.139-9.995c-6.402-6.402-9.997-15.085-9.995-24.139V263.533
				c-0.003-9.054,3.593-17.737,9.995-24.139s15.085-9.997,24.139-9.995h51.2C97.574,229.414,101.386,233.226,101.4,237.933z"/>
			<path style="fill:#E3E7F2;" d="M476.867,263.533V383c0.002,9.053-3.593,17.737-9.995,24.139
				c-6.402,6.402-15.085,9.997-24.139,9.995h-51.2c-4.707-0.014-8.519-3.826-8.533-8.533V237.933
				c0.014-4.707,3.826-8.519,8.533-8.533h51.2c9.053-0.003,17.737,3.593,24.139,9.995S476.869,254.48,476.867,263.533z"/>
		</g>
		<path style="fill:#A4C2F7;" d="M212.333,451.267h76.8c4.713,0,8.533,3.82,8.533,8.533v34.133c0,4.713-3.821,8.533-8.533,8.533
			h-76.8c-4.713,0-8.533-3.821-8.533-8.533V459.8C203.8,455.087,207.621,451.267,212.333,451.267z"/>
		<path style="fill:#E3E7F2;" d="M212.333,451.267h51.2c4.713,0,8.533,3.82,8.533,8.533v34.133c0,4.713-3.82,8.533-8.533,8.533
			h-51.2c-4.713,0-8.533-3.821-8.533-8.533V459.8C203.8,455.087,207.621,451.267,212.333,451.267z"/>
		<path style="fill:#A4C2F7;" d="M468.333,229.4h-25.6c0-118.101-88.661-214.613-200.533-221.44c4.267-0.256,8.533-0.427,12.8-0.427
			C372.845,7.533,468.333,106.861,468.333,229.4z"/>
		<g>
			<path style="fill:#FFFFFF;" d="M212.333,502.467h25.6c-4.707-0.014-8.519-3.826-8.533-8.533h-25.6
				C203.814,498.64,207.626,502.453,212.333,502.467z"/>
			<path style="fill:#FFFFFF;" d="M41.667,417.133H50.2v8.533c0,37.703,30.564,68.267,68.267,68.267h25.6
				c-37.703,0-68.267-30.564-68.267-68.267v-8.533h-8.533c-9.053,0.002-17.737-3.593-24.139-9.995S33.131,392.053,33.133,383
				V263.533c-0.003-9.054,3.593-17.737,9.995-24.139s15.085-9.997,24.139-9.995c0-118.061,88.678-214.545,200.536-221.434
				c-4.239-0.261-8.501-0.433-12.803-0.433c-4.256,0-8.474,0.167-12.668,0.422L242.2,7.96l0.036,0.003
				C130.362,14.834,41.667,111.327,41.667,229.4c-9.054-0.003-17.737,3.593-24.139,9.995s-9.997,15.085-9.995,24.139V383
				c-0.002,9.053,3.593,17.737,9.995,24.139S32.613,417.136,41.667,417.133z"/>
			<path style="fill:#FFFFFF;" d="M237.933,451.267h-25.6c-4.707,0.014-8.519,3.826-8.533,8.533h25.6
				C229.414,455.093,233.226,451.281,237.933,451.267z"/>
		</g>
	</g>
	<g>
		<polygon style="fill:#FFFFFF;" points="17.067,264.533 17.067,375.467 17.067,384 0,384 0,375.467 0,264.533 		"/>
		<g>
			<path style="fill:#428DFF;" d="M8.533,341.333c2.259-0.034,4.422-0.918,6.059-2.475c3.3-3.365,3.3-8.752,0-12.117l-1.279-1.025
				c-0.476-0.324-0.993-0.583-1.538-0.771c-0.484-0.246-1.003-0.417-1.538-0.509c-0.563-0.096-1.133-0.153-1.704-0.171
				c-2.259,0.031-4.423,0.915-6.059,2.475c-3.222,3.397-3.222,8.721,0,12.117c0.815,0.771,1.77,1.379,2.813,1.792
				C6.314,341.088,7.417,341.32,8.533,341.333z"/>
			<path style="fill:#428DFF;" d="M477.679,222.71C473.752,99.221,375.854,0,256,0S38.248,99.221,34.321,222.71
				C14.387,226.709,0.032,244.202,0,264.533v34.133c0,4.713,3.821,8.533,8.533,8.533s8.533-3.82,8.533-8.533v-34.133
				c0.015-14.132,11.468-25.585,25.6-25.6h76.8V409.6h-76.8c-14.132-0.015-25.585-11.468-25.6-25.6v-17.067
				c0-4.713-3.821-8.533-8.533-8.533S0,362.221,0,366.933V384c0.028,23.553,19.114,42.639,42.667,42.667
				c0.049,42.395,34.405,76.751,76.8,76.8h79.173c3.024,5.262,8.624,8.514,14.693,8.533h76.8
				c9.422-0.009,17.057-7.645,17.067-17.067V460.8c-0.009-9.422-7.645-17.057-17.067-17.067h-76.8
				c-6.07,0.019-11.669,3.271-14.693,8.533h-79.173c-14.132-0.015-25.585-11.468-25.6-25.6h25.6
				c9.422-0.009,17.057-7.645,17.067-17.067V238.933c-0.009-9.422-7.645-17.057-17.067-17.067H85.745
				C90.03,127.028,164.639,51.2,256,51.2s165.97,75.828,170.255,170.667h-33.721c-9.422,0.009-17.057,7.645-17.067,17.067V409.6
				c0.009,9.422,7.645,17.057,17.067,17.067h76.8C492.886,426.639,511.972,407.553,512,384V264.533
				C511.968,244.202,497.613,226.709,477.679,222.71z M213.333,460.8h76.8l0.012,34.133h-76.812V460.8z M119.467,469.333h76.8V486.4
				h-76.8c-32.974-0.037-59.696-26.759-59.733-59.733H76.8C76.828,450.219,95.914,469.306,119.467,469.333z M256,34.133
				c-100.779,0-183.234,83.459-187.526,187.733H51.408c4.32-113.687,94.415-204.8,204.592-204.8s200.272,91.113,204.592,204.8
				h-17.066C439.234,117.593,356.779,34.133,256,34.133z M494.933,384c-0.015,14.132-11.468,25.585-25.6,25.6h-76.8V238.933h76.8
				c14.132,0.015,25.585,11.468,25.6,25.6V384z"/>
			<path style="fill:#428DFF;" d="M324.267,384c4.713,0,8.533-3.821,8.533-8.533v-25.6h17.067c4.713,0,8.533-3.821,8.533-8.533
				s-3.821-8.533-8.533-8.533H332.8v-21.333c0-4.713-3.82-8.533-8.533-8.533s-8.533,3.82-8.533,8.533V332.8h-36.162l43.446-72.408
				c1.569-2.614,1.624-5.866,0.145-8.532c-1.479-2.666-4.268-4.34-7.317-4.392c-3.048-0.052-5.893,1.527-7.462,4.141l-51.2,85.333
				c-1.582,2.636-1.623,5.92-0.109,8.595c1.515,2.675,4.351,4.33,7.425,4.33h51.233v25.6C315.733,380.18,319.554,384,324.267,384z"
				/>
			<path style="fill:#428DFF;" d="M158.313,367.838c-3.535,1.773-5.389,5.743-4.48,9.592s4.345,6.568,8.3,6.57h76.8
				c4.713,0,8.533-3.821,8.533-8.533c0-4.713-3.821-8.533-8.533-8.533H191.45c21.067-15.825,47.483-42.5,47.483-76.8
				c0-17.745-10.983-33.637-27.582-39.911s-35.348-1.619-47.085,11.69c-3.118,3.535-2.78,8.928,0.754,12.046
				c3.535,3.118,8.928,2.78,12.046-0.754c7.041-7.987,18.291-10.782,28.251-7.018c9.96,3.764,16.55,13.3,16.549,23.947
				C221.867,335.4,158.946,367.517,158.313,367.838z"/>
		</g>
	</g>
</g>
<g>
</g>
<g>
</g>
<g>
</g>
<g>
</g>
<g>
</g>
<g>
</g>
<g>
</g>
<g>
</g>
<g>
</g>
<g>
</g>
<g>
</g>
<g>
</g>
<g>
</g>
<g>
</g>
<g>
</g>
</svg>
