<?xml version="1.0" encoding="iso-8859-1"?>
<!-- Generator: Adobe Illustrator 19.0.0, SVG Export Plug-In . SVG Version: 6.00 Build 0)  -->
<svg version="1.1" id="Capa_1" xmlns="http://www.w3.org/2000/svg" xmlns:xlink="http://www.w3.org/1999/xlink" x="0px" y="0px"
	 viewBox="0 0 512 512" style="enable-background:new 0 0 512 512;" xml:space="preserve">
<g transform="translate(-1)">
	<g transform="translate(2 1)">
		<path style="fill:#A4C2F7;" d="M127.051,7.533h256c14.138,0,25.6,11.462,25.6,25.6v443.733c0,14.138-11.462,25.6-25.6,25.6h-256
			c-14.138,0-25.6-11.462-25.6-25.6V33.133C101.451,18.995,112.912,7.533,127.051,7.533z"/>
		<path style="fill:#D4E1F4;" d="M127.051,7.533h230.4c14.138,0,25.6,11.462,25.6,25.6v443.733c0,14.138-11.462,25.6-25.6,25.6
			h-230.4c-14.138,0-25.6-11.462-25.6-25.6V33.133C101.451,18.995,112.912,7.533,127.051,7.533z"/>
		<path style="fill:#A4C2F7;" d="M374.517,50.2v409.6c-0.014,4.707-3.826,8.519-8.533,8.533H144.117
			c-4.707-0.014-8.519-3.826-8.533-8.533V50.2c0.014-4.707,3.826-8.519,8.533-8.533h34.133c4.707,0.014,8.519,3.826,8.533,8.533
			v17.067c0.014,4.707,3.826,8.519,8.533,8.533h119.467c4.707-0.014,8.519-3.826,8.533-8.533V50.2
			c0.014-4.707,3.826-8.519,8.533-8.533h34.133C370.691,41.681,374.503,45.493,374.517,50.2z"/>
		
			<linearGradient id="SVGID_1_" gradientUnits="userSpaceOnUse" x1="-49.9578" y1="651.5433" x2="-48.4813" y2="650.8051" gradientTransform="matrix(213.3333 0 0 -426.6667 10742.4307 278089.3438)">
			<stop  offset="0" style="stop-color:#D3DFF2"/>
			<stop  offset="0.1717" style="stop-color:#D3DFF2"/>
			<stop  offset="0.2" style="stop-color:#D3DFF2"/>
			<stop  offset="0.2002" style="stop-color:#DAE2F2"/>
			<stop  offset="0.2007" style="stop-color:#EBEAF2"/>
			<stop  offset="0.2014" style="stop-color:#F6EFF2"/>
			<stop  offset="0.2023" style="stop-color:#FDF2F2"/>
			<stop  offset="0.205" style="stop-color:#FFF3F2"/>
			<stop  offset="0.2522" style="stop-color:#FFF3F2"/>
			<stop  offset="0.26" style="stop-color:#FFF3F2"/>
			<stop  offset="0.26" style="stop-color:#D3DFF2"/>
			<stop  offset="0.3974" style="stop-color:#D3DFF2"/>
			<stop  offset="0.42" style="stop-color:#D3DFF2"/>
			<stop  offset="0.4202" style="stop-color:#DAE2F2"/>
			<stop  offset="0.4207" style="stop-color:#EBEAF2"/>
			<stop  offset="0.4214" style="stop-color:#F6EFF2"/>
			<stop  offset="0.4223" style="stop-color:#FDF2F2"/>
			<stop  offset="0.425" style="stop-color:#FFF3F2"/>
			<stop  offset="0.4894" style="stop-color:#FFF3F2"/>
			<stop  offset="0.5" style="stop-color:#FFF3F2"/>
			<stop  offset="0.5" style="stop-color:#F8F0F2"/>
			<stop  offset="0.5001" style="stop-color:#E7E8F2"/>
			<stop  offset="0.5003" style="stop-color:#DCE3F2"/>
			<stop  offset="0.5005" style="stop-color:#D5E0F2"/>
			<stop  offset="0.501" style="stop-color:#D3DFF2"/>
			<stop  offset="0.7062" style="stop-color:#D3DFF2"/>
			<stop  offset="0.74" style="stop-color:#D3DFF2"/>
			<stop  offset="0.741" style="stop-color:#FFF3F2"/>
			<stop  offset="0.8346" style="stop-color:#FFF3F2"/>
			<stop  offset="0.85" style="stop-color:#FFF3F2"/>
			<stop  offset="0.851" style="stop-color:#D3DFF2"/>
		</linearGradient>
		<path style="fill:url(#SVGID_1_);" d="M348.917,50.2v409.6c-0.014,4.707-3.826,8.519-8.533,8.533H144.117
			c-4.707-0.014-8.519-3.826-8.533-8.533V50.2c0.014-4.707,3.826-8.519,8.533-8.533h34.133c4.707,0.014,8.519,3.826,8.533,8.533
			v17.067c0.014,4.707,3.826,8.519,8.533,8.533h119.467c4.707-0.014,8.519-3.826,8.533-8.533V50.2
			c0.014-4.707,3.826-8.519,8.533-8.533h8.533C345.091,41.681,348.903,45.493,348.917,50.2z"/>
		<g>
			<circle style="fill:#E3E7F2;" cx="255.051" cy="169.667" r="59.733"/>
			<circle style="fill:#E3E7F2;" cx="255.051" cy="289.133" r="59.733"/>
			<circle style="fill:#E3E7F2;" cx="255.051" cy="408.6" r="59.733"/>
		</g>
		<path style="fill:#FFFFFF;" d="M152.651,7.533l-25.6,0c-6.792-0.009-13.309,2.685-18.112,7.488s-7.497,11.32-7.488,18.112v443.733
			c-0.009,6.792,2.685,13.309,7.488,18.112s11.32,7.497,18.112,7.488h25.6c-6.792,0.009-13.309-2.685-18.112-7.488
			s-7.497-11.32-7.488-18.112V33.133c-0.009-6.792,2.685-13.309,7.488-18.112S145.858,7.524,152.651,7.533z"/>
	</g>
	<g>
		<polygon style="fill:#FFFFFF;" points="111.984,34.133 111.984,145.067 111.984,477.867 94.917,477.867 94.917,145.067 
			94.917,34.133 		"/>
		<g>
			<path style="fill:#428DFF;" d="M94.917,477.867c0.022,18.842,15.291,34.112,34.133,34.133h256
				c18.842-0.022,34.112-15.291,34.133-34.133V34.133C419.163,15.291,403.893,0.022,385.051,0h-256
				c-18.842,0.022-34.112,15.291-34.133,34.133v34.133c0,4.713,3.821,8.533,8.533,8.533c4.713,0,8.533-3.82,8.533-8.533V34.133
				c0.009-9.422,7.645-17.057,17.067-17.067h256c9.422,0.009,17.057,7.645,17.067,17.067v443.733
				c-0.009,9.422-7.645,17.057-17.067,17.067h-256c-9.422-0.009-17.057-7.645-17.067-17.067V136.533
				c0-4.713-3.821-8.533-8.533-8.533c-4.713,0-8.533,3.821-8.533,8.533V477.867z"/>
			<path style="fill:#428DFF;" d="M103.451,110.933c3.45-0.014,6.556-2.096,7.879-5.282c1.323-3.187,0.606-6.856-1.82-9.31
				l-1.279-1.025c-0.476-0.324-0.993-0.583-1.538-0.771c-0.484-0.246-1.002-0.417-1.537-0.508c-0.564-0.096-1.133-0.153-1.705-0.171
				c-2.259,0.031-4.423,0.915-6.059,2.475c-2.07,1.994-2.979,4.908-2.409,7.726s2.539,5.149,5.222,6.183
				C101.231,110.688,102.334,110.92,103.451,110.933z"/>
			<path style="fill:#428DFF;" d="M180.251,34.133h-34.133c-9.422,0.009-17.057,7.645-17.067,17.067v409.6
				c0.009,9.422,7.645,17.057,17.067,17.067h221.867c9.422-0.009,17.057-7.645,17.067-17.067V51.2
				c-0.009-9.422-7.645-17.057-17.067-17.067h-34.133c-9.422,0.009-17.057,7.645-17.067,17.067v17.067H197.317V51.2
				C197.308,41.778,189.672,34.143,180.251,34.133z M205.851,409.6c0-28.277,22.923-51.2,51.2-51.2s51.2,22.923,51.2,51.2
				c0,28.277-22.923,51.2-51.2,51.2C228.787,460.769,205.882,437.864,205.851,409.6z M316.784,85.333
				c9.422-0.009,17.057-7.645,17.067-17.067V51.2h34.133v409.6h-65.931c16.727-14.631,25.263-36.504,22.867-58.598
				s-15.42-41.629-34.894-52.336c21.769-11.993,35.29-34.879,35.29-59.733c0-24.854-13.521-47.74-35.29-59.733
				c27.27-15.045,40.901-46.639,33.133-76.8c-7.768-30.161-34.964-51.241-66.109-51.241s-58.342,21.08-66.109,51.241
				s5.863,61.755,33.133,76.8c-21.769,11.993-35.29,34.879-35.29,59.733c0,24.854,13.521,47.74,35.29,59.733
				c-19.474,10.707-32.499,30.242-34.894,52.336s6.14,43.966,22.867,58.598h-65.931V51.2h34.133v17.067
				c0.009,9.422,7.645,17.057,17.067,17.067H316.784z M257.051,341.333c-28.277,0-51.2-22.923-51.2-51.2
				c0-28.277,22.923-51.2,51.2-51.2s51.2,22.923,51.2,51.2C308.22,318.398,285.315,341.302,257.051,341.333z M257.051,221.867
				c-28.277,0-51.2-22.923-51.2-51.2s22.923-51.2,51.2-51.2s51.2,22.923,51.2,51.2C308.22,198.931,285.315,221.836,257.051,221.867z
				"/>
			<path style="fill:#428DFF;" d="M282.651,51.2c4.713,0,8.533-3.821,8.533-8.533s-3.82-8.533-8.533-8.533h-17.067
				c-4.713,0-8.533,3.821-8.533,8.533s3.82,8.533,8.533,8.533H282.651z"/>
			<path style="fill:#428DFF;" d="M269.117,182.733c-6.758,6.433-17.375,6.433-24.133,0c-3.332-3.332-8.735-3.332-12.067,0
				c-3.332,3.332-3.332,8.735,0,12.067c13.333,13.317,34.933,13.317,48.267,0c3.322-3.334,3.318-8.728-0.01-12.056
				C277.846,179.416,272.451,179.411,269.117,182.733z"/>
			<path style="fill:#428DFF;" d="M232.917,428.121c-3.332,3.332-3.332,8.735,0,12.067c3.332,3.332,8.735,3.332,12.067,0
				c6.758-6.433,17.375-6.433,24.133,0c3.332,3.332,8.735,3.332,12.067,0c3.332-3.332,3.332-8.735,0-12.067
				C267.674,415.238,246.427,415.238,232.917,428.121z"/>
			<path style="fill:#428DFF;" d="M274.117,298.667h-34.133c-4.713,0-8.533,3.82-8.533,8.533s3.821,8.533,8.533,8.533h34.133
				c4.713,0,8.533-3.82,8.533-8.533S278.83,298.667,274.117,298.667z"/>
			<path style="fill:#428DFF;" d="M233.067,51.029c0.566-0.082,1.115-0.255,1.625-0.513c0.543-0.188,1.059-0.447,1.533-0.771
				c0.425-0.338,0.858-0.679,1.284-1.021c3.3-3.365,3.3-8.752,0-12.117c-0.425-0.341-0.858-0.683-1.283-1.025
				c-0.475-0.324-0.99-0.583-1.533-0.771c-0.51-0.258-1.059-0.43-1.625-0.509c-1.093-0.258-2.232-0.258-3.325,0
				c-0.534,0.091-1.051,0.263-1.533,0.508c-0.546,0.187-1.064,0.447-1.542,0.771l-1.275,1.025c-3.3,3.365-3.3,8.752,0,12.117
				c1.627,1.573,3.796,2.459,6.059,2.475C231.993,51.184,232.534,51.127,233.067,51.029z"/>
			<path style="fill:#428DFF;" d="M236.738,161.45c2.066,0.911,4.421,0.911,6.487,0c1.033-0.434,1.986-1.04,2.817-1.792
				c1.557-1.637,2.441-3.799,2.475-6.058c0.03-1.121-0.204-2.232-0.683-3.246c-0.78-2.141-2.467-3.828-4.608-4.608
				c-2.061-0.938-4.427-0.938-6.487,0c-1.033,0.434-1.984,1.041-2.813,1.795c-0.773,0.814-1.383,1.769-1.796,2.813
				c-0.436,1.027-0.667,2.13-0.679,3.246c0.016,2.263,0.902,4.432,2.475,6.059C234.755,160.41,235.706,161.016,236.738,161.45z"/>
			<path style="fill:#428DFF;" d="M270.872,161.45c2.066,0.911,4.421,0.911,6.487,0c1.033-0.434,1.986-1.04,2.817-1.792
				c1.557-1.637,2.441-3.799,2.475-6.058c0.03-1.121-0.205-2.232-0.683-3.246c-0.78-2.141-2.467-3.828-4.608-4.608
				c-2.061-0.938-4.427-0.938-6.487,0c-1.033,0.434-1.985,1.041-2.813,1.795c-0.773,0.814-1.383,1.769-1.796,2.813
				c-0.436,1.027-0.667,2.13-0.679,3.246c0.016,2.263,0.902,4.432,2.475,6.059C268.888,160.41,269.84,161.016,270.872,161.45z"/>
			<path style="fill:#428DFF;" d="M236.738,280.917c2.066,0.911,4.421,0.911,6.487,0c1.033-0.434,1.986-1.04,2.817-1.792
				c1.557-1.637,2.441-3.799,2.475-6.058c0.03-1.121-0.204-2.232-0.683-3.246c-0.78-2.141-2.467-3.828-4.608-4.608
				c-2.061-0.938-4.427-0.938-6.487,0c-1.033,0.434-1.984,1.041-2.813,1.795c-0.773,0.814-1.383,1.769-1.796,2.813
				c-0.436,1.027-0.667,2.13-0.679,3.246c0.016,2.263,0.902,4.432,2.475,6.059C234.755,279.877,235.706,280.483,236.738,280.917z"/>
			<path style="fill:#428DFF;" d="M280.176,267.008c-0.83-0.754-1.782-1.362-2.817-1.796c-2.061-0.938-4.427-0.938-6.487,0
				c-1.033,0.434-1.985,1.041-2.813,1.796c-0.773,0.814-1.383,1.769-1.796,2.813c-0.436,1.027-0.667,2.13-0.679,3.246
				c0.016,2.263,0.902,4.432,2.475,6.059c0.83,0.752,1.781,1.358,2.813,1.792c2.067,0.911,4.421,0.911,6.487,0
				c1.033-0.434,1.986-1.04,2.817-1.792c1.557-1.637,2.441-3.8,2.475-6.059c0.03-1.121-0.205-2.232-0.683-3.246
				C281.533,268.789,280.928,267.838,280.176,267.008z"/>
			<path style="fill:#428DFF;" d="M236.738,400.383c2.066,0.911,4.421,0.911,6.487,0c1.033-0.434,1.986-1.04,2.817-1.792
				c1.557-1.637,2.441-3.799,2.475-6.058c0.03-1.121-0.204-2.232-0.683-3.246c-0.78-2.141-2.467-3.828-4.608-4.608
				c-2.061-0.938-4.427-0.938-6.487,0c-1.033,0.434-1.984,1.041-2.813,1.795c-0.773,0.814-1.383,1.769-1.796,2.813
				c-0.436,1.027-0.667,2.13-0.679,3.246c0.016,2.263,0.902,4.432,2.475,6.059C234.755,399.344,235.706,399.949,236.738,400.383z"/>
			<path style="fill:#428DFF;" d="M270.872,400.383c2.066,0.911,4.421,0.911,6.487,0c1.033-0.434,1.986-1.04,2.817-1.792
				c1.557-1.637,2.441-3.799,2.475-6.058c0.03-1.121-0.205-2.232-0.683-3.246c-0.78-2.141-2.467-3.828-4.608-4.608
				c-2.061-0.938-4.427-0.938-6.487,0c-1.033,0.434-1.985,1.041-2.813,1.795c-0.773,0.814-1.383,1.769-1.796,2.813
				c-0.436,1.027-0.667,2.13-0.679,3.246c0.016,2.263,0.902,4.432,2.475,6.059C268.888,399.344,269.84,399.949,270.872,400.383z"/>
		</g>
	</g>
</g>
<g>
</g>
<g>
</g>
<g>
</g>
<g>
</g>
<g>
</g>
<g>
</g>
<g>
</g>
<g>
</g>
<g>
</g>
<g>
</g>
<g>
</g>
<g>
</g>
<g>
</g>
<g>
</g>
<g>
</g>
</svg>
