<?xml version="1.0" encoding="iso-8859-1"?>
<!-- Generator: Adobe Illustrator 19.0.0, SVG Export Plug-In . SVG Version: 6.00 Build 0)  -->
<svg version="1.1" id="Capa_1" xmlns="http://www.w3.org/2000/svg" xmlns:xlink="http://www.w3.org/1999/xlink" x="0px" y="0px"
	 viewBox="0 0 512 512" style="enable-background:new 0 0 512 512;" xml:space="preserve">
<g transform="translate(-1)">
	<g transform="translate(2 1)">
		<path style="fill:#A4C2F7;" d="M127.051,7.533h256c14.138,0,25.6,11.462,25.6,25.6v443.733c0,14.138-11.462,25.6-25.6,25.6h-256
			c-14.138,0-25.6-11.462-25.6-25.6V33.133C101.451,18.995,112.912,7.533,127.051,7.533z"/>
		<path style="fill:#D4E1F4;" d="M127.051,7.533h230.4c14.138,0,25.6,11.462,25.6,25.6v443.733c0,14.138-11.462,25.6-25.6,25.6
			h-230.4c-14.138,0-25.6-11.462-25.6-25.6V33.133C101.451,18.995,112.912,7.533,127.051,7.533z"/>
		<path style="fill:#A4C2F7;" d="M374.517,50.2v409.6c-0.014,4.707-3.826,8.519-8.533,8.533H144.117
			c-4.707-0.014-8.519-3.826-8.533-8.533V50.2c0.014-4.707,3.826-8.519,8.533-8.533h34.133c4.707,0.014,8.519,3.826,8.533,8.533
			v17.067c0.014,4.707,3.826,8.519,8.533,8.533h119.467c4.707-0.014,8.519-3.826,8.533-8.533V50.2
			c0.014-4.707,3.826-8.519,8.533-8.533h34.133C370.691,41.681,374.503,45.493,374.517,50.2z"/>
		
			<linearGradient id="SVGID_1_" gradientUnits="userSpaceOnUse" x1="-49.9578" y1="651.5433" x2="-48.4813" y2="650.8051" gradientTransform="matrix(213.3333 0 0 -426.6667 10742.4307 278089.3438)">
			<stop  offset="0" style="stop-color:#D3DFF2"/>
			<stop  offset="0.1717" style="stop-color:#D3DFF2"/>
			<stop  offset="0.2" style="stop-color:#D3DFF2"/>
			<stop  offset="0.2002" style="stop-color:#DAE2F2"/>
			<stop  offset="0.2007" style="stop-color:#EBEAF2"/>
			<stop  offset="0.2014" style="stop-color:#F6EFF2"/>
			<stop  offset="0.2023" style="stop-color:#FDF2F2"/>
			<stop  offset="0.205" style="stop-color:#FFF3F2"/>
			<stop  offset="0.2522" style="stop-color:#FFF3F2"/>
			<stop  offset="0.26" style="stop-color:#FFF3F2"/>
			<stop  offset="0.26" style="stop-color:#D3DFF2"/>
			<stop  offset="0.3974" style="stop-color:#D3DFF2"/>
			<stop  offset="0.42" style="stop-color:#D3DFF2"/>
			<stop  offset="0.4202" style="stop-color:#DAE2F2"/>
			<stop  offset="0.4207" style="stop-color:#EBEAF2"/>
			<stop  offset="0.4214" style="stop-color:#F6EFF2"/>
			<stop  offset="0.4223" style="stop-color:#FDF2F2"/>
			<stop  offset="0.425" style="stop-color:#FFF3F2"/>
			<stop  offset="0.4894" style="stop-color:#FFF3F2"/>
			<stop  offset="0.5" style="stop-color:#FFF3F2"/>
			<stop  offset="0.5" style="stop-color:#F8F0F2"/>
			<stop  offset="0.5001" style="stop-color:#E7E8F2"/>
			<stop  offset="0.5003" style="stop-color:#DCE3F2"/>
			<stop  offset="0.5005" style="stop-color:#D5E0F2"/>
			<stop  offset="0.501" style="stop-color:#D3DFF2"/>
			<stop  offset="0.7062" style="stop-color:#D3DFF2"/>
			<stop  offset="0.74" style="stop-color:#D3DFF2"/>
			<stop  offset="0.741" style="stop-color:#FFF3F2"/>
			<stop  offset="0.8346" style="stop-color:#FFF3F2"/>
			<stop  offset="0.85" style="stop-color:#FFF3F2"/>
			<stop  offset="0.851" style="stop-color:#D3DFF2"/>
		</linearGradient>
		<path style="fill:url(#SVGID_1_);" d="M348.917,50.2v409.6c-0.014,4.707-3.826,8.519-8.533,8.533H144.117
			c-4.707-0.014-8.519-3.826-8.533-8.533V50.2c0.014-4.707,3.826-8.519,8.533-8.533h34.133c4.707,0.014,8.519,3.826,8.533,8.533
			v17.067c0.014,4.707,3.826,8.519,8.533,8.533h119.467c4.707-0.014,8.519-3.826,8.533-8.533V50.2
			c0.014-4.707,3.826-8.519,8.533-8.533h8.533C345.091,41.681,348.903,45.493,348.917,50.2z"/>
		<path style="fill:#A4C2F7;" d="M340.384,371.053l0,11.947H169.717l0-12.8c-0.036-11.482,6.176-22.074,16.213-27.648l34.56-19.2
			c4.613-2.52,7.466-7.373,7.424-12.629v-9.045c0.008-0.858-0.262-1.696-0.768-2.389c-6.889-9.077-11.907-19.432-14.763-30.464
			v-55.211c0,0-3.755-28.587,29.867-34.389c4.228-0.722,8.511-1.065,12.8-1.024c47.275,0,42.667,35.413,42.667,35.413v55.211
			c-2.856,11.032-7.874,21.387-14.763,30.464c-0.506,0.693-0.776,1.531-0.768,2.389v9.472c-0.027,5.388,2.974,10.335,7.765,12.8
			l33.28,18.773C333.811,348.201,340.434,359.14,340.384,371.053z"/>
		<path style="fill:#E3E7F2;" d="M314.784,371.053l0,11.947H169.717l0-12.8c-0.036-11.482,6.176-22.074,16.213-27.648l34.56-19.2
			c4.613-2.52,7.466-7.373,7.424-12.629v-9.045c0.008-0.858-0.262-1.696-0.768-2.389c-6.889-9.077-11.907-19.432-14.763-30.464
			v-55.211c0,0-3.755-28.587,29.867-34.389c33.621,5.803,29.867,34.389,29.867,34.389v55.211
			c-2.856,11.032-7.874,21.387-14.763,30.464c-0.506,0.693-0.776,1.531-0.768,2.389v9.472c-0.027,5.388,2.974,10.335,7.765,12.8
			l33.28,18.773C308.211,348.201,314.834,359.14,314.784,371.053z"/>
		<g>
			<rect x="178.251" y="212.333" style="fill:#A4C2F7;" width="34.133" height="51.2"/>
			<path style="fill:#A4C2F7;" d="M323.317,263.533h-25.6v-51.2h34.133V255C331.851,259.713,328.03,263.533,323.317,263.533z"/>
		</g>
		<path style="fill:#FFFFFF;" d="M127.051,502.467h25.6c-6.792,0.009-13.309-2.685-18.112-7.488s-7.497-11.32-7.488-18.112V33.133
			c-0.009-6.792,2.685-13.309,7.488-18.112s11.32-7.497,18.112-7.488l-25.6,0c-6.792-0.009-13.309,2.685-18.112,7.488
			s-7.497,11.32-7.488,18.112v443.733c-0.009,6.792,2.685,13.309,7.488,18.112S120.258,502.476,127.051,502.467z"/>
	</g>
	<g>
		<polygon style="fill:#FFFFFF;" points="111.984,34.133 111.984,145.067 111.984,477.867 94.917,477.867 94.917,145.067 
			94.917,34.133 		"/>
		<g>
			<path style="fill:#428DFF;" d="M94.917,477.867c0.022,18.842,15.291,34.112,34.133,34.133h256
				c18.842-0.022,34.112-15.291,34.133-34.133V34.133C419.163,15.291,403.893,0.022,385.051,0h-256
				c-18.842,0.022-34.112,15.291-34.133,34.133v34.133c0,4.713,3.821,8.533,8.533,8.533c4.713,0,8.533-3.82,8.533-8.533V34.133
				c0.009-9.422,7.645-17.057,17.067-17.067h256c9.422,0.009,17.057,7.645,17.067,17.067v443.733
				c-0.009,9.422-7.645,17.057-17.067,17.067h-256c-9.422-0.009-17.057-7.645-17.067-17.067V136.533
				c0-4.713-3.821-8.533-8.533-8.533c-4.713,0-8.533,3.821-8.533,8.533V477.867z"/>
			<path style="fill:#428DFF;" d="M103.451,110.933c3.45-0.014,6.556-2.096,7.879-5.282c1.323-3.187,0.606-6.856-1.82-9.31
				l-1.279-1.025c-0.476-0.324-0.993-0.583-1.538-0.771c-0.484-0.246-1.002-0.417-1.537-0.508c-0.564-0.096-1.133-0.153-1.705-0.171
				c-2.259,0.031-4.423,0.915-6.059,2.475c-2.07,1.994-2.979,4.908-2.409,7.726s2.539,5.149,5.222,6.183
				C101.231,110.688,102.334,110.92,103.451,110.933z"/>
			<path style="fill:#428DFF;" d="M180.251,34.133h-34.133c-9.422,0.009-17.057,7.645-17.067,17.067v409.6
				c0.009,9.422,7.645,17.057,17.067,17.067h221.867c9.422-0.009,17.057-7.645,17.067-17.067V51.2
				c-0.009-9.422-7.645-17.057-17.067-17.067h-34.133c-9.422,0.009-17.057,7.645-17.067,17.067v17.067H197.317V51.2
				C197.308,41.778,189.672,34.143,180.251,34.133z M316.784,85.333c9.422-0.009,17.057-7.645,17.067-17.067V51.2h34.133v409.6
				H146.117V51.2h34.133v17.067c0.009,9.422,7.645,17.057,17.067,17.067H316.784z"/>
			<path style="fill:#428DFF;" d="M282.651,51.2c4.713,0,8.533-3.821,8.533-8.533s-3.82-8.533-8.533-8.533h-17.067
				c-4.713,0-8.533,3.821-8.533,8.533s3.82,8.533,8.533,8.533H282.651z"/>
			<path style="fill:#428DFF;" d="M171.717,213.333V281.6c0.015,14.132,11.468,25.585,25.6,25.6h24.05v4.529
				c0.027,2.13-1.115,4.103-2.975,5.142l-34.579,19.167c-12.777,7.097-20.681,20.584-20.629,35.2V384
				c0,4.713,3.82,8.533,8.533,8.533h170.667c4.713,0,8.533-3.82,8.533-8.533v-11.975c0.118-15.002-8.197-28.8-21.517-35.704
				l-33.554-18.954c-1.943-1.021-3.146-3.047-3.113-5.242v-7.979c6.787-9.388,11.842-19.913,14.926-31.079h26.191
				c4.713,0,8.533-3.82,8.533-8.533v-51.2c0-42.346-36.638-76.8-81.675-76.8h-7.317
				C208.355,136.533,171.717,170.988,171.717,213.333z M205.851,221.867V256h-17.067v-34.133H205.851z M188.784,281.6v-8.533h17.658
				c1.525,5.91,3.697,11.633,6.476,17.067h-15.6C192.607,290.127,188.79,286.31,188.784,281.6z M321.33,351.354
				c7.695,4.023,12.52,11.987,12.521,20.671v3.442h-153.6l0-4.229c-0.049-8.403,4.479-16.167,11.817-20.263l34.558-19.154
				c7.312-4.036,11.839-11.74,11.808-20.092V307.2h10.083c4.713,0,8.533-3.82,8.533-8.533s-3.821-8.533-8.533-8.533h-16.022
				c-4.302-6.562-7.535-13.766-9.578-21.342v-55.458c0-0.2-0.1-0.367-0.114-0.563c-0.231-5.664,1.658-11.211,5.297-15.558
				c7.857-7.144,18.39-10.593,28.95-9.479c10.493-1.085,20.956,2.303,28.821,9.333c3.702,4.392,5.634,10.006,5.418,15.746
				c-0.011,0.182-0.105,0.336-0.105,0.52v55.458c-2.661,9.518-7.076,18.456-13.017,26.354c-1.632,2.161-2.51,4.797-2.5,7.504v9.475
				c-0.08,8.486,4.586,16.306,12.092,20.267L321.33,351.354z M325.317,256h-17.067v-34.133h17.067V256z M253.392,153.6h7.317
				c30.956-0.877,57.991,20.795,63.871,51.2h-16.921c-1.147-6.979-4.206-13.504-8.838-18.85
				c-11.008-10.975-26.279-16.562-41.771-15.283c-15.491-1.279-30.763,4.308-41.771,15.283c-4.631,5.346-7.691,11.871-8.838,18.85
				h-16.921C195.401,174.395,222.437,152.723,253.392,153.6z"/>
			<path style="fill:#428DFF;" d="M233.067,51.029c0.566-0.082,1.115-0.255,1.625-0.513c0.543-0.188,1.059-0.447,1.533-0.771
				c0.425-0.338,0.858-0.679,1.284-1.021c3.3-3.365,3.3-8.752,0-12.117c-0.425-0.341-0.858-0.683-1.283-1.025
				c-0.475-0.324-0.99-0.583-1.533-0.771c-0.51-0.258-1.059-0.43-1.625-0.509c-1.093-0.258-2.232-0.258-3.325,0
				c-0.534,0.091-1.051,0.263-1.533,0.508c-0.546,0.187-1.064,0.447-1.542,0.771l-1.275,1.025c-3.3,3.365-3.3,8.752,0,12.117
				c1.627,1.573,3.796,2.459,6.059,2.475C231.993,51.184,232.534,51.127,233.067,51.029z"/>
		</g>
	</g>
</g>
<g>
</g>
<g>
</g>
<g>
</g>
<g>
</g>
<g>
</g>
<g>
</g>
<g>
</g>
<g>
</g>
<g>
</g>
<g>
</g>
<g>
</g>
<g>
</g>
<g>
</g>
<g>
</g>
<g>
</g>
</svg>
