<?xml version="1.0" encoding="iso-8859-1"?>
<!-- Generator: Adobe Illustrator 19.0.0, SVG Export Plug-In . SVG Version: 6.00 Build 0)  -->
<svg version="1.1" id="Capa_1" xmlns="http://www.w3.org/2000/svg" xmlns:xlink="http://www.w3.org/1999/xlink" x="0px" y="0px"
	 viewBox="0 0 512 512" style="enable-background:new 0 0 512 512;" xml:space="preserve">
<g>
	<g transform="translate(1 1)">
		<path style="fill:#A4C2F7;" d="M485.4,289.134v59.733h-51.2c-10.996-8.244-25.289-10.69-38.4-6.571
			c-4.618,1.426-8.95,3.65-12.8,6.571h-68.267V135.534h70.912c8.334,0.003,15.444,6.03,16.811,14.251l14.677,88.149H434.2
			C462.468,237.956,485.378,260.866,485.4,289.134z"/>
		<path style="fill:#D4E1F4;" d="M459.8,289.134v59.733h-51.2c-3.85-2.921-8.182-5.145-12.8-6.571
			c-13.111-4.119-27.404-1.674-38.4,6.571h-42.667V135.534h45.312c8.334,0.003,15.444,6.03,16.811,14.251l14.677,88.149H408.6
			c2.834-0.006,5.662,0.251,8.448,0.768C441.7,242.82,459.773,264.14,459.8,289.134z"/>
		<path style="fill:#A4C2F7;" d="M323.267,109.934v238.933H24.6V109.934c0.028-9.414,7.652-17.039,17.067-17.067H306.2
			C315.615,92.894,323.24,100.519,323.267,109.934z"/>
		<g>
			<path style="fill:#E3E7F2;" d="M297.667,109.934v238.933H24.6V109.934c0.028-9.414,7.652-17.039,17.067-17.067H280.6
				C290.015,92.894,297.639,100.519,297.667,109.934z"/>
			<path style="fill:#E3E7F2;" d="M417.134,237.934h-42.667c-4.707-0.014-8.519-3.826-8.533-8.533v-93.867h19.712
				c8.334,0.003,15.444,6.03,16.811,14.251L417.134,237.934z"/>
		</g>
		<path style="fill:#7FABFA;" d="M502.467,357.4c-0.068,9.397-7.669,16.998-17.067,17.067H24.6
			c-9.414-0.028-17.039-7.653-17.067-17.067c-0.024-4.528,1.793-8.871,5.035-12.032c3.161-3.241,7.504-5.059,12.032-5.035h460.8
			C494.815,340.361,502.44,347.986,502.467,357.4z"/>
		<path style="fill:#A4C2F7;" d="M476.867,357.4c-0.068,9.397-7.669,16.998-17.067,17.067H24.6
			c-9.414-0.028-17.039-7.653-17.067-17.067c-0.024-4.528,1.793-8.871,5.035-12.032c3.161-3.241,7.504-5.059,12.032-5.035h435.2
			C469.215,340.361,476.84,347.986,476.867,357.4z"/>
		<path style="fill:#D4E1F4;" d="M144.067,374.467c0,20.064-13.98,37.418-33.585,41.689s-39.536-5.695-47.882-23.941
			c-8.346-18.246-2.851-39.842,13.2-51.881c15.17-11.378,36.03-11.378,51.2,0C137.734,348.4,144.054,361.04,144.067,374.467z"/>
		<path style="fill:#A4C2F7;" d="M451.267,374.467c-0.009,23.561-19.106,42.658-42.667,42.667c-4.334-0.013-8.644-0.645-12.8-1.877
			c-15.268-4.822-26.56-17.774-29.257-33.556c-2.696-15.783,3.655-31.749,16.457-41.366c3.85-2.921,8.182-5.145,12.8-6.571
			c13.111-4.119,27.404-1.674,38.4,6.571C444.934,348.4,451.254,361.04,451.267,374.467z"/>
		<g>
			<path style="fill:#D4E1F4;" d="M425.667,374.467c0.003,18.654-12.082,35.159-29.867,40.789
				c-15.268-4.822-26.56-17.774-29.257-33.556c-2.696-15.783,3.655-31.749,16.457-41.366c3.85-2.921,8.182-5.145,12.8-6.571
				c4.618,1.426,8.95,3.65,12.8,6.571C419.334,348.4,425.654,361.04,425.667,374.467z"/>
			<path style="fill:#D4E1F4;" d="M259.608,208.152c-11.985,12.071-30.013,15.831-45.824,9.557v0.085l-75.861,74.837
				c-4.291,4.353-10.584,6.076-16.493,4.516c-5.91-1.561-10.532-6.166-12.113-12.07c-1.582-5.904,0.119-12.203,4.457-16.509
				l75.861-74.923h0.085c-6.211-15.799-2.472-33.776,9.522-45.789c11.994-12.013,29.966-15.779,45.774-9.593L229.4,153.88
				c-6.621,6.677-6.598,17.45,0.051,24.098c6.649,6.649,17.422,6.672,24.099,0.051l15.616-15.616
				C275.309,178.208,271.563,196.139,259.608,208.152z"/>
			<polyline style="fill:#D4E1F4;" points="170.606,212.504 170.52,212.504 121.539,163.438 115.566,145.347 91.416,133.315 
				67.267,157.379 79.299,181.528 97.475,187.587 146.286,236.398 			"/>
		</g>
		<path style="fill:#E3E7F2;" d="M200.814,230.595l23.296,23.381c9.991,9.991,9.991,26.19,0,36.181
			c-9.991,9.991-26.19,9.991-36.181,0l-23.552-23.552"/>
		<path style="fill:#FFFFFF;" d="M24.6,374.467h25.6c-9.414-0.028-17.039-7.653-17.067-17.067
			c0.068-9.397,7.669-16.999,17.067-17.067v-230.4c0.028-9.414,7.652-17.039,17.067-17.067h-25.6
			c-9.414,0.028-17.039,7.652-17.067,17.067v230.4c-4.528-0.024-8.871,1.793-12.032,5.035c-3.241,3.161-5.059,7.504-5.035,12.032
			C7.561,366.814,15.186,374.439,24.6,374.467z"/>
	</g>
	<g>
		<polygon style="fill:#FFFFFF;" points="34.134,110.934 34.134,221.867 34.134,341.334 17.067,341.334 17.067,221.867 
			17.067,110.934 		"/>
		<g>
			<path style="fill:#428DFF;" d="M25.6,187.734c2.259-0.034,4.422-0.918,6.059-2.475c3.3-3.365,3.3-8.752,0-12.117l-1.279-1.025
				c-0.476-0.324-0.993-0.583-1.538-0.771c-0.484-0.246-1.003-0.417-1.538-0.509c-0.563-0.096-1.133-0.153-1.704-0.171
				c-2.259,0.031-4.423,0.915-6.059,2.475c-3.221,3.397-3.221,8.72,0,12.117c0.815,0.77,1.77,1.379,2.813,1.792
				C23.381,187.488,24.484,187.72,25.6,187.734z"/>
			<path style="fill:#428DFF;" d="M494.934,334.373v-44.239c-0.037-32.974-26.759-59.696-59.733-59.733h-9.838l-13.491-81.025
				c-2.018-12.353-12.708-21.411-25.225-21.375H332.8v-17.067c-0.015-14.132-11.468-25.585-25.6-25.6H42.667
				c-14.132,0.015-25.585,11.468-25.6,25.6v34.133c0,4.713,3.821,8.533,8.533,8.533s8.533-3.821,8.533-8.533v-34.133
				c0.006-4.71,3.823-8.527,8.533-8.533H307.2c4.71,0.006,8.527,3.823,8.533,8.533V332.8H130.642
				c-17.109-11.378-39.374-11.378-56.483,0H34.134V213.334c0-4.713-3.821-8.533-8.533-8.533s-8.533,3.821-8.533,8.533v121.012
				c-3.566,1.216-6.803,3.239-9.458,5.912C2.712,345.02-0.035,351.57,0,358.4c0.015,14.132,11.468,25.585,25.6,25.6h26.371
				c4.136,24.628,25.456,42.667,50.429,42.667S148.694,408.628,152.83,384h206.342c4.136,24.628,25.456,42.667,50.429,42.667
				S455.894,408.628,460.03,384H486.4c14.111-0.066,25.534-11.489,25.6-25.6C511.967,347.587,505.133,337.965,494.934,334.373z
				 M395.038,152.175l13.025,78.225h-32.596v-85.333l11.179,0C390.809,145.055,394.364,148.067,395.038,152.175z M332.8,145.067
				h25.6V230.4c0.009,9.422,7.645,17.057,17.067,17.067H435.2c23.553,0.028,42.639,19.114,42.667,42.667V332.8h-40.025
				c-17.109-11.378-39.374-11.378-56.483,0H332.8V145.067z M359.171,366.934H152.83c-1.011-6.012-3.096-11.794-6.156-17.067h218.654
				C362.267,355.14,360.182,360.921,359.171,366.934z M17.067,358.4c-0.007-2.298,0.937-4.497,2.608-6.075
				c1.558-1.592,3.698-2.479,5.925-2.458h32.527c-3.06,5.273-5.146,11.054-6.156,17.067H25.6
				C20.89,366.927,17.073,363.11,17.067,358.4z M102.4,409.6c-18.851,0-34.133-15.282-34.133-34.133s15.282-34.133,34.133-34.133
				s34.133,15.282,34.133,34.133C136.512,394.309,121.243,409.579,102.4,409.6z M409.6,409.6c-18.851,0-34.133-15.282-34.133-34.133
				s15.282-34.133,34.133-34.133c18.851,0,34.133,15.282,34.133,34.133C443.712,394.309,428.443,409.579,409.6,409.6z
				 M492.325,364.475c-1.558,1.592-3.698,2.479-5.925,2.458H460.03c-1.011-6.012-3.096-11.794-6.156-17.067H486.4
				c4.71,0.006,8.527,3.823,8.533,8.533C494.94,360.698,493.996,362.897,492.325,364.475z"/>
			<path style="fill:#428DFF;" d="M130.009,159.842l-5.338-16.171c-0.713-2.162-2.261-3.949-4.3-4.963l-24.15-12.029
				c-3.278-1.638-7.236-0.997-9.829,1.592l-24.149,24.062c-2.6,2.595-3.25,6.562-1.613,9.85l12.033,24.15
				c1.011,2.029,2.787,3.573,4.937,4.292l16.266,5.421l41.345,41.345l-26.47,26.143c-7.295,7.335-9.463,18.337-5.496,27.891
				c3.966,9.554,13.289,15.785,23.634,15.797h0.083c6.749-0.001,13.215-2.707,17.954-7.512l20.385-20.11l17.594,17.594
				c8.611,8.652,21.189,12.044,32.983,8.895s21.007-12.359,24.16-24.151c3.153-11.793-0.235-24.372-8.884-32.986l-17.243-17.305
				l3.227-3.183c18.66,4.998,38.545-0.924,51.431-15.316c12.886-14.392,16.582-34.808,9.561-52.805
				c-1.038-2.694-3.369-4.681-6.194-5.279c-2.825-0.598-5.761,0.274-7.802,2.316l-15.617,15.612
				c-3.338,3.323-8.736,3.317-12.067-0.013c-3.331-3.33-3.338-8.727-0.017-12.067l15.617-15.617
				c2.043-2.041,2.914-4.977,2.316-7.802c-0.598-2.825-2.584-5.156-5.279-6.194c-17.986-7.018-38.389-3.331-52.782,9.536
				c-14.393,12.868-20.332,32.732-15.364,51.389l-9.37,9.254L130.009,159.842z M104.509,182.554
				c-0.937-0.936-2.078-1.642-3.333-2.063l-14.817-4.938l-7.708-15.475l15.45-15.392l15.479,7.712l4.854,14.712
				c0.417,1.264,1.125,2.413,2.067,3.354l42.931,43.004l-12.078,11.929L104.509,182.554z M219.1,261.033
				c3.222,3.182,5.034,7.523,5.029,12.051c-0.005,4.528-1.825,8.866-5.054,12.041c-6.662,6.65-17.45,6.65-24.112,0l-17.512-17.511
				l24.308-23.98L219.1,261.033z M195.946,201.392c3.005-2.326,4.109-6.359,2.708-9.892c-3.996-10.145-2.899-21.59,2.951-30.791
				c5.851-9.201,15.749-15.049,26.632-15.734l-3.871,3.871c-6.486,6.466-9.024,15.904-6.659,24.751s9.277,15.758,18.124,18.124
				c8.848,2.366,18.285-0.173,24.751-6.659l3.892-3.892c-0.494,8.272-4.01,16.075-9.879,21.925l-0.042,0.042
				c-9.591,9.636-23.997,12.637-36.638,7.633c-2.634-1.032-5.608-0.685-7.933,0.925c-0.612,0.416-1.165,0.912-1.646,1.475
				l-12.544,12.375l-0.006,0.004l-0.004,0.005l-62.93,62.082c-1.564,1.603-3.706,2.51-5.946,2.517h-0.029
				c-2.284-0.006-4.47-0.926-6.071-2.554c-1.616-1.568-2.53-3.722-2.538-5.973s0.894-4.411,2.5-5.989l56.704-56.003l0.23-0.227
				L195.946,201.392z"/>
		</g>
	</g>
</g>
<g>
</g>
<g>
</g>
<g>
</g>
<g>
</g>
<g>
</g>
<g>
</g>
<g>
</g>
<g>
</g>
<g>
</g>
<g>
</g>
<g>
</g>
<g>
</g>
<g>
</g>
<g>
</g>
<g>
</g>
</svg>
