<?xml version="1.0" encoding="iso-8859-1"?>
<!-- Generator: Adobe Illustrator 19.0.0, SVG Export Plug-In . SVG Version: 6.00 Build 0)  -->
<svg version="1.1" id="Capa_1" xmlns="http://www.w3.org/2000/svg" xmlns:xlink="http://www.w3.org/1999/xlink" x="0px" y="0px"
	 viewBox="0 0 511.725 511.725" style="enable-background:new 0 0 511.725 511.725;" xml:space="preserve">
<g>
	<g transform="translate(0 1)">
		<path style="fill:#A4C2F7;" d="M418.735,441.88l-12.032,12.117l-11.52,11.435l-2.987,3.072l-8.619,8.533
			c-53.931,53.931-175.872,19.285-272.554-77.397C14.853,303.469-19.878,182.381,32.687,128.024l9.557-9.472l12.032-12.117
			c0.149-0.167,0.321-0.311,0.512-0.427l1.963-1.963l12.032-12.117c6.674-6.656,17.476-6.656,24.149,0l48.215,48.299
			c3.196,3.189,4.991,7.518,4.991,12.032c0,4.514-1.796,8.843-4.991,12.032l-12.033,12.117l-2.389,2.389l-16.982,16.981
			c-3.75,3.664-5.553,8.882-4.863,14.08c3.071,23.211,20.565,71.509,72.533,123.392c51.881,51.968,100.181,69.461,123.392,72.533
			c4.965,0.69,9.971-0.947,13.568-4.437l0.512-0.427l19.371-19.371l12.117-12.032c3.188-3.196,7.517-4.992,12.032-4.992
			c4.514,0,8.843,1.796,12.032,4.992l48.299,48.213C425.392,424.404,425.392,435.206,418.735,441.88z"/>
		<g>
			<path style="fill:#E3E7F2;" d="M404.228,456.301l-9.045,9.131l-2.987,3.072l-8.619,8.533
				c-53.931,53.931-175.872,19.285-272.554-77.397C14.853,303.469-19.878,182.381,32.687,128.024l9.557-9.472l12.032-12.117
				c0.149-0.167,0.321-0.311,0.512-0.427c6.678-6.324,17.191-6.134,23.637,0.427l48.299,48.213c6.57,6.709,6.57,17.44,0,24.149
				l-12.117,12.032l-4.864,4.949l-14.421,14.507c-3.829,3.578-5.649,8.813-4.864,13.995c2.987,23.211,20.48,71.509,72.533,123.392
				c51.797,52.053,100.181,69.547,123.392,72.533c5.178,0.744,10.394-1.069,13.995-4.864l13.995-13.995l0.512-0.427l4.865-4.949
				h0.085l12.031-12.032c6.676-6.571,17.389-6.571,24.065,0l48.298,48.299c3.234,3.168,5.056,7.505,5.056,12.032
				C409.284,448.797,407.462,453.133,404.228,456.301z"/>
			<path style="fill:#E3E7F2;" d="M418.735,441.88l-12.032,12.117l-6.059-6.059l-66.389-66.389l12.117-12.032
				c3.188-3.196,7.517-4.992,12.032-4.992c4.514,0,8.843,1.796,12.032,4.992l48.299,48.213
				C425.392,424.404,425.392,435.206,418.735,441.88z"/>
			<path style="fill:#E3E7F2;" d="M141.147,164.291l-12.033,12.117l-72.363-72.363l12.033-12.117c6.674-6.656,17.476-6.656,24.149,0
				l48.215,48.299c3.195,3.189,4.991,7.518,4.991,12.032C146.138,156.773,144.342,161.102,141.147,164.291z"/>
		</g>
		<path style="fill:#A4C2F7;" d="M503.13,26.051v184.832c0.374,9.817-7.252,18.091-17.067,18.517H315.397l-53.675,65.792
			c-2.45,2.435-6.125,3.158-9.315,1.834c-3.191-1.325-5.272-4.438-5.277-7.892V229.4h-17.067c-3.438-0.027-6.78-1.132-9.557-3.157
			c-4.795-3.641-7.581-9.339-7.509-15.36V26.051c-0.374-9.817,7.252-18.091,17.067-18.517h256
			C495.878,7.959,503.505,16.234,503.13,26.051z"/>
		<path style="fill:#E3E7F2;" d="M477.53,26.051v184.832c0.374,9.817-7.252,18.091-17.067,18.517H289.797l-42.667,52.309V229.4
			h-17.067c-3.438-0.027-6.78-1.132-9.557-3.157c-4.795-3.641-7.581-9.339-7.509-15.36V26.051
			c-0.374-9.817,7.252-18.091,17.067-18.517h230.4C470.278,7.959,477.905,16.234,477.53,26.051z"/>
		<g>
			<path style="fill:#FFFFFF;" d="M255.663,7.533h-25.6c-9.815,0.426-17.441,8.701-17.067,18.517v184.832
				c-0.072,6.021,2.714,11.719,7.509,15.36c2.777,2.026,6.12,3.13,9.557,3.157h17.067v59.733c0.005,3.455,2.086,6.568,5.277,7.892
				c3.191,1.325,6.865,0.602,9.315-1.834l11.008-13.494V229.4h-17.067c-3.438-0.027-6.78-1.132-9.557-3.157
				c-4.795-3.641-7.581-9.339-7.509-15.36V26.051C238.222,16.234,245.849,7.959,255.663,7.533z"/>
			<path style="fill:#FFFFFF;" d="M326.428,501.858c-57.699-4.917-128.775-41.19-189.804-102.218
				C40.453,303.469,5.722,182.381,58.287,128.024l9.557-9.472l12.032-12.117c0.149-0.167,0.321-0.311,0.512-0.427l1.963-1.963
				L93.66,92.657l-0.728-0.729c-6.674-6.656-17.476-6.656-24.149,0l-12.032,12.117l-1.963,1.963
				c-0.191,0.116-0.363,0.26-0.511,0.427l-12.032,12.117l-9.557,9.472c-52.565,54.357-17.835,175.445,78.336,271.616
				C181.448,470.064,265.247,507.522,326.428,501.858z"/>
		</g>
	</g>
	<g>
		<polygon style="fill:#FFFFFF;" points="204.463,211.908 204.463,100.975 204.463,27.025 221.53,27.025 221.53,100.975 
			221.53,211.908 		"/>
		<g>
			<path style="fill:#428DFF;" d="M135.143,183.433l0.013-0.009l0.009-0.013l12.058-12.058c9.975-10.005,9.975-26.195,0-36.2
				L98.947,86.883c-10.141-9.642-26.059-9.642-36.2,0l-35.183,35.175c-57.125,57.125-22.4,184.804,77.417,284.621
				c67.225,67.229,147.091,104.929,209.533,104.929c27.715,1.318,54.789-8.601,75.092-27.512l35.175-35.171
				c9.978-10.007,9.978-26.201,0-36.208l-48.267-48.275c-10.01-9.974-26.201-9.972-36.208,0.004l-31.425,31.425
				c-1.8,1.891-4.394,2.812-6.983,2.479c-9.317-1.242-58.825-10.458-118.475-70.108c-59.65-59.65-68.867-109.158-70.108-118.471
				c-0.314-2.587,0.602-5.172,2.475-6.983L135.143,183.433z M86.88,98.95l48.275,48.271c3.325,3.335,3.325,8.732,0,12.067
				l-6.035,6.035L68.78,104.984l-0.001-0.001l6.034-6.033C78.199,95.75,83.494,95.75,86.88,98.95z M364.447,376.513l48.267,48.275
				c3.311,3.341,3.311,8.726,0,12.067l-6.033,6.033l-60.339-60.339l6.031-6.031C355.708,373.187,361.109,373.185,364.447,376.513z
				 M96.397,212.021c3.967,29.746,25.733,79.067,74.958,128.287c49.217,49.221,98.542,70.996,128.292,74.958
				c7.855,1.026,15.737-1.685,21.3-7.325l13.327-13.327l60.339,60.339l-17.075,17.075c-23.783,23.771-63.5,29.317-111.875,15.571
				c-50.1-14.225-102.875-47.25-148.617-92.988C23.888,301.45-10.837,184.596,39.63,134.125l17.081-17.078l0.002,0.003
				l60.339,60.339l-13.331,13.332C98.073,196.278,95.361,204.165,96.397,212.021z"/>
			<path style="fill:#428DFF;" d="M209.755,151.498c0.484,0.246,1.002,0.417,1.537,0.508c0.563,0.096,1.133,0.153,1.704,0.171
				c2.259-0.031,4.423-0.915,6.059-2.475c2.07-1.994,2.979-4.908,2.409-7.726c-0.57-2.818-2.539-5.149-5.222-6.183
				c-1.027-0.438-2.13-0.67-3.246-0.684c-3.45,0.014-6.556,2.096-7.879,5.282c-1.323,3.187-0.606,6.856,1.82,9.31l1.279,1.025
				C208.693,151.052,209.211,151.311,209.755,151.498z"/>
			<path style="fill:#428DFF;" d="M486.063,0h-256c-14.519,0.418-25.966,12.5-25.6,27.021v0.001v82.489
				c0,4.713,3.82,8.533,8.533,8.533s8.533-3.821,8.533-8.533V27.022v-0.001c-0.356-5.093,3.445-9.528,8.533-9.954h256
				c5.088,0.426,8.89,4.861,8.533,9.954v184.892c0.356,5.093-3.445,9.528-8.533,9.954H315.397c-0.142,0-0.26,0.074-0.4,0.081
				c-2.221,0.239-4.296,1.223-5.886,2.792c-0.096,0.107-0.23,0.153-0.322,0.265l-53.125,65.058V230.4
				c0.001-2.263-0.898-4.434-2.499-6.035c-1.6-1.6-3.771-2.499-6.035-2.499h-17.067c-5.088-0.426-8.89-4.861-8.533-9.954v-0.002
				v-34.133c0-4.713-3.821-8.533-8.533-8.533s-8.533,3.821-8.533,8.533v34.133v0.002c-0.366,14.521,11.081,26.602,25.6,27.021h8.533
				v51.2c-0.007,6.906,4.151,13.134,10.531,15.777s13.724,1.178,18.602-3.71c0.202-0.203,0.394-0.415,0.575-0.637l51.137-62.629
				h166.621c14.519-0.418,25.966-12.5,25.6-27.021V27.021C512.029,12.5,500.583,0.418,486.063,0z"/>
			<path style="fill:#428DFF;" d="M366.597,152.992c31.555-4.553,53.973-33.084,50.932-64.821s-30.469-55.492-62.315-53.97
				s-56.884,27.784-56.884,59.666c0,4.713,3.82,8.533,8.533,8.533s8.533-3.821,8.533-8.533c-0.02-12.859,5.779-25.036,15.775-33.125
				c10.136-8.186,23.435-11.338,36.167-8.571c16.225,3.524,28.899,16.196,32.425,32.421c2.557,11.596,0.176,23.734-6.574,33.504
				c-6.749,9.77-17.259,16.293-29.01,18.004c-8.372,1.22-14.597,8.373-14.65,16.833v9.2c0,4.713,3.82,8.533,8.533,8.533
				s8.533-3.821,8.533-8.533V152.992z"/>
			<path style="fill:#428DFF;" d="M361.305,188.413c-2.079-0.85-4.409-0.85-6.487,0c-1.044,0.413-1.999,1.023-2.813,1.796
				c-0.754,0.828-1.362,1.78-1.796,2.813c-0.436,1.027-0.667,2.13-0.679,3.246c0.013,0.572,0.071,1.141,0.171,1.704
				c0.091,0.535,0.263,1.053,0.508,1.537c0.187,0.544,0.447,1.062,0.771,1.538c0.341,0.425,0.683,0.85,1.025,1.279
				c1.636,1.558,3.8,2.441,6.059,2.475c1.119,0.029,2.229-0.205,3.242-0.683c1.033-0.434,1.986-1.04,2.817-1.792
				c0.341-0.429,0.683-0.854,1.021-1.279c0.324-0.476,0.583-0.993,0.771-1.538c0.245-0.485,0.418-1.003,0.512-1.537
				c0.098-0.563,0.155-1.133,0.171-1.704c-0.013-1.116-0.245-2.219-0.683-3.246C365.133,190.88,363.446,189.193,361.305,188.413
				L361.305,188.413z"/>
		</g>
	</g>
</g>
<g>
</g>
<g>
</g>
<g>
</g>
<g>
</g>
<g>
</g>
<g>
</g>
<g>
</g>
<g>
</g>
<g>
</g>
<g>
</g>
<g>
</g>
<g>
</g>
<g>
</g>
<g>
</g>
<g>
</g>
</svg>
