<?xml version="1.0" encoding="iso-8859-1"?>
<!-- Generator: Adobe Illustrator 19.0.0, SVG Export Plug-In . SVG Version: 6.00 Build 0)  -->
<svg version="1.1" id="Capa_1" xmlns="http://www.w3.org/2000/svg" xmlns:xlink="http://www.w3.org/1999/xlink" x="0px" y="0px"
	 viewBox="0 0 512.108 512.108" style="enable-background:new 0 0 512.108 512.108;" xml:space="preserve">
<g transform="translate(0 -1)">
	<g transform="translate(12 15)">
		<g>
			<path style="fill:#E3E7F2;" d="M370.433,200.667c-1.155-2.521-2.914-4.719-5.12-6.4l-92.672-70.4l-20.821-15.787
				c-4.614-3.414-10.916-3.414-15.53,0l-20.821,15.787l-92.673,70.4c-2.184,1.668-3.939,3.833-5.12,6.315
				c-1.049,2.275-1.602,4.748-1.621,7.253v119.552c0.047,14.119,11.481,25.553,25.6,25.6h204.8
				c14.119-0.047,25.553-11.481,25.6-25.6V207.835C372.076,205.353,371.521,202.899,370.433,200.667z"/>
			<path style="fill:#E3E7F2;" d="M370.433,200.667l-23.979,18.432l-69.632,53.504l-4.181-3.243l-20.821-16.128
				c-4.585-3.499-10.945-3.499-15.53,0l-20.822,16.128l-2.987,2.304l-94.805-71.083c1.181-2.482,2.936-4.647,5.12-6.315l92.672-70.4
				l10.069-7.68h0.085l10.667-8.107c4.614-3.414,10.916-3.414,15.53,0l20.821,15.787l92.673,70.4
				C367.519,195.948,369.277,198.146,370.433,200.667z"/>
		</g>
		<g>
			<path style="fill:#A4C2F7;" d="M372.054,207.835v119.552c-0.047,14.119-11.481,25.553-25.6,25.6h-6.656
				c0.609-0.563,1.153-1.193,1.621-1.877c3.274-4.387,5.04-9.715,5.035-15.189V219.099l23.979-18.432
				C371.521,202.899,372.076,205.353,372.054,207.835z"/>
			<path style="fill:#A4C2F7;" d="M346.454,219.099v-2.731c0.022-2.483-0.533-4.936-1.621-7.168c-1.155-2.521-2.914-4.719-5.12-6.4
				l-92.672-70.4l-20.821-15.787c-0.256-0.171-0.341-0.341-0.597-0.427l10.667-8.107c4.614-3.414,10.916-3.414,15.53,0
				l20.821,15.787l92.672,70.4c2.206,1.681,3.965,3.879,5.12,6.4L346.454,219.099z"/>
		</g>
		<path style="fill:#E3E7F2;" d="M367.019,342.577c-4.796,6.559-12.44,10.428-20.565,10.411h-204.8
			c-8.125,0.017-15.769-3.852-20.565-10.411l91.392-70.912l2.987-2.304l20.821-16.128c4.585-3.499,10.945-3.499,15.53,0
			l20.821,16.128l4.181,3.243L367.019,342.577z"/>
		<path style="fill:#FFFFFF;" d="M236.289,108.081l-10.692,8.107h-0.06l-10.069,7.68l-92.672,70.4
			c-2.184,1.668-3.939,3.833-5.12,6.315c-1.049,2.275-1.602,4.748-1.621,7.253v119.552c0.047,14.119,11.481,25.553,25.6,25.6h25.6
			c-14.119-0.047-25.553-11.481-25.6-25.6V207.835c0.019-2.505,0.572-4.978,1.621-7.253c1.181-2.482,2.936-4.647,5.12-6.315
			l92.672-70.4l10.069-7.68h0.06l5.658-4.29l-5.035-3.817C247.205,104.667,240.903,104.667,236.289,108.081z"/>
	</g>
	<g>
		<polygon style="fill:#FFFFFF;" points="136.587,222.852 136.587,333.786 136.587,342.387 119.521,342.387 119.521,333.786 
			119.521,222.852 		"/>
		<g>
			<path style="fill:#428DFF;" d="M486.454,257.054c-0.092-110.142-78.035-204.855-186.1-226.142
				c-2.996-0.593-6.081,0.46-8.088,2.762c-2.007,2.302-2.631,5.501-1.636,8.389c0.995,2.887,3.458,5.023,6.457,5.599
				c103.723,20.342,176.919,113.56,172.077,219.149c-4.842,105.588-86.263,191.716-191.413,202.479l9.936-9.936
				c3.281-3.341,3.256-8.701-0.054-12.012c-3.311-3.311-8.671-3.335-12.012-0.054l-25.595,25.594c-3.324,3.34-3.324,8.738,0,12.078
				l25.595,25.594c2.149,2.188,5.307,3.055,8.271,2.27s5.28-3.1,6.065-6.065s-0.082-6.122-2.27-8.271l-11.933-11.933
				C394.843,476.205,486.296,376.592,486.454,257.054z"/>
			<path style="fill:#428DFF;" d="M25.654,257.054c0.092,110.142,78.035,204.855,186.1,226.142c2.996,0.593,6.081-0.46,8.088-2.762
				s2.631-5.501,1.636-8.389c-0.995-2.888-3.458-5.023-6.457-5.599C111.297,446.104,38.102,352.885,42.944,247.297
				S129.207,55.581,234.357,44.818l-9.936,9.936c-2.188,2.149-3.055,5.307-2.27,8.271c0.785,2.965,3.1,5.28,6.065,6.065
				c2.965,0.785,6.122-0.082,8.271-2.27l25.595-25.594c3.324-3.34,3.324-8.738,0-12.078L236.487,3.554
				c-2.149-2.188-5.307-3.055-8.271-2.27s-5.28,3.1-6.065,6.065c-0.785,2.965,0.082,6.122,2.27,8.271l11.933,11.933
				C117.265,37.903,25.812,137.516,25.654,257.054z"/>
			<path style="fill:#428DFF;" d="M128.054,299.655c3.45-0.014,6.556-2.096,7.879-5.282c1.323-3.187,0.606-6.856-1.82-9.31
				l-1.279-1.025c-0.476-0.324-0.993-0.583-1.538-0.771c-0.484-0.246-1.002-0.417-1.537-0.508c-0.563-0.096-1.133-0.153-1.704-0.171
				c-2.259,0.031-4.423,0.915-6.059,2.475c-2.07,1.994-2.979,4.908-2.409,7.726c0.57,2.818,2.539,5.149,5.222,6.183
				C125.835,299.409,126.938,299.642,128.054,299.655z"/>
			<path style="fill:#428DFF;" d="M243.129,116.279l-113.492,86.192c-2.783,2.161-5.086,4.877-6.764,7.974l-0.019,0.017
				l-0.023,0.048c-0.424,0.78-0.806,1.582-1.146,2.402c-0.115,0.273-0.216,0.551-0.302,0.835c-1.177,2.895-1.808,5.982-1.862,9.107
				v0.001v34.133c0,4.713,3.821,8.533,8.533,8.533c4.713,0,8.533-3.821,8.533-8.533v-25.559l73.84,55.367l-73.683,57.143
				c-0.048-0.519-0.157-1.02-0.157-1.552v-17.132c0-4.713-3.821-8.533-8.533-8.533c-4.713,0-8.533,3.821-8.533,8.533v17.132
				c0.018,7.219,2.345,14.243,6.641,20.045c0.082,0.117,0.096,0.258,0.184,0.372c0.119,0.154,0.297,0.223,0.425,0.367
				c6.402,8.383,16.335,13.316,26.883,13.35h204.8c10.58-0.033,20.541-4.995,26.941-13.42c0.107-0.123,0.266-0.166,0.367-0.297
				c0.089-0.114,0.102-0.255,0.184-0.372c4.296-5.802,6.623-12.826,6.641-20.045V222.854c-0.054-3.15-0.694-6.262-1.888-9.177
				c-0.046-0.194-0.142-0.368-0.202-0.558c-1.683-4.199-4.454-7.874-8.027-10.648l-113.575-86.25
				C261.244,110.525,250.755,110.549,243.129,116.279z M142.234,214.331l111.129-84.394c1.568-1.163,3.706-1.186,5.3-0.058
				l111.356,84.562l-81.187,62.392l-19.853-15.395c-7.674-5.793-18.265-5.773-25.917,0.05l-18.65,14.464L142.234,214.331z
				 M375.521,342.387c0,0.531-0.109,1.033-0.157,1.552l-72.591-56.294l72.748-55.906V342.387z M153.654,359.454
				c-2.434-0.009-4.837-0.543-7.045-1.566l106.837-82.859c1.508-1.179,3.619-1.2,5.15-0.05l106.903,82.909
				c-2.208,1.023-4.611,1.557-7.045,1.566H153.654z"/>
		</g>
	</g>
</g>
<g>
</g>
<g>
</g>
<g>
</g>
<g>
</g>
<g>
</g>
<g>
</g>
<g>
</g>
<g>
</g>
<g>
</g>
<g>
</g>
<g>
</g>
<g>
</g>
<g>
</g>
<g>
</g>
<g>
</g>
</svg>
