<?xml version="1.0" encoding="iso-8859-1"?>
<!-- Generator: Adobe Illustrator 19.0.0, SVG Export Plug-In . SVG Version: 6.00 Build 0)  -->
<svg version="1.1" id="Capa_1" xmlns="http://www.w3.org/2000/svg" xmlns:xlink="http://www.w3.org/1999/xlink" x="0px" y="0px"
	 viewBox="0 0 512 512" style="enable-background:new 0 0 512 512;" xml:space="preserve">
<g>
	<g transform="translate(1 1)">
		<g>
			<rect x="16.067" y="237.933" style="fill:#A4C2F7;" width="256" height="59.733"/>
			<path style="fill:#A4C2F7;" d="M297.667,489.581l0,12.885H7.533v-14.165c0.08-19.067,10.683-36.53,27.563-45.397l61.184-34.645
				c2.849-1.689,5.56-3.6,8.107-5.717c1.309-0.95,2.073-2.479,2.048-4.096c0.004-1.419-0.564-2.78-1.576-3.776
				c-1.012-0.995-2.381-1.542-3.8-1.515h-52.48c-2.81,0.264-5.638,0.264-8.448,0c-5.751-0.407-11.343-2.067-16.384-4.864
				c-3.241-1.923-5.567-5.074-6.451-8.738c-0.884-3.663-0.25-7.529,1.757-10.718c12.203-19.541,38.229-66.731,41.643-116.821
				c0.603-13.91,3.756-27.591,9.301-40.363c9.387-20.565,25.003-44.8,62.976-49.664c4.33-0.556,8.69-0.841,13.056-0.853
				c81.493,0.683,85.675,83.797,85.675,83.797c1.024,52.48,30.464,100.949,45.995,122.539c2.523,3.531,3.297,8.021,2.1,12.193
				c-1.197,4.172-4.232,7.569-8.244,9.226c-10.642,3.738-21.953,5.192-33.195,4.267h-46.507c-2.127-0.037-4.121,1.031-5.269,2.823
				c-1.148,1.791-1.285,4.049-0.363,5.967c1.969,4.433,5.283,8.135,9.472,10.581l72.704,30.805
				c8.752,4.221,16.144,10.814,21.333,19.029C294.922,470.489,297.676,479.936,297.667,489.581z"/>
		</g>
		<path style="fill:#E3E7F2;" d="M272.067,489.581l0,12.885H7.533v-14.165c0.08-19.067,10.683-36.53,27.563-45.397l61.184-34.645
			c2.849-1.689,5.56-3.6,8.107-5.717c1.309-0.95,2.073-2.479,2.048-4.096c0.004-1.419-0.564-2.78-1.576-3.776
			c-1.012-0.995-2.381-1.542-3.8-1.515H40.131c-5.751-0.407-11.343-2.067-16.384-4.864c-3.241-1.923-5.567-5.074-6.451-8.738
			c-0.884-3.663-0.25-7.529,1.757-10.718c12.203-19.541,38.229-66.731,41.643-116.821c0.603-13.91,3.756-27.591,9.301-40.363
			c9.387-20.565,25.003-44.8,62.976-49.664c69.376,8.619,73.131,82.944,73.131,82.944c1.024,52.48,30.464,100.949,45.995,122.539
			c2.523,3.531,3.297,8.021,2.1,12.193c-1.197,4.172-4.232,7.569-8.244,9.226c-6.324,2.488-13.01,3.929-19.797,4.267
			c-4.46,0.312-8.937,0.312-13.397,0h-46.507c-3.432-0.027-6.248,2.712-6.315,6.144c0.024,0.922,0.258,1.827,0.683,2.645
			c1.969,4.433,5.283,8.135,9.472,10.581l72.704,30.805c8.752,4.221,16.144,10.814,21.333,19.029
			C269.322,470.489,272.076,479.936,272.067,489.581z"/>
		<path style="fill:#A4C2F7;" d="M502.467,24.6v179.2c-0.028,9.414-7.653,17.039-17.067,17.067H374.467l-51.2,51.2v-51.2h-8.533
			c-9.414-0.028-17.039-7.653-17.067-17.067V24.6c0.027-9.414,7.652-17.039,17.067-17.067H485.4
			C494.814,7.561,502.439,15.186,502.467,24.6z"/>
		<path style="fill:#E3E7F2;" d="M476.867,24.6v179.2c-0.028,9.414-7.653,17.039-17.067,17.067H348.867l-25.6,25.6v-25.6h-8.533
			c-9.414-0.028-17.039-7.653-17.067-17.067V24.6c0.027-9.414,7.652-17.039,17.067-17.067H459.8
			C469.214,7.561,476.839,15.186,476.867,24.6z"/>
		<g>
			<path style="fill:#FFFFFF;" d="M400.067,118.467c9.425,0,17.066-7.641,17.067-17.067V58.733c0-9.426-7.641-17.067-17.067-17.067
				S383,49.308,383,58.733V101.4C383,110.825,390.641,118.466,400.067,118.467z"/>
			<circle style="fill:#FFFFFF;" cx="400.067" cy="169.667" r="17.067"/>
			<path style="fill:#FFFFFF;" d="M122.733,323.267H139.8c7.069,0,12.8,5.731,12.8,12.8v8.533c0,7.069-5.731,12.8-12.8,12.8h-17.067
				c-7.069,0-12.8-5.731-12.8-12.8v-8.533C109.933,328.997,115.664,323.267,122.733,323.267z"/>
		</g>
		<g>
			<polygon style="fill:#FFFFFF;" points="50.2,297.667 77.49,297.667 87.96,237.933 62.36,237.933 			"/>
			<path style="fill:#FFFFFF;" d="M23.747,388.291c5.041,2.797,10.633,4.457,16.384,4.864c2.81,0.264,5.638,0.264,8.448,0h17.152
				c-5.751-0.407-11.343-2.067-16.384-4.864c-3.241-1.923-5.567-5.074-6.451-8.738c-0.884-3.663-0.25-7.529,1.757-10.718
				c13.884-22.253,24.915-46.163,32.833-71.168h-25.6c-7.918,25.005-18.948,48.915-32.833,71.168
				c-2.007,3.189-2.641,7.055-1.757,10.718C18.18,383.216,20.506,386.367,23.747,388.291z"/>
			<path style="fill:#FFFFFF;" d="M158.573,161.987l0.054-0.005c-4.179-0.527-8.386-0.811-12.598-0.848
				c-4.366,0.012-8.726,0.297-13.056,0.853C95,166.851,79.384,191.085,69.997,211.651c-3.739,8.369-6.308,17.213-7.635,26.283h25.6
				c1.327-9.07,3.896-17.913,7.635-26.283C104.984,191.085,120.6,166.851,158.573,161.987z"/>
			<path style="fill:#FFFFFF;" d="M33.133,488.301c0.08-19.067,10.683-36.53,27.563-45.397l61.184-34.645
				c2.849-1.689,5.56-3.6,8.107-5.717c1.309-0.95,2.073-2.479,2.048-4.096c0.004-1.419-0.564-2.78-1.576-3.776
				s-2.381-1.542-3.8-1.515h-25.6c1.419-0.027,2.789,0.52,3.8,1.515c1.012,0.995,1.579,2.356,1.576,3.776
				c0.025,1.617-0.739,3.146-2.048,4.096c-2.547,2.117-5.258,4.029-8.107,5.717l-61.184,34.645
				c-16.879,8.867-27.482,26.331-27.563,45.397v14.165h25.6V488.301z"/>
			<path style="fill:#FFFFFF;" d="M226.157,393.155h-8.704c-0.276,0-0.481,0.161-0.745,0.194
				C219.101,393.41,222.407,393.407,226.157,393.155z"/>
			<path style="fill:#FFFFFF;" d="M246.328,393.371c-3.935,0.053-6.806-0.129-7.682-0.194
				C239.221,393.227,242.098,393.428,246.328,393.371z"/>
			<path style="fill:#FFFFFF;" d="M340.333,7.533h-25.6c-9.414,0.028-17.039,7.652-17.067,17.067v179.2
				c0.028,9.414,7.652,17.039,17.067,17.067h8.533v51.2l25.6-25.6v-25.6h-8.533c-9.414-0.028-17.039-7.653-17.067-17.067V24.6
				C323.294,15.186,330.919,7.561,340.333,7.533z"/>
			<path style="fill:#FFFFFF;" d="M247.352,393.346c1.003-0.024,2.006-0.06,3.116-0.123
				C249.38,393.282,248.339,393.323,247.352,393.346z"/>
		</g>
	</g>
	<g>
		<polygon style="fill:#FFFFFF;" points="307.2,25.6 307.2,136.533 307.2,204.8 290.133,204.8 290.133,136.533 290.133,25.6 		"/>
		<g>
			<path style="fill:#428DFF;" d="M8.533,512h290.133c4.713,0,8.533-3.82,8.533-8.533v-12.892
				c-0.058-23.175-13.471-44.24-34.446-54.096l-72.279-30.587c-1.371-0.794-2.546-1.885-3.442-3.191l41.492-0.033
				c12.665,1.043,25.406-0.643,37.363-4.946c6.393-2.66,11.223-8.093,13.116-14.753c1.893-6.661,0.643-13.821-3.395-19.447
				c-12.502-17.482-22.882-36.388-30.919-56.321h18.378c4.713,0,8.533-3.82,8.533-8.533v-59.733c0-4.713-3.82-8.533-8.533-8.533
				h-0.446c-5.661-63.373-59.154-111.707-122.775-110.933h-9.558C76.667,118.693,23.173,167.027,17.513,230.4h-0.446
				c-4.713,0-8.533,3.821-8.533,8.533V320c-0.08,10.875,5.729,20.942,15.184,26.315c-4.189,7.95-8.035,14.472-10.88,19.052
				c-3.217,5.206-4.21,11.485-2.754,17.429c1.426,5.851,5.178,10.866,10.388,13.887c9.059,4.886,19.361,6.981,29.608,6.021h41.513
				L32.083,436.4C12.42,446.74,0.077,467.096,0,489.313v14.154C0,508.18,3.821,512,8.533,512z M264.533,290.133h-15.807
				c-4.292-13.844-6.769-28.186-7.37-42.667h23.177V290.133z M140.287,136.533h9.558c54.212-0.767,100.058,39.944,105.706,93.867
				h-16.69c-5.865-25.94-25.765-76.266-91.93-76.8c-52.367,0.425-72.862,31.863-83.717,55.462
				c-3.084,6.841-5.419,13.995-6.963,21.338H34.581C40.229,176.477,86.075,135.766,140.287,136.533z M53.167,252.467
				c-0.962,12.751-3.215,25.371-6.724,37.667H25.6v-42.667h28.085C53.522,249.146,53.285,250.729,53.167,252.467z M25.6,320v-12.8
				h15.412c-3.049,8.522-6.394,16.527-9.771,23.845C27.635,328.537,25.518,324.393,25.6,320z M17.067,489.313
				c0.104-15.983,9.048-30.594,23.233-37.958l61.004-34.542c3.254-1.924,6.358-4.09,9.288-6.479c4.709-3.548,6.586-9.733,4.642-15.3
				c-1.934-5.636-7.242-9.414-13.201-9.396H49.621c-0.334,0.001-0.668,0.02-1,0.058c-6.737,0.607-13.508-0.693-19.541-3.75
				c-1.219-0.711-2.097-1.887-2.433-3.258c-0.365-1.473-0.116-3.031,0.691-4.317c3.508-5.649,8.453-14.095,13.741-24.504h61.753
				c2.039,9.925,10.769,17.053,20.902,17.067H140.8c11.776-0.014,21.32-9.557,21.333-21.333v-8.533
				c-0.014-11.776-9.557-21.319-21.333-21.333h-17.067c-10.132,0.014-18.862,7.142-20.902,17.067H49.151
				c4.418-10.012,8.273-20.263,11.548-30.705c0.058-0.131,0.082-0.272,0.133-0.407c4.964-15.607,8.105-31.737,9.36-48.067
				c0.539-12.889,3.43-25.571,8.529-37.421c10.267-22.325,26.417-45.192,68.212-45.533c59.66,0.481,73.332,49.469,76.39,68.236
				l-0.006,0.03c0,0.073,0.04,0.132,0.041,0.205c0.617,3.85,0.812,6.475,0.838,6.954c1.121,56.804,33.629,108.008,47.554,127.392
				c1.007,1.376,1.319,3.141,0.846,4.779c-0.468,1.688-1.693,3.063-3.317,3.721c-9.631,3.255-19.827,4.499-29.958,3.654h-46.462
				c-5.165-0.028-9.967,2.65-12.658,7.058c-2.662,4.291-2.883,9.663-0.583,14.158c2.909,6.206,7.739,11.311,13.775,14.558
				l72.292,30.592c14.895,7.079,24.403,22.079,24.45,38.571v4.358H17.067V489.313z M119.467,337.067
				c0.002-2.356,1.911-4.265,4.267-4.267H140.8c2.356,0.002,4.265,1.911,4.267,4.267v8.533c-0.002,2.356-1.911,4.265-4.267,4.267
				h-17.067c-2.356-0.002-4.265-1.911-4.267-4.267V337.067z"/>
			<path style="fill:#428DFF;" d="M401.067,128c14.132-0.015,25.585-11.468,25.6-25.6V59.733c0-14.138-11.462-25.6-25.6-25.6
				c-14.138,0-25.6,11.462-25.6,25.6V102.4C375.482,116.532,386.935,127.985,401.067,128z M392.533,59.733
				c0-4.713,3.82-8.533,8.533-8.533s8.533,3.821,8.533,8.533V102.4c0,4.713-3.821,8.533-8.533,8.533s-8.533-3.821-8.533-8.533
				V59.733z"/>
			<path style="fill:#428DFF;" d="M298.667,102.4c3.45-0.014,6.556-2.096,7.879-5.282c1.323-3.187,0.606-6.856-1.82-9.31
				l-1.279-1.025c-0.476-0.324-0.993-0.583-1.538-0.771c-0.484-0.246-1.002-0.417-1.537-0.508c-0.564-0.096-1.133-0.153-1.705-0.171
				c-2.259,0.031-4.423,0.915-6.059,2.475c-2.07,1.994-2.979,4.908-2.409,7.726c0.57,2.818,2.539,5.149,5.222,6.183
				C296.447,102.154,297.55,102.387,298.667,102.4z"/>
			<path style="fill:#428DFF;" d="M486.4,0H315.733c-14.132,0.015-25.585,11.468-25.6,25.6v34.133c0,4.713,3.82,8.533,8.533,8.533
				s8.533-3.821,8.533-8.533V25.6c0.006-4.71,3.823-8.527,8.533-8.533H486.4c4.711,0.005,8.529,3.822,8.533,8.533v179.2
				c-0.005,4.711-3.822,8.529-8.533,8.533H375.467c-2.263,0.001-4.433,0.9-6.033,2.5L332.8,252.467v-30.6
				c0-4.713-3.82-8.533-8.533-8.533h-8.533c-4.71-0.006-8.527-3.823-8.533-8.533V128c0-4.713-3.82-8.533-8.533-8.533
				s-8.533,3.821-8.533,8.533v76.8c0.015,14.132,11.468,25.585,25.6,25.6v42.667c0,3.451,2.079,6.563,5.267,7.883
				c3.189,1.321,6.859,0.59,9.299-1.85l48.7-48.7h107.4c14.132-0.015,25.585-11.468,25.6-25.6V25.6
				C511.985,11.468,500.532,0.015,486.4,0z"/>
			<path style="fill:#428DFF;" d="M401.067,196.267c14.138,0,25.6-11.462,25.6-25.6c0-14.138-11.462-25.6-25.6-25.6
				c-14.138,0-25.6,11.462-25.6,25.6C375.482,184.799,386.935,196.251,401.067,196.267z M401.067,162.133
				c4.713,0,8.533,3.821,8.533,8.533c0,4.713-3.821,8.533-8.533,8.533s-8.533-3.821-8.533-8.533
				C392.538,165.956,396.356,162.138,401.067,162.133z"/>
		</g>
	</g>
</g>
<g>
</g>
<g>
</g>
<g>
</g>
<g>
</g>
<g>
</g>
<g>
</g>
<g>
</g>
<g>
</g>
<g>
</g>
<g>
</g>
<g>
</g>
<g>
</g>
<g>
</g>
<g>
</g>
<g>
</g>
</svg>
