<?xml version="1.0" encoding="iso-8859-1"?>
<!-- Generator: Adobe Illustrator 19.0.0, SVG Export Plug-In . SVG Version: 6.00 Build 0)  -->
<svg version="1.1" id="Capa_1" xmlns="http://www.w3.org/2000/svg" xmlns:xlink="http://www.w3.org/1999/xlink" x="0px" y="0px"
	 viewBox="0 0 512 512" style="enable-background:new 0 0 512 512;" xml:space="preserve">
<g>
	<g transform="translate(1 1)">
		<g>
			<rect x="41.667" y="237.933" style="fill:#A4C2F7;" width="213.333" height="59.733"/>
			<path style="fill:#A4C2F7;" d="M289.133,483.011v19.456H7.533l0-20.736c-0.013-18.775,10.232-36.057,26.709-45.056l57.088-31.147
				c7.508-4.08,12.188-11.935,12.203-20.48v-14.763c0.008-1.386-0.442-2.736-1.28-3.84c-12.181-14.499-21.191-31.388-26.453-49.579
				v-89.6c0,0-4.864-51.115,59.733-57.003c4.253-0.424,8.526-0.624,12.8-0.597c77.995,0,72.533,57.6,72.533,57.6v89.6
				c-5.262,18.191-14.273,35.079-26.453,49.579c-0.838,1.104-1.288,2.454-1.28,3.84v15.36c-0.012,8.824,4.936,16.905,12.8,20.907
				l54.869,30.464C278.153,445.79,289.104,463.568,289.133,483.011z"/>
		</g>
		<path style="fill:#E3E7F2;" d="M263.533,483.011v19.456h-256l0-20.736c-0.013-18.775,10.232-36.057,26.709-45.056l57.088-31.147
			c7.508-4.08,12.188-11.935,12.203-20.48v-14.763c0.008-1.386-0.442-2.736-1.28-3.84c-12.181-14.499-21.191-31.388-26.453-49.579
			v-89.6c0,0-4.864-51.115,59.733-57.003c64.597,5.888,59.733,57.003,59.733,57.003v89.6c-5.262,18.191-14.273,35.079-26.453,49.579
			c-0.838,1.104-1.288,2.454-1.28,3.84v15.36c-0.012,8.824,4.936,16.905,12.8,20.907l54.869,30.464
			C252.553,445.79,263.504,463.568,263.533,483.011z"/>
		<path style="fill:#FFFFFF;" d="M139.8,323.267h17.067c7.069,0,12.8,5.731,12.8,12.8v8.533c0,7.069-5.731,12.8-12.8,12.8H139.8
			c-7.069,0-12.8-5.731-12.8-12.8v-8.533C127,328.997,132.731,323.267,139.8,323.267z"/>
		<path style="fill:#A4C2F7;" d="M502.467,24.6v179.2c-0.028,9.414-7.653,17.039-17.067,17.067H374.467l-51.2,51.2v-51.2h-8.533
			c-9.414-0.028-17.039-7.653-17.067-17.067V24.6c0.027-9.414,7.652-17.039,17.067-17.067H485.4
			C494.814,7.561,502.439,15.186,502.467,24.6z"/>
		<path style="fill:#E3E7F2;" d="M476.867,24.6v179.2c-0.028,9.414-7.653,17.039-17.067,17.067H348.867l-25.6,25.6v-25.6h-8.533
			c-9.414-0.028-17.039-7.653-17.067-17.067V24.6c0.027-9.414,7.652-17.039,17.067-17.067H459.8
			C469.214,7.561,476.839,15.186,476.867,24.6z"/>
		<g>
			<path style="fill:#FFFFFF;" d="M400.067,118.467c9.425,0,17.066-7.641,17.067-17.067V58.733c0-9.426-7.641-17.067-17.067-17.067
				S383,49.308,383,58.733V101.4C383.001,110.826,390.641,118.466,400.067,118.467z"/>
			<circle style="fill:#FFFFFF;" cx="400.067" cy="169.667" r="17.067"/>
		</g>
		<g>
			<path style="fill:#FFFFFF;" d="M340.333,7.533h-25.6c-9.414,0.028-17.039,7.652-17.067,17.067v179.2
				c0.028,9.414,7.652,17.039,17.067,17.067h8.533v51.2l25.6-25.6v-25.6h-8.533c-9.414-0.028-17.039-7.653-17.067-17.067V24.6
				C323.294,15.186,330.919,7.561,340.333,7.533z"/>
			<path style="fill:#FFFFFF;" d="M33.133,481.731c-0.013-18.775,10.232-36.057,26.709-45.056l57.088-31.147
				c7.508-4.08,12.188-11.935,12.203-20.48v-14.763c0.008-1.386-0.442-2.736-1.28-3.84c-12.18-14.499-21.191-31.388-26.453-49.579
				v-19.2H75.8v19.2c5.262,18.191,14.273,35.079,26.453,49.579c0.838,1.104,1.288,2.454,1.28,3.84v14.763
				c-0.015,8.545-4.695,16.4-12.203,20.48l-57.088,31.147c-16.478,8.999-26.723,26.281-26.709,45.056l0,20.736h25.6V481.731z"/>
			<rect x="75.8" y="237.933" style="fill:#FFFFFF;" width="25.6" height="59.733"/>
			<path style="fill:#FFFFFF;" d="M161.133,170.264l0.116-0.005c-4.035-0.376-8.319-0.592-12.916-0.592
				c-4.274-0.026-8.547,0.173-12.8,0.597C70.936,176.152,75.8,227.267,75.8,227.267v10.667h25.6v-10.667
				C101.4,227.267,96.536,176.152,161.133,170.264z"/>
		</g>
	</g>
	<g>
		<polygon style="fill:#FFFFFF;" points="307.2,25.6 307.2,136.533 307.2,204.8 290.133,204.8 290.133,136.533 290.133,25.6 		"/>
		<g>
			<path style="fill:#428DFF;" d="M401.067,128c14.132-0.015,25.585-11.468,25.6-25.6V59.733c0-14.138-11.462-25.6-25.6-25.6
				c-14.138,0-25.6,11.462-25.6,25.6V102.4C375.482,116.532,386.935,127.985,401.067,128z M392.533,59.733
				c0-4.713,3.82-8.533,8.533-8.533s8.533,3.821,8.533,8.533V102.4c0,4.713-3.821,8.533-8.533,8.533s-8.533-3.821-8.533-8.533
				V59.733z"/>
			<path style="fill:#428DFF;" d="M8.533,512h281.6c4.713,0,8.533-3.821,8.533-8.533v-19.458
				c0.107-22.571-12.572-43.256-32.733-53.404l-55.158-30.696c-4.998-2.516-8.14-7.646-8.108-13.242V372l0.542-0.704
				c12.496-15.097,21.685-32.647,26.975-51.517c0.145-0.627,0.217-1.269,0.217-1.913l-0.005-10.667H256
				c4.713,0,8.533-3.82,8.533-8.533v-59.733C264.466,177.695,214.839,128.068,153.6,128h-8.533
				c-61.239,0.068-110.866,49.695-110.933,110.933v59.733c0,4.713,3.821,8.533,8.533,8.533V320
				c-0.411,16.041,12.227,29.395,28.267,29.867h9.916c4.37,7.471,9.252,14.631,14.609,21.429L96,372v14.025
				c0.022,5.421-2.943,10.415-7.713,12.992l-57.075,31.158C11.95,440.636-0.031,460.81,0,482.729v20.738
				c0,2.263,0.899,4.434,2.499,6.034S6.27,512,8.533,512z M247.467,290.133H230.4v-42.667h17.067V290.133z M145.067,145.067h8.533
				c48.5,0.068,88.98,37.038,93.434,85.333h-16.671l-0.001-1.325c0.828-15.99-4.658-31.665-15.275-43.65
				c-14.055-15.454-36.18-23.292-65.755-23.292s-51.7,7.838-65.754,23.292c-10.464,11.756-15.954,27.116-15.312,42.842v2.133H51.632
				C56.086,182.105,96.566,145.134,145.067,145.067z M51.2,290.133v-42.667h17.067v42.667H51.2z M70.933,332.8
				c-6.61-0.478-11.604-6.185-11.2-12.8v-12.8h8.533v10.667c-0.001,0.644,0.072,1.285,0.217,1.913
				c1.064,4.436,2.452,8.788,4.151,13.021H70.933z M17.067,482.729c-0.025-15.666,8.538-30.085,22.304-37.562l57.05-31.146
				c10.281-5.554,16.677-16.311,16.646-27.996v-14.754c0.014-3.256-1.051-6.426-3.029-9.012l-1.087-1.413
				c-1.848-2.387-4.791-6.211-8.008-10.979h18.956c2.039,9.925,10.769,17.053,20.902,17.067h17.067
				c11.776-0.014,21.32-9.557,21.333-21.333v-8.533c-0.014-11.776-9.557-21.319-21.333-21.333H140.8
				c-10.132,0.014-18.862,7.142-20.902,17.067h-28.74c-2.47-5.103-4.422-10.441-5.826-15.933l-0.008-18.162l0.008-0.037v-59.733
				c0-0.057-0.032-0.105-0.033-0.162l-0.005-11.313c-0.352-11.196,3.547-22.11,10.912-30.55
				c10.683-11.75,28.558-17.708,53.125-17.708c24.442,0,42.258,5.896,52.962,17.529c7.622,8.688,11.579,19.993,11.038,31.538v88.604
				c-4.857,16.088-12.887,31.04-23.617,43.975l-1.092,1.413c-1.975,2.588-3.039,5.757-3.025,9.012v15.396
				c-0.083,11.928,6.565,22.883,17.183,28.317l55.171,30.7c14.533,7.235,23.699,22.091,23.646,38.325l0,10.925H17.067
				L17.067,482.729z M136.533,337.067c0.002-2.356,1.911-4.265,4.267-4.267h17.067c2.356,0.002,4.265,1.911,4.267,4.267v8.533
				c-0.002,2.356-1.911,4.265-4.267,4.267H140.8c-2.356-0.002-4.265-1.911-4.267-4.267V337.067z"/>
			<path style="fill:#428DFF;" d="M298.667,102.4c3.45-0.014,6.556-2.096,7.879-5.282c1.323-3.187,0.606-6.856-1.82-9.31
				l-1.279-1.025c-0.476-0.324-0.993-0.583-1.538-0.771c-0.484-0.246-1.002-0.417-1.537-0.508c-0.564-0.096-1.133-0.153-1.705-0.171
				c-2.259,0.031-4.423,0.915-6.059,2.475c-2.07,1.994-2.979,4.908-2.409,7.726c0.57,2.818,2.539,5.149,5.222,6.183
				C296.447,102.154,297.55,102.387,298.667,102.4z"/>
			<path style="fill:#428DFF;" d="M486.4,0H315.733c-14.132,0.015-25.585,11.468-25.6,25.6v34.133c0,4.713,3.82,8.533,8.533,8.533
				s8.533-3.821,8.533-8.533V25.6c0.006-4.71,3.823-8.527,8.533-8.533H486.4c4.71,0.006,8.527,3.823,8.533,8.533v179.2
				c-0.006,4.71-3.823,8.527-8.533,8.533H375.467c-2.263,0.001-4.433,0.9-6.033,2.5L332.8,252.467v-30.6
				c0-4.713-3.82-8.533-8.533-8.533h-8.533c-4.71-0.006-8.527-3.823-8.533-8.533V128c0-4.713-3.82-8.533-8.533-8.533
				s-8.533,3.821-8.533,8.533v76.8c0.015,14.132,11.468,25.585,25.6,25.6v42.667c0,3.451,2.079,6.563,5.267,7.883
				c3.189,1.321,6.859,0.59,9.299-1.85l48.7-48.7h107.4c14.132-0.015,25.585-11.468,25.6-25.6V25.6
				C511.985,11.468,500.532,0.015,486.4,0z"/>
			<path style="fill:#428DFF;" d="M401.067,196.267c14.138,0,25.6-11.462,25.6-25.6c0-14.138-11.462-25.6-25.6-25.6
				c-14.138,0-25.6,11.462-25.6,25.6C375.482,184.799,386.935,196.251,401.067,196.267z M401.067,162.133
				c4.713,0,8.533,3.821,8.533,8.533c0,4.713-3.821,8.533-8.533,8.533s-8.533-3.821-8.533-8.533
				C392.54,165.956,396.356,162.139,401.067,162.133z"/>
		</g>
	</g>
</g>
<g>
</g>
<g>
</g>
<g>
</g>
<g>
</g>
<g>
</g>
<g>
</g>
<g>
</g>
<g>
</g>
<g>
</g>
<g>
</g>
<g>
</g>
<g>
</g>
<g>
</g>
<g>
</g>
<g>
</g>
</svg>
