<?xml version="1.0" encoding="iso-8859-1"?>
<!-- Generator: Adobe Illustrator 19.0.0, SVG Export Plug-In . SVG Version: 6.00 Build 0)  -->
<svg version="1.1" id="Capa_1" xmlns="http://www.w3.org/2000/svg" xmlns:xlink="http://www.w3.org/1999/xlink" x="0px" y="0px"
	 viewBox="0 0 512.001 512.001" style="enable-background:new 0 0 512.001 512.001;" xml:space="preserve">
<g>
	<g transform="translate(1 5)">
		<rect x="306.2" y="88.867" style="fill:#A4C2F7;" width="179.2" height="51.2"/>
		<g>
			<path style="fill:#E3E7F2;" d="M205.677,131.022c-6.147-4.693-14.674-4.693-20.821,0L7.533,268.067v204.8
				c-0.051,7.281,3.062,14.225,8.533,19.029c4.671,4.241,10.758,6.585,17.067,6.571H357.4c14.117-0.052,25.548-11.483,25.6-25.6
				v-204.8L205.677,131.022z"/>
			<path style="fill:#E3E7F2;" d="M383,268.067l-25.6,19.797l-123.477,95.403l-28.245,21.845c-6.147,4.693-14.674,4.693-20.821,0
				l-28.246-21.845L7.533,268.067l165.205-127.659l12.117-9.387c6.147-4.693,14.674-4.693,20.821,0L383,268.067z"/>
			<path style="fill:#E3E7F2;" d="M374.467,491.897c-4.671,4.241-10.758,6.585-17.067,6.571H33.133
				c-6.309,0.014-12.396-2.329-17.067-6.571l140.544-108.629l28.245-21.845c6.147-4.693,14.674-4.693,20.821,0l28.246,21.845
				L374.467,491.897z"/>
		</g>
		<g>
			<path style="fill:#A4C2F7;" d="M383,268.067v204.8c-0.052,14.117-11.483,25.548-25.6,25.6h-3.584
				c2.374-3.939,3.614-8.457,3.584-13.056V287.865L383,268.067z"/>
			<path style="fill:#A4C2F7;" d="M357.4,287.865v-7.253L180.077,143.566c-2.161-1.619-4.677-2.701-7.339-3.157l12.117-9.387
				c6.147-4.693,14.674-4.693,20.821,0L383,268.067L357.4,287.865z"/>
			<path style="fill:#A4C2F7;" d="M502.467,278.734l0,14.933H289.133l0-15.957c-0.038-14.361,7.7-27.617,20.224-34.645
				l43.264-23.979c5.749-3.159,9.292-9.227,9.216-15.787V191.95c-0.01-1.04-0.338-2.052-0.939-2.901
				c-0.939-1.28-2.645-3.413-4.779-6.315c-4.004-5.362-7.517-11.074-10.496-17.067c-2.32-4.703-4.095-9.656-5.29-14.763V81.955
				c0,0-3.157-37.632,42.667-43.52c4.246-0.532,8.521-0.788,12.8-0.768c59.136,0,55.467,44.288,55.467,44.288v68.949
				c-4.104,14.016-11.11,27.013-20.565,38.144c-0.601,0.849-0.929,1.861-0.939,2.901v11.861c-0.066,6.737,3.662,12.939,9.643,16.043
				l41.557,23.467C494.201,250.162,502.502,263.832,502.467,278.734z"/>
		</g>
		<path style="fill:#E3E7F2;" d="M476.867,278.734l0,14.933H289.133l0-15.957c-0.038-14.361,7.7-27.617,20.224-34.645l43.264-23.979
			c5.749-3.159,9.292-9.227,9.216-15.787V191.95c-0.01-1.04-0.338-2.052-0.939-2.901c-0.939-1.28-2.645-3.413-4.779-6.315
			c-4.004-5.362-7.517-11.074-10.496-17.067c-2.32-4.703-4.095-9.656-5.29-14.763V81.955c0,0-3.157-37.632,42.667-43.52
			c45.824,5.888,42.667,43.52,42.667,43.52v68.949c-4.104,14.016-11.11,27.013-20.565,38.144c-0.601,0.849-0.929,1.861-0.939,2.901
			v11.861c-0.066,6.737,3.662,12.939,9.643,16.043l41.557,23.467C468.601,250.162,476.902,263.832,476.867,278.734z"/>
	</g>
	<path style="fill:#FFFFFF;" d="M34.133,503.467h25.6c-14.117-0.052-25.548-11.483-25.6-25.6v-204.8l174.933-135.198l-2.389-1.847
		c-6.147-4.693-14.674-4.693-20.821,0L8.533,273.067v204.8c-0.051,7.281,3.062,14.225,8.533,19.029
		C21.738,501.138,27.824,503.481,34.133,503.467z"/>
	<g>
		<polygon style="fill:#FFFFFF;" points="17.067,281.43 17.067,392.363 17.067,477.867 0,477.867 0,392.363 0,281.43 		"/>
		<g>
			<path style="fill:#428DFF;" d="M8.533,358.23c2.259-0.034,4.422-0.918,6.059-2.475c3.3-3.365,3.3-8.752,0-12.117l-1.279-1.025
				c-0.476-0.324-0.993-0.583-1.538-0.771c-0.484-0.246-1.003-0.417-1.538-0.509c-0.563-0.096-1.133-0.153-1.704-0.171
				c-2.259,0.031-4.423,0.915-6.059,2.475c-3.221,3.397-3.221,8.72,0,12.117c0.815,0.771,1.77,1.379,2.813,1.792
				C6.314,357.985,7.417,358.217,8.533,358.23z"/>
			<path style="fill:#428DFF;" d="M486.188,240.926l-41.863-23.65c-3.143-1.64-5.097-4.909-5.054-8.454v-10.633l0.363-0.471
				c9.752-11.667,16.896-25.283,20.954-39.937c0.141-0.618,0.213-1.25,0.212-1.884l-0.001-2.295H486.4
				c4.713,0,8.533-3.82,8.533-8.533v-51.2c-0.059-51.817-42.05-93.808-93.867-93.867h-8.533
				c-51.817,0.059-93.808,42.05-93.867,93.867v68.267c0.015,14.132,11.468,25.585,25.6,25.6h22.428
				c2.84,4.238,5.486,7.68,7.272,9.983l0.362,10.612c0.034,3.437-1.814,6.619-4.817,8.292l-14.324,7.94l-123.33-95.324
				c-9.229-7.019-22.011-7.006-31.225,0.033L9.958,261.205C3.671,266.028-0.011,273.506,0,281.43v34.133
				c0,4.713,3.821,8.533,8.533,8.533s8.533-3.82,8.533-8.533v-25.092l124.342,96.11l-122.96,97.995
				c-0.912-2.119-1.382-4.402-1.382-6.709V383.83c0-4.713-3.821-8.533-8.533-8.533S0,379.117,0,383.83v94.037
				c0.022,18.842,15.291,34.112,34.133,34.133H358.4c18.842-0.022,34.112-15.291,34.133-34.133V307.201h110.933
				c4.713,0,8.533-3.82,8.533-8.533v-14.967C512.137,265.719,502.16,249.186,486.188,240.926z M477.867,136.534H460.8v-34.133
				h17.067V136.534z M392.533,17.067h8.533c39.087,0.056,71.912,29.427,76.297,68.267h-16.548
				c-0.06-12.155-4.589-23.864-12.724-32.896c-11.187-12.146-28.446-18.304-51.292-18.304c-22.846,0-40.104,6.158-51.292,18.304
				c-8.142,9.029-12.679,20.738-12.745,32.896h-16.527C320.622,46.494,353.447,17.124,392.533,17.067z M315.733,102.401H332.8
				v34.133h-17.067V102.401z M324.267,170.667c-4.71-0.006-8.527-3.823-8.533-8.533v-8.533H332.8v2.295
				c0,0.634,0.071,1.266,0.212,1.883c1.023,4.417,2.448,8.731,4.257,12.888H324.267z M22.482,273.093l168.551-130.289
				c3.077-2.345,7.338-2.359,10.429-0.033l117.478,90.796l-12.657,7.016c-15.29,8.498-24.747,24.641-24.684,42.133v15.95
				c0,4.713,3.82,8.533,8.533,8.533h35.769l-88.517,68.432l-25.356-20.207c-9.24-7.254-22.238-7.266-31.492-0.029l-25.393,20.237
				L22.482,273.093z M34.133,494.934c-0.394,0-0.764-0.09-1.152-0.117l158.222-126.1c2.981-2.354,7.191-2.342,10.158,0.029
				l158.189,126.071c-0.388,0.026-0.757,0.116-1.151,0.116H34.133z M375.467,477.867c0,2.307-0.47,4.59-1.382,6.709l-122.96-97.993
				l102.681-79.383h21.661V477.867z M494.934,290.134H298.666l0-7.417c-0.06-11.28,6.021-21.699,15.871-27.196l24.01-13.311
				l0.104-0.058l19.094-10.585c8.456-4.668,13.69-13.579,13.65-23.238v-11.35c0.012-2.914-0.931-5.751-2.683-8.079l-0.895-1.167
				h24.715c4.713,0,8.533-3.821,8.533-8.533s-3.82-8.533-8.533-8.533h-36.262c-2.806-4.957-4.959-10.257-6.405-15.767l-0.004-9.812
				l0.004-0.021v-51.2l-0.026-0.129l-0.003-7.463c-0.144-8.192,2.789-16.141,8.221-22.275c7.825-8.492,20.862-12.8,38.741-12.8
				c17.758,0,30.742,4.25,38.583,12.633c5.651,6.356,8.64,14.642,8.35,23.142v67.929c-3.639,11.852-9.62,22.854-17.587,32.354
				l-1.262,1.646c-1.75,2.327-2.691,5.163-2.679,8.075v11.842c-0.091,9.838,5.326,18.9,14.033,23.479l41.875,23.658
				c10.399,5.325,16.908,16.059,16.821,27.742L494.934,290.134z"/>
		</g>
	</g>
</g>
<g>
</g>
<g>
</g>
<g>
</g>
<g>
</g>
<g>
</g>
<g>
</g>
<g>
</g>
<g>
</g>
<g>
</g>
<g>
</g>
<g>
</g>
<g>
</g>
<g>
</g>
<g>
</g>
<g>
</g>
</svg>
