<?xml version="1.0" encoding="iso-8859-1"?>
<!-- Generator: Adobe Illustrator 19.0.0, SVG Export Plug-In . SVG Version: 6.00 Build 0)  -->
<svg version="1.1" id="Capa_1" xmlns="http://www.w3.org/2000/svg" xmlns:xlink="http://www.w3.org/1999/xlink" x="0px" y="0px"
	 viewBox="0 0 512 512" style="enable-background:new 0 0 512 512;" xml:space="preserve">
<g>
	<g transform="translate(1 1)">
		<g>
			<path style="fill:#E3E7F2;" d="M205.677,135.021c-6.147-4.693-14.674-4.693-20.821,0L7.533,272.067v204.8
				c-0.051,7.281,3.062,14.225,8.533,19.029c4.671,4.241,10.758,6.585,17.067,6.571H357.4c14.117-0.052,25.548-11.483,25.6-25.6
				v-204.8L205.677,135.021z"/>
			<path style="fill:#E3E7F2;" d="M383,272.067l-25.6,19.797l-123.477,95.403l-28.245,21.845c-6.147,4.693-14.674,4.693-20.821,0
				l-28.246-21.845L7.533,272.067l165.205-127.659l12.117-9.387c6.147-4.693,14.674-4.693,20.821,0L383,272.067z"/>
			<path style="fill:#E3E7F2;" d="M374.467,495.896c-4.671,4.241-10.758,6.585-17.067,6.571H33.133
				c-6.309,0.014-12.396-2.329-17.067-6.571l140.544-108.629l28.245-21.845c6.147-4.693,14.674-4.693,20.821,0l28.246,21.845
				L374.467,495.896z"/>
		</g>
		<g>
			<path style="fill:#A4C2F7;" d="M383,272.067v204.8c-0.052,14.117-11.483,25.548-25.6,25.6h-3.584
				c2.374-3.939,3.614-8.457,3.584-13.056V291.864L383,272.067z"/>
			<path style="fill:#A4C2F7;" d="M357.4,291.864v-7.253L180.077,147.565c-2.161-1.619-4.677-2.701-7.339-3.157l12.117-9.387
				c6.147-4.693,14.674-4.693,20.821,0L383,272.067L357.4,291.864z"/>
			<path style="fill:#A4C2F7;" d="M502.467,24.6v170.667c-0.028,9.414-7.653,17.039-17.067,17.067h-17.067l-51.2,51.2v-51.2h-51.2
				c-9.414-0.028-17.039-7.653-17.067-17.067V24.6c0.027-9.414,7.652-17.039,17.067-17.067H485.4
				C494.814,7.561,502.439,15.186,502.467,24.6z"/>
		</g>
		<path style="fill:#E3E7F2;" d="M476.867,24.6v170.667c-0.028,9.414-7.653,17.039-17.067,17.067h-17.067l-25.6,25.6v-25.6h-51.2
			c-9.414-0.028-17.039-7.653-17.067-17.067V24.6c0.027-9.414,7.652-17.039,17.067-17.067H459.8
			C469.214,7.561,476.839,15.186,476.867,24.6z"/>
		<g>
			<path style="fill:#FFFFFF;" d="M425.667,109.933c9.425,0,17.066-7.641,17.067-17.067V58.733c0-9.426-7.641-17.067-17.067-17.067
				S408.6,49.308,408.6,58.733v34.133C408.6,102.292,416.241,109.933,425.667,109.933z"/>
			<circle style="fill:#FFFFFF;" cx="425.667" cy="161.133" r="17.067"/>
		</g>
		<g>
			<path style="fill:#FFFFFF;" d="M365.933,212.333h25.6c-9.414-0.028-17.039-7.653-17.067-17.067V24.6
				c0.028-9.414,7.652-17.039,17.067-17.067h-25.6c-9.414,0.028-17.039,7.652-17.067,17.067v170.667
				C348.894,204.681,356.519,212.306,365.933,212.333z"/>
			<path style="fill:#FFFFFF;" d="M33.133,502.467h25.6c-14.117-0.052-25.548-11.483-25.6-25.6v-204.8l174.933-135.198l-2.389-1.847
				c-6.147-4.693-14.674-4.693-20.821,0L7.533,272.067v204.8c-0.051,7.281,3.062,14.225,8.533,19.029
				C20.738,500.137,26.824,502.481,33.133,502.467z"/>
		</g>
	</g>
	<g>
		<polygon style="fill:#FFFFFF;" points="17.067,281.446 17.067,392.38 17.067,477.867 0,477.867 0,392.38 0,281.446 		"/>
		<g>
			<path style="fill:#428DFF;" d="M8.533,358.246c2.259-0.034,4.422-0.918,6.059-2.475c3.3-3.365,3.3-8.752,0-12.117l-1.279-1.025
				c-0.476-0.324-0.993-0.583-1.538-0.771c-0.484-0.246-1.002-0.417-1.537-0.508c-0.564-0.096-1.133-0.153-1.705-0.171
				c-2.259,0.032-4.423,0.915-6.059,2.475c-3.221,3.397-3.221,8.72,0,12.117c0.815,0.771,1.77,1.379,2.813,1.792
				C6.314,358,7.417,358.233,8.533,358.246z"/>
			<path style="fill:#428DFF;" d="M34.133,512H358.4c18.842-0.022,34.112-15.291,34.133-34.133V281.446
				c-0.053-3.162-0.697-6.286-1.898-9.211c-0.019-0.076-0.057-0.144-0.079-0.219c-1.643-4.254-4.394-7.992-7.969-10.824
				l-170.733-131.95c-9.223-7.021-22.002-7.009-31.212,0.029L9.941,261.192c-3.574,2.834-6.324,6.572-7.966,10.827
				c-0.021,0.074-0.057,0.141-0.077,0.215c-1.201,2.926-1.845,6.05-1.898,9.212v34.133c0,4.713,3.821,8.533,8.533,8.533
				s8.533-3.821,8.533-8.533v-25.108l124.342,96.11l-122.96,97.995c-0.912-2.119-1.382-4.402-1.382-6.709v-94.021
				c0-4.713-3.821-8.533-8.533-8.533S0,379.133,0,383.846v94.021C0.022,496.709,15.291,511.978,34.133,512z M34.133,494.933
				c-0.394,0-0.764-0.09-1.152-0.117l158.222-126.1c2.981-2.354,7.191-2.342,10.158,0.029l158.189,126.071
				c-0.387,0.026-0.757,0.116-1.151,0.116H34.133z M375.467,290.471v187.396c0,2.307-0.47,4.59-1.382,6.709l-122.961-97.994
				L375.467,290.471z M22.465,273.08L191.038,142.8c3.077-2.338,7.331-2.349,10.421-0.029l168.608,130.31L237.388,375.634
				l-25.359-20.209c-9.24-7.254-22.238-7.266-31.492-0.029l-25.393,20.238L22.465,273.08z"/>
			<path style="fill:#428DFF;" d="M426.667,34.133c-14.132,0.015-25.585,11.468-25.6,25.6v34.133c0,14.138,11.462,25.6,25.6,25.6
				s25.6-11.462,25.6-25.6V59.733C452.251,45.601,440.799,34.149,426.667,34.133z M435.2,93.867c0,4.713-3.82,8.533-8.533,8.533
				s-8.533-3.821-8.533-8.533V59.733c0-4.713,3.82-8.533,8.533-8.533s8.533,3.821,8.533,8.533V93.867z"/>
			<path style="fill:#428DFF;" d="M486.4,0H366.933c-14.132,0.015-25.585,11.468-25.6,25.6v170.667
				c0.015,14.132,11.468,25.585,25.6,25.6H409.6v42.667c0,3.451,2.079,6.563,5.267,7.883c3.189,1.321,6.859,0.59,9.299-1.85
				l48.7-48.7H486.4c14.132-0.015,25.585-11.468,25.6-25.6V25.6C511.985,11.468,500.532,0.015,486.4,0z M494.933,196.267
				c-0.006,4.71-3.823,8.527-8.533,8.533h-17.067c-2.263,0.001-4.433,0.9-6.033,2.5l-36.634,36.633v-30.6
				c0-4.713-3.82-8.533-8.533-8.533h-51.2c-4.71-0.006-8.527-3.823-8.533-8.533V25.6c0.006-4.71,3.823-8.527,8.533-8.533H486.4
				c4.71,0.006,8.527,3.823,8.533,8.533V196.267z"/>
			<path style="fill:#428DFF;" d="M426.667,136.533c-14.138,0-25.6,11.462-25.6,25.6c0,14.138,11.462,25.6,25.6,25.6
				s25.6-11.462,25.6-25.6C452.251,148.001,440.799,136.549,426.667,136.533z M426.667,170.667c-4.713,0-8.533-3.821-8.533-8.533
				c0-4.713,3.82-8.533,8.533-8.533s8.533,3.821,8.533,8.533C435.194,166.844,431.377,170.661,426.667,170.667z"/>
		</g>
	</g>
</g>
<g>
</g>
<g>
</g>
<g>
</g>
<g>
</g>
<g>
</g>
<g>
</g>
<g>
</g>
<g>
</g>
<g>
</g>
<g>
</g>
<g>
</g>
<g>
</g>
<g>
</g>
<g>
</g>
<g>
</g>
</svg>
