<?xml version="1.0" encoding="iso-8859-1"?>
<!-- Generator: Adobe Illustrator 19.0.0, SVG Export Plug-In . SVG Version: 6.00 Build 0)  -->
<svg version="1.1" id="Capa_1" xmlns="http://www.w3.org/2000/svg" xmlns:xlink="http://www.w3.org/1999/xlink" x="0px" y="0px"
	 viewBox="0 0 512.001 512.001" style="enable-background:new 0 0 512.001 512.001;" xml:space="preserve">
<g transform="translate(-1)">
	<g transform="translate(0 1)">
		<path style="fill:#D4E1F4;" d="M318.174,239.442l-29.506,8.025L145.335,390.799l-24.136-24.136l143.333-143.333l8.025-29.506
			c1.616-5.116,5.624-9.124,10.741-10.741l47.246-14.421l12.793,12.793l-14.421,47.246
			C327.298,233.818,323.29,237.826,318.174,239.442z"/>
		<g>
			<path style="fill:#E3E7F2;" d="M109.143,354.593l48.272,48.272l-89.032,89.032c-13.33,13.33-34.942,13.33-48.272,0
				s-13.33-34.942,0-48.272L109.143,354.593z"/>
			<polygon style="fill:#E3E7F2;" points="146.588,425.75 86.248,365.411 86.248,341.279 104.348,323.179 188.819,407.651 
				170.72,425.75 			"/>
		</g>
		<path style="fill:#A4C2F7;" d="M188.819,407.659l-18.091,18.091h-24.149l-6.059-6.059l-72.107,72.192
			c-13.348,13.312-34.951,13.312-48.299,0c-2.655-2.61-4.823-5.673-6.4-9.045c12.715,5.193,27.303,2.268,37.035-7.424l72.192-72.192
			l5.973,6.059h24.149l18.091-18.091l-67.413-67.413l0.597-0.597L188.819,407.659z"/>
		<path style="fill:#E3E7F2;" d="M447.208,303.467c-4.64,18.156-11.883,35.545-21.504,51.627l23.808,55.467
			c-5.461,6.741-11.349,13.227-17.493,19.456c-6.229,6.144-12.715,12.032-19.456,17.493l-55.467-23.808
			c-16.081,9.621-33.47,16.864-51.627,21.504l-22.357,55.893c-8.673,0.927-17.39,1.383-26.112,1.365v-93.867
			c84.831,0,153.6-68.769,153.6-153.6s-68.769-153.6-153.6-153.6s-153.6,68.769-153.6,153.6H9.534
			c-0.018-8.722,0.438-17.439,1.365-26.112l55.893-22.357c4.64-18.156,11.883-35.545,21.504-51.627L64.488,99.435
			c5.461-6.741,11.349-13.227,17.493-19.456c6.229-6.144,12.715-12.032,19.456-17.493l55.467,23.808
			c16.081-9.621,33.471-16.864,51.627-21.504l22.357-55.893c17.36-1.82,34.864-1.82,52.224,0L305.47,64.79
			c18.156,4.64,35.545,11.883,51.627,21.504l55.467-23.808c6.741,5.461,13.227,11.349,19.456,17.493
			c6.144,6.229,12.032,12.715,17.493,19.456l-23.808,55.467c9.621,16.081,16.864,33.471,21.504,51.627l55.893,22.357
			c1.82,17.36,1.82,34.864,0,52.224L447.208,303.467z"/>
		<path style="fill:#A4C2F7;" d="M447.208,303.467c-4.64,18.156-11.883,35.545-21.504,51.627l23.808,55.467
			c-5.461,6.741-11.349,13.227-17.493,19.456c-6.229,6.144-12.715,12.032-19.456,17.493l-17.067-7.339
			c3.755-3.243,7.339-6.656,10.923-10.155c6.144-6.229,12.032-12.715,17.493-19.456l-23.808-55.467
			c9.621-16.081,16.864-33.47,21.504-51.627l55.893-22.357c1.82-17.36,1.82-34.864,0-52.224l-55.893-22.357
			c-4.64-18.156-11.883-35.545-21.504-51.627l23.808-55.467c-5.461-6.741-11.349-13.227-17.493-19.456
			c-3.584-3.499-7.168-6.912-10.923-10.155l17.067-7.339c6.741,5.461,13.227,11.349,19.456,17.493
			c6.144,6.229,12.032,12.715,17.493,19.456l-23.808,55.467c9.621,16.081,16.864,33.471,21.504,51.627l55.893,22.357
			c1.82,17.36,1.82,34.864,0,52.224L447.208,303.467z"/>
	</g>
	<g transform="translate(2 7)">
		<path style="fill:#FFFFFF;" d="M34.499,222.886l55.894-22.357c4.64-18.156,11.883-35.545,21.504-51.627L88.088,93.435
			c5.461-6.741,11.349-13.227,17.493-19.456c3.545-3.496,7.195-6.876,10.906-10.175l-17.05-7.318
			c-6.741,5.461-13.227,11.349-19.456,17.493c-6.144,6.229-12.032,12.715-17.493,19.456l23.808,55.467
			c-9.621,16.081-16.864,33.471-21.504,51.627L8.899,222.886c-0.927,8.673-1.383,17.39-1.366,26.112h25.601
			C33.116,240.276,33.572,231.559,34.499,222.886z"/>
		<path style="fill:#FFFFFF;" d="M369.478,423.875l41.086,17.635c2.905-2.354,5.74-4.82,8.55-7.318l-38.417-16.49
			C377.038,419.885,373.285,421.925,369.478,423.875z"/>
		<polygon style="fill:#FFFFFF;" points="168.72,419.75 168.728,419.75 169.454,419.025 164.146,413.717 158.113,419.75 		"/>
		<path style="fill:#FFFFFF;" d="M410.563,56.486l-41.086,17.635c3.808,1.95,7.561,3.99,11.219,6.172l38.417-16.49
			C416.304,61.306,413.469,58.84,410.563,56.486z"/>
	</g>
	<g transform="translate(1)">
		<path style="fill:#428DFF;" d="M13.067,498.931c16.671,16.639,43.666,16.639,60.337,0l66.146-66.146c1.6,1.6,3.77,2.5,6.033,2.5
			h24.137c2.263-0.001,4.433-0.9,6.033-2.5l18.1-18.1c1.601-1.6,2.5-3.77,2.5-6.033s-0.899-4.433-2.5-6.033l-24.135-24.135
			l122.378-122.381l27.317-7.425c0.117-0.029,0.237-0.067,0.35-0.104c7.775-2.487,13.857-8.595,16.312-16.379l14.421-47.246
			c0.92-3.017,0.101-6.295-2.129-8.525l-12.791-12.791c-2.229-2.231-5.508-3.05-8.525-2.129l-47.337,14.45
			c-7.855,2.531-13.976,8.743-16.392,16.633l-7.425,27.316L133.515,342.279l-24.135-24.135c-1.6-1.601-3.77-2.5-6.033-2.5
			c-2.263,0-4.433,0.899-6.033,2.5l-18.1,18.1c-1.6,1.6-2.5,3.77-2.5,6.033v24.137c0.001,2.263,0.9,4.433,2.5,6.033l-66.146,66.147
			C-3.57,455.266-3.57,482.26,13.067,498.931z M269.567,230.365c1.054-1.05,1.813-2.359,2.2-3.796l7.917-29.158
			c0.757-2.451,2.662-4.378,5.104-5.163l42.346-12.925l5.542,5.542l-12.896,42.254c-0.755,2.429-2.636,4.345-5.05,5.146l-29.3,7.967
			c-1.437,0.387-2.746,1.146-3.796,2.2L157.655,366.415l-12.071-12.071L269.567,230.365z M93.78,345.811l9.567-9.567l72.408,72.408
			l-9.567,9.567h-17.071l-3.533-3.533l-48.271-48.271l-3.533-3.533V345.811z M25.134,450.661l66.146-66.146l36.204,36.204
			l-66.146,66.146c-10.132,9.667-26.072,9.667-36.204,0C15.139,476.866,15.139,460.659,25.134,450.661L25.134,450.661z"/>
		<path style="fill:#428DFF;" d="M505.271,221.961l-51.92-20.767c-4.465-16.017-10.882-31.425-19.108-45.875l22.112-51.517
			c1.25-2.912,0.783-6.276-1.212-8.737c-5.371-6.629-11.446-13.383-18.129-20.154c-6.696-6.608-13.45-12.683-20.079-18.054
			c-2.461-1.996-5.826-2.463-8.738-1.212L356.68,77.756c-14.451-8.226-29.858-14.644-45.875-19.108L290.038,6.727
			c-1.174-2.927-3.865-4.97-7-5.313c-17.976-1.883-36.099-1.883-54.075,0c-3.135,0.343-5.826,2.385-7,5.312l-20.767,51.921
			c-16.017,4.465-31.425,10.882-45.875,19.108l-51.516-22.112c-2.911-1.253-6.278-0.786-8.737,1.213
			c-6.629,5.371-13.383,11.446-20.154,18.129c-6.608,6.696-12.683,13.45-18.054,20.079c-1.996,2.461-2.463,5.826-1.213,8.738
			l22.112,51.517c-8.226,14.451-14.644,29.858-19.108,45.875L6.73,221.961c-2.927,1.174-4.97,3.865-5.312,7
			c-0.961,8.98-1.434,18.006-1.417,27.038c0,4.713,3.821,8.533,8.533,8.533H102.4c4.713,0,8.533-3.82,8.533-8.533
			c0-80.118,64.949-145.067,145.067-145.067s145.067,64.949,145.067,145.067S336.119,401.065,256,401.065
			c-4.713,0-8.533,3.821-8.533,8.533v93.867c0,4.713,3.82,8.533,8.533,8.533c9.031,0.017,18.057-0.456,27.038-1.417
			c3.135-0.343,5.826-2.385,7-5.312l20.767-51.921c16.017-4.465,31.425-10.882,45.875-19.108l51.517,22.112
			c2.913,1.243,6.274,0.777,8.738-1.212c6.629-5.371,13.383-11.446,20.158-18.133c6.625-6.717,12.7-13.471,18.05-20.075
			c1.996-2.461,2.463-5.826,1.213-8.738l-22.112-51.517c8.226-14.451,14.644-29.858,19.108-45.875l51.921-20.767
			c2.927-1.174,4.97-3.865,5.312-7c1.889-17.976,1.889-36.1,0-54.075C510.241,225.826,508.199,223.134,505.271,221.961z
			 M494.109,276.119l-51.071,20.429c-2.531,1.013-4.427,3.175-5.1,5.817c-4.437,17.359-11.363,33.984-20.563,49.358
			c-1.401,2.348-1.591,5.225-0.513,7.737l21.75,50.671c-4.167,4.912-8.737,9.888-13.592,14.813
			c-4.966,4.904-9.958,9.483-14.888,13.667l-50.671-21.75c-2.512-1.079-5.389-0.888-7.738,0.512
			c-15.375,9.199-32,16.125-49.358,20.563c-2.642,0.674-4.803,2.569-5.817,5.1l-20.429,51.071c-3.779,0.321-7.65,0.546-11.588,0.679
			v-76.875c87.209-4.597,155.108-77.441,153.575-164.757c-1.533-87.316-71.948-157.731-159.264-159.264
			c-87.316-1.533-160.159,66.366-164.757,153.575H17.213c0.133-3.938,0.358-7.808,0.679-11.588l51.071-20.429
			c2.531-1.013,4.427-3.175,5.1-5.817c4.437-17.359,11.363-33.984,20.563-49.358c1.401-2.348,1.591-5.225,0.513-7.738l-21.75-50.671
			c4.179-4.925,8.746-9.904,13.592-14.813c4.966-4.904,9.958-9.483,14.888-13.667l50.671,21.75c2.512,1.081,5.39,0.891,7.738-0.513
			c15.375-9.199,32-16.125,49.358-20.563c2.642-0.674,4.804-2.569,5.817-5.1l20.429-51.071c13.392-1.092,26.85-1.092,40.242,0
			l20.429,51.071c1.013,2.531,3.175,4.427,5.817,5.1c17.359,4.437,33.984,11.363,49.358,20.563c2.347,1.403,5.226,1.593,7.738,0.513
			l50.671-21.75c4.925,4.179,9.904,8.746,14.813,13.592c4.904,4.966,9.483,9.958,13.667,14.888l-21.75,50.671
			c-1.079,2.512-0.888,5.389,0.513,7.738c9.199,15.375,16.125,32,20.563,49.358c0.673,2.642,2.569,4.804,5.1,5.817l51.071,20.429
			c0.546,6.479,0.826,13.225,0.826,20.121S494.655,269.64,494.109,276.119z"/>
	</g>
</g>
<g>
</g>
<g>
</g>
<g>
</g>
<g>
</g>
<g>
</g>
<g>
</g>
<g>
</g>
<g>
</g>
<g>
</g>
<g>
</g>
<g>
</g>
<g>
</g>
<g>
</g>
<g>
</g>
<g>
</g>
</svg>
