<?xml version="1.0" encoding="iso-8859-1"?>
<!-- Generator: Adobe Illustrator 19.0.0, SVG Export Plug-In . SVG Version: 6.00 Build 0)  -->
<svg version="1.1" id="Capa_1" xmlns="http://www.w3.org/2000/svg" xmlns:xlink="http://www.w3.org/1999/xlink" x="0px" y="0px"
	 viewBox="0 0 512 512" style="enable-background:new 0 0 512 512;" xml:space="preserve">
<g>
	<g transform="translate(1 1)">
		<path style="fill:#E3E7F2;" d="M501.102,281.11c1.819-17.36,1.819-34.864,0-52.224l-55.893-22.357
			c-4.64-18.156-11.883-35.545-21.504-51.627l23.808-55.467c-5.463-6.741-11.35-13.227-17.493-19.456
			c-6.229-6.144-12.715-12.032-19.456-17.493l-55.467,23.808c-16.081-9.621-33.471-16.864-51.627-21.504L281.113,8.897
			c-17.361-1.82-34.864-1.82-52.225,0L206.531,64.79c-18.156,4.64-35.546,11.883-51.627,21.504L99.437,62.486
			c-6.741,5.461-13.227,11.349-19.456,17.493c-6.144,6.229-12.031,12.715-17.494,19.456l23.808,55.467
			c-9.621,16.082-16.864,33.471-21.504,51.627L8.898,228.886c-1.819,17.36-1.819,34.864,0,52.224l55.894,22.357
			c4.64,18.156,11.883,35.545,21.504,51.627l-23.808,55.467c5.462,6.741,11.349,13.227,17.493,19.456
			c6.229,6.144,12.715,12.032,19.456,17.493l55.467-23.808c16.081,9.621,33.471,16.865,51.627,21.504l22.356,55.893
			c17.361,1.821,34.864,1.821,52.225,0l22.356-55.893c18.156-4.639,35.545-11.883,51.627-21.504l55.467,23.808
			c6.741-5.461,13.227-11.349,19.456-17.493c6.144-6.229,12.031-12.715,17.493-19.456l-23.808-55.467
			c9.621-16.082,16.864-33.471,21.504-51.627L501.102,281.11z M255,408.598c-84.831,0-153.6-68.769-153.6-153.6
			s68.769-153.6,153.6-153.6s153.6,68.769,153.6,153.6C408.593,339.826,339.828,408.591,255,408.598z"/>
		<path style="fill:#A4C2F7;" d="M348.867,195.265v102.4c-0.028,9.414-7.653,17.039-17.067,17.067H229.4l-33.877,32.597
			c-1.498,1.5-3.762,1.928-5.705,1.079s-3.167-2.801-3.084-4.919v-28.757H178.2c-9.414-0.028-17.039-7.652-17.067-17.067v-102.4
			c0.027-9.414,7.652-17.039,17.067-17.067h153.6C341.214,178.226,348.839,185.85,348.867,195.265z"/>
		<path style="fill:#E3E7F2;" d="M323.267,195.265v102.4c-0.028,9.414-7.653,17.039-17.067,17.067H203.8l-17.067,16.384v-16.384
			H178.2c-9.414-0.028-17.039-7.652-17.067-17.067v-102.4c0.027-9.414,7.652-17.039,17.067-17.067h128
			C315.614,178.226,323.239,185.85,323.267,195.265z"/>
		<path style="fill:#A4C2F7;" d="M445.208,303.467c-4.64,18.156-11.883,35.545-21.504,51.627l23.808,55.467
			c-5.463,6.741-11.35,13.227-17.493,19.456c-6.229,6.144-12.715,12.032-19.456,17.493l-17.067-7.339
			c3.754-3.243,7.34-6.656,10.923-10.155c6.144-6.229,12.031-12.715,17.493-19.456l-23.808-55.467
			c9.621-16.082,16.864-33.471,21.504-51.627l55.893-22.357c1.819-17.36,1.819-34.864,0-52.224l-55.893-22.357
			c-4.64-18.156-11.883-35.545-21.504-51.627l23.808-55.467c-5.463-6.741-11.35-13.227-17.493-19.456
			c-3.583-3.499-7.169-6.912-10.923-10.155l17.067-7.339c6.741,5.461,13.227,11.349,19.456,17.493
			c6.144,6.229,12.031,12.715,17.493,19.456l-23.808,55.467c9.621,16.082,16.864,33.471,21.504,51.627l55.893,22.357
			c1.819,17.36,1.819,34.864,0,52.224L445.208,303.467z"/>
		<g>
			<path style="fill:#FFFFFF;" d="M64.792,303.467c4.64,18.156,11.883,35.545,21.504,51.627l-23.808,55.467
				c5.462,6.741,11.349,13.227,17.493,19.456c6.229,6.144,12.715,12.032,19.456,17.493l17.05-7.318
				c-3.71-3.299-7.361-6.679-10.906-10.175c-6.144-6.229-12.031-12.715-17.494-19.456l23.808-55.467
				c-9.621-16.082-16.864-33.471-21.504-51.627L34.498,281.11c-1.819-17.36-1.819-34.864,0-52.224l55.894-22.357
				c4.64-18.156,11.883-35.545,21.504-51.627L88.088,99.435c5.463-6.741,11.35-13.227,17.494-19.456
				c3.545-3.496,7.196-6.876,10.906-10.175l-17.051-7.318c-6.741,5.461-13.227,11.349-19.456,17.493
				c-6.144,6.229-12.031,12.715-17.494,19.456l23.808,55.467c-9.621,16.082-16.864,33.471-21.504,51.627L8.898,228.886
				c-1.819,17.36-1.819,34.864,0,52.224L64.792,303.467z"/>
			<path style="fill:#FFFFFF;" d="M161.133,195.265v102.4c0.028,9.414,7.652,17.039,17.067,17.067h8.533v28.757
				c-0.082,2.118,1.142,4.071,3.084,4.919s4.207,0.42,5.705-1.079l16.811-16.175v-16.422H203.8
				c-9.414-0.028-17.039-7.652-17.067-17.067v-102.4c0.028-9.414,7.652-17.039,17.067-17.067h-25.6
				C168.786,178.226,161.161,185.85,161.133,195.265z"/>
			<path style="fill:#FFFFFF;" d="M206.531,445.206l22.356,55.893c8.673,0.927,17.39,1.383,26.113,1.365
				c4.287,0,8.554-0.107,12.8-0.322c-4.459-0.223-8.898-0.562-13.313-1.043l-22.356-55.893
				c-18.156-4.639-35.546-11.882-51.627-21.504l-14.381,6.173C178.976,436.481,192.531,441.623,206.531,445.206z"/>
			<path style="fill:#FFFFFF;" d="M267.8,7.854c-4.247-0.213-8.514-0.32-12.8-0.322c-8.722-0.018-17.439,0.438-26.113,1.365
				L206.531,64.79c-14,3.583-27.555,8.726-40.408,15.332l14.381,6.172c16.082-9.621,33.471-16.864,51.627-21.504l22.356-55.893
				C258.902,8.416,263.341,8.077,267.8,7.854z"/>
			<path style="fill:#FFFFFF;" d="M369.477,80.121c3.807,1.95,7.561,3.99,11.219,6.172l38.417-16.49
				c-2.809-2.498-5.644-4.965-8.55-7.318L369.477,80.121z"/>
		</g>
	</g>
	<g>
		<path style="fill:#428DFF;" d="M256,93.865c-89.544,0-162.133,72.59-162.133,162.133S166.456,418.131,256,418.131
			s162.133-72.59,162.133-162.133C418.032,166.496,345.502,93.966,256,93.865z M256,401.065
			c-80.118,0-145.067-64.949-145.067-145.067S175.882,110.931,256,110.931s145.067,64.949,145.067,145.067
			C400.977,336.079,336.081,400.975,256,401.065z"/>
		<path style="fill:#428DFF;" d="M332.8,170.665H179.2c-14.132,0.015-25.585,11.468-25.6,25.6v102.4
			c0.015,14.132,11.468,25.585,25.6,25.6v20.212c-0.036,5.658,3.371,10.77,8.608,12.913c1.638,0.667,3.39,1.011,5.158,1.012
			c3.559,0.019,6.975-1.4,9.475-3.933l31.4-30.204H332.8c14.132-0.015,25.585-11.468,25.6-25.6v-102.4
			C358.385,182.133,346.932,170.68,332.8,170.665z M341.333,298.665c-0.005,4.711-3.822,8.529-8.533,8.533H230.4
			c-2.206,0-4.327,0.854-5.917,2.383l-28.217,27.15v-21c0.001-2.263-0.898-4.434-2.499-6.035c-1.6-1.6-3.771-2.499-6.035-2.499
			H179.2c-4.711-0.005-8.529-3.822-8.533-8.533v-102.4c0.005-4.711,3.822-8.529,8.533-8.533h153.6
			c4.711,0.005,8.529,3.822,8.533,8.533V298.665z"/>
		<path style="fill:#428DFF;" d="M256,204.798c-2.263-0.001-4.434,0.898-6.035,2.499c-1.6,1.6-2.499,3.771-2.499,6.035v34.133
			c0,4.713,3.821,8.533,8.533,8.533c4.713,0,8.533-3.821,8.533-8.533v-34.133c0.001-2.263-0.898-4.434-2.499-6.035
			C260.434,205.696,258.263,204.797,256,204.798z"/>
		<path style="fill:#428DFF;" d="M505.275,221.965l-51.942-20.8c-4.462-16-10.865-31.393-19.067-45.837l22.059-51.525
			c1.241-2.899,0.783-6.246-1.192-8.704C443.756,81.055,430.942,68.24,416.9,56.86c-2.456-1.976-5.803-2.434-8.7-1.192
			l-51.525,22.063c-14.446-8.201-29.841-14.604-45.842-19.067L290.042,6.727c-1.173-2.927-3.864-4.97-7-5.313
			c-17.979-1.883-36.105-1.883-54.083,0c-3.135,0.343-5.827,2.385-7,5.312l-20.792,51.938
			c-16.001,4.463-31.396,10.866-45.842,19.067L103.8,55.669c-2.898-1.236-6.241-0.778-8.7,1.192
			C81.056,68.237,68.241,81.053,56.867,95.098c-1.975,2.458-2.433,5.805-1.192,8.704l22.059,51.525
			c-8.202,14.444-14.605,29.838-19.067,45.837l-51.942,20.8c-2.926,1.172-4.967,3.862-5.308,6.996
			c-1.889,17.976-1.889,36.1,0,54.075c0.341,3.133,2.382,5.823,5.308,6.996l51.942,20.8c4.462,16,10.865,31.393,19.067,45.837
			l-22.059,51.525c-1.241,2.899-0.783,6.246,1.192,8.704c11.378,14.043,24.192,26.859,38.233,38.238
			c2.456,1.976,5.803,2.434,8.7,1.192l51.525-22.062c14.446,8.201,29.841,14.604,45.842,19.066l20.792,51.938
			c1.173,2.927,3.865,4.97,7,5.312c17.978,1.889,36.105,1.889,54.083,0c3.135-0.343,5.827-2.385,7-5.312l20.792-51.938
			c16.001-4.463,31.396-10.866,45.842-19.067l51.525,22.062c2.897,1.245,6.245,0.786,8.7-1.192
			c14.044-11.376,26.859-24.192,38.233-38.238c1.975-2.458,2.433-5.805,1.192-8.704l-22.059-51.525
			c8.202-14.444,14.605-29.838,19.067-45.837l51.942-20.8c2.926-1.172,4.967-3.862,5.308-6.996c1.889-17.976,1.889-36.1,0-54.075
			C510.242,225.827,508.201,223.137,505.275,221.965z M494.108,276.119l-51.092,20.458c-2.526,1.014-4.417,3.171-5.092,5.808
			c-4.441,17.345-11.354,33.961-20.525,49.337c-1.393,2.346-1.582,5.217-0.508,7.725l21.7,50.687
			c-4.208,4.992-8.783,9.958-13.642,14.813c-4.883,4.883-9.85,9.458-14.808,13.646L359.45,416.89
			c-2.509-1.072-5.379-0.881-7.725,0.513c-15.377,9.167-31.991,16.078-49.333,20.521c-2.641,0.673-4.802,2.566-5.817,5.096
			l-20.45,51.088c-13.394,1.092-26.856,1.092-40.25,0l-20.45-51.088c-1.014-2.53-3.176-4.423-5.817-5.096
			c-17.342-4.443-33.956-11.354-49.333-20.521c-2.346-1.394-5.216-1.584-7.725-0.513l-50.692,21.705
			c-4.958-4.187-9.925-8.763-14.808-13.65c-4.858-4.85-9.433-9.817-13.642-14.809l21.7-50.688c1.074-2.508,0.885-5.379-0.508-7.725
			c-9.172-15.377-16.084-31.993-20.525-49.338c-0.674-2.637-2.566-4.795-5.092-5.808l-51.092-20.458
			c-0.55-6.479-0.825-13.221-0.825-20.12s0.275-13.642,0.825-20.121l51.092-20.458c2.526-1.014,4.417-3.171,5.092-5.808
			c4.441-17.345,11.354-33.961,20.525-49.337c1.393-2.346,1.582-5.217,0.508-7.725l-21.7-50.688
			c4.208-4.992,8.783-9.958,13.642-14.813c4.883-4.883,9.85-9.458,14.808-13.646l50.692,21.704c2.51,1.066,5.378,0.875,7.725-0.513
			c15.377-9.167,31.991-16.078,49.333-20.521c2.641-0.673,4.802-2.566,5.817-5.096l20.45-51.088c13.394-1.092,26.856-1.092,40.25,0
			l20.45,51.088c1.014,2.53,3.176,4.423,5.817,5.096c17.342,4.443,33.956,11.354,49.333,20.521c2.348,1.388,5.215,1.578,7.725,0.513
			l50.692-21.704c4.958,4.187,9.925,8.763,14.808,13.65c4.858,4.85,9.433,9.817,13.642,14.808l-21.7,50.687
			c-1.074,2.509-0.885,5.379,0.508,7.725c9.172,15.377,16.084,31.993,20.525,49.338c0.674,2.637,2.566,4.795,5.092,5.808
			l51.092,20.458c0.55,6.479,0.825,13.221,0.825,20.12S494.658,269.64,494.108,276.119z"/>
		<path style="fill:#428DFF;" d="M260.775,274.515c-0.475-0.324-0.99-0.583-1.533-0.771c-0.483-0.244-1-0.416-1.533-0.509
			c-1.663-0.349-3.393-0.171-4.95,0.508c-1.045,0.413-2.001,1.023-2.817,1.796c-3.3,3.365-3.3,8.752,0,12.117
			c0.817,0.771,1.773,1.379,2.817,1.792c1.026,0.438,2.127,0.67,3.242,0.683c0.573-0.02,1.143-0.077,1.708-0.171
			c0.533-0.096,1.05-0.269,1.533-0.513c0.543-0.188,1.059-0.447,1.533-0.771c0.449-0.313,0.878-0.654,1.284-1.021
			c3.3-3.365,3.3-8.752,0-12.117C261.653,275.172,261.224,274.829,260.775,274.515z"/>
	</g>
</g>
<g>
</g>
<g>
</g>
<g>
</g>
<g>
</g>
<g>
</g>
<g>
</g>
<g>
</g>
<g>
</g>
<g>
</g>
<g>
</g>
<g>
</g>
<g>
</g>
<g>
</g>
<g>
</g>
<g>
</g>
</svg>
