<?xml version="1.0" encoding="iso-8859-1"?>
<!-- Generator: Adobe Illustrator 19.0.0, SVG Export Plug-In . SVG Version: 6.00 Build 0)  -->
<svg version="1.1" id="Capa_1" xmlns="http://www.w3.org/2000/svg" xmlns:xlink="http://www.w3.org/1999/xlink" x="0px" y="0px"
	 viewBox="0 0 512.005 512.005" style="enable-background:new 0 0 512.005 512.005;" xml:space="preserve">
<g transform="translate(0 -1)">
	<g transform="translate(1 1)">
		<rect id="SVGCleanerId_0" x="186.736" y="418.139" style="fill:#A4C2F7;" width="136.533" height="68.267"/>
		<rect id="SVGCleanerId_1" x="186.736" y="418.139" style="fill:#D4E1F4;" width="110.933" height="68.267"/>
		<path id="SVGCleanerId_2" style="fill:#A4C2F7;" d="M502.469,41.332v361.079c-0.39,18.473-15.66,33.143-34.133,32.794H41.669
			c-18.473,0.349-33.743-14.322-34.133-32.794V41.332C7.927,22.86,23.196,8.19,41.669,8.539h426.667
			C486.809,8.19,502.079,22.86,502.469,41.332z"/>
		<path style="fill:#E3E7F2;" d="M476.869,41.332v361.079c-0.39,18.473-15.66,33.143-34.133,32.794H41.669
			c-18.473,0.349-33.743-14.322-34.133-32.794V41.332C7.927,22.86,23.196,8.19,41.669,8.539h401.067
			C461.209,8.19,476.479,22.86,476.869,41.332z"/>
		<path id="SVGCleanerId_3" style="fill:#7FABFA;" d="M391.536,494.939v8.533H118.469l0-8.533
			c-0.009-6.792,2.685-13.309,7.488-18.112c4.803-4.803,11.32-7.497,18.112-7.488h221.867c6.792-0.009,13.309,2.685,18.112,7.488
			C388.851,481.63,391.545,488.146,391.536,494.939z"/>
		<path id="SVGCleanerId_4" style="fill:#A4C2F7;" d="M365.936,494.939v8.533H118.469l0-8.533
			c-0.009-6.792,2.685-13.309,7.488-18.112c4.803-4.803,11.32-7.497,18.112-7.488h196.267c6.792-0.009,13.309,2.685,18.112,7.488
			C363.251,481.63,365.945,488.146,365.936,494.939z"/>
		<path id="SVGCleanerId_5" style="fill:#7FABFA;" d="M502.469,366.939v35.584c-0.423,18.441-15.691,33.061-34.133,32.683H41.669
			c-18.442,0.378-33.711-14.242-34.133-32.683v-35.584H502.469z"/>
		<path id="SVGCleanerId_6" style="fill:#A4C2F7;" d="M476.869,366.939v35.584c-0.423,18.441-15.691,33.061-34.133,32.683H41.669
			c-18.442,0.378-33.711-14.242-34.133-32.683v-35.584H476.869z"/>
		<g>
			<rect id="SVGCleanerId_0_1_" x="186.736" y="418.139" style="fill:#A4C2F7;" width="136.533" height="68.267"/>
		</g>
		<g>
			<rect id="SVGCleanerId_1_1_" x="186.736" y="418.139" style="fill:#D4E1F4;" width="110.933" height="68.267"/>
		</g>
		<g>
			<path id="SVGCleanerId_2_1_" style="fill:#A4C2F7;" d="M502.469,41.332v361.079c-0.39,18.473-15.66,33.143-34.133,32.794H41.669
				c-18.473,0.349-33.743-14.322-34.133-32.794V41.332C7.927,22.86,23.196,8.19,41.669,8.539h426.667
				C486.809,8.19,502.079,22.86,502.469,41.332z"/>
		</g>
		
			<linearGradient id="SVGID_1_" gradientUnits="userSpaceOnUse" x1="-49.8493" y1="652.6816" x2="-48.9365" y2="651.6776" gradientTransform="matrix(469.3333 0 0 -426.6789 23423.9473 278493.125)">
			<stop  offset="0" style="stop-color:#D3DFF2"/>
			<stop  offset="0.1717" style="stop-color:#D3DFF2"/>
			<stop  offset="0.2" style="stop-color:#D3DFF2"/>
			<stop  offset="0.2002" style="stop-color:#DAE2F2"/>
			<stop  offset="0.2007" style="stop-color:#EBEAF2"/>
			<stop  offset="0.2014" style="stop-color:#F6EFF2"/>
			<stop  offset="0.2023" style="stop-color:#FDF2F2"/>
			<stop  offset="0.205" style="stop-color:#FFF3F2"/>
			<stop  offset="0.2522" style="stop-color:#FFF3F2"/>
			<stop  offset="0.26" style="stop-color:#FFF3F2"/>
			<stop  offset="0.26" style="stop-color:#D3DFF2"/>
			<stop  offset="0.3974" style="stop-color:#D3DFF2"/>
			<stop  offset="0.42" style="stop-color:#D3DFF2"/>
			<stop  offset="0.4202" style="stop-color:#DAE2F2"/>
			<stop  offset="0.4207" style="stop-color:#EBEAF2"/>
			<stop  offset="0.4214" style="stop-color:#F6EFF2"/>
			<stop  offset="0.4223" style="stop-color:#FDF2F2"/>
			<stop  offset="0.425" style="stop-color:#FFF3F2"/>
			<stop  offset="0.4894" style="stop-color:#FFF3F2"/>
			<stop  offset="0.5" style="stop-color:#FFF3F2"/>
			<stop  offset="0.5" style="stop-color:#F8F0F2"/>
			<stop  offset="0.5001" style="stop-color:#E7E8F2"/>
			<stop  offset="0.5003" style="stop-color:#DCE3F2"/>
			<stop  offset="0.5005" style="stop-color:#D5E0F2"/>
			<stop  offset="0.501" style="stop-color:#D3DFF2"/>
			<stop  offset="0.7062" style="stop-color:#D3DFF2"/>
			<stop  offset="0.74" style="stop-color:#D3DFF2"/>
			<stop  offset="0.741" style="stop-color:#FFF3F2"/>
			<stop  offset="0.8346" style="stop-color:#FFF3F2"/>
			<stop  offset="0.85" style="stop-color:#FFF3F2"/>
			<stop  offset="0.851" style="stop-color:#D3DFF2"/>
		</linearGradient>
		<path style="fill:url(#SVGID_1_);" d="M476.869,41.332v361.079c-0.39,18.473-15.66,33.143-34.133,32.794H41.669
			c-18.473,0.349-33.743-14.322-34.133-32.794V41.332C7.927,22.86,23.196,8.19,41.669,8.539h401.067
			C461.209,8.19,476.479,22.86,476.869,41.332z"/>
		<g>
			<path id="SVGCleanerId_3_1_" style="fill:#7FABFA;" d="M391.536,494.939v8.533H118.469l0-8.533
				c-0.009-6.792,2.685-13.309,7.488-18.112c4.803-4.803,11.32-7.497,18.112-7.488h221.867c6.792-0.009,13.309,2.685,18.112,7.488
				C388.851,481.63,391.545,488.146,391.536,494.939z"/>
		</g>
		<g>
			<path id="SVGCleanerId_4_1_" style="fill:#A4C2F7;" d="M365.936,494.939v8.533H118.469l0-8.533
				c-0.009-6.792,2.685-13.309,7.488-18.112c4.803-4.803,11.32-7.497,18.112-7.488h196.267c6.792-0.009,13.309,2.685,18.112,7.488
				C363.251,481.63,365.945,488.146,365.936,494.939z"/>
		</g>
		<g>
			<path id="SVGCleanerId_5_1_" style="fill:#7FABFA;" d="M502.469,366.939v35.584c-0.423,18.441-15.691,33.061-34.133,32.683
				H41.669c-18.442,0.378-33.711-14.242-34.133-32.683v-35.584H502.469z"/>
		</g>
		<g>
			<path id="SVGCleanerId_6_1_" style="fill:#A4C2F7;" d="M476.869,366.939v35.584c-0.423,18.441-15.691,33.061-34.133,32.683
				H41.669c-18.442,0.378-33.711-14.242-34.133-32.683v-35.584H476.869z"/>
		</g>
		<path style="fill:#A4C2F7;" d="M255.003,352.005l0,14.933H41.669l0-15.957c-0.038-14.361,7.7-27.617,20.224-34.645l43.264-23.979
			c5.749-3.159,9.292-9.227,9.216-15.787v-11.349c-0.01-1.04-0.338-2.052-0.939-2.901c-9.455-11.131-16.461-24.128-20.565-38.144
			v-68.949c0,0-3.157-37.632,42.667-43.52c4.246-0.532,8.521-0.788,12.8-0.768c59.136,0,55.467,44.288,55.467,44.288v68.949
			c-4.104,14.016-11.11,27.013-20.565,38.144c-0.601,0.849-0.929,1.861-0.939,2.901v11.861c-0.066,6.737,3.662,12.939,9.643,16.043
			l41.557,23.467C246.737,323.434,255.038,337.104,255.003,352.005z"/>
		<path style="fill:#E3E7F2;" d="M229.403,352.005l0,14.933H41.669l0-15.957c-0.038-14.361,7.7-27.617,20.224-34.645l43.264-23.979
			c5.749-3.159,9.292-9.227,9.216-15.787v-11.349c-0.01-1.04-0.338-2.052-0.939-2.901c-9.455-11.131-16.461-24.128-20.565-38.144
			v-68.949c0,0-3.157-37.632,42.667-43.52c45.824,5.888,42.667,43.52,42.667,43.52v68.949c-4.104,14.016-11.11,27.013-20.565,38.144
			c-0.601,0.849-0.929,1.861-0.939,2.901v11.861c-0.066,6.737,3.662,12.939,9.643,16.043l41.557,23.467
			C221.137,323.434,229.438,337.104,229.403,352.005z"/>
		<g>
			<rect x="58.736" y="162.139" style="fill:#A4C2F7;" width="34.133" height="51.2"/>
			<rect x="203.803" y="162.139" style="fill:#A4C2F7;" width="34.133" height="51.2"/>
			<path style="fill:#A4C2F7;" d="M468.336,68.272v102.4c-0.028,9.414-7.652,17.039-17.067,17.067h-102.4l-33.877,41.131
				c-1.498,1.5-3.762,1.928-5.705,1.079c-1.943-0.849-3.167-2.801-3.084-4.919v-37.291h-8.533
				c-9.414-0.028-17.039-7.652-17.067-17.067v-102.4c0.027-9.414,7.652-17.039,17.067-17.067h153.6
				C460.684,51.233,468.309,58.858,468.336,68.272z"/>
		</g>
		<path style="fill:#E3E7F2;" d="M442.736,68.272v102.4c-0.028,9.414-7.652,17.039-17.067,17.067h-102.4l-17.067,20.736v-20.736
			h-8.533c-9.414-0.028-17.039-7.652-17.067-17.067v-102.4c0.027-9.414,7.652-17.039,17.067-17.067h128
			C435.084,51.233,442.709,58.858,442.736,68.272z"/>
		<g>
			<path style="fill:#FFFFFF;" d="M41.669,435.205h25.6c-18.442,0.378-33.711-14.242-34.133-32.683V41.332
				C33.527,22.86,48.796,8.19,67.269,8.539h-25.6C23.196,8.19,7.927,22.86,7.536,41.332v361.19
				C7.959,420.964,23.227,435.583,41.669,435.205z"/>
			<rect x="186.736" y="435.205" style="fill:#FFFFFF;" width="25.6" height="34.133"/>
			<path style="fill:#FFFFFF;" d="M118.469,494.939l0,8.533h25.6v-8.533c-0.009-6.792,2.685-13.309,7.488-18.112
				c4.803-4.803,11.32-7.497,18.112-7.488h-25.6c-6.792-0.009-13.309,2.685-18.112,7.488
				C121.154,481.63,118.46,488.146,118.469,494.939z"/>
		</g>
	</g>
	<g>
		<polygon style="fill:#FFFFFF;" points="17.069,42.221 17.069,153.155 17.069,403.523 0.003,403.523 0.003,153.155 0.003,42.221 		
			"/>
		<g>
			<path style="fill:#428DFF;" d="M8.536,119.021c2.259-0.034,4.422-0.918,6.059-2.475c3.3-3.365,3.3-8.752,0-12.117l-1.279-1.025
				c-0.476-0.324-0.993-0.583-1.538-0.771c-0.484-0.246-1.003-0.417-1.538-0.509c-0.563-0.096-1.133-0.153-1.704-0.171
				c-2.259,0.031-4.423,0.915-6.059,2.475c-3.221,3.397-3.221,8.72,0,12.117c0.815,0.77,1.77,1.379,2.813,1.792
				C6.317,118.776,7.42,119.008,8.536,119.021z"/>
			<path style="fill:#428DFF;" d="M469.336,1.005H42.669C19.52,0.64,0.438,19.073,0.003,42.221v34.133
				c0,4.713,3.821,8.533,8.533,8.533s8.533-3.82,8.533-8.533V42.222c0.427-13.726,11.872-24.523,25.6-24.15h426.667
				c13.728-0.373,25.173,10.424,25.6,24.15v317.183h-230.4v-6.433c0.135-17.98-9.84-34.511-25.808-42.775l-41.867-23.65
				c-3.143-1.64-5.096-4.909-5.05-8.454v-10.638l0.358-0.467c9.752-11.667,16.898-25.284,20.958-39.937
				c0.14-0.618,0.21-1.25,0.208-1.884l-0.001-2.295h25.601c2.263,0.001,4.434-0.898,6.035-2.499c1.6-1.6,2.499-3.771,2.499-6.035
				v-51.2c-0.059-51.817-42.05-93.808-93.867-93.867h-8.533c-51.817,0.059-93.808,42.05-93.867,93.867v68.267
				c0.015,14.132,11.468,25.585,25.6,25.6h22.429c2.841,4.238,5.487,7.68,7.271,9.983l0.358,10.612
				c0.038,3.436-1.807,6.618-4.808,8.292l-43.233,23.963c-15.29,8.498-24.747,24.641-24.683,42.133v7.417H17.069V144.621
				c0-4.713-3.821-8.533-8.533-8.533s-8.533,3.821-8.533,8.533v258.901c0.434,23.149,19.517,41.582,42.667,41.216h136.533v17.067
				h-34.133c-18.843,0.02-34.113,15.29-34.133,34.133v8.533c-0.001,2.263,0.898,4.434,2.499,6.035c1.6,1.6,3.771,2.499,6.035,2.499
				h273.067c2.263,0.001,4.434-0.898,6.035-2.499c1.6-1.6,2.499-3.771,2.499-6.035v-8.533c-0.02-18.843-15.29-34.113-34.133-34.133
				h-34.133v-17.067h136.533c23.15,0.366,42.232-18.068,42.667-41.217v-361.3C511.568,19.073,492.486,0.639,469.336,1.005z
				 M230.403,205.805h-17.067v-34.133h17.067V205.805z M145.069,86.339h8.533c39.087,0.055,71.913,29.426,76.296,68.267h-16.545
				c-0.065-12.155-4.593-23.862-12.725-32.896c-11.192-12.146-28.45-18.304-51.292-18.304s-40.1,6.158-51.292,18.304
				c-8.139,9.031-12.675,20.739-12.742,32.896H68.773C73.156,115.765,105.982,86.393,145.069,86.339z M68.269,171.672h17.067v34.133
				H68.269V171.672z M76.803,239.939c-4.711-0.005-8.529-3.822-8.533-8.533v-8.533h17.067v2.295
				c-0.002,0.634,0.068,1.265,0.208,1.883c1.024,4.417,2.449,8.731,4.258,12.888H76.803z M51.203,351.989
				c-0.06-11.279,6.019-21.698,15.867-27.196l43.208-23.95c8.459-4.667,13.694-13.581,13.65-23.242v-11.35
				c0.015-2.913-0.925-5.751-2.675-8.079l-0.9-1.167h24.717c4.713,0,8.533-3.821,8.533-8.533s-3.821-8.533-8.533-8.533h-36.262
				c-2.805-4.958-4.958-10.257-6.404-15.767l-0.004-9.816l0.004-0.018v-51.2l-0.023-0.11l-0.002-7.415
				c-0.139-8.29,2.851-16.329,8.375-22.512c7.842-8.379,20.825-12.629,38.583-12.629s30.742,4.25,38.583,12.629
				c5.648,6.359,8.637,14.645,8.35,23.146v67.929c-3.64,11.851-9.619,22.853-17.583,32.354l-1.25,1.625
				c-1.76,2.331-2.706,5.175-2.692,8.096v11.842c-0.091,9.835,5.322,18.897,14.025,23.479l41.883,23.658
				c10.398,5.326,16.904,16.059,16.817,27.742l0.001,6.433H51.202L51.203,351.989z M384.003,495.939h-256
				c0.011-9.421,7.645-17.056,17.067-17.067h221.867C376.357,478.883,383.992,486.518,384.003,495.939z M315.736,461.805H196.269
				v-17.067h119.467V461.805z M469.336,427.672H42.669c-13.728,0.373-25.173-10.424-25.6-24.15v-27.05h477.867v27.05
				C494.509,417.248,483.064,428.045,469.336,427.672z"/>
			<path style="fill:#428DFF;" d="M307.278,238.93c1.587,0.649,3.285,0.985,5,0.987c3.924-0.065,7.648-1.74,10.3-4.634
				l31.317-38.012h98.375c14.132-0.015,25.585-11.468,25.6-25.6v-102.4c-0.015-14.132-11.468-25.585-25.6-25.6h-153.6
				c-14.132,0.015-25.585,11.468-25.6,25.6v102.4c0.015,14.132,11.468,25.585,25.6,25.6v28.746
				C298.633,231.676,302.041,236.788,307.278,238.93z M290.136,171.672v-102.4c0.005-4.711,3.822-8.529,8.533-8.533h153.6
				c4.711,0.005,8.529,3.822,8.533,8.533v102.4c-0.005,4.711-3.822,8.529-8.533,8.533h-102.4c-2.549,0-4.964,1.14-6.583,3.108
				l-27.55,33.479v-28.054c0.001-2.263-0.898-4.434-2.499-6.035c-1.6-1.6-3.771-2.499-6.035-2.499h-8.533
				C293.958,180.201,290.141,176.383,290.136,171.672z"/>
			<path style="fill:#428DFF;" d="M375.469,129.005c2.263,0.001,4.434-0.898,6.035-2.499c1.6-1.6,2.499-3.771,2.499-6.035V86.339
				c0-4.713-3.82-8.533-8.533-8.533s-8.533,3.82-8.533,8.533v34.133c-0.001,2.263,0.898,4.434,2.499,6.035
				C371.035,128.107,373.206,129.006,375.469,129.005z"/>
			<path style="fill:#428DFF;" d="M372.228,162.455c1.025,0.437,2.127,0.67,3.242,0.683c0.573-0.02,1.143-0.077,1.708-0.171
				c0.533-0.096,1.049-0.269,1.533-0.512c0.543-0.188,1.059-0.447,1.533-0.771c0.449-0.313,0.878-0.654,1.284-1.021
				c3.3-3.365,3.3-8.752,0-12.117c-0.406-0.368-0.835-0.71-1.283-1.025c-0.475-0.324-0.99-0.583-1.533-0.771
				c-0.483-0.245-1-0.416-1.534-0.509c-1.663-0.349-3.393-0.171-4.95,0.508c-1.045,0.413-2.001,1.023-2.817,1.796
				c-3.3,3.365-3.3,8.752,0,12.117C370.228,161.434,371.184,162.042,372.228,162.455z"/>
		</g>
	</g>
</g>
<g>
</g>
<g>
</g>
<g>
</g>
<g>
</g>
<g>
</g>
<g>
</g>
<g>
</g>
<g>
</g>
<g>
</g>
<g>
</g>
<g>
</g>
<g>
</g>
<g>
</g>
<g>
</g>
<g>
</g>
</svg>
