<?xml version="1.0" encoding="iso-8859-1"?>
<!-- Generator: Adobe Illustrator 19.0.0, SVG Export Plug-In . SVG Version: 6.00 Build 0)  -->
<svg version="1.1" id="Capa_1" xmlns="http://www.w3.org/2000/svg" xmlns:xlink="http://www.w3.org/1999/xlink" x="0px" y="0px"
	 viewBox="0 0 512.005 512.005" style="enable-background:new 0 0 512.005 512.005;" xml:space="preserve">
<g transform="translate(0 -1)">
	<g transform="translate(1 1)">
		<rect x="186.736" y="418.139" style="fill:#A4C2F7;" width="136.533" height="68.267"/>
		<rect x="186.736" y="418.139" style="fill:#D4E1F4;" width="110.933" height="68.267"/>
		<path style="fill:#A4C2F7;" d="M502.469,41.332v361.079c-0.39,18.473-15.66,33.143-34.133,32.794H41.669
			c-18.473,0.349-33.743-14.322-34.133-32.794V41.332C7.927,22.86,23.196,8.19,41.669,8.539h426.667
			C486.809,8.19,502.079,22.86,502.469,41.332z"/>
		
			<linearGradient id="SVGID_1_" gradientUnits="userSpaceOnUse" x1="-49.8493" y1="652.6816" x2="-48.9365" y2="651.6776" gradientTransform="matrix(469.3333 0 0 -426.6789 23423.9473 278493.125)">
			<stop  offset="0" style="stop-color:#D3DFF2"/>
			<stop  offset="0.1717" style="stop-color:#D3DFF2"/>
			<stop  offset="0.2" style="stop-color:#D3DFF2"/>
			<stop  offset="0.2002" style="stop-color:#DAE2F2"/>
			<stop  offset="0.2007" style="stop-color:#EBEAF2"/>
			<stop  offset="0.2014" style="stop-color:#F6EFF2"/>
			<stop  offset="0.2023" style="stop-color:#FDF2F2"/>
			<stop  offset="0.205" style="stop-color:#FFF3F2"/>
			<stop  offset="0.2522" style="stop-color:#FFF3F2"/>
			<stop  offset="0.26" style="stop-color:#FFF3F2"/>
			<stop  offset="0.26" style="stop-color:#D3DFF2"/>
			<stop  offset="0.3974" style="stop-color:#D3DFF2"/>
			<stop  offset="0.42" style="stop-color:#D3DFF2"/>
			<stop  offset="0.4202" style="stop-color:#DAE2F2"/>
			<stop  offset="0.4207" style="stop-color:#EBEAF2"/>
			<stop  offset="0.4214" style="stop-color:#F6EFF2"/>
			<stop  offset="0.4223" style="stop-color:#FDF2F2"/>
			<stop  offset="0.425" style="stop-color:#FFF3F2"/>
			<stop  offset="0.4894" style="stop-color:#FFF3F2"/>
			<stop  offset="0.5" style="stop-color:#FFF3F2"/>
			<stop  offset="0.5" style="stop-color:#F8F0F2"/>
			<stop  offset="0.5001" style="stop-color:#E7E8F2"/>
			<stop  offset="0.5003" style="stop-color:#DCE3F2"/>
			<stop  offset="0.5005" style="stop-color:#D5E0F2"/>
			<stop  offset="0.501" style="stop-color:#D3DFF2"/>
			<stop  offset="0.7062" style="stop-color:#D3DFF2"/>
			<stop  offset="0.74" style="stop-color:#D3DFF2"/>
			<stop  offset="0.741" style="stop-color:#FFF3F2"/>
			<stop  offset="0.8346" style="stop-color:#FFF3F2"/>
			<stop  offset="0.85" style="stop-color:#FFF3F2"/>
			<stop  offset="0.851" style="stop-color:#D3DFF2"/>
		</linearGradient>
		<path style="fill:url(#SVGID_1_);" d="M476.869,41.332v361.079c-0.39,18.473-15.66,33.143-34.133,32.794H41.669
			c-18.473,0.349-33.743-14.322-34.133-32.794V41.332C7.927,22.86,23.196,8.19,41.669,8.539h401.067
			C461.209,8.19,476.479,22.86,476.869,41.332z"/>
		<path style="fill:#7FABFA;" d="M391.536,494.939v8.533H118.469l0-8.533c-0.009-6.792,2.685-13.309,7.488-18.112
			c4.803-4.803,11.32-7.497,18.112-7.488h221.867c6.792-0.009,13.309,2.685,18.112,7.488
			C388.851,481.63,391.545,488.146,391.536,494.939z"/>
		<path style="fill:#A4C2F7;" d="M365.936,494.939v8.533H118.469l0-8.533c-0.009-6.792,2.685-13.309,7.488-18.112
			c4.803-4.803,11.32-7.497,18.112-7.488h196.267c6.792-0.009,13.309,2.685,18.112,7.488
			C363.251,481.63,365.945,488.146,365.936,494.939z"/>
		<path style="fill:#7FABFA;" d="M502.469,366.939v35.584c-0.423,18.441-15.691,33.061-34.133,32.683H41.669
			c-18.442,0.378-33.711-14.242-34.133-32.683v-35.584H502.469z"/>
		<path style="fill:#A4C2F7;" d="M476.869,366.939v35.584c-0.423,18.441-15.691,33.061-34.133,32.683H41.669
			c-18.442,0.378-33.711-14.242-34.133-32.683v-35.584H476.869z"/>
		<path style="fill:#F5F5F5;" d="M383.003,162.124l0.014,16.228c0.215,7.509-4.354,14.328-11.381,16.983
			c-5.228,1.816-11.011,0.996-15.529-2.201c-4.517-3.197-7.213-8.379-7.238-13.914l-0.015-17.067L383.003,162.124z"/>
		<path style="fill:#E3E7F2;" d="M416.486,85.625c2.965,18.147-4.045,36.489-18.359,48.032c-4.116,3.24-6.54,8.173-6.591,13.411
			v6.552c0,4.713-3.821,8.533-8.533,8.533h-34.133c-4.713,0-8.533-3.82-8.533-8.533v-6.573c-0.011-5.161-2.371-10.035-6.411-13.245
			c-17.812-14.292-24.004-38.653-15.177-59.716s30.537-33.731,53.217-31.053C394.644,45.711,412.807,63.087,416.486,85.625
			L416.486,85.625z"/>
		<path style="fill:#A4C2F7;" d="M255.003,352.005l0,14.933H41.669l0-15.957c-0.038-14.361,7.7-27.617,20.224-34.645l43.264-23.979
			c5.749-3.159,9.292-9.227,9.216-15.787v-11.349c-0.01-1.04-0.338-2.052-0.939-2.901c-9.455-11.131-16.461-24.128-20.565-38.144
			v-68.949c0,0-3.157-37.632,42.667-43.52c4.246-0.532,8.521-0.788,12.8-0.768c59.136,0,55.467,44.288,55.467,44.288v68.949
			c-4.104,14.016-11.11,27.013-20.565,38.144c-0.601,0.849-0.929,1.861-0.939,2.901v11.861c-0.066,6.737,3.662,12.939,9.643,16.043
			l41.557,23.467C246.737,323.434,255.038,337.104,255.003,352.005z"/>
		<path style="fill:#E3E7F2;" d="M229.403,352.005l0,14.933H41.669l0-15.957c-0.038-14.361,7.7-27.617,20.224-34.645l43.264-23.979
			c5.749-3.159,9.292-9.227,9.216-15.787v-11.349c-0.01-1.04-0.338-2.052-0.939-2.901c-9.455-11.131-16.461-24.128-20.565-38.144
			v-68.949c0,0-3.157-37.632,42.667-43.52c45.824,5.888,42.667,43.52,42.667,43.52v68.949c-4.104,14.016-11.11,27.013-20.565,38.144
			c-0.601,0.849-0.929,1.861-0.939,2.901v11.861c-0.066,6.737,3.662,12.939,9.643,16.043l41.557,23.467
			C221.137,323.434,229.438,337.104,229.403,352.005z"/>
		<g>
			<rect x="58.736" y="162.139" style="fill:#A4C2F7;" width="34.133" height="51.2"/>
			<rect x="203.803" y="162.139" style="fill:#A4C2F7;" width="34.133" height="51.2"/>
		</g>
		<g>
			<rect x="186.736" y="435.205" style="fill:#FFFFFF;" width="25.6" height="34.133"/>
			<path style="fill:#FFFFFF;" d="M118.469,494.939l0,8.533h25.6v-8.533c-0.009-6.792,2.685-13.309,7.488-18.112
				c4.803-4.803,11.32-7.497,18.112-7.488h-25.6c-6.792-0.009-13.309,2.685-18.112,7.488
				C121.154,481.63,118.46,488.146,118.469,494.939z"/>
			<path style="fill:#FFFFFF;" d="M41.669,435.205h25.6c-18.442,0.378-33.711-14.242-34.133-32.683V41.332
				C33.527,22.86,48.796,8.19,67.269,8.539h-25.6C23.196,8.19,7.927,22.86,7.536,41.332v361.19
				C7.959,420.964,23.227,435.584,41.669,435.205z"/>
		</g>
	</g>
	<g>
		<polygon style="fill:#FFFFFF;" points="17.069,42.221 17.069,153.155 17.069,403.523 0.003,403.523 0.003,153.155 0.003,42.221 		
			"/>
		<g>
			<path style="fill:#428DFF;" d="M8.536,119.021c2.259-0.034,4.422-0.918,6.059-2.475c3.3-3.365,3.3-8.752,0-12.117l-1.279-1.025
				c-0.476-0.324-0.993-0.583-1.538-0.771c-0.484-0.246-1.003-0.417-1.538-0.509c-0.563-0.096-1.133-0.153-1.704-0.171
				c-2.259,0.031-4.423,0.915-6.059,2.475c-3.221,3.397-3.221,8.72,0,12.117c0.815,0.77,1.77,1.379,2.813,1.792
				C6.317,118.776,7.42,119.008,8.536,119.021z"/>
			<path style="fill:#428DFF;" d="M469.336,1.005H42.669C19.52,0.64,0.438,19.073,0.003,42.221v34.133
				c0,4.713,3.821,8.533,8.533,8.533s8.533-3.82,8.533-8.533V42.222c0.427-13.726,11.872-24.523,25.6-24.15h426.667
				c13.728-0.373,25.173,10.424,25.6,24.15v317.183h-230.4v-6.433c0.135-17.98-9.84-34.511-25.808-42.775l-41.867-23.65
				c-3.143-1.64-5.096-4.909-5.05-8.454v-10.638l0.358-0.467c9.752-11.667,16.898-25.284,20.958-39.937
				c0.14-0.618,0.21-1.25,0.208-1.884l-0.001-2.295h25.601c2.263,0.001,4.434-0.898,6.035-2.499c1.6-1.6,2.499-3.771,2.499-6.035
				v-51.2c-0.059-51.817-42.05-93.808-93.867-93.867h-8.533c-51.817,0.059-93.808,42.05-93.867,93.867v68.267
				c0.015,14.132,11.468,25.585,25.6,25.6h22.429c2.841,4.238,5.487,7.68,7.271,9.983l0.358,10.612
				c0.038,3.436-1.807,6.618-4.808,8.292l-43.233,23.963c-15.29,8.498-24.747,24.641-24.683,42.133v7.417H17.069V144.621
				c0-4.713-3.821-8.533-8.533-8.533s-8.533,3.821-8.533,8.533v258.901c0.434,23.149,19.517,41.582,42.667,41.216h136.533v17.067
				h-34.133c-18.843,0.02-34.113,15.29-34.133,34.133v8.533c-0.001,2.263,0.898,4.434,2.499,6.035c1.6,1.6,3.771,2.499,6.035,2.499
				h273.067c2.263,0.001,4.434-0.898,6.035-2.499c1.6-1.6,2.499-3.771,2.499-6.035v-8.533c-0.02-18.843-15.29-34.113-34.133-34.133
				h-34.133v-17.067h136.533c23.15,0.366,42.232-18.068,42.667-41.217v-361.3C511.568,19.073,492.486,0.639,469.336,1.005z
				 M230.403,205.805h-17.067v-34.133h17.067V205.805z M145.069,86.339h8.533c39.087,0.055,71.913,29.426,76.297,68.267h-16.546
				c-0.065-12.155-4.594-23.862-12.725-32.896c-11.192-12.146-28.45-18.304-51.292-18.304s-40.1,6.158-51.292,18.304
				c-8.139,9.031-12.674,20.739-12.742,32.896H68.773C73.156,115.765,105.982,86.393,145.069,86.339z M68.269,171.672h17.067v34.133
				H68.269V171.672z M76.803,239.939c-4.711-0.005-8.529-3.822-8.533-8.533v-8.533h17.067v2.295
				c-0.002,0.634,0.068,1.265,0.208,1.883c1.023,4.417,2.449,8.731,4.258,12.888H76.803z M51.203,351.989
				c-0.06-11.279,6.019-21.698,15.867-27.196l43.208-23.95c8.459-4.667,13.694-13.581,13.65-23.242v-11.35
				c0.015-2.913-0.925-5.751-2.675-8.079l-0.9-1.167h24.717c4.713,0,8.533-3.821,8.533-8.533s-3.821-8.533-8.533-8.533h-36.262
				c-2.805-4.958-4.958-10.257-6.404-15.767l-0.004-9.816l0.004-0.018v-51.2l-0.022-0.11l-0.003-7.415
				c-0.139-8.29,2.851-16.329,8.375-22.512c7.842-8.379,20.825-12.629,38.583-12.629s30.742,4.25,38.583,12.629
				c5.648,6.359,8.637,14.645,8.35,23.146v67.929c-3.64,11.851-9.619,22.853-17.583,32.354l-1.25,1.625
				c-1.76,2.331-2.706,5.175-2.692,8.096v11.842c-0.091,9.835,5.322,18.897,14.025,23.479l41.883,23.658
				c10.398,5.326,16.904,16.059,16.817,27.742l0.001,6.433H51.202L51.203,351.989z M384.003,495.939h-256
				c0.011-9.421,7.645-17.056,17.067-17.067h221.867C376.357,478.883,383.992,486.518,384.003,495.939z M315.736,461.805H196.269
				v-17.067h119.467V461.805z M469.336,427.672H42.669c-13.728,0.373-25.173-10.424-25.6-24.15v-27.05h477.867v27.05
				C494.509,417.248,483.064,428.045,469.336,427.672z"/>
			<path style="fill:#428DFF;" d="M367.069,69.301c-4.713-0.005-8.537,3.812-8.542,8.525c-0.005,4.713,3.812,8.537,8.525,8.542
				h0.017c2.262-0.001,4.431,0.898,6.031,2.497c1.599,1.6,2.496,3.77,2.494,6.032c0.007,4.709,3.825,8.523,8.533,8.525h0.009
				c4.712-0.008,8.526-3.83,8.525-8.542C392.654,80.751,381.198,69.301,367.069,69.301L367.069,69.301z"/>
			<path style="fill:#428DFF;" d="M256.003,94.905c0.002,4.711,3.822,8.529,8.533,8.529h0.009l17.067-0.013
				c4.713-0.002,8.531-3.825,8.529-8.538c-0.002-4.713-3.825-8.531-8.538-8.529h-0.009l-17.067,0.013
				C259.817,86.374,256.002,90.195,256.003,94.905z"/>
			<path style="fill:#428DFF;" d="M289.761,57.768l-16.033-5.825c-2.868-1.05-6.078-0.489-8.418,1.473
				c-2.34,1.962-3.454,5.025-2.921,8.032c0.534,3.007,2.633,5.5,5.506,6.537l16.042,5.825c2.87,1.058,6.086,0.499,8.431-1.465
				c2.345-1.964,3.459-5.033,2.921-8.043C294.749,61.29,292.641,58.798,289.761,57.768z"/>
			<path style="fill:#428DFF;" d="M283.978,116.143l-16.033,5.85c-4.427,1.615-6.707,6.514-5.092,10.942
				c1.615,4.428,6.514,6.707,10.942,5.092l16.033-5.85c4.427-1.615,6.707-6.514,5.092-10.942
				C293.304,116.807,288.405,114.527,283.978,116.143z"/>
			<path style="fill:#428DFF;" d="M477.869,94.863c-0.007-4.709-3.825-8.523-8.533-8.525h-0.009l-17.067,0.017
				c-4.713,0.002-8.531,3.825-8.529,8.538c0.002,4.713,3.825,8.531,8.538,8.529h0.009l17.067-0.017
				c2.264-0.001,4.434-0.902,6.033-2.504S477.873,97.127,477.869,94.863z"/>
			<path style="fill:#428DFF;" d="M460.336,51.776l-16.033,5.854c-4.428,1.616-6.707,6.514-5.092,10.942
				c1.616,4.428,6.514,6.707,10.942,5.092l16.033-5.854c2.864-1.045,4.953-3.539,5.48-6.541c0.527-3.003-0.588-6.059-2.925-8.017
				C466.405,51.294,463.201,50.732,460.336,51.776L460.336,51.776z"/>
			<path style="fill:#428DFF;" d="M466.228,121.818l-16.042-5.821c-2.866-1.039-6.068-0.47-8.4,1.492
				c-2.333,1.962-3.441,5.02-2.908,8.021c0.533,3.001,2.626,5.49,5.492,6.529l16.042,5.821c2.868,1.047,6.076,0.482,8.414-1.481
				c2.338-1.963,3.448-5.026,2.912-8.031C471.201,125.342,469.1,122.852,466.228,121.818z"/>
			<path style="fill:#428DFF;" d="M401.069,154.622v-6.554c0.052-2.658,1.309-5.149,3.417-6.771
				c18.675-15.074,26.507-39.866,19.882-62.932s-26.421-39.923-50.248-42.789c-16.969-2.04-33.999,3.28-46.789,14.617
				c-12.79,11.337-20.116,27.605-20.128,44.696c-0.039,18.13,8.208,35.283,22.391,46.575c2.02,1.589,3.202,4.014,3.209,6.583v6.575
				c0.02,6.065,3.267,11.66,8.523,14.686l0.01,10.922c0.032,8.219,3.994,15.927,10.658,20.738c4.339,3.15,9.563,4.845,14.925,4.842
				c2.855-0.006,5.691-0.47,8.4-1.375c10.564-3.76,17.516-13.882,17.234-25.092l-0.01-10.032
				C397.801,166.286,401.05,160.689,401.069,154.622z M369.953,188.235c-2.628,0.957-5.556,0.577-7.853-1.018
				c-2.297-1.595-3.675-4.207-3.697-7.003l-0.009-8.525h17.084l0.009,7.671C375.662,183.18,373.46,186.711,369.953,188.235
				L369.953,188.235z M384.003,148.068v6.521h-0.009l-34.125,0.034v-6.575c0.004-7.755-3.535-15.087-9.609-19.908
				c-14.11-11.321-19.543-30.312-13.557-47.383s22.091-28.509,40.182-28.538c1.749,0,3.496,0.103,5.233,0.308
				c18.758,2.411,33.743,16.784,36.934,35.425c2.526,15.137-3.318,30.457-15.283,40.067
				C387.636,132.87,384.042,140.248,384.003,148.068z"/>
		</g>
	</g>
</g>
<g>
</g>
<g>
</g>
<g>
</g>
<g>
</g>
<g>
</g>
<g>
</g>
<g>
</g>
<g>
</g>
<g>
</g>
<g>
</g>
<g>
</g>
<g>
</g>
<g>
</g>
<g>
</g>
<g>
</g>
</svg>
