<?xml version="1.0" encoding="iso-8859-1"?>
<!-- Generator: Adobe Illustrator 19.0.0, SVG Export Plug-In . SVG Version: 6.00 Build 0)  -->
<svg version="1.1" id="Capa_1" xmlns="http://www.w3.org/2000/svg" xmlns:xlink="http://www.w3.org/1999/xlink" x="0px" y="0px"
	 viewBox="0 0 512.108 512.108" style="enable-background:new 0 0 512.108 512.108;" xml:space="preserve">
<g transform="translate(0 -1)">
	<g transform="translate(10 18)">
		<path style="fill:#A4C2F7;" d="M391.121,145.187v153.6c-0.028,9.414-7.653,17.039-17.067,17.067H211.921l-53.675,65.792
			c-2.45,2.435-6.125,3.158-9.315,1.834c-3.191-1.325-5.272-4.438-5.277-7.892v-59.733h-25.6
			c-9.414-0.028-17.039-7.652-17.067-17.067v-153.6c0.028-9.414,7.652-17.039,17.067-17.067h256
			C383.468,128.148,391.093,135.773,391.121,145.187z"/>
		<path style="fill:#E3E7F2;" d="M365.521,145.187v153.6c-0.028,9.414-7.652,17.039-17.067,17.067H186.321l-42.667,52.309v-52.309
			h-25.6c-9.414-0.028-17.039-7.652-17.067-17.067v-153.6c0.028-9.414,7.652-17.039,17.067-17.067h230.4
			C357.868,128.148,365.493,135.773,365.521,145.187z"/>
		<g>
			<path style="fill:#FFFFFF;" d="M143.654,128.121h-25.6c-9.414,0.027-17.039,7.652-17.067,17.067v153.6
				c0.028,9.414,7.653,17.039,17.067,17.067h25.6c-9.414-0.028-17.039-7.652-17.067-17.067v-153.6
				C126.615,135.773,134.24,128.148,143.654,128.121z"/>
			<path style="fill:#FFFFFF;" d="M143.654,375.587c0.005,3.455,2.086,6.568,5.277,7.892c3.191,1.325,6.865,0.602,9.315-1.834
				l11.008-13.493v-52.299h-25.6V375.587z"/>
		</g>
	</g>
	<g>
		<polygon style="fill:#FFFFFF;" points="102.454,316.787 102.454,205.854 102.454,163.187 119.521,163.187 119.521,205.854 
			119.521,316.787 		"/>
		<g>
			<path style="fill:#428DFF;" d="M486.454,257.054c-0.092-110.142-78.035-204.855-186.1-226.142
				c-2.996-0.593-6.081,0.46-8.088,2.762c-2.007,2.302-2.631,5.501-1.636,8.389c0.995,2.887,3.458,5.023,6.457,5.599
				c103.723,20.342,176.919,113.56,172.077,219.149c-4.842,105.588-86.263,191.716-191.413,202.479l9.936-9.936
				c3.281-3.341,3.256-8.701-0.054-12.012c-3.311-3.311-8.671-3.335-12.012-0.054l-25.595,25.594c-3.324,3.34-3.324,8.738,0,12.078
				l25.595,25.594c2.149,2.188,5.307,3.055,8.271,2.27s5.28-3.1,6.065-6.065s-0.082-6.122-2.27-8.271l-11.933-11.933
				C394.843,476.205,486.296,376.592,486.454,257.054z"/>
			<path style="fill:#428DFF;" d="M25.654,257.054c0.092,110.142,78.035,204.855,186.1,226.142c2.996,0.593,6.081-0.46,8.088-2.762
				s2.631-5.501,1.636-8.389c-0.995-2.888-3.458-5.023-6.457-5.599C111.297,446.104,38.102,352.885,42.944,247.297
				S129.207,55.581,234.357,44.818l-9.936,9.936c-2.188,2.149-3.055,5.307-2.27,8.271c0.785,2.965,3.1,5.28,6.065,6.065
				c2.965,0.785,6.122-0.082,8.271-2.27l25.595-25.594c3.324-3.34,3.324-8.738,0-12.078L236.487,3.554
				c-2.149-2.188-5.307-3.055-8.271-2.27s-5.28,3.1-6.065,6.065c-0.785,2.965,0.082,6.122,2.27,8.271l11.933,11.933
				C117.265,37.903,25.812,137.516,25.654,257.054z"/>
			<path style="fill:#428DFF;" d="M107.746,256.375c0.484,0.246,1.002,0.417,1.537,0.508c0.563,0.096,1.133,0.153,1.704,0.171
				c2.259-0.031,4.423-0.915,6.059-2.475c2.07-1.994,2.979-4.908,2.409-7.726c-0.57-2.818-2.539-5.149-5.222-6.183
				c-1.027-0.438-2.13-0.67-3.246-0.684c-3.45,0.014-6.556,2.096-7.879,5.282c-1.323,3.187-0.606,6.856,1.82,9.31l1.279,1.025
				C106.684,255.928,107.201,256.187,107.746,256.375z"/>
			<path style="fill:#428DFF;" d="M102.454,163.187v51.2c0,4.713,3.821,8.533,8.533,8.533c4.713,0,8.533-3.821,8.533-8.533v-51.2
				c0.005-4.711,3.822-8.529,8.533-8.533h256c4.711,0.005,8.529,3.822,8.533,8.533v153.6c-0.005,4.711-3.822,8.529-8.533,8.533
				H221.921c-0.144,0-0.263,0.075-0.405,0.082c-2.219,0.24-4.292,1.224-5.882,2.791c-0.096,0.106-0.23,0.152-0.321,0.265
				l-53.125,65.058v-59.663c0.001-2.263-0.898-4.434-2.499-6.035c-1.6-1.6-3.771-2.499-6.035-2.499h-25.6
				c-4.711-0.005-8.529-3.822-8.533-8.533v-34.133c0-4.713-3.821-8.533-8.533-8.533c-4.713,0-8.533,3.821-8.533,8.533v34.133
				c0.015,14.132,11.468,25.585,25.6,25.6h17.067v51.2c-0.007,6.906,4.151,13.134,10.531,15.777s13.724,1.178,18.602-3.71
				c0.202-0.203,0.394-0.415,0.575-0.637l51.138-62.629h158.087c14.132-0.015,25.585-11.468,25.6-25.6v-153.6
				c-0.015-14.132-11.468-25.585-25.6-25.6h-256C113.922,137.603,102.469,149.055,102.454,163.187z"/>
			<path style="fill:#428DFF;" d="M264.896,256.133c11.26-2.393,21.079-9.228,27.233-18.958c6.154-9.729,8.122-21.53,5.459-32.73
				c-3.639-15.697-15.895-27.955-31.592-31.596c-12.783-3.005-26.238,0.001-36.525,8.163c-10.187,8.077-16.113,20.375-16.083,33.375
				c0,4.713,3.821,8.533,8.533,8.533c4.713,0,8.533-3.821,8.533-8.533c-0.009-12.961,9.662-23.887,22.528-25.451
				c12.866-1.565,24.874,6.725,27.972,19.31c1.642,6.74,0.487,13.857-3.202,19.732c-3.689,5.875-9.598,10.007-16.381,11.456
				c-8.016,1.556-13.816,8.559-13.85,16.725v9.429c0,4.713,3.821,8.533,8.533,8.533s8.533-3.82,8.533-8.533L264.896,256.133z"/>
			<path style="fill:#428DFF;" d="M259.296,291.866c-2.079-0.85-4.409-0.85-6.487,0c-1.044,0.413-1.999,1.023-2.813,1.796
				c-0.754,0.828-1.362,1.78-1.796,2.813c-0.436,1.027-0.667,2.13-0.679,3.246c0.014,0.572,0.071,1.141,0.171,1.704
				c0.091,0.535,0.263,1.053,0.508,1.537c0.187,0.544,0.447,1.062,0.771,1.538c0.341,0.425,0.683,0.85,1.025,1.279
				c1.636,1.558,3.8,2.441,6.059,2.475c1.119,0.029,2.229-0.205,3.242-0.683c1.033-0.434,1.986-1.04,2.817-1.792
				c0.341-0.429,0.683-0.854,1.021-1.279c0.324-0.476,0.583-0.993,0.771-1.538c0.245-0.485,0.418-1.003,0.513-1.537
				c0.098-0.563,0.155-1.133,0.171-1.704c-0.013-1.116-0.245-2.219-0.683-3.246C263.124,294.334,261.437,292.647,259.296,291.866
				L259.296,291.866z"/>
		</g>
	</g>
</g>
<g>
</g>
<g>
</g>
<g>
</g>
<g>
</g>
<g>
</g>
<g>
</g>
<g>
</g>
<g>
</g>
<g>
</g>
<g>
</g>
<g>
</g>
<g>
</g>
<g>
</g>
<g>
</g>
<g>
</g>
</svg>
