<?xml version="1.0" encoding="iso-8859-1"?>
<!-- Generator: Adobe Illustrator 19.0.0, SVG Export Plug-In . SVG Version: 6.00 Build 0)  -->
<svg version="1.1" id="Capa_1" xmlns="http://www.w3.org/2000/svg" xmlns:xlink="http://www.w3.org/1999/xlink" x="0px" y="0px"
	 viewBox="0 0 512 512" style="enable-background:new 0 0 512 512;" xml:space="preserve">
<g>
	<g transform="translate(1 1)">
		<path style="fill:#A4C2F7;" d="M502.467,255c0.011,65.636-26.058,128.586-72.469,174.997
			c-46.411,46.411-109.362,72.48-174.997,72.469c-4.267,0-8.533-0.085-12.715-0.341h-0.171C110.629,495.274,7.531,386.664,7.531,255
			S110.629,14.726,242.115,7.875h0.171c4.181-0.256,8.448-0.341,12.715-0.341c65.636-0.011,128.586,26.058,174.997,72.469
			S502.478,189.364,502.467,255z"/>
		<path style="fill:#E3E7F2;" d="M476.867,255c0.003,131.665-103.095,240.275-234.581,247.125h-0.171
			C110.629,495.274,7.531,386.664,7.531,255S110.629,14.726,242.115,7.875h0.171C373.772,14.725,476.869,123.336,476.867,255z"/>
		<path style="fill:#A4C2F7;" d="M348.867,152.6v138.496c-0.015,9.615-4.072,18.782-11.179,25.259L255,391.533l-12.8-11.605
			l-69.888-63.573c-7.107-6.477-11.163-15.643-11.179-25.259V152.6c9.053,0.002,17.737-3.593,24.139-9.995
			s9.997-15.085,9.995-24.139h119.467c-0.002,9.053,3.593,17.737,9.995,24.139S339.813,152.602,348.867,152.6z"/>
		<g>
			<path style="fill:#E3E7F2;" d="M323.267,152.6v138.496c-0.015,9.615-4.072,18.782-11.179,25.259L242.2,379.928l-69.888-63.573
				c-7.107-6.477-11.163-15.643-11.179-25.259V152.6c9.053,0.002,17.737-3.593,24.139-9.995s9.997-15.085,9.995-24.139h93.867
				c-0.002,9.053,3.593,17.737,9.995,24.139S314.213,152.602,323.267,152.6z"/>
			<path style="fill:#E3E7F2;" d="M195.275,291.092l-0.009-113.517c10.354-6.012,18.961-14.62,24.971-24.975h69.525
				c6.009,10.356,14.616,18.965,24.971,24.975V291.1L255,345.4L195.275,291.092z"/>
		</g>
		<path style="fill:#FFFFFF;" d="M242.115,502.125h0.171c4.181,0.256,8.448,0.341,12.715,0.341c4.351,0,8.673-0.113,12.969-0.34
			l-0.083-0.002h-0.171C136.229,495.274,33.131,386.664,33.131,255S136.229,14.726,267.715,7.875h0.171l0.078-0.002
			C263.67,7.651,259.349,7.538,255,7.533c-4.267,0-8.533,0.085-12.715,0.341h-0.171C110.629,14.726,7.531,123.336,7.531,255
			S110.629,495.274,242.115,502.125z"/>
	</g>
	<g>
		<path style="fill:#428DFF;" d="M433.484,71.775c-0.597-0.823-1.339-1.53-2.189-2.088c-98.394-92.918-252.196-92.917-350.59,0.001
			c-0.849,0.557-1.59,1.263-2.187,2.085C28.315,119.97-0.044,186.568,0,256.162S28.488,392.317,78.753,440.45
			c0.413,0.497,0.883,0.945,1.399,1.334c98.541,93.621,253.155,93.621,351.696,0c0.517-0.389,0.986-0.837,1.399-1.334
			c50.264-48.133,78.708-114.693,78.752-184.287S483.686,119.973,433.484,71.775L433.484,71.775z M417.997,247.467
			c-0.534-49.138-11.153-97.642-31.201-142.507c13.181-4.92,25.983-10.801,38.304-17.594
			c42.633,42.632,67.512,99.847,69.616,160.102H417.997z M384,264.533h16.935c-0.485,47.129-10.646,93.657-29.854,136.697
			c-21.681-6.843-43.96-11.621-66.54-14.272c-3.029-0.362-6.021,0.92-7.848,3.362c-1.827,2.443-2.212,5.675-1.009,8.478
			s3.811,4.751,6.84,5.11c20.588,2.43,40.915,6.713,60.734,12.796c-24.76,44.79-59.698,74.032-98.726,77.781V438.7
			c0-4.713-3.82-8.533-8.533-8.533s-8.533,3.82-8.533,8.533v55.786c-39.028-3.749-73.966-32.992-98.726-77.781
			c19.819-6.084,40.146-10.367,60.734-12.797c4.678-0.559,8.018-4.804,7.462-9.483c-0.557-4.679-4.799-8.021-9.478-7.467
			c-22.58,2.651-44.859,7.43-66.54,14.272c-19.207-43.041-29.368-89.568-29.854-136.697H128c4.713,0,8.533-3.821,8.533-8.533
			c0-4.713-3.821-8.533-8.533-8.533h-16.935c0.484-47.201,10.678-93.797,29.945-136.889c6.234,1.97,12.552,3.836,19.04,5.472
			c2.963,0.763,6.108-0.119,8.242-2.311c2.134-2.192,2.932-5.359,2.09-8.301s-3.194-5.207-6.165-5.938
			c-5.236-1.321-10.299-2.863-15.356-4.412c24.753-44.671,59.64-73.832,98.606-77.575v67.82c0,4.713,3.82,8.533,8.533,8.533
			s8.533-3.821,8.533-8.533v-67.82c38.956,3.742,73.833,32.889,98.585,77.539c-5.058,1.558-10.121,3.113-15.369,4.456
			c-4.566,1.169-7.319,5.818-6.15,10.383c1.169,4.566,5.818,7.319,10.383,6.15c6.478-1.658,12.774-3.535,18.986-5.508
			c19.282,43.104,29.482,89.716,29.966,136.933H384c-4.713,0-8.533,3.821-8.533,8.533C375.467,260.713,379.287,264.533,384,264.533z
			 M411.854,75.123c-10.602,5.539-21.553,10.382-32.784,14.498c-12.024-22.988-28.304-43.483-47.974-60.397
			C360.759,39.091,388.198,54.686,411.854,75.123z M132.904,89.67c-11.232-4.117-22.179-8.973-32.771-14.534
			c23.659-20.443,51.102-36.042,80.771-45.911C161.22,46.15,144.931,66.663,132.904,89.67z M86.893,87.373
			c12.309,6.819,25.107,12.714,38.288,17.638c-20.031,44.851-30.643,93.337-31.177,142.455h-76.72
			C19.388,187.215,44.264,130.004,86.893,87.373z M17.283,264.533h76.72c0.537,49.021,11.107,97.412,31.058,142.192
			c-13.192,4.965-26,10.895-38.32,17.744C44.204,381.854,19.387,324.709,17.283,264.533z M99.931,436.69
			c10.617-5.578,21.587-10.455,32.842-14.598c12.044,23.101,28.379,43.696,48.131,60.684
			C151.15,472.878,123.636,457.218,99.931,436.69z M379.227,422.092c11.254,4.143,22.225,9.02,32.842,14.598
			c-23.704,20.528-51.218,36.188-80.973,46.086C350.848,465.788,367.183,445.193,379.227,422.092L379.227,422.092z M425.258,424.469
			c-12.32-6.849-25.128-12.78-38.32-17.744c19.952-44.78,30.522-93.171,31.059-142.192h76.72
			C492.614,324.709,467.796,381.854,425.258,424.469L425.258,424.469z"/>
		<path style="fill:#428DFF;" d="M349.867,145.067c-14.132-0.015-25.585-11.468-25.6-25.6c0.001-2.263-0.898-4.434-2.499-6.035
			c-1.6-1.6-3.771-2.499-6.035-2.499h-58.887c-0.541-0.228-1.151-0.228-1.693,0h-58.887c-2.263-0.001-4.434,0.898-6.035,2.499
			c-1.6,1.6-2.499,3.771-2.499,6.035c-0.015,14.132-11.468,25.585-25.6,25.6c-2.263-0.001-4.434,0.898-6.035,2.499
			c-1.6,1.6-2.499,3.771-2.499,6.035v138.496c0.037,12.013,5.102,23.463,13.967,31.571l82.692,75.179
			c3.255,2.961,8.228,2.961,11.483,0l82.717-75.204c8.852-8.105,13.907-19.544,13.942-31.546V153.6
			c0.001-2.263-0.898-4.434-2.499-6.035C354.301,145.965,352.13,145.066,349.867,145.067z M341.333,292.096
			c-0.028,7.208-3.067,14.077-8.383,18.946L256,381l-76.925-69.933c-5.329-4.872-8.378-11.75-8.408-18.971V161.275
			c16.742-3.45,29.825-16.533,33.275-33.275h104.117c3.45,16.742,16.533,29.825,33.275,33.275V292.096z"/>
		<path style="fill:#428DFF;" d="M298.15,149.321c-1.526-2.633-4.34-4.254-7.383-4.254h-69.533c-3.044,0-5.857,1.621-7.383,4.254
			c-5.261,9.07-12.799,16.61-21.867,21.875c-2.632,1.525-4.251,4.337-4.25,7.379l0.009,113.517c0.001,2.403,1.015,4.695,2.792,6.313
			l59.725,54.308c3.255,2.961,8.228,2.961,11.483,0l59.733-54.3c1.777-1.618,2.79-3.909,2.791-6.312V178.575
			c0.001-3.043-1.618-5.856-4.25-7.383C310.948,165.93,303.41,158.391,298.15,149.321z M307.2,288.325L256,334.867l-51.191-46.55
			L204.8,183.3c8.362-5.613,15.549-12.802,21.158-21.167h60.083c5.606,8.368,12.793,15.56,21.159,21.171V288.325z"/>
	</g>
</g>
<g>
</g>
<g>
</g>
<g>
</g>
<g>
</g>
<g>
</g>
<g>
</g>
<g>
</g>
<g>
</g>
<g>
</g>
<g>
</g>
<g>
</g>
<g>
</g>
<g>
</g>
<g>
</g>
<g>
</g>
</svg>
