<?xml version="1.0" encoding="iso-8859-1"?>
<!-- Generator: Adobe Illustrator 19.0.0, SVG Export Plug-In . SVG Version: 6.00 Build 0)  -->
<svg version="1.1" id="Capa_1" xmlns="http://www.w3.org/2000/svg" xmlns:xlink="http://www.w3.org/1999/xlink" x="0px" y="0px"
	 viewBox="0 0 512.013 512.013" style="enable-background:new 0 0 512.013 512.013;" xml:space="preserve">
<g transform="translate(0 -1)">
	<g transform="translate(1 1)">
		<path style="fill:#A4C2F7;" d="M33.14,179.213h443.733c14.138,0,25.6,11.462,25.6,25.6v273.067c0,14.138-11.462,25.6-25.6,25.6
			H33.14c-14.138,0-25.6-11.462-25.6-25.6V204.813C7.54,190.674,19.001,179.213,33.14,179.213z"/>
		<path style="fill:#D4E1F4;" d="M33.14,179.213h418.133c14.138,0,25.6,11.462,25.6,25.6v273.067c0,14.138-11.462,25.6-25.6,25.6
			H33.14c-14.138,0-25.6-11.462-25.6-25.6V204.813C7.54,190.674,19.001,179.213,33.14,179.213z"/>
		<path style="fill:#A4C2F7;" d="M50.206,213.346H442.74c4.713,0,8.533,3.821,8.533,8.533v238.933c0,4.713-3.821,8.533-8.533,8.533
			H50.206c-4.713,0-8.533-3.821-8.533-8.533V221.879C41.673,217.167,45.494,213.346,50.206,213.346z"/>
		
			<linearGradient id="SVGID_1_" gradientUnits="userSpaceOnUse" x1="-49.7762" y1="652.585" x2="-48.9559" y2="651.3546" gradientTransform="matrix(384 0 0 -256 19190.2305 167245.6094)">
			<stop  offset="0" style="stop-color:#D3DFF2"/>
			<stop  offset="0.1717" style="stop-color:#D3DFF2"/>
			<stop  offset="0.2" style="stop-color:#D3DFF2"/>
			<stop  offset="0.2002" style="stop-color:#DAE2F2"/>
			<stop  offset="0.2007" style="stop-color:#EBEAF2"/>
			<stop  offset="0.2014" style="stop-color:#F6EFF2"/>
			<stop  offset="0.2023" style="stop-color:#FDF2F2"/>
			<stop  offset="0.205" style="stop-color:#FFF3F2"/>
			<stop  offset="0.2522" style="stop-color:#FFF3F2"/>
			<stop  offset="0.26" style="stop-color:#FFF3F2"/>
			<stop  offset="0.26" style="stop-color:#D3DFF2"/>
			<stop  offset="0.3974" style="stop-color:#D3DFF2"/>
			<stop  offset="0.42" style="stop-color:#D3DFF2"/>
			<stop  offset="0.4202" style="stop-color:#DAE2F2"/>
			<stop  offset="0.4207" style="stop-color:#EBEAF2"/>
			<stop  offset="0.4214" style="stop-color:#F6EFF2"/>
			<stop  offset="0.4223" style="stop-color:#FDF2F2"/>
			<stop  offset="0.425" style="stop-color:#FFF3F2"/>
			<stop  offset="0.4894" style="stop-color:#FFF3F2"/>
			<stop  offset="0.5" style="stop-color:#FFF3F2"/>
			<stop  offset="0.5" style="stop-color:#F8F0F2"/>
			<stop  offset="0.5001" style="stop-color:#E7E8F2"/>
			<stop  offset="0.5003" style="stop-color:#DCE3F2"/>
			<stop  offset="0.5005" style="stop-color:#D5E0F2"/>
			<stop  offset="0.501" style="stop-color:#D3DFF2"/>
			<stop  offset="0.7062" style="stop-color:#D3DFF2"/>
			<stop  offset="0.74" style="stop-color:#D3DFF2"/>
			<stop  offset="0.741" style="stop-color:#FFF3F2"/>
			<stop  offset="0.8346" style="stop-color:#FFF3F2"/>
			<stop  offset="0.85" style="stop-color:#FFF3F2"/>
			<stop  offset="0.851" style="stop-color:#D3DFF2"/>
		</linearGradient>
		<path style="fill:url(#SVGID_1_);" d="M50.206,213.346H417.14c4.713,0,8.533,3.821,8.533,8.533v238.933
			c0,4.713-3.821,8.533-8.533,8.533H50.206c-4.713,0-8.533-3.821-8.533-8.533V221.879C41.673,217.167,45.494,213.346,50.206,213.346
			z"/>
		<path style="fill:#A4C2F7;" d="M357.406,109.239c0.518,29.667-11.875,58.097-33.963,77.909
			c-16.708,15.581-26.065,37.488-25.771,60.331H212.34c0.02-11.516-2.363-22.909-6.997-33.451
			c-4.622-10.532-11.36-20.001-19.797-27.819c-29.254-27.005-40.201-68.519-28.068-106.438s45.147-65.366,84.644-70.373
			c5.711-0.772,11.48-1.029,17.237-0.768C313.301,11.414,356.015,55.243,357.406,109.239z"/>
		<path style="fill:#E3E7F2;" d="M331.806,109.239c0.518,29.667-11.875,58.097-33.963,77.909
			c-16.708,15.581-26.065,37.488-25.771,60.331H212.34c0.02-11.516-2.363-22.909-6.997-33.451
			c-4.622-10.532-11.36-20.001-19.797-27.819c-29.254-27.005-40.201-68.519-28.068-106.438s45.147-65.366,84.644-70.373
			C292.489,16.119,330.507,58.442,331.806,109.239z"/>
		<g>
			<path style="fill:#A4C2F7;" d="M306.206,264.546c-0.068,9.397-7.669,16.998-17.067,17.067h-68.693
				c-9.241-0.272-16.602-7.822-16.64-17.067c0.068-9.398,7.669-16.999,17.067-17.067h68.267
				C298.554,247.507,306.179,255.132,306.206,264.546z"/>
			<path style="fill:#A4C2F7;" d="M297.673,298.679c-0.068,9.397-7.669,16.998-17.067,17.067h-51.2
				c-9.414-0.028-17.039-7.653-17.067-17.067c0.068-9.397,7.669-16.999,17.067-17.067h51.2
				C290.021,281.64,297.646,289.265,297.673,298.679z"/>
		</g>
		<g>
			<path style="fill:#D4E1F4;" d="M280.606,264.546c-0.068,9.397-7.669,16.998-17.067,17.067h-43.093
				c-9.241-0.272-16.602-7.822-16.64-17.067c0.068-9.398,7.669-16.999,17.067-17.067h42.667
				C272.954,247.507,280.579,255.132,280.606,264.546z"/>
			<path style="fill:#D4E1F4;" d="M272.073,298.679c-0.068,9.397-7.669,16.998-17.067,17.067h-25.6
				c-9.414-0.028-17.039-7.653-17.067-17.067c0.068-9.397,7.669-16.999,17.067-17.067h26.112
				C264.729,281.922,272.045,289.463,272.073,298.679z"/>
			<path style="fill:#D4E1F4;" d="M237.94,315.746h34.133v17.067c0,9.426-7.641,17.067-17.067,17.067s-17.067-7.641-17.067-17.067
				V315.746z"/>
		</g>
	</g>
	<path style="fill:#FFFFFF;" d="M34.14,504.479h25.6c-6.792,0.009-13.309-2.685-18.112-7.488c-4.803-4.803-7.497-11.32-7.488-18.112
		V205.813c-0.009-6.792,2.685-13.309,7.488-18.112s11.32-7.497,18.112-7.488l-25.6,0c-6.792-0.009-13.309,2.685-18.112,7.488
		s-7.497,11.32-7.488,18.112v273.067c-0.009,6.792,2.685,13.309,7.488,18.112C20.831,501.794,27.347,504.488,34.14,504.479z"/>
	<g>
		<polygon style="fill:#FFFFFF;" points="17.073,205.813 17.073,316.746 17.073,478.879 0.006,478.879 0.006,316.746 0.006,205.813 
					"/>
		<g>
			<path style="fill:#428DFF;" d="M8.54,282.613c2.259-0.034,4.422-0.918,6.059-2.475c3.3-3.365,3.3-8.752,0-12.117l-1.279-1.025
				c-0.476-0.324-0.993-0.583-1.538-0.771c-0.484-0.246-1.003-0.417-1.538-0.509c-0.563-0.096-1.133-0.153-1.704-0.171
				c-2.259,0.031-4.423,0.915-6.059,2.475c-3.222,3.397-3.222,8.721,0,12.117c0.815,0.771,1.77,1.379,2.813,1.792
				C6.321,282.368,7.423,282.6,8.54,282.613z"/>
			<path style="fill:#428DFF;" d="M477.873,171.679H349.317c11.801-18.363,17.927-39.799,17.61-61.625
				C365.258,51.629,319.058,4.25,260.694,1.109c-41.359-1.829-80.283,19.566-100.906,55.464s-19.497,80.3,2.917,115.107H34.14
				c-18.842,0.022-34.112,15.291-34.133,34.133v34.133c0,4.713,3.821,8.533,8.533,8.533s8.533-3.821,8.533-8.533v-34.133
				c0.009-9.422,7.645-17.057,17.067-17.067H176.12c1.526,1.591,2.989,3.234,4.615,4.738c3.992,3.708,7.566,7.843,10.657,12.329
				H51.206c-9.422,0.009-17.057,7.645-17.067,17.067v238.933c0.009,9.422,7.645,17.057,17.067,17.067H443.74
				c9.421-0.011,17.056-7.645,17.067-17.067V222.879c-0.011-9.421-7.645-17.056-17.067-17.067h-123.51
				c2.873-4.145,6.212-7.946,9.952-11.329c2.019-1.818,3.854-3.792,5.721-5.737h141.97c9.421,0.011,17.056,7.645,17.067,17.067v128
				h-8.533c-4.713,0-8.533,3.821-8.533,8.533c0,4.713,3.821,8.533,8.533,8.533h8.533v128c-0.011,9.421-7.645,17.056-17.067,17.067
				H34.14c-9.422-0.009-17.057-7.645-17.067-17.067V308.213c0-4.713-3.821-8.533-8.533-8.533s-8.533,3.82-8.533,8.533v170.667
				c0.022,18.842,15.291,34.112,34.133,34.133h443.733c18.843-0.02,34.113-15.29,34.133-34.133V205.813
				C511.986,186.97,496.716,171.699,477.873,171.679z M191.015,44.2c18.448-17.774,43.388-27.19,68.979-26.042
				c49.376,2.665,88.457,42.752,89.867,92.179c0.386,23.467-8.02,46.231-23.564,63.816c-0.048,0.048-0.079,0.108-0.127,0.158
				c-2.327,2.633-4.799,5.133-7.406,7.489c-8.882,8.089-15.944,17.973-20.718,28.997c-0.073,0.158-0.139,0.31-0.203,0.473
				c-3.963,9.104-6.436,18.786-7.326,28.675h-69.046c-0.959-9.846-3.5-19.473-7.526-28.51c-0.105-0.28-0.225-0.555-0.36-0.822
				c-5.036-11.209-12.267-21.295-21.265-29.663c-2.198-2.032-4.259-4.185-6.239-6.403c-0.185-0.206-0.364-0.397-0.569-0.585
				c-15.041-17.162-23.347-39.197-23.376-62.017C162.043,86.355,172.487,61.853,191.015,44.2z M290.14,299.679
				c-0.006,4.71-3.823,8.527-8.533,8.533h-51.2c-4.713,0-8.533-3.82-8.533-8.533s3.821-8.533,8.533-8.533h51.2
				C286.317,291.152,290.134,294.969,290.14,299.679z M247.473,325.279h17.067v8.533c0,4.713-3.82,8.533-8.533,8.533
				s-8.533-3.82-8.533-8.533V325.279z M298.673,265.546c-0.006,4.71-3.823,8.527-8.533,8.533h-68.267
				c-4.713,0-8.533-3.82-8.533-8.533s3.821-8.533,8.533-8.533h68.267C294.85,257.019,298.667,260.836,298.673,265.546z
				 M443.74,222.879v238.933H51.206V222.879h148.966c2.799,7.634,4.333,15.674,4.54,23.803c-5.945,5.331-9.036,13.148-8.344,21.102
				c0.692,7.955,5.087,15.12,11.863,19.344c-2.217,3.813-3.397,8.14-3.425,12.551c0.015,14.132,11.468,25.585,25.6,25.6v8.533
				c0,14.138,11.462,25.6,25.6,25.6s25.6-11.462,25.6-25.6v-8.533c14.132-0.015,25.585-11.468,25.6-25.6
				c-0.028-4.411-1.208-8.738-3.425-12.551c6.777-4.224,11.172-11.391,11.863-19.347c0.691-7.956-2.402-15.774-8.349-21.103
				c0.173-8.11,1.628-16.143,4.311-23.798H443.74z"/>
			<path style="fill:#428DFF;" d="M76.806,265.546c2.264,0.003,4.435-0.897,6.033-2.5l8.533-8.533
				c3.281-3.341,3.256-8.701-0.054-12.012c-3.311-3.311-8.671-3.335-12.012-0.054l-8.533,8.533c-2.44,2.44-3.169,6.11-1.849,9.298
				S73.356,265.545,76.806,265.546z"/>
			<path style="fill:#428DFF;" d="M121.973,242.446l-51.2,51.2c-2.188,2.149-3.055,5.307-2.27,8.271
				c0.785,2.965,3.1,5.28,6.065,6.065c2.965,0.785,6.122-0.082,8.271-2.27l51.2-51.2c3.281-3.341,3.256-8.701-0.054-12.012
				C130.674,239.19,125.314,239.166,121.973,242.446z"/>
			<path style="fill:#428DFF;" d="M256.006,52.213c32.974,0.037,59.696,26.759,59.733,59.733c0,4.713,3.82,8.533,8.533,8.533
				s8.533-3.821,8.533-8.533c-0.049-42.395-34.405-76.751-76.8-76.8c-4.713,0-8.533,3.821-8.533,8.533
				S251.294,52.213,256.006,52.213z"/>
		</g>
	</g>
</g>
<g>
</g>
<g>
</g>
<g>
</g>
<g>
</g>
<g>
</g>
<g>
</g>
<g>
</g>
<g>
</g>
<g>
</g>
<g>
</g>
<g>
</g>
<g>
</g>
<g>
</g>
<g>
</g>
<g>
</g>
</svg>
