<?xml version="1.0" encoding="iso-8859-1"?>
<!-- Generator: Adobe Illustrator 19.0.0, SVG Export Plug-In . SVG Version: 6.00 Build 0)  -->
<svg version="1.1" id="Capa_1" xmlns="http://www.w3.org/2000/svg" xmlns:xlink="http://www.w3.org/1999/xlink" x="0px" y="0px"
	 viewBox="0 0 512.006 512.006" style="enable-background:new 0 0 512.006 512.006;" xml:space="preserve">
<g transform="translate(0 -1)">
	<g transform="translate(1 2)">
		<path style="fill:#A4C2F7;" d="M33.136,178.206H476.87c14.138,0,25.6,11.462,25.6,25.6v273.067c0,14.138-11.462,25.6-25.6,25.6
			H33.136c-14.138,0-25.6-11.462-25.6-25.6V203.806C7.536,189.668,18.998,178.206,33.136,178.206z"/>
		<path style="fill:#D4E1F4;" d="M33.136,178.206H451.27c14.138,0,25.6,11.462,25.6,25.6v273.067c0,14.138-11.462,25.6-25.6,25.6
			H33.136c-14.138,0-25.6-11.462-25.6-25.6V203.806C7.536,189.668,18.998,178.206,33.136,178.206z"/>
		<path style="fill:#A4C2F7;" d="M50.203,212.34h392.533c4.713,0,8.533,3.821,8.533,8.533v238.933c0,4.713-3.82,8.533-8.533,8.533
			H50.203c-4.713,0-8.533-3.82-8.533-8.533V220.873C41.67,216.16,45.49,212.34,50.203,212.34z"/>
		
			<linearGradient id="SVGID_1_" gradientUnits="userSpaceOnUse" x1="-49.7794" y1="651.5786" x2="-48.9591" y2="650.3481" gradientTransform="matrix(384 0 0 -256 19191.4609 166986.9688)">
			<stop  offset="0" style="stop-color:#D3DFF2"/>
			<stop  offset="0.1717" style="stop-color:#D3DFF2"/>
			<stop  offset="0.2" style="stop-color:#D3DFF2"/>
			<stop  offset="0.2002" style="stop-color:#DAE2F2"/>
			<stop  offset="0.2007" style="stop-color:#EBEAF2"/>
			<stop  offset="0.2014" style="stop-color:#F6EFF2"/>
			<stop  offset="0.2023" style="stop-color:#FDF2F2"/>
			<stop  offset="0.205" style="stop-color:#FFF3F2"/>
			<stop  offset="0.2522" style="stop-color:#FFF3F2"/>
			<stop  offset="0.26" style="stop-color:#FFF3F2"/>
			<stop  offset="0.26" style="stop-color:#D3DFF2"/>
			<stop  offset="0.3974" style="stop-color:#D3DFF2"/>
			<stop  offset="0.42" style="stop-color:#D3DFF2"/>
			<stop  offset="0.4202" style="stop-color:#DAE2F2"/>
			<stop  offset="0.4207" style="stop-color:#EBEAF2"/>
			<stop  offset="0.4214" style="stop-color:#F6EFF2"/>
			<stop  offset="0.4223" style="stop-color:#FDF2F2"/>
			<stop  offset="0.425" style="stop-color:#FFF3F2"/>
			<stop  offset="0.4894" style="stop-color:#FFF3F2"/>
			<stop  offset="0.5" style="stop-color:#FFF3F2"/>
			<stop  offset="0.5" style="stop-color:#F8F0F2"/>
			<stop  offset="0.5001" style="stop-color:#E7E8F2"/>
			<stop  offset="0.5003" style="stop-color:#DCE3F2"/>
			<stop  offset="0.5005" style="stop-color:#D5E0F2"/>
			<stop  offset="0.501" style="stop-color:#D3DFF2"/>
			<stop  offset="0.7062" style="stop-color:#D3DFF2"/>
			<stop  offset="0.74" style="stop-color:#D3DFF2"/>
			<stop  offset="0.741" style="stop-color:#FFF3F2"/>
			<stop  offset="0.8346" style="stop-color:#FFF3F2"/>
			<stop  offset="0.85" style="stop-color:#FFF3F2"/>
			<stop  offset="0.851" style="stop-color:#D3DFF2"/>
		</linearGradient>
		<path style="fill:url(#SVGID_1_);" d="M50.203,212.34h366.933c4.713,0,8.533,3.821,8.533,8.533v238.933
			c0,4.713-3.82,8.533-8.533,8.533H50.203c-4.713,0-8.533-3.82-8.533-8.533V220.873C41.67,216.16,45.49,212.34,50.203,212.34z"/>
		<g>
			<path style="fill:#E3E7F2;" d="M255.003,280.605c-9.425,0-17.066-7.641-17.067-17.067v-18.683
				c0.048-16.94,12.635-31.224,29.433-33.404c43.21-6.247,74.696-44.161,72.9-87.783c-2.358-44.234-37.692-79.571-81.925-81.933
				c-23.194-0.908-45.757,7.671-62.488,23.76s-26.187,38.299-26.187,61.511c0,9.426-7.641,17.067-17.067,17.067
				s-17.067-7.641-17.067-17.067c0-32.49,13.233-63.578,36.649-86.102s54.995-34.539,87.46-33.277
				c61.687,2.4,111.388,51.4,114.664,113.047c3.275,61.647-40.953,115.638-102.039,124.561l-0.2,18.304
				C272.069,272.964,264.429,280.605,255.003,280.605z"/>
			<circle style="fill:#E3E7F2;" cx="255.003" cy="331.806" r="17.067"/>
		</g>
	</g>
	<path style="fill:#FFFFFF;" d="M34.136,504.473h25.6c-6.792,0.009-13.309-2.685-18.112-7.488
		c-4.803-4.803-7.497-11.32-7.488-18.112V205.806c-0.009-6.792,2.685-13.309,7.488-18.112s11.32-7.497,18.112-7.488l-25.6,0
		c-6.792-0.009-13.309,2.685-18.112,7.488s-7.497,11.32-7.488,18.112v273.067c-0.009,6.792,2.685,13.309,7.488,18.112
		C20.827,501.788,27.344,504.482,34.136,504.473z"/>
	<g>
		<polygon style="fill:#FFFFFF;" points="17.07,205.806 17.07,316.74 17.07,478.873 0.003,478.873 0.003,316.74 0.003,205.806 		"/>
		<g>
			<path style="fill:#428DFF;" d="M8.536,282.606c2.259-0.034,4.422-0.918,6.059-2.475c3.3-3.365,3.3-8.752,0-12.117l-1.279-1.025
				c-0.476-0.324-0.993-0.583-1.538-0.771c-0.484-0.246-1.003-0.417-1.538-0.509c-0.563-0.096-1.133-0.153-1.704-0.171
				c-2.259,0.031-4.423,0.915-6.059,2.475c-3.222,3.397-3.222,8.721,0,12.117c0.815,0.771,1.77,1.379,2.813,1.792
				C6.317,282.361,7.42,282.593,8.536,282.606z"/>
			<path style="fill:#428DFF;" d="M477.87,171.673H376.66c19.791-55.944-1.469-118.154-51.358-150.285S209.98-4.368,167.232,36.79
				c-25.169,24.059-39.352,57.399-39.229,92.217c0,14.139,11.462,25.6,25.6,25.6c14.138,0,25.6-11.462,25.6-25.6
				c0-20.892,8.511-40.882,23.572-55.362c15.06-14.48,35.369-22.2,56.245-21.379c39.805,2.126,71.6,33.925,73.721,73.729
				c0.64,16.203-3.865,32.192-12.867,45.679H34.136c-18.842,0.022-34.112,15.291-34.133,34.133v34.133
				c0,4.713,3.821,8.533,8.533,8.533s8.533-3.82,8.533-8.533v-34.133c0.009-9.422,7.645-17.057,17.067-17.067h270.179
				c-10.695,8.678-23.54,14.299-37.171,16.267c-1.171,0.17-2.251,0.544-3.384,0.8H51.203c-9.422,0.009-17.057,7.645-17.067,17.067
				v238.933c0.009,9.422,7.645,17.057,17.067,17.067h392.533c9.422-0.009,17.057-7.645,17.067-17.067V222.873
				c-0.009-9.422-7.645-17.057-17.067-17.067h-85.333c4.061-5.394,7.688-11.1,10.848-17.067H477.87
				c9.422,0.009,17.057,7.645,17.067,17.067v128h-8.533c-4.713,0-8.533,3.821-8.533,8.533s3.82,8.533,8.533,8.533h8.533v128
				c-0.009,9.422-7.645,17.057-17.067,17.067H34.136c-9.422-0.009-17.057-7.645-17.067-17.067V308.206
				c0-4.713-3.821-8.533-8.533-8.533s-8.533,3.821-8.533,8.533v170.667c0.022,18.842,15.291,34.112,34.133,34.133H477.87
				c18.842-0.022,34.112-15.291,34.133-34.133V205.806C511.982,186.964,496.712,171.695,477.87,171.673z M259.691,35.21
				c-1.308-0.054-2.604-0.079-3.904-0.079c-51.757,0.126-93.648,42.118-93.65,93.875c0,4.713-3.821,8.533-8.533,8.533
				c-4.713,0-8.533-3.821-8.533-8.533c0-30.17,12.289-59.039,34.033-79.953s51.069-32.07,81.217-30.897
				c57.277,2.232,103.424,47.73,106.466,104.97S328.763,230.5,272.045,238.79c-4.161,0.604-7.263,4.149-7.308,8.354l-0.2,18.396
				c0,4.713-3.82,8.533-8.533,8.533s-8.533-3.821-8.533-8.533v-18.683c0.075-12.69,9.536-23.362,22.125-24.958
				c24.136-3.482,45.949-16.276,60.769-35.642c0.046-0.046,0.071-0.108,0.117-0.155c13.337-17.375,20.172-38.871,19.319-60.758
				C347.204,76.69,308.344,37.819,259.691,35.21z M443.737,461.806H51.203V222.873h186.865c-4.969,7.012-7.647,15.389-7.665,23.983
				v18.683c-0.016,9.146,4.848,17.606,12.76,22.193c7.912,4.587,17.671,4.605,25.6,0.046c7.929-4.559,12.823-13.001,12.84-22.147
				l0.121-11.208c22.966-4.664,44.197-15.583,61.35-31.55h100.662V461.806z"/>
			<path style="fill:#428DFF;" d="M76.803,265.54c2.264,0.003,4.435-0.897,6.033-2.5l8.533-8.533
				c3.281-3.341,3.256-8.701-0.054-12.012c-3.311-3.311-8.671-3.335-12.012-0.054l-8.533,8.533c-2.44,2.441-3.169,6.11-1.849,9.298
				C70.242,263.46,73.352,265.539,76.803,265.54z"/>
			<path style="fill:#428DFF;" d="M121.97,242.44l-51.2,51.2c-2.188,2.149-3.055,5.307-2.27,8.271c0.785,2.965,3.1,5.28,6.065,6.065
				c2.965,0.785,6.122-0.082,8.271-2.27l51.2-51.2c3.281-3.341,3.256-8.701-0.054-12.012
				C130.671,239.184,125.311,239.159,121.97,242.44z"/>
			<path style="fill:#428DFF;" d="M256.003,308.206c-14.139,0-25.6,11.462-25.6,25.6c0,14.138,11.462,25.6,25.6,25.6
				c14.138,0,25.6-11.462,25.6-25.6C281.588,319.674,270.135,308.222,256.003,308.206z M256.003,342.34
				c-4.713,0-8.533-3.821-8.533-8.533c0-4.713,3.821-8.533,8.533-8.533s8.533,3.821,8.533,8.533
				C264.53,338.517,260.713,342.334,256.003,342.34z"/>
		</g>
	</g>
</g>
<g>
</g>
<g>
</g>
<g>
</g>
<g>
</g>
<g>
</g>
<g>
</g>
<g>
</g>
<g>
</g>
<g>
</g>
<g>
</g>
<g>
</g>
<g>
</g>
<g>
</g>
<g>
</g>
<g>
</g>
</svg>
