<?xml version="1.0" encoding="iso-8859-1"?>
<!-- Generator: Adobe Illustrator 19.0.0, SVG Export Plug-In . SVG Version: 6.00 Build 0)  -->
<svg version="1.1" id="Capa_1" xmlns="http://www.w3.org/2000/svg" xmlns:xlink="http://www.w3.org/1999/xlink" x="0px" y="0px"
	 viewBox="0 0 512.021 512.021" style="enable-background:new 0 0 512.021 512.021;" xml:space="preserve">
<g transform="translate(0 -1)">
	<g transform="translate(1 1)">
		<path style="fill:#A4C2F7;" d="M493.944,170.688v17.067H306.211v-17.067l17.835-74.325c3.979-6.872,11.344-11.076,19.285-11.008
			h113.493c7.955-0.123,15.346,4.096,19.285,11.008L493.944,170.688z"/>
		<path style="fill:#E3E7F2;" d="M468.344,170.688v17.067H306.211v-17.067l17.835-74.325c3.979-6.872,11.344-11.076,19.285-11.008
			h87.893c7.955-0.123,15.346,4.096,19.285,11.008L468.344,170.688z"/>
		<path style="fill:#A4C2F7;" d="M493.944,170.688v25.6c-0.028,9.414-7.652,17.039-17.067,17.067h-153.6
			c-9.414-0.028-17.039-7.653-17.067-17.067v-25.6H493.944z"/>
		<path style="fill:#E3E7F2;" d="M468.344,170.688v25.6c-0.028,9.414-7.652,17.039-17.067,17.067h-128
			c-9.414-0.028-17.039-7.653-17.067-17.067v-25.6H468.344z"/>
		<circle style="fill:#FFFFFF;" cx="400.077" cy="145.088" r="25.6"/>
		<path style="fill:#E3E7F2;" d="M496.736,302.563l-35.904-44.133c-0.278-0.341-0.618-0.598-0.91-0.922
			c-0.559-0.62-1.134-1.209-1.751-1.771c-0.616-0.563-1.249-1.082-1.908-1.575c-0.633-0.475-1.276-0.92-1.953-1.335
			c-0.715-0.438-1.442-0.826-2.19-1.189c-0.71-0.346-1.423-0.668-2.167-0.948c-0.794-0.298-1.597-0.532-2.414-0.749
			c-0.745-0.198-1.484-0.391-2.254-0.522c-0.928-0.146-1.863-0.24-2.801-0.283c-0.509-0.03-0.993-0.152-1.51-0.152
			c-0.202,0-0.39,0.055-0.591,0.06c-0.999,0.042-1.995,0.142-2.983,0.301c-0.658,0.093-1.326,0.137-1.967,0.278
			c-0.889,0.224-1.765,0.496-2.624,0.815c-0.693,0.235-1.406,0.416-2.071,0.706c-0.704,0.308-1.365,0.737-2.049,1.112
			c-0.779,0.395-1.537,0.829-2.271,1.301c-0.079,0.055-0.167,0.085-0.245,0.14l-45.85,32.488
			c-10.902,7.695-14.047,22.483-7.221,33.948c6.826,11.466,21.326,15.748,33.286,9.832
			c-25.769,79.765-103.663,130.772-187.079,122.505S69.528,378.895,59.918,295.624s40.136-161.977,119.475-189.028
			c-4.727,11.873,0.048,25.411,11.178,31.691c11.129,6.28,25.187,3.368,32.906-6.816l33.967-44.709
			c0.145-0.191,0.232-0.407,0.371-0.601c0.497-0.691,0.912-1.429,1.34-2.17c0.404-0.702,0.819-1.393,1.151-2.12
			c0.325-0.711,0.57-1.455,0.83-2.199c0.299-0.814,0.557-1.643,0.771-2.484c0.169-0.709,0.268-1.435,0.377-2.167
			c0.146-0.928,0.24-1.864,0.283-2.803c0.012-0.32,0.095-0.62,0.095-0.944c0-0.421-0.104-0.813-0.124-1.228
			c-0.043-0.924-0.135-1.845-0.278-2.758c-0.119-0.755-0.261-1.492-0.444-2.223c-0.213-0.833-0.468-1.654-0.764-2.462
			c-0.264-0.73-0.536-1.446-0.863-2.143c-0.367-0.766-0.773-1.513-1.215-2.239c-0.399-0.668-0.798-1.324-1.254-1.951
			c-0.488-0.672-1.033-1.301-1.593-1.931c-0.547-0.615-1.096-1.214-1.699-1.774c-0.24-0.222-0.42-0.484-0.67-0.7l-43.154-37.12
			c-6.932-5.977-16.528-7.798-25.168-4.776s-15.01,10.426-16.706,19.421c-1.697,8.995,1.538,18.211,8.483,24.172l0.05,0.044
			C70.462,82.753-0.192,184.13,9.433,294.416s96.771,197.892,207.005,208.097S428.42,442.6,458.127,335.955
			c9.33,10.204,25.088,11.127,35.546,2.082C504.131,328.993,505.488,313.266,496.736,302.563z"/>
		<g>
			<path style="fill:#A4C2F7;" d="M493.005,338.539c-8.162,6.785-19.707,7.708-28.843,2.304c1.134-0.69,2.218-1.46,3.243-2.304
				c5.273-4.277,8.632-10.474,9.336-17.228s-1.303-13.51-5.581-18.783l-35.925-44.117c-0.291-0.334-0.605-0.648-0.939-0.939
				c-0.525-0.611-1.096-1.181-1.707-1.707c-0.615-0.586-1.271-1.128-1.963-1.621c-0.597-0.427-1.28-0.939-1.877-1.28
				c-0.179-0.145-0.381-0.261-0.597-0.341l0.512-0.256c0.645-0.435,1.331-0.807,2.048-1.109c0.68-0.316,1.396-0.546,2.133-0.683
				c0.826-0.361,1.683-0.646,2.56-0.853c0.649-0.122,1.304-0.207,1.963-0.256c0.985-0.193,1.984-0.307,2.987-0.341h0.597
				c0.512,0,1.024,0.085,1.536,0.085c0.939,0.085,1.877,0.171,2.816,0.341c0.756,0.089,1.5,0.261,2.219,0.512
				c0.823,0.165,1.624,0.423,2.389,0.768c0.76,0.261,1.502,0.575,2.219,0.939c0.774,0.331,1.516,0.731,2.219,1.195
				c0.597,0.341,1.28,0.853,1.877,1.28c0.692,0.494,1.347,1.035,1.963,1.621c0.611,0.525,1.181,1.096,1.707,1.707
				c0.334,0.291,0.648,0.605,0.939,0.939l35.925,44.117c4.278,5.273,6.285,12.03,5.581,18.783
				C501.637,328.064,498.279,334.261,493.005,338.539z"/>
			<path style="fill:#A4C2F7;" d="M455.629,344c-30.43,95.017-118.768,159.485-218.539,159.488c-4.352,0-8.789-0.085-13.056-0.341
				c98.088-5.408,181.879-72.598,208.469-167.168c4.834,5.261,11.629,8.287,18.773,8.363
				C452.735,344.355,454.191,344.241,455.629,344z"/>
			<path style="fill:#A4C2F7;" d="M262.691,71.275c0,0.341-0.085,0.597-0.085,0.939c-0.085,0.939-0.171,1.877-0.341,2.816
				c-0.072,0.717-0.186,1.43-0.341,2.133c-0.256,0.853-0.512,1.707-0.768,2.475c-0.233,0.758-0.518,1.5-0.853,2.219
				c-0.341,0.768-0.768,1.451-1.109,2.133c-0.405,0.742-0.861,1.455-1.365,2.133c-0.147,0.209-0.262,0.439-0.341,0.683
				l-34.048,44.629c-4.819,6.409-12.376,10.171-20.395,10.155c-4.504,0.01-8.927-1.199-12.8-3.499
				c2.967-1.666,5.554-3.933,7.595-6.656l34.048-44.629c0.079-0.243,0.194-0.473,0.341-0.683c0.504-0.678,0.961-1.391,1.365-2.133
				c0.341-0.683,0.768-1.365,1.109-2.133c0.336-0.719,0.621-1.46,0.853-2.219c0.256-0.768,0.513-1.621,0.768-2.475
				c0.156-0.704,0.27-1.416,0.341-2.133c0.171-0.939,0.256-1.877,0.341-2.816c0-0.341,0.085-0.597,0.085-0.939
				c0-0.427-0.171-0.853-0.171-1.195c0-0.944-0.086-1.887-0.256-2.816c-0.101-0.747-0.243-1.488-0.427-2.219
				c-0.256-0.853-0.512-1.621-0.768-2.475c-0.256-0.683-0.597-1.451-0.853-2.133c-0.427-0.768-0.768-1.451-1.28-2.218
				c-0.341-0.683-0.768-1.28-1.195-1.963c-0.494-0.664-1.036-1.292-1.621-1.877c-0.502-0.658-1.074-1.258-1.707-1.792
				c-0.206-0.248-0.434-0.477-0.683-0.683l-43.093-37.12c-1.231-1.042-2.544-1.983-3.925-2.816
				c9.436-5.452,21.29-4.321,29.525,2.816l43.093,37.12c0.248,0.206,0.477,0.434,0.683,0.683c0.632,0.534,1.205,1.134,1.707,1.792
				c0.585,0.586,1.127,1.213,1.621,1.877c0.427,0.683,0.853,1.28,1.195,1.963c0.512,0.768,0.853,1.451,1.28,2.218
				c0.256,0.683,0.597,1.451,0.853,2.133c0.256,0.853,0.512,1.621,0.768,2.475c0.184,0.731,0.326,1.472,0.427,2.219
				c0.17,0.929,0.256,1.872,0.256,2.816C262.52,70.421,262.691,70.848,262.691,71.275z"/>
		</g>
	</g>
	<g transform="translate(0 2)">
		<path style="fill:#FFFFFF;" d="M225.331,502.118l-0.297,0.028c0.331,0.02,0.68,0.009,1.013,0.027
			c3.979,0.206,7.983,0.311,12.012,0.315l0.012,0l0.019,0c3.85,0,7.628-0.291,11.431-0.482
			c-112.1-6.575-202.855-93.538-214.206-205.255S95.374,81.594,203.861,52.607l-0.051-0.044
			c-10.718-9.221-11.932-25.385-2.712-36.104c1.901-2.163,4.157-3.986,6.671-5.391l-0.068-0.048
			c-0.376-0.218-0.763-0.393-1.146-0.59c-1.029-0.534-2.094-0.996-3.188-1.382c-0.408-0.143-0.811-0.281-1.224-0.402
			c-1.179-0.347-2.382-0.607-3.599-0.778c-0.294-0.042-0.583-0.112-0.878-0.144c-1.529-0.169-3.069-0.2-4.604-0.093
			c-0.16,0.011-0.317,0.053-0.477,0.067c-1.324,0.124-2.637,0.351-3.927,0.678c-0.454,0.114-0.893,0.264-1.341,0.403
			c-1.021,0.317-2.022,0.697-2.996,1.139c-0.444,0.202-0.883,0.399-1.317,0.627c-0.293,0.154-0.605,0.26-0.893,0.425l0.099,0.071
			c-7.277,4.052-12.098,11.421-12.897,19.712s2.527,16.445,8.896,21.812l0.051,0.044C69.515,81.671-1.935,185.518,9.788,297.469
			S112.923,496.212,225.331,502.118L225.331,502.118z"/>
		<path style="fill:#FFFFFF;" d="M482.184,342.792c2.881-0.427,5.664-1.36,8.22-2.757c0.156-0.088,0.295-0.214,0.449-0.305
			c-2.271-1.275-4.336-2.885-6.126-4.776C483.984,337.613,483.028,340.178,482.184,342.792z"/>
		<path style="fill:#FFFFFF;" d="M332.811,169.688l17.835-74.326c3.979-6.872,11.344-11.076,19.285-11.009l-25.6,0.001
			c-7.941-0.068-15.306,4.136-19.285,11.008l-17.835,74.326v25.6c0.028,9.414,7.652,17.039,17.067,17.067h25.6
			c-9.414-0.028-17.039-7.653-17.067-17.067V169.688z"/>
	</g>
	<g>
		<path style="fill:#FFFFFF;" d="M0.011,275.584c0.202-19.195,2.558-38.307,7.024-56.976
			c12.664-50.658,41.635-95.747,82.448-128.318c25.645-20.25,55.072-35.182,86.558-43.922l4.441,16.479
			c-29.222,8.129-56.534,21.991-80.347,40.778C62.253,133.854,35.36,175.7,23.599,222.717c-4.133,17.325-6.32,35.057-6.522,52.866
			H0.011z"/>
		<g>
			<path style="fill:#428DFF;" d="M12.174,213.874c0.362,0.442,0.785,0.831,1.255,1.156c0.396,0.365,0.846,0.667,1.334,0.893
				c0.517,0.239,1.05,0.441,1.596,0.606c2.203,0.545,4.528,0.284,6.556-0.734c0.965-0.54,1.821-1.257,2.522-2.113
				c2.125-2.592,2.485-6.207,0.913-9.168c-0.558-0.984-1.286-1.861-2.15-2.592c-0.839-0.748-1.811-1.331-2.866-1.719
				c-2.124-0.725-4.449-0.572-6.46,0.425c-4.177,2.374-5.77,7.6-3.628,11.901L12.174,213.874z"/>
			<path style="fill:#428DFF;" d="M238.061,513.021c102.231-0.202,192.995-65.449,225.758-162.288
				c11.783,5.248,25.507,3.498,35.596-4.537c7.023-5.712,11.49-13.98,12.417-22.985c0.927-9.005-1.762-18.01-7.475-25.032
				l-35.917-44.15c-0.367-0.445-0.765-0.862-1.192-1.25c-0.746-0.825-1.512-1.6-2.308-2.325c-0.808-0.745-1.655-1.446-2.538-2.1
				c-0.842-0.638-1.708-1.233-2.646-1.813c-0.937-0.572-1.902-1.096-2.892-1.571c-0.942-0.463-1.892-0.883-2.938-1.283
				c-1.058-0.392-2.116-0.708-3.179-0.987c-0.992-0.267-1.979-0.512-3.029-0.696c-1.219-0.194-2.447-0.324-3.679-0.387
				c-0.941-0.119-1.89-0.155-2.837-0.108c-1.483,0.062-2.962,0.208-4.429,0.438c-0.744,0.079-1.484,0.196-2.217,0.35
				c-1.04,0.249-2.065,0.555-3.071,0.917l2.787,8.067l-3.658-7.779c-0.788,0.236-1.563,0.514-2.321,0.833
				c-0.766,0.35-1.513,0.741-2.237,1.171l4.279,7.383l-5.292-6.825c-0.662,0.358-1.317,0.721-2.046,1.192
				c-0.261,0.147-0.514,0.307-0.758,0.479l-45.85,32.488c-11.817,8.366-17.067,23.28-13.096,37.204
				c3.971,13.924,16.298,23.825,30.75,24.7c-29.651,70.237-102.533,112.048-178.133,102.19S80.588,375.356,69.939,299.865
				c-10.649-75.492,30.396-148.808,100.318-179.194c1.484,13.886,11.293,25.461,24.748,29.201s27.831-1.11,36.268-12.239
				l33.963-44.704c0.195-0.249,0.366-0.515,0.513-0.796c0.694-0.998,1.337-2.032,1.925-3.096c0.5-0.862,0.983-1.721,1.388-2.608
				c0.427-0.964,0.805-1.948,1.133-2.95c0.383-1.1,0.746-2.196,1.021-3.338c0.204-0.875,0.346-1.771,0.508-2.875
				c0.174-1.079,0.285-2.167,0.333-3.258c0.075-0.575,0.121-1.154,0.137-1.733c0.004-0.541-0.041-1.08-0.133-1.613
				c-0.057-1.248-0.182-2.491-0.375-3.725c-0.158-1.004-0.35-1.983-0.592-2.929c-0.284-1.129-0.627-2.241-1.029-3.333
				c-0.354-0.975-0.725-1.929-1.142-2.808c-0.492-1.04-1.037-2.054-1.633-3.038c-0.529-0.879-1.067-1.746-1.667-2.575
				c-0.65-0.892-1.371-1.738-2.129-2.592c-0.625-0.724-1.287-1.415-1.983-2.071c-0.258-0.296-0.892-0.937-1.188-1.196L217.169,9.28
				c-12.243-10.565-30.225-11.073-43.044-1.215c-12.82,9.857-16.949,27.365-9.884,41.912c-27.075,8.986-52.374,22.628-74.758,40.314
				c-25.453,20.488-46.511,45.9-61.914,74.716l-3.937,7.929c-1.076,2.029-1.255,4.416-0.493,6.584
				c0.762,2.167,2.395,3.917,4.504,4.827c4.246,1.801,9.166,0.074,11.355-3.985l3.649-7.359
				c14.308-26.753,33.86-50.348,57.489-69.378c23.813-18.787,51.125-32.648,80.346-40.778l-0.046-0.171
				c1.668-0.397,3.174-1.297,4.313-2.578c3.02-3.59,2.587-8.942-0.971-12c-4.623-3.976-6.773-10.116-5.641-16.108
				c1.132-5.992,5.374-10.924,11.129-12.94c5.755-2.015,12.148-0.808,16.771,3.168l42.679,36.666c0.183,0.208,0.696,0.742,0.9,0.929
				c0.404,0.379,0.771,0.792,1.129,1.192c0.379,0.409,0.736,0.838,1.071,1.283c0.308,0.421,0.571,0.871,0.821,1.288
				c0.305,0.498,0.585,1.011,0.838,1.537c0.217,0.458,0.387,0.938,0.546,1.375c0.202,0.544,0.375,1.097,0.521,1.658
				c0.121,0.492,0.212,0.987,0.287,1.446c0.096,0.623,0.159,1.25,0.188,1.879c0.013,0.271,0.038,0.542,0.071,0.825
				c-0.025,0.242-0.042,0.479-0.05,0.621c-0.036,0.694-0.112,1.386-0.229,2.071c-0.058,0.421-0.113,0.837-0.204,1.229
				c-0.176,0.658-0.386,1.306-0.629,1.942c-0.123,0.396-0.266,0.785-0.429,1.167c-0.175,0.387-0.404,0.75-0.867,1.546
				c-0.254,0.45-0.496,0.9-1.029,1.729l-33.967,44.713c-5.816,7.308-16.354,8.744-23.913,3.258
				c-6.043-4.65-8.264-12.746-5.442-19.829c1.226-3.096,0.54-6.622-1.758-9.032c-2.298-2.41-5.787-3.264-8.938-2.188
				C94.995,128.103,43.363,210.318,53.508,297.167s79.336,154.951,166.335,163.716c86.999,8.765,168.384-44.165,195.65-127.245
				c1.077-3.265,0.089-6.858-2.506-9.114c-2.595-2.256-6.289-2.735-9.374-1.215c-7.966,3.933-17.617,1.078-22.162-6.556
				c-4.544-7.634-2.452-17.479,4.803-22.606l45.542-32.271c0.175-0.104,0.341-0.212,0.475-0.304
				c0.258-0.175,0.542-0.308,1.521-0.837c0.058-0.029,0.763-0.429,0.821-0.463l2.446-0.925c0.53-0.204,1.081-0.352,1.642-0.442
				c0.079-0.009,0.833-0.1,0.912-0.112c0.642-0.111,1.291-0.183,1.942-0.217l0.404-0.025c0.354,0.042,0.858,0.096,1.029,0.108
				c0.614,0.021,1.226,0.076,1.833,0.167c0.512,0.087,1.008,0.225,1.529,0.367c0.55,0.146,1.092,0.296,1.571,0.475
				c0.5,0.188,0.975,0.408,1.483,0.654c0.496,0.242,0.979,0.496,1.421,0.767c0.464,0.286,0.914,0.596,1.346,0.929
				c0.434,0.318,0.85,0.661,1.246,1.025c0.417,0.379,0.8,0.779,1.192,1.208c0.283,0.317,0.604,0.625,0.6,0.563l35.904,44.133
				c5.948,7.313,4.842,18.064-2.471,24.013c-7.039,5.507-17.115,4.735-23.233-1.779c-2.095-2.281-5.262-3.247-8.273-2.524
				c-3.012,0.723-5.395,3.02-6.227,6.004c-29.808,106.192-133.34,174.156-242.627,159.275
				C98.996,479.052,17.406,385.879,17.077,275.584l0.702-16.419c0.277-5.469,1.288-10.871,1.884-16.311
				c0.506-4.56-2.546-8.755-7.04-9.678c-2.264-0.45-4.613,0.065-6.48,1.421s-3.084,3.43-3.357,5.722
				C2.127,246.18,1.068,252.01,0.76,257.9l-0.749,17.684C0.327,406.825,106.819,513.043,238.061,513.021z"/>
			<path style="fill:#428DFF;" d="M349.877,52.221c-4.713,0-8.533,3.821-8.533,8.533v17.268c-9.961,0.87-18.856,6.582-23.792,15.278
				c-0.354,0.652-0.62,1.349-0.792,2.071l-17.846,74.325c-0.018,0.286-0.021,0.573-0.009,0.86c-0.103,0.371-0.18,0.749-0.229,1.131
				v25.6c0.015,14.132,11.468,25.585,25.6,25.6h153.6c14.132-0.015,25.585-11.468,25.6-25.6v-25.6
				c-0.049-0.382-0.125-0.76-0.229-1.132c0.012-0.287,0.009-0.574-0.009-0.86l-17.846-74.325c-0.172-0.722-0.438-1.418-0.792-2.071
				c-4.877-8.752-13.805-14.488-23.792-15.284V60.755c0-4.713-3.82-8.533-8.533-8.533s-8.533,3.821-8.533,8.533v17.067h-85.333
				V60.755C358.411,56.042,354.59,52.221,349.877,52.221z M486.411,197.288c-0.006,4.71-3.823,8.527-8.533,8.533h-153.6
				c-4.71-0.006-8.527-3.823-8.533-8.533v-17.067h170.667V197.288z M384.011,146.088c0-9.426,7.641-17.067,17.067-17.067
				s17.067,7.641,17.067,17.067c0,9.426-7.641,17.067-17.067,17.067C391.655,163.145,384.02,155.51,384.011,146.088z M469.098,100.6
				l15.021,62.554h-53.657c3.075-5.164,4.714-11.056,4.748-17.067c0-18.851-15.282-34.133-34.133-34.133
				c-18.851,0-34.133,15.282-34.133,34.133c0.034,6.01,1.674,11.902,4.748,17.067h-53.657l15.017-62.546
				c2.608-3.628,6.816-5.761,11.283-5.721h113.483C462.292,94.81,466.514,96.949,469.098,100.6z"/>
			<path style="fill:#428DFF;" d="M462.156,18.088H339.998c-27.421-0.07-49.724,22.071-49.854,49.492v10.242
				c0,4.713,3.821,8.533,8.533,8.533s8.533-3.821,8.533-8.533V67.58c0.121-17.999,14.788-32.504,32.788-32.425h122.158
				c17.999-0.079,32.667,14.426,32.788,32.425v10.242c0,4.713,3.821,8.533,8.533,8.533c4.713,0,8.533-3.821,8.533-8.533V67.58
				C511.88,40.159,489.578,18.018,462.156,18.088z"/>
			<path style="fill:#428DFF;" d="M290.144,261.288c-4.713,0-8.533,3.82-8.533,8.533v21.333H244.19l36.516-72.983
				c1.369-2.726,1.178-5.976-0.501-8.523c-1.679-2.547-4.59-4.004-7.636-3.82c-3.045,0.184-5.76,1.979-7.121,4.71l-42.7,85.333
				c-1.323,2.645-1.182,5.786,0.372,8.302c1.554,2.516,4.3,4.048,7.257,4.048h51.233v25.6c0,4.713,3.821,8.533,8.533,8.533
				c4.713,0,8.533-3.82,8.533-8.533v-25.6h25.6c4.713,0,8.533-3.82,8.533-8.533s-3.821-8.533-8.533-8.533h-25.6v-21.333
				C298.677,265.108,294.857,261.288,290.144,261.288z"/>
			<path style="fill:#428DFF;" d="M115.656,326.192c-3.535,1.773-5.389,5.743-4.48,9.592c0.91,3.849,4.345,6.568,8.3,6.57h76.8
				c4.713,0,8.533-3.82,8.533-8.533s-3.82-8.533-8.533-8.533h-47.483c21.067-15.825,47.483-42.5,47.483-76.8
				c0-17.745-10.983-33.637-27.582-39.911c-16.599-6.274-35.348-1.619-47.085,11.69c-3.118,3.535-2.78,8.928,0.754,12.046
				c3.535,3.118,8.928,2.78,12.046-0.754c7.041-7.987,18.291-10.782,28.251-7.018c9.96,3.764,16.55,13.3,16.549,23.947
				C179.211,293.755,116.29,325.871,115.656,326.192z"/>
		</g>
	</g>
</g>
<g>
</g>
<g>
</g>
<g>
</g>
<g>
</g>
<g>
</g>
<g>
</g>
<g>
</g>
<g>
</g>
<g>
</g>
<g>
</g>
<g>
</g>
<g>
</g>
<g>
</g>
<g>
</g>
<g>
</g>
</svg>
