<?xml version="1.0" encoding="iso-8859-1"?>
<!-- Generator: Adobe Illustrator 19.0.0, SVG Export Plug-In . SVG Version: 6.00 Build 0)  -->
<svg version="1.1" id="Capa_1" xmlns="http://www.w3.org/2000/svg" xmlns:xlink="http://www.w3.org/1999/xlink" x="0px" y="0px"
	 viewBox="0 0 512 512" style="enable-background:new 0 0 512 512;" xml:space="preserve">
<g>
	<g transform="translate(1 1)">
		<path style="fill:#A4C2F7;" d="M442.734,144.067V408.6H67.267V144.067c0.028-9.414,7.652-17.039,17.067-17.067h341.333
			C435.081,127.028,442.706,134.653,442.734,144.067z"/>
		
			<linearGradient id="SVGID_1_" gradientUnits="userSpaceOnUse" x1="-49.8038" y1="651.5407" x2="-48.9157" y2="650.4373" gradientTransform="matrix(349.8667 0 0 -281.6 17511.5273 183591.3281)">
			<stop  offset="0" style="stop-color:#D3DFF2"/>
			<stop  offset="0.1717" style="stop-color:#D3DFF2"/>
			<stop  offset="0.2" style="stop-color:#D3DFF2"/>
			<stop  offset="0.2002" style="stop-color:#DAE2F2"/>
			<stop  offset="0.2007" style="stop-color:#EBEAF2"/>
			<stop  offset="0.2014" style="stop-color:#F6EFF2"/>
			<stop  offset="0.2023" style="stop-color:#FDF2F2"/>
			<stop  offset="0.205" style="stop-color:#FFF3F2"/>
			<stop  offset="0.2522" style="stop-color:#FFF3F2"/>
			<stop  offset="0.26" style="stop-color:#FFF3F2"/>
			<stop  offset="0.26" style="stop-color:#D3DFF2"/>
			<stop  offset="0.3974" style="stop-color:#D3DFF2"/>
			<stop  offset="0.42" style="stop-color:#D3DFF2"/>
			<stop  offset="0.4202" style="stop-color:#DAE2F2"/>
			<stop  offset="0.4207" style="stop-color:#EBEAF2"/>
			<stop  offset="0.4214" style="stop-color:#F6EFF2"/>
			<stop  offset="0.4223" style="stop-color:#FDF2F2"/>
			<stop  offset="0.425" style="stop-color:#FFF3F2"/>
			<stop  offset="0.4894" style="stop-color:#FFF3F2"/>
			<stop  offset="0.5" style="stop-color:#FFF3F2"/>
			<stop  offset="0.5" style="stop-color:#F8F0F2"/>
			<stop  offset="0.5001" style="stop-color:#E7E8F2"/>
			<stop  offset="0.5003" style="stop-color:#DCE3F2"/>
			<stop  offset="0.5005" style="stop-color:#D5E0F2"/>
			<stop  offset="0.501" style="stop-color:#D3DFF2"/>
			<stop  offset="0.7062" style="stop-color:#D3DFF2"/>
			<stop  offset="0.74" style="stop-color:#D3DFF2"/>
			<stop  offset="0.741" style="stop-color:#FFF3F2"/>
			<stop  offset="0.8346" style="stop-color:#FFF3F2"/>
			<stop  offset="0.85" style="stop-color:#FFF3F2"/>
			<stop  offset="0.851" style="stop-color:#D3DFF2"/>
		</linearGradient>
		<path style="fill:url(#SVGID_1_);" d="M417.134,144.067V408.6H67.267V144.067c0.028-9.414,7.652-17.039,17.067-17.067h315.733
			C409.481,127.028,417.106,134.653,417.134,144.067z"/>
		<polygon style="fill:#7FABFA;" points="502.467,468.334 502.467,485.4 7.534,485.4 7.534,468.334 67.267,391.534 442.734,391.534 
					"/>
		<polygon style="fill:#A4C2F7;" points="476.867,468.334 476.867,485.4 7.534,485.4 7.534,468.334 67.267,391.534 417.134,391.534 
					"/>
		<path style="fill:#7FABFA;" d="M502.467,468.334V485.4c-0.028,9.414-7.652,17.039-17.067,17.067H24.6
			c-9.414-0.028-17.039-7.652-17.067-17.067v-17.067H502.467z"/>
		<g>
			<path style="fill:#A4C2F7;" d="M476.867,468.334V485.4c-0.028,9.414-7.653,17.039-17.067,17.067H24.6
				c-9.414-0.028-17.039-7.652-17.067-17.067v-17.067H476.867z"/>
			<path style="fill:#A4C2F7;" d="M357.386,108.238c0.518,29.667-11.875,58.097-33.963,77.909
				c-16.708,15.581-26.065,37.488-25.771,60.331h-85.333c0.02-11.516-2.363-22.909-6.997-33.451
				c-4.622-10.532-11.36-20.001-19.797-27.818c-29.254-27.005-40.201-68.519-28.068-106.438s45.147-65.366,84.644-70.373
				c5.711-0.772,11.48-1.029,17.237-0.768C313.28,10.413,355.994,54.242,357.386,108.238z"/>
		</g>
		<path style="fill:#E3E7F2;" d="M331.786,108.238c0.518,29.667-11.875,58.097-33.963,77.909
			c-16.708,15.581-26.065,37.488-25.771,60.331h-59.733c0.02-11.516-2.363-22.909-6.997-33.451
			c-4.622-10.532-11.36-20.001-19.797-27.818c-29.254-27.005-40.201-68.519-28.068-106.438s45.147-65.366,84.644-70.373
			C292.468,15.118,330.487,57.441,331.786,108.238z"/>
		<g>
			<path style="fill:#A4C2F7;" d="M306.186,263.544c-0.068,9.397-7.669,16.999-17.067,17.067h-68.693
				c-9.241-0.272-16.602-7.822-16.64-17.067c0.068-9.397,7.669-16.999,17.067-17.067h68.267
				C298.533,246.505,306.158,254.13,306.186,263.544z"/>
			<path style="fill:#A4C2F7;" d="M297.653,297.678c-0.068,9.397-7.669,16.999-17.067,17.067h-51.2
				c-9.414-0.028-17.039-7.652-17.067-17.067c0.068-9.397,7.669-16.999,17.067-17.067h51.2
				C290,280.639,297.625,288.264,297.653,297.678z"/>
		</g>
		<g>
			<path style="fill:#D4E1F4;" d="M280.586,263.544c-0.068,9.397-7.669,16.999-17.067,17.067h-43.093
				c-9.241-0.272-16.602-7.822-16.64-17.067c0.068-9.397,7.669-16.999,17.067-17.067h42.667
				C272.933,246.505,280.558,254.13,280.586,263.544z"/>
			<path style="fill:#D4E1F4;" d="M272.053,297.678c-0.068,9.397-7.669,16.999-17.067,17.067h-25.6
				c-9.414-0.028-17.039-7.652-17.067-17.067c0.068-9.397,7.669-16.999,17.067-17.067h26.112
				C264.709,280.92,272.024,288.462,272.053,297.678z"/>
			<path style="fill:#D4E1F4;" d="M237.919,314.744h34.133v17.067c0,9.426-7.641,17.067-17.067,17.067
				c-9.426,0-17.067-7.641-17.067-17.067V314.744z"/>
		</g>
	</g>
	<path style="fill:#FFFFFF;" d="M25.6,503.467h25.6c-9.414-0.028-17.039-7.652-17.067-17.067v-17.067l59.733-76.8V145.067
		c0.028-9.414,7.652-17.039,17.067-17.067h-25.6c-9.414,0.028-17.039,7.652-17.067,17.067v247.467l-59.733,76.8V486.4
		C8.561,495.815,16.186,503.439,25.6,503.467z"/>
	<g>
		<polygon style="fill:#FFFFFF;" points="76.8,145.067 76.8,256 76.8,392.534 59.734,392.534 59.734,256 59.734,145.067 		"/>
		<g>
			<path style="fill:#428DFF;" d="M511.344,466.085c-0.051-0.124-0.139-0.22-0.195-0.341c-0.251-0.583-0.568-1.137-0.944-1.648
				l-57.938-74.491V145.067c-0.015-14.132-11.468-25.585-25.6-25.6h-60.138c0.267-3.455,0.446-6.927,0.388-10.425
				C365.252,50.618,319.052,3.238,260.688,0.1c-30.21-1.286-59.635,9.819-81.462,30.743s-34.166,49.853-34.158,80.09
				c0,2.861,0.226,5.698,0.447,8.533h-60.18c-14.132,0.015-25.585,11.468-25.6,25.6V179.2c0,4.713,3.821,8.533,8.533,8.533
				c4.713,0,8.533-3.821,8.533-8.533v-34.133c0.006-4.71,3.823-8.527,8.533-8.533h62.857c5.065,21.458,16.39,40.927,32.539,55.938
				c14.839,13.774,23.485,32.958,23.977,53.198c-5.945,5.331-9.036,13.148-8.344,21.102c0.692,7.955,5.087,15.12,11.863,19.344
				c-2.217,3.813-3.398,8.14-3.426,12.551c0.015,14.132,11.468,25.585,25.6,25.6v8.533c0,14.138,11.462,25.6,25.6,25.6
				s25.6-11.462,25.6-25.6v-8.533c14.132-0.015,25.585-11.468,25.6-25.6c-0.028-4.411-1.208-8.738-3.425-12.551
				c6.777-4.224,11.172-11.391,11.863-19.347c0.691-7.956-2.402-15.774-8.349-21.103c0.132-19.804,8.409-38.681,22.886-52.194
				c16.735-15.12,28.463-34.982,33.62-56.937h62.871c4.71,0.006,8.527,3.823,8.533,8.533V384H76.8V247.467
				c0-4.713-3.821-8.533-8.533-8.533c-4.713,0-8.533,3.821-8.533,8.533v142.138L1.796,464.096c-0.376,0.512-0.693,1.065-0.944,1.648
				c-0.057,0.121-0.144,0.217-0.195,0.341c-0.37,0.933-0.57,1.924-0.592,2.928C0.061,469.125,0,469.22,0,469.334V486.4
				c0.015,14.132,11.468,25.585,25.6,25.6h460.8c14.132-0.015,25.585-11.468,25.6-25.6v-17.067c0-0.114-0.06-0.208-0.065-0.321
				C511.914,468.01,511.714,467.018,511.344,466.085z M298.667,264.534c-0.006,4.71-3.823,8.527-8.533,8.533h-68.267
				c-4.713,0-8.533-3.821-8.533-8.533c0-4.713,3.821-8.533,8.533-8.533h68.267C294.844,256.007,298.661,259.823,298.667,264.534z
				 M264.534,332.8c0,4.713-3.821,8.533-8.533,8.533c-4.713,0-8.533-3.82-8.533-8.533v-8.533h17.067V332.8z M281.6,307.2h-51.2
				c-4.713,0-8.533-3.821-8.533-8.533c0-4.713,3.821-8.533,8.533-8.533h51.2c4.713,0,8.533,3.821,8.533,8.533
				C290.134,303.38,286.313,307.2,281.6,307.2z M318.759,180.788c-16.417,15.122-26.507,35.894-28.246,58.146h-69.046
				c-2.137-22.579-12.514-43.58-29.15-58.996c-19.216-17.805-30.152-42.807-30.184-69.004c-0.008-25.59,10.434-50.072,28.909-67.779
				s43.379-27.1,68.945-26.005c49.377,2.658,88.46,42.746,89.862,92.175C350.312,136.522,338.972,162.586,318.759,180.788z
				 M72.442,401.067h367.117l46.463,59.733H25.979L72.442,401.067z M494.934,486.4c-0.006,4.71-3.823,8.527-8.533,8.533H25.6
				c-4.71-0.006-8.527-3.823-8.533-8.533v-8.533h477.867V486.4z"/>
			<path style="fill:#428DFF;" d="M392.534,426.667H119.467c-4.713,0-8.533,3.82-8.533,8.533s3.821,8.533,8.533,8.533h273.067
				c4.713,0,8.533-3.82,8.533-8.533S397.246,426.667,392.534,426.667z"/>
			<path style="fill:#428DFF;" d="M85.334,426.667H76.8c-4.713,0-8.533,3.82-8.533,8.533s3.821,8.533,8.533,8.533h8.533
				c4.713,0,8.533-3.82,8.533-8.533S90.046,426.667,85.334,426.667z"/>
			<path style="fill:#428DFF;" d="M435.2,426.667h-8.533c-4.713,0-8.533,3.82-8.533,8.533s3.82,8.533,8.533,8.533h8.533
				c4.713,0,8.533-3.82,8.533-8.533S439.913,426.667,435.2,426.667z"/>
			<path style="fill:#428DFF;" d="M68.267,221.867c3.45-0.014,6.556-2.096,7.879-5.282c1.323-3.187,0.606-6.856-1.82-9.31
				l-1.279-1.025c-0.476-0.324-0.993-0.583-1.538-0.771c-0.484-0.245-1.003-0.417-1.538-0.508c-0.563-0.096-1.133-0.153-1.704-0.171
				c-2.259,0.031-4.423,0.915-6.059,2.475c-2.07,1.994-2.979,4.908-2.409,7.726c0.57,2.818,2.539,5.149,5.222,6.183
				C66.048,221.621,67.151,221.854,68.267,221.867z"/>
			<path style="fill:#428DFF;" d="M256,34.134c-4.713,0-8.533,3.821-8.533,8.533S251.287,51.2,256,51.2
				c32.974,0.037,59.696,26.759,59.733,59.733c0,4.713,3.821,8.533,8.533,8.533c4.713,0,8.533-3.821,8.533-8.533
				C332.751,68.539,298.395,34.183,256,34.134z"/>
		</g>
	</g>
</g>
<g>
</g>
<g>
</g>
<g>
</g>
<g>
</g>
<g>
</g>
<g>
</g>
<g>
</g>
<g>
</g>
<g>
</g>
<g>
</g>
<g>
</g>
<g>
</g>
<g>
</g>
<g>
</g>
<g>
</g>
</svg>
