<?xml version="1.0" encoding="iso-8859-1"?>
<!-- Generator: Adobe Illustrator 19.0.0, SVG Export Plug-In . SVG Version: 6.00 Build 0)  -->
<svg version="1.1" id="Capa_1" xmlns="http://www.w3.org/2000/svg" xmlns:xlink="http://www.w3.org/1999/xlink" x="0px" y="0px"
	 viewBox="0 0 512.009 512.009" style="enable-background:new 0 0 512.009 512.009;" xml:space="preserve">
<g transform="translate(0 -1)">
	<g transform="translate(1 2)">
		<path style="fill:#A4C2F7;" d="M442.738,144.075v264.533H67.271V144.075c0.028-9.414,7.652-17.039,17.067-17.067h341.333
			C435.085,127.036,442.71,134.661,442.738,144.075z"/>
		
			<linearGradient id="SVGID_1_" gradientUnits="userSpaceOnUse" x1="-49.7996" y1="651.5491" x2="-48.9115" y2="650.4457" gradientTransform="matrix(349.8667 0 0 -281.6 17510.0664 183593.6875)">
			<stop  offset="0" style="stop-color:#D3DFF2"/>
			<stop  offset="0.1717" style="stop-color:#D3DFF2"/>
			<stop  offset="0.2" style="stop-color:#D3DFF2"/>
			<stop  offset="0.2002" style="stop-color:#DAE2F2"/>
			<stop  offset="0.2007" style="stop-color:#EBEAF2"/>
			<stop  offset="0.2014" style="stop-color:#F6EFF2"/>
			<stop  offset="0.2023" style="stop-color:#FDF2F2"/>
			<stop  offset="0.205" style="stop-color:#FFF3F2"/>
			<stop  offset="0.2522" style="stop-color:#FFF3F2"/>
			<stop  offset="0.26" style="stop-color:#FFF3F2"/>
			<stop  offset="0.26" style="stop-color:#D3DFF2"/>
			<stop  offset="0.3974" style="stop-color:#D3DFF2"/>
			<stop  offset="0.42" style="stop-color:#D3DFF2"/>
			<stop  offset="0.4202" style="stop-color:#DAE2F2"/>
			<stop  offset="0.4207" style="stop-color:#EBEAF2"/>
			<stop  offset="0.4214" style="stop-color:#F6EFF2"/>
			<stop  offset="0.4223" style="stop-color:#FDF2F2"/>
			<stop  offset="0.425" style="stop-color:#FFF3F2"/>
			<stop  offset="0.4894" style="stop-color:#FFF3F2"/>
			<stop  offset="0.5" style="stop-color:#FFF3F2"/>
			<stop  offset="0.5" style="stop-color:#F8F0F2"/>
			<stop  offset="0.5001" style="stop-color:#E7E8F2"/>
			<stop  offset="0.5003" style="stop-color:#DCE3F2"/>
			<stop  offset="0.5005" style="stop-color:#D5E0F2"/>
			<stop  offset="0.501" style="stop-color:#D3DFF2"/>
			<stop  offset="0.7062" style="stop-color:#D3DFF2"/>
			<stop  offset="0.74" style="stop-color:#D3DFF2"/>
			<stop  offset="0.741" style="stop-color:#FFF3F2"/>
			<stop  offset="0.8346" style="stop-color:#FFF3F2"/>
			<stop  offset="0.85" style="stop-color:#FFF3F2"/>
			<stop  offset="0.851" style="stop-color:#D3DFF2"/>
		</linearGradient>
		<path style="fill:url(#SVGID_1_);" d="M417.138,144.075v264.533H67.271V144.075c0.028-9.414,7.652-17.039,17.067-17.067h315.733
			C409.485,127.036,417.11,134.661,417.138,144.075z"/>
		<polygon style="fill:#7FABFA;" points="502.471,468.342 502.471,485.409 7.538,485.409 7.538,468.342 67.271,391.542 
			442.738,391.542 		"/>
		<polygon style="fill:#A4C2F7;" points="476.871,468.342 476.871,485.409 7.538,485.409 7.538,468.342 67.271,391.542 
			417.138,391.542 		"/>
		<path style="fill:#7FABFA;" d="M502.471,468.342v17.067c-0.028,9.414-7.653,17.039-17.067,17.067h-460.8
			c-9.414-0.028-17.039-7.653-17.067-17.067v-17.067H502.471z"/>
		<path style="fill:#A4C2F7;" d="M476.871,468.342v17.067c-0.028,9.414-7.652,17.039-17.067,17.067h-435.2
			c-9.414-0.028-17.039-7.653-17.067-17.067v-17.067H476.871z"/>
		<g>
			<path style="fill:#E3E7F2;" d="M255.004,280.609c-9.425,0-17.066-7.641-17.067-17.067v-18.683
				c0.048-16.939,12.635-31.224,29.433-33.404c43.21-6.247,74.696-44.161,72.9-87.783c-2.358-44.234-37.692-79.571-81.925-81.933
				c-23.194-0.908-45.757,7.671-62.488,23.76s-26.187,38.299-26.187,61.511c0,9.426-7.641,17.067-17.067,17.067
				c-9.426,0-17.067-7.641-17.067-17.067c0-32.49,13.233-63.578,36.649-86.102s54.995-34.539,87.46-33.277
				c61.687,2.4,111.388,51.4,114.664,113.047c3.275,61.647-40.954,115.638-102.039,124.561l-0.2,18.304
				C272.071,272.968,264.43,280.608,255.004,280.609z"/>
			<circle style="fill:#E3E7F2;" cx="255.004" cy="331.809" r="17.067"/>
		</g>
	</g>
	<path style="fill:#FFFFFF;" d="M25.604,504.475h25.6c-9.414-0.028-17.039-7.653-17.067-17.067v-17.067l59.733-76.8V146.075
		c0.028-9.414,7.652-17.039,17.067-17.067h-25.6c-9.414,0.028-17.039,7.652-17.067,17.067v247.467l-59.733,76.8v17.067
		C8.565,496.823,16.19,504.448,25.604,504.475z"/>
	<g>
		<polygon style="fill:#FFFFFF;" points="76.804,146.075 76.804,257.009 76.804,393.542 59.738,393.542 59.738,257.009 
			59.738,146.075 		"/>
		<g>
			<path style="fill:#428DFF;" d="M511.94,470.02c-0.023-0.999-0.222-1.986-0.588-2.915c-0.06-0.144-0.161-0.257-0.228-0.396
				c-0.247-0.567-0.556-1.105-0.92-1.604l-57.933-74.486V146.075c-0.015-14.132-11.468-25.585-25.6-25.6h-43.069
				c-3.281-49.66-35.07-92.908-81.488-110.86s-99.034-7.351-134.877,27.177c-22.991,22.028-36.846,51.904-38.809,83.683H85.338
				c-14.132,0.015-25.585,11.468-25.6,25.6v34.133c0,4.713,3.821,8.533,8.533,8.533c4.713,0,8.533-3.821,8.533-8.533v-34.133
				c0.005-4.711,3.822-8.529,8.533-8.533h44.24c3.564,10.22,13.203,17.067,24.027,17.067c10.824,0,20.463-6.847,24.027-17.067
				h154.621c-3.77,34.708-30.554,62.464-65.106,67.467c-21.007,2.767-36.717,20.662-36.742,41.85v18.683
				c-0.025,14.138,11.416,25.621,25.554,25.646c14.138,0.025,25.621-11.416,25.646-25.554l0.125-11.208
				c56.463-11.491,98.228-59.382,101.932-116.883h43.009c4.711,0.005,8.529,3.822,8.533,8.533v238.933h-358.4V248.475
				c0-4.713-3.821-8.533-8.533-8.533c-4.713,0-8.533,3.821-8.533,8.533v142.143L1.804,465.105c-0.365,0.501-0.675,1.04-0.923,1.609
				c-0.065,0.138-0.165,0.248-0.223,0.39c-0.367,0.93-0.567,1.917-0.59,2.917c-0.004,0.113-0.065,0.208-0.065,0.322v17.067
				c0.015,14.132,11.468,25.585,25.6,25.6h460.8c14.132-0.015,25.585-11.468,25.6-25.6v-17.067
				C512.004,470.228,511.944,470.133,511.94,470.02z M179.7,120.475c4.452-40.025,39.081-69.802,79.321-68.208
				c37.688,2.049,68.516,30.761,73.237,68.208H179.7z M272.046,238.792c-4.16,0.607-7.26,4.15-7.308,8.354l-0.2,18.396
				c0,4.713-3.821,8.533-8.533,8.533c-4.713,0-8.533-3.82-8.533-8.533v-18.683c0.076-12.689,9.537-23.361,22.125-24.958
				c45.919-6.65,80.031-45.944,80.165-92.342c0.013-0.192,0.11-0.355,0.11-0.549c0-0.179-0.092-0.329-0.102-0.505
				c-0.005-1.056,0.068-2.095,0.027-3.157c-2.592-48.655-41.453-87.527-90.108-90.133c-1.3-0.054-2.6-0.081-3.9-0.079
				c-51.755,0.13-93.644,42.119-93.65,93.875c0,4.713-3.821,8.533-8.533,8.533c-4.713,0-8.533-3.82-8.533-8.533
				c-0.001-30.171,12.286-59.04,34.031-79.955c21.745-20.915,51.071-32.07,81.219-30.895c57.277,2.232,103.424,47.73,106.466,104.97
				S328.764,230.502,272.046,238.792L272.046,238.792z M72.446,402.075h367.117l46.458,59.733H25.988L72.446,402.075z
				 M494.938,487.409c-0.005,4.711-3.822,8.529-8.533,8.533h-460.8c-4.711-0.005-8.529-3.822-8.533-8.533v-8.533h477.867V487.409z"
				/>
			<path style="fill:#428DFF;" d="M392.538,427.675H119.471c-4.713,0-8.533,3.821-8.533,8.533c0,4.713,3.821,8.533,8.533,8.533
				h273.067c4.713,0,8.533-3.821,8.533-8.533C401.071,431.496,397.251,427.675,392.538,427.675z"/>
			<path style="fill:#428DFF;" d="M85.338,427.675h-8.533c-4.713,0-8.533,3.821-8.533,8.533c0,4.713,3.821,8.533,8.533,8.533h8.533
				c4.713,0,8.533-3.821,8.533-8.533C93.871,431.496,90.051,427.675,85.338,427.675z"/>
			<path style="fill:#428DFF;" d="M435.204,427.675h-8.533c-4.713,0-8.533,3.821-8.533,8.533c0,4.713,3.82,8.533,8.533,8.533h8.533
				c4.713,0,8.533-3.821,8.533-8.533C443.738,431.496,439.917,427.675,435.204,427.675z"/>
			<path style="fill:#428DFF;" d="M68.271,222.875c3.45-0.014,6.556-2.096,7.879-5.282c1.323-3.187,0.606-6.856-1.82-9.31
				l-1.279-1.025c-0.476-0.324-0.993-0.583-1.538-0.771c-0.484-0.245-1.003-0.417-1.538-0.508c-0.563-0.096-1.133-0.153-1.704-0.171
				c-2.259,0.031-4.423,0.915-6.059,2.475c-2.07,1.994-2.979,4.908-2.409,7.726c0.57,2.818,2.539,5.149,5.222,6.183
				C66.052,222.63,67.155,222.862,68.271,222.875z"/>
			<path style="fill:#428DFF;" d="M281.604,333.809c0-14.138-11.461-25.6-25.6-25.6c-14.139,0-25.6,11.462-25.6,25.6
				c0,14.138,11.462,25.6,25.6,25.6C270.137,359.393,281.589,347.941,281.604,333.809z M247.471,333.809
				c0-4.713,3.82-8.533,8.533-8.533c4.713,0,8.533,3.82,8.533,8.533s-3.821,8.533-8.533,8.533
				C251.294,342.337,247.476,338.52,247.471,333.809z"/>
		</g>
	</g>
</g>
<g>
</g>
<g>
</g>
<g>
</g>
<g>
</g>
<g>
</g>
<g>
</g>
<g>
</g>
<g>
</g>
<g>
</g>
<g>
</g>
<g>
</g>
<g>
</g>
<g>
</g>
<g>
</g>
<g>
</g>
</svg>
