<?xml version="1.0" encoding="iso-8859-1"?>
<!-- Generator: Adobe Illustrator 19.0.0, SVG Export Plug-In . SVG Version: 6.00 Build 0)  -->
<svg version="1.1" id="Capa_1" xmlns="http://www.w3.org/2000/svg" xmlns:xlink="http://www.w3.org/1999/xlink" x="0px" y="0px"
	 viewBox="0 0 512.009 512.009" style="enable-background:new 0 0 512.009 512.009;" xml:space="preserve">
<g>
	<g transform="translate(1 1)">
		<path style="fill:#A4C2F7;" d="M33.133,7.538h256c14.138,0,25.6,11.462,25.6,25.6v443.733c0,14.138-11.462,25.6-25.6,25.6h-256
			c-14.138,0-25.6-11.462-25.6-25.6V33.138C7.533,18.999,18.995,7.538,33.133,7.538z"/>
		<path style="fill:#D4E1F4;" d="M33.133,7.538h230.4c14.138,0,25.6,11.462,25.6,25.6v443.733c0,14.138-11.462,25.6-25.6,25.6
			h-230.4c-14.138,0-25.6-11.462-25.6-25.6V33.138C7.533,18.999,18.995,7.538,33.133,7.538z"/>
		<path style="fill:#A4C2F7;" d="M280.6,50.204v409.6c-0.014,4.707-3.826,8.519-8.533,8.533H50.2
			c-4.707-0.014-8.519-3.826-8.533-8.533v-409.6c0.014-4.707,3.826-8.519,8.533-8.533h34.133c4.707,0.014,8.519,3.826,8.533,8.533
			v17.067c0.014,4.707,3.826,8.519,8.533,8.533h119.467c4.707-0.014,8.519-3.826,8.533-8.533V50.204
			c0.014-4.707,3.826-8.519,8.533-8.533h34.133C276.774,41.685,280.586,45.497,280.6,50.204z"/>
		
			<linearGradient id="SVGID_1_" gradientUnits="userSpaceOnUse" x1="-50.0086" y1="651.5476" x2="-48.5321" y2="650.8093" gradientTransform="matrix(213.3333 0 0 -426.6667 10659.334 278091.1563)">
			<stop  offset="0" style="stop-color:#D3DFF2"/>
			<stop  offset="0.1717" style="stop-color:#D3DFF2"/>
			<stop  offset="0.2" style="stop-color:#D3DFF2"/>
			<stop  offset="0.2002" style="stop-color:#DAE2F2"/>
			<stop  offset="0.2007" style="stop-color:#EBEAF2"/>
			<stop  offset="0.2014" style="stop-color:#F6EFF2"/>
			<stop  offset="0.2023" style="stop-color:#FDF2F2"/>
			<stop  offset="0.205" style="stop-color:#FFF3F2"/>
			<stop  offset="0.2522" style="stop-color:#FFF3F2"/>
			<stop  offset="0.26" style="stop-color:#FFF3F2"/>
			<stop  offset="0.26" style="stop-color:#D3DFF2"/>
			<stop  offset="0.3974" style="stop-color:#D3DFF2"/>
			<stop  offset="0.42" style="stop-color:#D3DFF2"/>
			<stop  offset="0.4202" style="stop-color:#DAE2F2"/>
			<stop  offset="0.4207" style="stop-color:#EBEAF2"/>
			<stop  offset="0.4214" style="stop-color:#F6EFF2"/>
			<stop  offset="0.4223" style="stop-color:#FDF2F2"/>
			<stop  offset="0.425" style="stop-color:#FFF3F2"/>
			<stop  offset="0.4894" style="stop-color:#FFF3F2"/>
			<stop  offset="0.5" style="stop-color:#FFF3F2"/>
			<stop  offset="0.5" style="stop-color:#F8F0F2"/>
			<stop  offset="0.5001" style="stop-color:#E7E8F2"/>
			<stop  offset="0.5003" style="stop-color:#DCE3F2"/>
			<stop  offset="0.5005" style="stop-color:#D5E0F2"/>
			<stop  offset="0.501" style="stop-color:#D3DFF2"/>
			<stop  offset="0.7062" style="stop-color:#D3DFF2"/>
			<stop  offset="0.74" style="stop-color:#D3DFF2"/>
			<stop  offset="0.741" style="stop-color:#FFF3F2"/>
			<stop  offset="0.8346" style="stop-color:#FFF3F2"/>
			<stop  offset="0.85" style="stop-color:#FFF3F2"/>
			<stop  offset="0.851" style="stop-color:#D3DFF2"/>
		</linearGradient>
		<path style="fill:url(#SVGID_1_);" d="M255,50.204v409.6c-0.014,4.707-3.826,8.519-8.533,8.533H50.2
			c-4.707-0.014-8.519-3.826-8.533-8.533v-409.6c0.014-4.707,3.826-8.519,8.533-8.533h34.133c4.707,0.014,8.519,3.826,8.533,8.533
			v17.067c0.014,4.707,3.826,8.519,8.533,8.533h119.467c4.707-0.014,8.519-3.826,8.533-8.533V50.204
			c0.014-4.707,3.826-8.519,8.533-8.533h8.533C251.174,41.685,254.986,45.497,255,50.204z"/>
		<path style="fill:#A4C2F7;" d="M502.467,145.522v184.832c0.374,9.817-7.252,18.091-17.067,18.517H280.6l-53.675,65.792
			c-2.45,2.435-6.125,3.158-9.315,1.834c-3.191-1.325-5.272-4.438-5.277-7.892v-59.733h-17.067c-3.438-0.027-6.78-1.132-9.557-3.157
			c-4.795-3.641-7.581-9.339-7.509-15.36V145.522c-0.374-9.817,7.252-18.091,17.067-18.517H485.4
			C495.215,127.43,502.841,135.705,502.467,145.522z"/>
		<g>
			<path style="fill:#E3E7F2;" d="M476.867,145.522v184.832c0.374,9.817-7.252,18.091-17.067,18.517H255l-42.667,52.309v-52.309
				h-17.067c-3.438-0.027-6.78-1.132-9.557-3.157c-4.795-3.641-7.581-9.339-7.509-15.36V145.522
				c-0.374-9.817,7.252-18.091,17.067-18.517H459.8C469.615,127.43,477.241,135.705,476.867,145.522z"/>
			<circle style="fill:#E3E7F2;" cx="348.867" cy="237.938" r="59.733"/>
		</g>
		<g>
			<circle style="fill:#FFFFFF;" cx="348.867" cy="237.938" r="25.6"/>
			<path style="fill:#FFFFFF;" d="M33.133,502.471h25.6c-6.792,0.009-13.309-2.685-18.112-7.488
				c-4.803-4.803-7.497-11.32-7.488-18.112V33.138c-0.009-6.792,2.685-13.309,7.488-18.112s11.32-7.497,18.112-7.488l-25.6,0
				c-6.792-0.009-13.309,2.685-18.112,7.488s-7.497,11.32-7.488,18.112v443.733c-0.009,6.792,2.685,13.309,7.488,18.112
				C19.824,499.786,26.341,502.48,33.133,502.471z"/>
		</g>
	</g>
	<g>
		<polygon style="fill:#FFFFFF;" points="17.067,34.138 17.067,145.071 17.067,477.871 0,477.871 0,145.071 0,34.138 		"/>
		<g>
			<path style="fill:#428DFF;" d="M426.667,230.404h-9.126c-0.754-6.171-2.354-12.208-4.755-17.942l7.856-4.537
				c2.649-1.519,4.284-4.339,4.287-7.393s-1.628-5.876-4.274-7.4c-2.647-1.524-5.906-1.517-8.546,0.018l-7.94,4.585
				c-3.755-4.937-8.161-9.343-13.098-13.097l4.588-7.946c1.526-2.641,1.527-5.896,0.002-8.537c-1.525-2.642-4.344-4.269-7.394-4.268
				c-3.05,0.001-5.868,1.629-7.392,4.272l-4.535,7.858c-5.734-2.4-11.77-3.999-17.94-4.753v-9.126c0-4.713-3.821-8.533-8.533-8.533
				c-4.713,0-8.533,3.821-8.533,8.533v9.126c-6.17,0.754-12.206,2.353-17.94,4.753l-4.535-7.858
				c-2.358-4.08-7.575-5.477-11.656-3.121c-4.081,2.356-5.481,7.573-3.127,11.655l4.588,7.946
				c-4.937,3.755-9.343,8.16-13.098,13.097l-7.94-4.585c-2.64-1.535-5.899-1.542-8.546-0.018c-2.647,1.524-4.277,4.346-4.274,7.4
				c0.003,3.054,1.637,5.874,4.287,7.393l7.856,4.537c-2.401,5.734-4.001,11.772-4.755,17.942h-9.126
				c-4.713,0-8.533,3.821-8.533,8.533s3.82,8.533,8.533,8.533h9.126c0.754,6.171,2.354,12.208,4.755,17.942l-7.856,4.537
				c-2.649,1.519-4.284,4.339-4.287,7.393c-0.003,3.054,1.628,5.876,4.274,7.4c2.647,1.524,5.906,1.517,8.546-0.018l7.94-4.585
				c3.755,4.937,8.161,9.343,13.098,13.097l-4.588,7.946c-2.353,4.082-0.954,9.299,3.127,11.655
				c4.081,2.356,9.298,0.958,11.656-3.121l4.535-7.858c5.734,2.4,11.77,3.999,17.94,4.753v9.126c0,4.713,3.821,8.533,8.533,8.533
				c4.713,0,8.533-3.82,8.533-8.533v-9.126c6.17-0.754,12.206-2.353,17.94-4.753l4.535,7.858c1.523,2.642,4.341,4.271,7.392,4.272
				c3.05,0.001,5.869-1.626,7.394-4.268s1.524-5.896-0.002-8.537l-4.588-7.946c4.937-3.755,9.343-8.16,13.098-13.097l7.94,4.585
				c1.293,0.752,2.762,1.148,4.258,1.146c3.864,0.005,7.249-2.587,8.251-6.319c1.002-3.732-0.629-7.671-3.976-9.602l-7.856-4.537
				c2.401-5.734,4.001-11.772,4.755-17.942h9.126c4.713,0,8.533-3.821,8.533-8.533S431.38,230.404,426.667,230.404z
				 M349.867,290.138c-28.277,0-51.2-22.923-51.2-51.2s22.923-51.2,51.2-51.2c28.277,0,51.2,22.923,51.2,51.2
				C401.036,267.202,378.131,290.107,349.867,290.138z"/>
			<path style="fill:#428DFF;" d="M8.533,110.938c2.259-0.034,4.422-0.918,6.059-2.475c3.3-3.365,3.3-8.752,0-12.117l-1.279-1.025
				c-0.476-0.324-0.993-0.583-1.538-0.771c-0.484-0.246-1.003-0.417-1.538-0.509c-0.563-0.096-1.133-0.153-1.704-0.171
				c-2.259,0.031-4.423,0.915-6.059,2.475c-3.222,3.397-3.222,8.721,0,12.117c0.815,0.77,1.77,1.379,2.813,1.792
				C6.314,110.693,7.417,110.925,8.533,110.938z"/>
			<path style="fill:#428DFF;" d="M486.4,119.471H324.267V34.138c-0.02-18.843-15.29-34.113-34.133-34.133h-256
				C15.29,0.024,0.02,15.295,0,34.138v34.133c0,4.713,3.821,8.533,8.533,8.533s8.533-3.821,8.533-8.533V34.138
				c0.011-9.421,7.645-17.056,17.067-17.067h256c9.421,0.011,17.056,7.645,17.067,17.067v85.333h-17.067V51.204
				c-0.011-9.421-7.645-17.056-17.067-17.067h-34.133c-9.421,0.011-17.056,7.645-17.067,17.067v17.067H102.4V51.204
				c-0.011-9.421-7.645-17.056-17.067-17.067H51.2c-9.421,0.011-17.056,7.645-17.067,17.067v409.6
				c0.011,9.421,7.645,17.056,17.067,17.067h221.867c9.421-0.011,17.056-7.645,17.067-17.067v-102.4H307.2v119.467
				c-0.011,9.421-7.645,17.056-17.067,17.067h-256c-9.421-0.011-17.056-7.645-17.067-17.067V136.538
				c0-4.713-3.821-8.533-8.533-8.533S0,131.825,0,136.538v341.333c0.02,18.843,15.29,34.113,34.133,34.133h256
				c18.843-0.02,34.113-15.29,34.133-34.133V358.404H486.4c14.519-0.418,25.966-12.5,25.6-27.021V146.492
				C512.366,131.971,500.919,119.889,486.4,119.471z M51.2,460.804v-409.6h34.133v17.067c0.011,9.421,7.645,17.056,17.067,17.067
				h119.467c9.421-0.011,17.056-7.645,17.067-17.067V51.204h34.133v68.267h-76.8c-14.519,0.418-25.966,12.5-25.6,27.021v184.892
				c-0.366,14.521,11.081,26.602,25.6,27.021h8.533v51.2c-0.007,6.906,4.151,13.134,10.531,15.777s13.724,1.178,18.602-3.71
				c0.202-0.203,0.394-0.415,0.575-0.637l38.558-47.222v86.993H51.2z M494.933,331.383c0.356,5.093-3.445,9.528-8.533,9.954H281.6
				c-0.142,0-0.26,0.074-0.401,0.081c-0.629,0.054-1.251,0.179-1.852,0.373c-0.465,0.099-0.92,0.238-1.361,0.413
				c-0.954,0.579-1.848,1.25-2.671,2.004c-0.096,0.107-0.231,0.153-0.323,0.266l-53.125,65.058v-59.663
				c0.001-2.263-0.898-4.434-2.499-6.035c-1.6-1.6-3.771-2.499-6.035-2.499h-17.067c-5.088-0.426-8.89-4.861-8.533-9.954V146.492
				c-0.356-5.093,3.445-9.528,8.533-9.954H486.4c5.088,0.426,8.89,4.861,8.533,9.954V331.383z"/>
			<path style="fill:#428DFF;" d="M187.733,51.204c4.713,0,8.533-3.821,8.533-8.533s-3.821-8.533-8.533-8.533h-17.067
				c-4.713,0-8.533,3.821-8.533,8.533s3.821,8.533,8.533,8.533H187.733z"/>
			<path style="fill:#428DFF;" d="M349.867,204.804c-18.851,0-34.133,15.282-34.133,34.133s15.282,34.133,34.133,34.133
				c18.851,0,34.133-15.282,34.133-34.133C383.98,220.095,368.71,204.824,349.867,204.804z M349.867,256.004
				c-9.426,0-17.067-7.641-17.067-17.067s7.641-17.067,17.067-17.067c9.426,0,17.067,7.641,17.067,17.067
				C366.923,248.359,359.288,255.993,349.867,256.004z"/>
			<path style="fill:#428DFF;" d="M138.15,51.034c0.566-0.082,1.115-0.255,1.625-0.513c0.543-0.188,1.059-0.447,1.533-0.771
				c0.425-0.338,0.858-0.679,1.284-1.021c3.3-3.365,3.3-8.752,0-12.117c-0.425-0.341-0.858-0.683-1.283-1.025
				c-0.475-0.324-0.99-0.583-1.533-0.771c-0.51-0.258-1.059-0.43-1.625-0.509c-1.093-0.258-2.232-0.258-3.325,0
				c-0.534,0.091-1.051,0.263-1.533,0.508c-0.546,0.187-1.064,0.447-1.542,0.771l-1.275,1.025c-3.3,3.365-3.3,8.752,0,12.117
				c1.627,1.573,3.796,2.459,6.059,2.475C137.076,51.189,137.616,51.132,138.15,51.034z"/>
		</g>
	</g>
</g>
<g>
</g>
<g>
</g>
<g>
</g>
<g>
</g>
<g>
</g>
<g>
</g>
<g>
</g>
<g>
</g>
<g>
</g>
<g>
</g>
<g>
</g>
<g>
</g>
<g>
</g>
<g>
</g>
<g>
</g>
</svg>
