<?xml version="1.0" encoding="iso-8859-1"?>
<!-- Generator: Adobe Illustrator 19.0.0, SVG Export Plug-In . SVG Version: 6.00 Build 0)  -->
<svg version="1.1" id="Capa_1" xmlns="http://www.w3.org/2000/svg" xmlns:xlink="http://www.w3.org/1999/xlink" x="0px" y="0px"
	 viewBox="0 0 512.009 512.009" style="enable-background:new 0 0 512.009 512.009;" xml:space="preserve">
<g>
	<g transform="translate(1 1)">
		<path style="fill:#A4C2F7;" d="M33.133,7.538h256c14.138,0,25.6,11.462,25.6,25.6v443.733c0,14.138-11.462,25.6-25.6,25.6h-256
			c-14.138,0-25.6-11.462-25.6-25.6V33.138C7.533,18.999,18.995,7.538,33.133,7.538z"/>
		<path style="fill:#D4E1F4;" d="M33.133,7.538h230.4c14.138,0,25.6,11.462,25.6,25.6v443.733c0,14.138-11.462,25.6-25.6,25.6
			h-230.4c-14.138,0-25.6-11.462-25.6-25.6V33.138C7.533,18.999,18.995,7.538,33.133,7.538z"/>
		<path style="fill:#A4C2F7;" d="M280.6,50.204v409.6c-0.014,4.707-3.826,8.519-8.533,8.533H50.2
			c-4.707-0.014-8.519-3.826-8.533-8.533v-409.6c0.014-4.707,3.826-8.519,8.533-8.533h34.133c4.707,0.014,8.519,3.826,8.533,8.533
			v17.067c0.014,4.707,3.826,8.519,8.533,8.533h119.467c4.707-0.014,8.519-3.826,8.533-8.533V50.204
			c0.014-4.707,3.826-8.519,8.533-8.533h34.133C276.774,41.685,280.586,45.497,280.6,50.204z"/>
		
			<linearGradient id="SVGID_1_" gradientUnits="userSpaceOnUse" x1="-50.0086" y1="651.5476" x2="-48.5321" y2="650.8093" gradientTransform="matrix(213.3333 0 0 -426.6667 10659.334 278091.1563)">
			<stop  offset="0" style="stop-color:#D3DFF2"/>
			<stop  offset="0.1717" style="stop-color:#D3DFF2"/>
			<stop  offset="0.2" style="stop-color:#D3DFF2"/>
			<stop  offset="0.2002" style="stop-color:#DAE2F2"/>
			<stop  offset="0.2007" style="stop-color:#EBEAF2"/>
			<stop  offset="0.2014" style="stop-color:#F6EFF2"/>
			<stop  offset="0.2023" style="stop-color:#FDF2F2"/>
			<stop  offset="0.205" style="stop-color:#FFF3F2"/>
			<stop  offset="0.2522" style="stop-color:#FFF3F2"/>
			<stop  offset="0.26" style="stop-color:#FFF3F2"/>
			<stop  offset="0.26" style="stop-color:#D3DFF2"/>
			<stop  offset="0.3974" style="stop-color:#D3DFF2"/>
			<stop  offset="0.42" style="stop-color:#D3DFF2"/>
			<stop  offset="0.4202" style="stop-color:#DAE2F2"/>
			<stop  offset="0.4207" style="stop-color:#EBEAF2"/>
			<stop  offset="0.4214" style="stop-color:#F6EFF2"/>
			<stop  offset="0.4223" style="stop-color:#FDF2F2"/>
			<stop  offset="0.425" style="stop-color:#FFF3F2"/>
			<stop  offset="0.4894" style="stop-color:#FFF3F2"/>
			<stop  offset="0.5" style="stop-color:#FFF3F2"/>
			<stop  offset="0.5" style="stop-color:#F8F0F2"/>
			<stop  offset="0.5001" style="stop-color:#E7E8F2"/>
			<stop  offset="0.5003" style="stop-color:#DCE3F2"/>
			<stop  offset="0.5005" style="stop-color:#D5E0F2"/>
			<stop  offset="0.501" style="stop-color:#D3DFF2"/>
			<stop  offset="0.7062" style="stop-color:#D3DFF2"/>
			<stop  offset="0.74" style="stop-color:#D3DFF2"/>
			<stop  offset="0.741" style="stop-color:#FFF3F2"/>
			<stop  offset="0.8346" style="stop-color:#FFF3F2"/>
			<stop  offset="0.85" style="stop-color:#FFF3F2"/>
			<stop  offset="0.851" style="stop-color:#D3DFF2"/>
		</linearGradient>
		<path style="fill:url(#SVGID_1_);" d="M255,50.204v409.6c-0.014,4.707-3.826,8.519-8.533,8.533H50.2
			c-4.707-0.014-8.519-3.826-8.533-8.533v-409.6c0.014-4.707,3.826-8.519,8.533-8.533h34.133c4.707,0.014,8.519,3.826,8.533,8.533
			v17.067c0.014,4.707,3.826,8.519,8.533,8.533h119.467c4.707-0.014,8.519-3.826,8.533-8.533V50.204
			c0.014-4.707,3.826-8.519,8.533-8.533h8.533C251.174,41.685,254.986,45.497,255,50.204z"/>
		<path style="fill:#A4C2F7;" d="M502.467,145.522v184.832c0.374,9.817-7.252,18.091-17.067,18.517H280.6l-53.675,65.792
			c-2.45,2.435-6.125,3.158-9.315,1.834c-3.191-1.325-5.272-4.438-5.277-7.892v-59.733h-17.067c-3.438-0.027-6.78-1.132-9.557-3.157
			c-4.795-3.641-7.581-9.339-7.509-15.36V145.522c-0.374-9.817,7.252-18.091,17.067-18.517H485.4
			C495.215,127.43,502.841,135.705,502.467,145.522z"/>
		<path style="fill:#E3E7F2;" d="M476.867,145.522v184.832c0.374,9.817-7.252,18.091-17.067,18.517H255l-42.667,52.309v-52.309
			h-17.067c-3.438-0.027-6.78-1.132-9.557-3.157c-4.795-3.641-7.581-9.339-7.509-15.36V145.522
			c-0.374-9.817,7.252-18.091,17.067-18.517H459.8C469.615,127.43,477.241,135.705,476.867,145.522z"/>
		<path style="fill:#FFFFFF;" d="M33.133,502.471h25.6c-6.792,0.009-13.309-2.685-18.112-7.488
			c-4.803-4.803-7.497-11.32-7.488-18.112V33.138c-0.009-6.792,2.685-13.309,7.488-18.112s11.32-7.497,18.112-7.488l-25.6,0
			c-6.792-0.009-13.309,2.685-18.112,7.488s-7.497,11.32-7.488,18.112v443.733c-0.009,6.792,2.685,13.309,7.488,18.112
			C19.824,499.786,26.341,502.48,33.133,502.471z"/>
	</g>
	<g>
		<polygon style="fill:#FFFFFF;" points="17.067,34.138 17.067,145.071 17.067,477.871 0,477.871 0,145.071 0,34.138 		"/>
		<g>
			<path style="fill:#428DFF;" d="M8.533,110.938c2.259-0.034,4.422-0.918,6.059-2.475c3.3-3.365,3.3-8.752,0-12.117l-1.279-1.025
				c-0.476-0.324-0.993-0.583-1.538-0.771c-0.484-0.246-1.003-0.417-1.538-0.509c-0.563-0.096-1.133-0.153-1.704-0.171
				c-2.259,0.031-4.423,0.915-6.059,2.475c-3.222,3.397-3.222,8.721,0,12.117c0.815,0.77,1.77,1.379,2.813,1.792
				C6.314,110.693,7.417,110.925,8.533,110.938z"/>
			<path style="fill:#428DFF;" d="M486.4,119.471H324.267V34.138c-0.02-18.843-15.29-34.113-34.133-34.133h-256
				C15.29,0.024,0.02,15.295,0,34.138v34.133c0,4.713,3.821,8.533,8.533,8.533s8.533-3.821,8.533-8.533V34.138
				c0.011-9.421,7.645-17.056,17.067-17.067h256c9.421,0.011,17.056,7.645,17.067,17.067v85.333h-17.067V51.204
				c-0.011-9.421-7.645-17.056-17.067-17.067h-34.133c-9.421,0.011-17.056,7.645-17.067,17.067v17.067H102.4V51.204
				c-0.011-9.421-7.645-17.056-17.067-17.067H51.2c-9.421,0.011-17.056,7.645-17.067,17.067v409.6
				c0.011,9.421,7.645,17.056,17.067,17.067h221.867c9.421-0.011,17.056-7.645,17.067-17.067v-102.4H307.2v119.467
				c-0.011,9.421-7.645,17.056-17.067,17.067h-256c-9.421-0.011-17.056-7.645-17.067-17.067V136.538
				c0-4.713-3.821-8.533-8.533-8.533S0,131.825,0,136.538v341.333c0.02,18.843,15.29,34.113,34.133,34.133h256
				c18.843-0.02,34.113-15.29,34.133-34.133V358.404H486.4c14.519-0.418,25.966-12.5,25.6-27.021V146.492
				C512.366,131.971,500.919,119.889,486.4,119.471z M51.2,460.804v-409.6h34.133v17.067c0.011,9.421,7.645,17.056,17.067,17.067
				h119.467c9.421-0.011,17.056-7.645,17.067-17.067V51.204h34.133v68.267h-76.8c-14.519,0.418-25.966,12.5-25.6,27.021v184.892
				c-0.366,14.521,11.081,26.602,25.6,27.021h8.533v51.2c-0.007,6.906,4.151,13.134,10.531,15.777s13.724,1.178,18.602-3.71
				c0.202-0.203,0.394-0.415,0.575-0.637l38.558-47.222v86.993H51.2z M494.933,331.383c0.356,5.093-3.445,9.528-8.533,9.954H281.6
				c-0.142,0-0.259,0.074-0.399,0.081c-2.221,0.239-4.296,1.223-5.887,2.792c-0.096,0.107-0.23,0.153-0.322,0.265l-53.125,65.058
				v-59.663c0.001-2.263-0.898-4.434-2.499-6.035c-1.6-1.6-3.771-2.499-6.035-2.499h-17.067c-5.088-0.426-8.89-4.861-8.533-9.954
				V146.492c-0.356-5.093,3.445-9.528,8.533-9.954H486.4c5.088,0.426,8.89,4.861,8.533,9.954V331.383z"/>
			<path style="fill:#428DFF;" d="M187.733,51.204c4.713,0,8.533-3.821,8.533-8.533s-3.821-8.533-8.533-8.533h-17.067
				c-4.713,0-8.533,3.821-8.533,8.533s3.821,8.533,8.533,8.533H187.733z"/>
			<path style="fill:#428DFF;" d="M354.092,154.933c-17.67-3.838-36.129,0.525-50.21,11.87
				c-14.081,11.345-22.272,28.452-22.282,46.534c0,4.713,3.821,8.533,8.533,8.533c4.713,0,8.533-3.821,8.533-8.533
				c-0.02-12.859,5.779-25.036,15.775-33.125c10.134-8.19,23.435-11.342,36.167-8.571c16.225,3.524,28.899,16.196,32.425,32.421
				c2.557,11.596,0.176,23.734-6.574,33.504c-6.749,9.77-17.259,16.293-29.01,18.004c-8.372,1.22-14.597,8.373-14.65,16.833v9.2
				c0,4.713,3.82,8.533,8.533,8.533s8.533-3.82,8.533-8.533v-9.142c28.605-4.119,50.163-28.119,51.201-57
				C402.106,186.581,382.327,161.096,354.092,154.933z"/>
			<path style="fill:#428DFF;" d="M138.15,51.034c0.566-0.082,1.115-0.255,1.625-0.513c0.543-0.188,1.059-0.447,1.533-0.771
				c0.425-0.338,0.858-0.679,1.284-1.021c3.3-3.365,3.3-8.752,0-12.117c-0.425-0.341-0.858-0.683-1.283-1.025
				c-0.475-0.324-0.99-0.583-1.533-0.771c-0.51-0.258-1.059-0.43-1.625-0.509c-1.093-0.258-2.232-0.258-3.325,0
				c-0.534,0.091-1.051,0.263-1.533,0.508c-0.546,0.187-1.064,0.447-1.542,0.771l-1.275,1.025c-3.3,3.365-3.3,8.752,0,12.117
				c1.627,1.573,3.796,2.459,6.059,2.475C137.076,51.189,137.616,51.132,138.15,51.034z"/>
			<path style="fill:#428DFF;" d="M347.392,309.679c-0.83-0.754-1.782-1.362-2.817-1.796c-2.079-0.85-4.409-0.85-6.487,0
				c-1.044,0.413-1.999,1.023-2.813,1.796c-0.754,0.828-1.362,1.78-1.796,2.813c-0.436,1.027-0.667,2.13-0.679,3.246
				c0.014,0.572,0.071,1.141,0.171,1.704c0.091,0.535,0.263,1.053,0.508,1.537c0.187,0.544,0.447,1.062,0.771,1.538
				c0.341,0.425,0.683,0.85,1.025,1.279c1.636,1.558,3.8,2.441,6.059,2.475c1.119,0.029,2.229-0.205,3.242-0.683
				c1.033-0.434,1.986-1.04,2.817-1.792c0.341-0.429,0.683-0.854,1.021-1.279c0.324-0.476,0.583-0.993,0.771-1.538
				c0.245-0.485,0.418-1.003,0.513-1.537c0.098-0.563,0.155-1.133,0.171-1.704c-0.013-1.116-0.245-2.219-0.683-3.246
				C348.749,311.46,348.144,310.509,347.392,309.679z"/>
		</g>
	</g>
</g>
<g>
</g>
<g>
</g>
<g>
</g>
<g>
</g>
<g>
</g>
<g>
</g>
<g>
</g>
<g>
</g>
<g>
</g>
<g>
</g>
<g>
</g>
<g>
</g>
<g>
</g>
<g>
</g>
<g>
</g>
</svg>
