<?xml version="1.0" encoding="iso-8859-1"?>
<!-- Generator: Adobe Illustrator 19.0.0, SVG Export Plug-In . SVG Version: 6.00 Build 0)  -->
<svg version="1.1" id="Capa_1" xmlns="http://www.w3.org/2000/svg" xmlns:xlink="http://www.w3.org/1999/xlink" x="0px" y="0px"
	 viewBox="0 0 512.02 512.02" style="enable-background:new 0 0 512.02 512.02;" xml:space="preserve">
<g transform="translate(0 -1)">
	<g transform="translate(1 1)">
		<rect x="186.744" y="418.154" style="fill:#A4C2F7;" width="136.533" height="68.267"/>
		<rect x="186.744" y="418.154" style="fill:#D4E1F4;" width="110.933" height="68.267"/>
		<path style="fill:#A4C2F7;" d="M502.477,75.37v327.168c-0.423,18.441-15.691,33.061-34.133,32.683H41.677
			c-18.442,0.378-33.711-14.242-34.133-32.683V75.37c0.422-18.441,15.691-33.061,34.133-32.683h426.667
			C486.786,42.309,502.055,56.928,502.477,75.37z"/>
		
			<linearGradient id="SVGID_1_" gradientUnits="userSpaceOnUse" x1="-49.8237" y1="652.6902" x2="-48.9472" y2="651.6423" gradientTransform="matrix(469.3333 0 0 -392.5477 23420.4395 256245.3125)">
			<stop  offset="0" style="stop-color:#D3DFF2"/>
			<stop  offset="0.1717" style="stop-color:#D3DFF2"/>
			<stop  offset="0.2" style="stop-color:#D3DFF2"/>
			<stop  offset="0.2002" style="stop-color:#DAE2F2"/>
			<stop  offset="0.2007" style="stop-color:#EBEAF2"/>
			<stop  offset="0.2014" style="stop-color:#F6EFF2"/>
			<stop  offset="0.2023" style="stop-color:#FDF2F2"/>
			<stop  offset="0.205" style="stop-color:#FFF3F2"/>
			<stop  offset="0.2522" style="stop-color:#FFF3F2"/>
			<stop  offset="0.26" style="stop-color:#FFF3F2"/>
			<stop  offset="0.26" style="stop-color:#D3DFF2"/>
			<stop  offset="0.3974" style="stop-color:#D3DFF2"/>
			<stop  offset="0.42" style="stop-color:#D3DFF2"/>
			<stop  offset="0.4202" style="stop-color:#DAE2F2"/>
			<stop  offset="0.4207" style="stop-color:#EBEAF2"/>
			<stop  offset="0.4214" style="stop-color:#F6EFF2"/>
			<stop  offset="0.4223" style="stop-color:#FDF2F2"/>
			<stop  offset="0.425" style="stop-color:#FFF3F2"/>
			<stop  offset="0.4894" style="stop-color:#FFF3F2"/>
			<stop  offset="0.5" style="stop-color:#FFF3F2"/>
			<stop  offset="0.5" style="stop-color:#F8F0F2"/>
			<stop  offset="0.5001" style="stop-color:#E7E8F2"/>
			<stop  offset="0.5003" style="stop-color:#DCE3F2"/>
			<stop  offset="0.5005" style="stop-color:#D5E0F2"/>
			<stop  offset="0.501" style="stop-color:#D3DFF2"/>
			<stop  offset="0.7062" style="stop-color:#D3DFF2"/>
			<stop  offset="0.74" style="stop-color:#D3DFF2"/>
			<stop  offset="0.741" style="stop-color:#FFF3F2"/>
			<stop  offset="0.8346" style="stop-color:#FFF3F2"/>
			<stop  offset="0.85" style="stop-color:#FFF3F2"/>
			<stop  offset="0.851" style="stop-color:#D3DFF2"/>
		</linearGradient>
		<path style="fill:url(#SVGID_1_);" d="M476.877,75.37v327.168c-0.423,18.441-15.691,33.061-34.133,32.683H41.677
			c-18.442,0.378-33.711-14.242-34.133-32.683V75.37c0.422-18.441,15.691-33.061,34.133-32.683h401.067
			C461.186,42.309,476.455,56.928,476.877,75.37z"/>
		<g>
			<path style="fill:#7FABFA;" d="M391.543,494.954v8.533H118.477l0-8.533c-0.009-6.792,2.685-13.309,7.488-18.112
				c4.803-4.803,11.32-7.497,18.112-7.488h221.867c6.792-0.009,13.309,2.685,18.112,7.488
				C388.858,481.645,391.553,488.161,391.543,494.954z"/>
			<path style="fill:#7FABFA;" d="M502.477,384.02v18.517c-0.423,18.441-15.691,33.061-34.133,32.683H41.677
				c-18.442,0.378-33.711-14.242-34.133-32.683V384.02H502.477z"/>
		</g>
		<g>
			<path style="fill:#A4C2F7;" d="M365.943,494.954v8.533H118.477l0-8.533c-0.009-6.792,2.685-13.309,7.488-18.112
				c4.803-4.803,11.32-7.497,18.112-7.488h196.267c6.792-0.009,13.309,2.685,18.112,7.488
				C363.258,481.645,365.953,488.161,365.943,494.954z"/>
			<path style="fill:#A4C2F7;" d="M476.877,384.02v18.517c-0.423,18.441-15.691,33.061-34.133,32.683H41.677
				c-18.442,0.378-33.711-14.242-34.133-32.683V384.02H476.877z"/>
			<path style="fill:#A4C2F7;" d="M357.41,109.247c0.518,29.667-11.875,58.097-33.963,77.909
				c-16.708,15.581-26.065,37.488-25.771,60.331h-85.333c0.02-11.516-2.363-22.909-6.997-33.451
				c-4.622-10.532-11.36-20.001-19.797-27.819c-29.254-27.005-40.201-68.519-28.068-106.438s45.147-65.366,84.644-70.373
				c5.711-0.772,11.48-1.029,17.237-0.768C313.305,11.421,356.019,55.251,357.41,109.247z"/>
		</g>
		<path style="fill:#E3E7F2;" d="M331.81,109.247c0.518,29.667-11.875,58.097-33.963,77.909
			c-16.708,15.581-26.065,37.488-25.771,60.331h-59.733c0.02-11.516-2.363-22.909-6.997-33.451
			c-4.622-10.532-11.36-20.001-19.797-27.819c-29.254-27.005-40.201-68.519-28.068-106.438s45.147-65.366,84.644-70.373
			C292.492,16.126,330.511,58.45,331.81,109.247z"/>
		<g>
			<path style="fill:#A4C2F7;" d="M306.21,264.554c-0.068,9.397-7.669,16.998-17.067,17.067H220.45
				c-9.241-0.272-16.602-7.822-16.64-17.067c0.068-9.397,7.669-16.999,17.067-17.067h68.267
				C298.558,247.515,306.183,255.139,306.21,264.554z"/>
			<path style="fill:#A4C2F7;" d="M297.677,298.687c-0.068,9.397-7.669,16.998-17.067,17.067h-51.2
				c-9.414-0.028-17.039-7.653-17.067-17.067c0.068-9.397,7.669-16.999,17.067-17.067h51.2
				C290.024,281.648,297.649,289.273,297.677,298.687z"/>
		</g>
		<g>
			<path style="fill:#D4E1F4;" d="M280.61,264.554c-0.068,9.397-7.669,16.998-17.067,17.067H220.45
				c-9.241-0.272-16.602-7.822-16.64-17.067c0.068-9.397,7.669-16.999,17.067-17.067h42.667
				C272.958,247.515,280.583,255.139,280.61,264.554z"/>
			<path style="fill:#D4E1F4;" d="M272.077,298.687c-0.068,9.397-7.669,16.998-17.067,17.067h-25.6
				c-9.414-0.028-17.039-7.653-17.067-17.067c0.068-9.397,7.669-16.999,17.067-17.067h26.112
				C264.733,281.929,272.048,289.471,272.077,298.687z"/>
			<path style="fill:#D4E1F4;" d="M237.944,315.754h34.133v17.067c0,9.426-7.641,17.067-17.067,17.067
				c-9.426,0-17.067-7.641-17.067-17.067V315.754z"/>
		</g>
	</g>
	<g transform="translate(1 5)">
		<path style="fill:#FFFFFF;" d="M169.677,465.354h-25.6c-6.792-0.009-13.309,2.685-18.112,7.488
			c-4.803,4.803-7.497,11.32-7.488,18.112l0,8.533h25.6v-8.533c-0.009-6.792,2.685-13.309,7.488-18.112
			C156.368,468.039,162.885,465.345,169.677,465.354z"/>
		<rect x="186.744" y="431.22" style="fill:#FFFFFF;" width="25.6" height="34.133"/>
		<path style="fill:#FFFFFF;" d="M41.677,431.22h25.6c-18.442,0.378-33.711-14.242-34.133-32.683V71.37
			c0.422-18.441,15.691-33.061,34.133-32.683h-25.6C23.235,38.309,7.966,52.928,7.544,71.37v327.168
			C7.966,416.979,23.235,431.599,41.677,431.22z"/>
	</g>
	<g>
		<polygon style="fill:#FFFFFF;" points="17.077,76.37 17.077,187.303 17.077,403.538 0.01,403.538 0.01,187.303 0.01,76.37 		"/>
		<g>
			<path style="fill:#428DFF;" d="M8.544,153.17c2.259-0.034,4.422-0.918,6.059-2.475c3.3-3.365,3.3-8.752,0-12.117l-1.279-1.025
				c-0.476-0.324-0.993-0.583-1.538-0.771c-0.484-0.246-1.003-0.417-1.538-0.509c-0.563-0.096-1.133-0.153-1.704-0.171
				c-2.259,0.031-4.423,0.915-6.059,2.475c-3.222,3.397-3.222,8.721,0,12.117c0.815,0.77,1.77,1.379,2.813,1.792
				C6.324,152.925,7.427,153.157,8.544,153.17z"/>
			<path style="fill:#428DFF;" d="M469.344,35.154H335.333c-20.218-21.233-48.075-33.518-77.387-34.13s-57.657,10.501-78.744,30.871
				c-1.086,1.042-2.036,2.181-3.074,3.258H42.677C19.527,34.787,0.445,53.221,0.01,76.37v34.133c0,4.713,3.821,8.533,8.533,8.533
				s8.533-3.821,8.533-8.533V76.37c0.427-13.726,11.872-24.523,25.6-24.15h119.926c-11.476,17.806-17.562,38.549-17.526,59.733
				c0.039,30.954,12.962,60.494,35.667,81.533c14.834,13.779,23.477,32.963,23.973,53.203c-5.945,5.331-9.036,13.148-8.344,21.102
				c0.692,7.955,5.087,15.12,11.863,19.344c-2.217,3.813-3.398,8.14-3.426,12.551c0.015,14.132,11.468,25.585,25.6,25.6v8.533
				c0,14.138,11.462,25.6,25.6,25.6c14.138,0,25.6-11.462,25.6-25.6v-8.533c14.132-0.015,25.585-11.468,25.6-25.6
				c-0.028-4.411-1.208-8.738-3.425-12.551c6.777-4.224,11.172-11.391,11.863-19.347c0.691-7.956-2.402-15.774-8.349-21.103
				c0.132-19.804,8.409-38.681,22.886-52.194c23.885-21.502,37.285-52.296,36.742-84.429c-0.424-20.595-6.671-40.649-18.018-57.842
				h120.434c13.728-0.373,25.173,10.424,25.6,24.15v300.117H17.077V178.77c0-4.713-3.821-8.533-8.533-8.533
				s-8.533,3.821-8.533,8.533v224.768c0.434,23.149,19.517,41.582,42.667,41.216H179.21v17.067h-34.133
				c-18.843,0.02-34.113,15.29-34.133,34.133v8.533c-0.001,2.263,0.898,4.434,2.499,6.035c1.6,1.6,3.771,2.499,6.035,2.499h273.067
				c2.263,0.001,4.434-0.898,6.035-2.499c1.6-1.6,2.499-3.771,2.499-6.035v-8.533c-0.02-18.843-15.29-34.113-34.133-34.133H332.81
				v-17.067h136.533c23.15,0.366,42.232-18.068,42.667-41.217V76.37C511.576,53.221,492.494,34.788,469.344,35.154z
				 M298.677,265.554c-0.005,4.711-3.822,8.529-8.533,8.533h-68.267c-4.713,0-8.533-3.82-8.533-8.533s3.821-8.533,8.533-8.533
				h68.267C294.854,257.025,298.672,260.843,298.677,265.554z M264.544,333.82c0,4.713-3.821,8.533-8.533,8.533
				c-4.713,0-8.533-3.821-8.533-8.533v-8.533h17.067V333.82z M281.61,308.22h-51.2c-4.713,0-8.533-3.82-8.533-8.533
				s3.821-8.533,8.533-8.533h51.2c4.713,0,8.533,3.82,8.533,8.533S286.323,308.22,281.61,308.22z M318.768,181.808
				c-16.416,15.123-26.507,35.894-28.25,58.146h-69.042c-2.142-22.578-12.518-43.578-29.15-58.996
				c-19.215-17.806-30.151-42.807-30.184-69.004c-0.005-25.59,10.438-50.072,28.913-67.778s43.379-27.101,68.945-26.009
				c49.373,2.669,88.449,42.754,89.858,92.179C350.328,137.543,338.987,163.609,318.768,181.808z M384.01,495.954h-256
				c0.011-9.421,7.645-17.056,17.067-17.067h221.867C376.365,478.898,383.999,486.533,384.01,495.954z M315.744,461.82H196.277
				v-17.067h119.467V461.82z M469.344,427.687H42.677c-13.728,0.373-25.173-10.424-25.6-24.15v-9.983h477.867v9.983
				C494.517,417.263,483.071,428.06,469.344,427.687z"/>
			<path style="fill:#428DFF;" d="M256.01,35.154c-4.713,0-8.533,3.821-8.533,8.533s3.82,8.533,8.533,8.533
				c32.974,0.038,59.695,26.759,59.733,59.733c0,4.713,3.82,8.533,8.533,8.533s8.533-3.821,8.533-8.533
				C332.762,69.558,298.406,35.201,256.01,35.154z"/>
		</g>
	</g>
</g>
<g>
</g>
<g>
</g>
<g>
</g>
<g>
</g>
<g>
</g>
<g>
</g>
<g>
</g>
<g>
</g>
<g>
</g>
<g>
</g>
<g>
</g>
<g>
</g>
<g>
</g>
<g>
</g>
<g>
</g>
</svg>
