<?xml version="1.0" encoding="iso-8859-1"?>
<!-- Generator: Adobe Illustrator 19.0.0, SVG Export Plug-In . SVG Version: 6.00 Build 0)  -->
<svg version="1.1" id="Capa_1" xmlns="http://www.w3.org/2000/svg" xmlns:xlink="http://www.w3.org/1999/xlink" x="0px" y="0px"
	 viewBox="0 0 512.011 512.011" style="enable-background:new 0 0 512.011 512.011;" xml:space="preserve">
<g transform="translate(0 -1)">
	<g transform="translate(1 2)">
		<rect x="186.739" y="417.144" style="fill:#A4C2F7;" width="136.533" height="68.267"/>
		<rect x="186.739" y="417.144" style="fill:#D4E1F4;" width="110.933" height="68.267"/>
		<path style="fill:#A4C2F7;" d="M502.472,74.36v327.168c-0.423,18.441-15.691,33.061-34.133,32.683H41.672
			c-18.442,0.378-33.711-14.242-34.133-32.683V74.36C7.961,55.919,23.23,41.299,41.672,41.677h426.667
			C486.781,41.299,502.05,55.919,502.472,74.36z"/>
		
			<linearGradient id="SVGID_1_" gradientUnits="userSpaceOnUse" x1="-49.8286" y1="651.6804" x2="-48.9521" y2="650.6325" gradientTransform="matrix(469.3333 0 0 -392.5477 23422.7285 255847.9219)">
			<stop  offset="0" style="stop-color:#D3DFF2"/>
			<stop  offset="0.1717" style="stop-color:#D3DFF2"/>
			<stop  offset="0.2" style="stop-color:#D3DFF2"/>
			<stop  offset="0.2002" style="stop-color:#DAE2F2"/>
			<stop  offset="0.2007" style="stop-color:#EBEAF2"/>
			<stop  offset="0.2014" style="stop-color:#F6EFF2"/>
			<stop  offset="0.2023" style="stop-color:#FDF2F2"/>
			<stop  offset="0.205" style="stop-color:#FFF3F2"/>
			<stop  offset="0.2522" style="stop-color:#FFF3F2"/>
			<stop  offset="0.26" style="stop-color:#FFF3F2"/>
			<stop  offset="0.26" style="stop-color:#D3DFF2"/>
			<stop  offset="0.3974" style="stop-color:#D3DFF2"/>
			<stop  offset="0.42" style="stop-color:#D3DFF2"/>
			<stop  offset="0.4202" style="stop-color:#DAE2F2"/>
			<stop  offset="0.4207" style="stop-color:#EBEAF2"/>
			<stop  offset="0.4214" style="stop-color:#F6EFF2"/>
			<stop  offset="0.4223" style="stop-color:#FDF2F2"/>
			<stop  offset="0.425" style="stop-color:#FFF3F2"/>
			<stop  offset="0.4894" style="stop-color:#FFF3F2"/>
			<stop  offset="0.5" style="stop-color:#FFF3F2"/>
			<stop  offset="0.5" style="stop-color:#F8F0F2"/>
			<stop  offset="0.5001" style="stop-color:#E7E8F2"/>
			<stop  offset="0.5003" style="stop-color:#DCE3F2"/>
			<stop  offset="0.5005" style="stop-color:#D5E0F2"/>
			<stop  offset="0.501" style="stop-color:#D3DFF2"/>
			<stop  offset="0.7062" style="stop-color:#D3DFF2"/>
			<stop  offset="0.74" style="stop-color:#D3DFF2"/>
			<stop  offset="0.741" style="stop-color:#FFF3F2"/>
			<stop  offset="0.8346" style="stop-color:#FFF3F2"/>
			<stop  offset="0.85" style="stop-color:#FFF3F2"/>
			<stop  offset="0.851" style="stop-color:#D3DFF2"/>
		</linearGradient>
		<path style="fill:url(#SVGID_1_);" d="M476.872,74.36v327.168c-0.423,18.441-15.691,33.061-34.133,32.683H41.672
			c-18.442,0.378-33.711-14.242-34.133-32.683V74.36C7.961,55.919,23.23,41.299,41.672,41.677h401.067
			C461.181,41.299,476.45,55.919,476.872,74.36z"/>
		<path style="fill:#7FABFA;" d="M391.539,493.944v8.533H118.472l0-8.533c-0.009-6.792,2.685-13.309,7.488-18.112
			s11.32-7.497,18.112-7.488h221.867c6.792-0.009,13.309,2.685,18.112,7.488C388.853,480.635,391.548,487.152,391.539,493.944z"/>
		<g>
			<path style="fill:#E3E7F2;" d="M255.005,280.611c-9.425,0-17.066-7.641-17.067-17.067v-18.683
				c0.048-16.939,12.635-31.224,29.433-33.404c43.21-6.247,74.696-44.161,72.9-87.783c-2.358-44.234-37.692-79.571-81.925-81.933
				c-23.194-0.908-45.757,7.671-62.488,23.76s-26.187,38.299-26.187,61.511c0,9.426-7.641,17.067-17.067,17.067
				c-9.426,0-17.067-7.641-17.067-17.067c0-32.49,13.233-63.578,36.649-86.102s54.995-34.539,87.46-33.277
				c61.687,2.4,111.388,51.4,114.664,113.047c3.275,61.647-40.954,115.638-102.039,124.561l-0.2,18.304
				C272.072,272.969,264.431,280.61,255.005,280.611z"/>
			<circle style="fill:#E3E7F2;" cx="255.005" cy="331.811" r="17.067"/>
		</g>
		<path style="fill:#7FABFA;" d="M502.472,383.011v18.517c-0.423,18.441-15.691,33.061-34.133,32.683H41.672
			c-18.442,0.378-33.711-14.242-34.133-32.683v-18.517H502.472z"/>
		<g>
			<path style="fill:#A4C2F7;" d="M365.939,493.944v8.533H118.472l0-8.533c-0.009-6.792,2.685-13.309,7.488-18.112
				s11.32-7.497,18.112-7.488h196.267c6.792-0.009,13.309,2.685,18.112,7.488C363.253,480.635,365.948,487.152,365.939,493.944z"/>
			<path style="fill:#A4C2F7;" d="M476.872,383.011v18.517c-0.423,18.441-15.691,33.061-34.133,32.683H41.672
				c-18.442,0.378-33.711-14.242-34.133-32.683v-18.517H476.872z"/>
		</g>
	</g>
	<g transform="translate(1 5)">
		<path style="fill:#FFFFFF;" d="M41.672,431.211h25.6c-18.442,0.378-33.711-14.242-34.133-32.683V71.36
			c0.422-18.441,15.691-33.061,34.133-32.683h-25.6C23.23,38.299,7.961,52.919,7.539,71.36v327.168
			C7.961,416.969,23.23,431.589,41.672,431.211z"/>
		<path style="fill:#FFFFFF;" d="M144.072,490.944c-0.009-6.792,2.685-13.309,7.488-18.112c4.803-4.803,11.32-7.497,18.112-7.488
			h-25.6c-6.792-0.009-13.309,2.685-18.112,7.488s-7.497,11.32-7.488,18.112l0,8.533h25.6V490.944z"/>
		<rect x="186.739" y="431.211" style="fill:#FFFFFF;" width="25.6" height="34.133"/>
	</g>
	<g>
		<polygon style="fill:#FFFFFF;" points="17.072,76.36 17.072,187.293 17.072,403.528 0.005,403.528 0.005,187.293 0.005,76.36 		
			"/>
		<g>
			<path style="fill:#428DFF;" d="M8.539,153.16c2.259-0.034,4.422-0.918,6.059-2.475c3.3-3.365,3.3-8.752,0-12.117l-1.279-1.025
				c-0.476-0.324-0.993-0.583-1.538-0.771c-0.484-0.246-1.003-0.417-1.538-0.509c-0.563-0.096-1.133-0.153-1.704-0.171
				c-2.259,0.031-4.423,0.915-6.059,2.475c-3.222,3.397-3.222,8.721,0,12.117c0.815,0.77,1.77,1.379,2.813,1.792
				C6.319,152.915,7.422,153.147,8.539,153.16z"/>
			<path style="fill:#428DFF;" d="M469.339,35.144H342.597c-48.861-45.525-124.604-45.525-173.465,0H42.672
				C19.522,34.778,0.44,53.211,0.005,76.36v34.133c0,4.713,3.821,8.533,8.533,8.533s8.533-3.82,8.533-8.533V76.361
				c0.427-13.726,11.872-24.523,25.6-24.15H153.76c-16.76,22.091-25.808,49.071-25.755,76.8c0,14.138,11.462,25.6,25.6,25.6
				c14.139,0,25.6-11.462,25.6-25.6c-0.002-20.893,8.509-40.884,23.57-55.364s35.371-22.199,56.247-21.377
				c39.805,2.125,71.602,33.924,73.725,73.729c1.622,39.26-26.711,73.386-65.6,79.013c-21.006,2.767-36.717,20.662-36.742,41.85
				v18.683c-0.025,14.138,11.416,25.621,25.554,25.646c14.138,0.025,25.621-11.416,25.646-25.554l0.125-11.208
				c43.034-8.708,78.568-38.928,94.073-80.005c15.505-41.077,8.802-87.24-17.745-122.211h111.28
				c13.728-0.373,25.173,10.424,25.6,24.15v300.117H17.072V178.76c0-4.713-3.821-8.533-8.533-8.533s-8.533,3.82-8.533,8.533v224.768
				c0.434,23.149,19.517,41.582,42.667,41.216h136.533v17.067h-34.133c-18.843,0.02-34.113,15.29-34.133,34.133v8.533
				c-0.001,2.263,0.898,4.434,2.499,6.035c1.6,1.6,3.771,2.499,6.035,2.499h273.067c2.263,0.001,4.434-0.898,6.035-2.499
				c1.6-1.6,2.499-3.771,2.499-6.035v-8.533c-0.02-18.843-15.29-34.113-34.133-34.133h-34.133v-17.067h136.533
				c23.15,0.366,42.232-18.068,42.667-41.217V76.361C511.571,53.212,492.489,34.778,469.339,35.144z M272.047,238.794
				c-4.16,0.607-7.26,4.151-7.308,8.354l-0.2,18.396c0,4.713-3.821,8.533-8.533,8.533c-4.713,0-8.533-3.82-8.533-8.533v-18.683
				c0.076-12.689,9.537-23.361,22.125-24.958c47.532-6.866,82.172-48.569,80.2-96.554c-2.592-48.656-41.453-87.528-90.108-90.133
				c-1.3-0.054-2.6-0.081-3.9-0.079c-51.755,0.13-93.644,42.119-93.65,93.875c0,4.713-3.821,8.533-8.533,8.533
				s-8.533-3.821-8.533-8.533c-0.001-30.171,12.286-59.04,34.031-79.955c21.745-20.915,51.071-32.07,81.219-30.895
				c57.277,2.232,103.424,47.73,106.466,104.97S328.765,230.504,272.047,238.794L272.047,238.794z M384.005,495.944h-256
				c0.011-9.421,7.645-17.056,17.067-17.067h221.867C376.36,478.888,383.995,486.523,384.005,495.944z M315.739,461.811H196.272
				v-17.067h119.467V461.811z M469.339,427.677H42.672c-13.728,0.373-25.173-10.424-25.6-24.15v-9.983h477.867v9.983
				C494.512,417.253,483.066,428.05,469.339,427.677z"/>
			<path style="fill:#428DFF;" d="M281.605,333.811c0-14.138-11.461-25.6-25.6-25.6c-14.138,0-25.6,11.462-25.6,25.6
				s11.462,25.6,25.6,25.6C270.137,359.395,281.59,347.943,281.605,333.811z M247.472,333.811c0-4.713,3.821-8.533,8.533-8.533
				c4.713,0,8.533,3.82,8.533,8.533s-3.821,8.533-8.533,8.533C251.294,342.339,247.477,338.521,247.472,333.811z"/>
		</g>
	</g>
</g>
<g>
</g>
<g>
</g>
<g>
</g>
<g>
</g>
<g>
</g>
<g>
</g>
<g>
</g>
<g>
</g>
<g>
</g>
<g>
</g>
<g>
</g>
<g>
</g>
<g>
</g>
<g>
</g>
<g>
</g>
</svg>
