<?xml version="1.0" encoding="iso-8859-1"?>
<!-- Generator: Adobe Illustrator 19.0.0, SVG Export Plug-In . SVG Version: 6.00 Build 0)  -->
<svg version="1.1" id="Capa_1" xmlns="http://www.w3.org/2000/svg" xmlns:xlink="http://www.w3.org/1999/xlink" x="0px" y="0px"
	 viewBox="0 0 512 512" style="enable-background:new 0 0 512 512;" xml:space="preserve">
<g>
	<g transform="translate(1 1)">
		<path style="fill:#E3E7F2;" d="M491.296,284.437c6.178-2.503,10.358-8.345,10.731-15.001c0.298-5.012,0.445-10.052,0.439-15.12
			c0-5.069-0.146-10.109-0.439-15.12c-0.374-6.655-4.553-12.498-10.731-15l-48.639-19.529c-4.691-1.939-8.295-5.839-9.858-10.668
			c-2.662-7.895-5.848-15.604-9.537-23.076c-2.309-4.535-2.513-9.854-0.559-14.553l20.624-48.302
			c2.605-6.14,1.442-13.231-2.99-18.216c-3.323-3.756-6.774-7.424-10.352-11.004c-3.574-3.584-7.232-7.044-10.973-10.38
			c-4.96-4.442-12.042-5.61-18.166-2.998L352.677,86.15c-4.684,1.959-9.994,1.754-14.513-0.561
			c-7.449-3.698-15.136-6.893-23.012-9.563c-4.824-1.576-8.714-5.19-10.639-9.886l-19.108-47.854
			c-2.584-6.488-8.86-10.748-15.844-10.752h-29.123c-6.984,0.005-13.26,4.264-15.844,10.752L205.487,66.14
			c-1.925,4.696-5.814,8.31-10.639,9.886c-7.875,2.671-15.563,5.865-23.012,9.563c-4.519,2.315-9.829,2.52-14.513,0.561
			l-48.169-20.681c-6.124-2.613-13.206-1.444-18.166,2.998c-3.745,3.332-7.403,6.793-10.973,10.381
			c-3.574,3.584-7.025,7.252-10.352,11.003c-4.431,4.985-5.595,12.077-2.989,18.216l20.624,48.303
			c1.954,4.699,1.749,10.018-0.559,14.553c-3.689,7.471-6.875,15.18-9.537,23.076c-1.563,4.829-5.167,8.729-9.858,10.668
			l-48.639,19.529c-6.178,2.503-10.358,8.345-10.731,15c-0.299,5.012-0.445,10.052-0.439,15.12c0,5.068,0.146,10.109,0.439,15.12
			c0.373,6.655,4.553,12.498,10.731,15.001l48.639,19.529c4.691,1.939,8.295,5.839,9.858,10.668
			c2.662,7.895,5.848,15.604,9.537,23.075c2.309,4.535,2.513,9.854,0.559,14.553l-20.624,48.302
			c-2.605,6.14-1.442,13.231,2.989,18.216c3.323,3.756,6.774,7.424,10.352,11.004c3.574,3.584,7.232,7.044,10.973,10.38
			c4.96,4.442,12.042,5.61,18.166,2.998l48.169-20.681c4.684-1.959,9.994-1.754,14.513,0.561c7.449,3.698,15.136,6.893,23.012,9.563
			c4.824,1.576,8.714,5.19,10.639,9.886l19.475,48.773c2.479,6.183,8.308,10.376,14.959,10.761c4.998,0.3,10.025,0.446,15.079,0.441
			c5.055,0,10.081-0.147,15.079-0.441c6.651-0.385,12.48-4.578,14.959-10.761l19.475-48.773c1.925-4.696,5.815-8.31,10.639-9.886
			c7.875-2.671,15.563-5.865,23.012-9.563c4.519-2.315,9.829-2.52,14.513-0.561l48.169,20.681
			c6.124,2.613,13.206,1.444,18.166-2.998c3.745-3.332,7.403-6.792,10.974-10.38c3.574-3.584,7.025-7.252,10.352-11.004
			c4.431-4.985,5.595-12.076,2.989-18.216l-20.624-48.302c-1.954-4.699-1.749-10.018,0.559-14.553
			c3.688-7.471,6.875-15.18,9.537-23.076c1.563-4.829,5.167-8.729,9.858-10.668L491.296,284.437z"/>
		<path style="fill:#A4C2F7;" d="M400.067,255C399.953,335.071,335.071,399.953,255,400.067c-4.274,0.018-8.546-0.182-12.8-0.597
			C167.341,392.853,109.937,330.151,109.937,255S167.341,117.147,242.2,110.531c4.254-0.416,8.526-0.615,12.8-0.597
			C335.071,110.047,399.953,174.929,400.067,255z"/>
		<ellipse style="fill:#E3E7F2;" cx="242.2" cy="255" rx="132.267" ry="144.469"/>
		<path style="fill:#A4C2F7;" d="M353.475,361.24c-26.694,24.992-61.907,38.876-98.475,38.827c-3.669,0-7.253-0.171-10.837-0.427
			c-32.891-2.416-63.953-16.064-87.979-38.656c3.354-7.137,8.92-13.002,15.872-16.725l41.557-22.357
			c5.401-2.909,8.775-8.543,8.789-14.677v-12.203c-8.012-10.12-13.747-21.85-16.811-34.389c-3.989-2.479-6.435-6.824-6.485-11.52
			V230.68c0.058-3.896,1.763-7.586,4.693-10.155v-26.539c0,0-4.779-35.925,40.363-40.789c3.596-0.429,7.216-0.628,10.837-0.597
			c56.747,0,51.2,41.387,51.2,41.387v26.539c2.93,2.569,4.636,6.258,4.693,10.155v18.432c-0.088,6.049-4.098,11.338-9.899,13.056
			c-3.183,9.836-7.844,19.13-13.824,27.563c-1.31,1.851-2.735,3.618-4.267,5.291v12.629c0.035,6.379,3.668,12.192,9.387,15.019
			L336.75,344.6C344.003,348.156,349.881,354.005,353.475,361.24z"/>
		<path style="fill:#D4E1F4;" d="M331.8,361.24c-23.96,22.448-54.892,36.001-87.637,38.4c-32.891-2.416-63.953-16.064-87.979-38.656
			c3.354-7.137,8.92-13.002,15.872-16.725l41.557-22.357c5.401-2.909,8.775-8.543,8.789-14.677v-12.203
			c-8.012-10.12-13.747-21.85-16.811-34.389c-3.989-2.479-6.435-6.824-6.485-11.52V230.68c0.058-3.896,1.763-7.586,4.693-10.155
			v-26.539c0,0-4.779-35.925,40.363-40.789c45.141,4.864,40.363,40.789,40.363,40.789v26.539c2.93,2.569,4.636,6.258,4.693,10.155
			v18.432c-0.088,6.049-4.098,11.338-9.899,13.056c-3.183,9.836-7.844,19.13-13.824,27.563c-1.31,1.851-2.735,3.618-4.267,5.291
			v12.629c0.035,6.379,3.668,12.192,9.387,15.019l44.459,21.931C322.328,348.157,328.207,354.005,331.8,361.24z"/>
		<path style="fill:#A4C2F7;" d="M502.467,254.317c0,5.035-0.171,10.069-0.427,15.104c-0.374,6.666-4.563,12.516-10.752,15.019
			l-48.64,19.541c-4.687,1.931-8.279,5.836-9.813,10.667c-2.691,7.876-5.884,15.572-9.557,23.04
			c-2.321,4.543-2.539,9.874-0.597,14.592l20.651,48.299c2.633,6.123,1.468,13.218-2.987,18.176
			c-3.328,3.755-6.827,7.424-10.325,11.008c-3.584,3.584-7.253,7.083-11.008,10.411c-4.958,4.454-12.053,5.62-18.175,2.987
			l-7.253-3.157c3.669-3.243,7.339-6.741,10.837-10.24c3.499-3.584,6.997-7.253,10.325-11.008c4.454-4.958,5.62-12.053,2.987-18.176
			L397.08,352.28c-1.942-4.718-1.724-10.049,0.597-14.592c3.674-7.468,6.866-15.164,9.557-23.04
			c1.534-4.831,5.127-8.736,9.813-10.667l48.64-19.541c6.189-2.503,10.378-8.353,10.752-15.019
			c0.256-5.035,0.427-10.069,0.427-15.104s-0.171-10.069-0.427-15.104c-0.374-6.666-4.563-12.516-10.752-15.019l-48.64-19.541
			c-4.687-1.931-8.279-5.836-9.813-10.667c-2.691-7.876-5.884-15.572-9.557-23.04c-2.321-4.543-2.539-9.874-0.597-14.592
			l20.651-48.299c2.633-6.123,1.468-13.218-2.987-18.176c-3.328-3.755-6.827-7.424-10.325-11.008
			c-3.499-3.499-7.168-6.997-10.837-10.24l7.253-3.157c6.123-2.634,13.218-1.468,18.176,2.987
			c3.755,3.328,7.425,6.827,11.008,10.411c3.499,3.584,6.997,7.253,10.325,11.008c4.454,4.958,5.62,12.053,2.987,18.176
			l-20.651,48.299c-1.942,4.718-1.724,10.049,0.597,14.592c3.674,7.468,6.866,15.164,9.557,23.04
			c1.534,4.831,5.127,8.736,9.813,10.667l48.64,19.541c6.19,2.502,10.378,8.353,10.752,15.019
			C502.296,244.248,502.467,249.283,502.467,254.317z"/>
		<g>
			<path style="fill:#FFFFFF;" d="M363.764,423.043c-1.554,0.771-3.168,1.433-4.746,2.161l41.464,17.802l0.353,0.154
				c6.123,2.633,13.218,1.467,18.176-2.987l0.148-0.14l-40.881-17.552C373.593,420.522,368.283,420.728,363.764,423.043z"/>
			<path style="fill:#FFFFFF;" d="M205.487,442.492l19.476,48.773c2.479,6.183,8.308,10.376,14.959,10.761
				c4.998,0.3,10.025,0.447,15.079,0.441c4.291,0,8.55-0.16,12.8-0.374c-0.757-0.038-1.523-0.021-2.279-0.067
				c-6.65-0.384-12.48-4.578-14.959-10.76l-19.476-48.773c-1.925-4.696-5.814-8.31-10.639-9.886
				c-7.876-2.671-15.563-5.865-23.012-9.563c-4.519-2.315-9.829-2.52-14.513-0.561l-6.341,2.722
				c5.954,2.788,12.051,5.258,18.266,7.402C199.672,434.182,203.562,437.796,205.487,442.492z"/>
			<path style="fill:#FFFFFF;" d="M18.704,284.437l48.639,19.529c4.691,1.939,8.295,5.839,9.859,10.668
				c2.662,7.895,5.848,15.604,9.537,23.076c2.308,4.535,2.513,9.854,0.559,14.553l-20.624,48.302
				c-2.605,6.14-1.442,13.232,2.99,18.217c3.323,3.755,6.773,7.423,10.352,11.004c3.574,3.584,7.232,7.044,10.973,10.38
				c4.96,4.441,12.042,5.61,18.166,2.997l7.293-3.131c-3.694-3.294-7.305-6.71-10.832-10.246
				c-3.574-3.584-7.025-7.252-10.352-11.004c-4.431-4.985-5.595-12.077-2.99-18.217l20.624-48.302
				c1.954-4.699,1.75-10.018-0.559-14.553c-3.689-7.471-6.875-15.18-9.537-23.076c-1.564-4.829-5.168-8.729-9.859-10.668
				l-48.639-19.529c-6.178-2.503-10.358-8.346-10.731-15.001c-0.298-5.012-0.445-10.052-0.44-15.12
				c0-5.069,0.147-10.109,0.44-15.121c0.374-6.655,4.553-12.497,10.731-15l48.639-19.529c4.691-1.939,8.295-5.839,9.859-10.668
				c2.662-7.896,5.848-15.605,9.537-23.076c2.308-4.535,2.513-9.854,0.559-14.553l-20.624-48.303
				c-2.605-6.14-1.442-13.231,2.99-18.216c3.323-3.755,6.774-7.423,10.352-11.004c3.528-3.537,7.139-6.953,10.832-10.246
				l-7.293-3.131c-6.124-2.613-13.206-1.444-18.166,2.997c-3.745,3.332-7.403,6.792-10.973,10.38
				c-3.574,3.584-7.025,7.252-10.352,11.004c-4.431,4.985-5.595,12.076-2.99,18.216l20.624,48.303
				c1.953,4.699,1.749,10.018-0.559,14.553c-3.689,7.471-6.875,15.18-9.537,23.076c-1.564,4.829-5.168,8.729-9.859,10.668
				l-48.639,19.53c-6.178,2.503-10.358,8.345-10.731,15.001c-0.298,5.012-0.445,10.052-0.44,15.121c0,5.068,0.147,10.108,0.44,15.12
				C8.347,276.092,12.526,281.934,18.704,284.437z"/>
			<path style="fill:#FFFFFF;" d="M182.923,86.15c4.684,1.959,9.994,1.754,14.513-0.561c7.449-3.698,15.137-6.893,23.012-9.563
				c4.824-1.576,8.714-5.19,10.639-9.885l19.108-47.854c2.584-6.488,8.86-10.747,15.844-10.752h-25.6
				c-6.984,0.005-13.26,4.264-15.844,10.752L205.487,66.14c-1.925,4.696-5.814,8.31-10.639,9.885
				c-6.215,2.144-12.312,4.614-18.266,7.402L182.923,86.15z"/>
			<path style="fill:#FFFFFF;" d="M363.764,85.589c4.519,2.315,9.829,2.52,14.513,0.561l40.878-17.551l-0.145-0.137
				c-4.285-3.785-10.187-5.157-15.702-3.652c-0.836,0.156-1.659,0.376-2.462,0.659l-41.828,17.959
				C360.596,84.156,362.211,84.817,363.764,85.589z"/>
		</g>
	</g>
	<g>
		<path style="fill:#428DFF;" d="M256,102.4c-62.961-0.087-119.58,38.309-142.794,96.834s-8.306,125.292,37.597,168.385
			c0.097,0.109,0.22,0.188,0.323,0.293c50.254,47.096,125.724,54.956,184.604,19.226c58.88-35.73,86.755-106.302,68.184-172.624
			C385.344,148.192,324.873,102.358,256,102.4z M168.194,360.4c2.413-3.125,5.443-5.72,8.902-7.624l41.567-22.367
			c8.171-4.388,13.27-12.909,13.275-22.183v-12.204c-0.005-2.019-0.721-3.972-2.021-5.517c-7.116-9.089-12.23-19.58-15.008-30.784
			c-0.501-2.168-1.826-4.056-3.696-5.262c-1.536-0.922-2.503-2.556-2.571-4.346v-18.433c0.073-1.487,0.759-2.876,1.896-3.837
			c1.78-1.618,2.795-3.911,2.796-6.316v-26.538c0-0.379-0.025-0.758-0.075-1.133c-0.512-7.175,1.778-14.27,6.388-19.792
			c6.921-7.917,19.154-11.929,36.354-11.929c17.079,0,29.263,3.958,36.212,11.767c4.675,5.557,7.015,12.709,6.529,19.954
			c-0.05,0.376-0.075,0.754-0.075,1.133v26.538c0.001,2.405,1.016,4.699,2.796,6.317c1.137,0.961,1.823,2.351,1.896,3.837v18.433
			c-0.103,2.281-1.643,4.244-3.833,4.887c-2.658,0.803-4.758,2.851-5.629,5.488c-2.916,9.008-7.18,17.522-12.646,25.254
			c-1.1,1.555-2.294,3.041-3.575,4.45c-1.48,1.58-2.304,3.664-2.304,5.829v12.629c0.035,9.629,5.513,18.41,14.146,22.675
			l44.45,21.925c3.639,1.812,6.845,4.387,9.399,7.55C292.64,403.262,218.726,403.093,168.194,360.4L168.194,360.4z M355.653,349.027
			c-3.93-4.592-8.732-8.358-14.128-11.081l-44.367-21.883c-2.849-1.379-4.676-4.248-4.721-7.412v-9.454
			c0.854-1.046,1.746-2.217,2.667-3.492c5.741-8.076,10.358-16.894,13.725-26.213c7.084-3.889,11.517-11.298,11.596-19.379v-18.433
			c-0.034-4.878-1.684-9.606-4.692-13.446v-22.817c0.907-11.827-2.877-23.536-10.533-32.596
			c-10.308-11.779-26.863-17.754-49.2-17.754s-38.892,5.975-49.2,17.754c-7.656,9.06-11.44,20.769-10.533,32.596v22.817
			c-3.008,3.84-4.658,8.568-4.692,13.446v18.433c0.022,6.298,2.735,12.287,7.454,16.458c3.276,11.666,8.644,22.64,15.842,32.387
			v9.267c-0.008,2.995-1.659,5.745-4.3,7.158l-41.588,22.375c-4.989,2.755-9.422,6.413-13.074,10.788
			c-50.431-54.368-48.243-139.051,4.929-190.741s137.882-51.487,190.805,0.46S406.346,294.903,355.653,349.027z"/>
		<path style="fill:#428DFF;" d="M495.475,217.279l-48.633-19.529c-2.375-1.018-4.186-3.022-4.958-5.488
			c-2.785-8.253-6.117-16.311-9.975-24.121c-1.196-2.305-1.327-5.016-0.358-7.425l20.625-48.296
			c3.878-9.174,2.148-19.759-4.45-27.221c-3.425-3.883-6.991-7.676-10.7-11.379c-3.7-3.708-7.467-7.287-11.342-10.725
			c-7.442-6.62-18.031-8.36-27.2-4.471l-48.175,20.684c-2.386,0.956-5.07,0.824-7.35-0.363c-7.789-3.866-15.828-7.209-24.062-10.005
			c-2.46-0.777-4.455-2.594-5.458-4.971l-19.108-47.846C290.481,6.37,281.049-0.029,270.563,0h-29.125
			c-10.485-0.029-19.917,6.368-23.767,16.121l-19.109,47.85c-1.004,2.377-2.999,4.195-5.458,4.975
			c-8.235,2.792-16.274,6.133-24.062,10c-2.28,1.186-4.964,1.318-7.35,0.363l-48.175-20.683c-9.169-3.888-19.756-2.149-27.2,4.467
			c-3.875,3.446-7.656,7.022-11.342,10.729c-3.696,3.7-7.264,7.492-10.704,11.375c-6.588,7.466-8.316,18.047-4.446,27.221
			l20.621,48.3c0.97,2.41,0.839,5.124-0.358,7.429c-3.855,7.811-7.188,15.869-9.975,24.121c-0.77,2.462-2.578,4.464-4.95,5.479
			l-48.638,19.529c-9.224,3.758-15.474,12.475-16.071,22.417c-0.308,5.179-0.46,10.387-0.454,15.625
			c0,5.233,0.151,10.444,0.454,15.633c0.605,9.938,6.852,18.649,16.071,22.409l48.642,19.529c2.371,1.012,4.179,3.014,4.946,5.475
			c2.787,8.255,6.12,16.316,9.975,24.129c1.2,2.302,1.331,5.014,0.358,7.421l-20.617,48.3c-3.874,9.173-2.147,19.755,4.442,27.221
			c3.437,3.888,7.004,7.679,10.7,11.375c3.692,3.704,7.474,7.282,11.346,10.733c7.446,6.616,18.035,8.353,27.204,4.463
			l48.175-20.683c2.383-0.964,5.069-0.832,7.346,0.362c7.789,3.866,15.828,7.208,24.062,10.004c2.458,0.778,4.452,2.593,5.458,4.966
			l19.475,48.779c3.727,9.234,12.432,15.501,22.371,16.108c5.171,0.313,10.368,0.465,15.591,0.458
			c5.225,0,10.421-0.153,15.587-0.458c9.942-0.606,18.649-6.876,22.375-16.112l19.475-48.767c1.004-2.378,2.998-4.198,5.458-4.979
			c8.235-2.792,16.274-6.133,24.062-10c2.278-1.193,4.966-1.325,7.35-0.358l48.171,20.679c9.166,3.889,19.751,2.153,27.196-4.458
			c3.883-3.446,7.65-7.029,11.35-10.738c3.7-3.704,7.264-7.493,10.692-11.366c6.602-7.46,8.336-18.048,4.458-27.225l-20.625-48.3
			c-0.969-2.409-0.838-5.121,0.358-7.425c3.861-7.812,7.193-15.875,9.975-24.133c0.771-2.462,2.583-4.463,4.958-5.471l48.633-19.533
			c9.224-3.752,15.473-12.468,16.067-22.409c0.308-5.179,0.461-10.389,0.458-15.629c0-5.242-0.153-10.449-0.458-15.621
			C510.953,229.752,504.703,221.031,495.475,217.279z M494.509,269.938c-0.19,3.356-2.29,6.306-5.4,7.583l-48.625,19.525
			c-7.007,2.867-12.405,8.662-14.767,15.854c-2.541,7.538-5.584,14.897-9.108,22.029c-3.403,6.771-3.68,14.691-0.758,21.683
			l20.634,48.313c1.303,3.111,0.7,6.695-1.55,9.208c-3.2,3.629-6.531,7.171-9.992,10.625c-3.45,3.458-6.986,6.803-10.608,10.033
			c-2.486,2.232-6.038,2.828-9.117,1.529l-48.171-20.675c-6.985-2.95-14.916-2.674-21.679,0.754
			c-7.107,3.526-14.441,6.573-21.955,9.121c-7.188,2.383-12.971,7.794-15.825,14.808L278.112,489.1
			c-1.261,3.108-4.198,5.212-7.546,5.408c-9.704,0.575-19.434,0.575-29.137,0c-3.345-0.197-6.28-2.3-7.542-5.404l-19.475-48.783
			c-2.856-7.01-8.639-12.417-15.825-14.796c-7.512-2.551-14.847-5.599-21.954-9.125c-3.649-1.824-7.671-2.778-11.75-2.788
			c-3.412-0.004-6.789,0.686-9.925,2.029l-48.171,20.679c-3.083,1.299-6.638,0.703-9.129-1.529c-3.617-3.221-7.15-6.565-10.6-10.033
			c-3.454-3.462-6.789-7.007-10.004-10.633c-2.238-2.52-2.833-6.1-1.529-9.208l20.617-48.3c2.934-6.991,2.658-14.917-0.754-21.688
			c-3.519-7.132-6.561-14.49-9.104-22.025c-2.361-7.193-7.757-12.99-14.763-15.858l-48.633-19.525
			c-3.109-1.281-5.208-4.231-5.4-7.587c-0.283-4.846-0.424-9.718-0.421-14.617c0-4.904,0.14-9.774,0.421-14.608
			c0.188-3.358,2.287-6.31,5.396-7.592l48.642-19.533c7.003-2.871,12.397-8.667,14.758-15.858c2.544-7.534,5.585-14.89,9.104-22.021
			c3.411-6.771,3.689-14.695,0.758-21.687l-20.625-48.3c-1.3-3.109-0.705-6.687,1.529-9.208c3.212-3.629,6.55-7.175,10.013-10.637
			c3.45-3.462,6.983-6.806,10.6-10.029c2.488-2.236,6.043-2.833,9.125-1.533l48.171,20.683c6.986,2.945,14.913,2.666,21.675-0.763
			c7.107-3.526,14.442-6.573,21.955-9.121c7.187-2.381,12.971-7.791,15.825-14.804l19.108-47.854
			c1.279-3.253,4.421-5.39,7.916-5.383h29.125c3.497-0.006,6.64,2.132,7.917,5.388l19.108,47.85
			c2.853,7.012,8.637,12.422,15.825,14.8c7.513,2.551,14.847,5.599,21.954,9.125c6.762,3.427,14.689,3.706,21.675,0.763
			l48.176-20.683c3.083-1.295,6.636-0.696,9.125,1.537c3.617,3.221,7.15,6.563,10.6,10.025c3.45,3.462,6.786,7.01,10.008,10.642
			c2.241,2.517,2.835,6.099,1.525,9.204l-20.625,48.304c-2.922,6.992-2.645,14.912,0.758,21.683c3.522,7.126,6.562,14.48,9.1,22.013
			c2.362,7.196,7.759,12.995,14.767,15.867l48.642,19.533c3.109,1.279,5.206,4.231,5.392,7.587
			c0.292,4.846,0.433,9.717,0.425,14.612C494.934,260.213,494.792,265.086,494.509,269.938z"/>
	</g>
</g>
<g>
</g>
<g>
</g>
<g>
</g>
<g>
</g>
<g>
</g>
<g>
</g>
<g>
</g>
<g>
</g>
<g>
</g>
<g>
</g>
<g>
</g>
<g>
</g>
<g>
</g>
<g>
</g>
<g>
</g>
</svg>
