<?xml version="1.0" encoding="iso-8859-1"?>
<!-- Generator: Adobe Illustrator 19.0.0, SVG Export Plug-In . SVG Version: 6.00 Build 0)  -->
<svg version="1.1" id="Capa_1" xmlns="http://www.w3.org/2000/svg" xmlns:xlink="http://www.w3.org/1999/xlink" x="0px" y="0px"
	 viewBox="0 0 511.734 511.734" style="enable-background:new 0 0 511.734 511.734;" xml:space="preserve">
<g>
	<g transform="translate(1 6)">
		<g>
			<path style="fill:#A4C2F7;" d="M101.267,139.041h290.133c9.426,0,17.067,7.641,17.067,17.067v51.2
				c0,9.426-7.641,17.067-17.067,17.067H101.267c-9.426,0-17.067-7.641-17.067-17.067v-51.2
				C84.201,146.682,91.842,139.041,101.267,139.041z"/>
			<path style="fill:#A4C2F7;" d="M442.601,480.033V497.1H67.134v-18.773c0.009-25.041,13.688-48.079,35.669-60.075l79.189-45.824
				c3.654-2.309,7.16-4.846,10.496-7.595c1.69-1.267,2.673-3.264,2.645-5.376c0.026-1.871-0.7-3.675-2.016-5.006
				s-3.11-2.079-4.982-2.076h-67.84c-3.603,0.369-7.234,0.369-10.837,0c-7.499-0.518-14.788-2.704-21.333-6.4
				c-8.74-5.479-11.441-16.971-6.059-25.771c15.701-25.856,49.493-88.405,53.845-154.624c0.759-18.413,4.835-36.539,12.032-53.504
				c12.544-27.819,33.451-60.928,85.163-66.219c4.394-0.451,8.809-0.679,13.227-0.683
				c105.557,0.853,110.933,110.933,110.933,110.933c1.365,69.547,39.424,133.717,59.477,162.304
				c3.261,4.656,4.26,10.53,2.723,16.003c-1.538,5.473-5.45,9.966-10.659,12.243c-13.752,5-28.427,6.95-43.008,5.717h-8.619
				c-0.16,0.085-0.352,0.085-0.512,0h-51.029c-2.796,0.011-5.389,1.461-6.863,3.837s-1.621,5.343-0.39,7.854
				c2.518,5.844,6.819,10.742,12.288,13.995l94.123,40.789C427.97,430.438,442.605,454.125,442.601,480.033z"/>
		</g>
		<path style="fill:#E3E7F2;" d="M417.001,480.033V497.1H67.134v-18.773c0.009-25.041,13.688-48.079,35.669-60.075l79.189-45.824
			c3.654-2.309,7.16-4.846,10.496-7.595c1.69-1.267,2.673-3.264,2.645-5.376c0.026-1.871-0.7-3.675-2.016-5.006
			s-3.11-2.079-4.982-2.076h-78.677c-7.499-0.518-14.788-2.704-21.333-6.4c-8.74-5.479-11.441-16.971-6.059-25.771
			c15.701-25.856,49.493-88.405,53.845-154.624c0.759-18.413,4.835-36.539,12.032-53.504c12.544-27.819,33.451-60.928,85.163-66.219
			c93.611,8.96,98.56,110.251,98.56,110.251c1.365,69.547,39.424,133.717,59.477,162.304c3.261,4.656,4.26,10.53,2.723,16.003
			c-1.538,5.473-5.45,9.966-10.659,12.243c-8.295,3.346-17.093,5.279-26.027,5.717c-0.16,0.085-0.352,0.085-0.512,0h-0.427
			c-5.339,0.421-10.703,0.421-16.043,0h-60.16c-2.15-0.001-4.213,0.852-5.734,2.373c-1.521,1.521-2.374,3.583-2.373,5.734
			c-0.002,1.245,0.29,2.473,0.853,3.584c2.518,5.844,6.819,10.742,12.288,13.995l94.123,40.789
			C402.37,430.438,417.005,454.125,417.001,480.033z"/>
		<path style="fill:#D4E1F4;" d="M237.801,258.508h25.6c9.426,0,17.067,7.641,17.067,17.067l0,0c0,9.426-7.641,17.067-17.067,17.067
			h-25.6c-9.426,0-17.067-7.641-17.067-17.067l0,0C220.734,266.149,228.375,258.508,237.801,258.508z"/>
		<g>
			<path style="fill:#FFFFFF;" d="M173.545,112.076c12.531-27.79,33.413-60.855,85.008-66.197c-3.94-0.376-7.959-0.67-12.218-0.705
				c-4.418,0.004-8.832,0.231-13.227,0.683c-51.712,5.291-72.619,38.4-85.163,66.219c-3.835,8.646-6.703,17.69-8.555,26.965h25.6
				C166.841,129.765,169.71,120.722,173.545,112.076z"/>
			<path style="fill:#FFFFFF;" d="M368.331,352.549c-0.323-0.017-0.574-0.033-0.839-0.049L368.331,352.549z"/>
			<path style="fill:#FFFFFF;" d="M366.886,352.461l-0.054-0.004L366.886,352.461z"/>
			<path style="fill:#FFFFFF;" d="M356.243,352.374h-16.043C345.54,352.795,350.904,352.795,356.243,352.374z"/>
			<path style="fill:#FFFFFF;" d="M383.16,352.374h-0.378c-0.16,0.085-0.352,0.085-0.512,0h-0.427
				c-4.403,0.326-8.821,0.389-13.231,0.188C373.461,352.795,378.319,352.733,383.16,352.374z"/>
			<path style="fill:#FFFFFF;" d="M92.734,478.326c0.009-25.041,13.688-48.079,35.669-60.075l79.189-45.824
				c3.654-2.309,7.16-4.846,10.496-7.595c1.69-1.267,2.673-3.264,2.645-5.376c0.026-1.871-0.7-3.675-2.016-5.006
				s-3.11-2.079-4.982-2.076h-25.6c1.872-0.003,3.666,0.745,4.982,2.076s2.042,3.135,2.016,5.006
				c0.027,2.112-0.956,4.109-2.645,5.376c-3.336,2.749-6.842,5.285-10.496,7.595l-79.189,45.824
				c-21.981,11.995-35.66,35.034-35.669,60.075V497.1h25.6V478.326z"/>
			<path style="fill:#FFFFFF;" d="M88.126,345.974c6.546,3.696,13.834,5.882,21.333,6.4c3.603,0.369,7.234,0.369,10.837,0h14.763
				c-7.499-0.518-14.788-2.704-21.333-6.4c-8.74-5.479-11.441-16.971-6.059-25.771c18.252-30.026,32.673-62.22,42.925-95.829
				h-23.725c-9.414-0.028-17.039-7.652-17.067-17.067v-51.2c0.028-9.414,7.653-17.039,17.067-17.067h-25.6
				c-9.414,0.028-17.039,7.653-17.067,17.067v51.2c0.028,9.414,7.652,17.039,17.067,17.067h23.725
				c-10.253,33.609-24.673,65.803-42.925,95.829C76.684,329.003,79.386,340.495,88.126,345.974z"/>
			<path style="fill:#FFFFFF;" d="M124.993,224.374l14.397-85.333h25.6c-2.818,28.743-7.629,57.256-14.397,85.333H124.993z"/>
		</g>
	</g>
	<g>
		<polygon style="fill:#FFFFFF;" points="68.134,494.566 179.067,494.566 443.601,494.566 443.601,511.633 179.067,511.633 
			68.134,511.633 		"/>
		<g>
			<path style="fill:#428DFF;" d="M130.342,497.041l-1.025,1.279c-0.324,0.476-0.583,0.993-0.771,1.538
				c-0.246,0.484-0.417,1.002-0.508,1.537c-0.096,0.564-0.153,1.133-0.171,1.705c0.031,2.259,0.915,4.423,2.475,6.059
				c1.994,2.07,4.908,2.979,7.726,2.409c2.818-0.57,5.149-2.539,6.183-5.222c0.438-1.027,0.67-2.13,0.684-3.246
				c-0.014-3.45-2.096-6.556-5.282-7.879C136.465,493.898,132.795,494.615,130.342,497.041z"/>
			<path style="fill:#428DFF;" d="M68.134,511.633h34.133c4.713,0,8.533-3.82,8.533-8.533s-3.821-8.533-8.533-8.533h-25.6v-10.204
				c0.01-21.999,12.067-42.226,31.412-52.7l79.017-45.767c4.087-2.49,7.984-5.279,11.658-8.346
				c5.185-4.094,7.208-11.023,5.04-17.263c-2.168-6.24-8.051-10.423-14.657-10.42h-67.833c-0.345,0.002-0.69,0.023-1.033,0.062
				c-9.236,0.851-18.522-0.982-26.742-5.279c-2.201-1.33-3.775-3.489-4.367-5.992c-0.67-2.723-0.232-5.6,1.217-8
				c7.916-13.128,15.151-26.654,21.678-40.525h102.716c3.592,10.199,13.214,17.033,24.027,17.066h25.6
				c14.138,0,25.6-11.461,25.6-25.6c0-14.138-11.462-25.6-25.6-25.6h-25.6c-10.813,0.033-20.435,6.868-24.028,17.067h-95.119
				c14.034-32.019,22.739-66.118,25.771-100.946c0.713-17.393,4.534-34.517,11.283-50.562
				c13.633-30.313,35.075-61.363,90.554-61.825c96.071,0.791,102.267,98.662,102.471,102.566
				c1.438,74.4,43.154,141.588,61.021,167.021c1.816,2.584,2.365,5.852,1.492,8.888c-0.823,2.969-2.944,5.407-5.771,6.633
				c-12.722,4.455-26.244,6.168-39.675,5.025h-60.125c-5.751-0.001-11.095,2.966-14.135,7.848
				c-3.039,4.882-3.343,10.988-0.803,16.147c3.445,7.621,9.241,13.938,16.538,18.025l93.671,40.562
				c20.351,10.088,33.196,30.869,33.121,53.583v8.533H170.534c-4.713,0-8.533,3.82-8.533,8.533s3.821,8.533,8.533,8.533h273.067
				c4.713,0,8.533-3.82,8.533-8.533v-17.067c0.059-29.341-16.626-56.145-42.979-69.046l-93.67-40.558
				c-3.643-2.428-6.661-5.681-8.809-9.496l59.313-0.038c16.018,1.339,32.136-0.837,47.225-6.375
				c7.569-3.299,13.255-9.825,15.486-17.775c2.231-7.95,0.77-16.482-3.978-23.237c-17.464-24.966-31.703-52.039-42.378-80.575
				h10.057c14.132-0.015,25.585-11.468,25.6-25.6v-51.2c-0.015-14.132-11.468-25.585-25.6-25.6C392.401,58.696,330.034,0,247.334,0
				S102.267,58.696,102.267,136.533c-14.132,0.015-25.585,11.468-25.6,25.6V256c0.045,12.685,7.141,24.292,18.41,30.116
				c-7.39,15.317-14.447,27.712-19.285,35.684c-3.797,6.289-4.946,13.827-3.195,20.962c1.676,6.923,6.063,12.881,12.175,16.538
				c11.299,6.157,24.174,8.814,36.987,7.633h62.838c-1.854,1.491-3.807,2.854-5.846,4.079l-79.029,45.775
				c-24.74,13.477-40.132,39.402-40.121,67.575V503.1c0,2.263,0.899,4.434,2.499,6.034C63.7,510.734,65.871,511.633,68.134,511.633z
				 M238.801,273.067h25.6c4.713,0,8.533,3.82,8.533,8.533s-3.82,8.533-8.533,8.533h-25.6c-4.713,0-8.533-3.82-8.533-8.533
				S234.088,273.067,238.801,273.067z M400.934,162.133v51.2c-0.006,4.71-3.823,8.527-8.533,8.533h-15.718
				c-5.981-19.515-9.308-39.747-9.89-60.15c-0.009-0.184-0.189-3.184-0.909-8.117h26.518
				C397.111,153.606,400.928,157.423,400.934,162.133z M247.334,17.067c72.971,0,128,51.358,128,119.467h-12.922
				c-8.936-34.744-35.749-93.214-115.149-93.867c-65.642,0.546-91.192,38.708-106.121,71.892c-3.106,7.096-5.59,14.449-7.424,21.975
				h-14.384C119.334,68.425,174.363,17.067,247.334,17.067z M93.734,162.133c0.006-4.71,3.823-8.527,8.533-8.533h28.004
				c-0.816,5.549-1.47,11.303-1.875,17.392c-1.269,17.213-4.257,34.257-8.919,50.875h-17.21c-4.71-0.006-8.527-3.823-8.533-8.533
				V162.133z M93.734,256v-18.64c2.733,1.012,5.62,1.544,8.533,1.573h12.056c-3.733,11.242-7.886,21.902-12.144,31.712
				C96.965,267.607,93.752,262.034,93.734,256z"/>
		</g>
	</g>
</g>
<g>
</g>
<g>
</g>
<g>
</g>
<g>
</g>
<g>
</g>
<g>
</g>
<g>
</g>
<g>
</g>
<g>
</g>
<g>
</g>
<g>
</g>
<g>
</g>
<g>
</g>
<g>
</g>
<g>
</g>
</svg>
