<?xml version="1.0" encoding="iso-8859-1"?>
<!-- Generator: Adobe Illustrator 19.0.0, SVG Export Plug-In . SVG Version: 6.00 Build 0)  -->
<svg version="1.1" id="Capa_1" xmlns="http://www.w3.org/2000/svg" xmlns:xlink="http://www.w3.org/1999/xlink" x="0px" y="0px"
	 viewBox="0 0 512.101 512.101" style="enable-background:new 0 0 512.101 512.101;" xml:space="preserve">
<g>
	<g transform="translate(1 7)">
		<path style="fill:#A4C2F7;" d="M161.184,138.067v-8.533c0,0-9.301-70.315,81.067-76.373c4.096-0.256,8.363-0.427,12.8-0.427
			c104.021,0,93.867,76.8,93.867,76.8V249c-6.329,23.946-17.351,46.396-32.427,66.048c-1.092,1.485-1.69,3.276-1.707,5.12v20.565
			c-0.027,11.753,6.577,22.517,17.067,27.819l73.131,40.704c23.166,11.639,37.792,35.344,37.803,61.269v25.941H67.317l0-27.648
			c-0.012-25.047,13.673-48.095,35.669-60.075l76.117-41.557c10.014-5.429,16.241-15.916,16.213-27.307v-19.712
			c-0.017-1.844-0.614-3.635-1.707-5.12c-15.075-19.652-26.098-42.102-32.427-66.048V138.067z"/>
		<path style="fill:#E3E7F2;" d="M323.317,223.4V249c-6.329,23.946-17.351,46.396-32.427,66.048c-1.092,1.485-1.69,3.276-1.707,5.12
			v20.565c-0.027,11.753,6.577,22.517,17.067,27.819l73.131,40.704c23.166,11.639,37.792,35.344,37.803,61.269v25.941H67.317
			l0-27.648c-0.012-25.047,13.673-48.095,35.669-60.075l76.117-41.557c10.014-5.429,16.241-15.916,16.213-27.307v-19.712
			c-0.017-1.844-0.614-3.635-1.707-5.12c-15.075-19.652-26.098-42.102-32.427-66.048v-25.6l-8.533-17.067v-51.2l8.533-17.067v-8.533
			c0,0-9.301-70.315,81.067-76.373c90.368,6.059,81.067,76.373,81.067,76.373V223.4z"/>
		<path style="fill:#D4E1F4;" d="M246.517,257.533h25.6c9.426,0,17.067,7.641,17.067,17.067l0,0c0,9.426-7.641,17.067-17.067,17.067
			h-25.6c-9.426,0-17.067-7.641-17.067-17.067l0,0C229.45,265.174,237.091,257.533,246.517,257.533z"/>
		<g>
			<path style="fill:#A4C2F7;" d="M127.05,138.067h34.133V223.4H127.05c-9.426,0-17.067-7.641-17.067-17.067v-51.2
				C109.984,145.708,117.625,138.067,127.05,138.067z"/>
			<path style="fill:#A4C2F7;" d="M383.05,223.4h-34.133v-85.333h34.133c9.426,0,17.067,7.641,17.067,17.067v51.2
				C400.117,215.759,392.476,223.4,383.05,223.4z"/>
		</g>
		<g>
			<path style="fill:#FFFFFF;" d="M92.917,468.819c-0.012-25.047,13.673-48.095,35.669-60.075l76.117-41.557
				c10.014-5.429,16.241-15.916,16.213-27.307v-19.712c-0.017-1.844-0.614-3.635-1.707-5.12
				c-15.075-19.652-26.098-42.102-32.427-66.048V129.533h-25.6V249c6.329,23.946,17.351,46.396,32.427,66.048
				c1.092,1.485,1.69,3.276,1.707,5.12v19.712c0.027,11.391-6.199,21.878-16.213,27.307l-76.117,41.557
				c-21.997,11.979-35.682,35.028-35.669,60.075l0,27.648h25.6V468.819z"/>
			<path style="fill:#FFFFFF;" d="M161.184,138.067h25.6v-8.533c0,0-9.276-70.175,80.818-76.351
				c-4.01-0.265-8.141-0.449-12.552-0.449c-4.437,0-8.704,0.171-12.8,0.427c-90.368,6.059-81.067,76.373-81.067,76.373V138.067z"/>
			<path style="fill:#FFFFFF;" d="M127.05,223.4h25.6c-9.426,0-17.067-7.641-17.067-17.067v-51.2
				c0-9.426,7.641-17.067,17.067-17.067h-25.6c-9.426,0-17.067,7.641-17.067,17.067v51.2
				C109.984,215.759,117.625,223.4,127.05,223.4z"/>
		</g>
	</g>
	<g>
		<polygon style="fill:#FFFFFF;" points="68.317,494.933 179.25,494.933 443.784,494.933 443.784,512 179.25,512 68.317,512 		"/>
		<g>
			<path style="fill:#428DFF;" d="M68.317,512h34.133c4.713,0,8.533-3.82,8.533-8.533c0-4.713-3.821-8.533-8.533-8.533h-25.6
				v-19.117c-0.031-21.93,11.955-42.115,31.225-52.583L184.15,381.7c12.787-6.908,20.741-20.287,20.7-34.821v-19.671
				c0.017-3.72-1.199-7.34-3.458-10.296c-6.337-8.471-12-17.424-16.94-26.779h39.038c3.592,10.199,13.214,17.033,24.027,17.067h25.6
				c14.138,0,25.6-11.462,25.6-25.6s-11.462-25.6-25.6-25.6h-25.6c-10.813,0.033-20.435,6.868-24.028,17.067h-46.92
				c-2.379-5.871-4.335-11.904-5.852-18.054V136.533c0-0.373-0.025-0.747-0.075-1.117c-1.251-15.523,3.665-30.914,13.683-42.837
				c14.137-16.133,38.271-24.313,71.725-24.313c33.329,0,57.412,8.121,71.575,24.137c10.039,11.988,15.002,27.42,13.833,43.013
				c-0.05,0.37-0.075,0.743-0.075,1.117v118.479c-6.145,22.416-16.561,43.434-30.675,61.9c-2.259,2.955-3.475,6.576-3.458,10.296
				v20.525c-0.099,14.868,8.203,28.519,21.45,35.271l73.45,40.875c20.342,10.128,33.173,30.923,33.1,53.646v17.408H170.717
				c-4.713,0-8.533,3.821-8.533,8.533c0,4.713,3.821,8.533,8.533,8.533h273.067c4.713,0,8.533-3.82,8.533-8.533v-25.941
				c0.129-29.061-16.215-55.687-42.188-68.725l-73.442-40.871c-7.624-3.836-12.417-11.661-12.371-20.196l-0.042-20.471
				c15.771-20.658,27.311-44.225,33.958-69.35c0.145-0.627,0.217-1.269,0.217-1.912v-17.067h25.6
				c14.132-0.015,25.585-11.468,25.6-25.6v-51.2c-0.033-10.813-6.868-20.435-17.067-24.028v-1.572
				C392.584,61.128,331.456,0,256.05,0S119.517,61.128,119.517,136.533v1.572c-10.199,3.592-17.033,13.214-17.067,24.028v51.2
				c0.033,10.813,6.868,20.435,17.067,24.027V256c0.022,18.842,15.291,34.112,34.133,34.133h11.737
				c6.218,13.07,13.72,25.49,22.396,37.075v19.671c0.032,8.27-4.49,15.886-11.767,19.817l-76.1,41.546
				c-24.765,13.454-40.169,39.392-40.133,67.575v27.65c0,2.263,0.899,4.434,2.499,6.034S66.054,512,68.317,512z M247.517,273.067
				h25.6c4.713,0,8.533,3.82,8.533,8.533s-3.82,8.533-8.533,8.533h-25.6c-4.713,0-8.533-3.821-8.533-8.533
				S242.804,273.067,247.517,273.067z M392.584,213.333c-0.006,4.71-3.823,8.527-8.533,8.533h-25.6V153.6h25.6
				c4.71,0.006,8.527,3.823,8.533,8.533V213.333z M256.05,17.067c65.949,0.074,119.393,53.518,119.467,119.467h-17.025
				c1.537-20.038-4.888-39.874-17.883-55.204C323.088,61.338,294.638,51.2,256.05,51.2s-67.038,10.138-84.558,30.129
				c-12.995,15.33-19.421,35.166-17.883,55.204h-17.025C136.658,70.584,190.101,17.141,256.05,17.067z M119.517,162.133
				c0.006-4.71,3.823-8.527,8.533-8.533h25.6v68.267h-25.6c-4.71-0.006-8.527-3.823-8.533-8.533V162.133z M153.65,273.067
				c-9.422-0.009-17.057-7.645-17.067-17.067v-17.067h17.067V256c-0.001,0.644,0.072,1.285,0.217,1.913
				c1.22,5.132,2.725,10.191,4.51,15.154H153.65z"/>
			<path style="fill:#428DFF;" d="M130.525,497.408l-1.025,1.279c-0.324,0.476-0.583,0.993-0.771,1.538
				c-0.246,0.484-0.417,1.002-0.508,1.537c-0.096,0.564-0.153,1.133-0.171,1.705c0.031,2.259,0.915,4.423,2.475,6.059
				c1.994,2.07,4.908,2.979,7.726,2.409c2.818-0.57,5.149-2.539,6.183-5.222c0.438-1.027,0.67-2.13,0.684-3.246
				c-0.014-3.45-2.096-6.556-5.282-7.879C136.648,494.264,132.979,494.982,130.525,497.408z"/>
		</g>
	</g>
</g>
<g>
</g>
<g>
</g>
<g>
</g>
<g>
</g>
<g>
</g>
<g>
</g>
<g>
</g>
<g>
</g>
<g>
</g>
<g>
</g>
<g>
</g>
<g>
</g>
<g>
</g>
<g>
</g>
<g>
</g>
</svg>
