<?xml version="1.0" encoding="iso-8859-1"?>
<!-- Generator: Adobe Illustrator 19.0.0, SVG Export Plug-In . SVG Version: 6.00 Build 0)  -->
<svg version="1.1" id="Capa_1" xmlns="http://www.w3.org/2000/svg" xmlns:xlink="http://www.w3.org/1999/xlink" x="0px" y="0px"
	 viewBox="0 0 512 512" style="enable-background:new 0 0 512 512;" xml:space="preserve">
<g>
	<g transform="translate(1 1)">
		<path style="fill:#A4C2F7;" d="M502.467,306.2v170.667c0.009,6.792-2.685,13.309-7.488,18.112s-11.32,7.497-18.112,7.488h-307.2
			c-6.792,0.009-13.309-2.685-18.112-7.488c-4.803-4.803-7.497-11.32-7.488-18.112V306.2c-0.009-6.792,2.685-13.309,7.488-18.112
			c4.803-4.803,11.32-7.497,18.112-7.488h221.867l42.667-52.309l11.008-13.483c2.45-2.435,6.125-3.158,9.315-1.834
			c3.191,1.325,5.272,4.438,5.277,7.892V280.6h17.067c6.792-0.009,13.309,2.685,18.112,7.488
			C499.782,292.891,502.476,299.408,502.467,306.2z"/>
		<path style="fill:#E3E7F2;" d="M476.867,306.2v170.667c0.009,6.792-2.685,13.309-7.488,18.112
			c-4.803,4.803-11.32,7.497-18.112,7.488h-281.6c-6.792,0.009-13.309-2.685-18.112-7.488c-4.803-4.803-7.497-11.32-7.488-18.112
			V306.2c-0.009-6.792,2.685-13.309,7.488-18.112c4.803-4.803,11.32-7.497,18.112-7.488h221.867l42.667-52.309V280.6h17.067
			c2.734-0.033,5.452,0.43,8.021,1.365c1.264,0.408,2.492,0.922,3.669,1.536C471.506,287.837,476.885,296.615,476.867,306.2z"/>
		<path style="fill:#A4C2F7;" d="M365.933,33.133V203.8c0.009,6.792-2.685,13.309-7.488,18.112
			c-4.803,4.803-11.32,7.497-18.112,7.488H118.467l-53.675,65.792c-2.45,2.435-6.125,3.158-9.315,1.834
			c-3.191-1.325-5.272-4.438-5.277-7.892V229.4H33.133c-2.734,0.033-5.452-0.429-8.021-1.365
			c-10.5-3.405-17.603-13.197-17.579-24.235V33.133c-0.009-6.792,2.685-13.309,7.488-18.112s11.32-7.497,18.112-7.488h307.2
			c6.792-0.009,13.309,2.685,18.112,7.488C363.248,19.824,365.942,26.341,365.933,33.133z"/>
		<path style="fill:#E3E7F2;" d="M340.333,33.133V203.8c0.009,6.792-2.685,13.309-7.488,18.112
			c-4.803,4.803-11.32,7.497-18.112,7.488H92.867L50.2,281.709V229.4H33.133c-2.734,0.033-5.452-0.429-8.021-1.365
			c-10.5-3.405-17.603-13.197-17.579-24.235V33.133c-0.009-6.792,2.685-13.309,7.488-18.112s11.32-7.497,18.112-7.488h281.6
			c6.792-0.009,13.309,2.685,18.112,7.488C337.648,19.824,340.342,26.341,340.333,33.133z"/>
		<g>
			<path style="fill:#FFFFFF;" d="M169.667,502.467h25.6c-6.792,0.009-13.309-2.685-18.112-7.488s-7.497-11.32-7.488-18.112V306.2
				c-0.009-6.792,2.685-13.309,7.488-18.112c4.803-4.803,11.32-7.497,18.112-7.488l-25.6,0c-6.792-0.009-13.309,2.685-18.112,7.488
				c-4.803,4.803-7.497,11.32-7.488,18.112v170.667c-0.009,6.792,2.685,13.309,7.488,18.112
				C156.358,499.782,162.874,502.476,169.667,502.467z"/>
			<path style="fill:#FFFFFF;" d="M25.112,228.035c2.569,0.936,5.287,1.399,8.021,1.365H50.2v59.733
				c0.005,3.455,2.086,6.568,5.277,7.892c3.191,1.325,6.865,0.602,9.315-1.834L75.8,281.699V229.4H58.733
				c-2.734,0.033-5.452-0.429-8.021-1.365c-10.5-3.405-17.603-13.197-17.579-24.235V33.133c-0.009-6.792,2.685-13.309,7.488-18.112
				s11.32-7.497,18.112-7.488h-25.6c-6.792-0.009-13.309,2.685-18.112,7.488s-7.497,11.32-7.488,18.112V203.8
				C7.509,214.838,14.612,224.63,25.112,228.035z"/>
		</g>
	</g>
	<g>
		<polygon style="fill:#FFFFFF;" points="17.067,34.133 17.067,145.067 17.067,204.8 0,204.8 0,145.067 0,34.133 		"/>
		<g>
			<path style="fill:#428DFF;" d="M187.738,152.992c31.556-4.554,53.975-33.087,50.933-64.825s-30.472-55.493-62.319-53.97
				c-31.847,1.523-56.885,27.787-56.885,59.67c0,4.713,3.821,8.533,8.533,8.533c4.713,0,8.533-3.821,8.533-8.533
				c-0.02-12.858,5.778-25.034,15.771-33.125c10.144-8.173,23.438-11.323,36.171-8.571c16.226,3.521,28.899,16.195,32.421,32.421
				c2.558,11.595,0.178,23.732-6.57,33.502c-6.748,9.77-17.256,16.293-29.005,18.006c-8.375,1.216-14.604,8.371-14.654,16.833v9.2
				c0,4.713,3.821,8.533,8.533,8.533s8.533-3.821,8.533-8.533L187.738,152.992z"/>
			<path style="fill:#428DFF;" d="M34.133,238.933h8.533v51.183c-0.006,6.906,4.151,13.134,10.531,15.777s13.724,1.178,18.602-3.71
				c0.205-0.2,0.397-0.413,0.575-0.638l51.137-62.612h217.821c18.842-0.022,34.112-15.291,34.133-34.133V34.133
				C375.445,15.291,360.176,0.022,341.333,0h-307.2C15.291,0.022,0.022,15.291,0,34.133v34.133C0,72.98,3.821,76.8,8.533,76.8
				s8.533-3.82,8.533-8.533V34.133c0.009-9.422,7.645-17.057,17.067-17.067h307.2c9.422,0.009,17.057,7.645,17.067,17.067V204.8
				c-0.009,9.422-7.645,17.057-17.067,17.067H119.467c-0.144,0-0.263,0.075-0.405,0.082c-2.218,0.241-4.29,1.224-5.88,2.79
				c-0.096,0.107-0.23,0.153-0.323,0.265l-53.125,65.042V230.4c0-4.713-3.821-8.533-8.533-8.533H34.133
				c-9.422-0.009-17.057-7.645-17.067-17.067v-68.267c0-4.713-3.821-8.533-8.533-8.533S0,131.821,0,136.533V204.8
				C0.022,223.642,15.291,238.912,34.133,238.933z"/>
			<path style="fill:#428DFF;" d="M8.533,110.933c2.259-0.034,4.422-0.918,6.059-2.475c3.3-3.365,3.3-8.752,0-12.117l-1.279-1.025
				c-0.476-0.324-0.993-0.583-1.538-0.771c-0.484-0.246-1.003-0.417-1.538-0.509c-0.563-0.096-1.133-0.153-1.704-0.171
				c-2.259,0.031-4.423,0.915-6.059,2.475c-3.222,3.397-3.222,8.721,0,12.117c0.815,0.77,1.77,1.379,2.813,1.792
				C6.314,110.688,7.417,110.92,8.533,110.933z"/>
			<path style="fill:#428DFF;" d="M477.867,273.067h-8.533v-51.183c-0.001-6.902-4.159-13.125-10.536-15.766
				c-6.377-2.641-13.717-1.181-18.598,3.699c-0.205,0.2-0.397,0.413-0.575,0.638l-51.137,62.612H170.667
				c-18.842,0.022-34.112,15.291-34.133,34.133v170.667c0.022,18.842,15.291,34.112,34.133,34.133h307.2
				c18.842-0.022,34.112-15.291,34.133-34.133V307.2C511.978,288.358,496.709,273.088,477.867,273.067z M494.933,477.867
				c-0.009,9.422-7.645,17.057-17.067,17.067h-307.2c-9.422-0.009-17.057-7.645-17.067-17.067V307.2
				c0.009-9.422,7.645-17.057,17.067-17.067h221.867c1.194-0.007,2.373-0.267,3.459-0.764c0.253-0.153,0.499-0.318,0.735-0.496
				c0.786-0.432,1.499-0.986,2.11-1.642c0.089-0.099,0.219-0.132,0.304-0.236l53.125-65.042V281.6c0,4.713,3.82,8.533,8.533,8.533
				h17.067c9.422,0.009,17.057,7.645,17.067,17.067V477.867z"/>
			<path style="fill:#428DFF;" d="M426.667,409.6h-25.6v-21.333c0-4.713-3.82-8.533-8.533-8.533s-8.533,3.82-8.533,8.533V409.6
				h-36.162l43.446-72.408c2.425-4.041,1.116-9.283-2.925-11.708c-4.041-2.425-9.283-1.116-11.708,2.925l-51.2,85.333
				c-1.582,2.636-1.623,5.92-0.109,8.595c1.515,2.676,4.351,4.33,7.425,4.33H384v25.6c0,4.713,3.82,8.533,8.533,8.533
				s8.533-3.82,8.533-8.533v-25.6h25.6c4.713,0,8.533-3.82,8.533-8.533S431.38,409.6,426.667,409.6z"/>
			<path style="fill:#428DFF;" d="M284.542,413.904c1.279-1.492,2.542-2.996,3.771-4.517c10.008-12.354,19.225-26.046,18.879-42.429
				c0.047-19.991-13.734-37.359-33.212-41.858c-18.463-2.748-37.082,3.878-49.658,17.671c-3.314,3.352-3.283,8.755,0.069,12.069
				c3.352,3.314,8.755,3.283,12.069-0.069c8.681-9.554,21.421-14.361,34.25-12.921c11.51,3.087,19.487,13.551,19.416,25.467
				c-1.333,11.85-6.648,22.897-15.075,31.333c-1.133,1.4-2.295,2.779-3.467,4.146c-13.886,15.835-29.424,30.141-46.35,42.675
				c-2.918,2.215-4.097,6.046-2.928,9.518c1.168,3.472,4.423,5.811,8.087,5.811h68.2c4.713,0,8.533-3.82,8.533-8.533
				s-3.82-8.533-8.533-8.533h-44.05C265.273,434.554,275.302,424.583,284.542,413.904z"/>
			<path style="fill:#428DFF;" d="M182.442,188.413c-2.079-0.85-4.409-0.85-6.487,0c-1.044,0.413-1.999,1.023-2.813,1.796
				c-0.754,0.828-1.362,1.78-1.796,2.813c-0.436,1.027-0.667,2.13-0.679,3.246c0.014,0.572,0.071,1.141,0.171,1.704
				c0.091,0.535,0.263,1.053,0.508,1.537c0.187,0.544,0.447,1.062,0.771,1.538c0.341,0.425,0.683,0.85,1.025,1.279
				c1.636,1.558,3.8,2.441,6.059,2.475c1.119,0.029,2.229-0.205,3.242-0.683c1.033-0.434,1.986-1.04,2.817-1.792
				c0.341-0.429,0.683-0.854,1.021-1.279c0.324-0.476,0.583-0.993,0.771-1.538c0.245-0.485,0.418-1.003,0.513-1.537
				c0.098-0.563,0.155-1.133,0.171-1.704c-0.013-1.116-0.245-2.219-0.683-3.246C186.27,190.88,184.583,189.193,182.442,188.413
				L182.442,188.413z"/>
		</g>
	</g>
</g>
<g>
</g>
<g>
</g>
<g>
</g>
<g>
</g>
<g>
</g>
<g>
</g>
<g>
</g>
<g>
</g>
<g>
</g>
<g>
</g>
<g>
</g>
<g>
</g>
<g>
</g>
<g>
</g>
<g>
</g>
</svg>
