<?xml version="1.0" encoding="iso-8859-1"?>
<!-- Generator: Adobe Illustrator 19.0.0, SVG Export Plug-In . SVG Version: 6.00 Build 0)  -->
<svg version="1.1" id="Capa_1" xmlns="http://www.w3.org/2000/svg" xmlns:xlink="http://www.w3.org/1999/xlink" x="0px" y="0px"
	 viewBox="0 0 509.971 509.971" style="enable-background:new 0 0 509.971 509.971;" xml:space="preserve">
<g>
	<g transform="translate(1 6)">
		<path style="fill:#7FABFA;" d="M472.865,281.317l-48.213,24.149v96.085c-0.003,6.476-3.672,12.393-9.472,15.275l-153.6,76.8
			c-4.781,2.389-10.408,2.389-15.189,0l-5.205-2.56l-148.395-74.24c-5.8-2.882-9.469-8.798-9.472-15.275v-96.085l-48.213-24.149
			c-2.558-1.266-4.312-3.728-4.672-6.559c-0.36-2.831,0.721-5.654,2.88-7.521L83.319,224.4l118.102-59.051
			c-12.602-15.073-18.022-34.883-14.849-54.272c4.697-28.283,26.472-50.67,54.613-56.149c1.664-0.346,3.344-0.602,5.035-0.768
			c27.65-3.193,54.467,10.735,67.756,35.193s10.383,54.536-7.342,75.997L424.652,224.4l50.005,42.837
			c2.159,1.866,3.24,4.69,2.88,7.521C477.177,277.589,475.423,280.051,472.865,281.317z"/>
		<path style="fill:#E3E7F2;" d="M447.265,281.317l-48.213,24.149v96.085c-0.003,6.476-3.672,12.393-9.472,15.275l-148.395,74.24
			l-148.395-74.24c-5.8-2.882-9.469-8.798-9.472-15.275v-96.085l-48.213-24.149c-2.558-1.266-4.312-3.728-4.672-6.559
			c-0.36-2.831,0.721-5.654,2.88-7.521L83.319,224.4l118.102-59.051c-12.602-15.073-18.022-34.883-14.849-54.272
			c4.697-28.283,26.472-50.67,54.613-56.149c23.685,4.498,43.234,21.169,51.418,43.845c8.184,22.677,3.786,47.989-11.568,66.576
			L399.052,224.4l50.005,42.837c2.159,1.866,3.24,4.69,2.88,7.521C451.577,277.589,449.823,280.051,447.265,281.317z"/>
		<g>
			<path style="fill:#7FABFA;" d="M306.596,165.372c-1.143,1.381-2.309,2.743-3.556,4.03c-9.703,10.232-15.053,23.832-14.921,37.932
				c0,9.426-7.641,17.066-17.067,17.067h-34.133c-9.426,0-17.066-7.641-17.067-17.067v-0.007
				c0.055-14.207-5.379-27.886-15.169-38.181c-1.154-1.204-2.194-2.512-3.258-3.798L83.319,224.4l170.667,85.333L424.652,224.4
				L306.596,165.372z"/>
			<path style="fill:#7FABFA;" d="M472.865,281.317l-20.992,10.496l-133.119,66.56c-3.04,1.545-6.711,1.107-9.302-1.109
				l-52.309-44.8l-3.157-2.731L424.652,224.4l50.005,42.837c2.159,1.866,3.24,4.69,2.88,7.521
				C477.177,277.589,475.423,280.051,472.865,281.317z"/>
		</g>
		<g>
			<path style="fill:#E3E7F2;" d="M33.343,267.236L83.319,224.4l170.667,85.333l-55.431,47.513c-2.607,2.234-6.299,2.689-9.37,1.153
				L35.081,281.348c-2.557-1.278-4.304-3.752-4.653-6.59S31.173,269.097,33.343,267.236z"/>
			<path style="fill:#E3E7F2;" d="M451.873,291.813l-133.119,66.56c-3.04,1.545-6.711,1.107-9.302-1.109l-52.309-44.8
				l141.909-70.997l50.005,42.837C451.23,286.153,452.294,288.992,451.873,291.813z"/>
		</g>
		<path style="fill:#A4C2F7;" d="M322.246,122c0.01,17.709-6.877,34.727-19.2,47.445c-9.719,10.204-15.077,23.796-14.933,37.888
			c0.001,4.527-1.797,8.868-4.997,12.069c-3.201,3.201-7.543,4.999-12.069,4.997H236.23c-9.158-0.367-16.391-7.901-16.384-17.067
			c0.035-14.196-5.405-27.858-15.189-38.144c-17.31-18.068-23.345-44.16-15.726-67.995c7.618-23.834,27.668-41.588,52.249-46.267
			c1.663-0.346,3.344-0.602,5.035-0.768c19.331-2.198,38.682,3.951,53.199,16.904C313.93,84.017,322.235,102.545,322.246,122z"/>
		<path style="fill:#E3E7F2;" d="M296.646,122c0.01,17.709-6.877,34.727-19.2,47.445c-9.719,10.204-15.076,23.796-14.933,37.888
			c0.001,4.527-1.797,8.868-4.997,12.069c-3.201,3.201-7.543,4.999-12.069,4.997h-9.216c-9.158-0.367-16.391-7.901-16.384-17.067
			c0.035-14.196-5.405-27.858-15.189-38.144c-17.31-18.068-23.345-44.16-15.726-67.995c7.618-23.834,27.668-41.588,52.249-46.267
			C273.373,61.069,296.657,89.226,296.646,122z"/>
		<path style="fill:#FFFFFF;" d="M118.391,415.449c-5.835-2.997-9.495-9.015-9.472-15.576v-97.979l-0.202-0.104L60.681,277.3
			c-2.534-1.368-4.249-3.879-4.6-6.738c-0.351-2.858,0.704-5.71,2.832-7.651l50.005-43.681L226.99,159.03
			c-1.368-1.694-2.645-3.454-3.855-5.275c-0.186-0.278-0.373-0.555-0.555-0.835c-0.993-1.541-1.925-3.121-2.796-4.74
			c-0.394-0.723-0.766-1.455-1.133-2.194c-0.667-1.35-1.3-2.711-1.881-4.109c-0.44-1.052-0.834-2.125-1.225-3.204
			c-0.435-1.215-0.867-2.429-1.237-3.675c-0.396-1.325-0.719-2.676-1.037-4.033c-0.256-1.096-0.531-2.18-0.737-3.295
			c-0.294-1.588-0.482-3.209-0.668-4.833c-0.108-0.96-0.259-1.903-0.329-2.875c-0.137-1.893-0.144-3.819-0.127-5.75
			c0.006-0.763-0.046-1.511-0.017-2.28c0.097-2.401,0.34-4.829,0.681-7.273c0.046-0.331,0.042-0.653,0.093-0.985
			c4.473-28.566,26.188-51.367,54.503-57.225c-4.223-0.825-8.516-1.244-12.819-1.249c-2.551,0.004-5.1,0.149-7.635,0.434
			c-1.691,0.169-3.372,0.431-5.035,0.783c-28.367,5.822-50.137,28.645-54.613,57.256c-0.051,0.332-0.047,0.654-0.093,0.985
			c-0.341,2.445-0.584,4.873-0.681,7.273c-0.029,0.769,0.023,1.517,0.017,2.28c-0.017,1.932-0.01,3.857,0.127,5.75
			c0.07,0.971,0.221,1.915,0.329,2.875c0.185,1.625,0.374,3.245,0.668,4.833c0.205,1.115,0.48,2.199,0.737,3.295
			c0.319,1.357,0.642,2.709,1.037,4.033c0.371,1.246,0.802,2.46,1.237,3.675c0.391,1.079,0.785,2.152,1.225,3.204
			c0.581,1.397,1.215,2.759,1.881,4.109c0.368,0.739,0.74,1.471,1.133,2.194c0.873,1.623,1.805,3.203,2.796,4.74
			c0.182,0.281,0.369,0.558,0.555,0.835c1.21,1.821,2.488,3.581,3.855,5.275l-118.071,60.2l-50.005,43.681
			c-2.128,1.941-3.183,4.792-2.832,7.651c0.351,2.858,2.065,5.37,4.599,6.738l48.035,24.491l0.202,0.104v97.979
			c-0.023,6.56,3.637,12.578,9.472,15.576l148.395,75.703l5.205,2.61c4.77,2.436,10.419,2.436,15.189,0l5.163-2.632L118.391,415.449
			z"/>
	</g>
	<g>
		<polygon style="fill:#FFFFFF;" points="97.571,415.215 196.788,464.828 251.171,492.015 243.534,507.281 189.159,480.094 
			89.934,430.481 		"/>
		<g>
			<path style="fill:#428DFF;" d="M431.202,223.921c-0.206-0.177-0.454-0.269-0.673-0.424c-0.334-0.27-0.689-0.515-1.06-0.73
				L320.334,168.2c19.547-31.607,13.585-72.686-14.14-97.433c-28.389-25.513-71.215-26.28-100.499-1.799
				s-36.122,66.764-16.047,99.226L80.502,222.767c-0.366,0.213-0.715,0.453-1.044,0.719c-0.237,0.133-0.467,0.278-0.69,0.435
				l-49.975,42.837c-4.341,3.72-6.531,9.366-5.834,15.04c0.697,5.674,4.188,10.622,9.301,13.181l43.525,21.762v90.846
				c-0.031,9.705,5.456,18.583,14.15,22.896l0.004,0.001l30.527,15.263c2.73,1.386,5.992,1.204,8.551-0.478
				c2.558-1.681,4.02-4.604,3.83-7.66c-0.19-3.055-2.002-5.775-4.748-7.127L97.573,415.22l-0.004-0.003
				c-2.897-1.437-4.726-4.395-4.717-7.629v-82.313l93.517,46.758c1.382,0.671,2.848,1.151,4.359,1.427
				c0.478,0.094,0.95,0.113,1.432,0.165c0.61,0.104,1.224,0.175,1.842,0.212c0.521,0,1.033-0.088,1.55-0.136
				c0.289-0.026,0.571-0.035,0.857-0.076c1.399-0.202,2.767-0.578,4.073-1.12c0.276-0.114,0.533-0.25,0.803-0.379
				c1.373-0.628,2.657-1.436,3.817-2.403l49.883-42.754l49.883,42.758c1.17,0.974,2.465,1.786,3.85,2.416
				c0.247,0.117,0.485,0.244,0.74,0.348c1.329,0.554,2.723,0.936,4.148,1.137c0.247,0.034,0.491,0.041,0.74,0.065
				c0.541,0.051,1.078,0.142,1.623,0.142c0.641-0.038,1.279-0.111,1.911-0.22c0.45-0.051,0.89-0.067,1.336-0.154
				c1.52-0.275,2.996-0.756,4.385-1.43l93.517-46.758v82.313c0.01,3.234-1.819,6.192-4.717,7.629l-153.6,76.8
				c-2.403,1.2-5.23,1.2-7.633,0l-0.004-0.001l-62.006-31.003c-2.727-1.363-5.974-1.168-8.518,0.511
				c-2.544,1.68-3.999,4.589-3.816,7.633c0.183,3.043,1.975,5.758,4.702,7.121l62.005,31.003l0.004,0.003
				c7.213,3.583,15.687,3.583,22.9,0l153.6-76.8c8.694-4.313,14.181-13.191,14.15-22.896v-90.846l43.525-21.762
				c5.112-2.559,8.604-7.507,9.301-13.181c0.697-5.674-1.493-11.32-5.834-15.04L431.202,223.921z M196.002,118.367
				c4.436-26.296,25.656-46.533,52.133-49.717c2.299-0.257,4.611-0.386,6.925-0.387c14.682-0.046,28.854,5.381,39.75,15.221
				c12.657,11.338,19.895,27.524,19.908,44.517c0.014,13.843-4.822,27.254-13.668,37.903l-0.041,0.035
				c-0.992,1.204-2,2.392-3.108,3.525c-11.274,11.805-17.488,27.548-17.317,43.871c-0.005,4.711-3.822,8.529-8.533,8.533h-34.133
				c-4.713-0.007-8.531-3.829-8.533-8.542c0.002-4.108-0.383-8.208-1.15-12.244c-2.259-11.984-7.958-23.051-16.4-31.852
				l-0.054-0.061c-0.934-0.978-1.753-2.032-2.611-3.06l-0.151-0.183l-0.021-0.018C198.017,152.674,193.28,135.346,196.002,118.367z
				 M200.254,181.974c0.977,1.074,1.812,2.245,2.676,3.398c0.759,1.013,1.609,1.966,2.28,3.034c0.865,1.48,1.647,3.007,2.342,4.574
				c0.506,1.055,1.123,2.054,1.548,3.145c0.648,1.813,1.184,3.664,1.604,5.543c0.24,0.952,0.609,1.857,0.79,2.828
				c0.546,2.914,0.823,5.872,0.825,8.837c0.015,14.132,11.468,25.585,25.6,25.6h34.133c14.132-0.015,25.585-11.468,25.6-25.6
				c0-2.992,0.272-5.978,0.812-8.921c0.165-0.895,0.508-1.72,0.721-2.597c0.424-1.964,0.975-3.898,1.65-5.79
				c0.377-0.976,0.937-1.851,1.379-2.794c0.723-1.67,1.548-3.294,2.471-4.863c0.598-0.952,1.373-1.775,2.044-2.677
				c0.914-1.299,1.899-2.546,2.951-3.736l96.889,48.444l-151.583,75.792L103.402,230.4L200.254,181.974z M39.894,279.717
				l45.675-39.15l154.105,77.053l-45.672,39.147L88.135,303.833c-0.06-0.03-0.127-0.036-0.188-0.065l-48.079-24.027L39.894,279.717z
				 M421.836,303.833l-105.867,52.933l-45.672-39.147l154.105-77.053l45.667,39.15L421.836,303.833z"/>
			<path style="fill:#428DFF;" d="M158.629,445.747c-2.036-0.98-4.366-1.157-6.526-0.495l-1.489,0.685
				c-0.503,0.28-0.966,0.627-1.377,1.031c-0.436,0.323-0.821,0.71-1.143,1.148c-0.338,0.461-0.643,0.945-0.915,1.448
				c-0.982,2.035-1.159,4.366-0.496,6.526c0.858,2.744,3.058,4.859,5.833,5.61c2.775,0.75,5.741,0.032,7.865-1.906
				c0.851-0.722,1.552-1.605,2.063-2.597c1.035-2.02,1.214-4.372,0.496-6.526C162.223,448.517,160.669,446.743,158.629,445.747
				L158.629,445.747z"/>
			<path style="fill:#428DFF;" d="M297.652,264.533c0.001-2.263-0.898-4.434-2.499-6.035c-1.6-1.6-3.771-2.499-6.035-2.499h-68.267
				c-4.713,0-8.533,3.821-8.533,8.533s3.82,8.533,8.533,8.533h68.267c2.263,0.001,4.434-0.898,6.035-2.499
				C296.754,268.968,297.653,266.797,297.652,264.533z"/>
			<path style="fill:#428DFF;" d="M263.519,25.6V8.533c0-4.713-3.82-8.533-8.533-8.533c-4.713,0-8.533,3.821-8.533,8.533V25.6
				c0,4.713,3.821,8.533,8.533,8.533C259.698,34.133,263.519,30.313,263.519,25.6z"/>
			<path style="fill:#428DFF;" d="M182.577,64.125c3.451-0.001,6.562-2.08,7.882-5.268c1.32-3.188,0.591-6.858-1.849-9.298
				l-12.066-12.067c-3.334-3.322-8.728-3.318-12.056,0.01c-3.328,3.328-3.333,8.722-0.01,12.056l12.067,12.067
				C178.142,63.228,180.313,64.128,182.577,64.125z"/>
			<path style="fill:#428DFF;" d="M152.585,136.533c4.713,0,8.533-3.821,8.533-8.533c0-4.713-3.821-8.533-8.533-8.533h-17.067
				c-4.713,0-8.533,3.821-8.533,8.533c0,4.713,3.821,8.533,8.533,8.533H152.585z"/>
			<path style="fill:#428DFF;" d="M321.36,61.625c1.6,1.601,3.77,2.5,6.033,2.5s4.433-0.899,6.033-2.5l12.067-12.067
				c2.162-2.154,3.008-5.299,2.22-8.247c-0.788-2.948-3.091-5.251-6.039-6.039c-2.948-0.788-6.093,0.058-8.247,2.22L321.36,49.558
				c-1.601,1.6-2.5,3.77-2.5,6.033S319.76,60.025,321.36,61.625z"/>
			<path style="fill:#428DFF;" d="M374.452,136.533c4.713,0,8.533-3.821,8.533-8.533c0-4.713-3.821-8.533-8.533-8.533h-17.067
				c-4.713,0-8.533,3.821-8.533,8.533c0,4.713,3.82,8.533,8.533,8.533H374.452z"/>
		</g>
	</g>
</g>
<g>
</g>
<g>
</g>
<g>
</g>
<g>
</g>
<g>
</g>
<g>
</g>
<g>
</g>
<g>
</g>
<g>
</g>
<g>
</g>
<g>
</g>
<g>
</g>
<g>
</g>
<g>
</g>
<g>
</g>
</svg>
