<?xml version="1.0" encoding="iso-8859-1"?>
<!-- Generator: Adobe Illustrator 19.0.0, SVG Export Plug-In . SVG Version: 6.00 Build 0)  -->
<svg version="1.1" id="Capa_1" xmlns="http://www.w3.org/2000/svg" xmlns:xlink="http://www.w3.org/1999/xlink" x="0px" y="0px"
	 viewBox="0 0 512.001 512.001" style="enable-background:new 0 0 512.001 512.001;" xml:space="preserve">
<g>
	<g transform="translate(1 1)">
		<ellipse style="fill:#F29C1F;" cx="255.001" cy="289.134" rx="59.733" ry="25.6"/>
		<path style="fill:#A4C2F7;" d="M24.601,7.534h460.8c9.426,0,17.067,7.641,17.067,17.067v460.8c0,9.426-7.641,17.067-17.067,17.067
			h-460.8c-9.426,0-17.067-7.641-17.067-17.067V24.6C7.534,15.175,15.175,7.534,24.601,7.534z"/>
		<g>
			<path style="fill:#E3E7F2;" d="M24.601,7.534h435.2c9.426,0,17.067,7.641,17.067,17.067v460.8
				c0,9.426-7.641,17.067-17.067,17.067h-435.2c-9.426,0-17.067-7.641-17.067-17.067V24.6C7.534,15.175,15.175,7.534,24.601,7.534z"
				/>
			<g transform="matrix(0 1 -1 0 58 0)">
				<path style="fill:#E3E7F2;" d="M75.8-393.267h358.4c9.426,0,17.067,7.641,17.067,17.067v358.4
					c0,9.426-7.641,17.067-17.067,17.067H75.8c-9.426,0-17.067-7.641-17.067-17.067v-358.4
					C58.734-385.626,66.375-393.267,75.8-393.267z"/>
				<path style="fill:#E3E7F2;" d="M122.546-342.067h264.909c6.966,0,12.612,5.647,12.612,12.612v264.909
					c0,6.966-5.647,12.612-12.612,12.612H122.546c-6.966,0-12.612-5.647-12.612-12.612v-264.909
					C109.934-336.421,115.58-342.067,122.546-342.067z"/>
				<path style="fill:#E3E7F2;" d="M169.3-290.867h171.401c4.51,0,8.166,3.656,8.166,8.166V-111.3c0,4.51-3.656,8.166-8.166,8.166
					H169.3c-4.51,0-8.166-3.656-8.166-8.166v-171.401C161.134-287.211,164.79-290.867,169.3-290.867z"/>
			</g>
			<ellipse style="fill:#E3E7F2;" cx="255.001" cy="289.134" rx="59.733" ry="25.6"/>
			<polygon style="fill:#E3E7F2;" points="255.001,195.267 255.001,255 314.734,220.867 			"/>
		</g>
		<path style="fill:#FFFFFF;" d="M33.134,485.571v-460.8c0.028-9.414,7.652-17.039,17.067-17.067h-25.6
			C15.186,7.732,7.562,15.357,7.534,24.771v460.8c0.028,9.414,7.653,17.039,17.067,17.067h25.6
			C40.787,502.61,33.162,494.985,33.134,485.571z"/>
	</g>
	<g>
		<polygon style="fill:#FFFFFF;" points="0.001,349.867 0.001,238.934 0.001,25.6 17.067,25.6 17.067,238.934 17.067,349.867 		"/>
		<g>
			<path style="fill:#428DFF;" d="M5.292,289.455c0.484,0.246,1.002,0.417,1.537,0.508c0.563,0.096,1.133,0.153,1.704,0.171
				c2.259-0.031,4.423-0.915,6.059-2.475c3.221-3.397,3.221-8.72,0-12.117c-0.815-0.771-1.77-1.379-2.813-1.792
				c-1.027-0.438-2.13-0.67-3.246-0.683c-2.259,0.034-4.422,0.918-6.059,2.475c-3.3,3.365-3.3,8.752,0,12.117l1.279,1.025
				C4.231,289.008,4.748,289.267,5.292,289.455z"/>
			<path style="fill:#428DFF;" d="M486.401,0h-460.8C11.469,0.016,0.016,11.468,0.001,25.6v221.867c0,4.713,3.821,8.533,8.533,8.533
				s8.533-3.821,8.533-8.533V25.6c0.005-4.711,3.822-8.529,8.533-8.533h460.8c4.711,0.005,8.529,3.822,8.533,8.533v42.667
				c0,4.713,3.821,8.533,8.533,8.533s8.533-3.82,8.533-8.533V25.6C511.985,11.468,500.533,0.016,486.401,0z"/>
			<path style="fill:#428DFF;" d="M8.534,384c2.263,0.001,4.434-0.898,6.035-2.499c1.6-1.6,2.499-3.771,2.499-6.035v-59.733
				c0-4.713-3.821-8.533-8.533-8.533s-8.533,3.821-8.533,8.533v59.733c-0.001,2.263,0.898,4.434,2.499,6.035
				S6.271,384.001,8.534,384z"/>
			<path style="fill:#428DFF;" d="M503.467,110.934c-2.263-0.001-4.434,0.898-6.035,2.499c-1.6,1.6-2.499,3.771-2.499,6.035V486.4
				c-0.005,4.711-3.822,8.529-8.533,8.533h-460.8c-4.711-0.005-8.529-3.822-8.533-8.533v-59.733c0-4.713-3.821-8.533-8.533-8.533
				s-8.533,3.82-8.533,8.533V486.4c0.015,14.132,11.468,25.585,25.6,25.6h460.8c14.132-0.015,25.585-11.468,25.6-25.6V119.467
				c0.001-2.263-0.898-4.434-2.499-6.035C507.902,111.832,505.731,110.933,503.467,110.934z"/>
			<path style="fill:#428DFF;" d="M435.201,443.734h-281.6c-4.713,0-8.533,3.82-8.533,8.533s3.821,8.533,8.533,8.533h281.6
				c14.132-0.015,25.585-11.468,25.6-25.6V76.8c-0.015-14.132-11.468-25.585-25.6-25.6h-256c-4.713,0-8.533,3.821-8.533,8.533
				s3.82,8.533,8.533,8.533h256c4.711,0.005,8.529,3.822,8.533,8.533v358.4C443.729,439.911,439.912,443.729,435.201,443.734z"/>
			<path style="fill:#428DFF;" d="M128.001,51.2h-51.2c-14.132,0.015-25.585,11.468-25.6,25.6v358.4
				c0.015,14.132,11.468,25.585,25.6,25.6h25.6c4.713,0,8.533-3.82,8.533-8.533s-3.821-8.533-8.533-8.533h-25.6
				c-4.711-0.005-8.529-3.822-8.533-8.533V76.8c0.005-4.711,3.822-8.529,8.533-8.533h51.2c4.713,0,8.533-3.821,8.533-8.533
				S132.714,51.2,128.001,51.2z"/>
			<path style="fill:#428DFF;" d="M102.401,128v76.8c0,4.713,3.821,8.533,8.533,8.533c4.713,0,8.533-3.821,8.533-8.533V128
				c0.005-4.711,3.822-8.529,8.533-8.533h170.667V153.6H179.201c-14.132,0.015-25.585,11.468-25.6,25.6v110.933h-34.133V256
				c0-4.713-3.821-8.533-8.533-8.533c-4.713,0-8.533,3.821-8.533,8.533v128c0.015,14.132,11.468,25.585,25.6,25.6h256
				c14.132-0.015,25.585-11.468,25.6-25.6V256c0-4.713-3.821-8.533-8.533-8.533c-4.713,0-8.533,3.821-8.533,8.533v128
				c-0.005,4.711-3.822,8.529-8.533,8.533h-256c-4.711-0.005-8.529-3.822-8.533-8.533v-76.8h34.133v25.6
				c0.015,14.132,11.468,25.585,25.6,25.6h59.733c4.713,0,8.533-3.821,8.533-8.533c0-4.713-3.821-8.533-8.533-8.533h-59.733
				c-4.711-0.005-8.529-3.822-8.533-8.533V179.2c0.005-4.711,3.822-8.529,8.533-8.533h153.6c4.711,0.005,8.529,3.822,8.533,8.533
				v153.6c-0.005,4.711-3.822,8.529-8.533,8.533h-42.667c-4.713,0-8.533,3.821-8.533,8.533c0,4.713,3.821,8.533,8.533,8.533h42.667
				c14.132-0.015,25.585-11.468,25.6-25.6V179.2c-0.015-14.132-11.468-25.585-25.6-25.6h-17.067v-34.133h68.267
				c4.711,0.005,8.529,3.822,8.533,8.533v68.267c0,4.713,3.821,8.533,8.533,8.533c4.713,0,8.533-3.821,8.533-8.533V128
				c-0.015-14.132-11.468-25.585-25.6-25.6h-256C113.869,102.416,102.416,113.868,102.401,128z"/>
			<path style="fill:#428DFF;" d="M273.967,242.75c2.109,4.215,7.234,5.923,11.45,3.817l34.133-17.067
				c2.974-1.484,4.815-4.561,4.717-7.884s-2.118-6.285-5.175-7.591l-59.733-25.6c-2.636-1.132-5.664-0.862-8.059,0.717
				c-2.395,1.579-3.835,4.256-3.833,7.125v60.011c-30.914,1.798-59.733,13.33-59.733,33.855c0,22.409,34.342,34.133,68.267,34.133
				s68.267-11.725,68.267-34.133c0-20.526-28.82-32.057-59.733-33.855v-47.07l30.925,13.254l-17.675,8.838
				c-2.025,1.012-3.564,2.787-4.28,4.935C272.788,238.382,272.955,240.726,273.967,242.75z M307.201,290.134
				c0,6.017-19.442,17.067-51.2,17.067s-51.2-11.05-51.2-17.067c0-5.449,16.062-14.943,42.667-16.7v8.166
				c0,4.713,3.82,8.533,8.533,8.533c4.713,0,8.533-3.821,8.533-8.533v-8.166C291.139,275.191,307.201,284.684,307.201,290.134z"/>
		</g>
	</g>
</g>
<g>
</g>
<g>
</g>
<g>
</g>
<g>
</g>
<g>
</g>
<g>
</g>
<g>
</g>
<g>
</g>
<g>
</g>
<g>
</g>
<g>
</g>
<g>
</g>
<g>
</g>
<g>
</g>
<g>
</g>
</svg>
