<?xml version="1.0" encoding="iso-8859-1"?>
<!-- Generator: Adobe Illustrator 19.0.0, SVG Export Plug-In . SVG Version: 6.00 Build 0)  -->
<svg version="1.1" id="Capa_1" xmlns="http://www.w3.org/2000/svg" xmlns:xlink="http://www.w3.org/1999/xlink" x="0px" y="0px"
	 viewBox="0 0 512 512" style="enable-background:new 0 0 512 512;" xml:space="preserve">
<g>
	<g transform="translate(1 4)">
		<path style="fill:#A4C2F7;" d="M485.4,115.467v307.2H24.6v-307.2c0.028-9.414,7.652-17.039,17.067-17.067h426.667
			C477.748,98.428,485.373,106.052,485.4,115.467z"/>
		<path style="fill:#D4E1F4;" d="M459.8,115.467v307.2H24.6v-307.2c0.028-9.414,7.652-17.039,17.067-17.067h401.067
			C452.148,98.428,459.773,106.052,459.8,115.467z"/>
		<path style="fill:#A4C2F7;" d="M451.267,141.067v281.6H58.733v-281.6c0.014-4.707,3.826-8.519,8.533-8.533h375.467
			C447.44,132.547,451.253,136.36,451.267,141.067z"/>
		
			<linearGradient id="SVGID_1_" gradientUnits="userSpaceOnUse" x1="-49.8107" y1="648.5741" x2="-48.9222" y2="647.4504" gradientTransform="matrix(366.9333 0 0 -290.1334 18356.4004 188290.0781)">
			<stop  offset="0" style="stop-color:#D3DFF2"/>
			<stop  offset="0.1717" style="stop-color:#D3DFF2"/>
			<stop  offset="0.2" style="stop-color:#D3DFF2"/>
			<stop  offset="0.2002" style="stop-color:#DAE2F2"/>
			<stop  offset="0.2007" style="stop-color:#EBEAF2"/>
			<stop  offset="0.2014" style="stop-color:#F6EFF2"/>
			<stop  offset="0.2023" style="stop-color:#FDF2F2"/>
			<stop  offset="0.205" style="stop-color:#FFF3F2"/>
			<stop  offset="0.2522" style="stop-color:#FFF3F2"/>
			<stop  offset="0.26" style="stop-color:#FFF3F2"/>
			<stop  offset="0.26" style="stop-color:#D3DFF2"/>
			<stop  offset="0.3974" style="stop-color:#D3DFF2"/>
			<stop  offset="0.42" style="stop-color:#D3DFF2"/>
			<stop  offset="0.4202" style="stop-color:#DAE2F2"/>
			<stop  offset="0.4207" style="stop-color:#EBEAF2"/>
			<stop  offset="0.4214" style="stop-color:#F6EFF2"/>
			<stop  offset="0.4223" style="stop-color:#FDF2F2"/>
			<stop  offset="0.425" style="stop-color:#FFF3F2"/>
			<stop  offset="0.4894" style="stop-color:#FFF3F2"/>
			<stop  offset="0.5" style="stop-color:#FFF3F2"/>
			<stop  offset="0.5" style="stop-color:#F8F0F2"/>
			<stop  offset="0.5001" style="stop-color:#E7E8F2"/>
			<stop  offset="0.5003" style="stop-color:#DCE3F2"/>
			<stop  offset="0.5005" style="stop-color:#D5E0F2"/>
			<stop  offset="0.501" style="stop-color:#D3DFF2"/>
			<stop  offset="0.7062" style="stop-color:#D3DFF2"/>
			<stop  offset="0.74" style="stop-color:#D3DFF2"/>
			<stop  offset="0.741" style="stop-color:#FFF3F2"/>
			<stop  offset="0.8346" style="stop-color:#FFF3F2"/>
			<stop  offset="0.85" style="stop-color:#FFF3F2"/>
			<stop  offset="0.851" style="stop-color:#D3DFF2"/>
		</linearGradient>
		<path style="fill:url(#SVGID_1_);" d="M425.667,141.067v281.6H58.733v-281.6c0.014-4.707,3.826-8.519,8.533-8.533h349.867
			C421.84,132.547,425.653,136.36,425.667,141.067z"/>
		<path style="fill:#E3E7F2;" d="M182.112,302.426l-13.914,13.986c-3.681,3.708-8.689,5.793-13.914,5.793
			c-5.224,0-10.233-2.085-13.914-5.793L98.63,274.455c-7.684-7.74-7.684-20.231,0-27.971l13.914-13.986L182.112,302.426z"/>
		<path style="fill:#A4C2F7;" d="M371.395,208.907c-4.437,1.963-9.301,4.267-14.592,6.741
			c-21.845,10.069-49.749,23.979-77.568,40.192c-0.273,0.189-0.558,0.36-0.853,0.512c-29.835,16.53-57.497,36.71-82.347,60.075
			l-3.925-3.925l-80.128-80.555c-7.282-7.42-7.654-19.186-0.853-27.051c40.277-47.445,76.288-121.771,94.037-161.621
			c0.171-0.341,0.256-0.683,0.427-1.024c2.599-5.942,7.976-10.208,14.353-11.387c6.377-1.18,12.924,0.88,17.477,5.499l22.101,22.187
			l95.659,96.171l22.016,22.187c4.616,4.576,6.682,11.132,5.522,17.527C381.56,200.829,377.324,206.243,371.395,208.907z"/>
		<g>
			<path style="fill:#E3E7F2;" d="M356.803,215.648c-1.981,2.416-4.492,4.343-7.339,5.632c-18.005,8.107-43.349,20.053-70.229,34.56
				c-0.273,0.189-0.558,0.36-0.853,0.512c-30.44,15.994-59.322,34.792-86.272,56.149l-80.128-80.555
				c-7.282-7.42-7.654-19.186-0.853-27.051c40.277-47.445,76.288-121.771,94.037-161.621c3.921,0.718,7.526,2.624,10.325,5.461
				l22.101,22.187l95.659,96.171l22.101,22.187C362.447,196.432,363.07,207.761,356.803,215.648z"/>
			<path style="fill:#E3E7F2;" d="M273.251,72.368l68.166,68.519c12.884-19.615,10.275-45.572-6.256-62.231
				C318.672,62.048,292.743,59.415,273.251,72.368z"/>
		</g>
		<path style="fill:#D4E1F4;" d="M314.136,351.499l-8.789,8.875l-5.205,5.291c-7.391,7.485-19.378,7.787-27.136,0.683
			c-37.632-34.645-63.744-45.653-73.131-48.811c-1.259-0.44-2.541-0.811-3.84-1.109c17.405-16.784,36.509-31.712,57.003-44.544
			c21.836,15.191,42.206,32.39,60.843,51.371c3.802,3.699,5.968,8.765,6.016,14.069C319.944,342.627,317.87,347.731,314.136,351.499
			z"/>
		<path style="fill:#FFFFFF;" d="M305.347,360.373l-5.205,5.291c-7.391,7.485-19.378,7.787-27.136,0.683
			c-37.632-34.645-63.744-45.653-73.131-48.811c12.58-10.28,25.743-19.825,39.424-28.587c21.851,15.207,42.247,32.404,60.928,51.371
			C305.511,345.543,307.481,353.256,305.347,360.373z"/>
		<path style="fill:#7FABFA;" d="M502.467,431.2v34.133c0.002,9.053-3.593,17.737-9.995,24.139s-15.085,9.997-24.139,9.995H41.667
			c-9.053,0.002-17.737-3.593-24.139-9.995s-9.997-15.085-9.995-24.139V431.2c0.014-4.707,3.826-8.519,8.533-8.533h477.867
			C498.64,422.681,502.453,426.493,502.467,431.2z"/>
		<path style="fill:#E3E7F2;" d="M476.867,431.2v34.133c0.002,9.053-3.593,17.737-9.995,24.139
			c-6.402,6.402-15.085,9.997-24.139,9.995H41.667c-9.053,0.002-17.737-3.593-24.139-9.995s-9.997-15.085-9.995-24.139V431.2
			c0.014-4.707,3.826-8.519,8.533-8.533h452.267C473.04,422.681,476.853,426.493,476.867,431.2z"/>
		<path style="fill:#7FABFA;" d="M312.719,456.8H197.281c-6.464,0-12.374-3.652-15.265-9.434l-12.35-24.699h170.667l-12.35,24.699
			C325.093,453.148,319.183,456.8,312.719,456.8z"/>
	</g>
	<path style="fill:#FFFFFF;" d="M34.133,469.504v-34.133c0.014-4.707,3.826-8.519,8.533-8.533H51.2v-307.2
		c0.028-9.414,7.652-17.039,17.067-17.067h-25.6c-9.414,0.028-17.039,7.652-17.067,17.067v307.2h-8.533
		c-4.707,0.014-8.519,3.826-8.533,8.533v34.133c-0.002,9.053,3.593,17.737,9.995,24.139c6.402,6.402,15.085,9.997,24.139,9.995h25.6
		c-9.053,0.002-17.737-3.593-24.139-9.995C37.726,487.241,34.131,478.558,34.133,469.504z"/>
	<g>
		<polygon style="fill:#FFFFFF;" points="34.133,119.467 34.133,230.4 34.133,426.667 17.067,426.667 17.067,230.4 17.067,119.467 
					"/>
		<g>
			<path style="fill:#428DFF;" d="M392.075,200.067c1.698-9.174-1.218-18.596-7.8-25.208l-31.363-31.523
				c11.006-22.242,6.709-49.016-10.704-66.697c-17.512-17.495-44.245-21.844-66.399-10.802l-31.317-31.478
				c-6.54-6.61-15.925-9.559-25.07-7.875s-16.865,7.781-20.622,16.287c-17.708,39.875-53.367,113.766-93.192,160.587
				c-7.776,9.01-9.085,21.922-3.276,32.31l-8.749,8.794c-10.983,11.075-10.983,28.934,0,40.008l41.733,41.962
				c5.274,5.332,12.467,8.324,19.967,8.304h0.009c7.498,0.019,14.689-2.974,19.958-8.308l7.861-7.906l7.864,7.906
				c0.057,0.058,0.14,0.077,0.198,0.133c0.68,0.64,1.459,1.164,2.308,1.552c0.25,0.115,0.502,0.187,0.763,0.278
				c0.335,0.147,0.68,0.273,1.031,0.375c0.283,0.058,28.083,6.463,72.925,47.863c5.141,4.769,11.896,7.417,18.908,7.412
				c7.536-0.007,14.755-3.029,20.05-8.392l14.05-14.121c5.343-5.383,8.311-12.68,8.242-20.264
				c-0.069-7.584-3.169-14.826-8.609-20.111c-16.191-16.019-33.35-31.029-51.379-44.947c34.273-20.731,69.82-39.278,106.429-55.532
				C384.343,216.88,390.392,209.177,392.075,200.067z M288.667,78.754c14.579-4.772,30.604-0.936,41.442,9.921
				c10.828,10.957,14.646,27.036,9.901,41.691l-26.697-26.834L288.667,78.754z M163.15,314.396
				c-2.074,2.101-4.906,3.281-7.858,3.275h-0.009c-2.955,0.006-5.789-1.173-7.867-3.275l-41.733-41.963
				c-4.375-4.41-4.375-11.523,0-15.933l7.858-7.9l57.533,57.825L163.15,314.396z M254.033,286.1
				c19.479,14.368,37.845,30.186,54.942,47.321c2.157,2.109,3.384,4.991,3.409,8.008c0.025,3.017-1.154,5.919-3.275,8.063
				l-14.05,14.121c-4.124,4.265-10.893,4.475-15.275,0.475c-19.611-19.129-42.169-34.98-66.811-46.948
				c0.995-0.886,2.056-1.761,3.078-2.643C228.109,304.252,240.795,294.768,254.033,286.1L254.033,286.1z M375.292,196.962
				c-0.636,3.609-3.03,6.663-6.383,8.142c-47.304,20.735-92.662,45.654-135.531,74.46c-0.841,0.591-1.674,1.18-2.499,1.769
				c-9.521,6.787-18.532,13.772-26.762,20.909c-1.022,0.886-1.993,1.764-2.981,2.645c-1.325,1.183-2.715,2.355-3.994,3.545
				l-78.125-78.537v-0.004c-4.177-4.25-4.355-11.007-0.408-15.471c41.216-48.462,77.708-124.004,95.791-164.724
				c1.453-3.363,4.494-5.775,8.1-6.425c0.676-0.124,1.362-0.187,2.05-0.188c2.953,0.004,5.78,1.198,7.842,3.312l100.254,100.768
				l3.721,3.741l0.001,0.001l35.808,35.991C374.827,189.522,375.995,193.297,375.292,196.962L375.292,196.962z"/>
			<path style="fill:#428DFF;" d="M381.5,48.7l17.067-17.067c3.281-3.341,3.256-8.701-0.054-12.012s-8.671-3.335-12.012-0.054
				l-17.067,17.067c-2.188,2.149-3.055,5.307-2.27,8.271c0.785,2.965,3.1,5.28,6.065,6.065
				C376.193,51.754,379.351,50.888,381.5,48.7z"/>
			<path style="fill:#428DFF;" d="M307.2,25.6V8.533c0-4.713-3.82-8.533-8.533-8.533s-8.533,3.821-8.533,8.533V25.6
				c0,4.713,3.82,8.533,8.533,8.533S307.2,30.313,307.2,25.6z"/>
			<path style="fill:#428DFF;" d="M34.133,119.467c0.005-4.711,3.822-8.529,8.533-8.533h102.4c4.713,0,8.533-3.821,8.533-8.533
				s-3.821-8.533-8.533-8.533h-102.4c-14.132,0.015-25.585,11.468-25.6,25.6V153.6c0,4.713,3.821,8.533,8.533,8.533
				s8.533-3.821,8.533-8.533V119.467z"/>
			<path style="fill:#428DFF;" d="M28.842,179.879c-0.484-0.246-1.002-0.417-1.537-0.508c-0.563-0.096-1.133-0.153-1.704-0.171
				c-2.259,0.031-4.423,0.915-6.059,2.475c-3.221,3.397-3.221,8.72,0,12.117c0.815,0.77,1.77,1.379,2.813,1.792
				c1.027,0.438,2.13,0.67,3.246,0.683c2.259-0.034,4.422-0.918,6.059-2.475c3.3-3.365,3.3-8.752,0-12.117l-1.279-1.025
				C29.903,180.326,29.386,180.067,28.842,179.879z"/>
			<path style="fill:#428DFF;" d="M494.933,418.133V119.467c-0.015-14.132-11.468-25.585-25.6-25.6H384
				c-4.713,0-8.533,3.821-8.533,8.533c0,4.713,3.821,8.533,8.533,8.533h85.333c4.711,0.005,8.529,3.822,8.533,8.533v298.667H460.8
				V145.067c-0.011-9.421-7.645-17.056-17.067-17.067H384c-4.713,0-8.533,3.821-8.533,8.533s3.821,8.533,8.533,8.533h59.733v273.067
				H68.267V145.067h51.2c4.713,0,8.533-3.821,8.533-8.533S124.179,128,119.467,128h-51.2c-9.421,0.011-17.056,7.645-17.067,17.067
				v273.067H34.133V221.867c0-4.713-3.821-8.533-8.533-8.533s-8.533,3.821-8.533,8.533v196.267C7.645,418.144,0.011,425.779,0,435.2
				v34.133C0.028,492.886,19.114,511.972,42.667,512h426.667c23.553-0.028,42.639-19.114,42.667-42.667V435.2
				C511.989,425.779,504.355,418.144,494.933,418.133z M327.525,435.2l-6.175,12.35c-1.439,2.897-4.398,4.726-7.633,4.717H198.283
				c-3.235,0.009-6.194-1.82-7.633-4.717l-6.175-12.35H327.525z M469.333,494.933H42.667c-14.132-0.015-25.585-11.468-25.6-25.6
				h93.867c4.713,0,8.533-3.82,8.533-8.533s-3.821-8.533-8.533-8.533H17.067V435.2h148.325l9.992,19.983
				c4.313,8.695,13.194,14.183,22.9,14.15h115.433c9.706,0.033,18.587-5.455,22.9-14.15l9.992-19.983h148.325v17.067h-93.867
				c-4.713,0-8.533,3.82-8.533,8.533s3.82,8.533,8.533,8.533h93.867C494.918,483.465,483.465,494.918,469.333,494.933z"/>
			<path style="fill:#428DFF;" d="M153.6,452.267h-8.533c-4.713,0-8.533,3.82-8.533,8.533s3.821,8.533,8.533,8.533h8.533
				c4.713,0,8.533-3.82,8.533-8.533S158.313,452.267,153.6,452.267z"/>
			<path style="fill:#428DFF;" d="M366.933,452.267H358.4c-4.713,0-8.533,3.82-8.533,8.533s3.82,8.533,8.533,8.533h8.533
				c4.713,0,8.533-3.82,8.533-8.533S371.646,452.267,366.933,452.267z"/>
		</g>
	</g>
</g>
<g>
</g>
<g>
</g>
<g>
</g>
<g>
</g>
<g>
</g>
<g>
</g>
<g>
</g>
<g>
</g>
<g>
</g>
<g>
</g>
<g>
</g>
<g>
</g>
<g>
</g>
<g>
</g>
<g>
</g>
</svg>
