<?xml version="1.0" encoding="iso-8859-1"?>
<!-- Generator: Adobe Illustrator 19.0.0, SVG Export Plug-In . SVG Version: 6.00 Build 0)  -->
<svg version="1.1" id="Capa_1" xmlns="http://www.w3.org/2000/svg" xmlns:xlink="http://www.w3.org/1999/xlink" x="0px" y="0px"
	 viewBox="0 0 512.001 512.001" style="enable-background:new 0 0 512.001 512.001;" xml:space="preserve">
<g>
	<g transform="translate(1 1)">
		<path style="fill:#A4C2F7;" d="M434.2,118.467v384H109.934c-9.414-0.028-17.039-7.653-17.067-17.067v-460.8
			c0.028-9.414,7.652-17.039,17.067-17.067h213.333L434.2,118.467z"/>
		<path style="fill:#E3E7F2;" d="M408.6,118.467v384H109.934c-9.414-0.028-17.039-7.653-17.067-17.067v-460.8
			c0.028-9.414,7.652-17.039,17.067-17.067h187.733L408.6,118.467z"/>
		<path style="fill:#A4C2F7;" d="M323.267,7.534v93.867c0,9.426,7.641,17.067,17.067,17.067H434.2L323.267,7.534z"/>
		<g>
			<path style="fill:#E3E7F2;" d="M442.734,400.067h51.2c4.713,0,8.533,3.821,8.533,8.533v17.067c0,4.713-3.821,8.533-8.533,8.533
				h-51.2c-4.713,0-8.533-3.821-8.533-8.533v-17.067C434.2,403.888,438.021,400.067,442.734,400.067z"/>
			<path style="fill:#E3E7F2;" d="M442.734,434.201h51.2c4.713,0,8.533,3.82,8.533,8.533v17.067c0,4.713-3.821,8.533-8.533,8.533
				h-51.2c-4.713,0-8.533-3.821-8.533-8.533v-17.067C434.2,438.021,438.021,434.201,442.734,434.201z"/>
			<path style="fill:#E3E7F2;" d="M442.734,468.334h51.2c4.713,0,8.533,3.82,8.533,8.533v17.067c0,4.713-3.821,8.533-8.533,8.533
				h-51.2c-4.713,0-8.533-3.821-8.533-8.533v-17.067C434.2,472.155,438.021,468.334,442.734,468.334z"/>
			<path style="fill:#E3E7F2;" d="M442.734,297.667h51.2c4.713,0,8.533,3.82,8.533,8.533v17.067c0,4.713-3.821,8.533-8.533,8.533
				h-51.2c-4.713,0-8.533-3.82-8.533-8.533v-17.067C434.2,301.488,438.021,297.667,442.734,297.667z"/>
			<path style="fill:#E3E7F2;" d="M442.734,331.801h51.2c4.713,0,8.533,3.821,8.533,8.533v17.067c0,4.713-3.821,8.533-8.533,8.533
				h-51.2c-4.713,0-8.533-3.82-8.533-8.533v-17.067C434.2,335.621,438.021,331.801,442.734,331.801z"/>
			<path style="fill:#E3E7F2;" d="M442.734,365.934h51.2c4.713,0,8.533,3.821,8.533,8.533v17.067c0,4.713-3.821,8.533-8.533,8.533
				h-51.2c-4.713,0-8.533-3.82-8.533-8.533v-17.067C434.2,369.755,438.021,365.934,442.734,365.934z"/>
			<path style="fill:#E3E7F2;" d="M374.467,434.201h51.2c4.713,0,8.533,3.82,8.533,8.533v17.067c0,4.713-3.82,8.533-8.533,8.533
				h-51.2c-4.713,0-8.533-3.821-8.533-8.533v-17.067C365.934,438.021,369.754,434.201,374.467,434.201z"/>
			<path style="fill:#E3E7F2;" d="M374.467,468.334h51.2c4.713,0,8.533,3.82,8.533,8.533v17.067c0,4.713-3.82,8.533-8.533,8.533
				h-51.2c-4.713,0-8.533-3.821-8.533-8.533v-17.067C365.934,472.155,369.754,468.334,374.467,468.334z"/>
			<path style="fill:#E3E7F2;" d="M306.2,400.067h51.2c4.713,0,8.533,3.821,8.533,8.533v17.067c0,4.713-3.82,8.533-8.533,8.533
				h-51.2c-4.713,0-8.533-3.821-8.533-8.533v-17.067C297.667,403.888,301.488,400.067,306.2,400.067z"/>
			<path style="fill:#E3E7F2;" d="M306.2,434.201h51.2c4.713,0,8.533,3.82,8.533,8.533v17.067c0,4.713-3.82,8.533-8.533,8.533h-51.2
				c-4.713,0-8.533-3.821-8.533-8.533v-17.067C297.667,438.021,301.488,434.201,306.2,434.201z"/>
			<path style="fill:#E3E7F2;" d="M306.2,468.334h51.2c4.713,0,8.533,3.82,8.533,8.533v17.067c0,4.713-3.82,8.533-8.533,8.533h-51.2
				c-4.713,0-8.533-3.821-8.533-8.533v-17.067C297.667,472.155,301.488,468.334,306.2,468.334z"/>
			<path style="fill:#E3E7F2;" d="M306.2,365.934h51.2c4.713,0,8.533,3.821,8.533,8.533v17.067c0,4.713-3.82,8.533-8.533,8.533
				h-51.2c-4.713,0-8.533-3.82-8.533-8.533v-17.067C297.667,369.755,301.488,365.934,306.2,365.934z"/>
			<polygon style="fill:#E3E7F2;" points="135.534,400.067 177.262,441.881 177.347,441.881 178.2,441.625 178.2,348.867 
				135.534,297.667 50.2,297.667 7.534,348.867 7.534,441.625 8.387,441.881 8.472,441.881 50.2,400.067 			"/>
		</g>
		<path style="fill:#A4C2F7;" d="M135.534,212.334H50.2c0-1.195,0-2.389,0.085-3.584c1.877-27.051,23.381-53.333,35.072-65.792
			c4.523-4.693,7.509-7.424,7.509-7.424S135.534,173.763,135.534,212.334z"/>
		<path style="fill:#E3E7F2;" d="M109.934,212.334H50.2c0-1.195,0-2.389,0.085-3.584c1.877-27.051,23.381-53.333,35.072-65.792
			C93.891,155.929,109.934,184.003,109.934,212.334z"/>
		<rect x="50.2" y="212.334" style="fill:#D4E1F4;" width="85.333" height="187.733"/>
		<rect x="50.2" y="212.334" style="fill:#F5F5F5;" width="59.733" height="187.733"/>
		<rect x="109.934" y="357.401" style="fill:#A4C2F7;" width="25.6" height="42.667"/>
		<rect x="50.2" y="357.401" style="fill:#E3E7F2;" width="59.733" height="42.667"/>
		<g>
			<path style="fill:#FFFFFF;" d="M118.467,485.571v-85.333h-25.6v85.333c0.028,9.414,7.653,17.039,17.067,17.067h25.6
				C126.12,502.61,118.495,494.986,118.467,485.571z"/>
			<path style="fill:#FFFFFF;" d="M33.134,349.038l42.667-51.2v-85.333c0-1.195,0-2.389,0.085-3.584
				c1.877-27.051,23.381-53.333,35.072-65.792c4.523-4.693,7.509-7.424,7.509-7.424V24.771c0.028-9.414,7.652-17.039,17.067-17.067
				h-25.6c-9.414,0.028-17.039,7.652-17.067,17.067v110.933c0,0-2.987,2.731-7.509,7.424
				c-11.691,12.459-33.195,38.741-35.072,65.792c-0.085,1.195-0.085,2.389-0.085,3.584v85.333l-42.667,51.2v92.757l0.853,0.256
				h0.085l24.661-24.712V349.038z"/>
		</g>
	</g>
	<g>
		<polygon style="fill:#FFFFFF;" points="110.934,0.001 221.867,0.001 324.267,0.001 324.267,17.067 221.867,17.067 110.934,17.067 
					"/>
		<g>
			<path style="fill:#428DFF;" d="M494.934,290.134h-51.2V119.467c0-0.182-0.093-0.344-0.105-0.524
				c-0.046-0.755-0.195-1.499-0.441-2.214c-0.08-0.268-0.174-0.533-0.282-0.792c-0.403-0.928-0.969-1.776-1.673-2.503L330.301,2.501
				c-0.736-0.711-1.596-1.282-2.537-1.685c-0.272-0.114-0.55-0.212-0.833-0.296c-0.685-0.228-1.397-0.367-2.118-0.413
				c-0.186-0.012-0.361-0.106-0.546-0.106H213.334c-4.713,0-8.533,3.821-8.533,8.533s3.82,8.533,8.533,8.533h102.4v85.333
				c0.015,14.132,11.468,25.585,25.6,25.6h85.333v298.667h-51.2v-17.067c-0.017-3.005-0.836-5.951-2.373-8.533
				c1.537-2.582,2.356-5.528,2.373-8.533v-17.067c-0.009-9.422-7.645-17.057-17.067-17.067h-51.2
				c-9.422,0.009-17.057,7.645-17.067,17.067v17.067c0.017,3.005,0.836,5.951,2.373,8.533c-1.537,2.582-2.356,5.528-2.373,8.533
				v17.067c0.017,3.005,0.836,5.951,2.373,8.533c-1.537,2.582-2.356,5.528-2.373,8.533v17.067c0.017,3.005,0.836,5.951,2.373,8.533
				c-1.537,2.582-2.356,5.528-2.373,8.533v17.067h-179.2c-4.71-0.006-8.527-3.823-8.533-8.533v-51.2
				c0-4.713-3.821-8.533-8.533-8.533c-4.713,0-8.533,3.821-8.533,8.533v51.2c0.015,14.132,11.468,25.585,25.6,25.6H435.2
				c1.232-0.012,2.445-0.295,3.556-0.828c1.608,0.525,3.286,0.804,4.978,0.828h51.2c9.421-0.011,17.056-7.646,17.067-17.067v-17.067
				c-0.017-3.005-0.837-5.951-2.374-8.533c1.537-2.582,2.357-5.528,2.374-8.533v-17.067c-0.017-3.005-0.837-5.951-2.374-8.533
				c1.537-2.582,2.357-5.528,2.374-8.533v-17.067c-0.017-3.005-0.837-5.951-2.374-8.533c1.537-2.582,2.357-5.528,2.374-8.533
				v-17.067c-0.017-3.005-0.837-5.951-2.374-8.533c1.537-2.582,2.357-5.528,2.374-8.533v-17.067
				c-0.017-3.005-0.837-5.951-2.374-8.533c1.537-2.582,2.357-5.528,2.374-8.533v-17.067
				C511.99,297.78,504.355,290.145,494.934,290.134z M494.934,307.201l0.009,17.067h-51.209v-17.067H494.934z M494.942,358.401
				h-51.209v-17.067h51.2L494.942,358.401z M494.942,392.534h-51.209v-17.067h51.2L494.942,392.534z M494.942,426.667h-51.209
				v-17.067h51.2L494.942,426.667z M494.942,460.801h-51.209v-17.067h51.2L494.942,460.801z M341.334,110.934
				c-4.71-0.006-8.527-3.823-8.533-8.533V29.134l81.8,81.8H341.334z M426.667,443.734v17.067h-51.2v-17.067H426.667z M307.2,443.734
				h51.2v17.067h-51.2V443.734z M307.2,409.601h51.2l0.012,17.067H307.2V409.601z M307.2,375.467h51.2l0.012,17.067H307.2V375.467z
				 M307.2,494.934v-17.067h51.2v17.067H307.2z M375.467,494.934v-17.067h51.2v17.067H375.467z M443.734,494.934v-17.067h51.2
				l0.009,17.067H443.734z"/>
			<path style="fill:#428DFF;" d="M185.259,14.593c0.771-0.815,1.379-1.77,1.792-2.813c0.438-1.027,0.67-2.13,0.683-3.246
				c-0.034-2.259-0.918-4.422-2.475-6.059c-3.365-3.3-8.752-3.3-12.117,0l-1.025,1.279c-0.324,0.476-0.583,0.993-0.771,1.538
				c-0.246,0.484-0.417,1.003-0.508,1.538c-0.096,0.563-0.153,1.133-0.171,1.704c0.031,2.259,0.915,4.423,2.475,6.059
				C176.538,17.814,181.862,17.814,185.259,14.593L185.259,14.593z"/>
			<path style="fill:#428DFF;" d="M102.4,102.401v-76.8c0.006-4.71,3.823-8.527,8.533-8.533h34.133c4.713,0,8.533-3.821,8.533-8.533
				s-3.821-8.533-8.533-8.533h-34.133c-14.132,0.015-25.585,11.468-25.6,25.6v76.8c0,4.713,3.821,8.533,8.533,8.533
				C98.58,110.934,102.4,107.114,102.4,102.401z"/>
			<path style="fill:#428DFF;" d="M162.134,179.201c0,4.713,3.821,8.533,8.533,8.533H384c4.713,0,8.533-3.821,8.533-8.533
				s-3.82-8.533-8.533-8.533H170.667C165.954,170.667,162.134,174.488,162.134,179.201z"/>
			<path style="fill:#428DFF;" d="M170.667,230.401H384c4.713,0,8.533-3.821,8.533-8.533s-3.82-8.533-8.533-8.533H170.667
				c-4.713,0-8.533,3.821-8.533,8.533S165.954,230.401,170.667,230.401z"/>
			<path style="fill:#428DFF;" d="M170.667,273.067H384c4.713,0,8.533-3.82,8.533-8.533s-3.82-8.533-8.533-8.533H170.667
				c-4.713,0-8.533,3.82-8.533,8.533S165.954,273.067,170.667,273.067z"/>
			<path style="fill:#428DFF;" d="M384,298.667H187.734c-4.713,0-8.533,3.82-8.533,8.533s3.821,8.533,8.533,8.533H384
				c4.713,0,8.533-3.821,8.533-8.533S388.713,298.667,384,298.667z"/>
			<path style="fill:#428DFF;" d="M133.065,409.601l40.181,39.138c2.458,2.394,6.11,3.083,9.271,1.749
				c3.161-1.334,5.216-4.431,5.216-7.862v-92.758c0-1.996-0.7-3.93-1.979-5.463l-40.688-48.825v-82.246
				c0-41.887-43.646-81.488-45.504-83.154c-3.24-2.909-8.152-2.909-11.392,0c-1.858,1.667-45.504,41.267-45.504,83.154v82.246
				L1.979,344.405C0.701,345.938,0,347.871,0,349.867v92.758c0,3.431,2.055,6.528,5.216,7.862c3.161,1.334,6.814,0.645,9.271-1.749
				l40.181-39.138H133.065z M128,298.667v51.2H59.734v-128H128V298.667z M59.734,366.934H128v25.6H59.734V366.934z M170.667,352.955
				v69.446l-25.6-24.933v-75.229L170.667,352.955z M93.867,148.505c9.819,10.209,29.22,32.912,33.319,56.296H60.548
				C64.647,181.417,84.048,158.714,93.867,148.505L93.867,148.505z M17.067,352.955l25.6-30.717v75.229l-25.6,24.933V352.955z"/>
			<path style="fill:#428DFF;" d="M85.334,256.001H102.4c4.713,0,8.533-3.821,8.533-8.533c0-4.713-3.821-8.533-8.533-8.533H85.334
				c-4.713,0-8.533,3.821-8.533,8.533C76.8,252.18,80.621,256.001,85.334,256.001z"/>
			<path style="fill:#428DFF;" d="M85.334,290.134H102.4c4.713,0,8.533-3.821,8.533-8.533c0-4.713-3.821-8.533-8.533-8.533H85.334
				c-4.713,0-8.533,3.821-8.533,8.533C76.8,286.314,80.621,290.134,85.334,290.134z"/>
		</g>
	</g>
</g>
<g>
</g>
<g>
</g>
<g>
</g>
<g>
</g>
<g>
</g>
<g>
</g>
<g>
</g>
<g>
</g>
<g>
</g>
<g>
</g>
<g>
</g>
<g>
</g>
<g>
</g>
<g>
</g>
<g>
</g>
</svg>
