<?xml version="1.0" encoding="iso-8859-1"?>
<!-- Generator: Adobe Illustrator 19.0.0, SVG Export Plug-In . SVG Version: 6.00 Build 0)  -->
<svg version="1.1" id="Capa_1" xmlns="http://www.w3.org/2000/svg" xmlns:xlink="http://www.w3.org/1999/xlink" x="0px" y="0px"
	 viewBox="0 0 512 512" style="enable-background:new 0 0 512 512;" xml:space="preserve">
<g>
	<g transform="translate(1 3)">
		<path style="fill:#A4C2F7;" d="M160.808,500.467l-144.64-0.001c-2.514,0.03-4.911-1.059-6.542-2.971s-2.33-4.45-1.906-6.928
			c5.461-26.965,32.512-51.883,63.317-57.429c4.193-0.782,8.449-1.182,12.715-1.195
			C123.432,431.944,160.808,466.248,160.808,500.467z"/>
		<path style="fill:#E3E7F2;" d="M135.208,500.467l-119.04-0.001c-2.514,0.03-4.911-1.059-6.542-2.971s-2.33-4.45-1.906-6.928
			c5.461-26.965,32.512-51.883,63.317-57.429C105.597,439.453,135.208,470.003,135.208,500.467z"/>
		<path style="fill:#A4C2F7;" d="M349.223,500.467H160.807c0-30.123,35.413-66.901,76.971-75.349
			c5.677-1.125,11.45-1.697,17.237-1.707C303.485,423.411,349.223,466.248,349.223,500.467z"/>
		<path style="fill:#E3E7F2;" d="M323.282,500.467H160.808c0-30.123,37.376-66.901,81.237-75.349
			C285.906,433.565,323.282,470.344,323.282,500.467z"/>
		<path style="fill:#A4C2F7;" d="M493.864,500.467l-144.64,0.001c0-30.464,29.611-61.014,64.171-67.328
			c4.25-0.786,8.563-1.186,12.885-1.195c35.84,0,69.803,27.989,76.032,58.624c0.424,2.478-0.274,5.016-1.906,6.928
			C498.774,499.408,496.377,500.496,493.864,500.467z"/>
		<path style="fill:#E3E7F2;" d="M468.264,500.467l-119.04,0.001c0-30.464,29.611-61.014,64.171-67.328
			c30.805,5.547,57.856,30.464,63.317,57.429c0.424,2.478-0.274,5.016-1.906,6.928C473.174,499.408,470.777,500.496,468.264,500.467
			z"/>
		<g>
			<path style="fill:#A4C2F7;" d="M485.416,372.296c0.012,15.846-6.278,31.046-17.483,42.251s-26.405,17.494-42.251,17.483
				c-4.302-0.014-8.592-0.471-12.8-1.365c-27.408-6.024-46.933-30.306-46.933-58.368s19.525-52.344,46.933-58.368
				c4.208-0.894,8.498-1.351,12.8-1.365c15.846-0.012,31.046,6.278,42.251,17.483C479.138,341.25,485.427,356.45,485.416,372.296z"
				/>
			<path style="fill:#A4C2F7;" d="M323.282,355.229c0.005,18.107-7.186,35.474-19.989,48.277
				c-12.804,12.804-30.17,19.994-48.277,19.989c-4.294-0.005-8.579-0.405-12.8-1.195c-32.188-6.152-55.467-34.302-55.467-67.072
				s23.279-60.92,55.467-67.072c4.221-0.79,8.506-1.19,12.8-1.195c18.107-0.005,35.474,7.186,48.277,19.989
				C316.097,319.756,323.287,337.122,323.282,355.229z"/>
		</g>
		<ellipse style="fill:#E3E7F2;" cx="242.217" cy="355.229" rx="55.467" ry="67.072"/>
		<path style="fill:#A4C2F7;" d="M144.082,372.296c0.012,15.846-6.278,31.046-17.483,42.251s-26.405,17.494-42.251,17.483
			c-4.302-0.014-8.592-0.471-12.8-1.365c-27.408-6.024-46.933-30.306-46.933-58.368s19.525-52.344,46.933-58.368
			c4.208-0.894,8.498-1.351,12.8-1.365c15.846-0.012,31.046,6.278,42.251,17.483C137.804,341.25,144.094,356.45,144.082,372.296z"/>
		<g>
			<ellipse style="fill:#E3E7F2;" cx="412.867" cy="372.296" rx="46.933" ry="58.368"/>
			<ellipse style="fill:#E3E7F2;" cx="71.55" cy="372.296" rx="46.933" ry="58.368"/>
		</g>
		<path style="fill:#A4C2F7;" d="M357.4,125c0.008,27.16-10.779,53.211-29.984,72.416C308.211,216.621,282.161,227.408,255,227.4
			c-4.281,0.019-8.559-0.266-12.8-0.853c-51.194-6.424-89.601-49.951-89.601-101.547S191.006,29.877,242.2,23.453
			c4.241-0.587,8.519-0.872,12.8-0.853c27.16-0.007,53.211,10.779,72.416,29.984C346.621,71.789,357.408,97.84,357.4,125z"/>
		<ellipse style="fill:#E3E7F2;" cx="242.2" cy="125" rx="89.6" ry="101.547"/>
		<circle style="fill:#D4E1F4;" cx="255" cy="125" r="51.2"/>
		<g>
			<path style="fill:#FFFFFF;" d="M33.32,490.739c5.442-26.87,32.324-51.695,62.994-57.358c-3.777-0.708-7.605-1.112-11.447-1.207
				c4.104-0.037,8.193-0.494,12.203-1.364c-27.371-6.051-46.856-30.316-46.854-58.348c0.002-28.032,19.491-52.294,46.863-58.341
				c-4.182-0.915-8.449-1.38-12.73-1.387c-4.302,0.014-8.592,0.472-12.8,1.365c-27.408,6.024-46.933,30.306-46.933,58.368
				c0,28.062,19.525,52.344,46.933,58.368c3.851,0.798,7.768,1.234,11.7,1.305c-4.097,0.036-8.183,0.427-12.212,1.17
				c-30.805,5.547-57.856,30.464-63.317,57.429c-0.424,2.478,0.274,5.016,1.906,6.928c1.632,1.912,4.029,3,6.542,2.971h25.6
				c-2.514,0.03-4.911-1.059-6.543-2.971C33.593,495.755,32.895,493.217,33.32,490.739z"/>
			<path style="fill:#FFFFFF;" d="M242.2,226.717c4.241,0.587,8.519,0.872,12.8,0.853c4.25-0.027,8.494-0.318,12.708-0.869
				c-51.152-6.464-89.507-49.971-89.507-101.53s38.354-95.066,89.505-101.531c-4.213-0.551-8.457-0.842-12.706-0.869
				c-4.281-0.019-8.559,0.266-12.8,0.853c-51.194,6.424-89.601,49.951-89.601,101.547S191.006,220.293,242.2,226.717z"/>
		</g>
	</g>
	<g>
		<path style="fill:#428DFF;" d="M461.295,434.195c25.172-14.785,38.133-43.959,32.231-72.548
			c-5.902-28.59-29.357-50.246-58.326-53.854v-9.126c0-4.713-3.821-8.533-8.533-8.533c-4.713,0-8.533,3.82-8.533,8.533v9.126
			c-29.055,3.621-52.552,25.393-58.373,54.089c-5.821,28.695,7.334,57.902,32.681,72.559c-18.078,7.974-33.073,21.609-42.725,38.849
			c-13.065-21.706-32.928-38.493-56.508-47.758c30.63-16.964,45.909-52.499,37.148-86.4c-8.761-33.901-39.343-57.584-74.357-57.584
			s-65.596,23.683-74.357,57.584c-8.761,33.901,6.517,69.436,37.148,86.4c-23.58,9.265-43.443,26.052-56.508,47.758
			c-9.652-17.24-24.647-30.875-42.725-38.849c25.347-14.657,38.502-43.864,32.681-72.559c-5.821-28.695-29.318-50.467-58.373-54.089
			v-9.126c0-4.713-3.821-8.533-8.533-8.533s-8.533,3.82-8.533,8.533v9.126c-28.969,3.607-52.424,25.264-58.326,53.854
			c-5.902,28.59,7.059,57.764,32.231,72.548c-24.9,10.281-43.545,31.634-50.376,57.693c-0.985,4.869,0.28,9.923,3.442,13.754
			c3.277,4.032,8.2,6.369,13.396,6.358h477.667c5.196,0.01,10.119-2.326,13.396-6.358c3.162-3.831,4.427-8.885,3.442-13.754
			C504.84,465.829,486.195,444.476,461.295,434.195z M375.467,375.467c0-20.708,12.474-39.378,31.607-47.303
			c19.132-7.925,41.154-3.544,55.797,11.099s19.024,36.665,11.099,55.797c-7.925,19.132-26.594,31.607-47.303,31.607
			C398.403,426.636,375.498,403.731,375.467,375.467z M196.267,358.4c0-32.99,26.744-59.733,59.733-59.733
			s59.733,26.744,59.733,59.733S288.99,418.133,256,418.133C223.026,418.096,196.304,391.375,196.267,358.4z M34.133,375.467
			c0-20.708,12.474-39.378,31.607-47.303c19.132-7.925,41.154-3.544,55.797,11.099c14.643,14.643,19.024,36.665,11.099,55.797
			c-7.925,19.132-26.594,31.607-47.303,31.607C57.069,426.636,34.164,403.731,34.133,375.467z M17.054,495.304
			c5.612-27.471,37.242-51.571,67.687-51.571c31.317,0,62.108,24.258,67.65,51.225L17.054,495.304z M171.45,494.933
			C178.388,467.221,216.8,435.2,256,435.2s77.612,32.021,84.55,59.733H171.45z M494.833,494.933H359.613
			c5.554-26.958,36.337-51.2,67.646-51.2c30.446,0,62.075,24.1,67.754,51.113C494.966,494.896,494.902,494.927,494.833,494.933z"/>
		<path style="fill:#428DFF;" d="M76.8,204.8c0,4.713,3.821,8.533,8.533,8.533s8.533-3.821,8.533-8.533v-25.6
			c0-4.713-3.821-8.533-8.533-8.533S76.8,174.487,76.8,179.2V204.8z"/>
		<path style="fill:#428DFF;" d="M76.8,264.533c0,4.713,3.821,8.533,8.533,8.533s8.533-3.82,8.533-8.533v-25.6
			c0-4.713-3.821-8.533-8.533-8.533s-8.533,3.821-8.533,8.533V264.533z"/>
		<path style="fill:#428DFF;" d="M435.2,179.2c0-4.713-3.821-8.533-8.533-8.533c-4.713,0-8.533,3.821-8.533,8.533v25.6
			c0,4.713,3.821,8.533,8.533,8.533c4.713,0,8.533-3.821,8.533-8.533V179.2z"/>
		<path style="fill:#428DFF;" d="M426.667,230.4c-4.713,0-8.533,3.821-8.533,8.533v25.6c0,4.713,3.821,8.533,8.533,8.533
			c4.713,0,8.533-3.82,8.533-8.533v-25.6C435.2,234.221,431.38,230.4,426.667,230.4z"/>
		<path style="fill:#428DFF;" d="M256,0c-4.713,0-8.533,3.821-8.533,8.533v8.966c-54.453,4.26-97.707,47.515-101.968,101.968H93.867
			c-9.422,0.009-17.057,7.645-17.067,17.067v8.533c0,4.713,3.821,8.533,8.533,8.533s8.533-3.821,8.533-8.533v-8.533h51.632
			c4.26,54.453,47.515,97.707,101.968,101.968V256c0,4.713,3.821,8.533,8.533,8.533s8.533-3.821,8.533-8.533v-17.499
			c54.453-4.26,97.707-47.515,101.968-101.968h51.632v8.533c0,4.713,3.821,8.533,8.533,8.533c4.713,0,8.533-3.821,8.533-8.533
			v-8.533c-0.009-9.422-7.645-17.057-17.067-17.067h-51.632c-4.26-54.453-47.515-97.707-101.968-101.968V8.533
			C264.533,3.821,260.713,0,256,0z M247.467,136.533v33.271c-16.74-3.451-29.82-16.531-33.271-33.271H247.467z M214.196,119.467
			c3.451-16.74,16.531-29.82,33.271-33.271v33.271H214.196z M264.533,136.533h33.271c-3.451,16.74-16.531,29.82-33.271,33.271
			V136.533z M264.533,119.467V86.196c16.74,3.451,29.82,16.531,33.271,33.271H264.533z M247.467,34.566v34.382
			c-26.159,3.814-46.704,24.36-50.519,50.519h-34.382C166.737,74.418,202.418,38.737,247.467,34.566z M162.566,136.533h34.382
			c3.814,26.159,24.36,46.704,50.519,50.519v34.382C202.418,217.263,166.737,181.582,162.566,136.533z M264.533,221.434v-34.382
			c26.159-3.814,46.704-24.36,50.519-50.519h34.382C345.264,181.582,309.582,217.263,264.533,221.434z M349.434,119.467h-34.382
			c-3.814-26.159-24.36-46.704-50.519-50.519V34.566C309.582,38.737,345.264,74.418,349.434,119.467z"/>
	</g>
</g>
<g>
</g>
<g>
</g>
<g>
</g>
<g>
</g>
<g>
</g>
<g>
</g>
<g>
</g>
<g>
</g>
<g>
</g>
<g>
</g>
<g>
</g>
<g>
</g>
<g>
</g>
<g>
</g>
<g>
</g>
</svg>
