<?xml version="1.0" encoding="iso-8859-1"?>
<!-- Generator: Adobe Illustrator 19.0.0, SVG Export Plug-In . SVG Version: 6.00 Build 0)  -->
<svg version="1.1" id="Capa_1" xmlns="http://www.w3.org/2000/svg" xmlns:xlink="http://www.w3.org/1999/xlink" x="0px" y="0px"
	 viewBox="0 0 512 512" style="enable-background:new 0 0 512 512;" xml:space="preserve">
<g>
	<g transform="translate(1 3)">
		<path style="fill:#E3E7F2;" d="M443.519,22.6h-307.2c-9.426,0-17.067,7.641-17.067,17.067V483.4
			c0,9.426,7.641,17.067,17.067,17.067h307.2c9.426,0,17.067-7.641,17.067-17.067V39.667C460.586,30.241,452.945,22.6,443.519,22.6z
			 M170.452,90.867c-9.426,0-17.067-7.641-17.067-17.067s7.641-17.067,17.067-17.067c9.426,0,17.067,7.641,17.067,17.067
			S179.878,90.867,170.452,90.867z M289.919,90.867c-9.426,0-17.067-7.641-17.067-17.067s7.641-17.067,17.067-17.067
			c9.426,0,17.067,7.641,17.067,17.067S299.345,90.867,289.919,90.867z M409.386,90.867c-9.426,0-17.067-7.641-17.067-17.067
			s7.641-17.067,17.067-17.067c9.426,0,17.067,7.641,17.067,17.067S418.811,90.867,409.386,90.867z"/>
		<path style="fill:#A4C2F7;" d="M460.586,39.667V483.4c-0.028,9.414-7.652,17.039-17.067,17.067h-25.6
			c9.414-0.028,17.039-7.653,17.067-17.067V39.667c-0.027-9.414-7.652-17.039-17.067-17.067h25.6
			C452.933,22.628,460.558,30.252,460.586,39.667z"/>
		<g>
			<path style="fill:#E3E7F2;" d="M170.452,335.603v2.731c-16.299,0.001-31.859-6.804-42.923-18.773l-60.501-65.536l25.6-25.6
				l62.293,67.499C164.896,306.731,170.439,320.896,170.452,335.603z"/>
			<path style="fill:#E3E7F2;" d="M92.628,228.424l-25.6,25.6l-12.8-13.824c-6.786-7.352-6.328-18.814,1.024-25.6
				c7.352-6.786,18.814-6.328,25.6,1.024L92.628,228.424z"/>
		</g>
	</g>
	<g transform="translate(10 3)">
		<path style="fill:#FFFFFF;" d="M110.252,364.104v119.467c0,9.426,7.641,17.067,17.067,17.067h25.6
			c-9.426,0-17.067-7.641-17.067-17.067V364.104H110.252z"/>
		<path style="fill:#FFFFFF;" d="M135.852,201.971V39.837c0-9.426,7.641-17.067,17.067-17.067h-25.6
			c-9.426,0-17.067,7.641-17.067,17.067v162.133H135.852z"/>
	</g>
	<g>
		<polygon style="fill:#FFFFFF;" points="128.786,42.667 128.786,153.6 128.786,162.133 111.719,162.133 111.719,153.6 
			111.719,42.667 		"/>
		<g>
			<path style="fill:#428DFF;" d="M111.719,153.6v51.2c0,4.713,3.821,8.533,8.533,8.533s8.533-3.821,8.533-8.533v-59.733
				c0-4.713-3.821-8.533-8.533-8.533s-8.533,3.821-8.533,8.533V153.6z"/>
			<path style="fill:#428DFF;" d="M120.252,119.467c3.45-0.014,6.556-2.096,7.879-5.282c1.323-3.187,0.606-6.856-1.82-9.31
				l-1.279-1.025c-0.476-0.324-0.993-0.583-1.538-0.771c-0.484-0.246-1.002-0.417-1.537-0.508c-0.564-0.096-1.133-0.153-1.705-0.17
				c-2.259,0.031-4.423,0.915-6.059,2.475c-2.07,1.994-2.979,4.908-2.409,7.726s2.539,5.149,5.222,6.183
				C118.033,119.221,119.136,119.453,120.252,119.467z"/>
			<path style="fill:#428DFF;" d="M444.519,17.067h-25.6V8.533c0-4.713-3.821-8.533-8.533-8.533c-4.713,0-8.533,3.821-8.533,8.533
				v8.533h-102.4V8.533c0-4.713-3.82-8.533-8.533-8.533s-8.533,3.821-8.533,8.533v8.533h-102.4V8.533
				c0-4.713-3.821-8.533-8.533-8.533c-4.713,0-8.533,3.821-8.533,8.533v8.533h-25.6c-14.132,0.015-25.585,11.468-25.6,25.6V76.8
				c0,4.713,3.821,8.533,8.533,8.533s8.533-3.82,8.533-8.533V42.667c0.006-4.71,3.823-8.527,8.533-8.533h25.6v18.639
				c-11.755,4.156-18.806,16.176-16.698,28.465s12.763,21.271,25.231,21.271c12.468,0,23.123-8.982,25.231-21.271
				c2.108-12.289-4.943-24.309-16.698-28.465V34.133h102.4v18.639c-11.755,4.156-18.806,16.176-16.698,28.465
				c2.108,12.289,12.763,21.271,25.231,21.271c12.468,0,23.123-8.982,25.231-21.271c2.108-12.289-4.943-24.309-16.698-28.465V34.133
				h102.4v18.639c-11.755,4.156-18.806,16.176-16.698,28.465c2.108,12.289,12.763,21.271,25.231,21.271
				c12.468,0,23.123-8.982,25.231-21.271c2.108-12.289-4.943-24.309-16.698-28.465V34.133h25.6c4.71,0.006,8.527,3.823,8.533,8.533
				V486.4c-0.006,4.71-3.823,8.527-8.533,8.533h-307.2c-4.71-0.006-8.527-3.823-8.533-8.533V366.933
				c0-4.713-3.821-8.533-8.533-8.533s-8.533,3.82-8.533,8.533V486.4c0.015,14.132,11.468,25.585,25.6,25.6h307.2
				c14.132-0.015,25.585-11.468,25.6-25.6V42.667C470.104,28.535,458.651,17.082,444.519,17.067z M171.452,85.333
				c-4.713,0-8.533-3.82-8.533-8.533c0-4.713,3.821-8.533,8.533-8.533c4.713,0,8.533,3.821,8.533,8.533
				C179.98,81.51,176.163,85.327,171.452,85.333z M290.919,85.333c-4.713,0-8.533-3.82-8.533-8.533c0-4.713,3.821-8.533,8.533-8.533
				s8.533,3.821,8.533,8.533C299.446,81.51,295.629,85.327,290.919,85.333z M410.386,85.333c-4.713,0-8.533-3.82-8.533-8.533
				c0-4.713,3.821-8.533,8.533-8.533c4.713,0,8.533,3.821,8.533,8.533C418.913,81.51,415.096,85.327,410.386,85.333z"/>
			<path style="fill:#428DFF;" d="M165.419,176.7c1.599,1.602,3.77,2.501,6.033,2.5c0.2,0,0.404-0.009,0.604-0.021
				c2.467-0.175,4.737-1.413,6.221-3.392l25.6-34.133c1.829-2.438,2.219-5.667,1.022-8.471s-3.799-4.756-6.825-5.121
				c-3.026-0.365-6.018,0.912-7.847,3.35l-19.7,26.263l-10.109-10.108c-3.341-3.281-8.701-3.256-12.012,0.054
				c-3.311,3.311-3.335,8.671-0.054,12.012L165.419,176.7z"/>
			<path style="fill:#428DFF;" d="M148.353,253.5l17.067,17.067c1.599,1.602,3.77,2.501,6.033,2.5c0.2,0,0.404-0.009,0.604-0.021
				c2.467-0.175,4.737-1.413,6.221-3.392l25.6-34.133c2.828-3.769,2.065-9.118-1.704-11.946c-3.769-2.828-9.118-2.065-11.946,1.704
				l-19.7,26.263l-10.109-10.108c-3.341-3.281-8.701-3.256-12.012,0.054C145.096,244.799,145.072,250.159,148.353,253.5z"/>
			<path style="fill:#428DFF;" d="M231.186,170.667h196.267c4.713,0,8.533-3.821,8.533-8.533c0-4.713-3.82-8.533-8.533-8.533
				H231.186c-4.713,0-8.533,3.821-8.533,8.533C222.652,166.846,226.473,170.667,231.186,170.667z"/>
			<path style="fill:#428DFF;" d="M231.186,264.533h196.267c4.713,0,8.533-3.821,8.533-8.533c0-4.713-3.82-8.533-8.533-8.533
				H231.186c-4.713,0-8.533,3.821-8.533,8.533C222.652,260.713,226.473,264.533,231.186,264.533z"/>
			<path style="fill:#428DFF;" d="M231.186,358.4h196.267c4.713,0,8.533-3.821,8.533-8.533c0-4.713-3.82-8.533-8.533-8.533H231.186
				c-4.713,0-8.533,3.821-8.533,8.533C222.652,354.579,226.473,358.4,231.186,358.4z"/>
			<path style="fill:#428DFF;" d="M231.186,452.267h196.267c4.713,0,8.533-3.821,8.533-8.533c0-4.713-3.82-8.533-8.533-8.533
				H231.186c-4.713,0-8.533,3.821-8.533,8.533C222.652,448.446,226.473,452.267,231.186,452.267z"/>
			<path style="fill:#428DFF;" d="M122.227,328.321c11.829,12.739,28.139,20.393,45.496,21.35l6.229,6.229
				c2.15,2.18,5.304,3.041,8.264,2.255c2.96-0.786,5.271-3.097,6.057-6.057c0.786-2.96-0.075-6.113-2.255-8.264l-6.072-6.072
				c-0.173-16.55-6.488-32.446-17.719-44.603l-74.133-80.313c-4.565-4.933-10.844-7.933-17.55-8.384
				c-0.498-0.038-0.975-0.168-1.479-0.178h-0.004c-5.376-0.041-10.648,1.487-15.168,4.397c-1.509,0.986-2.912,2.125-4.186,3.399
				c-10.141,10.087-10.467,26.395-0.738,36.879l12.787,13.854l0.003,0.002L122.227,328.321z M75.548,224.421l6.246,6.767
				l-13.519,13.523l-6.764-7.328c-2.574-2.788-3.254-6.834-1.734-10.31c1.52-3.476,4.953-5.724,8.747-5.727l0.2,0.004
				C71.324,221.391,73.792,222.502,75.548,224.421z M162.486,331.984c-10.643-1.95-20.368-7.296-27.717-15.238l-54.91-59.486
				l13.523-13.523l56.304,60.996C156.666,312.275,161.138,321.795,162.486,331.984z"/>
		</g>
	</g>
</g>
<g>
</g>
<g>
</g>
<g>
</g>
<g>
</g>
<g>
</g>
<g>
</g>
<g>
</g>
<g>
</g>
<g>
</g>
<g>
</g>
<g>
</g>
<g>
</g>
<g>
</g>
<g>
</g>
<g>
</g>
</svg>
