<?xml version="1.0" encoding="iso-8859-1"?>
<!-- Generator: Adobe Illustrator 19.0.0, SVG Export Plug-In . SVG Version: 6.00 Build 0)  -->
<svg version="1.1" id="Capa_1" xmlns="http://www.w3.org/2000/svg" xmlns:xlink="http://www.w3.org/1999/xlink" x="0px" y="0px"
	 viewBox="0 0 512.002 512.002" style="enable-background:new 0 0 512.002 512.002;" xml:space="preserve">
<g>
	<g transform="translate(1 1)">
		<g>
			<path style="fill:#E3E7F2;" d="M237.934,383.002h34.133v102.4c0,9.426-7.641,17.067-17.067,17.067s-17.067-7.641-17.067-17.067
				V383.002z"/>
			<path style="fill:#E3E7F2;" d="M317.977,383.002l54.187,93.867c3.049,5.274,3.052,11.774,0.009,17.051
				c-3.043,5.277-8.671,8.53-14.763,8.533c-6.092,0.003-11.723-3.244-14.771-8.518l-64-110.933h-47.275l-64,110.933
				c-4.713,8.153-15.143,10.942-23.296,6.229s-10.942-15.143-6.229-23.296l54.187-93.867l28.843-341.333
				c0-18.851,15.282-34.133,34.133-34.133s34.133,15.282,34.133,34.133L317.977,383.002z"/>
		</g>
		<path style="fill:#A4C2F7;" d="M24.601,41.669h460.8c9.426,0,17.067,7.641,17.067,17.067v307.2
			c0,9.426-7.641,17.067-17.067,17.067h-460.8c-9.426,0-17.067-7.641-17.067-17.067v-307.2C7.534,49.31,15.175,41.669,24.601,41.669
			z"/>
		<g>
			<path style="fill:#E3E7F2;" d="M24.601,41.669h435.2c9.426,0,17.067,7.641,17.067,17.067v307.2
				c0,9.426-7.641,17.067-17.067,17.067h-435.2c-9.426,0-17.067-7.641-17.067-17.067v-307.2
				C7.534,49.31,15.175,41.669,24.601,41.669z"/>
			<path style="fill:#E3E7F2;" d="M417.134,92.869v51.2h-51.2c0,28.277,22.923,51.2,51.2,51.2c28.277,0,51.2-22.923,51.2-51.2
				S445.411,92.869,417.134,92.869z"/>
		</g>
		<polygon style="fill:#F5F5F5;" points="169.668,272.069 152.601,306.202 101.401,306.202 84.334,272.069 		"/>
		<g>
			<path style="fill:#E3E7F2;" d="M147.054,306.202c0.862,2.342,1.296,4.819,1.28,7.314c0,12.142-21.333,43.886-21.333,43.886
				s-21.333-31.744-21.333-43.886c-0.016-2.495,0.418-4.973,1.28-7.314H147.054z"/>
			<polygon style="fill:#E3E7F2;" points="169.668,272.069 211.396,313.882 211.481,313.882 212.334,313.626 212.334,220.869 
				169.668,169.669 84.334,169.669 41.668,220.869 41.668,313.626 42.521,313.882 42.606,313.882 84.334,272.069 			"/>
		</g>
		<path style="fill:#A4C2F7;" d="M169.668,84.336H84.334c0-1.195,0-2.389,0.085-3.584c1.877-27.051,23.381-53.333,35.072-65.792
			c4.523-4.693,7.509-7.424,7.509-7.424S169.668,45.765,169.668,84.336z"/>
		<path style="fill:#E3E7F2;" d="M144.068,84.336H84.334c0-1.195,0-2.389,0.085-3.584c1.877-27.051,23.381-53.333,35.072-65.792
			C128.025,27.93,144.068,56.005,144.068,84.336z"/>
		<rect x="84.334" y="84.336" style="fill:#D4E1F4;" width="85.333" height="187.733"/>
		<rect x="84.334" y="84.336" style="fill:#F5F5F5;" width="59.733" height="187.733"/>
		<rect x="144.068" y="229.402" style="fill:#A4C2F7;" width="25.6" height="42.667"/>
		<rect x="84.334" y="229.402" style="fill:#E3E7F2;" width="59.733" height="42.667"/>
	</g>
	<path style="fill:#FFFFFF;" d="M34.134,367.106v-307.2c0.028-9.414,7.652-17.039,17.067-17.067h-25.6
		c-9.414,0.028-17.039,7.652-17.067,17.067v307.2c0.028,9.414,7.653,17.039,17.067,17.067h25.6
		C41.787,384.145,34.162,376.52,34.134,367.106z"/>
	<g>
		<polygon style="fill:#FFFFFF;" points="17.068,59.736 17.068,170.669 17.068,366.936 0.001,366.936 0.001,170.669 0.001,59.736 		
			"/>
		<g>
			<path style="fill:#428DFF;" d="M256.001,256.002h204.8c4.713,0,8.533-3.82,8.533-8.533s-3.82-8.533-8.533-8.533h-204.8
				c-4.713,0-8.533,3.821-8.533,8.533S251.288,256.002,256.001,256.002z"/>
			<path style="fill:#428DFF;" d="M256.001,290.136h204.8c4.713,0,8.533-3.82,8.533-8.533s-3.82-8.533-8.533-8.533h-204.8
				c-4.713,0-8.533,3.82-8.533,8.533S251.288,290.136,256.001,290.136z"/>
			<path style="fill:#428DFF;" d="M256.001,324.269h204.8c4.713,0,8.533-3.821,8.533-8.533s-3.82-8.533-8.533-8.533h-204.8
				c-4.713,0-8.533,3.82-8.533,8.533S251.288,324.269,256.001,324.269z"/>
			<path style="fill:#428DFF;" d="M477.868,145.069c-0.037-32.974-26.759-59.696-59.733-59.733c-4.713,0-8.533,3.821-8.533,8.533
				v42.667h-42.667c-4.713,0-8.533,3.82-8.533,8.533c0,32.99,26.744,59.733,59.733,59.733S477.868,178.059,477.868,145.069z
				 M376.326,153.602h41.808c4.713,0,8.533-3.821,8.533-8.533v-41.808c20.926,4.272,35.47,23.359,34.037,44.669
				c-1.433,21.31-18.401,38.278-39.71,39.71C399.685,189.072,380.599,174.528,376.326,153.602z"/>
			<path style="fill:#428DFF;" d="M256.001,93.869c-4.713,0-8.533,3.821-8.533,8.533v93.867c0,4.713,3.821,8.533,8.533,8.533h93.867
				c4.713,0,8.533-3.821,8.533-8.533c0-4.713-3.821-8.533-8.533-8.533h-44.809c27.467-20.023,44.418-51.385,46.121-85.333
				c0-4.713-3.82-8.533-8.533-8.533s-8.533,3.821-8.533,8.533c0,32.164-28.742,78.868-69.579,84.713v-84.713
				C264.534,97.689,260.714,93.869,256.001,93.869z"/>
			<path style="fill:#428DFF;" d="M8.534,136.536c2.259-0.034,4.422-0.918,6.059-2.475c3.3-3.365,3.3-8.752,0-12.117l-1.279-1.025
				c-0.476-0.324-0.993-0.583-1.538-0.771c-0.484-0.246-1.003-0.417-1.538-0.509c-0.563-0.096-1.133-0.153-1.704-0.171
				c-2.259,0.031-4.423,0.915-6.059,2.475c-3.222,3.397-3.222,8.721,0,12.117c0.815,0.77,1.77,1.379,2.813,1.792
				C6.315,136.291,7.418,136.523,8.534,136.536z"/>
			<path style="fill:#428DFF;" d="M486.401,34.136H297.805c-4.055-19.865-21.529-34.133-41.804-34.133
				c-20.275,0-37.749,14.268-41.804,34.133h-53.265c-7.83-11.655-16.968-22.376-27.235-31.954c-3.24-2.909-8.152-2.909-11.392,0
				C112.038,11.759,102.9,22.48,95.07,34.136H25.601c-14.132,0.015-25.585,11.468-25.6,25.6v34.133c0,4.713,3.821,8.533,8.533,8.533
				s8.533-3.821,8.533-8.533V59.736c0.006-4.71,3.823-8.527,8.533-8.533h59.791c-5.34,10.607-8.273,22.262-8.591,34.133v82.246
				l-40.688,48.825c-1.279,1.533-1.979,3.466-1.979,5.463v93.867c0,3.451,2.079,6.563,5.267,7.883
				c3.189,1.321,6.859,0.59,9.299-1.85l34.295-34.295l11.771,23.546c0.752,1.486,1.925,2.718,3.373,3.543
				c0.036,13.693,17.437,40.653,22.777,48.599c1.585,2.359,4.241,3.775,7.083,3.775s5.498-1.415,7.083-3.775
				c5.34-7.946,22.741-34.906,22.777-48.599c1.448-0.824,2.621-2.056,3.373-3.543l11.772-23.544l34.295,34.294
				c2.44,2.441,6.11,3.171,9.299,1.85c3.189-1.321,5.268-4.432,5.268-7.883v-93.867c0-1.996-0.7-3.929-1.979-5.463l-40.688-48.825
				V85.336c-0.318-11.871-3.251-23.526-8.591-34.133h315.791c4.71,0.006,8.527,3.823,8.533,8.533v307.2
				c-0.006,4.71-3.823,8.527-8.533,8.533h-460.8c-4.71-0.006-8.527-3.823-8.533-8.533v-204.8c0-4.713-3.821-8.533-8.533-8.533
				s-8.533,3.821-8.533,8.533v204.8c0.015,14.132,11.468,25.585,25.6,25.6h152.644l-46.811,81.092
				c-3.392,5.87-4.312,12.847-2.558,19.396c1.729,6.579,6.037,12.183,11.95,15.546c5.87,3.393,12.848,4.314,19.396,2.558
				c6.572-1.725,12.171-6.026,15.533-11.93l54.645-94.719v81.923c0,14.138,11.462,25.6,25.6,25.6c14.139,0,25.6-11.462,25.6-25.6
				v-81.923l54.633,94.698c3.363,5.913,8.967,10.221,15.546,11.95c6.549,1.755,13.527,0.835,19.396-2.558
				c5.913-3.362,10.221-8.967,11.95-15.546c1.754-6.558,0.829-13.545-2.571-19.421l-46.798-81.067h152.644
				c14.132-0.015,25.585-11.468,25.6-25.6v-307.2C511.986,45.603,500.533,34.151,486.401,34.136z M128.001,20.506
				c9.819,10.209,29.22,32.912,33.319,56.296H94.682C98.781,53.418,118.182,30.716,128.001,20.506z M148.326,298.669h-40.65
				l-8.533-17.067h57.717L148.326,298.669z M162.134,264.536H93.868v-25.6h68.267V264.536z M162.134,221.869H93.868v-128h68.267
				V221.869z M51.201,224.956l25.6-30.72v75.299l-25.6,25.6V224.956z M128.001,342.427c-5.412-8.278-9.664-17.259-12.635-26.692
				h25.269C137.662,325.168,133.411,334.148,128.001,342.427z M204.801,224.956v70.179l-25.6-25.6v-75.299L204.801,224.956z
				 M256.001,17.069c10.813,0.033,20.435,6.868,24.028,17.067h-48.055C235.566,23.937,245.188,17.102,256.001,17.069z
				 M160.959,490.694c-2.378,4.054-7.584,5.425-11.65,3.067c-1.951-1.108-3.372-2.955-3.942-5.125
				c-0.584-2.195-0.274-4.533,0.862-6.5l51.724-89.6h19.635L160.959,490.694z M264.534,486.402c0,4.713-3.821,8.533-8.533,8.533
				c-4.713,0-8.533-3.82-8.533-8.533v-93.867h17.067V486.402z M365.759,482.111c1.144,1.973,1.459,4.32,0.875,6.525
				c-0.57,2.17-1.991,4.017-3.942,5.125c-1.956,1.138-4.284,1.452-6.471,0.873c-2.187-0.579-4.055-2.004-5.191-3.961l-56.618-98.138
				h19.635L365.759,482.111z"/>
			<path style="fill:#428DFF;" d="M119.468,128.002h17.067c4.713,0,8.533-3.821,8.533-8.533c0-4.713-3.82-8.533-8.533-8.533h-17.067
				c-4.713,0-8.533,3.821-8.533,8.533C110.934,124.182,114.755,128.002,119.468,128.002z"/>
			<path style="fill:#428DFF;" d="M119.468,162.136h17.067c4.713,0,8.533-3.82,8.533-8.533s-3.82-8.533-8.533-8.533h-17.067
				c-4.713,0-8.533,3.821-8.533,8.533S114.755,162.136,119.468,162.136z"/>
		</g>
	</g>
</g>
<g>
</g>
<g>
</g>
<g>
</g>
<g>
</g>
<g>
</g>
<g>
</g>
<g>
</g>
<g>
</g>
<g>
</g>
<g>
</g>
<g>
</g>
<g>
</g>
<g>
</g>
<g>
</g>
<g>
</g>
</svg>
