<?xml version="1.0" encoding="iso-8859-1"?>
<!-- Generator: Adobe Illustrator 19.0.0, SVG Export Plug-In . SVG Version: 6.00 Build 0)  -->
<svg version="1.1" id="Capa_1" xmlns="http://www.w3.org/2000/svg" xmlns:xlink="http://www.w3.org/1999/xlink" x="0px" y="0px"
	 viewBox="0 0 512.023 512.023" style="enable-background:new 0 0 512.023 512.023;" xml:space="preserve">
<g transform="translate(-1)">
	<g transform="translate(1 10)">
		<path style="fill:#A4C2F7;" d="M230.424,382.545v25.6c-0.014,4.707-3.826,8.519-8.533,8.533H17.09
			c-4.707-0.014-8.519-3.826-8.533-8.533v-25.6l25.6-34.133c-17.629-34.272-26.428-72.402-25.6-110.933
			c0-49.92,19.029-96.256,62.549-108.032c11.788-2.977,21.732-10.87,27.307-21.675c5.353-10.523,13.854-19.114,24.32-24.576
			c2.421-1.416,4.962-2.616,7.595-3.584c5.25-2.032,11.164-1.352,15.816,1.818c4.653,3.17,7.449,8.425,7.48,14.054v31.061
			c7.131,0.596,14.206,1.737,21.163,3.413c7.598,1.907,12.937,8.721,12.971,16.555v14.165l31.744,21.163
			c4.543,3.019,7.37,8.028,7.606,13.478c0.236,5.45-2.146,10.684-6.411,14.085l-16.555,13.227
			c-4.583,3.689-10.744,4.754-16.299,2.816c-3.051-1.096-6.155-2.036-9.301-2.816h-0.085c-5.321-1.405-10.795-2.151-16.299-2.219
			c-4.499-0.051-8.99,0.378-13.397,1.28c-16.706,1.885-29.318,16.041-29.269,32.853c0,51.2,85.333,59.733,85.333,93.867
			L230.424,382.545z"/>
		<path style="fill:#E3E7F2;" d="M204.824,382.545v25.6c-0.014,4.707-3.826,8.519-8.533,8.533H17.09
			c-4.707-0.014-8.519-3.826-8.533-8.533v-25.6l25.6-34.133c-17.629-34.272-26.428-72.402-25.6-110.933
			c0-49.92,19.029-96.256,62.549-108.032c11.788-2.977,21.732-10.87,27.307-21.675c5.353-10.523,13.854-19.114,24.32-24.576
			c3.397,3.181,5.314,7.634,5.291,12.288v31.061c7.131,0.596,14.206,1.737,21.163,3.413c7.598,1.907,12.937,8.721,12.971,16.555
			v14.165l31.744,21.163c4.543,3.019,7.37,8.028,7.606,13.478c0.236,5.45-2.147,10.684-6.412,14.085l-16.555,13.227h-0.085
			c-4.55,3.688-10.686,4.754-16.213,2.816c-4.403-1.558-8.908-2.812-13.483-3.755c-4.017-0.819-8.103-1.247-12.203-1.28
			c-34.133,0-42.667,20.565-42.667,34.133c0,51.2,85.333,59.733,85.333,93.867L204.824,382.545z"/>
		<g>
			<polygon style="fill:#A4C2F7;" points="230.424,382.545 8.557,382.545 34.157,348.412 204.824,348.412 			"/>
			<path style="fill:#A4C2F7;" d="M230.424,382.545v25.6c-0.014,4.707-3.826,8.519-8.533,8.533H17.09
				c-4.707-0.014-8.519-3.826-8.533-8.533v-25.6H230.424z"/>
		</g>
		<g>
			<polygon style="fill:#E3E7F2;" points="204.824,382.545 8.557,382.545 34.157,348.412 179.224,348.412 			"/>
			<path style="fill:#E3E7F2;" d="M204.824,382.545v25.6c-0.014,4.707-3.826,8.519-8.533,8.533H17.09
				c-4.707-0.014-8.519-3.826-8.533-8.533v-25.6H204.824z"/>
		</g>
		<path style="fill:#FFFFFF;" d="M34.157,408.316v-25.6l25.6-34.133c-17.629-34.272-26.428-72.402-25.6-110.933
			c0-49.92,19.029-96.256,62.549-108.032c11.788-2.977,21.732-10.87,27.307-21.675c5.339-10.492,13.81-19.063,24.24-24.525
			c-4.774-4.568-11.749-5.983-17.925-3.635c-2.632,0.968-5.174,2.168-7.595,3.584c-10.466,5.462-18.967,14.053-24.32,24.576
			c-5.575,10.805-15.518,18.698-27.307,21.675c-43.52,11.776-62.549,58.112-62.549,108.032c-0.828,38.532,7.971,76.661,25.6,110.933
			l-25.6,34.133v25.6c0.014,4.707,3.826,8.519,8.533,8.533h25.6C37.983,416.835,34.171,413.023,34.157,408.316z"/>
	</g>
	<g>
		<polygon style="fill:#FFFFFF;" points="18.09,418.145 129.024,418.145 222.89,418.145 222.89,435.212 129.024,435.212 
			18.09,435.212 		"/>
		<g>
			<path style="fill:#428DFF;" d="M86.357,418.145c-2.259,0.033-4.422,0.917-6.059,2.475l-1.025,1.279
				c-0.324,0.476-0.583,0.993-0.771,1.538c-0.246,0.484-0.417,1.002-0.508,1.537c-0.096,0.564-0.153,1.133-0.171,1.705
				c0.031,2.259,0.915,4.423,2.475,6.059c1.994,2.07,4.908,2.979,7.726,2.409c2.818-0.57,5.149-2.539,6.183-5.222
				c0.438-1.027,0.67-2.13,0.684-3.246c0.022-2.27-0.87-4.453-2.475-6.058C90.81,419.015,88.627,418.123,86.357,418.145z"/>
			<path style="fill:#428DFF;" d="M385.024,247.478H350.89c-4.713,0-8.533,3.821-8.533,8.533c0,4.713,3.821,8.533,8.533,8.533
				h34.133c4.713,0,8.533-3.821,8.533-8.533C393.557,251.299,389.736,247.478,385.024,247.478z"/>
			<path style="fill:#428DFF;" d="M316.757,247.478h-34.133c-4.713,0-8.533,3.821-8.533,8.533c0,4.713,3.821,8.533,8.533,8.533
				h34.133c4.713,0,8.533-3.821,8.533-8.533C325.29,251.299,321.47,247.478,316.757,247.478z"/>
			<path style="fill:#428DFF;" d="M248.49,247.478h-17.067c-4.713,0-8.533,3.821-8.533,8.533c0,4.713,3.821,8.533,8.533,8.533
				h17.067c4.713,0,8.533-3.821,8.533-8.533C257.024,251.299,253.203,247.478,248.49,247.478z"/>
			<path style="fill:#428DFF;" d="M461.824,392.545c-4.713,0-8.533,3.82-8.533,8.533v34.133c0,4.713,3.82,8.533,8.533,8.533
				s8.533-3.82,8.533-8.533v-34.133C470.357,396.366,466.536,392.545,461.824,392.545z"/>
			<path style="fill:#428DFF;" d="M461.824,324.278c-4.713,0-8.533,3.82-8.533,8.533v34.133c0,4.713,3.82,8.533,8.533,8.533
				s8.533-3.82,8.533-8.533v-34.133C470.357,328.099,466.536,324.278,461.824,324.278z"/>
			<path style="fill:#428DFF;" d="M376.49,494.945h-34.133c-4.713,0-8.533,3.821-8.533,8.533c0,4.713,3.821,8.533,8.533,8.533
				h34.133c4.713,0,8.533-3.82,8.533-8.533C385.024,498.766,381.203,494.945,376.49,494.945z"/>
			<path style="fill:#428DFF;" d="M308.224,494.945H274.09c-4.713,0-8.533,3.821-8.533,8.533c0,4.713,3.82,8.533,8.533,8.533h34.133
				c4.713,0,8.533-3.82,8.533-8.533C316.757,498.766,312.936,494.945,308.224,494.945z"/>
			<path style="fill:#428DFF;" d="M239.957,494.945h-34.133c-4.713,0-8.533,3.821-8.533,8.533c0,4.713,3.821,8.533,8.533,8.533
				h34.133c4.713,0,8.533-3.82,8.533-8.533C248.49,498.766,244.67,494.945,239.957,494.945z"/>
			<path style="fill:#428DFF;" d="M461.824,460.812c-4.713,0-8.533,3.82-8.533,8.533v17.067c-0.006,4.71-3.823,8.527-8.533,8.533
				h-34.133c-4.713,0-8.533,3.821-8.533,8.533c0,4.713,3.821,8.533,8.533,8.533h34.133c14.132-0.015,25.585-11.468,25.6-25.6
				v-17.067C470.357,464.632,466.536,460.812,461.824,460.812z"/>
			<path style="fill:#428DFF;" d="M171.69,494.945h-34.133c-4.71-0.006-8.527-3.823-8.533-8.533v-17.067
				c0-4.713-3.821-8.533-8.533-8.533c-4.713,0-8.533,3.82-8.533,8.533v17.067c0.015,14.132,11.468,25.585,25.6,25.6h34.133
				c4.713,0,8.533-3.82,8.533-8.533C180.224,498.766,176.403,494.945,171.69,494.945z"/>
			<path style="fill:#428DFF;" d="M470.357,76.812c0-4.713-3.821-8.533-8.533-8.533s-8.533,3.821-8.533,8.533v34.133
				c0,4.713,3.82,8.533,8.533,8.533s8.533-3.821,8.533-8.533V76.812z"/>
			<path style="fill:#428DFF;" d="M461.824,136.545c-4.713,0-8.533,3.821-8.533,8.533v34.133c0,4.713,3.82,8.533,8.533,8.533
				s8.533-3.821,8.533-8.533v-34.133C470.357,140.366,466.536,136.545,461.824,136.545z"/>
			<path style="fill:#428DFF;" d="M342.357,0.012c-4.713,0-8.533,3.821-8.533,8.533s3.821,8.533,8.533,8.533h34.133
				c4.713,0,8.533-3.821,8.533-8.533s-3.821-8.533-8.533-8.533H342.357z"/>
			<path style="fill:#428DFF;" d="M274.09,0.012c-4.713,0-8.533,3.821-8.533,8.533s3.82,8.533,8.533,8.533h34.133
				c4.713,0,8.533-3.821,8.533-8.533s-3.821-8.533-8.533-8.533H274.09z"/>
			<path style="fill:#428DFF;" d="M205.824,0.012c-4.713,0-8.533,3.821-8.533,8.533s3.821,8.533,8.533,8.533h34.133
				c4.713,0,8.533-3.821,8.533-8.533s-3.821-8.533-8.533-8.533H205.824z"/>
			<path style="fill:#428DFF;" d="M470.357,25.612c-0.015-14.132-11.468-25.585-25.6-25.6h-34.133c-4.713,0-8.533,3.821-8.533,8.533
				s3.821,8.533,8.533,8.533h34.133c4.71,0.006,8.527,3.823,8.533,8.533v17.067c0,4.713,3.82,8.533,8.533,8.533
				s8.533-3.821,8.533-8.533V25.612z"/>
			<path style="fill:#428DFF;" d="M137.557,0.012c-14.132,0.015-25.585,11.468-25.6,25.6v17.067c0,4.713,3.821,8.533,8.533,8.533
				c4.713,0,8.533-3.821,8.533-8.533V25.612c0.006-4.71,3.823-8.527,8.533-8.533h34.133c4.713,0,8.533-3.821,8.533-8.533
				s-3.821-8.533-8.533-8.533H137.557z"/>
			<path style="fill:#428DFF;" d="M510.523,207.312c-1.6-1.601-3.77-2.5-6.033-2.5s-4.434,0.899-6.033,2.5l-36.633,36.633
				l-36.634-36.634c-3.338-3.296-8.711-3.279-12.029,0.038c-3.317,3.317-3.334,8.691-0.038,12.029l36.633,36.634l-36.634,36.634
				c-2.178,2.151-3.037,5.304-2.251,8.262s3.097,5.269,6.055,6.055c2.958,0.786,6.111-0.073,8.262-2.251l36.634-36.633
				l36.634,36.634c3.338,3.296,8.711,3.279,12.029-0.038c3.317-3.317,3.334-8.691,0.038-12.029l-36.633-36.634l36.634-36.634
				c1.6-1.6,2.5-3.77,2.499-6.033C513.023,211.082,512.124,208.912,510.523,207.312z"/>
			<path style="fill:#428DFF;" d="M69.29,384.012H26.624l12.799-17.067h162.133l12.799,17.067H120.49
				c-4.713,0-8.533,3.82-8.533,8.533s3.821,8.533,8.533,8.533h102.403l0.009,17.067H120.49c-4.713,0-8.533,3.82-8.533,8.533
				s3.821,8.533,8.533,8.533h102.4c9.422-0.009,17.057-7.645,17.067-17.067v-25.6c-0.016-1.038-0.224-2.065-0.611-3.028
				c-0.141-0.317-0.303-0.626-0.483-0.922c-0.173-0.406-0.379-0.797-0.614-1.17l-24.309-32.413
				c-2.122-18.093-20.444-29.124-40.003-40.662c-22.079-13.025-44.912-26.492-44.912-49.804c0-6.004,2.462-25.6,34.133-25.6
				c7.809,0.247,15.524,1.781,22.833,4.542c8.33,2.929,17.582,1.359,24.479-4.154l16.592-13.275
				c6.379-5.101,9.941-12.94,9.587-21.101c-0.354-8.16-4.582-15.662-11.379-20.191l-27.979-18.654v-9.567
				c-0.02-11.755-8.023-21.995-19.425-24.854c-4.846-1.2-9.757-2.122-14.708-2.762V105.52c-0.016-8.441-4.18-16.334-11.138-21.113
				c-6.958-4.779-15.82-5.832-23.704-2.816v0.004c-15.817,5.829-28.864,17.393-36.55,32.396
				c-4.486,8.612-12.457,14.882-21.883,17.212c-43.117,11.7-68.858,55.167-68.858,116.275C0.5,285.56,8.722,323.253,25.057,357.657
				L2.732,387.424c-0.235,0.373-0.44,0.765-0.614,1.17c-0.181,0.297-0.342,0.605-0.483,0.922c-0.388,0.963-0.595,1.99-0.611,3.028
				v25.6c0.009,9.422,7.645,17.057,17.067,17.067h34.133c4.713,0,8.533-3.82,8.533-8.533s-3.821-8.533-8.533-8.533H18.09v-17.067
				h51.2c4.713,0,8.533-3.82,8.533-8.533S74.003,384.012,69.29,384.012z M74.349,147.674c14.172-3.614,26.103-13.154,32.746-26.183
				c5.77-11.12,15.506-19.666,27.28-23.946c2.672-1.036,5.684-0.674,8.033,0.967c2.321,1.574,3.703,4.204,3.683,7.008v31.025
				c0,4.403,3.35,8.083,7.733,8.496c6.685,0.561,13.318,1.628,19.842,3.191c3.832,0.942,6.534,4.367,6.558,8.313v14.133
				c0,2.853,1.426,5.518,3.8,7.1l31.779,21.188c2.265,1.51,3.674,4.01,3.792,6.73c0.118,2.72-1.069,5.332-3.196,7.033
				l-16.592,13.279c-2.255,1.832-5.296,2.369-8.042,1.421c-9.161-3.428-18.83-5.303-28.608-5.55c-37.792,0-51.2,22.983-51.2,42.667
				c0,33.058,29.558,50.496,53.308,64.504c10.645,5.313,20.337,12.351,28.683,20.829H40.278
				c-15.005-32.03-22.589-67.032-22.188-102.4C18.09,194.541,39.124,157.233,74.349,147.674z"/>
		</g>
	</g>
</g>
<g>
</g>
<g>
</g>
<g>
</g>
<g>
</g>
<g>
</g>
<g>
</g>
<g>
</g>
<g>
</g>
<g>
</g>
<g>
</g>
<g>
</g>
<g>
</g>
<g>
</g>
<g>
</g>
<g>
</g>
</svg>
