<?xml version="1.0" encoding="iso-8859-1"?>
<!-- Generator: Adobe Illustrator 19.0.0, SVG Export Plug-In . SVG Version: 6.00 Build 0)  -->
<svg version="1.1" id="Capa_1" xmlns="http://www.w3.org/2000/svg" xmlns:xlink="http://www.w3.org/1999/xlink" x="0px" y="0px"
	 viewBox="0 0 512.029 512.029" style="enable-background:new 0 0 512.029 512.029;" xml:space="preserve">
<g>
	<g transform="translate(1 10)">
		<path style="fill:#E3E7F2;" d="M347.385,420.17c0-39.467,44.162-65.104,44.162-114.437c0.524-19.74-2.913-39.385-10.109-57.774
			c-2.69-6.362-8.928-10.495-15.835-10.493h-43.04c-2.702,4.691-5.95,9.045-9.676,12.972c-10.052,9.626-15.588,23.037-15.253,36.951
			c0.355,4.735-1.279,9.404-4.509,12.885c-3.23,3.481-7.763,5.459-12.512,5.459h-34.133c-9.426,0-17.067-7.641-17.067-17.067v-0.006
			c0.235-13.958-5.005-27.454-14.599-37.595c-3.991-4.084-7.455-8.652-10.309-13.598h-41.969
			c-5.971,0.008-11.508,3.122-14.617,8.221c-7.258,10.103-11.543,22.035-12.372,34.446c0,16.914,6.364,24.457,6.364,35.733
			c0,8.759-18.854,22.087-27.744,36.209c-3.685,6.206-2.038,14.198,3.801,18.441l13.587,10.189l-3.883,7.767
			c-1.048,2.096-0.637,4.627,1.02,6.284l8.502,8.502l-2.483,2.482c-1.834,1.835-2.119,4.71-0.679,6.869l4.558,6.839
			c2.61,4,2.895,9.086,0.748,13.352c-1.721,3.537-1.986,7.609-0.736,11.34c1.577,3.721,4.281,6.853,7.731,8.956
			c6.251,4.177,13.625,6.353,21.142,6.239h17.395c12.932,0,24.414,8.276,28.503,20.544c2.705,8.115,10.299,13.589,18.853,13.589
			h107.442c6.005,0.408,11.817-2.215,15.482-6.99c3.665-4.774,4.698-11.066,2.752-16.762
			C352.367,453.697,348.835,437.056,347.385,420.17z"/>
		<path style="fill:#B19046;" d="M127.014,118v34.133c-0.014,4.707-3.826,8.52-8.533,8.533H33.148
			c-4.707-0.014-8.52-3.826-8.533-8.533V118H127.014z"/>
		<g>
			<path style="fill:#E3E7F2;" d="M24.614,152.133c0,4.713,3.821,8.533,8.533,8.533h85.333c4.713,0,8.533-3.82,8.533-8.533V118
				h-102.4V152.133z"/>
			<path style="fill:#E3E7F2;" d="M127.014,83.867V118h-102.4V83.867c0.014-4.707,3.826-8.52,8.533-8.533h85.333
				C123.188,75.347,127.001,79.16,127.014,83.867z"/>
		</g>
		<path style="fill:#A4C2F7;" d="M127.014,83.867v68.267c-0.014,4.707-3.826,8.52-8.533,8.533h-25.6
			c4.707-0.014,8.52-3.826,8.533-8.533V83.867c-0.014-4.707-3.826-8.52-8.533-8.533h25.6
			C123.188,75.347,127.001,79.16,127.014,83.867z"/>
		<path style="fill:#7FABFA;" d="M357.927,469.744c1.928,5.697,0.882,11.98-2.786,16.746s-9.476,7.383-15.476,6.977h-25.6
			c6,0.407,11.807-2.211,15.476-6.977c3.669-4.766,4.714-11.049,2.786-16.746c-5.574-16.022-9.129-32.677-10.581-49.579
			c0-39.424,44.202-65.109,44.202-114.432c0.507-19.734-2.916-39.372-10.069-57.771c-2.702-6.369-8.954-10.503-15.873-10.496h25.6
			c6.919-0.007,13.171,4.127,15.873,10.496c7.153,18.399,10.575,38.037,10.068,57.771c0,49.323-44.202,75.008-44.202,114.432
			C348.798,437.067,352.353,453.722,357.927,469.744z"/>
		<path style="fill:#A4C2F7;" d="M331.808,203.333c0.01,17.709-6.877,34.727-19.2,47.445c-9.719,10.204-15.077,23.796-14.933,37.888
			c0.001,4.527-1.797,8.868-4.997,12.069c-3.201,3.201-7.543,4.999-12.069,4.997h-34.816c-9.158-0.367-16.391-7.901-16.384-17.067
			c0.035-14.196-5.405-27.858-15.189-38.144c-17.31-18.068-23.345-44.161-15.726-67.995s27.668-41.588,52.249-46.267
			c1.663-0.346,3.344-0.602,5.035-0.768c19.331-2.198,38.682,3.951,53.199,16.904S331.797,183.878,331.808,203.333z"/>
		<path style="fill:#E3E7F2;" d="M306.208,203.333c0.01,17.709-6.877,34.727-19.2,47.445c-9.719,10.204-15.077,23.796-14.933,37.888
			c0.001,4.527-1.797,8.868-4.997,12.069c-3.201,3.201-7.543,4.999-12.069,4.997h-9.216c-9.158-0.367-16.391-7.901-16.384-17.067
			c0.035-14.196-5.405-27.858-15.189-38.144c-17.31-18.068-23.345-44.161-15.726-67.995s27.668-41.588,52.249-46.267
			C282.935,142.403,306.219,170.559,306.208,203.333z"/>
		<g>
			<path style="fill:#FFFFFF;" d="M50.214,84.037c0.014-4.707,3.826-8.52,8.533-8.533h-25.6c-4.707,0.014-8.52,3.826-8.533,8.533
				v68.267c0,4.713,3.821,8.533,8.533,8.533h25.6c-4.713,0-8.533-3.82-8.533-8.533V84.037z"/>
			<path style="fill:#FFFFFF;" d="M128.691,394.926l8.502,8.502l-2.483,2.482c-1.834,1.835-2.119,4.71-0.679,6.869l4.558,6.839
				c2.61,4,2.895,9.086,0.748,13.352c-1.721,3.538-1.985,7.609-0.735,11.34c1.577,3.721,4.281,6.853,7.731,8.956
				c6.251,4.177,13.625,6.353,21.142,6.239h17.395c12.932,0,24.414,8.276,28.503,20.544c2.705,8.115,10.299,13.589,18.853,13.589
				h25.6c-8.554,0-16.149-5.474-18.853-13.589c-4.089-12.269-15.571-20.544-28.503-20.544h-17.395
				c-7.517,0.114-14.891-2.062-21.142-6.239c-3.451-2.103-6.155-5.236-7.731-8.956c-1.25-3.73-0.986-7.802,0.735-11.34
				c2.147-4.266,1.862-9.352-0.748-13.352l-4.558-6.839c-1.44-2.159-1.155-5.034,0.679-6.869l2.483-2.482l-8.502-8.502
				c-1.657-1.657-2.067-4.188-1.02-6.284l3.883-7.767l-13.586-10.189c-5.84-4.243-7.487-12.235-3.802-18.441
				c8.891-14.121,27.745-27.449,27.745-36.208c0-11.276-6.364-18.818-6.364-35.733c0.829-12.412,5.114-24.344,12.372-34.446
				c3.109-5.099,8.646-8.213,14.618-8.22h-25.6c-5.972,0.008-11.509,3.122-14.618,8.22c-7.257,10.103-11.543,22.035-12.372,34.446
				c0,16.914,6.364,24.457,6.364,35.733c0,8.759-18.854,22.087-27.745,36.208c-3.685,6.207-2.037,14.198,3.802,18.441l13.586,10.189
				l-3.883,7.767C126.624,390.738,127.035,393.269,128.691,394.926z"/>
			<polygon style="fill:#FFFFFF;" points="306.24,305.904 306.214,305.904 306.214,305.904 			"/>
		</g>
	</g>
	<g>
		<rect x="233.222" y="494.933" style="fill:#FFFFFF;" width="107.443" height="17.067"/>
		<g>
			<path style="fill:#428DFF;" d="M307.214,349.867c0.001-2.263-0.898-4.434-2.499-6.035c-1.6-1.6-3.771-2.499-6.035-2.499h-68.267
				c-4.713,0-8.533,3.821-8.533,8.533c0,4.713,3.821,8.533,8.533,8.533h68.267c2.263,0.001,4.434-0.898,6.035-2.499
				C306.316,354.301,307.215,352.13,307.214,349.867z"/>
			<path style="fill:#428DFF;" d="M256.014,93.867v17.067c0,4.713,3.82,8.533,8.533,8.533s8.533-3.821,8.533-8.533V93.867
				c0-4.713-3.82-8.533-8.533-8.533S256.014,89.154,256.014,93.867z"/>
			<path style="fill:#428DFF;" d="M342.989,122.825l-12.067,12.067c-2.155,2.156-2.997,5.297-2.208,8.242
				c0.789,2.944,3.089,5.244,6.033,6.033c2.944,0.789,6.086-0.053,8.242-2.208l12.067-12.067c2.162-2.154,3.008-5.299,2.22-8.247
				c-0.788-2.948-3.091-5.251-6.039-6.039C348.288,119.817,345.143,120.663,342.989,122.825z"/>
			<path style="fill:#428DFF;" d="M469.348,213.333V204.8c0-4.713-3.821-8.533-8.533-8.533c-4.713,0-8.533,3.821-8.533,8.533
				h-85.333c-4.713,0-8.533,3.82-8.533,8.533s3.821,8.533,8.533,8.533h93.867c2.263,0.001,4.434-0.898,6.035-2.499
				C468.449,217.768,469.348,215.597,469.348,213.333z"/>
			<path style="fill:#428DFF;" d="M192.139,149.458c3.451-0.001,6.562-2.08,7.882-5.268c1.32-3.188,0.591-6.858-1.849-9.298
				l-12.067-12.067c-3.334-3.322-8.728-3.318-12.056,0.01c-3.328,3.328-3.333,8.722-0.01,12.056l12.067,12.067
				C187.704,148.562,189.876,149.461,192.139,149.458z"/>
			<path style="fill:#428DFF;" d="M76.814,221.867h85.333c4.713,0,8.533-3.821,8.533-8.533s-3.821-8.533-8.533-8.533h-76.8
				c0-4.713-3.821-8.533-8.533-8.533s-8.533,3.821-8.533,8.533v8.533c-0.001,2.263,0.898,4.434,2.499,6.035
				C72.38,220.968,74.551,221.867,76.814,221.867z"/>
			<path style="fill:#428DFF;" d="M273.823,497.408c-0.703,0.832-1.249,1.785-1.612,2.813c-0.395,1.037-0.602,2.136-0.613,3.246
				c0.015,2.217,0.802,4.359,2.225,6.059c1.374,1.573,3.361,2.475,5.449,2.475s4.075-0.902,5.449-2.475l0.922-1.279
				c0.294-0.482,0.527-0.998,0.693-1.538c0.223-0.489,0.376-1.006,0.457-1.537c0.087-0.564,0.138-1.134,0.153-1.704
				c-0.013-2.217-0.8-4.36-2.225-6.059c-0.715-0.761-1.576-1.372-2.53-1.796C279.308,494.329,275.926,495.055,273.823,497.408z"/>
			<path style="fill:#428DFF;" d="M401.081,315.733c0.553-20.882-3.115-41.661-10.783-61.092
				c-4.01-9.532-13.35-15.725-23.691-15.708H336.88c10.493-29.334,2.141-62.102-21.115-82.833
				c-26.105-23.518-64.855-26.285-94.037-6.715s-41.331,56.47-29.482,89.548h-28.706c-8.946,0.027-17.239,4.69-21.908,12.321
				c-8.045,11.452-12.759,24.91-13.617,38.879c0.068,8.174,1.424,16.286,4.017,24.037c1.321,3.666,2.121,7.499,2.375,11.388
				c-2.979,4.945-6.649,9.439-10.9,13.346c-5.776,5.694-10.989,11.933-15.567,18.629c-6.017,9.973-3.458,22.888,5.908,29.813
				l7.892,5.912l-0.7,1.392c-2.702,5.382-1.647,11.889,2.617,16.142l3.133,3.129c-1.937,4.375-1.507,9.436,1.142,13.421l4.558,6.837
				c0.93,1.482,0.997,3.347,0.175,4.892c-2.714,5.547-3.127,11.942-1.15,17.792c2.125,5.485,5.969,10.134,10.958,13.25
				c7.673,5.176,16.745,7.882,26,7.753h17.4c9.263-0.003,17.486,5.927,20.408,14.717c3.858,11.602,14.715,19.426,26.942,19.417
				l0.003,0v0h15.349c4.364-0.463,7.675-4.145,7.675-8.533c0-4.389-3.311-8.07-7.675-8.533h-15.349v0.001l-0.003-0.001
				c-4.882,0.001-9.216-3.123-10.758-7.754c-5.236-15.761-19.983-26.393-36.592-26.379h-17.4c-5.781,0.12-11.462-1.525-16.283-4.717
				c-3.55-2.463-4.35-4.2-4.5-4.658c-0.533-1.613-0.416-3.371,0.325-4.9c3.438-6.995,2.935-15.285-1.325-21.812l-3.15-4.729
				l0.683-0.688c1.604-1.599,2.507-3.77,2.508-6.036c0.002-2.265-0.898-4.438-2.5-6.039l-6.933-6.925l2.892-5.775
				c1.842-3.691,0.783-8.171-2.517-10.646l-13.584-10.184c-2.275-1.586-3.005-4.623-1.7-7.071
				c3.984-5.724,8.496-11.063,13.475-15.946c8.367-8.779,15.583-16.358,15.583-24.808c-0.173-5.647-1.204-11.234-3.058-16.571
				c-2.112-6.172-3.228-12.64-3.308-19.163c0.896-10.835,4.747-21.217,11.133-30.017c1.563-2.55,4.335-4.108,7.325-4.117h37.242
				c0.325,0.486,0.696,0.923,1.03,1.4c0.797,1.128,1.595,2.249,2.458,3.339c1.191,1.522,2.447,2.964,3.733,4.37
				c0.379,0.414,0.698,0.867,1.088,1.274c8.285,8.697,12.871,20.271,12.791,32.283c0.015,14.132,11.468,25.585,25.6,25.6h34.133
				c1.759-0.002,3.512-0.185,5.233-0.546c0.085-0.018,0.162-0.059,0.247-0.077c1.591-0.344,3.146-0.841,4.642-1.483
				c0.445-0.192,0.841-0.475,1.274-0.691c1.081-0.513,2.125-1.1,3.124-1.759c0.613-0.421,1.146-0.945,1.721-1.421
				c0.738-0.576,1.443-1.192,2.114-1.845c0.125-0.129,0.28-0.22,0.403-0.352c0.431-0.465,0.74-1.016,1.133-1.508
				c0.587-0.701,1.137-1.433,1.646-2.193c0.398-0.627,0.715-1.285,1.056-1.943c0.471-0.868,0.891-1.762,1.257-2.68
				c0.252-0.662,0.43-1.339,0.628-2.019c0.291-0.958,0.525-1.932,0.7-2.918c0.127-0.766,0.175-1.532,0.233-2.309
				c0.046-0.624,0.188-1.22,0.188-1.855c-0.151-11.814,4.289-23.225,12.385-31.83c0.148-0.157,0.315-0.355,0.456-0.503
				c1.075-1.126,2.088-2.344,3.102-3.556c1.846-2.162,3.571-4.425,5.168-6.777h38.281c3.476-0.009,6.618,2.071,7.967,5.275
				c6.77,17.335,9.981,35.856,9.441,54.458c0,23.567-11.492,41.717-22.6,59.271c-10.608,16.746-21.567,34.058-21.567,55.167
				c0.684,13.937,3.304,27.71,7.783,40.925c1.075,3.704,2.116,7.308,3.017,10.754c1.057,3.201,0.568,6.711-1.325,9.5
				c-2.169,2.48-5.371,3.806-8.658,3.583H309.97c-4.364,0.463-7.675,4.145-7.675,8.533c0,4.389,3.311,8.07,7.675,8.533h30.698v0
				c8.647,0.404,16.946-3.443,22.226-10.302c5.28-6.86,6.874-15.867,4.27-24.122c-0.933-3.604-2.017-7.362-3.142-11.229
				c-4.001-11.68-6.393-23.85-7.108-36.175c0-16.158,8.767-30.004,18.917-46.037C387.664,365.438,401.081,344.25,401.081,315.733z
				 M247.481,307.2c-4.713-0.007-8.531-3.829-8.533-8.542c0.283-16.203-5.845-31.862-17.05-43.571
				c-3.489-3.582-6.518-7.585-9.017-11.917l-0.098-0.126c-10.05-17.411-10.65-38.713-1.598-56.662s26.539-30.13,46.513-32.4
				c2.299-0.257,4.611-0.386,6.925-0.388c14.682-0.046,28.853,5.381,39.75,15.221c21.09,18.803,26.052,49.844,11.874,74.284
				l-0.057,0.074c-1.193,2.046-2.498,4.024-3.908,5.926l-0.125,0.172c-1.279,1.702-2.652,3.332-4.111,4.882
				c-0.196,0.208-0.365,0.434-0.563,0.64c-1.414,1.462-2.754,2.995-4.014,4.593c-9.207,10.704-13.98,24.519-13.345,38.624
				c0,0.731-0.095,1.459-0.282,2.166c-0.057,0.525-0.161,1.043-0.313,1.549c-0.284,0.629-0.642,1.222-1.069,1.764
				c-0.215,0.377-0.457,0.736-0.726,1.077c-0.561,0.529-1.192,0.978-1.875,1.336c-0.286,0.222-0.586,0.424-0.899,0.607
				c-1.057,0.454-2.196,0.688-3.346,0.69H247.481z"/>
			<path style="fill:#428DFF;" d="M494.948,145.067c-0.046-15.521-10.569-29.053-25.6-32.922V17.067
				C469.337,7.645,461.702,0.011,452.281,0h-25.6c-4.713,0-8.533,3.821-8.533,8.533s3.82,8.533,8.533,8.533h25.6v17.067h-17.067
				c-4.713,0-8.533,3.821-8.533,8.533s3.821,8.533,8.533,8.533h17.067v60.945c-17.135,4.463-27.998,21.306-24.995,38.757
				c3.003,17.451,18.87,29.694,36.512,28.173C481.44,177.553,494.977,162.774,494.948,145.067z M460.814,162.133
				c-9.426,0-17.067-7.641-17.067-17.067S451.389,128,460.814,128c9.426,0,17.067,7.641,17.067,17.067
				C477.87,154.488,470.235,162.123,460.814,162.133z"/>
			<path style="fill:#428DFF;" d="M136.548,162.133V93.867c-0.02-6.069-3.272-11.668-8.533-14.692V51.2
				c0-28.277-22.923-51.2-51.2-51.2s-51.2,22.923-51.2,51.2v27.974c-5.262,3.025-8.513,8.623-8.533,14.692v68.267
				c0.011,9.421,7.645,17.056,17.067,17.067h85.333C128.902,179.189,136.537,171.555,136.548,162.133z M119.481,162.133H34.148
				v-25.6h85.333V162.133z M119.481,119.467H34.148v-25.6h85.333V119.467z M42.681,51.2c0-18.851,15.282-34.133,34.133-34.133
				s34.133,15.282,34.133,34.133v25.6H42.681V51.2z"/>
		</g>
	</g>
</g>
<g>
</g>
<g>
</g>
<g>
</g>
<g>
</g>
<g>
</g>
<g>
</g>
<g>
</g>
<g>
</g>
<g>
</g>
<g>
</g>
<g>
</g>
<g>
</g>
<g>
</g>
<g>
</g>
<g>
</g>
</svg>
