<?xml version="1.0" encoding="iso-8859-1"?>
<!-- Generator: Adobe Illustrator 19.0.0, SVG Export Plug-In . SVG Version: 6.00 Build 0)  -->
<svg version="1.1" id="Capa_1" xmlns="http://www.w3.org/2000/svg" xmlns:xlink="http://www.w3.org/1999/xlink" x="0px" y="0px"
	 viewBox="0 0 512.278 512.278" style="enable-background:new 0 0 512.278 512.278;" xml:space="preserve">
<g transform="translate(0 -1)">
	<g transform="translate(1 3)">
		<g>
			<path style="fill:#E3E7F2;" d="M306.339,126.278h-102.4c0-28.277,22.923-51.2,51.2-51.2S306.339,98.001,306.339,126.278z"/>
			<path style="fill:#E3E7F2;" d="M417.272,314.011h-102.4c0-28.277,22.923-51.2,51.2-51.2
				C394.349,262.811,417.272,285.734,417.272,314.011z"/>
			<path style="fill:#E3E7F2;" d="M93.006,314.011h102.4c0-28.277-22.923-51.2-51.2-51.2S93.006,285.734,93.006,314.011z"/>
			<path style="fill:#E3E7F2;" d="M306.339,501.745h-102.4c0-28.277,22.923-51.2,51.2-51.2S306.339,473.468,306.339,501.745z"/>
			<path style="fill:#E3E7F2;" d="M502.606,501.745h-102.4c0-28.277,22.923-51.2,51.2-51.2
				C479.683,450.545,502.606,473.468,502.606,501.745z"/>
			<path style="fill:#E3E7F2;" d="M110.072,501.745H7.672c0-28.277,22.923-51.2,51.2-51.2S110.072,473.468,110.072,501.745z"/>
			<circle style="fill:#E3E7F2;" cx="366.072" cy="237.211" r="34.133"/>
			<circle style="fill:#E3E7F2;" cx="144.206" cy="237.211" r="34.133"/>
			<circle style="fill:#E3E7F2;" cx="255.139" cy="424.945" r="34.133"/>
			<circle style="fill:#E3E7F2;" cx="451.406" cy="424.945" r="34.133"/>
		</g>
		<g>
			<path style="fill:#A4C2F7;" d="M502.606,501.745h-25.6c-0.005-21.317-13.233-40.394-33.195-47.872
				c10.915-6.749,17.103-19.066,16.003-31.851c-1.1-12.786-9.301-23.864-21.208-28.65c4.046-1.723,8.403-2.594,12.8-2.56
				c15.239-0.02,28.64,10.076,32.823,24.729c4.184,14.653-1.866,30.303-14.818,38.332
				C489.373,461.351,502.601,480.428,502.606,501.745z"/>
			<path style="fill:#A4C2F7;" d="M307.05,501.745h-25.6c-0.004-21.317-13.233-40.394-33.195-47.872
				c10.915-6.749,17.103-19.066,16.003-31.851c-1.1-12.786-9.301-23.864-21.208-28.65c4.046-1.723,8.403-2.594,12.8-2.56
				c15.239-0.02,28.64,10.076,32.823,24.729c4.184,14.653-1.866,30.303-14.818,38.332
				C293.817,461.351,307.046,480.428,307.05,501.745z"/>
		</g>
		<g>
			<circle style="fill:#E3E7F2;" cx="58.872" cy="424.945" r="34.133"/>
			<circle style="fill:#E3E7F2;" cx="255.139" cy="49.478" r="34.133"/>
		</g>
		<g>
			<path style="fill:#A4C2F7;" d="M110.072,501.745h-25.6c-0.005-21.317-13.233-40.394-33.195-47.872
				c10.915-6.749,17.103-19.066,16.003-31.851c-1.1-12.786-9.301-23.864-21.208-28.65c4.046-1.723,8.403-2.594,12.8-2.56
				c15.239-0.02,28.64,10.076,32.823,24.729s-1.866,30.303-14.818,38.332C96.839,461.351,110.068,480.428,110.072,501.745z"/>
			<path style="fill:#A4C2F7;" d="M417.272,314.011h-25.6c-0.005-21.317-13.233-40.394-33.195-47.872
				c10.915-6.749,17.103-19.066,16.003-31.851c-1.1-12.786-9.301-23.864-21.208-28.65c4.046-1.723,8.403-2.594,12.8-2.56
				c15.239-0.02,28.64,10.076,32.823,24.729c4.184,14.653-1.866,30.303-14.818,38.332
				C404.039,273.617,417.268,292.695,417.272,314.011z"/>
			<path style="fill:#A4C2F7;" d="M306.339,126.278h-25.6c-0.005-21.317-13.233-40.394-33.195-47.872
				c10.915-6.749,17.103-19.066,16.003-31.851s-9.301-23.864-21.208-28.65c4.046-1.723,8.403-2.594,12.8-2.56
				c15.239-0.02,28.64,10.076,32.823,24.729c4.184,14.653-1.866,30.303-14.818,38.332
				C293.106,85.884,306.334,104.961,306.339,126.278z"/>
			<path style="fill:#A4C2F7;" d="M195.406,314.011h-25.6c-0.005-21.317-13.233-40.394-33.195-47.872
				c10.915-6.749,17.103-19.066,16.003-31.851c-1.1-12.786-9.301-23.864-21.208-28.65c4.046-1.723,8.403-2.594,12.8-2.56
				c15.239-0.02,28.64,10.076,32.823,24.729c4.184,14.653-1.866,30.303-14.818,38.332
				C182.173,273.617,195.401,292.695,195.406,314.011z"/>
		</g>
	</g>
	<g>
		<polygon style="fill:#FFFFFF;" points="384.139,359.678 273.206,359.678 76.939,359.678 76.939,342.611 273.206,342.611 
			384.139,342.611 		"/>
		<g>
			<path style="fill:#428DFF;" d="M479.893,451.768c12.513-10.489,17.901-27.225,13.857-43.044
				c-4.043-15.819-16.801-27.918-32.812-31.117v-9.396c-0.015-14.132-11.468-25.585-25.6-25.6h-59.733v-17.067h42.667
				c2.263,0.001,4.434-0.898,6.035-2.499s2.499-3.771,2.499-6.035c-0.027-22.291-12.458-42.714-32.246-52.977
				c12.513-10.489,17.901-27.225,13.857-43.044c-4.043-15.819-16.801-27.918-32.812-31.117v-9.396
				c-0.015-14.132-11.468-25.585-25.6-25.6h-85.333v-17.067h42.667c2.263,0.001,4.434-0.898,6.035-2.499
				c1.6-1.6,2.499-3.771,2.499-6.035c-0.027-22.291-12.458-42.714-32.246-52.977c13.708-11.546,18.739-30.428,12.593-47.265
				C290.074,12.201,274.062,1,256.139,1s-33.935,11.201-40.081,28.037c-6.146,16.836-1.115,35.718,12.593,47.265
				c-19.788,10.262-32.219,30.686-32.246,52.977c-0.001,2.263,0.898,4.434,2.499,6.035s3.771,2.499,6.035,2.499h42.667v17.067
				h-85.333c-14.132,0.015-25.585,11.468-25.6,25.6v9.396c-16.011,3.199-28.769,15.298-32.812,31.117
				c-4.043,15.819,1.345,32.555,13.857,43.044c-19.788,10.262-32.219,30.686-32.246,52.977c-0.001,2.263,0.898,4.434,2.499,6.035
				s3.771,2.499,6.035,2.499h42.667v17.067H76.939c-14.132,0.015-25.585,11.468-25.6,25.6v9.396
				c-16.011,3.199-28.769,15.297-32.812,31.117s1.345,32.555,13.857,43.044c-19.788,10.262-32.219,30.686-32.246,52.977
				c-0.001,2.263,0.898,4.434,2.499,6.035c1.6,1.6,3.771,2.499,6.035,2.499h102.4c2.263,0.001,4.434-0.898,6.035-2.499
				c1.6-1.6,2.499-3.771,2.499-6.035c-0.027-22.291-12.458-42.714-32.246-52.977c12.513-10.489,17.901-27.225,13.857-43.044
				c-4.043-15.819-16.8-27.918-32.812-31.117v-9.396c0.005-4.711,3.822-8.529,8.533-8.533h170.667v17.929
				c-16.011,3.199-28.769,15.297-32.812,31.117c-4.043,15.819,1.345,32.555,13.857,43.044
				c-19.788,10.262-32.219,30.686-32.246,52.977c-0.001,2.263,0.898,4.434,2.499,6.035c1.6,1.6,3.771,2.499,6.035,2.499h102.4
				c2.263,0.001,4.434-0.898,6.035-2.499c1.6-1.6,2.499-3.771,2.499-6.035c-0.027-22.291-12.458-42.714-32.246-52.977
				c12.513-10.489,17.901-27.225,13.858-43.044c-4.043-15.819-16.801-27.918-32.812-31.117v-17.929h17.067
				c4.713,0,8.533-3.821,8.533-8.533c0-4.713-3.82-8.533-8.533-8.533h-128v-17.067h42.667c2.263,0.001,4.434-0.898,6.035-2.499
				c1.6-1.6,2.499-3.771,2.499-6.035c-0.027-22.291-12.458-42.714-32.246-52.977c12.513-10.489,17.901-27.225,13.857-43.044
				c-4.043-15.819-16.8-27.918-32.812-31.117v-9.396c0.005-4.711,3.822-8.529,8.533-8.533h187.733
				c4.711,0.005,8.529,3.822,8.533,8.533v9.396c-16.011,3.199-28.769,15.298-32.812,31.117
				c-4.043,15.819,1.345,32.555,13.857,43.044c-19.788,10.262-32.219,30.686-32.246,52.977c-0.001,2.263,0.898,4.434,2.499,6.035
				c1.6,1.6,3.771,2.499,6.035,2.499h42.667v17.067h-8.533c-4.713,0-8.533,3.821-8.533,8.533c0,4.713,3.82,8.533,8.533,8.533h85.333
				c4.711,0.005,8.529,3.822,8.533,8.533v9.396c-16.011,3.199-28.769,15.297-32.812,31.117
				c-4.043,15.819,1.345,32.555,13.857,43.044c-19.788,10.262-32.219,30.686-32.246,52.977c-0.001,2.263,0.898,4.434,2.499,6.035
				c1.6,1.6,3.771,2.499,6.035,2.499h102.4c2.263,0.001,4.434-0.898,6.035-2.499c1.6-1.6,2.499-3.771,2.499-6.035
				C512.112,482.454,499.681,462.031,479.893,451.768z M230.539,43.945c0-14.138,11.462-25.6,25.6-25.6s25.6,11.462,25.6,25.6
				s-11.462,25.6-25.6,25.6C242.007,69.529,230.554,58.077,230.539,43.945z M256.139,86.611
				c20.266,0.026,37.727,14.282,41.808,34.133h-83.617C218.412,100.894,235.873,86.638,256.139,86.611z M101.681,496.211H18.064
				c4.057-19.866,21.533-34.133,41.808-34.133S97.624,476.346,101.681,496.211z M85.472,419.411c0,14.138-11.462,25.6-25.6,25.6
				s-25.6-11.462-25.6-25.6c0-14.138,11.462-25.6,25.6-25.6C74.004,393.827,85.457,405.279,85.472,419.411z M297.947,496.211
				h-83.617c4.057-19.866,21.533-34.133,41.808-34.133S293.89,476.346,297.947,496.211z M281.739,419.411
				c0,14.138-11.462,25.6-25.6,25.6s-25.6-11.462-25.6-25.6c0-14.138,11.462-25.6,25.6-25.6
				C270.271,393.827,281.724,405.279,281.739,419.411z M187.014,308.478h-83.617c4.057-19.866,21.533-34.133,41.808-34.133
				C165.481,274.345,182.957,288.612,187.014,308.478z M170.806,231.678c0,14.139-11.462,25.6-25.6,25.6
				c-14.139,0-25.6-11.461-25.6-25.6c0-14.138,11.462-25.6,25.6-25.6C159.338,206.093,170.79,217.546,170.806,231.678z
				 M341.472,231.678c0-14.138,11.462-25.6,25.6-25.6c14.138,0,25.6,11.462,25.6,25.6c0,14.139-11.462,25.6-25.6,25.6
				C352.94,257.263,341.488,245.81,341.472,231.678z M367.072,274.345c20.266,0.026,37.727,14.282,41.808,34.133h-83.617
				C329.345,288.627,346.806,274.371,367.072,274.345z M426.806,419.411c0-14.138,11.462-25.6,25.6-25.6
				c14.138,0,25.6,11.462,25.6,25.6c0,14.138-11.462,25.6-25.6,25.6C438.274,444.996,426.821,433.543,426.806,419.411z
				 M410.597,496.211c4.057-19.866,21.533-34.133,41.808-34.133c20.276,0,37.751,14.268,41.808,34.133H410.597z"/>
			<path style="fill:#428DFF;" d="M319.118,343.29c-3.184-1.287-6.828-0.584-9.304,1.796c-0.771,0.815-1.379,1.77-1.792,2.813
				c-0.438,1.027-0.67,2.13-0.683,3.246c0.014,3.45,2.096,6.556,5.282,7.879c3.187,1.323,6.856,0.606,9.31-1.82l1.025-1.279
				c0.324-0.476,0.583-0.993,0.771-1.538c0.246-0.484,0.417-1.002,0.508-1.537c0.096-0.564,0.153-1.133,0.171-1.704
				c-0.031-2.259-0.915-4.423-2.475-6.059C321.117,344.313,320.162,343.703,319.118,343.29z"/>
		</g>
	</g>
</g>
<g>
</g>
<g>
</g>
<g>
</g>
<g>
</g>
<g>
</g>
<g>
</g>
<g>
</g>
<g>
</g>
<g>
</g>
<g>
</g>
<g>
</g>
<g>
</g>
<g>
</g>
<g>
</g>
<g>
</g>
</svg>
