<?xml version="1.0" encoding="iso-8859-1"?>
<!-- Generator: Adobe Illustrator 19.0.0, SVG Export Plug-In . SVG Version: 6.00 Build 0)  -->
<svg version="1.1" id="Capa_1" xmlns="http://www.w3.org/2000/svg" xmlns:xlink="http://www.w3.org/1999/xlink" x="0px" y="0px"
	 viewBox="0 0 512.185 512.185" style="enable-background:new 0 0 512.185 512.185;" xml:space="preserve">
<g>
	<g transform="translate(3 1)">
		<g>
			<path style="fill:#E3E7F2;" d="M48.287,400.067h375.467v102.4H31.221v-85.333C31.221,407.708,38.862,400.067,48.287,400.067z"/>
			<path style="fill:#E3E7F2;" d="M483.487,101.4v46.933c0,21.208-17.192,38.4-38.4,38.4c-21.208,0-38.4-17.192-38.4-38.4
				c0,21.208-17.192,38.4-38.4,38.4c-21.208,0-38.4-17.192-38.4-38.4c0,21.208-17.192,38.4-38.4,38.4s-38.4-17.192-38.4-38.4
				c0,21.208-17.192,38.4-38.4,38.4s-38.4-17.192-38.4-38.4c0,21.208-17.192,38.4-38.4,38.4s-38.4-17.192-38.4-38.4
				c0,21.208-17.192,38.4-38.4,38.4s-38.4-17.192-38.4-38.4V101.4l27.819-82.261c2.378-6.929,8.887-11.589,16.213-11.605h372.736
				c7.326,0.016,13.836,4.676,16.213,11.605L483.487,101.4z"/>
		</g>
		<g>
			<path style="fill:#A4C2F7;" d="M99.487,148.333c0.005,12.823-6.4,24.8-17.067,31.916v219.818h34.133V180.249
				C105.887,173.133,99.482,161.156,99.487,148.333z"/>
			<path style="fill:#A4C2F7;" d="M423.754,220.867v-40.618c-10.667-7.116-17.072-19.093-17.067-31.916
				c0.005,12.823-6.4,24.8-17.067,31.916v40.618C403.39,229.694,415.04,207.018,423.754,220.867z"/>
			<path style="fill:#A4C2F7;" d="M500.554,391.533c0.001,29.422-11.686,57.638-32.491,78.443
				c-20.804,20.804-49.021,32.492-78.443,32.491c-4.278,0.004-8.553-0.252-12.8-0.768c-55.935-6.484-98.133-53.856-98.133-110.165
				s42.198-103.682,98.133-110.165c4.247-0.516,8.522-0.772,12.8-0.768c29.422-0.001,57.638,11.686,78.443,32.491
				C488.867,333.895,500.555,362.112,500.554,391.533z"/>
		</g>
		<ellipse style="fill:#E3E7F2;" cx="376.821" cy="391.533" rx="98.133" ry="110.165"/>
		<path style="fill:#D4E1F4;" d="M466.421,391.533c-0.004,42.414-34.386,76.796-76.8,76.8c-4.287,0.005-8.568-0.337-12.8-1.024
			c-36.957-6.273-63.998-38.29-63.998-75.776s27.041-69.503,63.998-75.776c4.232-0.687,8.513-1.029,12.8-1.024
			C432.035,314.737,466.417,349.119,466.421,391.533z"/>
		<ellipse style="fill:#FFFFFF;" cx="376.821" cy="391.533" rx="64" ry="75.776"/>
		<path style="fill:#A4C2F7;" d="M483.487,101.4v46.933c0.014,10.188-4.028,19.964-11.232,27.168
			c-7.204,7.204-16.979,11.246-27.168,11.232c-4.363,0.014-8.696-0.737-12.8-2.219c15.358-5.391,25.627-19.905,25.6-36.181V101.4
			l-27.819-82.261c-2.378-6.929-8.887-11.589-16.213-11.605h25.6c7.326,0.016,13.836,4.676,16.213,11.605L483.487,101.4z"/>
		<g>
			<path style="fill:#FFFFFF;" d="M22.687,148.504c-0.062,12.504,5.997,24.247,16.224,31.442s23.327,8.93,35.075,4.647
				c-15.375-5.333-25.688-19.815-25.699-36.089v-46.933l27.819-82.261C78.484,12.38,84.993,7.72,92.319,7.704h-25.6
				C59.393,7.72,52.884,12.38,50.506,19.309l-27.819,82.261V148.504z"/>
			<path style="fill:#FFFFFF;" d="M56.821,417.304c0-9.426,7.641-17.067,17.067-17.067h-25.6c-9.426,0-17.067,7.641-17.067,17.067
				v85.333h25.6V417.304z"/>
			<path style="fill:#FFFFFF;" d="M142.154,186.476c2.874-0.306,5.704-0.937,8.435-1.883c-2.971-1.034-5.804-2.428-8.435-4.153
				V186.476z"/>
		</g>
	</g>
	<g>
		<polygon style="fill:#FFFFFF;" points="76.887,401.067 76.887,290.133 76.887,181.248 93.954,181.248 93.954,290.133 
			93.954,401.067 		"/>
		<g>
			<path style="fill:#428DFF;" d="M8.621,512h281.6c4.713,0,8.533-3.82,8.533-8.533c0-4.713-3.82-8.533-8.533-8.533H42.754v-76.8
				c0.005-4.711,3.822-8.529,8.533-8.533h196.267c4.713,0,8.533-3.821,8.533-8.533s-3.821-8.533-8.533-8.533H128.087V194.431
				c19.204,5.56,39.813-1.765,51.2-18.198c8.756,12.553,23.095,20.034,38.4,20.034s29.644-7.481,38.4-20.034
				c8.756,12.553,23.095,20.034,38.4,20.034s29.644-7.481,38.4-20.034c11.39,16.429,31.995,23.755,51.2,18.203v27.431
				c-0.001,2.263,0.898,4.434,2.499,6.035c1.6,1.6,3.771,2.499,6.035,2.499h34.133c2.263,0.001,4.434-0.898,6.035-2.499
				c1.6-1.6,2.499-3.771,2.499-6.035v-27.436c14.149,4.087,29.396,1.269,41.149-7.605c11.753-8.874,18.639-22.766,18.584-37.493
				V102.4c-0.052-0.463-0.145-0.921-0.276-1.368c-0.019-0.459-0.077-0.916-0.174-1.365l-27.833-82.321
				C463.163,6.983,453.416,0.021,442.454,0H69.721c-10.983,0.026-20.74,7.015-24.3,17.404L17.604,99.667
				c-0.097,0.45-0.156,0.908-0.174,1.369c-0.131,0.446-0.223,0.903-0.276,1.365v46.933c-0.051,14.725,6.836,28.615,18.588,37.488
				c11.752,8.873,26.996,11.694,41.145,7.614v104.231c0,4.713,3.821,8.533,8.533,8.533c4.713,0,8.533-3.82,8.533-8.533V185.37
				c0.357-0.306,0.721-0.517,1.075-0.841c0.3-0.234,0.533-0.557,0.82-0.806c0.702-0.648,1.373-1.308,2.031-1.994
				c0.275-0.304,0.6-0.527,0.866-0.85l0.208-0.246c1.178-1.222,2.252-2.541,3.21-3.941c0.097-0.134,0.228-0.244,0.323-0.38
				c1.994,2.771,4.282,5.317,6.825,7.595c0.223,0.189,0.402,0.441,0.633,0.622l0.148,0.116c0.322,0.281,0.596,0.604,0.927,0.876
				v207.013H93.954v-25.6c0-4.713-3.821-8.533-8.533-8.533c-4.713,0-8.533,3.82-8.533,8.533v25.6h-25.6
				c-14.132,0.015-25.585,11.468-25.6,25.6v76.8H8.621c-4.713,0-8.533,3.821-8.533,8.533C0.087,508.18,3.908,512,8.621,512z
				 M418.221,213.333h-17.067v-27.813c0.331-0.273,0.606-0.596,0.929-0.877l0.146-0.115c0.231-0.181,0.41-0.433,0.633-0.622
				c2.543-2.277,4.831-4.824,6.825-7.595c1.994,2.771,4.282,5.317,6.825,7.595c0.223,0.189,0.402,0.441,0.633,0.622l0.148,0.116
				c0.322,0.281,0.596,0.604,0.927,0.876V213.333z M34.221,149.333v-45.531l27.35-80.874c1.188-3.493,4.461-5.847,8.15-5.862
				h372.733c3.669,0.01,6.931,2.338,8.133,5.804l27.367,80.932v45.531c0.07,12.308-7.442,23.389-18.901,27.881
				c-11.459,4.492-24.5,1.469-32.814-7.606c-0.189-0.24-0.392-0.469-0.607-0.686c-1.464-1.657-2.74-3.47-3.805-5.408l-0.04-0.069
				c-0.044-0.077-0.073-0.159-0.116-0.236c-2.261-4.276-3.445-9.039-3.451-13.876V102.4c0-4.713-3.821-8.533-8.533-8.533
				c-4.713,0-8.533,3.821-8.533,8.533v46.933c-0.003,4.858-1.195,9.641-3.472,13.932l-0.132,0.246
				c-1.064,1.938-2.34,3.752-3.804,5.409c-0.217,0.218-0.421,0.449-0.611,0.691c-8.333,9.026-21.349,12.016-32.786,7.532
				s-18.951-15.525-18.928-27.809V102.4c0-4.713-3.82-8.533-8.533-8.533s-8.533,3.821-8.533,8.533v46.933
				c0,16.495-13.372,29.867-29.867,29.867c-16.495,0-29.867-13.372-29.867-29.867V102.4c0-4.713-3.821-8.533-8.533-8.533
				c-4.713,0-8.533,3.821-8.533,8.533v46.933c0,16.495-13.372,29.867-29.867,29.867s-29.867-13.372-29.867-29.867V102.4
				c0-4.713-3.821-8.533-8.533-8.533s-8.533,3.821-8.533,8.533v46.933c0.07,12.308-7.442,23.389-18.901,27.881
				c-11.459,4.492-24.5,1.469-32.814-7.606c-0.189-0.24-0.392-0.469-0.607-0.686c-1.464-1.657-2.74-3.47-3.805-5.408l-0.04-0.069
				c-0.044-0.077-0.073-0.159-0.116-0.236c-2.261-4.276-3.445-9.039-3.451-13.876V102.4c0-4.713-3.821-8.533-8.533-8.533
				c-4.713,0-8.533,3.821-8.533,8.533v46.933c-0.003,4.858-1.195,9.641-3.472,13.932l-0.132,0.246
				c-1.064,1.938-2.34,3.752-3.804,5.409c-0.217,0.218-0.421,0.449-0.612,0.691c-8.333,9.026-21.349,12.016-32.786,7.532
				S34.197,161.618,34.221,149.333z"/>
			<path style="fill:#428DFF;" d="M82.179,340.654c0.484,0.246,1.002,0.417,1.537,0.508c0.563,0.096,1.133,0.153,1.704,0.171
				c2.259-0.031,4.423-0.915,6.059-2.475c2.07-1.994,2.979-4.908,2.409-7.726s-2.539-5.149-5.222-6.183
				c-1.027-0.438-2.13-0.67-3.246-0.684c-3.45,0.014-6.556,2.096-7.879,5.282s-0.606,6.856,1.82,9.31l1.279,1.025
				C81.117,340.208,81.634,340.467,82.179,340.654z"/>
			<path style="fill:#428DFF;" d="M453.473,289.911l6.514-13.028c1.372-2.728,1.182-5.982-0.499-8.531
				c-1.681-2.55-4.596-4.007-7.644-3.822s-5.765,1.985-7.124,4.72l-6.46,12.919c-11.821-4.872-24.351-7.8-37.107-8.67v-8.966h17.067
				c4.713,0,8.533-3.821,8.533-8.533c0-4.713-3.82-8.533-8.533-8.533h-51.2c-4.713,0-8.533,3.821-8.533,8.533
				c0,4.713,3.82,8.533,8.533,8.533h17.067v8.966c-12.755,0.871-25.286,3.799-37.107,8.671l-6.46-12.919
				c-1.359-2.735-4.076-4.535-7.124-4.72c-3.048-0.185-5.963,1.272-7.644,3.822c-1.681,2.55-1.871,5.803-0.498,8.531l6.514,13.028
				c-46.324,27.42-68.588,82.433-54.374,134.353c14.214,51.92,61.396,87.921,115.226,87.921c53.83,0,101.012-36.001,115.226-87.921
				C522.062,372.345,499.797,317.331,453.473,289.911L453.473,289.911z M392.621,494.933c-56.554,0-102.4-45.846-102.4-102.4
				s45.846-102.4,102.4-102.4s102.4,45.846,102.4,102.4C494.957,449.061,449.148,494.87,392.621,494.933z"/>
			<path style="fill:#428DFF;" d="M392.621,307.2c-47.128,0-85.333,38.205-85.333,85.333s38.205,85.333,85.333,85.333
				s85.333-38.205,85.333-85.333C477.9,345.427,439.727,307.254,392.621,307.2z M392.621,460.8
				c-37.703,0-68.267-30.564-68.267-68.267s30.564-68.267,68.267-68.267s68.267,30.564,68.267,68.267
				C460.844,430.218,430.305,460.757,392.621,460.8z"/>
			<path style="fill:#428DFF;" d="M401.154,389v-39.133c0-4.713-3.82-8.533-8.533-8.533s-8.533,3.821-8.533,8.533v42.667
				c0.001,2.263,0.9,4.433,2.5,6.033l25.6,25.6c3.341,3.281,8.701,3.256,12.012-0.054s3.335-8.671,0.054-12.012L401.154,389z"/>
		</g>
	</g>
</g>
<g>
</g>
<g>
</g>
<g>
</g>
<g>
</g>
<g>
</g>
<g>
</g>
<g>
</g>
<g>
</g>
<g>
</g>
<g>
</g>
<g>
</g>
<g>
</g>
<g>
</g>
<g>
</g>
<g>
</g>
</svg>
