<?xml version="1.0" encoding="iso-8859-1"?>
<!-- Generator: Adobe Illustrator 19.0.0, SVG Export Plug-In . SVG Version: 6.00 Build 0)  -->
<svg version="1.1" id="Capa_1" xmlns="http://www.w3.org/2000/svg" xmlns:xlink="http://www.w3.org/1999/xlink" x="0px" y="0px"
	 viewBox="0 0 512 512" style="enable-background:new 0 0 512 512;" xml:space="preserve">
<g>
	<g transform="translate(3 1)">
		<path style="fill:#A4C2F7;" d="M425.439,400.067v102.4H32.906v-85.333c0.028-9.414,7.652-17.039,17.067-17.067H425.439z"/>
		<g>
			<path style="fill:#E3E7F2;" d="M399.839,400.067v102.4H32.906v-85.333c0.028-9.414,7.652-17.039,17.067-17.067H399.839z"/>
			<path style="fill:#E3E7F2;" d="M485.173,101.4v46.933c0,21.208-17.192,38.4-38.4,38.4c-21.208,0-38.4-17.192-38.4-38.4
				c0,21.208-17.192,38.4-38.4,38.4c-21.208,0-38.4-17.192-38.4-38.4c0,21.208-17.192,38.4-38.4,38.4s-38.4-17.192-38.4-38.4
				c0,21.208-17.192,38.4-38.4,38.4s-38.4-17.192-38.4-38.4c0,21.208-17.192,38.4-38.4,38.4s-38.4-17.192-38.4-38.4
				c0,21.208-17.192,38.4-38.4,38.4s-38.4-17.192-38.4-38.4V101.4l27.819-82.261c2.378-6.929,8.887-11.589,16.213-11.605h372.736
				c7.326,0.016,13.836,4.676,16.213,11.605L485.173,101.4z"/>
		</g>
		<g>
			<path style="fill:#A4C2F7;" d="M101.173,148.333c0.005,12.823-6.4,24.8-17.067,31.916v219.818h34.133V180.249
				C107.572,173.133,101.168,161.156,101.173,148.333z"/>
			<path style="fill:#A4C2F7;" d="M442.506,331.8c0.001,29.422-11.686,57.638-32.491,78.443
				c-20.804,20.804-49.021,32.492-78.443,32.491c-4.278,0.004-8.553-0.252-12.8-0.768c-55.935-6.484-98.133-53.856-98.133-110.165
				s42.198-103.682,98.133-110.165c4.247-0.516,8.522-0.772,12.8-0.768c29.422-0.001,57.638,11.686,78.443,32.491
				C430.82,274.162,442.507,302.378,442.506,331.8z"/>
		</g>
		<ellipse style="fill:#E3E7F2;" cx="318.773" cy="331.8" rx="98.133" ry="110.165"/>
		<path style="fill:#D4E1F4;" d="M408.373,331.8c-0.004,42.414-34.386,76.796-76.8,76.8c-4.287,0.005-8.568-0.337-12.8-1.024
			c-36.957-6.273-63.998-38.29-63.998-75.776s27.041-69.503,63.998-75.776c4.232-0.687,8.513-1.029,12.8-1.024
			C373.987,255.003,408.369,289.386,408.373,331.8z"/>
		<ellipse style="fill:#FFFFFF;" cx="318.773" cy="331.8" rx="64" ry="75.776"/>
		<path style="fill:#E3E7F2;" d="M442.506,417.133l-25.6,25.6l50.327,50.327c6.67,7.135,17.857,7.526,25.009,0.873l1.464-1.464
			c6.653-7.151,6.263-18.338-0.873-25.009L442.506,417.133z"/>
		<path style="fill:#D4E1F4;" d="M425.136,391.23c-8.745,13.737-20.396,25.389-34.133,34.133l25.903,25.903l34.133-34.133
			L425.136,391.23z"/>
		<path style="fill:#A4C2F7;" d="M425.439,272.869v-92.62c-10.667-7.116-17.072-19.093-17.067-31.916
			c0.005,12.823-6.4,24.8-17.067,31.916v58.172C405.077,247.256,416.731,259.018,425.439,272.869z"/>
		<path id="SVGCleanerId_0" style="fill:#A4C2F7;" d="M485.173,101.4v46.933c0.044,19.539-14.63,35.977-34.048,38.144
			c-4.483-0.481-8.846-1.752-12.885-3.755c13.08-6.465,21.352-19.799,21.333-34.389V101.4l-27.819-82.261
			c-2.378-6.929-8.887-11.589-16.213-11.605h25.6c7.326,0.016,13.836,4.676,16.213,11.605L485.173,101.4z"/>
		<g>
			<path id="SVGCleanerId_0_1_" style="fill:#A4C2F7;" d="M485.173,101.4v46.933c0.044,19.539-14.63,35.977-34.048,38.144
				c-4.483-0.481-8.846-1.752-12.885-3.755c13.08-6.465,21.352-19.799,21.333-34.389V101.4l-27.819-82.261
				c-2.378-6.929-8.887-11.589-16.213-11.605h25.6c7.326,0.016,13.836,4.676,16.213,11.605L485.173,101.4z"/>
		</g>
		<g>
			<path style="fill:#FFFFFF;" d="M143.839,186.476c2.874-0.306,5.704-0.937,8.435-1.883c-2.971-1.034-5.804-2.428-8.435-4.153
				V186.476z"/>
			<path style="fill:#FFFFFF;" d="M62.773,186.904c4.401-0.021,8.765-0.803,12.899-2.311c-15.375-5.333-25.688-19.815-25.699-36.089
				v-46.933l27.819-82.261C80.169,12.38,86.679,7.72,94.005,7.704h-25.6C61.079,7.72,54.569,12.38,52.191,19.309l-27.819,82.261
				v46.933c-0.014,10.188,4.028,19.964,11.232,27.168C42.809,182.876,52.584,186.918,62.773,186.904z"/>
			<path style="fill:#FFFFFF;" d="M75.573,400.237h-25.6c-9.414,0.027-17.039,7.652-17.067,17.067v85.333h25.6v-85.333
				C58.534,407.89,66.159,400.265,75.573,400.237z"/>
		</g>
	</g>
	<g>
		<polygon style="fill:#FFFFFF;" points="78.573,401.067 78.573,290.133 78.573,181.248 95.639,181.248 95.639,290.133 
			95.639,401.067 		"/>
		<g>
			<path style="fill:#428DFF;" d="M10.306,512h418.133c4.713,0,8.533-3.82,8.533-8.533c0-4.713-3.82-8.533-8.533-8.533h-384v-76.8
				c0.005-4.711,3.822-8.529,8.533-8.533h145.067c4.713,0,8.533-3.821,8.533-8.533s-3.821-8.533-8.533-8.533h-68.267V194.447
				c19.207,5.529,39.801-1.797,51.2-18.215c8.756,12.553,23.095,20.034,38.4,20.034s29.644-7.481,38.4-20.034
				c8.756,12.553,23.095,20.034,38.4,20.034s29.644-7.481,38.4-20.034c11.399,16.417,31.993,23.744,51.2,18.215v30.578
				c-51.063-24.321-112.185-9.486-146.417,35.538s-32.187,107.886,4.899,150.589s99.043,53.534,148.418,25.946l21.201,21.203
				c1.6,1.601,3.77,2.5,6.033,2.5c1.374-0.035,2.719-0.408,3.916-1.084l41.251,41.251c4.798,4.801,11.307,7.499,18.094,7.5
				c6.787,0.002,13.297-2.693,18.098-7.492l1.475-1.471c9.983-10.003,9.983-26.201,0-36.204l-41.256-41.256
				c1.771-3.263,1.198-7.301-1.411-9.943l-21.201-21.205c20.883-37.215,20.158-82.781-1.898-119.312v-77.136
				c14.15,4.065,29.388,1.237,41.136-7.636c11.748-8.873,18.637-22.756,18.598-37.478V102.4c-0.052-0.463-0.145-0.921-0.276-1.368
				c-0.019-0.459-0.077-0.916-0.174-1.365l-27.833-82.321C464.848,6.983,455.102,0.021,444.139,0H71.406
				c-10.983,0.026-20.74,7.015-24.3,17.404L19.289,99.667c-0.097,0.45-0.156,0.908-0.174,1.369
				c-0.131,0.446-0.223,0.903-0.276,1.365v46.933c-0.039,14.722,6.85,28.605,18.598,37.478c11.748,8.873,26.986,11.701,41.136,7.636
				v104.22c0,4.713,3.821,8.533,8.533,8.533c4.713,0,8.533-3.82,8.533-8.533V185.507c0.877-0.725,1.704-1.509,2.526-2.295
				c0.201-0.192,0.419-0.365,0.616-0.56c1.781-1.784,3.417-3.707,4.892-5.751c0.151-0.207,0.352-0.378,0.5-0.588
				c0.244,0.346,0.547,0.649,0.8,0.989c0.771,1.034,1.578,2.036,2.429,3.003c0.437,0.495,0.873,0.987,1.332,1.465
				c1.136,1.19,2.333,2.321,3.586,3.387c0.137,0.115,0.248,0.252,0.386,0.365v207.012H95.639v-25.6c0-4.713-3.821-8.533-8.533-8.533
				c-4.713,0-8.533,3.82-8.533,8.533v25.6h-25.6c-14.132,0.015-25.585,11.468-25.6,25.6v76.8H10.306
				c-4.713,0-8.533,3.821-8.533,8.533C1.773,508.18,5.593,512,10.306,512z M232.173,332.8
				c0.09-56.421,45.87-102.103,102.291-102.073s102.152,45.761,102.182,102.182S390.994,435.11,334.573,435.2
				C278.045,435.137,232.236,389.328,232.173,332.8z M490.682,487.429l-1.483,1.475c-3.375,3.22-8.686,3.218-12.059-0.004
				l-40.9-40.9l13.534-13.533l40.9,40.9C493.996,478.7,494,484.092,490.682,487.429z M429.281,405.442l12.692,12.692L419.906,440.2
				l-12.683-12.692c0.235-0.181,0.436-0.406,0.67-0.59c7.774-6.07,14.773-13.073,20.838-20.852
				C428.902,405.848,429.112,405.661,429.281,405.442z M419.906,185.521v63.829c-2.565-2.622-5.248-5.119-8.052-7.491l-0.18-0.164
				c-2.457-2.082-5.026-4.025-7.646-5.906c-0.406-0.292-0.779-0.631-1.189-0.918v-49.35c0.138-0.113,0.25-0.25,0.387-0.365
				c1.253-1.066,2.45-2.197,3.586-3.387c0.459-0.478,0.895-0.969,1.332-1.465c0.852-0.966,1.658-1.968,2.429-3.003
				c0.253-0.34,0.556-0.643,0.8-0.989c0.244,0.346,0.547,0.649,0.8,0.989c0.771,1.034,1.578,2.036,2.429,3.003
				c0.437,0.495,0.873,0.987,1.332,1.465c1.136,1.19,2.333,2.321,3.586,3.387C419.656,185.271,419.768,185.407,419.906,185.521z
				 M35.906,149.333v-45.531l27.35-80.874c1.188-3.493,4.461-5.847,8.15-5.862h372.733c3.669,0.01,6.931,2.338,8.133,5.804
				l27.367,80.932v45.531c0.118,12.282-7.336,23.37-18.754,27.898c-11.418,4.528-24.445,1.562-32.777-7.463
				c-0.48-0.508-0.89-1.075-1.334-1.616c-0.977-1.183-1.861-2.44-2.644-3.759c-0.389-0.659-0.758-1.328-1.096-2.017
				c-0.68-1.413-1.247-2.878-1.695-4.38c-0.196-0.64-0.443-1.256-0.596-1.914c-0.536-2.211-0.817-4.475-0.837-6.75V102.4
				c0-4.713-3.821-8.533-8.533-8.533c-4.713,0-8.533,3.821-8.533,8.533v46.933c-0.02,2.274-0.301,4.538-0.837,6.747
				c-0.154,0.66-0.401,1.279-0.598,1.921c-0.448,1.501-1.014,2.963-1.693,4.374c-0.338,0.69-0.708,1.359-1.096,2.018
				c-0.783,1.318-1.666,2.573-2.642,3.755c-0.445,0.542-0.857,1.11-1.338,1.62c-1.511,1.633-3.199,3.093-5.033,4.353
				c-9.155,6.155-20.958,6.758-30.692,1.568s-15.812-15.326-15.804-26.357V102.4c0-4.713-3.82-8.533-8.533-8.533
				s-8.533,3.821-8.533,8.533v46.933c0,16.495-13.372,29.867-29.867,29.867c-16.495,0-29.867-13.372-29.867-29.867V102.4
				c0-4.713-3.821-8.533-8.533-8.533c-4.713,0-8.533,3.821-8.533,8.533v46.933c0,16.495-13.372,29.867-29.867,29.867
				s-29.867-13.372-29.867-29.867V102.4c0-4.713-3.821-8.533-8.533-8.533s-8.533,3.821-8.533,8.533v46.933
				c0.118,12.282-7.336,23.37-18.754,27.898c-11.418,4.528-24.445,1.562-32.777-7.463c-0.48-0.508-0.89-1.075-1.334-1.616
				c-0.977-1.183-1.861-2.44-2.644-3.759c-0.389-0.659-0.758-1.328-1.096-2.017c-0.68-1.413-1.247-2.878-1.695-4.38
				c-0.196-0.64-0.443-1.256-0.596-1.914c-0.536-2.211-0.817-4.475-0.837-6.75V102.4c0-4.713-3.821-8.533-8.533-8.533
				c-4.713,0-8.533,3.821-8.533,8.533v46.933c-0.02,2.274-0.301,4.538-0.837,6.747c-0.154,0.66-0.401,1.279-0.598,1.921
				c-0.448,1.501-1.014,2.963-1.693,4.374c-0.338,0.69-0.708,1.359-1.096,2.018c-0.783,1.318-1.666,2.573-2.642,3.755
				c-0.445,0.542-0.857,1.11-1.338,1.62c-1.511,1.633-3.199,3.093-5.033,4.353c-9.155,6.155-20.958,6.758-30.692,1.568
				S35.898,160.365,35.906,149.333z"/>
			<path style="fill:#428DFF;" d="M83.864,340.654c0.484,0.246,1.002,0.417,1.537,0.508c0.563,0.096,1.133,0.153,1.704,0.171
				c2.259-0.031,4.423-0.915,6.059-2.475c2.07-1.994,2.979-4.908,2.409-7.726s-2.539-5.149-5.222-6.183
				c-1.027-0.438-2.13-0.67-3.246-0.684c-3.45,0.014-6.556,2.096-7.879,5.282s-0.606,6.856,1.82,9.31l1.279,1.025
				C82.803,340.208,83.32,340.467,83.864,340.654z"/>
			<path style="fill:#428DFF;" d="M419.906,332.8c0-47.128-38.205-85.333-85.333-85.333s-85.333,38.205-85.333,85.333
				s38.205,85.333,85.333,85.333C381.679,418.079,419.852,379.906,419.906,332.8z M266.306,332.8
				c0-37.703,30.564-68.267,68.267-68.267s68.267,30.564,68.267,68.267s-30.564,68.267-68.267,68.267
				C296.888,401.024,266.349,370.485,266.306,332.8z"/>
			<path style="fill:#428DFF;" d="M334.573,298.667c2.332-0.257,4.655,0.56,6.315,2.219s2.475,3.982,2.219,6.315
				c-0.188,6.063-2.62,11.84-6.825,16.212c-6.466,7.31-10.1,16.695-10.242,26.454c0,4.713,3.82,8.533,8.533,8.533
				s8.533-3.821,8.533-8.533c0.188-6.063,2.62-11.84,6.825-16.212c6.466-7.31,10.1-16.695,10.242-26.454
				c0-14.138-11.462-25.6-25.6-25.6s-25.6,11.462-25.6,25.6c0,4.713,3.821,8.533,8.533,8.533c4.713,0,8.533-3.82,8.533-8.533
				c-0.257-2.332,0.56-4.655,2.219-6.315S332.24,298.41,334.573,298.667z"/>
			<circle style="fill:#428DFF;" cx="334.573" cy="375.467" r="8.533"/>
		</g>
	</g>
</g>
<g>
</g>
<g>
</g>
<g>
</g>
<g>
</g>
<g>
</g>
<g>
</g>
<g>
</g>
<g>
</g>
<g>
</g>
<g>
</g>
<g>
</g>
<g>
</g>
<g>
</g>
<g>
</g>
<g>
</g>
</svg>
