<?xml version="1.0" encoding="iso-8859-1"?>
<!-- Generator: Adobe Illustrator 19.0.0, SVG Export Plug-In . SVG Version: 6.00 Build 0)  -->
<svg version="1.1" id="Capa_1" xmlns="http://www.w3.org/2000/svg" xmlns:xlink="http://www.w3.org/1999/xlink" x="0px" y="0px"
	 viewBox="0 0 512.002 512.002" style="enable-background:new 0 0 512.002 512.002;" xml:space="preserve">
<g>
	<g transform="translate(12 12)">
		<polygon style="fill:#F5F5F5;" points="278.133,354.935 261.067,389.068 209.867,389.068 192.8,354.935 		"/>
		<g>
			<path style="fill:#E3E7F2;" d="M255.52,389.068c0.862,2.342,1.296,4.819,1.28,7.314c0,12.142-21.333,43.886-21.333,43.886
				s-21.333-31.744-21.333-43.886c-0.016-2.495,0.418-4.973,1.28-7.314H255.52z"/>
			<circle style="fill:#E3E7F2;" cx="116" cy="201.335" r="25.6"/>
			<circle style="fill:#E3E7F2;" cx="363.467" cy="261.068" r="25.6"/>
			<polygon style="fill:#E3E7F2;" points="278.133,354.935 319.861,396.748 319.947,396.748 320.8,396.492 320.8,303.735 
				278.133,252.535 192.8,252.535 150.133,303.735 150.133,396.492 150.987,396.748 151.072,396.748 192.8,354.935 			"/>
		</g>
		<path style="fill:#A4C2F7;" d="M278.133,167.202H192.8c0-1.195,0-2.389,0.085-3.584c1.877-27.051,23.381-53.333,35.072-65.792
			c4.523-4.693,7.509-7.424,7.509-7.424S278.133,128.631,278.133,167.202z"/>
		<path style="fill:#E3E7F2;" d="M252.533,167.202H192.8c0-1.195,0-2.389,0.085-3.584c1.877-27.051,23.381-53.333,35.072-65.792
			C236.491,110.796,252.533,138.871,252.533,167.202z"/>
		<rect x="192.8" y="167.202" style="fill:#D4E1F4;" width="85.333" height="187.733"/>
		<rect x="192.8" y="167.202" style="fill:#F5F5F5;" width="59.733" height="187.733"/>
		<rect x="252.533" y="312.268" style="fill:#A4C2F7;" width="25.6" height="42.667"/>
		<rect x="192.8" y="312.268" style="fill:#E3E7F2;" width="59.733" height="42.667"/>
	</g>
	<path style="fill:#FFFFFF;" d="M163.072,408.919l24.661-24.712v-68.302l42.667-51.2v-85.333c0-1.195,0-2.389,0.085-3.584
		c1.62-23.348,17.843-46.077,29.776-59.885c-4.014-4.678-8.285-9.128-12.794-13.331c0,0-2.987,2.731-7.509,7.424
		c-11.691,12.459-33.195,38.741-35.072,65.792c-0.085,1.195-0.085,2.389-0.085,3.584v85.333l-42.667,51.2v92.757l0.853,0.256
		H163.072z"/>
	<g>
		<polygon style="fill:#FFFFFF;" points="126.165,240.223 83.925,342.803 16.427,506.719 0.64,500.217 68.139,336.3 
			110.379,233.721 		"/>
		<g>
			<path style="fill:#428DFF;" d="M507.183,0.852c-4.244-2.048-9.344-0.273-11.4,3.967L382.201,239.616
				c-15.244-3.104-30.642,4.575-37.333,18.619l-10.401-2.071c-4.623-0.92-9.117,2.081-10.038,6.704
				c-0.92,4.623,2.081,9.117,6.704,10.038l10.393,2.069c0.787,15.541,12.007,28.573,27.259,31.66
				c15.252,3.087,30.657-4.556,37.425-18.568c6.768-14.012,3.179-30.83-8.72-40.858L511.15,12.252
				C513.2,8.008,511.425,2.906,507.183,0.852z M375.467,290.135c-5.114,0.011-9.962-2.276-13.205-6.23
				c-3.243-3.954-4.537-9.157-3.525-14.169l0.013-0.033v-0.077c1.811-8.793,10.125-14.68,19.02-13.468
				c8.895,1.212,15.331,9.108,14.724,18.065S384.444,290.135,375.467,290.135z"/>
			<path style="fill:#428DFF;" d="M88.983,292.188c-2.674,1.056-4.623,3.404-5.169,6.227c-0.546,2.822,0.387,5.728,2.474,7.705
				c0.783,0.796,1.714,1.431,2.741,1.868c3.196,1.301,6.86,0.558,9.296-1.885s3.17-6.109,1.861-9.301l-0.792-1.435
				c-0.317-0.481-0.696-0.917-1.128-1.298c-0.354-0.411-0.768-0.767-1.228-1.056c-0.484-0.303-0.989-0.573-1.511-0.807
				C93.426,291.375,91.089,291.369,88.983,292.188z"/>
			<path style="fill:#428DFF;" d="M509.494,497.429l-34.128-34.127c-3.341-3.281-8.701-3.256-12.012,0.054
				c-3.311,3.311-3.335,8.671-0.054,12.012l19.566,19.567H435.2v-8.533c0-4.713-3.82-8.533-8.533-8.533s-8.533,3.821-8.533,8.533
				v8.533h-17.067v-8.533c0-4.713-3.82-8.533-8.533-8.533S384,481.689,384,486.402v8.533h-17.067v-8.533
				c0-4.713-3.82-8.533-8.533-8.533s-8.533,3.821-8.533,8.533v8.533H332.8v-8.533c0-4.713-3.82-8.533-8.533-8.533
				s-8.533,3.821-8.533,8.533v8.533h-17.067v-8.533c0-4.713-3.821-8.533-8.533-8.533c-4.713,0-8.533,3.821-8.533,8.533v8.533
				h-17.067v-8.533c0-4.713-3.821-8.533-8.533-8.533c-4.713,0-8.533,3.821-8.533,8.533v8.533H230.4v-8.533
				c0-4.713-3.821-8.533-8.533-8.533c-4.713,0-8.533,3.821-8.533,8.533v8.533h-17.067v-8.533c0-4.713-3.821-8.533-8.533-8.533
				c-4.713,0-8.533,3.821-8.533,8.533v8.533h-17.067v-8.533c0-4.713-3.821-8.533-8.533-8.533s-8.533,3.821-8.533,8.533v8.533H128
				v-8.533c0-4.713-3.821-8.533-8.533-8.533c-4.713,0-8.533,3.821-8.533,8.533v8.533H93.867v-8.533c0-4.713-3.821-8.533-8.533-8.533
				s-8.533,3.821-8.533,8.533v8.533H59.733v-8.533c0-4.713-3.821-8.533-8.533-8.533s-8.533,3.821-8.533,8.533v8.533H21.276
				l65.897-160.027c1.795-4.358-0.284-9.345-4.641-11.14c-4.358-1.795-9.345,0.284-11.14,4.641L17.067,460.334v-93.399h17.067
				c4.713,0,8.533-3.821,8.533-8.533s-3.821-8.533-8.533-8.533H17.067v-17.067h17.067c4.713,0,8.533-3.82,8.533-8.533
				s-3.821-8.533-8.533-8.533H17.067v-17.067h17.067c4.713,0,8.533-3.82,8.533-8.533s-3.821-8.533-8.533-8.533H17.067v-17.067
				h17.067c4.713,0,8.533-3.82,8.533-8.533s-3.821-8.533-8.533-8.533H17.067v-17.067h17.067c4.713,0,8.533-3.821,8.533-8.533
				c0-4.713-3.821-8.533-8.533-8.533H17.067v-17.067h17.067c4.713,0,8.533-3.821,8.533-8.533c0-4.713-3.821-8.533-8.533-8.533
				H17.067v-17.067h17.067c4.713,0,8.533-3.821,8.533-8.533s-3.821-8.533-8.533-8.533H17.067v-17.067h17.067
				c4.713,0,8.533-3.821,8.533-8.533c0-4.713-3.821-8.533-8.533-8.533H17.067V93.868h17.067c4.713,0,8.533-3.821,8.533-8.533
				s-3.821-8.533-8.533-8.533H17.067V29.135l19.567,19.566c3.341,3.281,8.701,3.256,12.012-0.054s3.335-8.671,0.054-12.012
				L14.569,2.504c-2.444-2.43-6.108-3.153-9.292-1.835S0.012,5.089,0,8.535v494.933c0,4.713,3.821,8.533,8.533,8.533h494.933
				c3.448-0.01,6.551-2.092,7.869-5.278C512.654,503.538,511.927,499.872,509.494,497.429z"/>
			<path style="fill:#428DFF;" d="M253.163,96.047c-3.24-2.909-8.152-2.909-11.392,0c-1.858,1.667-45.504,41.267-45.504,83.154
				v82.246l-40.688,48.825c-1.279,1.533-1.979,3.466-1.979,5.463v93.867c0,3.451,2.079,6.563,5.267,7.883s6.859,0.59,9.299-1.85
				l34.295-34.295l11.771,23.546c0.752,1.486,1.925,2.718,3.373,3.543c0.036,13.693,17.437,40.653,22.777,48.599
				c1.585,2.359,4.241,3.775,7.083,3.775c2.842,0,5.498-1.415,7.083-3.775c5.34-7.946,22.741-34.906,22.777-48.599
				c1.448-0.824,2.621-2.056,3.373-3.543l11.772-23.544l34.295,34.294c2.44,2.441,6.11,3.171,9.299,1.85
				c3.189-1.321,5.268-4.432,5.268-7.883v-93.867c0-1.996-0.7-3.93-1.979-5.463l-40.688-48.825v-82.246
				C298.667,137.314,255.021,97.714,253.163,96.047z M267.792,392.535h-40.65l-8.533-17.067h57.717L267.792,392.535z M281.6,358.402
				h-68.267v-25.6H281.6V358.402z M281.6,315.735h-68.267v-128H281.6V315.735z M247.467,114.372
				c9.819,10.209,29.22,32.912,33.319,56.296h-66.637C218.247,147.284,237.647,124.582,247.467,114.372z M170.667,318.823
				l25.6-30.72v75.299l-25.6,25.6V318.823z M247.467,436.293c-5.412-8.278-9.664-17.259-12.635-26.692h25.269
				C257.127,419.034,252.876,428.014,247.467,436.293L247.467,436.293z M324.267,318.823v70.179l-25.6-25.6v-75.299L324.267,318.823
				z"/>
			<path style="fill:#428DFF;" d="M238.933,221.868H256c4.713,0,8.533-3.821,8.533-8.533s-3.821-8.533-8.533-8.533h-17.067
				c-4.713,0-8.533,3.821-8.533,8.533S234.221,221.868,238.933,221.868z"/>
			<path style="fill:#428DFF;" d="M238.933,256.002H256c4.713,0,8.533-3.821,8.533-8.533s-3.821-8.533-8.533-8.533h-17.067
				c-4.713,0-8.533,3.82-8.533,8.533S234.221,256.002,238.933,256.002z"/>
			<path style="fill:#428DFF;" d="M128,179.202c-14.689-0.049-27.751,9.336-32.391,23.273c-4.641,13.937,0.188,29.278,11.974,38.045
				l-10.198,24.766c-1.18,2.823-0.758,6.061,1.105,8.487s4.883,3.67,7.914,3.259c3.032-0.411,5.611-2.413,6.761-5.248L123.371,247
				c1.53,0.263,3.077,0.419,4.629,0.468c11.553-0.016,22.311-5.883,28.581-15.586l19.928,6.62c4.47,1.474,9.289-0.948,10.773-5.415
				c1.484-4.466-0.927-9.291-5.39-10.785l-19.994-6.642c0.055-0.783,0.235-1.529,0.235-2.325
				C162.112,194.492,146.842,179.223,128,179.202z M128,230.402c-9.426,0-17.067-7.641-17.067-17.067s7.641-17.067,17.067-17.067
				c9.426,0,17.067,7.641,17.067,17.067C145.057,222.757,137.422,230.392,128,230.402z"/>
		</g>
	</g>
</g>
<g>
</g>
<g>
</g>
<g>
</g>
<g>
</g>
<g>
</g>
<g>
</g>
<g>
</g>
<g>
</g>
<g>
</g>
<g>
</g>
<g>
</g>
<g>
</g>
<g>
</g>
<g>
</g>
<g>
</g>
</svg>
