<?xml version="1.0" encoding="iso-8859-1"?>
<!-- Generator: Adobe Illustrator 19.0.0, SVG Export Plug-In . SVG Version: 6.00 Build 0)  -->
<svg version="1.1" id="Capa_1" xmlns="http://www.w3.org/2000/svg" xmlns:xlink="http://www.w3.org/1999/xlink" x="0px" y="0px"
	 viewBox="0 0 512.001 512.001" style="enable-background:new 0 0 512.001 512.001;" xml:space="preserve">
<g>
	<g transform="translate(0 1)">
		<rect x="8.534" y="67.267" style="fill:#D4E1F4;" width="494.933" height="392.533"/>
		<rect x="8.534" y="67.267" style="fill:#F5F5F5;" width="469.333" height="392.533"/>
		<path style="fill:#A4C2F7;" d="M503.467,451.267V485.4c-0.028,9.414-7.653,17.039-17.067,17.067h-460.8
			c-9.414-0.028-17.039-7.653-17.067-17.067v-34.133H503.467z"/>
		<path style="fill:#E3E7F2;" d="M477.872,451.267l-0.004,34.133c0.21,9.169-7.017,16.79-16.184,17.067H24.718
			c-9.167-0.277-16.394-7.898-16.184-17.067L8.53,451.267H477.872z"/>
		<path style="fill:#A4C2F7;" d="M503.467,24.6v51.2H8.534V24.6c0.028-9.414,7.652-17.039,17.067-17.067h460.8
			C495.815,7.561,503.44,15.186,503.467,24.6z"/>
		<g>
			<path style="fill:#E3E7F2;" d="M477.867,24.6v51.2H8.534V24.6c0.028-9.414,7.652-17.039,17.067-17.067h435.2
				C470.215,7.561,477.84,15.186,477.867,24.6z"/>
			<path style="fill:#E3E7F2;" d="M409.601,352.536v-12.203c0.464-8.888-6.307-16.497-15.189-17.067H288.257
				c-8.882,0.57-15.653,8.178-15.189,17.067V357.4c-0.464,8.888,6.307,16.497,15.189,17.067h106.155
				c4.592-0.044,8.881-2.3,11.52-6.059"/>
		</g>
		<polygon style="fill:#A4C2F7;" points="460.801,374.467 401.067,348.867 418.134,417.134 		"/>
		<polygon style="fill:#F5F5F5;" points="239.685,254.855 233.652,321.236 167.271,387.608 167.271,327.269 131.073,339.335 
			94.866,303.128 106.932,266.93 46.593,266.93 112.965,200.549 179.346,194.516 		"/>
		<g>
			<path style="fill:#E3E7F2;" d="M127.149,335.412c-1.046,2.265-2.491,4.324-4.267,6.077c-8.586,8.586-46.117,15.947-46.117,15.947
				s7.361-37.531,15.947-46.117c1.753-1.775,3.812-3.221,6.077-4.267"/>
			<polygon style="fill:#E3E7F2;" points="167.271,327.261 167.211,386.328 167.271,386.388 168.056,386.815 233.652,321.228 
				239.685,254.847 179.346,194.508 112.965,200.549 47.378,266.136 47.804,266.921 47.864,266.981 106.932,266.921 			"/>
		</g>
		<path style="fill:#A4C2F7;" d="M300.022,194.511l-60.34-60.34c0.845-0.845,1.69-1.69,2.595-2.474
			c20.455-17.801,54.245-21.18,71.322-21.722c6.517-0.12,10.559,0.06,10.559,0.06S327.295,167.237,300.022,194.511z"/>
		<path style="fill:#E3E7F2;" d="M281.92,176.409l-42.238-42.238c0.845-0.845,1.69-1.69,2.595-2.474
			c20.455-17.801,54.245-21.18,71.322-21.722C310.46,125.181,301.953,156.376,281.92,176.409z"/>
		
			<rect x="109.585" y="188.021" transform="matrix(-0.7071 0.7071 -0.7071 -0.7071 510.4355 249.9465)" style="fill:#D4E1F4;" width="187.734" height="85.334"/>
		
			<rect x="100.56" y="191.8" transform="matrix(-0.7071 0.7071 -0.7071 -0.7071 488.6493 240.9283)" style="fill:#F5F5F5;" width="187.734" height="59.734"/>
		
			<rect x="151.979" y="290.333" transform="matrix(-0.7071 0.7071 -0.7071 -0.7071 510.2108 394.9306)" style="fill:#A4C2F7;" width="42.667" height="25.6"/>
		
			<rect x="121.814" y="243.087" transform="matrix(-0.7071 0.7071 -0.7071 -0.7071 437.3753 364.7403)" style="fill:#E3E7F2;" width="42.667" height="59.734"/>
		<path style="fill:#FFFFFF;" d="M25.601,502.638h24.717c-9.167-0.277-16.394-7.898-16.184-17.067v-460.8
			c0.028-9.414,7.652-17.039,17.067-17.067h-25.6C16.186,7.732,8.562,15.357,8.534,24.771v460.8
			c-0.21,9.169,7.017,16.79,16.184,17.067H25.601z"/>
	</g>
	<g>
		<polygon style="fill:#FFFFFF;" points="0.001,452.267 0.001,341.334 0.001,25.6 17.067,25.6 17.067,341.334 17.067,452.267 		"/>
		<g>
			<path style="fill:#428DFF;" d="M5.292,391.855c0.484,0.246,1.002,0.417,1.537,0.508c0.563,0.096,1.133,0.153,1.704,0.171
				c2.259-0.031,4.423-0.915,6.059-2.475c3.221-3.397,3.221-8.72,0-12.117c-0.815-0.771-1.77-1.379-2.813-1.792
				c-1.027-0.438-2.13-0.67-3.246-0.683c-2.259,0.034-4.422,0.918-6.059,2.475c-3.3,3.365-3.3,8.752,0,12.117l1.279,1.025
				C4.231,391.408,4.748,391.667,5.292,391.855z"/>
			<path style="fill:#428DFF;" d="M486.401,0h-460.8C11.469,0.016,0.016,11.468,0.001,25.6v324.267c0,4.713,3.821,8.533,8.533,8.533
				s8.533-3.821,8.533-8.533V85.334h477.867v358.4H17.067v-25.6c0-4.713-3.821-8.533-8.533-8.533s-8.533,3.82-8.533,8.533V486.4
				c0.015,14.132,11.468,25.585,25.6,25.6h460.8c14.132-0.015,25.585-11.468,25.6-25.6V25.6C511.985,11.468,500.533,0.016,486.401,0
				z M17.067,68.267V25.6c0.006-4.71,3.823-8.527,8.533-8.533h460.8c4.71,0.006,8.527,3.823,8.533,8.533v42.667H17.067z
				 M486.401,494.934h-460.8c-4.71-0.006-8.527-3.823-8.533-8.533v-25.6h477.867v25.6
				C494.928,491.111,491.111,494.928,486.401,494.934z"/>
			<path style="fill:#428DFF;" d="M394.413,315.734H288.255c-13.604,0.553-24.204,11.994-23.721,25.6V358.4
				c-0.483,13.606,10.117,25.047,23.721,25.6h106.158c2.086-0.026,4.157-0.346,6.153-0.951l9.289,37.155
				c0.746,2.982,3.039,5.332,6.001,6.152c2.963,0.82,6.137-0.016,8.311-2.19l15.3-15.3l15.3,15.3
				c3.341,3.281,8.701,3.256,12.012-0.054c3.311-3.311,3.335-8.671,0.054-12.012l-15.3-15.3l15.3-15.3
				c2.002-2.002,2.881-4.866,2.346-7.646c-0.535-2.78-2.415-5.114-5.017-6.229l-46.029-19.726v-6.565
				C418.617,327.727,408.017,316.287,394.413,315.734z M394.413,366.934H288.255c-4.13-0.63-7.049-4.375-6.654-8.533v-17.067
				c-0.395-4.159,2.524-7.903,6.654-8.533h106.158c4.13,0.63,7.049,4.375,6.654,8.533v0.079c-2.019-0.03-3.983,0.665-5.533,1.959
				c-2.468,2.102-3.532,5.421-2.746,8.567l3.618,14.472C395.784,366.717,395.106,366.895,394.413,366.934z M422.759,401.442
				l-9.242-36.954l32.338,13.858L422.759,401.442z"/>
			<path style="fill:#428DFF;" d="M460.801,281.6h-179.2c-4.713,0-8.533,3.821-8.533,8.533s3.821,8.533,8.533,8.533h179.2
				c4.713,0,8.533-3.82,8.533-8.533S465.514,281.6,460.801,281.6z"/>
			<path style="fill:#428DFF;" d="M298.667,256c0,4.713,3.82,8.533,8.533,8.533h153.6c4.713,0,8.533-3.821,8.533-8.533
				c0-4.713-3.821-8.533-8.533-8.533h-153.6C302.488,247.467,298.667,251.288,298.667,256z"/>
			<path style="fill:#428DFF;" d="M460.801,230.4c4.713,0,8.533-3.82,8.533-8.533s-3.821-8.533-8.533-8.533H349.867
				c-4.713,0-8.533,3.821-8.533,8.533s3.821,8.533,8.533,8.533H460.801z"/>
			<path style="fill:#428DFF;" d="M324.626,102.521c-2.512-0.158-61.354-3.004-90.975,26.625l-58.152,58.15l-63.307,5.758
				c-1.987,0.183-3.848,1.055-5.258,2.467l-66.371,66.371c-2.441,2.44-3.171,6.11-1.85,9.299c1.321,3.189,4.432,5.268,7.883,5.268
				h48.5l-8.325,24.971c-0.518,1.583-0.56,3.282-0.121,4.889c-9.66,9.711-16.418,41.084-18.262,50.478
				c-0.49,2.503,0.166,5.094,1.787,7.064s4.038,3.111,6.588,3.111c0.551-0.001,1.101-0.054,1.642-0.158
				c9.404-1.846,40.837-8.617,50.512-18.292l0.057-0.068c1.55,0.566,3.253,0.558,4.797-0.024l24.971-8.322v48.497
				c0,3.451,2.079,6.563,5.267,7.883c3.189,1.321,6.859,0.59,9.299-1.85l66.371-66.371c1.411-1.411,2.284-3.271,2.467-5.258
				l5.758-63.307l58.15-58.152c29.621-29.616,26.764-88.483,26.626-90.975C332.442,106.229,328.972,102.759,324.626,102.521z
				 M67.196,259.392l49.621-49.621l39.826-3.62l-25.569,25.568l-0.003,0.002l-0.002,0.003l-27.669,27.668H67.196z M133.376,330.571
				l-28.746-28.746l6.034-18.103l40.815,40.815L133.376,330.571z M167.276,316.2l-48.275-48.275l18.105-18.104l48.274,48.274
				L167.276,316.2z M98.001,319.33l17.871,17.871c-8.774,4.567-18.131,7.912-27.812,9.941
				C90.086,337.46,93.431,328.102,98.001,319.33z M225.43,318.384l-49.621,49.621V331.8l27.668-27.669l0.003-0.002l0.002-0.003
				l25.568-25.569L225.43,318.384z M197.446,286.029l-48.274-48.274l90.512-90.509l48.271,48.271L197.446,286.029z M299.401,182.83
				l-47.028-47.028c19.438-13.641,49.173-16.022,63.332-16.293C315.445,133.657,313.085,163.362,299.401,182.83z"/>
			<path style="fill:#428DFF;" d="M233.651,177.417c-1.601,1.6-2.5,3.77-2.5,6.033c0,2.263,0.899,4.434,2.5,6.033l12.067,12.067
				c3.332,3.332,8.734,3.332,12.067,0c3.332-3.332,3.332-8.734,0-12.067l-12.067-12.067c-1.6-1.601-3.77-2.5-6.033-2.5
				C237.421,174.917,235.251,175.816,233.651,177.417z"/>
			<path style="fill:#428DFF;" d="M221.58,201.555c-3.332-3.332-8.735-3.332-12.067,0c-3.332,3.332-3.332,8.735,0,12.067
				l12.067,12.067c3.332,3.332,8.735,3.332,12.067,0c3.332-3.332,3.332-8.735,0-12.067L221.58,201.555z"/>
			<circle style="fill:#428DFF;" cx="51.201" cy="42.667" r="8.533"/>
			<circle style="fill:#428DFF;" cx="85.334" cy="42.667" r="8.533"/>
			<circle style="fill:#428DFF;" cx="119.467" cy="42.667" r="8.533"/>
		</g>
	</g>
</g>
<g>
</g>
<g>
</g>
<g>
</g>
<g>
</g>
<g>
</g>
<g>
</g>
<g>
</g>
<g>
</g>
<g>
</g>
<g>
</g>
<g>
</g>
<g>
</g>
<g>
</g>
<g>
</g>
<g>
</g>
</svg>
