<?xml version="1.0" encoding="iso-8859-1"?>
<!-- Generator: Adobe Illustrator 19.0.0, SVG Export Plug-In . SVG Version: 6.00 Build 0)  -->
<svg version="1.1" id="Capa_1" xmlns="http://www.w3.org/2000/svg" xmlns:xlink="http://www.w3.org/1999/xlink" x="0px" y="0px"
	 viewBox="0 0 512.004 512.004" style="enable-background:new 0 0 512.004 512.004;" xml:space="preserve">
<g>
	<g transform="translate(1 1)">
		<path style="fill:#A4C2F7;" d="M186.221,222.149c-10.388-3.933-17.092-14.075-16.64-25.173c0.069-0.737,0.098-1.478,0.085-2.219
			c0-42.667-51.2-76.288-93.867-76.288S7.533,135.023,7.533,169.157c0,43.349,50.005,69.205,97.707,75.861
			c11.363,1.526,22.561,4.097,33.451,7.68l56.576,19.371l19.713-39.253L186.221,222.149z M118.467,212.335
			c-36.608,0-76.8-17.067-76.8-42.667c0-8.533,8.533-17.067,34.133-17.067c27.904,0,59.733,22.699,59.733,42.667
			c0.573,4.679-1.039,9.361-4.373,12.694C127.828,211.296,123.145,212.909,118.467,212.335z"/>
		<path style="fill:#D4E1F4;" d="M220.525,230.853c-14.91,3.989-25.274,17.505-25.259,32.939v10.667
			c-0.026,3.657-2.349,6.903-5.802,8.107l-50.774,16.896c-10.893,3.555-22.091,6.098-33.451,7.595
			c-47.701,6.741-97.707,32.597-97.707,75.947c0,34.133,25.6,51.2,68.267,51.2s93.867-34.133,93.867-76.8
			c0.014-0.741-0.014-1.481-0.085-2.219c-0.475-11.105,6.237-21.259,16.64-25.173l316.245-117.675
			C461.165,171.034,286.317,213.103,220.525,230.853z M75.8,400.069c-25.6,0-34.133-8.533-34.133-17.067
			c0-25.6,40.192-42.667,76.8-42.667c4.679-0.574,9.361,1.039,12.694,4.372c3.333,3.333,4.946,8.016,4.372,12.694
			C135.533,377.37,103.704,400.069,75.8,400.069z"/>
		<g>
			<path style="fill:#A4C2F7;" d="M434.2,7.535c0,93.867-3.072,176.128-14.507,187.477c-53.597,3.697-106.749,12.237-158.806,25.515
				L255,220.869c0,0,0.427-1.792,1.28-5.205c15.324-68.341,23.475-138.095,24.32-208.128H434.2z"/>
			<path style="fill:#A4C2F7;" d="M442.733,272.069c0,0-8.533,126.549-8.533,230.4H272.067c0-54.357,8.533-170.667,8.533-170.667
				l135.85-50.091L442.733,272.069z"/>
		</g>
		<g>
			<path style="fill:#E3E7F2;" d="M408.6,7.535c0,93.867-3.072,176.128-14.507,187.477c-46.438,2.982-92.541,9.89-137.813,20.651
				c15.324-68.341,23.475-138.095,24.32-208.128H408.6z"/>
			<path style="fill:#E3E7F2;" d="M416.45,281.711c-1.877,31.403-7.85,133.973-7.85,220.757H272.067
				c0-54.357,8.533-170.667,8.533-170.667L416.45,281.711z"/>
		</g>
		<path style="fill:#A4C2F7;" d="M468.333,221.381c-35.84-35.84-172.031-8.96-250.539,10.325c0.893-0.335,1.805-0.62,2.73-0.853
			c65.792-17.749,240.64-59.819,281.941-18.517L468.333,221.381z"/>
		<g>
			<path style="fill:#FFFFFF;" d="M189.465,282.735l-50.774,16.896c-10.893,3.555-22.091,6.098-33.451,7.595
				c-47.701,6.741-97.706,32.597-97.706,75.947c0,34.133,25.6,51.2,68.267,51.2c3.601-0.034,7.196-0.292,10.765-0.772
				c-33.69-3.658-53.431-20.461-53.431-50.428c0-43.349,50.005-69.205,97.707-75.947c11.36-1.497,22.558-4.039,33.451-7.595
				l50.774-16.896c3.453-1.204,5.776-4.45,5.802-8.107v-2.389l-56.576-19.371c-10.89-3.583-22.088-6.154-33.451-7.68
				c-47.701-6.656-97.706-32.512-97.706-75.861c0-29.954,19.723-46.363,53.385-49.934c-3.554-0.47-7.134-0.721-10.719-0.754
				c-42.667,0-68.267,16.555-68.267,50.688c0,43.349,50.005,69.205,97.707,75.861c11.363,1.526,22.561,4.097,33.451,7.68
				l56.576,19.371v2.389C195.241,278.286,192.918,281.531,189.465,282.735z"/>
			<path style="fill:#FFFFFF;" d="M281.869,215.879l0.011-0.045c15.324-68.341,23.475-138.095,24.32-208.128h-25.6
				c-0.845,70.033-8.996,139.787-24.32,208.128c-0.853,3.413-1.28,5.205-1.28,5.205l5.887-0.341
				C267.525,219.109,274.624,217.494,281.869,215.879z"/>
			<path style="fill:#FFFFFF;" d="M445.461,195.245l-0.611-0.034c-0.433,0.027-0.873,0.062-1.298,0.08
				C444.202,195.263,444.815,195.27,445.461,195.245z"/>
			<path style="fill:#FFFFFF;" d="M244.501,231.608l-1.106,0.269c0.893-0.335,1.805-0.62,2.73-0.853
				c16.207-4.372,39.048-10.22,64.865-15.934c-8.493,1.877-16.781,3.761-24.502,5.609l-5.887,0.341c0,0,0.425-1.779,1.269-5.158
				c-20.148,4.516-38.31,9.056-52.746,12.855l11.456,4.25l-0.048,0.094C241.823,232.508,243.149,232.017,244.501,231.608z"/>
			<path style="fill:#FFFFFF;" d="M280.6,331.973c0,0-8.533,116.309-8.533,170.667h25.6c0-54.357,8.533-170.667,8.533-170.667
				l135.85-50.091l0.067-0.024c0.383-6.155,0.617-9.618,0.617-9.618l-26.283,9.643L280.6,331.973z"/>
		</g>
	</g>
	<g>
		<path style="fill:#FFFFFF;" d="M290.133,8.535c-0.216,37.344-2.712,74.64-7.475,111.68c-4.299,34.874-10.434,69.496-18.38,103.723
			l-16.556-4.139c7.777-33.567,13.786-67.518,18.003-101.715c4.674-36.333,7.126-72.917,7.342-109.549H290.133z"/>
		<g>
			<path style="fill:#428DFF;" d="M34.133,384.002c0,6.004,3.075,25.6,42.667,25.6c33.175,0,68.267-26.317,68.267-51.2
				c0.566-6.948-1.949-13.793-6.878-18.722c-4.929-4.929-11.774-7.444-18.722-6.878C78.425,332.802,34.133,352.377,34.133,384.002z
				 M119.467,349.869c6.458,0,8.533,2.075,8.533,8.533c0,13.787-26.967,34.133-51.2,34.133c-17.592,0-25.6-4.425-25.6-8.533
				C51.2,366.139,83.742,349.869,119.467,349.869z"/>
			<path style="fill:#428DFF;" d="M105.092,299.635C52.783,306.985,0,335.923,0,384.002c0,37.962,27.992,59.733,76.8,59.733
				c47.35,0,102.4-37.275,102.4-85.333l-0.05-2.583c-0.355-7.403,4.1-14.192,11.034-16.813l316.258-117.675
				c2.725-1.01,4.747-3.339,5.366-6.178c0.619-2.839-0.251-5.798-2.308-7.851c-14.39-14.386-42.01-19.926-75.723-20.043
				c5.57-20.727,9.956-67.528,9.956-178.725c0.001-2.263-0.898-4.434-2.499-6.035s-3.771-2.499-6.035-2.499H281.6
				c-2.263-0.001-4.434,0.898-6.035,2.499c-1.6,1.6-2.499,3.771-2.499,6.035c-0.143,11.248-0.248,22.495-0.817,33.747
				c-0.133,4.679,3.474,8.618,8.147,8.898c2.267,0.122,4.489-0.673,6.163-2.206c1.675-1.533,2.663-3.676,2.741-5.945
				c0.435-8.641,0.589-17.3,0.707-25.96h136.65c-0.275,127.459-6.731,161.655-10.631,170.597
				c-50.275,3.572-100.139,11.55-149.019,23.842c6.673-30.322,11.752-60.633,15.65-91.292l1.048-8.539
				c0.27-2.256-0.373-4.527-1.786-6.307c-1.413-1.78-3.479-2.921-5.737-3.169c-4.655-0.484-8.843,2.841-9.427,7.484l-1.031,8.401
				c-4.084,32.904-9.814,65.583-17.169,97.914c-10.317,2.578-20.156,5.143-29.281,7.604c-1.11,0.299-2.129,0.774-3.198,1.157
				l-25.894-9.628c-6.949-2.633-11.407-9.449-11.034-16.871l0.051-2.525c0-47.758-55.05-84.8-102.4-84.8
				c-48.808,0-76.8,21.579-76.8,59.2c0,48.075,52.783,77.017,105.092,84.367c10.828,1.442,21.5,3.875,31.883,7.267l45.907,15.3
				l-45.907,15.3C126.592,295.761,115.919,298.193,105.092,299.635z M107.475,237.602c-45-6.325-90.408-29.637-90.408-67.467
				c0-27.958,20.1-42.133,59.733-42.133c38.65,0,85.333,30.213,85.333,67.733l-0.033,1.892c-0.668,14.785,8.271,28.315,22.133,33.5
				l14.438,5.37c-6.036,6.765-9.751,15.282-10.603,24.308l-45.693-15.228C131.01,241.856,119.328,239.186,107.475,237.602z
				 M193.133,291.644c6.97-2.321,11.671-8.845,11.667-16.192v-10.654c0.013-11.565,7.764-21.69,18.925-24.721
				c13.183-3.555,26.628-6.98,40.135-10.218l0.023-0.003c5.344-1.283,10.988-2.603,16.848-3.934c0.701-0.159,1.4-0.308,2.102-0.466
				c4.409-0.994,8.973-1.991,13.608-2.985c2.635-0.564,5.267-1.116,7.896-1.656c2.527-0.525,5.098-1.041,7.671-1.558
				c12.527-2.505,24.921-4.786,37.002-6.748l0.584-0.095c13.27-2.146,26.17-3.928,38.495-5.27c0.41-0.045,0.817-0.082,1.227-0.126
				c6.495-0.694,12.787-1.236,18.925-1.671c2.604-0.181,5.198-0.353,7.753-0.484c6.478-0.344,12.766-0.56,18.714-0.56
				c16.872-0.688,33.73,1.682,49.758,6.996L184.233,323.014c-13.846,5.169-22.784,18.672-22.133,33.437l0.033,1.95
				c0,36.767-46.925,68.267-85.333,68.267c-27.25,0-59.733-7.404-59.733-42.667c0-37.829,45.408-61.141,90.408-67.467
				c11.853-1.584,23.535-4.253,34.9-7.975L193.133,291.644z"/>
			<path style="fill:#428DFF;" d="M76.8,145.069c-39.592,0-42.667,19.596-42.667,25.6c0,31.625,44.292,51.2,85.333,51.2
				c6.948,0.566,13.793-1.949,18.722-6.878c4.929-4.929,7.444-11.774,6.878-18.722C145.067,171.385,109.975,145.069,76.8,145.069z
				 M119.467,204.802c-35.725,0-68.267-16.271-68.267-34.133c0-4.108,8.008-8.533,25.6-8.533c24.233,0,51.2,20.346,51.2,34.133
				C128,202.727,125.925,204.802,119.467,204.802z"/>
			<path style="fill:#428DFF;" d="M274.719,84.245c0.985,0.528,2.063,0.859,3.175,0.975c2.251,0.174,4.484-0.515,6.244-1.929
				c3.576-3.103,4.034-8.488,1.033-12.151l-1.189-1.123c-0.45-0.361-0.947-0.66-1.478-0.886c-0.466-0.281-0.972-0.491-1.501-0.622
				c-0.556-0.137-1.12-0.236-1.69-0.295c-2.252-0.128-4.472,0.588-6.224,2.008c-0.837,0.745-1.526,1.642-2.028,2.643
				c-1.549,3.041-1.154,6.711,1.007,9.353C272.817,83.053,273.716,83.741,274.719,84.245z"/>
			<path style="fill:#428DFF;" d="M443.733,503.469c0-102.379,8.425-228.563,8.516-229.825c0.196-2.886-1.084-5.675-3.4-7.409
				c-2.316-1.734-5.352-2.176-8.066-1.175L278.65,324.794c-3.141,1.157-5.315,4.045-5.558,7.383
				c-0.091,1.167-8.558,117.233-8.558,171.292c-0.001,2.263,0.898,4.434,2.499,6.035c1.6,1.6,3.771,2.499,6.035,2.499H435.2
				c2.263,0.001,4.434-0.898,6.035-2.499C442.835,507.903,443.734,505.732,443.733,503.469z M426.684,494.935H281.658
				c0.667-48.825,6.483-133.737,8.058-156.029l144.675-53.3C432.317,319.548,427.042,413.289,426.684,494.935z"/>
			<circle style="fill:#428DFF;" cx="247.467" cy="264.535" r="8.533"/>
		</g>
	</g>
</g>
<g>
</g>
<g>
</g>
<g>
</g>
<g>
</g>
<g>
</g>
<g>
</g>
<g>
</g>
<g>
</g>
<g>
</g>
<g>
</g>
<g>
</g>
<g>
</g>
<g>
</g>
<g>
</g>
<g>
</g>
</svg>
