<?xml version="1.0" encoding="iso-8859-1"?>
<!-- Generator: Adobe Illustrator 19.0.0, SVG Export Plug-In . SVG Version: 6.00 Build 0)  -->
<svg version="1.1" id="Capa_1" xmlns="http://www.w3.org/2000/svg" xmlns:xlink="http://www.w3.org/1999/xlink" x="0px" y="0px"
	 viewBox="0 0 512 512" style="enable-background:new 0 0 512 512;" xml:space="preserve">
<g>
	<g transform="translate(1 1)">
		<g>
			<path style="fill:#E3E7F2;" d="M357.4,7.533V127l139.223-51.843c3.471-1.058,5.843-4.261,5.843-7.891s-2.372-6.832-5.843-7.891
				L357.4,7.533z"/>
			<polygon style="fill:#E3E7F2;" points="7.533,502.467 162.328,324.461 340.333,502.467 			"/>
		</g>
		<path style="fill:#7FABFA;" d="M502.467,340.333v162.133H101.4l244.395-293.205l5.632-6.827c1.531-1.83,3.758-2.936,6.141-3.049
			c2.383-0.113,4.705,0.776,6.403,2.452L502.467,340.333z"/>
		<g>
			<polygon style="fill:#E3E7F2;" points="476.867,340.333 476.867,502.467 101.4,502.467 345.795,209.261 			"/>
			<circle style="fill:#E3E7F2;" cx="33.133" cy="195.267" r="25.6"/>
			<circle style="fill:#E3E7F2;" cx="263.533" cy="425.667" r="25.6"/>
			<circle style="fill:#E3E7F2;" cx="365.933" cy="306.2" r="25.6"/>
			<circle style="fill:#E3E7F2;" cx="476.867" cy="425.667" r="25.6"/>
		</g>
		<g>
			<polygon style="fill:#FFFFFF;" points="383,67.437 383,17.236 357.4,7.704 357.4,67.437 357.4,127.171 383,117.639 			"/>
			<polygon style="fill:#FFFFFF;" points="176.024,338.328 162.328,324.632 7.533,502.637 33.133,502.637 			"/>
			<path style="fill:#FFFFFF;" d="M33.133,221.037c4.506-0.024,8.925-1.25,12.8-3.551c-7.915-4.52-12.8-12.935-12.8-22.049
				c0-9.114,4.885-17.53,12.8-22.049c-3.875-2.301-8.294-3.526-12.8-3.551c-14.138,0-25.6,11.462-25.6,25.6
				S18.995,221.037,33.133,221.037z"/>
		</g>
	</g>
	<g>
		<polygon style="fill:#FFFFFF;" points="169.771,331.059 96.973,414.771 14.976,509.065 2.091,497.869 84.096,403.567 
			156.885,319.863 		"/>
		<g>
			<path style="fill:#428DFF;" d="M119.128,385.522c4.698-0.374,8.232-4.439,7.951-9.143l-0.293-1.613
				c-0.147-0.557-0.367-1.092-0.655-1.591c-0.204-0.503-0.482-0.972-0.826-1.392c-0.362-0.442-0.755-0.859-1.174-1.247
				c-1.726-1.458-3.939-2.211-6.196-2.108c-2.871,0.146-5.469,1.748-6.888,4.249s-1.463,5.552-0.116,8.092
				c0.488,1.004,1.167,1.903,2.001,2.645C114.659,384.87,116.871,385.623,119.128,385.522z"/>
			<path style="fill:#428DFF;" d="M500.608,84.154c6.811-2.307,11.394-8.699,11.392-15.891s-4.588-13.581-11.4-15.884L361.375,0.538
				c-0.87-0.309-1.785-0.473-2.708-0.484C358.573,0.051,358.494,0,358.4,0c-0.1,0-0.181,0.053-0.282,0.057
				c-1.007,0.02-2.002,0.221-2.938,0.593c-0.123,0.05-0.223,0.127-0.344,0.182c-0.454,0.192-0.89,0.424-1.304,0.693
				c-0.304,0.235-0.592,0.492-0.86,0.767c-0.142,0.129-0.289,0.236-0.421,0.375c-0.653,0.686-1.186,1.476-1.576,2.339
				c-0.082,0.181-0.139,0.363-0.208,0.549c-0.378,0.948-0.582,1.957-0.601,2.978v184.641L210.431,360.497l-147.001-147
				c3.133-5.204,4.804-11.156,4.836-17.23c0-18.851-15.282-34.133-34.133-34.133S0,177.415,0,196.267S15.282,230.4,34.133,230.4
				c6.074-0.032,12.027-1.703,17.231-4.836l100.302,100.303l-17.176,19.752c-3.093,3.556-2.717,8.946,0.839,12.039
				c3.556,3.093,8.946,2.717,12.039-0.839l16.396-18.854l35.696,35.697L98.4,494.933H27.262l75.31-86.603
				c2.021-2.298,2.657-5.502,1.666-8.397c-0.99-2.895-3.455-5.039-6.46-5.618c-3.005-0.579-6.089,0.496-8.085,2.816L2.094,497.867
				l0.071,0.061c-1.371,1.521-2.141,3.491-2.165,5.539c-0.001,2.263,0.898,4.434,2.499,6.035c1.6,1.6,3.771,2.499,6.035,2.499
				h494.933c2.263,0.001,4.434-0.898,6.035-2.499c1.6-1.6,2.499-3.771,2.499-6.035V341.333c-0.001-2.263-0.9-4.433-2.5-6.033
				L366.933,192.733v-58.807L500.608,84.154z M17.067,196.267c-0.006-7.725,5.177-14.491,12.638-16.496
				c7.46-2.005,15.337,1.252,19.204,7.94c3.867,6.688,2.759,15.139-2.701,20.604l-0.016,0.01l-0.01,0.016
				c-4.88,4.877-12.218,6.334-18.592,3.691C21.216,209.389,17.063,203.166,17.067,196.267z M366.933,115.717V20.8L494.65,68.162
				L366.933,115.717z M120.617,494.933l90.962-109.154l23.657,23.657c-3.133,5.204-4.804,11.156-4.836,17.23
				c-0.043,14.725,9.363,27.818,23.332,32.478c13.969,4.66,29.351-0.164,38.158-11.966c8.807-11.802,9.052-27.921,0.608-39.985
				l59.474-69.463c9.822,5.024,21.51,4.781,31.114-0.647l66.077,71.262c-8.601,13.223-6.961,30.628,3.96,42.011
				c10.921,11.383,28.243,13.743,41.811,5.696v38.881H120.617z M252.475,414.608l0.01-0.016c6.716-6.948,17.792-7.139,24.744-0.426
				c6.951,6.713,7.148,17.789,0.439,24.744s-17.785,7.157-24.743,0.452c-6.959-6.705-7.167-17.781-0.465-24.743L252.475,414.608z
				 M378.578,319.607l-0.036,0.022l-0.015,0.019c-6.384,5.169-15.75,4.189-20.926-2.189c-5.176-6.379-4.207-15.745,2.166-20.928
				c6.373-5.183,15.74-4.224,20.931,2.143S384.94,314.409,378.578,319.607L378.578,319.607z M466.258,414.237l0.015-0.019
				c6.358-5.14,15.679-4.158,20.826,2.195c5.147,6.353,4.176,15.674-2.171,20.828s-15.669,4.194-20.831-2.147
				c-5.162-6.341-4.212-15.664,2.123-20.833L466.258,414.237z M494.933,397.281c-10.172-6.147-22.867-6.337-33.219-0.497
				l-66.077-71.263c9.248-14.423,6.364-33.468-6.74-44.507c-13.103-11.039-32.361-10.647-45.005,0.915
				c-12.644,11.562-14.751,30.709-4.924,44.744l-59.474,69.463c-10.216-5.211-22.405-4.744-32.193,1.233l-24.752-24.753
				l136.425-163.708l135.958,135.958V397.281z"/>
		</g>
	</g>
</g>
<g>
</g>
<g>
</g>
<g>
</g>
<g>
</g>
<g>
</g>
<g>
</g>
<g>
</g>
<g>
</g>
<g>
</g>
<g>
</g>
<g>
</g>
<g>
</g>
<g>
</g>
<g>
</g>
<g>
</g>
</svg>
