<?xml version="1.0" encoding="iso-8859-1"?>
<!-- Generator: Adobe Illustrator 19.0.0, SVG Export Plug-In . SVG Version: 6.00 Build 0)  -->
<svg version="1.1" id="Capa_1" xmlns="http://www.w3.org/2000/svg" xmlns:xlink="http://www.w3.org/1999/xlink" x="0px" y="0px"
	 viewBox="0 0 512.185 512.185" style="enable-background:new 0 0 512.185 512.185;" xml:space="preserve">
<g>
	<g transform="translate(1 1)">
		<path style="fill:#A4C2F7;" d="M425.754,92.867V408.6H24.688c-9.414-0.028-17.039-7.653-17.067-17.067V92.867H425.754z"/>
		<path style="fill:#D4E1F4;" d="M400.154,92.867V408.6H24.688c-9.414-0.028-17.039-7.653-17.067-17.067V92.867H400.154z"/>
		<g>
			<path style="fill:#E3E7F2;" d="M50.288,135.533h76.8c4.713,0,8.533,3.82,8.533,8.533v76.8c0,4.713-3.82,8.533-8.533,8.533h-76.8
				c-4.713,0-8.533-3.821-8.533-8.533v-76.8C41.754,139.354,45.575,135.533,50.288,135.533z"/>
			<path style="fill:#E3E7F2;" d="M178.288,135.533h76.8c4.713,0,8.533,3.82,8.533,8.533v76.8c0,4.713-3.821,8.533-8.533,8.533
				h-76.8c-4.713,0-8.533-3.821-8.533-8.533v-76.8C169.754,139.354,173.575,135.533,178.288,135.533z"/>
			<path style="fill:#E3E7F2;" d="M50.288,272.067h76.8c4.713,0,8.533,3.82,8.533,8.533v76.8c0,4.713-3.82,8.533-8.533,8.533h-76.8
				c-4.713,0-8.533-3.82-8.533-8.533v-76.8C41.754,275.887,45.575,272.067,50.288,272.067z"/>
			<path style="fill:#E3E7F2;" d="M178.288,272.067h76.8c4.713,0,8.533,3.82,8.533,8.533v76.8c0,4.713-3.821,8.533-8.533,8.533
				h-76.8c-4.713,0-8.533-3.82-8.533-8.533v-76.8C169.754,275.887,173.575,272.067,178.288,272.067z"/>
			<path style="fill:#E3E7F2;" d="M306.288,135.533h76.8c4.713,0,8.533,3.82,8.533,8.533v76.8c0,4.713-3.82,8.533-8.533,8.533h-76.8
				c-4.713,0-8.533-3.821-8.533-8.533v-76.8C297.754,139.354,301.575,135.533,306.288,135.533z"/>
		</g>
		<path style="fill:#A4C2F7;" d="M425.754,50.2v42.667H7.621V50.2c0.028-9.414,7.652-17.039,17.067-17.067h384
			C418.102,33.161,425.727,40.786,425.754,50.2z"/>
		<path style="fill:#E3E7F2;" d="M400.154,50.2v42.667H7.621V50.2c0.028-9.414,7.652-17.039,17.067-17.067h358.4
			C392.502,33.161,400.127,40.786,400.154,50.2z"/>
		<g>
			<path style="fill:#D4E1F4;" d="M58.821,7.533h25.6c4.713,0,8.533,3.821,8.533,8.533V50.2c0,4.713-3.821,8.533-8.533,8.533h-25.6
				c-4.713,0-8.533-3.821-8.533-8.533V16.067C50.288,11.354,54.108,7.533,58.821,7.533z"/>
			<path style="fill:#D4E1F4;" d="M203.888,7.533h25.6c4.713,0,8.533,3.821,8.533,8.533V50.2c0,4.713-3.821,8.533-8.533,8.533h-25.6
				c-4.713,0-8.533-3.821-8.533-8.533V16.067C195.354,11.354,199.175,7.533,203.888,7.533z"/>
			<path style="fill:#D4E1F4;" d="M348.954,7.533h25.6c4.713,0,8.533,3.821,8.533,8.533V50.2c0,4.713-3.821,8.533-8.533,8.533h-25.6
				c-4.713,0-8.533-3.821-8.533-8.533V16.067C340.421,11.354,344.241,7.533,348.954,7.533z"/>
		</g>
		<path style="fill:#A4C2F7;" d="M502.554,391.533c0.001,29.422-11.686,57.638-32.491,78.443
			c-20.804,20.804-49.021,32.492-78.443,32.491c-4.278,0.004-8.553-0.252-12.8-0.768c-55.935-6.484-98.133-53.856-98.133-110.165
			s42.198-103.682,98.133-110.165c4.247-0.516,8.522-0.772,12.8-0.768c29.422-0.001,57.638,11.686,78.443,32.491
			C490.868,333.895,502.555,362.112,502.554,391.533z"/>
		<ellipse style="fill:#E3E7F2;" cx="378.821" cy="391.533" rx="98.133" ry="110.165"/>
		<path style="fill:#D4E1F4;" d="M468.421,391.533c-0.004,42.414-34.386,76.796-76.8,76.8c-4.287,0.005-8.568-0.337-12.8-1.024
			c-36.957-6.273-63.998-38.29-63.998-75.776s27.041-69.503,63.998-75.776c4.232-0.687,8.513-1.029,12.8-1.024
			C434.035,314.737,468.418,349.119,468.421,391.533z"/>
		<ellipse style="fill:#FFFFFF;" cx="378.821" cy="391.533" rx="64" ry="75.776"/>
	</g>
	<path style="fill:#FFFFFF;" d="M25.688,409.771h25.6c-9.414-0.028-17.039-7.652-17.067-17.067V51.371
		c0.028-9.414,7.652-17.039,17.067-17.067h-25.6c-9.414,0.028-17.039,7.652-17.067,17.067v341.333
		C8.649,402.118,16.273,409.743,25.688,409.771z"/>
	<g>
		<polygon style="fill:#FFFFFF;" points="0.088,392.533 0.088,281.6 0.088,51.2 17.154,51.2 17.154,281.6 17.154,392.533 		"/>
		<g>
			<path style="fill:#428DFF;" d="M145.154,145.067c-0.011-9.421-7.645-17.056-17.067-17.067h-76.8
				c-9.421,0.011-17.056,7.645-17.067,17.067v76.8c0.011,9.421,7.645,17.056,17.067,17.067h76.8
				c9.421-0.011,17.056-7.645,17.067-17.067V145.067z M51.288,221.867v-76.8h76.8l0.009,76.8H51.288z"/>
			<path style="fill:#428DFF;" d="M273.154,145.067c-0.006-4.386-1.709-8.6-4.753-11.758c-0.093-0.102-0.123-0.235-0.222-0.334
				c-0.098-0.098-0.231-0.129-0.333-0.221c-3.158-3.045-7.372-4.749-11.759-4.754h-76.8c-4.387,0.006-8.601,1.709-11.759,4.754
				c-0.102,0.092-0.234,0.122-0.333,0.221c-0.098,0.098-0.129,0.232-0.222,0.334c-3.044,3.158-4.747,7.372-4.753,11.758v76.8
				c0.006,4.386,1.709,8.6,4.753,11.758c0.093,0.102,0.123,0.235,0.222,0.334c0.098,0.098,0.231,0.129,0.333,0.221
				c3.158,3.045,7.372,4.749,11.759,4.754h76.8c4.387-0.006,8.601-1.709,11.759-4.754c0.102-0.092,0.234-0.122,0.333-0.221
				s0.129-0.232,0.222-0.334c3.044-3.158,4.747-7.372,4.753-11.758V145.067z M179.288,157.133l26.333,26.333L179.288,209.8V157.133z
				 M191.354,145.067h52.667L217.688,171.4L191.354,145.067z M217.688,195.533l26.333,26.333h-52.667L217.688,195.533z
				 M229.754,183.467l26.335-26.335l0.005,52.675L229.754,183.467z"/>
			<path style="fill:#428DFF;" d="M128.088,264.533h-76.8c-9.421,0.011-17.056,7.645-17.067,17.067v76.8
				c0.011,9.421,7.645,17.056,17.067,17.067h76.8c9.421-0.011,17.056-7.645,17.067-17.067v-76.8
				C145.144,272.179,137.509,264.544,128.088,264.533z M51.288,358.4v-76.8h76.8l0.009,76.8H51.288z"/>
			<path style="fill:#428DFF;" d="M264.621,332.8c2.263,0.001,4.434-0.898,6.035-2.499c1.6-1.6,2.499-3.771,2.499-6.035V281.6
				c-0.011-9.421-7.645-17.056-17.067-17.067h-76.8c-9.421,0.011-17.056,7.645-17.067,17.067v76.8
				c0.011,9.421,7.645,17.056,17.067,17.067h59.733c4.713,0,8.533-3.82,8.533-8.533s-3.821-8.533-8.533-8.533h-59.733v-76.8h76.8
				v42.667c-0.001,2.263,0.898,4.434,2.499,6.035C260.187,331.902,262.358,332.801,264.621,332.8z"/>
			<path style="fill:#428DFF;" d="M307.288,128c-9.421,0.011-17.056,7.645-17.067,17.067v76.8
				c0.011,9.421,7.645,17.056,17.067,17.067h76.8c9.421-0.011,17.056-7.645,17.067-17.067v-76.8
				c-0.011-9.421-7.645-17.056-17.067-17.067H307.288z M307.288,221.867v-76.8h76.8l0.009,76.8H307.288z"/>
			<path style="fill:#428DFF;" d="M8.621,298.667c4.707-0.014,8.519-3.826,8.533-8.533V102.4h401.067v119.467
				c0,4.713,3.82,8.533,8.533,8.533s8.533-3.821,8.533-8.533V51.2c-0.015-14.132-11.468-25.585-25.6-25.6h-17.067v-8.533
				C392.61,7.645,384.975,0.011,375.554,0h-25.6c-9.421,0.011-17.056,7.645-17.067,17.067V25.6h-85.333v-8.533
				C247.544,7.645,239.909,0.011,230.488,0h-25.6c-9.421,0.011-17.056,7.645-17.067,17.067V25.6h-85.333v-8.533
				C102.477,7.645,94.842,0.011,85.421,0h-25.6C50.4,0.011,42.765,7.645,42.754,17.067V25.6H25.688
				c-14.132,0.015-25.585,11.468-25.6,25.6v238.933C0.102,294.84,3.914,298.653,8.621,298.667z M349.954,17.067h25.6l0.004,17.046
				l-0.004,0.021l0.004,0.021l0.004,17.046h-25.609V17.067z M204.888,17.067h25.6l0.004,17.046l-0.004,0.021l0.004,0.021
				l0.004,17.046h-25.609V17.067z M59.821,17.067h25.6l0.004,17.046l-0.004,0.021l0.004,0.021L85.429,51.2H59.821V17.067z
				 M25.688,42.667h17.067V51.2c0.011,9.421,7.645,17.056,17.067,17.067h25.6c9.421-0.011,17.056-7.645,17.067-17.067v-8.533h85.333
				V51.2c0.011,9.421,7.645,17.056,17.067,17.067h25.6c9.421-0.011,17.056-7.645,17.067-17.067v-8.533h85.333V51.2
				c0.011,9.421,7.645,17.056,17.067,17.067h25.6c9.421-0.011,17.056-7.645,17.067-17.067v-8.533h17.067
				c4.711,0.005,8.529,3.822,8.533,8.533v34.133H17.154V51.2C17.159,46.489,20.977,42.671,25.688,42.667z"/>
			<path style="fill:#428DFF;" d="M3.842,331.35c0.476,0.324,0.993,0.583,1.538,0.771c0.484,0.246,1.002,0.417,1.537,0.508
				c0.563,0.096,1.133,0.153,1.704,0.171c2.259-0.031,4.423-0.915,6.059-2.475c3.221-3.397,3.221-8.72,0-12.117
				c-0.815-0.771-1.77-1.379-2.813-1.792c-1.027-0.438-2.13-0.67-3.246-0.683c-2.259,0.034-4.422,0.918-6.059,2.475
				c-3.3,3.365-3.3,8.752,0,12.117L3.842,331.35z"/>
			<path style="fill:#428DFF;" d="M25.688,418.133h221.867c4.713,0,8.533-3.821,8.533-8.533c0-4.713-3.821-8.533-8.533-8.533H25.688
				c-4.711-0.005-8.529-3.822-8.533-8.533V358.4c0-4.713-3.821-8.533-8.533-8.533s-8.533,3.82-8.533,8.533v34.133
				C0.103,406.665,11.556,418.118,25.688,418.133z"/>
			<path style="fill:#428DFF;" d="M453.474,289.911l6.514-13.028c1.372-2.728,1.182-5.982-0.499-8.531
				c-1.681-2.55-4.596-4.007-7.644-3.822s-5.765,1.985-7.124,4.72l-6.46,12.919c-11.821-4.872-24.351-7.8-37.107-8.67v-8.966h17.067
				c4.713,0,8.533-3.821,8.533-8.533c0-4.713-3.82-8.533-8.533-8.533h-51.2c-4.713,0-8.533,3.821-8.533,8.533
				c0,4.713,3.82,8.533,8.533,8.533h17.067v8.966c-12.755,0.871-25.286,3.799-37.107,8.671l-6.46-12.919
				c-1.359-2.735-4.076-4.535-7.124-4.72c-3.048-0.185-5.963,1.272-7.644,3.822c-1.681,2.55-1.871,5.803-0.498,8.531l6.514,13.028
				c-46.324,27.42-68.588,82.433-54.374,134.353c14.214,51.92,61.396,87.921,115.226,87.921c53.83,0,101.012-36.001,115.226-87.921
				C522.062,372.345,499.797,317.331,453.474,289.911L453.474,289.911z M392.621,494.933c-56.554,0-102.4-45.846-102.4-102.4
				s45.846-102.4,102.4-102.4s102.4,45.846,102.4,102.4C494.958,449.061,449.149,494.87,392.621,494.933z"/>
			<path style="fill:#428DFF;" d="M392.621,307.2c-47.128,0-85.333,38.205-85.333,85.333s38.205,85.333,85.333,85.333
				s85.333-38.205,85.333-85.333C477.9,345.427,439.727,307.254,392.621,307.2z M392.621,460.8
				c-37.703,0-68.267-30.564-68.267-68.267s30.564-68.267,68.267-68.267s68.267,30.564,68.267,68.267
				C460.845,430.218,430.306,460.757,392.621,460.8z"/>
			<path style="fill:#428DFF;" d="M401.154,389v-39.133c0-4.713-3.82-8.533-8.533-8.533s-8.533,3.821-8.533,8.533v42.667
				c0.001,2.263,0.9,4.433,2.5,6.033l25.6,25.6c3.341,3.281,8.701,3.256,12.012-0.054s3.335-8.671,0.054-12.012L401.154,389z"/>
		</g>
	</g>
</g>
<g>
</g>
<g>
</g>
<g>
</g>
<g>
</g>
<g>
</g>
<g>
</g>
<g>
</g>
<g>
</g>
<g>
</g>
<g>
</g>
<g>
</g>
<g>
</g>
<g>
</g>
<g>
</g>
<g>
</g>
</svg>
