<?xml version="1.0" encoding="iso-8859-1"?>
<!-- Generator: Adobe Illustrator 19.0.0, SVG Export Plug-In . SVG Version: 6.00 Build 0)  -->
<svg version="1.1" id="Capa_1" xmlns="http://www.w3.org/2000/svg" xmlns:xlink="http://www.w3.org/1999/xlink" x="0px" y="0px"
	 viewBox="0 0 512.002 512.002" style="enable-background:new 0 0 512.002 512.002;" xml:space="preserve">
<g>
	<g transform="translate(1 1)">
		<polygon style="fill:#E3E7F2;" points="297.668,272.069 339.396,313.882 339.481,313.882 340.334,313.626 340.334,220.869 
			297.668,169.669 212.334,169.669 169.668,220.869 169.668,313.626 170.521,313.882 170.606,313.882 212.334,272.069 		"/>
		<g>
			<path style="fill:#A4C2F7;" d="M502.468,297.669c0,105.045-119.467,93.867-119.467,170.667v25.6
				c-0.014,4.707-3.826,8.519-8.533,8.533H255.001v-85.333c0-34.133,17.067-102.4,76.8-102.4c36.779,0,48.213-57.173,72.619-72.789
				c3.709-2.58,8.111-3.978,12.629-4.011h0.085c15.36,0,21.504,12.373,23.979,24.064c1.107-10.83,1.648-21.711,1.621-32.597
				c0-62.123,5.547-113.067,21.333-130.304c3.16-3.837,7.831-6.11,12.8-6.229C502.468,92.869,502.468,135.536,502.468,297.669z"/>
			<path style="fill:#A4C2F7;" d="M255.001,417.136v85.333H135.534c-4.707-0.014-8.519-3.826-8.533-8.533v-25.6
				c0-76.8-119.467-65.621-119.467-170.667c0-128.512,0-181.931,12.8-198.571c2.94-4.105,7.755-6.449,12.8-6.229
				c25.6,0,34.133,59.733,34.133,136.533c0,2.901,0,5.803,0.085,8.533c0.256,8.704,0.768,16.64,1.536,24.064
				c1.126-7.814,5.072-14.947,11.093-20.053c3.733-2.725,8.265-4.135,12.885-4.011c34.133,0,42.667,76.8,85.333,76.8
				C237.934,314.736,255.001,383.002,255.001,417.136z"/>
		</g>
		<g>
			<path style="fill:#D4E1F4;" d="M476.868,297.669c0,105.045-119.467,93.867-119.467,170.667v25.6
				c-0.014,4.707-3.826,8.519-8.533,8.533h-93.867v-85.333c0-34.133,17.067-102.4,76.8-102.4c36.779,0,48.213-57.173,72.619-72.789
				c4.181-4.011,4.181-4.011,12.629-4.011h0.085c15.36,0,21.504,12.373,23.979,24.064c1.107-10.83,1.648-21.711,1.621-32.597
				c0-62.123,5.547-113.067,21.333-130.304C476.868,115.738,476.868,169.157,476.868,297.669z"/>
			<path style="fill:#D4E1F4;" d="M229.401,417.136v85.333h-93.867c-4.707-0.014-8.519-3.826-8.533-8.533v-25.6
				c0-76.8-119.467-65.621-119.467-170.667c0-128.512,0-181.931,12.8-198.571c15.787,17.237,21.333,68.181,21.333,130.304
				c-0.027,10.887,0.514,21.767,1.621,32.597c2.475-11.691,8.619-24.064,23.979-24.064h0.085c0.256,8.704,0.768,16.64,1.536,24.064
				c1.126-7.814,5.072-14.947,11.093-20.053c24.405,15.616,35.84,72.789,72.619,72.789
				C212.334,314.736,229.401,383.002,229.401,417.136z"/>
		</g>
		<path style="fill:#A4C2F7;" d="M297.668,84.336h-85.333c0-1.195,0-2.389,0.085-3.584c1.877-27.051,23.381-53.333,35.072-65.792
			c4.523-4.693,7.509-7.424,7.509-7.424S297.668,45.765,297.668,84.336z"/>
		<path style="fill:#E3E7F2;" d="M272.068,84.336h-59.733c0-1.195,0-2.389,0.085-3.584c1.877-27.051,23.381-53.333,35.072-65.792
			C256.025,27.93,272.068,56.005,272.068,84.336z"/>
		<rect x="212.334" y="84.336" style="fill:#D4E1F4;" width="85.333" height="187.733"/>
		<rect x="212.334" y="84.336" style="fill:#F5F5F5;" width="59.733" height="187.733"/>
		<rect x="272.068" y="229.402" style="fill:#A4C2F7;" width="25.6" height="42.667"/>
		<rect x="212.334" y="229.402" style="fill:#E3E7F2;" width="59.733" height="42.667"/>
		<g>
			<path style="fill:#FFFFFF;" d="M127.001,468.506v25.6c0.014,4.707,3.826,8.519,8.533,8.533h25.6
				c-4.707-0.014-8.519-3.826-8.533-8.533v-25.6c0-76.8-119.467-65.621-119.467-170.667c0-128.512,0-181.931,12.8-198.571
				l0.01-0.011c-3.161-3.839-7.838-6.109-12.81-6.218c-5.045-0.219-9.86,2.124-12.8,6.229c-12.8,16.64-12.8,70.059-12.8,198.571
				C7.534,402.885,127.001,391.706,127.001,468.506z"/>
			<path style="fill:#FFFFFF;" d="M179.718,304.922l15.55-15.581V221.04l42.667-51.2V84.506c0-1.195,0-2.389,0.085-3.584
				c1.62-23.348,17.843-46.077,29.776-59.885c-4.014-4.678-8.285-9.128-12.794-13.331c0,0-2.987,2.731-7.509,7.424
				c-11.691,12.459-33.195,38.741-35.072,65.792c-0.085,1.195-0.085,2.389-0.085,3.584v85.333l-42.667,51.2v72.928
				C172.645,297.944,176.012,301.614,179.718,304.922z"/>
		</g>
	</g>
	<g>
		<path style="fill:#FFFFFF;" d="M0.001,298.669c0.035-36.985-0.114-73.956,0.614-111.111c0.401-17.464,0.843-34.92,2.609-52.705
			c0.802-9.266,2.513-18.432,5.109-27.363c1.617-5.341,4.294-10.3,7.871-14.583c4.73-4.811,11.184-7.536,17.931-7.571v17.067
			c-2.019,0.004-3.963,0.768-5.445,2.139c-1.86,2.496-3.264,5.302-4.146,8.287c-2.197,7.767-3.651,15.726-4.342,23.769
			c-1.673,16.784-2.133,34.079-2.524,51.324c-0.721,36.788-0.576,73.78-0.61,110.748H0.001z"/>
		<g>
			<path style="fill:#428DFF;" d="M477.868,85.336c-29.108,0-42.667,46.096-42.667,145.067c0,1.658-0.009,3.291-0.033,4.904
				c-1.431-0.951-2.947-1.766-4.529-2.436c-2.692-1.136-5.533-1.88-8.436-2.21c-0.219-0.027-0.426-0.048-0.642-0.07
				c-1.187-0.114-2.345-0.188-3.427-0.188c-20.917,0-33.058,19.975-44.809,39.292c-6.062,11.563-13.988,22.048-23.458,31.034
				v-78.859c0-1.996-0.699-3.928-1.975-5.463l-40.692-48.83V85.336c0-41.887-43.65-81.488-45.508-83.154
				c-3.237-2.908-8.146-2.908-11.383,0c-1.858,1.667-45.508,41.267-45.508,83.154v82.241l-40.692,48.83
				c-1.276,1.534-1.975,3.467-1.975,5.463v78.859c-9.47-8.987-17.396-19.472-23.458-31.034
				c-11.75-19.317-23.892-39.292-44.809-39.292c-1.081,0-2.24,0.073-3.427,0.188l-0.64,0.07c-4.629,0.498-9.074,2.091-12.966,4.646
				c-0.025-1.612-0.033-3.245-0.033-4.903c0-98.971-13.558-145.067-42.667-145.067c-6.747,0.035-13.201,2.76-17.931,7.571
				c-3.577,4.283-6.254,9.243-7.871,14.583c-2.596,8.932-4.307,18.097-5.109,27.363c-1.765,17.785-2.207,35.242-2.609,52.705
				l-0.173,8.575c-0.076,4.712,3.683,8.594,8.395,8.67s8.594-3.683,8.67-8.395l0.171-8.488c0.391-17.244,0.851-34.539,2.524-51.323
				c0.691-8.043,2.145-16.001,4.342-23.769c0.883-2.985,2.286-5.791,4.146-8.287c1.482-1.372,3.426-2.135,5.445-2.139
				c4.275,0,25.6,6.171,25.6,128c-0.035,10.832,0.503,21.657,1.614,32.432c-1.117,6.193-1.657,12.476-1.614,18.768
				c0,36.992,56.292,86.308,62.717,91.813c3.58,3.05,8.953,2.629,12.014-0.942c3.061-3.571,2.656-8.945-0.905-12.017
				c-15.792-13.542-56.758-54.112-56.758-78.854c-0.093-6.104,0.518-12.199,1.822-18.163c0.314-1.314,0.643-2.569,1.014-3.672
				c0.254-0.749,0.538-1.44,0.826-2.121c0.308-0.74,0.618-1.474,0.949-2.109c0.583-1.145,1.279-2.229,2.077-3.236l0.004-0.005
				c2.514-3.143,6.353-4.929,10.376-4.827c11.317,0,20.5,15.104,30.225,31.092c13.025,21.425,27.792,45.708,55.108,45.708
				c56,0,68.267,67.758,68.267,93.867v76.8H136.534v-25.6c0-39.996-28.767-58.929-56.583-77.238
				c-30.917-20.346-62.883-41.388-62.883-93.429l0.015-34.124c0.003-3.049-1.62-5.868-4.258-7.395
				c-2.639-1.527-5.891-1.531-8.533-0.01c-2.642,1.521-4.272,4.337-4.275,7.385l-0.015,34.143
				c0,61.242,37.492,85.917,70.567,107.683c26.242,17.271,48.9,32.183,48.9,62.983v25.6c0.011,9.421,7.645,17.056,17.067,17.067
				h238.933c9.421-0.011,17.056-7.646,17.067-17.067v-25.6c0-30.8,22.658-45.712,48.9-62.983
				c33.075-21.767,70.567-46.442,70.567-107.683C512.001,122.086,512.001,85.336,477.868,85.336z M332.801,224.956v70.234
				l-25.6-25.654V194.24L332.801,224.956z M290.134,221.869h-68.267v-128h68.267V221.869z M221.868,238.936h68.267v25.6h-68.267
				V238.936z M256.001,20.506c9.823,10.209,29.22,32.912,33.319,56.296h-66.637C226.781,53.418,246.178,30.716,256.001,20.506z
				 M204.801,194.24v75.297l-25.6,25.657v-70.237L204.801,194.24z M190.559,307.975l26.318-26.373h78.248l26.318,26.373
				c-34.532,4.797-55.066,31.424-65.442,60.912C245.625,339.399,225.091,312.772,190.559,307.975z M432.051,392.098
				c-27.817,18.308-56.583,37.242-56.583,77.238v25.6H264.534v-76.8c0-26.108,12.267-93.867,68.267-93.867
				c27.317,0,42.083-24.283,55.108-45.708c9.725-15.988,18.908-31.092,30.225-31.092c4.023-0.102,7.862,1.684,10.376,4.827
				l0.004,0.005c0.797,1.007,1.493,2.091,2.077,3.236c0.331,0.635,0.641,1.369,0.949,2.109c0.289,0.681,0.572,1.371,0.826,2.121
				c0.37,1.104,0.7,2.359,1.014,3.672c1.304,5.964,1.915,12.059,1.822,18.163c0,24.742-40.967,65.313-56.758,78.854
				c-3.561,3.072-3.966,8.446-0.905,12.017c3.061,3.571,8.434,3.992,12.014,0.942c6.425-5.504,62.717-54.821,62.717-91.813
				c0.043-6.293-0.497-12.575-1.614-18.768c1.111-10.775,1.649-21.6,1.614-32.432c0-121.829,21.325-128,25.6-128
				c17.067,0,17.067,57.454,17.067,196.267C494.934,350.711,462.968,371.752,432.051,392.098z"/>
			<path style="fill:#428DFF;" d="M3.834,237.466c0.474,0.326,0.99,0.588,1.534,0.778c0.483,0.248,1,0.422,1.535,0.515
				c0.563,0.098,1.132,0.158,1.703,0.178c2.26-0.024,4.427-0.898,6.071-2.449c0.777-0.809,1.391-1.76,1.81-2.8
				c1.302-3.174,0.617-6.818-1.749-9.302c-0.812-0.775-1.763-1.389-2.804-1.809c-1.024-0.444-2.126-0.684-3.242-0.706
				c-2.258,0.018-4.426,0.888-6.071,2.435c-3.317,3.354-3.344,8.744-0.06,12.13L3.834,237.466z"/>
			<path style="fill:#428DFF;" d="M247.468,128.002h17.067c4.713,0,8.533-3.821,8.533-8.533c0-4.713-3.82-8.533-8.533-8.533h-17.067
				c-4.713,0-8.533,3.821-8.533,8.533C238.934,124.182,242.755,128.002,247.468,128.002z"/>
			<path style="fill:#428DFF;" d="M247.468,162.136h17.067c4.713,0,8.533-3.82,8.533-8.533s-3.82-8.533-8.533-8.533h-17.067
				c-4.713,0-8.533,3.821-8.533,8.533S242.755,162.136,247.468,162.136z"/>
		</g>
	</g>
</g>
<g>
</g>
<g>
</g>
<g>
</g>
<g>
</g>
<g>
</g>
<g>
</g>
<g>
</g>
<g>
</g>
<g>
</g>
<g>
</g>
<g>
</g>
<g>
</g>
<g>
</g>
<g>
</g>
<g>
</g>
</svg>
