<?xml version="1.0" encoding="iso-8859-1"?>
<!-- Generator: Adobe Illustrator 19.0.0, SVG Export Plug-In . SVG Version: 6.00 Build 0)  -->
<svg version="1.1" id="Capa_1" xmlns="http://www.w3.org/2000/svg" xmlns:xlink="http://www.w3.org/1999/xlink" x="0px" y="0px"
	 viewBox="0 0 512.101 512.101" style="enable-background:new 0 0 512.101 512.101;" xml:space="preserve">
<g>
	<g transform="translate(7 1)">
		<path style="fill:#D4E1F4;" d="M249.051,237.933c39.445,0,60.285-11.163,69.89-18.746c4.375-3.428,10.19-4.402,15.443-2.587
			c11.082,3.21,22.602,4.65,34.133,4.267c32.012,0,40.006-28.822,42.002-43.216c0.638-4.61,3.133-8.759,6.906-11.484
			c7.578-5.52,19.358-18.757,19.358-47.7c1.381-19.902-9.059-38.759-26.66-48.152c-4.414-2.511-7.517-6.818-8.501-11.799
			c-5.4-18.914-22.023-32.454-41.639-33.915c-11.467-0.341-22.908,1.288-33.824,4.817c-5.414,1.914-11.423,1.047-16.075-2.319
			c-36.509-26.085-85.559-26.085-122.068,0c-4.652,3.366-10.661,4.233-16.075,2.319c-10.916-3.528-22.357-5.158-33.824-4.817
			c-19.616,1.461-36.239,15.001-41.639,33.915c-0.984,4.982-4.087,9.289-8.501,11.799c-17.601,9.393-28.041,28.25-26.66,48.152
			c0,28.943,11.78,42.179,19.358,47.7c3.773,2.725,6.268,6.874,6.906,11.484c1.996,14.395,9.99,43.216,42.002,43.216
			c11.531,0.384,23.051-1.056,34.133-4.267c5.253-1.815,11.068-0.841,15.443,2.587C188.766,226.77,209.606,237.933,249.051,237.933z
			"/>
		<g>
			<path style="fill:#E3E7F2;" d="M359.984,178.2l-57.028-49.9c-6.435-5.63-16.042-5.63-22.477,0l-57.028,49.9H359.984z"/>
			<polygon style="fill:#E3E7F2;" points="214.917,50.2 214.917,101.4 266.117,75.8 			"/>
		</g>
		<path style="fill:#A4C2F7;" d="M436.784,476.867v8.533c-0.028,9.414-7.652,17.039-17.067,17.067H249.051l0-25.6
			c-0.05-46.902,34.592-86.613,81.067-92.928c4.234-0.658,8.515-0.972,12.8-0.939c24.899-0.014,48.783,9.871,66.39,27.477
			C426.914,428.084,436.798,451.967,436.784,476.867z"/>
		<path style="fill:#E3E7F2;" d="M411.184,476.867v8.533c-0.028,9.414-7.652,17.039-17.067,17.067H249.051l0-25.6
			c-0.05-46.902,34.592-86.613,81.067-92.928C376.596,390.247,411.242,429.962,411.184,476.867z"/>
		<path style="fill:#7FABFA;" d="M402.309,323.267c0.012,15.846-6.278,31.046-17.483,42.251
			c-11.205,11.205-26.405,17.494-42.251,17.483c-4.302-0.014-8.592-0.471-12.8-1.365c-27.408-6.024-46.933-30.306-46.933-58.368
			c0-28.062,19.525-52.344,46.933-58.368c4.208-0.894,8.498-1.351,12.8-1.365c15.846-0.012,31.046,6.278,42.251,17.483
			C396.031,292.221,402.321,307.421,402.309,323.267z"/>
		<ellipse style="fill:#D4E1F4;" cx="329.776" cy="323.267" rx="46.933" ry="58.368"/>
		<path style="fill:#A4C2F7;" d="M249.051,476.867v8.533c-0.028,9.414-7.653,17.039-17.067,17.067H61.317l0-25.6
			c-0.05-46.902,34.592-86.613,81.067-92.928c4.234-0.658,8.515-0.972,12.8-0.939c24.899-0.014,48.783,9.871,66.39,27.477
			C239.18,428.084,249.065,451.967,249.051,476.867z"/>
		<path style="fill:#E3E7F2;" d="M223.451,476.867v8.533c-0.028,9.414-7.653,17.039-17.067,17.067H61.317l0-25.6
			c-0.05-46.902,34.592-86.613,81.067-92.928C188.863,390.247,223.509,429.962,223.451,476.867z"/>
		<path style="fill:#7FABFA;" d="M214.576,323.267c0.012,15.846-6.278,31.046-17.483,42.251
			c-11.205,11.205-26.405,17.494-42.251,17.483c-4.302-0.014-8.592-0.471-12.8-1.365c-27.408-6.024-46.933-30.306-46.933-58.368
			c0-28.062,19.525-52.344,46.933-58.368c4.208-0.894,8.498-1.351,12.8-1.365c15.846-0.012,31.046,6.278,42.251,17.483
			C208.298,292.221,214.588,307.421,214.576,323.267z"/>
		<g>
			<ellipse style="fill:#E3E7F2;" cx="142.043" cy="323.267" rx="46.933" ry="58.368"/>
			<path style="fill:#E3E7F2;" d="M283.184,178.2l-57.028-49.9c-6.435-5.63-16.042-5.63-22.477,0l-57.028,49.9H283.184z"/>
		</g>
		<path style="fill:#A4C2F7;" d="M436.784,118.467c0,28.928-11.776,42.155-19.371,47.701c-3.771,2.744-6.266,6.902-6.912,11.52
			c-1.963,14.336-9.984,43.179-41.984,43.179c-5.728,0.017-11.454-0.267-17.152-0.853c25.003-4.437,31.744-29.355,33.536-42.325
			c0.646-4.618,3.141-8.776,6.912-11.52c7.595-5.547,19.371-18.773,19.371-47.701c1.379-19.886-9.045-38.73-26.624-48.128
			c-4.433-2.526-7.548-6.855-8.533-11.861c-4.699-16.165-17.576-28.652-33.877-32.853c5.912-0.771,11.873-1.113,17.835-1.024
			c19.605,1.458,36.225,14.979,41.643,33.877c0.986,5.006,4.1,9.335,8.533,11.861C427.74,79.737,438.163,98.58,436.784,118.467z"/>
		<g>
			<path style="fill:#FFFFFF;" d="M335.366,27.054c0.098,0.07,0.222,0.145,0.318,0.215c4.652,3.366,10.661,4.233,16.076,2.319
				c5.129-1.753,10.417-3.003,15.788-3.733c-0.553-0.147-1.12-0.367-1.663-0.474c-1.943-0.393-3.919-0.598-5.901-0.61
				c-0.949,0-2.02,0.003-3.168,0.015c-0.376,0.004-0.775,0.016-1.17,0.022c-0.857,0.015-1.735,0.037-2.679,0.071
				c-0.539,0.019-1.087,0.049-1.651,0.077c-0.887,0.044-1.796,0.103-2.744,0.174c-0.623,0.046-1.238,0.096-1.885,0.156
				c-1.026,0.095-2.083,0.22-3.162,0.355c-0.468,0.058-0.897,0.087-1.375,0.154l0.044,0.015
				C340.009,26.113,337.705,26.547,335.366,27.054z"/>
			<path style="fill:#FFFFFF;" d="M197.541,29.587c5.414,1.914,11.423,1.047,16.076-2.319c14.309-10.075,30.871-16.485,48.234-18.67
				c-4.244-0.568-8.519-0.866-12.8-0.894c-21.73,0.091-42.91,6.837-60.689,19.331C191.47,27.704,194.535,28.556,197.541,29.587z"/>
			<path style="fill:#FFFFFF;" d="M80.676,166.337c3.773,2.725,6.268,6.874,6.906,11.484c1.996,14.394,9.99,43.216,42.002,43.216
				c5.691,0.023,11.38-0.257,17.042-0.84c-24.878-4.667-31.641-29.372-33.444-42.376c-0.638-4.61-3.133-8.759-6.906-11.484
				c-7.578-5.52-19.358-18.757-19.358-47.699c-1.381-19.902,9.059-38.759,26.659-48.153c4.414-2.511,7.517-6.817,8.502-11.799
				c4.691-16.252,17.691-28.769,34.109-32.841c-5.989-0.797-12.028-1.156-18.07-1.074c-19.616,1.461-36.239,15.001-41.639,33.915
				c-0.985,4.982-4.088,9.288-8.502,11.799c-17.601,9.393-28.041,28.25-26.659,48.153C61.317,147.58,73.098,160.817,80.676,166.337z
				"/>
			<path style="fill:#FFFFFF;" d="M86.917,477.037c-0.049-46.863,34.539-86.552,80.968-92.91c-4.207-0.604-8.451-0.924-12.702-0.956
				c-4.285-0.033-8.566,0.28-12.8,0.939c-46.475,6.315-81.117,46.026-81.067,92.928l0,25.6h25.6V477.037z"/>
			<path style="fill:#FFFFFF;" d="M95.109,323.437c-0.002,28.063,19.524,52.347,46.933,58.368c4.208,0.894,8.498,1.352,12.8,1.365
				c4.281-0.007,8.548-0.472,12.73-1.388c-27.374-6.047-46.863-30.312-46.864-58.346s19.489-52.299,46.863-58.346
				c-4.182-0.915-8.449-1.38-12.73-1.387c-4.302,0.014-8.592,0.472-12.8,1.365C114.633,271.091,95.107,295.374,95.109,323.437z"/>
			<path style="fill:#FFFFFF;" d="M274.651,485.571c-0.028,9.414-7.653,17.039-17.067,17.067h17.067V485.571z"/>
			<path style="fill:#FFFFFF;" d="M344.729,219.245c4.644,0.773,9.329,1.279,14.031,1.518c0.374,0.021,0.76,0.038,1.142,0.056
				c2.692,0.128,5.513,0.219,8.615,0.219c2.915-0.01,5.822-0.299,8.681-0.862c-5.842-0.524-11.613-1.665-17.215-3.404
				C354.806,214.991,349.08,215.919,344.729,219.245z"/>
		</g>
	</g>
	<g>
		<polygon style="fill:#FFFFFF;" points="85.384,494.933 196.317,494.933 256.051,494.933 256.051,512 196.317,512 85.384,512 		"/>
		<g>
			<path style="fill:#428DFF;" d="M314.076,128.854c-9.115-6.783-21.601-6.783-30.717,0l-20.328,15.247l-24.256-21.227
				c-2.442-2.123-5.268-3.759-8.325-4.819v-10.381l46.483-23.242c2.891-1.446,4.717-4.401,4.717-7.633s-1.826-6.187-4.717-7.633
				l-51.2-25.6c-0.102-0.051-0.213-0.064-0.316-0.11c-0.186-0.085-0.382-0.128-0.576-0.2c-0.827-0.306-1.696-0.482-2.577-0.521
				c-0.122-0.005-0.224-0.07-0.348-0.07c-0.053,0-0.096,0.029-0.148,0.03c-0.98,0.025-1.948,0.221-2.861,0.578
				c-0.234,0.089-0.444,0.194-0.668,0.303c-0.813,0.285-1.539,0.774-2.108,1.421c-0.096,0.089-0.209,0.151-0.301,0.244
				c-0.66,0.691-1.198,1.489-1.591,2.36c-0.101,0.215-0.179,0.427-0.262,0.65c-0.373,0.939-0.575,1.938-0.594,2.948v66.859
				c-3.057,1.061-5.883,2.697-8.325,4.82l-57.025,49.9c-2.303,2.004-3.36,5.086-2.771,8.082c0.589,2.996,2.734,5.448,5.625,6.431
				c2.891,0.982,6.086,0.345,8.379-1.671l57.025-49.896c3.226-2.801,8.022-2.803,11.25-0.004l57.025,49.9
				c2.293,2.016,5.488,2.653,8.379,1.671s5.036-3.435,5.625-6.431c0.589-2.996-0.467-6.078-2.771-8.082l-19.647-17.195
				l17.439-13.081c3.044-2.258,7.207-2.258,10.25,0l58.025,43.521c2.438,1.838,5.672,2.234,8.481,1.036
				c2.809-1.197,4.763-3.804,5.125-6.836c0.362-3.032-0.924-6.026-3.372-7.85L314.076,128.854z M230.451,88.592V65.008L254.034,76.8
				L230.451,88.592z"/>
			<path style="fill:#428DFF;" d="M503.517,290.133c-2.263-0.001-4.434,0.898-6.035,2.499c-1.6,1.6-2.499,3.771-2.499,6.035v17.067
				h-17.067c-4.713,0-8.533,3.821-8.533,8.533c0,4.713,3.82,8.533,8.533,8.533h17.067c9.421-0.011,17.056-7.645,17.067-17.067
				v-17.067c0.001-2.263-0.898-4.434-2.499-6.035C507.952,291.032,505.781,290.133,503.517,290.133z"/>
			<path style="fill:#428DFF;" d="M494.984,110.933h-43.281c-1.338-19.979-12.931-37.838-30.635-47.192
				c-2.181-1.407-3.681-3.655-4.142-6.208c-6.288-22.776-26.357-39.038-49.942-40.467c-12.421-0.351-24.81,1.438-36.625,5.288
				c-2.779,1.008-5.877,0.57-8.267-1.171c-39.498-28.246-92.587-28.244-132.083,0.004c-2.397,1.731-5.493,2.168-8.275,1.167
				c-11.812-3.85-24.198-5.639-36.617-5.288c-23.585,1.429-43.654,17.691-49.942,40.467c-0.462,2.554-1.961,4.803-4.142,6.212
				c-17.705,9.351-29.299,27.21-30.636,47.188H17.117C7.696,110.944,0.061,118.579,0.051,128v17.067
				c0,4.713,3.821,8.533,8.533,8.533s8.533-3.82,8.533-8.533V128h43.133c0.259,17.919,8.466,34.797,22.4,46.067
				c1.9,1.36,3.159,3.44,3.483,5.754c4.375,31.671,23.242,50.579,50.45,50.579c12.448,0.357,24.875-1.23,36.833-4.704
				c2.525-0.913,5.343-0.463,7.458,1.192c11.892,9.388,34.592,20.579,75.175,20.579s63.283-11.192,75.175-20.579
				c2.116-1.654,4.933-2.104,7.458-1.192c11.958,3.474,24.386,5.061,36.834,4.704c27.208,0,46.075-18.908,50.45-50.579
				c0.326-2.315,1.584-4.395,3.483-5.758c13.935-11.267,22.143-28.144,22.4-46.063h43.133v17.067c0,4.713,3.82,8.533,8.533,8.533
				s8.533-3.82,8.533-8.533V128C512.04,118.579,504.405,110.944,494.984,110.933z M419.401,160.267
				c-5.658,4.079-9.393,10.301-10.333,17.213c-2.267,16.358-9.925,35.854-33.55,35.854c-10.614,0.377-21.221-0.915-31.433-3.829
				c-7.979-2.72-16.793-1.221-23.425,3.983c-8.008,6.317-27.042,16.912-64.608,16.912s-56.6-10.596-64.608-16.912
				c-4.37-3.446-9.776-5.315-15.342-5.304c-2.748,0.002-5.478,0.448-8.083,1.321c-10.213,2.914-20.82,4.206-31.433,3.829
				c-23.625,0-31.283-19.496-33.55-35.854c-0.939-6.91-4.675-13.132-10.333-17.208c-5.917-4.317-15.85-15.354-15.85-40.804
				c-1.401-16.719,7.272-32.671,22.067-40.583c6.628-3.629,11.328-9.984,12.858-17.384c4.416-15.119,17.652-25.983,33.342-27.366
				c10.515-0.347,21.01,1.124,31.025,4.346c8.051,2.804,16.963,1.509,23.883-3.471c33.52-23.921,78.529-23.922,112.05-0.004
				c6.913,4.989,15.827,6.286,23.875,3.475c10.018-3.222,20.516-4.692,31.033-4.346c15.69,1.383,28.926,12.247,33.342,27.366
				c1.529,7.399,6.23,13.753,12.858,17.379c14.794,7.916,23.467,23.868,22.067,40.588
				C435.251,144.917,425.317,155.954,419.401,160.267z"/>
			<path style="fill:#428DFF;" d="M503.517,230.4c-2.263-0.001-4.434,0.898-6.035,2.499c-1.6,1.6-2.499,3.771-2.499,6.035v25.6
				c0,4.713,3.82,8.533,8.533,8.533s8.533-3.821,8.533-8.533v-25.6c0.001-2.263-0.898-4.434-2.499-6.035
				C507.952,231.298,505.781,230.399,503.517,230.4z"/>
			<path style="fill:#428DFF;" d="M503.517,170.667c-2.263-0.001-4.434,0.898-6.035,2.499c-1.6,1.6-2.499,3.771-2.499,6.035v25.6
				c0,4.713,3.82,8.533,8.533,8.533s8.533-3.82,8.533-8.533v-25.6c0.001-2.263-0.898-4.434-2.499-6.035
				C507.952,171.565,505.781,170.666,503.517,170.667z"/>
			<path style="fill:#428DFF;" d="M17.117,332.8h17.067c4.713,0,8.533-3.821,8.533-8.533c0-4.713-3.821-8.533-8.533-8.533H17.117
				v-17.067c0-4.713-3.821-8.533-8.533-8.533s-8.533,3.821-8.533,8.533v17.067C0.061,325.155,7.696,332.789,17.117,332.8z"/>
			<path style="fill:#428DFF;" d="M8.584,273.067c2.263,0.001,4.434-0.898,6.035-2.499s2.499-3.771,2.499-6.035v-25.6
				c0-4.713-3.821-8.533-8.533-8.533s-8.533,3.82-8.533,8.533v25.6c-0.001,2.263,0.898,4.434,2.499,6.035
				S6.321,273.067,8.584,273.067z"/>
			<path style="fill:#428DFF;" d="M8.584,213.333c2.263,0.001,4.434-0.898,6.035-2.499c1.6-1.6,2.499-3.771,2.499-6.035v-25.6
				c0-4.713-3.821-8.533-8.533-8.533s-8.533,3.82-8.533,8.533v25.6c-0.001,2.263,0.898,4.434,2.499,6.035
				C4.15,212.435,6.321,213.334,8.584,213.333z"/>
			<path style="fill:#428DFF;" d="M147.592,497.408l-1.025,1.279c-0.324,0.476-0.583,0.993-0.771,1.538
				c-0.246,0.484-0.417,1.002-0.508,1.537c-0.096,0.564-0.153,1.133-0.171,1.705c0.031,2.259,0.915,4.423,2.475,6.059
				c1.994,2.07,4.908,2.979,7.726,2.409c2.818-0.57,5.149-2.539,6.183-5.222c0.438-1.027,0.67-2.13,0.684-3.246
				c-0.014-3.45-2.096-6.556-5.282-7.879C153.715,494.264,150.046,494.982,147.592,497.408z"/>
			<path style="fill:#428DFF;" d="M59.784,477.867v8.533c0.015,14.132,11.468,25.585,25.6,25.6h34.133
				c4.713,0,8.533-3.82,8.533-8.533s-3.821-8.533-8.533-8.533H85.384c-4.711-0.005-8.529-3.822-8.533-8.533v-8.533
				c0-47.128,38.205-85.333,85.333-85.333s85.333,38.205,85.333,85.333v17.067h-59.733c-4.713,0-8.533,3.82-8.533,8.533
				s3.82,8.533,8.533,8.533h238.933c14.132-0.015,25.585-11.468,25.6-25.6v-8.533c-0.072-42.602-26.494-80.715-66.363-95.728
				c17.427-10.853,29.045-28.972,31.637-49.339h26.193c4.713,0,8.533-3.821,8.533-8.533c0-4.713-3.82-8.533-8.533-8.533h-26.193
				c-3.933-31.533-29.112-56.176-60.722-59.43s-61.281,15.745-71.554,45.816c-10.273,30.071,1.572,63.252,28.566,80.019
				c-25.88,9.785-46.726,29.584-57.83,54.926c-11.104-25.342-31.95-45.141-57.83-54.926c26.968-16.773,38.793-49.938,28.521-79.989
				c-10.273-30.051-39.925-49.038-71.518-45.792s-56.765,27.864-60.714,59.376H68.317c-4.713,0-8.533,3.821-8.533,8.533
				c0,4.713,3.821,8.533,8.533,8.533H94.51c2.592,20.366,14.21,38.485,31.637,49.339C86.278,397.152,59.856,435.265,59.784,477.867z
				 M298.717,324.267c0-28.277,22.923-51.2,51.2-51.2s51.2,22.923,51.2,51.2c0,28.277-22.923,51.2-51.2,51.2
				C321.653,375.436,298.748,352.531,298.717,324.267z M349.917,392.533c47.106,0.054,85.279,38.227,85.333,85.333v8.533
				c-0.005,4.711-3.822,8.529-8.533,8.533H264.584v-17.067C264.638,430.761,302.811,392.587,349.917,392.533z M110.984,324.267
				c0-28.277,22.923-51.2,51.2-51.2s51.2,22.923,51.2,51.2c0,28.277-22.923,51.2-51.2,51.2
				C133.92,375.436,111.015,352.531,110.984,324.267z"/>
		</g>
	</g>
</g>
<g>
</g>
<g>
</g>
<g>
</g>
<g>
</g>
<g>
</g>
<g>
</g>
<g>
</g>
<g>
</g>
<g>
</g>
<g>
</g>
<g>
</g>
<g>
</g>
<g>
</g>
<g>
</g>
<g>
</g>
</svg>
