<?xml version="1.0" encoding="iso-8859-1"?>
<!-- Generator: Adobe Illustrator 19.0.0, SVG Export Plug-In . SVG Version: 6.00 Build 0)  -->
<svg version="1.1" id="Capa_1" xmlns="http://www.w3.org/2000/svg" xmlns:xlink="http://www.w3.org/1999/xlink" x="0px" y="0px"
	 viewBox="0 0 503.607 503.607" style="enable-background:new 0 0 503.607 503.607;" xml:space="preserve">
<g>
	<g transform="translate(3 1)">
		<g>
			<path style="fill:#A4C2F7;" d="M97.721,136.846c0.157,13.366-6.081,26.004-16.787,34.008v234.232h33.574V170.854
				C103.803,162.849,97.565,150.212,97.721,136.846z"/>
			<path style="fill:#A4C2F7;" d="M399.885,136.846c-0.157,13.366,6.081,26.004,16.787,34.008v234.232h-33.574V170.854
				C393.804,162.849,400.042,150.212,399.885,136.846z"/>
		</g>
		<path style="fill:#7FABFA;" d="M467.033,410.248v83.934H30.574v-83.934c0.027-9.26,7.527-16.76,16.787-16.787h402.885
			C459.506,393.488,467.006,400.988,467.033,410.248z"/>
		<path style="fill:#E3E7F2;" d="M433.459,410.248v83.934H30.574v-83.934c0.027-9.26,7.527-16.76,16.787-16.787h369.311
			C425.932,393.488,433.432,400.988,433.459,410.248z"/>
		<g>
			<path style="fill:#D4E1F4;" d="M22.18,99.723h75.541v46.164c0,20.86-16.91,37.77-37.77,37.77s-37.77-16.91-37.77-37.77V99.723z"
				/>
			<path style="fill:#D4E1F4;" d="M173.262,99.723h75.541v46.164c0,20.86-16.91,37.77-37.77,37.77s-37.77-16.91-37.77-37.77V99.723z
				"/>
			<path style="fill:#D4E1F4;" d="M324.344,99.723h75.541v46.164c0,20.86-16.91,37.77-37.77,37.77s-37.771-16.91-37.771-37.77
				V99.723z"/>
		</g>
		<path style="fill:#E3E7F2;" d="M448.029,18.799c-2.308-6.816-8.704-11.404-15.9-11.404H65.478c-7.196,0-13.592,4.587-15.9,11.404
			L22.18,99.723h75.541v46.164c0,20.86,16.91,37.77,37.77,37.77s37.77-16.91,37.77-37.77V99.723h75.541v46.164
			c0,20.86,16.91,37.77,37.77,37.77s37.77-16.91,37.77-37.77V99.723h75.541v46.164c0,20.86,16.91,37.77,37.77,37.77
			s37.771-16.91,37.771-37.77V99.723L448.029,18.799z"/>
		<path style="fill:#A4C2F7;" d="M315.951,326.314c0.009,17.419-6.764,34.157-18.885,46.668
			c-9.56,10.037-14.829,23.406-14.689,37.267c0.001,4.453-1.767,8.723-4.915,11.871c-3.148,3.148-7.419,4.917-11.871,4.915h-34.245
			c-9.008-0.361-16.122-7.772-16.115-16.787c0.035-13.963-5.317-27.402-14.94-37.519c-17.026-17.772-22.962-43.437-15.468-66.88
			c7.493-23.443,27.215-40.907,51.392-45.508c1.636-0.34,3.289-0.592,4.952-0.755c19.014-2.162,38.048,3.886,52.327,16.627
			S315.94,307.177,315.951,326.314z"/>
		<path style="fill:#E3E7F2;" d="M290.77,326.314c0.009,17.419-6.764,34.157-18.885,46.668
			c-9.56,10.037-14.829,23.406-14.689,37.267c0.001,4.453-1.767,8.723-4.915,11.871c-3.148,3.148-7.419,4.917-11.871,4.915h-9.065
			c-9.008-0.361-16.122-7.772-16.115-16.787c0.035-13.963-5.317-27.402-14.94-37.519c-17.026-17.772-22.962-43.437-15.468-66.88
			c7.493-23.443,27.215-40.907,51.392-45.508C267.879,266.382,290.782,294.077,290.77,326.314z"/>
		<path style="fill:#A4C2F7;" d="M475.426,99.691v46.164c0.013,10.021-3.962,19.636-11.048,26.723s-16.701,11.061-26.723,11.048
			c-4.292,0.013-8.553-0.725-12.59-2.182c15.106-5.302,25.207-19.578,25.18-35.588V99.691l-27.363-80.913
			c-2.339-6.816-8.742-11.399-15.948-11.415h25.18c7.206,0.016,13.609,4.599,15.948,11.415L475.426,99.691z"/>
	</g>
	<g transform="translate(3 2)">
		<path style="fill:#FFFFFF;" d="M139.689,182.402c2.827-0.303,5.611-0.927,8.297-1.86c-2.923-1.02-5.709-2.396-8.297-4.095V182.402
			z"/>
		<path style="fill:#FFFFFF;" d="M72.541,392.629h-25.18c-9.26,0.027-16.76,7.527-16.787,16.787v83.934h25.18v-83.934
			C55.781,400.156,63.281,392.656,72.541,392.629z"/>
		<path style="fill:#FFFFFF;" d="M59.951,182.825c4.329-0.021,8.622-0.793,12.687-2.283c-15.108-5.259-25.245-19.49-25.277-35.487
			V98.891l27.398-80.924c2.308-6.816,8.704-11.404,15.9-11.404h-25.18c-7.197,0-13.592,4.587-15.9,11.404L22.18,98.891v46.164
			c0,10.017,3.979,19.624,11.063,26.708C40.326,178.846,49.933,182.825,59.951,182.825z"/>
	</g>
	<g>
		<polygon style="fill:#FFFFFF;" points="75.541,394.495 75.541,285.38 75.541,178.28 92.328,178.28 92.328,285.38 92.328,394.495 
					"/>
		<g>
			<path style="fill:#428DFF;" d="M495.213,486.82h-16.787v-75.541c-0.015-13.9-11.28-25.165-25.18-25.18h-25.18V191.259
				c13.918,3.999,28.906,1.216,40.461-7.511s18.332-22.382,18.293-36.863v-46.164c0-0.082-0.044-0.15-0.047-0.232
				c-0.007-0.835-0.141-1.665-0.396-2.461l-27.393-80.926C455.519,6.879,445.925,0.001,435.131,0H68.479
				C57.683-0.004,48.086,6.879,44.627,17.107L17.229,98.029c-0.254,0.794-0.387,1.622-0.395,2.456
				c-0.003,0.084-0.048,0.153-0.048,0.237v46.164c-0.038,14.481,6.738,28.135,18.293,36.863c11.555,8.727,26.543,11.51,40.461,7.512
				v102.512c0,4.636,3.758,8.393,8.393,8.393s8.393-3.758,8.393-8.393V182.468c0.851-0.704,1.651-1.465,2.449-2.226
				c0.214-0.203,0.445-0.388,0.655-0.595c1.74-1.744,3.339-3.624,4.781-5.621c0.154-0.211,0.359-0.385,0.509-0.599
				c0.249,0.354,0.559,0.665,0.818,1.012c0.74,0.99,1.511,1.95,2.326,2.876c0.448,0.509,0.895,1.013,1.366,1.502
				c1.089,1.138,2.235,2.22,3.433,3.242c0.158,0.134,0.289,0.293,0.449,0.424v203.615H92.328V360.92
				c0-4.636-3.758-8.393-8.393-8.393s-8.393,3.758-8.393,8.393v25.179h-25.18c-13.9,0.015-25.165,11.28-25.18,25.18v75.541H8.393
				c-4.636,0-8.393,3.758-8.393,8.393s3.758,8.393,8.393,8.393h486.82c4.636,0,8.393-3.758,8.393-8.393
				S499.849,486.82,495.213,486.82z M411.279,182.484v203.615h-16.787V182.484c0.157-0.129,0.285-0.284,0.44-0.415
				c1.209-1.031,2.365-2.123,3.463-3.273c0.454-0.473,0.886-0.959,1.318-1.449c0.841-0.953,1.635-1.942,2.396-2.963
				c0.246-0.33,0.541-0.625,0.778-0.962c0.241,0.342,0.54,0.642,0.791,0.979c0.754,1.01,1.541,1.99,2.373,2.934
				c0.439,0.497,0.876,0.99,1.337,1.471c1.08,1.129,2.216,2.202,3.403,3.216C410.962,182.168,411.105,182.34,411.279,182.484z
				 M318.951,146.885c0,16.224-13.153,29.377-29.377,29.377s-29.377-13.153-29.377-29.377v-37.77h58.754V146.885z M243.41,146.885
				c0,10.495-5.599,20.194-14.689,25.441c-9.089,5.248-20.288,5.248-29.377,0c-9.089-5.248-14.689-14.946-14.689-25.441v-37.77
				h58.754V146.885z M167.869,146.885c0.114,12.078-7.215,22.981-18.442,27.436c-11.227,4.455-24.038,1.543-32.236-7.327
				c-0.482-0.51-0.894-1.078-1.339-1.622c-0.948-1.15-1.808-2.372-2.57-3.653c-0.389-0.658-0.759-1.327-1.097-2.017
				c-0.661-1.377-1.213-2.804-1.652-4.267c-0.196-0.64-0.443-1.257-0.596-1.915c-0.527-2.173-0.802-4.399-0.822-6.634v-37.77h58.754
				V146.885z M335.738,109.115h58.754v37.77c-0.02,2.236-0.296,4.462-0.823,6.635c-0.152,0.653-0.397,1.267-0.592,1.903
				c-0.44,1.47-0.994,2.903-1.659,4.285c-0.336,0.684-0.701,1.347-1.087,2.001c-0.767,1.291-1.633,2.52-2.588,3.678
				c-0.439,0.535-0.846,1.097-1.321,1.6c-8.228,8.79-20.997,11.651-32.189,7.212c-11.192-4.439-18.529-15.273-18.496-27.314
				L335.738,109.115z M470.033,146.885c0.114,12.08-7.218,22.984-18.447,27.438c-11.23,4.453-24.042,1.537-32.238-7.337
				c-0.474-0.502-0.879-1.061-1.317-1.595c-0.957-1.159-1.823-2.39-2.592-3.682c-0.385-0.653-0.752-1.316-1.087-1.999
				c-0.665-1.385-1.221-2.82-1.661-4.291c-0.194-0.633-0.437-1.244-0.589-1.894c-0.527-2.174-0.804-4.401-0.824-6.638v-37.77h58.754
				V146.885z M60.529,22.492c1.151-3.411,4.351-5.707,7.951-5.705h366.652c3.599,0.001,6.797,2.296,7.951,5.705l23.639,69.836
				H36.885L60.529,22.492z M33.574,146.885l0-37.77h58.754v37.77c-0.02,2.236-0.296,4.462-0.823,6.634
				c-0.153,0.658-0.4,1.275-0.596,1.915c-0.438,1.463-0.99,2.89-1.652,4.267c-0.338,0.69-0.708,1.359-1.097,2.017
				c-0.762,1.281-1.622,2.503-2.57,3.653c-0.444,0.544-0.857,1.112-1.339,1.622c-1.486,1.604-3.145,3.037-4.947,4.275
				c-9.005,6.053-20.614,6.646-30.188,1.541C39.543,167.705,33.566,157.735,33.574,146.885z M41.967,411.279
				c0.006-4.633,3.76-8.387,8.393-8.393h117.508c4.636,0,8.393-3.758,8.393-8.393s-3.758-8.393-8.393-8.393h-41.967V191.26
				c18.892,5.438,39.148-1.768,50.361-17.915c8.613,12.347,22.716,19.705,37.77,19.705s29.158-7.358,37.77-19.705
				c8.613,12.347,22.716,19.705,37.77,19.705s29.158-7.358,37.77-19.705c11.213,16.147,31.469,23.353,50.361,17.915v194.839h-41.967
				c-4.636,0-8.393,3.758-8.393,8.393s3.758,8.393,8.393,8.393h117.508c4.634,0.005,8.389,3.76,8.393,8.393v75.541H41.967V411.279z"
				/>
			<path style="fill:#428DFF;" d="M285.377,453.197h-67.148c-4.636,0-8.393,3.758-8.393,8.393c0,4.636,3.758,8.393,8.393,8.393
				h67.148c4.636,0,8.393-3.758,8.393-8.393C293.77,456.955,290.013,453.197,285.377,453.197z"/>
			<path style="fill:#428DFF;" d="M302.176,271c-30.223-27.107-76.47-25.466-104.695,3.715
				c-28.225,29.181-28.326,75.457-0.227,104.761c8.15,8.555,12.66,19.939,12.582,31.754c0.015,13.9,11.28,25.165,25.18,25.18h33.574
				c13.9-0.015,25.165-11.28,25.18-25.18c-0.159-11.695,4.259-22.989,12.311-31.471c14.29-14.75,21.951-34.687,21.214-55.211
				C326.559,304.023,317.488,284.687,302.176,271z M294.025,368.078c-11.094,11.609-17.21,27.095-17.041,43.152
				c-0.006,4.633-3.76,8.387-8.393,8.393h-33.574c-4.635-0.008-8.39-3.766-8.393-8.402c0.084-16.144-6.102-31.691-17.254-43.365
				c-15.443-16.098-20.425-39.56-12.854-60.545c7.57-20.984,26.383-35.863,48.547-38.394c2.263-0.253,4.538-0.38,6.815-0.381
				c14.442-0.045,28.383,5.293,39.102,14.971c11.909,10.641,18.965,25.676,19.54,41.636
				C311.094,341.104,305.137,356.608,294.025,368.078L294.025,368.078z"/>
			<path style="fill:#428DFF;" d="M80.746,335.071c0.476,0.241,0.986,0.41,1.512,0.5c0.554,0.094,1.114,0.151,1.676,0.168
				c2.222-0.031,4.351-0.9,5.959-2.434c2.036-1.962,2.93-4.828,2.37-7.599c-0.56-2.772-2.497-5.065-5.136-6.081
				c-1.01-0.431-2.095-0.659-3.193-0.672c-3.394,0.013-6.449,2.061-7.75,5.196c-1.301,3.134-0.596,6.744,1.791,9.157l1.258,1.008
				C79.702,334.632,80.21,334.887,80.746,335.071z"/>
		</g>
	</g>
</g>
<g>
</g>
<g>
</g>
<g>
</g>
<g>
</g>
<g>
</g>
<g>
</g>
<g>
</g>
<g>
</g>
<g>
</g>
<g>
</g>
<g>
</g>
<g>
</g>
<g>
</g>
<g>
</g>
<g>
</g>
</svg>
