<?xml version="1.0" encoding="iso-8859-1"?>
<!-- Generator: Adobe Illustrator 19.0.0, SVG Export Plug-In . SVG Version: 6.00 Build 0)  -->
<svg version="1.1" id="Capa_1" xmlns="http://www.w3.org/2000/svg" xmlns:xlink="http://www.w3.org/1999/xlink" x="0px" y="0px"
	 viewBox="0 0 503.607 503.607" style="enable-background:new 0 0 503.607 503.607;" xml:space="preserve">
<g>
	<g transform="translate(1 2)">
		<rect x="7.393" y="6.447" style="fill:#A4C2F7;" width="486.82" height="486.82"/>
		<rect x="7.393" y="6.447" style="fill:#E3E7F2;" width="461.639" height="486.82"/>
		<path style="fill:#A4C2F7;" d="M326.344,191.019v285.377c0.001,4.453-1.767,8.723-4.915,11.871
			c-3.148,3.148-7.419,4.917-11.871,4.915H24.18c-4.453,0.001-8.723-1.767-11.871-4.915c-3.148-3.148-4.917-7.419-4.915-11.871
			V191.019c0.027-9.26,7.527-16.76,16.787-16.787h285.377C318.817,174.259,326.317,181.759,326.344,191.019z"/>
		<path style="fill:#E3E7F2;" d="M301.164,191.019v285.377c0.001,4.453-1.767,8.723-4.915,11.871
			c-3.148,3.148-7.419,4.917-11.871,4.915H24.18c-4.453,0.001-8.723-1.767-11.871-4.915c-3.148-3.148-4.917-7.419-4.915-11.871
			V191.019c0.027-9.26,7.527-16.76,16.787-16.787h260.197C293.637,174.259,301.137,181.759,301.164,191.019z"/>
		<path style="fill:#A4C2F7;" d="M234.016,325.314c0.009,17.419-6.764,34.157-18.885,46.668
			c-9.56,10.037-14.829,23.406-14.689,37.267c0.001,4.453-1.767,8.723-4.915,11.871c-3.148,3.148-7.419,4.917-11.871,4.915H149.41
			c-9.008-0.361-16.122-7.772-16.115-16.787c0.035-13.963-5.317-27.402-14.94-37.519c-17.026-17.772-22.962-43.437-15.468-66.88
			s27.215-40.907,51.392-45.508c1.636-0.34,3.289-0.592,4.952-0.755c19.014-2.162,38.048,3.886,52.327,16.627
			S234.006,306.177,234.016,325.314z"/>
		<path style="fill:#E3E7F2;" d="M208.836,325.314c0.009,17.419-6.764,34.157-18.885,46.668
			c-9.56,10.037-14.829,23.406-14.689,37.267c0.001,4.453-1.767,8.723-4.915,11.871c-3.148,3.148-7.419,4.917-11.871,4.915h-9.065
			c-9.008-0.361-16.122-7.772-16.115-16.787c0.035-13.963-5.317-27.402-14.94-37.519c-17.026-17.772-22.962-43.437-15.468-66.88
			s27.215-40.907,51.392-45.508C185.945,265.382,208.847,293.077,208.836,325.314z"/>
		<polygon style="fill:#FFFFFF;" points="32.574,476.563 32.574,191.186 32.574,6.615 7.393,6.615 7.393,191.186 7.393,476.563 
			7.393,493.434 32.574,493.434 		"/>
	</g>
	<g>
		<polygon style="fill:#FFFFFF;" points="16.787,193.052 16.787,302.167 16.787,478.429 0,478.429 0,302.167 0,193.052 		"/>
		<g>
			<path style="fill:#428DFF;" d="M8.393,268.592c2.222-0.034,4.349-0.903,5.959-2.434c3.246-3.31,3.246-8.608,0-11.918
				l-1.258-1.008c-0.468-0.319-0.977-0.574-1.512-0.758c-0.476-0.242-0.986-0.41-1.512-0.5c-0.554-0.095-1.115-0.151-1.677-0.168
				c-2.222,0.031-4.351,0.9-5.959,2.434c-3.169,3.341-3.169,8.577,0,11.918c0.802,0.758,1.741,1.356,2.766,1.763
				C6.211,268.35,7.295,268.579,8.393,268.592z"/>
			<path style="fill:#428DFF;" d="M8.393,67.148c4.636,0,8.393-3.758,8.393-8.393V16.787h41.967c4.636,0,8.393-3.758,8.393-8.393
				S63.39,0,58.754,0H8.393C3.758,0,0,3.758,0,8.393v50.361C0,63.39,3.758,67.148,8.393,67.148z"/>
			<path style="fill:#428DFF;" d="M498.421,0.648c-1.016-0.424-2.106-0.645-3.207-0.648h-50.361c-4.636,0-8.393,3.758-8.393,8.393
				s3.758,8.393,8.393,8.393h30.098L335.738,156v-30.098c0-4.636-3.758-8.393-8.393-8.393s-8.393,3.758-8.393,8.393v43.514
				c-2.688-0.995-5.527-1.518-8.393-1.547H25.18c-13.9,0.015-25.165,11.28-25.18,25.18l0.001,0.002H0v33.574
				c0,4.636,3.758,8.393,8.393,8.393s8.393-3.758,8.393-8.393v-33.574h-0.001l0.001-0.002c0.006-4.633,3.76-8.387,8.393-8.393
				h285.377c4.633,0.006,8.387,3.76,8.393,8.393v285.377c-0.006,4.633-3.76,8.387-8.393,8.393H25.18
				c-4.633-0.006-8.387-3.76-8.393-8.393V293.772c0-4.636-3.758-8.393-8.393-8.393S0,289.137,0,293.772v184.656
				c0.016,13.9,11.281,25.164,25.18,25.179h285.377c13.9-0.015,25.165-11.28,25.18-25.18V193.049
				c-0.028-2.866-0.552-5.706-1.547-8.393h43.514c4.636,0,8.393-3.758,8.393-8.393c0-4.636-3.758-8.393-8.393-8.393h-30.098
				L486.82,28.656v30.098c0,4.636,3.758,8.393,8.393,8.393c4.636,0,8.393-3.758,8.393-8.393V8.393
				C503.593,5.004,501.55,1.952,498.421,0.648z"/>
			<path style="fill:#428DFF;" d="M495.213,92.328c-4.635,0-8.393,3.758-8.393,8.393v50.361c0,4.636,3.758,8.393,8.393,8.393
				c4.636,0,8.393-3.758,8.393-8.393v-50.361C503.606,96.086,499.849,92.328,495.213,92.328z"/>
			<path style="fill:#428DFF;" d="M495.213,176.213c-4.635,0-8.393,3.758-8.393,8.393v50.361c0,4.636,3.758,8.393,8.393,8.393
				c4.636,0,8.393-3.758,8.393-8.393v-50.361C503.606,179.971,499.849,176.213,495.213,176.213z"/>
			<path style="fill:#428DFF;" d="M495.213,260.148c-4.635,0-8.393,3.758-8.393,8.393v50.361c0,4.636,3.758,8.393,8.393,8.393
				c4.636,0,8.393-3.758,8.393-8.393v-50.361C503.606,263.905,499.849,260.148,495.213,260.148z"/>
			<path style="fill:#428DFF;" d="M495.213,344.082c-4.635,0-8.393,3.758-8.393,8.393v50.361c0,4.636,3.758,8.393,8.393,8.393
				c4.636,0,8.393-3.758,8.393-8.393v-50.361C503.606,347.84,499.849,344.082,495.213,344.082z"/>
			<path style="fill:#428DFF;" d="M8.393,159.475c4.636,0,8.393-3.758,8.393-8.393v-50.361c0-4.636-3.758-8.393-8.393-8.393
				S0,96.086,0,100.721v50.361C0,155.718,3.758,159.475,8.393,159.475z"/>
			<path style="fill:#428DFF;" d="M100.721,16.787h50.361c4.636,0,8.393-3.758,8.393-8.393S155.718,0,151.082,0h-50.361
				c-4.636,0-8.393,3.758-8.393,8.393S96.086,16.787,100.721,16.787z"/>
			<path style="fill:#428DFF;" d="M184.656,16.787h50.361c4.636,0,8.393-3.758,8.393-8.393S239.652,0,235.016,0h-50.361
				c-4.636,0-8.393,3.758-8.393,8.393S180.02,16.787,184.656,16.787z"/>
			<path style="fill:#428DFF;" d="M268.59,16.787h50.361c4.636,0,8.393-3.758,8.393-8.393S323.586,0,318.951,0H268.59
				c-4.636,0-8.393,3.758-8.393,8.393S263.955,16.787,268.59,16.787z"/>
			<path style="fill:#428DFF;" d="M352.525,16.787h50.361c4.636,0,8.393-3.758,8.393-8.393S407.521,0,402.885,0h-50.361
				c-4.636,0-8.393,3.758-8.393,8.393S347.889,16.787,352.525,16.787z"/>
			<path style="fill:#428DFF;" d="M402.885,503.607c4.636,0,8.393-3.758,8.393-8.393c0-4.636-3.758-8.393-8.393-8.393h-50.361
				c-4.636,0-8.393,3.758-8.393,8.393c0,4.636,3.758,8.393,8.393,8.393H402.885z"/>
			<path style="fill:#428DFF;" d="M495.213,436.459c-4.635,0-8.393,3.758-8.393,8.393v41.967h-41.967
				c-4.636,0-8.393,3.758-8.393,8.393c0,4.636,3.758,8.393,8.393,8.393h50.361c4.636,0,8.393-3.758,8.393-8.393v-50.361
				C503.606,440.217,499.849,436.459,495.213,436.459z"/>
			<path style="fill:#428DFF;" d="M134.295,453.246c-4.636,0-8.393,3.758-8.393,8.393c0,4.636,3.758,8.393,8.393,8.393h67.148
				c4.636,0,8.393-3.758,8.393-8.393c0-4.636-3.758-8.393-8.393-8.393H134.295z"/>
			<path style="fill:#428DFF;" d="M176.262,226.623v-16.787c0-4.636-3.758-8.393-8.393-8.393c-4.636,0-8.393,3.758-8.393,8.393
				v16.787c0,4.636,3.758,8.393,8.393,8.393C172.504,235.016,176.262,231.259,176.262,226.623z"/>
			<path style="fill:#428DFF;" d="M90.713,238.32c-2.12-2.12-5.21-2.948-8.107-2.172c-2.896,0.776-5.158,3.038-5.934,5.934
				c-0.776,2.896,0.052,5.986,2.172,8.107l11.869,11.873c2.12,2.12,5.21,2.948,8.107,2.172c2.896-0.776,5.158-3.038,5.934-5.934
				c0.776-2.896-0.052-5.986-2.172-8.107L90.713,238.32z"/>
			<path style="fill:#428DFF;" d="M78.844,416.373c1.574,1.574,3.708,2.459,5.934,2.459c2.226,0,4.361-0.885,5.934-2.459
				l11.869-11.873c2.142-2.116,2.987-5.217,2.214-8.127c-0.773-2.91-3.046-5.183-5.956-5.956c-2.91-0.773-6.011,0.072-8.127,2.214
				l-11.869,11.873c-1.574,1.574-2.459,3.708-2.459,5.934S77.27,414.799,78.844,416.373z"/>
			<path style="fill:#428DFF;" d="M67.148,335.738c4.636,0,8.393-3.758,8.393-8.393c0-4.636-3.758-8.393-8.393-8.393H50.361
				c-4.636,0-8.393,3.758-8.393,8.393c0,4.636,3.758,8.393,8.393,8.393H67.148z"/>
			<path style="fill:#428DFF;" d="M256.893,238.32c-1.574-1.574-3.708-2.459-5.934-2.459c-2.226,0-4.361,0.885-5.934,2.459
				l-11.869,11.873c-3.277,3.277-3.277,8.591,0,11.869c3.277,3.277,8.591,3.277,11.869,0l11.869-11.873
				c1.574-1.574,2.459-3.708,2.459-5.934S258.468,239.893,256.893,238.32z"/>
			<path style="fill:#428DFF;" d="M245.025,392.631c-3.283-3.242-8.568-3.226-11.831,0.037c-3.263,3.263-3.28,8.548-0.037,11.831
				l11.869,11.873c3.279,3.268,8.585,3.263,11.859-0.01c3.273-3.273,3.278-8.579,0.01-11.859L245.025,392.631z"/>
			<path style="fill:#428DFF;" d="M285.377,335.738c4.636,0,8.393-3.758,8.393-8.393c0-4.636-3.758-8.393-8.393-8.393H268.59
				c-4.636,0-8.393,3.758-8.393,8.393c0,4.636,3.758,8.393,8.393,8.393H285.377z"/>
			<path style="fill:#428DFF;" d="M93.266,315.291c-3.787,23.373,3.641,47.166,20.053,64.234c8.15,8.555,12.66,19.939,12.582,31.754
				c0.015,13.9,11.28,25.165,25.18,25.18h33.574c13.9-0.015,25.165-11.28,25.18-25.18c-0.159-11.694,4.259-22.986,12.312-31.467
				c14.29-14.75,21.95-34.687,21.214-55.21s-9.806-39.86-25.115-53.548c-20.578-18.423-49.568-24.148-75.604-14.933
				C116.605,265.337,97.673,288.025,93.266,315.291L93.266,315.291z M167.934,268.586c14.445-0.044,28.389,5.295,39.111,14.975
				c11.909,10.641,18.965,25.676,19.54,41.636c0.575,15.96-5.382,31.464-16.495,42.933c-11.095,11.607-17.21,27.092-17.041,43.148
				c-0.006,4.633-3.76,8.387-8.393,8.393h-33.574c-4.634-0.007-8.389-3.763-8.393-8.398c0.084-16.146-6.101-31.694-17.254-43.369
				c-15.443-16.099-20.424-39.56-12.854-60.544c7.57-20.984,26.382-35.862,48.546-38.394
				C163.387,268.715,165.66,268.587,167.934,268.586L167.934,268.586z"/>
		</g>
	</g>
</g>
<g>
</g>
<g>
</g>
<g>
</g>
<g>
</g>
<g>
</g>
<g>
</g>
<g>
</g>
<g>
</g>
<g>
</g>
<g>
</g>
<g>
</g>
<g>
</g>
<g>
</g>
<g>
</g>
<g>
</g>
</svg>
