<?xml version="1.0" encoding="iso-8859-1"?>
<!-- Generator: Adobe Illustrator 19.0.0, SVG Export Plug-In . SVG Version: 6.00 Build 0)  -->
<svg version="1.1" id="Capa_1" xmlns="http://www.w3.org/2000/svg" xmlns:xlink="http://www.w3.org/1999/xlink" x="0px" y="0px"
	 viewBox="0 0 512.005 512.005" style="enable-background:new 0 0 512.005 512.005;" xml:space="preserve">
<g>
	<g transform="translate(1 1)">
		<g>
			<path style="fill:#A4C2F7;" d="M122.545,502.288c-5.956-7.955-13.676-14.42-22.553-18.887c0.221-2.237,0.343-4.504,0.343-6.799
				c-0.011-32.701-23.24-60.788-55.358-66.935c0.631-3.222,0.952-6.496,0.958-9.779c-0.015-23.331-15.808-43.698-38.4-49.522
				v152.027L122.545,502.288z"/>
			<path style="fill:#A4C2F7;" d="M387.815,502.288c5.956-7.955,13.676-14.42,22.553-18.887c-0.221-2.237-0.343-4.504-0.343-6.799
				c0.011-32.701,23.24-60.788,55.358-66.935c-5.22-26.569,11.21-52.591,37.442-59.301v152.027L387.815,502.288z"/>
		</g>
		<rect x="186.736" y="118.393" style="fill:#D4E1F4;" width="136.533" height="221.867"/>
		<rect x="186.736" y="118.393" style="fill:#F5F5F5;" width="110.933" height="221.867"/>
		<path style="fill:#A4C2F7;" d="M323.269,118.393H186.736c-0.615-6.614-0.27-13.282,1.024-19.797
			c0.069-0.131,0.098-0.279,0.085-0.427c3.755-20.736,16.811-54.528,60.245-85.931c2.219-1.536,4.523-3.157,6.912-4.779
			C331.802,58.66,323.269,118.393,323.269,118.393z"/>
		<path style="fill:#E3E7F2;" d="M298.01,118.393H186.992c-0.475-6.607-0.217-13.247,0.768-19.797
			c0.069-0.131,0.098-0.279,0.085-0.427c3.755-20.736,16.811-54.528,60.245-85.931C304.496,62.329,298.01,118.393,298.01,118.393z"
			/>
		<rect x="186.736" y="340.26" style="fill:#A4C2F7;" width="136.533" height="51.2"/>
		<g>
			<rect x="186.736" y="340.26" style="fill:#E3E7F2;" width="110.933" height="51.2"/>
			<path style="fill:#E3E7F2;" d="M186.736,246.393l-55.511,63.441c-2.722,3.111-4.223,7.105-4.223,11.238v103.034
				c0,3.333,1.94,6.36,4.968,7.753c3.028,1.393,6.589,0.895,9.119-1.274l45.647-39.126V246.393z"/>
			<path style="fill:#E3E7F2;" d="M323.269,246.393l55.511,63.441c2.722,3.111,4.223,7.105,4.223,11.238v103.034
				c0,3.333-1.94,6.36-4.968,7.753s-6.589,0.895-9.119-1.274l-45.647-39.126V246.393z"/>
			<circle style="fill:#E3E7F2;" cx="255.002" cy="220.793" r="34.133"/>
		</g>
		<polygon style="fill:#D4E1F4;" points="319.002,391.46 284.869,434.127 250.736,434.127 259.269,434.127 225.136,434.127 
			191.002,391.46 		"/>
		<path style="fill:#E3E7F2;" d="M285.155,434.127c5.377,0.664,9.929,4.282,11.791,9.369c1.862,5.088,0.719,10.789-2.96,14.767
			l-32.588,36.891c-1.62,1.834-3.949,2.884-6.395,2.884s-4.776-1.05-6.395-2.884l-32.588-36.891
			c-3.678-3.977-4.821-9.679-2.959-14.766c1.862-5.088,6.414-8.705,11.791-9.369H285.155z"/>
		<g>
			<path style="fill:#FFFFFF;" d="M250.45,434.297h0.285l-34.133-42.667h-4.267l-12.655,10.848l25.455,31.819h-0.285
				c-5.377,0.664-9.93,4.281-11.791,9.369c-1.862,5.088-0.719,10.789,2.959,14.767l32.589,36.891
				c1.62,1.834,3.949,2.884,6.395,2.884s4.776-1.05,6.395-2.884l6.404-7.251l-26.184-29.641c-3.678-3.977-4.821-9.679-2.959-14.766
				C240.521,438.579,245.074,434.961,250.45,434.297z"/>
			<path style="fill:#FFFFFF;" d="M33.136,366.465c-6.739-7.761-15.66-13.311-25.6-15.929v152.027l25.6-0.023V366.465z"/>
			<path style="fill:#FFFFFF;" d="M141.089,430.756l11.513-9.868v-99.645c0-4.134,1.501-8.127,4.223-11.238l55.51-63.441v-128
				c-0.615-6.614-0.27-13.282,1.024-19.797c0.069-0.131,0.099-0.279,0.085-0.427c3.578-19.76,15.667-51.373,54.377-81.479
				c-3.99-3.097-8.244-6.179-12.82-9.23c-2.389,1.621-4.693,3.243-6.912,4.779C204.656,43.812,191.6,77.604,187.845,98.34
				c0.013,0.147-0.016,0.296-0.085,0.427c-1.294,6.515-1.639,13.183-1.024,19.797v128l-55.51,63.441
				c-2.722,3.111-4.223,7.105-4.223,11.239v103.034c0,3.333,1.94,6.36,4.968,7.753C134.998,433.422,138.559,432.925,141.089,430.756
				z"/>
		</g>
	</g>
	<g>
		<polygon style="fill:#FFFFFF;" points="196.269,119.393 196.269,230.327 196.269,341.26 179.202,341.26 179.202,230.327 
			179.202,119.393 		"/>
		<g>
			<path style="fill:#428DFF;" d="M381.652,498.143c-2.812,3.761-2.057,9.087,1.689,11.919c3.747,2.832,9.077,2.104,11.928-1.628
				c5.167-6.894,11.854-12.503,19.541-16.392c0.049-0.024,0.076-0.072,0.125-0.097c0.574-0.344,1.104-0.757,1.58-1.228
				c0.362-0.256,0.705-0.54,1.024-0.848c0.545-0.937,1.07-1.886,1.574-2.846c0.086-0.416,0.142-0.838,0.167-1.262
				c0.153-0.672,0.223-1.359,0.207-2.048c-0.004-0.052,0.02-0.098,0.015-0.151c-0.192-1.963-0.3-3.95-0.3-5.962
				c0.014-28.602,20.33-53.168,48.421-58.55l0.007-0.003l0.014-0.002c0.484-0.148,0.953-0.341,1.402-0.577
				c0.598-0.175,1.176-0.412,1.724-0.709c0.416-0.34,0.799-0.72,1.142-1.134c0.429-0.351,0.822-0.744,1.175-1.171
				c0.273-0.496,0.497-1.018,0.668-1.557c0.251-0.463,0.458-0.948,0.617-1.45c0.062-0.568,0.069-1.141,0.02-1.711
				c0.064-0.553,0.07-1.112,0.019-1.666l-0.004-0.01v-0.01c-0.526-2.689-0.795-5.422-0.804-8.162
				c0.007-19.443,13.171-36.416,32-41.262c2.952-0.762,5.273-3.041,6.089-5.979c0.816-2.938,0.003-6.087-2.133-8.262
				c-2.136-2.175-5.27-3.046-8.222-2.284c-26.365,6.791-44.794,30.562-44.8,57.788c0,1.099,0.1,2.219,0.165,3.331
				c-32.369,9.767-54.53,39.571-54.565,73.381c0,0.682,0.083,1.342,0.102,2.019C394.269,484.441,387.284,490.726,381.652,498.143z"
				/>
			<path style="fill:#428DFF;" d="M502.186,451.135c-26.153,4.401-46.697,24.8-51.283,50.921c-0.736,4.655,2.438,9.026,7.092,9.767
				c0.445,0.069,0.895,0.104,1.346,0.104c4.193-0.005,7.762-3.055,8.421-7.196c3.473-18.754,18.213-33.386,36.992-36.721
				c4.66-0.709,7.863-5.061,7.154-9.721C511.198,453.629,506.846,450.426,502.186,451.135L502.186,451.135z"/>
			<path style="fill:#428DFF;" d="M6.402,359.627c18.829,4.846,31.993,21.82,32,41.262c-0.009,2.74-0.278,5.473-0.804,8.163v0.01
				l-0.004,0.01c-0.051,0.555-0.045,1.113,0.019,1.666c-0.049,0.57-0.042,1.143,0.02,1.711c0.16,0.502,0.366,0.987,0.617,1.45
				c0.171,0.54,0.395,1.061,0.668,1.557c0.353,0.428,0.746,0.82,1.175,1.171c0.343,0.414,0.726,0.794,1.142,1.134
				c0.548,0.297,1.126,0.534,1.724,0.709c0.448,0.236,0.917,0.429,1.402,0.577l0.014,0.002l0.007,0.003
				c28.091,5.382,48.407,29.948,48.421,58.55c0,2.012-0.108,4-0.3,5.962c-0.005,0.053,0.019,0.098,0.015,0.151
				c-0.016,0.689,0.054,1.376,0.207,2.048c0.025,0.424,0.081,0.846,0.167,1.262c0.504,0.96,1.029,1.909,1.574,2.846
				c0.319,0.308,0.662,0.592,1.024,0.848c0.475,0.471,1.006,0.884,1.58,1.228c0.048,0.025,0.076,0.072,0.125,0.097
				c7.688,3.889,14.375,9.498,19.541,16.392c2.851,3.732,8.181,4.459,11.928,1.628c3.747-2.832,4.501-8.158,1.689-11.919
				c-5.632-7.418-12.616-13.703-20.585-18.523c0.018-0.677,0.102-1.337,0.102-2.019c-0.035-33.811-22.196-63.614-54.565-73.381
				c0.065-1.113,0.165-2.233,0.165-3.331c-0.006-27.226-18.435-50.997-44.8-57.788c-4.563-1.178-9.218,1.566-10.396,6.129
				C-0.905,353.794,1.839,358.449,6.402,359.627L6.402,359.627z"/>
			<path style="fill:#428DFF;" d="M9.819,451.135c-4.66-0.709-9.012,2.494-9.721,7.154c-0.709,4.66,2.494,9.012,7.154,9.721
				c18.779,3.334,33.519,17.967,36.992,36.721c0.659,4.141,4.228,7.19,8.421,7.196c0.451,0,0.901-0.035,1.346-0.104
				c4.654-0.741,7.828-5.112,7.092-9.767C56.516,475.935,35.972,455.536,9.819,451.135z"/>
			<path style="fill:#428DFF;" d="M187.736,196.193c3.45-0.014,6.556-2.096,7.879-5.282c1.323-3.187,0.606-6.856-1.82-9.31
				l-1.279-1.025c-0.476-0.324-0.993-0.583-1.538-0.771c-0.484-0.246-1.002-0.417-1.537-0.508c-0.564-0.096-1.133-0.153-1.705-0.17
				c-2.259,0.031-4.423,0.915-6.059,2.475c-2.07,1.994-2.979,4.908-2.409,7.726c0.57,2.818,2.539,5.149,5.222,6.183
				C185.517,195.948,186.619,196.18,187.736,196.193z"/>
			<path style="fill:#428DFF;" d="M124.436,451.414c3.029,1.391,6.59,0.893,9.121-1.275l53.032-45.456l21.347,26.684
				c-3.097,2.414-5.514,5.592-7.013,9.222c-3.609,8.462-1.657,18.272,4.917,24.708l44.13,44.129c1.6,1.601,3.77,2.5,6.033,2.5
				s4.433-0.899,6.033-2.5l44.129-44.129c5.443-5.438,7.754-13.266,6.139-20.789c-1.615-7.522-6.937-13.711-14.132-16.436
				l21.663-27.079h1.276l57.337,49.146c2.53,2.17,6.092,2.668,9.12,1.275s4.968-4.421,4.967-7.754v-128
				c0-2.068-0.751-4.065-2.113-5.621l-57.621-65.853V119.873c0.824-7.46,4.771-67.288-72.067-118.513l-0.01-0.004
				c-0.935-0.622-1.985-1.053-3.087-1.269c-1.092-0.011-2.185-0.011-3.277,0c-1.102,0.216-2.15,0.648-3.085,1.27l-0.007,0.003
				c-76.838,51.225-72.891,111.053-72.067,118.513v33.654c0,4.713,3.82,8.533,8.533,8.533s8.533-3.821,8.533-8.533v-25.6h119.467
				v204.8H196.269V221.793c0-4.713-3.821-8.533-8.533-8.533s-8.533,3.821-8.533,8.533v22.393l-57.621,65.853
				c-1.362,1.556-2.112,3.553-2.113,5.621v128C119.47,446.992,121.409,450.019,124.436,451.414z M294.098,453.231l-38.096,38.096
				l-38.096-38.096c-1.605-1.603-2.085-4.014-1.218-6.11c0.868-2.095,2.912-3.462,5.18-3.461h68.267
				c2.268-0.001,4.313,1.366,5.18,3.461C296.184,449.216,295.703,451.628,294.098,453.231L294.098,453.231z M277.502,426.593
				h-51.533l-20.481-25.6h92.495L277.502,426.593z M375.469,318.868v106.237l-42.667-36.571V270.106L375.469,318.868z
				 M196.071,110.86c0.713-15.91,8.271-55.38,59.936-91.897c51.91,36.662,59.355,75.923,59.978,91.897H196.071z M315.736,383.927
				H196.269v-34.133h119.467V383.927z M136.536,318.868l42.667-48.763v118.429l-42.667,36.571V318.868z"/>
			<path style="fill:#428DFF;" d="M298.669,221.793c0-23.564-19.103-42.667-42.667-42.667c-23.564,0-42.667,19.103-42.667,42.667
				s19.103,42.667,42.667,42.667C279.555,264.432,298.641,245.346,298.669,221.793z M230.402,221.793
				c0-14.139,11.462-25.6,25.6-25.6c14.139,0,25.6,11.462,25.6,25.6c0,14.138-11.461,25.6-25.6,25.6
				C241.87,247.378,230.418,235.925,230.402,221.793z"/>
		</g>
	</g>
</g>
<g>
</g>
<g>
</g>
<g>
</g>
<g>
</g>
<g>
</g>
<g>
</g>
<g>
</g>
<g>
</g>
<g>
</g>
<g>
</g>
<g>
</g>
<g>
</g>
<g>
</g>
<g>
</g>
<g>
</g>
</svg>
