<?xml version="1.0" encoding="iso-8859-1"?>
<!-- Generator: Adobe Illustrator 19.0.0, SVG Export Plug-In . SVG Version: 6.00 Build 0)  -->
<svg version="1.1" id="Capa_1" xmlns="http://www.w3.org/2000/svg" xmlns:xlink="http://www.w3.org/1999/xlink" x="0px" y="0px"
	 viewBox="0 0 503.924 503.924" style="enable-background:new 0 0 503.924 503.924;" xml:space="preserve">
<g transform="translate(0 -1)">
	<g transform="translate(1 1)">
		<path style="fill:#A4C2F7;" d="M158.298,495.539l-142.269-0.001c-2.472,0.029-4.83-1.041-6.435-2.922s-2.292-4.377-1.874-6.814
			c5.372-26.523,31.979-51.032,62.279-56.488c4.125-0.769,8.311-1.163,12.506-1.175
			C121.535,428.139,158.298,461.881,158.298,495.539z"/>
		<path style="fill:#E3E7F2;" d="M133.118,495.539l-117.089-0.001c-2.472,0.029-4.83-1.041-6.435-2.922s-2.292-4.377-1.874-6.814
			c5.372-26.523,31.979-51.032,62.279-56.488C103.993,435.526,133.118,465.574,133.118,495.539z"/>
		<path style="fill:#A4C2F7;" d="M343.625,495.539H158.298c0-29.629,34.833-65.805,75.709-74.114
			c5.584-1.107,11.262-1.669,16.955-1.679C298.637,419.746,343.625,461.881,343.625,495.539z"/>
		<path style="fill:#E3E7F2;" d="M318.109,495.539H158.298c0-29.629,36.763-65.805,79.906-74.114
			C281.345,429.734,318.109,465.91,318.109,495.539z"/>
		<path style="fill:#A4C2F7;" d="M485.894,495.539l-142.269,0.001c0-29.965,29.125-60.014,63.119-66.225
			c4.181-0.773,8.423-1.167,12.674-1.175c35.252,0,68.658,27.53,74.786,57.663c0.418,2.437-0.269,4.934-1.874,6.814
			C490.724,494.498,488.367,495.568,485.894,495.539z"/>
		<g>
			<path style="fill:#E3E7F2;" d="M460.714,495.539l-117.089,0.001c0-29.965,29.125-60.014,63.119-66.225
				c30.3,5.456,56.908,29.965,62.279,56.488c0.418,2.437-0.269,4.934-1.874,6.814C465.544,494.498,463.186,495.568,460.714,495.539z
				"/>
			<path style="fill:#E3E7F2;" d="M284.536,58.744h-67.148c0-26.859,33.574-50.361,33.574-50.361S284.536,31.885,284.536,58.744z"/>
		</g>
		<rect x="217.388" y="58.744" style="fill:#D4E1F4;" width="67.148" height="100.721"/>
		<rect x="217.388" y="58.744" style="fill:#F5F5F5;" width="41.967" height="100.721"/>
		<g>
			<polygon style="fill:#E3E7F2;" points="217.388,117.498 217.388,192.452 183.814,226.613 183.814,151.072 			"/>
			<polygon style="fill:#E3E7F2;" points="318.109,151.072 318.109,226.613 284.536,192.452 284.536,117.498 			"/>
			<path style="fill:#E3E7F2;" d="M284.536,201.349c0,13.43-33.574,58.838-33.574,58.838s-33.574-45.409-33.574-58.838
				c-0.011-2.839,0.681-5.636,2.014-8.142h63.119C283.854,195.713,284.546,198.51,284.536,201.349z"/>
		</g>
		<rect x="217.388" y="159.465" style="fill:#A4C2F7;" width="67.148" height="33.574"/>
		<rect x="217.388" y="159.465" style="fill:#E3E7F2;" width="41.967" height="33.574"/>
		<g>
			<path style="fill:#7FABFA;" d="M477.585,369.469c0.011,15.586-6.175,30.537-17.196,41.558
				c-11.021,11.021-25.972,17.207-41.558,17.196c-4.232-0.014-8.451-0.464-12.59-1.343c-26.959-5.925-46.164-29.809-46.164-57.411
				c0-27.602,19.205-51.486,46.164-57.411c4.139-0.879,8.358-1.329,12.59-1.343c15.586-0.011,30.537,6.175,41.558,17.196
				C471.41,338.932,477.596,353.883,477.585,369.469z"/>
			<path style="fill:#7FABFA;" d="M318.109,352.682c0.005,17.81-7.068,34.892-19.662,47.486
				c-12.594,12.594-29.676,19.667-47.486,19.662c-4.224-0.005-8.438-0.398-12.59-1.175c-31.66-6.051-54.558-33.739-54.558-65.972
				s22.898-59.922,54.558-65.972c4.152-0.777,8.366-1.17,12.59-1.175c17.81-0.005,34.892,7.068,47.486,19.662
				S318.114,334.872,318.109,352.682z"/>
		</g>
		<ellipse style="fill:#E3E7F2;" cx="238.372" cy="352.682" rx="54.557" ry="65.972"/>
		<path style="fill:#7FABFA;" d="M141.847,369.469c0.011,15.586-6.175,30.537-17.196,41.558
			c-11.021,11.021-25.972,17.207-41.558,17.196c-4.232-0.014-8.451-0.464-12.59-1.343c-26.959-5.925-46.164-29.809-46.164-57.411
			c0-27.602,19.205-51.486,46.164-57.411c4.139-0.879,8.358-1.329,12.59-1.343c15.586-0.011,30.537,6.175,41.558,17.196
			C135.672,338.932,141.858,353.883,141.847,369.469z"/>
		<g>
			<ellipse style="fill:#D4E1F4;" cx="406.24" cy="369.469" rx="46.164" ry="57.411"/>
			<ellipse style="fill:#D4E1F4;" cx="70.503" cy="369.469" rx="46.164" ry="57.411"/>
		</g>
	</g>
	<g transform="translate(1 2)">
		<polygon style="fill:#FFFFFF;" points="242.568,192.207 242.568,191.619 241.989,192.207 		"/>
		<path style="fill:#FFFFFF;" d="M208.995,150.24l33.574-33.574V57.912c0-15.698,11.452-30.208,20.984-39.591
			c-3.927-3.894-8.135-7.494-12.59-10.77c0,0-33.574,23.502-33.574,50.361v58.754l-33.574,33.574v75.541l25.18-25.621V150.24z"/>
		<path style="fill:#FFFFFF;" d="M16.029,494.707h25.18c-2.472,0.029-4.83-1.041-6.435-2.922c-1.605-1.881-2.292-4.377-1.874-6.814
			c5.352-26.43,31.794-50.848,61.962-56.417c-3.715-0.696-7.48-1.093-11.259-1.187c4.036-0.036,8.058-0.486,12.003-1.342
			c-26.923-5.952-46.088-29.819-46.086-57.392c0.002-27.573,19.171-51.437,46.095-57.385c-4.113-0.9-8.311-1.358-12.521-1.364
			c-4.232,0.014-8.451,0.464-12.59,1.343c-26.959,5.925-46.164,29.809-46.164,57.411c0,27.602,19.205,51.486,46.164,57.411
			c3.788,0.784,7.641,1.214,11.508,1.283c-4.03,0.035-8.049,0.42-12.012,1.151c-30.3,5.456-56.908,29.965-62.279,56.488
			c-0.418,2.437,0.269,4.934,1.874,6.814C11.199,493.665,13.557,494.736,16.029,494.707z"/>
	</g>
	<path style="fill:#428DFF;" d="M17.044,504.924H486.88c5.106,0.007,9.942-2.289,13.164-6.25c3.118-3.779,4.366-8.763,3.398-13.566
		c-6.71-25.722-25.092-46.81-49.657-56.968c24.806-14.509,37.606-43.213,31.822-71.362c-5.784-28.149-28.865-49.481-57.382-53.033
		v-76.124c-0.027-23.167-18.801-41.94-41.967-41.967h-58.754V152.08c-0.001-2.226-0.885-4.36-2.459-5.934l-31.115-31.115V59.752
		c0-30.841-35.631-56.173-37.152-57.234c-2.891-2.025-6.74-2.025-9.631,0c-1.52,1.061-37.152,26.393-37.152,57.234v55.279
		l-31.115,31.114c-1.574,1.574-2.459,3.708-2.459,5.934v33.574h-58.754c-23.167,0.027-41.94,18.801-41.967,41.967v76.124
		c-28.517,3.552-51.599,24.884-57.383,53.033s7.016,56.854,31.823,71.363C25.573,438.3,7.191,459.389,0.482,485.113
		c-0.968,4.801,0.28,9.783,3.398,13.561C7.102,502.635,11.938,504.931,17.044,504.924z M168.79,488.137
		c6.803-27.373,44.603-59.016,83.172-59.016s76.369,31.643,83.172,59.016H168.79z M226.781,168.867h50.361v16.787h-50.361V168.867z
		 M277.142,118.506v33.574h-50.361V68.146h50.361V118.506z M277.13,202.6c-0.422,5.906-12.291,25.783-25.168,44.213
		c-12.881-18.43-24.75-38.303-25.168-44.213H277.13z M251.962,294.769c32.449,0,58.754,26.305,58.754,58.754
		s-26.305,58.754-58.754,58.754s-58.754-26.305-58.754-58.754C193.244,321.089,219.528,294.805,251.962,294.769z M487.048,488.051
		c-0.044,0.048-0.103,0.079-0.168,0.086H353.867c5.447-26.631,35.738-50.594,66.545-50.594
		C450.355,437.543,481.466,461.334,487.048,488.051z M470.191,370.31c0,27.813-22.547,50.361-50.361,50.361
		c-27.813,0-50.361-22.547-50.361-50.361c0-27.813,22.547-50.361,50.361-50.361C447.631,319.979,470.161,342.509,470.191,370.31z
		 M386.257,202.441c13.9,0.015,25.165,11.28,25.18,25.18v76.124c-28.601,3.565-51.723,25.01-57.428,53.261
		c-5.705,28.252,7.284,56.988,32.259,71.372c-17.84,7.874-32.628,21.346-42.126,38.376c-12.847-21.425-32.417-38.002-55.663-47.151
		c28.799-15.889,43.996-48.595,37.568-80.852c-6.428-32.257-33.002-56.639-65.692-60.274v-14.534
		c12.37-16.178,22.907-33.679,31.417-52.182l21.35,21.741c2.388,2.433,6.01,3.179,9.165,1.889c3.155-1.29,5.216-4.361,5.216-7.77
		v-25.18H386.257z M310.716,155.555v51.541l-16.787-17.094v-51.234L310.716,155.555z M251.974,19.994
		c10.483,8.216,18.639,19.028,23.658,31.365h-47.329C233.349,39.033,241.505,28.227,251.974,19.994z M193.208,155.555l16.787-16.787
		v51.234l-16.787,17.094V155.555z M117.667,202.441h58.754v25.18c0,3.409,2.061,6.479,5.216,7.769
		c3.155,1.29,6.777,0.544,9.165-1.888l21.35-21.741c8.51,18.503,19.046,36.004,31.417,52.182v14.534
		c-32.69,3.635-59.264,28.017-65.692,60.274c-6.428,32.257,8.769,64.964,37.568,80.852c-23.246,9.149-42.816,25.726-55.663,47.151
		c-9.498-17.03-24.286-30.502-42.126-38.376c24.976-14.384,37.965-43.121,32.26-71.372c-5.705-28.252-28.827-49.696-57.428-53.261
		v-76.124C92.502,213.721,103.766,202.456,117.667,202.441z M33.732,370.31c0-27.813,22.547-50.361,50.361-50.361
		s50.361,22.547,50.361,50.361c0,27.813-22.547,50.361-50.361,50.361C56.292,420.64,33.763,398.111,33.732,370.31z M83.511,437.543
		c30.816,0,61.115,23.975,66.549,50.615l-133.127,0.303C22.458,461.334,53.568,437.543,83.511,437.543L83.511,437.543z"/>
</g>
<g>
</g>
<g>
</g>
<g>
</g>
<g>
</g>
<g>
</g>
<g>
</g>
<g>
</g>
<g>
</g>
<g>
</g>
<g>
</g>
<g>
</g>
<g>
</g>
<g>
</g>
<g>
</g>
<g>
</g>
</svg>
