<?xml version="1.0" encoding="UTF-8"?>
<svg xmlns="http://www.w3.org/2000/svg" xmlns:xlink="http://www.w3.org/1999/xlink" width="512" height="512" viewBox="0 0 60 60" version="1.1"><!-- Generator: Sketch 49.3 (51167) - http://www.bohemiancoding.com/sketch --><title>050 - Power Supplies</title><desc>Created with Sketch.</desc><defs/><g id="Page-1" stroke="none" stroke-width="1" fill="none" fill-rule="evenodd"><g id="050---Power-Supplies" fill-rule="nonzero"><g id="Colours" transform="translate(0.000000, 1.000000)"><path d="M8.99999984,12.9999998 C8.73473703,13.0001512 8.48029522,12.8948429 8.29272606,12.7072737 C8.1051569,12.5197046 7.99984867,12.2652627 8,11.9999999 L8,7.99999997 C8,7.44771524 8.44771518,7 8.99999984,7 C9.5522845,7 9.99999967,7.44771524 9.99999967,7.99999997 L9.99999967,11.9999999 C10.000151,12.2652627 9.89484278,12.5197046 9.70727361,12.7072737 C9.51970445,12.8948429 9.26526265,13.0001512 8.99999984,12.9999998 Z" id="Shape" fill="#5E5F62"/><path d="M29.9999998,38.9999998 C29.734737,39.0001512 29.4802951,38.8948429 29.292726,38.7072737 C29.1051568,38.5197045 28.9998485,38.2652627 28.9999999,37.9999999 L28.9999999,33.9999999 C28.9996303,33.4478683 28.5521315,33.0003695 27.9999999,32.9999999 L11,32.9999999 C9.3438951,32.9981922 8.00180771,31.6561048 8,30 L8,28 C8,27.4477152 8.44771525,27 8.99999999,27 C9.55228474,27 9.99999999,27.4477152 9.99999999,28 L9.99999999,30 C10.0003695,30.5521316 10.4478684,30.9996304 11,30.9999999 L27.9999999,30.9999999 C29.6561047,31.0018077 30.9981921,32.343895 30.9999998,33.9999999 L30.9999998,37.9999999 C31.0001512,38.2652627 30.8948429,38.5197045 30.7072737,38.7072737 C30.5197045,38.8948429 30.2652627,39.0001512 29.9999998,38.9999998 Z" id="Shape" fill="#5E5F62"/><path d="M14,2.41 L14,7 C13.9984017,7.55162138 13.5516214,7.99840175 13,8 L5,8 C4.44837862,7.99840175 4.00159825,7.55162138 4,7 L4,2.41 C4.00202354,2.14784579 4.10603683,1.89677922 4.29,1.71 L5.71,0.29 C5.89679582,0.106061866 6.14785176,0.00205297423 6.41,0 L11.59018,0 C11.8523109,0.00206593461 12.1033466,0.106073861 12.29013,0.29 L13.71,1.71 C13.8939632,1.89677922 13.9979765,2.14784579 14,2.41 Z" id="Shape" fill="#E3E7F2"/><path d="M17.0000047,19.9999997 C17.0005725,22.1219056 16.1578999,24.1570667 14.6574853,25.6574808 C13.1570708,27.1578949 11.1219089,28.0005673 9.00000234,27.9999994 C8.32561734,27.9988171 7.65392749,27.9148559 7.00000176,27.7499994 C3.46747056,26.8360017 1.00000499,23.6488571 1.00000499,19.9999997 C1.00000499,16.3511423 3.46747056,13.1639977 7.00000176,12.25 C7.65392199,12.0851142 8.32561546,12.0011526 9.00000234,12 C11.1219122,11.9994215 13.1570802,12.8420905 14.6574971,14.3425069 C16.1579139,15.8429232 17.0005831,17.8780906 17.0000047,19.9999997 Z" id="Shape" fill="#A4C2F7"/><path d="M50.9999998,12.9999998 C50.734737,13.0001512 50.4802952,12.8948429 50.2927261,12.7072737 C50.1051569,12.5197046 49.9998487,12.2652627 50,11.9999999 L50,7.99999997 C50,7.44771524 50.4477152,7 50.9999998,7 C51.5522845,7 51.9999997,7.44771524 51.9999997,7.99999997 L51.9999997,11.9999999 C52.000151,12.2652627 51.8948428,12.5197046 51.7072736,12.7072737 C51.5197045,12.8948429 51.2652626,13.0001512 50.9999998,12.9999998 Z" id="Shape" fill="#5E5F62"/><path d="M30,38.9999998 C29.7347371,39.0001512 29.4802953,38.8948429 29.2927261,38.7072737 C29.1051569,38.5197045 28.9998487,38.2652627 29,37.9999999 L29,33.9999999 C29.0018077,32.343895 30.3438951,31.0018077 32,30.9999999 L48.9999999,30.9999999 C49.5521315,30.9996304 49.9996303,30.5521316 49.9999999,30 L49.9999999,28 C49.9999999,27.4477152 50.4477151,27 50.9999998,27 C51.5522846,27 51.9999998,27.4477152 51.9999998,28 L51.9999998,30 C51.9981921,31.6561048 50.6561047,32.9981922 48.9999999,32.9999999 L32,32.9999999 C31.4478684,33.0003695 31.0003695,33.4478683 31,33.9999999 L31,37.9999999 C31.0001513,38.2652627 30.8948431,38.5197045 30.7072739,38.7072737 C30.5197047,38.8948429 30.2652628,39.0001512 30,38.9999998 Z" id="Shape" fill="#5E5F62"/><path d="M56,2.41 L56,7 C55.9984017,7.55162138 55.5516214,7.99840175 55,8 L47,8 C46.4483786,7.99840175 46.0015983,7.55162138 46,7 L46,2.41 C46.0020235,2.14784579 46.1060368,1.89677922 46.29,1.71 L47.71,0.29 C47.8967958,0.106061866 48.1478518,0.00205297423 48.41,-1.11022302e-16 L53.59018,-1.11022302e-16 C53.8523282,0.00205297423 54.1033842,0.106061866 54.29018,0.29 L55.71,1.71 C55.8939632,1.89677922 55.9979765,2.14784579 56,2.41 Z" id="Shape" fill="#E3E7F2"/><path d="M59.0000047,19.9999997 C59.0005725,22.1219056 58.1578999,24.1570667 56.6574853,25.6574808 C55.1570708,27.1578949 53.1219089,28.0005673 51.0000023,27.9999994 C50.3256173,27.9988171 49.6539275,27.9148559 49.0000018,27.7499994 C45.4674706,26.8360017 43.000005,23.6488571 43.000005,19.9999997 C43.000005,16.3511423 45.4674706,13.1639977 49.0000018,12.25 C49.653922,12.0851142 50.3256155,12.0011526 51.0000023,12 C53.1219122,11.9994215 55.1570802,12.8420905 56.6574971,14.3425069 C58.1579139,15.8429232 59.0005831,17.8780906 59.0000047,19.9999997 Z" id="Shape" fill="#A4C2F7"/><ellipse id="Oval" fill="#E3E7F2" cx="7" cy="20" rx="6" ry="7.75"/><ellipse id="Oval" fill="#E3E7F2" cx="49" cy="20" rx="6" ry="7.75"/><rect id="Rectangle-path" fill="#A4C2F7" x="1" y="38" width="58" height="20" rx="2"/><path d="M55,40 L55,56 C55.0335357,57.0647777 54.2023872,57.9574921 53.13793,58 L2.86207,58 C1.79761277,57.9574921 0.966464339,57.0647777 1,56 L1,40 C0.966442291,38.9352141 1.79760294,38.0424865 2.86207,38 L53.13793,38 C54.2023971,38.0424865 55.0335577,38.9352141 55,40 Z" id="Shape" fill="#E3E7F2"/><path d="M24,42 L24,54 L36,54 L36,42 L24,42 Z M30,50 C28.8954305,50 28,49.1045695 28,48 C28,46.8954305 28.8954305,46 30,46 C31.1045695,46 32,46.8954305 32,48 C31.9967543,49.1032223 31.1032223,49.9967543 30,50 Z" id="Shape" fill="#E3E7F2"/><path d="M9,42 L9,48 C9,46.8954305 8.1045695,46 7,46 C5.8954305,46 5,46.8954305 5,48 L5,43 C5.0016474,42.4483991 5.44839907,42.0016474 6,42 L9,42 Z" id="Shape" fill="#A4C2F7"/><path d="M9,48 L9,54 L6,54 C5.44839907,53.9983526 5.0016474,53.5516009 5,53 L5,48 C5,49.1045695 5.8954305,50 7,50 C8.1045695,50 9,49.1045695 9,48 Z" id="Shape" fill="#A4C2F7"/><path d="M55,43 L55,48 C55,46.8954305 54.1045695,46 53,46 C51.8954305,46 51,46.8954305 51,48 L51,42 L54,42 C54.5516009,42.0016474 54.9983526,42.4483991 55,43 Z" id="Shape" fill="#A4C2F7"/><path d="M55,48 L55,53 C54.9983526,53.5516009 54.5516009,53.9983526 54,54 L51,54 L51,48 C51,49.1045695 51.8954305,50 53,50 C54.1045695,50 55,49.1045695 55,48 Z" id="Shape" fill="#A4C2F7"/><rect id="Rectangle-path" fill="#7F8C8D" x="9" y="48" width="15" height="6"/><rect id="Rectangle-path" fill="#A4C2F7" x="9" y="42" width="15" height="6"/><circle id="Oval" fill="#E3E7F2" cx="7" cy="48" r="2"/><rect id="Rectangle-path" fill="#A4C2F7" x="36" y="42" width="15" height="6"/><rect id="Rectangle-path" fill="#E3E7F2" x="9" y="42" width="11" height="6"/><rect id="Rectangle-path" fill="#E3E7F2" x="36" y="42" width="11" height="6"/><rect id="Rectangle-path" fill="#A4C2F7" x="9" y="48" width="15" height="6"/><rect id="Rectangle-path" fill="#A4C2F7" x="36" y="48" width="15" height="6"/><rect id="Rectangle-path" fill="#E3E7F2" x="9" y="48" width="11" height="6"/><rect id="Rectangle-path" fill="#E3E7F2" x="36" y="48" width="11" height="6"/><circle id="Oval" fill="#E3E7F2" cx="53" cy="48" r="2"/><circle id="Oval" fill="#E3E7F2" cx="30" cy="48" r="2"/></g><g id="White" transform="translate(0.000000, 1.000000)" fill="#FFFFFF"><path d="M8,8 L5,8 C4.44837862,7.99840175 4.00159825,7.55162138 4,7 L4,2.41 C4.00202354,2.14784579 4.10603683,1.89677922 4.29,1.71 L5.71,0.29 C5.89679582,0.106061866 6.14785176,0.00205297423 6.41,0 L9.41,0 C9.14785176,0.00205297423 8.89679582,0.106061866 8.71,0.29 L7.29,1.71 C7.10603683,1.89677922 7.00202354,2.14784579 7,2.41 L7,7 C7.00159825,7.55162138 7.44837862,7.99840175 8,8 Z" id="Shape"/><path d="M1,20 C1.0002511,16.3512267 3.46761353,13.1642169 7,12.25 C7.33008,12.17 7.66992,12.11 8.01,12.06 C8.01,12.04 8,12.02 8,12 L8,8 L10,8 L10,12 C10,12.02 9.99,12.04 9.99,12.07 C10.1482867,12.0860727 10.3053095,12.1128 10.46,12.15 C10.3101,12.18 10.15006,12.21 10,12.25 C6.46746984,13.1639977 4.00000499,16.3511425 4.00000499,20 C4.00000499,23.6488575 6.46746984,26.8360023 10,27.75 C10.15,27.79 10.31006,27.82 10.46,27.85 C10.3053095,27.8872 10.1482867,27.9139273 9.99,27.93 C9.99,27.96 10,27.98 10,28 L10,30 C10.0015983,30.5516214 10.4483786,30.9984017 11,31 L11.17993,31 C11.6028765,32.1956097 12.7317918,32.9962389 14,33 L11,33 C9.34515859,32.9951506 8.00484937,31.6548414 8,30 L8,28 C8,27.98 8.01,27.96 8.01,27.94 C7.66991,27.89 7.33007,27.83 7,27.75 C3.46762994,26.8357582 1.00027932,23.6487637 1,20 Z" id="Shape"/><path d="M5.86,58 L2.86,58 C1.79663445,57.955797 0.967052885,57.0637738 1,56 L1,40 C0.967030923,38.936218 1.79662464,38.0441817 2.86,38 L5.85,38 C4.79017617,38.048606 3.96600018,38.9396071 4,40 L4,56 C3.96705289,57.0637738 4.79663445,57.955797 5.86,58 Z" id="Shape"/><path d="M43,20 C43.0002511,16.3512267 45.4676135,13.1642169 49,12.25 C49.33008,12.17 49.66992,12.11 50.01,12.06 C50.01,12.04 50,12.02 50,12 L50,8 L52,8 L52,12 C52,12.02 51.99,12.04 51.99,12.07 C52.1482867,12.0860727 52.3053095,12.1128 52.46,12.15 C52.3101,12.18 52.15006,12.21 52,12.25 C48.4674698,13.1639977 46.000005,16.3511425 46.000005,20 C46.000005,23.6488575 48.4674698,26.8360023 52,27.75 C52.15,27.79 52.31006,27.82 52.46,27.85 C52.3053095,27.8872 52.1482867,27.9139273 51.99,27.93 C51.99,27.96 52,27.98 52,28 L52,30 C52.0020851,30.3415668 51.9410859,30.6805828 51.82007,31 L49,31 C49.5516214,30.9984017 49.9984017,30.5516214 50,30 L50,28 C50,27.98 50.01,27.96 50.01,27.94 C49.66991,27.89 49.33007,27.83 49,27.75 C45.4676299,26.8357582 43.0002793,23.6487637 43,20 Z" id="Shape"/><path d="M50,8 L47,8 C46.4483786,7.99840175 46.0015983,7.55162138 46,7 L46,2.41 C46.0020235,2.14784579 46.1060368,1.89677922 46.29,1.71 L47.71,0.29 C47.8967958,0.106061866 48.1478518,0.00205297423 48.41,-1.11022302e-16 L51.41,-1.11022302e-16 C51.1478518,0.00205297423 50.8967958,0.106061866 50.71,0.29 L49.29,1.71 C49.1060368,1.89677922 49.0020235,2.14784579 49,2.41 L49,7 C49.0015983,7.55162138 49.4483786,7.99840175 50,8 Z" id="Shape"/></g><g id="Icons" fill="#428DFF"><path d="M9,42 L6,42 C4.89602435,42.0014324 4.00143238,42.8960244 4,44 L4,54 C4.00143238,55.1039756 4.89602435,55.9985676 6,56 L54,56 C55.1039756,55.9985676 55.9985676,55.1039756 56,54 L56,44 C55.9985676,42.8960244 55.1039756,42.0014324 54,42 L9,42 Z M35,54 L25,54 L25,44 L35,44 L35,54 Z M23,44 L23,48 L10,48 L10,44 L23,44 Z M8,44 L8,46.18427 C7.35597037,45.9385762 6.64402963,45.9385762 6,46.18427 L6,44 L8,44 Z M8,49 C8,49.5522847 7.55228475,50 7,50 C6.44771525,50 6,49.5522847 6,49 C6,48.4477153 6.44771525,48 7,48 C7.5521316,48.0003696 7.99963044,48.4478684 8,49 Z M6,51.81567 C6.644015,52.0614225 7.35597025,52.0614438 8,51.81573 L8,54 L6,54 L6,51.81567 Z M10,54 L10,50 L23,50 L23,54 L10,54 Z M37,54 L37,50 L50,50 L50,54 L37,54 Z M52,54 L52,51.81567 C52.6445182,52.0615878 53.357045,52.0614383 54.00146,51.81525 L54.002,54 L52,54 Z M52,49 C52,48.4477153 52.4477153,48 53,48 C53.5522847,48 54,48.4477153 54,49 C54,49.5522847 53.5522847,50 53,50 C52.4478684,49.9996304 52.0003696,49.5521316 52,49 Z M54.00049,46.18439 C53.3563213,45.9385761 52.6441982,45.9385334 52,46.18427 L52,44 L54,44 L54.00049,46.18439 Z M50,44 L50,48 L37,48 L37,44 L50,44 Z" id="Shape"/><path d="M30,52 C31.6568542,52 33,50.6568542 33,49 C33,47.3431458 31.6568542,46 30,46 C28.3431458,46 27,47.3431458 27,49 C27.0018077,50.6561049 28.3438951,51.9981923 30,52 Z M30,48 C30.5522847,48 31,48.4477153 31,49 C31,49.5522847 30.5522847,50 30,50 C29.4477153,50 29,49.5522847 29,49 C29.0003696,48.4478684 29.4478684,48.0003696 30,48 Z" id="Shape"/><path d="M6.99999984,4 C6.73473703,3.99984867 6.48029522,4.10515691 6.29272606,4.29272609 C6.1051569,4.48029527 5.99984867,4.73473711 6,4.99999995 L6,5.99999989 C6,6.55228461 6.44771518,6.99999984 6.99999984,6.99999984 C7.5522845,6.99999984 7.99999967,6.55228461 7.99999967,5.99999989 L7.99999967,4.99999995 C8.000151,4.73473711 7.89484278,4.48029527 7.70727361,4.29272609 C7.51970445,4.10515691 7.26526265,3.99984867 6.99999984,4 Z" id="Shape"/><path d="M10.9999998,6.99999984 C11.2652626,7.00015117 11.5197045,6.89484293 11.7072736,6.70727375 C11.8948428,6.51970456 12.000151,6.26526273 11.9999997,5.99999989 L11.9999997,4.99999995 C11.9999997,4.44771523 11.5522845,4 10.9999998,4 C10.4477152,4 10,4.44771523 10,4.99999995 L10,5.99999989 C9.99984867,6.26526273 10.1051569,6.51970456 10.2927261,6.70727375 C10.4802952,6.89484293 10.734737,7.00015117 10.9999998,6.99999984 Z" id="Shape"/><path d="M11.9873,21.83984 C11.9355888,21.5225726 11.7347262,21.2494105 11.4473,21.10547 L8.68848,19.72559 L10.707,17.707 C11.091453,17.3155191 11.0886083,16.6873575 10.7006254,16.2993746 C10.3126425,15.9113917 9.68448095,15.908547 9.293,16.293 L6.293,19.293 C6.06556276,19.5202208 5.961277,19.8429553 6.01274775,20.1603001 C6.0642185,20.477645 6.26516458,20.7508733 6.55276,20.89456 L9.31155,22.27444 L7.293,24.293 C7.03658586,24.5448109 6.93503292,24.9148595 7.02699993,25.2622771 C7.11896693,25.6096948 7.39030521,25.8810331 7.73772287,25.9730001 C8.08514053,26.0649671 8.45518907,25.9634141 8.707,25.707 L11.707,22.707 C11.9345671,22.479915 12.0388939,22.1571608 11.9873,21.83984 Z" id="Shape"/><path d="M32,34 L49,34 C50.6561049,33.9981923 51.9981923,32.6561049 52,31 L52,29.941 C56.5546244,29.4332361 59.9996192,25.5828406 59.9996192,21 C59.9996192,16.4171594 56.5546244,12.5667639 52,12.059 L52,10 L55,10 C56.1039756,9.99856762 56.9985676,9.10397565 57,8 L57,3.41406 C56.99835,2.88397163 56.787821,2.3758978 56.41406,2 L55,0.58594 C54.6241022,0.212179049 54.1160284,0.00164995145 53.58594,0 L48.41406,0 C47.8839716,0.00164995145 47.3758978,0.212179049 47,0.58594 L45.58594,2 C45.212179,2.3758978 45.00165,2.88397163 45,3.41406 L45,8 C45.0014324,9.10397565 45.8960244,9.99856762 47,10 L50,10 L50,12.059 C45.4453756,12.5667639 42.0003808,16.4171594 42.0003808,21 C42.0003808,25.5828406 45.4453756,29.4332361 50,29.941 L50,31 C49.9996304,31.5521316 49.5521316,31.9996304 49,32 L32,32 C31.2594942,32.0023042 30.5464259,32.2804971 30,32.78027 C29.4535741,32.2804971 28.7405058,32.0023042 28,32 L11,32 C10.4478684,31.9996304 10.0003696,31.5521316 10,31 L10,29.941 C14.5546244,29.4332361 17.9996192,25.5828406 17.9996192,21 C17.9996192,16.4171594 14.5546244,12.5667639 10,12.059 L10,10 L13,10 C14.1039756,9.99856762 14.9985676,9.10397565 15,8 L15,3.41406 C14.99835,2.88397163 14.787821,2.3758978 14.41406,2 L13,0.58594 C12.6241022,0.212179049 12.1160284,0.00164995145 11.58594,0 L6.41406,0 C5.88397163,0.00164995145 5.3758978,0.212179049 5,0.58594 L3.58594,2 C3.21217905,2.3758978 3.00164995,2.88397163 3,3.41406 L3,8 C3.00143238,9.10397565 3.89602435,9.99856762 5,10 L8,10 L8,12.059 C3.44537557,12.5667639 0.000380802191,16.4171594 0.000380802191,21 C0.000380802191,25.5828406 3.44537557,29.4332361 8,29.941 L8,31 C8.00180771,32.6561049 9.34389511,33.9981923 11,34 L28,34 C28.5521316,34.0003696 28.9996304,34.4478684 29,35 L29,38 L3,38 C1.34389511,38.0018077 0.00180771165,39.3438951 -6.66862121e-16,41 L-6.66862121e-16,57 C0.00180771165,58.6561049 1.34389511,59.9981923 3,60 L57,60 C58.6561049,59.9981923 59.9981923,58.6561049 60,57 L60,41 C59.9981923,39.3438951 58.6561049,38.0018077 57,38 L31,38 L31,35 C31.0003696,34.4478684 31.4478684,34.0003696 32,34 Z M47,3.41406 L48.41406,2 L53.58594,2 L55,3.41406 L55,8 L47,8 L47,3.41406 Z M44,21 C44,17.1340068 47.1340068,14 51,14 C54.8659932,14 58,17.1340068 58,21 C58,24.8659932 54.8659932,28 51,28 C47.1359484,27.9953165 44.0046835,24.8640516 44,21 Z M5,3.41406 L6.41406,2 L11.58594,2 L13,3.41406 L13.002,8 L5,8 L5,3.41406 Z M2,21 C2,17.1340068 5.13400675,14 9,14 C12.8659932,14 16,17.1340068 16,21 C16,24.8659932 12.8659932,28 9,28 C5.1359484,27.9953165 2.00468354,24.8640516 2,21 Z M58,41 L58,57 C57.9996304,57.5521316 57.5521316,57.9996304 57,58 L3,58 C2.4478684,57.9996304 2.00036956,57.5521316 2,57 L2,41 C2.00036956,40.4478684 2.4478684,40.0003696 3,40 L57,40 C57.5521316,40.0003696 57.9996304,40.4478684 58,41 Z" id="Shape"/><path d="M52.9999998,6.99999984 C53.2652626,7.00015117 53.5197045,6.89484293 53.7072736,6.70727375 C53.8948428,6.51970456 54.000151,6.26526273 53.9999997,5.99999989 L53.9999997,4.99999995 C53.9999997,4.44771523 53.5522845,4 52.9999998,4 C52.4477152,4 52,4.44771523 52,4.99999995 L52,5.99999989 C51.9998487,6.26526273 52.1051569,6.51970456 52.2927261,6.70727375 C52.4802952,6.89484293 52.734737,7.00015117 52.9999998,6.99999984 Z" id="Shape"/><path d="M48.9999998,4 C48.734737,3.99984867 48.4802952,4.10515691 48.2927261,4.29272609 C48.1051569,4.48029527 47.9998487,4.73473711 48,4.99999995 L48,5.99999989 C48,6.55228461 48.4477152,6.99999984 48.9999998,6.99999984 C49.5522845,6.99999984 49.9999997,6.55228461 49.9999997,5.99999989 L49.9999997,4.99999995 C50.000151,4.73473711 49.8948428,4.48029527 49.7072736,4.29272609 C49.5197045,4.10515691 49.2652626,3.99984867 48.9999998,4 Z" id="Shape"/><path d="M53.9873,21.83984 C53.9355888,21.5225726 53.7347262,21.2494105 53.4473,21.10547 L50.68851,19.72559 L52.707,17.707 C52.9634141,17.4551891 53.0649671,17.0851405 52.9730001,16.7377229 C52.8810331,16.3903052 52.6096948,16.1189669 52.2622771,16.0269999 C51.9148595,15.9350329 51.5448109,16.0365859 51.293,16.293 L48.293,19.293 C48.0655628,19.5202208 47.961277,19.8429553 48.0127477,20.1603001 C48.0642185,20.477645 48.2651646,20.7508733 48.55276,20.89456 L51.31155,22.27444 L49.293,24.293 C49.0365859,24.5448109 48.9350329,24.9148595 49.0269999,25.2622771 C49.1189669,25.6096948 49.3903052,25.8810331 49.7377229,25.9730001 C50.0851405,26.0649671 50.4551891,25.9634141 50.707,25.707 L53.707,22.707 C53.9345671,22.479915 54.0388939,22.1571608 53.9873,21.83984 Z" id="Shape"/></g></g></g></svg>
