<?xml version="1.0" encoding="UTF-8"?>
<svg xmlns="http://www.w3.org/2000/svg" xmlns:xlink="http://www.w3.org/1999/xlink" width="512" height="512" viewBox="0 0 60 60" version="1.1"><!-- Generator: Sketch 49.3 (51167) - http://www.bohemiancoding.com/sketch --><title>049 - Multiple Sites</title><desc>Created with Sketch.</desc><defs/><g id="Page-1" stroke="none" stroke-width="1" fill="none" fill-rule="evenodd"><g id="049---Multiple-Sites" fill-rule="nonzero"><g id="Colours" transform="translate(1.000000, 1.000000)"><path d="M54,29 C54.0009895,35.6307155 51.3673863,41.9901383 46.6787623,46.6787623 C41.9901383,51.3673863 35.6307155,54.0009895 29,54 C28.1649312,54.0018168 27.3303765,53.95842 26.5,53.87 C13.7259653,52.5885799 4,41.8381462 4,29 C4,16.1618538 13.7259653,5.41142007 26.5,4.13 C27.3303741,4.04155017 28.1649305,3.99815324 29,4 C35.6307155,3.99901048 41.9901383,6.63261372 46.6787623,11.3212377 C51.3673863,16.0098617 54.0009895,22.3692845 54,29 Z" id="Shape" fill="#A4C2F7"/><ellipse id="Oval" fill="#E3E7F2" cx="26.5" cy="29" rx="22.5" ry="24.87"/><polygon id="Shape" fill="#E3E7F2" points="16 9 16 13 10 10 10 6"/><polygon id="Shape" fill="#E3E7F2" points="16 17 16 23 12.71 21.35 10 20 10 14"/><polygon id="Shape" fill="#E3E7F2" points="16 13 16 17 10 14 10 10"/><polygon id="Shape" fill="#A4C2F7" points="24 3 24 17 16 23 16 9"/><polygon id="Shape" fill="#E3E7F2" points="24 3 16 9 10 6 18 0"/><polygon id="Shape" fill="#E3E7F2" points="23 44 23 48 17 45 17 41"/><polygon id="Shape" fill="#E3E7F2" points="23 48 23 52 17 49 17 45"/><polygon id="Shape" fill="#E3E7F2" points="23 52 23 58 17 55 17 49"/><polygon id="Shape" fill="#E3E7F2" points="31 38 23 44 17 41 25 35"/><polygon id="Shape" fill="#A4C2F7" points="31 38 31 52 28.36 53.98 28.35 53.98 23 58 23 44"/><polygon id="Shape" fill="#E3E7F2" points="50 34 50 40 44 37 44 31"/><polygon id="Shape" fill="#E3E7F2" points="50 30 50 34 44 31 44 27 46.99 28.49 46.99 28.5"/><polygon id="Shape" fill="#E3E7F2" points="50 26 50 30 46.99 28.5 46.99 28.49 44 27 44 23"/><polygon id="Shape" fill="#A4C2F7" points="58 20 58 34 52.18 38.36 52.18 38.37 50 40 50 26"/><polygon id="Shape" fill="#E3E7F2" points="58 20 50 26 44 23 45.52 21.86 51.23 17.58 52 17"/><path d="M27,36 L25,35 L17,41 L17,42.41 C13.1777323,39.0012199 10.9944001,34.1214725 11,29 C10.9979077,28.3553194 11.0312915,27.7110121 11.1,27.07 L12,27.14 C14.03,26.54 15.89,27.63 17.33008,28.98 C18.0886404,29.8618075 18.9001107,30.696681 19.76,31.48 C20.77,32.2 21.63,31.47 22.67992,31.3 C25.39,30.87 27.01,33.64 27,36 Z" id="Shape" fill="#A4C2F7"/><path d="M42.07007,41.37 C40.0037534,43.5617637 37.4169774,45.195698 34.55007,46.12 C34.21,44.27 34.1,41.63 36,41 C37.81006,40.4 40.34009,40.88 42.07007,41.37 Z" id="Shape" fill="#A4C2F7"/><path d="M44.9,37.45 C44.1411375,38.8804013 43.1888724,40.1994631 42.07005,41.37 C40.34005,40.88 37.81005,40.4 35.99998,41 C34.09998,41.63 34.20998,44.27 34.54998,46.12 C33.398059,46.5045996 32.2077279,46.7627841 30.99998,46.89 L30.99998,38 L26.99998,36 C27.00998,33.64 25.38998,30.87 22.67991,31.3 C21.62998,31.47 20.77,32.2 19.75999,31.48 C18.9000972,30.6966813 18.0886236,29.8618078 17.33006,28.98 C15.89,27.63 14.03,26.54 12,27.14 L11.1,27.07 C11.3117401,25.0864687 11.8560181,23.1527604 12.71,21.35 L16,23 L24,17 L24,11.71 C26.2543434,11.0531661 28.6164402,10.8492441 30.95,11.11 C29.8664019,13.1654944 29.2581104,15.4380443 29.17,17.76 C29.1494832,18.8734172 29.4554487,19.968473 30.05013,20.91 C30.9596416,22.0027411 32.0485269,22.9326897 33.27013,23.66 C33.61013,23.9 33.96007,24.15 34.30013,24.4 C34.7692113,24.6713011 35.1270361,25.0999822 35.31013,25.61 C35.76013,27.54 33.11006,28.15 32.79013,29.82 C32.7238187,30.311619 32.7893449,30.8120295 32.98,31.27 C33.4270384,32.340296 34.0564112,33.3249017 34.84011,34.18 C35.3263172,34.8861748 35.9320337,35.5020809 36.63,36 C37.4963195,36.3927623 38.4847555,36.4180143 39.37,36.07 C40.95,35.58 42.36,34.69 44,34.4 L44,37 L44.9,37.45 Z" id="Shape" fill="#E3E7F2"/><path d="M45.52,21.86 L44,23 L44,34.4 C42.36,34.69 40.95,35.58 39.37,36.07005 C38.4847488,36.4180485 37.4963127,36.3927784 36.63,36 C35.9320266,35.5020827 35.3263032,34.8861765 34.84009,34.18 C34.0563983,33.3249002 33.4270323,32.3402946 32.98,31.27 C32.7893008,30.8120414 32.7237297,30.3116305 32.79,29.82 C33.11,28.15 35.76,27.54 35.31,25.61 C35.1269061,25.0999822 34.7690813,24.6713011 34.3,24.4 C33.95991,24.15 33.60994,23.9 33.27,23.66 C32.0483969,22.9326897 30.9595116,22.0027411 30.05,20.91 C29.4553187,19.968473 29.1493532,18.8734172 29.16987,17.76 C29.2579804,15.4380443 29.8662719,13.1654944 30.94987,11.11 C37.3887777,11.8062746 42.9550422,15.913125 45.52,21.86 Z" id="Shape" fill="#A4C2F7"/><path d="M8,30.07 C8.00006359,32.0896985 6.49448714,33.7925869 4.49,34.04 C4.32745784,34.0602704 4.16380098,34.0702903 4,34.07 C1.790861,34.07 2.22044605e-16,32.279139 0,30.07 C-2.22044605e-16,27.860861 1.790861,26.07 4,26.07 C4.06015025,26.0683344 4.12033476,26.0716793 4.17993,26.08 C6.31738815,26.1700476 8.0030064,27.930648 8,30.07 Z" id="Shape" fill="#E3E7F2"/><path d="M45,7 C44.9982805,7.79872235 44.758032,8.5787274 44.31006,9.24 C43.1990404,10.8763347 41.058029,11.453572 39.2750306,10.5974924 C37.4920321,9.74141282 36.6036813,7.70967329 37.1858905,5.81943835 C37.7680997,3.9292034 39.6456398,2.74938296 41.6013126,3.04484752 C43.5569855,3.34031208 45.0021863,5.02213475 45,7 Z" id="Shape" fill="#E3E7F2"/><path d="M47,50 C47.0005182,51.8651296 45.7116125,53.4829367 43.8935236,53.8991834 C42.0754346,54.3154301 40.2110303,53.419565 39.4,51.74 C39.1351052,51.1983105 38.9982493,50.6029873 39,50 C39,47.790861 40.790861,46 43,46 C45.209139,46 47,47.790861 47,50 Z" id="Shape" fill="#E3E7F2"/></g><g id="White" transform="translate(1.000000, 1.000000)" fill="#FFFFFF"><path d="M20,55 L24.2,57.1 L23,58 L17,55 L17,50.93 C10.5605504,47.4048418 5.99404254,41.2296362 4.51,34.04 L4.49,34.04 C4.32745784,34.0602704 4.16380098,34.0702903 4,34.07 C1.790861,34.07 2.22044605e-16,32.279139 0,30.07 C-2.22044605e-16,27.860861 1.790861,26.07 4,26.07 C4.06014845,26.0683476 4.12033049,26.0716756 4.17993,26.07995 C4.74645373,21.1584374 6.77351431,16.5192586 10,12.76 L10,6 L18,0 L19.8,0.9 L13,6 L13,12.76 C9.77350522,16.5192723 7.74644407,21.1584699 7.17993,26.08 C7.12033188,26.0717089 7.06014983,26.0683641 7,26.07 C4.790861,26.07 3,27.860861 3,30.07 C3,32.279139 4.790861,34.07 7,34.07 C7.16380098,34.0702903 7.32745784,34.0602704 7.49,34.04 L7.51,34.04 C8.99404254,41.2296362 13.5605504,47.4048418 20,50.93 L20,55 Z" id="Shape"/></g><g id="Icons"><path d="M6.47021,34.77185 C7.30854509,38.8694555 9.20283704,42.6769539 11.96545,45.8172 C13.8180722,47.9260663 16.0224614,49.6975924 18.48059,51.053 L17.51941,52.807 C14.8569704,51.3396148 12.4694072,49.4212745 10.46301,47.13738 C7.46972865,43.7344308 5.41757493,39.6084095 4.50989,35.16815 L6.47021,34.77185 Z" id="Shape" fill="#FFFFFF"/><path d="M8.58862,41.46356 L8.39978,41.4317 C8.33243722,41.425338 8.26455854,41.4275726 8.19778,41.43835 C8.1338893,41.4399452 8.07056599,41.4507809 8.00978,41.47052 C7.94593673,41.4913158 7.88357704,41.5164167 7.82313,41.54565 C7.58969454,41.6704005 7.41518143,41.8825417 7.33778,42.13565 C7.30533063,42.266047 7.29844718,42.4014951 7.31751,42.53451 C7.36550428,42.9494762 7.66205854,43.2930438 8.06556,43.40115 C8.19502307,43.4299076 8.32889108,43.4328132 8.45948,43.4097 C8.58886402,43.3900461 8.71298413,43.3446113 8.82448,43.27609 C9.28752264,42.9936361 9.4420407,42.3941897 9.17324,41.92309 C9.04431689,41.7007751 8.83509691,41.5363215 8.58862,41.46356 Z" id="Shape" fill="#428DFF"/><path d="M59.96411,20.74481 C59.9330839,20.6316753 59.882159,20.5249695 59.81372,20.42969 C59.80737,20.42053 59.80664,20.40942 59.7998,20.40039 C59.7888,20.38574 59.77222,20.37921 59.76062,20.36539 C59.6990946,20.2916317 59.6271288,20.2272526 59.547,20.17429 C59.52319,20.15854 59.50244,20.13992 59.47754,20.12637 C59.46654,20.12037 59.45854,20.11111 59.44727,20.1055 L53.44727,17.1055 C53.404233,17.0905256 53.3601721,17.0786748 53.31543,17.07004 C53.2457043,17.0424197 53.1730491,17.0228627 53.09888,17.01175 C52.972133,17.0136732 52.8457307,17.0255093 52.72083,17.04715 C52.6678826,17.0662287 52.6166684,17.0898117 52.56775,17.11764 C51.0146153,14.4029665 48.9870556,11.9889487 46.58142,9.9903 C47.6143116,7.61869695 46.6659175,4.85089043 44.3955894,3.61114184 C42.1252613,2.37139325 39.2840674,3.06983516 37.84729,5.22089 C34.018616,4.02090929 29.9662541,3.71224023 26,4.31848 L26,4 C25.9973227,3.93621303 25.9884102,3.87284109 25.97339,3.81079 C25.96924,3.78864 25.96997,3.76679 25.96411,3.74479 C25.9330839,3.63165526 25.882159,3.52494955 25.81372,3.42967 C25.80737,3.42051 25.80664,3.4094 25.7998,3.40037 C25.7888,3.38572 25.77222,3.37919 25.76062,3.36537 C25.6990946,3.29161173 25.6271288,3.2272326 25.547,3.17427 C25.52319,3.15852 25.50244,3.1399 25.47754,3.12635 C25.46654,3.12035 25.45854,3.11109 25.44727,3.10548 L19.44727,0.10548 C19.404625,0.090698202 19.3609725,0.0790013854 19.31665,0.07048 C19.2460068,0.0424853385 19.1723545,0.0227802964 19.09717,0.01176 C18.9705299,0.0138529644 18.8442477,0.0258529286 18.71948,0.04765 C18.6563869,0.0702397976 18.5957685,0.0992204516 18.53857,0.13414 C18.4907737,0.152303377 18.444557,0.174378216 18.40039,0.20014 L10.40039,6.20014 C10.38745,6.20978 10.38184,6.22449 10.36963,6.23462 C10.2852107,6.3026938 10.2124766,6.38409873 10.1543,6.47562 C10.14795,6.48593 10.13892,6.49423 10.13293,6.50462 C10.0787727,6.60282105 10.0416663,6.70949767 10.02319,6.82011 C10.01782,6.84874 10.01519,6.87602 10.01219,6.90501 C10.00916,6.937 10,6.96759 10,7 L10,13.41162 C6.9840248,17.032033 5.01799362,21.4098034 4.31555,26.06921 C1.76972748,26.4102687 -0.0982393207,28.6328802 0.00393284112,31.1994137 C0.106105003,33.7659472 2.14484217,35.8330353 4.70972,35.97064 C4.96079452,37.0532238 5.2790778,38.1191121 5.66272,39.16211 C5.75669645,39.41527 5.94956319,39.6193415 6.19701882,39.7274493 C6.44447446,39.8355571 6.72524947,39.838409 6.97485,39.73535 C7.47246677,39.5261969 7.71848102,38.963423 7.53406,38.45612 C7.20072963,37.5491432 6.92139088,36.6232265 6.69751,35.68323 C8.74655428,34.952898 10.0828658,32.9752667 9.99602942,30.8016921 C9.90919304,28.6281175 8.41937575,26.7633927 6.3186,26.19885 C6.852523,22.8240186 8.1082193,19.6040891 10,16.75879 L10,21 C10.000044,21.3787699 10.2140004,21.7250339 10.55273,21.89453 L12.40918,22.82275 C11.472426,25.0993349 10.9935735,27.5382312 11,30 C11.0087876,35.2380938 13.1798215,40.2401557 17,43.824 L17,50.14718 C15.1278627,48.9460128 13.4332136,47.488518 11.96545,45.81718 C11.7572,45.57426 11.5354,45.34251 11.34424,45.08543 C10.9950031,44.6703929 10.3818939,44.6015791 9.94934,44.92887 C9.73601368,45.0924363 9.59852125,45.3358447 9.56855697,45.6029854 C9.53859269,45.8701262 9.6187423,46.1379467 9.79053,46.34471 C9.99841,46.62242 10.2373,46.87443 10.46301,47.13731 C12.3371269,49.2642561 14.5449999,51.0719216 17,52.48938 L17,56 C17.000044,56.3787699 17.2140004,56.7250339 17.55273,56.89453 L23.55273,59.89453 L23.5564,59.89539 C23.6819869,59.954331 23.8184605,59.9865057 23.95715,59.98987 C23.9718,59.99054 23.98535,60 24,60 L24.00061,59.99994 L24.001,60 L24.0071,59.999 C24.1036887,59.9976789 24.1995758,59.982363 24.29177,59.95353 C24.32177,59.94432 24.34914,59.92747 24.37844,59.91532 C24.4291545,59.8978599 24.4783248,59.8762016 24.52544,59.85057 C24.54082,59.84104 24.55217,59.82713 24.56694,59.81687 C24.57732,59.80967 24.58941,59.80741 24.59966,59.79978 L29.67974,55.98967 C29.785,55.99182 29.89014,56 30,56 C33.4396234,56.0040892 36.8453684,55.3206173 40.01709,53.98975 C41.5952345,56.1290589 44.5759359,56.6506374 46.7867576,55.1743413 C48.9975792,53.6980453 49.6580825,50.7450196 48.28687,48.46753 C50.7197381,46.0438022 52.6575123,43.1696454 53.99207,40.00543 L59.59961,35.7998 C59.61841,35.7858 59.62695,35.76465 59.64441,35.74963 C59.7380865,35.6588779 59.8190602,35.5558745 59.88513,35.44342 C59.9108156,35.3872986 59.9311296,35.3288712 59.9458,35.26892 C59.966427,35.2034344 59.9800138,35.1359363 59.98633,35.06757 C59.988,35.044 60,35.024 60,35 L60,21 C59.9973227,20.936213 59.9884102,20.8728411 59.97339,20.81079 C59.96924,20.78864 59.97,20.76678 59.96411,20.74481 Z M8,31 C8,32.6568542 6.65685425,34 5,34 C3.34314575,34 2,32.6568542 2,31 C2,29.3431458 3.34314575,28 5,28 C6.65610489,28.0018077 7.99819229,29.3438951 8,31 Z M52,39.00049 L52,27.49949 L58,22.99949 L58,34.50049 L52,39.00049 Z M46,37.38184 L46,33.61816 L50,35.61816 L50,39.38184 L46,37.38184 Z M37.28711,26.38084 C37.0526715,25.6363411 36.5570604,25.0016545 35.8916,24.59373 L34.85352,23.84473 C34.6582,23.7041 34.45605,23.56348 34.25098,23.4209 C33.3455389,22.8725293 32.5425374,22.1706323 31.87798,21.34668 C31.3915496,20.5708803 31.1461736,19.6682252 31.1729,18.75293 C31.2387399,16.8227096 31.7144377,14.9285766 32.56841,13.19629 C38.080642,14.0394189 42.8270242,17.5364962 45.26555,22.55139 L44.40044,23.2002 C44.3875,23.20984 44.38189,23.22455 44.36968,23.23468 C44.2852607,23.3027538 44.2125266,23.3841587 44.15435,23.47568 C44.148,23.48599 44.13897,23.49429 44.13298,23.50473 C44.0788227,23.6029311 44.0417163,23.7096077 44.02324,23.82022 C44.01787,23.84885 44.01524,23.87613 44.01224,23.90512 C44.00916,23.937 44,23.96759 44,24 L44,34.60834 C43.2543375,34.8359055 42.5245528,35.11257 41.81543,35.43652 C41.247152,35.6938524 40.6659762,35.9216953 40.07422,36.11914 C39.4487739,36.3774128 38.7471361,36.3809191 38.11914,36.12891 C37.6679058,35.8104333 37.2745267,35.4170542 36.95605,34.96582 C36.83496,34.81738 36.7168,34.6709 36.5957,34.53027 C35.8912203,33.7635205 35.3251998,32.8802903 34.92285,31.91992 C34.7941876,31.633823 34.7426761,31.3190244 34.77344,31.00684 C34.84863,30.61133 35.28809,30.21289 35.75195,29.79004 C36.5625,29.05371 37.6709,28.0459 37.28711,26.38086 L37.28711,26.38084 Z M53.10511,19.1707 L57.10584,21.17106 L50.89491,25.82926 L46.89418,23.8289 L53.10511,19.1707 Z M50,29.38184 L48.39673,28.5802 C48.38745,28.57605 48.37939,28.57062 48.36987,28.56671 L46,27.38184 L46,25.61816 L50,27.61816 L50,29.38184 Z M46,29.61816 L50,31.61816 L50,33.38184 L46,31.38184 L46,29.61816 Z M42,5 C43.6568542,5 45,6.34314575 45,8 C45,9.65685425 43.6568542,11 42,11 C40.3431458,11 39,9.65685425 39,8 C39.0018077,6.34389511 40.3438951,5.00180771 42,5 Z M37.093,7.07947 C36.6853069,9.20666762 37.6985181,11.3535984 39.5997571,12.3911308 C41.5009961,13.4286633 43.8547365,13.1191246 45.42308,11.62531 C47.6475568,13.4995887 49.5150057,15.760446 50.9354,18.29889 L46.89646,21.32813 C43.9809929,15.6403856 38.3967403,11.8037205 32.04175,11.12219 C32.01843,11.12006 31.99634,11.11505 31.97302,11.11456 C29.9783474,10.8899629 27.9602933,10.9957139 26.00002,11.42756 L26.00002,6.34515 C29.7048154,5.7308768 33.501503,5.98220544 37.093,7.07947 Z M19.1051,2.17072 L23.10583,4.17108 L16.8949,8.82928 L12.89417,6.82892 L19.1051,2.17072 Z M16,12.38184 L12,10.38184 L12,8.61816 L16,10.61816 L16,12.38184 Z M12,12.61816 L16,14.61816 L16,16.38184 L12,14.38184 L12,12.61816 Z M18,10.49951 L24,5.99951 L24,17.50051 L18,22.00051 L18,10.49951 Z M12,16.61816 L16,18.61816 L16,22.38184 L14.15845,21.46106 C14.15088,21.45721 14.14645,21.44995 14.13867,21.44629 C14.13245,21.44336 14.12573,21.44429 14.11938,21.44153 L12,20.38184 L12,16.61816 Z M16.55273,24.89453 L16.5564,24.89539 C16.6819869,24.954331 16.8184605,24.9865057 16.95715,24.98987 C16.9718,24.99054 16.98535,25 17,25 L17.00061,24.99994 L17.001,25 L17.0071,24.999 C17.1036887,24.9976789 17.1995758,24.982363 17.29177,24.95353 C17.32177,24.94432 17.34914,24.92747 17.37844,24.91532 C17.4291545,24.8978599 17.4783248,24.8762016 17.52544,24.85057 C17.54082,24.84104 17.55217,24.82713 17.56694,24.81687 C17.57732,24.80967 17.58941,24.80741 17.59966,24.79978 L25.59966,18.79978 C25.61846,18.78578 25.627,18.76463 25.64446,18.74961 C25.7381365,18.6588579 25.8191102,18.5558545 25.88518,18.4434 C25.9108656,18.3872786 25.9311796,18.3288512 25.94585,18.2689 C25.966477,18.2034144 25.9800638,18.1359163 25.98638,18.06755 C25.988,18.044 26,18.024 26,18 L26,13.48907 C27.3091371,13.1675417 28.651961,13.003358 30,13 C30.15234,13 30.30249,13.01276 30.45422,13.01678 C29.6379961,14.8285616 29.201894,16.78845 29.17285,18.77539 C29.1478053,20.0846965 29.5140144,21.3716961 30.22461,22.47168 C31.0202865,23.5035028 31.9975532,24.381487 33.1084,25.0625 C33.30469,25.19824 33.49805,25.33301 33.68555,25.46777 L34.71094,26.20898 C34.88477,26.33598 35.29194,26.63281 35.33794,26.83105 C35.44341,27.28516 35.22173,27.56934 34.40728,28.31055 C33.628791,28.8823587 33.0656279,29.6997491 32.80864,30.63086 C32.7032255,31.3002625 32.785368,31.9857831 33.04595,32.61133 C33.5273358,33.7962292 34.2150709,34.8863533 35.0772,35.83105 C35.18462,35.95705 35.29204,36.08984 35.40142,36.22363 C35.8687926,36.8759246 36.455664,37.4336371 37.13091,37.86719 C37.6833891,38.1714583 38.3059461,38.325665 38.93657,38.31445 C39.526501,38.3067138 40.11188,38.2099188 40.6729,38.02734 C41.3307969,37.8096137 41.9768618,37.5576432 42.60845,37.27246 C43.08135,37.0683 43.54058,36.87372 44.00005,36.71057 L44.00005,38 C44.0017258,38.3591775 44.1965753,38.6896576 44.51005,38.865 C43.9917788,39.7095487 43.400922,40.5073444 42.74418,41.24934 C40.7786121,40.6433487 38.686626,40.5747702 36.68559,41.05073 C35.61466,41.40528 33.97941,42.57637 34.43254,46.40638 C33.96122,46.53352 33.48466,46.64619 33.00004,46.73268 L33.00004,39 C32.9973627,38.936213 32.9884502,38.8728411 32.97343,38.81079 C32.96928,38.78864 32.97001,38.76679 32.96415,38.74479 C32.9331239,38.6316553 32.882199,38.5249495 32.81376,38.42967 C32.80741,38.42051 32.80668,38.4094 32.79984,38.40037 C32.78898,38.38584 32.7725,38.37937 32.7609,38.36558 C32.6987423,38.2911069 32.6259864,38.2261643 32.54496,38.17283 C32.52201,38.15769 32.50196,38.13975 32.47807,38.12669 C32.46707,38.12059 32.45878,38.11119 32.44731,38.10545 L28.96818,36.36589 C28.8429809,34.8028023 28.1299152,33.3452822 26.9727,32.28709 C26.028451,31.4570828 24.7595595,31.0984895 23.52055,31.3115 C23.1611199,31.3760431 22.8079225,31.4714496 22.46488,31.59666 C21.74906,31.83787 21.59477,31.84666 21.34379,31.66795 C20.8659651,31.2887091 20.43458,30.854387 20.05859,30.374 C19.7326165,29.977931 19.384057,29.6010043 19.01465,29.2451 C17.08215,27.44847 15.15674,26.72599 13.27686,27.0623 C13.4756859,25.9216747 13.7934188,24.8050077 14.22486,23.73057 L16.55273,24.89453 Z M36.38135,45.75183 C36.29517,44.61194 36.39575,43.2536 37.31445,42.94922 C38.5375317,42.6471055 39.8147258,42.6385391 41.04175,42.92422 C39.6505824,44.1114263 38.0768685,45.0662476 36.38135,45.75183 Z M26.1051,37.17072 L30.10583,39.17108 L23.8949,43.82928 L19.89417,41.82892 L26.1051,37.17072 Z M19,43.61816 L23,45.61816 L23,47.38184 L19,45.38184 L19,43.61816 Z M19,47.61816 L23,49.61816 L23,51.38184 L19,49.38184 L19,47.61816 Z M25,45.49951 L31,40.99951 L31,52.50051 L25,57.00051 L25,45.49951 Z M13,30 C13,29.7041 13.03271,29.41492 13.04736,29.12195 C13.1268804,29.1246819 13.2064318,29.1175068 13.28418,29.10059 C14.6084,28.70508 16.08105,29.24902 17.65234,30.70996 C17.9654159,31.0140565 18.2611333,31.3355279 18.53809,31.67285 C19.0171528,32.2802985 19.5698937,32.8258174 20.18359,33.29685 C21.0530824,33.8771337 22.1654807,33.9515157 23.10449,33.49216 C23.3418299,33.4043161 23.5857564,33.3354138 23.83398,33.2861 C24.4937923,33.1697834 25.1706049,33.361102 25.67188,33.80563 C26.0963753,34.1900602 26.4264639,34.6672358 26.63647,35.20004 L26.44727,35.10544 C26.4019959,35.0893784 26.3555518,35.0768279 26.30835,35.0679 C26.2415066,35.0417272 26.1719994,35.0229487 26.10107,35.0119 C25.9740539,35.0134567 25.8473594,35.0250495 25.72217,35.04657 C25.6558772,35.0699124 25.5922799,35.1002996 25.53247,35.13721 C25.4868741,35.1547481 25.4427138,35.1758118 25.40039,35.20021 L17.40039,41.20021 C17.38745,41.20985 17.38184,41.22456 17.36963,41.23469 C17.34763,41.25282 17.32349,41.26869 17.30334,41.28846 C14.5355771,38.1791868 13.0044286,34.1627001 13,30 Z M19,55.38184 L19,51.61816 L23,53.61816 L23,57.38184 L19,55.38184 Z M44,54 C42.3431458,54 41,52.6568542 41,51 C41,49.3431458 42.3431458,48 44,48 C45.6568542,48 47,49.3431458 47,51 C46.9981923,52.6561049 45.6561049,53.9981923 44,54 Z M46.94678,46.98169 C46.0951538,46.3470288 45.0620988,46.002877 44,46 C41.2399195,46.0032401 39.0032401,48.2399195 39,51 C39.0043779,51.3993244 39.0570063,51.7966559 39.15674,52.18335 C37.0333371,53.0646747 34.7931342,53.6327635 32.50635,53.86981 L32.59961,53.79981 C32.61841,53.78581 32.62695,53.76466 32.64441,53.74964 C32.7380865,53.6588879 32.8190602,53.5558845 32.88513,53.44343 C32.9108156,53.3873086 32.9311296,53.3288812 32.9458,53.26893 C32.966427,53.2034444 32.9800138,53.1359463 32.98633,53.06758 C32.988,53.044 33,53.024 33,53 L33,48.75708 C38.5429483,47.8717505 43.4108073,44.5809014 46.298,39.76715 L50.55276,41.89453 L50.55643,41.89539 C50.6327996,41.9240377 50.7124273,41.9431032 50.79349,41.95215 C49.7352372,43.7886839 48.4421069,45.4794406 46.94678,46.98169 Z" id="Shape" fill="#428DFF"/></g></g></g></svg>
