<?xml version="1.0" encoding="UTF-8"?>
<svg xmlns="http://www.w3.org/2000/svg" xmlns:xlink="http://www.w3.org/1999/xlink" width="512" height="512" viewBox="0 0 60 60" version="1.1"><!-- Generator: Sketch 49.3 (51167) - http://www.bohemiancoding.com/sketch --><title>048 - Fibre connected back ups</title><desc>Created with Sketch.</desc><defs/><g id="Page-1" stroke="none" stroke-width="1" fill="none" fill-rule="evenodd"><g id="048---Fibre-connected-back-ups" fill-rule="nonzero"><g id="Colours" transform="translate(0.000000, 1.000000)"><path d="M54,29.125 L54,37 L46,37 L46,29.125 C45.9693171,28.5395348 46.4149752,28.0381695 47,28 L53,28 C53.5850248,28.0381695 54.0306829,28.5395348 54,29.125 Z" id="Shape" fill="#A4C2F7"/><path d="M13.91667,29.125 L13.91667,37 L5.91667,37 L5.91667,29.125 C5.88598712,28.5395348 6.33164518,28.0381695 6.91667,28 L12.91667,28 C13.5016923,28.0381747 13.9473474,28.5395367 13.91667,29.125 Z" id="Shape" fill="#A4C2F7"/><path d="M11,29.125 L11,37 L6,37 L6,29.125 C6,28.50626 6.28126,28 6.625,28 L10.375,28 C10.71874,28 11,28.50626 11,29.125 Z" id="Shape" fill="#E3E7F2"/><path d="M51,29.125 L51,37 L46,37 L46,29.125 C46,28.50626 46.28126,28 46.625,28 L50.375,28 C50.71874,28 51,28.50626 51,29.125 Z" id="Shape" fill="#E3E7F2"/><path d="M55,37 L55,58 L45,58 L45,37 C45.0016474,36.4483991 45.4483991,36.0016474 46,36 L54,36 C54.5516009,36.0016474 54.9983526,36.4483991 55,37 Z" id="Shape" fill="#A4C2F7"/><path d="M58,0 L42,0 C41.4483991,0.00164740056 41.0016474,0.448399067 41,1 L41,17 C41.0016474,17.5516009 41.4483991,17.9983526 42,18 L58,18 C58.5516009,17.9983526 58.9983526,17.5516009 59,17 L59,1 C58.9983526,0.448399067 58.5516009,0.00164740056 58,0 Z" id="Shape" fill="#A4C2F7"/><path d="M18,0 L2,0 C1.44839907,0.00164740056 1.0016474,0.448399067 1,1 L1,17 C1.0016474,17.5516009 1.44839907,17.9983526 2,18 L18,18 C18.5516009,17.9983526 18.9983526,17.5516009 19,17 L19,1 C18.9983526,0.448399067 18.5516009,0.00164740056 18,0 Z" id="Shape" fill="#A4C2F7"/><path d="M54.22222,0 L41.77778,0 C41.2917852,0.0699334983 40.9481536,0.511744302 41,1 L41,17 C40.9481536,17.4882557 41.2917852,17.9300665 41.77778,18 L54.22222,18 C54.7082148,17.9300665 55.0518464,17.4882557 55,17 L55,1 C55.0518464,0.511744302 54.7082148,0.0699334983 54.22222,0 Z" id="Shape" fill="#E3E7F2"/><path d="M14.22222,0 L1.77778,0 C1.29178516,0.0699334983 0.948153551,0.511744302 1,1 L1,17 C0.948153551,17.4882557 1.29178516,17.9300665 1.77778,18 L14.22222,18 C14.7082148,17.9300665 15.0518464,17.4882557 15,17 L15,1 C15.0518464,0.511744302 14.7082148,0.0699334983 14.22222,0 Z" id="Shape" fill="#E3E7F2"/><rect id="Rectangle-path" fill="#E3E7F2" x="47" y="4" width="4" height="10"/><rect id="Rectangle-path" fill="#E3E7F2" x="41" y="4" width="6" height="10"/><rect id="Rectangle-path" fill="#E3E7F2" x="51" y="4" width="4" height="10"/><rect id="Rectangle-path" fill="#A4C2F7" x="55" y="4" width="4" height="10"/><rect id="Rectangle-path" fill="#A4C2F7" x="15" y="4" width="4" height="10"/><rect id="Rectangle-path" fill="#E3E7F2" x="11" y="4" width="4" height="10"/><rect id="Rectangle-path" fill="#E3E7F2" x="7" y="4" width="4" height="10"/><rect id="Rectangle-path" fill="#E3E7F2" x="1" y="4" width="6" height="10"/><path d="M14.92,37 L14.92,58 L4.92,58 L4.92,37 C4.9216474,36.4483991 5.36839907,36.0016474 5.92,36 L13.92,36 C14.4716009,36.0016474 14.9183526,36.4483991 14.92,37 Z" id="Shape" fill="#A4C2F7"/><path d="M50.08,37 L50.08,58 L45,58 L45,37 C45.0016474,36.4483991 45.4483991,36.0016474 46,36 L49.08,36 C49.6316009,36.0016474 50.0783526,36.4483991 50.08,37 Z" id="Shape" fill="#E3E7F2"/><path d="M10,37 L10,58 L4.92,58 L4.92,37 C4.9216474,36.4483991 5.36839907,36.0016474 5.92,36 L9,36 C9.55160093,36.0016474 9.9983526,36.4483991 10,37 Z" id="Shape" fill="#E3E7F2"/><rect id="Rectangle-path" fill="#A4C2F7" x="20" y="22" width="20" height="37" rx="1"/><rect id="Rectangle-path" fill="#E3E7F2" x="20" y="22" width="17" height="37" rx="1"/><path d="M40,23 L40,31 L33.28,37.72 C32.7126759,36.9059005 31.8654412,36.3292113 30.9,36.1 C30.6042018,36.0360217 30.3026276,36.0025135 30,36 C28.6940955,36.0141334 27.474223,36.6538227 26.72,37.72 L20,31 L20,23 C20.0016474,22.4483991 20.4483991,22.0016474 21,22 L39,22 C39.5516009,22.0016474 39.9983526,22.4483991 40,23 Z" id="Shape" fill="#A4C2F7"/><path d="M34,40 C33.9945964,42.2068969 32.2068969,43.9945964 30,44 C29.4851917,43.9990634 28.9755679,43.8971386 28.5,43.7 C28.3286441,43.6301606 28.1616721,43.550014 28,43.46 C27.0300866,42.9028483 26.3389966,41.9637022 26.0955439,40.8719693 C25.8520913,39.7802364 26.0786943,38.636448 26.72,37.72 C27.1630014,37.0816392 27.7811694,36.585021 28.5,36.29 C28.9762146,36.0961381 29.4858433,35.9976098 30,36 C32.2060042,36.0075498 33.9924502,37.7939958 34,40 Z" id="Shape" fill="#A4C2F7"/><path d="M31,40 C31.0026782,41.4287069 30.2393657,42.7492375 29,43.46 C28.8383279,43.550014 28.6713559,43.6301606 28.5,43.7 C28.3286441,43.6301606 28.1616721,43.550014 28,43.46 C27.0300866,42.9028483 26.3389966,41.9637022 26.0955439,40.8719693 C25.8520913,39.7802364 26.0786943,38.636448 26.72,37.72 C27.1630014,37.0816392 27.7811694,36.585021 28.5,36.29 C30.0059623,36.9084776 30.9921651,38.3720026 31,40 Z" id="Shape" fill="#E3E7F2"/><path d="M32,43.46 L32,59 L28,59 L28,43.46 C29.236119,44.1800532 30.763881,44.1800532 32,43.46 Z" id="Shape" fill="#E3E7F2"/><path d="M36,27 L24,27 C23.4477153,27 23,26.5522847 23,26 C23,25.4477153 23.4477153,25 24,25 L36,25 C36.5522847,25 37,25.4477153 37,26 C37,26.5522847 36.5522847,27 36,27 Z" id="Shape" fill="#4482C3"/><path d="M36,23 L36,31 L30.9,36.1 C30.6042018,36.0360217 30.3026276,36.0025135 30,36 C29.295716,35.9980009 28.6042283,36.18816 28,36.55 C27.3957717,36.18816 26.704284,35.9980009 26,36 C25.6973724,36.0025135 25.3957982,36.0360217 25.1,36.1 L20,31 L20,23 C20.0016474,22.4483991 20.4483991,22.0016474 21,22 L35,22 C35.5516009,22.0016474 35.9983526,22.4483991 36,23 Z" id="Shape" fill="#E3E7F2"/></g><g id="White" transform="translate(0.000000, 1.000000)" fill="#FFFFFF"><path d="M49.49,28 C49.22,28.01 49,28.52 49,29.12 L49,36 C48.4483991,36.0016474 48.0016474,36.4483991 48,37 L48,58 L45,58 L45,37 C45.0016474,36.4483991 45.4483991,36.0016474 46,36 L46,29.12 C46,28.51 46.23,28 46.5,28 L49.49,28 Z" id="Shape"/><path d="M44.78,18 L41.78,18 C41.2930846,17.9311835 40.9481955,17.489018 41,17 L41,1 C40.9481955,0.510981985 41.2930846,0.0688164608 41.78,0 L44.77,0 C44.2870111,0.0734436636 43.9475664,0.514280982 44,1 L44,17 C43.9481955,17.489018 44.2930846,17.9311835 44.78,18 Z" id="Shape"/><path d="M4.78,18 L1.78,18 C1.29308458,17.9311835 0.948195475,17.489018 1,17 L1,1 C0.948195475,0.510981985 1.29308458,0.0688164608 1.78,-1.11022302e-16 L4.77,-1.11022302e-16 C4.2870111,0.0734436636 3.94756636,0.514280982 4,1 L4,17 C3.94819547,17.489018 4.29308458,17.9311835 4.78,18 Z" id="Shape"/><path d="M9.49,28 C9.31,28.01 9.17,28.23 9.08,28.54 C8.98047778,28.7175209 8.92557007,28.9165613 8.92,29.12 L8.92,36 C8.36839907,36.0016474 7.9216474,36.4483991 7.92,37 L7.92,58 L4.92,58 L4.92,37 C4.9216474,36.4483991 5.36839907,36.0016474 5.92,36 L5.92,29.12 C5.92557007,28.9165613 5.98047778,28.7175209 6.08,28.54 C6.17,28.22 6.32,28 6.5,28 L9.49,28 Z" id="Shape"/><path d="M24,59 L21,59 C20.4483991,58.9983526 20.0016474,58.5516009 20,58 L20,23 C20.0016474,22.4483991 20.4483991,22.0016474 21,22 L24,22 C23.4483991,22.0016474 23.0016474,22.4483991 23,23 L23,58 C23.0016474,58.5516009 23.4483991,58.9983526 24,59 Z" id="Shape"/></g><g id="Icons"><polygon id="Shape" fill="#FFFFFF" points="6 38 6 51 6 59 4 59 4 51 4 38"/><path d="M5,47 C5.40434698,46.9984049 5.76828126,46.7544153 5.92333521,46.3809754 C6.07838917,46.0075356 5.99430271,45.5775256 5.71,45.29 L5.5601,45.16988 C5.50432178,45.1318955 5.44372787,45.1015179 5.37992,45.07955 C5.3231744,45.0507795 5.26242527,45.0307051 5.19971,45.02 C5.13367967,45.0087447 5.06695098,45.0020622 5,45 C4.73523302,45.0036835 4.48163379,45.1072663 4.29,45.29 C4.04738605,45.5237239 3.94092053,45.8651552 4.00769206,46.195352 C4.07446358,46.5255488 4.30522588,46.7987868 4.61959,46.91988 C4.7399307,46.9712163 4.86917622,46.9984374 5,47 Z" id="Shape" fill="#428DFF"/><path d="M58.667,58 L56,58 L56,38 C55.9975827,37.2888306 55.6165369,36.6327915 55,36.27832 L55,30 C54.9985676,28.8960244 54.1039756,28.0014324 53,28 L53,23 C53,22.4477153 52.5522847,22 52,22 C51.4477153,22 51,22.4477153 51,23 L51,28 L49,28 L49,23 C49,22.4477153 48.5522847,22 48,22 C47.4477153,22 47,22.4477153 47,23 L47,28 C45.8960244,28.0014324 45.0014324,28.8960244 45,30 L45,36.27832 C44.3834631,36.6327915 44.0024173,37.2888306 44,38 L44,58 L41,58 L41,24 C40.9985676,22.8960244 40.1039756,22.0014324 39,22 L21,22 C19.8960244,22.0014324 19.0014324,22.8960244 19,24 L19,58 L16,58 L16,38 C15.9975827,37.2888306 15.6165369,36.6327915 15,36.27832 L15,30 C14.9985676,28.8960244 14.1039756,28.0014324 13,28 L13,23 C13,22.4477153 12.5522847,22 12,22 C11.4477153,22 11,22.4477153 11,23 L11,28 L9,28 L9,23 C9,22.4477153 8.55228475,22 8,22 C7.44771525,22 7,22.4477153 7,23 L7,28 C5.89602435,28.0014324 5.00143238,28.8960244 5,30 L5,36.27832 C4.38346312,36.6327915 4.00241727,37.2888306 4,38 L4,42 C4,42.5522847 4.44771525,43 5,43 C5.55228475,43 6,42.5522847 6,42 L6,38 L14,38 L14,58 L12,58 L12,50 C12,49.4477153 11.5522847,49 11,49 C10.4477153,49 10,49.4477153 10,50 L10,58 L6,58 L6,50 C6,49.4477153 5.55228475,49 5,49 C4.44771525,49 4,49.4477153 4,50 L4,58 L1,58 C0.44771525,58 6.76353751e-17,58.4477153 0,59 C-6.76353751e-17,59.5522847 0.44771525,60 1,60 L58.667,60 C59.2192847,60 59.667,59.5522847 59.667,59 C59.667,58.4477153 59.2192847,58 58.667,58 Z M7,36 L7,30 L13,30 L13,36 L7,36 Z M39,24 L39.00043,31.58551 L33.307,37.27893 C31.4320727,35.5736847 28.5679273,35.5736847 26.693,37.27893 L21,31.58594 L21,24 L39,24 Z M30,44 C28.3431458,44 27,42.6568542 27,41 C27,39.3431458 28.3431458,38 30,38 C31.6568542,38 33,39.3431458 33,41 C32.9981923,42.6561049 31.6561049,43.9981923 30,44 Z M21,34.41406 L25.4809,38.89496 C24.4633059,41.0234753 25.1008012,43.5747447 27,44.97443 L27,58 L21,58 L21,34.41406 Z M29,58 L29,45.89893 C29.6598566,46.03369 30.3401434,46.03369 31,45.89893 L31,58 L29,58 Z M33,58 L33,44.97443 C34.8991786,43.5747492 35.5366717,41.023505 34.5191,38.895 L39.00061,34.41349 L39.002,58 L33,58 Z M47,30 L53,30 L53,36 L47,36 L47,30 Z M52,58 L52,50 C52,49.4477153 51.5522847,49 51,49 C50.4477153,49 50,49.4477153 50,50 L50,58 L46,58 L46,38 L54,38 L54,58 L52,58 Z" id="Shape" fill="#428DFF"/><path d="M49.7998,32.01953 C49.73727,32.0308259 49.6767332,32.0512261 49.62012,32.08008 C49.5560848,32.1016554 49.4952989,32.1318818 49.43945,32.16992 C49.3872938,32.2069445 49.3373888,32.2470421 49.29,32.29 C49.1053431,32.4803825 49.0014342,32.7347801 49,33 C48.9972841,33.2660296 49.1018129,33.5219448 49.29,33.71 C49.3871911,33.7983831 49.4988409,33.8694158 49.62008,33.92 C49.8620793,34.0267732 50.1378407,34.0267732 50.37984,33.92 C50.6310038,33.8289717 50.8288117,33.6311638 50.91984,33.38 C50.9711508,33.2597935 50.9983849,33.1306897 51,33 C50.9960882,32.7352796 50.8925381,32.4817604 50.71,32.29 C50.4704523,32.0540974 50.1292995,31.9527223 49.7998,32.01953 Z" id="Shape" fill="#428DFF"/><path d="M50.9999998,44 C50.734737,43.9998487 50.4802952,44.1051569 50.2927261,44.2927261 C50.1051569,44.4802953 49.9998487,44.7347371 50,44.9999999 L50,45.9999999 C50,46.5522846 50.4477152,46.9999998 50.9999998,46.9999998 C51.5522845,46.9999998 51.9999997,46.5522846 51.9999997,45.9999999 L51.9999997,44.9999999 C52.000151,44.7347371 51.8948428,44.4802953 51.7072736,44.2927261 C51.5197045,44.1051569 51.2652626,43.9998487 50.9999998,44 Z" id="Shape" fill="#428DFF"/><path d="M51.71,40.29 C51.3090538,39.9198721 50.6910262,39.9198721 50.29008,40.29 C50.2016969,40.3871911 50.1306642,40.4988409 50.08008,40.62008 C49.9733068,40.8620793 49.9733068,41.1378407 50.08008,41.37984 C50.1308952,41.5009584 50.2019041,41.6125708 50.29008,41.70992 C50.6843933,42.0966401 51.3156867,42.0966401 51.71,41.70992 C51.7981759,41.6125708 51.8691848,41.5009584 51.92,41.37984 C52.0267732,41.1378407 52.0267732,40.8620793 51.92,40.62008 C51.8694158,40.4988409 51.7983831,40.3871911 51.71,40.29 Z" id="Shape" fill="#428DFF"/><path d="M24,28 L36,28 C36.5522847,28 37,27.5522847 37,27 C37,26.4477153 36.5522847,26 36,26 L24,26 C23.4477153,26 23,26.4477153 23,27 C23,27.5522847 23.4477153,28 24,28 Z" id="Shape" fill="#428DFF"/><path d="M35.7998,29.01953 C35.73727,29.0308259 35.6767332,29.0512261 35.62012,29.08008 C35.5560848,29.1016554 35.4952989,29.1318818 35.43945,29.16992 C35.3872938,29.2069445 35.3373888,29.2470421 35.29,29.29 C35.1070782,29.481512 35.0034639,29.7351884 35,30 C34.9963457,30.1311715 35.0237868,30.2613457 35.08008,30.37988 C35.1308952,30.5009984 35.2019041,30.6126108 35.29008,30.70996 C35.3872711,30.7983431 35.4989209,30.8693758 35.62016,30.91996 C35.8621593,31.0267332 36.1379207,31.0267332 36.37992,30.91996 C36.5010384,30.8691448 36.6126508,30.7981359 36.71,30.70996 C36.8977919,30.5216587 37.0022508,30.2659288 37,30 C36.9960882,29.7352796 36.8925381,29.4817604 36.71,29.29 C36.4697201,29.0553405 36.1292339,28.9541635 35.7998,29.01953 Z" id="Shape" fill="#428DFF"/><path d="M58,0 L42,0 C40.8960244,0.00143237701 40.0014324,0.896024355 40,2 L40,18 C40.0014324,19.1039756 40.8960244,19.9985676 42,20 L58,20 C59.1039756,19.9985676 59.9985676,19.1039756 60,18 L60,2 C59.9985676,0.896024355 59.1039756,0.00143237701 58,-2.22333263e-16 Z M58,2 L58.00024,4 L42,4 L42,2 L58,2 Z M52,14 L52,6 L54,6 L54,14 L52,14 Z M48,14 L48,6 L50,6 L50,14 L48,14 Z M42,14 L42,6 L46,6 L46,14 L42,14 Z M56,6 L58,6 L58,14 L56,14 L56,6 Z M42,18 L42,16 L58.00171,16 L58.00195,18 L42,18 Z" id="Shape" fill="#428DFF"/><path d="M44.91992,9.62012 C44.8717045,9.49766674 44.8004431,9.38560115 44.71,9.29 C44.6608565,9.24459444 44.6071895,9.20434421 44.54984,9.16988 C44.4989491,9.13013508 44.4414204,9.09971857 44.37992,9.08004 C44.3201309,9.04970245 44.2558207,9.02925409 44.18949,9.01949 C43.8633161,8.95414575 43.5260243,9.05558191 43.29,9.29 C43.1995326,9.38558246 43.128244,9.49763457 43.08,9.62008 C42.9014257,10.0388154 43.0281716,10.5253162 43.3883608,10.8036899 C43.7485499,11.0820635 44.2512901,11.0820635 44.6114792,10.8036899 C44.9716684,10.5253162 45.0984143,10.0388154 44.91984,9.62008 L44.91992,9.62012 Z" id="Shape" fill="#428DFF"/><path d="M10.7002,32.29 C10.656559,32.2424459 10.6058261,32.201927 10.5498,32.16988 C10.4989091,32.1301351 10.4413804,32.0997186 10.37988,32.08004 C10.3200909,32.0497024 10.2557807,32.0292541 10.18945,32.01949 C9.86328894,31.9541599 9.52601557,32.055595 9.29,32.29 C9.20161691,32.3871911 9.13058422,32.4988409 9.08,32.62008 C9.02372821,32.7386332 8.99631437,32.8688215 9,33 C8.99792368,33.1299531 9.02148622,33.2590407 9.06934,33.37988 C9.12792737,33.4992191 9.20213171,33.610233 9.29,33.71 C9.38558246,33.8004674 9.49763457,33.871756 9.62008,33.92 C9.74027279,33.9712456 9.86934802,33.9984251 10,34 C10.5507103,33.9962173 10.9962173,33.5507103 11,33 C10.9983945,32.8693562 10.971188,32.7402948 10.91992,32.62012 C10.8718123,32.4952794 10.7967948,32.3825687 10.7002,32.29 Z" id="Shape" fill="#428DFF"/><path d="M10,46 C10,46.5522847 10.4477153,47 11,47 C11.5522847,47 12,46.5522847 12,46 L12,45 C12,44.4477153 11.5522847,44 11,44 C10.4477153,44 10,44.4477153 10,45 L10,46 Z" id="Shape" fill="#428DFF"/><path d="M11,42 C11.1306438,41.9983945 11.2597052,41.971188 11.37988,41.91992 C11.5009984,41.8691048 11.6126108,41.7980959 11.70996,41.70992 C11.9963682,41.4238331 12.0795569,40.9921071 11.91996,40.62008 C11.8693758,40.4988409 11.7983431,40.3871911 11.70996,40.29 C11.6622573,40.247012 11.6120385,40.2069011 11.55957,40.16988 C11.5040616,40.1318604 11.4436017,40.1016321 11.37988,40.08004 C11.3200909,40.0497024 11.2557807,40.0292541 11.18945,40.01949 C11.0612203,39.9901796 10.9280297,39.9901796 10.7998,40.01949 C10.73727,40.0307859 10.6767332,40.0511861 10.62012,40.08004 C10.5560848,40.1016154 10.4952989,40.1318418 10.43945,40.16988 C10.3872927,40.2069174 10.3373877,40.2470284 10.29,40.29 C10.2016169,40.3871911 10.1305842,40.4988409 10.08,40.62008 C10.0237282,40.7386332 9.99631437,40.8688215 10,41 C9.99728413,41.2660296 10.1018129,41.5219448 10.29,41.71 C10.3871911,41.7983831 10.4988409,41.8694158 10.62008,41.92 C10.7402728,41.9712456 10.869348,41.9984251 11,42 Z" id="Shape" fill="#428DFF"/><path d="M2,20 L18,20 C19.1039756,19.9985676 19.9985676,19.1039756 20,18 L20,2 C19.9985676,0.896024355 19.1039756,0.00143237701 18,-2.22333263e-16 L2,-2.22333263e-16 C0.896024355,0.00143237701 0.00143237701,0.896024355 -2.22333263e-16,2 L-2.22333263e-16,18 C0.00143237701,19.1039756 0.896024355,19.9985676 2,20 Z M2,18 L2,16 L18.00171,16 L18.00195,18 L2,18 Z M2,6 L6,6 L6,14 L2,14 L2,6 Z M10,6 L10,14 L8,14 L8,6 L10,6 Z M14,6 L14,14 L12,14 L12,6 L14,6 Z M18,6 L18,14 L16,14 L16,6 L18,6 Z M18,2 L18.00024,4 L2,4 L2,2 L18,2 Z" id="Shape" fill="#428DFF"/><path d="M4.91992,9.62012 C4.87170449,9.49766674 4.8004431,9.38560115 4.71,9.29 C4.66229732,9.24701203 4.61207854,9.20690112 4.55961,9.16988 C4.50410157,9.13186037 4.44364172,9.10163213 4.37992,9.08004 C4.3232473,9.05132773 4.26273167,9.03093469 4.20024,9.01949 C4.00529618,8.97870136 3.8024781,8.99987194 3.62016,9.08004 C3.36899619,9.17106829 3.17118829,9.36887619 3.08016,9.62004 C2.97338678,9.86203927 2.97338678,10.1378007 3.08016,10.3798 C3.13097524,10.5009184 3.20198412,10.6125308 3.29016,10.70988 C3.38574246,10.8003474 3.49779457,10.871636 3.62024,10.91988 C3.86223927,11.0266532 4.13800073,11.0266532 4.38,10.91988 C4.50108159,10.8690932 4.61266589,10.7981256 4.71,10.71 C4.79817588,10.6126508 4.86918476,10.5010384 4.92,10.37992 C5.02677322,10.1379207 5.02677322,9.86215927 4.92,9.62016 L4.91992,9.62012 Z" id="Shape" fill="#428DFF"/></g></g></g></svg>
