<?xml version="1.0" encoding="UTF-8"?>
<svg xmlns="http://www.w3.org/2000/svg" xmlns:xlink="http://www.w3.org/1999/xlink" width="512" height="512" viewBox="0 0 60 60" version="1.1"><!-- Generator: Sketch 49.3 (51167) - http://www.bohemiancoding.com/sketch --><title>047 - VM settings</title><desc>Created with Sketch.</desc><defs><linearGradient x1="8.859375%" y1="-8.77314815%" x2="91.140625%" y2="113.125%" id="linearGradient-1"><stop stop-color="#D4E1F4" offset="0%"/><stop stop-color="#D4E1F4" offset="17.173%"/><stop stop-color="#D4E1F4" offset="20%"/><stop stop-color="#DAE4F4" offset="20.014%"/><stop stop-color="#EBEBF4" offset="20.069%"/><stop stop-color="#F6F1F4" offset="20.136%"/><stop stop-color="#FDF4F4" offset="20.231%"/><stop stop-color="#FFF5F4" offset="20.495%"/><stop stop-color="#FFF5F4" offset="25.222%"/><stop stop-color="#FFF5F4" offset="26%"/><stop stop-color="#D4E1F4" offset="26%"/><stop stop-color="#D4E1F4" offset="39.739%"/><stop stop-color="#D4E1F4" offset="42%"/><stop stop-color="#DAE4F4" offset="42.014%"/><stop stop-color="#EBEBF4" offset="42.069%"/><stop stop-color="#F6F1F4" offset="42.136%"/><stop stop-color="#FDF4F4" offset="42.231%"/><stop stop-color="#FFF5F4" offset="42.495%"/><stop stop-color="#FFF5F4" offset="48.939%"/><stop stop-color="#FFF5F4" offset="50%"/><stop stop-color="#F9F2F4" offset="50.003%"/><stop stop-color="#E8EBF4" offset="50.014%"/><stop stop-color="#DDE5F4" offset="50.028%"/><stop stop-color="#D6E2F4" offset="50.047%"/><stop stop-color="#D4E1F4" offset="50.1%"/><stop stop-color="#D4E1F4" offset="70.622%"/><stop stop-color="#D4E1F4" offset="74%"/><stop stop-color="#FFF5F4" offset="74.1%"/><stop stop-color="#FFF5F4" offset="83.459%"/><stop stop-color="#FFF5F4" offset="85%"/><stop stop-color="#D4E1F4" offset="85.1%"/></linearGradient></defs><g id="Page-1" stroke="none" stroke-width="1" fill="none" fill-rule="evenodd"><g id="047---VM-settings" fill-rule="nonzero"><g id="Colours" transform="translate(1.000000, 1.000000)"><path d="M58,54 L58,56 C57.9967543,57.1032223 57.1032223,57.9967543 56,58 L2,58 C0.896777692,57.9967543 0.00324565669,57.1032223 2.22044605e-16,56 L2.22044605e-16,54 L7,45 L7,20 C7.00322381,18.8967686 7.89676861,18.0032238 9,18 L49,18 C50.1032314,18.0032238 50.9967762,18.8967686 51,20 L51,45 L58,54 Z" id="Shape" fill="#A4C2F7"/><path d="M7,45 L7,20 C7.00322381,18.8967686 7.89676861,18.0032238 9,18 L45,18 C46.1032314,18.0032238 46.9967762,18.8967686 47,20 L47,45 L7,45 Z" id="Shape" fill="url(#linearGradient-1)"/><polygon id="Shape" fill="#A4C2F7" points="58 54 0 54 7 45 51 45"/><polygon id="Shape" fill="#E3E7F2" points="54 54 0 54 7 45 47 45"/><path d="M0,54 L58,54 L58,56 C58,57.1045695 57.1045695,58 56,58 L2,58 C0.8954305,58 2.22044605e-16,57.1045695 0,56 L0,54 Z" id="Shape" fill="#E3E7F2"/><path d="M47,40.57 L47.0000084,41 L35,41 C35,38.2385763 32.7614237,36 30,36 C27.2385763,36 25,38.2385763 25,41 L11.9999916,41 L12,40.57 C11.999174,39.7101555 12.0593249,38.8513347 12.18,38 L15.56,38 C15.6912481,37.1931794 15.8954181,36.3999287 16.17,35.63 L13.25,33.89 C13.8650148,32.2941687 14.7070191,30.7954009 15.75,29.44 L18.68,31.18 C19.1862326,30.547148 19.7521727,29.9644641 20.37,29.44 L18.68,26.43 C19.9844566,25.3636598 21.4404208,24.4974959 23,23.86 L24.69,26.86 C25.4388389,26.5789486 26.2121589,26.3680431 27,26.23 L27,22.76 C28.65704,22.5066667 30.34296,22.5066667 32,22.76 L32,26.23 C32.7878411,26.3680431 33.5611611,26.5789486 34.31,26.86 L36,23.86 C37.5595792,24.4974959 39.0155434,25.3636598 40.32,26.43 L38.63,29.44 C39.2478273,29.9644641 39.8137674,30.547148 40.32,31.18 L43.25,29.44 C44.2929809,30.7954009 45.1349852,32.2941687 45.75,33.89 L42.83,35.63 C43.1045819,36.3999287 43.3087519,37.1931794 43.44,38 L46.82,38 C46.9406751,38.8513347 47.000826,39.7101555 47,40.57 Z" id="Shape" fill="#E3E7F2"/><path d="M35,41 L25,41 C25,38.2385763 27.2385763,36 30,36 C32.7614237,36 35,38.2385763 35,41 Z" id="Shape" fill="#A4C2F7"/><polygon id="Shape" fill="#E3E7F2" points="21 8 21 18 13 14 13 4"/><polygon id="Shape" fill="#A4C2F7" points="29 4 29 14 21 18 21 8"/><polygon id="Shape" fill="#D4E1F4" points="29 4 21 8 13 4 21 0"/><polygon id="Shape" fill="#E3E7F2" points="37.125 8 37.125 18 29.125 14 29.125 4"/><polygon id="Shape" fill="#A4C2F7" points="45.125 4 45.125 14 37.125 18 37.125 8"/><polygon id="Shape" fill="#D4E1F4" points="45.125 4 37.125 8 29.125 4 37.125 0"/></g><g id="White" transform="translate(1.000000, 19.000000)" fill="#FFFFFF"><path d="M12,0 C10.8967686,0.00322381203 10.0032238,0.896768606 10,2 L10,27 L3,36 L3,38 C3.00324566,39.1032223 3.89677769,39.9967543 5,40 L2,40 C0.896777692,39.9967543 0.00324565669,39.1032223 2.22044605e-16,38 L2.22044605e-16,36 L7,27 L7,2 C7.00322381,0.896768606 7.89676861,0.00322381203 9,0 L12,0 Z" id="Shape"/></g><g id="Icons"><polygon id="Shape" fill="#FFFFFF" points="9 21 9 34 9 46 7 46 7 34 7 21"/><path d="M8.37988,28.07959 C8.32314916,28.0508094 8.26241371,28.0307216 8.19971,28.02 C8.13367967,28.0087447 8.06695098,28.0020622 8,28 C7.73523302,28.0036835 7.48163379,28.1072663 7.29,28.29 C7.04738605,28.5237239 6.94092053,28.8651552 7.00769206,29.195352 C7.07446358,29.5255488 7.30522588,29.7987868 7.61959,29.91988 C7.7399307,29.9712163 7.86917622,29.9984374 8,30 C8.40434698,29.9984049 8.76828126,29.7544153 8.92333521,29.3809754 C9.07838917,29.0075356 8.99430271,28.5775256 8.71,28.29 L8.5601,28.16988 C8.50430713,28.1319063 8.44369968,28.1015421 8.37988,28.07959 Z" id="Shape" fill="#428DFF"/><path d="M10,18 C8.34389511,18.0018077 7.00180771,19.3438951 7,21 L7,25 C7,25.5522847 7.44771525,26 8,26 C8.55228475,26 9,25.5522847 9,25 L9,21 C9.00036956,20.4478684 9.4478684,20.0003696 10,20 L13,20 C13.5522847,20 14,19.5522847 14,19 C14,18.4477153 13.5522847,18 13,18 L10,18 Z" id="Shape" fill="#428DFF"/><path d="M59.92352,54.62048 C59.91663,54.60364 59.90472,54.59039 59.89691,54.57404 C59.8679789,54.5075058 59.831811,54.4443588 59.78906,54.38574 L53,45.65692 L53,21 C52.9981923,19.3438951 51.6561049,18.0018077 50,18 L47,18 C46.4477153,18 46,18.4477153 46,19 C46,19.5522847 46.4477153,20 47,20 L50,20 C50.5521316,20.0003696 50.9996304,20.4478684 51,21 L51,45 L9,45 L9,33 C9,32.4477153 8.55228475,32 8,32 C7.44771525,32 7,32.4477153 7,33 L7,45.65692 L0.21094,54.38574 C0.168069138,54.4445288 0.131797523,54.5078566 0.10278,54.57458 C0.09509,54.59076 0.08344,54.6037 0.0766,54.6203 C0.033586579,54.7293315 0.0102257295,54.8451201 0.0076,54.9623 C0.00714,54.97552 0,54.98663 0,55 L0,57 C0.00180771165,58.6561049 1.34389511,59.9981923 3,60 L57,60 C58.6561049,59.9981923 59.9981923,58.6561049 60,57 L60,55 C60,54.98663 59.99292,54.97552 59.99237,54.96228 C59.9897612,54.8451774 59.9664519,54.7294602 59.92352,54.62048 Z M8.48926,47 L51.51074,47 L56.95508,54 L3.04492,54 L8.48926,47 Z M58,57 C57.9996304,57.5521316 57.5521316,57.9996304 57,58 L3,58 C2.4478684,57.9996304 2.00036956,57.5521316 2,57 L2,56 L58,56 L58,57 Z" id="Shape" fill="#428DFF"/><path d="M46,50 L14,50 C13.4477153,50 13,50.4477153 13,51 C13,51.5522847 13.4477153,52 14,52 L46,52 C46.5522847,52 47,51.5522847 47,51 C47,50.4477153 46.5522847,50 46,50 Z" id="Shape" fill="#428DFF"/><path d="M10,50 L9,50 C8.44771525,50 8,50.4477153 8,51 C8,51.5522847 8.44771525,52 9,52 L10,52 C10.5522847,52 11,51.5522847 11,51 C11,50.4477153 10.5522847,50 10,50 Z" id="Shape" fill="#428DFF"/><path d="M51,50 L50,50 C49.4477153,50 49,50.4477153 49,51 C49,51.5522847 49.4477153,52 50,52 L51,52 C51.5522847,52 52,51.5522847 52,51 C52,50.4477153 51.5522847,50 51,50 Z" id="Shape" fill="#428DFF"/><path d="M47.68262,34.52441 C47.0325385,32.8394767 46.1428468,31.2571081 45.04102,29.82617 C44.7320612,29.4265133 44.1735222,29.3201053 43.73926,29.57817 L41.53418,30.88969 C41.32718,30.6641 41.11518,30.44633 40.89551,30.23442 L42.19727,27.919 C42.4347465,27.495188 42.3338852,26.9620694 41.958,26.6543 C40.5752451,25.5252402 39.0323416,24.6079902 37.37987,23.93262 C36.9132091,23.7404961 36.3765414,23.9265022 36.12887,24.36621 L34.84371,26.64551 C34.56246,26.56051 34.28121,26.4834 33.99996,26.41699 L33.99996,23.75977 C34.00001,23.2673301 33.6416734,22.848095 33.15523,22.77148 C31.3950142,22.50586 29.6049058,22.50586 27.84469,22.77148 C27.3582624,22.8481127 26.9999469,23.267343 27,23.75977 L27,26.417 C26.71875,26.48341 26.4375,26.56056 26.15625,26.64552 L24.87109,24.36622 C24.6229911,23.9270246 24.0867697,23.7411731 23.62009,23.93263 C21.967633,24.6080007 20.4247433,25.5252471 19.042,26.6543 C18.6661446,26.9620662 18.5652897,27.4951521 18.80274,27.91895 L20.1045,30.23438 C19.88478,30.44629 19.67286,30.66406 19.46583,30.88965 L17.26075,29.57813 C16.8264366,29.320357 16.2681037,29.4267257 15.95899,29.82613 C14.8571632,31.2570681 13.9674715,32.8394367 13.31739,34.52437 C13.1413959,34.9789513 13.318781,35.4941969 13.73731,35.7441 L15.97267,37.0781 C15.8828233,37.3847667 15.8033967,37.6920567 15.73439,37.99997 L13.18359,37.99997 C12.6882218,37.9999738 12.2674799,38.362571 12.19434,38.85251 C12.0941529,39.5642981 12.0359855,40.2813703 12.02014,41 L11,41 C10.4477153,41 10,41.4477153 10,42 C10,42.5522847 10.4477153,43 11,43 L49,43 C49.5522847,43 50,42.5522847 50,42 C50,41.4477153 49.5522847,41 49,41 L48.97986,41 C48.9640133,40.2813803 48.9058459,39.5643182 48.80566,38.85254 C48.7325201,38.362601 48.3117782,38.0000038 47.81641,38 L45.26563,38 C45.1962967,37.69238 45.1168667,37.38509 45.02734,37.07813 L47.2627,35.74413 C47.6812241,35.4942277 47.8586084,34.9789885 47.68262,34.52441 Z M27.142,41 C27.5906201,39.2354144 29.1792797,38.0001101 31,38.0001101 C32.8207203,38.0001101 34.4093799,39.2354144 34.858,41 L27.142,41 Z M43.32034,35.76758 C42.9128578,36.0112739 42.7325756,36.50766 42.8887,36.95605 C43.1411908,37.6731598 43.3303904,38.4110056 43.45413,39.16113 C43.5333669,39.6448083 43.9512843,39.9999035 44.44141,40 L46.92969,40 C46.95953,40.32507 46.96356,40.66437 46.97443,41 L36.90967,41 C36.4249978,38.1138713 33.9265416,36.0000002 31,36.0000002 C28.0734584,36.0000002 25.5750022,38.1138713 25.09033,41 L14.02557,41 C14.03644,40.66437 14.04047,40.32507 14.07031,40 L16.55859,40 C17.048727,39.9999182 17.4666613,39.6448195 17.5459,39.16113 C17.6696396,38.4110056 17.8588392,37.6731598 18.11133,36.95605 C18.2674544,36.50766 18.0871722,36.0112739 17.67969,35.76758 L15.50586,34.4707 C15.9256725,33.5226983 16.4327392,32.6157932 17.02051,31.7617 L19.16406,33.03611 C19.5900152,33.288961 20.136852,33.1922163 20.4502,32.80857 C20.9240047,32.2249546 21.4492205,31.6850298 22.01953,31.19529 C22.3795266,30.884002 22.4709428,30.3624596 22.23828,29.94729 L20.96875,27.69045 C21.786374,27.0922087 22.6587488,26.5726417 23.57422,26.13869 L24.82031,28.34869 C25.0613632,28.7765535 25.5776468,28.9657602 26.03809,28.79498 C26.7296869,28.5379893 27.4432408,28.3444843 28.16992,28.21686 C28.6494189,28.133936 28.9997351,27.7180664 29,27.23145 L29,24.6416 C29.9978027,24.54785 31.0021973,24.54785 32,24.6416 L32,27.23145 C32.0002941,27.7180437 32.3506034,28.1338799 32.83008,28.2168 C33.5567592,28.3444243 34.2703131,28.5379293 34.96191,28.79492 C35.4223513,28.9665074 35.9391597,28.7771083 36.17969,28.34863 L37.42578,26.13863 C38.3412512,26.5725817 39.213626,27.0921487 40.03125,27.69039 L38.76172,29.94723 C38.5290572,30.3623996 38.6204734,30.883942 38.98047,31.19523 C39.5507795,31.6849698 40.0759953,32.2248946 40.5498,32.80851 C40.8625354,33.1931992 41.4102024,33.2900908 41.83594,33.03605 L43.97949,31.76164 C44.5672608,32.6157332 45.0743275,33.5226383 45.49414,34.47064 L43.32034,35.76758 Z" id="Shape" fill="#428DFF"/><path d="M47,15 L47,5 C46.9986787,4.90106431 46.9825292,4.80288602 46.95209,4.70874 C46.94489,4.68518 46.9339,4.66443 46.92499,4.64148 C46.8904992,4.55234011 46.8432753,4.46866765 46.78479,4.39307 C46.77008,4.37402 46.75891,4.35419 46.74279,4.33618 C46.6796926,4.26377823 46.6064663,4.20087184 46.52538,4.14941 C46.50878,4.1391 46.4901,4.13483 46.47307,4.12561 C46.46307,4.12024 46.45745,4.11053 46.44726,4.10547 L38.44726,0.10547 C38.42492,0.09447 38.40069,0.09613 38.37792,0.08691 C38.3152305,0.06302706 38.2502475,0.0456654283 38.184,0.0351 C37.9954239,0.00282641231 37.8016778,0.0206723138 37.62217,0.08685 C37.59941,0.09613 37.57511,0.09442 37.55271,0.10547 L30,3.88184 L22.44727,0.10547 C22.42468,0.0943 22.40015,0.096 22.37714,0.08667 C22.314957,0.0629914605 22.25051,0.0457513052 22.18481,0.03522 C22.0636898,0.00315321051 21.9363102,0.00315321051 21.81519,0.03522 C21.74949,0.0457513052 21.685043,0.0629914605 21.62286,0.08667 C21.59986,0.09601 21.57532,0.0943 21.55273,0.10547 L13.55273,4.10547 C13.5426,4.11053 13.53693,4.12018 13.52704,4.12555 C13.51004,4.13483 13.49121,4.1391 13.47461,4.14941 C13.3935781,4.20084963 13.3203938,4.26371423 13.25732,4.33606 C13.24115,4.35419 13.2298,4.37421 13.21509,4.39331 C13.1567182,4.46877412 13.1095638,4.55228128 13.07509,4.64124 C13.06609,4.66437 13.05509,4.68524 13.04781,4.70892 C13.0173996,4.80300812 13.0012834,4.90112776 13,5 L13,15 C13.000044,15.3787699 13.2140004,15.7250339 13.55273,15.89453 L21.55273,19.89453 C21.56744,19.90186 21.58429,19.89893 21.59918,19.90546 C21.8515276,20.0315127 22.1484724,20.0315127 22.40082,19.90546 C22.41571,19.89893 22.43256,19.90186 22.44727,19.89453 L30,16.11816 L37.55273,19.89453 C37.56744,19.90186 37.58429,19.89893 37.59918,19.90546 C37.8515276,20.0315127 38.1484724,20.0315127 38.40082,19.90546 C38.41571,19.89893 38.43256,19.90186 38.44727,19.89453 L46.44727,15.89453 C46.7859996,15.7250339 46.999956,15.3787699 47,15 Z M38,7.88184 L32.23633,5 L38,2.11816 L43.76367,5 L38,7.88184 Z M22,7.88184 L16.23633,5 L22,2.11816 L27.76367,5 L22,7.88184 Z M15,6.61816 L21,9.61816 L21,17.38184 L15,14.38184 L15,6.61816 Z M23,9.61816 L29,6.61816 L29,14.38184 L23,17.38184 L23,9.61816 Z M31,6.61816 L37,9.61816 L37,17.38184 L31,14.38184 L31,6.61816 Z M45,14.38184 L39,17.38184 L39,9.61816 L45,6.61816 L45,14.38184 Z" id="Shape" fill="#428DFF"/></g></g></g></svg>
