<?xml version="1.0" encoding="UTF-8"?>
<svg xmlns="http://www.w3.org/2000/svg" xmlns:xlink="http://www.w3.org/1999/xlink" width="512" height="512" viewBox="0 0 60 60" version="1.1"><!-- Generator: Sketch 49.3 (51167) - http://www.bohemiancoding.com/sketch --><title>046 - Resteor file from tape</title><desc>Created with Sketch.</desc><defs><linearGradient x1="-12.5%" y1="9.02777778%" x2="106.730769%" y2="95.1388889%" id="linearGradient-1"><stop stop-color="#D4E1F4" offset="0%"/><stop stop-color="#D4E1F4" offset="17.173%"/><stop stop-color="#D4E1F4" offset="20%"/><stop stop-color="#DAE4F4" offset="20.014%"/><stop stop-color="#EBEBF4" offset="20.069%"/><stop stop-color="#F6F1F4" offset="20.136%"/><stop stop-color="#FDF4F4" offset="20.231%"/><stop stop-color="#FFF5F4" offset="20.495%"/><stop stop-color="#FFF5F4" offset="25.222%"/><stop stop-color="#FFF5F4" offset="26%"/><stop stop-color="#D4E1F4" offset="26%"/><stop stop-color="#D4E1F4" offset="39.739%"/><stop stop-color="#D4E1F4" offset="42%"/><stop stop-color="#DAE4F4" offset="42.014%"/><stop stop-color="#EBEBF4" offset="42.069%"/><stop stop-color="#F6F1F4" offset="42.136%"/><stop stop-color="#FDF4F4" offset="42.231%"/><stop stop-color="#FFF5F4" offset="42.495%"/><stop stop-color="#FFF5F4" offset="48.939%"/><stop stop-color="#FFF5F4" offset="50%"/><stop stop-color="#F9F2F4" offset="50.003%"/><stop stop-color="#E8EBF4" offset="50.014%"/><stop stop-color="#DDE5F4" offset="50.028%"/><stop stop-color="#D6E2F4" offset="50.047%"/><stop stop-color="#D4E1F4" offset="50.1%"/><stop stop-color="#D4E1F4" offset="70.622%"/><stop stop-color="#D4E1F4" offset="74%"/><stop stop-color="#FFF5F4" offset="74.1%"/><stop stop-color="#FFF5F4" offset="83.459%"/><stop stop-color="#FFF5F4" offset="85%"/><stop stop-color="#D4E1F4" offset="85.1%"/></linearGradient></defs><g id="Page-1" stroke="none" stroke-width="1" fill="none" fill-rule="evenodd"><g id="046---Resteor-file-from-tape" fill-rule="nonzero"><g id="Colours" transform="translate(1.000000, 1.000000)"><path d="M34,25 L34,57 C33.9983526,57.5516009 33.5516009,57.9983526 33,58 L1,58 C0.448399067,57.9983526 0.00164740056,57.5516009 0,57 L0,25 C0.00164740056,24.4483991 0.448399067,24.0016474 1,24 L24,24 L27.29,27.29 C27.5748737,27.5769772 28.004521,27.6641895 28.3787425,27.5109995 C28.7529639,27.3578094 28.998129,26.994358 29,26.59 L29,24 L33,24 C33.5516009,24.0016474 33.9983526,24.4483991 34,25 Z" id="Shape" fill="#A4C2F7"/><path d="M30,25 L30,57 C29.9983526,57.5516009 29.5516009,57.9983526 29,58 L1,58 C0.448399067,57.9983526 0.00164740056,57.5516009 0,57 L0,25 C0.00164740056,24.4483991 0.448399067,24.0016474 1,24 L20,24 L23.29,27.29 C23.5748737,27.5769772 24.004521,27.6641895 24.3787425,27.5109995 C24.7529639,27.3578094 24.998129,26.994358 25,26.59 L25,25 L27.29,27.29 C27.5748737,27.5769772 28.004521,27.6641895 28.3787425,27.5109995 C28.7529639,27.3578094 28.998129,26.994358 29,26.59 L29,24 C29.5516009,24.0016474 29.9983526,24.4483991 30,25 Z" id="Shape" fill="#E3E7F2"/><path d="M4,50 L4,53 C3.9983526,53.5516009 3.55160093,53.9983526 3,54 L0,54 L0,49 L3,49 C3.55160093,49.0016474 3.9983526,49.4483991 4,50 Z" id="Shape" fill="#A4C2F7"/><path d="M21.89,40 C21.8587107,39.8032754 21.8118978,39.6093363 21.75,39.42 C21.6408401,39.1001702 21.500148,38.7919874 21.33,38.5 C21.1628648,38.2071384 20.9614464,37.9352236 20.73,37.69 C20.6054007,37.5354027 20.4645973,37.3945993 20.31,37.27 C20.0647825,37.0385463 19.7928668,36.8371272 19.5,36.67 C19.2077375,36.5030659 18.8995434,36.3657186 18.58,36.26 C18.389553,36.1994388 18.1959291,36.1493637 18,36.11 C17.3396718,35.9799899 16.6603282,35.9799899 16,36.11 C15.8040709,36.1493637 15.610447,36.1994388 15.42,36.26 C15.1004566,36.3657186 14.7922625,36.5030659 14.5,36.67 C14.2071332,36.8371272 13.9352175,37.0385463 13.69,37.27 C13.5354027,37.3945993 13.3945993,37.5354027 13.27,37.69 C13.0385536,37.9352236 12.8371352,38.2071384 12.67,38.5 C12.499852,38.7919874 12.3591599,39.1001702 12.25,39.42 C12.1881022,39.6093363 12.1412893,39.8032754 12.11,40 C11.9633466,40.6586015 11.9633466,41.3413985 12.11,42 C12.1412794,42.1967266 12.1880924,42.3906664 12.25,42.58 C12.3591749,42.8998238 12.4998663,43.2080052 12.67,43.5 C12.83715,43.7928519 13.0385671,44.064765 13.27,44.31 C13.6185417,44.7179505 14.0345962,45.0629714 14.5,45.33 C16.0469457,46.2233868 17.9530543,46.2233868 19.5,45.33 C19.9654038,45.0629714 20.3814583,44.7179505 20.73,44.31 C20.9614329,44.064765 21.16285,43.7928519 21.33,43.5 C21.5001337,43.2080052 21.6408251,42.8998238 21.75,42.58 C21.8119076,42.3906664 21.8587206,42.1967266 21.89,42 C22.0366534,41.3413985 22.0366534,40.6586015 21.89,40 Z M18.5,43.59 C17.5729084,44.130031 16.4270916,44.130031 15.5,43.59 C15.0435561,43.3335359 14.6664641,42.9564439 14.41,42.5 C13.8633737,41.5747001 13.8633737,40.4252999 14.41,39.5 C14.6664534,39.043548 15.043548,38.6664534 15.5,38.41 C16.4252999,37.8633737 17.5747001,37.8633737 18.5,38.41 C18.956452,38.6664534 19.3335466,39.043548 19.59,39.5 C20.1366263,40.4252999 20.1366263,41.5747001 19.59,42.5 C19.3335359,42.9564439 18.9564439,43.3335359 18.5,43.59 Z" id="Shape" fill="#67B9CC"/><path d="M22.16,58 L11.44,58 C12.334126,55.827745 14.450925,54.4099397 16.8,54.4099397 C19.149075,54.4099397 21.265874,55.827745 22.16,58 Z" id="Shape" fill="#A4C2F7"/><path d="M34,49 L34,54 L31,54 C30.4483991,53.9983526 30.0016474,53.5516009 30,53 L30,50 C30.0016474,49.4483991 30.4483991,49.0016474 31,49 L34,49 Z" id="Shape" fill="#A4C2F7"/><path d="M17,32 C12.0294373,32 8,36.0294373 8,41 C8,45.9705627 12.0294373,50 17,50 C21.9705627,50 26,45.9705627 26,41 C25.9996024,36.0296019 21.9703981,32.0003976 17,32 Z M20.46,43 C20.1120111,43.6079823 19.6079823,44.1120111 19,44.46 C17.763881,45.1800532 16.236119,45.1800532 15,44.46 C14.3920177,44.1120111 13.8879889,43.6079823 13.54,43 C12.8200265,41.7638595 12.8200265,40.2361405 13.54,39 C13.8880118,38.3920352 14.3920352,37.8880118 15,37.54 C16.2361405,36.8200265 17.7638595,36.8200265 19,37.54 C19.6079648,37.8880118 20.1119882,38.3920352 20.46,39 C21.1799735,40.2361405 21.1799735,41.7638595 20.46,43 Z" id="Shape" fill="#A4C2F7"/><path d="M21.89,40 C21.8587107,39.8032754 21.8118978,39.6093363 21.75,39.42 C21.6408401,39.1001702 21.500148,38.7919874 21.33,38.5 C21.1628648,38.2071384 20.9614464,37.9352236 20.73,37.69 C20.6054007,37.5354027 20.4645973,37.3945993 20.31,37.27 C20.0647825,37.0385463 19.7928668,36.8371272 19.5,36.67 C19.2077375,36.5030659 18.8995434,36.3657186 18.58,36.26 C18.389553,36.1994388 18.1959291,36.1493637 18,36.11 C17.3396718,35.9799899 16.6603282,35.9799899 16,36.11 C15.8040709,36.1493637 15.610447,36.1994388 15.42,36.26 C15.1004566,36.3657186 14.7922625,36.5030659 14.5,36.67 C14.2071332,36.8371272 13.9352175,37.0385463 13.69,37.27 C13.5354027,37.3945993 13.3945993,37.5354027 13.27,37.69 C13.0385536,37.9352236 12.8371352,38.2071384 12.67,38.5 C12.499852,38.7919874 12.3591599,39.1001702 12.25,39.42 C12.1881022,39.6093363 12.1412893,39.8032754 12.11,40 C11.9633466,40.6586015 11.9633466,41.3413985 12.11,42 C12.1412794,42.1967266 12.1880924,42.3906664 12.25,42.58 C12.3591749,42.8998238 12.4998663,43.2080052 12.67,43.5 C12.83715,43.7928519 13.0385671,44.064765 13.27,44.31 C13.6185417,44.7179505 14.0345962,45.0629714 14.5,45.33 C16.0469457,46.2233868 17.9530543,46.2233868 19.5,45.33 C19.9654038,45.0629714 20.3814583,44.7179505 20.73,44.31 C20.9614329,44.064765 21.16285,43.7928519 21.33,43.5 C21.5001337,43.2080052 21.6408251,42.8998238 21.75,42.58 C21.8119076,42.3906664 21.8587206,42.1967266 21.89,42 C22.0366534,41.3413985 22.0366534,40.6586015 21.89,40 Z M18.5,43.59 C17.5729084,44.130031 16.4270916,44.130031 15.5,43.59 C15.0435561,43.3335359 14.6664641,42.9564439 14.41,42.5 C13.8633737,41.5747001 13.8633737,40.4252999 14.41,39.5 C14.6664534,39.043548 15.043548,38.6664534 15.5,38.41 C16.4252999,37.8633737 17.5747001,37.8633737 18.5,38.41 C18.956452,38.6664534 19.3335466,39.043548 19.59,39.5 C20.1366263,40.4252999 20.1366263,41.5747001 19.59,42.5 C19.3335359,42.9564439 18.9564439,43.3335359 18.5,43.59 Z" id="Shape" fill="#67B9CC"/><path d="M21.89,40 C21.8587107,39.8032754 21.8118978,39.6093363 21.75,39.42 C21.6408401,39.1001702 21.500148,38.7919874 21.33,38.5 C21.1628648,38.2071384 20.9614464,37.9352236 20.73,37.69 C20.6054007,37.5354027 20.4645973,37.3945993 20.31,37.27 C20.0647825,37.0385463 19.7928668,36.8371272 19.5,36.67 C19.2077375,36.5030659 18.8995434,36.3657186 18.58,36.26 C18.389553,36.1994388 18.1959291,36.1493637 18,36.11 C17.3396718,35.9799899 16.6603282,35.9799899 16,36.11 C15.8040709,36.1493637 15.610447,36.1994388 15.42,36.26 C15.1004566,36.3657186 14.7922625,36.5030659 14.5,36.67 C14.2071332,36.8371272 13.9352175,37.0385463 13.69,37.27 C13.5354027,37.3945993 13.3945993,37.5354027 13.27,37.69 C13.0385536,37.9352236 12.8371352,38.2071384 12.67,38.5 C12.499852,38.7919874 12.3591599,39.1001702 12.25,39.42 C12.1881022,39.6093363 12.1412893,39.8032754 12.11,40 C11.9633466,40.6586015 11.9633466,41.3413985 12.11,42 C12.1412794,42.1967266 12.1880924,42.3906664 12.25,42.58 C12.3591749,42.8998238 12.4998663,43.2080052 12.67,43.5 C12.83715,43.7928519 13.0385671,44.064765 13.27,44.31 C13.6185417,44.7179505 14.0345962,45.0629714 14.5,45.33 C16.0469457,46.2233868 17.9530543,46.2233868 19.5,45.33 C19.9654038,45.0629714 20.3814583,44.7179505 20.73,44.31 C20.9614329,44.064765 21.16285,43.7928519 21.33,43.5 C21.5001337,43.2080052 21.6408251,42.8998238 21.75,42.58 C21.8119076,42.3906664 21.8587206,42.1967266 21.89,42 C22.0366534,41.3413985 22.0366534,40.6586015 21.89,40 Z M18.5,43.59 C17.5729084,44.130031 16.4270916,44.130031 15.5,43.59 C15.0435561,43.3335359 14.6664641,42.9564439 14.41,42.5 C13.8633737,41.5747001 13.8633737,40.4252999 14.41,39.5 C14.6664534,39.043548 15.043548,38.6664534 15.5,38.41 C16.4252999,37.8633737 17.5747001,37.8633737 18.5,38.41 C18.956452,38.6664534 19.3335466,39.043548 19.59,39.5 C20.1366263,40.4252999 20.1366263,41.5747001 19.59,42.5 C19.3335359,42.9564439 18.9564439,43.3335359 18.5,43.59 Z" id="Shape" fill="#67B9CC"/><path d="M20,41 C19.9989846,41.5275405 19.8574666,42.0452895 19.59,42.5 C19.3335359,42.9564439 18.9564439,43.3335359 18.5,43.59 C17.5729084,44.130031 16.4270916,44.130031 15.5,43.59 C15.0435561,43.3335359 14.6664641,42.9564439 14.41,42.5 C13.8633737,41.5747001 13.8633737,40.4252999 14.41,39.5 C14.6664534,39.043548 15.043548,38.6664534 15.5,38.41 C16.4252999,37.8633737 17.5747001,37.8633737 18.5,38.41 C18.956452,38.6664534 19.3335466,39.043548 19.59,39.5 C19.8574814,39.9547042 19.9990005,40.4724574 20,41 Z" id="Shape" fill="#E3E7F2"/><path d="M58,8 L58,36 C57.9967543,37.1032223 57.1032223,37.9967543 56,38 L34,38 L34,25 C33.9983526,24.4483991 33.5516009,24.0016474 33,24 L29,24 L29,2 C29.0032238,0.896768606 29.8967686,0.00322381203 31,2.22044605e-16 L50,2.22044605e-16 L50,7 C50.0016474,7.55160093 50.4483991,7.9983526 51,8 L58,8 Z" id="Shape" fill="#A4C2F7"/><path d="M55,10 L55,38 L34,38 L34,25 C33.9983526,24.4483991 33.5516009,24.0016474 33,24 L29,24 L29,2 L47,2 L47,9 C47.0016474,9.55160093 47.4483991,9.9983526 48,10 L55,10 Z" id="Shape" fill="url(#linearGradient-1)"/><path d="M58,8 L51,8 C50.4483991,7.9983526 50.0016474,7.55160093 50,7 L50,0 L58,8 Z" id="Shape" fill="#A4C2F7"/><path d="M25,8 C24.9967543,9.10322231 24.1032223,9.99675434 23,10 L16,10 C15.4483991,10.0016474 15.0016474,10.4483991 15,11 L15,13 L18,13 L13,20 L8,13 L11,13 L11,11 C11.0009989,8.23899013 13.2389901,6.00099894 16,6 L23,6 C24.1032314,6.00322381 24.9967762,6.89676861 25,8 Z" id="Shape" fill="#E3E7F2"/></g><g id="White" transform="translate(1.000000, 1.000000)" fill="#FFFFFF"><path d="M3,57 C3.0016474,57.5516009 3.44839907,57.9983526 4,58 L1,58 C0.448399067,57.9983526 0.00164740056,57.5516009 0,57 L0,25 C0.00164740056,24.4483991 0.448399067,24.0016474 1,24 L4,24 C3.44839907,24.0016474 3.0016474,24.4483991 3,25 L3,57 Z" id="Shape"/><path d="M29,24 L29,2 C29.0032238,0.896768606 29.8967686,0.00322381203 31,2.22044605e-16 L34,2.22044605e-16 C32.8967686,0.00322381203 32.0032238,0.896768606 32,2 L32,24 L29,24 Z" id="Shape"/></g><g id="Icons"><polygon id="Shape" fill="#FFFFFF" points="2 26 2 39 2 58 0 58 0 39 0 26"/><path d="M1,35 C1.26470163,34.995996 1.51818849,34.8924591 1.71,34.71 C2.09672008,34.3156867 2.09672008,33.6843933 1.71,33.29008 L1.5601,33.16996 C1.50432178,33.1319755 1.44372787,33.1015979 1.37992,33.07963 C1.3231789,33.0508318 1.26242959,33.0307304 1.19971,33.02 C1.13367967,33.0087447 1.06695098,33.0020622 1,33 C0.735233018,33.0036835 0.481633787,33.1072663 0.29,33.29 C-0.0875531162,33.6880448 -0.0875531162,34.3119552 0.29,34.71 C0.385532731,34.8002924 0.497389252,34.8715624 0.61959,34.92 C0.739939045,34.9712951 0.869184251,34.9984753 1,35 Z" id="Shape" fill="#428DFF"/><path d="M28,42 C28,36.4771525 23.5228475,32 18,32 C12.4771525,32 8,36.4771525 8,42 C8,47.5228475 12.4771525,52 18,52 C23.5201588,51.9935142 27.9935142,47.5201588 28,42 Z M10,42 C10,37.581722 13.581722,34 18,34 C22.418278,34 26,37.581722 26,42 C26,46.418278 22.418278,50 18,50 C13.5838169,49.9949466 10.0050534,46.4161831 10,42 Z" id="Shape" fill="#428DFF"/><path d="M19,47 L19,46.89893 C19.1939755,46.8518053 19.3848856,46.7928552 19.57166,46.72241 L19.63379,46.83008 C19.9100771,47.3081605 20.5215227,47.4718898 20.9997444,47.1958472 C21.4779661,46.9198046 21.642008,46.3084428 21.36621,45.83008 L21.3045,45.72314 C21.452199,45.591991 21.591991,45.452199 21.72314,45.3045 L21.83008,45.36621 C22.1395611,45.545062 22.5209652,45.5451568 22.8305352,45.3664587 C23.1401052,45.1877606 23.3307768,44.8574374 23.3306828,44.4999929 C23.3305889,44.1425483 23.1397439,43.8123254 22.83008,43.63379 L22.72241,43.57166 C22.7928552,43.3848856 22.8518053,43.1939755 22.89893,43 L23,43 C23.5522847,43 24,42.5522847 24,42 C24,41.4477153 23.5522847,41 23,41 L22.89893,41 C22.8518053,40.8060245 22.7928552,40.6151144 22.72241,40.42834 L22.83008,40.36621 C23.1397439,40.1876746 23.3305889,39.8574517 23.3306828,39.5000071 C23.3307768,39.1425626 23.1401052,38.8122394 22.8305352,38.6335413 C22.5209652,38.4548432 22.1395611,38.454938 21.83008,38.63379 L21.72314,38.6955 C21.591991,38.547801 21.452199,38.408009 21.3045,38.27686 L21.36621,38.16992 C21.642008,37.6915572 21.4779661,37.0801954 20.9997444,36.8041528 C20.5215227,36.5281102 19.9100771,36.6918395 19.63379,37.16992 L19.57166,37.27759 C19.3848856,37.2071448 19.1939755,37.1481947 19,37.10107 L19,37 C19,36.4477153 18.5522847,36 18,36 C17.4477153,36 17,36.4477153 17,37 L17,37.10107 C16.8060245,37.1481947 16.6151144,37.2071448 16.42834,37.27759 L16.36621,37.16992 C16.1876746,36.8602561 15.8574517,36.6694111 15.5000071,36.6693172 C15.1425626,36.6692232 14.8122394,36.8598948 14.6335413,37.1694648 C14.4548432,37.4790348 14.454938,37.8604389 14.63379,38.16992 L14.6955,38.27686 C14.547801,38.408009 14.408009,38.547801 14.27686,38.6955 L14.16992,38.63379 C13.8604389,38.454938 13.4790348,38.4548432 13.1694648,38.6335413 C12.8598948,38.8122394 12.6692232,39.1425626 12.6693172,39.5000071 C12.6694111,39.8574517 12.8602561,40.1876746 13.16992,40.36621 L13.27759,40.42834 C13.2071448,40.6151144 13.1481947,40.8060245 13.10107,41 L13,41 C12.4477153,41 12,41.4477153 12,42 C12,42.5522847 12.4477153,43 13,43 L13.10107,43 C13.1481947,43.1939755 13.2071448,43.3848856 13.27759,43.57166 L13.16992,43.63379 C12.6918395,43.9100771 12.5281102,44.5215227 12.8041528,44.9997444 C13.0801954,45.4779661 13.6915572,45.642008 14.16992,45.36621 L14.27686,45.3045 C14.408009,45.452199 14.547801,45.591991 14.6955,45.72314 L14.63379,45.83008 C14.357992,46.3084428 14.5220339,46.9198046 15.0002556,47.1958472 C15.4784773,47.4718898 16.0899229,47.3081605 16.36621,46.83008 L16.42834,46.72241 C16.6151144,46.7928552 16.8060245,46.8518053 17,46.89893 L17,47 C17,47.5522847 17.4477153,48 18,48 C18.5522847,48 19,47.5522847 19,47 Z M15,42 C15,40.3431458 16.3431458,39 18,39 C19.6568542,39 21,40.3431458 21,42 C21,43.6568542 19.6568542,45 18,45 C16.3438951,44.9981923 15.0018077,43.6561049 15,42 Z" id="Shape" fill="#428DFF"/><path d="M5,30 C5.26594262,30.0022616 5.52168891,29.8978018 5.71,29.71 C5.79817588,29.6126508 5.86918476,29.5010384 5.92,29.37992 C5.97124563,29.2597272 5.99842508,29.130652 6,29 C5.99811802,28.7348695 5.89427461,28.4806322 5.71,28.29 C5.42226384,28.0067134 4.99255837,27.9239139 4.62016,28.08 C4.49652423,28.125877 4.38402291,28.1974514 4.29008,28.29 C4.10712901,28.4814996 4.00348553,28.7351774 4,29 C4.00160545,29.1306438 4.02881202,29.2597052 4.08008,29.37988 C4.13089524,29.5009984 4.20190412,29.6126108 4.29008,29.70996 C4.47815497,29.8980728 4.73400782,30.0026022 5,30 Z" id="Shape" fill="#428DFF"/><path d="M59.93427,8.674 C59.9247172,8.64200764 59.9135121,8.61053207 59.9007,8.5797 C59.8542399,8.47603228 59.7902753,8.38113911 59.71161,8.29918 L59.70575,8.29174 L51.70831,0.29425 L51.70087,0.28839 C51.6189109,0.209724656 51.5240177,0.145760054 51.42035,0.0993 C51.3895179,0.0864878607 51.3580424,0.0752828219 51.32605,0.06573 C51.2404279,0.0357062568 51.1510576,0.0176948885 51.06049,0.01221 C51.03937,0.01086 51.02148,0 51,0 L32,0 C30.3438951,0.00180771165 29.0018077,1.34389511 29,3 L29,27.58594 L25.707,24.29294 C25.5195429,24.1053446 25.2652022,23.9999605 25,24 L2,24 C0.896024355,24.0014324 0.00143237701,24.8960244 -2.22333263e-16,26 L-2.22333263e-16,30 C-1.5440923e-16,30.5522847 0.44771525,31 1,31 C1.55228475,31 2,30.5522847 2,30 L2,26 L24.58594,26 L27.58594,29 C28.1555363,29.5703748 29.0120764,29.7426254 29.7578813,29.4367782 C30.5036861,29.130931 30.9926681,28.4068952 30.9978,27.60083 L31,27.58983 L31,26 L34,26 L34,49 L32,49 C30.8960244,49.0014324 30.0014324,49.8960244 30,51 L30,54 C30.0014324,55.1039756 30.8960244,55.9985676 32,56 L34,56 L34,58 L23.774,58 C22.5992492,55.7907936 20.3013256,54.4101141 17.7992,54.4101141 C15.2970744,54.4101141 12.9991508,55.7907936 11.8244,58 L2,58 L2,56 L4,56 C5.10397565,55.9985676 5.99856762,55.1039756 6,54 L6,51 C5.99856762,49.8960244 5.10397565,49.0014324 4,49 L2,49 L2,38 C2,37.4477153 1.55228475,37 1,37 C0.44771525,37 6.76353751e-17,37.4477153 0,38 L0,58 C0.00143237701,59.1039756 0.896024355,59.9985676 2,60 L34,60 C35.1039756,59.9985676 35.9985676,59.1039756 36,58 L36,40 L57,40 C58.6561049,39.9981923 59.9981923,38.6561049 60,37 L60,9 C60,8.97852 59.98914,8.96063 59.98779,8.93951 C59.9823005,8.8489593 59.9642892,8.75960613 59.93427,8.674 Z M4,51 L4,54 L2,54 L2,51 L4,51 Z M17.7998,56.41016 C19.1568908,56.4105496 20.4496307,56.9887098 21.35461,58 L14.239,58 C15.1451265,56.9868182 16.4405356,56.4084388 17.7998,56.41016 Z M52,3.41406 L56.58594,8 L52,8 L52,3.41406 Z M32,54 L32,51 L34,51 L34,54 L32,54 Z M57,38 L36,38 L36,26 C35.9985676,24.8960244 35.1039756,24.0014324 34,24 L31,24 L31,3 C31.0003696,2.4478684 31.4478684,2.00036956 32,2 L50,2 L50,8 C50.0014324,9.10397565 50.8960244,9.99856762 52,10 L58,10 L58,37 C57.9996304,37.5521316 57.5521316,37.9996304 57,38 Z" id="Shape" fill="#428DFF"/><path d="M36,12 L34,12 C33.4477153,12 33,12.4477153 33,13 C33,13.5522847 33.4477153,14 34,14 L36,14 C36.5522847,14 37,13.5522847 37,13 C37,12.4477153 36.5522847,12 36,12 Z" id="Shape" fill="#428DFF"/><path d="M55,12 L40,12 C39.4477153,12 39,12.4477153 39,13 C39,13.5522847 39.4477153,14 40,14 L55,14 C55.5522847,14 56,13.5522847 56,13 C56,12.4477153 55.5522847,12 55,12 Z" id="Shape" fill="#428DFF"/><path d="M36,16 L34,16 C33.4477153,16 33,16.4477153 33,17 C33,17.5522847 33.4477153,18 34,18 L36,18 C36.5522847,18 37,17.5522847 37,17 C37,16.4477153 36.5522847,16 36,16 Z" id="Shape" fill="#428DFF"/><path d="M55,16 L40,16 C39.4477153,16 39,16.4477153 39,17 C39,17.5522847 39.4477153,18 40,18 L55,18 C55.5522847,18 56,17.5522847 56,17 C56,16.4477153 55.5522847,16 55,16 Z" id="Shape" fill="#428DFF"/><path d="M36,20 L34,20 C33.4477153,20 33,20.4477153 33,21 C33,21.5522847 33.4477153,22 34,22 L36,22 C36.5522847,22 37,21.5522847 37,21 C37,20.4477153 36.5522847,20 36,20 Z" id="Shape" fill="#428DFF"/><path d="M55,20 L40,20 C39.4477153,20 39,20.4477153 39,21 C39,21.5522847 39.4477153,22 40,22 L55,22 C55.5522847,22 56,21.5522847 56,21 C56,20.4477153 55.5522847,20 55,20 Z" id="Shape" fill="#428DFF"/><path d="M24,12 C25.6568542,12 27,10.6568542 27,9 C27,7.34314575 25.6568542,6 24,6 L17,6 C13.6877925,6.00362092 11.0036209,8.6877925 11,12 L11,13 L9,13 C8.6252751,12.9995607 8.28180573,13.2088264 8.11036021,13.5420311 C7.93891469,13.8752358 7.96831823,14.2763577 8.18652,14.581 L13.18652,21.581 C13.3740532,21.8439071 13.6770822,21.9999757 14.00002,21.9999757 C14.3229578,21.9999757 14.6259868,21.8439071 14.81352,21.581 L19.81352,14.581 C20.031726,14.2763519 20.0611262,13.875221 19.8896707,13.5420133 C19.7182152,13.2088056 19.3747321,12.9995457 19,13 L17,13 L17,12 L24,12 Z M16,15 L17.05664,15 L14,19.2793 L10.94336,15 L12,15 C12.2652629,15.0001513 12.5197047,14.8948431 12.7072739,14.7072739 C12.8948431,14.5197047 13.0001513,14.2652629 13,14 L13,12 C13.0022049,9.79177495 14.791775,8.00220492 17,8 L24,8 C24.5522847,8 25,8.44771525 25,9 C25,9.55228475 24.5522847,10 24,10 L17,10 C15.8960244,10.0014324 15.0014324,10.8960244 15,12 L15,14 C14.9998487,14.2652629 15.1051569,14.5197047 15.2927261,14.7072739 C15.4802953,14.8948431 15.7347371,15.0001513 16,15 Z" id="Shape" fill="#428DFF"/></g></g></g></svg>
