<?xml version="1.0" encoding="UTF-8"?>
<svg xmlns="http://www.w3.org/2000/svg" xmlns:xlink="http://www.w3.org/1999/xlink" width="512" height="512" viewBox="0 0 60 60" version="1.1"><!-- Generator: Sketch 49.3 (51167) - http://www.bohemiancoding.com/sketch --><title>045 - Trasnport back up</title><desc>Created with Sketch.</desc><defs/><g id="Page-1" stroke="none" stroke-width="1" fill="none" fill-rule="evenodd"><g id="045---Trasnport-back-up" fill-rule="nonzero"><g id="Colours" transform="translate(0.000000, 1.000000)"><path d="M55,34 L55,43 L54,43 L51,40 L43,40 L40,43 L39.02,43 L38.98,41.02 L38.98,41 L39,18 C39.0016474,17.4483991 39.4483991,17.0016474 40,17 L48.76,17 C49.518196,17.003017 50.2102607,17.4321745 50.55,18.11 L51.99,21 L44.99,21 C44.4383991,21.0016474 43.9916474,21.4483991 43.99,22 L43.99,28 C43.9916474,28.5516009 44.4383991,28.9983526 44.99,29 L48.99,29 C48.99,29 55,29 55,34 Z" id="Shape" fill="#A4C2F7"/><path d="M52,34 L52,43 L51,43 L48,40 L40,40 L38.98,41.02 L38.98,41 L39,18 C39.0016474,17.4483991 39.4483991,17.0016474 40,17 L45.76,17 C46.518196,17.003017 47.2102607,17.4321745 47.55,18.11 L48.99,21 L41.99,21 C41.4383991,21.0016474 40.9916474,21.4483991 40.99,22 L40.99,28 C40.9916474,28.5516009 41.4383991,28.9983526 41.99,29 L45.99,29 C45.99,29 52,29 52,34 Z" id="Shape" fill="#E3E7F2"/><path d="M14.96,44 C11.0953133,44.005521 7.96632383,47.1419686 7.97000317,51.006658 C7.97368252,54.8713473 11.1086384,58.0018314 14.9733285,57.9999937 C18.8380187,57.998156 21.969996,54.8646919 21.9699999,51.0000008 C21.9696696,49.1418532 21.2306926,47.3600517 19.9158465,46.047081 C18.6010004,44.7341104 16.8181459,43.9976777 14.96,44 Z" id="Shape" fill="#A4C2F7"/><path d="M13.00142,44 C10.24346,44 8,47.13 8,51 C8,54.87 10.24346,58 13.00142,58 C15.76649,58 18.01,54.87 18.01,51 C18.01,47.13 15.76649,44 13.00142,44 Z" id="Shape" fill="#A4C2F7"/><path d="M17.97,51 C17.9727591,52.6596123 16.6296151,54.007231 14.9700028,54.0099917 C13.3103905,54.0127523 11.9627705,52.6696095 11.9600083,51.0099972 C11.9572461,49.3503849 13.3003877,48.0027637 14.96,48 C16.6182664,48.0005068 17.9639749,49.3417444 17.97,51 Z" id="Shape" fill="#E3E7F2"/><path d="M46.96,44 C43.0953133,44.005521 39.9663238,47.1419686 39.9700032,51.006658 C39.9736825,54.8713473 43.1086384,58.0018314 46.9733285,57.9999937 C50.8380187,57.998156 53.969996,54.8646919 53.9699999,51.0000008 C53.9696696,49.1418532 53.2306926,47.3600517 51.9158465,46.047081 C50.6010004,44.7341104 48.8181459,43.9976777 46.96,44 Z" id="Shape" fill="#A4C2F7"/><path d="M45.00142,44 C42.24346,44 40,47.13 40,51 C40,54.87 42.24346,58 45.00142,58 C47.76649,58 50.01,54.87 50.01,51 C50.01,47.13 47.76649,44 45.00142,44 Z" id="Shape" fill="#A4C2F7"/><path d="M49.97,51 C49.9727591,52.6596123 48.6296151,54.007231 46.9700028,54.0099917 C45.3103905,54.0127523 43.9627705,52.6696095 43.9600083,51.0099972 C43.9572461,49.3503849 45.3003877,48.0027637 46.96,48 C48.6182664,48.0005068 49.9639749,49.3417444 49.97,51 Z" id="Shape" fill="#BDC3C7"/><path d="M50.01,51 C50.0120221,52.2163167 49.2806196,53.3138981 48.1572753,53.780297 C47.0339309,54.2466958 45.7402152,53.9899187 44.8801483,53.1298517 C44.0200813,52.2697848 43.7633042,50.9760691 44.229703,49.8527247 C44.6961019,48.7293804 45.7936833,47.9979779 47.01,48 C48.6648323,48.0048712 50.0051288,49.3451677 50.01,51 Z" id="Shape" fill="#E3E7F2"/><rect id="Rectangle-path" fill="#E3E7F2" x="25.96997" y="47" width="8.01001" height="6" rx="1"/><path d="M59,36 L59,41 C58.9967543,42.1032223 58.1032223,42.9967543 57,43 L55,43 L55,34 L57,34 C58.1032314,34.0032238 58.9967762,34.8967686 59,36 Z" id="Shape" fill="#E3E7F2"/><path d="M45.98926,35 L42.98682,35 C42.4345353,35 41.98682,34.5522847 41.98682,34 C41.98682,33.4477153 42.4345353,33 42.98682,33 L45.98926,33 C46.5415447,33 46.98926,33.4477153 46.98926,34 C46.98926,34.5522847 46.5415447,35 45.98926,35 Z" id="Shape" fill="#95A5A5"/><path d="M55,27.47 L55,34 C55,30.94 52.75,29.75 51,29.29 C50.3433731,29.1164002 49.6689192,29.019091 48.99,29 L44.99,29 C44.4383991,28.9983526 43.9916474,28.5516009 43.99,28 L43.99,22 C43.9916474,21.4483991 44.4383991,21.0016474 44.99,21 L51.99,21 L54.79,26.58 C54.9240812,26.8577971 54.9957572,27.1615669 55,27.47 Z" id="Shape" fill="#A4C2F7"/><path d="M51,27.47 L51,29.29 C50.3433731,29.1164002 49.6689192,29.019091 48.99,29 L44.99,29 C44.4383991,28.9983526 43.9916474,28.5516009 43.99,28 L43.99,22 C43.9916474,21.4483991 44.4383991,21.0016474 44.99,21 L47.99,21 L50.79,26.58 C50.9240812,26.8577971 50.9957572,27.1615669 51,27.47 Z" id="Shape" fill="#E3E7F2"/><path d="M55,43 L53.15,47.64 C51.6130883,44.8343483 48.3708482,43.4261533 45.2713977,44.2181042 C42.1719473,45.010055 40.0026365,47.8009732 40,51 L33.98,51 L33.98,48 C33.9784017,47.4483786 33.5316214,47.0015983 32.98,47 L26.97,47 C26.4183991,47.0016474 25.9716474,47.4483991 25.97,48 L25.97,51 L21.97,51 C21.9691068,49.1420255 21.2299492,47.3605514 19.9152253,46.047703 C18.6005013,44.7348545 16.8179739,43.9982409 14.96,44 L35,44 L34.98,43 L40,43 L43,40 L51,40 L54,43 L55,43 Z" id="Shape" fill="#E3E7F2"/><path d="M14.96,44 C11.0942926,44.0006901 7.96069012,47.1342926 7.96,51 L6,51 C4.89677769,50.9967543 4.00324566,50.1032223 4,49 L4,44 L14.96,44 Z" id="Shape" fill="#E3E7F2"/><path d="M35,8 L1,8 L1,43.08 C1.00811783,43.5925132 1.42743074,44.0029046 1.94,44 L35,44.0000153 L34.98,43 L35,43 L35,8 Z M27.41,39.41 C27.0395236,39.7898365 26.5305853,40.0027965 26,40 L10,40 C8.89677769,39.9967543 8.00324566,39.1032223 8,38 C8.00793093,36.8987323 8.89873233,36.0079309 10,36 L26,36 C27.1032314,36.0032238 27.9967762,36.8967686 28,38 C28.0028231,38.5305905 27.7898589,39.0395388 27.41,39.41 Z M18,32 C12.4771525,32 8,27.5228475 8,22 C8,16.4771525 12.4771525,12 18,12 C23.5228475,12 28,16.4771525 28,22 C27.9979801,27.5220106 23.5220106,31.9979801 18,32 Z" id="Shape" fill="#A4C2F7"/><path d="M31,8 L1,8 L1,43.08 C0.978618967,43.561789 1.34798948,43.971503 1.82941,44 L31,44 L30.98234,43 L31,43 L31,8 Z" id="Shape" fill="#E3E7F2"/><path d="M35,3.67 L35,8 L1,8 L1,3.67 C1.0138769,2.68183957 1.42009768,1.73974803 2.12914214,1.05133714 C2.8381866,0.362926244 3.79186063,-0.0153033606 4.78,-3.33066907e-16 L31.22,-3.33066907e-16 C32.2081394,-0.0153033606 33.1618134,0.362926244 33.8708579,1.05133714 C34.5799023,1.73974803 34.9861231,2.68183957 35,3.67 Z" id="Shape" fill="#A4C2F7"/><path d="M31,3.67 L31,8 L1,8 L1,3.67 C0.910209611,1.73647994 2.40204626,0.0949461473 4.33532,-4.4408921e-16 L27.66468,-4.4408921e-16 C29.5979537,0.0949461473 31.0897904,1.73647994 31,3.67 Z" id="Shape" fill="#E3E7F2"/><path d="M5,5 C4.86919239,4.9984448 4.73996106,4.97123749 4.61963,4.91992 C4.49859537,4.86923898 4.38711356,4.79824344 4.29,4.71 C4.20169021,4.61266482 4.13053088,4.50105507 4.07955,4.37992 C3.97342984,4.13778349 3.97342984,3.86229651 4.07955,3.62016 C4.1279478,3.49766464 4.19938798,3.38558724 4.29,3.29 C4.33744042,3.24690552 4.3875028,3.20678882 4.4399,3.16988 C4.49546364,3.13195425 4.55591025,3.10173263 4.61959,3.08004 C4.67935182,3.04963591 4.74367311,3.02918402 4.81002,3.01949 C5.13634323,2.9541448 5.4737813,3.05556969 5.71,3.29 C5.89253812,3.48176041 5.99608819,3.73527955 6,4 C6.00258562,4.26600072 5.89805928,4.52185969 5.70995949,4.70995949 C5.52185969,4.89805928 5.26600072,5.00258562 5,5 Z" id="Shape" fill="#14A085"/><path d="M8,5 C7.66554531,5.00313812 7.35208433,4.8373152 7.16648569,4.55906544 C6.98088704,4.28081568 6.94820805,3.92770506 7.07959,3.62012 C7.12798036,3.49764205 7.19940659,3.38557881 7.29,3.29 C7.69096149,2.91983245 8.30903851,2.91983245 8.71,3.29 C8.80030372,3.38571001 8.87157113,3.49772881 8.92,3.62008 C9.02677322,3.86207927 9.02677322,4.13784073 8.92,4.37984 C8.86900855,4.50089025 8.79801811,4.61250075 8.71,4.71 C8.61272902,4.79827842 8.50109812,4.86929905 8.37992,4.92 C8.25972721,4.97124563 8.13065198,4.99842508 8,5 Z" id="Shape" fill="#F0C419"/><path d="M11,5 C10.6655453,5.00313812 10.3520843,4.8373152 10.1664857,4.55906544 C9.98088704,4.28081568 9.94820805,3.92770506 10.07959,3.62012 C10.1279804,3.49764205 10.1994066,3.38557881 10.29,3.29 C10.3374404,3.24690552 10.3875028,3.20678882 10.4399,3.16988 C10.4954636,3.13195425 10.5559102,3.10173263 10.61959,3.08004 C10.6763741,3.0511823 10.7370729,3.03078316 10.79976,3.01949 C11.1292823,2.95260557 11.4704884,3.05400704 11.71,3.29 C11.8925381,3.48176041 11.9960882,3.73527955 12,4 C12.0024887,4.26598617 11.8979945,4.52181686 11.71,4.71 C11.612729,4.79827842 11.5010981,4.86929905 11.37992,4.92 C11.2597272,4.97124563 11.130652,4.99842508 11,5 Z" id="Shape" fill="#CC4B4C"/><path d="M18,12 C12.4771525,12 8,16.4771525 8,22 C8,27.5228475 12.4771525,32 18,32 C19.3591889,32.0026037 20.7041576,31.7233951 21.95,31.18 C26.3096155,29.3069286 28.7516603,24.6270406 27.7945518,19.9796126 C26.8374434,15.3321846 22.7449594,11.9980416 18,12 Z" id="Shape" fill="#A4C2F7"/><path d="M15,14 C13.6408081,13.9973673 12.2958335,14.2765772 11.05,14.82 C8.11954471,17.6508912 7.20129473,21.9774631 8.72929625,25.7545949 C10.2572978,29.5317268 13.9255055,32.0028923 18,32 C19.3591889,32.0026037 20.7041576,31.7233951 21.95,31.18 C24.8804553,28.3491088 25.7987053,24.0225369 24.2707038,20.2454051 C22.7427022,16.4682732 19.0744945,13.9971077 15,14 Z" id="Shape" fill="#E3E7F2"/><circle id="Oval" fill="#E3E7F2" cx="18" cy="22" r="3"/><path d="M28,38 C27.99201,39.1012429 27.1012429,39.99201 26,40 L10,40 C8.89677769,39.9967543 8.00324566,39.1032223 8,38 C8.00793093,36.8987323 8.89873233,36.0079309 10,36 L26,36 C27.1032314,36.0032238 27.9967762,36.8967686 28,38 Z" id="Shape" fill="#A4C2F7"/><path d="M24,38 C24.0093464,38.5102712 23.8426663,39.0081926 23.528,39.41 C23.2650708,39.7723786 22.8476204,39.9907259 22.4,40 L9.6,40 C8.61388829,39.875144 7.90534715,38.9894676 8,38 C7.99067816,37.4897325 8.15735554,36.9918192 8.472,36.59 C8.73492295,36.2276141 9.15237722,36.0092648 9.6,36 L22.4,36 C23.3861228,36.1248362 24.0946745,37.0105259 24,38 Z" id="Shape" fill="#E3E7F2"/></g><g id="White" transform="translate(0.000000, 1.000000)" fill="#FFFFFF"><path d="M14.96,58 C15.0938656,57.9992347 15.2275179,57.9892108 15.36,57.97 L14.96,58 Z M7.99975,50.7301 C7.38231735,50.3724498 7.00155983,49.7135365 7,49 L7,44 L4.83,44 C4.34846334,43.9715654 3.97888579,43.5619131 4,43.08 L4,3.67 C3.91016972,1.73470916 5.40482891,0.09237406 7.34,0 L4.34,0 C2.40482891,0.09237406 0.910169718,1.73470916 1,3.67 L1,43.08 C0.978885795,43.5619131 1.34846334,43.9715654 1.83,44 L4,44 L4,49 C4.00324566,50.1032223 4.89677769,50.9967543 6,51 L7.96,51 L7.99975,50.7301 Z M42,18 C42.0016474,17.4483991 42.4483991,17.0016474 43,17 L40,17 C39.4483991,17.0016474 39.0016474,17.4483991 39,18 L38.98,41 L38.98,41.02 L39.02,43 L42.02,43 L41.98,41.02 L41.98,41 L42,18 Z" id="Shape"/></g><g id="Icons"><polygon id="Shape" fill="#FFFFFF" points="2 9 2 22 2 44.083 0 44.083 0 22 0 9"/><path d="M1,18 C1.26470163,17.995996 1.51818849,17.8924591 1.71,17.71 C2.09672008,17.3156867 2.09672008,16.6843933 1.71,16.29008 L1.5601,16.16996 C1.50432178,16.1319755 1.44372787,16.1015979 1.37992,16.07963 C1.3231789,16.0508318 1.26242959,16.0307304 1.19971,16.02 C1.13367967,16.0087447 1.06695098,16.0020622 1,16 C0.735233018,16.0036835 0.481633787,16.1072663 0.29,16.29 C-0.0875531162,16.6880448 -0.0875531162,17.3119552 0.29,17.71 C0.385532731,17.8002924 0.497389252,17.8715624 0.61959,17.92 C0.739939045,17.9712951 0.869184251,17.9984753 1,18 Z" id="Shape" fill="#428DFF"/><path d="M14.96436,48 C12.7555391,48.0013474 10.9659022,49.7928047 10.9668003,52.001626 C10.9676984,54.2104474 12.7587916,56.0004488 14.9676128,55.9999999 C17.1764341,55.9995511 18.9667996,54.2088219 18.9668,52.0000004 C18.9638117,49.7911476 17.1732139,48.0016413 14.96436,48 Z M14.96436,54 C13.8601091,53.9986528 12.9659028,53.1026266 12.9668007,51.9983753 C12.9676985,50.894124 13.8633607,49.9995531 14.9676123,50.0000017 C16.0718639,50.0004502 16.9667992,50.8957483 16.9668,52 C16.9647274,53.1046623 16.0690241,53.9992742 14.96436,54 Z" id="Shape" fill="#428DFF"/><path d="M47.00586,48 C44.7969817,48.0011044 43.007124,49.7924543 43.0078602,52.0013329 C43.0085964,54.2102115 44.7996478,56.0003679 47.0085263,55.9999999 C49.2174049,55.999632 51.0078597,54.208879 51.00786,52.0000002 C51.0048721,49.7913192 49.2145421,48.0018838 47.00586,48 Z M47.00586,54 C45.9015515,53.9988957 45.0071244,53.1029768 45.0078604,51.998668 C45.0085965,50.8943592 45.904217,49.9996334 47.008526,50.0000011 C48.112835,50.0003688 49.0078594,50.895691 49.00786,52 C49.0057934,53.104493 48.1103545,53.9990373 47.00586,54 Z" id="Shape" fill="#428DFF"/><path d="M57,34 L56,34 L56,28.46973 C55.9948845,28.0058408 55.8868129,27.548877 55.68359,27.13184 L52.88422,21.55267 L51.44434,18.66406 C50.9329965,17.649236 49.8961227,17.0065185 48.75977,17 L40,17 C38.8962956,17.0011454 38.0016973,17.8952963 38,18.999 L37.98,42.02049 L37.99957,43 L36,43 L36,4.667 C35.9659637,2.06035232 33.8288986,-0.0271398321 31.22217,0 L4.77783,0 C2.1711014,-0.0271398321 0.0340363344,2.06035232 0,4.667 L0,13 C6.76353751e-17,13.5522847 0.44771525,14 1,14 C1.55228475,14 2,13.5522847 2,13 L2,10 L34,10 L34,43.90057 C33.9917736,43.933353 33.9852549,43.966541 33.98047,44 L4,44 C3.86611948,43.9998542 3.73358092,44.0266742 3.61029,44.07886 L2,44.083 L2,21 C2,20.4477153 1.55228475,20 1,20 C0.44771525,20 6.76353751e-17,20.4477153 0,21 L0,44.08331 L6e-05,44.08331 C0.00911534445,45.1488797 0.878749667,46.0061737 1.94434,46 L3,46 L3,50 C3.00180771,51.6561049 4.34389511,52.9981923 6,53 L7.028,53 C7.53138077,56.9998612 10.9327481,59.9999978 14.96416,59.9999978 C18.9955719,59.9999978 22.3969392,56.9998612 22.90032,53 L24.97319,53 C24.9744575,54.1040441 25.8691459,54.9987325 26.97319,55 L32.97954,55 C34.0835864,54.998738 34.978278,54.1040464 34.97954,53 L39.06954,53 C39.4556424,56.1419123 41.6578491,58.7607757 44.6869324,59.6802009 C47.7160157,60.5996261 51.0023706,59.6467194 53.0697718,57.2495251 C55.1371729,54.8523307 55.5968552,51.4616299 54.24233,48.60052 L55.67761,45 L57,45 C58.6561049,44.9981923 59.9981923,43.6561049 60,42 L60,37 C59.9981923,35.3438951 58.6561049,34.0018077 57,34 Z M51.37354,23 L53.88281,28.001 C53.9554499,28.1468787 53.9954403,28.3068301 54,28.46973 L54,30.648 C52.550222,29.5752409 50.7937437,28.9974347 48.99023,29 L44.99023,29 L44.99023,23 L51.37354,23 Z M40,19 L48.75977,19 C49.1390789,19.0027881 49.4848865,19.217741 49.65527,19.55664 L50.374,21 L44.99023,21 C43.8861859,21.0012675 42.9914975,21.8959559 42.99023,23 L42.99023,29 C42.9914975,30.1040441 43.8861859,30.9987325 44.99023,31 L48.99023,31 C49.19434,31 54,31.0459 54,35 L54,42.58594 L51.707,40.29294 C51.5195429,40.1053446 51.2652022,39.9999605 51,40 L43,40 C42.7348078,40.0000698 42.4805002,40.1054618 42.293,40.293 L39.9917,42.59375 L39.98,42.001 L40,19 Z M2,8 L2,4.667 C2.03284923,3.16443635 3.2751742,1.97167772 4.77783,2 L31.22217,2 C32.7248258,1.97167772 33.9671508,3.16443635 34,4.667 L34,8 L2,8 Z M5,50 L5,46 L9.68665,46 C8.21900369,47.2856186 7.27319083,49.0643651 7.028,51 L6,51 C5.44794374,50.9994488 5.00055123,50.5520563 5,50 Z M14.96436,58 C11.7160772,57.996583 9.05909477,55.4112848 8.96686,52.16431 C9.01104657,52.059226 9.01104657,51.940774 8.96686,51.83569 C9.05565183,48.5424535 11.7821282,45.9362072 15.0760201,45.995927 C18.3699121,46.0556467 21.0001228,48.7590122 20.9694798,52.0533029 C20.9388368,55.3475937 18.2587929,58.0015639 14.96436,58 Z M26.97314,53 L26.97314,49 L32.97949,49 L32.98059,51.99457 L32.97949,52 L32.98059,52.00543 L32.981,53 L26.97314,53 Z M47.00586,58 C43.6929163,57.9967644 41.0095647,55.3090418 41.0117213,51.9960971 C41.0138778,48.6831525 43.7007263,45.9989257 47.0136714,46.0000032 C50.3266166,46.0010807 53.0117184,48.6870547 53.01172,52 C53.0063775,55.3137807 50.3196443,57.9978924 47.00586,58 Z M47.00586,44 C42.9763642,44.0051871 39.5778667,47.0027027 39.06946,51 L34.97946,51 L34.97946,49 C34.978198,47.8959536 34.0835064,47.001262 32.97946,47 L26.97314,47 C25.8690959,47.0012675 24.9744075,47.8959559 24.97314,49 L24.97314,51 L22.90027,51 C22.6550619,49.0643751 21.7092604,47.2856365 20.24164,46 L35,46 C35.552255,45.9999282 35.9999282,45.552255 36,45 L38.98389,45 C38.99023,45 38.99548,44.99652 39.00183,44.9964 C39.00824,44.99652 39.01355,45 39.02002,45 L40,45 C40.2651922,44.9999302 40.5194998,44.8945382 40.707,44.707 L43.41406,42 L50.58594,42 L53.29294,44.707 C53.3737909,44.7833979 53.4669038,44.8456681 53.56839,44.89121 L52.88968,46.59384 C51.3789595,44.9423348 49.2441058,44.0011998 47.00586,44 Z M58,42 C57.9996304,42.5521316 57.5521316,42.9996304 57,43 L56,43 L56,36 L57,36 C57.5521316,36.0003696 57.9996304,36.4478684 58,37 L58,42 Z" id="Shape" fill="#428DFF"/><path d="M42.98682,36 L45.98926,36 C46.5415447,36 46.98926,35.5522847 46.98926,35 C46.98926,34.4477153 46.5415447,34 45.98926,34 L42.98682,34 C42.4345353,34 41.98682,34.4477153 41.98682,35 C41.98682,35.5522847 42.4345353,36 42.98682,36 Z" id="Shape" fill="#428DFF"/><path d="M4.81006,4.01953 C4.74371311,4.02922402 4.67939182,4.04967591 4.61963,4.08008 C4.55595025,4.10177263 4.49550364,4.13199425 4.43994,4.16992 C4.38753023,4.20681457 4.33745448,4.24691792 4.29,4.29 C4.19939657,4.38556354 4.12795684,4.49761307 4.07955,4.62008 C3.97342984,4.86221651 3.97342984,5.13770349 4.07955,5.37984 C4.13052292,5.50100335 4.2016826,5.6126407 4.29,5.71 C4.38709545,5.79826806 4.4985638,5.8692907 4.61959,5.92 C4.92715616,6.05182687 5.2804939,6.01941688 5.55894588,5.83383736 C5.83739787,5.64825784 6.00329991,5.33461078 6,5 C5.99608819,4.73527955 5.89253812,4.48176041 5.71,4.29 C5.47378218,4.05559718 5.13636361,3.95418864 4.81006,4.01953 Z" id="Shape" fill="#428DFF"/><path d="M8.71,4.29 C8.30903851,3.91983245 7.69096149,3.91983245 7.29,4.29 C7.19939657,4.38556354 7.12795684,4.49761307 7.07955,4.62008 C6.92013637,4.9922264 7.00335756,5.42393525 7.28968554,5.71015533 C7.57601352,5.99637541 8.00775371,6.07943389 8.37984,5.91988 C8.50103785,5.86922347 8.61269583,5.79824341 8.71,5.71 C8.79801056,5.6125249 8.86900065,5.50094198 8.92,5.37992 C9.02677322,5.13792073 9.02677322,4.86215927 8.92,4.62016 C8.87158011,4.4977804 8.80031225,4.38573375 8.71,4.29 Z" id="Shape" fill="#428DFF"/><path d="M10.7998,4.01953 C10.7371129,4.03082316 10.6764141,4.0512223 10.61963,4.08008 C10.5559502,4.10177263 10.4955036,4.13199425 10.43994,4.16992 C10.3875302,4.20681457 10.3374545,4.24691792 10.29,4.29 C10.1993966,4.38556354 10.1279568,4.49761307 10.07955,4.62008 C9.92013637,4.9922264 10.0033576,5.42393525 10.2896855,5.71015533 C10.5760135,5.99637541 11.0077537,6.07943389 11.37984,5.91988 C11.5010378,5.86922347 11.6126958,5.79824341 11.71,5.71 C11.8979945,5.52181686 12.0024887,5.26598617 12,5 C11.9960882,4.73527955 11.8925381,4.48176041 11.71,4.29 C11.4704894,4.05403452 11.1293027,3.95264938 10.7998,4.01953 Z" id="Shape" fill="#428DFF"/><path d="M18,34 C24.0751322,34 29,29.0751322 29,23 C29,16.9248678 24.0751322,12 18,12 C11.9248678,12 7,16.9248678 7,23 C7.00686108,29.072288 11.927712,33.9931389 18,34 Z M18,14 C22.9705627,14 27,18.0294373 27,23 C27,27.9705627 22.9705627,32 18,32 C13.0294373,32 9,27.9705627 9,23 C9.00559912,18.0317583 13.0317583,14.0055991 18,14 Z" id="Shape" fill="#428DFF"/><path d="M18,27 C20.209139,27 22,25.209139 22,23 C22,20.790861 20.209139,19 18,19 C15.790861,19 14,20.790861 14,23 C14.0023534,25.2081634 15.7918366,26.9976466 18,27 Z M18,21 C19.1045695,21 20,21.8954305 20,23 C20,24.1045695 19.1045695,25 18,25 C16.8954305,25 16,24.1045695 16,23 C16.001262,21.8959536 16.8959536,21.001262 18,21 Z" id="Shape" fill="#428DFF"/><path d="M10,42 L26,42 C27.6568542,42 29,40.6568542 29,39 C29,37.3431458 27.6568542,36 26,36 L10,36 C8.34314575,36 7,37.3431458 7,39 C7,40.6568542 8.34314575,42 10,42 Z M10,38 L26,38 C26.5522847,38 27,38.4477153 27,39 C27,39.5522847 26.5522847,40 26,40 L10,40 C9.44771525,40 9,39.5522847 9,39 C9,38.4477153 9.44771525,38 10,38 Z" id="Shape" fill="#428DFF"/></g></g></g></svg>
