<?xml version="1.0" encoding="UTF-8"?>
<svg xmlns="http://www.w3.org/2000/svg" xmlns:xlink="http://www.w3.org/1999/xlink" width="512" height="512" viewBox="0 0 60 60" version="1.1"><!-- Generator: Sketch 49.3 (51167) - http://www.bohemiancoding.com/sketch --><title>044 - Restoer from Disk Image</title><desc>Created with Sketch.</desc><defs/><g id="Page-1" stroke="none" stroke-width="1" fill="none" fill-rule="evenodd"><g id="044---Restoer-from-Disk-Image" fill-rule="nonzero"><g id="Colours" transform="translate(0.000000, 1.000000)"><rect id="Rectangle-path" fill="#A4C2F7" x="1" y="38" width="58" height="20" rx="2"/><path d="M55,40 L55,56 C55.0335357,57.0647777 54.2023872,57.9574921 53.13793,58 L2.86207,58 C1.79761277,57.9574921 0.966464339,57.0647777 1,56 L1,40 C0.966442291,38.9352141 1.79760294,38.0424865 2.86207,38 L53.13793,38 C54.2023971,38.0424865 55.0335577,38.9352141 55,40 Z" id="Shape" fill="#E3E7F2"/><path d="M24,42 L24,54 L36,54 L36,42 L24,42 Z M30,50 C28.8954305,50 28,49.1045695 28,48 C28,46.8954305 28.8954305,46 30,46 C31.1045695,46 32,46.8954305 32,48 C31.9967543,49.1032223 31.1032223,49.9967543 30,50 Z" id="Shape" fill="#E3E7F2"/><path d="M9,42 L9,48 C9,46.8954305 8.1045695,46 7,46 C5.8954305,46 5,46.8954305 5,48 L5,43 C5.0016474,42.4483991 5.44839907,42.0016474 6,42 L9,42 Z" id="Shape" fill="#A4C2F7"/><path d="M9,48 L9,54 L6,54 C5.44839907,53.9983526 5.0016474,53.5516009 5,53 L5,48 C5,49.1045695 5.8954305,50 7,50 C8.1045695,50 9,49.1045695 9,48 Z" id="Shape" fill="#A4C2F7"/><path d="M55,43 L55,48 C55,46.8954305 54.1045695,46 53,46 C51.8954305,46 51,46.8954305 51,48 L51,42 L54,42 C54.5516009,42.0016474 54.9983526,42.4483991 55,43 Z" id="Shape" fill="#A4C2F7"/><path d="M55,48 L55,53 C54.9983526,53.5516009 54.5516009,53.9983526 54,54 L51,54 L51,48 C51,49.1045695 51.8954305,50 53,50 C54.1045695,50 55,49.1045695 55,48 Z" id="Shape" fill="#A4C2F7"/><rect id="Rectangle-path" fill="#7F8C8D" x="9" y="48" width="15" height="6"/><rect id="Rectangle-path" fill="#A4C2F7" x="9" y="42" width="15" height="6"/><circle id="Oval" fill="#E3E7F2" cx="7" cy="48" r="2"/><rect id="Rectangle-path" fill="#A4C2F7" x="36" y="42" width="15" height="6"/><rect id="Rectangle-path" fill="#E3E7F2" x="9" y="42" width="11" height="6"/><rect id="Rectangle-path" fill="#E3E7F2" x="36" y="42" width="11" height="6"/><rect id="Rectangle-path" fill="#A4C2F7" x="9" y="48" width="15" height="6"/><rect id="Rectangle-path" fill="#A4C2F7" x="36" y="48" width="15" height="6"/><rect id="Rectangle-path" fill="#E3E7F2" x="9" y="48" width="11" height="6"/><rect id="Rectangle-path" fill="#E3E7F2" x="36" y="48" width="11" height="6"/><circle id="Oval" fill="#E3E7F2" cx="53" cy="48" r="2"/><circle id="Oval" fill="#E3E7F2" cx="30" cy="48" r="2"/><polygon id="Shape" fill="#E3E7F2" points="34 34 34 30 26 30 26 34 22 34 30 43 38 34"/><rect id="Rectangle-path" fill="#A4C2F7" x="18" y="0" width="24" height="31" rx="2"/><rect id="Rectangle-path" fill="#E3E7F2" x="18" y="0" width="21" height="31" rx="2"/><circle id="Oval" fill="#E3E7F2" cx="30" cy="15" r="8"/></g><g id="White" transform="translate(0.000000, 1.000000)" fill="#FFFFFF"><path d="M5.86,58 L2.86,58 C1.79662464,57.9558183 0.967030923,57.063782 1,56 L1,40 C0.967008959,38.9362097 1.79661482,38.0441604 2.86,38 L5.85,38 C4.79016634,38.0485849 3.96597833,38.9395989 4,40 L4,56 C3.96703092,57.063782 4.79662464,57.9558183 5.86,58 Z" id="Shape"/><path d="M23,31 L20,31 C18.8967777,30.9967543 18.0032457,30.1032223 18,29 L18,2 C18.0032238,0.896768606 18.8967686,0.00322381203 20,2.22044605e-16 L23,2.22044605e-16 C21.8967686,0.00322381203 21.0032238,0.896768606 21,2 L21,29 C21.0032457,30.1032223 21.8967777,30.9967543 23,31 Z" id="Shape"/><polygon id="Shape" points="25 34 31.5 41.5 30 43 22 34"/><rect id="Rectangle-path" x="26" y="31" width="3" height="3"/></g><g id="Icons"><polygon id="Shape" fill="#FFFFFF" points="19 3 19 16 19 29 17 29 17 16 17 3"/><path d="M18,12 C18.404347,11.9984049 18.7682813,11.7544153 18.9233352,11.3809754 C19.0783892,11.0075356 18.9943027,10.5775256 18.71,10.29 L18.5601,10.16988 C18.5043218,10.1318955 18.4437279,10.1015179 18.37992,10.07955 C18.323188,10.0507764 18.2624526,10.0306953 18.19975,10.01998 C18.133706,10.0087296 18.0669639,10.0020537 18,10 C17.735233,10.0036835 17.4816338,10.1072663 17.29,10.29 C17.0473861,10.5237239 16.9409205,10.8651552 17.0076921,11.195352 C17.0744636,11.5255488 17.3052259,11.7987868 17.61959,11.91988 C17.7399307,11.9712163 17.8691762,11.9984374 18,12 Z" id="Shape" fill="#428DFF"/><path d="M57,38 L36.67114,38 L38.74756,35.66406 C39.0088683,35.3696628 39.0731864,34.9493657 38.9118782,34.5902955 C38.75057,34.2312253 38.393639,34.0001695 38,34 L35,34 L35,32 L40,32 C41.6561049,31.9981923 42.9981923,30.6561049 43,29 L43,3 C42.9981923,1.34389511 41.6561049,0.00180771165 40,0 L20,0 C18.3438951,0.00180771165 17.0018077,1.34389511 17,3 L17,7 C17,7.55228475 17.4477153,8 18,8 C18.5522847,8 19,7.55228475 19,7 L19,3 C19.0005512,2.44794374 19.4479437,2.00055123 20,2 L40,2 C40.5520563,2.00055123 40.9994488,2.44794374 41,3 L41,29 C40.9994488,29.5520563 40.5520563,29.9994488 40,30 L20,30 C19.4479437,29.9994488 19.0005512,29.5520563 19,29 L19,15 C19,14.4477153 18.5522847,14 18,14 C17.4477153,14 17,14.4477153 17,15 L17,29 C17.0018077,30.6561049 18.3438951,31.9981923 20,32 L25,32 L25,34 L22,34 C21.606361,34.0001695 21.24943,34.2312253 21.0881218,34.5902955 C20.9268136,34.9493657 20.9911317,35.3696628 21.25244,35.66406 L23.32886,38 L3,38 C1.34389511,38.0018077 0.00180771165,39.3438951 -6.66862121e-16,41 L-6.66862121e-16,57 C0.00180771165,58.6561049 1.34389511,59.9981923 3,60 L57,60 C58.6561049,59.9981923 59.9981923,58.6561049 60,57 L60,41 C59.9981923,39.3438951 58.6561049,38.0018077 57,38 Z M26,36 C26.2652376,36.000069 26.5196316,35.8947343 26.707183,35.707183 C26.8947343,35.5196316 27.000069,35.2652376 27,35 L27,32 L33,32 L33,35 C32.999931,35.2652376 33.1052657,35.5196316 33.292817,35.707183 C33.4803684,35.8947343 33.7347624,36.000069 34,36 L35.773,36 L33.73864,38.28888 L33.7257,38.30341 L30,42.49512 L26.27435,38.30341 L26.26141,38.28888 L24.227,36 L26,36 Z M54,44 L54,46.18427 C53.3559704,45.9385762 52.6440296,45.9385762 52,46.18427 L52,44 L54,44 Z M37,50 L50,50 L50,54 L37,54 L37,50 Z M52,51.81567 C52.644015,52.0614225 53.3559703,52.0614438 54,51.81573 L54,54 L52,54 L52,51.81567 Z M52,49 C52,48.4477153 52.4477153,48 53,48 C53.5522847,48 54,48.4477153 54,49 C54,49.5522847 53.5522847,50 53,50 C52.4479437,49.9994488 52.0005512,49.5520563 52,49 Z M50,48 L37,48 L37,44 L50,44 L50,48 Z M35,54 L25,54 L25,44 L28.66217,44 L29.25244,44.66406 C29.4421657,44.8777298 29.7142543,45.0000023 30,45.0000023 C30.2857457,45.0000023 30.5578343,44.8777298 30.74756,44.66406 L31.33783,44 L35,44 L35,54 Z M6,54 L6,51.81567 C6.644015,52.0614225 7.35597025,52.0614438 8,51.81573 L8,54 L6,54 Z M23,48 L10,48 L10,44 L23,44 L23,48 Z M8,46.18427 C7.35597037,45.9385762 6.64402963,45.9385762 6,46.18427 L6,44 L8,44 L8,46.18427 Z M8,49 C8,49.5522847 7.55228475,50 7,50 C6.44771525,50 6,49.5522847 6,49 C6,48.4477153 6.44771525,48 7,48 C7.55205626,48.0005512 7.99944877,48.4479437 8,49 Z M10,50 L23,50 L23,54 L10,54 L10,50 Z M58,57 C57.9994488,57.5520563 57.5520563,57.9994488 57,58 L3,58 C2.44794374,57.9994488 2.00055123,57.5520563 2,57 L2,41 C2.00055123,40.4479437 2.44794374,40.0005512 3,40 L25.10663,40 L26.8844,42 L6,42 C4.89595365,42.001262 4.00126197,42.8959536 4,44 L4,54 C4.00126197,55.1040464 4.89595365,55.998738 6,56 L54,56 C55.1040464,55.998738 55.998738,55.1040464 56,54 L56,44 C55.998738,42.8959536 55.1040464,42.001262 54,42 L33.1156,42 L34.89337,40 L57,40 C57.5520563,40.0005512 57.9994488,40.4479437 58,41 L58,57 Z" id="Shape" fill="#428DFF"/><path d="M30,46 C28.3431458,46 27,47.3431458 27,49 C27,50.6568542 28.3431458,52 30,52 C31.6568542,52 33,50.6568542 33,49 C32.9981923,47.3438951 31.6561049,46.0018077 30,46 Z M30,50 C29.4477153,50 29,49.5522847 29,49 C29,48.4477153 29.4477153,48 30,48 C30.5522847,48 31,48.4477153 31,49 C30.9994488,49.5520563 30.5520563,49.9994488 30,50 Z" id="Shape" fill="#428DFF"/><path d="M39,16 C38.9989744,15.0428519 38.8444661,14.092061 38.54236,13.18384 C38.53931,13.17365 38.54193,13.16345 38.53857,13.15332 C38.534,13.13965 38.52301,13.13068 38.51794,13.11732 C37.6529453,10.5811131 35.7064472,8.55992906 33.20459,7.6001 C33.18866,7.5931 33.1781,7.57947 33.16159,7.57324 C33.14395,7.56665 33.12589,7.57024 33.10812,7.5647 C29.4208266,6.20992229 25.2808663,7.40507138 22.8829254,10.5165718 C20.4849845,13.6280722 20.3839581,17.9359077 22.6334026,21.1563975 C24.8828472,24.3768873 28.9622303,25.7647945 32.7089789,24.5843582 C36.4557276,23.4039219 39.0028261,19.9283008 39,16 Z M36.24884,12.8631 L32.35339,14.16193 C32.2256826,13.9992 32.0815297,13.8500775 31.92322,13.71693 L33.36847,9.8672 C34.6081105,10.5533384 35.6119568,11.5974484 36.24884,12.8631 Z M30,15 C30.5522847,15 31,15.4477153 31,16 C31,16.5522847 30.5522847,17 30,17 C29.4477153,17 29,16.5522847 29,16 C29.0005512,15.4479437 29.4479437,15.0005512 30,15 Z M23,16 C22.996036,13.8796051 23.9551904,11.8721375 25.607313,10.5430096 C27.2594356,9.21388168 29.425745,8.70692271 31.49609,9.16492 L30.05432,13.00549 C30.03583,13.00513 30.01862,13 30,13 C28.3497265,12.9971926 27.0070557,14.3278059 26.9949768,15.9780377 C26.9828979,17.6282694 28.3059469,18.9783945 29.9560847,18.9997446 C31.6062225,19.0210946 32.9637595,17.7056518 32.99438,16.05566 L36.88324,14.759 C37.354168,17.3665309 36.3118375,20.016387 34.190621,21.6042885 C32.0694045,23.1921899 29.2332244,23.4457114 26.8640079,22.2592024 C24.4947914,21.0726933 22.9990086,18.649715 23,16 Z" id="Shape" fill="#428DFF"/></g></g></g></svg>
