<?xml version="1.0" encoding="UTF-8"?>
<svg xmlns="http://www.w3.org/2000/svg" xmlns:xlink="http://www.w3.org/1999/xlink" width="512" height="512" viewBox="0 0 60 60" version="1.1"><!-- Generator: Sketch 49.3 (51167) - http://www.bohemiancoding.com/sketch --><title>043 - VM manager</title><desc>Created with Sketch.</desc><defs><linearGradient x1="3.97568519%" y1="0.295374372%" x2="96.0243148%" y2="99.7045477%" id="linearGradient-1"><stop stop-color="#D4E1F4" offset="0%"/><stop stop-color="#D4E1F4" offset="17.173%"/><stop stop-color="#D4E1F4" offset="20%"/><stop stop-color="#DAE4F4" offset="20.014%"/><stop stop-color="#EBEBF4" offset="20.069%"/><stop stop-color="#F6F1F4" offset="20.136%"/><stop stop-color="#FDF4F4" offset="20.231%"/><stop stop-color="#FFF5F4" offset="20.495%"/><stop stop-color="#FFF5F4" offset="25.222%"/><stop stop-color="#FFF5F4" offset="26%"/><stop stop-color="#D4E1F4" offset="26%"/><stop stop-color="#D4E1F4" offset="39.739%"/><stop stop-color="#D4E1F4" offset="42%"/><stop stop-color="#DAE4F4" offset="42.014%"/><stop stop-color="#EBEBF4" offset="42.069%"/><stop stop-color="#F6F1F4" offset="42.136%"/><stop stop-color="#FDF4F4" offset="42.231%"/><stop stop-color="#FFF5F4" offset="42.495%"/><stop stop-color="#FFF5F4" offset="48.939%"/><stop stop-color="#FFF5F4" offset="50%"/><stop stop-color="#F9F2F4" offset="50.003%"/><stop stop-color="#E8EBF4" offset="50.014%"/><stop stop-color="#DDE5F4" offset="50.028%"/><stop stop-color="#D6E2F4" offset="50.047%"/><stop stop-color="#D4E1F4" offset="50.1%"/><stop stop-color="#D4E1F4" offset="70.622%"/><stop stop-color="#D4E1F4" offset="74%"/><stop stop-color="#FFF5F4" offset="74.1%"/><stop stop-color="#FFF5F4" offset="83.459%"/><stop stop-color="#FFF5F4" offset="85%"/><stop stop-color="#D4E1F4" offset="85.1%"/></linearGradient></defs><g id="Page-1" stroke="none" stroke-width="1" fill="none" fill-rule="evenodd"><g id="043---VM-manager" transform="translate(0.000000, -1.000000)" fill-rule="nonzero"><g id="Colours" transform="translate(1.000000, 1.000000)"><path d="M58,4.83 L58,47.17 C57.9504859,49.3310634 56.161176,51.0443276 54,51 L37,51 L37,55 L42,55 C42.795975,54.9989366 43.5596548,55.3146656 44.1224946,55.8775054 C44.6853344,56.4403452 45.0010634,57.204025 45,58 L45,59 L13,59 L13,58 C12.9989366,57.204025 13.3146656,56.4403452 13.8775054,55.8775054 C14.4403452,55.3146656 15.204025,54.9989366 16,55 L21,55 L21,51 L4,51 C1.83882397,51.0443276 0.0495140963,49.3310634 -2.22044605e-16,47.17 L-2.22044605e-16,4.83 C0.049486862,2.66892457 1.83881316,0.955644642 4,1 L54,1 C56.1611868,0.955644642 57.9505131,2.66892457 58,4.83 Z" id="Shape" fill="#A4C2F7"/><path d="M21,51 L4,51 C1.83882397,51.0443276 0.0495140963,49.3310634 -2.22044605e-16,47.17 L-2.22044605e-16,4.83 C0.049486862,2.66892457 1.83881316,0.955644642 4,1 L50,1 C52.1611868,0.955644642 53.9505131,2.66892457 54,4.83 L54,47.17 C53.9504859,49.3310634 52.161176,51.0443276 50,51 L21,51 Z" id="Shape" fill="url(#linearGradient-1)"/><path d="M58,43 L58,47.17 C57.9504859,49.3310634 56.161176,51.0443276 54,51 L4,51 C1.83882397,51.0443276 0.0495140963,49.3310634 2.22044605e-16,47.17 L2.22044605e-16,43 L58,43 Z" id="Shape" fill="#A4C2F7"/><path d="M54,43 L54,47.17 C53.9504859,49.3310634 52.161176,51.0443276 50,51 L4,51 C1.83882397,51.0443276 0.0495140963,49.3310634 2.22044605e-16,47.17 L2.22044605e-16,43 L54,43 Z" id="Shape" fill="#E3E7F2"/><rect id="Rectangle-path" fill="#E3E7F2" x="21" y="51" width="16" height="4"/><path d="M44.9999946,57.999998 L44.9999973,58.9999973 L12.9999973,58.9999973 L13,57.999998 C12.9989366,57.2040235 13.3146655,56.4403443 13.8775053,55.8775048 C14.440345,55.3146654 15.2040246,54.9989366 15.9999995,55 L41.9999951,55 C42.79597,54.9989366 43.5596497,55.3146654 44.1224894,55.8775048 C44.6853291,56.4403443 45.0010581,57.2040235 44.9999946,57.999998 Z" id="Shape" fill="#A4C2F7"/><path d="M40.9999946,57.999998 L40.9999973,58.9999973 L12.9999973,58.9999973 L13,57.999998 C12.9989366,57.2040235 13.3146655,56.4403443 13.8775052,55.8775048 C14.440345,55.3146654 15.2040246,54.9989366 15.9999994,55 L37.9999952,55 C38.7959701,54.9989366 39.5596497,55.3146654 40.1224894,55.8775048 C40.6853291,56.4403443 41.0010581,57.2040235 40.9999946,57.999998 Z" id="Shape" fill="#E3E7F2"/><path d="M42,7 L24,7 C22.8967686,7.00322381 22.0032238,7.89676861 22,9 L22,14 C21.9983526,14.5516009 21.5516009,14.9983526 21,15 L16,15 C14.8967686,15.0032238 14.0032238,15.8967686 14,17 L14,35 C14.0032457,36.1032223 14.8967777,36.9967543 16,37 L34,37 C35.1032223,36.9967543 35.9967543,36.1032223 36,35 L36,30 C36.0016474,29.4483991 36.4483991,29.0016474 37,29 L42,29 C43.1032223,28.9967543 43.9967543,28.1032223 44,27 L44,9 C43.9967762,7.89676861 43.1032314,7.00322381 42,7 Z M39,23 C38.9983526,23.5516009 38.5516009,23.9983526 38,24 L32,24 C31.4483991,24.0016474 31.0016474,24.4483991 31,25 L31,31 C30.9983526,31.5516009 30.5516009,31.9983526 30,32 L20,32 C19.4483991,31.9983526 19.0016474,31.5516009 19,31 L19,21 C19.0016474,20.4483991 19.4483991,20.0016474 20,20 L26,20 C26.5516009,19.9983526 26.9983526,19.5516009 27,19 L27,13 C27.0016474,12.4483991 27.4483991,12.0016474 28,12 L38,12 C38.5516009,12.0016474 38.9983526,12.4483991 39,13 L39,23 Z" id="Shape" fill="#A4C2F7"/></g><g id="White" transform="translate(1.000000, 1.000000)" fill="#FFFFFF"><path d="M3,47.17 C3.0495141,49.3310634 4.83882397,51.0443276 7,51 L4,51 C1.83882397,51.0443276 0.0495140963,49.3310634 2.22044605e-16,47.17 L2.22044605e-16,4.83 C0.049486862,2.66892457 1.83881316,0.955644642 4,1 L7,1 C4.83881316,0.955644642 3.04948686,2.66892457 3,4.83 L3,47.17 Z" id="Shape"/><path d="M15.9999987,54.9999973 L18.9999973,54.9999947 C18.2040227,54.9989339 17.4403433,55.3146627 16.8775037,55.8775022 C16.3146641,56.4403416 15.9989352,57.2040209 15.9999987,57.9999953 L15.9999987,58.9999947 L12.9999973,58.9999947 L13,57.9999953 C12.9989366,57.2040209 13.3146654,56.4403416 13.877505,55.8775022 C14.4403446,55.3146627 15.204024,54.9989339 15.9999987,54.9999973 Z" id="Shape"/><rect id="Rectangle-path" x="21" y="51" width="3" height="4"/></g><g id="Icons"><polygon id="Shape" fill="#FFFFFF" points="2 5.83 2 18.83 2 44.33 0 44.33 0 18.83 0 5.83"/><path d="M1,14.83 C1.26470163,14.825996 1.51818849,14.7224591 1.71,14.54 C2.09672008,14.1456867 2.09672008,13.5143933 1.71,13.12008 L1.5601,12.99996 C1.50432178,12.9619755 1.44372787,12.9315979 1.37992,12.90963 C1.32318071,12.8808275 1.26243074,12.8607258 1.19971,12.85 C1.13368033,12.8387398 1.0669513,12.8320572 1,12.83 C0.735233018,12.8336835 0.481633787,12.9372663 0.29,13.12 C-0.0875531162,13.5180448 -0.0875531162,14.1419552 0.29,14.54 C0.385532731,14.6302924 0.497389252,14.7015624 0.61959,14.75 C0.739940532,14.8012904 0.869184792,14.8284704 1,14.83 Z" id="Shape" fill="#428DFF"/><path d="M55,1 L5,1 C2.28711005,0.957084952 0.0509159853,3.11724841 5.46562795e-16,5.83 L0,9.83 C6.76353751e-17,10.3822847 0.44771525,10.83 1,10.83 C1.55228475,10.83 2,10.3822847 2,9.83 L2,5.83008 C2.05003118,4.22154497 3.39128152,2.95626304 5,3 L55,3 C56.6087185,2.95626304 57.9499688,4.22154497 58,5.83008 L58,43 L2,43 L2,17.83 C2,17.2777153 1.55228475,16.83 1,16.83 C0.44771525,16.83 6.76353751e-17,17.2777153 0,17.83 L0,44.33 L0,48.1699 C0.0508997673,50.8826743 2.28708703,53.0428759 5,53 L21,53 L21,55 L17,55 C14.7918366,55.0023534 13.0023534,56.7918366 13,59 L13,60 C12.999931,60.2652376 13.1052657,60.5196316 13.292817,60.707183 C13.4803684,60.8947343 13.7347624,61.000069 14,61 L46,61 C46.2652376,61.000069 46.5196316,60.8947343 46.707183,60.707183 C46.8947343,60.5196316 47.000069,60.2652376 47,60 L47,59 C46.9976466,56.7918366 45.2081634,55.0023534 43,55 L39,55 L39,53 L55,53 C57.7129053,53.042876 59.9490894,50.8826864 60,48.16992 L60,5.83008 C59.9490894,3.11731358 57.7129053,0.957124006 55,1 Z M45,59 L15,59 C15.001262,57.8959536 15.8959536,57.001262 17,57 L43,57 C44.1040464,57.001262 44.998738,57.8959536 45,59 Z M37,55 L23,55 L23,53 L37,53 L37,55 Z M55,51 L5,51 C3.39128152,51.043737 2.05003118,49.778455 2,48.16992 L2,45 L58,45 L58,48.16992 C57.9499688,49.778455 56.6087185,51.043737 55,51 Z" id="Shape" fill="#428DFF"/><path d="M35,39 C36.6561049,38.9981923 37.9981923,37.6561049 38,36 L38,31 L43,31 C44.6561049,30.9981923 45.9981923,29.6561049 46,28 L46,10 C45.9981923,8.34389511 44.6561049,7.00180771 43,7 L25,7 C23.3438951,7.00180771 22.0018077,8.34389511 22,10 L22,15 L17,15 C15.3438951,15.0018077 14.0018077,16.3438951 14,18 L14,36 C14.0018077,37.6561049 15.3438951,38.9981923 17,39 L35,39 Z M16,36 L16,18 C16.0005512,17.4479437 16.4479437,17.0005512 17,17 L22,17 C23.1040464,16.998738 23.998738,16.1040464 24,15 L24,10 C24.0005512,9.44794374 24.4479437,9.00055123 25,9 L43,9 C43.5520563,9.00055123 43.9994488,9.44794374 44,10 L44,28 C43.9994488,28.5520563 43.5520563,28.9994488 43,29 L38,29 C36.8959536,29.001262 36.001262,29.8959536 36,31 L36,36 C35.9994488,36.5520563 35.5520563,36.9994488 35,37 L17,37 C16.4479437,36.9994488 16.0005512,36.5520563 16,36 Z" id="Shape" fill="#428DFF"/><path d="M21,34 L31,34 C32.1040464,33.998738 32.998738,33.1040464 33,32 L33,26 L39,26 C40.1040464,25.998738 40.998738,25.1040464 41,24 L41,14 C40.998738,12.8959536 40.1040464,12.001262 39,12 L29,12 C27.8959536,12.001262 27.001262,12.8959536 27,14 L27,20 L21,20 C19.8959536,20.001262 19.001262,20.8959536 19,22 L19,32 C19.001262,33.1040464 19.8959536,33.998738 21,34 Z M21,22 L27,22 C28.1040464,21.998738 28.998738,21.1040464 29,20 L29,14 L39,13.999 L39,24 L33,24 C31.8959536,24.001262 31.001262,24.8959536 31,26 L31,32 L21,32 L21,22 Z" id="Shape" fill="#428DFF"/></g></g></g></svg>
