<?xml version="1.0" encoding="UTF-8"?>
<svg xmlns="http://www.w3.org/2000/svg" xmlns:xlink="http://www.w3.org/1999/xlink" width="512" height="512" viewBox="0 0 60 60" version="1.1"><!-- Generator: Sketch 49.3 (51167) - http://www.bohemiancoding.com/sketch --><title>042 - Upload to cloud</title><desc>Created with Sketch.</desc><defs><linearGradient x1="13.4485865%" y1="17.9187368%" x2="82.4891816%" y2="116.037684%" id="linearGradient-1"><stop stop-color="#D4E1F4" offset="0%"/><stop stop-color="#D4E1F4" offset="17.173%"/><stop stop-color="#D4E1F4" offset="20%"/><stop stop-color="#DAE4F4" offset="20.014%"/><stop stop-color="#EBEBF4" offset="20.069%"/><stop stop-color="#F6F1F4" offset="20.136%"/><stop stop-color="#FDF4F4" offset="20.231%"/><stop stop-color="#FFF5F4" offset="20.495%"/><stop stop-color="#FFF5F4" offset="25.222%"/><stop stop-color="#FFF5F4" offset="26%"/><stop stop-color="#D4E1F4" offset="26%"/><stop stop-color="#D4E1F4" offset="39.739%"/><stop stop-color="#D4E1F4" offset="42%"/><stop stop-color="#DAE4F4" offset="42.014%"/><stop stop-color="#EBEBF4" offset="42.069%"/><stop stop-color="#F6F1F4" offset="42.136%"/><stop stop-color="#FDF4F4" offset="42.231%"/><stop stop-color="#FFF5F4" offset="42.495%"/><stop stop-color="#FFF5F4" offset="48.939%"/><stop stop-color="#FFF5F4" offset="50%"/><stop stop-color="#F9F2F4" offset="50.003%"/><stop stop-color="#E8EBF4" offset="50.014%"/><stop stop-color="#DDE5F4" offset="50.028%"/><stop stop-color="#D6E2F4" offset="50.047%"/><stop stop-color="#D4E1F4" offset="50.1%"/><stop stop-color="#D4E1F4" offset="70.622%"/><stop stop-color="#D4E1F4" offset="74%"/><stop stop-color="#FFF5F4" offset="74.1%"/><stop stop-color="#FFF5F4" offset="83.459%"/><stop stop-color="#FFF5F4" offset="85%"/><stop stop-color="#D4E1F4" offset="85.1%"/></linearGradient></defs><g id="Page-1" stroke="none" stroke-width="1" fill="none" fill-rule="evenodd"><g id="042---Upload-to-cloud" transform="translate(-1.000000, 0.000000)" fill-rule="nonzero"><g id="Colours" transform="translate(1.000000, 1.000000)"><path d="M59,30.59 C59.087712,34.9920033 56.0725857,38.8506968 51.78,39.83 C51.2203107,39.9424871 50.650881,39.99943 50.08,40 L9.92,40 C4.85887387,39.8634264 0.86598235,35.6511945 1,30.59 C0.982294584,27.8366521 2.15205834,25.2092388 4.21,23.38 C4.25749709,23.336968 4.30759133,23.2968926 4.36,23.26 C5.50823303,22.2782234 6.89469521,21.6160325 8.38,21.34 C7.92428893,19.7567294 7.6920435,18.1175479 7.69,16.47 C7.63887313,11.0239023 10.2479402,5.89534987 14.68,2.73 C17.2084339,0.956114878 20.2213697,0.0030077283 23.31,1.33226763e-15 C28.9060186,0.0546581472 34.0337422,3.13511895 36.71,8.05 C38.0989602,7.39683648 39.6151282,7.05877201 41.15,7.06 C47.31,7.06 52.31,12.33 52.31,18.82 C52.3069477,19.6912612 52.2097162,20.5596394 52.02,21.41 C56.1898087,22.4873628 59.0765303,26.2839394 59,30.59 Z" id="Shape" fill="#A4C2F7"/><path d="M55,32.59 C55.0208871,35.354747 53.8471212,37.9938976 51.78,39.83 C51.2203107,39.9424871 50.650881,39.99943 50.08,40 L9.92,40 C4.85887387,39.8634264 0.86598235,35.6511945 1,30.59 C0.982294584,27.8366521 2.15205834,25.2092388 4.21,23.38 C4.26513634,23.3608423 4.32210601,23.3474377 4.38,23.34 C4.36867336,23.3147195 4.36190261,23.2876365 4.36,23.26 C5.50823303,22.2782234 6.89469521,21.6160325 8.38,21.34 C7.92428893,19.7567294 7.6920435,18.1175479 7.69,16.47 C7.63887313,11.0239023 10.2479402,5.89534987 14.68,2.73 C16.1759614,2.24729355 17.7380888,2.00099701 19.31,2 C24.9060186,2.05465815 30.0337422,5.13511895 32.71,10.05 C33.9737968,9.45574751 35.3444468,9.12243809 36.74,9.07 C36.88,9.06 37.01,9.06 37.15,9.06 C43.31,9.06 48.31,14.33 48.31,20.82 C48.3069477,21.6912612 48.2097162,22.5596394 48.02,23.41 C52.1898087,24.4873628 55.0765303,28.2839394 55,32.59 Z" id="Shape" fill="url(#linearGradient-1)"/><polygon id="Shape" fill="#A4C2F7" points="38 19 34 19 34 28 26 28 26 19 22 19 28.5 11.69 30 10"/><polygon id="Shape" fill="#E3E7F2" points="35 19 31 19 31 28 26 28 26 19 22 19 28.5 11.69"/><path d="M42,28.03 L42,49.73 L34,58 L19,58 C18.439665,57.9911738 17.9922643,57.5303511 18,56.97 L18,28.03 C17.9922089,27.4696269 18.4396414,27.0087715 19,27 L41,27 C41.5603586,27.0087715 42.0077911,27.4696269 42,28.03 Z" id="Shape" fill="#A4C2F7"/><path d="M39,28.03 L39,49.73 L31,58 L19,58 C18.439665,57.9911738 17.9922643,57.5303511 18,56.97 L18,28.03 C17.9922089,27.4696269 18.4396414,27.0087715 19,27 L38,27 C38.5603586,27.0087715 39.0077911,27.4696269 39,28.03 Z" id="Shape" fill="#E3E7F2"/><path d="M42,50 L34,58 L34,50.88889 C34,50.3979696 34.3979696,50 34.88889,50 L42,50 Z" id="Shape" fill="#A4C2F7"/></g><g id="White" transform="translate(1.000000, 1.000000)" fill="#FFFFFF"><path d="M24.76,0.08 C22.2131141,0.347170836 19.7763839,1.2592238 17.68,2.73 C13.2479402,5.89534987 10.6388731,11.0239023 10.69,16.47 C10.6920435,18.1175479 10.9242889,19.7567294 11.38,21.34 C9.89469521,21.6160325 8.50823303,22.2782234 7.36,23.26 C7.30759133,23.2968926 7.25749709,23.336968 7.21,23.38 C5.15205834,25.2092388 3.98229458,27.8366521 4,30.59 C3.86598235,35.6511945 7.85887387,39.8634264 12.92,40 L9.92,40 C4.85887387,39.8634264 0.86598235,35.6511945 1,30.59 C0.982294584,27.8366521 2.15205834,25.2092388 4.21,23.38 C4.25749709,23.336968 4.30759133,23.2968926 4.36,23.26 C5.50823303,22.2782234 6.89469521,21.6160325 8.38,21.34 C7.92428893,19.7567294 7.6920435,18.1175479 7.69,16.47 C7.63887313,11.0239023 10.2479402,5.89534987 14.68,2.73 C17.2084339,0.956114878 20.2213697,0.0030077283 23.31,1.29746474e-15 C23.7945274,-0.00354352498 24.2788033,0.0231751418 24.76,0.08 Z" id="Shape"/><path d="M22,58 L19,58 C18.45,58 18,57.2333 18,56.28328 L18,28 L21,28 L21,56.28328 C21,57.2333 21.45,58 22,58 Z" id="Shape"/></g><g id="Icons"><polygon id="Shape" fill="#FFFFFF" points="20 30 20 43 20 58 18 58 18 43 18 30"/><path d="M19,39 C19.404347,38.9984049 19.7682813,38.7544153 19.9233352,38.3809754 C20.0783892,38.0075356 19.9943027,37.5775256 19.71,37.29 L19.5601,37.16988 C19.5043218,37.1318955 19.4437279,37.1015179 19.37992,37.07955 C19.323188,37.0507764 19.2624526,37.0306953 19.19975,37.01998 C19.133706,37.0087296 19.0669639,37.0020537 19,37 C18.735233,37.0036835 18.4816338,37.1072663 18.29,37.29 C18.0473861,37.5237239 17.9409205,37.8651552 18.0076921,38.195352 C18.0744636,38.5255488 18.3052259,38.7987868 18.61959,38.91988 C18.7399307,38.9712163 18.8691762,38.9984374 19,39 Z" id="Shape" fill="#428DFF"/><path d="M54.16748,21.7002 C54.2613406,21.077948 54.3089976,20.4496002 54.31006,19.82031 C54.31006,12.78418 48.85498,7.05957 42.1499,7.05957 C40.7738928,7.05819831 39.4090403,7.30635268 38.12158,7.79199 C35.1797004,2.97610896 29.9533397,0.0275739618 24.31006,0 C15.14551,0 7.68994,7.83691 7.68994,17.46973 C7.69059876,18.8628451 7.84800219,20.251463 8.15918,21.60938 C3.83924574,23.0020196 0.934510119,27.0514495 1,31.58984 C0.874353509,37.2000738 5.31015077,41.8550871 10.91992,42 L15,42 C15.5522847,42 16,41.5522847 16,41 C16,40.4477153 15.5522847,40 15,40 L10.91992,40 C6.41449525,39.8557384 2.87373366,36.095805 3,31.58984 C2.91437019,27.6143519 5.67165672,24.1413388 9.563,23.32324 C9.8400289,23.2713909 10.0823533,23.1051325 10.2304223,22.8653224 C10.3784914,22.6255123 10.4185777,22.3343834 10.34083,22.06348 C9.91037623,20.5701464 9.69128637,19.0238644 9.68995,17.46973 C9.68994,8.93945 16.24854,2 24.31006,2 C29.5492988,2.04308446 34.3502058,4.93314519 36.84033,9.543 C37.0977618,9.99636862 37.6601577,10.1761118 38.13281,9.95608 C39.3895213,9.36518659 40.7612035,9.05907305 42.1499,9.0596 C47.75244,9.0596 52.31006,13.88675 52.31006,19.82034 C52.3068036,20.6192871 52.2174204,21.4155548 52.04346,22.19534 C51.9261671,22.7291933 52.2590238,23.2583729 52.79102,23.38382 C56.5194035,24.3390514 59.0943449,27.7421901 59,31.58984 C59.1262663,36.095805 55.5855047,39.8557384 51.08008,40 L47,40 C46.4477153,40 46,40.4477153 46,41 C46,41.5522847 46.4477153,42 47,42 L51.08008,42 C56.6898492,41.8550871 61.1256465,37.2000738 61,31.58984 C61.0790538,27.16915 58.3301953,23.1903513 54.16748,21.7002 Z" id="Shape" fill="#428DFF"/><path d="M42,28 L36,28 L36,21 L39,21 C39.393639,20.9998305 39.75057,20.7687747 39.9118782,20.4097045 C40.0731864,20.0506343 40.0088683,19.6303372 39.74756,19.33594 L31.74756,10.33594 C31.5528485,10.1311028 31.2826143,10.0151358 31,10.0151358 C30.7173857,10.0151358 30.4471515,10.1311028 30.25244,10.33594 L22.25244,19.33594 C21.9911317,19.6303372 21.9268136,20.0506343 22.0881218,20.4097045 C22.24943,20.7687747 22.606361,20.9998305 23,21 L26,21 L26,28 L20,28 C18.8959536,28.001262 18.001262,28.8959536 18,30 L18,34 C18,34.5522847 18.4477153,35 19,35 C19.5522847,35 20,34.5522847 20,34 L20,30 L42,30 L42,50 L35.88867,50 C34.8461186,50.0012838 34.0012838,50.8461186 34,51.88867 L34,58 L20,58 L20,42 C20,41.4477153 19.5522847,41 19,41 C18.4477153,41 18,41.4477153 18,42 L18,58 C18.001262,59.1040464 18.8959536,59.998738 20,60 L35,60 C35.2653097,59.9988634 35.5195199,59.8933861 35.7077,59.70636 L43.70618,51.70789 L43.70959,51.70361 C43.7892361,51.620986 43.8538701,51.5251111 43.90059,51.42029 C43.9134377,51.38938 43.924663,51.3578204 43.93422,51.32574 C43.9640019,51.2405964 43.9819528,51.1517669 43.98757,51.06174 C43.989,51.04022 44,51.02191 44,51 L44,30 C43.998738,28.8959536 43.1040464,28.001262 42,28 Z M28,28 L28,20 C28.000069,19.7347624 27.8947343,19.4803684 27.707183,19.292817 C27.5196316,19.1052657 27.2652376,18.999931 27,19 L25.227,19 L31,12.50488 L36.773,19 L35,19 C34.7347624,18.999931 34.4803684,19.1052657 34.292817,19.292817 C34.1052657,19.4803684 33.999931,19.7347624 34,20 L34,28 L28,28 Z M36,56.58594 L36,52 L40.58594,52 L36,56.58594 Z" id="Shape" fill="#428DFF"/><path d="M23,35 L25,35 C25.5522847,35 26,34.5522847 26,34 C26,33.4477153 25.5522847,33 25,33 L23,33 C22.4477153,33 22,33.4477153 22,34 C22,34.5522847 22.4477153,35 23,35 Z" id="Shape" fill="#428DFF"/><path d="M29,35 L39,35 C39.5522847,35 40,34.5522847 40,34 C40,33.4477153 39.5522847,33 39,33 L29,33 C28.4477153,33 28,33.4477153 28,34 C28,34.5522847 28.4477153,35 29,35 Z" id="Shape" fill="#428DFF"/><path d="M23,39 L25,39 C25.5522847,39 26,38.5522847 26,38 C26,37.4477153 25.5522847,37 25,37 L23,37 C22.4477153,37 22,37.4477153 22,38 C22,38.5522847 22.4477153,39 23,39 Z" id="Shape" fill="#428DFF"/><path d="M29,39 L39,39 C39.5522847,39 40,38.5522847 40,38 C40,37.4477153 39.5522847,37 39,37 L29,37 C28.4477153,37 28,37.4477153 28,38 C28,38.5522847 28.4477153,39 29,39 Z" id="Shape" fill="#428DFF"/><path d="M23,43 L25,43 C25.5522847,43 26,42.5522847 26,42 C26,41.4477153 25.5522847,41 25,41 L23,41 C22.4477153,41 22,41.4477153 22,42 C22,42.5522847 22.4477153,43 23,43 Z" id="Shape" fill="#428DFF"/><path d="M29,43 L39,43 C39.5522847,43 40,42.5522847 40,42 C40,41.4477153 39.5522847,41 39,41 L29,41 C28.4477153,41 28,41.4477153 28,42 C28,42.5522847 28.4477153,43 29,43 Z" id="Shape" fill="#428DFF"/></g></g></g></svg>
