<?xml version="1.0" encoding="UTF-8"?>
<svg xmlns="http://www.w3.org/2000/svg" xmlns:xlink="http://www.w3.org/1999/xlink" width="512" height="512" viewBox="0 0 53 60" version="1.1"><!-- Generator: Sketch 49.3 (51167) - http://www.bohemiancoding.com/sketch --><title>041 - Database Server</title><desc>Created with Sketch.</desc><defs/><g id="Page-1" stroke="none" stroke-width="1" fill="none" fill-rule="evenodd"><g id="041---Database-Server" fill-rule="nonzero"><g id="Colours" transform="translate(1.000000, 1.000000)"><polygon id="Shape" fill="#A4C2F7" points="30 6 30 38 12 47 12 17 26 8.44"/><polygon id="Shape" fill="#E3E7F2" points="26 8.44 26 39 12 46 12 17"/><polygon id="Shape" fill="#E3E7F2" points="12 32 12 47 0 41 0 26"/><polygon id="Shape" fill="#E3E7F2" points="12 27 12 32 0 26 0 21"/><polygon id="Shape" fill="#A4C2F7" points="12 22 12 27 0 21 0 16"/><polygon id="Shape" fill="#E3E7F2" points="12 17 12 22 0 16 0 11"/><polygon id="Shape" fill="#E3E7F2" points="30 6 12 17 0 11 18 0"/><path d="M28.5,27 C23.8056,27 20,27.89545 20,29 L20,45 C20,46.1 23.81,47 28.5,47 C33.19,47 37,46.1 37,45 L37,29 C37,27.89545 33.19446,27 28.5,27 Z" id="Shape" fill="#E3E7F2"/><ellipse id="Oval" fill="#E3E7F2" cx="28.50002" cy="29.00004" rx="8.5" ry="2"/><path d="M42.5,38 C37.8056,38 34,38.89545 34,40 L34,56 C34,57.1 37.81,58 42.5,58 C47.19,58 51,57.1 51,56 L51,40 C51,38.89545 47.19446,38 42.5,38 Z" id="Shape" fill="#E3E7F2"/><ellipse id="Oval" fill="#E3E7F2" cx="42.50002" cy="40.00004" rx="8.5" ry="2"/></g><g id="White" transform="translate(1.000000, 1.000000)" fill="#FFFFFF"><polygon id="Shape" points="3 41 12.45 45.72 12 46 12 47 0 41 0 11 18 0 21 2 3 13"/></g><g id="Icons"><polygon id="Shape" fill="#FFFFFF" points="19.521 1.853 8.429 8.632 1.521 12.853 0.479 11.147 7.386 6.926 18.479 0.147"/><path d="M11.93817,6.14758 C12.4762921,6.27197532 13.0149856,5.94278186 13.14978,5.40717 L13.17407,5.21661 C13.1774089,5.14922565 13.1717457,5.08169698 13.15723,5.01581 C13.1521883,4.95238828 13.137639,4.89008513 13.11407,4.83099 C13.0892718,4.76877725 13.0602025,4.70835322 13.02707,4.65015 C12.8858328,4.42619593 12.6652175,4.26385255 12.40939,4.19562 C12.0834504,4.11049004 11.7366066,4.19768173 11.4896708,4.42682457 C11.242735,4.6559674 11.1298969,4.99533528 11.19046,5.32672 C11.2094334,5.45616343 11.2536251,5.58062523 11.32053,5.69305 C11.4619551,5.91681209 11.6824741,6.07909514 11.93817,6.14758 Z" id="Shape" fill="#428DFF"/><path d="M43.5,38 C41.9952002,38.0010542 40.4920503,38.0996275 39,38.2951 L39,30 C39,27.94055 34.89026,27.29376 32,27.0918 L32,7 C32,6.96771 31.98987,6.93774 31.98682,6.90607 C31.9839273,6.87274518 31.9792808,6.8395959 31.9729,6.80676 C31.9528051,6.69566645 31.9139396,6.58880583 31.85797,6.49076 L31.85352,6.4785 L31.85168,6.4765 C31.7882519,6.37804229 31.7079871,6.29151867 31.61456,6.22089 C31.5877323,6.20018996 31.5598193,6.18093593 31.53094,6.16321 C31.5040809,6.14251066 31.4761524,6.12323741 31.44727,6.10547 L19.44727,0.10547 C19.13931,-0.0431594322 18.7763524,-0.0217513412 18.488,0.16205 L18.4786,0.14673 L15.06543,2.23254 C14.7595935,2.4183776 14.5763794,2.75348228 14.5850074,3.11124916 C14.5936353,3.46901604 14.7927898,3.79489948 15.1072289,3.96577847 C15.421668,4.13665746 15.8034519,4.12647954 16.10834,3.93909 L19.0484,2.1424 L28.93866,7.08752 L12.95135,16.85752 L3.0611,11.91235 L9.2821,8.11066 C9.75123122,7.82176048 9.89830991,7.20782894 9.61101482,6.73771346 C9.32371973,6.26759797 8.71029426,6.1184227 8.2392,6.40411 L0.47858,11.14673 L0.47888,11.14728 L0.47412,11.14941 C0.179523025,11.331779 0.000182098198,11.6535237 0,12 L0,42 C4.39772646e-05,42.3787699 0.214000411,42.7250339 0.55273,42.89453 L12.55273,48.89453 C12.56165,48.89899 12.57196,48.89703 12.58099,48.90118 C12.7115305,48.9638603 12.8541088,48.9974929 12.9989,48.99976 L13,49 L13.00049,48.99994 L13.001,49 C13.0918928,48.9998863 13.1823457,48.9873811 13.26986,48.96283 C13.29486,48.95583 13.31728,48.94055 13.34176,48.93158 C13.4041523,48.9116876 13.4643722,48.8855345 13.5215,48.85352 L20,44.8938 L20,46 C20,48.85547 27.91357,49 29.5,49 C31.0050813,49.0048468 32.5086874,48.9053248 34,48.70215 L34,57 C34,59.85547 41.91357,60 43.5,60 C45.08643,60 53,59.85547 53,57 L53,41 C53,38.14453 45.08643,38 43.5,38 Z M50.67285,41 C48.3631729,41.7691773 45.9319852,42.1081204 43.5,42 C41.0680148,42.1081204 38.6368271,41.7691773 36.32715,41 C38.6368271,40.2308227 41.0680148,39.8918796 43.5,40 C45.9319852,39.8918796 48.3631729,40.2308227 50.67285,41 Z M36.67285,30 C34.3631729,30.7691773 31.9319852,31.1081204 29.5,31 C27.0680148,31.1081204 24.6368271,30.7691773 22.32715,30 C24.6368271,29.2308227 27.0680148,28.8918796 29.5,29 C31.9319852,28.8918796 34.3631729,29.2308227 36.67285,30 Z M12,26.38184 L2,21.38184 L2,18.61816 L12,23.61816 L12,26.38184 Z M2,23.61816 L12,28.61816 L12,31.38184 L2,26.38184 L2,23.61816 Z M12,21.38184 L2,16.38184 L2,13.61816 L12,18.61816 L12,21.38184 Z M2,41.38184 L2,28.61816 L12,33.61816 L12,46.38184 L2,41.38184 Z M14,46.21655 L14,18.5611 L30,8.78333 L30,27.00482 C29.80231,27.00182 29.62555,27 29.5,27 C27.91357,27 20,27.14453 20,30 L20,42.54932 L14,46.21655 Z M29.5,47 C25.1781,47 22.55377,46.24591 22,45.80756 L22,44.00122 C24.4361101,44.7067429 26.9641547,45.0434042 29.5,45 C30.0522847,45 30.5,44.5522847 30.5,44 C30.5,43.4477153 30.0522847,43 29.5,43 C25.17346,43 22.55072,42.24768 22,41.81024 L22,40.00124 C24.4361112,40.7067561 26.9641557,41.0434107 29.5,41 C30.0522847,41 30.5,40.5522847 30.5,40 C30.5,39.4477153 30.0522847,39 29.5,39 C25.17346,39 22.55072,38.24768 22,37.81024 L22,36.00124 C24.4361112,36.7067561 26.9641557,37.0434107 29.5,37 C30.0522847,37 30.5,36.5522847 30.5,36 C30.5,35.4477153 30.0522847,35 29.5,35 C25.17346,35 22.55072,34.24768 22,33.81024 L22,32.00122 C24.4361112,32.7067561 26.9641557,33.0434107 29.5,33 C32.0358453,33.0434042 34.5638899,32.7067429 37,32.00122 L37,38.68689 C35.32825,39.12347 34,39.83289 34,41 L34,46.675 C32.5104184,46.8973491 31.0060732,47.0059962 29.5,47 Z M43.5,58 C39.1781,58 36.55377,57.24591 36,56.80756 L36,55.00122 C38.4361101,55.7067429 40.9641547,56.0434042 43.5,56 C44.0522847,56 44.5,55.5522847 44.5,55 C44.5,54.4477153 44.0522847,54 43.5,54 C39.17346,54 36.55072,53.24768 36,52.81024 L36,51.00124 C38.4361112,51.7067561 40.9641557,52.0434107 43.5,52 C44.0522847,52 44.5,51.5522847 44.5,51 C44.5,50.4477153 44.0522847,50 43.5,50 C39.17346,50 36.55072,49.24768 36,48.81024 L36,47.00124 C38.4361112,47.7067561 40.9641557,48.0434107 43.5,48 C44.0522847,48 44.5,47.5522847 44.5,47 C44.5,46.4477153 44.0522847,46 43.5,46 C39.17346,46 36.55072,45.24768 36,44.81024 L36,43.00122 C38.4361112,43.7067561 40.9641557,44.0434107 43.5,44 C46.0358453,44.0434042 48.5638899,43.7067429 51,43.00122 L51,56.8125 C50.43262,57.251 47.80518,58 43.5,58 Z" id="Shape" fill="#428DFF"/></g></g></g></svg>
