<?xml version="1.0" encoding="UTF-8"?>
<svg xmlns="http://www.w3.org/2000/svg" xmlns:xlink="http://www.w3.org/1999/xlink" width="512" height="512" viewBox="0 0 60 60" version="1.1"><!-- Generator: Sketch 49.3 (51167) - http://www.bohemiancoding.com/sketch --><title>040 - Restore from Remote</title><desc>Created with Sketch.</desc><defs><linearGradient x1="10.9756124%" y1="-19.5652864%" x2="89.0243632%" y2="119.565243%" id="linearGradient-1"><stop stop-color="#D4E1F4" offset="0%"/><stop stop-color="#D4E1F4" offset="17.173%"/><stop stop-color="#D4E1F4" offset="20%"/><stop stop-color="#DAE4F4" offset="20.014%"/><stop stop-color="#EBEBF4" offset="20.069%"/><stop stop-color="#F6F1F4" offset="20.136%"/><stop stop-color="#FDF4F4" offset="20.231%"/><stop stop-color="#FFF5F4" offset="20.495%"/><stop stop-color="#FFF5F4" offset="25.222%"/><stop stop-color="#FFF5F4" offset="26%"/><stop stop-color="#D4E1F4" offset="26%"/><stop stop-color="#D4E1F4" offset="39.739%"/><stop stop-color="#D4E1F4" offset="42%"/><stop stop-color="#DAE4F4" offset="42.014%"/><stop stop-color="#EBEBF4" offset="42.069%"/><stop stop-color="#F6F1F4" offset="42.136%"/><stop stop-color="#FDF4F4" offset="42.231%"/><stop stop-color="#FFF5F4" offset="42.495%"/><stop stop-color="#FFF5F4" offset="48.939%"/><stop stop-color="#FFF5F4" offset="50%"/><stop stop-color="#F9F2F4" offset="50.003%"/><stop stop-color="#E8EBF4" offset="50.014%"/><stop stop-color="#DDE5F4" offset="50.028%"/><stop stop-color="#D6E2F4" offset="50.047%"/><stop stop-color="#D4E1F4" offset="50.1%"/><stop stop-color="#D4E1F4" offset="70.622%"/><stop stop-color="#D4E1F4" offset="74%"/><stop stop-color="#FFF5F4" offset="74.1%"/><stop stop-color="#FFF5F4" offset="83.459%"/><stop stop-color="#FFF5F4" offset="85%"/><stop stop-color="#D4E1F4" offset="85.1%"/></linearGradient></defs><g id="Page-1" stroke="none" stroke-width="1" fill="none" fill-rule="evenodd"><g id="040---Restore-from-Remote" fill-rule="nonzero"><g id="Colours" transform="translate(1.000000, 1.000000)"><path d="M51,45 L51,22 L50.98462,22 C50.9643583,20.5006146 50.4376171,19.0521485 49.49,17.89 C49.0138149,17.3034055 48.4466363,16.796975 47.81007,16.39 C47.1610125,15.9826849 46.4475205,15.6885061 45.7,15.52 C45.7396258,15.3720817 45.7697176,15.2217728 45.79009,15.07 C45.82009,14.92 45.84009,14.76 45.86009,14.61 C45.88009,14.45 45.90009,14.29 45.91001,14.13 C45.91993,13.97 45.92001,13.81 45.92001,13.65 C45.9210423,12.5096527 45.6932071,11.3806952 45.25,10.33 C44.8313312,9.31610373 44.216162,8.39507976 43.43994,7.62 C41.8618707,6.01941167 39.7076465,5.11881625 37.45994,5.12 C37.16265,5.12143346 36.8656294,5.13812207 36.57005,5.17 C36.2845387,5.19791059 36.0007541,5.24130784 35.71995,5.3 C35.42995,5.36 35.15989,5.44 34.88995,5.52 C34.61995,5.61 34.34995,5.72 34.09003,5.83 C33.0513163,4.09128947 31.5936095,2.64046895 29.85,1.61 C28.9731343,1.09182717 28.0316882,0.691702604 27.05007,0.42 C26.0298834,0.142033945 24.9772966,0.00079904101 23.91992,1.53712763e-15 C22.3351669,-0.00540790872 20.7661698,0.314527459 19.31006,0.94 C17.8985819,1.53954798 16.6178891,2.40918233 15.54,3.5 C13.317007,5.74579334 12.0731026,8.78005727 12.08,11.94 C12.08,12.25 12.09,12.55 12.10991,12.85 C12.13991,13.16 12.16984,13.46 12.20991,13.75 C12.25991,14.04 12.31001,14.34 12.37991,14.62 C12.43985,14.91 12.51991,15.19 12.59991,15.47 C11.8165198,15.6072375 11.0644128,15.8850428 10.37991,16.29 C9.70966245,16.6826693 9.11111965,17.1865273 8.60991,17.78 C8.10136745,18.3753568 7.70188745,19.0557924 7.42985,19.79 C7.17031429,20.4986197 7.03049175,21.2454844 7.01611,22 L7,22 L7,45 L0,54 L0,56 C3.31351822e-05,57.1045558 0.895444226,57.9999669 2,58 L56,58 C57.1045558,57.9999669 57.9999669,57.1045558 58,56 L58,54 L51,45 Z" id="Shape" fill="#B0D3F0"/><rect id="Rectangle-path" fill="#A4C2F7" x="7" y="22.00003" width="44" height="22.99997"/><rect id="Rectangle-path" fill="url(#linearGradient-1)" x="7.00002" y="22.00003" width="40.99999" height="22.99997"/><path d="M51,22.18 C51.0001428,23.092909 50.8200317,23.9968626 50.47,24.84 C50.1305374,25.6467996 49.6381523,26.3802837 49.02,27 C48.4070011,27.6241369 47.676214,28.1203923 46.87,28.46 C46.2964054,28.7637704 45.6669401,28.9475062 45.02,29 L13.77,29 C11.97055,28.9985836 10.2461807,28.2785964 8.98,27 C8.36184775,26.3802837 7.86946265,25.6467996 7.53,24.84 C7.17996826,23.9968626 6.99985719,23.092909 7,22.18 C6.99871811,21.3639878 7.14435072,20.5544096 7.42993,19.79 C7.70197049,19.0557916 8.1014539,18.375356 8.61,17.78 C8.65992,17.72 8.71,17.66 8.76,17.61 C9.22925965,17.0896814 9.7756248,16.644495 10.38,16.29 C11.0645028,15.8850428 11.8166098,15.6072375 12.6,15.47 C12.52,15.19 12.44,14.91 12.38,14.62 C12.31006,14.34 12.26,14.04 12.21,13.75 C12.17,13.46 12.14,13.16 12.11,12.85 C12.0901,12.55 12.08009,12.25 12.08009,11.94 C12.0731686,8.78007011 13.31704,5.74580797 15.54,3.5 C15.9195163,3.11727349 16.3237165,2.75984029 16.75,2.43 C18.808987,0.855949408 21.3281912,0.00215097931 23.91992,-2.22044605e-16 C24.9772899,0.00080081182 26.0298698,0.142035701 27.05005,0.42 C28.0316751,0.69170095 28.973128,1.09182556 29.85,1.61 C31.5936388,2.64045837 33.0513739,4.09127976 34.09011,5.83 C34.35,5.72 34.62002,5.61 34.89003,5.52 C35.15993,5.44 35.42995,5.36 35.72003,5.3 C36.0008341,5.24130784 36.2846187,5.19791059 36.57013,5.17 C36.8657028,5.13812276 37.1627167,5.12143414 37.46,5.12 C40.8681205,5.13207161 43.9373437,7.18478702 45.25,10.33 C45.6931762,11.3807016 45.9209808,12.5096589 45.91992,13.65 C45.91992,13.81 45.91992,13.97 45.90992,14.13 C45.89992,14.29 45.88001,14.45 45.86,14.61 C45.8401,14.76 45.82008,14.92 45.79,15.07 C45.7696276,15.2217728 45.7395358,15.3720817 45.69991,15.52 C46.4474444,15.6885018 47.1609502,15.9826808 47.81002,16.39 C48.4466041,16.7969707 49.0137998,17.3034015 49.49,17.89 C50.472719,19.1032327 51.0061381,20.6187081 51,22.18 Z" id="Shape" fill="#A4C2F7"/><path d="M47,24.18 C47.0001428,25.092909 46.8200317,25.9968626 46.47,26.84 C46.1305374,27.6467996 45.6381523,28.3802837 45.02,29 L13.77,29 C11.97055,28.9985836 10.2461807,28.2785964 8.98,27 C8.36184775,26.3802837 7.86946265,25.6467996 7.53,24.84 C7.17996826,23.9968626 6.99985719,23.092909 7,22.18 C6.99871811,21.3639878 7.14435072,20.5544096 7.42993,19.79 C7.70197049,19.0557916 8.1014539,18.375356 8.61,17.78 C8.65992,17.72 8.71,17.66 8.76,17.61 C9.22925965,17.0896814 9.7756248,16.644495 10.38,16.29 C11.0645028,15.8850428 11.8166098,15.6072375 12.6,15.47 C12.52,15.19 12.44,14.91 12.38,14.62 C12.31006,14.34 12.26,14.04 12.21,13.75 C12.17,13.46 12.14,13.16 12.11,12.85 C12.0901,12.55 12.08009,12.25 12.08009,11.94 C12.0731686,8.78007011 13.31704,5.74580797 15.54,3.5 C15.9195163,3.11727349 16.3237165,2.75984029 16.75,2.43 C17.7821667,2.14316892 18.8486414,1.9985015 19.91992,2 C20.9772899,2.00080081 22.0298698,2.1420357 23.05005,2.42 C24.0316751,2.69170095 24.973128,3.09182556 25.85,3.61 C27.5936388,4.64045837 29.0513739,6.09127976 30.09011,7.83 C30.35,7.72 30.62002,7.61 30.89003,7.52 C31.15993,7.44 31.42995,7.36 31.72003,7.3 C32.0008341,7.24130784 32.2846187,7.19791059 32.57013,7.17 C32.8657028,7.13812276 33.1627167,7.12143414 33.46,7.12 C36.8681205,7.13207161 39.9373437,9.18478702 41.25,12.33 C41.6931762,13.3807016 41.9209808,14.5096589 41.91992,15.65 C41.91992,15.81 41.91992,15.97 41.90992,16.13 C41.89992,16.29 41.88001,16.45 41.86,16.61 C41.8401,16.76 41.82008,16.92 41.79,17.07 C41.7696276,17.2217728 41.7395358,17.3720817 41.69991,17.52 C42.4474444,17.6885018 43.1609502,17.9826808 43.81002,18.39 C44.4466041,18.7969707 45.0137998,19.3034015 45.49,19.89 C46.472719,21.1032327 47.0061381,22.6187081 47,24.18 Z" id="Shape" fill="#E3E7F2"/><polygon id="Shape" fill="#A4C2F7" points="58 54 0 54 7 45 51 45"/><polygon id="Shape" fill="#E3E7F2" points="54 54 0 54 7 45 47 45"/><path d="M0,54 L58,54 L58,56 C58,57.1045695 57.1045695,58 56,58 L2,58 C0.8954305,58 2.22044605e-16,57.1045695 0,56 L0,54 Z" id="Shape" fill="#E3E7F2"/></g><g id="White" transform="translate(1.000000, 1.000000)" fill="#FFFFFF"><path d="M23.91992,4.79759461e-17 C24.4183355,-0.00222864152 24.9162722,0.0311899329 25.40992,0.1 C24.3413853,0.228277705 23.2971791,0.511237584 22.31007,0.94 C21.900718,1.11382226 21.5031816,1.31425065 21.12001,1.54 C20.98001,1.61 20.85001,1.7 20.72001,1.78 C20.47001,1.93 20.23001,2.1 19.99001,2.27 C19.90993,2.32 19.8301,2.37 19.75001,2.43 C19.6942212,2.47374902 19.6408399,2.52048397 19.5901,2.57 C19.2237865,2.86107823 18.8732869,3.17152072 18.5401,3.5 C16.317107,5.74579334 15.0732026,8.78005727 15.0801,11.94 C15.0801,12.25 15.0901,12.55 15.11001,12.85 C15.14001,13.16 15.16994,13.46 15.21001,13.75 C15.26006,14.04 15.31011,14.34 15.38001,14.62 C15.43995,14.91 15.52001,15.19 15.60001,15.47 C14.8166198,15.6072375 14.0645128,15.8850428 13.38001,16.29 C13.0598582,16.4734752 12.7584227,16.6878293 12.48001,16.93 C12.3728857,17.0153956 12.2725818,17.1090125 12.18001,17.21 C12.04012,17.34 11.89009,17.47 11.76009,17.61 C11.71009,17.66 11.65999,17.72 11.61009,17.78 C10.8558793,18.6634069 10.3456829,19.7286143 10.13009,20.87 C10.0623164,21.2429893 10.0254943,21.6209432 10.02,22 L10,22 L10,45 L3,54 L3,56 C3.00090826,56.2680465 3.05527212,56.5332195 3.15991,56.78 C3.41471017,57.3876938 3.95407269,57.8296438 4.6,57.96 C4.73135449,57.9886521 4.86557291,58.0020739 5,58 L2,58 C1.86557291,58.0020739 1.73135449,57.9886521 1.6,57.96 C0.954080224,57.8296378 0.414726309,57.3876887 0.15993,56.78 C0.0552852575,56.5332209 0.000914583081,56.2680478 2.22044605e-16,56 L2.22044605e-16,54 L7,45 L7,22 L7.02,22 C7.02546462,21.6209456 7.06225659,21.2429918 7.13,20.87 C7.34559287,19.7286143 7.8557893,18.6634069 8.61,17.78 C8.65992,17.72 8.71,17.66 8.76,17.61 C8.89,17.47 9.04,17.34 9.17992,17.21 C9.27249182,17.1090125 9.37279571,17.0153956 9.47992,16.93 C9.75833275,16.6878293 10.0597682,16.4734752 10.37992,16.29 C11.0644228,15.8850428 11.8165298,15.6072375 12.59992,15.47 C12.51992,15.19 12.43992,14.91 12.37992,14.62 C12.30998,14.34 12.25992,14.04 12.20992,13.75 C12.16992,13.46 12.13992,13.16 12.10992,12.85 C12.09002,12.55 12.08001,12.25 12.08001,11.94 C12.0731099,8.7800587 13.3170106,5.74579496 15.54,3.5 C15.8731869,3.17152072 16.2236865,2.86107823 16.59,2.57 C16.640769,2.52048145 16.6941804,2.47374646 16.75,2.43 C16.83008,2.37 16.90991,2.32 16.99,2.27 C17.23,2.1 17.47,1.93 17.72,1.78 C17.85,1.7 17.98,1.61 18.12,1.54 C18.5031716,1.31425065 18.900708,1.11382226 19.31006,0.94 C20.7661698,0.314527459 22.3351669,-0.00540790872 23.91992,4.79759461e-17 Z" id="Shape"/></g><g id="Icons"><polygon id="Shape" fill="#FFFFFF" points="7 46 7 33 7 23.18 9 23.18 9 33 9 46"/><path d="M7.62012,38.92041 C7.67685196,38.9491836 7.73758737,38.9692647 7.80029,38.97998 C7.86631987,38.991242 7.93304856,38.9979312 8,39 C8.26476698,38.9963165 8.51836621,38.8927337 8.71,38.71 C8.95261395,38.4762761 9.05907947,38.1348448 8.99230794,37.804648 C8.92553642,37.4744512 8.69477412,37.2012132 8.38041,37.08012 C8.2600693,37.0287837 8.13082378,37.0015626 8,37 C7.59565302,37.0015951 7.23171874,37.2455847 7.07666479,37.6190246 C6.92161083,37.9924644 7.00569729,38.4224744 7.29,38.71 L7.4399,38.83012 C7.49569287,38.8680937 7.55630032,38.8984579 7.62012,38.92041 Z" id="Shape" fill="#428DFF"/><path d="M59.92358,54.62067 C59.9165,54.60382 59.90466,54.59058 59.89685,54.57422 C59.8678656,54.507819 59.8317216,54.4447792 59.78906,54.38622 L53,45.65741 L53,23.18018 C53.0022095,19.8848361 50.9409923,16.9407684 47.84375,15.81543 L47.85547,15.7251 C47.87598,15.55029 47.89258,15.37305 47.90332,15.19434 C47.91406,15.01465 47.91992,14.83301 47.91992,14.6499 C47.9369025,11.9569999 46.8065858,9.38422815 44.8117359,7.57520274 C42.8168859,5.76617733 40.1461924,4.89201107 37.46777,5.17139 C37.1453281,5.20559005 36.8248919,5.25660283 36.50777,5.32422 C36.1933377,5.39099698 35.882679,5.47444815 35.57711,5.57422 C35.54781,5.5835 35.51949,5.59277 35.49117,5.60254 C35.0325385,4.93472909 34.5130686,4.31081024 33.93941,3.73877 C33.1672597,2.96699555 32.2999426,2.29672432 31.3584,1.74414 C30.4037873,1.18332807 29.3797584,0.750111963 28.3125,0.45557 C25.5294371,-0.303211099 22.5721736,-0.105296243 19.91504,1.01757 C16.8306107,2.33844817 14.3816073,4.80829001 13.08691,7.9038 C12.4186824,9.49852999 12.0763508,11.2108615 12.08008,12.93993 C12.08008,13.27245 12.0921233,13.60204 12.11621,13.9287 C12.14063,14.25536 12.17676,14.5786 12.22363,14.89403 C12.26563,15.18163 12.31739,15.4664633 12.37891,15.74853 C9.16606394,16.7998313 6.99487831,19.7995284 7,23.18 L7,34 C7,34.5522847 7.44771525,35 8,35 C8.55228475,35 9,34.5522847 9,34 L9,28.40637 C9.09045,28.50737 9.17639,28.61163 9.27246,28.7085 C10.7251328,30.1759945 12.7046336,31.0011661 14.76953,31 L15.36035,31 C17.3706787,30.9972753 18.9991634,29.3672604 19,27.35693 C18.9933993,24.3756213 20.1466391,21.5086307 22.21582,19.3623 C24.2386051,17.2199585 27.0536004,16.0040489 30,16 L30.00488,16 C36.0728293,16.0108209 40.9891791,20.9271707 41,26.99512 C40.99723,29.9432033 39.781221,32.7601937 37.6377,34.78418 C35.4910536,36.8531797 32.6239907,38.0063779 29.64258,38 L28.41406,38 L29.70706,36.707 C30.0933426,36.3158083 30.091348,35.686142 29.7025949,35.2974053 C29.3138417,34.9086686 28.6841753,34.9067008 28.293,35.293 L25.293,38.293 C25.2097594,38.3792268 25.1429128,38.4798881 25.09573,38.59006 C25.0823031,38.622061 25.0706488,38.6547772 25.06082,38.68806 C25.0339697,38.7684287 25.0177192,38.8519569 25.01248,38.93653 C25.0090058,38.970027 25.0072934,39.0036834 25.00735,39.03736 C25.0103697,39.1451882 25.0310717,39.2517892 25.06863,39.35291 C25.07205,39.36164 25.07181,39.3708 25.07535,39.3794 L25.0762,39.38288 C25.1234136,39.4918597 25.190005,39.5913707 25.27274,39.67658 C25.28128,39.68586 25.28397,39.69807 25.293,39.7071 L28.293,42.7071 C28.5453197,42.9611047 28.9141915,43.0608167 29.2601198,42.9685279 C29.6060482,42.8762391 29.876232,42.6060362 29.9684963,42.2601014 C30.0607606,41.9141665 29.9610226,41.5453017 29.707,41.293 L28.41406,40 L29.64258,40 C33.1407326,40.0072106 36.5046538,38.6540773 39.02344,36.22656 C41.5613195,33.8262789 42.9994735,30.4873021 43,26.99414 C42.9871467,19.822623 37.176398,14.0123124 30.00488,14 L30,14 C26.5088549,14.0020418 23.1722662,15.44008 20.77344,17.97656 C18.3451948,20.4958624 16.9919916,23.8608323 17,27.35986 C16.9991515,28.2651413 16.265631,28.998881 15.36035,29 L14.76953,29 C13.237933,29.0006336 11.7697608,28.3883956 10.69238,27.2998 C9.16228633,25.7669557 8.60915046,23.5116548 9.25638048,21.4447993 C9.90361051,19.3779438 11.6442941,17.8409462 13.77538,17.45459 C14.0571006,17.404492 14.3038238,17.2360155 14.453027,16.9918543 C14.6022303,16.7476931 14.6395941,16.4512802 14.55565,16.17773 C14.47753,15.92285 14.41015,15.66406 14.35058,15.40381 C14.29198,15.1416 14.24218,14.87549 14.20214,14.60254 C14.16114,14.33203 14.13085,14.05713 14.11034,13.78027 C14.0898333,13.5029367 14.0797433,13.2228267 14.08007,12.93994 C14.0713198,10.0412361 15.2127321,7.25742179 17.2539,5.19922 C18.2387809,4.20204159 19.4087439,3.40658373 20.69823,2.85742 C22.9404145,1.91288398 25.4342624,1.74614751 27.78223,2.38379 C28.6807904,2.63203575 29.5429466,2.99695902 30.34668,3.46924 C31.142134,3.93629779 31.8749084,4.50269869 32.52734,5.15479 C33.1838678,5.81005778 33.7560039,6.54474133 34.23047,7.34179 C34.4897285,7.77627717 35.0324711,7.94894713 35.49512,7.74413 C36.1876322,7.43755313 36.9236649,7.24069433 37.67676,7.16063 C39.7891312,6.95101163 41.8914319,7.64606454 43.4625658,9.07350629 C45.0336998,10.500948 45.9265914,12.5271542 45.91992,14.64989 C45.91992,14.79198 45.91602,14.93261 45.90723,15.07226 C45.8984433,15.21288 45.8857467,15.35188 45.86914,15.48926 C45.85352,15.62598 45.83301,15.76074 45.80762,15.8999 C45.78516,16.03125 45.75781,16.16064 45.72754,16.28809 C45.6652545,16.5478582 45.7096317,16.8217518 45.8507545,17.048563 C45.9918773,17.2753742 46.2179819,17.4361964 46.47854,17.49509 C47.1146397,17.639796 47.7215651,17.8914158 48.27346,18.23923 C50.6895749,19.7657172 51.6498561,22.8139761 50.54494,25.44968 C49.9621091,26.8410018 48.8605629,27.9508007 47.47363,28.544 C46.9653016,28.7602775 46.7285476,29.3476866 46.944825,29.856015 C47.1611025,30.3643434 47.7485116,30.6010975 48.25684,30.38482 C49.1814461,29.9915868 50.0206302,29.4220679 50.72754,28.70806 C50.8212933,28.61382 50.9121133,28.5176267 51,28.41948 L51,45 L9,45 L9,42 C9,41.4477153 8.55228475,41 8,41 C7.44771525,41 7,41.4477153 7,42 L7,45.65741 L0.21094,54.38623 C0.168114158,54.4449412 0.131844754,54.5081645 0.10278,54.57477 C0.09521,54.59094 0.0835,54.60388 0.07666,54.62048 C0.0336449896,54.7294449 0.0102542657,54.8451628 0.00757,54.96228 C0.00708,54.97552 0,54.98663 0,55 L0,57 C0.00180771165,58.6561049 1.34389511,59.9981923 3,60 L57,60 C58.6561049,59.9981923 59.9981923,58.6561049 60,57 L60,55 C60,54.98663 59.99292,54.97552 59.99243,54.96228 C59.989774,54.8452442 59.9664659,54.7295976 59.92358,54.62067 Z M8.48926,47 L51.51074,47 L56.95508,54 L3.04492,54 L8.48926,47 Z M58,57 C57.9994488,57.5520563 57.5520563,57.9994488 57,58 L3,58 C2.44794374,57.9994488 2.00055123,57.5520563 2,57 L2,56 L58,56 L58,57 Z" id="Shape" fill="#428DFF"/><path d="M46,50 L14,50 C13.4477153,50 13,50.4477153 13,51 C13,51.5522847 13.4477153,52 14,52 L46,52 C46.5522847,52 47,51.5522847 47,51 C47,50.4477153 46.5522847,50 46,50 Z" id="Shape" fill="#428DFF"/><path d="M10,50 L9,50 C8.44771525,50 8,50.4477153 8,51 C8,51.5522847 8.44771525,52 9,52 L10,52 C10.5522847,52 11,51.5522847 11,51 C11,50.4477153 10.5522847,50 10,50 Z" id="Shape" fill="#428DFF"/><path d="M51,50 L50,50 C49.4477153,50 49,50.4477153 49,51 C49,51.5522847 49.4477153,52 50,52 L51,52 C51.5522847,52 52,51.5522847 52,51 C52,50.4477153 51.5522847,50 51,50 Z" id="Shape" fill="#428DFF"/></g></g></g></svg>
