<?xml version="1.0" encoding="UTF-8"?>
<svg xmlns="http://www.w3.org/2000/svg" xmlns:xlink="http://www.w3.org/1999/xlink" width="512" height="512" viewBox="0 0 60 60" version="1.1"><!-- Generator: Sketch 49.3 (51167) - http://www.bohemiancoding.com/sketch --><title>039 - Restore machine</title><desc>Created with Sketch.</desc><defs><linearGradient x1="5.82755556%" y1="5.80372765%" x2="94.1724444%" y2="101.713402%" id="linearGradient-1"><stop stop-color="#D4E1F4" offset="0%"/><stop stop-color="#D4E1F4" offset="17.173%"/><stop stop-color="#D4E1F4" offset="20%"/><stop stop-color="#DAE4F4" offset="20.014%"/><stop stop-color="#EBEBF4" offset="20.069%"/><stop stop-color="#F6F1F4" offset="20.136%"/><stop stop-color="#FDF4F4" offset="20.231%"/><stop stop-color="#FFF5F4" offset="20.495%"/><stop stop-color="#FFF5F4" offset="25.222%"/><stop stop-color="#FFF5F4" offset="26%"/><stop stop-color="#D4E1F4" offset="26%"/><stop stop-color="#D4E1F4" offset="39.739%"/><stop stop-color="#D4E1F4" offset="42%"/><stop stop-color="#DAE4F4" offset="42.014%"/><stop stop-color="#EBEBF4" offset="42.069%"/><stop stop-color="#F6F1F4" offset="42.136%"/><stop stop-color="#FDF4F4" offset="42.231%"/><stop stop-color="#FFF5F4" offset="42.495%"/><stop stop-color="#FFF5F4" offset="48.939%"/><stop stop-color="#FFF5F4" offset="50%"/><stop stop-color="#F9F2F4" offset="50.003%"/><stop stop-color="#E8EBF4" offset="50.014%"/><stop stop-color="#DDE5F4" offset="50.028%"/><stop stop-color="#D6E2F4" offset="50.047%"/><stop stop-color="#D4E1F4" offset="50.1%"/><stop stop-color="#D4E1F4" offset="70.622%"/><stop stop-color="#D4E1F4" offset="74%"/><stop stop-color="#FFF5F4" offset="74.1%"/><stop stop-color="#FFF5F4" offset="83.459%"/><stop stop-color="#FFF5F4" offset="85%"/><stop stop-color="#D4E1F4" offset="85.1%"/></linearGradient></defs><g id="Page-1" stroke="none" stroke-width="1" fill="none" fill-rule="evenodd"><g id="039---Restore-machine" fill-rule="nonzero"><g id="Colours" transform="translate(1.000000, 1.000000)"><path d="M58,7.83 L58,46.17 C57.9504641,48.3310538 56.1611674,50.0443054 54,50 L37,50 L37,54 L42,54 C42.795975,53.9989366 43.5596548,54.3146656 44.1224946,54.8775054 C44.6853344,55.4403452 45.0010634,56.204025 45,57 L45,58 L13,58 L13,57 C12.9989366,56.204025 13.3146656,55.4403452 13.8775054,54.8775054 C14.4403452,54.3146656 15.204025,53.9989366 16,54 L21,54 L21,50 L4,50 C1.83883261,50.0443054 0.0495358827,48.3310538 -5.55111512e-16,46.17 L-5.55111512e-16,7.83 C0.0495086495,5.66893417 1.8388218,3.95566683 4,4 L10,4 L10.66992,4.08 C11.410129,2.20757277 12.9881795,0.792531945 14.92992,0.26005 C14.98998,0.24005 15.05004,0.23005 15.10998,0.21 C16.4988843,-0.103855661 17.9451288,-0.0556483135 19.31005,0.35 C19.43993,0.38 21.08005,1.02 21.15005,1.02 C20.2918078,1.77953447 19.7672574,2.84654082 19.68997,3.99 L20,4 L54,4 C56.1611782,3.95566683 57.9504914,5.66893417 58,7.83 Z" id="Shape" fill="#A4C2F7"/><path d="M21,50 L4,50 C1.83883261,50.0443054 0.0495358827,48.3310538 -5.55111512e-16,46.17 L-5.55111512e-16,7.83 C0.0495086495,5.66893417 1.8388218,3.95566683 4,4 L6,4 L6.66992,4.08 C6.67708928,4.05065688 6.69078977,4.0233106 6.71,4 L10,4 L10.66992,4.08 C11.410129,2.20757277 12.9881795,0.792531945 14.92992,0.26005 C15.06005,0.29005 15.17992,0.32005 15.31005,0.35005 C15.43993,0.38005 17.08005,1.02005 17.15005,1.02005 C16.2918078,1.77958447 15.7672574,2.84659082 15.68997,3.99005 L16,4 L50,4 C52.1611782,3.95566683 53.9504914,5.66893417 54,7.83 L54,46.17 C53.9504641,48.3310538 52.1611674,50.0443054 50,50 L21,50 Z" id="Shape" fill="url(#linearGradient-1)"/><path d="M58,42 L58,46.17 C57.9504641,48.3310538 56.1611674,50.0443054 54,50 L4,50 C1.83883261,50.0443054 0.0495358827,48.3310538 -5.55111512e-16,46.17 L-5.55111512e-16,42 L58,42 Z" id="Shape" fill="#A4C2F7"/><path d="M54,42 L54,46.17 C53.9504641,48.3310538 52.1611674,50.0443054 50,50 L4,50 C1.83883261,50.0443054 0.0495358827,48.3310538 -5.55111512e-16,46.17 L-5.55111512e-16,42 L54,42 Z" id="Shape" fill="#E3E7F2"/><rect id="Rectangle-path" fill="#E3E7F2" x="21" y="50" width="16" height="4"/><path d="M44.9999946,56.999998 L44.9999973,57.9999973 L12.9999973,57.9999973 L13,56.999998 C12.9989366,56.2040235 13.3146655,55.4403443 13.8775053,54.8775048 C14.440345,54.3146654 15.2040246,53.9989366 15.9999995,54 L41.9999951,54 C42.79597,53.9989366 43.5596497,54.3146654 44.1224894,54.8775048 C44.6853291,55.4403443 45.0010581,56.2040235 44.9999946,56.999998 Z" id="Shape" fill="#A4C2F7"/><path d="M42,57 L42,58 L13,58 L13,57 C12.924115,55.4214481 14.1403697,54.0793739 15.71875,54 L39.28125,54 C40.8596303,54.0793739 42.075885,55.4214481 42,57 Z" id="Shape" fill="#E3E7F2"/><path d="M21.22,36.2 L21.21,36.21 L21.2,36.21 C19.7683947,36.7354263 18.2549781,37.0028982 16.73,37 C16.2352925,37.0002219 15.7410352,36.9701657 15.25,36.91 L15.25,36.88 C12.43994,35.56 9.44995,33.2 9.41992,30.08 C9.44205267,28.488268 10.1490292,26.9832717 11.36,25.95 C12.27,25.15 13.37,24.58 14.27,23.77 C15.1534665,23.0508428 15.7869991,22.0708248 16.08006,20.97 C16.2598423,19.6983705 16.3100664,18.4117746 16.22996,17.13 C16.22996,17.22 16.65989,17.43 16.72996,17.48 C18.2548214,18.559887 19.3380204,20.154498 19.77996,21.97 C19.8639328,22.3044781 19.9174546,22.6458712 19.93987,22.99 L19.93987,23.02 C20.07,24.78 19.17987,26.35 18.23987,27.85 C18.5105028,28.0321751 18.8027467,28.1799766 19.10987,28.29 C19.4358781,28.3804097 19.7716834,28.4307805 20.10987,28.44 C20.7781847,28.4490147 21.4359012,28.2724698 22.00987,27.93 C22.3110336,27.7454526 22.5672519,27.4960668 22.75987,27.2 C22.9228551,26.8792128 23.0470629,26.5401593 23.12987,26.19 C23.12987,26.22 23.49987,26.64 23.52987,26.69 C23.6840104,26.9369585 23.8209707,27.1942331 23.93978,27.46 C24.1554062,27.9284997 24.3229311,28.4176725 24.43978,28.92 C25.17993,31.9 23.65991,34.44 21.22,36.2 Z" id="Shape" fill="#A4C2F7"/><path d="M20.85,28.37 C20.6062982,28.4180441 20.3583879,28.4414951 20.11,28.44 C19.96,28.44 19.82008,28.42 19.66993,28.41 L19.76002,28.29 C19.9230131,27.9692163 20.0472211,27.6301618 20.13002,27.28 C20.13002,27.31 20.50002,27.73 20.53002,27.78 C20.6502488,27.9689991 20.7571675,28.1661428 20.85,28.37 Z" id="Shape" fill="#A4C2F7"/><path d="M28.97,24.01 C28.9009382,21.3617102 28.2524309,18.7607177 27.0701,16.39 C25.6926792,14.073543 24.0370118,11.9343163 22.14,10.02 C20.5676678,8.40676727 19.6883862,6.24271966 19.68993,3.99 C19.7672149,2.8465423 20.2917615,1.77953617 21.15,1.02 C21.08006,1.02 19.43992,0.38 19.31,0.35 C17.9451007,-0.0556361541 16.4988819,-0.103843448 15.11,0.21 C14.3685102,0.393575962 13.6646595,0.704894554 13.03,1.13 C11.9701516,1.85967156 11.1491694,2.88585156 10.66989,4.08 C9.92587809,6.07382433 9.80732944,8.24707674 10.33005,10.31 C9.2770768,10.0482616 8.1827456,9.99728422 7.11,10.16 C6.25633974,10.3010712 5.44981522,10.6477052 4.76,11.17 C4.55485932,11.3185987 4.36401107,11.4859889 4.18993,11.67 C4.02235342,11.8473024 3.96112119,12.1000484 4.0289704,12.3343869 C4.09681961,12.5687254 4.28361706,12.7496581 4.52,12.81 C5.05579848,12.9502888 5.58329566,13.1205568 6.1,13.32 C7.46,13.95 8.6,15.23 8.37,16.7 C8.14451408,17.5328615 7.67840404,18.2807247 7.03,18.85 C6.37652135,19.581599 5.83709107,20.40755 5.4299,21.3 C3.76229159,24.7998187 4.18260947,28.9370638 6.52,32.03 C8.62169311,34.8034276 11.7865964,36.5725832 15.25,36.91 L15.25,36.88 C12.43994,35.56 9.44995,33.2 9.41992,30.08 C9.44205267,28.488268 10.1490292,26.9832717 11.36,25.95 C12.27,25.15 13.37,24.58 14.27,23.77 C15.100652,23.08793 15.7126518,22.1768847 16.03,21.15 C16.0512894,21.0913811 16.0680061,21.031201 16.08,20.97 C16.2597823,19.6983705 16.3100064,18.4117746 16.2299,17.13 C16.2299,17.22 16.65983,17.43 16.7299,17.48 C18.2547614,18.559887 19.3379604,20.154498 19.7799,21.97 C19.8638728,22.3044781 19.9173946,22.6458712 19.93981,22.99 L19.93981,23.02 C20.06994,24.78 19.17981,26.35 18.23981,27.85 C18.5104428,28.0321751 18.8026867,28.1799766 19.10981,28.29 C19.2940349,28.3405521 19.4809784,28.3806164 19.66974,28.41 L19.75983,28.29 C19.9228231,27.9692163 20.0470311,27.6301618 20.12983,27.28 C20.12983,27.31 20.49983,27.73 20.52983,27.78 C20.6500485,27.969 20.7569572,28.1661437 20.84978,28.37 C21.2601493,28.2956807 21.6533542,28.146534 22.00978,27.93 C22.3109436,27.7454526 22.5671619,27.4960668 22.75978,27.2 C22.9227651,26.8792128 23.0469729,26.5401593 23.12978,26.19 C23.12978,26.22 23.49978,26.64 23.52978,26.69 C23.6839204,26.9369585 23.8208807,27.1942331 23.93969,27.46 C24.1553162,27.9284997 24.3228411,28.4176725 24.43969,28.92 C24.7771805,30.2304967 24.6572341,31.6169363 24.09969,32.85 C23.4486796,34.1989898 22.455741,35.3539705 21.21969,36.2 C22.9484898,35.6008515 24.518188,34.6159621 25.80978,33.32 C27.7806931,31.329614 28.9150336,28.6603418 28.98,25.86 C29.0116777,25.243641 29.008339,24.6259806 28.97,24.01 Z" id="Shape" fill="#A4C2F7"/><path d="M25.98,26.95 C25.9157861,29.0535017 25.2645965,31.0971287 24.1,32.85 C24.6575441,31.6169363 24.7774905,30.2304967 24.44,28.92 C24.3231511,28.4176725 24.1556262,27.9284997 23.94,27.46 C23.8211907,27.1942331 23.6842304,26.9369585 23.53009,26.69 C23.50009,26.64 23.13009,26.22 23.13009,26.19 C23.0472829,26.5401593 22.9230751,26.8792128 22.76009,27.2 C22.5674719,27.4960668 22.3112536,27.7454526 22.01009,27.93 C21.6536642,28.146534 21.2604593,28.2956807 20.85009,28.37 C20.7572672,28.1661437 20.6503585,27.969 20.53014,27.78 C20.50014,27.73 20.13014,27.31 20.13014,27.28 C20.0473411,27.6301618 19.9231331,27.9692163 19.76014,28.29 L19.67005,28.41 C19.4812884,28.3806164 19.2943449,28.3405521 19.11012,28.29 C18.8029967,28.1799766 18.5107528,28.0321751 18.24012,27.85 C19.18006,26.35 20.0702,24.78 19.94012,23.02 L19.94012,22.99 C19.9176357,22.6458648 19.8640437,22.3044716 19.78,21.97 C19.3380604,20.154498 18.2548614,18.559887 16.73,17.48 C16.65993,17.43 16.23,17.22 16.23,17.13 C16.3101064,18.4117746 16.2598823,19.6983705 16.0801,20.97 C16.0681061,21.031201 16.0513894,21.0913811 16.0301,21.15 C15.7127518,22.1768847 15.100752,23.08793 14.2701,23.77 C13.3701,24.58 12.2701,25.15 11.3601,25.95 C10.1491329,26.9832736 9.44216017,28.4882695 9.42003,30.08 C9.45003,33.2 12.44003,35.56 15.25011,36.88 L15.25011,36.91 C11.7867064,36.5725832 8.62180311,34.8034276 6.52011,32.03 C4.18269319,28.9370794 3.76234436,24.7998333 5.42993,21.3 C5.83711186,20.4075519 6.37653195,19.5816011 7.03,18.85 C7.67840404,18.2807247 8.14451408,17.5328615 8.37,16.7 C8.6,15.23 7.46,13.95 6.1,13.32 C5.58329566,13.1205568 5.05579848,12.9502888 4.52,12.81 C4.28361538,12.7496607 4.09681528,12.5687291 4.02896389,12.3343902 C3.96111251,12.1000513 4.02234348,11.8473038 4.18992,11.67 C4.36400107,11.4859889 4.55484932,11.3185987 4.75999,11.17 C5.44980522,10.6477052 6.25632974,10.3010712 7.10999,10.16 C8.18274867,9.99727889 9.27709399,10.0482563 10.33008,10.31 C9.80735944,8.24707674 9.92590809,6.07382433 10.66992,4.08 C11.1491913,2.88585549 11.9701627,1.85967594 13.03,1.13 C14.1330883,1.03283485 15.244648,1.1378908 16.31,1.44 C16.43988,1.47 18.08,2.11 18.15,2.11 C17.2917465,2.8695258 16.7671936,3.93653711 16.68992,5.08 C16.6884076,7.33271548 17.5676886,9.49675286 19.14,11.11 C21.0370028,13.0243142 22.6926572,15.1635414 24.07006,17.48 C25.252398,19.850717 25.9009186,22.4517081 25.97,25.1 C26.0083372,25.7159806 26.0116759,26.3336409 25.98,26.95 Z" id="Shape" fill="#E3E7F2"/><path d="M47,16 C46.9967543,17.1032223 46.1032223,17.9967543 45,18 L40,18 C39.4483786,18.0015983 39.0015983,18.4483786 39,19 L39,21 L42,21 L37,28 L32,21 L35,21 L35,19 C35.0009989,16.2389901 37.2389901,14.0009989 40,14 L45,14 C46.1032314,14.0032238 46.9967762,14.8967686 47,16 Z" id="Shape" fill="#E3E7F2"/><path d="M54,28 L51,28 L51,30 C50.9990011,32.7610099 48.7610099,34.9990011 46,35 L41,35 C39.8954305,35 39,34.1045695 39,33 C39,31.8954305 39.8954305,31 41,31 L46,31 C46.5516214,30.9984017 46.9984017,30.5516214 47,30 L47,28 L44,28 L49,21 L54,28 Z" id="Shape" fill="#E3E7F2"/></g><g id="White" transform="translate(1.000000, 4.000000)" fill="#FFFFFF"><path d="M3,43.17 C3.04953588,45.3310538 4.83883261,47.0443054 7,47 L4,47 C1.83883261,47.0443054 0.0495358827,45.3310538 -5.55111512e-16,43.17 L-5.55111512e-16,4.83 C0.0495086495,2.66893417 1.8388218,0.955666825 4,1 L7,1 C4.8388218,0.955666825 3.04950865,2.66893417 3,4.83 L3,43.17 Z" id="Shape"/><path d="M18.7,51 C17.1292437,51.0896442 15.9242629,52.4285118 16,54 L16,55 L13,55 L13,54 C12.9628012,53.2414635 13.2284887,52.4992232 13.7386015,51.9365987 C14.2487144,51.3739743 14.9614569,51.0370639 15.72,51 L18.7,51 Z" id="Shape"/><rect id="Rectangle-path" x="21" y="47" width="3" height="4"/><path d="M10,1 L10.71,1 C10.692732,1.02451091 10.679248,1.05147908 10.67,1.08 L10,1 Z" id="Shape"/></g><g id="Icons"><polygon id="Shape" fill="#FFFFFF" points="2 8.83 2 21.83 2 43.33 0 43.33 0 21.83 0 8.83"/><path d="M1,17.83 C1.26470163,17.825996 1.51818849,17.7224591 1.71,17.54 C2.09672008,17.1456867 2.09672008,16.5143933 1.71,16.12008 L1.5601,15.99996 C1.50432178,15.9619755 1.44372787,15.9315979 1.37992,15.90963 C1.32318071,15.8808275 1.26243074,15.8607258 1.19971,15.85 C1.13368033,15.8387398 1.0669513,15.8320572 1,15.83 C0.735233018,15.8336835 0.481633787,15.9372663 0.29,16.12 C-0.0875531162,16.5180448 -0.0875531162,17.1419552 0.29,17.54 C0.385532731,17.6302924 0.497389252,17.7015624 0.61959,17.75 C0.739940532,17.8012904 0.869184792,17.8284704 1,17.83 Z" id="Shape" fill="#428DFF"/><path d="M55,4 L21.95239,4 C22.1473629,3.52984101 22.4437208,3.1085198 22.82031,2.76611 L22.83008,2.75684 C23.1052529,2.503859 23.2163633,2.11853152 23.1181337,1.75787871 C23.0199041,1.39722591 22.7287358,1.1214655 22.36328,1.04297 C22.18945,0.98633 21.75,0.81885 21.36528,0.67334 C20.97075,0.52441 20.6231,0.39746 20.56353,0.38134 C19.031873,-0.0735358521 17.4079976,-0.120659706 15.85254,0.24463 C13.7823205,0.740891886 12.0325665,2.11749605 11.063,4.01276 C11.041,4.01129 11.02246,4 11,4 L5,4 C2.28711005,3.95708495 0.0509159853,6.11724841 5.46562795e-16,8.83 L0,12.83 C6.76353751e-17,13.3822847 0.44771525,13.83 1,13.83 C1.55228475,13.83 2,13.3822847 2,12.83 L2,8.83008 C2.05003118,7.22154497 3.39128152,5.95626304 5,6 L10.3269,6 C10.0081486,7.34470546 9.93249724,8.73558524 10.10352,10.10693 C8.03863354,9.81241144 5.95515865,10.5034688 4.47559,11.97363 C4.05818688,12.4047539 3.90150939,13.0253036 4.06422947,13.6028981 C4.22694955,14.1804926 4.68451935,14.6279964 5.26559,14.77783 C5.89742,14.94383 6.59176,15.18994 6.68159,15.22705 C7.64059,15.67334 8.53901,16.56105 8.38374,17.53805 C8.18945817,18.1416968 7.83628547,18.6819254 7.36128,19.10205 L7.29,19.18066 C6.57031176,19.9835412 5.97693535,20.8912223 5.53023,21.87256 C4.80557841,23.398908 4.42772922,25.066722 4.42379,26.75635 C4.42383,33.50732 10.39063,39 17.72559,39 C19.3072964,38.9952741 20.8772076,38.7275629 22.37109,38.20782 C22.4169565,38.1953881 22.4618718,38.1796811 22.50549,38.16082 C24.3908252,37.5039473 26.1053394,36.4336431 27.52344,35.02831 C29.6621643,32.8570848 30.8967253,29.9547995 30.97754,26.90819 C31.0098219,26.2550127 31.0065604,25.6005631 30.96777,24.94774 C30.8969487,22.155947 30.2071756,19.4147008 28.94824,16.92187 C27.5367726,14.5270143 25.8333203,12.3167392 23.877,10.3418 C22.7506273,9.1349536 21.9999368,7.62631044 21.71655,6 L55,6 C56.6087185,5.95626304 57.9499688,7.22154497 58,8.83008 L58,42 L2,42 L2,20.83 C2,20.2777153 1.55228475,19.83 1,19.83 C0.44771525,19.83 6.76353751e-17,20.2777153 0,20.83 L0,43.33 L0,47.1699 C0.0508997673,49.8826743 2.28708703,52.0428759 5,52 L21,52 L21,54 L17,54 C14.7918366,54.0023534 13.0023534,55.7918366 13,58 L13,59 C12.999931,59.2652376 13.1052657,59.5196316 13.292817,59.707183 C13.4803684,59.8947343 13.7347624,60.000069 14,60 L46,60 C46.2652376,60.000069 46.5196316,59.8947343 46.707183,59.707183 C46.8947343,59.5196316 47.000069,59.2652376 47,59 L47,58 C46.9976466,55.7918366 45.2081634,54.0023534 43,54 L39,54 L39,52 L55,52 C57.7129053,52.042876 59.9490894,49.8826864 60,47.16992 L60,8.83008 C59.9490894,6.11731358 57.7129053,3.95712401 55,4 Z M16.625,36.94946 C15.34961,36.34146 11.45374,34.22571 11.42383,31.07178 C11.4495283,29.7700725 12.0323245,28.5419105 13.02441,27.69878 C13.4507207,27.3396958 13.8984883,27.0068874 14.36523,26.7022 C14.9143852,26.3433495 15.4395866,25.9491152 15.9375,25.522 C16.9804271,24.6637332 17.7213148,23.4942277 18.05176,22.1846 C18.1847589,21.5536282 18.2515274,20.9104963 18.25098,20.26566 C19.0040132,21.1007366 19.5393652,22.1087167 19.80957,23.20023 C19.8798374,23.4924521 19.9255698,23.7900335 19.94629,24.08987 C19.8829038,25.6238868 19.3413501,27.0996725 18.39746,28.31058 C18.2300631,28.5772205 18.1947641,28.9060875 18.30176,29.20218 C18.49707,29.73294 19.23145,30.0596 19.81543,30.24075 C21.0657703,30.6147612 22.4156211,30.4477563 23.53711,29.7803 C23.7767679,29.6324441 23.997195,29.455481 24.19336,29.25345 C24.3037211,29.5488385 24.3960148,29.8506657 24.46973,30.15726 C25.21216,33.17209 23.14844,35.27243 21.74512,36.31155 C20.4530478,36.763596 19.0944517,36.9962912 17.72559,37 C17.354,37 16.98743,36.98138 16.625,36.94946 Z M27.18457,17.86328 C28.3036058,20.1023202 28.9138673,22.5610412 28.97168,25.06348 C29.0059221,25.6426562 29.0085293,26.2232696 28.97949,26.80273 L28.97949,26.80373 C28.929179,29.251648 27.980274,31.5955537 26.31349,33.38906 C26.6815643,32.1843389 26.7156534,30.9022889 26.41212,29.67971 C26.2793982,29.1146451 26.0906369,28.5642297 25.84864,28.03664 C25.7099523,27.7265545 25.5483725,27.427224 25.36524,27.14113 C25.34571,27.11037 25.25294,26.9927 25.14259,26.86232 C25.08399,26.7925 25.01859,26.71532 24.97559,26.66262 C24.7732435,26.3385818 24.4039432,26.1581616 24.0239684,26.1977088 C23.6439935,26.2372561 23.3197616,26.4898583 23.18848,26.84862 C23.13672,26.99071 23.09668,27.13134 23.05762,27.27099 C23.0284227,27.4070357 22.9807825,27.5384567 22.91602,27.66161 C22.8063531,27.8304013 22.6601757,27.972406 22.48828,28.07714 C21.9406978,28.3901229 21.3014558,28.5033358 20.67969,28.39745 C21.5437534,27.0660938 21.9827515,25.5035544 21.93848,23.917 C21.9097286,23.5175676 21.8479949,23.1211969 21.75391,22.73194 C21.2580333,20.6745203 20.0271524,18.8693391 18.293,17.65625 C18.26566,17.63725 18.20511,17.59961 18.126,17.55469 C18.08791,17.53369 18.04006,17.50732 17.99611,17.48047 C17.8107008,17.262656 17.5408829,17.1346799 17.2549,17.12891 C16.7104315,17.1357144 16.264345,17.563223 16.2344,18.10691 L16.2344,18.11277 C16.22756,18.49363 16.2344,18.874 16.24221,19.25389 C16.2941875,20.0879433 16.2466528,20.9252189 16.10061,21.74803 C15.8570491,22.6463569 15.3349709,23.4443449 14.6094,24.02732 C14.1742044,24.3973661 13.7159198,24.7393661 13.23732,25.05125 C12.7002606,25.4024161 12.1859044,25.7871344 11.69732,26.20311 C10.2733417,27.4294465 9.44523567,29.2087321 9.42388,31.08787 C9.45148071,32.4052893 9.88555237,33.6819866 10.66668,34.74321 C8.04834618,32.9198659 6.46891796,29.9466634 6.42388,26.75633 C6.42713385,25.3638681 6.73897175,23.9894357 7.33696,22.73191 C7.69857314,21.9267863 8.18211597,21.1822059 8.77056,20.52439 L8.84087,20.44725 C9.59677267,19.755336 10.1257685,18.8510062 10.3584,17.853 C10.63965,16.08737 9.52734,14.3447 7.52734,13.41452 C7.38574,13.34811 6.86914,13.16452 6.31834,12.99802 C7.20994,12.2988 8.69822,11.74265 11.11134,12.28854 C11.4479493,12.3650527 11.8002095,12.2623921 12.0430104,12.0170194 C12.2858114,11.7716468 12.384755,11.4183245 12.3047,11.08254 C11.46192,7.52834 12.3711,3.22609 16.36036,2.17922 C17.5689052,1.90555891 18.8276397,1.94861553 20.01466,2.30422 C20.08009,2.3257 20.26075,2.39406 20.48146,2.47707 C18.75782,5.26272 19.98731,9.04397 22.40626,11.69777 C24.2439763,13.5508499 25.8486139,15.6213327 27.18457,17.86328 Z M45,58 L15,58 C15.001262,56.8959536 15.8959536,56.001262 17,56 L43,56 C44.1040464,56.001262 44.998738,56.8959536 45,58 Z M37,54 L23,54 L23,52 L37,52 L37,54 Z M55,50 L5,50 C3.39128152,50.043737 2.05003118,48.778455 2,47.16992 L2,44 L58,44 L58,47.16992 C57.9499688,48.778455 56.6087185,50.043737 55,50 Z" id="Shape" fill="#428DFF"/><path d="M46,14 L41,14 C37.6877925,14.0036209 35.0036209,16.6877925 35,20 L35,21 L33,21 C32.6253194,20.9996861 32.2819405,21.2089785 32.1105195,21.5421459 C31.9390986,21.8753134 31.9684382,22.2763764 32.18652,22.58105 L37.18652,29.58105 C37.3740532,29.8439571 37.6770822,30.0000257 38.00002,30.0000257 C38.3229578,30.0000257 38.6259868,29.8439571 38.81352,29.58105 L43.81352,22.58105 C44.031606,22.2763706 44.0609422,21.8752985 43.8895113,21.5421281 C43.7180805,21.2089577 43.3746878,20.9996711 43,21 L41,21 L41,20 L46,20 C47.6568542,20 49,18.6568542 49,17 C49,15.3431458 47.6568542,14 46,14 Z M46,18 L41,18 C39.8959536,18.001262 39.001262,18.8959536 39,20 L39,22 C38.999931,22.2652376 39.1052657,22.5196316 39.292817,22.707183 C39.4803684,22.8947343 39.7347624,23.000069 40,23 L41.05664,23 L38,27.2793 L34.94336,23 L36,23 C36.2652376,23.000069 36.5196316,22.8947343 36.707183,22.707183 C36.8947343,22.5196316 37.000069,22.2652376 37,22 L37,20 C37.0023534,17.7918366 38.7918366,16.0023534 41,16 L46,16 C46.5522847,16 47,16.4477153 47,17 C47,17.5522847 46.5522847,18 46,18 Z" id="Shape" fill="#428DFF"/><path d="M42,31 C40.3431458,31 39,32.3431458 39,34 C39,35.6568542 40.3431458,37 42,37 L47,37 C50.3122075,36.9963791 52.9963791,34.3122075 53,31 L53,30 L55,30 C55.3746806,30.0003139 55.7180595,29.7910215 55.8894805,29.4578541 C56.0609014,29.1246866 56.0315618,28.7236236 55.81348,28.41895 L50.81348,21.41895 C50.6171315,21.1696523 50.3173158,21.0241479 49.99998,21.0241479 C49.6826442,21.0241479 49.3828285,21.1696523 49.18648,21.41895 L44.18648,28.41895 C43.968394,28.7236294 43.9390578,29.1247015 44.1104887,29.4578719 C44.2819195,29.7910423 44.6253122,30.0003289 45,30 L47,30 L47,31 L42,31 Z M48,28 L46.94336,28 L50,23.7207 L53.05664,28 L52,28 C51.7347624,27.999931 51.4803684,28.1052657 51.292817,28.292817 C51.1052657,28.4803684 50.999931,28.7347624 51,29 L51,31 C50.9976466,33.2081634 49.2081634,34.9976466 47,35 L42,35 C41.4477153,35 41,34.5522847 41,34 C41,33.4477153 41.4477153,33 42,33 L47,33 C48.1040464,32.998738 48.998738,32.1040464 49,31 L49,29 C49.000069,28.7347624 48.8947343,28.4803684 48.707183,28.292817 C48.5196316,28.1052657 48.2652376,27.999931 48,28 Z" id="Shape" fill="#428DFF"/></g></g></g></svg>
