<?xml version="1.0" encoding="UTF-8"?>
<svg xmlns="http://www.w3.org/2000/svg" xmlns:xlink="http://www.w3.org/1999/xlink" width="512" height="512" viewBox="0 0 60 60" version="1.1"><!-- Generator: Sketch 49.3 (51167) - http://www.bohemiancoding.com/sketch --><title>038 - Scheduled DB replication</title><desc>Created with Sketch.</desc><defs><linearGradient x1="12.0551786%" y1="16.7982813%" x2="87.9448214%" y2="83.2017187%" id="linearGradient-1"><stop stop-color="#D4E1F4" offset="0%"/><stop stop-color="#D4E1F4" offset="17.173%"/><stop stop-color="#D4E1F4" offset="20%"/><stop stop-color="#DAE4F4" offset="20.014%"/><stop stop-color="#EBEBF4" offset="20.069%"/><stop stop-color="#F6F1F4" offset="20.136%"/><stop stop-color="#FDF4F4" offset="20.231%"/><stop stop-color="#FFF5F4" offset="20.495%"/><stop stop-color="#FFF5F4" offset="25.222%"/><stop stop-color="#FFF5F4" offset="26%"/><stop stop-color="#D4E1F4" offset="26%"/><stop stop-color="#D4E1F4" offset="39.739%"/><stop stop-color="#D4E1F4" offset="42%"/><stop stop-color="#DAE4F4" offset="42.014%"/><stop stop-color="#EBEBF4" offset="42.069%"/><stop stop-color="#F6F1F4" offset="42.136%"/><stop stop-color="#FDF4F4" offset="42.231%"/><stop stop-color="#FFF5F4" offset="42.495%"/><stop stop-color="#FFF5F4" offset="48.939%"/><stop stop-color="#FFF5F4" offset="50%"/><stop stop-color="#F9F2F4" offset="50.003%"/><stop stop-color="#E8EBF4" offset="50.014%"/><stop stop-color="#DDE5F4" offset="50.028%"/><stop stop-color="#D6E2F4" offset="50.047%"/><stop stop-color="#D4E1F4" offset="50.1%"/><stop stop-color="#D4E1F4" offset="70.622%"/><stop stop-color="#D4E1F4" offset="74%"/><stop stop-color="#FFF5F4" offset="74.1%"/><stop stop-color="#FFF5F4" offset="83.459%"/><stop stop-color="#FFF5F4" offset="85%"/><stop stop-color="#D4E1F4" offset="85.1%"/></linearGradient></defs><g id="Page-1" stroke="none" stroke-width="1" fill="none" fill-rule="evenodd"><g id="038---Scheduled-DB-replication" fill-rule="nonzero"><g id="Colours" transform="translate(1.000000, 1.000000)"><path d="M58,38 C57.9862753,49.040005 49.040005,57.9862753 38,58 C37.348666,58.0021162 36.6977007,57.9687333 36.05,57.9 C35.1601711,57.8200575 34.2776573,57.6729718 33.41,57.46 L33.4,57.46 C32.51,57.56 31.59,57.65 30.64,57.72 C28.25,57.9 25.68,58 23,58 C22.33,58 21.67,57.99 21.02,57.98 C9.24,57.76 0,55.61 0,53 L0,5 C0,2.39 9.01,0.24 20.5,0.02 C21.16,0.01 21.82,0 22.5,0 C34.93,0 45,2.24 45,5 L45,19.26 C52.8208484,22.1799187 58.0041531,29.6518518 58,38 Z" id="Shape" fill="#A4C2F7"/><path d="M54,38 C54.0143919,43.3087287 51.911877,48.4041733 48.1580252,52.1580252 C44.4041733,55.911877 39.3087287,58.0143919 34,58 C32.8740233,58.0036807 31.7498368,57.9099985 30.64,57.72 C30.22,57.64 29.81,57.56 29.41,57.46 L29.4,57.46 C26.85,57.75 24.02,57.93 21.02,57.98 C9.24,57.76 0,55.61 0,53 L0,5 C0,2.39 9.01,0.24 20.5,0.02 C31.99,0.24 41,2.39 41,5 L41,19.26 C48.8208484,22.1799187 54.0041531,29.6518518 54,38 Z" id="Shape" fill="#E3E7F2"/><ellipse id="Oval" fill="#A4C2F7" cx="22.5" cy="5" rx="22.5" ry="5"/><ellipse id="Oval" fill="#E3E7F2" cx="20" cy="5" rx="20" ry="5"/><path d="M24.8,22.98 C23.4610218,24.1464048 22.2899122,25.4925078 21.32,26.98 C9.4,26.8 0,24.64 0,22 L0,18 C0,20.76 10.3,23 23,23 C23.61,23 24.21,23 24.8,22.98 Z" id="Shape" fill="#A4C2F7"/><path d="M18.89,43.91 C8.15,43.5 0,41.45 0,39 L0,35 C0,37.39 7.75,39.39 18.09,39.89 C18.216466,41.2541274 18.4845772,42.6013864 18.89,43.91 Z" id="Shape" fill="#A4C2F7"/><path d="M45,19.26 C38.0952803,16.6867388 30.3350577,18.1158491 24.8,22.98 C23.4610218,24.1464048 22.2899122,25.4925078 21.32,26.98 C19.1490014,30.244704 17.9937357,34.0793511 18,38 C18,38.64 18.03,39.27 18.09,39.89 C18.216466,41.2541274 18.4845772,42.6013864 18.89,43.91 C20.9860998,50.6773576 26.5052085,55.8313151 33.4,57.46 L33.41,57.46 C34.9128266,57.8233177 36.4538868,58.0046189 38,58 C47.6742728,57.9985854 55.9610609,51.0739297 57.6812662,41.553822 C59.4014716,32.0337143 54.0620302,22.6469108 45,19.26 Z" id="Shape" fill="#A4C2F7"/><path d="M42.975,19.26 C40.9172445,18.4293133 38.7190979,18.0015659 36.5,18 C31.9393268,18.0195155 27.5633835,19.8042982 24.29,22.98 C23.0399807,24.160642 21.9569825,25.5063993 21.071,26.98 C19.047573,30.2984974 17.9844825,34.1132995 18,38 C18,38.64 18.0277567,39.27 18.08327,39.89 C18.1996262,41.2507411 18.4474489,42.5970211 18.82327,43.91 C20.5742714,50.4892039 25.6827479,55.6465015 32.245,57.46 L32.25421,57.46 C33.6401781,57.8227887 35.0673435,58.0043025 36.5,58 C46.72124,58 55,49.05 55,38 C55,29.41 50.005,22.1 42.975,19.26 Z" id="Shape" fill="#E3E7F2"/><circle id="Oval" fill="#A4C2F7" cx="38" cy="38" r="16"/><ellipse id="Oval" fill="url(#linearGradient-1)" cx="36" cy="38" rx="14" ry="16"/></g><g id="White" transform="translate(1.000000, 1.000000)" fill="#FFFFFF"><path d="M24.02,57.98 L24.5,57.98 C24.01,58 23.51,58 23,58 C22.33,58 21.67,57.99 21.02,57.98 C9.24,57.76 0,55.61 0,53 L0,5 C0.00234823173,4.85644454 0.0294106811,4.71436668 0.08,4.58 C0.94,2.02 9.52,0 20,0 C20.33,0 20.66,0.01 20.99,0.01 L21.59,0.01 C11.76,0.18 3.9,2.14 3.08,4.58 C3.02941068,4.71436668 3.00234823,4.85644454 3,5 L3,53 C3,55.61 12.24,57.76 24.02,57.98 Z" id="Shape"/><path d="M22.55,0 C22.24,0 21.94,0.01 21.64,0.01 C21.92,0 22.21,0 22.5,0 L22.55,0 Z" id="Shape"/><path d="M33.64,57.72 C34.6444434,57.8914528 35.6610621,57.9817446 36.68,57.99 C36.620381,57.998318 36.5601735,58.0016628 36.5,58 C36.1,58 35.7,57.98 35.3,57.96 C34.87,57.98 34.44,58 34,58 C33.1876716,58.0004905 32.376101,57.9503936 31.57,57.85 C32.27,57.82 32.96,57.77 33.64,57.72 Z" id="Shape"/><path d="M38.66,57.98 C38.44,57.99 38.22,58 38,58 C37.88,58 37.77,58 37.65,57.99 C37.87,57.98 38.08,57.97 38.3,57.96 C38.42,57.97 38.54,57.97 38.66,57.98 Z" id="Shape"/><path d="M30.64,57.72 C30.95,57.77 31.26,57.82 31.57,57.85 C29.79,57.95 27.92,58 26,58 C25.49,58 24.99,57.99 24.5,57.98 C26.64,57.96 28.7,57.87 30.64,57.72 Z" id="Shape"/><path d="M37.65,57.99 C37.44,58 37.22,58 37,58 C36.9132132,58.0016667 36.8264024,57.9983278 36.74,57.99 C36.82,57.98 36.9,57.98 36.98,57.97 C37.2,57.98 37.43,57.99 37.65,57.99 Z" id="Shape"/></g><g id="Icons" fill="#428DFF"><path d="M4.99999997,12 C4.73476234,11.999931 4.48036835,12.1052657 4.29281702,12.292817 C4.10526569,12.4803684 3.99993101,12.7347624 4,13 L4,18 C4,18.5522847 4.44771524,19 4.99999997,19 C5.5522847,19 5.99999993,18.5522847 5.99999993,18 L5.99999993,13 C6.00006892,12.7347624 5.89473424,12.4803684 5.70718291,12.292817 C5.51963158,12.1052657 5.26523759,11.999931 4.99999997,12 Z" id="Shape"/><path d="M8.99999997,13 C8.73476234,12.999931 8.48036835,13.1052657 8.29281702,13.292817 C8.10526569,13.4803684 7.99993101,13.7347624 8,14 L8,19 C8,19.5522847 8.44771524,20 8.99999997,20 C9.5522847,20 9.99999993,19.5522847 9.99999993,19 L9.99999993,14 C10.0000689,13.7347624 9.89473424,13.4803684 9.70718291,13.292817 C9.51963158,13.1052657 9.26523759,12.999931 8.99999997,13 Z" id="Shape"/><path d="M4.99999997,29 C4.73476234,28.999931 4.48036835,29.1052657 4.29281702,29.292817 C4.10526569,29.4803684 3.99993101,29.7347624 4,30 L4,35 C4,35.5522847 4.44771524,36 4.99999997,36 C5.5522847,36 5.99999993,35.5522847 5.99999993,35 L5.99999993,30 C6.00006892,29.7347624 5.89473424,29.4803684 5.70718291,29.292817 C5.51963158,29.1052657 5.26523759,28.999931 4.99999997,29 Z" id="Shape"/><path d="M8.99999997,30 C8.73476234,29.999931 8.48036835,30.1052657 8.29281702,30.292817 C8.10526569,30.4803684 7.99993101,30.7347624 8,31 L8,36 C8,36.5522847 8.44771524,37 8.99999997,37 C9.5522847,37 9.99999993,36.5522847 9.99999993,36 L9.99999993,31 C10.0000689,30.7347624 9.89473424,30.4803684 9.70718291,30.292817 C9.51963158,30.1052657 9.26523759,29.999931 8.99999997,30 Z" id="Shape"/><path d="M4.99999997,46 C4.73476234,45.999931 4.48036835,46.1052657 4.29281702,46.292817 C4.10526569,46.4803684 3.99993101,46.7347624 4,47 L4,52 C4,52.5522847 4.44771524,53 4.99999997,53 C5.5522847,53 5.99999993,52.5522847 5.99999993,52 L5.99999993,47 C6.00006892,46.7347624 5.89473424,46.4803684 5.70718291,46.292817 C5.51963158,46.1052657 5.26523759,45.999931 4.99999997,46 Z" id="Shape"/><path d="M8.99999997,47 C8.73476234,46.999931 8.48036835,47.1052657 8.29281702,47.292817 C8.10526569,47.4803684 7.99993101,47.7347624 8,48 L8,53 C8,53.5522847 8.44771524,54 8.99999997,54 C9.5522847,54 9.99999993,53.5522847 9.99999993,53 L9.99999993,48 C10.0000689,47.7347624 9.89473424,47.4803684 9.70718291,47.292817 C9.51963158,47.1052657 9.26523759,46.999931 8.99999997,47 Z" id="Shape"/><path d="M47,19.59192 L47,6 C47,1.25391 31.62793,0 23.5,0 C15.37207,0 0,1.25391 0,6 L0,54 C0,58.74609 15.69922,60 24,60 C27.4633126,60.0114152 30.9246701,59.8339249 34.36865,59.46832 C45.0096001,61.8824312 55.7254324,55.7402699 59.0203875,45.3382979 C62.3153427,34.9363258 57.0902158,23.7446657 47,19.59192 Z M39,18 C34.0335912,17.9983178 29.228972,19.7656993 25.44751,22.98529 C24.95868,22.99414 24.4527,22.99237 24,23 C9.76563,23 2,20.35742 2,19 L2,8.653 C6.42645,11.23749 17.1637,12 23.5,12 C29.8363,12 40.57355,11.23749 45,8.653 L45,18.8844 C43.0535994,18.2996173 41.0323492,18.001685 39,18 Z M2,38.61047 C5.98322,40.90894 14.81342,41.64215 18.21582,41.84424 C18.3082267,42.5219733 18.4318233,43.18872 18.58661,43.84448 C6.81146,43.24011 2,40.91473 2,40 L2,38.61047 Z M18,39 C18,39.27881 18.03107,39.5498 18.04187,39.826 C6.65106,39.14856 2,36.87335 2,36 L2,25.61365 C5.80524,27.82074 14.27747,28.72365 20.57574,28.93689 C18.882601,32.020503 17.9965664,35.4821345 18,39 Z M21.81635,26.96619 C8.99683,26.70844 2,24.22974 2,23 L2,21.62921 C6.35846,24.15421 16.84418,24.95121 23.39459,24.99721 C22.8297538,25.6215089 22.3027343,26.2790078 21.81635,26.96619 Z M23.5,2 C37.41113,2 45,4.64258 45,6 C45,7.35742 37.41113,10 23.5,10 C9.58887,10 2,7.35742 2,6 C2,4.64258 9.58887,2 23.5,2 Z M24,58 C9.76563,58 2,55.35742 2,54 L2,42.6355 C6.18549,45.06201 15.76355,45.72028 19.18146,45.88074 C21.0077765,51.1021191 24.8132848,55.3964027 29.77716,57.83734 C27.92169,57.94238 25.99561,58 24,58 Z M39,58 C28.5065898,58 20,49.4934102 20,39 C20,28.5065898 28.5065898,20 39,20 C49.4934102,20 58,28.5065898 58,39 C57.9880855,49.4884712 49.4884712,57.9880855 39,58 Z" id="Shape"/><path d="M39,22 C29.6111593,22 22,29.6111593 22,39 C22,48.3888407 29.6111593,56 39,56 C48.3888407,56 56,48.3888407 56,39 C55.989529,29.6154999 48.3845001,22.010471 39,22 Z M39,54 C30.7157288,54 24,47.2842712 24,39 C24,30.7157288 30.7157288,24 39,24 C47.2842712,24 54,30.7157288 54,39 C53.9907855,47.2804515 47.2804515,53.9907855 39,54 Z" id="Shape"/><path d="M40,38.58594 L40,27 C40,26.4477153 39.5522847,26 39,26 C38.4477153,26 38,26.4477153 38,27 L38,39 C38.0000698,39.2651922 38.1054618,39.5194998 38.293,39.707 L45.293,46.707 C45.6844809,47.091453 46.3126425,47.0886083 46.7006254,46.7006254 C47.0886083,46.3126425 47.091453,45.6844809 46.707,45.293 L40,38.58594 Z" id="Shape"/></g></g></g></svg>
