<?xml version="1.0" encoding="UTF-8"?>
<svg xmlns="http://www.w3.org/2000/svg" xmlns:xlink="http://www.w3.org/1999/xlink" width="512" height="512" viewBox="0 0 60 60" version="1.1"><!-- Generator: Sketch 49.3 (51167) - http://www.bohemiancoding.com/sketch --><title>037 - Multiple Remote storage</title><desc>Created with Sketch.</desc><defs><linearGradient x1="13.3666709%" y1="20.7645096%" x2="82.5990204%" y2="109.433074%" id="linearGradient-1"><stop stop-color="#D4E1F4" offset="0%"/><stop stop-color="#D4E1F4" offset="17.173%"/><stop stop-color="#D4E1F4" offset="20%"/><stop stop-color="#DAE4F4" offset="20.014%"/><stop stop-color="#EBEBF4" offset="20.069%"/><stop stop-color="#F6F1F4" offset="20.136%"/><stop stop-color="#FDF4F4" offset="20.231%"/><stop stop-color="#FFF5F4" offset="20.495%"/><stop stop-color="#FFF5F4" offset="25.222%"/><stop stop-color="#FFF5F4" offset="26%"/><stop stop-color="#D4E1F4" offset="26%"/><stop stop-color="#D4E1F4" offset="39.739%"/><stop stop-color="#D4E1F4" offset="42%"/><stop stop-color="#DAE4F4" offset="42.014%"/><stop stop-color="#EBEBF4" offset="42.069%"/><stop stop-color="#F6F1F4" offset="42.136%"/><stop stop-color="#FDF4F4" offset="42.231%"/><stop stop-color="#FFF5F4" offset="42.495%"/><stop stop-color="#FFF5F4" offset="48.939%"/><stop stop-color="#FFF5F4" offset="50%"/><stop stop-color="#F9F2F4" offset="50.003%"/><stop stop-color="#E8EBF4" offset="50.014%"/><stop stop-color="#DDE5F4" offset="50.028%"/><stop stop-color="#D6E2F4" offset="50.047%"/><stop stop-color="#D4E1F4" offset="50.1%"/><stop stop-color="#D4E1F4" offset="70.622%"/><stop stop-color="#D4E1F4" offset="74%"/><stop stop-color="#FFF5F4" offset="74.1%"/><stop stop-color="#FFF5F4" offset="83.459%"/><stop stop-color="#FFF5F4" offset="85%"/><stop stop-color="#D4E1F4" offset="85.1%"/></linearGradient></defs><g id="Page-1" stroke="none" stroke-width="1" fill="none" fill-rule="evenodd"><g id="037---Multiple-Remote-storage" transform="translate(-1.000000, 0.000000)" fill-rule="nonzero"><g id="Colours" transform="translate(1.000000, 1.000000)"><path d="M59,32.23 C59.0768009,34.2612835 58.3243803,36.2364866 56.9155871,37.7018579 C55.5067939,39.1672291 53.5627324,39.9968006 51.53,40 L43,40 L43,52 L37,58 L26.71,58 C26.3131963,57.9925298 25.9964471,57.6668581 26,57.27 L26,40 L17.94,40 C15.3250044,39.9889012 12.9135266,38.5869678 11.61,36.32 C9.6121849,35.8629137 7.89481161,34.594811 6.87,32.82 C3.38224517,31.9692525 0.946358587,28.8196138 1,25.23 C0.99293856,23.1574914 1.80527665,21.1661848 3.26,19.69 C4.32143694,18.6097257 5.69039402,17.8833403 7.18,17.61 C6.7923456,16.3018821 6.59696816,14.9443457 6.6,13.58 C6.57579283,9.23207674 8.61220113,5.12958572 12.09,2.52 C14.2771075,0.881321531 16.9371083,-0.00300591743 19.67,1.77635684e-15 C23.4128645,0.00997345689 26.9626957,1.66241806 29.38,4.52 C30.3674623,4.95028396 31.2978689,5.5011384 32.15,6.16 C32.8681839,6.71142475 33.5282648,7.3346484 34.12,8.02 C35.1062973,8.4525585 36.0364348,9.00325363 36.89,9.66 C38.2964073,10.746346 39.4754453,12.0986719 40.36,13.64 C41.3688959,13.1802505 42.453445,12.9091132 43.56,12.84 C43.7261329,12.8235717 43.8930857,12.8168936 44.06,12.82 C46.6009144,12.8232975 49.0312717,13.8596081 50.7927423,15.6908586 C52.5542129,17.5221091 53.4953699,19.9908738 53.4,22.53 C53.3987432,23.2505445 53.3148619,23.9685682 53.15,24.67 C56.6203221,25.5236929 59.0445133,28.6564939 59,32.23 Z" id="Shape" fill="#A4C2F7"/><path d="M29.38,4.52 C27.806853,3.84418799 26.1121638,3.49708296 24.4,3.5 C17.0417124,3.64290781 11.1912758,9.7216323 11.33,17.08 C11.3269976,18.4443436 11.5223745,19.8018758 11.91,21.11 C8.28260363,21.8283855 5.68404191,25.0324373 5.73,28.73 C5.7237768,30.1726155 6.1184514,31.5885972 6.87,32.82 C3.35777198,31.9177348 0.927748978,28.7177522 1.00164181,25.092236 C1.07553465,21.4667197 3.63392527,18.3684076 7.18,17.61 C6.7923456,16.3018821 6.59696816,14.9443457 6.6,13.58 C6.46129799,6.22164102 12.3117219,0.142929696 19.67,-2.44249065e-15 C23.4128645,0.00997345689 26.9626957,1.66241806 29.38,4.52 Z" id="Shape" fill="#A4C2F7"/><path d="M34.12,8.02 C32.5465502,7.34515418 30.8520624,6.99809041 29.14,7 C21.7817124,7.14290781 15.9312758,13.2216323 16.07,20.58 C16.0669682,21.9443457 16.2623456,23.3018821 16.65,24.61 C13.0205049,25.3249015 10.4201997,28.531103 10.47,32.23 C10.47,32.49 10.48,32.74 10.5,33 C10.6101116,34.1772285 10.9899323,35.3132689 11.61,36.32 C9.6121849,35.8629137 7.89481161,34.594811 6.87,32.82 C6.1184514,31.5885972 5.7237768,30.1726155 5.73,28.73 C5.68404191,25.0324373 8.28260363,21.8283855 11.91,21.11 C11.5223745,19.8018758 11.3269976,18.4443436 11.33,17.08 C11.1912758,9.7216323 17.0417124,3.64290781 24.4,3.5 C26.1121638,3.49708296 27.806853,3.84418799 29.38,4.52 C30.3674623,4.95028396 31.2978689,5.5011384 32.15,6.16 C32.8681839,6.71142475 33.5282648,7.3346484 34.12,8.02 Z" id="Shape" fill="#E3E7F2"/><path d="M44,36 L24,36 C23.4477153,36 23,35.5522847 23,35 C23,34.4477153 23.4477153,34 24,34 L44,34 C44.5522847,34 45,34.4477153 45,35 C45,35.5522847 44.5522847,36 44,36 Z" id="Shape" fill="#8697CB"/><path d="M43,52 L37,58 L37,52.67 C37,52.2999692 37.2999692,52 37.67,52 L43,52 Z" id="Shape" fill="#A4C2F7"/><path d="M55,34.23 C55.0098294,36.3726759 54.1469332,38.4270188 52.61,39.92 C52.2523515,39.9722339 51.8914412,39.998968 51.53,40 L43,40 L43,42 L40,42 L40,35 L26,35 L26,40 L17.94,40 C15.3250044,39.9889012 12.9135266,38.5869678 11.61,36.32 C10.9899323,35.3132689 10.6101116,34.1772285 10.5,33 C10.48,32.74 10.47,32.49 10.47,32.23 C10.4201997,28.531103 13.0205049,25.3249015 16.65,24.61 C16.2623456,23.3018821 16.0669682,21.9443457 16.07,20.58 C15.9758882,14.1405926 20.4645902,8.54020279 26.77,7.23 C27.2496453,7.50980251 27.7106152,7.8204561 28.15,8.16 C28.8681839,8.71142475 29.5282648,9.3346484 30.12,10.02 C31.1062973,10.4525585 32.0364348,11.0032536 32.89,11.66 C34.2964073,12.746346 35.4754453,14.0986719 36.36,15.64 C37.3688959,15.1802505 38.453445,14.9091132 39.56,14.84 C39.7261329,14.8235717 39.8930857,14.8168936 40.06,14.82 C40.143457,14.8183468 40.2269384,14.8216693 40.31,14.82995 C41.1612811,14.8532916 42.0055389,14.9911983 42.82,15.23995 C46.7887066,16.5916263 49.4419278,20.3375875 49.4,24.52995 C49.3987432,25.2504945 49.3148619,25.9685182 49.15,26.66995 C52.6203405,27.5236472 55.0445367,30.6564754 55,34.23 Z" id="Shape" fill="url(#linearGradient-1)"/><path d="M43,35 L43,52 L37.67,52 C37.2999692,52 37,52.2999692 37,52.67 L37,58 L26.71,58 C26.3131963,57.9925298 25.9964471,57.6668581 26,57.27 L25.9999704,35 L43,35 Z" id="Shape" fill="#A4C2F7"/><path d="M40,35 L40,52 L34.67,52 C34.492305,52 34.3218878,52.0705891 34.1962385,52.1962385 C34.0705891,52.3218878 34,52.492305 34,52.67 L34,58 L26.71,58 C26.3131963,57.9925298 25.9964471,57.6668581 26,57.27 L25.9999704,35 L40,35 Z" id="Shape" fill="#E3E7F2"/></g><g id="White" transform="translate(1.000000, 1.000000)" fill="#FFFFFF"><path d="M19.67,-3.15231782e-17 C20.1817027,-0.00221519963 20.6929388,0.0311989249 21.2,0.1 C21.166344,0.0978381095 21.1325614,0.10121637 21.1,0.11 C20.8,0.14 20.52,0.19 20.23,0.24 C20.11,0.27 19.99,0.29 19.87,0.32 C19.56,0.39 19.26,0.47 18.96,0.56 C18.88,0.59 18.8,0.61 18.73,0.63 C18.35,0.76 17.97,0.9 17.61,1.06 C17.56,1.08 17.51,1.11 17.46,1.13 C17.1588716,1.26052914 16.8651004,1.40741475 16.58,1.57 C16.4632801,1.6307346 16.3497939,1.69749121 16.24,1.77 C16.02,1.89005 15.81,2.03 15.61,2.16 C15.47,2.25 15.34,2.34 15.21,2.44 C15.17,2.47 15.13,2.49 15.09,2.52 C15.03,2.57 14.97995,2.62 14.92,2.67 C14.62,2.9 14.33,3.14 14.05,3.39 C13.95,3.48 13.85,3.57 13.76,3.66 C13.49,3.92 13.24,4.19 12.99,4.47 C12.92,4.56 12.84,4.65 12.76,4.74 C12.47,5.09 12.2,5.45 11.94,5.83 C11.93,5.86 11.9,5.88 11.89,5.91 C11.61,6.33 11.36,6.77 11.12,7.22 C11.09,7.29 11.06,7.37 11.02,7.45 C10.84,7.81 10.68,8.18 10.53,8.57 C10.47995,8.71 10.43,8.86 10.38,9 C10.26,9.33 10.16,9.66 10.07,10 C10.03,10.17 9.99,10.33 9.95,10.5 C9.87,10.85 9.81,11.2 9.76,11.56 C9.74,11.71 9.71,11.87 9.69,12.02 C9.64,12.53 9.6,13.05 9.6,13.58 C9.59696816,14.9443457 9.7923456,16.3018821 10.18,17.61 C9.84071843,17.671921 9.50647533,17.7588242 9.18,17.87 C9.13,17.89 9.07,17.91 9.02,17.93 C8.71397436,18.0375008 8.41646842,18.1678686 8.13,18.32 C8.07,18.35 8.02,18.38 7.97,18.41 C7.6784544,18.5676688 7.39782334,18.7447336 7.13,18.94 C7.09764077,18.9601306 7.06747657,18.9835917 7.04,19.01 C6.77724745,19.2076374 6.52987063,19.4249278 6.3,19.66 C6.29,19.67 6.27,19.68 6.26,19.69 L6.24,19.71 C6.08,19.88 5.92,20.05 5.77,20.24 C5.75,20.26 5.74,20.28 5.72,20.3 C5.59006,20.46 5.47,20.63 5.35,20.8 L5.23,20.98 C5.14,21.13 5.06,21.27 4.98,21.42 L4.86,21.63 C4.79,21.78 4.72,21.92 4.66,22.06 C4.62245214,22.1381781 4.58907204,22.2182903 4.56,22.3 C4.5,22.45 4.45,22.6 4.4,22.75 C4.37,22.83 4.35,22.92 4.32,23 C4.28,23.16 4.24,23.31 4.2,23.47 C4.18,23.56 4.16,23.64 4.15,23.72 C4.11358596,23.8916928 4.08687695,24.0653014 4.07,24.24 C4.06,24.32 4.05,24.39 4.04,24.47 C4.0114718,24.7223048 3.99811444,24.9760945 4,25.23 C3.94635859,28.8196138 6.38224517,31.9692525 9.87,32.82 C10.8948116,34.594811 12.6121849,35.8629137 14.61,36.32 C15.9135266,38.5869678 18.3250044,39.9889012 20.94,40 L17.94,40 C15.3250044,39.9889012 12.9135266,38.5869678 11.61,36.32 C9.6121849,35.8629137 7.89481161,34.594811 6.87,32.82 C3.38224517,31.9692525 0.946358587,28.8196138 1,25.23 C0.998114442,24.9760945 1.0114718,24.7223048 1.04,24.47 C1.05,24.39 1.06,24.32 1.07,24.24 C1.08687695,24.0653014 1.11358596,23.8916928 1.15,23.72 C1.15995,23.64 1.18,23.56 1.2,23.47 C1.24,23.31 1.28,23.16 1.32,23 C1.35,22.92 1.37,22.83 1.4,22.75 C1.45,22.6 1.5,22.45 1.56,22.3 C1.58907204,22.2182903 1.62245214,22.1381781 1.66,22.06 C1.72,21.92 1.79,21.78 1.86,21.63 L1.98,21.42 C2.06,21.27 2.14,21.13 2.23,20.98 L2.35,20.8 C2.47,20.63 2.59005,20.46 2.72,20.3 C2.74,20.28 2.75,20.26 2.77005,20.24 C2.92005,20.05 3.08005,19.88 3.24005,19.71 L3.26005,19.69 C3.27005,19.68 3.29005,19.67 3.30005,19.66 C3.52992063,19.4249278 3.77729745,19.2076374 4.04005,19.01 C4.06752657,18.9835917 4.09769077,18.9601306 4.13005,18.94 C4.39787334,18.7447336 4.6785044,18.5676688 4.97005,18.41 C5.02005,18.38 5.07005,18.35 5.13005,18.32 C5.41651842,18.1678686 5.71402436,18.0375008 6.02005,17.93 C6.07005,17.91 6.13005,17.89 6.18005,17.87 C6.50652533,17.7588242 6.84076843,17.671921 7.18005,17.61 C6.7923956,16.3018821 6.59701816,14.9443457 6.60005,13.58 C6.60005,13.05 6.64005,12.53 6.69005,12.02 C6.71005,11.87 6.74005,11.71 6.76005,11.56 C6.81005,11.2 6.87005,10.85 6.95005,10.5 C6.99005,10.33 7.03005,10.17 7.07005,10 C7.16005,9.66 7.26005,9.33 7.38005,9 C7.43005,8.86 7.48005,8.71 7.53005,8.57 C7.68005,8.18 7.84005,7.81 8.02005,7.45 C8.06005,7.37 8.09005,7.29 8.12005,7.22 C8.36005,6.77 8.61005,6.33 8.89005,5.91 C8.90005,5.88 8.93005,5.86 8.94005,5.83 C9.20005,5.45005 9.47005,5.09 9.76005,4.74 C9.84005,4.65 9.92005,4.56 9.99005,4.47 C10.24005,4.19 10.49005,3.92 10.76005,3.66 C10.85005,3.57 10.95005,3.48 11.05005,3.39 C11.33005,3.14 11.62005,2.9 11.92005,2.67 C11.98005,2.62 12.03005,2.57 12.09005,2.52 C12.13005,2.49 12.17005,2.47 12.21005,2.44 C12.34005,2.34 12.47,2.25 12.61005,2.16 C12.81005,2.03 13.02005,1.89 13.24005,1.77 C13.3498439,1.69749121 13.4633301,1.6307346 13.58005,1.57 C13.8651504,1.40741475 14.1589216,1.26052914 14.46005,1.13 C14.51005,1.11 14.56005,1.08 14.61005,1.06 C14.97005,0.9 15.35005,0.76 15.73005,0.63 C15.80005,0.61 15.88005,0.59 15.96005,0.56 C16.26005,0.47 16.56005,0.39 16.87005,0.32 C16.99005,0.29 17.11005,0.27 17.23005,0.24 C17.52005,0.19 17.80005,0.14 18.10005,0.11 C18.21005,0.09 18.33005,0.08 18.45005,0.06 C18.85,0.03 19.26,-3.15231782e-17 19.67,-3.15231782e-17 Z" id="Shape"/><path d="M29.71,58 L26.71,58 C26.3131963,57.9925298 25.9964471,57.6668581 26,57.27 L25.9999704,35 L29,35 L29,57.27 C28.9964471,57.6668581 29.3131963,57.9925298 29.71,58 Z" id="Shape"/></g><g id="Icons"><path d="M7.2204,18.89337 C5.87924771,14.361399 6.74231974,9.46273204 9.55157,5.662 C12.1592607,2.13090206 16.2770132,0.0332986679 20.6665,0 L20.6665,2 C16.9072085,2.03207525 13.3825127,3.83261824 11.1532,6.85974 C8.72293775,10.1540102 7.97675505,14.3967288 9.1372,18.32251 L7.2204,18.89337 Z" id="Shape" fill="#FFFFFF"/><path d="M7.55139,11.52747 C7.59982313,11.5680224 7.65439828,11.6006129 7.71307,11.62402 C7.77508389,11.6487257 7.83878667,11.6689607 7.90369,11.68457 C8.16392773,11.7330773 8.43293331,11.6900315 8.66504,11.56274 C8.77304768,11.4972653 8.8677087,11.4119686 8.94404,11.31134 C9.16185718,11.0062893 9.19671205,10.6069751 9.03504,10.2688 C8.97191564,10.1555157 8.88930326,10.0542542 8.791,9.96967 C8.69423469,9.88154101 8.58179727,9.81234457 8.45952,9.76567 C8.20794113,9.67668818 7.93115411,9.69256492 7.6914,9.80973 C7.44293356,9.94144351 7.25898865,10.1688608 7.18212,10.43937 C7.11575895,10.7104808 7.15115849,10.9965165 7.28161,11.24327 L7.39776,11.39827 C7.44248167,11.4485095 7.49422597,11.4920255 7.55139,11.52747 Z" id="Shape" fill="#428DFF"/><path d="M55.28577,24.96619 C55.3579791,24.4915034 55.3966084,24.0123138 55.40137,23.53219 C55.4582384,18.8958126 52.5119224,14.7542885 48.11328,13.2876 C46.9467096,12.9215771 45.7236633,12.7690668 44.50293,12.8374 C43.5687889,12.8944385 42.6473214,13.0826437 41.76563,13.39648 C40.2873763,11.127616 38.1926605,9.32744483 35.72729,8.20721 C34.4158621,6.71653979 32.801393,5.52292432 30.99176,4.70612 C28.3937794,1.71666073 24.6276022,2.75341196e-06 20.667,1.5186552e-15 L20.6665,0.00012 L20.6665,0 C16.2770132,0.0332986679 12.1592607,2.13090206 9.55157,5.662 C9.34595,5.95466 9.12524,6.23768 8.93414,6.53962 C8.78493253,6.7681874 8.73663105,7.04818581 8.80063507,7.31353353 C8.86463909,7.57888124 9.03527809,7.80606944 9.27228,7.94148 C9.73709766,8.20299221 10.3249682,8.06119233 10.61945,7.61653 C10.7843,7.35566 10.97699,7.11317 11.1532,6.85975 C13.3825105,3.83262447 16.9072068,2.0320776 20.6665,2 L20.6665,1.99988 L20.667,2 C22.702504,1.99778619 24.7024188,2.53371435 26.46406,3.55347 C26.11122,3.52631 25.75801,3.50047 25.40138,3.50047 C17.4946588,3.65394179 11.2026869,10.1758632 11.333,18.083 C11.3323755,19.1925705 11.4528793,20.2988936 11.69237,21.38231 C8.10125726,22.57047 5.69168604,25.9456936 5.73437,29.72802 C5.73715617,30.4793142 5.83337129,31.2273454 6.0208,31.95489 C4.12418876,30.6668171 2.99197944,28.5201808 3,26.22754 C2.94290294,23.0107617 5.19910321,20.2154043 8.35547,19.59229 C8.89923383,19.4944868 9.26079373,18.9744417 9.16309,18.43066 C9.15147539,18.3953395 9.13773702,18.3607531 9.12195,18.32709 L9.13721,18.32251 C8.78500734,17.1327346 8.60395147,15.8988831 8.59949,14.65808 C8.59346425,14.1079231 8.14414619,13.6659749 7.5939649,13.6690477 C7.0437836,13.6721206 6.59943012,14.1190601 6.59955,14.66925 C6.60482998,15.7525093 6.72596231,16.8320966 6.96088,17.88959 C3.37008892,19.074119 0.959042172,22.446639 1,26.22754 C0.972973974,30.1204655 3.51517113,33.5653768 7.243,34.68738 C8.35189834,36.3892163 10.0388149,37.6326432 11.99257,38.18829 C13.5089263,40.5584597 16.1267115,41.9946196 18.94043,42 L26,42 L26,58.27 C25.9956816,59.2194386 26.7605754,59.9932785 27.71,60 L38,60 C38.2653756,59.9987385 38.5196205,59.8932105 38.70789,59.70618 L44.70636,53.7077 L44.71021,53.7027 C44.87308,53.5263997 44.9709905,53.2998489 44.98779,53.06042 C44.98914,53.03931 45,53.02142 45,53 L45,42 L52.53027,42 C56.7203245,41.8429931 60.2175301,38.7512652 60.887112,34.6120783 C61.5566938,30.4728915 59.2126211,26.4362404 55.28577,24.96619 Z M8.72168,33.29834 C8.06795959,32.2227767 7.72613209,30.9866478 7.73438,29.72803 C7.67781533,26.5114358 9.93376761,23.7163762 13.08984,23.09277 C13.3698594,23.0424219 13.6152014,22.8752407 13.7644931,22.633047 C13.9137848,22.3908533 13.9529058,22.0965545 13.87207,21.82377 C13.5128609,20.6093814 13.3312891,19.3493996 13.333,18.083 C13.201857,11.280077 18.598895,5.65311286 25.40137,5.50049 C26.9769641,5.49892166 28.5365868,5.81615948 29.98637,6.43311 C30.4014027,6.61605052 30.805281,6.82331727 31.1959,7.05383 C30.8439,7.02683 30.49156,7.00098 30.13578,7.00098 C22.2292524,7.15454303 15.9376112,13.6765622 16.06836,21.5835 C16.0670147,22.6931093 16.187527,23.7995108 16.42773,24.88281 C12.8367086,26.0710939 10.427193,29.4462398 10.46973,33.22852 C10.46973,33.5156267 10.48275,33.8027333 10.50879,34.08984 L10.51,34.094 L10.50976,34.0962 C10.5535908,34.5527343 10.6316063,35.0053375 10.74315,35.4502 C9.91482124,34.8955379 9.22355073,34.1596787 8.72168,33.29834 Z M28,37 L43,37 L43,52 L38.667,52 C37.7469407,52.000975 37.001251,52.746441 37,53.6665 L37,58 L28,58 L28,37 Z M39,56.58594 L39,54 L41.58594,54 L39,56.58594 Z M52.53027,40 L45,40 L45,37 C45.5522847,37 46,36.5522847 46,36 C46,35.4477153 45.5522847,35 45,35 L25,35 C24.4477153,35 24,35.4477153 24,36 C24,36.5522847 24.4477153,37 25,37 L26,37 L26,40 L18.94043,40 C16.6786941,39.9932319 14.5931995,38.7776594 13.47266,36.813 C13.46704,36.80342 13.45721,36.79847 13.45129,36.78913 C12.9188377,35.9139407 12.5937674,34.9284916 12.50098,33.90827 L12.50098,33.9082 C12.4804667,33.68164 12.47005,33.45508 12.46973,33.22852 C12.4126321,30.0117394 14.6688317,27.2163786 17.8252,26.59326 C18.1053465,26.5428473 18.3507363,26.3754437 18.4998787,26.1329978 C18.6490212,25.8905518 18.6877826,25.5960393 18.60645,25.32326 C18.2474905,24.109193 18.0662462,22.8495398 18.06836,21.58352 C17.9367635,14.7807978 23.3334594,9.1537244 30.13574,9.001 C31.7112777,8.99950272 33.2708544,9.31656449 34.72074,9.93313 C35.6323035,10.3343592 36.4915165,10.8452931 37.27934,11.45461 C38.5829749,12.4581683 39.6743849,13.7105707 40.49027,15.13918 C40.7480915,15.5865142 41.3038512,15.7643628 41.77348,15.54982 C42.6747349,15.1360331 43.6449189,14.892993 44.63481,14.83303 C44.75781,14.82424 44.87992,14.82375 45.00297,14.82375 C45.853142,14.8205018 46.6989338,14.9456079 47.51176,15.19484 C51.7393441,16.6625557 54.1821661,21.0795255 53.1782,25.44057 L53.17582,25.44582 C53.1161844,25.7043891 53.1618405,25.9760602 53.3027214,26.2009311 C53.4436022,26.4258021 53.6681381,26.5854057 53.92682,26.64455 C56.9339409,27.4075076 59.0295053,30.1277412 59,33.23 C59.076799,36.8836743 56.1836694,39.9110784 52.53027,40 Z" id="Shape" fill="#428DFF"/></g></g></g></svg>
