<?xml version="1.0" encoding="UTF-8"?>
<svg xmlns="http://www.w3.org/2000/svg" xmlns:xlink="http://www.w3.org/1999/xlink" width="512" height="512" viewBox="0 0 60 60" version="1.1"><!-- Generator: Sketch 49.3 (51167) - http://www.bohemiancoding.com/sketch --><title>036 - Secure Remote storage</title><desc>Created with Sketch.</desc><defs><linearGradient x1="9.65884668%" y1="15.8138571%" x2="85.5144518%" y2="88.9667857%" id="linearGradient-1"><stop stop-color="#D4E1F4" offset="0%"/><stop stop-color="#D4E1F4" offset="17.173%"/><stop stop-color="#D4E1F4" offset="20%"/><stop stop-color="#DAE4F4" offset="20.014%"/><stop stop-color="#EBEBF4" offset="20.069%"/><stop stop-color="#F6F1F4" offset="20.136%"/><stop stop-color="#FDF4F4" offset="20.231%"/><stop stop-color="#FFF5F4" offset="20.495%"/><stop stop-color="#FFF5F4" offset="25.222%"/><stop stop-color="#FFF5F4" offset="26%"/><stop stop-color="#D4E1F4" offset="26%"/><stop stop-color="#D4E1F4" offset="39.739%"/><stop stop-color="#D4E1F4" offset="42%"/><stop stop-color="#DAE4F4" offset="42.014%"/><stop stop-color="#EBEBF4" offset="42.069%"/><stop stop-color="#F6F1F4" offset="42.136%"/><stop stop-color="#FDF4F4" offset="42.231%"/><stop stop-color="#FFF5F4" offset="42.495%"/><stop stop-color="#FFF5F4" offset="48.939%"/><stop stop-color="#FFF5F4" offset="50%"/><stop stop-color="#F9F2F4" offset="50.003%"/><stop stop-color="#E8EBF4" offset="50.014%"/><stop stop-color="#DDE5F4" offset="50.028%"/><stop stop-color="#D6E2F4" offset="50.047%"/><stop stop-color="#D4E1F4" offset="50.1%"/><stop stop-color="#D4E1F4" offset="70.622%"/><stop stop-color="#D4E1F4" offset="74%"/><stop stop-color="#FFF5F4" offset="74.1%"/><stop stop-color="#FFF5F4" offset="83.459%"/><stop stop-color="#FFF5F4" offset="85%"/><stop stop-color="#D4E1F4" offset="85.1%"/></linearGradient></defs><g id="Page-1" stroke="none" stroke-width="1" fill="none" fill-rule="evenodd"><g id="036---Secure-Remote-storage" transform="translate(-1.000000, 0.000000)" fill-rule="nonzero"><g id="Colours" transform="translate(1.000000, 1.000000)"><path d="M4.36,23.26 C4.36190261,23.2876365 4.36867336,23.3147195 4.38,23.34 C4.32210601,23.3474377 4.26513634,23.3608423 4.21,23.38 C4.25749709,23.336968 4.30759133,23.2968926 4.36,23.26 Z" id="Shape" fill="#A4C2F7"/><path d="M59,30.59 C59.087712,34.9920033 56.0725857,38.8506968 51.78,39.83 C53.8471212,37.9938976 55.0208871,35.354747 55,32.59 C55.0765303,28.2839394 52.1898087,24.4873628 48.02,23.41 C48.2097162,22.5596394 48.3069477,21.6912612 48.31,20.82 C48.31,14.33 43.31,9.06 37.15,9.06 C37.01,9.06 36.88,9.06 36.74,9.07 C35.3444468,9.12243809 33.9737968,9.45574751 32.71,10.05 C30.0337422,5.13511895 24.9060186,2.05465815 19.31,2 C17.7380888,2.00099701 16.1759614,2.24729355 14.68,2.73 C17.2084339,0.956114878 20.2213697,0.0030077283 23.31,1.33226763e-15 C28.9060186,0.0546581472 34.0337422,3.13511895 36.71,8.05 C38.0989602,7.39683648 39.6151282,7.05877201 41.15,7.06 C47.31,7.06 52.31,12.33 52.31,18.82 C52.3069477,19.6912612 52.2097162,20.5596394 52.02,21.41 C56.1898087,22.4873628 59.0765303,26.2839394 59,30.59 Z" id="Shape" fill="#A4C2F7"/><path d="M41,42 L45,42 L45,56 C44.9967543,57.1032223 44.1032223,57.9967543 43,58 L41,58 L41,42 Z" id="Shape" fill="#A4C2F7"/><path d="M55,32.59 C55.0208871,35.354747 53.8471212,37.9938976 51.78,39.83 C51.2203107,39.9424871 50.650881,39.99943 50.08,40 L45,40 L45,42 L41,42 L41,58 L17,58 C15.8967777,57.9967543 15.0032457,57.1032223 15,56 L15,40 L9.92,40 C4.85887387,39.8634264 0.86598235,35.6511945 1,30.59 C0.982294584,27.8366521 2.15205834,25.2092388 4.21,23.38 C4.26513634,23.3608423 4.32210601,23.3474377 4.38,23.34 C4.36867336,23.3147195 4.36190261,23.2876365 4.36,23.26 C5.50823303,22.2782234 6.89469521,21.6160325 8.38,21.34 C7.92428893,19.7567294 7.6920435,18.1175479 7.69,16.47 C7.63887313,11.0239023 10.2479402,5.89534987 14.68,2.73 C16.1759614,2.24729355 17.7380888,2.00099701 19.31,2 C24.9060186,2.05465815 30.0337422,5.13511895 32.71,10.05 C33.9737968,9.45574751 35.3444468,9.12243809 36.74,9.07 C36.88,9.06 37.01,9.06 37.15,9.06 C43.31,9.06 48.31,14.33 48.31,20.82 C48.3069477,21.6912612 48.2097162,22.5596394 48.02,23.41 C52.1898087,24.4873628 55.0765303,28.2839394 55,32.59 Z" id="Shape" fill="url(#linearGradient-1)"/><path d="M43,32 L17,32 C15.8967686,32.0032238 15.0032238,32.8967686 15,34 L15,56 C15.0032457,57.1032223 15.8967777,57.9967543 17,58 L43,58 C44.1032223,57.9967543 44.9967543,57.1032223 45,56 L45,34 C44.9967762,32.8967686 44.1032314,32.0032238 43,32 Z" id="Shape" fill="#A4C2F7"/><path d="M40.2,32 L16.8,32 C15.7534501,32.0610555 14.9508593,32.952823 15,34 L15,56 C14.9508814,57.0471691 15.7534602,57.9389234 16.8,58 L40.2,58 C41.2465398,57.9389234 42.0491186,57.0471691 42,56 L42,34 C42.0491407,32.952823 41.2465499,32.0610555 40.2,32 Z" id="Shape" fill="#E3E7F2"/><path d="M30,37 C27.847848,37 25.9371537,38.3771505 25.2565835,40.4188612 C24.5760133,42.4605719 25.2782784,44.7087088 27,46 L27,50 C27,51.6568542 28.3431458,53 30,53 C31.6568542,53 33,51.6568542 33,50 L33,46 C34.7217216,44.7087088 35.4239867,42.4605719 34.7434165,40.4188612 C34.0628463,38.3771505 32.152152,37 30,37 Z M31.5,44.59 C31.1898989,44.7698725 30.9993036,45.1015083 31,45.46 L31,50 C31,50.5522847 30.5522847,51 30,51 C29.4477153,51 29,50.5522847 29,50 L29,45.46 C29.0006964,45.1015083 28.8101011,44.7698725 28.5,44.59 C27.5709968,44.0588523 26.9983733,43.0701225 27,42 C27,40.3431458 28.3431458,39 30,39 C31.6568542,39 33,40.3431458 33,42 C33.0016267,43.0701225 32.4290032,44.0588523 31.5,44.59 Z" id="Shape" fill="#B19046"/><path d="M32.9999931,42 C33.0016197,43.0701225 32.4289969,44.0588523 31.4999948,44.59 C31.1898941,44.7698725 30.999299,45.1015083 30.9999954,45.46 L30.9999954,50 C30.9999954,50.5522847 30.5522807,51 29.9999965,51 C29.4477124,51 28.9999977,50.5522847 28.9999977,50 L28.9999977,45.46 C29.0006941,45.1015083 28.810099,44.7698725 28.4999983,44.59 C27.5709961,44.0588523 26.9983733,43.0701225 27,42 C27,40.3431458 28.3431442,39 29.9999965,39 C31.6568489,39 32.9999931,40.3431458 32.9999931,42 Z" id="Shape" fill="#A4C2F7"/></g><g id="White" transform="translate(1.000000, 1.000000)" fill="#FFFFFF"><path d="M12.92,40 L9.92,40 C4.85887387,39.8634264 0.86598235,35.6511945 1,30.59 C0.982294584,27.8366521 2.15205834,25.2092388 4.21,23.38 C4.25749709,23.336968 4.30759133,23.2968926 4.36,23.26 C5.50823303,22.2782234 6.89469521,21.6160325 8.38,21.34 C7.92428893,19.7567294 7.6920435,18.1175479 7.69,16.47 C7.63887313,11.0239023 10.2479402,5.89534987 14.68,2.73 C17.2084339,0.956114878 20.2213697,0.0030077283 23.31,1.29377845e-15 C23.7945274,-0.00354352498 24.2788033,0.0231751418 24.76,0.08 C22.2131141,0.347170836 19.7763839,1.2592238 17.68,2.73 C13.2479402,5.89534987 10.6388731,11.0239023 10.69,16.47 C10.6920435,18.1175479 10.9242889,19.7567294 11.38,21.34 C9.89469521,21.6160325 8.50823303,22.2782234 7.36,23.26 C7.30759133,23.2968926 7.25749709,23.336968 7.21,23.38 C5.15205834,25.2092388 3.98229458,27.8366521 4,30.59 C3.86598235,35.6511945 7.85887387,39.8634264 12.92,40 Z" id="Shape"/><path d="M19.8,58 L16.8,58 C15.7534552,57.938934 14.9508703,57.0471731 15,56 L15,40 L18,40 L18,56 C17.9508703,57.0471731 18.7534552,57.938934 19.8,58 Z" id="Shape"/><path d="M19.8,32 L16.8,32 C15.7534552,32.061066 14.9508703,32.9528269 15,34 L15,50 L18,50 L18,34 C17.9508703,32.9528269 18.7534552,32.061066 19.8,32 Z" id="Shape"/></g><g id="Icons"><path d="M8.419,22.61639 C7.13003853,18.1621187 7.56773788,13.3856332 9.64478,9.23981 C11.0251307,6.51955268 13.1031323,4.2146651 15.66632,2.56081 C18.2454861,0.902786521 21.2439064,0.0144629513 24.31,0 L24.31,2 C21.6263268,2.01412802 19.0022654,2.79283396 16.7453,4.24487 C14.4819055,5.70661317 12.6469724,7.74283728 11.42786,10.14563 C9.57987576,13.8403098 9.1918335,18.0956352 10.34106,22.06363 L8.419,22.61639 Z" id="Shape" fill="#FFFFFF"/><path d="M8.29315,15.17108 C8.34266965,15.216773 8.39839713,15.2552398 8.45868,15.28534 C8.51082065,15.3212885 8.56828427,15.3488241 8.62897,15.36694 C8.693014,15.38599 8.75831842,15.4005125 8.8244,15.4104 C9.08760791,15.4361493 9.35145398,15.3681231 9.5694,15.21832 C9.67081663,15.1416612 9.75671521,15.0463993 9.82251,14.93762 C10.0093047,14.6072643 10.0016811,14.2014666 9.80261,13.87836 C9.72863869,13.7724511 9.63602967,13.6808721 9.5293,13.60809 C9.20152532,13.3659928 8.75810288,13.3521143 8.41583,13.57324 C8.18283297,13.7263006 8.02545486,13.9707792 7.9826,14.24624 C7.94446718,14.5201186 8.00840284,14.7984557 8.16223,15.02824 L8.29315,15.17108 Z" id="Shape" fill="#428DFF"/><path d="M54.167,21.70068 C54.2609524,21.0781128 54.3086097,20.4494357 54.30958,19.81982 C54.30958,12.78418 48.85548,7.06006 42.1504,7.06006 C40.7740623,7.05855675 39.4088649,7.30671347 38.1211,7.79248 C35.1799095,2.9760291 29.9534089,0.0271400386 24.31,0 L24.30945,0 C21.2435432,0.0146031422 18.2453342,0.90293452 15.66632,2.56085 C13.1031323,4.2147051 11.0251307,6.51959268 9.64478,9.23985 L9.20428,10.20359 C9.08706697,10.4503569 9.07953958,10.7351537 9.18355358,10.9877679 C9.28756759,11.240382 9.49344509,11.4373092 9.75043,11.53 C10.2516242,11.7067787 10.8056902,11.4793921 11.03821,11.0015 L11.42786,10.1456 C12.6469768,7.74281827 14.4819095,5.70660492 16.7453,4.24487 C19.0022086,2.79286349 21.6262007,2.01415857 24.30981,2 C29.5490352,2.04332584 34.3498151,4.9335486 36.83981,9.54346 C37.0975438,9.99679178 37.6601357,10.1763121 38.13281,9.95605 C39.3896572,9.36510091 40.761547,9.05914229 42.15039,9.06005 C47.75195,9.06005 52.30957,13.88671 52.30957,19.81981 C52.3065602,20.6189333 52.2171743,21.4153898 52.04297,22.1953 C51.9253313,22.7289457 52.2581096,23.2581338 52.79004,23.3833 C56.5186504,24.3387274 59.0938681,27.7419099 59,31.58984 C59.1260944,36.0957395 55.5854291,39.8555707 51.08008,40 L47,40 L47,35 C46.9981923,33.3438951 45.6561049,32.0018077 44,32 L42,32 L42,24 C42,17.9248678 37.0751322,13 31,13 C24.9248678,13 20,17.9248678 20,24 L20,32 L18,32 C16.3438951,32.0018077 15.0018077,33.3438951 15,35 L15,40 L10.91992,40 C6.41457089,39.8555707 2.87390559,36.0957395 3,31.58984 C2.91431361,27.6143995 5.67129824,24.1412963 9.5625,23.32275 C10.1054489,23.2216475 10.4638413,22.6997994 10.36328,22.15675 C10.3528224,22.126427 10.3408064,22.096664 10.32728,22.06758 L10.34107,22.06358 C9.99381679,20.8531023 9.78347771,19.6074838 9.714,18.3501 C9.67074077,17.8177241 9.22725544,17.407007 8.69313,17.40466 C8.42072481,17.4052652 8.16083498,17.5191031 7.97568783,17.7189167 C7.79054069,17.9187304 7.69680696,18.1865284 7.71693,18.45819 C7.77548578,19.5214468 7.92444012,20.5777899 8.16218,21.61578 C3.8420816,23.0049271 0.935707783,27.0523466 1,31.58984 C0.874353509,37.2000738 5.31015077,41.8550871 10.91992,42 L15,42 L15,57 C15.0018077,58.6561049 16.3438951,59.9981923 18,60 L44,60 C45.6561049,59.9981923 46.9981923,58.6561049 47,57 L47,42 L51.08008,42 C56.6898492,41.8550871 61.1256465,37.2000738 61,31.58984 C61.0788927,27.1691648 58.32981,23.1905143 54.167,21.70068 Z M22,24 C22,19.0294373 26.0294373,15 31,15 C35.9705627,15 40,19.0294373 40,24 L40,32 L22,32 L22,24 Z M44,58 L18,58 C17.4479437,57.9994488 17.0005512,57.5520563 17,57 L17,55 L22,55 C22.5522847,55 23,54.5522847 23,54 C23,53.4477153 22.5522847,53 22,53 L17,53 L17,51 L22,51 C22.5522847,51 23,50.5522847 23,50 C23,49.4477153 22.5522847,49 22,49 L17,49 L17,47 L22,47 C22.5522847,47 23,46.5522847 23,46 C23,45.4477153 22.5522847,45 22,45 L17,45 L17,43 L22,43 C22.5522847,43 23,42.5522847 23,42 C23,41.4477153 22.5522847,41 22,41 L17,41 L17,39 L22,39 C22.5522847,39 23,38.5522847 23,38 C23,37.4477153 22.5522847,37 22,37 L17,37 L17,35 C17.0005512,34.4479437 17.4479437,34.0005512 18,34 L44,34 C44.5520563,34.0005512 44.9994488,34.4479437 45,35 L45,37 L40,37 C39.4477153,37 39,37.4477153 39,38 C39,38.5522847 39.4477153,39 40,39 L45,39 L45,41 L40,41 C39.4477153,41 39,41.4477153 39,42 C39,42.5522847 39.4477153,43 40,43 L45,43 L45,45 L40,45 C39.4477153,45 39,45.4477153 39,46 C39,46.5522847 39.4477153,47 40,47 L45,47 L45,49 L40,49 C39.4477153,49 39,49.4477153 39,50 C39,50.5522847 39.4477153,51 40,51 L45,51 L45,53 L40,53 C39.4477153,53 39,53.4477153 39,54 C39,54.5522847 39.4477153,55 40,55 L45,55 L45,57 C44.9994488,57.5520563 44.5520563,57.9994488 44,58 Z" id="Shape" fill="#428DFF"/><path d="M31,38 C28.8486727,37.997705 26.9375878,39.3732015 26.2567334,41.4139493 C25.5758789,43.4546971 26.2782494,45.7021205 28,46.992 L28,51 C28,52.6568542 29.3431458,54 31,54 C32.6568542,54 34,52.6568542 34,51 L34,46.992 C35.7217506,45.7021205 36.4241211,43.4546971 35.7432666,41.4139493 C35.0624122,39.3732015 33.1513273,37.997705 31,38 Z M32.502,45.59277 C32.4690495,45.6180358 32.437814,45.6454628 32.4085,45.67487 C32.3523118,45.7145 32.3004882,45.7599814 32.2539,45.81055 C32.1765082,45.9098825 32.1131104,46.0193633 32.06548,46.13593 C32.0445035,46.2022642 32.0306914,46.2706542 32.02428,46.33993 C32.0135903,46.3793842 32.0054799,46.4194923 32,46.46 L32,51 C32,51.5522847 31.5522847,52 31,52 C30.4477153,52 30,51.5522847 30,51 L30,46.46 C29.9945612,46.4194531 29.9864672,46.3793068 29.97577,46.33982 C29.9693716,46.2706407 29.9556001,46.2023431 29.93469,46.13609 C29.8869815,46.0194995 29.8235467,45.9099841 29.74615,45.81059 C29.6995414,45.759999 29.647698,45.7144944 29.59149,45.67484 C29.5621768,45.6454855 29.5309626,45.6180929 29.49805,45.59284 C28.3230183,44.9132585 27.7507015,43.5293601 28.1025142,42.2183458 C28.4543269,40.9073316 29.6426016,39.9958906 31,39.9958906 C32.3573984,39.9958906 33.5456731,40.9073316 33.8974858,42.2183458 C34.2492985,43.5293601 33.6769817,44.9132585 32.50195,45.59284 L32.502,45.59277 Z" id="Shape" fill="#428DFF"/></g></g></g></svg>
