<?xml version="1.0" encoding="UTF-8"?>
<svg xmlns="http://www.w3.org/2000/svg" xmlns:xlink="http://www.w3.org/1999/xlink" width="512" height="512" viewBox="0 0 60 60" version="1.1"><!-- Generator: Sketch 49.3 (51167) - http://www.bohemiancoding.com/sketch --><title>035 - Multiple cloud copies</title><desc>Created with Sketch.</desc><defs><linearGradient x1="13.3942948%" y1="14.3849321%" x2="82.4196858%" y2="122.064656%" id="linearGradient-1"><stop stop-color="#D4E1F4" offset="0%"/><stop stop-color="#D4E1F4" offset="17.173%"/><stop stop-color="#D4E1F4" offset="20%"/><stop stop-color="#DAE4F4" offset="20.014%"/><stop stop-color="#EBEBF4" offset="20.069%"/><stop stop-color="#F6F1F4" offset="20.136%"/><stop stop-color="#FDF4F4" offset="20.231%"/><stop stop-color="#FFF5F4" offset="20.495%"/><stop stop-color="#FFF5F4" offset="25.222%"/><stop stop-color="#FFF5F4" offset="26%"/><stop stop-color="#D4E1F4" offset="26%"/><stop stop-color="#D4E1F4" offset="39.739%"/><stop stop-color="#D4E1F4" offset="42%"/><stop stop-color="#DAE4F4" offset="42.014%"/><stop stop-color="#EBEBF4" offset="42.069%"/><stop stop-color="#F6F1F4" offset="42.136%"/><stop stop-color="#FDF4F4" offset="42.231%"/><stop stop-color="#FFF5F4" offset="42.495%"/><stop stop-color="#FFF5F4" offset="48.939%"/><stop stop-color="#FFF5F4" offset="50%"/><stop stop-color="#F9F2F4" offset="50.003%"/><stop stop-color="#E8EBF4" offset="50.014%"/><stop stop-color="#DDE5F4" offset="50.028%"/><stop stop-color="#D6E2F4" offset="50.047%"/><stop stop-color="#D4E1F4" offset="50.1%"/><stop stop-color="#D4E1F4" offset="70.622%"/><stop stop-color="#D4E1F4" offset="74%"/><stop stop-color="#FFF5F4" offset="74.1%"/><stop stop-color="#FFF5F4" offset="83.459%"/><stop stop-color="#FFF5F4" offset="85%"/><stop stop-color="#D4E1F4" offset="85.1%"/></linearGradient></defs><g id="Page-1" stroke="none" stroke-width="1" fill="none" fill-rule="evenodd"><g id="035---Multiple-cloud-copies" fill-rule="nonzero"><g id="Colours" transform="translate(1.000000, 1.000000)"><path d="M50,21.41 C50.0158562,23.935198 48.5807946,26.2452972 46.31,27.35 C45.4498962,27.7794566 44.501357,28.002038 43.54,28 L14.46,28 C12.205323,27.9538957 10.1305314,26.7588856 8.95925988,24.831759 C7.78798837,22.9046323 7.68265599,20.5126218 8.68,18.49 C9.58510603,16.6326251 11.3181807,15.3151915 13.35,14.94 C12.3277223,11.5463691 12.8897905,7.87272033 14.88,4.94 C17.0373186,1.73234131 20.698785,-0.133071145 24.5618634,0.00736742676 C28.4249417,0.147805998 31.9412912,2.27416118 33.86,5.63 C34.872759,5.17578769 35.9700499,4.94065394 37.08,4.94 C39.2428853,4.96240249 41.3082687,5.84316307 42.8217176,7.38849379 C44.3351665,8.93382451 45.1726852,11.0171177 45.15,13.18 C45.1466491,13.7892125 45.0762247,14.3962038 44.94,14.99 C47.9177065,15.6877231 50.0173449,18.3516912 50,21.41 Z" id="Shape" fill="#A4C2F7"/><path d="M47,24.41 C47.00661,25.4308749 46.7700898,26.4386567 46.31,27.35 C45.4498962,27.7794566 44.501357,28.002038 43.54,28 L14.46,28 C12.205323,27.9538957 10.1305314,26.7588856 8.95925988,24.831759 C7.78798837,22.9046323 7.68265599,20.5126218 8.68,18.49 C9.20640618,18.2250933 9.76919842,18.0397425 10.35,17.94 C10.2150395,17.5114276 10.1114328,17.0736057 10.04,16.63 C10.9535795,15.7540492 12.1047273,15.1663031 13.35,14.94 C12.3277223,11.5463691 12.8897905,7.87272033 14.88,4.94 C16.724038,3.67066844 18.9113304,2.99389853 21.15,3 C25.1585497,3.01272178 28.8575168,5.15743704 30.86,8.63 C31.872759,8.17578769 32.9700499,7.94065394 34.08,7.94 C36.2428853,7.96240249 38.3082687,8.84316307 39.8217176,10.3884938 C41.3351665,11.9338245 42.1726852,14.0171177 42.15,16.18 C42.1466491,16.7892125 42.0762247,17.3962038 41.94,17.99 C44.9177065,18.6877231 47.0173449,21.3516912 47,24.41 Z" id="Shape" fill="url(#linearGradient-1)"/><path d="M10,48 L10,57 C9.9983526,57.5516009 9.55160093,57.9983526 9,58 L1,58 C0.448399067,57.9983526 0.00164740056,57.5516009 0,57 L0,45 C0.00164740056,44.4483991 0.448399067,44.0016474 1,44 L6,44 L10,48 Z" id="Shape" fill="#A4C2F7"/><path d="M58,48 L58,57 C57.9983526,57.5516009 57.5516009,57.9983526 57,58 L49,58 C48.4483991,57.9983526 48.0016474,57.5516009 48,57 L48,45 C48.0016474,44.4483991 48.4483991,44.0016474 49,44 L54,44 L58,48 Z" id="Shape" fill="#A4C2F7"/><path d="M25,41 L25,50 C24.9983526,50.5516009 24.5516009,50.9983526 24,51 L16,51 C15.4483991,50.9983526 15.0016474,50.5516009 15,50 L15,38 C15.0016474,37.4483991 15.4483991,37.0016474 16,37 L21,37 L25,41 Z" id="Shape" fill="#A4C2F7"/><path d="M43,41 L43,50 C42.9983526,50.5516009 42.5516009,50.9983526 42,51 L34,51 C33.4483991,50.9983526 33.0016474,50.5516009 33,50 L33,38 C33.0016474,37.4483991 33.4483991,37.0016474 34,37 L39,37 L43,41 Z" id="Shape" fill="#A4C2F7"/><path d="M7,48 L7,57 C6.9983526,57.5516009 6.55160093,57.9983526 6,58 L1,58 C0.448399067,57.9983526 0.00164740056,57.5516009 0,57 L0,45 C0.00164740056,44.4483991 0.448399067,44.0016474 1,44 L3,44 L7,48 Z" id="Shape" fill="#E3E7F2"/><path d="M55,48 L55,57 C54.9983526,57.5516009 54.5516009,57.9983526 54,58 L49,58 C48.4483991,57.9983526 48.0016474,57.5516009 48,57 L48,45 C48.0016474,44.4483991 48.4483991,44.0016474 49,44 L51,44 L55,48 Z" id="Shape" fill="#E3E7F2"/><path d="M22,41 L22,50 C21.9983526,50.5516009 21.5516009,50.9983526 21,51 L16,51 C15.4483991,50.9983526 15.0016474,50.5516009 15,50 L15,38 C15.0016474,37.4483991 15.4483991,37.0016474 16,37 L18,37 L22,41 Z" id="Shape" fill="#E3E7F2"/><path d="M40,41 L40,50 C39.9983526,50.5516009 39.5516009,50.9983526 39,51 L34,51 C33.4483991,50.9983526 33.0016474,50.5516009 33,50 L33,38 C33.0016474,37.4483991 33.4483991,37.0016474 34,37 L36,37 L40,41 Z" id="Shape" fill="#E3E7F2"/><polygon id="Shape" fill="#A4C2F7" points="10 48 10 50 4 50 4 44 6 44"/><polygon id="Shape" fill="#A4C2F7" points="58 48 58 50 52 50 52 44 54 44"/><polygon id="Shape" fill="#A4C2F7" points="25 41 25 43 19 43 19 37 21 37"/><polygon id="Shape" fill="#A4C2F7" points="43 41 43 43 37 43 37 37 39 37"/></g><g id="White" transform="translate(1.000000, 1.000000)" fill="#FFFFFF"><path d="M24.15,0 C24.658227,0.00244353474 25.1658334,0.0358386931 25.67,0.1 C22.5022543,0.529495655 19.6682898,2.29026432 17.88,4.94 C15.8897905,7.87272033 15.3277223,11.5463691 16.35,14.94 C13.2434253,15.5305226 10.996527,18.2477996 11,21.41 C10.9824805,23.1406205 11.6533095,24.8072895 12.8648545,26.0432154 C14.0763995,27.2791414 15.7293739,27.9830396 17.46,28 L14.46,28 C12.205323,27.9538957 10.1305314,26.7588856 8.95925988,24.831759 C7.78798837,22.9046323 7.68265599,20.5126218 8.68,18.49 C9.58510603,16.6326251 11.3181807,15.3151915 13.35,14.94 C12.3277223,11.5463691 12.8897905,7.87272033 14.88,4.94 C16.9556332,1.85356659 20.4305482,0.00177801574 24.15,0 Z" id="Shape"/><path d="M19,51 L16,51 C15.4483991,50.9983526 15.0016474,50.5516009 15,50 L15,38 C15.0016474,37.4483991 15.4483991,37.0016474 16,37 L19,37 C18.4483991,37.0016474 18.0016474,37.4483991 18,38 L18,50 C18.0016474,50.5516009 18.4483991,50.9983526 19,51 Z" id="Shape"/><path d="M37,51 L34,51 C33.4483991,50.9983526 33.0016474,50.5516009 33,50 L33,38 C33.0016474,37.4483991 33.4483991,37.0016474 34,37 L37,37 C36.4483991,37.0016474 36.0016474,37.4483991 36,38 L36,50 C36.0016474,50.5516009 36.4483991,50.9983526 37,51 Z" id="Shape"/><path d="M4,58 L1,58 C0.448399067,57.9983526 0.00164740056,57.5516009 0,57 L0,45 C0.00164740056,44.4483991 0.448399067,44.0016474 1,44 L4,44 C3.44839907,44.0016474 3.0016474,44.4483991 3,45 L3,57 C3.0016474,57.5516009 3.44839907,57.9983526 4,58 Z" id="Shape"/><path d="M52,58 L49,58 C48.4483991,57.9983526 48.0016474,57.5516009 48,57 L48,45 C48.0016474,44.4483991 48.4483991,44.0016474 49,44 L52,44 C51.4483991,44.0016474 51.0016474,44.4483991 51,45 L51,57 C51.0016474,57.5516009 51.4483991,57.9983526 52,58 Z" id="Shape"/></g><g id="Icons"><path d="M13.38959,16.22772 C12.0006178,11.6068973 13.3422014,6.59792513 16.8548,3.28992 C19.1080502,1.18715034 22.0718857,0.0122257383 25.15387,-1.35835787e-15 L25.15387,2 C22.5775258,2.01156326 20.1004426,2.99496689 18.21771,4.75366 C15.2622491,7.54140539 14.1345037,11.759149 15.30426,15.6499 L13.38959,16.22772 Z" id="Shape" fill="#FFFFFF"/><path d="M25.15381,0 C22.0718468,0.0122275702 19.1080339,1.18715314 16.85481,3.28992 C16.5817629,3.52841673 16.3270752,3.78714919 16.09291,4.06392 C15.8995413,4.26115058 15.8003358,4.53201758 15.8205786,4.80748372 C15.8408214,5.08294986 15.978557,5.3364051 16.19868,5.50325 C16.6195998,5.81681967 17.2067979,5.77429073 17.57814,5.40334 C17.7733564,5.1697948 17.9872558,4.95252432 18.21772,4.75368 C20.487264,2.62150517 23.6096449,1.64856969 26.6886461,2.11413518 C29.7676472,2.57970068 32.4627909,4.43228464 34.00049,7.14014 C34.2591664,7.58040401 34.8081901,7.75476758 35.27349,7.54443 C36.1543633,7.14578543 37.1103217,6.94018539 38.0772,6.94143 C42.0270662,6.99014587 45.1924693,10.2263121 45.15386,14.17629 C45.1505527,14.7125697 45.0883294,15.2468625 44.96831,15.76955 C44.847729,16.3070944 45.1846158,16.8409167 45.72173,16.9634 C48.4512868,17.6254516 50.2676928,20.2076687 49.9683063,23.0003664 C49.6689199,25.793064 47.3464359,27.9315784 44.53857,28 L36,28 C35.4477153,28 35,28.4477153 35,29 C35,29.5522847 35.4477153,30 36,30 L44.53857,30 C48.1840636,29.9316704 51.2679391,27.2852842 51.888897,23.6924157 C52.509855,20.0995472 50.4930914,16.571614 47.082,15.28369 C47.129115,14.9164249 47.152926,14.5465447 47.15329,14.17627 C47.191149,9.12222996 43.1310571,4.99115037 38.07712,4.94141 C37.1209946,4.94010031 36.1711023,5.09530907 35.26512,5.40088 C33.0085838,2.02449217 29.2148978,-0.00188861854 25.15387,2.69889452e-15 L25.15381,0 Z" id="Shape" fill="#428DFF"/><path d="M14.03979,8.84991 C14.0838803,8.89505107 14.1349755,8.9327706 14.1911,8.96161 C14.2504274,8.99209524 14.311865,9.01828577 14.37494,9.03998 C14.629506,9.11250646 14.9011564,9.09642851 15.14539,8.99438 C15.6099443,8.77885956 15.8297497,8.24160563 15.64948,7.76227 C15.5984187,7.64222079 15.52727,7.53175244 15.43909,7.43561 C15.3530817,7.33633144 15.2495287,7.25373785 15.13361,7.19196 C14.8962214,7.07240498 14.6200796,7.0558688 14.37012,7.14624 C14.1098718,7.25703629 13.9013136,7.46238896 13.7865,7.72089 C13.6912387,7.98634889 13.6961422,8.27745008 13.80029,8.53955 L13.8999,8.70612 C13.9392652,8.76061813 13.9863946,8.80906149 14.03979,8.84991 Z" id="Shape" fill="#428DFF"/><path d="M8,22.41162 C7.97000687,26.5654611 11.307674,29.9599159 15.46143,30 L22,30 C22.5522847,30 23,29.5522847 23,29 C23,28.4477153 22.5522847,28 22,28 L15.46143,28 C12.6070475,27.9340713 10.260996,25.7278776 10.0199677,22.8829257 C9.77893947,20.0379738 11.7203929,17.4685367 14.523,16.92334 C15.0666421,16.8259725 15.4284324,16.3063484 15.3311,15.7627 C15.3190918,15.7258567 15.3048248,15.6897884 15.28838,15.6547 L15.30431,15.64988 C14.9467628,14.4797 14.8003561,13.2552197 14.87194,12.03373 C14.8672045,11.5081953 14.4782427,11.0654186 13.9577,10.993 C13.6841384,10.9572199 13.408414,11.0409418 13.200933,11.2227873 C12.993452,11.4046328 12.8742991,11.6669987 12.8739,11.94289 C12.8082972,13.0437562 12.8961388,14.148397 13.1349,15.22506 C10.0538178,16.2642467 7.98472883,19.1600445 8,22.41162 Z" id="Shape" fill="#428DFF"/><path d="M59.70636,48.2923 L55.70789,44.29382 C55.5195048,44.1069632 55.2653343,44.0014661 55,44 L54,44 L54,35 C53.9981923,33.3438951 52.6561049,32.0018077 51,32 L33,32 L33,24 L37,24 C37.5522847,24 38,23.5522847 38,23 C38,22.4477153 37.5522847,22 37,22 L23,22 C22.4477153,22 22,22.4477153 22,23 C22,23.5522847 22.4477153,24 23,24 L25,24 L25,32 L7,32 C5.34389511,32.0018077 4.00180771,33.3438951 4,35 L4,44 L2,44 C0.895887477,44.0011025 0.00110245966,44.8958875 0,46 L0,58 C0.00110245966,59.1041125 0.895887477,59.9988975 2,60 L10,60 C11.1041125,59.9988975 11.9988975,59.1041125 12,58 L12,49 C11.9984163,48.7349588 11.89315,48.4810663 11.70673,48.29266 L7.70734,44.29327 C7.51893369,44.10685 7.26504122,44.0015837 7,44 L6,44 L6,35 C6.00071619,34.4480122 6.44801218,34.0007162 7,34 L19,34 L19,37 L17,37 C15.8958875,37.0011025 15.0011025,37.8958875 15,39 L15,51 C15.0011025,52.1041125 15.8958875,52.9988975 17,53 L25,53 C26.1041125,52.9988975 26.9988975,52.1041125 27,51 L27,42 C26.9984163,41.7349588 26.89315,41.4810663 26.70673,41.29266 L22.70734,37.29327 C22.5189337,37.10685 22.2650412,37.0015837 22,37 L21,37 L21,34 L26,34 C26.5522847,34 27,33.5522847 27,33 L27,24 L31,24 L31,33 C31,33.5522847 31.4477153,34 32,34 L37,34 L37,37 L35,37 C33.8958875,37.0011025 33.0011025,37.8958875 33,39 L33,51 C33.0011025,52.1041125 33.8958875,52.9988975 35,53 L43,53 C44.1041125,52.9988975 44.9988975,52.1041125 45,51 L45,42 C44.9984163,41.7349588 44.89315,41.4810663 44.70673,41.29266 L40.70734,37.29327 C40.5189337,37.10685 40.2650412,37.0015837 40,37 L39,37 L39,34 L51,34 C51.5520563,34.0005512 51.9994488,34.4479437 52,35 L52,44 L50,44 C48.8959536,44.001262 48.001262,44.8959536 48,46 L48,58 C48.001262,59.1040464 48.8959536,59.998738 50,60 L58,60 C59.1040464,59.998738 59.998738,59.1040464 60,58 L60,49 C59.9985183,48.7347599 59.8930931,48.4806753 59.70636,48.2923 Z M2,58 L2,46 L4,46 L4,51 C4,51.5522847 4.44771525,52 5,52 L10,52 L10,58 L2,58 Z M6.58594,46 L10,49.41406 L10,50 L6,50 L6,46 L6.58594,46 Z M17,51 L17,39 L19,39 L19,44 C19,44.5522847 19.4477153,45 20,45 L25,45 L25,51 L17,51 Z M21.58594,39 L25,42.41406 L25,43 L21,43 L21,39 L21.58594,39 Z M35,51 L35,39 L37,39 L37,44 C37,44.5522847 37.4477153,45 38,45 L43,45 L43,51 L35,51 Z M39.58594,39 L43,42.41406 L43,43 L39,43 L39,39 L39.58594,39 Z M54,46 L54.58594,46 L58,49.41406 L58,50 L54,50 L54,46 Z M50,58 L50,46 L52,46 L52,51 C51.999931,51.2652376 52.1052657,51.5196316 52.292817,51.707183 C52.4803684,51.8947343 52.7347624,52.000069 53,52 L58,52 L58,58 L50,58 Z" id="Shape" fill="#428DFF"/></g></g></g></svg>
