<?xml version="1.0" encoding="UTF-8"?>
<svg xmlns="http://www.w3.org/2000/svg" xmlns:xlink="http://www.w3.org/1999/xlink" width="512" height="512" viewBox="0 0 60 60" version="1.1"><!-- Generator: Sketch 49.3 (51167) - http://www.bohemiancoding.com/sketch --><title>034 - Clone Machine</title><desc>Created with Sketch.</desc><defs><linearGradient x1="-3.09375%" y1="21.98435%" x2="126.46875%" y2="86.765625%" id="linearGradient-1"><stop stop-color="#D4E1F4" offset="0%"/><stop stop-color="#D4E1F4" offset="17.173%"/><stop stop-color="#D4E1F4" offset="20%"/><stop stop-color="#DAE4F4" offset="20.014%"/><stop stop-color="#EBEBF4" offset="20.069%"/><stop stop-color="#F6F1F4" offset="20.136%"/><stop stop-color="#FDF4F4" offset="20.231%"/><stop stop-color="#FFF5F4" offset="20.495%"/><stop stop-color="#FFF5F4" offset="25.222%"/><stop stop-color="#FFF5F4" offset="26%"/><stop stop-color="#D4E1F4" offset="26%"/><stop stop-color="#D4E1F4" offset="39.739%"/><stop stop-color="#D4E1F4" offset="42%"/><stop stop-color="#DAE4F4" offset="42.014%"/><stop stop-color="#EBEBF4" offset="42.069%"/><stop stop-color="#F6F1F4" offset="42.136%"/><stop stop-color="#FDF4F4" offset="42.231%"/><stop stop-color="#FFF5F4" offset="42.495%"/><stop stop-color="#FFF5F4" offset="48.939%"/><stop stop-color="#FFF5F4" offset="50%"/><stop stop-color="#F9F2F4" offset="50.003%"/><stop stop-color="#E8EBF4" offset="50.014%"/><stop stop-color="#DDE5F4" offset="50.028%"/><stop stop-color="#D6E2F4" offset="50.047%"/><stop stop-color="#D4E1F4" offset="50.1%"/><stop stop-color="#D4E1F4" offset="70.622%"/><stop stop-color="#D4E1F4" offset="74%"/><stop stop-color="#FFF5F4" offset="74.1%"/><stop stop-color="#FFF5F4" offset="83.459%"/><stop stop-color="#FFF5F4" offset="85%"/><stop stop-color="#D4E1F4" offset="85.1%"/></linearGradient><linearGradient x1="2795.625%" y1="463.59375%" x2="5736.874%" y2="1198.906%" id="linearGradient-2"><stop stop-color="#D4E1F4" offset="0%"/><stop stop-color="#D4E1F4" offset="17.173%"/><stop stop-color="#D4E1F4" offset="20%"/><stop stop-color="#DAE4F4" offset="20.014%"/><stop stop-color="#EBEBF4" offset="20.069%"/><stop stop-color="#F6F1F4" offset="20.136%"/><stop stop-color="#FDF4F4" offset="20.231%"/><stop stop-color="#FFF5F4" offset="20.495%"/><stop stop-color="#FFF5F4" offset="25.222%"/><stop stop-color="#FFF5F4" offset="26%"/><stop stop-color="#D4E1F4" offset="26%"/><stop stop-color="#D4E1F4" offset="39.739%"/><stop stop-color="#D4E1F4" offset="42%"/><stop stop-color="#DAE4F4" offset="42.014%"/><stop stop-color="#EBEBF4" offset="42.069%"/><stop stop-color="#F6F1F4" offset="42.136%"/><stop stop-color="#FDF4F4" offset="42.231%"/><stop stop-color="#FFF5F4" offset="42.495%"/><stop stop-color="#FFF5F4" offset="48.939%"/><stop stop-color="#FFF5F4" offset="50%"/><stop stop-color="#F9F2F4" offset="50.003%"/><stop stop-color="#E8EBF4" offset="50.014%"/><stop stop-color="#DDE5F4" offset="50.028%"/><stop stop-color="#D6E2F4" offset="50.047%"/><stop stop-color="#D4E1F4" offset="50.1%"/><stop stop-color="#D4E1F4" offset="70.622%"/><stop stop-color="#D4E1F4" offset="74%"/><stop stop-color="#FFF5F4" offset="74.1%"/><stop stop-color="#FFF5F4" offset="83.459%"/><stop stop-color="#FFF5F4" offset="85%"/><stop stop-color="#D4E1F4" offset="85.1%"/></linearGradient></defs><g id="Page-1" stroke="none" stroke-width="1" fill="none" fill-rule="evenodd"><g id="034---Clone-Machine" fill-rule="nonzero"><g id="Colours" transform="translate(1.000000, 10.000000)"><path d="M24,0 L24,40 L2,40 C0.896777692,39.9967543 0.00324565669,39.1032223 2.22044605e-16,38 L2.22044605e-16,36 L7,27 L7,2 C7.00322381,0.896768606 7.89676861,0.00322381203 9,1.77635684e-15 L24,0 Z" id="Shape" fill="#A4C2F7"/><path d="M58,36 L58,38 C57.9967543,39.1032223 57.1032223,39.9967543 56,40 L34,40 L34,0 L49,0 C50.1032314,0.00322381203 50.9967762,0.896768606 51,2 L51,27 L58,36 Z" id="Shape" fill="#A4C2F7"/><path d="M20,0 L20,40 L2,40 C0.896777692,39.9967543 0.00324565669,39.1032223 2.22044605e-16,38 L2.22044605e-16,36 L7,27 L7,2 C7.00322381,0.896768606 7.89676861,0.00322381203 9,1.77635684e-15 L20,0 Z" id="Shape" fill="url(#linearGradient-1)"/><path d="M54,36 L54,38 C53.9967543,39.1032223 53.1032223,39.9967543 52,40 L34,40 L34,0 L45,0 C46.1032314,0.00322381203 46.9967762,0.896768606 47,2 L47,27 L54,36 Z" id="Shape" fill="url(#linearGradient-2)"/><polygon id="Shape" fill="#A4C2F7" points="58 36 34 36 34 27 51 27"/><polygon id="Shape" fill="#A4C2F7" points="24 27 24 36 0 36 7 27"/><polygon id="Shape" fill="#E3E7F2" points="54 36 34 36 34 27 47 27"/><polygon id="Shape" fill="#E3E7F2" points="20 27 20 36 0 36 7 27"/><path d="M58,36 L58,38 C57.9967543,39.1032223 57.1032223,39.9967543 56,40 L34,40 L34,36 L58,36 Z" id="Shape" fill="#E3E7F2"/><path d="M24,36 L24,40 L2,40 C0.896777692,39.9967543 0.00324565669,39.1032223 2.22044605e-16,38 L2.22044605e-16,36 L24,36 Z" id="Shape" fill="#E3E7F2"/></g><g id="White" transform="translate(1.000000, 10.000000)" fill="#FFFFFF"><rect id="Rectangle-path" x="34" y="0" width="3" height="40"/><path d="M12,0 C10.8967686,0.00322381203 10.0032238,0.896768606 10,2 L10,27 L3,36 L3,38 C3.00324566,39.1032223 3.89677769,39.9967543 5,40 L2,40 C0.896777692,39.9967543 0.00324565669,39.1032223 2.22044605e-16,38 L2.22044605e-16,36 L7,27 L7,2 C7.00322381,0.896768606 7.89676861,0.00322381203 9,1.77635684e-15 L12,0 Z" id="Shape"/></g><g id="Icons"><polygon id="Shape" fill="#FFFFFF" points="9 12 9 25 9 37 7 37 7 25 7 12"/><path d="M8,21 C8.40434698,20.9984049 8.76828126,20.7544153 8.92333521,20.3809754 C9.07838917,20.0075356 8.99430271,19.5775256 8.71,19.29 L8.5601,19.16988 C8.50432178,19.1318955 8.44372787,19.1015179 8.37992,19.07955 C8.3231744,19.0507795 8.26242527,19.0307051 8.19971,19.02 C8.13367967,19.0087447 8.06695098,19.0020622 8,19 C7.73523302,19.0036835 7.48163379,19.1072663 7.29,19.29 C7.04738605,19.5237239 6.94092053,19.8651552 7.00769206,20.195352 C7.07446358,20.5255488 7.30522588,20.7987868 7.61959,20.91988 C7.7399307,20.9712163 7.86917622,20.9984374 8,21 Z" id="Shape" fill="#428DFF"/><path d="M59.9231,45.61932 C59.9171,45.6048 59.90686,45.59357 59.90021,45.57941 C59.8707517,45.511037 59.8336274,45.4462288 59.78955,45.38623 L53,36.6568 L53,12 C52.9981923,10.3438951 51.6561049,9.00180771 50,9 L35,9 C34.4477153,9 34,9.44771525 34,10 L34,50 C34,50.5522847 34.4477153,51 35,51 L46,51 L46,57 C45.9992838,57.5519878 45.5519878,57.9992838 45,58 L31,58 L31,2 L42,2 C42.5519878,2.00071619 42.9992838,2.44801218 43,3 L43,4.58594 L41.707,3.293 C41.3155191,2.90854701 40.6873575,2.91139172 40.2993746,3.2993746 C39.9113917,3.68735748 39.908547,4.31551905 40.293,4.707 L43.293,7.707 C43.3788746,7.78982233 43.4790683,7.85637083 43.58871,7.90341 C43.6221613,7.91751706 43.6563981,7.92968391 43.69125,7.93985 C43.7687908,7.96520925 43.8491779,7.98085201 43.93057,7.98642 C43.9541,7.9881 43.97638,8 44,8 C44.01379,8 44.02686,7.99261 44.04065,7.99207 C44.1465408,7.98842811 44.2511882,7.96805281 44.35071,7.9317 C44.36011,7.92816 44.37006,7.92847 44.37933,7.9247 L44.38281,7.92385 C44.4915676,7.87659531 44.5909162,7.8101224 44.67609,7.72762 C44.68549,7.71889 44.69788,7.71621 44.70703,7.70705 L47.70703,4.70705 C48.0941536,4.31600561 48.0925679,3.68565996 47.7034817,3.29656827 C47.3143955,2.90747659 46.6840499,2.90588192 46.293,3.293 L45,4.58594 L45,3 C44.9981923,1.34389511 43.6561049,0.00180771165 42,0 L17,0 C15.3438951,0.00180771165 14.0018077,1.34389511 14,3 L14,9 L10,9 C8.34389511,9.00180771 7.00180771,10.3438951 7,12 L7,16 C7,16.5522847 7.44771525,17 8,17 C8.55228475,17 9,16.5522847 9,16 L9,12 C9.00071619,11.4480122 9.44801218,11.0007162 10,11 L24,11 L24,36 L9,36 L9,24 C9,23.4477153 8.55228475,23 8,23 C7.44771525,23 7,23.4477153 7,24 L7,36.6568 L0.21045,45.38623 C0.166372634,45.4462288 0.129248318,45.511037 0.09979,45.57941 C0.09314,45.59357 0.08289,45.6048 0.0769,45.61932 C0.0335955108,45.7286542 0.0101186156,45.8448298 0.00757,45.9624 C0.00708,45.97559 0,45.98663 0,46 L0,48 C0.00180771165,49.6561049 1.34389511,50.9981923 3,51 L25,51 C25.5522847,51 26,50.5522847 26,50 L26,10 C26,9.44771525 25.5522847,9 25,9 L16,9 L16,3 C16.0007162,2.44801218 16.4480122,2.00071619 17,2 L29,2 L29,58 L20,58 C19.4480122,57.9992838 19.0007162,57.5519878 19,57 L19,55.41406 L20.293,56.70706 C20.5450613,56.962303 20.9145398,57.0629593 21.2612339,56.970834 C21.607928,56.8787087 21.8787045,56.6079207 21.9708151,56.2612227 C22.0629256,55.9145247 21.9622537,55.5450505 21.707,55.293 L18.707,52.293 C18.6207554,52.2096943 18.5200499,52.1428047 18.40982,52.09561 C18.3778209,52.0821952 18.3451043,52.0705608 18.31182,52.06076 C18.2316383,52.0340835 18.1483517,52.0178564 18.06402,52.01248 C18.0302177,52.0089743 17.9962535,52.0072619 17.96227,52.00735 C17.8546311,52.0105139 17.7482311,52.0312332 17.64727,52.06869 C17.63854,52.07199 17.62932,52.07181 17.62066,52.07535 L17.61718,52.0762 C17.5084224,52.1234547 17.4090738,52.1899276 17.3239,52.27243 C17.3145,52.28116 17.30211,52.28384 17.29296,52.293 L14.29296,55.293 C14.0372775,55.544968 13.9362851,55.9146608 14.0283514,56.2616266 C14.1204177,56.6085924 14.3914125,56.8795795 14.7383809,56.971636 C15.0853492,57.0636925 15.4550392,56.9626897 15.707,56.707 L17,55.41406 L17,57 C17.0018077,58.6561049 18.3438951,59.9981923 20,60 L45,60 C46.6561049,59.9981923 47.9981923,58.6561049 48,57 L48,51 L57,51 C58.6561049,50.9981923 59.9981923,49.6561049 60,48 L60,46 C60,45.98663 59.99292,45.97559 59.99243,45.9624 C59.9898814,45.8448298 59.9664045,45.7286542 59.9231,45.61932 Z M8.48926,38 L24,38 L24,41 L14,41 C13.4477153,41 13,41.4477153 13,42 C13,42.5522847 13.4477153,43 14,43 L24,43 L24,45 L3.04443,45 L8.48926,38 Z M2,48 L2,47 L24,47 L24,49 L3,49 C2.44801218,48.9992838 2.00071619,48.5519878 2,48 Z M36,43 L46,43 C46.5522847,43 47,42.5522847 47,42 C47,41.4477153 46.5522847,41 46,41 L36,41 L36,38 L51.51074,38 L56.95557,45 L36,45 L36,43 Z M51,12 L51,36 L36,36 L36,11 L50,11 C50.5519878,11.0007162 50.9992838,11.4480122 51,12 Z M58,48 C57.9992838,48.5519878 57.5519878,48.9992838 57,49 L36,49 L36,47 L58,47 L58,48 Z" id="Shape" fill="#428DFF"/><path d="M10,41 L9,41 C8.44771525,41 8,41.4477153 8,42 C8,42.5522847 8.44771525,43 9,43 L10,43 C10.5522847,43 11,42.5522847 11,42 C11,41.4477153 10.5522847,41 10,41 Z" id="Shape" fill="#428DFF"/><path d="M51,41 L50,41 C49.4477153,41 49,41.4477153 49,42 C49,42.5522847 49.4477153,43 50,43 L51,43 C51.5522847,43 52,42.5522847 52,42 C52,41.4477153 51.5522847,41 51,41 Z" id="Shape" fill="#428DFF"/></g></g></g></svg>
