<?xml version="1.0" encoding="UTF-8"?>
<svg xmlns="http://www.w3.org/2000/svg" xmlns:xlink="http://www.w3.org/1999/xlink" width="512" height="512" viewBox="0 0 60 60" version="1.1"><!-- Generator: Sketch 49.3 (51167) - http://www.bohemiancoding.com/sketch --><title>033 - Download from Cloud</title><desc>Created with Sketch.</desc><defs><linearGradient x1="13.4485865%" y1="17.9187368%" x2="82.4891816%" y2="116.037684%" id="linearGradient-1"><stop stop-color="#D4E1F4" offset="0%"/><stop stop-color="#D4E1F4" offset="17.173%"/><stop stop-color="#D4E1F4" offset="20%"/><stop stop-color="#DAE4F4" offset="20.014%"/><stop stop-color="#EBEBF4" offset="20.069%"/><stop stop-color="#F6F1F4" offset="20.136%"/><stop stop-color="#FDF4F4" offset="20.231%"/><stop stop-color="#FFF5F4" offset="20.495%"/><stop stop-color="#FFF5F4" offset="25.222%"/><stop stop-color="#FFF5F4" offset="26%"/><stop stop-color="#D4E1F4" offset="26%"/><stop stop-color="#D4E1F4" offset="39.739%"/><stop stop-color="#D4E1F4" offset="42%"/><stop stop-color="#DAE4F4" offset="42.014%"/><stop stop-color="#EBEBF4" offset="42.069%"/><stop stop-color="#F6F1F4" offset="42.136%"/><stop stop-color="#FDF4F4" offset="42.231%"/><stop stop-color="#FFF5F4" offset="42.495%"/><stop stop-color="#FFF5F4" offset="48.939%"/><stop stop-color="#FFF5F4" offset="50%"/><stop stop-color="#F9F2F4" offset="50.003%"/><stop stop-color="#E8EBF4" offset="50.014%"/><stop stop-color="#DDE5F4" offset="50.028%"/><stop stop-color="#D6E2F4" offset="50.047%"/><stop stop-color="#D4E1F4" offset="50.1%"/><stop stop-color="#D4E1F4" offset="70.622%"/><stop stop-color="#D4E1F4" offset="74%"/><stop stop-color="#FFF5F4" offset="74.1%"/><stop stop-color="#FFF5F4" offset="83.459%"/><stop stop-color="#FFF5F4" offset="85%"/><stop stop-color="#D4E1F4" offset="85.1%"/></linearGradient></defs><g id="Page-1" stroke="none" stroke-width="1" fill="none" fill-rule="evenodd"><g id="033---Download-from-Cloud" transform="translate(-1.000000, 0.000000)" fill-rule="nonzero"><g id="Colours" transform="translate(1.000000, 1.000000)"><path d="M59,30.59 C59.087712,34.9920033 56.0725857,38.8506968 51.78,39.83 C51.2203107,39.9424871 50.650881,39.99943 50.08,40 L9.92,40 C4.85887387,39.8634264 0.86598235,35.6511945 1,30.59 C0.982294584,27.8366521 2.15205834,25.2092388 4.21,23.38 C4.25749709,23.336968 4.30759133,23.2968926 4.36,23.26 C5.50823303,22.2782234 6.89469521,21.6160325 8.38,21.34 C7.92428893,19.7567294 7.6920435,18.1175479 7.69,16.47 C7.63887313,11.0239023 10.2479402,5.89534987 14.68,2.73 C17.2084339,0.956114878 20.2213697,0.0030077283 23.31,1.33226763e-15 C28.9060186,0.0546581472 34.0337422,3.13511895 36.71,8.05 C38.0989602,7.39683648 39.6151282,7.05877201 41.15,7.06 C47.31,7.06 52.31,12.33 52.31,18.82 C52.3069477,19.6912612 52.2097162,20.5596394 52.02,21.41 C56.1898087,22.4873628 59.0765303,26.2839394 59,30.59 Z" id="Shape" fill="#A4C2F7"/><path d="M55,32.59 C55.0208871,35.354747 53.8471212,37.9938976 51.78,39.83 C51.2203107,39.9424871 50.650881,39.99943 50.08,40 L9.92,40 C4.85887387,39.8634264 0.86598235,35.6511945 1,30.59 C0.982294584,27.8366521 2.15205834,25.2092388 4.21,23.38 C4.26513634,23.3608423 4.32210601,23.3474377 4.38,23.34 C4.36867336,23.3147195 4.36190261,23.2876365 4.36,23.26 C5.50823303,22.2782234 6.89469521,21.6160325 8.38,21.34 C7.92428893,19.7567294 7.6920435,18.1175479 7.69,16.47 C7.63887313,11.0239023 10.2479402,5.89534987 14.68,2.73 C16.1759614,2.24729355 17.7380888,2.00099701 19.31,2 C24.9060186,2.05465815 30.0337422,5.13511895 32.71,10.05 C33.9737968,9.45574751 35.3444468,9.12243809 36.74,9.07 C36.88,9.06 37.01,9.06 37.15,9.06 C43.31,9.06 48.31,14.33 48.31,20.82 C48.3069477,21.6912612 48.2097162,22.5596394 48.02,23.41 C52.1898087,24.4873628 55.0765303,28.2839394 55,32.59 Z" id="Shape" fill="url(#linearGradient-1)"/><polygon id="Shape" fill="#A4C2F7" points="38 49 30 58 28.5 56.31 22 49 26 49 26 40 34 40 34 49"/><polygon id="Shape" fill="#E3E7F2" points="35 49 28.5 56.31 22 49 26 49 26 40 31 40 31 49"/><path d="M42,7 L42,28 L34.89,28 C34.3989229,28.0010998 34.0010998,28.3989229 34,28.89 L34,36 L19,36 C18.4483991,35.9983526 18.0016474,35.5516009 18,35 L18,7 C18.0016474,6.44839907 18.4483991,6.0016474 19,6 L41,6 C41.5516009,6.0016474 41.9983526,6.44839907 42,7 Z" id="Shape" fill="#A4C2F7"/><path d="M39,7 L39,28 L31.89,28 C31.3989229,28.0010998 31.0010998,28.3989229 31,28.89 L31,36 L19,36 C18.4483991,35.9983526 18.0016474,35.5516009 18,35 L18,7 C18.0016474,6.44839907 18.4483991,6.0016474 19,6 L38,6 C38.5516009,6.0016474 38.9983526,6.44839907 39,7 Z" id="Shape" fill="#E3E7F2"/><path d="M42,28 L34,36 L34,28.89 C34.0010998,28.3989229 34.3989229,28.0010998 34.89,28 L42,28 Z" id="Shape" fill="#A4C2F7"/></g><g id="White" transform="translate(1.000000, 1.000000)" fill="#FFFFFF"><path d="M24.77,0.08 C22.220024,0.347124824 19.7800477,1.25910469 17.68,2.73 C13.2479402,5.89534987 10.6388731,11.0239023 10.69,16.47 C10.6920435,18.1175479 10.9242889,19.7567294 11.38,21.34 C9.89469521,21.6160325 8.50823303,22.2782234 7.36,23.26 C7.30759133,23.2968926 7.25749709,23.336968 7.21,23.38 C5.15205834,25.2092388 3.98229458,27.8366521 4,30.59 C3.86598235,35.6511945 7.85887387,39.8634264 12.92,40 L9.92,40 C4.85887387,39.8634264 0.86598235,35.6511945 1,30.59 C0.982294584,27.8366521 2.15205834,25.2092388 4.21,23.38 C4.25749709,23.336968 4.30759133,23.2968926 4.36,23.26 C5.50823303,22.2782234 6.89469521,21.6160325 8.38,21.34 C7.92428893,19.7567294 7.6920435,18.1175479 7.69,16.47 C7.63887313,11.0239023 10.2479402,5.89534987 14.68,2.73 C17.2084339,0.956114878 20.2213697,0.0030077283 23.31,1.32912344e-15 C23.7978525,-0.00354047462 24.2854551,0.0231774731 24.77,0.08 Z" id="Shape"/><polygon id="Shape" points="31.5 56.31 30 58 28.5 56.31 22 49 25 49"/><rect id="Rectangle-path" x="26" y="40" width="3" height="9"/></g><g id="Icons"><path d="M7.69,17.47 C7.66733788,12.821978 9.45525294,8.34774646 12.6749,4.99536 C15.7175747,1.82448705 19.9154792,0.0221781575 24.31,1.80288007e-15 L24.31,2 C20.4561339,2.02124533 16.7756745,3.60466051 14.1102,6.38818 C11.2524418,9.36719441 9.66703225,13.3419519 9.69,17.47 L7.69,17.47 Z" id="Shape" fill="#FFFFFF"/><path d="M25,11 L23,11 C22.4477153,11 22,11.4477153 22,12 C22,12.5522847 22.4477153,13 23,13 L25,13 C25.5522847,13 26,12.5522847 26,12 C26,11.4477153 25.5522847,11 25,11 Z" id="Shape" fill="#428DFF"/><path d="M29,13 L39,13 C39.5522847,13 40,12.5522847 40,12 C40,11.4477153 39.5522847,11 39,11 L29,11 C28.4477153,11 28,11.4477153 28,12 C28,12.5522847 28.4477153,13 29,13 Z" id="Shape" fill="#428DFF"/><path d="M25,15 L23,15 C22.4477153,15 22,15.4477153 22,16 C22,16.5522847 22.4477153,17 23,17 L25,17 C25.5522847,17 26,16.5522847 26,16 C26,15.4477153 25.5522847,15 25,15 Z" id="Shape" fill="#428DFF"/><path d="M29,17 L39,17 C39.5522847,17 40,16.5522847 40,16 C40,15.4477153 39.5522847,15 39,15 L29,15 C28.4477153,15 28,15.4477153 28,16 C28,16.5522847 28.4477153,17 29,17 Z" id="Shape" fill="#428DFF"/><path d="M25,19 L23,19 C22.4477153,19 22,19.4477153 22,20 C22,20.5522847 22.4477153,21 23,21 L25,21 C25.5522847,21 26,20.5522847 26,20 C26,19.4477153 25.5522847,19 25,19 Z" id="Shape" fill="#428DFF"/><path d="M10.99524,8.879 C10.762831,8.74763848 10.4878496,8.71368873 10.23047,8.78458 C9.96429522,8.86775373 9.7427827,9.05453092 9.61584,9.30283 C9.50201556,9.55570095 9.4847759,9.84151074 9.56738,10.10623 L9.65253,10.28085 C9.68705109,10.3388567 9.72960622,10.391687 9.77893,10.43777 C9.8186878,10.4871684 9.8659811,10.5299936 9.91907,10.56467 C9.97503678,10.6012491 10.0335344,10.6338012 10.09412,10.66208 C10.3386307,10.7617032 10.6104953,10.771646 10.86163,10.69015 C10.980185,10.6455465 11.0891351,10.5787204 11.18263,10.49326 C11.4559488,10.2315306 11.5661187,9.84232331 11.47053,9.47617 C11.429489,9.35318758 11.3666621,9.23858977 11.28505,9.13785 C11.2056617,9.03403763 11.1073244,8.94620557 10.99524,8.879 Z" id="Shape" fill="#428DFF"/><path d="M54.16748,21.70068 C54.2613421,21.0781026 54.3089989,20.4494322 54.31006,19.81982 C54.4056493,13.6052139 49.9572585,8.24839406 43.83087,7.20062 C43.5130998,6.47238886 42.7945421,6.00118406 42,6 L36.783,6 C33.7359553,2.23012304 29.1572356,0.0275800854 24.31,0 C19.915488,0.0221782514 15.7175928,1.82448778 12.67493,4.99536 C12.41742,5.23871 12.20447,5.52362 11.96777,5.78644 C11.7812735,5.98573908 11.6885142,6.25505105 11.7127246,6.52692402 C11.736935,6.79879698 11.875822,7.04748077 12.0946,7.21069 C12.5232523,7.52588508 13.1193763,7.47333063 13.48627,7.088 C13.69611,6.85656 13.88171,6.60161 14.11027,6.38817 C16.7757254,3.60466583 20.4561583,2.02125476 24.31,2 L24.31006,2 C27.9560214,2.0176031 31.4523302,3.45196854 34.06018,6 L20,6 C18.8958875,6.00110246 18.0011025,6.89588748 18,8 L18,36 C18.0011025,37.1041125 18.8958875,37.9988975 20,38 L35,38 C35.2651137,37.9987751 35.5191364,37.8934548 35.70734,37.70673 L43.70673,29.70734 L43.70819,29.70544 C43.7885591,29.6222308 43.8537157,29.5255739 43.9007,29.41986 C43.9465802,29.3052289 43.9758264,29.184624 43.98755,29.06171 C43.989,29.04016 44,29.02191 44,29 L44,9.24835 C48.9272406,10.3544026 52.3988546,14.770744 52.31006,19.81982 C52.3067796,20.619096 52.2173972,21.4156926 52.04346,22.19582 C51.9260621,22.7293089 52.2587977,23.2582064 52.79053,23.38332 C56.5190271,24.3388034 59.0940666,27.7420106 59,31.58984 C59.1260944,36.0957395 55.5854291,39.8555707 51.08008,40 L10.91992,40 C6.41457089,39.8555707 2.87390559,36.0957395 3,31.58984 C2.91450544,27.614295 5.67167926,24.1412181 9.563,23.32275 C9.84003625,23.2711033 10.082421,23.1049611 10.2305161,22.8652022 C10.3786111,22.6254433 10.4186677,22.3343264 10.34083,22.06348 C9.9103106,20.5703245 9.69121898,19.0241916 9.68995,17.47021 L9.68988,17.47 L9.69,17.47 C9.70301805,16.2126113 9.85256157,14.9603553 10.136,13.73526 C10.236386,13.2062523 9.91853344,12.6875248 9.40162,12.53677 C9.14165046,12.4629866 8.86266896,12.5013171 8.63223182,12.6424797 C8.40179469,12.7836423 8.24091488,13.0147648 8.18855,13.27988 C7.87023042,14.6542257 7.70305475,16.0592424 7.69,17.46991 L7.68994,17.47021 C7.69057014,18.8633267 7.84797393,20.2519479 8.15918,21.60986 C3.83929838,23.0022846 0.934530058,27.0515653 1,31.58984 C0.874353509,37.2000738 5.31015077,41.8550871 10.91992,42 L26,42 L26,49 L23,49 C22.6062212,49.0001209 22.2491514,49.2312632 22.0878255,49.5904786 C21.9264995,49.949694 21.9909377,50.3701381 22.25244,50.66455 L30.25244,59.66455 C30.44233,59.8779354 30.7143576,60.0000023 31,60.0000023 C31.2856424,60.0000023 31.55767,59.8779354 31.74756,59.66455 L39.74756,50.66455 C40.0090623,50.3701381 40.0735005,49.949694 39.9121745,49.5904786 C39.7508486,49.2312632 39.3937788,49.0001209 39,49 L36,49 L36,42 L51.08008,42 C56.6898492,41.8550871 61.1256465,37.2000738 61,31.58984 C61.0790906,27.1692513 58.3301812,23.1905721 54.16748,21.70068 Z M20,8 L42,8 L42,28 L35.88867,28 C34.8460502,28.0011188 34.0011188,28.8460502 34,29.88867 L34,36 L20,36 L20,8 Z M36,34.58594 L36,30 L40.58594,30 L36,34.58594 Z M36.773,51 L31,57.49463 L25.227,51 L27,51 C27.5522847,51 28,50.5522847 28,50 L28,42 L34,42 L34,50 C34,50.5522847 34.4477153,51 35,51 L36.773,51 Z" id="Shape" fill="#428DFF"/><path d="M39,21 C39.5522847,21 40,20.5522847 40,20 C40,19.4477153 39.5522847,19 39,19 L29,19 C28.4477153,19 28,19.4477153 28,20 C28,20.5522847 28.4477153,21 29,21 L39,21 Z" id="Shape" fill="#428DFF"/></g></g></g></svg>
