<?xml version="1.0" encoding="UTF-8"?>
<svg xmlns="http://www.w3.org/2000/svg" xmlns:xlink="http://www.w3.org/1999/xlink" width="512" height="512" viewBox="0 0 51 60" version="1.1"><!-- Generator: Sketch 49.3 (51167) - http://www.bohemiancoding.com/sketch --><title>032 - Protected Site</title><desc>Created with Sketch.</desc><defs/><g id="Page-1" stroke="none" stroke-width="1" fill="none" fill-rule="evenodd"><g id="032---Protected-Site" transform="translate(-1.000000, 0.000000)" fill-rule="nonzero"><g id="Colours" transform="translate(2.000000, 3.000000)"><path d="M47.9,41.53751 C47.0926811,40.2562678 46.0750801,39.1203411 44.89,38.17751 L44.88,38.17751 C42.2801233,35.9797197 40.7622817,32.7616036 40.72,29.35751 C40.72,29.19751 40.73,29.04751 40.73,28.89751 C40.7777544,27.8028508 40.9866682,26.7212166 41.35,25.68751 C40.8850832,25.9096619 40.434236,26.1601326 40,26.43751 L40,8.96751 C40,8.96751 24.69,6.49751 20.86,0.48751 C20.6789954,0.185090364 20.352449,-3.17679202e-05 20,-3.17679202e-05 C19.647551,-3.17679202e-05 19.3210046,0.185090364 19.14,0.48751 C18.4269559,1.53903331 17.5168349,2.44236239 16.46,3.14751 C16.41,3.18751 16.35,3.21751 16.3,3.25751 C10.52,7.26751 -7.10542736e-15,8.96751 -7.10542736e-15,8.96751 L-7.10542736e-15,28.74751 C0.0191751841,34.6645115 2.57964407,40.2880733 7.03,44.18751 L12.73,49.24751 L20,55.68751 L24.05,52.09751 L27.22,49.28751 C29.1533569,53.3174497 33.2824722,55.8270734 37.75,55.68751 C40.1597948,55.7080567 42.5207698,55.0081216 44.53,53.67751 C46.2408405,52.5737278 47.5763723,50.9766689 48.36,49.09751 C48.7867968,48.0533578 49.0042499,46.9355132 49,45.80751 C48.9950764,44.3147264 48.6169401,42.8468702 47.9,41.53751 Z" id="Shape" fill="#A4C2F7"/><path d="M46,48.80753 C46.0042499,49.9355332 45.7867968,51.0533778 45.36,52.09753 C45.1374323,52.6508894 44.8593441,53.180262 44.53,53.67753 C42.5207698,55.0081416 40.1597948,55.7080767 37.75,55.68753 C33.2824722,55.8270934 29.1533569,53.3174697 27.22,49.28753 L24.05,52.09753 L20,55.68753 L12.73,49.24753 L7.03,44.18753 C2.57964407,40.2880933 0.0191751841,34.6645315 0,28.74753 L0,8.96753 C0,8.96753 10.52,7.26753 16.3,3.25753 C16.35,3.21753 16.41,3.18753 16.46,3.14753 L16.46995,3.15753 C16.6967447,3.01211648 16.9729032,2.96513168 17.2350258,3.02736223 C17.4971484,3.08959278 17.7227184,3.25569298 17.85995,3.48753 C21.68995,9.49753 36.99995,11.96753 36.99995,11.96753 L36.99995,29.43753 C37.434186,29.1601526 37.8850332,28.9096819 38.34995,28.68753 C37.9866182,29.7212366 37.7777044,30.8028708 37.72995,31.89753 C37.72995,32.04753 37.71995,32.19753 37.71995,32.35753 C37.7622317,35.7616236 39.2800733,38.9797397 41.87995,41.17753 L41.88995,41.17753 C43.0750301,42.1203611 44.0926311,43.2562878 44.89995,44.53753 C45.6169075,45.8468856 45.995061,47.3147421 46,48.80753 Z" id="Shape" fill="#E3E7F2"/><path d="M36.35,43.5 C33.9286739,42.338677 32.2716124,40.0172812 31.96,37.35 C31.1416492,37.7729117 30.3819157,38.3006912 29.7,38.92 C29.1035194,39.4474867 28.5730031,40.0451569 28.12,40.7 C27.3330411,41.8283231 26.8132439,43.1209767 26.6,44.48 L26.6,44.49 L20,50.34 L18.55,49.05 L9.69,41.19 C7.854168,39.5790699 6.39329763,37.5857327 5.41,35.35 C4.48280066,33.2730792 4.00241966,31.0244873 4,28.75 L4,12.27 C4.56,12.15 5.15,12 5.78,11.84 L5.79,11.84 C9.64672685,10.9331073 13.36355,9.51028725 16.84,7.61 C17.9573787,6.97323417 19.0150027,6.23691365 20,5.41 C24.44,9.21 31.55,11.28 36,12.27 L36,28.75 C36.0002064,29.2945807 35.9701601,29.8387524 35.91,30.38 C34.6926136,32.1912751 34.028937,34.3178199 34,36.5 L34,36.62 C34.0125228,39.108169 34.8377314,41.5240989 36.35,43.5 Z" id="Shape" fill="#A4C2F7"/><path d="M32,44.78 C30.2706091,43.9138654 28.8981924,42.4707056 28.12,40.7 C27.8438913,40.0405537 27.6718422,39.3422366 27.61,38.63 C24.790605,40.0184063 22.8003783,42.6658533 22.25,45.76 L22.25,45.77 L18.55,49.05 L9.69,41.19 C7.854168,39.5790699 6.39329763,37.5857327 5.41,35.35 C4.48280066,33.2730792 4.00241966,31.0244873 4,28.75 L4,12.41 C4.58,12.24 5.18,12.05 5.78,11.84 L5.79,11.84 C9.64672685,10.9331073 13.36355,9.51028725 16.84,7.61 C21.28,10.83 27.58,12.64 31.65,13.55 L31.65,30.03 C31.650208,30.5745808 31.6201617,31.1187525 31.56,31.66 C31.2309969,32.1485186 30.9433322,32.6636392 30.7,33.2 C30.62,33.38 30.54,33.56 30.47,33.74 C29.9434005,35.0226203 29.6651388,36.3935684 29.65,37.78 L29.65,37.9 C29.65,38.24 29.67,38.59 29.7,38.92 C29.905528,41.049518 30.7021625,43.0792042 32,44.78 Z" id="Shape" fill="#E3E7F2"/><path d="M31,25 L27,25 L27,36 L22,36 L22,31 C22,29.8954305 21.1045695,29 20,29 C18.8954305,29 18,29.8954305 18,31 L18,36 L13,36 L13,25 L9,25 L20,15 L31,25 Z" id="Shape" fill="#A4C2F7"/><path d="M22,31 L22,36 L18,36 L18,31 C18,29.8954305 18.8954305,29 20,29 C21.1045695,29 22,29.8954305 22,31 Z" id="Shape" fill="#E3E7F2"/><path d="M47.9,41.53751 C47.0926811,40.2562678 46.0750801,39.1203411 44.89,38.17751 L44.88,38.17751 C42.2801233,35.9797197 40.7622817,32.7616036 40.72,29.35751 C40.72,29.19751 40.73,29.04751 40.73,28.89751 C40.7777544,27.8028508 40.9866682,26.7212166 41.35,25.68751 C40.8850832,25.9096619 40.434236,26.1601326 40,26.43751 C38.5276563,27.331664 37.2492051,28.5115112 36.24,29.90751 C36.18,29.97751 36.13,30.04751 36.08,30.11751 C36.02,30.20751 35.96,30.28751 35.91,30.37751 C34.6926136,32.1887851 34.028937,34.3153299 34,36.49751 L34,36.61751 C34.0125228,39.105679 34.8377314,41.5216089 36.35,43.49751 C33.9286739,42.336187 32.2716124,40.0147912 31.96,37.34751 C31.1611581,37.7663675 30.4157716,38.2800798 29.74,38.87751 C29.2535376,39.3085203 28.8082809,39.7839072 28.41,40.29751 C27.4627552,41.51528 26.8399902,42.9534886 26.6,44.47751 L26.6,44.48751 C26.5311893,44.9241009 26.4977473,45.3655355 26.5,45.80751 C26.4982035,47.0046731 26.743308,48.1893445 27.22,49.28751 C28.7628808,52.6082053 31.8690652,54.9331486 35.49,55.47751 C36.2350273,55.6186085 36.9917306,55.6889216 37.75,55.68751 C42.65,55.68751 46.81,52.93751 48.36,49.09751 C48.7867968,48.0533578 49.0042499,46.9355132 49,45.80751 C48.9950764,44.3147264 48.6169401,42.8468702 47.9,41.53751 Z" id="Shape" fill="#A4C2F7"/><path d="M44.5,45.80753 C44.5042499,46.9355332 44.2867968,48.0533778 43.86,49.09753 C42.3490768,52.5191281 39.189669,54.9273744 35.49,55.47753 C31.8690652,54.9331686 28.7628808,52.6082253 27.22,49.28753 C26.743308,48.1893645 26.4982035,47.0046931 26.5,45.80753 C26.4977473,45.3655555 26.5311893,44.9241209 26.6,44.48753 L26.6,44.47753 C26.8399902,42.9535086 27.4627552,41.5153 28.41,40.29753 C28.8082809,39.7839272 29.2535376,39.3085403 29.74,38.87753 C30.4157716,38.2800998 31.1611581,37.7663875 31.96,37.34753 C32.2716124,40.0148112 33.9286739,42.336207 36.35,43.49753 C34.8377314,41.5216289 34.0125228,39.105699 34,36.61753 L34,36.49753 C34.028937,34.3153499 34.6926136,32.1888051 35.91,30.37753 C35.96,30.28753 36.02005,30.20753 36.08,30.11753 C36.13,30.04753 36.18,29.97753 36.24,29.90753 C36.4345395,33.1134052 37.9300139,36.1007417 40.38,38.17753 L40.39,38.17753 C41.5750801,39.1203611 42.5926811,40.2562878 43.4,41.53753 C44.1169401,42.8468902 44.4950764,44.3147464 44.5,45.80753 Z" id="Shape" fill="#E3E7F2"/></g><g id="White" transform="translate(2.000000, 3.000000)" fill="#FFFFFF"><path d="M3,8.97 L3,28.75 C3.01917518,34.6670015 5.57964407,40.2905633 10.03,44.19 L15.73,49.25 L21.5,54.36 L20,55.69 L12.73,49.25 L7.03,44.19 C2.57964407,40.2905633 0.0191751841,34.6670015 0,28.75 L0,8.97 C0,8.97 10.52,7.27 16.3,3.26 C16.35,3.22 16.41,3.19 16.46,3.14995 C17.5168371,2.44480515 18.4269587,1.54147558 19.14,0.48995 C19.3210084,0.187535475 19.6475535,0.00241770364 20,0.00241770364 C20.3524465,0.00241770364 20.6789916,0.187535475 20.86,0.48995 C21.0522829,0.788537001 21.2661891,1.07263118 21.5,1.33995 C20.8982123,2.02606512 20.2128814,2.63412828 19.46,3.14995 C19.41,3.18995 19.35,3.21995 19.3,3.26 C13.52,7.27 3,8.97 3,8.97 Z" id="Shape"/></g><g id="Icons"><polygon id="Shape" fill="#FFFFFF" points="3 12.28 3 25.28 3 32.06 1 32.06 1 25.28 1 12.28"/><path d="M2,21.28 C2.40434698,21.2784049 2.76828126,21.0344153 2.92333521,20.6609754 C3.07838917,20.2875356 2.99430271,19.8575256 2.71,19.57 L2.5601,19.44988 C2.50432178,19.4118955 2.44372787,19.3815179 2.37992,19.35955 C2.32318985,19.330772 2.26245377,19.3106907 2.19975,19.29998 C2.13370667,19.2887247 2.06696421,19.2820488 2,19.28 C1.73523302,19.2836835 1.48163379,19.3872663 1.29,19.57 C1.04733062,19.8037261 0.940833485,20.1451988 1.0076163,20.4754356 C1.07439911,20.8056725 1.30521167,21.078932 1.61963,21.2 C1.73996663,21.25129 1.86919774,21.2784701 2,21.28 Z" id="Shape" fill="#428DFF"/><path d="M47.54346,40.7373 C45.1557308,38.7316309 43.7611124,35.784607 43.72412,32.6665 C43.72412,32.53174 43.72612,32.39893 43.7334,32.25391 C43.7737333,31.2568938 43.9618156,30.2713841 44.2915,29.32959 C44.4247779,28.947402 44.3145227,28.5225626 44.01221,28.25342 C43.7351104,28.0087594 43.3447871,27.9388551 43,28.07214 L43,12.27979 C42.9998876,11.7889795 42.6437099,11.3707475 42.15918,11.29248 C36.83008,10.43457 23,6.91309 23,1 C23,0.44771525 22.5522847,3.38176876e-17 22,0 C21.4477153,-3.38176876e-17 21,0.44771525 21,1 C21,6.9082 7.16992,10.43311 1.84082,11.29248 C1.3608899,11.3740403 1.01203032,11.7932389 1.019,12.28 L1,12.28 L1,16.28 C1,16.8322847 1.44771525,17.28 2,17.28 C2.55228475,17.28 3,16.8322847 3,16.28 L3,13.122 C6.59058,12.46935 18.46649,9.9262 22,4.3222 C25.5332,9.9252 37.40771,12.4692 41,13.122 L41,29.21893 C40.2866074,29.7054974 39.6173652,30.2538309 39,30.8576 L39,15.58008 C39.0001904,15.1114581 38.6747593,14.7056286 38.21729,14.604 C34.27829,13.72754 27.01855,11.69922 22.65039,7.96045 C22.2759523,7.64014074 21.7240477,7.64014074 21.34961,7.96045 C16.98145,11.69922 9.72168,13.72754 5.78271,14.604 C5.32524073,14.7056286 4.99980964,15.1114581 5,15.58008 L5,32.06008 C5.02331015,37.1171706 7.21823229,41.9204989 11.02637,45.24808 L21.33643,54.398 C21.7148528,54.7337442 22.2844193,54.7339546 22.66309,54.39849 L27.55359,50.06377 C27.6260097,50.829406 27.7888676,51.5837683 28.03876,52.31109 L22,57.66406 L9.69287,46.75146 C5.46411482,43.0364099 3.02795641,37.6888419 3,32.06006 L3,32.06 L3,24.28 C3,23.7277153 2.55228475,23.28 2,23.28 C1.44771525,23.28 1,23.7277153 1,24.28 L1,32.06 L1,32.06006 C1.02815111,38.2609198 3.70918815,44.1531649 8.36572,48.24806 L21.33691,59.74854 C21.7153966,60.0838204 22.2846034,60.0838204 22.66309,59.74854 L28.92352,54.19934 C31.2723964,57.8901615 35.3760439,60.0888321 39.75,60 C44.91406,60 49.55029,57.10156 51.28516,52.78955 C52.3938174,50.0500328 52.2053912,46.9562712 50.77246,44.37155 C49.9138131,42.9829487 48.8213647,41.7533944 47.54346,40.7373 Z M22.00046,52.31348 L12.35104,43.74948 C8.97246856,40.8014908 7.0234813,36.5439015 7,32.06006 L7,16.377 C11.70313,15.27251 17.77344,13.313 22,10.01128 C26.22656,13.313 32.29688,15.27246 37,16.377 L37,32.06006 C37,32.50354 36.96954,32.93286 36.92816,33.36694 C35.708081,35.2751981 35.0420658,37.4848638 35.00439,39.74951 C35.00049,39.80859 35,39.87158 35,39.93066 C34.9998444,40.4250581 35.0301753,40.9189954 35.09082,41.40966 C35.0256312,41.1341476 34.9804302,40.8542859 34.95557,40.57226 C34.9262276,40.2387403 34.7319607,39.9420201 34.4380083,39.7817443 C34.1440558,39.6214685 33.7894068,39.6188958 33.49316,39.77489 C30.5369288,41.2695954 28.4117595,44.0170108 27.70795,47.254 L22.00046,52.31348 Z M49.43063,52.04048 C47.99658,55.605 44.106,58 39.75,58 C34.09814,58 29.5,54.01855 29.5,49.125 C29.5446461,46.3610102 30.9461535,43.7958703 33.248,42.26514 C33.9838493,44.6372653 35.6640915,46.6016712 37.8935,47.69629 C38.3081201,47.909484 38.8150491,47.8078922 39.1154993,47.4513936 C39.4159494,47.094895 39.4301993,46.5780828 39.14985,46.20557 C37.7659967,44.405484 37.0107777,42.2011762 37,39.93066 L36,39.93066 L37.00244,39.82275 C37.0326639,37.8094521 37.6506252,35.848878 38.78033,34.18213 L38.7832,34.17767 C38.8222,34.11926 38.85669,34.05884 38.89697,34.00098 C39.7000709,32.8593443 40.6925799,31.8635309 41.83154,31.05664 C41.7822067,31.42432 41.7503067,31.79281 41.73584,32.16211 C41.72705,32.32959 41.72412,32.49658 41.72412,32.6665 C41.7582645,36.3641159 43.4041765,39.86276 46.231,42.24658 C47.3284776,43.1098741 48.2711061,44.1535674 49.01855,45.333 C49.6625162,46.493103 50.00029,47.7981499 50,49.125 C50.0005035,50.1245127 49.8071537,51.1146367 49.43066,52.04053 L49.43063,52.04048 Z" id="Shape" fill="#428DFF"/><path d="M29,40 C29.5522847,40 30,39.5522847 30,39 L30,29 L33,29 C33.4130809,28.9999869 33.7836409,28.7459845 33.9326448,28.3607136 C34.0816487,27.9754427 33.9784266,27.5382046 33.67285,27.26025 L22.67285,17.26025 C22.2912674,16.9135697 21.7087326,16.9135697 21.32715,17.26025 L10.32715,27.26025 C10.0215734,27.5382046 9.9183513,27.9754427 10.0673552,28.3607136 C10.2163591,28.7459845 10.5869191,28.9999869 11,29 L14,29 L14,39 C14,39.5522847 14.4477153,40 15,40 L29,40 Z M15,27 L13.58643,27 L22,19.35156 L30.41357,27 L29,27 C28.4477153,27 28,27.4477153 28,28 L28,38 L25,38 L25,34 C25,32.3431458 23.6568542,31 22,31 C20.3431458,31 19,32.3431458 19,34 L19,38 L16,38 L16,28 C16,27.4477153 15.5522847,27 15,27 Z M21,38 L21,34 C21,33.4477153 21.4477153,33 22,33 C22.5522847,33 23,33.4477153 23,34 L23,38 L21,38 Z" id="Shape" fill="#428DFF"/></g></g></g></svg>
