<?xml version="1.0" encoding="UTF-8"?>
<svg xmlns="http://www.w3.org/2000/svg" xmlns:xlink="http://www.w3.org/1999/xlink" width="512" height="512" viewBox="0 0 60 60" version="1.1"><!-- Generator: Sketch 49.3 (51167) - http://www.bohemiancoding.com/sketch --><title>031 - Download from Remote Server</title><desc>Created with Sketch.</desc><defs><linearGradient x1="9.25304878%" y1="-9.69907407%" x2="90.7469512%" y2="114.050926%" id="linearGradient-1"><stop stop-color="#D4E1F4" offset="0%"/><stop stop-color="#D4E1F4" offset="17.173%"/><stop stop-color="#D4E1F4" offset="20%"/><stop stop-color="#DAE4F4" offset="20.014%"/><stop stop-color="#EBEBF4" offset="20.069%"/><stop stop-color="#F6F1F4" offset="20.136%"/><stop stop-color="#FDF4F4" offset="20.231%"/><stop stop-color="#FFF5F4" offset="20.495%"/><stop stop-color="#FFF5F4" offset="25.222%"/><stop stop-color="#FFF5F4" offset="26%"/><stop stop-color="#D4E1F4" offset="26%"/><stop stop-color="#D4E1F4" offset="39.739%"/><stop stop-color="#D4E1F4" offset="42%"/><stop stop-color="#DAE4F4" offset="42.014%"/><stop stop-color="#EBEBF4" offset="42.069%"/><stop stop-color="#F6F1F4" offset="42.136%"/><stop stop-color="#FDF4F4" offset="42.231%"/><stop stop-color="#FFF5F4" offset="42.495%"/><stop stop-color="#FFF5F4" offset="48.939%"/><stop stop-color="#FFF5F4" offset="50%"/><stop stop-color="#F9F2F4" offset="50.003%"/><stop stop-color="#E8EBF4" offset="50.014%"/><stop stop-color="#DDE5F4" offset="50.028%"/><stop stop-color="#D6E2F4" offset="50.047%"/><stop stop-color="#D4E1F4" offset="50.1%"/><stop stop-color="#D4E1F4" offset="70.622%"/><stop stop-color="#D4E1F4" offset="74%"/><stop stop-color="#FFF5F4" offset="74.1%"/><stop stop-color="#FFF5F4" offset="83.459%"/><stop stop-color="#FFF5F4" offset="85%"/><stop stop-color="#D4E1F4" offset="85.1%"/></linearGradient></defs><g id="Page-1" stroke="none" stroke-width="1" fill="none" fill-rule="evenodd"><g id="031---Download-from-Remote-Server" fill-rule="nonzero"><g id="Colours" transform="translate(1.000000, 1.000000)"><path d="M16,2 L16,8 L12.25,8 C11.6315825,8.05915871 11.0780344,7.61632016 11,7 L11,3 C11.0780344,2.38367984 11.6315825,1.94084129 12.25,2 L16,2 Z" id="Shape" fill="#E3E7F2"/><rect id="Rectangle-path" fill="#E3E7F2" x="0" y="3" width="12" height="4"/><rect id="Rectangle-path" fill="#E3E7F2" x="45" y="3" width="13" height="4"/><path d="M47,3 L47,7 C47,7.55 46.325,8 45.5,8 L41,8 L41,2 L45.5,2 C46.325,2 47,2.45 47,3 Z" id="Shape" fill="#E3E7F2"/><path d="M51,45 L51,20 C50.9967762,18.8967686 50.1032314,18.0032238 49,18 L40,18 L40,17 C39.9983526,16.4483991 39.5516009,16.0016474 39,16 L31,16 L31,10 L27,10 L27,16 L19,16 C18.4483991,16.0016474 18.0016474,16.4483991 18,17 L18,18 L9,18 C7.89676861,18.0032238 7.00322381,18.8967686 7,20 L7,45 L0,54 L0,56 C0.00324565669,57.1032223 0.896777692,57.9967543 2,58 L56,58 C57.1032223,57.9967543 57.9967543,57.1032223 58,56 L58,54 L51,45 Z" id="Shape" fill="#E3E7F2"/><path d="M51,20 L51,45 L7,45 L7,20 C7.00322381,18.8967686 7.89676861,18.0032238 9,18 L18,18 L18,41 L40,41 L40,18 L49,18 C50.1032314,18.0032238 50.9967762,18.8967686 51,20 Z" id="Shape" fill="#A4C2F7"/><path d="M48,20 L48,45 L7,45 L7,20 C7.00322381,18.8967686 7.89676861,18.0032238 9,18 L15,18 L15,41 L40,41 L40,18 L46,18 C47.1032314,18.0032238 47.9967762,18.8967686 48,20 Z" id="Shape" fill="url(#linearGradient-1)"/><polygon id="Shape" fill="#A4C2F7" points="58 54 0 54 7 45 51 45"/><polygon id="Shape" fill="#E3E7F2" points="54 54 0 54 7 45 47 45"/><path d="M58,54 L58,56 C57.9967543,57.1032223 57.1032223,57.9967543 56,58 L2,58 C0.896777692,57.9967543 0.00324565669,57.1032223 2.22044605e-16,56 L2.22044605e-16,54 L58,54 Z" id="Shape" fill="#E3E7F2"/><polygon id="Shape" fill="#E3E7F2" points="34 20 29 25 24 20 27 20 27 10 31 10 31 20"/><path d="M24,30 L22,30 C21.4477153,30 21,29.5522847 21,29 C21,28.4477153 21.4477153,28 22,28 L24,28 C24.5522847,28 25,28.4477153 25,29 C25,29.5522847 24.5522847,30 24,30 Z" id="Shape" fill="#BDC3C7"/><path d="M36,30 L28,30 C27.4477153,30 27,29.5522847 27,29 C27,28.4477153 27.4477153,28 28,28 L36,28 C36.5522847,28 37,28.4477153 37,29 C37,29.5522847 36.5522847,30 36,30 Z" id="Shape" fill="#BDC3C7"/><path d="M24,34 L22,34 C21.4477153,34 21,33.5522847 21,33 C21,32.4477153 21.4477153,32 22,32 L24,32 C24.5522847,32 25,32.4477153 25,33 C25,33.5522847 24.5522847,34 24,34 Z" id="Shape" fill="#BDC3C7"/><path d="M36,34 L28,34 C27.4477153,34 27,33.5522847 27,33 C27,32.4477153 27.4477153,32 28,32 L36,32 C36.5522847,32 37,32.4477153 37,33 C37,33.5522847 36.5522847,34 36,34 Z" id="Shape" fill="#BDC3C7"/><path d="M24,38 L22,38 C21.4477153,38 21,37.5522847 21,37 C21,36.4477153 21.4477153,36 22,36 L24,36 C24.5522847,36 25,36.4477153 25,37 C25,37.5522847 24.5522847,38 24,38 Z" id="Shape" fill="#BDC3C7"/><path d="M36,38 L28,38 C27.4477153,38 27,37.5522847 27,37 C27,36.4477153 27.4477153,36 28,36 L36,36 C36.5522847,36 37,36.4477153 37,37 C37,37.5522847 36.5522847,38 36,38 Z" id="Shape" fill="#BDC3C7"/><rect id="Rectangle-path" fill="#A4C2F7" x="15" y="0" width="28" height="10" rx="1"/><path d="M39,1 L39,9 C39.0347805,9.51129738 38.6534613,9.95617123 38.14286,10 L15.85714,10 C15.3465387,9.95617123 14.9652195,9.51129738 15,9 L15,1 C14.9652195,0.488702621 15.3465387,0.0438287744 15.85714,0 L38.14286,0 C38.6534613,0.0438287744 39.0347805,0.488702621 39,1 Z" id="Shape" fill="#E3E7F2"/><circle id="Oval" fill="#E3E7F2" cx="37" cy="5" r="2"/></g><g id="White" transform="translate(1.000000, 4.000000)" fill="#FFFFFF"><path d="M9,15 L12,15 C10.8967686,15.0032238 10.0032238,15.8967686 10,17 L10,42 L3,51 L3,53 C3.00324566,54.1032223 3.89677769,54.9967543 5,55 L2,55 C0.896777692,54.9967543 0.00324565669,54.1032223 2.22044605e-16,53 L2.22044605e-16,51 L7,42 L7,17 C7.00322381,15.8967686 7.89676861,15.0032238 9,15 Z" id="Shape"/><rect id="Rectangle-path" x="0" y="0" width="3" height="4"/></g><g id="Icons"><polygon id="Shape" fill="#FFFFFF" points="9 21 9 34 9 46 7 46 7 34 7 21"/><path d="M9,21 C9.00071619,20.4480122 9.44801218,20.0007162 10,20 L15,20 C15.5522847,20 16,19.5522847 16,19 C16,18.4477153 15.5522847,18 15,18 L10,18 C8.34389511,18.0018077 7.00180771,19.3438951 7,21 L7,25 C7,25.5522847 7.44771525,26 8,26 C8.55228475,26 9,25.5522847 9,25 L9,21 Z" id="Shape" fill="#428DFF"/><path d="M8.37988,28.07959 C8.32314916,28.0508094 8.26241371,28.0307216 8.19971,28.02 C8.13367967,28.0087447 8.06695098,28.0020622 8,28 C7.73523302,28.0036835 7.48163379,28.1072663 7.29,28.29 C7.04738605,28.5237239 6.94092053,28.8651552 7.00769206,29.195352 C7.07446358,29.5255488 7.30522588,29.7987868 7.61959,29.91988 C7.7399307,29.9712163 7.86917622,29.9984374 8,30 C8.40434698,29.9984049 8.76828126,29.7544153 8.92333521,29.3809754 C9.07838917,29.0075356 8.99430271,28.5775256 8.71,28.29 L8.5601,28.16988 C8.50430713,28.1319063 8.44369968,28.1015421 8.37988,28.07959 Z" id="Shape" fill="#428DFF"/><path d="M59.9231,54.61932 C59.9171,54.6048 59.90686,54.59357 59.90021,54.57941 C59.8707517,54.511037 59.8336274,54.4462288 59.78955,54.38623 L53,45.6568 L53,21 C52.9981923,19.3438951 51.6561049,18.0018077 50,18 L45,18 C44.4477153,18 44,18.4477153 44,19 C44,19.5522847 44.4477153,20 45,20 L50,20 C50.5519878,20.0007162 50.9992838,20.4480122 51,21 L51,45 L9,45 L9,33 C9,32.4477153 8.55228475,32 8,32 C7.44771525,32 7,32.4477153 7,33 L7,45.6568 L0.21045,54.38623 C0.166372634,54.4462288 0.129248318,54.511037 0.09979,54.57941 C0.09314,54.59357 0.08289,54.6048 0.0769,54.61932 C0.0335955108,54.7286542 0.0101186156,54.8448298 0.00757,54.9624 C0.00708,54.97559 0,54.98663 0,55 L0,57 C0.00180771165,58.6561049 1.34389511,59.9981923 3,60 L57,60 C58.6561049,59.9981923 59.9981923,58.6561049 60,57 L60,55 C60,54.98663 59.99292,54.97559 59.99243,54.9624 C59.9898814,54.8448298 59.9664045,54.7286542 59.9231,54.61932 Z M8.48926,47 L51.51074,47 L56.95557,54 L3.04443,54 L8.48926,47 Z M58,57 C57.9992838,57.5519878 57.5519878,57.9992838 57,58 L3,58 C2.44801218,57.9992838 2.00071619,57.5519878 2,57 L2,56 L58,56 L58,57 Z" id="Shape" fill="#428DFF"/><path d="M46,50 L14,50 C13.4477153,50 13,50.4477153 13,51 C13,51.5522847 13.4477153,52 14,52 L46,52 C46.5522847,52 47,51.5522847 47,51 C47,50.4477153 46.5522847,50 46,50 Z" id="Shape" fill="#428DFF"/><path d="M10,50 L9,50 C8.44771525,50 8,50.4477153 8,51 C8,51.5522847 8.44771525,52 9,52 L10,52 C10.5522847,52 11,51.5522847 11,51 C11,50.4477153 10.5522847,50 10,50 Z" id="Shape" fill="#428DFF"/><path d="M51,50 L50,50 C49.4477153,50 49,50.4477153 49,51 C49,51.5522847 49.4477153,52 50,52 L51,52 C51.5522847,52 52,51.5522847 52,51 C52,50.4477153 51.5522847,50 51,50 Z" id="Shape" fill="#428DFF"/><path d="M29,3 L20,3 C19.4477153,3 19,3.44771525 19,4 C19,4.55228475 19.4477153,5 20,5 L29,5 C29.5522847,5 30,4.55228475 30,4 C30,3.44771525 29.5522847,3 29,3 Z" id="Shape" fill="#428DFF"/><path d="M29,7 L20,7 C19.4477153,7 19,7.44771525 19,8 C19,8.55228475 19.4477153,9 20,9 L29,9 C29.5522847,9 30,8.55228475 30,8 C30,7.44771525 29.5522847,7 29,7 Z" id="Shape" fill="#428DFF"/><path d="M38,3 C36.3431458,3 35,4.34314575 35,6 C35,7.65685425 36.3431458,9 38,9 C39.6568542,9 41,7.65685425 41,6 C40.9981923,4.34389511 39.6561049,3.00180771 38,3 Z M38,7 C37.4477153,7 37,6.55228475 37,6 C37,5.44771525 37.4477153,5 38,5 C38.5522847,5 39,5.44771525 39,6 C38.9992838,6.55198782 38.5519878,6.99928381 38,7 Z" id="Shape" fill="#428DFF"/><path d="M59,3 L48.72186,3 C48.3674528,2.38331147 47.7112695,2.00222163 47,2 L45,2 C44.9988975,0.895887477 44.1041125,0.00110245966 43,8.89066598e-16 L17,8.89066598e-16 C15.8958875,0.00110245966 15.0011025,0.895887477 15,2 L13,2 C12.2887305,2.00222163 11.6325472,2.38331147 11.27814,3 L1,3 C0.44771525,3 1.04869017e-15,3.44771525 0,4 L0,8 C6.76353751e-17,8.55228475 0.44771525,9 1,9 L11.27814,9 C11.6325472,9.61668853 12.2887305,9.99777837 13,10 L15,10 C15.0011025,11.1041125 15.8958875,11.9988975 17,12 L27,12 L27,16 L20,16 C18.8958875,16.0011025 18.0011025,16.8958875 18,18 L18,41 L11,41 C10.4477153,41 10,41.4477153 10,42 C10,42.5522847 10.4477153,43 11,43 L49,43 C49.5522847,43 50,42.5522847 50,42 C50,41.4477153 49.5522847,41 49,41 L42,41 L42,18 C41.9988975,16.8958875 41.1041125,16.0011025 40,16 L33,16 L33,12 L43,12 C44.1041125,11.9988975 44.9988975,11.1041125 45,10 L47,10 C47.7112695,9.99777837 48.3674528,9.61668853 48.72186,9 L59,9 C59.5522847,9 60,8.55228475 60,8 L60,4 C60,3.44771525 59.5522847,3 59,3 Z M2,5 L11,5 L11,7 L2,7 L2,5 Z M13,8 L13,4 L15,4 L15,8 L13,8 Z M40,18 L40,41 L20,41 L20,18 L27,18 L27,20 L25,20 C24.5955614,19.9999985 24.2309482,20.2436325 24.0761879,20.6172899 C23.9214277,20.9909473 24.0069998,21.4210377 24.293,21.707 L29.293,26.707 C29.480482,26.8945801 29.734821,26.9999697 30.00003,26.9999697 C30.265239,26.9999697 30.519578,26.8945801 30.70706,26.707 L35.70706,21.707 C35.9930679,21.42103 36.0786362,20.990925 35.9238606,20.6172622 C35.7690849,20.2435994 35.4044495,19.9999742 35,20 L33,20 L33,18 L40,18 Z M31,21 C31,21.5522847 31.4477153,22 32,22 L32.58594,22 L30,24.58594 L27.41406,22 L28,22 C28.5522847,22 29,21.5522847 29,21 L29,12 L31,12 L31,21 Z M32,10 L17,10 L17,2 L43,2 L43.00018,2.99908 L43,3 L43,9 L43.00128,9.00635 L43.00146,10 L32,10 Z M45,8 L45,4 L47,4 L47,8 L45,8 Z M58,7 L49,7 L49,5 L58,5 L58,7 Z" id="Shape" fill="#428DFF"/><path d="M25,29 L23,29 C22.4477153,29 22,29.4477153 22,30 C22,30.5522847 22.4477153,31 23,31 L25,31 C25.5522847,31 26,30.5522847 26,30 C26,29.4477153 25.5522847,29 25,29 Z" id="Shape" fill="#428DFF"/><path d="M28,30 C28,30.5522847 28.4477153,31 29,31 L37,31 C37.5522847,31 38,30.5522847 38,30 C38,29.4477153 37.5522847,29 37,29 L29,29 C28.4477153,29 28,29.4477153 28,30 Z" id="Shape" fill="#428DFF"/><path d="M25,33 L23,33 C22.4477153,33 22,33.4477153 22,34 C22,34.5522847 22.4477153,35 23,35 L25,35 C25.5522847,35 26,34.5522847 26,34 C26,33.4477153 25.5522847,33 25,33 Z" id="Shape" fill="#428DFF"/><path d="M37,33 L29,33 C28.4477153,33 28,33.4477153 28,34 C28,34.5522847 28.4477153,35 29,35 L37,35 C37.5522847,35 38,34.5522847 38,34 C38,33.4477153 37.5522847,33 37,33 Z" id="Shape" fill="#428DFF"/><path d="M25,37 L23,37 C22.4477153,37 22,37.4477153 22,38 C22,38.5522847 22.4477153,39 23,39 L25,39 C25.5522847,39 26,38.5522847 26,38 C26,37.4477153 25.5522847,37 25,37 Z" id="Shape" fill="#428DFF"/><path d="M37,37 L29,37 C28.4477153,37 28,37.4477153 28,38 C28,38.5522847 28.4477153,39 29,39 L37,39 C37.5522847,39 38,38.5522847 38,38 C38,37.4477153 37.5522847,37 37,37 Z" id="Shape" fill="#428DFF"/></g></g></g></svg>
