<?xml version="1.0" encoding="UTF-8"?>
<svg xmlns="http://www.w3.org/2000/svg" xmlns:xlink="http://www.w3.org/1999/xlink" width="512" height="512" viewBox="0 0 60 59" version="1.1"><!-- Generator: Sketch 49.3 (51167) - http://www.bohemiancoding.com/sketch --><title>030 - Scheduled Back up</title><desc>Created with Sketch.</desc><defs><linearGradient x1="12.1781818%" y1="16.7168%" x2="87.8218182%" y2="83.2832%" id="linearGradient-1"><stop stop-color="#D4E1F4" offset="0%"/><stop stop-color="#D4E1F4" offset="17.173%"/><stop stop-color="#D4E1F4" offset="20%"/><stop stop-color="#DAE4F4" offset="20.014%"/><stop stop-color="#EBEBF4" offset="20.069%"/><stop stop-color="#F6F1F4" offset="20.136%"/><stop stop-color="#FDF4F4" offset="20.231%"/><stop stop-color="#FFF5F4" offset="20.495%"/><stop stop-color="#FFF5F4" offset="25.222%"/><stop stop-color="#FFF5F4" offset="26%"/><stop stop-color="#D4E1F4" offset="26%"/><stop stop-color="#D4E1F4" offset="39.739%"/><stop stop-color="#D4E1F4" offset="42%"/><stop stop-color="#DAE4F4" offset="42.014%"/><stop stop-color="#EBEBF4" offset="42.069%"/><stop stop-color="#F6F1F4" offset="42.136%"/><stop stop-color="#FDF4F4" offset="42.231%"/><stop stop-color="#FFF5F4" offset="42.495%"/><stop stop-color="#FFF5F4" offset="48.939%"/><stop stop-color="#FFF5F4" offset="50%"/><stop stop-color="#F9F2F4" offset="50.003%"/><stop stop-color="#E8EBF4" offset="50.014%"/><stop stop-color="#DDE5F4" offset="50.028%"/><stop stop-color="#D6E2F4" offset="50.047%"/><stop stop-color="#D4E1F4" offset="50.1%"/><stop stop-color="#D4E1F4" offset="70.622%"/><stop stop-color="#D4E1F4" offset="74%"/><stop stop-color="#FFF5F4" offset="74.1%"/><stop stop-color="#FFF5F4" offset="83.459%"/><stop stop-color="#FFF5F4" offset="85%"/><stop stop-color="#D4E1F4" offset="85.1%"/></linearGradient></defs><g id="Page-1" stroke="none" stroke-width="1" fill="none" fill-rule="evenodd"><g id="030---Scheduled-Back-up" fill-rule="nonzero"><g id="Colours" transform="translate(0.000000, 1.000000)"><rect id="Rectangle-path" fill="#A4C2F7" x="23" y="6" width="36" height="34"/><rect id="Rectangle-path" fill="#E3E7F2" x="23" y="6" width="32" height="34"/><path d="M37,14 L37,55 C37,55.5522847 36.5522847,56 36,56 L2,56 C1.44838544,55.9983854 1.00161464,55.5516146 1,55 L1,14 L37,14 Z" id="Shape" fill="#A4C2F7"/><path d="M33,14 L33,55 C33.0288349,55.5209599 32.6318577,55.9675586 32.11111,56 L1.88889,56 C1.36886579,55.9660757 0.97272267,55.5204152 1,55 L1,14 L33,14 Z" id="Shape" fill="#E3E7F2"/><path d="M36.9999997,11.9999999 L36.9999998,15.9999998 L0.99999984,15.9999998 L1,11.9999999 C0.999700152,10.9390421 1.42103122,9.92145223 2.17124174,9.17124172 C2.92145225,8.42103122 3.93904212,7.99970015 4.99999996,8 L32.9999997,8 C34.0609576,7.99970015 35.0785474,8.42103122 35.8287579,9.17124172 C36.5789685,9.92145223 37.0002995,10.9390421 36.9999997,11.9999999 Z" id="Shape" fill="#A4C2F7"/><path d="M33,12 L33,16 L1,16 L1,12 C0.88405251,9.91594841 2.47228718,8.12918664 4.55556,8 L29.44444,8 C31.5277128,8.12918664 33.1159475,9.91594841 33,12 Z" id="Shape" fill="#E3E7F2"/><path d="M58.9999997,3.99999992 L58.9999998,7.99999984 L22.9999998,7.99999984 L23,3.99999992 C22.9997002,2.93904209 23.4210312,1.92145223 24.1712417,1.17124172 C24.9214523,0.421031215 25.9390421,-0.000299847666 27,-4.01340185e-15 L54.9999997,-4.01340185e-15 C56.0609576,-0.000299847666 57.0785474,0.421031215 57.8287579,1.17124172 C58.5789685,1.92145223 59.0002995,2.93904209 58.9999997,3.99999992 Z" id="Shape" fill="#A4C2F7"/><path d="M55,4 L55,8 L23,8 L23,4 C22.8840525,1.91594841 24.4722872,0.129186644 26.55556,-4.4408921e-16 L51.44444,-4.4408921e-16 C53.5277128,0.129186644 55.1159475,1.91594841 55,4 Z" id="Shape" fill="#E3E7F2"/><path d="M53,24 C53.0020797,25.1477939 52.8370147,26.2897743 52.51,27.39 C52.0213578,27.0081056 51.5067869,26.6606032 50.97,26.35 C49.1410823,25.2375258 47.1076729,24.5030502 44.99,24.19 C44.9983193,24.1270277 45.001663,24.0634977 45,24 C45.0026948,22.2209028 43.8283018,20.6545302 42.1197706,20.1584302 C40.4112394,19.6623303 38.5805675,20.3561332 37.63,21.86 C37.2185962,22.4979159 36.9998588,23.2409284 37,24 L37,12.69 C38.2834528,12.23062 39.6368151,11.997165 41,12 C44.1828671,11.9991217 47.2356243,13.2631217 49.4862513,15.5137487 C51.7368783,17.7643757 53.0008783,20.8171329 53,24 Z" id="Shape" fill="#A4C2F7"/><path d="M51,25.61 C51,25.86 50.99,26.1 50.97,26.35 C49.1410823,25.2375258 47.1076729,24.5030502 44.99,24.19 C44.9983193,24.1270277 45.001663,24.0634977 45,24 C45.0026948,22.2209028 43.8283018,20.6545302 42.1197706,20.1584302 C40.4112394,19.6623303 38.5805675,20.3561332 37.63,21.86 C37.4094657,21.9319116 37.1980449,22.0292323 37,22.15 L37,13.78 C40.4831686,13.1871111 44.0504988,14.1609403 46.7492819,16.441412 C49.4480649,18.7218837 51.0034323,22.0767339 51,25.61 Z" id="Shape" fill="#E3E7F2"/><path d="M19,28 C16.790861,28 15,29.790861 15,32 C15,34.209139 16.790861,36 19,36 C21.209139,36 23,34.209139 23,32 C23.0002998,30.9390421 22.5789688,29.9214523 21.8287583,29.1712417 C21.0785477,28.4210312 20.0609579,27.9997002 19,28 Z M29.1,25.52 L29.1,25.51 C26.4470666,21.3855608 21.5520289,19.2896381 16.7363797,20.2162324 C11.9207305,21.1428267 8.15297993,24.9055839 7.22,29.72 C7.07064541,30.4707365 6.99694342,31.2345571 7,32 C6.9991217,35.1828671 8.26312173,38.2356243 10.5137487,40.4862513 C12.7643757,42.7368783 15.8171329,44.0008783 19,44 C21.1228828,44.0066644 23.2086919,43.4437722 25.04,42.37 C25.3876674,42.1709234 25.724786,41.9539659 26.05,41.72 C26.01,41.32 26,40.91 26,40.5 C25.9986854,36.9840177 27.1236483,33.5600653 29.21,30.73 C29.6420404,30.1332235 30.1166076,29.5684216 30.63,29.04 C30.3155898,27.7910068 29.7987497,26.6019366 29.1,25.52 Z" id="Shape" fill="#A4C2F7"/><path d="M29.21,30.73 C28.9230566,29.9544686 28.5507693,29.2132478 28.1,28.52 L28.1,28.51 C25.7557099,24.867363 21.6313487,22.7695527 17.3068029,23.020161 C12.9822572,23.2707692 9.12782747,25.8309519 7.22,29.72 C7.07064541,30.4707365 6.99694342,31.2345571 7,32 C6.9991217,35.1828671 8.26312173,38.2356243 10.5137487,40.4862513 C12.7643757,42.7368783 15.8171329,44.0008783 19,44 C21.1228828,44.0066644 23.2086919,43.4437722 25.04,42.37 C25.1644498,40.4459397 25.6317985,38.5596119 26.42,36.8 C27.2034641,35.0378562 28.289924,33.4267817 29.63,32.04 C29.5202806,31.5941976 29.3799477,31.1564926 29.21,30.73 Z" id="Shape" fill="#E3E7F2"/><circle id="Oval" fill="#A4C2F7" cx="19" cy="32" r="4"/><path d="M59,40.5 C59.0045631,47.4706478 54.6268461,53.6916897 48.0639703,56.0408627 C41.5010946,58.3900356 34.1699715,56.360158 29.75,50.97 C28.9939423,50.0559282 28.3431787,49.0596561 27.81,48 C26.8050128,46.0470974 26.2062922,43.9107535 26.05,41.72 C26.01,41.32 26,40.91 26,40.5 C26.0029676,33.5076758 30.4090791,27.2750308 37,24.94 C37.0348079,24.9241307 37.0719549,24.9139997 37.11,24.91 L37.11,24.9 C38.8444479,24.3036563 40.6658966,23.9995182 42.5,24 C43.3337294,23.9970866 44.1663652,24.0606211 44.99,24.19 C53.0439881,25.4262666 58.9927998,32.3516855 59,40.5 Z" id="Shape" fill="#A4C2F7"/><path d="M55,40.5 C55,49.61 48.50574,57 40.5,57 C38.6795079,56.9999707 36.8796095,56.614876 35.21848,55.87 C32.8465171,54.787675 30.8030665,53.0971621 29.29548,50.97 C28.6236951,50.0431157 28.0521998,49.0475377 27.5906,48 C26.7000047,46.0172541 26.1759862,43.8895628 26.04393,41.72 C26.0088,41.32 26,40.91 26,40.5 C25.9613044,36.319528 27.4025708,32.2601116 30.06879,29.04 C31.5738579,27.238751 33.4952646,25.8314741 35.66667,24.94 C35.6968208,24.9242701 35.7295616,24.9141075 35.76332,24.91 L35.76332,24.9 C37.2720933,24.3066183 38.878736,24.0013457 40.5,24 C41.2336291,23.9971715 41.9660081,24.0607643 42.68817,24.19 C45.1442319,24.6259769 47.4315904,25.7335711 49.29668,27.39 C52.9991555,30.7332346 55.0781205,35.5120706 55,40.5 Z" id="Shape" fill="#E3E7F2"/><circle id="Oval" fill="#A4C2F7" cx="42.5" cy="40.5" r="12.5"/><ellipse id="Oval" fill="url(#linearGradient-1)" cx="41" cy="40.5" rx="11" ry="12.5"/></g><g id="White" transform="translate(0.000000, 1.000000)" fill="#FFFFFF"><path d="M7.51,8 C5.44652568,8.1561863 3.88673529,9.9337252 4,12 L4,55 C3.97281799,55.5207935 4.36956945,55.9665817 4.89,56 L1.89,56 C1.36956945,55.9665817 0.972817993,55.5207935 1,55 L1,12 C0.884023233,9.91426632 2.47495241,8.12673558 4.56006,8 L7.51,8 Z" id="Shape"/><path d="M29.51,0 C27.4465257,0.156186295 25.8867353,1.9337252 26,4 L26,8 L23,8 L23,4 C22.8840232,1.91426632 24.4749524,0.12673558 26.56006,0 L29.51,0 Z" id="Shape"/></g><g id="Icons"><polygon id="Shape" fill="#FFFFFF" points="2 17 2 30 2 56 0 56 0 30 0 17"/><path d="M1,26 C1.26470163,25.995996 1.51818849,25.8924591 1.71,25.71 C2.09672008,25.3156867 2.09672008,24.6843933 1.71,24.29008 L1.5601,24.16996 C1.50432178,24.1319755 1.44372787,24.1015979 1.37992,24.07963 C1.3231789,24.0508318 1.26242959,24.0307304 1.19971,24.02 C1.13367967,24.0087447 1.06695098,24.0020622 1,24 C0.735233018,24.0036835 0.481633787,24.1072663 0.29,24.29 C-0.0875531162,24.6880448 -0.0875531162,25.3119552 0.29,25.71 C0.385532731,25.8002924 0.497389252,25.8715624 0.61959,25.92 C0.739939045,25.9712951 0.869184251,25.9984753 1,26 Z" id="Shape" fill="#428DFF"/><path d="M32,12 L31,12 C30.4477153,12 30,12.4477153 30,13 C30,13.5522847 30.4477153,14 31,14 L32,14 C32.5522847,14 33,13.5522847 33,13 C33,12.4477153 32.5522847,12 32,12 Z" id="Shape" fill="#428DFF"/><path d="M5.37988,12.07959 C5.19740024,11.9999682 4.99465642,11.9791409 4.7998,12.02 C4.73725474,12.0307197 4.67668155,12.0508018 4.62012,12.07957 C4.556155,12.1015291 4.49539799,12.131906 4.43945,12.1699 L4.29,12.29 C4.1974621,12.3837623 4.12588421,12.4961021 4.08,12.61959 C3.97322646,12.8617598 3.97322646,13.1376702 4.08,13.37984 C4.13070095,13.5010181 4.20172158,13.612649 4.29,13.70992 C4.48061954,13.8942239 4.73485834,13.9980965 5,14 C5.13064384,13.9983945 5.25970519,13.971188 5.37988,13.91992 C5.44131879,13.8998659 5.49881165,13.8693025 5.5498,13.82959 C5.60938,13.79 5.66016,13.75 5.71,13.71 C6.09672008,13.3156867 6.09672008,12.6843933 5.71,12.29008 C5.61442803,12.199458 5.50236434,12.1280043 5.37988,12.07959 Z" id="Shape" fill="#428DFF"/><path d="M8.5498,12.16992 C8.49881165,12.1302075 8.44131879,12.0996441 8.37988,12.07959 C8.3201284,12.0493498 8.25578115,12.0292141 8.18945,12.02 C7.86337445,11.95426 7.5259964,12.0555398 7.29004,12.29 C7.20177194,12.3870954 7.1307493,12.4985638 7.08004,12.61959 C7.02873112,12.7399363 7.00153732,12.8691816 7,13 C7.00161944,13.265183 7.1055012,13.5195142 7.29,13.71 C7.3398,13.75 7.38961,13.79008 7.43941,13.82963 C7.49535799,13.867624 7.556115,13.8980009 7.62008,13.91996 C7.67672491,13.9486623 7.73727746,13.9688914 7.7998,13.98 C7.86602657,13.9910194 7.93290233,13.9977003 8,14 C8.06356761,13.9981742 8.12690241,13.991488 8.18945,13.98 C8.25575517,13.9704021 8.32006597,13.9501191 8.37988,13.91994 C8.44131879,13.8998859 8.49881165,13.8693225 8.5498,13.82961 C8.60938,13.79 8.66016,13.75 8.71,13.71 C9.09672008,13.3156867 9.09672008,12.6843933 8.71,12.29008 C8.66016,12.25 8.60938,12.21 8.5498,12.16992 Z" id="Shape" fill="#428DFF"/><path d="M10.62012,12.07959 C10.4976421,12.1279804 10.3855788,12.1994066 10.29,12.29 C10.0015401,12.5760905 9.91483814,13.0082668 10.070629,13.3834815 C10.22642,13.7586962 10.5937349,14.0023626 11,14 C11.0635676,13.9981742 11.1269024,13.991488 11.18945,13.98 C11.2557552,13.9704021 11.320066,13.9501191 11.37988,13.91994 C11.443531,13.8979639 11.5039619,13.8675854 11.55957,13.82961 C11.60938,13.79006 11.66016,13.75002 11.70996,13.70998 C12.0966801,13.3156667 12.0966801,12.6843733 11.70996,12.29006 C11.4202514,12.0105848 10.9930594,11.9280855 10.62012,12.07959 Z" id="Shape" fill="#428DFF"/><path d="M19,28 C16.2385763,28 14,30.2385763 14,33 C14,35.7614237 16.2385763,38 19,38 C21.7614237,38 24,35.7614237 24,33 C23.9967599,30.2399195 21.7600805,28.0032401 19,28 Z M19,36 C17.3431458,36 16,34.6568542 16,33 C16,31.3431458 17.3431458,30 19,30 C20.6568542,30 22,31.3431458 22,33 C21.9981923,34.6561049 20.6561049,35.9981923 19,36 Z" id="Shape" fill="#428DFF"/><path d="M55,0 L27,0 C24.2399195,0.00324014244 22.0032401,2.23991948 22,5 L22,8 L5,8 C2.23991948,8.00324014 0.00324014244,10.2399195 0,13 L0,21 C6.76353751e-17,21.5522847 0.44771525,22 1,22 C1.55228475,22 2,21.5522847 2,21 L2,18 L36,18 L36,25.2655 C34.211783,25.9851203 32.5547126,26.9951754 31.0957,28.25488 C30.7996177,27.4904751 30.4307342,26.7563047 29.99414,26.0625 C29.9778772,26.0301796 29.9599498,25.9987241 29.94043,25.96826 C26.1231112,20.0171764 18.2515036,18.2046525 12.2159793,21.8870111 C6.18045493,25.5693697 4.19115624,33.3981716 7.73668756,39.5150766 C11.2822189,45.6319815 19.0642458,47.7970464 25.25943,44.39014 C25.4634545,45.6262248 25.8007788,46.8365715 26.2655,48 L10,48 C8.34655664,48.0082058 7.00820583,49.3465566 7,51 C7.00180771,52.6561049 8.34389511,53.9981923 10,54 L28,54 C28.6243938,54.0006667 29.2328354,53.8028268 29.73743,53.43506 C30.6305533,54.3982649 31.6285731,55.2585893 32.71289,56 L2,56 L2,29 C2,28.4477153 1.55228475,28 1,28 C0.44771525,28 6.76353751e-17,28.4477153 0,29 L0,56 C0.00126196688,57.1040464 0.895953647,57.998738 2,58 L36,58 C36.1775196,57.9992736 36.3541413,57.9747621 36.52515,57.92712 C41.8866834,59.8994072 47.87409,59.1224754 52.5546831,55.847112 C57.2352762,52.5717486 60.0162767,47.2127657 60,41.5 L60,5 C59.9967599,2.23991948 57.7600805,0.00324014244 55,0 Z M27,2 L55,2 C56.6561049,2.00180771 57.9981923,3.34389511 58,5 L58,8 L24,8 L24,5 C24.0018077,3.34389511 25.3438951,2.00180771 27,2 Z M41,14 C44.2250542,13.984346 47.2929101,15.3915987 49.3848368,17.8461988 C51.4767636,20.300799 52.3798735,23.5529509 51.85315,26.73474 C50.0446924,25.5785001 48.0376165,24.7674218 45.93359,24.34259 C45.714526,22.5794439 44.5679363,21.0686697 42.9287372,20.3833235 C41.2895382,19.6979772 39.408834,19.9430452 38,21.02557 L38,14.42529 C38.9751614,14.1437925 39.9850221,14.0006313 41,14 Z M38.04065,24.59766 C38.217995,23.2144446 39.3320573,22.1398765 40.7207705,22.0125515 C42.1094837,21.8852264 43.4003743,22.739295 43.82629,24.0672 C43.387,24.034 42.94775,24 42.5,24 C40.9939593,24.0055438 39.4950008,24.2064402 38.04065,24.59766 Z M2,16 L2,13 C2.00180771,11.3438951 3.34389511,10.0018077 5,10 L33,10 C34.6561049,10.0018077 35.9981923,11.3438951 36,13 L36,16 L2,16 Z M19,44 C13.7401324,43.997288 9.21819608,40.2712831 8.2097395,35.1089939 C7.20128293,29.9467047 9.98853202,24.7928456 14.8606832,22.8108371 C19.7328343,20.8288286 25.3263709,22.5733541 28.208,26.97363 C28.22362,27.00391 28.2412,27.03369 28.25976,27.0625 C28.8058627,27.9134082 29.2296043,28.8368787 29.51854,29.80579 C26.6123839,33.0074685 25.001678,37.1760567 25,41.5 C25,41.7345 25.026,41.9624 25.03516,42.1947 C23.2434829,43.3741634 21.1450495,44.0018687 19,44 Z M28,52 L10,52 C9.44794374,51.9994488 9.00055123,51.5520563 9,51 C8.99935768,50.7307002 9.10996272,50.473091 9.30566,50.28809 C9.48831367,50.1016544 9.7390115,49.9976369 10,50 L27.21582,50 C27.584761,50.6527241 27.9951902,51.2811108 28.44458,51.88129 C28.3081761,51.9562525 28.155616,51.9969885 28,52 Z M42.5,57 C33.9395864,57 27,50.0604136 27,41.5 C27,32.9395864 33.9395864,26 42.5,26 C51.0604136,26 58,32.9395864 58,41.5 C57.9904273,50.0564454 51.0564454,56.9904273 42.5,57 Z M53.63965,28.01434 C53.8782402,27.0272904 53.9991978,26.0154761 54,25 C54.0081445,21.0106034 52.1804012,17.2392855 49.0439813,14.7738805 C45.9075614,12.3084754 41.8112591,11.4231553 37.93665,12.37329 C37.8298859,11.5114117 37.497993,10.6928577 36.97437,10 L58,10 L58,33.40436 C56.9180314,31.3365306 55.4358688,29.5043644 53.63965,28.01434 Z" id="Shape" fill="#428DFF"/><path d="M53,6 L54,6 C54.5522847,6 55,5.55228475 55,5 C55,4.44771525 54.5522847,4 54,4 L53,4 C52.4477153,4 52,4.44771525 52,5 C52,5.55228475 52.4477153,6 53,6 Z" id="Shape" fill="#428DFF"/><path d="M26.62012,5.91992 C26.7402948,5.97118798 26.8693562,5.99839455 27,6 C27.2660007,6.00258562 27.5218597,5.89805928 27.7099595,5.70995949 C27.8980593,5.52185969 28.0025856,5.26600072 28,5 C27.9973751,4.54863325 27.6927033,4.1549779 27.2564182,4.03924494 C26.820133,3.92351199 26.3604013,4.11439473 26.1343972,4.50511327 C25.9083931,4.89583182 25.9721491,5.38951656 26.29,5.71 C26.3857287,5.80027936 26.4977609,5.87151957 26.62012,5.91992 Z" id="Shape" fill="#428DFF"/><path d="M30,6 C30.1306438,5.99839455 30.2597052,5.97118798 30.37988,5.91992 C30.5009105,5.86894891 30.6125069,5.7979859 30.71,5.71 C30.75,5.65971 30.79008,5.6099 30.83012,5.5601 C30.8677684,5.50419872 30.8979695,5.44362847 30.91996,5.37992 C30.9489536,5.32327983 30.9690461,5.26251007 30.97953,5.19975 C30.991658,5.13381749 30.9985031,5.06702197 31,5 C30.9960862,4.73527995 30.8925364,4.4817615 30.71,4.29 C30.6126648,4.20169021 30.5010551,4.13053088 30.37992,4.07955 C30.0069714,3.9279091 29.5796838,4.01041302 29.29,4.29 C28.9032799,4.68431326 28.9032799,5.31560674 29.29,5.70992 C29.4806195,5.89422386 29.7348583,5.99809652 30,6 Z" id="Shape" fill="#428DFF"/><path d="M33,6 C33.0635676,5.99817417 33.1269024,5.991488 33.18945,5.98 C33.2557552,5.97040215 33.320066,5.95011907 33.37988,5.91994 C33.4413188,5.89988586 33.4988117,5.86932248 33.5498,5.82961 C33.6037301,5.79476255 33.6541055,5.75470006 33.7002,5.71 C33.8908788,5.52282506 33.9988208,5.2671918 34,5 C33.9969307,4.73319874 33.8892807,4.4782573 33.7002,4.29 C33.3030083,3.91987101 32.6872317,3.91987101 32.29004,4.29 C32.1071053,4.48150686 32.0034767,4.7351833 32,5 C32.0016194,5.265183 32.1055012,5.5195142 32.29,5.71 C32.4817604,5.89253812 32.7352796,5.99608819 33,6 Z" id="Shape" fill="#428DFF"/><path d="M42.5,28 C35.0441559,28 29,34.0441559 29,41.5 C29,48.9558441 35.0441559,55 42.5,55 C49.9558441,55 56,48.9558441 56,41.5 C55.9916948,34.0475987 49.9524013,28.0083052 42.5,28 Z M42.5,53 C37.8486842,53 33.6553669,50.198115 31.8753854,45.9008595 C30.0954039,41.603604 31.0792951,36.657249 34.368272,33.368272 C37.657249,30.0792951 42.603604,29.0954039 46.9008595,30.8753854 C51.198115,32.6553669 54,36.8486842 54,41.5 C53.9927808,47.8482819 48.8482819,52.9927808 42.5,53 Z" id="Shape" fill="#428DFF"/><path d="M43,41.58594 L43,33 C43,32.4477153 42.5522847,32 42,32 C41.4477153,32 41,32.4477153 41,33 L41,42 C41.0000698,42.2651922 41.1054618,42.5194998 41.293,42.707 L46.293,47.707 C46.6844809,48.091453 47.3126425,48.0886083 47.7006254,47.7006254 C48.0886083,47.3126425 48.091453,46.6844809 47.707,46.293 L43,41.58594 Z" id="Shape" fill="#428DFF"/></g></g></g></svg>
