<?xml version="1.0" encoding="UTF-8"?>
<svg xmlns="http://www.w3.org/2000/svg" xmlns:xlink="http://www.w3.org/1999/xlink" width="512" height="512" viewBox="0 0 60 60" version="1.1"><!-- Generator: Sketch 49.3 (51167) - http://www.bohemiancoding.com/sketch --><title>029 - Trafic Management</title><desc>Created with Sketch.</desc><defs><linearGradient x1="9.19106948%" y1="-9.94%" x2="90.8089305%" y2="109.939937%" id="linearGradient-1"><stop stop-color="#D4E1F4" offset="0%"/><stop stop-color="#D4E1F4" offset="17.173%"/><stop stop-color="#D4E1F4" offset="20%"/><stop stop-color="#DAE4F4" offset="20.014%"/><stop stop-color="#EBEBF4" offset="20.069%"/><stop stop-color="#F6F1F4" offset="20.136%"/><stop stop-color="#FDF4F4" offset="20.231%"/><stop stop-color="#FFF5F4" offset="20.495%"/><stop stop-color="#FFF5F4" offset="25.222%"/><stop stop-color="#FFF5F4" offset="26%"/><stop stop-color="#D4E1F4" offset="26%"/><stop stop-color="#D4E1F4" offset="39.739%"/><stop stop-color="#D4E1F4" offset="42%"/><stop stop-color="#DAE4F4" offset="42.014%"/><stop stop-color="#EBEBF4" offset="42.069%"/><stop stop-color="#F6F1F4" offset="42.136%"/><stop stop-color="#FDF4F4" offset="42.231%"/><stop stop-color="#FFF5F4" offset="42.495%"/><stop stop-color="#FFF5F4" offset="48.939%"/><stop stop-color="#FFF5F4" offset="50%"/><stop stop-color="#F9F2F4" offset="50.003%"/><stop stop-color="#E8EBF4" offset="50.014%"/><stop stop-color="#DDE5F4" offset="50.028%"/><stop stop-color="#D6E2F4" offset="50.047%"/><stop stop-color="#D4E1F4" offset="50.1%"/><stop stop-color="#D4E1F4" offset="70.622%"/><stop stop-color="#D4E1F4" offset="74%"/><stop stop-color="#FFF5F4" offset="74.1%"/><stop stop-color="#FFF5F4" offset="83.459%"/><stop stop-color="#FFF5F4" offset="85%"/><stop stop-color="#D4E1F4" offset="85.1%"/></linearGradient></defs><g id="Page-1" stroke="none" stroke-width="1" fill="none" fill-rule="evenodd"><g id="029---Trafic-Management" fill-rule="nonzero"><g id="Colours" transform="translate(0.000000, 1.000000)"><rect id="Rectangle-path" fill="#A4C2F7" x="1" y="0" width="58" height="44" rx="4"/><path d="M52.2069,0 L4.7931,0 C2.64150515,0.0580542193 0.943806978,1.84835574 1,4 L1,40 C0.943829268,42.1516357 2.64151487,43.941924 4.7931,44 L52.2069,44 C54.3584851,43.941924 56.0561707,42.1516357 56,40 L56,4 C56.056193,1.84835574 54.3584949,0.0580542193 52.2069,0 Z" id="Shape" fill="#E3E7F2"/><path d="M53,4 L7,4 C5.89676861,4.00322381 5.00322381,4.89676861 5,6 L5,34 C5.00324566,35.1032223 5.89677769,35.9967543 7,36 L53,36 C54.1032223,35.9967543 54.9967543,35.1032223 55,34 L55,6 C54.9967762,4.89676861 54.1032314,4.00322381 53,4 Z" id="Shape" fill="#A4C2F7"/><path d="M50.12,4 L6.88,4 C5.81041926,4.03723294 4.97106537,4.93016261 5,6 L5,34 C4.97108741,35.069829 5.81042899,35.9627456 6.88,36 L50.12,36 C51.189571,35.9627456 52.0289126,35.069829 52,34 L52,6 C52.0289346,4.93016261 51.1895807,4.03723294 50.12,4 Z" id="Shape" fill="url(#linearGradient-1)"/><path d="M24.99,18 L15.82007,18 L16.40991,17.41 C17.187764,16.6284169 17.185153,15.3643694 16.4040768,14.5860064 C15.6230006,13.8076434 14.3589516,13.809431 13.58008,14.59 L9.58008,18.59 C9.45627914,18.716093 9.34875286,18.8571903 9.26001,19.01 C9.24212134,19.0477814 9.22208526,19.0845081 9.2,19.12 C9.1288589,19.2735031 9.07518896,19.4345129 9.04,19.6 C9.03733134,19.599945 9.0347557,19.6009808 9.03286827,19.6028683 C9.03098084,19.6047557 9.02994496,19.6073313 9.03,19.61 C8.99837965,19.7814716 8.9916437,19.9566062 9.01,20.13 C9.00835242,20.1702597 9.01171146,20.2105683 9.02,20.25 C9.03984452,20.4241206 9.0801218,20.5952991 9.14,20.76 C9.15,20.76 9.15,20.76 9.15,20.76995 L9.15,20.77995 C9.22099867,20.9321674 9.30812751,21.0763261 9.40989,21.20995 C9.43989,21.24995 9.46995,21.27995 9.49998,21.32 C9.52998,21.35 9.55003,21.38 9.58006,21.41 L11.97996,23.81 L13.58006,25.41 C14.3589316,26.190569 15.6229806,26.1923566 16.4040568,25.4139936 C17.185133,24.6356306 17.187744,23.3715831 16.40989,22.59 L15.82007,22 L24.99,22 C26.0945695,22 26.99,21.1045695 26.99,20 C26.99,18.8954305 26.0945695,18 24.99,18 Z" id="Shape" fill="#A4C2F7"/><path d="M22,20 C22.0001433,20.5304769 21.7894756,21.039268 21.4143718,21.4143718 C21.039268,21.7894756 20.5304769,22.0001433 20,22 L15.82007,22 L16.40991,22.59 C16.9142027,23.0953917 17.1104153,23.8315099 16.9245802,24.5208554 C16.7387451,25.2102009 16.1991207,25.7479507 15.5091328,25.9313859 C14.8191448,26.1148211 14.0837138,25.9160483 13.58008,25.41 L11.98,23.81 L9.5801,21.41 C9.5501,21.38 9.53005,21.35 9.50002,21.32 C9.47002,21.28 9.43996,21.25 9.40993,21.20995 C9.30815666,21.0763437 9.22101445,20.9322018 9.15,20.78 L9.15,20.77 C9.15,20.76005 9.15,20.76005 9.14,20.76005 C9.0801218,20.5953491 9.03984452,20.4241706 9.02,20.25005 C9.01171146,20.2106183 9.00835242,20.1703097 9.01,20.13005 C8.9916437,19.9566562 8.99837965,19.7815216 9.03,19.61005 C9.02994496,19.6073813 9.03098084,19.6048057 9.03286827,19.6029183 C9.0347557,19.6010308 9.03733134,19.599995 9.04,19.60005 C9.07518536,19.4345458 9.12885536,19.273519 9.2,19.12 C9.22208185,19.0845078 9.24211459,19.0477811 9.26,19.01 C9.34874286,18.8571903 9.45626914,18.716093 9.58007,18.59 L13.58007,14.59 C14.3589416,13.809431 15.6229906,13.8076434 16.4040668,14.5860064 C17.185143,15.3643694 17.187754,16.6284169 16.4099,17.41 L15.82006,18 L20,18 C20.5304793,17.9998487 21.039275,18.2105139 21.4143806,18.5856194 C21.7894861,18.960725 22.0001513,19.4695207 22,20 Z" id="Shape" fill="#E3E7F2"/><path d="M50.99,20.13 C50.99,20.17 50.98,20.21 50.98,20.25 C50.9567431,20.4244956 50.913112,20.5956636 50.85,20.76 L50.85,20.77 C50.8473435,20.7699524 50.8447833,20.7709944 50.8429149,20.7728835 C50.8410466,20.7747726 50.840033,20.7773442 50.84011,20.78 C50.7728256,20.9341929 50.6853974,21.0787857 50.58011,21.21 C50.55011,21.25 50.52005,21.28 50.49002,21.32005 C50.46002,21.35005 50.44002,21.38005 50.40994,21.41005 L46.40994,25.41005 C46.0379092,25.7875433 45.5300376,26.000082 45.00003,26.000082 C44.4700224,26.000082 43.9621508,25.7875433 43.59012,25.41005 C43.1588315,24.9920042 42.9478918,24.396299 43.02,23.8 C43.0620223,23.3422336 43.2638397,22.9138669 43.59007,22.59 L44.1699,22 L35,22 C33.8954305,22 33,21.1045695 33,20 C33,18.8954305 33.8954305,18 35,18 L44.16992,18 L43.59009,17.41 C43.2638311,17.0861511 43.0620026,16.6577759 43.02,16.2 C42.9479142,15.6037279 43.1588308,15.0080544 43.59007,14.59 C43.9613224,14.2110591 44.4694854,13.997514 44.99998,13.997514 C45.5304746,13.997514 46.0386376,14.2110591 46.40989,14.59 L50.40989,18.59 C50.5336909,18.716093 50.6412171,18.8571903 50.72996,19.01 C50.7478649,19.0477825 50.7679177,19.0845093 50.79002,19.12 C50.8598572,19.2750174 50.9166927,19.4355698 50.95994,19.6 L50.95994,19.61 C50.9948512,19.7809941 51.0049749,19.9561221 50.99,20.13 Z" id="Shape" fill="#A4C2F7"/><path d="M45.99,20.13 C45.99,20.17 45.98,20.21 45.98,20.25 C45.9567431,20.4244956 45.913112,20.5956636 45.85,20.76 L45.85,20.77 C45.8473435,20.7699524 45.8447833,20.7709944 45.8429149,20.7728835 C45.8410466,20.7747726 45.840033,20.7773442 45.84011,20.78 C45.7728256,20.9341929 45.6853974,21.0787857 45.58011,21.21 C45.55011,21.25 45.52005,21.28 45.49002,21.32005 C45.46002,21.35005 45.44002,21.38005 45.40994,21.41005 L43.02,23.8 C43.0620223,23.3422336 43.2638397,22.9138669 43.59007,22.59 L44.1699,22 L35,22 C33.8954305,22 33,21.1045695 33,20 C33,18.8954305 33.8954305,18 35,18 L44.16992,18 L43.59009,17.41 C43.2638311,17.0861511 43.0620026,16.6577759 43.02,16.2 L45.40989,18.59 C45.5336909,18.716093 45.6412171,18.8571903 45.72996,19.01 C45.7478649,19.0477825 45.7679177,19.0845093 45.79002,19.12 C45.8598572,19.2750174 45.9166927,19.4355698 45.95994,19.6 L45.95994,19.61 C45.9948512,19.7809941 46.0049749,19.9561221 45.99,20.13 Z" id="Shape" fill="#E3E7F2"/><rect id="Rectangle-path" fill="#E3E7F2" x="27" y="44" width="6" height="8"/><path d="M24,56 L3,56 C1.89677769,55.9967543 1.00324566,55.1032223 1,54 C0.99720347,53.4694147 1.21016347,52.9604764 1.59,52.59 C1.9604731,52.2101586 2.46941358,51.9971977 3,52 L57,52 C58.1032314,52.0032238 58.9967762,52.8967686 59,54 C58.99201,55.1012429 58.1012429,55.99201 57,56 L24,56 Z" id="Shape" fill="#E3E7F2"/><rect id="Rectangle-path" fill="#7FACFA" x="24" y="50" width="12" height="8" rx="2"/><path d="M33,52 L33,56 C33,57.1 32.325,58 31.5,58 L25.5,58 C24.675,58 24,57.1 24,56 L24,52 C24,50.9 24.675,50 25.5,50 L31.5,50 C32.325,50 33,50.9 33,52 Z" id="Shape" fill="#A4C2F7"/></g><g id="White" transform="translate(0.000000, 1.000000)" fill="#FFFFFF"><path d="M4.59009,52.5899767 C4.21019802,52.9604253 3.99720056,53.469379 4,53.9999864 C4.00324566,55.1032162 4.89677769,55.9967543 6,56 L3,56 C1.89677769,55.9967543 1.00324566,55.1032162 1,53.9999864 C0.997200563,53.469379 1.21019802,52.9604253 1.59009,52.5899767 C1.96051227,52.2101125 2.46943471,51.9971441 3,51.9999727 L6,51.9999449 C5.46943471,51.9971441 4.96051227,52.2101125 4.59009,52.5899767 Z" id="Shape"/><path d="M7.79,44 L4.79,44 C2.63990528,43.9396486 0.944424979,42.1502235 1,40 L1,4 C0.944408302,1.84977012 2.63989799,0.0603350925 4.79,-1.11022302e-16 L7.76,-1.11022302e-16 C5.62201688,0.0770635395 3.94479625,1.86134081 4,4 L4,40 C3.94442498,42.1502235 5.63990528,43.9396486 7.79,44 Z" id="Shape"/></g><g id="Icons"><polygon id="Shape" fill="#FFFFFF" points="2 5 2 18 2 41 0 41 0 18 0 5"/><path d="M1,14 C1.26470163,13.995996 1.51818849,13.8924591 1.71,13.71 C2.09672008,13.3156867 2.09672008,12.6843933 1.71,12.29008 L1.5601,12.16996 C1.50432178,12.1319755 1.44372787,12.1015979 1.37992,12.07963 C1.3231789,12.0508318 1.26242959,12.0307304 1.19971,12.02 C1.13367967,12.0087447 1.06695098,12.0020622 1,12 C0.735233018,12.0036835 0.481633787,12.1072663 0.29,12.29 C-0.0875531162,12.6880448 -0.0875531162,13.3119552 0.29,13.71 C0.385532731,13.8002924 0.497389252,13.8715624 0.61959,13.92 C0.739939045,13.9712951 0.869184251,13.9984753 1,14 Z" id="Shape" fill="#428DFF"/><path d="M55,0 L5,0 C2.23991948,0.00324014244 0.00324014244,2.23991948 0,5 L0,9 C6.76353751e-17,9.55228475 0.44771525,10 1,10 C1.55228475,10 2,9.55228475 2,9 L2,5 C2.00180771,3.34389511 3.34389511,2.00180771 5,2 L55,2 C56.6561049,2.00180771 57.9981923,3.34389511 58,5 L58,41 C57.9981923,42.6561049 56.6561049,43.9981923 55,44 L5,44 C3.34389511,43.9981923 2.00180771,42.6561049 2,41 L2,17 C2,16.4477153 1.55228475,16 1,16 C0.44771525,16 -5.9849844e-16,16.4477153 -6.66133815e-16,17 L-6.66133815e-16,41 C0.00324014244,43.7600805 2.23991948,45.9967599 5,46 L26,46 L26,50 C24.7328458,50.0038639 23.6052638,50.8047973 23.18433,52 L3,52 C1.34314575,52 2.02906125e-16,53.3431458 0,55 C-2.02906125e-16,56.6568542 1.34314575,58 3,58 L23.18433,58 C23.6052638,59.1952027 24.7328458,59.9961361 26,60 L34,60 C35.2671542,59.9961361 36.3947362,59.1952027 36.81567,58 L57,58 C58.6568542,58 60,56.6568542 60,55 C60,53.3431458 58.6568542,52 57,52 L36.81567,52 C36.3947362,50.8047973 35.2671542,50.0038639 34,50 L34,46 L55,46 C57.7600805,45.9967599 59.9967599,43.7600805 60,41 L60,5 C59.9967599,2.23991948 57.7600805,0.00324014244 55,0 Z M2,55 C2.00055123,54.4479437 2.44794374,54.0005512 3,54 L23,54 L23,56 L3,56 C2.44794374,55.9994488 2.00055123,55.5520563 2,55 Z M58,55 C57.9994488,55.5520563 57.5520563,55.9994488 57,56 L37,56 L37,54 L57,54 C57.5520563,54.0005512 57.9994488,54.4479437 58,55 Z M35,53 L35,57 C34.9994488,57.5520563 34.5520563,57.9994488 34,58 L26,58 C25.4479437,57.9994488 25.0005512,57.5520563 25,57 L25,53 C25.0005512,52.4479437 25.4479437,52.0005512 26,52 L34,52 C34.5520563,52.0005512 34.9994488,52.4479437 35,53 Z M32,50 L28,50 L28,46 L32,46 L32,50 Z" id="Shape" fill="#428DFF"/><path d="M56,35 L56,7 C55.9981923,5.34389511 54.6561049,4.00180771 53,4 L7,4 C5.34389511,4.00180771 4.00180771,5.34389511 4,7 L4,35 C4.00180771,36.6561049 5.34389511,37.9981923 7,38 L53,38 C54.6561049,37.9981923 55.9981923,36.6561049 56,35 Z M54,35 C53.9994488,35.5520563 53.5520563,35.9994488 53,36 L7,36 C6.44794374,35.9994488 6.00055123,35.5520563 6,35 L6,7 C6.00055123,6.44794374 6.44794374,6.00055123 7,6 L53,6 C53.5520563,6.00055123 53.9994488,6.44794374 54,7 L54,35 Z" id="Shape" fill="#428DFF"/><path d="M53.29,40.29 C52.8978779,40.6821222 52.8978779,41.3178778 53.29,41.71 C53.6821222,42.1021221 54.3178778,42.1021221 54.71,41.71 C54.800363,41.6143361 54.871638,41.5023053 54.92,41.37992 C54.9712456,41.2597272 54.9984251,41.130652 55,41 C55.0023626,40.5937349 54.7586962,40.22642 54.3834815,40.070629 C54.0082668,39.9148381 53.5760905,40.0015401 53.29,40.29 Z" id="Shape" fill="#428DFF"/><path d="M50.5498,40.16992 C50.4988117,40.1302075 50.4413188,40.0996441 50.37988,40.07959 C50.3201272,40.0493568 50.25578,40.0292278 50.18945,40.02002 C49.8633744,39.95428 49.5259964,40.0555598 49.29004,40.29002 C49.199584,40.3854251 49.1282928,40.4973149 49.08004,40.61961 C49.0287337,40.7399501 49.0015399,40.8691883 49,41 C49.0016681,41.0669549 49.0081952,41.1337004 49.01953,41.19971 C49.0308216,41.2623975 49.0512208,41.3230965 49.08008,41.37988 C49.1016637,41.4437585 49.1318911,41.5043813 49.16992,41.56006 C49.2070592,41.6122856 49.2471511,41.6623471 49.29,41.71 C49.4806322,41.8942746 49.7348695,41.998118 50,42 C50.0635676,41.9981742 50.1269024,41.991488 50.18945,41.98 C50.2557552,41.9704021 50.320066,41.9501191 50.37988,41.91994 C50.4413188,41.8998859 50.4988117,41.8693225 50.5498,41.82961 C50.6072595,41.7954874 50.660957,41.7553953 50.71,41.71 C50.75,41.65971 50.79008,41.6099 50.83012,41.5601 C50.8677684,41.5041987 50.8979695,41.4436285 50.91996,41.37992 C50.9489536,41.3232798 50.9690461,41.2625101 50.97953,41.19975 C50.991658,41.1338175 50.9985031,41.067022 51,41 C50.9984448,40.8691924 50.9712375,40.7399611 50.91992,40.61963 C50.8716672,40.4973349 50.800376,40.3854451 50.70992,40.29004 C50.66016,40.25 50.60938,40.21 50.5498,40.16992 Z" id="Shape" fill="#428DFF"/><path d="M45.29,40.29 C45.1070799,40.4815131 45.0034659,40.7351888 45,41 C45.0021355,41.0669255 45.0086595,41.1336387 45.01953,41.19971 C45.0308216,41.2623975 45.0512208,41.3230965 45.08008,41.37988 C45.1016637,41.4437585 45.1318911,41.5043813 45.16992,41.56006 C45.20992,41.60986 45.25,41.65967 45.29004,41.70996 C45.6843533,42.0966801 46.3156467,42.0966801 46.70996,41.70996 C46.8940813,41.5192408 46.9979116,41.2650851 47,41 C46.9984448,40.8691924 46.9712375,40.7399611 46.91992,40.61963 C46.8716672,40.4973349 46.800376,40.3854451 46.70992,40.29004 C46.3089804,39.9199104 45.6909604,39.919893 45.29,40.29 Z" id="Shape" fill="#428DFF"/><path d="M24.99316,18 L17.82324,18 C17.9359984,17.6786679 17.9934528,17.3405418 17.99316,17 C17.9929737,15.7867564 17.2620494,14.6930592 16.141148,14.2287962 C15.0202466,13.7645332 13.7300559,14.0211103 12.87207,14.87891 L8.87107,18.88037 C8.68142745,19.0739035 8.5188244,19.292191 8.38768,19.5293 L8.30368,19.68896 C8.19793758,19.9017755 8.11763096,20.1263058 8.06442,20.35791 C8.05856,20.37891 8.05368,20.40039 8.04977,20.42041 C8.00284265,20.6689519 7.98838846,20.9225355 8.00677,21.1748 C8.01067,21.24707 8.01751,21.31689 8.02532,21.37256 C8.05431735,21.6290842 8.11669491,21.8807224 8.21087,22.12109 C8.22259,22.15137 8.23528,22.18115 8.24993,22.21045 C8.34945809,22.4294894 8.47503079,22.6357308 8.62393,22.82471 C8.66593,22.87939 8.70693,22.93071 8.73721,22.96436 C8.76456,23.00049 8.83975,23.08936 8.87198,23.12109 L12.87198,27.12109 C13.7298687,27.9792105 15.0202347,28.2359901 16.1412851,27.7716735 C17.2623355,27.3073569 17.9932542,26.2134017 17.99316,25 C17.9934528,24.6594582 17.9359984,24.3213321 17.82324,24 L24.99316,24 C26.0649568,24 27.0553379,23.4282033 27.5912363,22.5 C28.1271347,21.5717968 28.1271347,20.4282032 27.5912363,19.5 C27.0553379,18.5717967 26.0649568,18 24.99316,18 Z M24.99316,22 L15.82129,22 C15.4168514,21.9999985 15.0522382,22.2436325 14.8974779,22.6172899 C14.7427177,22.9909473 14.8282898,23.4210377 15.11429,23.707 L15.70023,24.29343 C15.8877999,24.4808179 15.993191,24.7350797 15.993191,25.000215 C15.993191,25.2653503 15.8877999,25.5196121 15.70023,25.707 C15.3046291,26.0849311 14.6817609,26.0849311 14.28616,25.707 L10.32916,21.75388 C10.31451,21.73388 10.22272,21.62009 10.20611,21.60104 C10.1528412,21.5352079 10.1079077,21.4630483 10.07233,21.3862 L10.06256,21.3632 C10.0312311,21.2646001 10.011567,21.1626681 10.00397,21.05949 C9.9973632,20.9866881 9.99803318,20.9134089 10.00597,20.84074 C10.0089,20.82805 10.01183,20.81584 10.01378,20.80363 C10.0403101,20.7011062 10.0796851,20.6023444 10.13097,20.50969 C10.1732277,20.4310715 10.2254116,20.3582083 10.28624,20.29289 L14.28624,16.29289 C14.6770018,15.9028836 15.3098186,15.9031028 15.70031,16.29338 C15.8878799,16.4807679 15.993271,16.7350297 15.993271,17.000165 C15.993271,17.2653003 15.8878799,17.5195621 15.70031,17.70695 L15.11437,18.29289 C14.8283698,18.5788523 14.7427977,19.0089427 14.8975579,19.3826001 C15.0523182,19.7562575 15.4169314,19.9998915 15.82137,19.99989 L24.99324,19.99989 C25.5455247,19.99989 25.99324,20.4476053 25.99324,20.99989 C25.99324,21.5521747 25.5455247,21.99989 24.99324,21.99989 L24.99316,22 Z" id="Shape" fill="#428DFF"/><path d="M51.92871,20.3584 C51.8759005,20.1256069 51.7952429,19.9000221 51.68848,19.68652 L51.59863,19.5166 C51.4692789,19.2832518 51.3086089,19.0686987 51.12109,18.87891 L47.12109,14.87891 C46.1294102,13.8900309 44.5856826,13.7183375 43.4009585,14.4651571 C42.2162343,15.2119766 41.7053954,16.6788158 42.16992,18 L35,18 C33.3431458,18 32,19.3431458 32,21 C32,22.6568542 33.3431458,24 35,24 L42.16992,24 C42.0571616,24.3213321 41.9997072,24.6594582 42,25 C41.9998641,26.2134001 42.7307623,27.3073727 43.8518083,27.7716956 C44.9728543,28.2360185 46.2632213,27.9792282 47.12109,27.12109 L51.127,23.11523 C51.1682663,23.0734535 51.2064529,23.0287432 51.24126,22.98145 C51.28618,22.93066 51.3272,22.87939 51.36919,22.82471 C51.5180892,22.6357308 51.6436619,22.4294894 51.74319,22.21045 C51.75784,22.18115 51.77054,22.15137 51.78226,22.12109 C51.8747439,21.8862142 51.9364527,21.6403604 51.96585,21.38965 C51.97562,21.31689 51.98245,21.24707 51.98538,21.19531 C52.005277,20.927811 51.9895155,20.6588539 51.93851,20.39551 C51.93555,20.3833 51.93262,20.37109 51.92871,20.3584 Z M49.9834,21.1274 C49.9748044,21.2075966 49.9571106,21.2865546 49.93066,21.36275 L49.9209,21.38619 C49.8726298,21.4849211 49.8115572,21.5768595 49.73926,21.65963 L45.707,25.707 C45.3114683,26.0852839 44.6882094,26.0850679 44.29294,25.70651 C44.1053553,25.5191299 43.9999541,25.2648652 43.9999541,24.999725 C43.9999541,24.7345848 44.1053553,24.4803201 44.29294,24.29294 L44.87888,23.707 C45.16487,23.4210341 45.2504356,22.9909491 45.0956772,22.6172961 C44.9409187,22.2436431 44.5763138,22.0000083 44.17188,22 L35,22 C34.4477153,22 34,21.5522847 34,21 C34,20.4477153 34.4477153,20 35,20 L44.17188,20 C44.5763138,19.9999917 44.9409187,19.7563569 45.0956772,19.3827039 C45.2504356,19.0090509 45.16487,18.5789659 44.87888,18.293 L44.29294,17.70657 C44.1053553,17.5191899 43.9999541,17.2649252 43.9999541,16.999785 C43.9999541,16.7346448 44.1053553,16.4803801 44.29294,16.293 C44.6837657,15.9033491 45.3161743,15.9033491 45.707,16.293 L49.708,20.29446 C49.7818863,20.3753325 49.8437198,20.4664408 49.89159,20.56497 C49.9321724,20.6446053 49.9623689,20.7291187 49.98144,20.81644 L49.98437,20.82962 C49.9951747,20.9286178 49.9948493,21.0285147 49.9834,21.12744 L49.9834,21.1274 Z" id="Shape" fill="#428DFF"/></g></g></g></svg>
