<?xml version="1.0" encoding="UTF-8"?>
<svg xmlns="http://www.w3.org/2000/svg" xmlns:xlink="http://www.w3.org/1999/xlink" width="512" height="512" viewBox="0 0 60 44" version="1.1"><!-- Generator: Sketch 49.3 (51167) - http://www.bohemiancoding.com/sketch --><title>028 - Upload to Cloud</title><desc>Created with Sketch.</desc><defs/><g id="Page-1" stroke="none" stroke-width="1" fill="none" fill-rule="evenodd"><g id="028---Upload-to-Cloud" transform="translate(-1.000000, 0.000000)" fill-rule="nonzero"><g id="Colours" transform="translate(1.000000, 1.000000)"><path d="M59,31.06 C59,37.09 54.38,42 48.69,42 L34.82,42 C28.5240134,41.9408847 23.4642272,36.7960977 23.51,30.5 L23.51,29.8 C23.5147811,27.1685057 24.1491055,24.5763475 25.36,22.24 L24.08,22.47 C23.9643431,22.4895002 23.8472883,22.4995334 23.73,22.5 C22.6931721,22.500166 21.8280635,21.7080983 21.7370086,20.6752763 C21.6459538,19.6424543 22.359136,18.7112426 23.38,18.53 L27.31,17.84 L28.89,17.56 C28.89,17.55 28.9,17.56 28.9,17.55 L28.92,17.55 C28.97,17.54 29.02,17.55 29.07,17.54 C29.1526339,17.5266844 29.2365666,17.5233271 29.32,17.53 L29.33,17.53 C30.1229751,17.5640506 30.8192817,18.0675943 31.1,18.81 C31.12,18.85 31.12,18.9 31.14,18.94 C31.16,19.02 31.19,19.09 31.21,19.18 L31.21,19.21 L32.14,24.97 C32.2258594,25.4952648 32.0990377,26.0330992 31.7875557,26.4646706 C31.4760737,26.8962421 31.0055698,27.1860276 30.48,27.27 C30.38,27.28 30.27,27.29 30.16,27.29 C29.2143371,27.2823709 28.4021559,26.6159658 28.21,25.69 C28.0397118,26.1810204 27.8994528,26.6819457 27.79,27.19 C27.6019631,28.047218 27.5080736,28.9224028 27.51,29.8 L27.51,30.5 C27.4615231,34.5880743 30.7320275,37.943585 34.82,38 L48.69,38 C52.17,38 55,34.89 55,31.06 C55.0797514,27.9344081 53.0359101,25.1503426 50.03,24.29 C48.9795466,24.0319587 48.3212829,22.9893396 48.54,21.93 C48.6872657,21.2564448 48.7643439,20.5694431 48.77,19.88 C48.77,14.82 45.01,10.71 40.38,10.71 C39.8762258,10.7093863 39.3736769,10.7596411 38.88,10.86 C38.2681934,10.9839223 37.6737987,11.1820539 37.11,11.45 C36.3790223,11.7953229 35.5123117,11.6692559 34.91,11.13 C34.7445459,10.9852986 34.6057739,10.8126797 34.5,10.62 C32.4128147,6.60808862 28.2918876,4.06563407 23.77,4 C23.2749061,3.99777282 22.7802943,4.03119254 22.29,4.1 C16.07,4.9 11.23,10.67 11.23,17.65 C11.2272012,19.0267525 11.4191009,20.3969841 11.8,21.72 C11.9541623,22.2609954 11.8741323,22.8418602 11.5794169,23.3210104 C11.2847015,23.8001606 10.8023739,24.1335805 10.25,24.24 C7.09125863,24.9606757 4.88862295,27.8220044 5,31.06 C5,34.89 7.83,38 11.31,38 L19.62,38 C20.7223815,38.0052646 21.6147354,38.8976185 21.62,40 C21.6167543,41.1032223 20.7232223,41.9967543 19.62,42 L11.31,42 C5.62,42 1,37.09 1,31.06 C0.935423463,26.6765162 3.49902209,22.6795075 7.51,20.91 C7.32621197,19.8330055 7.23255413,18.7425606 7.23,17.65 C7.23,8.47 13.84,0.9 22.25,0.08 C22.7546289,0.0231776145 23.2621944,-0.00353635793 23.77,4.16387844e-16 C28.924467,0.0253402356 33.7516586,2.53012046 36.74,6.73 C36.86,6.88 36.97,7.03 37.08,7.19 C37.6706129,7.00890667 38.2764247,6.88171967 38.89,6.81 C39.3836823,6.74152539 39.8815951,6.70810842 40.38,6.71 C47.21,6.71 52.77,12.62 52.77,19.88 C52.77,20.25 52.75,20.62 52.72,20.99 C56.6149548,22.8157009 59.07415,26.7590282 59,31.06 Z" id="Shape" fill="#A4C2F7"/><path d="M56,31.06 C56,37.09 51.38,42 45.69,42 L34.82,42 C28.5240134,41.9408847 23.4642272,36.7960977 23.51,30.5 L23.51,29.8 C23.5147811,27.1685057 24.1491055,24.5763475 25.36,22.24 L24.08,22.47 C23.9643431,22.4895002 23.8472883,22.4995334 23.73,22.5 C22.6931721,22.500166 21.8280635,21.7080983 21.7370086,20.6752763 C21.6459538,19.6424543 22.359136,18.7112426 23.38,18.53 L27.31,17.84 C27.6706911,18.07008 27.9476973,18.4102016 28.1,18.81 C28.12,18.85 28.12,18.9 28.14,18.94 C28.16,19.02 28.19,19.09 28.21,19.18 L28.21,19.21 L29.14,24.97 C29.2369246,25.5594719 29.0644366,26.161345 28.67,26.61 C28.4375231,26.8827812 28.1323478,27.0839194 27.79,27.19 C27.6896755,27.2272013 27.585798,27.2540084 27.48,27.27 C27.38,27.28 27.27,27.29 27.16,27.29 C26.211712,27.2896602 25.3955195,26.6199638 25.21,25.69 C24.7465322,27.0107146 24.5098589,28.4003253 24.51,29.8 L24.51,30.5 C24.4615231,34.5880743 27.7320275,37.943585 31.82,38 L48.69,38 C52.17,38 55,34.89 55,31.06 C55.0797514,27.9344081 53.0359101,25.1503426 50.03,24.29 C48.9795466,24.0319587 48.3212829,22.9893396 48.54,21.93 C48.6872657,21.2564448 48.7643439,20.5694431 48.77,19.88 C48.77,14.82 45.01,10.71 40.38,10.71 C39.8762258,10.7093863 39.3736769,10.7596411 38.88,10.86 C37.5564621,10.5913968 36.1849834,10.6846711 34.91,11.13 C34.7445459,10.9852986 34.6057739,10.8126797 34.5,10.62 C32.4128147,6.60808862 28.2918876,4.06563407 23.77,4 C23.2749061,3.99777282 22.7802943,4.03119254 22.29,4.1 C21.7862589,4.03152272 21.2783706,3.99810902 20.77,4 C13.86,4 8.23,10.12 8.23,17.65 C8.22720115,19.0267525 8.4191009,20.3969841 8.8,21.72 C8.95416234,22.2609954 8.87413227,22.8418602 8.57941688,23.3210104 C8.2847015,23.8001606 7.8023739,24.1335805 7.25,24.24 C4.09125863,24.9606757 1.88862295,27.8220044 2,31.06 C2,34.89 4.83,38 8.31,38 L16.62,38 C17.7245695,38 18.62,38.8954305 18.62,40 C18.62,41.1045695 17.7245695,42 16.62,42 L11.31,42 C5.62,42 1,37.09 1,31.06 C0.935423463,26.6765162 3.49902209,22.6795075 7.51,20.91 C7.32621197,19.8330055 7.23255413,18.7425606 7.23,17.65 C7.23,8.47 13.84,0.9 22.25,0.08 C27.0585212,0.560588858 31.3991095,3.1693448 34.08,7.19 C34.945326,6.93188797 35.8382477,6.77747294 36.74,6.73 C36.95,6.72 37.16,6.71 37.38,6.71 C37.8850485,6.70811074 38.3896114,6.7415255 38.89,6.81 C45.01,7.6 49.77,13.16 49.77,19.88 C49.77,20.25 49.75,20.62 49.72,20.99 C53.6149548,22.8157009 56.07415,26.7590282 56,31.06 Z" id="Shape" fill="#E3E7F2"/></g><g id="Icons" fill="#428DFF"><path d="M54.75977,21.38623 C54.7666,21.21729 54.76953,21.04932 54.76953,20.88232 C54.76953,13.06543 48.76563,6.70605 41.38477,6.70605 C40.4094407,6.70555694 39.4373804,6.81879154 38.48828,7.04346 C35.3079775,2.6332446 30.20682,0.0142159833 24.76953,-2.66453526e-15 C15.09863,0 7.23047,8.36523 7.23047,18.647 C7.23039176,19.5389941 7.29009555,20.4299907 7.40918,21.314 C3.41270008,23.3952104 0.93245926,27.5531792 1,32.05859 C1,38.64307 6.07227,44 12.30762,44 L20.61523,44 C22.2720842,44 23.61523,42.6568542 23.61523,41 C23.61523,39.3431458 22.2720842,38 20.61523,38 L12.30762,38 C9.38086,38 7,35.33447 7,32.05859 C6.89009156,29.3031421 8.7479758,26.8561241 11.43164,26.22168 C12.2607267,26.0649487 12.9855039,25.5663704 13.4283342,24.8481429 C13.8711645,24.1299154 13.9911162,23.2584259 13.75879,22.44727 C13.4063407,21.2113355 13.228511,19.9321746 13.23047,18.64697 C13.23047,11.67334 18.40723,5.99997 24.76953,5.99997 C28.9283436,6.06961834 32.7142959,8.41344408 34.63086,12.10497 C35.4049904,13.4829706 37.1127894,14.0279229 38.542,13.353 C39.4291049,12.9269389 40.4006646,12.7058176 41.38478,12.706 C45.45704,12.706 48.76954,16.374 48.76954,20.88227 C48.7649393,21.4997004 48.6962105,22.1149826 48.56446,22.71821 C48.2171218,24.3100464 49.2115424,25.8860298 50.79786,26.25776 C53.35538,27.0098812 55.082477,29.3940464 55,32.05859 C55,35.33447 52.61914,38 49.69238,38 L35.82129,38 C32.2858461,37.9428434 29.463326,35.035588 29.51074,31.5 L29.51074,30.79883 C29.5106339,30.1595201 29.5645389,29.5213441 29.67188,28.89111 C30.2671869,29.2369258 30.9640328,29.3654927 31.64355,29.25488 C33.2778564,28.9886914 34.3888605,27.4505841 34.12793,25.81543 L33.19727,20.05127 C33.19527,20.03418 33.19238,20.01758 33.18945,20.00146 C33.1652621,19.8789476 33.1332974,19.7580997 33.09375,19.63965 C33.08398,19.60254 33.04883,19.48682 33.03516,19.45065 C32.6161074,18.3503287 31.5895817,17.5989884 30.41406,17.5322 C30.39355,17.5302 30.37206,17.52878 30.35254,17.5278 C30.2318912,17.5264851 30.1112624,17.5318667 29.99121,17.54392 C29.9114131,17.5450013 29.8317906,17.5516844 29.75293,17.56392 L29.72852,17.56832 L29.71191,17.57076 L24.20508,18.54586 C22.679514,18.8158281 21.6103592,20.2029296 21.7377299,21.7469539 C21.8651005,23.2909782 23.1471071,24.4841261 24.69629,24.50045 C23.916751,26.5090131 23.5148285,28.6442622 23.51074,30.79879 L23.51074,31.5 C23.4665633,38.3479429 28.973471,43.9395977 35.82129,44 L49.69238,44 C55.92773,44 61,38.64307 61,32.05859 C61.0589617,27.6194592 58.6572773,23.5119759 54.75977,21.38623 Z M49.69238,42 L35.82129,42 C30.0775505,41.9407829 25.465379,37.2438656 25.51074,31.5 L25.51074,30.79883 C25.5175565,28.3286911 26.1120571,25.895629 27.24512,23.70068 C27.4190476,23.3628912 27.3865622,22.9557227 27.1612757,22.6497846 C26.9359891,22.3438466 26.5568098,22.1919763 26.18262,22.25781 L24.90137,22.48486 C24.503037,22.5557301 24.1012773,22.3794154 23.8837577,22.0382747 C23.666238,21.697134 23.675888,21.2584945 23.9082,20.92725 C24.059369,20.7089315 24.2919975,20.5605921 24.55371,20.51563 L30.01758,19.54785 C30.03125,19.54585 30.0459,19.54443 30.05858,19.54199 L30.20604,19.5332 L30.29394,19.52881 C30.6738413,19.5453246 31.0097512,19.7804912 31.15526,20.13181 L31.18065,20.22458 C31.18165,20.22946 31.208,20.31247 31.21776,20.34372 C31.21976,20.35886 31.22265,20.37448 31.22558,20.38913 L31.22948,20.40866 L32.15331,26.13376 C32.241119,26.6710323 31.8819143,27.1794751 31.3461801,27.2762265 C30.8104459,27.3729779 30.296087,27.0222972 30.19042,26.48825 C30.1013809,26.0464738 29.7279138,25.7187918 29.27831,25.68796 C28.8270444,25.6513854 28.4090703,25.9274814 28.26562,26.3569 C27.7667442,27.7847413 27.5115553,29.2863162 27.51073,30.7988 L27.51073,31.5 C27.464393,36.1397092 31.1817149,39.9417677 35.82129,40 L49.69238,40 C53.72168,40 57,36.4375 57,32.05859 C57.0768062,28.4714812 54.7181691,25.2863392 51.26465,24.31348 C50.7359973,24.189334 50.404997,23.6636938 50.52148,23.1333 C50.6817237,22.3935538 50.7648513,21.6391888 50.76953,20.8823 C50.76953,15.27098 46.55953,10.70603 41.38477,10.70603 C40.103597,10.7051851 38.8386448,10.9925555 37.68359,11.54686 C37.206891,11.7724475 36.6369021,11.5912783 36.37793,11.13186 C34.1125499,6.80245955 29.6553816,4.06410627 24.76953,4 C17.30371,4 11.23047,10.5708 11.23047,18.647 C11.2286314,20.1183217 11.4324257,21.5826811 11.83594,22.99759 C11.9134032,23.2680694 11.8734913,23.5586596 11.7259729,23.7982384 C11.5784545,24.0378172 11.3369435,24.2042745 11.06055,24.25687 C7.43143364,25.068502 4.8889097,28.3414821 5,32.05859 C5,36.4375 8.27832,40 12.30762,40 L20.61523,40 C21.1675147,40 21.61523,40.4477153 21.61523,41 C21.61523,41.5522847 21.1675147,42 20.61523,42 L12.30762,42 C7.17578,42 3,37.54053 3,32.05859 C2.92168964,28.07333 5.24820698,24.432143 8.89746,22.82859 C9.3281967,22.6484705 9.5770493,22.1943387 9.49707,21.73436 C9.31976343,20.7147815 9.2305674,19.6818306 9.23047,18.64695 C9.23047,9.46775 16.20117,1.99995 24.76953,1.99995 C29.7980536,2.02590431 34.4818467,4.55995105 37.25488,8.75483 C37.5011192,9.11206237 37.9494626,9.269991 38.36523,9.14595 C39.3450023,8.85328237 40.3622206,8.70507263 41.38477,8.706 C47.66211,8.706 52.76953,14.16841 52.76953,20.88227 C52.76953,21.2187 52.75391,21.5605 52.72461,21.90766 C52.6879647,22.3320064 52.9243957,22.7329196 53.31348,22.9062 C56.8451955,24.5718108 59.0711519,28.1544625 59,32.05859 C59,37.54053 54.82422,42 49.69238,42 Z" id="Shape"/></g></g></g></svg>
