<?xml version="1.0" encoding="UTF-8"?>
<svg xmlns="http://www.w3.org/2000/svg" xmlns:xlink="http://www.w3.org/1999/xlink" width="512" height="512" viewBox="0 0 60 60" version="1.1"><!-- Generator: Sketch 49.3 (51167) - http://www.bohemiancoding.com/sketch --><title>027 - Cloud Storage</title><desc>Created with Sketch.</desc><defs><linearGradient x1="13.4485865%" y1="17.9187368%" x2="82.4891816%" y2="116.037684%" id="linearGradient-1"><stop stop-color="#D4E1F4" offset="0%"/><stop stop-color="#D4E1F4" offset="17.173%"/><stop stop-color="#D4E1F4" offset="20%"/><stop stop-color="#DAE4F4" offset="20.014%"/><stop stop-color="#EBEBF4" offset="20.069%"/><stop stop-color="#F6F1F4" offset="20.136%"/><stop stop-color="#FDF4F4" offset="20.231%"/><stop stop-color="#FFF5F4" offset="20.495%"/><stop stop-color="#FFF5F4" offset="25.222%"/><stop stop-color="#FFF5F4" offset="26%"/><stop stop-color="#D4E1F4" offset="26%"/><stop stop-color="#D4E1F4" offset="39.739%"/><stop stop-color="#D4E1F4" offset="42%"/><stop stop-color="#DAE4F4" offset="42.014%"/><stop stop-color="#EBEBF4" offset="42.069%"/><stop stop-color="#F6F1F4" offset="42.136%"/><stop stop-color="#FDF4F4" offset="42.231%"/><stop stop-color="#FFF5F4" offset="42.495%"/><stop stop-color="#FFF5F4" offset="48.939%"/><stop stop-color="#FFF5F4" offset="50%"/><stop stop-color="#F9F2F4" offset="50.003%"/><stop stop-color="#E8EBF4" offset="50.014%"/><stop stop-color="#DDE5F4" offset="50.028%"/><stop stop-color="#D6E2F4" offset="50.047%"/><stop stop-color="#D4E1F4" offset="50.1%"/><stop stop-color="#D4E1F4" offset="70.622%"/><stop stop-color="#D4E1F4" offset="74%"/><stop stop-color="#FFF5F4" offset="74.1%"/><stop stop-color="#FFF5F4" offset="83.459%"/><stop stop-color="#FFF5F4" offset="85%"/><stop stop-color="#D4E1F4" offset="85.1%"/></linearGradient></defs><g id="Page-1" stroke="none" stroke-width="1" fill="none" fill-rule="evenodd"><g id="027---Cloud-Storage" transform="translate(-1.000000, 0.000000)" fill-rule="nonzero"><g id="Colours" transform="translate(1.000000, 1.000000)"><rect id="Rectangle-path" fill="#E3E7F2" x="27" y="38" width="6" height="14"/><path d="M59,30.59 C59.087712,34.9920033 56.0725857,38.8506968 51.78,39.83 C51.2203107,39.9424871 50.650881,39.99943 50.08,40 L9.92,40 C4.85887387,39.8634264 0.86598235,35.6511945 1,30.59 C0.982294584,27.8366521 2.15205834,25.2092388 4.21,23.38 C4.25749709,23.336968 4.30759133,23.2968926 4.36,23.26 C5.50823303,22.2782234 6.89469521,21.6160325 8.38,21.34 C7.92428893,19.7567294 7.6920435,18.1175479 7.69,16.47 C7.63887313,11.0239023 10.2479402,5.89534987 14.68,2.73 C17.2084339,0.956114878 20.2213697,0.0030077283 23.31,1.33226763e-15 C28.9060186,0.0546581472 34.0337422,3.13511895 36.71,8.05 C38.0989602,7.39683648 39.6151282,7.05877201 41.15,7.06 C47.31,7.06 52.31,12.33 52.31,18.82 C52.3069477,19.6912612 52.2097162,20.5596394 52.02,21.41 C56.1898087,22.4873628 59.0765303,26.2839394 59,30.59 Z" id="Shape" fill="#A4C2F7"/><path d="M55,32.59 C55.0208871,35.354747 53.8471212,37.9938976 51.78,39.83 C51.2203107,39.9424871 50.650881,39.99943 50.08,40 L9.92,40 C4.85887387,39.8634264 0.86598235,35.6511945 1,30.59 C0.982294584,27.8366521 2.15205834,25.2092388 4.21,23.38 C4.26513634,23.3608423 4.32210601,23.3474377 4.38,23.34 C4.36867336,23.3147195 4.36190261,23.2876365 4.36,23.26 C5.50823303,22.2782234 6.89469521,21.6160325 8.38,21.34 C7.92428893,19.7567294 7.6920435,18.1175479 7.69,16.47 C7.63887313,11.0239023 10.2479402,5.89534987 14.68,2.73 C16.1759614,2.24729355 17.7380888,2.00099701 19.31,2 C24.9060186,2.05465815 30.0337422,5.13511895 32.71,10.05 C33.9737968,9.45574751 35.3444468,9.12243809 36.74,9.07 C36.88,9.06 37.01,9.06 37.15,9.06 C43.31,9.06 48.31,14.33 48.31,20.82 C48.3069477,21.6912612 48.2097162,22.5596394 48.02,23.41 C52.1898087,24.4873628 55.0765303,28.2839394 55,32.59 Z" id="Shape" fill="url(#linearGradient-1)"/><path d="M24,56 L3,56 C1.89677769,55.9967543 1.00324566,55.1032223 1,54 C0.99720347,53.4694147 1.21016347,52.9604764 1.59,52.59 C1.9604731,52.2101586 2.46941358,51.9971977 3,52 L57,52 C58.1032314,52.0032238 58.9967762,52.8967686 59,54 C58.99201,55.1012429 58.1012429,55.99201 57,56 L24,56 Z" id="Shape" fill="#E3E7F2"/><rect id="Rectangle-path" fill="#7FACFA" x="24" y="50" width="12" height="8" rx="2"/><path d="M33,52 L33,56 C33,57.1 32.325,58 31.5,58 L25.5,58 C24.675,58 24,57.1 24,56 L24,52 C24,50.9 24.675,50 25.5,50 L31.5,50 C32.325,50 33,50.9 33,52 Z" id="Shape" fill="#A4C2F7"/></g><g id="White" transform="translate(1.000000, 1.000000)" fill="#FFFFFF"><path d="M4.59,52.5899772 C4.21016347,52.9604561 3.99720347,53.4693978 4,53.9999866 C4.00324566,55.1032163 4.89677769,55.9967543 6,56 L3,56 C1.89677769,55.9967543 1.00324566,55.1032163 1,53.9999866 C0.99720347,53.4693978 1.21016347,52.9604561 1.59,52.5899772 C1.9604731,52.2101332 2.46941358,51.9971709 3,51.9999732 L6,51.9999459 C5.46941358,51.9971709 4.9604731,52.2101332 4.59,52.5899772 Z" id="Shape"/><path d="M24.76,0.08 C22.2131141,0.347170836 19.7763839,1.2592238 17.68,2.73 C13.2479402,5.89534987 10.6388731,11.0239023 10.69,16.47 C10.6920435,18.1175479 10.9242889,19.7567294 11.38,21.34 C9.89469521,21.6160325 8.50823303,22.2782234 7.36,23.26 C7.30759133,23.2968926 7.25749709,23.336968 7.21,23.38 C5.15205834,25.2092388 3.98229458,27.8366521 4,30.59 C3.86598235,35.6511945 7.85887387,39.8634264 12.92,40 L9.92,40 C4.85887387,39.8634264 0.86598235,35.6511945 1,30.59 C0.982294584,27.8366521 2.15205834,25.2092388 4.21,23.38 C4.25749709,23.336968 4.30759133,23.2968926 4.36,23.26 C5.50823303,22.2782234 6.89469521,21.6160325 8.38,21.34 C7.92428893,19.7567294 7.6920435,18.1175479 7.69,16.47 C7.63887313,11.0239023 10.2479402,5.89534987 14.68,2.73 C17.2084339,0.956114878 20.2213697,0.0030077283 23.31,1.29746474e-15 C23.7945274,-0.00354352498 24.2788033,0.0231751418 24.76,0.08 Z" id="Shape"/></g><g id="Icons"><path d="M8.42389,22.62122 C7.1311542,18.166554 7.56817823,13.3880298 9.64752,9.24176 C11.0276713,6.52232276 13.1046114,4.21773861 15.66638,2.5632 C18.2442837,0.904060097 21.2420459,0.0148577713 24.30768,1.78870363e-15 L24.30768,2 C21.6247355,2.01451622 19.0015795,2.79392346 16.746,4.24677 C14.4836948,5.70927465 12.6495767,7.74542616 11.43057,10.14771 C9.58190503,13.8405609 9.19383258,18.0947385 10.34381,22.06113 L8.42389,22.62122 Z" id="Shape" fill="#FFFFFF"/><path d="M7.98492,14.24805 C7.94680998,14.5219276 8.01074379,14.8002566 8.16455,15.03005 L8.29541,15.17287 C8.34494791,15.2185678 8.4006959,15.2570349 8.461,15.28713 C8.51311956,15.3230775 8.57056327,15.3506132 8.63123,15.36873 C8.69527561,15.3877738 8.7605796,15.4022962 8.82666,15.41219 C9.08987432,15.4379266 9.35372623,15.3699327 9.57172,15.22019 C9.67313663,15.1435312 9.75903521,15.0482693 9.82483,14.93949 C10.0116381,14.609152 10.0040414,14.2033645 9.805,13.88025 C9.73104661,13.7743485 9.63845409,13.6827759 9.53174,13.61 C9.20397218,13.367904 8.76056374,13.3539981 8.41827,13.57508 C8.18522908,13.7281043 8.02780425,13.9725769 7.98492,14.24805 Z" id="Shape" fill="#428DFF"/><path d="M51.07715,42 C56.6882182,41.8556864 61.1254385,37.1999019 61,31.58838 C61.0776989,27.1677405 58.3273577,23.1899622 54.16406,21.70166 C54.2583573,21.0801028 54.3063428,20.4523982 54.30762,19.82373 C54.30762,12.78516 48.85547,7.05859 42.1543,7.05859 C40.7783852,7.05682215 39.4135458,7.30449303 38.12598,7.78959 C35.1790907,2.97585649 29.9517335,0.0291141773 24.30768,0 L24.30762,0 C21.2420076,0.0148485903 18.2442649,0.904040923 15.66638,2.56317 C13.1046168,4.21772788 11.0276788,6.52231996 9.64752,9.24176 L9.20703,10.20544 C9.08978184,10.4522027 9.08221798,10.7370101 9.18620313,10.9896483 C9.29018828,11.2422865 9.49604743,11.4392495 9.75303,11.53198 C10.2542258,11.7087836 10.8083128,11.4814248 11.04087,11.00354 L11.43058,10.14771 C12.6495756,7.74542168 14.4836919,5.70926831 16.746,4.24677 C19.0015734,2.79391024 21.6247333,2.01450183 24.30768,2 C29.547945,2.04505928 34.3500091,4.93345984 36.84568,9.5415 C37.1041434,9.99335856 37.6654613,10.1721939 38.13768,9.95313 C39.3942971,9.36268983 40.7658621,9.05722754 42.15428,9.05859 C47.75291,9.05859 52.3076,13.8877 52.3076,19.82373 C52.3032332,20.6229966 52.2135314,21.4195121 52.04002,22.19973 C51.9244888,22.7326305 52.2572517,23.2598284 52.78802,23.38479 C56.5162413,24.3393249 59.0920857,27.7410054 59,31.58838 C59.1258951,36.0955694 55.583803,39.8561774 51.07715,40 L10.92285,40 C6.416197,39.8561774 2.87410487,36.0955694 3,31.58838 C2.91330495,27.6123232 5.67271547,24.1391527 9.56543,23.32471 C9.82636014,23.2765695 10.0574581,23.1266949 10.2078357,22.9080888 C10.3582133,22.6894828 10.4155391,22.4200716 10.36719,22.15918 C10.3563027,22.1272216 10.3436704,22.0958845 10.32935,22.06531 L10.34381,22.0611 C9.99359151,20.8530064 9.78292806,19.6087677 9.71594,18.35272 C9.67329978,17.8200389 9.22975004,17.408798 8.69537,17.40649 C8.42307718,17.4071107 8.16328043,17.5208257 7.97809214,17.720448 C7.79290385,17.9200703 7.69897059,18.1876558 7.71875,18.45923 C7.77586823,19.522586 7.924613,20.5790326 8.16333,21.61682 C3.84226416,23.0033573 0.934693904,27.0507781 1,31.58838 C0.87456155,37.1999019 5.31178183,41.8556864 10.92285,42 L27,42 L27,50 C25.7328429,50.0038983 24.6052612,50.8048143 24.18427,52 L4,52 C2.34314575,52 1,53.3431458 1,55 C1,56.6568542 2.34314575,58 4,58 L24.18433,58 C24.6052963,59.1951782 25.7328582,59.9960973 27,60 L35,60 C36.2671571,59.9961017 37.3947388,59.1951857 37.81573,58 L58,58 C59.6568542,58 61,56.6568542 61,55 C61,53.3431458 59.6568542,52 58,52 L37.81573,52 C37.3947388,50.8048143 36.2671571,50.0038983 35,50 L35,42 L51.07715,42 Z M3,55 C3.00055123,54.4479437 3.44794374,54.0005512 4,54 L24,54 L24,56 L4,56 C3.44794374,55.9994488 3.00055123,55.5520563 3,55 Z M59,55 C58.9994488,55.5520563 58.5520563,55.9994488 58,56 L38,56 L38,54 L58,54 C58.5520563,54.0005512 58.9994488,54.4479437 59,55 Z M36,53 L36,57 C35.9994488,57.5520563 35.5520563,57.9994488 35,58 L27,58 C26.4479437,57.9994488 26.0005512,57.5520563 26,57 L26,53 C26.0005512,52.4479437 26.4479437,52.0005512 27,52 L35,52 C35.5520563,52.0005512 35.9994488,52.4479437 36,53 Z M33,50 L29,50 L29,42 L33,42 L33,50 Z" id="Shape" fill="#428DFF"/></g></g></g></svg>
