<?xml version="1.0" encoding="UTF-8"?>
<svg xmlns="http://www.w3.org/2000/svg" xmlns:xlink="http://www.w3.org/1999/xlink" width="512" height="512" viewBox="0 0 60 60" version="1.1"><!-- Generator: Sketch 49.3 (51167) - http://www.bohemiancoding.com/sketch --><title>025 - Server Replication</title><desc>Created with Sketch.</desc><defs/><g id="Page-1" stroke="none" stroke-width="1" fill="none" fill-rule="evenodd"><g id="025---Server-Replication" fill-rule="nonzero"><g id="Colours" transform="translate(1.000000, 1.000000)"><path d="M24,10 L24,14 C25.1032314,14.0032238 25.9967762,14.8967686 26,16 L26,22 C25.9967543,23.1032223 25.1032223,23.9967543 24,24 L24,28 C25.1032314,28.0032238 25.9967762,28.8967686 26,30 L26,36 C25.9967543,37.1032223 25.1032223,37.9967543 24,38 L2,38 C0.896777692,37.9967543 0.00324565669,37.1032223 2.22044605e-16,36 L2.22044605e-16,30 C0.00322381203,28.8967686 0.896768606,28.0032238 2,28 L2,24 C0.896777692,23.9967543 0.00324565669,23.1032223 2.22044605e-16,22 L2.22044605e-16,16 C0.00322381203,14.8967686 0.896768606,14.0032238 2,14 L2,10 C0.896777692,9.99675434 0.00324565669,9.10322231 2.22044605e-16,8 L2.22044605e-16,2 C0.00322381203,0.896768606 0.896768606,0.00322381203 2,-2.22044605e-16 L24,-2.22044605e-16 C25.1032314,0.00322381203 25.9967762,0.896768606 26,2 L26,8 C25.9967543,9.10322231 25.1032223,9.99675434 24,10 Z" id="Shape" fill="#A4C2F7"/><path d="M56,30 L56,34 C57.1032314,34.0032238 57.9967762,34.8967686 58,36 L58,42 C57.9967543,43.1032223 57.1032223,43.9967543 56,44 L56,48 C57.1032314,48.0032238 57.9967762,48.8967686 58,50 L58,56 C57.9967543,57.1032223 57.1032223,57.9967543 56,58 L34,58 C32.8967777,57.9967543 32.0032457,57.1032223 32,56 L32,50 C32.0032238,48.8967686 32.8967686,48.0032238 34,48 L34,44 C32.8967777,43.9967543 32.0032457,43.1032223 32,42 L32,36 C32.0032238,34.8967686 32.8967686,34.0032238 34,34 L34,30 C32.8967777,29.9967543 32.0032457,29.1032223 32,28 L32,22 C32.0032238,20.8967686 32.8967686,20.0032238 34,20 L56,20 C57.1032314,20.0032238 57.9967762,20.8967686 58,22 L58,28 C57.9967543,29.1032223 57.1032223,29.9967543 56,30 Z" id="Shape" fill="#A4C2F7"/><path d="M21,10 L21,14 C22.1032314,14.0032238 22.9967762,14.8967686 23,16 L23,22 C22.9967543,23.1032223 22.1032223,23.9967543 21,24 L21,28 C22.1032314,28.0032238 22.9967762,28.8967686 23,30 L23,36 C22.9967543,37.1032223 22.1032223,37.9967543 21,38 L2,38 C0.896777692,37.9967543 0.00324565669,37.1032223 2.22044605e-16,36 L2.22044605e-16,30 C0.00322381203,28.8967686 0.896768606,28.0032238 2,28 L2,24 C0.896777692,23.9967543 0.00324565669,23.1032223 2.22044605e-16,22 L2.22044605e-16,16 C0.00322381203,14.8967686 0.896768606,14.0032238 2,14 L2,10 C0.896777692,9.99675434 0.00324565669,9.10322231 2.22044605e-16,8 L2.22044605e-16,2 C0.00322381203,0.896768606 0.896768606,0.00322381203 2,-2.22044605e-16 L21,-2.22044605e-16 C22.1032314,0.00322381203 22.9967762,0.896768606 23,2 L23,8 C22.9967543,9.10322231 22.1032223,9.99675434 21,10 Z" id="Shape" fill="#E3E7F2"/><path d="M53,30 L53,34 C54.1032314,34.0032238 54.9967762,34.8967686 55,36 L55,42 C54.9967543,43.1032223 54.1032223,43.9967543 53,44 L53,48 C54.1032314,48.0032238 54.9967762,48.8967686 55,50 L55,56 C54.9967543,57.1032223 54.1032223,57.9967543 53,58 L34,58 C32.8967777,57.9967543 32.0032457,57.1032223 32,56 L32,50 C32.0032238,48.8967686 32.8967686,48.0032238 34,48 L34,44 C32.8967777,43.9967543 32.0032457,43.1032223 32,42 L32,36 C32.0032238,34.8967686 32.8967686,34.0032238 34,34 L34,30 C32.8967777,29.9967543 32.0032457,29.1032223 32,28 L32,22 C32.0032238,20.8967686 32.8967686,20.0032238 34,20 L53,20 C54.1032314,20.0032238 54.9967762,20.8967686 55,22 L55,28 C54.9967543,29.1032223 54.1032223,29.9967543 53,30 Z" id="Shape" fill="#E3E7F2"/><rect id="Rectangle-path" fill="#A4C2F7" x="2" y="10" width="22" height="4"/><rect id="Rectangle-path" fill="#A4C2F7" x="2" y="24" width="22" height="4"/><rect id="Rectangle-path" fill="#A4C2F7" x="34" y="30" width="22" height="4"/><rect id="Rectangle-path" fill="#A4C2F7" x="34" y="44" width="22" height="4"/></g><g id="White" transform="translate(1.000000, 1.000000)" fill="#FFFFFF"><path d="M37,30 L37,34 C35.8967686,34.0032238 35.0032238,34.8967686 35,36 L35,42 C35.0032457,43.1032223 35.8967777,43.9967543 37,44 L37,48 C35.8967686,48.0032238 35.0032238,48.8967686 35,50 L35,56 C35.0032457,57.1032223 35.8967777,57.9967543 37,58 L34,58 C32.8967777,57.9967543 32.0032457,57.1032223 32,56 L32,50 C32.0032238,48.8967686 32.8967686,48.0032238 34,48 L34,44 C32.8967777,43.9967543 32.0032457,43.1032223 32,42 L32,36 C32.0032238,34.8967686 32.8967686,34.0032238 34,34 L34,30 C32.8967777,29.9967543 32.0032457,29.1032223 32,28 L32,22 C32.0032238,20.8967686 32.8967686,20.0032238 34,20 L37,20 C35.8967686,20.0032238 35.0032238,20.8967686 35,22 L35,28 C35.0032457,29.1032223 35.8967777,29.9967543 37,30 Z" id="Shape"/><path d="M5,10 L5,14 C3.89676861,14.0032238 3.00322381,14.8967686 3,16 L3,22 C3.00324566,23.1032223 3.89677769,23.9967543 5,24 L5,28 C3.89676861,28.0032238 3.00322381,28.8967686 3,30 L3,36 C3.00324566,37.1032223 3.89677769,37.9967543 5,38 L2,38 C0.896777692,37.9967543 0.00324565669,37.1032223 2.22044605e-16,36 L2.22044605e-16,30 C0.00322381203,28.8967686 0.896768606,28.0032238 2,28 L2,24 C0.896777692,23.9967543 0.00324565669,23.1032223 2.22044605e-16,22 L2.22044605e-16,16 C0.00322381203,14.8967686 0.896768606,14.0032238 2,14 L2,10 C0.896777692,9.99675434 0.00324565669,9.10322231 2.22044605e-16,8 L2.22044605e-16,2 C0.00322381203,0.896768606 0.896768606,0.00322381203 2,-2.22044605e-16 L5,-2.22044605e-16 C3.89676861,0.00322381203 3.00322381,0.896768606 3,2 L3,8 C3.00324566,9.10322231 3.89677769,9.99675434 5,10 Z" id="Shape"/></g><g id="Icons" fill="#428DFF"><path d="M5,7 L11,7 C11.5522847,7 12,6.55228475 12,6 C12,5.44771525 11.5522847,5 11,5 L5,5 C4.44771525,5 4,5.44771525 4,6 C4,6.55228475 4.44771525,7 5,7 Z" id="Shape"/><path d="M19,8 C19.5522847,8 20,7.55228475 20,7 L20,5 C20,4.44771525 19.5522847,4 19,4 C18.4477153,4 18,4.44771525 18,5 L18,7 C18,7.55228475 18.4477153,8 19,8 Z" id="Shape"/><path d="M23,8 C23.5522847,8 24,7.55228475 24,7 L24,5 C24,4.44771525 23.5522847,4 23,4 C22.4477153,4 22,4.44771525 22,5 L22,7 C22,7.55228475 22.4477153,8 23,8 Z" id="Shape"/><path d="M5,21 L11,21 C11.5522847,21 12,20.5522847 12,20 C12,19.4477153 11.5522847,19 11,19 L5,19 C4.44771525,19 4,19.4477153 4,20 C4,20.5522847 4.44771525,21 5,21 Z" id="Shape"/><path d="M19,22 C19.5522847,22 20,21.5522847 20,21 L20,19 C20,18.4477153 19.5522847,18 19,18 C18.4477153,18 18,18.4477153 18,19 L18,21 C18,21.5522847 18.4477153,22 19,22 Z" id="Shape"/><path d="M23,22 C23.5522847,22 24,21.5522847 24,21 L24,19 C24,18.4477153 23.5522847,18 23,18 C22.4477153,18 22,18.4477153 22,19 L22,21 C22,21.5522847 22.4477153,22 23,22 Z" id="Shape"/><path d="M11,33 L5,33 C4.44771525,33 4,33.4477153 4,34 C4,34.5522847 4.44771525,35 5,35 L11,35 C11.5522847,35 12,34.5522847 12,34 C12,33.4477153 11.5522847,33 11,33 Z" id="Shape"/><path d="M19,36 C19.5522847,36 20,35.5522847 20,35 L20,33 C20,32.4477153 19.5522847,32 19,32 C18.4477153,32 18,32.4477153 18,33 L18,35 C18,35.5522847 18.4477153,36 19,36 Z" id="Shape"/><path d="M23,36 C23.5522847,36 24,35.5522847 24,35 L24,33 C24,32.4477153 23.5522847,32 23,32 C22.4477153,32 22,32.4477153 22,33 L22,35 C22,35.5522847 22.4477153,36 23,36 Z" id="Shape"/><path d="M57,20 L35,20 C33.3438951,20.0018077 32.0018077,21.3438951 32,23 L32,29 C32.0039027,30.2671418 32.8048218,31.3947037 34,31.81567 L34,34.18427 C32.8048143,34.6052612 32.0038983,35.7328429 32,37 L32,43 C32.0039027,44.2671418 32.8048218,45.3947037 34,45.81567 L34,48.18427 C32.8048143,48.6052612 32.0038983,49.7328429 32,51 L32,53 L16,53 C15.4480122,52.9992838 15.0007162,52.5519878 15,52 L15,40 L25,40 C26.6561049,39.9981923 27.9981923,38.6561049 28,37 L28,31 C27.9961017,29.7328429 27.1951857,28.6052612 26,28.18427 L26,25.81573 C27.1951857,25.3947388 27.9961017,24.2671571 28,23 L28,17 C27.9961017,15.7328429 27.1951857,14.6052612 26,14.18427 L26,11.81573 C27.1951857,11.3947388 27.9961017,10.2671571 28,9 L28,3 C27.9981923,1.34389511 26.6561049,0.00180771165 25,0 L3,0 C1.34389511,0.00180771165 0.00180771165,1.34389511 0,3 L0,9 C0.00390272285,10.2671418 0.804821817,11.3947037 2,11.81567 L2,14.18427 C0.804814325,14.6052612 0.00389825674,15.7328429 -3.32519567e-16,17 L-3.32519567e-16,23 C0.00390272285,24.2671418 0.804821817,25.3947037 2,25.81567 L2,28.18427 C0.804814325,28.6052612 0.00389825674,29.7328429 -3.32519567e-16,31 L-3.32519567e-16,37 C0.00180771165,38.6561049 1.34389511,39.9981923 3,40 L13,40 L13,52 C13.0018077,53.6561049 14.3438951,54.9981923 16,55 L32,55 L32,57 C32.0018077,58.6561049 33.3438951,59.9981923 35,60 L57,60 C58.6561049,59.9981923 59.9981923,58.6561049 60,57 L60,51 C59.9961017,49.7328429 59.1951857,48.6052612 58,48.18427 L58,45.81573 C59.1951857,45.3947388 59.9961017,44.2671571 60,43 L60,37 C59.9961017,35.7328429 59.1951857,34.6052612 58,34.18427 L58,31.81573 C59.1951857,31.3947388 59.9961017,30.2671571 60,29 L60,23 C59.9981923,21.3438951 58.6561049,20.0018077 57,20 Z M4,26 L24,26 L24,28 L4,28 L4,26 Z M4,12 L24,12 L24,14 L4,14 L4,12 Z M2,3 C2.00071619,2.44801218 2.44801218,2.00071619 3,2 L25,2 C25.5519878,2.00071619 25.9992838,2.44801218 26,3 L26,9 C25.9992838,9.55198782 25.5519878,9.99928381 25,10 L3,10 C2.44801218,9.99928381 2.00071619,9.55198782 2,9 L2,3 Z M2,17 C2.00071619,16.4480122 2.44801218,16.0007162 3,16 L25,16 C25.5519878,16.0007162 25.9992838,16.4480122 26,17 L26,23 C25.9992838,23.5519878 25.5519878,23.9992838 25,24 L3,24 C2.44801218,23.9992838 2.00071619,23.5519878 2,23 L2,17 Z M2,37 L2,31 C2.00071619,30.4480122 2.44801218,30.0007162 3,30 L25,30 C25.5519878,30.0007162 25.9992838,30.4480122 26,31 L26,37 C25.9992838,37.5519878 25.5519878,37.9992838 25,38 L3,38 C2.44801218,37.9992838 2.00071619,37.5519878 2,37 Z M56,34 L36,34 L36,32 L56,32 L56,34 Z M56,48 L36,48 L36,46 L56,46 L56,48 Z M58,57 C57.9994488,57.5520563 57.5520563,57.9994488 57,58 L35,58 C34.4480122,57.9992838 34.0007162,57.5519878 34,57 L34,51 C34.0007162,50.4480122 34.4480122,50.0007162 35,50 L57,50 C57.5520563,50.0005512 57.9994488,50.4479437 58,51 L58,57 Z M58,43 C57.9994488,43.5520563 57.5520563,43.9994488 57,44 L35,44 C34.4480122,43.9992838 34.0007162,43.5519878 34,43 L34,37 C34.0007162,36.4480122 34.4480122,36.0007162 35,36 L57,36 C57.5520563,36.0005512 57.9994488,36.4479437 58,37 L58,43 Z M58,29 C57.9994488,29.5520563 57.5520563,29.9994488 57,30 L35,30 C34.4480122,29.9992838 34.0007162,29.5519878 34,29 L34,23 C34.0007162,22.4480122 34.4480122,22.0007162 35,22 L57,22 C57.5520563,22.0005512 57.9994488,22.4479437 58,23 L58,29 Z" id="Shape"/><path d="M43,25 L37,25 C36.4477153,25 36,25.4477153 36,26 C36,26.5522847 36.4477153,27 37,27 L43,27 C43.5522847,27 44,26.5522847 44,26 C44,25.4477153 43.5522847,25 43,25 Z" id="Shape"/><path d="M51,24 C50.7347623,23.999931 50.4803684,24.1052657 50.292817,24.292817 C50.1052657,24.4803684 49.999931,24.7347624 50,25 L50,27 C50,27.5522847 50.4477152,28 51,28 C51.5522847,28 51.9999999,27.5522847 51.9999999,27 L51.9999999,25 C52.0000689,24.7347624 51.8947342,24.4803684 51.7071829,24.292817 C51.5196316,24.1052657 51.2652376,23.999931 51,24 Z" id="Shape"/><path d="M55,24 C54.7347623,23.999931 54.4803684,24.1052657 54.292817,24.292817 C54.1052657,24.4803684 53.999931,24.7347624 54,25 L54,27 C54,27.5522847 54.4477152,28 55,28 C55.5522847,28 55.9999999,27.5522847 55.9999999,27 L55.9999999,25 C56.0000689,24.7347624 55.8947342,24.4803684 55.7071829,24.292817 C55.5196316,24.1052657 55.2652376,23.999931 55,24 Z" id="Shape"/><path d="M43,39 L37,39 C36.4477153,39 36,39.4477153 36,40 C36,40.5522847 36.4477153,41 37,41 L43,41 C43.5522847,41 44,40.5522847 44,40 C44,39.4477153 43.5522847,39 43,39 Z" id="Shape"/><path d="M51,38 C50.7347623,37.999931 50.4803684,38.1052657 50.292817,38.292817 C50.1052657,38.4803684 49.999931,38.7347624 50,39 L50,41 C50,41.5522847 50.4477152,42 51,42 C51.5522847,42 51.9999999,41.5522847 51.9999999,41 L51.9999999,39 C52.0000689,38.7347624 51.8947342,38.4803684 51.7071829,38.292817 C51.5196316,38.1052657 51.2652376,37.999931 51,38 Z" id="Shape"/><path d="M55,38 C54.7347623,37.999931 54.4803684,38.1052657 54.292817,38.292817 C54.1052657,38.4803684 53.999931,38.7347624 54,39 L54,41 C54,41.5522847 54.4477152,42 55,42 C55.5522847,42 55.9999999,41.5522847 55.9999999,41 L55.9999999,39 C56.0000689,38.7347624 55.8947342,38.4803684 55.7071829,38.292817 C55.5196316,38.1052657 55.2652376,37.999931 55,38 Z" id="Shape"/><path d="M43,53 L37,53 C36.4477153,53 36,53.4477153 36,54 C36,54.5522847 36.4477153,55 37,55 L43,55 C43.5522847,55 44,54.5522847 44,54 C44,53.4477153 43.5522847,53 43,53 Z" id="Shape"/><path d="M51,52 C50.7347623,51.999931 50.4803684,52.1052657 50.292817,52.292817 C50.1052657,52.4803684 49.999931,52.7347624 50,53 L50,55 C50,55.5522847 50.4477152,56 51,56 C51.5522847,56 51.9999999,55.5522847 51.9999999,55 L51.9999999,53 C52.0000689,52.7347624 51.8947342,52.4803684 51.7071829,52.292817 C51.5196316,52.1052657 51.2652376,51.999931 51,52 Z" id="Shape"/><path d="M55,52 C54.7347623,51.999931 54.4803684,52.1052657 54.292817,52.292817 C54.1052657,52.4803684 53.999931,52.7347624 54,53 L54,55 C54,55.5522847 54.4477152,56 55,56 C55.5522847,56 55.9999999,55.5522847 55.9999999,55 L55.9999999,53 C56.0000689,52.7347624 55.8947342,52.4803684 55.7071829,52.292817 C55.5196316,52.1052657 55.2652376,51.999931 55,52 Z" id="Shape"/></g></g></g></svg>
