<?xml version="1.0" encoding="UTF-8"?>
<svg xmlns="http://www.w3.org/2000/svg" xmlns:xlink="http://www.w3.org/1999/xlink" width="512" height="512" viewBox="0 0 60 60" version="1.1"><!-- Generator: Sketch 49.3 (51167) - http://www.bohemiancoding.com/sketch --><title>024 - Database Management</title><desc>Created with Sketch.</desc><defs/><g id="Page-1" stroke="none" stroke-width="1" fill="none" fill-rule="evenodd"><g id="024---Database-Management" fill-rule="nonzero"><g id="Colours" transform="translate(1.000000, 1.000000)"><path d="M58,38 C57.9862753,49.040005 49.040005,57.9862753 38,58 C37.348666,58.0021162 36.6977007,57.9687333 36.05,57.9 C35.1601711,57.8200575 34.2776573,57.6729718 33.41,57.46 L33.4,57.46 C32.51,57.56 31.59,57.65 30.64,57.72 C28.25,57.9 25.68,58 23,58 C22.33,58 21.67,57.99 21.02,57.98 C9.24,57.76 0,55.61 0,53 L0,5 C0,2.39 9.01,0.24 20.5,0.02 C21.16,0.01 21.82,0 22.5,0 C34.93,0 45,2.24 45,5 L45,19.26 C52.8208484,22.1799187 58.0041531,29.6518518 58,38 Z" id="Shape" fill="#A4C2F7"/><path d="M54,38 C54.0143919,43.3087287 51.911877,48.4041733 48.1580252,52.1580252 C44.4041733,55.911877 39.3087287,58.0143919 34,58 C32.8740233,58.0036807 31.7498368,57.9099985 30.64,57.72 C30.22,57.64 29.81,57.56 29.41,57.46 L29.4,57.46 C26.85,57.75 24.02,57.93 21.02,57.98 C9.24,57.76 0,55.61 0,53 L0,5 C0,2.39 9.01,0.24 20.5,0.02 C31.99,0.24 41,2.39 41,5 L41,19.26 C48.8208484,22.1799187 54.0041531,29.6518518 54,38 Z" id="Shape" fill="#E3E7F2"/><ellipse id="Oval" fill="#A4C2F7" cx="22.5" cy="5" rx="22.5" ry="5"/><ellipse id="Oval" fill="#E3E7F2" cx="20" cy="5" rx="20" ry="5"/><path d="M24.8,22.98 C23.4610218,24.1464048 22.2899122,25.4925078 21.32,26.98 C9.4,26.8 0,24.64 0,22 L0,18 C0,20.76 10.3,23 23,23 C23.61,23 24.21,23 24.8,22.98 Z" id="Shape" fill="#A4C2F7"/><path d="M18.89,43.91 C8.15,43.5 0,41.45 0,39 L0,35 C0,37.39 7.75,39.39 18.09,39.89 C18.216466,41.2541274 18.4845772,42.6013864 18.89,43.91 Z" id="Shape" fill="#A4C2F7"/><path d="M48,55.31 C44.9636065,57.0761842 41.5127015,58.0044776 38,58 C36.4538868,58.0046189 34.9128266,57.8233177 33.41,57.46 L33.4,57.46 C27.2484184,56.0082256 22.1458608,51.7326086 19.64,45.93 C19.3501505,45.2721406 19.0997078,44.597615 18.89,43.91 C18.4845772,42.6013864 18.216466,41.2541274 18.09,39.89 C18.03,39.26996 18,38.63996 18,38 L30.94,38 C30.9381647,38.7090065 31.0461099,39.4140232 31.26,40.09 C31.8932869,42.1414389 33.4269371,43.7924579 35.4261955,44.5750303 C37.425454,45.3576028 39.6723723,45.1864169 41.53,44.11 L46.88,53.38 L48,55.31 Z" id="Shape" fill="#A4C2F7"/><path d="M46.88,53.38 C43.8726945,55.1028984 40.4658657,56.0063287 37,56 C35.4538868,56.0046189 33.9128266,55.8233177 32.41,55.46 L32.4,55.46 C27.0106719,54.1869783 22.3904493,50.7362948 19.64,45.93 C19.3501505,45.2721406 19.0997078,44.597615 18.89,43.91 C18.4845772,42.6013864 18.216466,41.2541274 18.09,39.89 C18.03,39.26996 18,38.63996 18,38 L30.24,38 C30.4506167,38.7526918 30.7962286,39.4608574 31.26,40.09 C31.8932869,42.1414389 33.4269371,43.7924579 35.4261955,44.5750303 C37.425454,45.3576028 39.6723723,45.1864169 41.53,44.11 L46.88,53.38 Z" id="Shape" fill="#E3E7F2"/><path d="M31.89,34.47 C31.268891,35.5428474 30.9412388,36.7603325 30.9399989,38 L17.9999675,38 C17.9954774,34.4872947 18.9237739,31.0363824 20.6899869,28 L31.89,34.47 Z" id="Shape" fill="#D4E1F4"/><path d="M58.0000133,38 L45.0600023,38 C45.0535555,34.1035418 41.8964582,30.9464445 38,30.9399977 L38,17.9999867 C43.3056576,17.995664 48.3952534,20.1014111 52.1469211,23.8530789 C55.8985889,27.6047466 58.004336,32.6943424 58.0000133,38 Z" id="Shape" fill="#A4C2F7"/><path d="M53.97,38 L45.06,38 C45.0535532,34.1035431 41.8964569,30.9464468 38,30.94 L38,19.41 C39.0215391,19.6109121 40.0248967,19.8951967 41,20.26 C48.475814,23.0556065 53.5737455,30.0284134 53.97,38 Z" id="Shape" fill="#E3E7F2"/><path d="M58.0000095,38 C58.0049137,45.1438791 54.1911134,51.7455656 48.0000019,55.31 L46.7200015,53.1 L41.53,44.11 C43.7106258,42.8471268 45.0551551,40.5199109 45.060001,38 L58.0000095,38 Z" id="Shape" fill="#7FACFA"/><path d="M54,38 C53.9135967,43.8593808 51.250464,49.3831862 46.72,53.1 L41.53,44.11 C43.7106251,42.8471268 45.0551541,40.5199109 45.06,38 L54,38 Z" id="Shape" fill="#A4C2F7"/><path d="M38,17.9999543 L38,30.9399951 C35.4800891,30.944841 33.1528732,32.2893719 31.89,34.47 L20.69,27.9999911 C20.8808923,27.6485533 21.0912183,27.3080251 21.32,26.9799896 C22.2899122,25.4924954 23.4610218,24.1463905 24.8,22.9799841 C28.4443659,19.7639711 33.1395412,17.9926071 38,17.9999543 Z" id="Shape" fill="#D4E1F4"/></g><g id="White" transform="translate(1.000000, 1.000000)" fill="#FFFFFF"><path d="M24.02,57.98 L24.5,57.98 C24.01,58 23.51,58 23,58 C22.33,58 21.67,57.99 21.02,57.98 C9.24,57.76 0,55.61 0,53 L0,5 C0.00234823173,4.85644454 0.0294106811,4.71436668 0.08,4.58 C0.94,2.02 9.52,0 20,0 C20.33,0 20.66,0.01 20.99,0.01 L21.59,0.01 C11.76,0.18 3.9,2.14 3.08,4.58 C3.02941068,4.71436668 3.00234823,4.85644454 3,5 L3,53 C3,55.61 12.24,57.76 24.02,57.98 Z" id="Shape"/><path d="M22.55,0 C22.24,0 21.94,0.01 21.64,0.01 C21.92,0 22.21,0 22.5,0 L22.55,0 Z" id="Shape"/><path d="M33.64,57.72 C34.2519102,57.828934 34.869608,57.90239 35.49,57.94 C35,57.98 34.5,58 34,58 C33.1876716,58.0004905 32.376101,57.9503936 31.57,57.85 C32.27,57.82 32.96,57.77 33.64,57.72 Z" id="Shape"/><path d="M39.56,57.94 C39.05,57.98 38.53,58 38,58 C37.9065551,58.0016666 37.813088,57.9983285 37.72,57.99 C38.17,57.97 38.61,57.95 39.05,57.9 C39.0995438,57.9083066 39.149792,57.9116564 39.2,57.91 L39.56,57.94 Z" id="Shape"/><path d="M30.64,57.72 C30.95,57.77 31.26,57.82 31.57,57.85 C29.79,57.95 27.92,58 26,58 C25.49,58 24.99,57.99 24.5,57.98 C26.64,57.96 28.7,57.87 30.64,57.72 Z" id="Shape"/><path d="M37.59,57.99 C37.4,58 37.2,58 37,58 C36.5,58 36.01,57.98 35.53,57.94 C35.71,57.93 35.88,57.92 36.05,57.9 C36.0995438,57.9083066 36.149792,57.9116564 36.2,57.91 C36.44,57.93 36.68,57.96 36.93,57.97 C37.15,57.98 37.37,57.99 37.59,57.99 Z" id="Shape"/></g><g id="Icons"><polygon id="Shape" fill="#FFFFFF" points="2 6 2 19 2 54 0 54 0 19 0 6"/><path d="M1,15 C1.26470163,14.995996 1.51818849,14.8924591 1.71,14.71 C2.09672008,14.3156867 2.09672008,13.6843933 1.71,13.29008 L1.5601,13.16996 C1.50432178,13.1319755 1.44372787,13.1015979 1.37992,13.07963 C1.3231789,13.0508318 1.26242959,13.0307304 1.19971,13.02 C1.13367967,13.0087447 1.06695098,13.0020622 1,13 C0.735233018,13.0036835 0.481633787,13.1072663 0.29,13.29 C-0.0875531162,13.6880448 -0.0875531162,14.3119552 0.29,14.71 C0.385532731,14.8002924 0.497389252,14.8715624 0.61959,14.92 C0.739939045,14.9712951 0.869184251,14.9984753 1,15 Z" id="Shape" fill="#428DFF"/><path d="M6,18 L6,13 C6,12.4477153 5.55228475,12 5,12 C4.44771525,12 4,12.4477153 4,13 L4,18 C4,18.5522847 4.44771525,19 5,19 C5.55228475,19 6,18.5522847 6,18 Z" id="Shape" fill="#428DFF"/><path d="M10,19 L10,14 C10,13.4477153 9.55228475,13 9,13 C8.44771525,13 8,13.4477153 8,14 L8,19 C8,19.5522847 8.44771525,20 9,20 C9.55228475,20 10,19.5522847 10,19 Z" id="Shape" fill="#428DFF"/><path d="M5,29 C4.44771525,29 4,29.4477153 4,30 L4,35 C4,35.5522847 4.44771525,36 5,36 C5.55228475,36 6,35.5522847 6,35 L6,30 C6,29.4477153 5.55228475,29 5,29 Z" id="Shape" fill="#428DFF"/><path d="M9,30 C8.44771525,30 8,30.4477153 8,31 L8,36 C8,36.5522847 8.44771525,37 9,37 C9.55228475,37 10,36.5522847 10,36 L10,31 C10,30.4477153 9.55228475,30 9,30 Z" id="Shape" fill="#428DFF"/><path d="M5,46 C4.44771525,46 4,46.4477153 4,47 L4,52 C4,52.5522847 4.44771525,53 5,53 C5.55228475,53 6,52.5522847 6,52 L6,47 C6,46.4477153 5.55228475,46 5,46 Z" id="Shape" fill="#428DFF"/><path d="M9,47 C8.44771525,47 8,47.4477153 8,48 L8,53 C8,53.5522847 8.44771525,54 9,54 C9.55228475,54 10,53.5522847 10,53 L10,48 C10,47.4477153 9.55228475,47 9,47 Z" id="Shape" fill="#428DFF"/><path d="M47,19.59186 L47,6 C47,1.25391 31.62793,0 23.5,0 C15.37207,0 0,1.25391 0,6 L0,10 C6.76353751e-17,10.5522847 0.44771525,11 1,11 C1.55228475,11 2,10.5522847 2,10 L2,8.653 C6.42645,11.23749 17.1637,12 23.5,12 C29.8363,12 40.57355,11.23749 45,8.653 L45,18.88434 C38.2095574,16.8426149 30.8469991,18.3864525 25.44873,22.984 C24.96692,22.995 24.47583,23.00042 24,23 C9.76514,23 2,20.35742 2,19 L2,18 C2,17.4477153 1.55228475,17 1,17 C0.44771525,17 6.76353751e-17,17.4477153 0,18 L0,54 C0,58.74609 15.69873,60 24,60 C27.4632727,60.0114153 30.9245903,59.833925 34.36853,59.46832 C39.4714927,60.6470772 44.831519,59.8499942 49.37067,57.23737 C49.4150038,57.2227354 49.4582256,57.204926 49.5,57.18408 C49.5325718,57.1589065 49.5634612,57.1316282 49.59247,57.10242 C56.4853245,53.0837753 60.5002324,45.5014985 59.9501067,37.5417051 C59.3999809,29.5819118 54.3801596,22.6240528 47,19.59186 Z M23.5,10 C9.58887,10 2,7.35742 2,6 C2,4.64258 9.58887,2 23.5,2 C37.41113,2 45,4.64258 45,6 C45,7.35742 37.41113,10 23.5,10 Z M57.94934,38 L46.98981,38 C46.5277239,34.3480941 43.6519059,31.4722761 40,31.01019 L40,20.05066 C49.6896933,20.5704239 57.4295761,28.3103067 57.94934,38 Z M39,45.05859 C35.6539331,45.05859 32.94141,42.3460669 32.94141,39 C32.94141,35.6539331 35.6539331,32.94141 39,32.94141 C42.3460669,32.94141 45.05859,35.6539331 45.05859,39 C45.054881,42.3445293 42.3445293,45.054881 39,45.05859 Z M20.05066,38 C20.1850378,35.3475217 20.8785841,32.7534058 22.08582,30.38776 L31.57635,35.865 C31.289802,36.5470591 31.0992657,37.2655751 31.01019,38 L20.05066,38 Z M38,20.05066 L38,31.01019 C35.8480587,31.2814692 33.8966409,32.4096523 32.58777,34.13919 L23.08484,28.65482 C26.3952185,23.5673292 31.9386849,20.3694505 38,20.05066 Z M18,39 C18,39.27881 18.03107,39.5498 18.04187,39.826 C6.65082,39.1485 2,36.87335 2,36 L2,25.61365 C5.8053,27.8208 14.27771,28.72365 20.57562,28.93689 C18.8825475,32.0205239 17.9965561,35.4821483 18,39 Z M2,38.61053 C5.98334,40.90906 14.81378,41.64221 18.21582,41.84424 C18.3082267,42.5219733 18.4318033,43.1887 18.58655,43.84442 C6.81177,43.24 2,40.91467 2,40 L2,38.61053 Z M23.39447,24.99719 C22.8296121,25.6214801 22.3025884,26.2789867 21.81622,26.96619 C8.99677,26.70844 2,24.22974 2,23 L2,21.62927 C6.35834,24.15424 16.84375,24.95123 23.39447,24.99719 Z M24,58 C9.76514,58 2,55.35742 2,54 L2,42.63544 C6.18536,45.06189 15.76318,45.72021 19.1814,45.88074 C21.0076151,51.1021614 24.8131057,55.3964871 29.777,57.8374 C27.92157,57.94238 25.99548,58 24,58 Z M20.05066,40 L31.01019,40 C31.3216179,42.504266 32.789045,44.7176955 34.974446,45.9795823 C37.1598469,47.2414691 39.8104303,47.4058472 42.135,46.42365 L47.61223,55.91418 C41.8889093,58.8480357 35.0679543,58.6776415 29.4982623,55.4616751 C23.9285703,52.2457088 20.3710024,46.4234951 20.05066,40 Z M49.34521,54.91516 L43.86084,45.41223 C45.5903664,44.1033536 46.7185382,42.1519365 46.98981,40 L57.94934,40 C57.6305562,46.0613096 54.4326894,51.6047748 49.34521,54.91516 Z" id="Shape" fill="#428DFF"/></g></g></g></svg>
