<?xml version="1.0" encoding="UTF-8"?>
<svg xmlns="http://www.w3.org/2000/svg" xmlns:xlink="http://www.w3.org/1999/xlink" width="512" height="512" viewBox="0 0 60 60" version="1.1"><!-- Generator: Sketch 49.3 (51167) - http://www.bohemiancoding.com/sketch --><title>023 - Securty Certificate</title><desc>Created with Sketch.</desc><defs><linearGradient x1="-9.31547619%" y1="7.48161765%" x2="91.6666667%" y2="69.8529412%" id="linearGradient-1"><stop stop-color="#D4E1F4" offset="0%"/><stop stop-color="#D4E1F4" offset="17.173%"/><stop stop-color="#D4E1F4" offset="20%"/><stop stop-color="#DAE4F4" offset="20.014%"/><stop stop-color="#EBEBF4" offset="20.069%"/><stop stop-color="#F6F1F4" offset="20.136%"/><stop stop-color="#FDF4F4" offset="20.231%"/><stop stop-color="#FFF5F4" offset="20.495%"/><stop stop-color="#FFF5F4" offset="25.222%"/><stop stop-color="#FFF5F4" offset="26%"/><stop stop-color="#D4E1F4" offset="26%"/><stop stop-color="#D4E1F4" offset="39.739%"/><stop stop-color="#D4E1F4" offset="42%"/><stop stop-color="#DAE4F4" offset="42.014%"/><stop stop-color="#EBEBF4" offset="42.069%"/><stop stop-color="#F6F1F4" offset="42.136%"/><stop stop-color="#FDF4F4" offset="42.231%"/><stop stop-color="#FFF5F4" offset="42.495%"/><stop stop-color="#FFF5F4" offset="48.939%"/><stop stop-color="#FFF5F4" offset="50%"/><stop stop-color="#F9F2F4" offset="50.003%"/><stop stop-color="#E8EBF4" offset="50.014%"/><stop stop-color="#DDE5F4" offset="50.028%"/><stop stop-color="#D6E2F4" offset="50.047%"/><stop stop-color="#D4E1F4" offset="50.1%"/><stop stop-color="#D4E1F4" offset="70.622%"/><stop stop-color="#D4E1F4" offset="74%"/><stop stop-color="#FFF5F4" offset="74.1%"/><stop stop-color="#FFF5F4" offset="83.459%"/><stop stop-color="#FFF5F4" offset="85%"/><stop stop-color="#D4E1F4" offset="85.1%"/></linearGradient></defs><g id="Page-1" stroke="none" stroke-width="1" fill="none" fill-rule="evenodd"><g id="023---Securty-Certificate" fill-rule="nonzero"><g id="Colours" transform="translate(1.000000, 1.000000)"><path d="M41,1 L41,22 L33,30 L28,30 L28,35 L25,33 L22,35 L22,30 L18,30 C17.4483991,29.9983526 17.0016474,29.5516009 17,29 L17,1 C17.0016474,0.448399067 17.4483991,0.00164740056 18,0 L40,0 C40.5516009,0.00164740056 40.9983526,0.448399067 41,1 Z" id="Shape" fill="#A4C2F7"/><path d="M38,1 L38,22 L30,30 L25,30 L25,33 L23.5,34 L22,33 L22,30 L18,30 C17.4483991,29.9983526 17.0016474,29.5516009 17,29 L17,1 C17.0016474,0.448399067 17.4483991,0.00164740056 18,0 L37,0 C37.5516009,0.00164740056 37.9983526,0.448399067 38,1 Z" id="Shape" fill="url(#linearGradient-1)"/><path d="M41,22 L33,30 L33,22.89 C33.0010998,22.3989229 33.3989229,22.0010998 33.89,22 L41,22 Z" id="Shape" fill="#A4C2F7"/><path d="M29,21 C29,23.209139 27.209139,25 25,25 C22.790861,25 21,23.209139 21,21 C21,18.790861 22.790861,17 25,17 C26.0608782,16.9999602 27.0783169,17.4213748 27.8284711,18.1715289 C28.5786252,18.9216831 29.0000398,19.9391218 29,21 Z" id="Shape" fill="#A4C2F7"/><path d="M28,23.64 L28,35 L25,33 L22,35 L22,23.64 C22.4106825,24.1052659 22.9243128,24.4682313 23.5,24.7 C23.974131,24.9018244 24.4847159,25.0039414 25,25 C26.1493668,25.0006637 27.243012,24.5048778 28,23.64 Z" id="Shape" fill="#E3E7F2"/><path d="M25,25 L25,33 L23.5,34 L22,33 L22,25 C22.5152841,25.0039414 23.025869,24.9018244 23.5,24.7 C23.974131,24.9018244 24.4847159,25.0039414 25,25 Z" id="Shape" fill="#E3E7F2"/><path d="M8.5,38 C3.8056,38 0,38.89545 0,40 L0,56 C0,57.1 3.81,58 8.5,58 C13.19,58 17,57.1 17,56 L17,40 C17,38.89545 13.19446,38 8.5,38 Z" id="Shape" fill="#E3E7F2"/><ellipse id="Oval" fill="#E3E7F2" cx="8.50002" cy="40.00004" rx="8.5" ry="2"/><path d="M49.5,38 C44.8056,38 41,38.89545 41,40 L41,56 C41,57.1 44.81,58 49.5,58 C54.19,58 58,57.1 58,56 L58,40 C58,38.89545 54.19444,38 49.5,38 Z" id="Shape" fill="#E3E7F2"/><ellipse id="Oval" fill="#E3E7F2" cx="49.5" cy="40.00004" rx="8.5" ry="2"/></g><g id="White" transform="translate(1.000000, 1.000000)" fill="#FFFFFF"><path d="M20,1 L20,29 C20.0016474,29.5516009 20.4483991,29.9983526 21,30 L18,30 C17.4483991,29.9983526 17.0016474,29.5516009 17,29 L17,1 C17.0016474,0.448399067 17.4483991,0.00164740056 18,0 L21,0 C20.4483991,0.00164740056 20.0016474,0.448399067 20,1 Z" id="Shape"/><path d="M10,57.97 C9.51,57.99 9.01,58 8.5,58 C3.81,58 0,57.1 0,56 L0,40 C0,38.9 3.81,38 8.5,38 C9.01,38 9.51,38.01 10,38.03 C6.02,38.2 3,39.02 3,40 L3,56 C3,56.98 6.02,57.8 10,57.97 Z" id="Shape"/><path d="M51,57.97 C50.51,57.99 50.01,58 49.5,58 C44.81,58 41,57.1 41,56 L41,40 C41,38.9 44.81,38 49.5,38 C49.79,38 50.08,38 50.37,38.01 C50.58,38.01 50.79,38.01995 51,38.03 C47.02,38.2 44,39.02 44,40 L44,56 C44,56.98 47.02,57.8 51,57.97 Z" id="Shape"/></g><g id="Icons"><polygon id="Shape" fill="#FFFFFF" points="19 2 19 15 19 30 17 30 17 15 17 2"/><path d="M17,15 L11,15 C9.34389511,15.0018077 8.00180771,16.3438951 8,18 L8,32.14941 L5.78076,29.37549 C5.55813055,29.0950396 5.20251896,28.955061 4.84845749,29.0085097 C4.49439601,29.0619585 4.19595154,29.3006728 4.06602929,29.6343441 C3.93610704,29.9680153 3.99454677,30.3456903 4.21924,30.62449 L8.21924,35.62449 C8.24005,35.65049 8.27185,35.66087 8.29474,35.68437 C8.31945344,35.7182769 8.34643166,35.7504737 8.37549,35.78074 C8.41809073,35.8089005 8.46286933,35.8336188 8.5094,35.85466 C8.5435291,35.8764099 8.57899994,35.895979 8.6156,35.91325 C8.73649897,35.9674955 8.86703328,35.9969916 8.99951,36 L8.99976,35.99994 L9,36 C9.11269373,35.9998865 9.22457336,35.9809075 9.331,35.94385 C9.3517,35.93658 9.3675,35.922 9.38746,35.91351 C9.41703651,35.899501 9.44588355,35.8840011 9.47389,35.86707 C9.57437331,35.8128066 9.66463044,35.7414456 9.74061,35.65619 C9.75233,35.64301 9.76954,35.63849 9.78071,35.62451 L13.78071,30.62451 C14.1231251,30.1931634 14.0522297,29.5661304 13.6221497,29.2221259 C13.1920697,28.8781214 12.5647793,28.9467024 12.21919,29.37551 L10,32.14954 L10,18 C10.0007162,17.4480122 10.4480122,17.0007162 11,17 L17,17 L17,30 C17.0011025,31.1041125 17.8958875,31.9988975 19,32 L22,32 L22,36 C21.9999659,36.368807 22.2029479,36.7076898 22.5281196,36.881707 C22.8532913,37.0557243 23.2478521,37.0366195 23.55469,36.832 L26,35.20166 L28.44531,36.832 C28.7521479,37.0366195 29.1467087,37.0557243 29.4718804,36.881707 C29.7970521,36.7076898 30.0000341,36.368807 30,36 L30,32 L34,32 C34.2651137,31.9987751 34.5191364,31.8934548 34.70734,31.70673 L42.70673,23.70734 L42.70819,23.70544 C42.7885591,23.6222308 42.8537157,23.5255739 42.9007,23.41986 C42.9465802,23.3052289 42.9758264,23.184624 42.98755,23.06171 C42.989,23.04016 43,23.02191 43,23 L43,17 L49,17 C49.5519878,17.0007162 49.9992838,17.4480122 50,18 L50,32.14954 L47.78076,29.37549 C47.5581305,29.0950396 47.202519,28.955061 46.8484575,29.0085097 C46.494396,29.0619585 46.1959515,29.3006728 46.0660293,29.6343441 C45.936107,29.9680153 45.9945468,30.3456903 46.21924,30.62449 L50.21924,35.62449 C50.23041,35.63849 50.24762,35.64299 50.2594,35.65623 C50.3352656,35.7412819 50.4253274,35.8125105 50.52557,35.86674 C50.5537474,35.8838261 50.5827859,35.8994501 50.61257,35.91355 C50.63247,35.92204 50.64828,35.93655 50.66891,35.94383 C50.775364,35.9809042 50.8872749,35.9998901 51,36 L51.00024,35.99994 L51.00049,36 C51.1329654,35.9969979 51.2634996,35.9675086 51.3844,35.91327 C51.4644474,35.8691195 51.5444841,35.8249495 51.62451,35.78076 C51.6535683,35.7504937 51.6805466,35.7182969 51.70526,35.68439 C51.72815,35.66089 51.75995,35.65051 51.78076,35.62451 L55.78076,30.62451 C56.1231751,30.1931634 56.0522797,29.5661304 55.6221997,29.2221259 C55.1921197,28.8781214 54.5648293,28.9467024 54.21924,29.37551 L52,32.14941 L52,18 C51.9981923,16.3438951 50.6561049,15.0018077 49,15 L43,15 L43,2 C42.9988975,0.895887477 42.1041125,0.00110245966 41,0 L19,0 C17.8958875,0.00110245966 17.0011025,0.895887477 17,2 L17,6 C17,6.55228475 17.4477153,7 18,7 C18.5522847,7 19,6.55228475 19,6 L19,2 L41,2 L41,22 L34.88867,22 C33.8460502,22.0011188 33.0011188,22.8460502 33,23.88867 L33,30 L30,30 L30,24.96906 C30.6458335,24.1136579 30.9967309,23.0718223 31,22 C31,19.2385763 28.7614237,17 26,17 C23.2385763,17 21,19.2385763 21,22 C21.0032691,23.0718223 21.3541665,24.1136579 22,24.96906 L22,30 L19,30 L19,14 C19,13.4477153 18.5522847,13 18,13 C17.4477153,13 17,13.4477153 17,14 L17,15 Z M35,24 L39.58594,24 L35,28.58594 L35,24 Z M28,34.13135 L26.55469,33.168 C26.2187066,32.944369 25.7812934,32.944369 25.44531,33.168 L24,34.13135 L24,26.57617 C25.2734561,27.1412764 26.7265439,27.1412764 28,26.57617 L28,34.13135 Z M26,19 C27.6568542,19 29,20.3431458 29,22 C29,23.6568542 27.6568542,25 26,25 C24.3431458,25 23,23.6568542 23,22 C23.0018077,20.3438951 24.3438951,19.0018077 26,19 Z" id="Shape" fill="#428DFF"/><path d="M18,11 C18.404347,10.9984049 18.7682813,10.7544153 18.9233352,10.3809754 C19.0783892,10.0075356 18.9943027,9.57752565 18.71,9.29 L18.5601,9.16988 C18.5043218,9.13189552 18.4437279,9.10151785 18.37992,9.07955 C18.3231744,9.05077951 18.2624253,9.03070509 18.19971,9.02 C18.1336797,9.00874474 18.066951,9.00206218 18,9 C17.735233,9.00368349 17.4816338,9.10726627 17.29,9.29 C17.0473861,9.52372386 16.9409205,9.86515515 17.0076921,10.195352 C17.0744636,10.5255488 17.3052259,10.7987868 17.61959,10.91988 C17.7399307,10.9712163 17.8691762,10.9984374 18,11 Z" id="Shape" fill="#428DFF"/><path d="M9.5,60 C11.08643,60 19,59.85547 19,57 L19,41 C19,38.14453 11.08643,38 9.5,38 C7.91357,38 0,38.14453 0,41 L0,57 C0,59.85547 7.91357,60 9.5,60 Z M2,56.808 L2,55.00122 C4.43611014,55.7067429 6.96415473,56.0434042 9.5,56 C10.0522847,56 10.5,55.5522847 10.5,55 C10.5,54.4477153 10.0522847,54 9.5,54 C5.17346,54 2.55072,53.24768 2,52.81024 L2,51.00124 C4.43611117,51.7067561 6.96415574,52.0434107 9.5,52 C10.0522847,52 10.5,51.5522847 10.5,51 C10.5,50.4477153 10.0522847,50 9.5,50 C5.17346,50 2.55072,49.24768 2,48.81024 L2,47.00124 C4.43611117,47.7067561 6.96415574,48.0434107 9.5,48 C10.0522847,48 10.5,47.5522847 10.5,47 C10.5,46.4477153 10.0522847,46 9.5,46 C5.17346,46 2.55072,45.24768 2,44.81024 L2,43.00122 C4.43611117,43.7067561 6.96415574,44.0434107 9.5,44 C12.0358453,44.0434042 14.5638899,43.7067429 17,43.00122 L17,56.808 C16.44666,57.2464 13.82233,58 9.5,58 C5.17767,58 2.55334,57.2464 2,56.808 Z M9.5,40 C11.9319852,39.8918796 14.3631729,40.2308227 16.67285,41 C14.3631729,41.7691773 11.9319852,42.1081204 9.5,42 C7.06801481,42.1081204 4.63682709,41.7691773 2.32715,41 C4.63682709,40.2308227 7.06801481,39.8918796 9.5,40 Z" id="Shape" fill="#428DFF"/><path d="M50.5,38 C48.91357,38 41,38.14453 41,41 L41,57 C41,59.85547 48.91357,60 50.5,60 C52.08643,60 60,59.85547 60,57 L60,41 C60,38.14453 52.08643,38 50.5,38 Z M50.5,40 C52.9319852,39.8918796 55.3631729,40.2308227 57.67285,41 C55.3631729,41.7691773 52.9319852,42.1081204 50.5,42 C48.0680148,42.1081204 45.6368271,41.7691773 43.32715,41 C45.6368271,40.2308227 48.0680148,39.8918796 50.5,40 Z M43,56.808 L43,55.00122 C45.4361101,55.7067429 47.9641547,56.0434042 50.5,56 C51.0522847,56 51.5,55.5522847 51.5,55 C51.5,54.4477153 51.0522847,54 50.5,54 C46.17346,54 43.55072,53.24768 43,52.81024 L43,51.00124 C45.4361112,51.7067561 47.9641557,52.0434107 50.5,52 C51.0522847,52 51.5,51.5522847 51.5,51 C51.5,50.4477153 51.0522847,50 50.5,50 C46.17346,50 43.55072,49.24768 43,48.81024 L43,47.00124 C45.4361112,47.7067561 47.9641557,48.0434107 50.5,48 C51.0522847,48 51.5,47.5522847 51.5,47 C51.5,46.4477153 51.0522847,46 50.5,46 C46.17346,46 43.55072,45.24768 43,44.81024 L43,43.00122 C45.4361112,43.7067561 47.9641557,44.0434107 50.5,44 C53.0358453,44.0434042 55.5638899,43.7067429 58,43.00122 L58,56.808 C57.44666,57.2464 54.82233,58 50.5,58 C46.17767,58 43.55334,57.2464 43,56.808 Z" id="Shape" fill="#428DFF"/><path d="M22,6 L23,6 C23.5522847,6 24,5.55228475 24,5 C24,4.44771525 23.5522847,4 23,4 L22,4 C21.4477153,4 21,4.44771525 21,5 C21,5.55228475 21.4477153,6 22,6 Z" id="Shape" fill="#428DFF"/><path d="M27,6 L38,6 C38.5522847,6 39,5.55228475 39,5 C39,4.44771525 38.5522847,4 38,4 L27,4 C26.4477153,4 26,4.44771525 26,5 C26,5.55228475 26.4477153,6 27,6 Z" id="Shape" fill="#428DFF"/><path d="M22,10 L23,10 C23.5522847,10 24,9.55228475 24,9 C24,8.44771525 23.5522847,8 23,8 L22,8 C21.4477153,8 21,8.44771525 21,9 C21,9.55228475 21.4477153,10 22,10 Z" id="Shape" fill="#428DFF"/><path d="M27,10 L38,10 C38.5522847,10 39,9.55228475 39,9 C39,8.44771525 38.5522847,8 38,8 L27,8 C26.4477153,8 26,8.44771525 26,9 C26,9.55228475 26.4477153,10 27,10 Z" id="Shape" fill="#428DFF"/><path d="M22,14 L23,14 C23.5522847,14 24,13.5522847 24,13 C24,12.4477153 23.5522847,12 23,12 L22,12 C21.4477153,12 21,12.4477153 21,13 C21,13.5522847 21.4477153,14 22,14 Z" id="Shape" fill="#428DFF"/><path d="M27,14 L38,14 C38.5522847,14 39,13.5522847 39,13 C39,12.4477153 38.5522847,12 38,12 L27,12 C26.4477153,12 26,12.4477153 26,13 C26,13.5522847 26.4477153,14 27,14 Z" id="Shape" fill="#428DFF"/></g></g></g></svg>
