<?xml version="1.0" encoding="UTF-8"?>
<svg xmlns="http://www.w3.org/2000/svg" xmlns:xlink="http://www.w3.org/1999/xlink" width="512" height="512" viewBox="0 0 60 60" version="1.1"><!-- Generator: Sketch 49.3 (51167) - http://www.bohemiancoding.com/sketch --><title>022 - Database Replication</title><desc>Created with Sketch.</desc><defs/><g id="Page-1" stroke="none" stroke-width="1" fill="none" fill-rule="evenodd"><g id="022---Database-Replication" fill-rule="nonzero"><g id="Colours" transform="translate(1.000000, 1.000000)"><path d="M26,34 L26,54 C26,56.21 20.18,58 13,58 C12.49,58 11.99,57.99 11.5,57.97 C5.03,57.74 0,56.05 0,54 L0,34 C0,31.95 5.03,30.26 11.5,30.03 C11.99,30.01 12.49,30 13,30 C20.18,30 26,31.79 26,34 Z" id="Shape" fill="#A4C2F7"/><path d="M23,34 L23,54 C23,56.05 17.97,57.74 11.5,57.97 C5.03,57.74 0,56.05 0,54 L0,34 C0,31.95 5.03,30.26 11.5,30.03 C17.97,30.26 23,31.95 23,34 Z" id="Shape" fill="#E3E7F2"/><ellipse id="Oval" fill="#A4C2F7" cx="13" cy="34" rx="13" ry="4"/><ellipse id="Oval" fill="#E3E7F2" cx="11" cy="34" rx="11" ry="4"/><path d="M26,46 L26,50 C26,52.21 20.18,54 13,54 C5.82,54 0,52.21 0,50 L0,46 C0,48.21 5.82,50 13,50 C20.18,50 26,48.21 26,46 Z" id="Shape" fill="#A4C2F7"/><path d="M26,38 L26,42 C26,44.21 20.18,46 13,46 C5.82,46 0,44.21 0,42 L0,38 C0,40.21 5.82,42 13,42 C20.18,42 26,40.21 26,38 Z" id="Shape" fill="#A4C2F7"/><path d="M58,4 L58,24 C58,26.21 52.18,28 45,28 C44.49,28 43.99,27.99 43.5,27.97 C37.03,27.74 32,26.05 32,24 L32,4 C32,1.95 37.03,0.26 43.5,0.03 C43.99,0.01 44.49,0 45,0 C52.18,0 58,1.79 58,4 Z" id="Shape" fill="#A4C2F7"/><path d="M55,4 L55,24 C55,26.05 49.97,27.74 43.5,27.97 C37.03,27.74 32,26.05 32,24 L32,4 C32,1.95 37.03,0.26 43.5,0.03 C49.97,0.26 55,1.95 55,4 Z" id="Shape" fill="#E3E7F2"/><ellipse id="Oval" fill="#A4C2F7" cx="45" cy="4" rx="13" ry="4"/><ellipse id="Oval" fill="#E3E7F2" cx="43" cy="4" rx="11" ry="4"/><path d="M58,16 L58,20 C58,22.21 52.18,24 45,24 C37.82,24 32,22.21 32,20 L32,16 C32,18.21 37.82,20 45,20 C52.18,20 58,18.21 58,16 Z" id="Shape" fill="#A4C2F7"/><path d="M58,8 L58,12 C58,14.21 52.18,16 45,16 C37.82,16 32,14.21 32,12 L32,8 C32,10.21 37.82,12 45,12 C52.18,12 58,10.21 58,8 Z" id="Shape" fill="#A4C2F7"/></g><g id="White" transform="translate(1.000000, 1.000000)" fill="#FFFFFF"><path d="M14.5,57.97 C14.01,57.99 13.51,58 13,58 C12.49,58 11.99,57.99 11.5,57.97 C5.03,57.74 0,56.05 0,54 L0,34 C0,31.79 4.92,30 11,30 C11.31,30 11.61,30.01 11.92,30.02 C12.27,30.01 12.63,30 13,30 C13.18,30 13.36,30 13.54,30.01 C7.67,30.09 3,31.85 3,34 L3,54 C3,56.05 8.03,57.74 14.5,57.97 Z" id="Shape"/><path d="M46.5,27.97 C46.01,27.99 45.51,28 45,28 C44.49,28 43.99,27.99 43.5,27.97 C37.03,27.74 32,26.05 32,24 L32,4 C32,1.79 36.92,0 43,0 C43.31,0 43.61,0.01 43.92,0.02 C44.27,0.01 44.63,0 45,0 C45.18,0 45.36,0 45.54,0.01 C39.67,0.09 35,1.85 35,4 L35,24 C35,26.05 40.03,27.74 46.5,27.97 Z" id="Shape"/></g><g id="Icons" fill="#428DFF"><path d="M14,60 C20.957,60 28,58.28271 28,55 L28,45 L44,45 C45.6566782,44.9995749 46.9995749,43.6566782 47,42 L47,35.41406 L48.293,36.70706 C48.6841917,37.0933426 49.313858,37.091348 49.7025947,36.7025949 C50.0913314,36.3138417 50.0932992,35.6841753 49.707,35.293 L46.707,32.293 C46.69785,32.28384 46.68546,32.28116 46.67606,32.27243 C46.5908862,32.1899276 46.4915376,32.1234547 46.38278,32.0762 L46.3793,32.07535 C46.3707,32.07181 46.36154,32.07205 46.35288,32.06876 C46.2513848,32.0311151 46.1444249,32.0102912 46.03622,32.00711 C46.0036086,32.0070932 45.9710172,32.008722 45.93857,32.01199 C45.8521213,32.0171838 45.7667417,32.0338084 45.68466,32.06143 C45.6531152,32.0708836 45.6220746,32.0819448 45.59166,32.09457 C45.4807861,32.1418711 45.3795406,32.2091298 45.29296,32.293 L42.29296,35.293 C41.9073651,35.6843015 41.90968,36.3134025 42.2981442,36.7018557 C42.6866083,37.0903089 43.3157094,37.092606 43.707,36.707 L45,35.41406 L45,42 C44.9998565,42.5522253 44.5522253,42.9998565 44,43 L28,43 L28,35 C28,31.71729 20.957,30 14,30 C7.043,30 0,31.71729 0,35 L0,55 C0,58.28271 7.043,60 14,60 Z M26,39 C26,40.05762 21.44385,42 14,42 C6.55615,42 2,40.05762 2,39 L2,37.69873 C4.58276,39.21533 9.30646,40 14,40 C18.69354,40 23.41724,39.21533 26,37.69873 L26,39 Z M14,44 C18.69354,44 23.41724,43.21533 26,41.69873 L26,43 C26,44.05762 21.44385,46 14,46 C6.55615,46 2,44.05762 2,43 L2,41.69873 C4.58276,43.21533 9.30646,44 14,44 Z M14,48 C18.69354,48 23.41724,47.21533 26,45.69873 L26,47 C26,48.05762 21.44385,50 14,50 C6.55615,50 2,48.05762 2,47 L2,45.69873 C4.58276,47.21533 9.30646,48 14,48 Z M14,52 C18.69354,52 23.41724,51.21533 26,49.69873 L26,51 C26,52.05762 21.44385,54 14,54 C6.55615,54 2,52.05762 2,51 L2,49.69873 C4.58276,51.21533 9.30646,52 14,52 Z M14,58 C6.55615,58 2,56.05762 2,55 L2,53.69873 C4.58276,55.21533 9.30646,56 14,56 C18.69354,56 23.41724,55.21533 26,53.69873 L26,55 C26,56.05762 21.44385,58 14,58 Z M14,32 C21.44385,32 26,33.94238 26,35 C26,36.05762 21.44385,38 14,38 C6.55615,38 2,36.05762 2,35 C2,33.94238 6.55615,32 14,32 Z" id="Shape"/><path d="M46,0 C39.043,0 32,1.71729 32,5 L32,15 L16,15 C14.3433218,15.0004251 13.0004251,16.3433218 13,18 L13,24.58594 L11.707,23.29294 C11.3158083,22.9066574 10.686142,22.908652 10.2974053,23.2974051 C9.90866864,23.6861583 9.90670079,24.3158247 10.293,24.707 L13.293,27.707 C13.30215,27.71616 13.31454,27.71884 13.32394,27.72757 C13.4091138,27.8100724 13.5084624,27.8765453 13.61722,27.9238 L13.62033,27.92441 C13.9932433,28.077806 14.4218091,27.9920629 14.707,27.707 L17.707,24.707 C18.091453,24.3155191 18.0886083,23.6873575 17.7006254,23.2993746 C17.3126425,22.9113917 16.6844809,22.908547 16.293,23.293 L15,24.58594 L15,18 C15.0001435,17.4477747 15.4477747,17.0001435 16,17 L32,17 L32,25 C32,28.28271 39.043,30 46,30 C52.957,30 60,28.28271 60,25 L60,5 C60,1.71729 52.957,0 46,0 Z M58,21 C58,22.05762 53.44385,24 46,24 C38.55615,24 34,22.05762 34,21 L34,19.69873 C36.58276,21.21533 41.30646,22 46,22 C50.69354,22 55.41724,21.21533 58,19.69873 L58,21 Z M58,17 C58,18.05762 53.44385,20 46,20 C38.55615,20 34,18.05762 34,17 L34,15.69873 C36.58276,17.21533 41.30646,18 46,18 C50.69354,18 55.41724,17.21533 58,15.69873 L58,17 Z M58,13 C58,14.05762 53.44385,16 46,16 C38.55615,16 34,14.05762 34,13 L34,11.69873 C36.58276,13.21533 41.30646,14 46,14 C50.69354,14 55.41724,13.21533 58,11.69873 L58,13 Z M58,9 C58,10.05762 53.44385,12 46,12 C38.55615,12 34,10.05762 34,9 L34,7.69873 C36.58276,9.21533 41.30646,10 46,10 C50.69354,10 55.41724,9.21533 58,7.69873 L58,9 Z M46,2 C53.44385,2 58,3.94238 58,5 C58,6.05762 53.44385,8 46,8 C38.55615,8 34,6.05762 34,5 C34,3.94238 38.55615,2 46,2 Z M46,28 C38.55615,28 34,26.05762 34,25 L34,23.69873 C36.58276,25.21533 41.30646,26 46,26 C50.69354,26 55.41724,25.21533 58,23.69873 L58,25 C58,26.05762 53.44385,28 46,28 Z" id="Shape"/></g></g></g></svg>
