<?xml version="1.0" encoding="UTF-8"?>
<svg xmlns="http://www.w3.org/2000/svg" xmlns:xlink="http://www.w3.org/1999/xlink" width="512" height="512" viewBox="0 0 60 60" version="1.1"><!-- Generator: Sketch 49.3 (51167) - http://www.bohemiancoding.com/sketch --><title>021 - Cloud Email Server </title><desc>Created with Sketch.</desc><defs/><g id="Page-1" stroke="none" stroke-width="1" fill="none" fill-rule="evenodd"><g id="021---Cloud-Email-Server-" fill-rule="nonzero"><g id="Colours" transform="translate(1.000000, 1.000000)"><path d="M47.9999998,34.9999999 L47.9999998,41.9999999 C47.9999998,42.5522846 47.5522846,42.9999998 46.9999998,42.9999998 C46.4477151,42.9999998 45.9999999,42.5522846 45.9999999,41.9999999 L45.9999999,34.9999999 C45.996776,33.8967686 45.1032312,33.0032238 43.9999999,33 L20,33 C19.4477152,33 19,32.5522847 19,32 C19,31.4477152 19.4477152,31 20,31 L43.9999999,31 C45.0609577,30.9997002 46.0785476,31.4210312 46.8287581,32.1712417 C47.5789686,32.9214522 48.0002997,33.9390421 47.9999998,34.9999999 Z" id="Shape" fill="#4482C3"/><path d="M44,27 L20,27 C19.4477153,27 19,26.5522847 19,26 C19,25.4477153 19.4477153,25 20,25 L44,25 C45.1041125,24.9988975 45.9988975,24.1041125 46,23 L46,16 C46,15.4477153 46.4477153,15 47,15 C47.5522847,15 48,15.4477153 48,16 L48,23 C47.9974761,25.2080927 46.2080927,26.9974761 44,27 Z" id="Shape" fill="#4482C3"/><path d="M57.35,42.53 C56.9839253,42.1878432 56.5010779,41.9982808 56,42 L38,42 C37.4989221,41.9982808 37.0160747,42.1878432 36.65,42.53 C36.2367519,42.907149 36.0009063,43.4405229 36,44 L36,56 C36.0009026,56.5594778 36.2367488,57.0928532 36.65,57.47 C37.0160621,57.8121768 37.4989178,58.0017424 38,58 L56,58 C56.5010822,58.0017424 56.9839379,57.8121768 57.35,57.47 C57.7632512,57.0928532 57.9990974,56.5594778 58,56 L58,44 C57.9990937,43.4405229 57.7632481,42.907149 57.35,42.53 Z" id="Shape" fill="#E3E7F2"/><path d="M58,44 L58,56 C57.9990974,56.5594778 57.7632512,57.0928532 57.35,57.47 L48.22,50 L57.35,42.53 C57.7632481,42.907149 57.9990937,43.4405229 58,44 Z" id="Shape" fill="#E3E7F2"/><path d="M57.35,57.47 C56.9839379,57.8121768 56.5010822,58.0017424 56,58 L38,58 C37.4989178,58.0017424 37.0160621,57.8121768 36.65,57.47 L45.78,50 L47,51 L48.22,50 L57.35,57.47 Z" id="Shape" fill="#E3E7F2"/><path d="M45.78,50 L36.65,57.47 C36.2367488,57.0928532 36.0009026,56.5594778 36,56 L36,44 C36.0009063,43.4405229 36.2367519,42.907149 36.65,42.53 L45.78,50 Z" id="Shape" fill="#E3E7F2"/><path d="M58,12.24 C58.0179158,14.192728 56.5261182,15.828471 54.58,15.99 C54.4902544,15.998328 54.4001157,16.0016664 54.31,16 L37.69,16 C35.7628164,15.9622907 34.1756417,14.4746009 34.0134365,12.5538854 C33.8512313,10.6331699 35.1664346,8.90037311 37.06,8.54 C36.4002812,6.37435293 36.8820535,4.0219492 38.34,2.29 C39.5505183,0.840269916 41.3413313,0.00162743589 43.23,-6.66133815e-16 C45.5209454,0.0101325901 47.6341527,1.23617356 48.78,3.22 C49.3567013,2.95371252 49.984795,2.81717042 50.62,2.82 C53.1924255,2.85047353 55.2547294,4.95751284 55.23,7.53 C55.2269641,7.87663769 55.1867337,8.22194846 55.11,8.56 C56.8115972,8.96581061 58.0091368,10.4907053 58,12.24 Z" id="Shape" fill="#A4C2F7"/><path d="M55,14.24 C55.0021758,14.848552 54.8581348,15.4487226 54.58,15.99 C54.4902544,15.998328 54.4001157,16.0016664 54.31,16 L37.69,16 C35.7628164,15.9622907 34.1756417,14.4746009 34.0134365,12.5538854 C33.8512313,10.6331699 35.1664346,8.90037311 37.06,8.54 C36.4002812,6.37435293 36.8820535,4.0219492 38.34,2.29 C38.9511305,2.09582708 39.5887671,1.99798866 40.23,2 C42.5209454,2.01013259 44.6341527,3.23617356 45.78,5.22 C46.3567013,4.95371252 46.984795,4.81717042 47.62,4.82 C50.1924255,4.85047353 52.2547294,6.95751284 52.23,9.53 C52.2269641,9.87663769 52.1867337,10.2219485 52.11,10.56 C53.8115972,10.9658106 55.0091368,12.4907053 55,14.24 Z" id="Shape" fill="#E3E7F2"/><rect id="Rectangle-path" fill="#A4C2F7" x="0" y="10" width="20" height="38" rx="1"/><rect id="Rectangle-path" fill="#E3E7F2" x="0" y="10" width="17" height="38" rx="1"/><path d="M20,11 L20,19 L13.28,25.72 C12.7126759,24.9059005 11.8654412,24.3292113 10.9,24.1 C10.6042018,24.0360217 10.3026276,24.0025135 10,24 C8.6940955,24.0141334 7.47422295,24.6538227 6.72,25.72 L0,19 L0,11 C0.00164740056,10.4483991 0.448399067,10.0016474 1,10 L19,10 C19.5516009,10.0016474 19.9983526,10.4483991 20,11 Z" id="Shape" fill="#A4C2F7"/><path d="M14,28 C13.9945964,30.2068969 12.2068969,31.9945964 10,32 C9.4851917,31.9990634 8.9755679,31.8971386 8.5,31.7 C8.32864405,31.6301606 8.16167213,31.550014 8,31.46 C7.03008665,30.9028483 6.33899657,29.9637022 6.09554393,28.8719693 C5.85209129,27.7802364 6.07869425,26.636448 6.72,25.72 C7.16300138,25.0816392 7.78116945,24.585021 8.5,24.29 C8.9762146,24.0961381 9.48584332,23.9976098 10,24 C12.2060042,24.0075498 13.9924502,25.7939958 14,28 Z" id="Shape" fill="#A4C2F7"/><path d="M11,28 C11.0026782,29.4287069 10.2393657,30.7492375 9,31.46 C8.83832787,31.550014 8.67135595,31.6301606 8.5,31.7 C8.32864405,31.6301606 8.16167213,31.550014 8,31.46 C7.03008665,30.9028483 6.33899657,29.9637022 6.09554393,28.8719693 C5.85209129,27.7802364 6.07869425,26.636448 6.72,25.72 C7.16300138,25.0816392 7.78116945,24.585021 8.5,24.29 C10.0059623,24.9084776 10.9921651,26.3720026 11,28 Z" id="Shape" fill="#E3E7F2"/><path d="M12,31.46 L12,48 L8,48 L8,31.46 C9.23611897,32.1800532 10.763881,32.1800532 12,31.46 Z" id="Shape" fill="#E3E7F2"/><path d="M16,15 L4,15 C3.44771525,15 3,14.5522847 3,14 C3,13.4477153 3.44771525,13 4,13 L16,13 C16.5522847,13 17,13.4477153 17,14 C17,14.5522847 16.5522847,15 16,15 Z" id="Shape" fill="#4482C3"/><path d="M16,11 L16,19 L10.9,24.1 C10.6042018,24.0360217 10.3026276,24.0025135 10,24 C9.29571598,23.9980009 8.60422828,24.18816 8,24.55 C7.39577172,24.18816 6.70428402,23.9980009 6,24 C5.69737236,24.0025135 5.39579823,24.0360217 5.1,24.1 L0,19 L0,11 C0.00164740056,10.4483991 0.448399067,10.0016474 1,10 L15,10 C15.5516009,10.0016474 15.9983526,10.4483991 16,11 Z" id="Shape" fill="#E3E7F2"/></g><g id="White" transform="translate(1.000000, 1.000000)" fill="#FFFFFF"><path d="M3,47 C3.0016474,47.5516009 3.44839907,47.9983526 4,48 L1,48 C0.448399067,47.9983526 0.00164740056,47.5516009 0,47 L0,11 C0.00164740056,10.4483991 0.448399067,10.0016474 1,10 L4,10 C3.44839907,10.0016474 3.0016474,10.4483991 3,11 L3,47 Z" id="Shape"/><path d="M43.23,-4.28632553e-17 C43.7321583,-0.00115004039 44.2325617,0.0593013713 44.72,0.18 C43.3985599,0.508224825 42.215202,1.24694828 41.34,2.29 C39.8820535,4.0219492 39.4002812,6.37435293 40.06,8.54 C38.1664346,8.90037311 36.8512313,10.6331699 37.0134365,12.5538854 C37.1756417,14.4746009 38.7628164,15.9622907 40.69,16 L37.69,16 C35.7628164,15.9622907 34.1756417,14.4746009 34.0134365,12.5538854 C33.8512313,10.6331699 35.1664346,8.90037311 37.06,8.54 C36.4002812,6.37435293 36.8820535,4.0219492 38.34,2.29 C39.5505183,0.840269916 41.3413313,0.00162743589 43.23,8.45315164e-16 Z" id="Shape"/><path d="M52.13,3.08 C52.0110044,3.12061933 51.8941826,3.16734805 51.78,3.22 C51.71994,3.12 51.65994,3.02 51.6,2.93 C51.7795043,2.96936832 51.9564882,3.0194581 52.13,3.08 Z" id="Shape"/><path d="M39.65,57.470011 C40.0160621,57.8121883 40.4989178,58.0017542 41,58.0000237 L38,58.0000117 C37.4989178,58.0017542 37.0160621,57.8121883 36.65,57.470011 C36.2367488,57.0928636 36.0009026,56.5594875 36,56.0000088 L36,43.9999915 C36.0009063,43.4405136 36.2367519,42.9071389 36.65,42.5299893 C37.0160747,42.187832 37.4989221,41.9982694 38,41.9999886 L41,41.999977 C40.4989221,41.9982694 40.0160747,42.187832 39.65,42.5299893 C39.2367519,42.9071389 39.0009063,43.4405136 39,43.9999915 L39,56.0000088 C39.0009026,56.5594875 39.2367488,57.0928636 39.65,57.470011 Z" id="Shape"/></g><g id="Icons"><polygon id="Shape" fill="#FFFFFF" points="0 48 0 35 0 12 2 12 2 35 2 48"/><path d="M0.62012,40.92041 C0.676850837,40.9491906 0.737586291,40.9692784 0.80029,40.98 C0.866320333,40.9912553 0.933049024,40.9979378 1,41 C1.26476698,40.9963165 1.51836621,40.8927337 1.71,40.71 C2.08750253,40.311966 2.08750253,39.688114 1.71,39.29008 C1.61446727,39.1997876 1.50261075,39.1285176 1.38041,39.08008 C1.26006652,39.0287574 1.1308211,39.00155 1,39 C0.735298368,39.004004 0.481811506,39.1075409 0.29,39.29 C-0.0967723902,39.684323 -0.0967723902,40.315677 0.29,40.71 L0.4399,40.83012 C0.495692866,40.8680937 0.556300322,40.8984579 0.62012,40.92041 Z" id="Shape" fill="#428DFF"/><path d="M17,16 C17.5522847,16 18,15.5522847 18,15 C18,14.4477153 17.5522847,14 17,14 L5,14 C4.44771525,14 4,14.4477153 4,15 C4,15.5522847 4.44771525,16 5,16 L17,16 Z" id="Shape" fill="#428DFF"/><path d="M17.37988,17.07959 C17.1362516,16.9799805 16.8632584,16.9799805 16.61963,17.07959 C16.4973023,17.127989 16.3854013,17.1994179 16.29,17.29 C15.9032799,17.6843133 15.9032799,18.3156067 16.29,18.70992 C16.3872214,18.7980231 16.4986601,18.8690268 16.61959,18.91992 C16.8617598,19.0266935 17.1376702,19.0266935 17.37984,18.91992 C17.5009219,18.869035 17.6125231,18.7980332 17.70992,18.70992 C18.0966401,18.3156067 18.0966401,17.6843133 17.70992,17.29 C17.6142832,17.1995198 17.5022692,17.1281076 17.37988,17.07959 Z" id="Shape" fill="#428DFF"/><path d="M45,28 C47.2080927,27.9974761 48.9974761,26.2080927 49,24 L49,18 L55.30762,18 C57.5358721,17.9611312 59.4410111,16.3862722 59.8983683,14.205116 C60.3557256,12.0239597 59.2436966,9.81644374 57.21875,8.88574 C57.22705,8.76563 57.23096,8.64648 57.23096,8.5293 C57.2520582,5.40451315 54.7399582,2.85222477 51.61523,2.82373 C51.1301604,2.82307448 50.6471921,2.88745119 50.17923,3.01514 C48.7920554,1.11751382 46.5815807,-0.00296918909 44.231,0 C40.0770439,0.0398267867 36.7390635,3.43434086 36.769,7.58838 C36.7689461,8.01170205 36.8033935,8.43432436 36.872,8.85205 C34.8111388,9.74634559 33.6532479,11.9570752 34.0916962,14.1604082 C34.5301445,16.3637413 36.4461546,17.9627854 38.69238,18 L47,18 L47,24 C46.9988975,25.1041125 46.1041125,25.9988975 45,26 L22,26 L22,12 C21.9988975,10.8958875 21.1041125,10.0011025 20,10 L2,10 C0.895887477,10.0011025 0.00110245966,10.8958875 0,12 L0,36 C6.76353751e-17,36.5522847 0.44771525,37 1,37 C1.55228475,37 2,36.5522847 2,36 L2,22.41406 L6.4809,26.895 C5.46332826,29.023505 6.10082141,31.5747492 8,32.97443 L8,48 L2,48 L2,44 C2,43.4477153 1.55228475,43 1,43 C0.44771525,43 6.76353751e-17,43.4477153 0,44 L0,48 C0.00110245966,49.1041125 0.895887477,49.9988975 2,50 L20,50 C21.1041125,49.9988975 21.9988975,49.1041125 22,48 L22,34 L45,34 C46.1041125,34.0011025 46.9988975,34.8958875 47,36 L47,42 L39,42 C37.3438951,42.0018077 36.0018077,43.3438951 36,45 L36,57 C36.0018077,58.6561049 37.3438951,59.9981923 39,60 L57,60 C58.6561049,59.9981923 59.9981923,58.6561049 60,57 L60,45 C59.9981923,43.3438951 58.6561049,42.0018077 57,42 L49,42 L49,36 C48.9974761,33.7919073 47.2080927,32.0025239 45,32 L22,32 L22,28 L45,28 Z M36,13.23535 C35.9874307,11.9092478 36.9279619,10.7651797 38.23145,10.521 C38.5124003,10.4707279 38.7584848,10.3028103 38.9077353,10.0595314 C39.0569859,9.81625249 39.0951801,9.52079504 39.0127,9.24756 C38.8506198,8.70942592 38.7685091,8.15039248 38.769,7.58838 C38.7379088,4.53842961 41.1811363,2.03867061 44.231,2 C46.1682345,2.00436247 47.9553128,3.04410216 48.9165,4.72607 C49.1750657,5.16647235 49.7242077,5.3408778 50.1895,5.13037 C50.6374084,4.92751007 51.1235753,4.82295102 51.61528,4.82373 C53.6359145,4.85106783 55.2532591,6.5086032 55.231,8.5293 C55.2290473,8.80446546 55.1967895,9.07857855 55.13481,9.34668 C55.0146674,9.88419158 55.3516982,10.4176829 55.88871,10.54004 C57.2357781,10.8698336 58.1314111,12.1449177 57.9846644,13.5239832 C57.8379177,14.9030487 56.6940146,15.9611052 55.30771,16.00004 L38.69238,16.00004 C37.1863226,15.9780478 35.9820788,14.7414613 36,13.23535 Z M58,56.89166 L50.80011,51.00066 L58,45.10846 L58,56.89166 Z M38,45.10846 L45.19989,51.00061 L38,56.89166 L38,45.10846 Z M46.77893,52.29279 L47.36621,52.77344 C47.4128008,52.8053803 47.4621264,52.8331352 47.51361,52.85638 C47.5477798,52.8785737 47.5833135,52.8985933 47.62,52.91632 C47.7397635,52.9689174 47.8687324,52.9973544 47.99951,53 L48,52.99988 L48.00049,53 C48.1312676,52.9973544 48.2602365,52.9689174 48.38,52.91632 C48.4166865,52.8985933 48.4522202,52.8785737 48.48639,52.85638 C48.5378736,52.8331352 48.5871992,52.8053803 48.63379,52.77344 L49.22107,52.29279 L56.19623,58 L39.80377,58 L46.77893,52.29279 Z M48,50.70789 L39.80347,44 L56.19653,44 L48,50.70789 Z M2,12 L20,12 L20,19.58594 L14.307,25.27894 C12.4320727,23.5736947 9.56792729,23.5736947 7.693,25.27894 L2,19.58594 L2,12 Z M11,32 C9.34314575,32 8,30.6568542 8,29 C8,27.3431458 9.34314575,26 11,26 C12.6568542,26 14,27.3431458 14,29 C13.9981923,30.6561049 12.6561049,31.9981923 11,32 Z M10,48 L10,33.89893 C10.6598566,34.03369 11.3401434,34.03369 12,33.89893 L12,48 L10,48 Z M20,48 L14,48 L14,32.97443 C15.8991786,31.5747492 16.5366717,29.023505 15.5191,26.895 L20,22.41406 L20,48 Z" id="Shape" fill="#428DFF"/></g></g></g></svg>
