<?xml version="1.0" encoding="UTF-8"?>
<svg xmlns="http://www.w3.org/2000/svg" xmlns:xlink="http://www.w3.org/1999/xlink" width="512" height="512" viewBox="0 0 60 60" version="1.1"><!-- Generator: Sketch 49.3 (51167) - http://www.bohemiancoding.com/sketch --><title>020 - Cloud Backup</title><desc>Created with Sketch.</desc><defs><linearGradient x1="0.253442276%" y1="6.83653333%" x2="99.7465577%" y2="93.1633333%" id="linearGradient-1"><stop stop-color="#D4E1F4" offset="0%"/><stop stop-color="#D4E1F4" offset="17.173%"/><stop stop-color="#D4E1F4" offset="20%"/><stop stop-color="#DAE4F4" offset="20.014%"/><stop stop-color="#EBEBF4" offset="20.069%"/><stop stop-color="#F6F1F4" offset="20.136%"/><stop stop-color="#FDF4F4" offset="20.231%"/><stop stop-color="#FFF5F4" offset="20.495%"/><stop stop-color="#FFF5F4" offset="25.222%"/><stop stop-color="#FFF5F4" offset="26%"/><stop stop-color="#D4E1F4" offset="26%"/><stop stop-color="#D4E1F4" offset="39.739%"/><stop stop-color="#D4E1F4" offset="42%"/><stop stop-color="#DAE4F4" offset="42.014%"/><stop stop-color="#EBEBF4" offset="42.069%"/><stop stop-color="#F6F1F4" offset="42.136%"/><stop stop-color="#FDF4F4" offset="42.231%"/><stop stop-color="#FFF5F4" offset="42.495%"/><stop stop-color="#FFF5F4" offset="48.939%"/><stop stop-color="#FFF5F4" offset="50%"/><stop stop-color="#F9F2F4" offset="50.003%"/><stop stop-color="#E8EBF4" offset="50.014%"/><stop stop-color="#DDE5F4" offset="50.028%"/><stop stop-color="#D6E2F4" offset="50.047%"/><stop stop-color="#D4E1F4" offset="50.1%"/><stop stop-color="#D4E1F4" offset="70.622%"/><stop stop-color="#D4E1F4" offset="74%"/><stop stop-color="#FFF5F4" offset="74.1%"/><stop stop-color="#FFF5F4" offset="83.459%"/><stop stop-color="#FFF5F4" offset="85%"/><stop stop-color="#D4E1F4" offset="85.1%"/></linearGradient></defs><g id="Page-1" stroke="none" stroke-width="1" fill="none" fill-rule="evenodd"><g id="020---Cloud-Backup" fill-rule="nonzero"><g id="Colours" transform="translate(0.000000, 1.000000)"><rect id="Rectangle-path" fill="#A4C2F7" x="43" y="18" width="6" height="5"/><path d="M27,13 C27.0002653,14.0609473 26.5789232,15.0785171 25.8287201,15.8287201 C25.0785171,16.5789232 24.0609473,17.0002653 23,17 L5,17 C2.92596901,17.0028494 1.19477509,15.4179233 1.01500549,13.3516959 C0.835235896,11.2854685 2.26670043,9.42537916 4.31006,9.07 C4.10429965,8.39926804 3.99979519,7.70158296 4,7 C3.99199126,4.56528197 5.25921456,2.30407018 7.34009,1.04 C8.43823159,0.356613514 9.70658684,-0.00380230541 11,-9.99200722e-16 C13.4664254,-0.000220158738 15.7503891,1.29947297 17.01,3.42 C17.6365926,3.14215836 18.3145707,2.9990675 19,3 C21.7610099,3.00099894 23.9990011,5.23899013 24,8 C23.9979865,8.37037737 23.9543799,8.73935684 23.87,9.1 C25.6976426,9.50701886 26.9982506,11.1275848 27,13 Z" id="Shape" fill="#A4C2F7"/><path d="M24,14 C24.0006506,15.1493639 23.5048671,16.243004 22.64,17 L5,17 C2.92596901,17.0028494 1.19477509,15.4179233 1.01500549,13.3516959 C0.835235896,11.2854685 2.26670043,9.42537916 4.31006,9.07 C4.10429965,8.39926804 3.99979519,7.70158296 4,7 C3.99199126,4.56528197 5.25921456,2.30407018 7.34009,1.04 C7.55890166,1.01175172 7.77937836,0.998387677 8,1 C10.4664254,0.999779841 12.7503891,2.29947297 14.01,4.42 C14.6365926,4.14215836 15.3145707,3.9990675 16,4 C18.7610099,4.00099894 20.9990011,6.23899013 21,9 C20.9979865,9.37037737 20.9543799,9.73935684 20.87,10.1 C22.6976426,10.5070189 23.9982506,12.1275848 24,14 Z" id="Shape" fill="#E3E7F2"/><rect id="Rectangle-path" fill="#A4C2F7" x="38" y="4" width="16" height="15" rx="2"/><path d="M51,6 L51,17 C51.0893855,17.9967415 50.3689318,18.8834538 49.375,19 L39.625,19 C38.6310682,18.8834538 37.9106145,17.9967415 38,17 L38,6 C37.9105927,5.00325181 38.6310572,4.11652627 39.625,4 L49.375,4 C50.3689428,4.11652627 51.0894073,5.00325181 51,6 Z" id="Shape" fill="url(#linearGradient-1)"/><path d="M51,24 L41,24 C40.4477153,24 40,23.5522847 40,23 C40,22.4477153 40.4477153,22 41,22 L51,22 C51.5522847,22 52,22.4477153 52,23 C52,23.5522847 51.5522847,24 51,24 Z" id="Shape" fill="#7F8C8D"/><polygon id="Shape" fill="#A4C2F7" points="19 16 19 26 9 26 9 12 15 12"/><polygon id="Shape" fill="#E3E7F2" points="16 16 16 26 9 26 9 12 12 12"/><polygon id="Shape" fill="#A4C2F7" points="19 16 19 18 13 18 13 12 15 12"/><rect id="Rectangle-path" fill="#A4C2F7" x="1" y="38" width="58" height="20" rx="2"/><path d="M55,40 L55,56 C55.0335357,57.0647777 54.2023872,57.9574921 53.13793,58 L2.86207,58 C1.79761277,57.9574921 0.966464339,57.0647777 1,56 L1,40 C0.966442291,38.9352141 1.79760294,38.0424865 2.86207,38 L53.13793,38 C54.2023971,38.0424865 55.0335577,38.9352141 55,40 Z" id="Shape" fill="#E3E7F2"/><path d="M24,42 L24,54 L36,54 L36,42 L24,42 Z M30,50 C28.8954305,50 28,49.1045695 28,48 C28,46.8954305 28.8954305,46 30,46 C31.1045695,46 32,46.8954305 32,48 C31.9967543,49.1032223 31.1032223,49.9967543 30,50 Z" id="Shape" fill="#A4C2F7"/><path d="M9,42 L9,48 C9,46.8954305 8.1045695,46 7,46 C5.8954305,46 5,46.8954305 5,48 L5,43 C5.0016474,42.4483991 5.44839907,42.0016474 6,42 L9,42 Z" id="Shape" fill="#A4C2F7"/><path d="M9,48 L9,54 L6,54 C5.44839907,53.9983526 5.0016474,53.5516009 5,53 L5,48 C5,49.1045695 5.8954305,50 7,50 C8.1045695,50 9,49.1045695 9,48 Z" id="Shape" fill="#A4C2F7"/><path d="M55,43 L55,48 C55,46.8954305 54.1045695,46 53,46 C51.8954305,46 51,46.8954305 51,48 L51,42 L54,42 C54.5516009,42.0016474 54.9983526,42.4483991 55,43 Z" id="Shape" fill="#A4C2F7"/><path d="M55,48 L55,53 C54.9983526,53.5516009 54.5516009,53.9983526 54,54 L51,54 L51,48 C51,49.1045695 51.8954305,50 53,50 C54.1045695,50 55,49.1045695 55,48 Z" id="Shape" fill="#A4C2F7"/><rect id="Rectangle-path" fill="#7F8C8D" x="9" y="48" width="15" height="6"/><rect id="Rectangle-path" fill="#A4C2F7" x="9" y="42" width="15" height="6"/><circle id="Oval" fill="#E3E7F2" cx="7" cy="48" r="2"/><rect id="Rectangle-path" fill="#A4C2F7" x="36" y="42" width="15" height="6"/><rect id="Rectangle-path" fill="#E3E7F2" x="9" y="42" width="11" height="6"/><rect id="Rectangle-path" fill="#E3E7F2" x="36" y="42" width="11" height="6"/><rect id="Rectangle-path" fill="#A4C2F7" x="9" y="48" width="15" height="6"/><rect id="Rectangle-path" fill="#A4C2F7" x="36" y="48" width="15" height="6"/><rect id="Rectangle-path" fill="#E3E7F2" x="9" y="48" width="11" height="6"/><rect id="Rectangle-path" fill="#E3E7F2" x="36" y="48" width="11" height="6"/><circle id="Oval" fill="#E3E7F2" cx="53" cy="48" r="2"/><circle id="Oval" fill="#E3E7F2" cx="30" cy="48" r="2"/></g><g id="White" transform="translate(0.000000, 1.000000)" fill="#FFFFFF"><path d="M11,0 C11.507475,0.00165577564 12.0134469,0.0552686905 12.51,0.16 C11.74173,0.327209721 11.0077996,0.62485145 10.34008,1.04 C8.2592084,2.30407264 6.99198914,4.56528398 7,7 C6.99979519,7.70158296 7.10429965,8.39926804 7.31006,9.07 C5.26670043,9.42537916 3.8352359,11.2854685 4.01500549,13.3516959 C4.19477509,15.4179233 5.92596901,17.0028494 8,17 L5,17 C2.92596901,17.0028494 1.19477509,15.4179233 1.01500549,13.3516959 C0.835235896,11.2854685 2.26670043,9.42537916 4.31006,9.07 C4.10429965,8.39926804 3.99979519,7.70158296 4,7 C3.99199126,4.56528197 5.25921456,2.30407018 7.34009,1.04 C8.43823159,0.356613514 9.70658684,-0.00380230541 11,-7.77156117e-16 Z" id="Shape"/><rect id="Rectangle-path" x="9" y="12" width="3" height="14"/><path d="M20.52,3.23 C20.3457199,3.28119056 20.1752919,3.34468334 20.01,3.42 C19.93993,3.3 19.86,3.18 19.78,3.07 C20.0306138,3.10308369 20.2781043,3.15659516 20.52,3.23 Z" id="Shape"/><path d="M39.62,19 C38.6278108,18.8814636 37.9099179,17.9951761 38,17 L38,6 C37.9098962,5.00481727 38.6277998,4.11851649 39.62,4 L42.6,4 C41.6174447,4.13117405 40.9122918,5.01261519 41,6 L41,17 C40.9099179,17.9951761 41.6278108,18.8814636 42.62,19 L39.62,19 Z" id="Shape"/><path d="M46,19 L46,22 L44,22 C43.4477153,22 43,22.4477153 43,23 C43,23.5522847 43.4477153,24 44,24 L41,24 C40.4477153,24 40,23.5522847 40,23 C40,22.4477153 40.4477153,22 41,22 L43,22 L43,19 L46,19 Z" id="Shape"/><path d="M5.86,58 L2.86,58 C1.79663445,57.955797 0.967052885,57.0637738 1,56 L1,40 C0.967030923,38.936218 1.79662464,38.0441817 2.86,38 L5.85,38 C4.79017617,38.048606 3.96600018,38.9396071 4,40 L4,56 C3.96705289,57.0637738 4.79663445,57.955797 5.86,58 Z" id="Shape"/></g><g id="Icons" fill="#428DFF"><path d="M0,14 C0.00324014244,16.7600805 2.23991948,18.9967599 5,19 L8,19 L8,26 C8.00126197,27.1040464 8.89595365,27.998738 10,28 L13,28 L13,29 C13,29.5522847 13.4477153,30 14,30 C14.5522847,30 15,29.5522847 15,29 L15,28 L18,28 C19.1040464,27.998738 19.998738,27.1040464 20,26 L20,19 L23,19 C25.3706965,19.0005535 27.415737,17.3358428 27.8962346,15.014351 C28.3767321,12.6928591 27.1605198,10.3531412 24.98438,9.4126 C24.99512,9.27393 25,9.13623 25,9 C24.9963791,5.6877925 22.3122075,3.00362092 19,3 C18.4613198,2.99930772 17.9250841,3.07241747 17.40625,3.21729 C15.1905794,0.253237276 11.2310283,-0.804090453 7.83267712,0.660837524 C4.43432592,2.1257655 2.48444039,5.73047531 3.11816,9.37646 C1.23298908,10.1373414 -0.000996776927,11.9670689 0,14 Z M10,26 L10,14 L12,14 L12,19 C11.999931,19.2652376 12.1052657,19.5196316 12.292817,19.707183 C12.4803684,19.8947343 12.7347624,20.000069 13,20 L18,20 L18,26 L10,26 Z M14.58594,14 L18,17.41406 L18,18 L14,18 L14,14 L14.58594,14 Z M4.48242,11.05469 C4.76477342,11.0051145 5.01227249,10.8367456 5.16208004,10.5923302 C5.31188758,10.3479149 5.34959543,10.0509603 5.26563,9.77686 C5.0894968,9.20101527 4.9999744,8.60217942 5,8 C4.9985073,5.29908384 6.80280067,2.93047018 9.4070971,2.21451599 C12.0113935,1.4985618 14.7729385,2.61196847 16.15234,4.93408 C16.4114573,5.36701453 16.9527224,5.53877777 17.41406,5.33447 C17.9133809,5.11293176 18.4537405,4.99897155 19,5 C21.2081634,5.00235345 22.9976466,6.79183657 23,9 C22.9979974,9.29531608 22.9629492,9.58948035 22.89551,9.877 C22.8360234,10.1364494 22.8824553,10.4089094 23.0245176,10.6340115 C23.1665799,10.8591135 23.3925428,11.0182712 23.65234,11.07622 C25.1452914,11.4079346 26.1491361,12.8103773 25.9817316,14.3305464 C25.8143272,15.8507155 24.5293584,17.001109 23,17 L20,17 C19.9985333,16.7347452 19.8930814,16.4806481 19.7063,16.2923 L15.70789,12.29382 C15.5195048,12.1069632 15.2653343,12.0014661 15,12 L10,12 C8.89595365,12.001262 8.00126197,12.8959536 8,14 L8,17 L5,17 C3.44470335,17.0027387 2.14617011,15.8144427 2.01128086,14.265004 C1.8763916,12.7155654 2.95004763,11.320754 4.48242,11.05469 Z" id="Shape"/><path d="M57,38 L47,38 L47,37 C47,36.4477153 46.5522847,36 46,36 C45.4477153,36 45,36.4477153 45,37 L45,38 L15,38 L15,37 C15,36.4477153 14.5522847,36 14,36 C13.4477153,36 13,36.4477153 13,37 L13,38 L3,38 C1.34389511,38.0018077 0.00180771165,39.3438951 -6.66862121e-16,41 L-6.66862121e-16,57 C0.00180771165,58.6561049 1.34389511,59.9981923 3,60 L57,60 C58.6561049,59.9981923 59.9981923,58.6561049 60,57 L60,41 C59.9981923,39.3438951 58.6561049,38.0018077 57,38 Z M58,57 C57.9994488,57.5520563 57.5520563,57.9994488 57,58 L3,58 C2.44794374,57.9994488 2.00055123,57.5520563 2,57 L2,41 C2.00055123,40.4479437 2.44794374,40.0005512 3,40 L57,40 C57.5520563,40.0005512 57.9994488,40.4479437 58,41 L58,57 Z" id="Shape"/><path d="M54,42 L6,42 C4.89595365,42.001262 4.00126197,42.8959536 4,44 L4,54 C4.00126197,55.1040464 4.89595365,55.998738 6,56 L54,56 C55.1040464,55.998738 55.998738,55.1040464 56,54 L56,44 C55.998738,42.8959536 55.1040464,42.001262 54,42 Z M54.00024,46.18433 C53.3561423,45.9385774 52.6441124,45.9385561 52,46.18427 L52,44 L54,44 L54.00024,46.18433 Z M54,49 C54,49.5522847 53.5522847,50 53,50 C52.4477153,50 52,49.5522847 52,49 C52,48.4477153 52.4477153,48 53,48 C53.5520563,48.0005512 53.9994488,48.4479437 54,49 Z M50,44 L50,48 L37,48 L37,44 L50,44 Z M25,44 L35,44 L35,54 L25,54 L25,44 Z M23,44 L23,48 L10,48 L10,44 L23,44 Z M8,44 L8,46.18427 C7.35597037,45.9385762 6.64402963,45.9385762 6,46.18427 L6,44 L8,44 Z M8,49 C8,49.5522847 7.55228475,50 7,50 C6.44771525,50 6,49.5522847 6,49 C6,48.4477153 6.44771525,48 7,48 C7.55205626,48.0005512 7.99944877,48.4479437 8,49 Z M6,51.81567 C6.644015,52.0614225 7.35597025,52.0614438 8,51.81573 L8,54 L6,54 L6,51.81567 Z M10,54 L10,50 L23,50 L23,54 L10,54 Z M37,54 L37,50 L50,50 L50,54 L37,54 Z M52,54 L52,51.81567 C52.6442665,52.0615056 53.3565077,52.0614415 54.00073,51.81549 L54.001,54 L52,54 Z" id="Shape"/><path d="M30,46 C28.3431458,46 27,47.3431458 27,49 C27,50.6568542 28.3431458,52 30,52 C31.6568542,52 33,50.6568542 33,49 C32.9981923,47.3438951 31.6561049,46.0018077 30,46 Z M30,50 C29.4477153,50 29,49.5522847 29,49 C29,48.4477153 29.4477153,48 30,48 C30.5522847,48 31,48.4477153 31,49 C30.9994488,49.5520563 30.5520563,49.9994488 30,50 Z" id="Shape"/><path d="M14,31 C13.7347623,30.999931 13.4803684,31.1052657 13.292817,31.292817 C13.1052657,31.4803684 12.999931,31.7347624 13,32 L13,34 C13,34.5522847 13.4477152,35 14,35 C14.5522847,35 14.9999999,34.5522847 14.9999999,34 L14.9999999,32 C15.0000689,31.7347624 14.8947342,31.4803684 14.7071829,31.292817 C14.5196316,31.1052657 14.2652376,30.999931 14,31 Z" id="Shape"/><path d="M47,27 C47,26.4477153 46.5522847,26 46,26 C45.4477153,26 45,26.4477153 45,27 L45,29 C45,29.5522847 45.4477153,30 46,30 C46.5522847,30 47,29.5522847 47,29 L47,27 Z" id="Shape"/><path d="M46,31 C45.7347623,30.999931 45.4803684,31.1052657 45.292817,31.292817 C45.1052657,31.4803684 44.999931,31.7347624 45,32 L45,34 C45,34.5522847 45.4477152,35 46,35 C46.5522847,35 46.9999999,34.5522847 46.9999999,34 L46.9999999,32 C47.0000689,31.7347624 46.8947342,31.4803684 46.7071829,31.292817 C46.5196316,31.1052657 46.2652376,30.999931 46,31 Z" id="Shape"/><path d="M52,21 C53.6561049,20.9981923 54.9981923,19.6561049 55,18 L55,7 C54.9981923,5.34389511 53.6561049,4.00180771 52,4 L40,4 C38.3438951,4.00180771 37.0018077,5.34389511 37,7 L37,18 C37.0018077,19.6561049 38.3438951,20.9981923 40,21 L42,21 L42,23 L41,23 C40.4477153,23 40,23.4477153 40,24 C40,24.5522847 40.4477153,25 41,25 L51,25 C51.5522847,25 52,24.5522847 52,24 C52,23.4477153 51.5522847,23 51,23 L50,23 L50,21 L52,21 Z M39,18 L39,7 C39.0005512,6.44794374 39.4479437,6.00055123 40,6 L52,6 C52.5520563,6.00055123 52.9994488,6.44794374 53,7 L53,18 C52.9994488,18.5520563 52.5520563,18.9994488 52,19 L40,19 C39.4479437,18.9994488 39.0005512,18.5520563 39,18 Z M48,23 L44,23 L44,21 L48,21 L48,23 Z" id="Shape"/></g></g></g></svg>
