<?xml version="1.0" encoding="UTF-8"?>
<svg xmlns="http://www.w3.org/2000/svg" xmlns:xlink="http://www.w3.org/1999/xlink" width="512" height="512" viewBox="0 0 60 60" version="1.1"><!-- Generator: Sketch 49.3 (51167) - http://www.bohemiancoding.com/sketch --><title>019 - UPS Warning</title><desc>Created with Sketch.</desc><defs/><g id="Page-1" stroke="none" stroke-width="1" fill="none" fill-rule="evenodd"><g id="019---UPS-Warning" fill-rule="nonzero"><g id="Colours" transform="translate(1.000000, 1.000000)"><polygon id="Shape" fill="#A4C2F7" points="58 56 32 56 43 38.23 45 35"/><polygon id="Shape" fill="#E3E7F2" points="54 56 32 56 43 38.23"/><rect id="Rectangle-path" fill="#A4C2F7" x="0" y="3" width="32" height="55" rx="2"/><rect id="Rectangle-path" fill="#E3E7F2" x="0" y="3" width="29" height="55" rx="2"/><path d="M25,0 L7,0 C5.89676861,0.00322381203 5.00322381,0.896768606 5,2 L5,15 C4.99412319,20.4963031 9.05374835,25.1499155 14.5,25.89 C14.9962101,25.9671048 15.4978502,26.0038918 16,26 C18.9178865,26.0016487 21.7167376,24.8432529 23.7799952,22.7799952 C25.8432529,20.7167376 27.0016487,17.9178865 27,15 L27,2 C26.9967762,0.896768606 26.1032314,0.00322381203 25,0 Z" id="Shape" fill="#A4C2F7"/><path d="M22,0 L7,0 C5.89676861,0.00322381203 5.00322381,0.896768606 5,2 L5,15 C4.99412319,20.4963031 9.05374835,25.1499155 14.5,25.89 C19.9462516,25.1499155 24.0058768,20.4963031 24,15 L24,2 C23.9967762,0.896768606 23.1032314,0.00322381202 22,0 Z" id="Shape" fill="#E3E7F2"/><path d="M21.0000066,17 C20.9990077,19.7610099 18.761015,21.9990011 16.0000033,22 C15.4920791,21.9984521 14.9869791,21.9243709 14.5000023,21.78 C12.4161239,21.1199313 11.0000066,19.1859172 11.0000066,17 C11.0000066,14.8140828 12.4161239,12.8800687 14.5000023,12.22 C14.9869791,12.0756287 15.4920791,12.0015474 16.0000033,12 C18.761015,12.0009989 20.9990077,14.2389901 21.0000066,17 Z" id="Shape" fill="#A4C2F7"/><ellipse id="Oval" fill="#E3E7F2" cx="14.5" cy="16.99998" rx="3.5" ry="4.77998"/><circle id="Oval" fill="#E3E7F2" cx="16" cy="6" r="2"/><polygon id="Shape" fill="#A4C2F7" points="14 32 14 38 4 38 4 32 6 30 12 30"/><polygon id="Shape" fill="#A4C2F7" points="14 44 14 50 4 50 4 44 6 42 12 42"/><polygon id="Shape" fill="#A4C2F7" points="28 32 28 38 18 38 18 32 20 30 26 30"/><polygon id="Shape" fill="#A4C2F7" points="28 44 28 50 18 50 18 44 20 42 26 42"/><polygon id="Shape" fill="#E3E7F2" points="11 32 11 38 4 38 4 32 6 30 9 30"/><polygon id="Shape" fill="#E3E7F2" points="11 44 11 50 4 50 4 44 6 42 9 42"/><polygon id="Shape" fill="#E3E7F2" points="25 32 25 38 18 38 18 32 20 30 23 30"/><polygon id="Shape" fill="#E3E7F2" points="25 44 25 50 18 50 18 44 20 42 23 42"/><path d="M27,56 L27,58 L5,58 L5,56 C5.00322381,54.8967686 5.89676861,54.0032238 7,54 L25,54 C26.1032314,54.0032238 26.9967762,54.8967686 27,56 Z" id="Shape" fill="#A4C2F7"/><path d="M24,56 L24,58 L5,58 L5,56 C4.93343226,54.9736574 5.70216926,54.0835395 6.72727,54 L22.27273,54 C23.2978307,54.0835395 24.0665677,54.9736574 24,56 Z" id="Shape" fill="#E3E7F2"/></g><g id="White" transform="translate(1.000000, 4.000000)" fill="#FFFFFF"><polygon id="Shape" points="46.5 34.42 46 35.23 35 53 32 53 35 48.15 43 35.23 45 32"/><path d="M5,55 L2,55 C0.896777692,54.9967543 0.00324565669,54.1032223 2.22044605e-16,53 L2.22044605e-16,2 C0.00322381203,0.896768606 0.896768606,0.00322381203 2,0 L5,0 C3.89676861,0.00322381203 3.00322381,0.896768606 3,2 L3,53 C3.00324566,54.1032223 3.89677769,54.9967543 5,55 Z" id="Shape"/></g><g id="Icons"><polygon id="Shape" fill="#FFFFFF" points="2 6 2 19 2 57 0 57 0 19 0 6"/><path d="M1,15 C1.26470163,14.995996 1.51818849,14.8924591 1.71,14.71 C2.09672008,14.3156867 2.09672008,13.6843933 1.71,13.29008 L1.5601,13.16996 C1.50432178,13.1319755 1.44372787,13.1015979 1.37992,13.07963 C1.3231789,13.0508318 1.26242959,13.0307304 1.19971,13.02 C1.13367967,13.0087447 1.06695098,13.0020622 1,13 C0.735233018,13.0036835 0.481633787,13.1072663 0.29,13.29 C-0.0875531162,13.6880448 -0.0875531162,14.3119552 0.29,14.71 C0.385532731,14.8002924 0.497389252,14.8715624 0.61959,14.92 C0.739939045,14.9712951 0.869184251,14.9984753 1,15 Z" id="Shape" fill="#428DFF"/><path d="M3,60 L31,60 C32.2671542,59.9961361 33.3947362,59.1952027 33.81567,58 L59,58 C59.3628619,58.0002191 59.6973612,57.803828 59.873996,57.4868596 C60.0506309,57.1698912 60.0416728,56.782104 59.85059,56.47363 L46.85059,35.47363 C46.6558415,35.1967477 46.3385127,35.0319827 46,35.0319827 C45.6614873,35.0319827 45.3441585,35.1967477 45.14941,35.47363 L34,53.48425 L34,6 C33.9981923,4.34389511 32.6561049,3.00180771 31,3 L29,3 C28.9981923,1.34389511 27.6561049,0.00180771165 26,-6.66862121e-16 L8,-6.66862121e-16 C6.34389511,0.00180771165 5.00180771,1.34389511 5,3 L3,3 C1.34389511,3.00180771 0.00180771165,4.34389511 0,6 L0,10 C6.76353751e-17,10.5522847 0.44771525,11 1,11 C1.55228475,11 2,10.5522847 2,10 L2,6 C2.00055123,5.44794374 2.44794374,5.00055123 3,5 L5,5 L5,16 C5,22.627417 10.372583,28 17,28 C23.627417,28 29,22.627417 29,16 L29,5 L31,5 C31.5520563,5.00055123 31.9994488,5.44794374 32,6 L32,57 C31.9994488,57.5520563 31.5520563,57.9994488 31,58 L29,58 L29,57 C28.9981923,55.3438951 27.6561049,54.0018077 26,54 L8,54 C6.34389511,54.0018077 5.00180771,55.3438951 5,57 L5,58 L3,58 C2.44794374,57.9994488 2.00055123,57.5520563 2,57 L2,18 C2,17.4477153 1.55228475,17 1,17 C0.44771525,17 -1.5440923e-16,17.4477153 -2.22044605e-16,18 L-2.22044605e-16,57 C0.00180771165,58.6561049 1.34389511,59.9981923 3,60 Z M27,16 C27,21.5228475 22.5228475,26 17,26 C11.4771525,26 7,21.5228475 7,16 L7,3 C7.00055123,2.44794374 7.44794374,2.00055123 8,2 L26,2 C26.5520563,2.00055123 26.9994488,2.44794374 27,3 L27,16 Z M46,37.8999 L57.20508,56 L34.79492,56 L46,37.8999 Z M7,57 C7.00055123,56.4479437 7.44794374,56.0005512 8,56 L26,56 C26.5520563,56.0005512 26.9994488,56.4479437 27,57 L27,58 L7,58 L7,57 Z" id="Shape" fill="#428DFF"/><path d="M17,12 C13.6862915,12 11,14.6862915 11,18 C11,21.3137085 13.6862915,24 17,24 C20.3137085,24 23,21.3137085 23,18 C22.9963791,14.6877925 20.3122075,12.0036209 17,12 Z M17,22 C14.790861,22 13,20.209139 13,18 C13,15.790861 14.790861,14 17,14 C19.209139,14 21,15.790861 21,18 C20.9976466,20.2081634 19.2081634,21.9976466 17,22 Z" id="Shape" fill="#428DFF"/><path d="M17,10 C18.6568542,10 20,8.65685425 20,7 C20,5.34314575 18.6568542,4 17,4 C15.3431458,4 14,5.34314575 14,7 C14.0018077,8.65610489 15.3438951,9.99819229 17,10 Z M17,6 C17.5522847,6 18,6.44771525 18,7 C18,7.55228475 17.5522847,8 17,8 C16.4477153,8 16,7.55228475 16,7 C16.0005512,6.44794374 16.4479437,6.00055123 17,6 Z" id="Shape" fill="#428DFF"/><path d="M14.9999999,40 C15.2652376,40.000069 15.5196316,39.8947343 15.7071829,39.7071829 C15.8947342,39.5196316 16.0000689,39.2652376 15.9999999,39 L15.9999999,33 C15.9999301,32.7348078 15.8945381,32.4805002 15.7069999,32.293 L13.7069999,30.293 C13.5195527,30.1053826 13.2652107,29.9999764 12.9999999,30 L6.99999998,30 C6.73478942,29.9999775 6.48044787,30.1053835 6.29299999,30.293 L4.293,32.293 C4.1054618,32.4805002 4.00006982,32.7348078 4,33 L4,39 C3.99993101,39.2652376 4.1052657,39.5196316 4.29281703,39.7071829 C4.48036837,39.8947343 4.73476236,40.000069 4.99999999,40 L14.9999999,40 Z M6,33.41406 L7.41406,32 L12.58594,32 L14,33.41406 L14,38 L6,38 L6,33.41406 Z" id="Shape" fill="#428DFF"/><path d="M7.99999997,34 C7.73476234,33.999931 7.48036835,34.1052657 7.29281702,34.292817 C7.10526569,34.4803684 6.99993101,34.7347624 7,35 L7,36 C7,36.5522847 7.44771524,37 7.99999997,37 C8.5522847,37 8.99999993,36.5522847 8.99999993,36 L8.99999993,35 C9.00006892,34.7347624 8.89473424,34.4803684 8.70718291,34.292817 C8.51963158,34.1052657 8.26523759,33.999931 7.99999997,34 Z" id="Shape" fill="#428DFF"/><path d="M12,34 C11.7347623,33.999931 11.4803684,34.1052657 11.292817,34.292817 C11.1052657,34.4803684 10.999931,34.7347624 11,35 L11,36 C11,36.5522847 11.4477152,37 12,37 C12.5522847,37 12.9999999,36.5522847 12.9999999,36 L12.9999999,35 C13.0000689,34.7347624 12.8947342,34.4803684 12.7071829,34.292817 C12.5196316,34.1052657 12.2652376,33.999931 12,34 Z" id="Shape" fill="#428DFF"/><path d="M4,51 C3.99993101,51.2652376 4.1052657,51.5196316 4.29281703,51.7071829 C4.48036837,51.8947343 4.73476236,52.000069 4.99999999,52 L14.9999999,52 C15.2652376,52.000069 15.5196316,51.8947343 15.7071829,51.7071829 C15.8947342,51.5196316 16.0000689,51.2652376 15.9999999,51 L15.9999999,45 C15.9999301,44.7348078 15.8945381,44.4805002 15.7069999,44.293 L13.7069999,42.293 C13.5195527,42.1053826 13.2652107,41.9999764 12.9999999,42 L6.99999998,42 C6.73478942,41.9999775 6.48044787,42.1053835 6.29299999,42.293 L4.293,44.293 C4.1054618,44.4805002 4.00006982,44.7348078 4,45 L4,51 Z M6,45.41406 L7.41406,44 L12.58594,44 L14,45.41406 L14,50 L6,50 L6,45.41406 Z" id="Shape" fill="#428DFF"/><path d="M7.99999997,46 C7.73476234,45.999931 7.48036835,46.1052657 7.29281702,46.292817 C7.10526569,46.4803684 6.99993101,46.7347624 7,47 L7,48 C7,48.5522847 7.44771524,49 7.99999997,49 C8.5522847,49 8.99999993,48.5522847 8.99999993,48 L8.99999993,47 C9.00006892,46.7347624 8.89473424,46.4803684 8.70718291,46.292817 C8.51963158,46.1052657 8.26523759,45.999931 7.99999997,46 Z" id="Shape" fill="#428DFF"/><path d="M12,46 C11.7347623,45.999931 11.4803684,46.1052657 11.292817,46.292817 C11.1052657,46.4803684 10.999931,46.7347624 11,47 L11,48 C11,48.5522847 11.4477152,49 12,49 C12.5522847,49 12.9999999,48.5522847 12.9999999,48 L12.9999999,47 C13.0000689,46.7347624 12.8947342,46.4803684 12.7071829,46.292817 C12.5196316,46.1052657 12.2652376,45.999931 12,46 Z" id="Shape" fill="#428DFF"/><path d="M28.9999999,40 C29.2652376,40.000069 29.5196316,39.8947343 29.7071829,39.7071829 C29.8947342,39.5196316 30.0000689,39.2652376 29.9999999,39 L29.9999999,33 C29.9999301,32.7348078 29.8945381,32.4805002 29.7069999,32.293 L27.7069999,30.293 C27.5195527,30.1053826 27.2652107,29.9999764 26.9999999,30 L21,30 C20.7347894,29.9999775 20.4804479,30.1053835 20.293,30.293 L18.293,32.293 C18.1054618,32.4805002 18.0000698,32.7348078 18,33 L18,39 C17.999931,39.2652376 18.1052657,39.5196316 18.292817,39.7071829 C18.4803684,39.8947343 18.7347624,40.000069 19,40 L28.9999999,40 Z M20,33.41406 L21.41406,32 L26.58594,32 L28,33.41406 L28,38 L20,38 L20,33.41406 Z" id="Shape" fill="#428DFF"/><path d="M22,34 C21.7347623,33.999931 21.4803684,34.1052657 21.292817,34.292817 C21.1052657,34.4803684 20.999931,34.7347624 21,35 L21,36 C21,36.5522847 21.4477152,37 22,37 C22.5522847,37 22.9999999,36.5522847 22.9999999,36 L22.9999999,35 C23.0000689,34.7347624 22.8947342,34.4803684 22.7071829,34.292817 C22.5196316,34.1052657 22.2652376,33.999931 22,34 Z" id="Shape" fill="#428DFF"/><path d="M26,34 C25.7347623,33.999931 25.4803684,34.1052657 25.292817,34.292817 C25.1052657,34.4803684 24.999931,34.7347624 25,35 L25,36 C25,36.5522847 25.4477152,37 26,37 C26.5522847,37 26.9999999,36.5522847 26.9999999,36 L26.9999999,35 C27.0000689,34.7347624 26.8947342,34.4803684 26.7071829,34.292817 C26.5196316,34.1052657 26.2652376,33.999931 26,34 Z" id="Shape" fill="#428DFF"/><path d="M18,51 C17.999931,51.2652376 18.1052657,51.5196316 18.292817,51.7071829 C18.4803684,51.8947343 18.7347624,52.000069 19,52 L28.9999999,52 C29.2652376,52.000069 29.5196316,51.8947343 29.7071829,51.7071829 C29.8947342,51.5196316 30.0000689,51.2652376 29.9999999,51 L29.9999999,45 C29.9999301,44.7348078 29.8945381,44.4805002 29.7069999,44.293 L27.7069999,42.293 C27.5195527,42.1053826 27.2652107,41.9999764 26.9999999,42 L21,42 C20.7347894,41.9999775 20.4804479,42.1053835 20.293,42.293 L18.293,44.293 C18.1054618,44.4805002 18.0000698,44.7348078 18,45 L18,51 Z M20,45.41406 L21.41406,44 L26.58594,44 L28,45.41406 L28,50 L20,50 L20,45.41406 Z" id="Shape" fill="#428DFF"/><path d="M22,46 C21.7347623,45.999931 21.4803684,46.1052657 21.292817,46.292817 C21.1052657,46.4803684 20.999931,46.7347624 21,47 L21,48 C21,48.5522847 21.4477152,49 22,49 C22.5522847,49 22.9999999,48.5522847 22.9999999,48 L22.9999999,47 C23.0000689,46.7347624 22.8947342,46.4803684 22.7071829,46.292817 C22.5196316,46.1052657 22.2652376,45.999931 22,46 Z" id="Shape" fill="#428DFF"/><path d="M26,46 C25.7347623,45.999931 25.4803684,46.1052657 25.292817,46.292817 C25.1052657,46.4803684 24.999931,46.7347624 25,47 L25,48 C25,48.5522847 25.4477152,49 26,49 C26.5522847,49 26.9999999,48.5522847 26.9999999,48 L26.9999999,47 C27.0000689,46.7347624 26.8947342,46.4803684 26.7071829,46.292817 C26.5196316,46.1052657 26.2652376,45.999931 26,46 Z" id="Shape" fill="#428DFF"/><path d="M46,42 C45.7347623,41.999931 45.4803684,42.1052657 45.292817,42.292817 C45.1052657,42.4803684 44.999931,42.7347624 45,43 L45,48 C45,48.5522847 45.4477152,49 46,49 C46.5522847,49 46.9999999,48.5522847 46.9999999,48 L46.9999999,43 C47.0000689,42.7347624 46.8947342,42.4803684 46.7071829,42.292817 C46.5196316,42.1052657 46.2652376,41.999931 46,42 Z" id="Shape" fill="#428DFF"/><path d="M46,51 C45.7347623,50.999931 45.4803684,51.1052657 45.292817,51.292817 C45.1052657,51.4803684 44.999931,51.7347624 45,52 L45,53 C45,53.5522847 45.4477152,54 46,54 C46.5522847,54 46.9999999,53.5522847 46.9999999,53 L46.9999999,52 C47.0000689,51.7347624 46.8947342,51.4803684 46.7071829,51.292817 C46.5196316,51.1052657 46.2652376,50.999931 46,51 Z" id="Shape" fill="#428DFF"/></g></g></g></svg>
