<?xml version="1.0" encoding="UTF-8"?>
<svg xmlns="http://www.w3.org/2000/svg" xmlns:xlink="http://www.w3.org/1999/xlink" width="512" height="512" viewBox="0 0 60 60" version="1.1"><!-- Generator: Sketch 49.3 (51167) - http://www.bohemiancoding.com/sketch --><title>018 - UPS UP</title><desc>Created with Sketch.</desc><defs/><g id="Page-1" stroke="none" stroke-width="1" fill="none" fill-rule="evenodd"><g id="018---UPS-UP" fill-rule="nonzero"><g id="Colours" transform="translate(1.000000, 1.000000)"><path d="M52,39.26 C50.8982055,38.8510625 49.9581316,38.0968987 49.32,37.11 C48.4432866,35.8077225 47.9829551,34.269797 48,32.7 L48,31.26 C47.9984285,30.0891197 47.1039908,29.1127734 45.9377283,29.0088747 C44.7714658,28.9049761 43.7185242,29.7078364 43.51,30.86 C43.2,32.68 43.15,36.79 45,39.26 L40,39.26 C38.8967686,39.2632238 38.0032238,40.1567686 38,41.26 C38.00799,42.3612429 38.8987571,43.25201 40,43.26 L38,43.26 C36.8967686,43.2632238 36.0032238,44.1567686 36,45.26 C36.00799,46.3612429 36.8987571,47.25201 38,47.26 C36.8967686,47.2632238 36.0032238,48.1567686 36,49.26 C36.00799,50.3612429 36.8987571,51.25201 38,51.26 L40,51.26 C38.8967686,51.2632238 38.0032238,52.1567686 38,53.26 C38.00799,54.3612429 38.8987571,55.25201 40,55.26 L42.5,55.26 C42.8064929,55.6116036 43.2285282,55.8421271 43.69,55.91 C46.4,56.33 51.55,56.79 53,54.61 C53,54.61 54,53.61 58,53.61 L58,43.26 C56.2748535,41.5544374 54.2378834,40.1964573 52,39.26 Z" id="Shape" fill="#E3E7F2"/><path d="M46,41.26 C45.9967543,42.3632223 45.1032223,43.2567543 44,43.26 L40,43.26 C38.8987571,43.25201 38.00799,42.3612429 38,41.26 C38.0032238,40.1567686 38.8967686,39.2632238 40,39.26 L44,39.26 C45.1012677,39.2679309 45.9920691,40.1587323 46,41.26 Z" id="Shape" fill="#E3E7F2"/><path d="M46,53.26 C45.9967543,54.3632223 45.1032223,55.2567543 44,55.26 L40,55.26 C38.8987571,55.25201 38.00799,54.3612429 38,53.26 C38.0032238,52.1567686 38.8967686,51.2632238 40,51.26 L44,51.26 C45.1012677,51.2679309 45.9920691,52.1587323 46,53.26 Z" id="Shape" fill="#E3E7F2"/><path d="M49,45.26 C48.9967543,46.3632223 48.1032223,47.2567543 47,47.26 L38,47.26 C36.8987571,47.25201 36.00799,46.3612429 36,45.26 C36.0032238,44.1567686 36.8967686,43.2632238 38,43.26 L47,43.26 C48.1012677,43.2679309 48.9920691,44.1587323 49,45.26 Z" id="Shape" fill="#E3E7F2"/><path d="M49,49.26 C48.9967543,50.3632223 48.1032223,51.2567543 47,51.26 L38,51.26 C36.8987571,51.25201 36.00799,50.3612429 36,49.26 C36.0032238,48.1567686 36.8967686,47.2632238 38,47.26 L47,47.26 C48.1012677,47.2679309 48.9920691,48.1587323 49,49.26 Z" id="Shape" fill="#E3E7F2"/><rect id="Rectangle-path" fill="#A4C2F7" x="0" y="3" width="32" height="55" rx="2"/><rect id="Rectangle-path" fill="#E3E7F2" x="0" y="3" width="29" height="55" rx="2"/><path d="M25,0 L7,0 C5.89676861,0.00322381203 5.00322381,0.896768606 5,2 L5,15 C4.99412319,20.4963031 9.05374835,25.1499155 14.5,25.89 C14.9962101,25.9671048 15.4978502,26.0038918 16,26 C18.9178865,26.0016487 21.7167376,24.8432529 23.7799952,22.7799952 C25.8432529,20.7167376 27.0016487,17.9178865 27,15 L27,2 C26.9967762,0.896768606 26.1032314,0.00322381203 25,0 Z" id="Shape" fill="#A4C2F7"/><path d="M22,0 L7,0 C5.89676861,0.00322381203 5.00322381,0.896768606 5,2 L5,15 C4.99412319,20.4963031 9.05374835,25.1499155 14.5,25.89 C19.9462516,25.1499155 24.0058768,20.4963031 24,15 L24,2 C23.9967762,0.896768606 23.1032314,0.00322381202 22,0 Z" id="Shape" fill="#E3E7F2"/><path d="M21.0000066,17 C20.9990077,19.7610099 18.761015,21.9990011 16.0000033,22 C15.4920791,21.9984521 14.9869791,21.9243709 14.5000023,21.78 C12.4161239,21.1199313 11.0000066,19.1859172 11.0000066,17 C11.0000066,14.8140828 12.4161239,12.8800687 14.5000023,12.22 C14.9869791,12.0756287 15.4920791,12.0015474 16.0000033,12 C18.761015,12.0009989 20.9990077,14.2389901 21.0000066,17 Z" id="Shape" fill="#A4C2F7"/><ellipse id="Oval" fill="#E3E7F2" cx="14.5" cy="16.99998" rx="3.5" ry="4.77998"/><circle id="Oval" fill="#E3E7F2" cx="16" cy="6" r="2"/><polygon id="Shape" fill="#A4C2F7" points="14 32 14 38 4 38 4 32 6 30 12 30"/><polygon id="Shape" fill="#A4C2F7" points="14 44 14 50 4 50 4 44 6 42 12 42"/><polygon id="Shape" fill="#A4C2F7" points="28 32 28 38 18 38 18 32 20 30 26 30"/><polygon id="Shape" fill="#A4C2F7" points="28 44 28 50 18 50 18 44 20 42 26 42"/><polygon id="Shape" fill="#E3E7F2" points="11 32 11 38 4 38 4 32 6 30 9 30"/><polygon id="Shape" fill="#E3E7F2" points="11 44 11 50 4 50 4 44 6 42 9 42"/><polygon id="Shape" fill="#E3E7F2" points="25 32 25 38 18 38 18 32 20 30 23 30"/><polygon id="Shape" fill="#E3E7F2" points="25 44 25 50 18 50 18 44 20 42 23 42"/><path d="M27,56 L27,58 L5,58 L5,56 C5.00322381,54.8967686 5.89676861,54.0032238 7,54 L25,54 C26.1032314,54.0032238 26.9967762,54.8967686 27,56 Z" id="Shape" fill="#A4C2F7"/><path d="M24,56 L24,58 L5,58 L5,56 C4.93343226,54.9736574 5.70216926,54.0835395 6.72727,54 L22.27273,54 C23.2978307,54.0835395 24.0665677,54.9736574 24,56 Z" id="Shape" fill="#E3E7F2"/></g><g id="White" transform="translate(1.000000, 4.000000)" fill="#FFFFFF"><path d="M49.27,53.2 C47.4050504,53.320502 45.5324107,53.2231784 43.69,52.91 C43.2285282,52.8421271 42.8064929,52.6116036 42.5,52.26 L40,52.26 C38.8987571,52.25201 38.00799,51.3612429 38,50.26 C38.0032238,49.1567686 38.8967686,48.2632238 40,48.26 L38,48.26 C36.8987571,48.25201 36.00799,47.3612429 36,46.26 C36.0032238,45.1567686 36.8967686,44.2632238 38,44.26 C36.8987571,44.25201 36.00799,43.3612429 36,42.26 C36.0032238,41.1567686 36.8967686,40.2632238 38,40.26 L39.92,40.26 C38.851021,40.2076969 38.0086459,39.3302228 38,38.26 C38.0032238,37.1567686 38.8967686,36.2632238 40,36.26 L43,36.26 C41.8967686,36.2632238 41.0032238,37.1567686 41,38.26 C41.00799,39.3612429 41.8987571,40.25201 43,40.26 L41,40.26 C39.8967686,40.2632238 39.0032238,41.1567686 39,42.26 C39.00799,43.3612429 39.8987571,44.25201 41,44.26 C39.8967686,44.2632238 39.0032238,45.1567686 39,46.26 C39.00799,47.3612429 39.8987571,48.25201 41,48.26 L43,48.26 C41.8967686,48.2632238 41.0032238,49.1567686 41,50.26 C41.00799,51.3612429 41.8987571,52.25201 43,52.26 L45.5,52.26 C45.8064929,52.6116036 46.2285282,52.8421271 46.69,52.91 C47.41,53.02 48.31,53.14 49.27,53.2 Z" id="Shape"/><path d="M45,36.26 C43.15,33.79 43.2,29.68 43.51,27.86 C43.6585567,27.057028 44.2263158,26.3953948 44.997423,26.1266443 C45.7685301,25.8578939 46.6245365,26.0233086 47.24,26.56 C46.8566329,26.8982927 46.5992912,27.3565724 46.51,27.86 C46.2,29.68 46.15,33.79 48,36.26 L45,36.26 Z" id="Shape"/><path d="M5,55 L2,55 C0.896777692,54.9967543 0.00324565669,54.1032223 2.22044605e-16,53 L2.22044605e-16,2 C0.00322381203,0.896768606 0.896768606,0.00322381203 2,0 L5,0 C3.89676861,0.00322381203 3.00322381,0.896768606 3,2 L3,53 C3.00324566,54.1032223 3.89677769,54.9967543 5,55 Z" id="Shape"/></g><g id="Icons"><polygon id="Shape" fill="#FFFFFF" points="2 6 2 19 2 57 0 57 0 19 0 6"/><path d="M1,15 C1.26470163,14.995996 1.51818849,14.8924591 1.71,14.71 C2.09672008,14.3156867 2.09672008,13.6843933 1.71,13.29008 L1.5601,13.16996 C1.50432178,13.1319755 1.44372787,13.1015979 1.37992,13.07963 C1.3231789,13.0508318 1.26242959,13.0307304 1.19971,13.02 C1.13367967,13.0087447 1.06695098,13.0020622 1,13 C0.735233018,13.0036835 0.481633787,13.1072663 0.29,13.29 C-0.0875531162,13.6880448 -0.0875531162,14.3119552 0.29,14.71 C0.385532731,14.8002924 0.497389252,14.8715624 0.61959,14.92 C0.739939045,14.9712951 0.869184251,14.9984753 1,15 Z" id="Shape" fill="#428DFF"/><path d="M3,60 L31,60 C32.6561049,59.9981923 33.9981923,58.6561049 34,57 L34,6 C33.9981923,4.34389511 32.6561049,3.00180771 31,3 L29,3 C28.9981923,1.34389511 27.6561049,0.00180771165 26,-6.66862121e-16 L8,-6.66862121e-16 C6.34389511,0.00180771165 5.00180771,1.34389511 5,3 L3,3 C1.34389511,3.00180771 0.00180771165,4.34389511 0,6 L0,10 C6.76353751e-17,10.5522847 0.44771525,11 1,11 C1.55228475,11 2,10.5522847 2,10 L2,6 C2.00055123,5.44794374 2.44794374,5.00055123 3,5 L5,5 L5,16 C5,22.627417 10.372583,28 17,28 C23.627417,28 29,22.627417 29,16 L29,5 L31,5 C31.5520563,5.00055123 31.9994488,5.44794374 32,6 L32,57 C31.9994488,57.5520563 31.5520563,57.9994488 31,58 L29,58 L29,57 C28.9981923,55.3438951 27.6561049,54.0018077 26,54 L8,54 C6.34389511,54.0018077 5.00180771,55.3438951 5,57 L5,58 L3,58 C2.44794374,57.9994488 2.00055123,57.5520563 2,57 L2,18 C2,17.4477153 1.55228475,17 1,17 C0.44771525,17 -1.5440923e-16,17.4477153 -2.22044605e-16,18 L-2.22044605e-16,57 C0.00180771165,58.6561049 1.34389511,59.9981923 3,60 Z M27,16 C27,21.5228475 22.5228475,26 17,26 C11.4771525,26 7,21.5228475 7,16 L7,3 C7.00055123,2.44794374 7.44794374,2.00055123 8,2 L26,2 C26.5520563,2.00055123 26.9994488,2.44794374 27,3 L27,16 Z M7,57 C7.00055123,56.4479437 7.44794374,56.0005512 8,56 L26,56 C26.5520563,56.0005512 26.9994488,56.4479437 27,57 L27,58 L7,58 L7,57 Z" id="Shape" fill="#428DFF"/><path d="M17,12 C13.6862915,12 11,14.6862915 11,18 C11,21.3137085 13.6862915,24 17,24 C20.3137085,24 23,21.3137085 23,18 C22.9963791,14.6877925 20.3122075,12.0036209 17,12 Z M17,22 C14.790861,22 13,20.209139 13,18 C13,15.790861 14.790861,14 17,14 C19.209139,14 21,15.790861 21,18 C20.9976466,20.2081634 19.2081634,21.9976466 17,22 Z" id="Shape" fill="#428DFF"/><path d="M17,10 C18.6568542,10 20,8.65685425 20,7 C20,5.34314575 18.6568542,4 17,4 C15.3431458,4 14,5.34314575 14,7 C14.0018077,8.65610489 15.3438951,9.99819229 17,10 Z M17,6 C17.5522847,6 18,6.44771525 18,7 C18,7.55228475 17.5522847,8 17,8 C16.4477153,8 16,7.55228475 16,7 C16.0005512,6.44794374 16.4479437,6.00055123 17,6 Z" id="Shape" fill="#428DFF"/><path d="M14.9999999,40 C15.2652376,40.000069 15.5196316,39.8947343 15.7071829,39.7071829 C15.8947342,39.5196316 16.0000689,39.2652376 15.9999999,39 L15.9999999,33 C15.9999301,32.7348078 15.8945381,32.4805002 15.7069999,32.293 L13.7069999,30.293 C13.5195527,30.1053826 13.2652107,29.9999764 12.9999999,30 L6.99999998,30 C6.73478942,29.9999775 6.48044787,30.1053835 6.29299999,30.293 L4.293,32.293 C4.1054618,32.4805002 4.00006982,32.7348078 4,33 L4,39 C3.99993101,39.2652376 4.1052657,39.5196316 4.29281703,39.7071829 C4.48036837,39.8947343 4.73476236,40.000069 4.99999999,40 L14.9999999,40 Z M6,33.41406 L7.41406,32 L12.58594,32 L14,33.41406 L14,38 L6,38 L6,33.41406 Z" id="Shape" fill="#428DFF"/><path d="M7.99999997,34 C7.73476234,33.999931 7.48036835,34.1052657 7.29281702,34.292817 C7.10526569,34.4803684 6.99993101,34.7347624 7,35 L7,36 C7,36.5522847 7.44771524,37 7.99999997,37 C8.5522847,37 8.99999993,36.5522847 8.99999993,36 L8.99999993,35 C9.00006892,34.7347624 8.89473424,34.4803684 8.70718291,34.292817 C8.51963158,34.1052657 8.26523759,33.999931 7.99999997,34 Z" id="Shape" fill="#428DFF"/><path d="M12,34 C11.7347623,33.999931 11.4803684,34.1052657 11.292817,34.292817 C11.1052657,34.4803684 10.999931,34.7347624 11,35 L11,36 C11,36.5522847 11.4477152,37 12,37 C12.5522847,37 12.9999999,36.5522847 12.9999999,36 L12.9999999,35 C13.0000689,34.7347624 12.8947342,34.4803684 12.7071829,34.292817 C12.5196316,34.1052657 12.2652376,33.999931 12,34 Z" id="Shape" fill="#428DFF"/><path d="M4,51 C3.99993101,51.2652376 4.1052657,51.5196316 4.29281703,51.7071829 C4.48036837,51.8947343 4.73476236,52.000069 4.99999999,52 L14.9999999,52 C15.2652376,52.000069 15.5196316,51.8947343 15.7071829,51.7071829 C15.8947342,51.5196316 16.0000689,51.2652376 15.9999999,51 L15.9999999,45 C15.9999301,44.7348078 15.8945381,44.4805002 15.7069999,44.293 L13.7069999,42.293 C13.5195527,42.1053826 13.2652107,41.9999764 12.9999999,42 L6.99999998,42 C6.73478942,41.9999775 6.48044787,42.1053835 6.29299999,42.293 L4.293,44.293 C4.1054618,44.4805002 4.00006982,44.7348078 4,45 L4,51 Z M6,45.41406 L7.41406,44 L12.58594,44 L14,45.41406 L14,50 L6,50 L6,45.41406 Z" id="Shape" fill="#428DFF"/><path d="M7.99999997,46 C7.73476234,45.999931 7.48036835,46.1052657 7.29281702,46.292817 C7.10526569,46.4803684 6.99993101,46.7347624 7,47 L7,48 C7,48.5522847 7.44771524,49 7.99999997,49 C8.5522847,49 8.99999993,48.5522847 8.99999993,48 L8.99999993,47 C9.00006892,46.7347624 8.89473424,46.4803684 8.70718291,46.292817 C8.51963158,46.1052657 8.26523759,45.999931 7.99999997,46 Z" id="Shape" fill="#428DFF"/><path d="M12,46 C11.7347623,45.999931 11.4803684,46.1052657 11.292817,46.292817 C11.1052657,46.4803684 10.999931,46.7347624 11,47 L11,48 C11,48.5522847 11.4477152,49 12,49 C12.5522847,49 12.9999999,48.5522847 12.9999999,48 L12.9999999,47 C13.0000689,46.7347624 12.8947342,46.4803684 12.7071829,46.292817 C12.5196316,46.1052657 12.2652376,45.999931 12,46 Z" id="Shape" fill="#428DFF"/><path d="M28.9999999,40 C29.2652376,40.000069 29.5196316,39.8947343 29.7071829,39.7071829 C29.8947342,39.5196316 30.0000689,39.2652376 29.9999999,39 L29.9999999,33 C29.9999301,32.7348078 29.8945381,32.4805002 29.7069999,32.293 L27.7069999,30.293 C27.5195527,30.1053826 27.2652107,29.9999764 26.9999999,30 L21,30 C20.7347894,29.9999775 20.4804479,30.1053835 20.293,30.293 L18.293,32.293 C18.1054618,32.4805002 18.0000698,32.7348078 18,33 L18,39 C17.999931,39.2652376 18.1052657,39.5196316 18.292817,39.7071829 C18.4803684,39.8947343 18.7347624,40.000069 19,40 L28.9999999,40 Z M20,33.41406 L21.41406,32 L26.58594,32 L28,33.41406 L28,38 L20,38 L20,33.41406 Z" id="Shape" fill="#428DFF"/><path d="M22,34 C21.7347623,33.999931 21.4803684,34.1052657 21.292817,34.292817 C21.1052657,34.4803684 20.999931,34.7347624 21,35 L21,36 C21,36.5522847 21.4477152,37 22,37 C22.5522847,37 22.9999999,36.5522847 22.9999999,36 L22.9999999,35 C23.0000689,34.7347624 22.8947342,34.4803684 22.7071829,34.292817 C22.5196316,34.1052657 22.2652376,33.999931 22,34 Z" id="Shape" fill="#428DFF"/><path d="M26,34 C25.7347623,33.999931 25.4803684,34.1052657 25.292817,34.292817 C25.1052657,34.4803684 24.999931,34.7347624 25,35 L25,36 C25,36.5522847 25.4477152,37 26,37 C26.5522847,37 26.9999999,36.5522847 26.9999999,36 L26.9999999,35 C27.0000689,34.7347624 26.8947342,34.4803684 26.7071829,34.292817 C26.5196316,34.1052657 26.2652376,33.999931 26,34 Z" id="Shape" fill="#428DFF"/><path d="M18,51 C17.999931,51.2652376 18.1052657,51.5196316 18.292817,51.7071829 C18.4803684,51.8947343 18.7347624,52.000069 19,52 L28.9999999,52 C29.2652376,52.000069 29.5196316,51.8947343 29.7071829,51.7071829 C29.8947342,51.5196316 30.0000689,51.2652376 29.9999999,51 L29.9999999,45 C29.9999301,44.7348078 29.8945381,44.4805002 29.7069999,44.293 L27.7069999,42.293 C27.5195527,42.1053826 27.2652107,41.9999764 26.9999999,42 L21,42 C20.7347894,41.9999775 20.4804479,42.1053835 20.293,42.293 L18.293,44.293 C18.1054618,44.4805002 18.0000698,44.7348078 18,45 L18,51 Z M20,45.41406 L21.41406,44 L26.58594,44 L28,45.41406 L28,50 L20,50 L20,45.41406 Z" id="Shape" fill="#428DFF"/><path d="M22,46 C21.7347623,45.999931 21.4803684,46.1052657 21.292817,46.292817 C21.1052657,46.4803684 20.999931,46.7347624 21,47 L21,48 C21,48.5522847 21.4477152,49 22,49 C22.5522847,49 22.9999999,48.5522847 22.9999999,48 L22.9999999,47 C23.0000689,46.7347624 22.8947342,46.4803684 22.7071829,46.292817 C22.5196316,46.1052657 22.2652376,45.999931 22,46 Z" id="Shape" fill="#428DFF"/><path d="M26,46 C25.7347623,45.999931 25.4803684,46.1052657 25.292817,46.292817 C25.1052657,46.4803684 24.999931,46.7347624 25,47 L25,48 C25,48.5522847 25.4477152,49 26,49 C26.5522847,49 26.9999999,48.5522847 26.9999999,48 L26.9999999,47 C27.0000689,46.7347624 26.8947342,46.4803684 26.7071829,46.292817 C26.5196316,46.1052657 26.2652376,45.999931 26,46 Z" id="Shape" fill="#428DFF"/><path d="M53.31348,39.31006 C52.4166495,38.9729662 51.6546264,38.3518938 51.14355,37.5415 C50.380098,36.4073894 49.9811277,35.0672076 50,33.7002 L50,32.25977 C49.9980823,30.5692179 48.705455,29.1600025 47.0213522,29.0124638 C45.3372494,28.8649251 43.8192798,30.0279135 43.52344,31.69238 C43.1188586,34.2386536 43.3830278,36.8463649 44.29004,39.25977 L41,39.25977 C40.0031003,39.2562359 39.0700383,39.7498722 38.5120746,40.5760066 C37.954111,41.402141 37.8446774,42.4520485 38.22028,43.37549 C37.212306,43.6394016 36.4160145,44.4116724 36.121362,45.4110927 C35.8267096,46.410513 36.0766911,47.4912496 36.78028,48.25977 C36.0766961,49.0282906 35.8267178,50.1090238 36.1213699,51.1084408 C36.416022,52.1078578 37.2123098,52.8801266 38.22028,53.14404 C37.8446784,54.0674826 37.9541121,55.1173906 38.5120753,55.9435262 C39.0700384,56.7696617 40.0030996,57.2633005 41,57.25977 L43.10571,57.25977 C43.5164038,57.598032 44.0110512,57.8187365 44.53711,57.89844 C45.9549064,58.128254 47.3879933,58.2509976 48.82422,58.26563 C51.30664,58.26563 53.6123,57.7959 54.72363,56.31738 C54.97852,56.16357 56.09663,55.60986 59,55.60986 C59.2652376,55.609929 59.5196316,55.5045943 59.707183,55.317043 C59.8947343,55.1294916 60.000069,54.8750976 60,54.60986 L60,44.25977 C59.999928,43.9945782 59.8945363,43.7402714 59.707,43.55277 C57.8738988,41.7338976 55.7016833,40.2924255 53.31348,39.31006 Z M41,41.25977 L45,41.25977 C45.5522847,41.25977 46,41.7074853 46,42.25977 C46,42.8120547 45.5522847,43.25977 45,43.25977 L41,43.25977 C40.4477153,43.25977 40,42.8120547 40,42.25977 C40,41.7074853 40.4477153,41.25977 41,41.25977 Z M39,45.25977 L48,45.25977 C48.5522847,45.25977 49,45.7074853 49,46.25977 C49,46.8120547 48.5522847,47.25977 48,47.25977 L39,47.25977 C38.4477153,47.25977 38,46.8120547 38,46.25977 C38,45.7074853 38.4477153,45.25977 39,45.25977 Z M39,49.25977 L48,49.25977 C48.5522847,49.25977 49,49.7074853 49,50.25977 C49,50.8120547 48.5522847,51.25977 48,51.25977 L39,51.25977 C38.4477153,51.25977 38,50.8120547 38,50.25977 C38,49.7074853 38.4477153,49.25977 39,49.25977 Z M40,54.25977 C40.0005512,53.7077137 40.4479437,53.2603212 41,53.25977 L45,53.25977 C45.5522847,53.25977 46,53.7074853 46,54.25977 C46,54.8120547 45.5522847,55.25977 45,55.25977 L41,55.25977 C40.4479437,55.2592188 40.0005512,54.8118263 40,54.25977 Z M58,53.63135 C54.58887,53.78516 53.49023,54.70508 53.293,54.90283 C53.2461488,54.9497492 53.2039519,55.0010955 53.167,55.05615 C52.52546,56.02002 50.34065,56.41449 47.27436,56.1936 C47.9835107,55.3910363 48.1917453,54.2625777 47.81574,53.25977 L48,53.25977 C49.185591,53.2649636 50.2620218,52.568451 50.7430895,51.4848335 C51.2241572,50.401216 51.0187828,49.1356511 50.21973,48.25977 C51.0187828,47.3838889 51.2241572,46.118324 50.7430895,45.0347065 C50.2620218,43.951089 49.185591,43.2545764 48,43.25977 L47.81573,43.25977 C48.2478898,42.1028241 47.9043042,40.7991092 46.95807,40.00543 C46.9284346,39.8812605 46.8750202,39.7640096 46.80078,39.66016 C45.25488,37.59668 45.17969,33.8833 45.49414,32.03369 C45.6127959,31.3921977 46.2003305,30.9465156 46.8500653,31.005135 C47.4998001,31.0637544 47.9980772,31.6073991 48,32.25977 L48,33.7002 C47.9805086,35.4747645 48.5038894,37.2128913 49.5,38.68164 C50.2550508,39.8505558 51.3737889,40.7385139 52.68359,41.2085 C54.6576644,42.0259952 56.4609567,43.2063822 58,44.68848 L58,53.63135 Z" id="Shape" fill="#428DFF"/></g></g></g></svg>
