<?xml version="1.0" encoding="UTF-8"?>
<svg xmlns="http://www.w3.org/2000/svg" xmlns:xlink="http://www.w3.org/1999/xlink" width="512" height="512" viewBox="0 0 60 60" version="1.1"><!-- Generator: Sketch 49.3 (51167) - http://www.bohemiancoding.com/sketch --><title>017 - Data Replication</title><desc>Created with Sketch.</desc><defs/><g id="Page-1" stroke="none" stroke-width="1" fill="none" fill-rule="evenodd"><g id="017---Data-Replication" transform="translate(-1.000000, 0.000000)" fill-rule="nonzero"><g id="Colours" transform="translate(2.000000, 0.000000)"><polygon id="Shape" fill="#A4C2F7" points="58 17 58 47 55 48.83 40 58 28 52 28 37.22 28.2 37.1 28 37 28 37.22 25.05 39.02 25 39.05 12 47 0 41 0 11 18 0 30 6 30 20.78 42.93 12.88 46 11"/><polygon id="Shape" fill="#E3E7F2" points="55 19 55 48.83 40 58 28 52 28 37.22 25.05 39.02 25 39 25 39.05 12 47 0 41 0 11.17 15 2 27 8 27 22.78 43 13"/><polygon id="Shape" fill="#E3E7F2" points="12 33 12 48 0 42 0 27"/><polygon id="Shape" fill="#E3E7F2" points="12 28 12 33 0 27 0 22"/><polygon id="Shape" fill="#A4C2F7" points="12 23 12 28 0 22 0 17"/><polygon id="Shape" fill="#E3E7F2" points="12 18 12 23 0 17 0 12"/><polygon id="Shape" fill="#D4E1F4" points="30 7 12 18 0 12 18 1"/><polygon id="Shape" fill="#E3E7F2" points="40 44 40 59 28 53 28 38.22 28.2 38.1"/><polygon id="Shape" fill="#E3E7F2" points="40 39 40 44 28.2 38.1 28 38 28 33"/><polygon id="Shape" fill="#A4C2F7" points="40 34 40 39 28 33 28 28"/><polygon id="Shape" fill="#E3E7F2" points="40 29 40 34 28 28 28 23"/><polygon id="Shape" fill="#D4E1F4" points="58 18 40 29 28 23 30 21.78 46 12"/></g><g id="White" transform="translate(2.000000, 1.000000)" fill="#FFFFFF"><polygon id="Shape" points="3 41 12.45 45.72 12 46 12 47 0 41 0 11 18 0 21 2 3 13"/><polygon id="Shape" points="31 52 40.45 56.72 40 57 40 58 28 52 28 22 46 11 49 13 31 24"/></g><g id="Icons"><polygon id="Shape" fill="#FFFFFF" points="20.521 1.853 9.429 8.632 2.521 12.853 1.479 11.147 8.386 6.926 19.479 0.147"/><path d="M12.93817,6.14758 C13.4762838,6.27192406 14.0149438,5.94275108 14.14978,5.40717 L14.17407,5.21661 C14.1774116,5.14922561 14.1717483,5.08169658 14.15723,5.01581 C14.1521883,4.95238828 14.137639,4.89008513 14.11407,4.83099 C14.0892858,4.7687711 14.0602161,4.70834611 14.02707,4.65015 C13.8858557,4.42616234 13.6652341,4.2637929 13.40939,4.19556 C12.8729095,4.08103025 12.3406046,4.40631963 12.19778,4.93597 C12.1705705,5.06457588 12.1680863,5.19718527 12.19046,5.32672 C12.2094401,5.45615145 12.253606,5.5806076 12.32046,5.69305 C12.4619459,5.91678528 12.6824743,6.07905685 12.93817,6.14758 Z" id="Shape" fill="#428DFF"/><path d="M60.97272,17.8056 C60.9525528,17.6946126 60.9136476,17.5878659 60.85767,17.48993 L60.85352,17.47852 L60.85181,17.47668 C60.7883537,17.3779518 60.707931,17.2912287 60.61426,17.22052 C60.5878221,17.2001483 60.5603164,17.1812014 60.53186,17.16376 C60.50471,17.1428532 60.4764739,17.1233961 60.44727,17.10547 L48.44727,11.10547 C48.4129313,11.0940205 48.3779597,11.0845647 48.34253,11.07715 C48.2790599,11.0526065 48.2131891,11.0347922 48.146,11.024 C48.0214324,11.0074998 47.8949407,11.0128704 47.77222,11.03987 C47.7066073,11.0561662 47.6428827,11.0792925 47.58209,11.10887 C47.54686,11.1193601 47.5122771,11.1319117 47.47852,11.14646 L33,19.99445 L33,7 C33,6.9682 32.98993,6.93866 32.987,6.90741 C32.9840841,6.87324012 32.9793171,6.83925354 32.97272,6.8056 C32.9525528,6.6946126 32.9136476,6.58786586 32.85767,6.48993 L32.85352,6.47852 L32.85181,6.47668 C32.7884229,6.37803834 32.7081049,6.29137275 32.61456,6.22068 C32.587918,6.20017069 32.5602129,6.18108084 32.53156,6.16349 C32.5045028,6.14268784 32.4763671,6.1233276 32.44727,6.10549 L20.44727,0.10549 C20.1394166,-0.0438670313 19.7760745,-0.0225583413 19.48779,0.16176 L19.47858,0.14676 L16.06543,2.23248 C15.5941627,2.52047164 15.4455884,3.13597266 15.73358,3.60724 C16.0215716,4.07850734 16.6370727,4.22708164 17.10834,3.93909 L20.0484,2.14233 L29.93866,7.08752 L13.95135,16.85752 L4.0611,11.91235 L10.282,8.11066 C10.7483036,7.82058059 10.8934309,7.2087396 10.6070857,6.74013364 C10.3207406,6.27152768 9.71007845,6.1215174 9.2392,6.40411 L1.47858,11.14673 L1.479,11.1474 L1.47461,11.1494 C1.17964358,11.3314813 1.00004426,11.6533607 1,12 L1,42 C0.999915247,42.3788065 1.21391012,42.7251326 1.55273,42.89453 L13.55273,48.89453 C13.56152,48.89886 13.57166,48.89697 13.58051,48.90106 C13.7112044,48.9638018 13.8539437,48.9974746 13.9989,48.99976 L14,49 L14.00049,48.99994 L14.001,49 C14.091761,48.999905 14.1820799,48.987358 14.26943,48.96271 C14.3052644,48.9494628 14.3403204,48.9341984 14.37443,48.91699 C14.425106,48.8997339 14.4742726,48.878328 14.52143,48.85299 L29,40.00342 L29,53 C28.9999152,53.3788065 29.2139101,53.7251326 29.55273,53.89453 L41.55273,59.89453 C41.56152,59.89886 41.57166,59.89697 41.58051,59.90106 C41.7112044,59.9638018 41.8539437,59.9974746 41.9989,59.99976 L42,60 L42.00049,59.99994 L42.001,60 C42.0918411,59.9998633 42.1822362,59.9872967 42.26967,59.96265 C42.29335,59.95599 42.3146,59.94153 42.33785,59.93311 C42.4015844,59.9128154 42.4631118,59.8861507 42.5215,59.85352 L60.5215,48.85352 C60.5509284,48.8293884 60.5788538,48.8034801 60.60512,48.77594 C60.7116381,48.698499 60.7988083,48.5974781 60.85982,48.48077 C60.8910121,48.4270965 60.9169106,48.3705169 60.93715,48.31183 C60.9579484,48.2458679 60.9716591,48.1778775 60.97805,48.10901 C60.9875182,48.0731399 60.9948478,48.0367392 61,48 L61,18 C61,17.9682 60.98993,17.93866 60.987,17.90741 C60.9840841,17.8732401 60.9793171,17.8392535 60.97272,17.8056 Z M48.04865,13.14246 L57.93865,18.08752 L41.95134,27.85752 L32.06134,22.91246 L48.04865,13.14246 Z M41,32.38184 L31,27.38184 L31,24.61816 L41,29.61816 L41,32.38184 Z M31,29.61816 L41,34.61816 L41,37.38184 L31,32.38184 L31,29.61816 Z M31,37.38184 L31,34.61816 L41,39.61816 L41,42.38184 L31,37.38184 Z M43,29.5611 L59,19.78333 L59,47.4389 L43,57.21667 L43,29.5611 Z M13,26.38184 L3,21.38184 L3,18.61816 L13,23.61816 L13,26.38184 Z M3,23.61816 L13,28.61816 L13,31.38184 L3,26.38184 L3,23.61816 Z M13,21.38184 L3,16.38184 L3,13.61816 L13,18.61816 L13,21.38184 Z M3,41.38184 L3,28.61816 L13,33.61816 L13,46.38184 L3,41.38184 Z M15,46.21716 L15,18.5611 L31,8.78333 L31,21.21667 L29.47852,22.14648 L29.47607,22.14874 L29.47461,22.14941 C29.3767261,22.2125342 29.2907676,22.2924599 29.2207,22.3855 C29.20258,22.4085 29.1857,22.43036 29.1697,22.45465 C29.1068668,22.5469736 29.0600662,22.6492398 29.03127,22.75714 C29.02798,22.77039 29.02895,22.78381 29.02614,22.79724 C29.0104529,22.8637435 29.0016929,22.9316924 29,23 L29,37.66162 L15,46.21716 Z M31,52.38184 L31,39.61816 L41,44.61816 L41,57.38184 L31,52.38184 Z" id="Shape" fill="#428DFF"/><path d="M59.293,7.293 L58,8.58594 L58,6 C57.9981923,4.34389511 56.6561049,3.00180771 55,3 L34,3 C33.4477153,3.00000001 33,3.44771526 33,4 C33,4.55228474 33.4477153,4.99999999 34,5 L55,5 C55.5520563,5.00055123 55.9994488,5.44794374 56,6 L56,8.58594 L54.707,7.293 C54.3155191,6.90854701 53.6873575,6.91139172 53.2993746,7.2993746 C52.9113917,7.68735748 52.908547,8.31551905 53.293,8.707 L56.293,11.707 C56.5779,11.992652 57.0068617,12.0784696 57.37973,11.92441 L57.38284,11.9238 C57.4917978,11.8765135 57.5913161,11.8099308 57.6766,11.72726 C57.68582,11.71866 57.69809,11.71597 57.70706,11.707 L60.70706,8.707 C60.962303,8.45493869 61.0629593,8.08546024 60.970834,7.7387661 C60.8787087,7.39207197 60.6079207,7.1212955 60.2612227,7.02918494 C59.9145247,6.93707437 59.5450505,7.03774631 59.293,7.293 Z" id="Shape" fill="#428DFF"/><path d="M7.293,52.707 C7.54481093,52.9634141 7.91485947,53.0649671 8.26227713,52.9730001 C8.60969479,52.8810331 8.88103307,52.6096948 8.97300007,52.2622771 C9.06496708,51.9148595 8.96341414,51.5448109 8.707,51.293 L5.707,48.293 C5.62088724,48.2098406 5.52035054,48.1430578 5.41031,48.09592 C5.37787269,48.0822934 5.34469736,48.0704949 5.31094,48.06058 C5.19747871,48.0264551 5.07974746,48.0086104 4.96127,48.00758 C4.85427709,48.0109239 4.74852606,48.0315223 4.6481,48.06858 C4.6391,48.072 4.62955,48.07176 4.62064,48.07542 L4.61716,48.07627 C4.50820223,48.1235565 4.40868393,48.1901392 4.3234,48.27281 C4.31412,48.28141 4.30191,48.2841 4.29294,48.29307 L1.29294,51.29307 C1.03637618,51.5448585 0.934717149,51.9149907 1.02667917,52.262504 C1.11864119,52.6100172 1.39006886,52.8814199 1.73759053,52.97335 C2.0851122,53.06528 2.45523508,52.963587 2.707,52.707 L4,51.41406 L4,54 C4.00180771,55.6561049 5.34389511,56.9981923 7,57 L28,57 C28.5522847,57 29,56.5522847 29,56 C29,55.4477153 28.5522847,55 28,55 L7,55 C6.44794374,54.9994488 6.00055123,54.5520563 6,54 L6,51.41406 L7.293,52.707 Z" id="Shape" fill="#428DFF"/></g></g></g></svg>
