<?xml version="1.0" encoding="UTF-8"?>
<svg xmlns="http://www.w3.org/2000/svg" xmlns:xlink="http://www.w3.org/1999/xlink" width="512" height="512" viewBox="0 0 51 60" version="1.1"><!-- Generator: Sketch 49.3 (51167) - http://www.bohemiancoding.com/sketch --><title>016 - Protected Database</title><desc>Created with Sketch.</desc><defs/><g id="Page-1" stroke="none" stroke-width="1" fill="none" fill-rule="evenodd"><g id="016---Protected-Database" transform="translate(-1.000000, 0.000000)" fill-rule="nonzero"><g id="Colours" transform="translate(2.000000, 3.000000)"><path d="M47.9,41.53751 C47.0926811,40.2562678 46.0750801,39.1203411 44.89,38.17751 L44.88,38.17751 C42.2801233,35.9797197 40.7622817,32.7616036 40.72,29.35751 C40.72,29.19751 40.73,29.04751 40.73,28.89751 C40.7777544,27.8028508 40.9866682,26.7212166 41.35,25.68751 C40.8850832,25.9096619 40.434236,26.1601326 40,26.43751 L40,8.96751 C40,8.96751 24.69,6.49751 20.86,0.48751 C20.6789954,0.185090364 20.352449,-3.17679202e-05 20,-3.17679202e-05 C19.647551,-3.17679202e-05 19.3210046,0.185090364 19.14,0.48751 C18.4269559,1.53903331 17.5168349,2.44236239 16.46,3.14751 C16.41,3.18751 16.35,3.21751 16.3,3.25751 C10.52,7.26751 -7.10542736e-15,8.96751 -7.10542736e-15,8.96751 L-7.10542736e-15,28.74751 C0.0191751841,34.6645115 2.57964407,40.2880733 7.03,44.18751 L12.73,49.24751 L20,55.68751 L24.05,52.09751 L27.22,49.28751 C29.1533569,53.3174497 33.2824722,55.8270734 37.75,55.68751 C40.1597948,55.7080567 42.5207698,55.0081216 44.53,53.67751 C46.2408405,52.5737278 47.5763723,50.9766689 48.36,49.09751 C48.7867968,48.0533578 49.0042499,46.9355132 49,45.80751 C48.9950764,44.3147264 48.6169401,42.8468702 47.9,41.53751 Z" id="Shape" fill="#A4C2F7"/><path d="M46,48.80753 C46.0042499,49.9355332 45.7867968,51.0533778 45.36,52.09753 C45.1374323,52.6508894 44.8593441,53.180262 44.53,53.67753 C42.5207698,55.0081416 40.1597948,55.7080767 37.75,55.68753 C33.2824722,55.8270934 29.1533569,53.3174697 27.22,49.28753 L24.05,52.09753 L20,55.68753 L12.73,49.24753 L7.03,44.18753 C2.57964407,40.2880933 0.0191751841,34.6645315 0,28.74753 L0,8.96753 C0,8.96753 10.52,7.26753 16.3,3.25753 C16.35,3.21753 16.41,3.18753 16.46,3.14753 L16.46995,3.15753 C16.6967447,3.01211648 16.9729032,2.96513168 17.2350258,3.02736223 C17.4971484,3.08959278 17.7227184,3.25569298 17.85995,3.48753 C21.68995,9.49753 36.99995,11.96753 36.99995,11.96753 L36.99995,29.43753 C37.434186,29.1601526 37.8850332,28.9096819 38.34995,28.68753 C37.9866182,29.7212366 37.7777044,30.8028708 37.72995,31.89753 C37.72995,32.04753 37.71995,32.19753 37.71995,32.35753 C37.7622317,35.7616236 39.2800733,38.9797397 41.87995,41.17753 L41.88995,41.17753 C43.0750301,42.1203611 44.0926311,43.2562878 44.89995,44.53753 C45.6169075,45.8468856 45.995061,47.3147421 46,48.80753 Z" id="Shape" fill="#E3E7F2"/><path d="M34,36.61752 L34,36.49752 C34.028937,34.3153399 34.6926136,32.1887951 35.91,30.37752 C35.9701598,29.8362724 36.0002061,29.2921007 36,28.74752 L36,12.26752 C31.55,11.27752 24.44,9.20752 20,5.40752 C19.0150054,6.23443711 17.957381,6.97075785 16.84,7.60752 C13.3635539,9.50781578 9.64672961,10.9306363 5.79,11.83752 L5.78,11.83752 C5.15,11.99752 4.56,12.14752 4,12.26752 L4,28.74752 C4.00241728,31.0220076 4.48279838,33.2706 5.41,35.34752 C6.39329593,37.5832537 7.85416656,39.5765912 9.69,41.18752 L18.55,49.04752 L20,50.33752 L26.6,44.48752 L26.6,44.47752 C26.8132531,43.1184993 27.3330495,41.8258476 28.12,40.69752 C28.5730031,40.0426769 29.1035194,39.4450067 29.7,38.91752 C30.3819185,38.2982148 31.1416516,37.7704356 31.96,37.34752 C32.2716124,40.0148012 33.9286739,42.336197 36.35,43.49752 C34.8377314,41.5216189 34.0125228,39.105689 34,36.61752 Z M27,18.68752 L13,18.68752 C12.1747079,18.6876893 11.4349839,19.1967466 11.14,19.96752 C11.0475843,20.1963188 11.0000537,20.4407619 11,20.68752 L11,32.68752 C11.0032457,33.7907423 11.8967777,34.6842743 13,34.68752 L27,34.68752 C27.948646,34.682428 28.7650923,34.0159413 28.96,33.08752 C28.9886277,32.9561616 29.0020492,32.8219461 29,32.68752 L29,20.68752 C28.9967707,19.5842925 28.1032275,18.6907538 27,18.68753 L27,18.68752 Z" id="Shape" fill="#A4C2F7"/><path d="M29.7,38.91751 C29.67,38.58751 29.65,38.23751 29.65,37.89751 L29.65,37.77751 C29.6651366,36.3910782 29.9433984,35.0201296 30.47,33.73751 C30.54,33.55751 30.62,33.37751 30.7,33.19751 C30.9433322,32.6611492 31.2309969,32.1460286 31.56,31.65751 C31.6201631,31.1162627 31.6502094,30.5720908 31.65,30.02751 L31.65,13.54751 C27.58,12.63751 21.28,10.82751 16.84,7.60751 C13.3635539,9.50780578 9.64672961,10.9306263 5.79,11.83751 L5.78,11.83751 C5.18,12.04751 4.58,12.23751 4,12.40751 L4,28.74751 C4.00241728,31.0219976 4.48279838,33.27059 5.41,35.34751 C6.39329593,37.5832437 7.85416656,39.5765812 9.69,41.18751 L18.55,49.04751 L22.25,45.76751 L22.25,45.75751 C22.8003783,42.6633633 24.790605,40.0159163 27.61,38.62751 C27.6718434,39.3397464 27.8438925,40.0380633 28.12,40.69751 C28.8981953,42.4682138 30.2706111,43.9113727 32,44.77751 C30.7021433,43.076725 29.9055066,41.0470331 29.7,38.91751 Z" id="Shape" fill="#E3E7F2"/><path d="M28,18 L28,34 C28,35.1 24.41412,36 20,36 C15.58588,36 12,35.1 12,34 L12,18 L28,18 Z" id="Shape" fill="#E3E7F2"/><ellipse id="Oval" fill="#E3E7F2" cx="20" cy="18" rx="8" ry="2"/><path d="M47.9,41.53751 C47.0926811,40.2562678 46.0750801,39.1203411 44.89,38.17751 L44.88,38.17751 C42.2801233,35.9797197 40.7622817,32.7616036 40.72,29.35751 C40.72,29.19751 40.73,29.04751 40.73,28.89751 C40.7777544,27.8028508 40.9866682,26.7212166 41.35,25.68751 C40.8850832,25.9096619 40.434236,26.1601326 40,26.43751 C38.5276563,27.331664 37.2492051,28.5115112 36.24,29.90751 C36.18,29.97751 36.13,30.04751 36.08,30.11751 C36.02,30.20751 35.96,30.28751 35.91,30.37751 C34.6926136,32.1887851 34.028937,34.3153299 34,36.49751 L34,36.61751 C34.0125228,39.105679 34.8377314,41.5216089 36.35,43.49751 C33.9286739,42.336187 32.2716124,40.0147912 31.96,37.34751 C31.1611581,37.7663675 30.4157716,38.2800798 29.74,38.87751 C29.2535376,39.3085203 28.8082809,39.7839072 28.41,40.29751 C27.4627552,41.51528 26.8399902,42.9534886 26.6,44.47751 L26.6,44.48751 C26.5311893,44.9241009 26.4977473,45.3655355 26.5,45.80751 C26.4982035,47.0046731 26.743308,48.1893445 27.22,49.28751 C28.7628808,52.6082053 31.8690652,54.9331486 35.49,55.47751 C36.2350273,55.6186085 36.9917306,55.6889216 37.75,55.68751 C42.65,55.68751 46.81,52.93751 48.36,49.09751 C48.7867968,48.0533578 49.0042499,46.9355132 49,45.80751 C48.9950764,44.3147264 48.6169401,42.8468702 47.9,41.53751 Z" id="Shape" fill="#A4C2F7"/><path d="M44.5,45.80753 C44.5042499,46.9355332 44.2867968,48.0533778 43.86,49.09753 C42.3490768,52.5191281 39.189669,54.9273744 35.49,55.47753 C31.8690652,54.9331686 28.7628808,52.6082253 27.22,49.28753 C26.743308,48.1893645 26.4982035,47.0046931 26.5,45.80753 C26.4977473,45.3655555 26.5311893,44.9241209 26.6,44.48753 L26.6,44.47753 C26.8399902,42.9535086 27.4627552,41.5153 28.41,40.29753 C28.8082809,39.7839272 29.2535376,39.3085403 29.74,38.87753 C30.4157716,38.2800998 31.1611581,37.7663875 31.96,37.34753 C32.2716124,40.0148112 33.9286739,42.336207 36.35,43.49753 C34.8377314,41.5216289 34.0125228,39.105699 34,36.61753 L34,36.49753 C34.028937,34.3153499 34.6926136,32.1888051 35.91,30.37753 C35.96,30.28753 36.02005,30.20753 36.08,30.11753 C36.13,30.04753 36.18,29.97753 36.24,29.90753 C36.4345395,33.1134052 37.9300139,36.1007417 40.38,38.17753 L40.39,38.17753 C41.5750801,39.1203611 42.5926811,40.2562878 43.4,41.53753 C44.1169401,42.8468902 44.4950764,44.3147464 44.5,45.80753 Z" id="Shape" fill="#E3E7F2"/></g><g id="White" transform="translate(2.000000, 11.000000)" fill="#FFFFFF"><path d="M3,0.97 L3,20.75 C3.01917518,26.6670015 5.57964407,32.2905633 10.03,36.19 L15.73,41.25 L21.5,46.36 L20,47.69 L12.73,41.25 L7.03,36.19 C2.57964407,32.2905633 0.0191751841,26.6670015 0,20.75 L0,0.97" id="Shape"/></g><g id="Icons"><polygon id="Shape" fill="#FFFFFF" points="3 12.28 3 25.28 3 32.06 1 32.06 1 25.28 1 12.28"/><path d="M2,21.28 C2.40434698,21.2784049 2.76828126,21.0344153 2.92333521,20.6609754 C3.07838917,20.2875356 2.99430271,19.8575256 2.71,19.57 L2.5601,19.44988 C2.50432178,19.4118955 2.44372787,19.3815179 2.37992,19.35955 C2.32317621,19.3307752 2.26242641,19.3107005 2.19971,19.3 C2.13368033,19.2887398 2.0669513,19.2820572 2,19.28 C1.73523302,19.2836835 1.48163379,19.3872663 1.29,19.57 C1.04738605,19.8037239 0.940920533,20.1451552 1.00769206,20.475352 C1.07446358,20.8055488 1.30522588,21.0787868 1.61959,21.19988 C1.73993219,21.2512116 1.86917676,21.2784324 2,21.28 Z" id="Shape" fill="#428DFF"/><path d="M47.58008,40.771 C47.56641,40.75781 47.55273,40.74512 47.53708,40.73242 C45.1532853,38.7264927 43.7614068,35.7817633 43.72458,32.6665 C43.72458,32.53174 43.72658,32.39893 43.73337,32.25391 C43.7732683,31.2569605 43.9615331,30.2715248 44.29196,29.33008 C44.4217176,28.964851 44.3268621,28.5575001 44.0491071,28.2871643 C43.7713521,28.0168286 43.3615829,27.9330339 43,28.07263 L43,12.27979 C42.9998876,11.7889795 42.6437099,11.3707475 42.15918,11.29248 C36.83008,10.43457 23,6.91309 23,1 C23,0.44771525 22.5522847,3.38176876e-17 22,0 C21.4477153,-3.38176876e-17 21,0.44771525 21,1 C21,6.9082 7.16992,10.43311 1.84082,11.29248 C1.36089889,11.3740559 1.01204731,11.7932449 1.019,12.28 L1,12.28 L1,16.28 C1,16.8322847 1.44771525,17.28 2,17.28 C2.55228475,17.28 3,16.8322847 3,16.28 L3,13.1221 C6.59064,12.46945 18.46692,9.9263 22,4.3223 C25.5332,9.9253 37.40723,12.4693 41,13.1221 L41,29.21912 C40.2865397,29.7055969 39.6172898,30.2539368 39,30.85779 L39,15.58008 C39.0001658,15.1113016 38.6744788,14.705407 38.2168,14.604 C34.27832,13.72754 27.01953,11.69922 22.65039,7.96045 C22.2759523,7.64014074 21.7240477,7.64014074 21.34961,7.96045 C16.98047,11.69922 9.72168,13.72754 5.7832,14.604 C5.32552122,14.705407 4.9998342,15.1113016 5,15.58008 L5,32.06008 C5.02331015,37.1171706 7.21823229,41.9204989 11.02637,45.24808 L21.33594,54.398 C21.7145487,54.7337468 22.2842335,54.7339571 22.66309,54.39849 L27.55353,50.06349 C27.6259497,50.8291227 27.7888077,51.5834817 28.0387,52.3108 L22,57.66406 L9.69336,46.75146 C5.46420855,43.0366586 3.0278197,37.6889762 3,32.06006 L3,32.06 L3,24.28 C3,23.7277153 2.55228475,23.28 2,23.28 C1.44771525,23.28 1,23.7277153 1,24.28 L1,32.06 L1,32.06006 C1.02833807,38.260983 3.70954793,44.153216 8.36621,48.24806 L21.33691,59.74855 C21.7153966,60.0838304 22.2846034,60.0838304 22.66309,59.74855 L28.9234,54.1991 C31.2722367,57.8900547 35.3759527,60.0888286 39.75,60 C44.91406,60 49.5498,57.10156 51.28516,52.79 C52.3938056,50.0503241 52.2053816,46.9564297 50.77246,44.37154 C49.9240021,42.99619 48.8439405,41.7780377 47.58008,40.771 Z M22,52.313 L12.35156,43.74952 C8.97265424,40.8017146 7.02344188,36.5440327 7,32.06006 L7,16.377 C11.70313,15.27251 17.77246,13.313 22,10.01128 C26.22754,13.313 32.29688,15.27246 37,16.377 L37,32.06006 C37,32.50067 36.96948,32.93152 36.92767,33.36884 C35.7088051,35.2721596 35.0434005,37.4770064 35.00586,39.73684 C35.001,39.80029 35,39.86719 35,39.93066 C35.0000067,40.4240526 35.0300087,40.9169885 35.08984,41.40674 C35.0251777,41.1323325 34.9804642,40.8536041 34.95605,40.57274 C34.9268319,40.239038 34.7325384,39.9421048 34.4384545,39.7817134 C34.1443705,39.6213221 33.7895287,39.6187607 33.49316,39.77489 C30.5368778,41.2695475 28.4116728,44.0169804 27.70789,47.254 L22,52.313 Z M49.43066,52.04054 C47.99609,55.605 44.10645,58 39.75,58 C34.09766,58 29.5,54.01855 29.5,49.125 C29.5446324,46.3610066 30.946143,43.7958607 33.248,42.26514 C33.9838493,44.6372653 35.6640915,46.6016712 37.8935,47.69629 C38.3081012,47.9095292 38.8150511,47.8079102 39.1154352,47.4513509 C39.4158193,47.0947916 39.4298939,46.5779487 39.14936,46.20557 C37.7658539,44.4053293 37.0108295,42.2010869 37,39.93066 L36,39.93066 L37.00293,39.82227 C37.0324789,37.810928 37.649305,35.8520862 38.77753,34.18671 L38.78589,34.17371 C38.82416,34.11646 38.85797,34.05719 38.89746,34.00049 C39.7000337,32.8585605 40.6926184,31.8628267 41.832,31.05664 C41.7822,31.42432 41.7499733,31.79281 41.73532,32.16211 C41.72653,32.32959 41.72458,32.49658 41.72458,32.6665 C41.7577692,36.3603167 43.4002899,39.8559719 46.22258,42.23926 L46.23039,42.24658 C47.3279713,43.1099446 48.2707897,44.1536198 49.01855,45.333 C49.6625162,46.493103 50.00029,47.7981499 50,49.125 C50.0006911,50.1245308 49.8073343,51.1146905 49.43066,52.04053 L49.43066,52.04054 Z" id="Shape" fill="#428DFF"/><path d="M31,37 L31,21 C31,18.14453 23.50293,18 22,18 C20.49707,18 13,18.14453 13,21 L13,37 C13,39.85547 20.49707,40 22,40 C23.50293,40 31,39.85547 31,37 Z M15,36.82648 L15,35.03955 C17.2708705,35.7140139 19.6313889,36.0378939 22,36 C22.5522847,36 23,35.5522847 23,35 C23,34.4477153 22.5522847,34 22,34 C17.95685,34 15.50671,33.25732 15,32.82843 L15,31.03955 C17.2708705,31.7140139 19.6313889,32.0378939 22,32 C22.5522847,32 23,31.5522847 23,31 C23,30.4477153 22.5522847,30 22,30 C17.95685,30 15.50671,29.25732 15,28.82843 L15,27.03955 C17.2708705,27.7140139 19.6313889,28.0378939 22,28 C22.5522847,28 23,27.5522847 23,27 C23,26.4477153 22.5522847,26 22,26 C17.95685,26 15.50671,25.25732 15,24.82843 L15,23.03955 C17.2708705,23.7140139 19.6313889,24.0378939 22,24 C24.3686111,24.0378939 26.7291295,23.7140139 29,23.03955 L29,36.82648 C28.49139,37.25629 26.03937,38 22,38 C17.96063,38 15.50861,37.25629 15,36.82648 Z M22,20 C24.2863637,19.8895123 26.5721615,20.2292796 28.72754,21 C26.5721615,21.7707204 24.2863637,22.1104877 22,22 C19.7136363,22.1104877 17.4278385,21.7707204 15.27246,21 C17.4278385,20.2292796 19.7136363,19.8895123 22,20 Z" id="Shape" fill="#428DFF"/></g></g></g></svg>
