<?xml version="1.0" encoding="UTF-8"?>
<svg xmlns="http://www.w3.org/2000/svg" xmlns:xlink="http://www.w3.org/1999/xlink" width="512" height="512" viewBox="0 0 60 60" version="1.1"><!-- Generator: Sketch 49.3 (51167) - http://www.bohemiancoding.com/sketch --><title>015 - Backup Database</title><desc>Created with Sketch.</desc><defs><linearGradient x1="6.99324324%" y1="-4.87072414%" x2="93.0067568%" y2="104.870655%" id="linearGradient-1"><stop stop-color="#D4E1F4" offset="0%"/><stop stop-color="#D4E1F4" offset="17.173%"/><stop stop-color="#D4E1F4" offset="20%"/><stop stop-color="#DAE4F4" offset="20.014%"/><stop stop-color="#EBEBF4" offset="20.069%"/><stop stop-color="#F6F1F4" offset="20.136%"/><stop stop-color="#FDF4F4" offset="20.231%"/><stop stop-color="#FFF5F4" offset="20.495%"/><stop stop-color="#FFF5F4" offset="25.222%"/><stop stop-color="#FFF5F4" offset="26%"/><stop stop-color="#D4E1F4" offset="26%"/><stop stop-color="#D4E1F4" offset="39.739%"/><stop stop-color="#D4E1F4" offset="42%"/><stop stop-color="#DAE4F4" offset="42.014%"/><stop stop-color="#EBEBF4" offset="42.069%"/><stop stop-color="#F6F1F4" offset="42.136%"/><stop stop-color="#FDF4F4" offset="42.231%"/><stop stop-color="#FFF5F4" offset="42.495%"/><stop stop-color="#FFF5F4" offset="48.939%"/><stop stop-color="#FFF5F4" offset="50%"/><stop stop-color="#F9F2F4" offset="50.003%"/><stop stop-color="#E8EBF4" offset="50.014%"/><stop stop-color="#DDE5F4" offset="50.028%"/><stop stop-color="#D6E2F4" offset="50.047%"/><stop stop-color="#D4E1F4" offset="50.1%"/><stop stop-color="#D4E1F4" offset="70.622%"/><stop stop-color="#D4E1F4" offset="74%"/><stop stop-color="#FFF5F4" offset="74.1%"/><stop stop-color="#FFF5F4" offset="83.459%"/><stop stop-color="#FFF5F4" offset="85%"/><stop stop-color="#D4E1F4" offset="85.1%"/></linearGradient></defs><g id="Page-1" stroke="none" stroke-width="1" fill="none" fill-rule="evenodd"><g id="015---Backup-Database" fill-rule="nonzero"><g id="Colours" transform="translate(1.000000, 1.000000)"><rect id="Rectangle-path" fill="#A4C2F7" x="9" y="0" width="40" height="29" rx="2"/><rect id="Rectangle-path" fill="url(#linearGradient-1)" x="9" y="0" width="37" height="29" rx="2"/><path d="M21,18 L21,29 L11,29 C9.89677769,28.9967543 9.00324566,28.1032223 9,27 L9,18 L21,18 Z" id="Shape" fill="#A4C2F7"/><path d="M49,2 L49,8 L9,8 L9,2 C9.00322381,0.896768606 9.89676861,0.00322381203 11,2.22044605e-16 L47,2.22044605e-16 C48.1032314,0.00322381203 48.9967762,0.896768606 49,2 Z" id="Shape" fill="#A4C2F7"/><path d="M46,2 L46,8 L9,8 L9,2 C9.00322381,0.896768606 9.89676861,0.00322381203 11,2.22044605e-16 L44,2.22044605e-16 C45.1032314,0.00322381203 45.9967762,0.896768606 46,2 Z" id="Shape" fill="#E3E7F2"/><rect id="Rectangle-path" fill="#A4C2F7" x="9" y="8" width="12" height="10"/><path d="M18,18 L18,29 L11,29 C9.89677769,28.9967543 9.00324566,28.1032223 9,27 L9,18 L18,18 Z" id="Shape" fill="#E3E7F2"/><rect id="Rectangle-path" fill="#E3E7F2" x="9" y="8" width="9" height="10"/><path d="M8.5,37.99994 C3.8056,37.99994 0,38.89539 0,39.99994 L0,55.99994 C0,57.09994 3.81,57.99994 8.5,57.99994 C13.19,57.99994 17,57.09994 17,55.99994 L17,39.99994 C17,38.89539 13.19446,37.99994 8.5,37.99994 Z" id="Shape" fill="#E3E7F2"/><path d="M49.5,37.99994 C44.8056,37.99994 41,38.89539 41,39.99994 L41,55.99994 C41,57.09994 44.81,57.99994 49.5,57.99994 C54.19,57.99994 58,57.09994 58,55.99994 L58,39.99994 C58,38.89539 54.19446,37.99994 49.5,37.99994 Z" id="Shape" fill="#E3E7F2"/><ellipse id="Oval" fill="#E3E7F2" cx="8.50002" cy="39.99998" rx="8.5" ry="2"/><ellipse id="Oval" fill="#E3E7F2" cx="49.50002" cy="39.99998" rx="8.5" ry="2"/></g><g id="White" transform="translate(1.000000, 1.000000)" fill="#FFFFFF"><path d="M14,29 L11,29 C9.89677769,28.9967543 9.00324566,28.1032223 9,27 L9,2 C9.00322381,0.896768606 9.89676861,0.00322381203 11,2.22044605e-16 L14,2.22044605e-16 C12.8967686,0.00322381203 12.0032238,0.896768606 12,2 L12,27 C12.0032457,28.1032223 12.8967777,28.9967543 14,29 Z" id="Shape"/><path d="M10,57.97 C9.51,57.99 9.01,58 8.5,58 C3.81,58 0,57.1 0,56 L0,40 C0,38.9 3.81,38 8.5,38 C9.01,38 9.52,38.01 10,38.03 C6.02,38.2 3,39.02 3,40 L3,56 C3,56.98 6.02,57.8 10,57.97 Z" id="Shape"/><path d="M51,57.97 C50.51,57.99 50.01,58 49.5,58 C44.81,58 41,57.1 41,56 L41,40 C41,38.9 44.81,38 49.5,38 C50.01,38 50.52,38.01 51,38.03 C47.02,38.2 44,39.02 44,40 L44,56 C44,56.98 47.02,57.8 51,57.97 Z" id="Shape"/></g><g id="Icons" fill="#428DFF"><path d="M45,6 L46,6 C46.5522847,6 47,5.55228475 47,5 C47,4.44771525 46.5522847,4 46,4 L45,4 C44.4477153,4 44,4.44771525 44,5 C44,5.55228475 44.4477153,6 45,6 Z" id="Shape"/><path d="M40,6 L41,6 C41.5522847,6 42,5.55228475 42,5 C42,4.44771525 41.5522847,4 41,4 L40,4 C39.4477153,4 39,4.44771525 39,5 C39,5.55228475 39.4477153,6 40,6 Z" id="Shape"/><path d="M35,6 L36,6 C36.5522847,6 37,5.55228475 37,5 C37,4.44771525 36.5522847,4 36,4 L35,4 C34.4477153,4 34,4.44771525 34,5 C34,5.55228475 34.4477153,6 35,6 Z" id="Shape"/><path d="M50.5,38 C49.24274,38 44.021,38.09631 41.9054,39.55652 L32.571,31 L48,31 C49.6561049,30.9981923 50.9981923,29.6561049 51,28 L51,3 C50.9981923,1.34389511 49.6561049,0.00180771165 48,0 L12,0 C10.3438951,0.00180771165 9.00180771,1.34389511 9,3 L9,28 C9.00180771,29.6561049 10.3438951,30.9981923 12,31 L27.429,31 L18.0946,39.55646 C15.97906,38.09631 10.75763,38 9.5,38 C7.91357,38 0,38.14453 0,41 L0,57 C0,59.85547 7.91357,60 9.5,60 C11.08643,60 19,59.85547 19,57 L19,41.44012 L30,31.35645 L41,41.44012 L41,57 C41,59.85547 48.91406,60 50.5,60 C52.08594,60 60,59.85547 60,57 L60,41 C60,38.14453 52.08594,38 50.5,38 Z M48,29 L23,29 L23,17 L49,17 L49,28 C48.9994488,28.5520563 48.5520563,28.9994488 48,29 Z M11,10 L21,10 L21,18 L11,18 L11,10 Z M49,10 L49,15 L23,15 L23,10 L49,10 Z M12,2 L48,2 C48.5520563,2.00055123 48.9994488,2.44794374 49,3 L49,8 L11,8 L11,3 C11.0007162,2.44801218 11.4480122,2.00071619 12,2 Z M11,28 L11,20 L21,20 L21,29 L12,29 C11.4480122,28.9992838 11.0007162,28.5519878 11,28 Z M50.5,40 C52.9319828,39.8919312 55.3631612,40.2308729 57.67285,41 C55.3631612,41.7691271 52.9319828,42.1080688 50.5,42 C48.0680148,42.1081204 45.6368271,41.7691773 43.32715,41 C45.6368271,40.2308227 48.0680148,39.8918796 50.5,40 Z M9.5,40 C11.9319852,39.8918796 14.3631729,40.2308227 16.67285,41 C14.3631729,41.7691773 11.9319852,42.1081204 9.5,42 C7.06801481,42.1081204 4.63682709,41.7691773 2.32715,41 C4.63682709,40.2308227 7.06801481,39.8918796 9.5,40 Z M2,56.808 L2,55.00122 C4.43611014,55.7067429 6.96415473,56.0434042 9.5,56 C10.0522847,56 10.5,55.5522847 10.5,55 C10.5,54.4477153 10.0522847,54 9.5,54 C5.17346,54 2.55072,53.24768 2,52.81024 L2,51.00124 C4.43611117,51.7067561 6.96415574,52.0434107 9.5,52 C10.0522847,52 10.5,51.5522847 10.5,51 C10.5,50.4477153 10.0522847,50 9.5,50 C5.17346,50 2.55072,49.24768 2,48.81024 L2,47.00124 C4.43611117,47.7067561 6.96415574,48.0434107 9.5,48 C10.0522847,48 10.5,47.5522847 10.5,47 C10.5,46.4477153 10.0522847,46 9.5,46 C5.17346,46 2.55072,45.24768 2,44.81024 L2,43.00122 C4.43611117,43.7067561 6.96415574,44.0434107 9.5,44 C12.0358453,44.0434042 14.5638899,43.7067429 17,43.00122 L17,56.808 C16.44666,57.2464 13.82233,58 9.5,58 C5.17767,58 2.55334,57.2464 2,56.808 Z M43,56.808 L43,55.00116 C45.4361072,55.7067027 47.9641517,56.0433843 50.5,56 C51.0522847,56 51.5,55.5522847 51.5,55 C51.5,54.4477153 51.0522847,54 50.5,54 C46.17346,54 43.55072,53.24768 43,52.81024 L43,51.00116 C45.4361072,51.7067027 47.9641517,52.0433843 50.5,52 C51.0522847,52 51.5,51.5522847 51.5,51 C51.5,50.4477153 51.0522847,50 50.5,50 C46.17346,50 43.55072,49.24768 43,48.81024 L43,47.00116 C45.4361072,47.7067027 47.9641517,48.0433843 50.5,48 C51.0522847,48 51.5,47.5522847 51.5,47 C51.5,46.4477153 51.0522847,46 50.5,46 C46.17346,46 43.55072,45.24768 43,44.81024 L43,43.00116 C45.4361072,43.7067027 47.9641517,44.0433843 50.5,44 C53.0358483,44.0433843 55.5638928,43.7067027 58,43.00116 L58,56.8078 C57.44745,57.24622 54.82324,58 50.5,58 C46.17767,58 43.55334,57.2464 43,56.808 Z" id="Shape"/></g></g></g></svg>
