<?xml version="1.0" encoding="UTF-8"?>
<svg xmlns="http://www.w3.org/2000/svg" xmlns:xlink="http://www.w3.org/1999/xlink" width="512" height="512" viewBox="0 0 60 60" version="1.1"><!-- Generator: Sketch 49.3 (51167) - http://www.bohemiancoding.com/sketch --><title>014 - Multiple Databases</title><desc>Created with Sketch.</desc><defs/><g id="Page-1" stroke="none" stroke-width="1" fill="none" fill-rule="evenodd"><g id="014---Multiple-Databases" fill-rule="nonzero"><g id="Colours" transform="translate(0.000000, 1.000000)"><path d="M27,4 L27,24 C27,26.21 21.18,28 14,28 C13.49,28 12.99,27.99 12.5,27.97 C6.03,27.74 1,26.05 1,24 L1,4 C1,1.95 6.03,0.26 12.5,0.03 C12.99,0.01 13.49,0 14,0 C21.18,0 27,1.79 27,4 Z" id="Shape" fill="#A4C2F7"/><path d="M24,4 L24,24 C24,26.05 18.97,27.74 12.5,27.97 C6.03,27.74 1,26.05 1,24 L1,4 C1,1.95 6.03,0.26 12.5,0.03 C18.97,0.26 24,1.95 24,4 Z" id="Shape" fill="#E3E7F2"/><ellipse id="Oval" fill="#A4C2F7" cx="14" cy="4" rx="13" ry="4"/><ellipse id="Oval" fill="#E3E7F2" cx="12" cy="4" rx="11" ry="4"/><path d="M27,16 L27,20 C27,22.21 21.18,24 14,24 C6.82,24 1,22.21 1,20 L1,16 C1,18.21 6.82,20 14,20 C21.18,20 27,18.21 27,16 Z" id="Shape" fill="#A4C2F7"/><path d="M27,8 L27,12 C27,14.21 21.18,16 14,16 C6.82,16 1,14.21 1,12 L1,8 C1,10.21 6.82,12 14,12 C21.18,12 27,10.21 27,8 Z" id="Shape" fill="#A4C2F7"/><path d="M59,4 L59,24 C59,26.21 53.18,28 46,28 C45.49,28 44.99,27.99 44.5,27.97 C38.03,27.74 33,26.05 33,24 L33,4 C33,1.95 38.03,0.26 44.5,0.03 C44.99,0.01 45.49,0 46,0 C53.18,0 59,1.79 59,4 Z" id="Shape" fill="#A4C2F7"/><path d="M56,4 L56,24 C56,26.05 50.97,27.74 44.5,27.97 C38.03,27.74 33,26.05 33,24 L33,4 C33,1.95 38.03,0.26 44.5,0.03 C50.97,0.26 56,1.95 56,4 Z" id="Shape" fill="#E3E7F2"/><ellipse id="Oval" fill="#A4C2F7" cx="46" cy="4" rx="13" ry="4"/><ellipse id="Oval" fill="#E3E7F2" cx="44" cy="4" rx="11" ry="4"/><path d="M59,16 L59,20 C59,22.21 53.18,24 46,24 C38.82,24 33,22.21 33,20 L33,16 C33,18.21 38.82,20 46,20 C53.18,20 59,18.21 59,16 Z" id="Shape" fill="#A4C2F7"/><path d="M59,8 L59,12 C59,14.21 53.18,16 46,16 C38.82,16 33,14.21 33,12 L33,8 C33,10.21 38.82,12 46,12 C53.18,12 59,10.21 59,8 Z" id="Shape" fill="#A4C2F7"/><rect id="Rectangle-path" fill="#A4C2F7" x="1" y="38" width="58" height="20" rx="2"/><path d="M55,40 L55,56 C55.0335357,57.0647777 54.2023872,57.9574921 53.13793,58 L2.86207,58 C1.79761277,57.9574921 0.966464339,57.0647777 1,56 L1,40 C0.966442291,38.9352141 1.79760294,38.0424865 2.86207,38 L53.13793,38 C54.2023971,38.0424865 55.0335577,38.9352141 55,40 Z" id="Shape" fill="#E3E7F2"/><path d="M24,42 L24,54 L36,54 L36,42 L24,42 Z M30,50 C28.8954305,50 28,49.1045695 28,48 C28,46.8954305 28.8954305,46 30,46 C31.1045695,46 32,46.8954305 32,48 C31.9967543,49.1032223 31.1032223,49.9967543 30,50 Z" id="Shape" fill="#A4C2F7"/><path d="M9,42 L9,48 C9,46.8954305 8.1045695,46 7,46 C5.8954305,46 5,46.8954305 5,48 L5,43 C5.0016474,42.4483991 5.44839907,42.0016474 6,42 L9,42 Z" id="Shape" fill="#A4C2F7"/><path d="M9,48 L9,54 L6,54 C5.44839907,53.9983526 5.0016474,53.5516009 5,53 L5,48 C5,49.1045695 5.8954305,50 7,50 C8.1045695,50 9,49.1045695 9,48 Z" id="Shape" fill="#A4C2F7"/><path d="M55,43 L55,48 C55,46.8954305 54.1045695,46 53,46 C51.8954305,46 51,46.8954305 51,48 L51,42 L54,42 C54.5516009,42.0016474 54.9983526,42.4483991 55,43 Z" id="Shape" fill="#A4C2F7"/><path d="M55,48 L55,53 C54.9983526,53.5516009 54.5516009,53.9983526 54,54 L51,54 L51,48 C51,49.1045695 51.8954305,50 53,50 C54.1045695,50 55,49.1045695 55,48 Z" id="Shape" fill="#A4C2F7"/><rect id="Rectangle-path" fill="#7F8C8D" x="9" y="48" width="15" height="6"/><rect id="Rectangle-path" fill="#A4C2F7" x="9" y="42" width="15" height="6"/><circle id="Oval" fill="#E3E7F2" cx="7" cy="48" r="2"/><rect id="Rectangle-path" fill="#A4C2F7" x="36" y="42" width="15" height="6"/><rect id="Rectangle-path" fill="#E3E7F2" x="9" y="42" width="11" height="6"/><rect id="Rectangle-path" fill="#E3E7F2" x="36" y="42" width="11" height="6"/><rect id="Rectangle-path" fill="#A4C2F7" x="9" y="48" width="15" height="6"/><rect id="Rectangle-path" fill="#A4C2F7" x="36" y="48" width="15" height="6"/><rect id="Rectangle-path" fill="#E3E7F2" x="9" y="48" width="11" height="6"/><rect id="Rectangle-path" fill="#E3E7F2" x="36" y="48" width="11" height="6"/><circle id="Oval" fill="#E3E7F2" cx="53" cy="48" r="2"/><circle id="Oval" fill="#E3E7F2" cx="30" cy="48" r="2"/></g><g id="White" transform="translate(0.000000, 1.000000)" fill="#FFFFFF"><path d="M15.5,27.97 C15.01,27.99 14.51,28 14,28 C13.49,28 12.99,27.99 12.5,27.97 C6.03,27.74 1,26.05 1,24 L1,4 C1,1.79 5.92,0 12,0 C12.31,0 12.61,0.01 12.92,0.02 C13.27,0.01 13.63,0 14,0 C14.18,0 14.36,0 14.54,0.01 C8.67,0.09 4,1.85 4,4 L4,24 C4,26.05 9.03,27.74 15.5,27.97 Z" id="Shape"/><path d="M47.5,27.97 C47.01,27.99 46.51,28 46,28 C45.49,28 44.99,27.99 44.5,27.97 C38.03,27.74 33,26.05 33,24 L33,4 C33,1.79 37.92,0 44,0 C44.31,0 44.61,0.01 44.92,0.02 C45.27,0.01 45.63,0 46,0 C46.18,0 46.36,0 46.54,0.01 C40.67,0.09 36,1.85 36,4 L36,24 C36,26.05 41.03,27.74 47.5,27.97 Z" id="Shape"/><path d="M5.86,58 L2.86,58 C1.79662464,57.9558183 0.967030923,57.063782 1,56 L1,40 C0.967008959,38.9362097 1.79661482,38.0441604 2.86,38 L5.85,38 C4.79016634,38.0485849 3.96597833,38.9395989 4,40 L4,56 C3.96703092,57.063782 4.79662464,57.9558183 5.86,58 Z" id="Shape"/></g><g id="Icons" fill="#428DFF"><path d="M24,42 L6,42 C4.89588748,42.0011025 4.00110246,42.8958875 4,44 L4,54 C4.00110246,55.1041125 4.89588748,55.9988975 6,56 L54,56 C55.1041125,55.9988975 55.9988975,55.1041125 56,54 L56,44 C55.9988975,42.8958875 55.1041125,42.0011025 54,42 L24,42 Z M35,54 L25,54 L25,44 L35,44 L35,54 Z M23,44 L23,48 L10,48 L10,44 L23,44 Z M8,44 L8,46.18427 C7.35597037,45.9385762 6.64402963,45.9385762 6,46.18427 L6,44 L8,44 Z M8,49 C8,49.5522847 7.55228475,50 7,50 C6.44771525,50 6,49.5522847 6,49 C6,48.4477153 6.44771525,48 7,48 C7.55198782,48.0007162 7.99928381,48.4480122 8,49 Z M6,51.81567 C6.644015,52.0614225 7.35597025,52.0614438 8,51.81573 L8,54 L6,54 L6,51.81567 Z M10,54 L10,50 L23,50 L23,54 L10,54 Z M37,54 L37,50 L50,50 L50,54 L37,54 Z M52,54 L52,51.81567 C52.6444149,52.0615463 53.3568189,52.0614395 54.00116,51.81537 L54.00146,54 L52,54 Z M52,49 C52,48.4477153 52.4477153,48 53,48 C53.5522847,48 54,48.4477153 54,49 C54,49.5522847 53.5522847,50 53,50 C52.4480122,49.9992838 52.0007162,49.5519878 52,49 Z M54.00031,46.18433 C53.3561875,45.9385812 52.6441373,45.9385598 52,46.18427 L52,44 L54,44 L54.00031,46.18433 Z M50,44 L50,48 L37,48 L37,44 L50,44 Z" id="Shape"/><path d="M30,52 C31.6568542,52 33,50.6568542 33,49 C33,47.3431458 31.6568542,46 30,46 C28.3431458,46 27,47.3431458 27,49 C27.0018077,50.6561049 28.3438951,51.9981923 30,52 Z M30,48 C30.5522847,48 31,48.4477153 31,49 C31,49.5522847 30.5522847,50 30,50 C29.4477153,50 29,49.5522847 29,49 C29.0007162,48.4480122 29.4480122,48.0007162 30,48 Z" id="Shape"/><path d="M46,0 C39.043,0 32,1.71729 32,5 L32,25 C32,28.12537 38.38422,29.82819 45,29.98462 L45,38 L15,38 L15,29.98462 C21.61578,29.82819 28,28.12537 28,25 L28,5 C28,1.71729 20.957,0 14,0 C7.043,0 0,1.71729 0,5 L0,25 C0,28.12537 6.38422,29.82819 13,29.98462 L13,38 L3,38 C1.34389511,38.0018077 0.00180771165,39.3438951 -6.66862121e-16,41 L-6.66862121e-16,57 C0.00180771165,58.6561049 1.34389511,59.9981923 3,60 L57,60 C58.6561049,59.9981923 59.9981923,58.6561049 60,57 L60,41 C59.9981923,39.3438951 58.6561049,38.0018077 57,38 L47,38 L47,29.98462 C53.61578,29.82819 60,28.12537 60,25 L60,5 C60,1.71729 52.957,0 46,0 Z M26,9 C26,10.05762 21.44385,12 14,12 C6.55615,12 2,10.05762 2,9 L2,7.69873 C4.58276,9.21533 9.30646,10 14,10 C18.69354,10 23.41724,9.21533 26,7.69873 L26,9 Z M14,14 C18.69354,14 23.41724,13.21533 26,11.69873 L26,13 C26,14.05762 21.44385,16 14,16 C6.55615,16 2,14.05762 2,13 L2,11.69873 C4.58276,13.21533 9.30646,14 14,14 Z M14,18 C18.69354,18 23.41724,17.21533 26,15.69873 L26,17 C26,18.05762 21.44385,20 14,20 C6.55615,20 2,18.05762 2,17 L2,15.69873 C4.58276,17.21533 9.30646,18 14,18 Z M2,19.69873 C4.58276,21.21533 9.30646,22 14,22 C18.69354,22 23.41724,21.21533 26,19.69873 L26,21 C26,22.05762 21.44385,24 14,24 C6.55615,24 2,22.05762 2,21 L2,19.69873 Z M14,2 C21.44385,2 26,3.94238 26,5 C26,6.05762 21.44385,8 14,8 C6.55615,8 2,6.05762 2,5 C2,3.94238 6.55615,2 14,2 Z M2,25 L2,23.69873 C4.58276,25.21533 9.30646,26 14,26 C18.69354,26 23.41724,25.21533 26,23.69873 L26,25 C26,26.05762 21.44385,28 14,28 C6.55615,28 2,26.05762 2,25 Z M58,41 L58,57 C57.9992838,57.5519878 57.5519878,57.9992838 57,58 L3,58 C2.44801218,57.9992838 2.00071619,57.5519878 2,57 L2,41 C2.00071619,40.4480122 2.44801218,40.0007162 3,40 L57,40 C57.5519878,40.0007162 57.9992838,40.4480122 58,41 Z M58,21 C58,22.05762 53.44385,24 46,24 C38.55615,24 34,22.05762 34,21 L34,19.69873 C36.58276,21.21533 41.30646,22 46,22 C50.69354,22 55.41724,21.21533 58,19.69873 L58,21 Z M58,17 C58,18.05762 53.44385,20 46,20 C38.55615,20 34,18.05762 34,17 L34,15.69873 C36.58276,17.21533 41.30646,18 46,18 C50.69354,18 55.41724,17.21533 58,15.69873 L58,17 Z M58,13 C58,14.05762 53.44385,16 46,16 C38.55615,16 34,14.05762 34,13 L34,11.69873 C36.58276,13.21533 41.30646,14 46,14 C50.69354,14 55.41724,13.21533 58,11.69873 L58,13 Z M58,9 C58,10.05762 53.44385,12 46,12 C38.55615,12 34,10.05762 34,9 L34,7.69873 C36.58276,9.21533 41.30646,10 46,10 C50.69354,10 55.41724,9.21533 58,7.69873 L58,9 Z M46,2 C53.44385,2 58,3.94238 58,5 C58,6.05762 53.44385,8 46,8 C38.55615,8 34,6.05762 34,5 C34,3.94238 38.55615,2 46,2 Z M46,28 C38.55615,28 34,26.05762 34,25 L34,23.69873 C36.58276,25.21533 41.30646,26 46,26 C50.69354,26 55.41724,25.21533 58,23.69873 L58,25 C58,26.05762 53.44385,28 46,28 Z" id="Shape"/></g></g></g></svg>
