<?xml version="1.0" encoding="UTF-8"?>
<svg xmlns="http://www.w3.org/2000/svg" xmlns:xlink="http://www.w3.org/1999/xlink" width="512" height="512" viewBox="0 0 60 60" version="1.1"><!-- Generator: Sketch 49.3 (51167) - http://www.bohemiancoding.com/sketch --><title>013 - Database Server</title><desc>Created with Sketch.</desc><defs/><g id="Page-1" stroke="none" stroke-width="1" fill="none" fill-rule="evenodd"><g id="013---Database-Server" fill-rule="nonzero"><g id="Colours" transform="translate(0.000000, 1.000000)"><path d="M43,4 L43,24 C43,26.21 37.18,28 30,28 C29.49,28 28.99,27.99 28.5,27.97 C22.03,27.74 17,26.05 17,24 L17,4 C17,1.95 22.03,0.26 28.5,0.03 C28.99,0.01 29.49,0 30,0 C37.18,0 43,1.79 43,4 Z" id="Shape" fill="#A4C2F7"/><path d="M40,4 L40,24 C40,26.05 34.97,27.74 28.5,27.97 C22.03,27.74 17,26.05 17,24 L17,4 C17,1.95 22.03,0.26 28.5,0.03 C34.97,0.26 40,1.95 40,4 Z" id="Shape" fill="#E3E7F2"/><ellipse id="Oval" fill="#A4C2F7" cx="30" cy="4" rx="13" ry="4"/><ellipse id="Oval" fill="#E3E7F2" cx="28" cy="4" rx="11" ry="4"/><path d="M43,16 L43,20 C43,22.21 37.18,24 30,24 C22.82,24 17,22.21 17,20 L17,16 C17,18.21 22.82,20 30,20 C37.18,20 43,18.21 43,16 Z" id="Shape" fill="#A4C2F7"/><path d="M43,8 L43,12 C43,14.21 37.18,16 30,16 C22.82,16 17,14.21 17,12 L17,8 C17,10.21 22.82,12 30,12 C37.18,12 43,10.21 43,8 Z" id="Shape" fill="#A4C2F7"/><rect id="Rectangle-path" fill="#A4C2F7" x="1" y="38" width="58" height="20" rx="2"/><path d="M55,40 L55,56 C55.0335357,57.0647777 54.2023872,57.9574921 53.13793,58 L2.86207,58 C1.79761277,57.9574921 0.966464339,57.0647777 1,56 L1,40 C0.966442291,38.9352141 1.79760294,38.0424865 2.86207,38 L53.13793,38 C54.2023971,38.0424865 55.0335577,38.9352141 55,40 Z" id="Shape" fill="#E3E7F2"/><path d="M24,42 L24,54 L36,54 L36,42 L24,42 Z M30,50 C28.8954305,50 28,49.1045695 28,48 C28,46.8954305 28.8954305,46 30,46 C31.1045695,46 32,46.8954305 32,48 C31.9967543,49.1032223 31.1032223,49.9967543 30,50 Z" id="Shape" fill="#E3E7F2"/><path d="M9,42 L9,48 C9,46.8954305 8.1045695,46 7,46 C5.8954305,46 5,46.8954305 5,48 L5,43 C5.0016474,42.4483991 5.44839907,42.0016474 6,42 L9,42 Z" id="Shape" fill="#A4C2F7"/><path d="M9,48 L9,54 L6,54 C5.44839907,53.9983526 5.0016474,53.5516009 5,53 L5,48 C5,49.1045695 5.8954305,50 7,50 C8.1045695,50 9,49.1045695 9,48 Z" id="Shape" fill="#A4C2F7"/><path d="M55,43 L55,48 C55,46.8954305 54.1045695,46 53,46 C51.8954305,46 51,46.8954305 51,48 L51,42 L54,42 C54.5516009,42.0016474 54.9983526,42.4483991 55,43 Z" id="Shape" fill="#A4C2F7"/><path d="M55,48 L55,53 C54.9983526,53.5516009 54.5516009,53.9983526 54,54 L51,54 L51,48 C51,49.1045695 51.8954305,50 53,50 C54.1045695,50 55,49.1045695 55,48 Z" id="Shape" fill="#A4C2F7"/><rect id="Rectangle-path" fill="#7F8C8D" x="9" y="48" width="15" height="6"/><rect id="Rectangle-path" fill="#A4C2F7" x="9" y="42" width="15" height="6"/><circle id="Oval" fill="#E3E7F2" cx="7" cy="48" r="2"/><rect id="Rectangle-path" fill="#A4C2F7" x="36" y="42" width="15" height="6"/><rect id="Rectangle-path" fill="#E3E7F2" x="9" y="42" width="11" height="6"/><rect id="Rectangle-path" fill="#E3E7F2" x="36" y="42" width="11" height="6"/><rect id="Rectangle-path" fill="#A4C2F7" x="9" y="48" width="15" height="6"/><rect id="Rectangle-path" fill="#A4C2F7" x="36" y="48" width="15" height="6"/><rect id="Rectangle-path" fill="#E3E7F2" x="9" y="48" width="11" height="6"/><rect id="Rectangle-path" fill="#E3E7F2" x="36" y="48" width="11" height="6"/><circle id="Oval" fill="#E3E7F2" cx="53" cy="48" r="2"/><circle id="Oval" fill="#E3E7F2" cx="30" cy="48" r="2"/></g><g id="White" transform="translate(0.000000, 1.000000)" fill="#FFFFFF"><path d="M31.5,27.97 C31.01,27.99 30.51,28 30,28 C29.49,28 28.99,27.99 28.5,27.97 C22.03,27.74 17,26.05 17,24 L17,4 C17,1.79 21.92,0 28,0 C28.31,0 28.61,0.01 28.92,0.02 C29.27,0.01 29.63,0 30,0 C30.18,0 30.36,0 30.54,0.01 C24.67,0.09 20,1.85 20,4 L20,24 C20,26.05 25.03,27.74 31.5,27.97 Z" id="Shape"/><path d="M5.86,58 L2.86,58 C1.79662464,57.9558183 0.967030923,57.063782 1,56 L1,40 C0.967008959,38.9362097 1.79661482,38.0441604 2.86,38 L5.85,38 C4.79016634,38.0485849 3.96597833,38.9395989 4,40 L4,56 C3.96703092,57.063782 4.79662464,57.9558183 5.86,58 Z" id="Shape"/></g><g id="Icons" fill="#428DFF"><path d="M57,38 L31,38 L31,29.98462 C37.61578,29.82819 44,28.12537 44,25 L44,5 C44,1.71729 36.957,0 30,0 C23.043,0 16,1.71729 16,5 L16,25 C16,28.12537 22.38422,29.82819 29,29.98462 L29,38 L3,38 C1.34389511,38.0018077 0.00180771165,39.3438951 -6.66862121e-16,41 L-6.66862121e-16,57 C0.00180771165,58.6561049 1.34389511,59.9981923 3,60 L57,60 C58.6561049,59.9981923 59.9981923,58.6561049 60,57 L60,41 C59.9981923,39.3438951 58.6561049,38.0018077 57,38 Z M42,9 C42,10.05762 37.44385,12 30,12 C22.55615,12 18,10.05762 18,9 L18,7.69873 C20.58276,9.21533 25.30646,10 30,10 C34.69354,10 39.41724,9.21533 42,7.69873 L42,9 Z M30,14 C34.69354,14 39.41724,13.21533 42,11.69873 L42,13 C42,14.05762 37.44385,16 30,16 C22.55615,16 18,14.05762 18,13 L18,11.69873 C20.58276,13.21533 25.30646,14 30,14 Z M30,18 C34.69354,18 39.41724,17.21533 42,15.69873 L42,17 C42,18.05762 37.44385,20 30,20 C22.55615,20 18,18.05762 18,17 L18,15.69873 C20.58276,17.21533 25.30646,18 30,18 Z M18,19.69873 C20.58276,21.21533 25.30646,22 30,22 C34.69354,22 39.41724,21.21533 42,19.69873 L42,21 C42,22.05762 37.44385,24 30,24 C22.55615,24 18,22.05762 18,21 L18,19.69873 Z M30,2 C37.44385,2 42,3.94238 42,5 C42,6.05762 37.44385,8 30,8 C22.55615,8 18,6.05762 18,5 C18,3.94238 22.55615,2 30,2 Z M18,25 L18,23.69873 C20.58276,25.21533 25.30646,26 30,26 C34.69354,26 39.41724,25.21533 42,23.69873 L42,25 C42,26.05762 37.44385,28 30,28 C22.55615,28 18,26.05762 18,25 Z M58,57 C57.9992838,57.5519878 57.5519878,57.9992838 57,58 L3,58 C2.44801218,57.9992838 2.00071619,57.5519878 2,57 L2,41 C2.00071619,40.4480122 2.44801218,40.0007162 3,40 L57,40 C57.5519878,40.0007162 57.9992838,40.4480122 58,41 L58,57 Z" id="Shape"/><path d="M54,42 L6,42 C4.89588748,42.0011025 4.00110246,42.8958875 4,44 L4,54 C4.00110246,55.1041125 4.89588748,55.9988975 6,56 L54,56 C55.1041125,55.9988975 55.9988975,55.1041125 56,54 L56,44 C55.9988975,42.8958875 55.1041125,42.0011025 54,42 Z M54.00031,46.18433 C53.3561875,45.9385812 52.6441373,45.9385598 52,46.18427 L52,44 L54,44 L54.00031,46.18433 Z M54,49 C54,49.5522847 53.5522847,50 53,50 C52.4477153,50 52,49.5522847 52,49 C52,48.4477153 52.4477153,48 53,48 C53.5519878,48.0007162 53.9992838,48.4480122 54,49 Z M50,44 L50,48 L37,48 L37,44 L50,44 Z M25,44 L35,44 L35,54 L25,54 L25,44 Z M23,44 L23,48 L10,48 L10,44 L23,44 Z M8,44 L8,46.18427 C7.35597037,45.9385762 6.64402963,45.9385762 6,46.18427 L6,44 L8,44 Z M8,49 C8,49.5522847 7.55228475,50 7,50 C6.44771525,50 6,49.5522847 6,49 C6,48.4477153 6.44771525,48 7,48 C7.55198782,48.0007162 7.99928381,48.4480122 8,49 Z M6,51.81567 C6.644015,52.0614225 7.35597025,52.0614438 8,51.81573 L8,54 L6,54 L6,51.81567 Z M10,54 L10,50 L23,50 L23,54 L10,54 Z M37,54 L37,50 L50,50 L50,54 L37,54 Z M52,54 L52,51.81567 C52.6444149,52.0615463 53.3568189,52.0614395 54.00116,51.81537 L54.00146,54 L52,54 Z" id="Shape"/><path d="M30,46 C28.3431458,46 27,47.3431458 27,49 C27,50.6568542 28.3431458,52 30,52 C31.6568542,52 33,50.6568542 33,49 C32.9981923,47.3438951 31.6561049,46.0018077 30,46 Z M30,50 C29.4477153,50 29,49.5522847 29,49 C29,48.4477153 29.4477153,48 30,48 C30.5522847,48 31,48.4477153 31,49 C30.9992838,49.5519878 30.5519878,49.9992838 30,50 Z" id="Shape"/></g></g></g></svg>
