<?xml version="1.0" encoding="UTF-8"?>
<svg xmlns="http://www.w3.org/2000/svg" xmlns:xlink="http://www.w3.org/1999/xlink" width="512" height="512" viewBox="0 0 60 40" version="1.1"><!-- Generator: Sketch 49.3 (51167) - http://www.bohemiancoding.com/sketch --><title>012 - Data Replication</title><desc>Created with Sketch.</desc><defs/><g id="Page-1" stroke="none" stroke-width="1" fill="none" fill-rule="evenodd"><g id="012---Data-Replication" fill-rule="nonzero"><g id="Colours" transform="translate(1.000000, 1.000000)"><rect id="Rectangle-path" fill="#A4C2F7" x="0" y="0" width="20" height="38" rx="1"/><rect id="Rectangle-path" fill="#E3E7F2" x="0" y="0" width="17" height="38" rx="1"/><path d="M20,1 L20,9 L13.28,15.72 C12.7126759,14.9059005 11.8654412,14.3292113 10.9,14.1 C10.6042018,14.0360217 10.3026276,14.0025135 10,14 C8.6940955,14.0141334 7.47422295,14.6538227 6.72,15.72 L0,9 L0,1 C0.00164740056,0.448399067 0.448399067,0.00164740056 1,0 L19,0 C19.5516009,0.00164740056 19.9983526,0.448399067 20,1 Z" id="Shape" fill="#A4C2F7"/><path d="M14,18 C13.9945964,20.2068969 12.2068969,21.9945964 10,22 C9.4851917,21.9990634 8.9755679,21.8971386 8.5,21.7 C8.32864405,21.6301606 8.16167213,21.550014 8,21.46 C7.03008665,20.9028483 6.33899657,19.9637022 6.09554393,18.8719693 C5.85209129,17.7802364 6.07869425,16.636448 6.72,15.72 C7.16300138,15.0816392 7.78116945,14.585021 8.5,14.29 C8.9762146,14.0961381 9.48584332,13.9976098 10,14 C12.2060042,14.0075498 13.9924502,15.7939958 14,18 Z" id="Shape" fill="#A4C2F7"/><path d="M11,18 C11.0026782,19.4287069 10.2393657,20.7492375 9,21.46 C8.83832787,21.550014 8.67135595,21.6301606 8.5,21.7 C8.32864405,21.6301606 8.16167213,21.550014 8,21.46 C7.03008665,20.9028483 6.33899657,19.9637022 6.09554393,18.8719693 C5.85209129,17.7802364 6.07869425,16.636448 6.72,15.72 C7.16300138,15.0816392 7.78116945,14.585021 8.5,14.29 C10.0059623,14.9084776 10.9921651,16.3720026 11,18 Z" id="Shape" fill="#E3E7F2"/><path d="M12,21.46 L12,38 L8,38 L8,21.46 C9.23611897,22.1800532 10.763881,22.1800532 12,21.46 Z" id="Shape" fill="#E3E7F2"/><path d="M16,5 L4,5 C3.44771525,5 3,4.55228475 3,4 C3,3.44771525 3.44771525,3 4,3 L16,3 C16.5522847,3 17,3.44771525 17,4 C17,4.55228475 16.5522847,5 16,5 Z" id="Shape" fill="#4482C3"/><rect id="Rectangle-path" fill="#A4C2F7" x="38" y="0" width="20" height="38" rx="1"/><rect id="Rectangle-path" fill="#E3E7F2" x="38" y="0" width="17" height="38" rx="1"/><path d="M58,1 L58,9 L51.28,15.72 C50.7126759,14.9059005 49.8654412,14.3292113 48.9,14.1 C48.6042018,14.0360217 48.3026276,14.0025135 48,14 C46.6940955,14.0141334 45.474223,14.6538227 44.72,15.72 L38,9 L38,1 C38.0016474,0.448399067 38.4483991,0.00164740056 39,0 L57,0 C57.5516009,0.00164740056 57.9983526,0.448399067 58,1 Z" id="Shape" fill="#A4C2F7"/><path d="M16,1 L16,9 L10.9,14.1 C10.6042018,14.0360217 10.3026276,14.0025135 10,14 C9.29571598,13.9980009 8.60422828,14.18816 8,14.55 C7.39577172,14.18816 6.70428402,13.9980009 6,14 C5.69737236,14.0025135 5.39579823,14.0360217 5.1,14.1 L0,9 L0,1 C0.00164740056,0.448399067 0.448399067,0.00164740056 1,0 L15,0 C15.5516009,0.00164740056 15.9983526,0.448399067 16,1 Z" id="Shape" fill="#E3E7F2"/><path d="M54,1 L54,9 L48.9,14.1 C48.6042018,14.0360217 48.3026276,14.0025135 48,14 C47.295716,13.9980009 46.6042283,14.18816 46,14.55 C45.3957717,14.18816 44.704284,13.9980009 44,14 C43.6973724,14.0025135 43.3957982,14.0360217 43.1,14.1 L38,9 L38,1 C38.0016474,0.448399067 38.4483991,0.00164740056 39,0 L53,0 C53.5516009,0.00164740056 53.9983526,0.448399067 54,1 Z" id="Shape" fill="#E3E7F2"/><path d="M50,21.46 L50,38 L46,38 L46,21.46 C47.236119,22.1800532 48.763881,22.1800532 50,21.46 Z" id="Shape" fill="#E3E7F2"/><polygon id="Shape" fill="#A4C2F7" points="34 17 34 27 24 27 24 13 30 13"/><polygon id="Shape" fill="#E3E7F2" points="31 17 31 27 24 27 24 13 27 13"/><polygon id="Shape" fill="#A4C2F7" points="34 17 34 19 28 19 28 13 30 13"/><path d="M52,18 C51.9945964,20.2068969 50.2068969,21.9945964 48,22 C47.4851917,21.9990634 46.9755679,21.8971386 46.5,21.7 C46.3286441,21.6301606 46.1616721,21.550014 46,21.46 C45.0300866,20.9028483 44.3389966,19.9637022 44.0955439,18.8719693 C43.8520913,17.7802364 44.0786943,16.636448 44.72,15.72 C45.1630014,15.0816392 45.7811694,14.585021 46.5,14.29 C46.9762146,14.0961381 47.4858433,13.9976098 48,14 C50.2060042,14.0075498 51.9924502,15.7939958 52,18 Z" id="Shape" fill="#A4C2F7"/><path d="M49,18 C49.0026782,19.4287069 48.2393657,20.7492375 47,21.46 C46.8383279,21.550014 46.6713559,21.6301606 46.5,21.7 C46.3286441,21.6301606 46.1616721,21.550014 46,21.46 C45.0300866,20.9028483 44.3389966,19.9637022 44.0955439,18.8719693 C43.8520913,17.7802364 44.0786943,16.636448 44.72,15.72 C45.1630014,15.0816392 45.7811694,14.585021 46.5,14.29 C48.0059623,14.9084776 48.9921651,16.3720026 49,18 Z" id="Shape" fill="#E3E7F2"/></g><g id="White" transform="translate(1.000000, 1.000000)" fill="#FFFFFF"><path d="M4,38 L1,38 C0.448399067,37.9983526 0.00164740056,37.5516009 0,37 L0,1 C0.00164740056,0.448399067 0.448399067,0.00164740056 1,0 L4,0 C3.44839907,0.00164740056 3.0016474,0.448399067 3,1 L3,37 C3.0016474,37.5516009 3.44839907,37.9983526 4,38 Z" id="Shape"/><path d="M42,38 L39,38 C38.4483991,37.9983526 38.0016474,37.5516009 38,37 L38,1 C38.0016474,0.448399067 38.4483991,0.00164740056 39,0 L42,0 C41.4483991,0.00164740056 41.0016474,0.448399067 41,1 L41,37 C41.0016474,37.5516009 41.4483991,37.9983526 42,38 Z" id="Shape"/><rect id="Rectangle-path" x="24" y="13" width="3" height="14"/></g><g id="Icons"><polygon id="Shape" fill="#FFFFFF" points="38 38 38 25 38 2 40 2 40 25 40 38"/><polygon id="Shape" fill="#FFFFFF" points="0 38 0 25 0 2 2 2 2 25 2 38"/><path d="M38.62012,30.92041 C38.676852,30.9491836 38.7375874,30.9692647 38.80029,30.97998 C38.8663199,30.991242 38.9330486,30.9979312 39,31 C39.264767,30.9963165 39.5183662,30.8927337 39.71,30.71 C39.9526139,30.4762761 40.0590795,30.1348448 39.9923079,29.804648 C39.9255364,29.4744512 39.6947741,29.2012132 39.38041,29.08012 C39.2600693,29.0287837 39.1308238,29.0015626 39,29 C38.595653,29.0015951 38.2317187,29.2455847 38.0766648,29.6190246 C37.9216108,29.9924644 38.0056973,30.4224744 38.29,30.71 L38.4399,30.83012 C38.4956929,30.8680937 38.5563003,30.8984579 38.62012,30.92041 Z" id="Shape" fill="#428DFF"/><path d="M0.62012,30.92041 C0.676850837,30.9491906 0.737586291,30.9692784 0.80029,30.98 C0.866320333,30.9912553 0.933049024,30.9979378 1,31 C1.26476698,30.9963165 1.51836621,30.8927337 1.71,30.71 C2.08750253,30.311966 2.08750253,29.688114 1.71,29.29008 C1.61446727,29.1997876 1.50261075,29.1285176 1.38041,29.08008 C1.26006652,29.0287574 1.1308211,29.00155 1,29 C0.735298368,29.004004 0.481811506,29.1075409 0.29,29.29 C-0.0967723902,29.684323 -0.0967723902,30.315677 0.29,30.71 L0.4399,30.83012 C0.495692866,30.8680937 0.556300322,30.8984579 0.62012,30.92041 Z" id="Shape" fill="#428DFF"/><path d="M2,40 L20,40 C21.1041125,39.9988975 21.9988975,39.1041125 22,38 L22,2 C21.9988975,0.895887477 21.1041125,0.00110245966 20,0 L2,0 C0.895887477,0.00110245966 0.00110245966,0.895887477 0,2 L0,26 C6.76353751e-17,26.5522847 0.44771525,27 1,27 C1.55228475,27 2,26.5522847 2,26 L2,12.41406 L6.4809,16.895 C5.46332826,19.023505 6.10082141,21.5747492 8,22.97443 L8,38 L2,38 L2,34 C2,33.4477153 1.55228475,33 1,33 C0.44771525,33 6.76353751e-17,33.4477153 0,34 L0,38 C0.00110245966,39.1041125 0.895887477,39.9988975 2,40 Z M14,38 L14,22.97443 C15.8991786,21.5747492 16.5366717,19.023505 15.5191,16.895 L20,12.41406 L20,38 L14,38 Z M8,19 C8,17.3431458 9.34314575,16 11,16 C12.6568542,16 14,17.3431458 14,19 C14,20.6568542 12.6568542,22 11,22 C9.34389511,21.9981923 8.00180771,20.6561049 8,19 Z M2,2 L20,2 L20,9.58594 L14.307,15.27894 C12.4320727,13.5736947 9.56792729,13.5736947 7.693,15.27894 L2,9.58594 L2,2 Z M10,23.89893 C10.6598566,24.03369 11.3401434,24.03369 12,23.89893 L12,38 L10,38 L10,23.89893 Z" id="Shape" fill="#428DFF"/><path d="M17,6 C17.5522847,6 18,5.55228475 18,5 C18,4.44771525 17.5522847,4 17,4 L5,4 C4.44771525,4 4,4.44771525 4,5 C4,5.55228475 4.44771525,6 5,6 L17,6 Z" id="Shape" fill="#428DFF"/><path d="M17.71,7.29 C17.6143548,7.1995012 17.5023265,7.12807507 17.37992,7.07955 C17.1362916,6.97994049 16.8632984,6.97994049 16.61967,7.07955 C16.3690151,7.17137686 16.1714969,7.36889515 16.07967,7.61955 C15.9735499,7.86185702 15.9735499,8.13749298 16.07967,8.3798 C16.1710971,8.6307099 16.3687601,8.82837293 16.61967,8.9198 C16.8618398,9.02657354 17.1377502,9.02657354 17.37992,8.9198 C17.502211,8.8712532 17.6142087,8.79999922 17.71,8.7098 C17.7981132,8.61240307 17.869115,8.50080185 17.92,8.37972 C18.0267735,8.13755021 18.0267735,7.86163979 17.92,7.61947 C17.8690949,7.49858251 17.7980917,7.38718524 17.71,7.29 Z" id="Shape" fill="#428DFF"/><path d="M58,0 L40,0 C38.8958875,0.00110245966 38.0011025,0.895887477 38,2 L38,26 C38,26.5522847 38.4477153,27 39,27 C39.5522847,27 40,26.5522847 40,26 L40,12.41406 L44.4809,16.89496 C43.4633059,19.0234753 44.1008012,21.5747447 46,22.97443 L46,38 L40,38 L40,34 C40,33.4477153 39.5522847,33 39,33 C38.4477153,33 38,33.4477153 38,34 L38,38 C38.0011025,39.1041125 38.8958875,39.9988975 40,40 L58,40 C59.1041125,39.9988975 59.9988975,39.1041125 60,38 L60,2 C59.9988975,0.895887477 59.1041125,0.00110245966 58,0 Z M40,2 L58,2 L58,9.58594 L52.307,15.27894 C50.4320727,13.5736947 47.5679273,13.5736947 45.693,15.27894 L40,9.58594 L40,2 Z M49,22 C47.3431458,22 46,20.6568542 46,19 C46,17.3431458 47.3431458,16 49,16 C50.6568542,16 52,17.3431458 52,19 C51.9981923,20.6561049 50.6561049,21.9981923 49,22 Z M48,38 L48,23.89893 C48.6598566,24.03369 49.3401434,24.03369 50,23.89893 L50,38 L48,38 Z M52,38 L52,22.97443 C53.8991786,21.5747492 54.5366717,19.023505 53.5191,16.895 L58,12.41406 L58,38 L52,38 Z" id="Shape" fill="#428DFF"/><path d="M55,6 C55.5522847,6 56,5.55228475 56,5 C56,4.44771525 55.5522847,4 55,4 L43,4 C42.4477153,4 42,4.44771525 42,5 C42,5.55228475 42.4477153,6 43,6 L55,6 Z" id="Shape" fill="#428DFF"/><path d="M55.71,7.29 C55.30905,6.91988169 54.69103,6.91988169 54.29008,7.29 C54.201678,7.38708125 54.1305049,7.4985469 54.07963,7.61959 C53.9735099,7.86189702 53.9735099,8.13753298 54.07963,8.37984 C54.1304642,8.5010576 54.2016084,8.61271306 54.29,8.71 C54.6843133,9.09672008 55.3156067,9.09672008 55.70992,8.71 C55.7980332,8.61260307 55.869035,8.50100185 55.91992,8.37992 C56.0266935,8.13775021 56.0266935,7.86183979 55.91992,7.61967 C55.8690591,7.49871748 55.7980822,7.38725156 55.71,7.29 Z" id="Shape" fill="#428DFF"/><path d="M24,28 C24,28.5522847 24.4477153,29 25,29 L35,29 C35.5522847,29 36,28.5522847 36,28 L36,18 C35.9984163,17.7349588 35.89315,17.4810663 35.70673,17.29266 L31.70734,13.29327 C31.5189337,13.10685 31.2650412,13.0015837 31,13 L25,13 C24.4477153,13 24,13.4477153 24,14 L24,28 Z M30,15 L30.58594,15 L34,18.41406 L34,19 L30,19 L30,15 Z M26,15 L28,15 L28,20 C28,20.5522847 28.4477153,21 29,21 L34,21 L34,27 L26,27 L26,15 Z" id="Shape" fill="#428DFF"/><path d="M24,7 C24,7.55228475 24.4477153,8 25,8 L32.58594,8 L31.29294,9.293 C31.037697,9.54506131 30.9370407,9.91453976 31.029166,10.2612339 C31.1212913,10.607928 31.3920793,10.8787045 31.7387773,10.9708151 C32.0854753,11.0629256 32.4549495,10.9622537 32.707,10.707 L35.707,7.707 C35.71616,7.69785 35.71884,7.68546 35.72757,7.67606 C35.8100724,7.59088619 35.8765453,7.49153761 35.9238,7.38278 L35.92465,7.3793 C35.92819,7.37058 35.92801,7.36124 35.93137,7.35245 C35.9687251,7.25165243 35.9893995,7.14543969 35.99258,7.03799 C35.9926649,7.00364117 35.9909157,6.96931231 35.98734,6.93515 C35.9819055,6.85130677 35.9657748,6.76850226 35.93934,6.68875 C35.9294259,6.65510137 35.9176477,6.62203028 35.90406,6.58969 C35.8569158,6.47965771 35.7901413,6.37912324 35.707,6.293 L32.707,3.293 C32.4551891,3.03658586 32.0851405,2.93503292 31.7377229,3.02699993 C31.3903052,3.11896693 31.1189669,3.39030521 31.0269999,3.73772287 C30.9350329,4.08514053 31.0365859,4.45518907 31.293,4.707 L32.58594,6 L25,6 C24.4477153,6 24,6.44771525 24,7 Z" id="Shape" fill="#428DFF"/><path d="M25,36 L32.58594,36 L31.29294,37.293 C31.037697,37.5450613 30.9370407,37.9145398 31.029166,38.2612339 C31.1212913,38.607928 31.3920793,38.8787045 31.7387773,38.9708151 C32.0854753,39.0629256 32.4549495,38.9622537 32.707,38.707 L35.707,35.707 C35.71616,35.69785 35.71884,35.68546 35.72757,35.67606 C35.8100724,35.5908862 35.8765453,35.4915376 35.9238,35.38278 L35.92465,35.3793 C35.92819,35.37058 35.92801,35.36124 35.93137,35.35245 C35.9687251,35.2516524 35.9893995,35.1454397 35.99258,35.03799 C35.9926649,35.0036412 35.9909157,34.9693123 35.98734,34.93515 C35.9819055,34.8513068 35.9657748,34.7685023 35.93934,34.68875 C35.9294259,34.6551014 35.9176477,34.6220303 35.90406,34.58969 C35.8569158,34.4796577 35.7901413,34.3791232 35.707,34.293 L32.707,31.293 C32.4551891,31.0365859 32.0851405,30.9350329 31.7377229,31.0269999 C31.3903052,31.1189669 31.1189669,31.3903052 31.0269999,31.7377229 C30.9350329,32.0851405 31.0365859,32.4551891 31.293,32.707 L32.58594,34 L25,34 C24.4477153,34 24,34.4477153 24,35 C24,35.5522847 24.4477153,36 25,36 Z" id="Shape" fill="#428DFF"/></g></g></g></svg>
