<?xml version="1.0" encoding="UTF-8"?>
<svg xmlns="http://www.w3.org/2000/svg" xmlns:xlink="http://www.w3.org/1999/xlink" width="512" height="512" viewBox="0 0 60 53" version="1.1"><!-- Generator: Sketch 49.3 (51167) - http://www.bohemiancoding.com/sketch --><title>011 - Site Generator</title><desc>Created with Sketch.</desc><defs/><g id="Page-1" stroke="none" stroke-width="1" fill="none" fill-rule="evenodd"><g id="011---Site-Generator" fill-rule="nonzero"><g id="Colours" transform="translate(0.000000, 1.000000)"><path d="M59,49.9999997 L51,49.9999997 L51,45.9999997 L52,45.9999997 C52.5516009,45.9983523 52.9983526,45.5516007 53,44.9999997 L53,9.99999994 L57,9.99999994 L59,-1.74397948e-15 L52,-1.74397948e-15 C49.8780875,-0.000589075939 47.842914,0.842076472 46.3424952,2.34249521 C44.8420765,3.84291394 43.9994109,5.87808751 44,7.99999995 L44,13.9999999 L32,13.9999999 L32,10.9999999 C31.9973806,7.68737705 29.3126229,5.00261935 26,4.99999997 L24,4.99999997 L24,3.99999998 L12,3.99999998 L12,4.99999997 L1,4.99999997 L1,8.99999995 L4,8.99999995 L4,13.9999999 L2,13.9999999 C1.44839907,14.0016473 1.0016474,14.448399 1,14.9999999 L1,44.9999997 C1.0016474,45.5516007 1.44839907,45.9983523 2,45.9999997 L3,45.9999997 L3,49.9999997 L1,49.9999997 C0.44771525,49.9999997 6.76353751e-17,50.447715 0,50.9999997 C-6.76353751e-17,51.5522844 0.44771525,51.9999997 1,51.9999997 L59,51.9999997 C59.5522847,51.9999997 60,51.5522844 60,50.9999997 C60,50.447715 59.5522847,49.9999997 59,49.9999997 Z M24,14 L6,14 L6,9 L12,9 L12,10 L24,10 L24,14 Z" id="Shape" fill="#A4C2F7"/><path d="M56,49.9999997 L48,49.9999997 L48,45.9999997 L49,45.9999997 C49.5516009,45.9983523 49.9983526,45.5516007 50,44.9999997 L50,9.99999994 L54,9.99999994 L56,-1.74397948e-15 L52,-1.74397948e-15 C49.8780875,-0.000589075939 47.842914,0.842076472 46.3424952,2.34249521 C44.8420765,3.84291394 43.9994109,5.87808751 44,7.99999995 L44,13.9999999 L29,13.9999999 L29,10.9999999 C28.9973806,7.68737705 26.3126229,5.00261935 23,4.99999997 L21,4.99999997 L21,3.99999998 L9,3.99999998 L9,4.99999997 L1,4.99999997 L1,8.99999995 L9,8.99999995 L9,9.99999994 L24,9.99999994 L24,13.9999999 L2,13.9999999 C1.44839907,14.0016473 1.0016474,14.448399 1,14.9999999 L1,44.9999997 C1.0016474,45.5516007 1.44839907,45.9983523 2,45.9999997 L3,45.9999997 L3,49.9999997 L1,49.9999997 C0.44771525,49.9999997 6.76353751e-17,50.447715 0,50.9999997 C-6.76353751e-17,51.5522844 0.44771525,51.9999997 1,51.9999997 L56,51.9999997 C56.5522847,51.9999997 57,51.5522844 57,50.9999997 C57,50.447715 56.5522847,49.9999997 56,49.9999997 Z" id="Shape" fill="#E3E7F2"/><rect id="Rectangle-path" fill="#E3E7F2" x="3" y="46" width="48" height="5"/><rect id="Rectangle-path" fill="#A4C2F7" x="8" y="20" width="20" height="20" rx="1"/><path d="M8,22 L8,26 L6,26 C5.44839907,25.9983526 5.0016474,25.5516009 5,25 L5,23 C5.0016474,22.4483991 5.44839907,22.0016474 6,22 L8,22 Z" id="Shape" fill="#A4C2F7"/><path d="M8,34 L8,38 L6,38 C5.44839907,37.9983526 5.0016474,37.5516009 5,37 L5,35 C5.0016474,34.4483991 5.44839907,34.0016474 6,34 L8,34 Z" id="Shape" fill="#A4C2F7"/><path d="M16,34 L12,34 C11.4477153,34 11,33.5522847 11,33 C11,32.4477153 11.4477153,32 12,32 L16,32 C16.5522847,32 17,32.4477153 17,33 C17,33.5522847 16.5522847,34 16,34 Z" id="Shape" fill="#7F8C8D"/><path d="M16,37 L12,37 C11.4477153,37 11,36.5522847 11,36 C11,35.4477153 11.4477153,35 12,35 L16,35 C16.5522847,35 17,35.4477153 17,36 C17,36.5522847 16.5522847,37 16,37 Z" id="Shape" fill="#7F8C8D"/><path d="M24,32 C23.4477153,32 23,31.5522847 23,31 L23,29 C23,28.4477153 23.4477153,28 24,28 C24.5522847,28 25,28.4477153 25,29 L25,31 C25,31.5522847 24.5522847,32 24,32 Z" id="Shape" fill="#7F8C8D"/><rect id="Rectangle-path" fill="#A4C2F7" x="32" y="18" width="17" height="10" rx="1"/><rect id="Rectangle-path" fill="#A4C2F7" x="32" y="32" width="17" height="10" rx="1"/><path d="M25,21 L25,39 C25.0364122,39.5092357 24.65845,39.9538971 24.15,40 L8.85,40 C8.34154999,39.9538971 7.96358781,39.5092357 8,39 L8,21 C7.96358781,20.4907643 8.34154999,20.0461029 8.85,20 L24.15,20 C24.65845,20.0461029 25.0364122,20.4907643 25,21 Z" id="Shape" fill="#E3E7F2"/><path d="M46,19 L46,27 C46.0423153,27.5015743 45.6768508,27.9453523 45.17647,28 L32.82353,28 C32.3231492,27.9453523 31.9576847,27.5015743 32,27 L32,19 C31.9576847,18.4984257 32.3231492,18.0546477 32.82353,18 L45.17647,18 C45.6768508,18.0546477 46.0423153,18.4984257 46,19 Z" id="Shape" fill="#E3E7F2"/><path d="M46,33 L46,41 C46.0423153,41.5015743 45.6768508,41.9453523 45.17647,42 L32.82353,42 C32.3231492,41.9453523 31.9576847,41.5015743 32,41 L32,33 C31.9576847,32.4984257 32.3231492,32.0546477 32.82353,32 L45.17647,32 C45.6768508,32.0546477 46.0423153,32.4984257 46,33 Z" id="Shape" fill="#E3E7F2"/><rect id="Rectangle-path" fill="#E3E7F2" x="1" y="5" width="11" height="4"/><rect id="Rectangle-path" fill="#A4C2F7" x="12" y="4" width="12" height="6"/><path d="M32,11 L32,14 L24,14 L24,5 L26,5 C29.3126229,5.00261938 31.9973806,7.68737709 32,11 Z" id="Shape" fill="#A4C2F7"/><path d="M29,11 L29.0000006,14 L24,14 L24,5.09 C26.8868356,5.57366692 29.0012695,8.07292777 29,11 Z" id="Shape" fill="#E3E7F2"/><path d="M5,15 C4.44771525,15 4,14.5522847 4,14 L4,9 C4,8.44771525 4.44771525,8 5,8 C5.55228475,8 6,8.44771525 6,9 L6,14 C6,14.5522847 5.55228475,15 5,15 Z" id="Shape" fill="#7F8C8D"/><path d="M53,-8.8817842e-16 L53,10 L44,10 L44,8 C44.0002264,4.35121825 46.4675992,1.1641951 50,0.25 C50.6539193,0.0851105413 51.3256131,0.00114882524 52,-8.8817842e-16 L53,-8.8817842e-16 Z" id="Shape" fill="#A4C2F7"/><rect id="Rectangle-path" fill="#E3E7F2" x="12" y="4" width="9" height="6"/><path d="M50,0.25 L50,10 L44,10 L44,8 C44.0002264,4.35121825 46.4675992,1.1641951 50,0.25 Z" id="Shape" fill="#E3E7F2"/><polygon id="Shape" fill="#A4C2F7" points="59 0 57 10 53 10 53 0"/><rect id="Rectangle-path" fill="#E3E7F2" x="44" y="10" width="9" height="4"/></g><g id="White" transform="translate(1.000000, 1.000000)" fill="#FFFFFF"><path d="M51,8.73973677e-16 C50.6857011,-0.000278543608 50.3717129,0.0197632553 50.06,0.06 C49.97,0.07 49.88,0.09 49.79,0.1 C49.58,0.13 49.38,0.17 49.17,0.22 C49.12,0.23 49.06,0.24 49,0.25 C48.9119867,0.272075391 48.8251994,0.298779176 48.74,0.33 L48.53,0.39 C48.36,0.45 48.19,0.51 48.02,0.57995 C47.96,0.59995 47.9,0.62995 47.84,0.64995 C47.6309152,0.737839396 47.4272097,0.838014188 47.22995,0.94995 C47.20995,0.94995 47.19995,0.9599 47.17995,0.96995 C46.96995,1.07995 46.75995,1.20995 46.55995,1.33995 C46.49995,1.37995 46.44995,1.42995 46.38995,1.46995 C46.250171,1.5610542 46.1165481,1.66127137 45.98995,1.76995 C45.91995,1.81995 45.84995,1.87995 45.77995,1.93995 L45.44995,2.23995 C45.37995,2.30995 45.31995,2.37995 45.24995,2.43995 C45.14995,2.54995 45.04995,2.65995 44.94995,2.77995 C44.88995,2.83995 44.82995,2.90995 44.76995,2.97995 C44.66995,3.10995 44.56995,3.24995 44.46995,3.38995 C44.42995,3.43995 44.38995,3.49995 44.34995,3.55995 C44.21995,3.74995 44.08995,3.95995 43.97995,4.15995 C43.94995,4.21995 43.92995,4.26995 43.89995,4.31995 C43.81995,4.47995 43.73995,4.64995 43.65995,4.80995 C43.62995,4.88995 43.59995,4.97995 43.56995,5.05995 C43.50995,5.19995 43.44995,5.34995 43.39995,5.49995 C43.36995,5.58995 43.34995,5.67995 43.31995,5.76995 C43.27995,5.91995 43.23995,6.07 43.20995,6.21995 C43.1804389,6.3075696 43.1603259,6.39807815 43.14995,6.48995 C43.1135363,6.65827725 43.0868256,6.82855794 43.06995,6.99995 L43.03995,7.23995 C43.0114365,7.49227234 42.9980958,7.74607884 43,8 L43,14 L46,14 L46,8 C45.9981144,7.74609451 46.0114718,7.49230476 46.04,7.24 L46.07,7 C46.0868756,6.82860794 46.1135863,6.65832725 46.15,6.49 C46.1603759,6.39812815 46.1804889,6.3076196 46.21,6.22 C46.24,6.07 46.28,5.92 46.32,5.77 C46.35,5.68 46.37,5.59 46.4,5.5 C46.45,5.35 46.51,5.2 46.57,5.06 C46.6,4.98 46.63,4.89 46.66,4.81 C46.74,4.65 46.82,4.48 46.9,4.32 C46.93,4.26995 46.95,4.22 46.98,4.16 C47.09005,3.96 47.22,3.75 47.35,3.56 C47.39,3.5 47.43,3.44 47.47,3.39 C47.57,3.25 47.67,3.11 47.77,2.98 C47.83,2.91 47.89,2.84 47.95,2.78 C48.05,2.66 48.15,2.55 48.25,2.44 C48.32,2.38 48.38,2.31 48.45,2.24 L48.78,1.94 C48.85,1.88 48.92,1.82 48.99,1.77 C49.1165981,1.66132137 49.250221,1.5611042 49.39,1.47 C49.45,1.43 49.5,1.38 49.56,1.34 C49.76,1.21 49.97,1.08 50.18,0.97 C50.2,0.96 50.21,0.95 50.23,0.95 C50.4272597,0.838064188 50.6309652,0.737889396 50.84005,0.65 C50.90005,0.63 50.96005,0.6 51.02005,0.58 C51.19005,0.51005 51.36005,0.45005 51.53005,0.39005 L51.74,0.33 C51.8251994,0.298779176 51.9119867,0.272075391 52,0.25 C52.06,0.24 52.12,0.23 52.17,0.22 C52.38,0.17 52.58,0.13 52.79,0.1 C52.88,0.09 52.97,0.07 53.06,0.06 C53.3717129,0.0197632553 53.6857011,-0.000278543608 54,-2.86366859e-06 L51,8.73973677e-16 Z M0,5 L0,9 L3,9 L3,5 L0,5 Z M3,50 L5,50 L5,46 L4,46 C3.44838544,45.9983854 3.00161464,45.5516146 3,45 L3,15 C3.00161464,14.4483854 3.44838544,14.0016146 4,14 L5,14 L5,9 L3,9 L3,14 L1,14 C0.448385439,14.0016146 0.00161463667,14.4483854 0,15 L0,45 C0.00161463667,45.5516146 0.448385439,45.9983854 1,46 L2,46 L2,50 L3,50 Z" id="Shape"/></g><g id="Icons"><polygon id="Shape" fill="#FFFFFF" points="2 16 2 29 2 46 0 46 0 29 0 16"/><path d="M1,25 C1.26470163,24.995996 1.51818849,24.8924591 1.71,24.71 C2.09672008,24.3156867 2.09672008,23.6843933 1.71,23.29008 L1.5601,23.16996 C1.50432178,23.1319755 1.44372787,23.1015979 1.37992,23.07963 C1.3231789,23.0508318 1.26242959,23.0307304 1.19971,23.02 C1.13367967,23.0087447 1.06695098,23.0020622 1,23 C0.735233018,23.0036835 0.481633787,23.1072663 0.29,23.29 C-0.0875531162,23.6880448 -0.0875531162,24.3119552 0.29,24.71 C0.385532731,24.8002924 0.497389252,24.8715624 0.61959,24.92 C0.739939045,24.9712951 0.869184251,24.9984753 1,25 Z" id="Shape" fill="#428DFF"/><path d="M6,34 C4.89588748,34.0011025 4.00110246,34.8958875 4,36 L4,38 C4.00110246,39.1041125 4.89588748,39.9988975 6,40 L7,40 C7.00110246,41.1041125 7.89588748,41.9988975 9,42 L27,42 C28.1041125,41.9988975 28.9988975,41.1041125 29,40 L29,22 C28.9988975,20.8958875 28.1041125,20.0011025 27,20 L9,20 C7.89588748,20.0011025 7.00110246,20.8958875 7,22 L6,22 C4.89588748,22.0011025 4.00110246,22.8958875 4,24 L4,26 C4.00110246,27.1041125 4.89588748,27.9988975 6,28 L7,28 L7,34 L6,34 Z M6,38 L6,36 L7,36 L7,38 L6,38 Z M9,22 L27,22 L27.00146,40 L9,40 L9,22 Z M6,26 L6,24 L7,24 L7,26 L6,26 Z" id="Shape" fill="#428DFF"/><path d="M12,35 L16,35 C16.5522847,35 17,34.5522847 17,34 C17,33.4477153 16.5522847,33 16,33 L12,33 C11.4477153,33 11,33.4477153 11,34 C11,34.5522847 11.4477153,35 12,35 Z" id="Shape" fill="#428DFF"/><path d="M12,38 L16,38 C16.5522847,38 17,37.5522847 17,37 C17,36.4477153 16.5522847,36 16,36 L12,36 C11.4477153,36 11,36.4477153 11,37 C11,37.5522847 11.4477153,38 12,38 Z" id="Shape" fill="#428DFF"/><path d="M24,33 C24.5522847,33 25,32.5522847 25,32 L25,30 C25,29.4477153 24.5522847,29 24,29 C23.4477153,29 23,29.4477153 23,30 L23,32 C23,32.5522847 23.4477153,33 24,33 Z" id="Shape" fill="#428DFF"/><path d="M33,30 L48,30 C49.1041125,29.9988975 49.9988975,29.1041125 50,28 L50,20 C49.9988975,18.8958875 49.1041125,18.0011025 48,18 L33,18 C31.8958875,18.0011025 31.0011025,18.8958875 31,20 L31,28 C31.0011025,29.1041125 31.8958875,29.9988975 33,30 Z M33,20 L48,20 L48.00146,28 L33,28 L33,20 Z" id="Shape" fill="#428DFF"/><path d="M31,42 C31.0011025,43.1041125 31.8958875,43.9988975 33,44 L48,44 C49.1041125,43.9988975 49.9988975,43.1041125 50,42 L50,34 C49.9988975,32.8958875 49.1041125,32.0011025 48,32 L33,32 C31.8958875,32.0011025 31.0011025,32.8958875 31,34 L31,42 Z M33,34 L48,34 L48.00146,42 L33,42 L33,34 Z" id="Shape" fill="#428DFF"/><path d="M42,36 L39,36 C38.4477153,36 38,36.4477153 38,37 C38,37.5522847 38.4477153,38 39,38 L42,38 C42.5522847,38 43,37.5522847 43,37 C43,36.4477153 42.5522847,36 42,36 Z" id="Shape" fill="#428DFF"/><path d="M59,51 L52,51 L52,48 C53.1041125,47.9988975 53.9988975,47.1041125 54,46 L54,12 L57,12 C57.4766166,12.0000498 57.8869992,11.6636513 57.98047,11.19629 L59.98047,1.19629 C60.0392806,0.902507761 59.9632672,0.597834785 59.7733465,0.366109002 C59.5834259,0.134383218 59.2996109,2.27363064e-05 59,0 L52,0 C47.0318291,0.0057695768 43.0057696,4.03182905 43,9 L43,14 L33,14 L33,12 C32.9956629,8.13580468 29.8641953,5.00433715 26,5 L25,5 C25,4.44771525 24.5522847,4 24,4 L12,4 C11.4477153,4 11,4.44771525 11,5 L1,5 C0.44771525,5 6.76353751e-17,5.44771525 0,6 L0,10 C6.76353751e-17,10.5522847 0.44771525,11 1,11 L4,11 L4,14 L2,14 C0.895887477,14.0011025 0.00110245966,14.8958875 0,16 L0,20 C6.76353751e-17,20.5522847 0.44771525,21 1,21 C1.55228475,21 2,20.5522847 2,20 L2,16 L52,16 L52,46 L2,46 L2,28 C2,27.4477153 1.55228475,27 1,27 C0.44771525,27 6.76353751e-17,27.4477153 0,28 L0,46 C0.00110245966,47.1041125 0.895887477,47.9988975 2,48 L2,51 L1,51 C0.44771525,51 6.76353751e-17,51.4477153 0,52 C-6.76353751e-17,52.5522847 0.44771525,53 1,53 L59,53 C59.5522847,53 60,52.5522847 60,52 C60,51.4477153 59.5522847,51 59,51 Z M56.18018,10 L54,10 L54,2 L57.78027,2 L56.18018,10 Z M45,9 C45.0043371,5.13580468 48.1358047,2.00433715 52,2 L52,10 L45,10 L45,9 Z M23,6 L23,10 L13,10 L13,6 L23,6 Z M2,7 L11,7 L11,9 L2,9 L2,7 Z M6,11 L11,11 C11,11.5522847 11.4477153,12 12,12 L23,12 L23,14 L6,14 L6,11 Z M25,14 L25,7 L26,7 C28.7600805,7.00324014 30.9967599,9.23991948 31,12 L31,14 L25,14 Z M45,14 L45,12 L52,12 L52,14 L45,14 Z M4,51 L4,48 L50,48 L50,51 L4,51 Z" id="Shape" fill="#428DFF"/></g></g></g></svg>
