<?xml version="1.0" encoding="UTF-8"?>
<svg xmlns="http://www.w3.org/2000/svg" xmlns:xlink="http://www.w3.org/1999/xlink" width="512" height="512" viewBox="0 0 60 56" version="1.1"><!-- Generator: Sketch 49.3 (51167) - http://www.bohemiancoding.com/sketch --><title>010 - Tape safe</title><desc>Created with Sketch.</desc><defs><linearGradient x1="-53.2894737%" y1="19.4711538%" x2="109.868421%" y2="79.0865385%" id="linearGradient-1"><stop stop-color="#D4E1F4" offset="0%"/><stop stop-color="#D4E1F4" offset="17.173%"/><stop stop-color="#D4E1F4" offset="20%"/><stop stop-color="#DAE4F4" offset="20.014%"/><stop stop-color="#EBEBF4" offset="20.069%"/><stop stop-color="#F6F1F4" offset="20.136%"/><stop stop-color="#FDF4F4" offset="20.231%"/><stop stop-color="#FFF5F4" offset="20.495%"/><stop stop-color="#FFF5F4" offset="25.222%"/><stop stop-color="#FFF5F4" offset="26%"/><stop stop-color="#D4E1F4" offset="26%"/><stop stop-color="#D4E1F4" offset="39.739%"/><stop stop-color="#D4E1F4" offset="42%"/><stop stop-color="#DAE4F4" offset="42.014%"/><stop stop-color="#EBEBF4" offset="42.069%"/><stop stop-color="#F6F1F4" offset="42.136%"/><stop stop-color="#FDF4F4" offset="42.231%"/><stop stop-color="#FFF5F4" offset="42.495%"/><stop stop-color="#FFF5F4" offset="48.939%"/><stop stop-color="#FFF5F4" offset="50%"/><stop stop-color="#F9F2F4" offset="50.003%"/><stop stop-color="#E8EBF4" offset="50.014%"/><stop stop-color="#DDE5F4" offset="50.028%"/><stop stop-color="#D6E2F4" offset="50.047%"/><stop stop-color="#D4E1F4" offset="50.1%"/><stop stop-color="#D4E1F4" offset="70.622%"/><stop stop-color="#D4E1F4" offset="74%"/><stop stop-color="#FFF5F4" offset="74.1%"/><stop stop-color="#FFF5F4" offset="83.459%"/><stop stop-color="#FFF5F4" offset="85%"/><stop stop-color="#D4E1F4" offset="85.1%"/></linearGradient></defs><g id="Page-1" stroke="none" stroke-width="1" fill="none" fill-rule="evenodd"><g id="010---Tape-safe" fill-rule="nonzero"><g id="Colours" transform="translate(1.000000, 1.000000)"><path d="M12,48 L12,52 C11.9967543,53.1032223 11.1032223,53.9967543 10,54 L6,54 C4.89677769,53.9967543 4.00324566,53.1032223 4,52 L4,48 L12,48 Z" id="Shape" fill="#A4C2F7"/><path d="M38,45 L38,49 L2,49 C0.882726379,48.9836244 -0.0112121899,48.0673374 2.42996812e-16,46.95 L2.42996812e-16,7.05 C-0.0112341981,5.9326538 0.88271701,5.01635382 2,5 L38,5 L38,45 Z" id="Shape" fill="#E3E7F2"/><rect id="Rectangle-path" fill="#E3E7F2" x="24" y="29" width="12" height="16"/><rect id="Rectangle-path" fill="#E3E7F2" x="29" y="9" width="7" height="16"/><rect id="Rectangle-path" fill="#E3E7F2" x="4" y="9" width="5" height="16"/><polygon id="Shape" fill="#A4C2F7" points="58 9 58 45 40 54 36 54 36 0 40 0"/><polygon id="Shape" fill="url(#linearGradient-1)" points="55 7.5 55 43 37 52 36 52 36 0 40 0"/><rect id="Rectangle-path" fill="#A4C2F7" x="36" y="0" width="4" height="54"/><rect id="Rectangle-path" fill="#A4C2F7" x="4" y="25" width="32" height="4"/><path d="M54,27 C54,31.97 51.99,36 49.5,36 C48.9573967,35.9907458 48.4319052,35.8085754 48,35.48 C46.25,34.25 45,30.92 45,27 C45,23.08 46.25,19.75 48,18.52 C48.4319162,18.1914451 48.9574008,18.0092771 49.5,18 C51.99,18 54,22.03 54,27 Z" id="Shape" fill="#A4C2F7"/><ellipse id="Oval" fill="#E3E7F2" cx="48" cy="26.99998" rx="3" ry="8.48"/><path d="M13,13 L13,19 C12.99201,17.8987571 12.1012429,17.00799 11,17 C9.89676861,17.0032238 9.00322381,17.8967686 9,19 L9,13 L13,13 Z" id="Shape" fill="#E3E7F2"/><rect id="Rectangle-path" fill="#E3E7F2" x="9" y="9" width="4" height="4"/><path d="M13,19 L13,25 L9,25 L9,19 C9.00322381,17.8967686 9.89676861,17.0032238 11,17 C12.1012429,17.00799 12.99201,17.8987571 13,19 Z" id="Shape" fill="#A4C2F7"/><path d="M17,13 L17,19 C16.99201,17.8987571 16.1012429,17.00799 15,17 C13.8967686,17.0032238 13.0032238,17.8967686 13,19 L13,13 L17,13 Z" id="Shape" fill="#E3E7F2"/><rect id="Rectangle-path" fill="#E3E7F2" x="13" y="9" width="4" height="4"/><path d="M17,19 L17,25 L13,25 L13,19 C13.0032238,17.8967686 13.8967686,17.0032238 15,17 C16.1012429,17.00799 16.99201,17.8987571 17,19 Z" id="Shape" fill="#A4C2F7"/><path d="M21,13 L21,19 C20.99201,17.8987571 20.1012429,17.00799 19,17 C17.8967686,17.0032238 17.0032238,17.8967686 17,19 L17,13 L21,13 Z" id="Shape" fill="#E3E7F2"/><rect id="Rectangle-path" fill="#E3E7F2" x="17" y="9" width="4" height="4"/><path d="M21,19 L21,25 L17,25 L17,19 C17.0032238,17.8967686 17.8967686,17.0032238 19,17 C20.1012429,17.00799 20.99201,17.8987571 21,19 Z" id="Shape" fill="#A4C2F7"/><path d="M25,13 L25,19 C24.99201,17.8987571 24.1012429,17.00799 23,17 C21.8967686,17.0032238 21.0032238,17.8967686 21,19 L21,13 L25,13 Z" id="Shape" fill="#E3E7F2"/><rect id="Rectangle-path" fill="#E3E7F2" x="21" y="9" width="4" height="4"/><path d="M25,19 L25,25 L21,25 L21,19 C21.0032238,17.8967686 21.8967686,17.0032238 23,17 C24.1012429,17.00799 24.99201,17.8987571 25,19 Z" id="Shape" fill="#A4C2F7"/><path d="M29,13 L29,19 C28.99201,17.8987571 28.1012429,17.00799 27,17 C25.8967686,17.0032238 25.0032238,17.8967686 25,19 L25,13 L29,13 Z" id="Shape" fill="#E3E7F2"/><rect id="Rectangle-path" fill="#E3E7F2" x="25" y="9" width="4" height="4"/><path d="M8,29 L8,39 C7.99200998,37.8987571 7.10124294,37.00799 6,37 C4.89676861,37.0032238 4.00322381,37.8967686 4,39 L4,29 L8,29 Z" id="Shape" fill="#E3E7F2"/><path d="M8,39 L8,45 L4,45 L4,39 C4.00322381,37.8967686 4.89676861,37.0032238 6,37 C7.10124294,37.00799 7.99200998,37.8987571 8,39 Z" id="Shape" fill="#A4C2F7"/><path d="M12,29 L12,39 C11.99201,37.8987571 11.1012429,37.00799 10,37 C8.89676861,37.0032238 8.00322381,37.8967686 8,39 L8,29 L12,29 Z" id="Shape" fill="#E3E7F2"/><path d="M12,39 L12,45 L8,45 L8,39 C8.00322381,37.8967686 8.89676861,37.0032238 10,37 C11.1012429,37.00799 11.99201,37.8987571 12,39 Z" id="Shape" fill="#A4C2F7"/><path d="M16,29 L16,39 C15.99201,37.8987571 15.1012429,37.00799 14,37 C12.8967686,37.0032238 12.0032238,37.8967686 12,39 L12,29 L16,29 Z" id="Shape" fill="#E3E7F2"/><path d="M16,39 L16,45 L12,45 L12,39 C12.0032238,37.8967686 12.8967686,37.0032238 14,37 C15.1012429,37.00799 15.99201,37.8987571 16,39 Z" id="Shape" fill="#A4C2F7"/><path d="M20,29 L20,39 C19.99201,37.8987571 19.1012429,37.00799 18,37 C16.8967686,37.0032238 16.0032238,37.8967686 16,39 L16,29 L20,29 Z" id="Shape" fill="#E3E7F2"/><path d="M20,39 L20,45 L16,45 L16,39 C16.0032238,37.8967686 16.8967686,37.0032238 18,37 C19.1012429,37.00799 19.99201,37.8987571 20,39 Z" id="Shape" fill="#A4C2F7"/><path d="M24,29 L24,39 C23.99201,37.8987571 23.1012429,37.00799 22,37 C20.8967686,37.0032238 20.0032238,37.8967686 20,39 L20,29 L24,29 Z" id="Shape" fill="#E3E7F2"/><path d="M24,39 L24,45 L20,45 L20,39 C20.0032238,37.8967686 20.8967686,37.0032238 22,37 C23.1012429,37.00799 23.99201,37.8987571 24,39 Z" id="Shape" fill="#A4C2F7"/><path d="M29,19 L29,25 L25,25 L25,19 C25.0032238,17.8967686 25.8967686,17.0032238 27,17 C28.1012429,17.00799 28.99201,17.8987571 29,19 Z" id="Shape" fill="#A4C2F7"/></g><g id="White" transform="translate(1.000000, 6.000000)" fill="#FFFFFF"><path d="M9,49 L6,49 C4.89677769,48.9967543 4.00324566,48.1032223 4,47 L4,44 L2,44 C0.882726379,43.9836244 -0.0112121899,43.0673374 2.42996812e-16,41.95 L2.42996812e-16,2.05 C-0.0112341981,0.932653804 0.88271701,0.0163538165 2,-8.8817842e-16 L5,-8.8817842e-16 C3.88271701,0.0163538165 2.9887658,0.932653804 3,2.05 L3,41.95 C2.98878781,43.0673374 3.88272638,43.9836244 5,44 L7,44 L7,47 C7.00324566,48.1032223 7.89677769,48.9967543 9,49 Z" id="Shape"/></g><g id="Icons"><polygon id="Shape" fill="#FFFFFF" points="2 8.047 2 21.047 2 47.953 0 47.953 0 21.047 0 8.047"/><path d="M1,17.04651 C1.26470163,17.042506 1.51818849,16.9389691 1.71,16.75651 C2.09672008,16.3621967 2.09672008,15.7309033 1.71,15.33659 L1.5601,15.21647 C1.50432178,15.1784855 1.44372787,15.1481079 1.37992,15.12614 C1.32318985,15.097362 1.26245377,15.0772807 1.19975,15.06657 C1.13370854,15.0552879 1.06696607,15.0485852 1,15.04651 C0.735233018,15.0501935 0.481633787,15.1537763 0.29,15.33651 C-0.0875025312,15.734544 -0.0875025312,16.358396 0.29,16.75643 C0.385532731,16.8467224 0.497389252,16.9179924 0.61959,16.96643 C0.73993348,17.0177526 0.869178897,17.04496 1,17.04651 Z" id="Shape" fill="#428DFF"/><path d="M59.44727,9.10547 L41.44727,0.10547 C41.43872,0.1012 41.42822,0.103 41.41968,0.09894 C41.2888141,0.0353599974 41.1454849,0.00156998751 41,1.09322552e-16 L37,1.09322552e-16 C36.7347624,-6.89886937e-05 36.4803684,0.105265697 36.292817,0.292817033 C36.1052657,0.480368368 35.999931,0.734762367 36,1 L36,5 L3,5 C1.33117447,5.01479088 -0.0108169683,6.37753398 1.35525272e-20,8.04639 L1.35525272e-20,8.04651 L1.35525272e-20,12.04651 C6.76542156e-17,12.5987947 0.44771525,13.04651 1,13.04651 C1.55228475,13.04651 2,12.5987947 2,12.04651 L2,8.04651 L2,8.04639 C1.98794144,7.48158687 2.43523063,7.01354793 3,7 L36,7 L36,9 L5,9 C4.73476237,8.99993101 4.48036837,9.1052657 4.29281703,9.29281703 C4.1052657,9.48036837 3.99993101,9.73476237 4,10 L4,46 C3.99993101,46.2652376 4.1052657,46.5196316 4.29281703,46.707183 C4.48036837,46.8947343 4.73476237,47.000069 5,47 L36,47 L36,49 L3,49 C2.43523063,48.9864521 1.98794144,48.5184131 2,47.95361 L2,47.95349 L2,20.04649 C2,19.4942053 1.55228475,19.04649 1,19.04649 C0.44771525,19.04649 6.76542156e-17,19.4942053 1.35525272e-20,20.04649 L1.35525272e-20,47.95349 L1.35525272e-20,47.95361 C-0.0108169683,49.622466 1.33117447,50.9852091 3,51 L4,51 L4,53 C4.00180771,54.6561049 5.34389511,55.9981923 7,56 L11,56 C12.6561049,55.9981923 13.9981923,54.6561049 14,53 L14,51 L36,51 L36,55 C35.999931,55.2652376 36.1052657,55.5196316 36.292817,55.707183 C36.4803684,55.8947343 36.7347624,56.000069 37,56 L41,56 C41.1454849,55.99843 41.2888141,55.96464 41.41968,55.90106 C41.42822,55.89706 41.43868,55.8988 41.44727,55.89453 L59.44727,46.89453 C59.7860899,46.7251326 60.0000848,46.3788065 60,46 L60,10 C60.0000848,9.62119349 59.7860899,9.27486737 59.44727,9.10547 Z M12,53 C11.9994488,53.5520563 11.5520563,53.9994488 11,54 L7,54 C6.44794374,53.9994488 6.00055123,53.5520563 6,53 L6,51 L12,51 L12,53 Z M24,37.18427 C23.3559704,36.9385762 22.6440296,36.9385762 22,37.18427 L22,31 L24,31 L24,37.18427 Z M6,31 L8,31 L8,37.18427 C7.35597037,36.9385762 6.64402963,36.9385762 6,37.18427 L6,31 Z M10,31 L12,31 L12,37.18427 C11.3559704,36.9385762 10.6440296,36.9385762 10,37.18427 L10,31 Z M14,31 L16,31 L16,37.18427 C15.3559704,36.9385762 14.6440296,36.9385762 14,37.18427 L14,31 Z M18,31 L20,31 L20,37.18427 C19.3559704,36.9385762 18.6440296,36.9385762 18,37.18427 L18,31 Z M25,29 L6,29 L6,27 L36,27 L36,29 L25,29 Z M23,25 L23,20 C23,19.4477153 23.4477153,19 24,19 C24.5522847,19 25,19.4477153 25,20 L25,25 L23,25 Z M19,25 L19,20 C19,19.4477153 19.4477153,19 20,19 C20.5522847,19 21,19.4477153 21,20 L21,25 L19,25 Z M15,25 L15,20 C15,19.4477153 15.4477153,19 16,19 C16.5522847,19 17,19.4477153 17,20 L17,25 L15,25 Z M27,20 C27,19.4477153 27.4477153,19 28,19 C28.5522847,19 29,19.4477153 29,20 L29,25 L27,25 L27,20 Z M29,17.18427 C28.3559704,16.9385762 27.6440296,16.9385762 27,17.18427 L27,15 L29,15 L29,17.18427 Z M25,17.18427 C24.3559704,16.9385762 23.6440296,16.9385762 23,17.18427 L23,15 L25,15 L25,17.18427 Z M21,17.18427 C20.3559704,16.9385762 19.6440296,16.9385762 19,17.18427 L19,15 L21,15 L21,17.18427 Z M17,17.18427 C16.3559704,16.9385762 15.6440296,16.9385762 15,17.18427 L15,15 L17,15 L17,17.18427 Z M13,17.18427 C12.3559704,16.9385762 11.6440296,16.9385762 11,17.18427 L11,15 L13,15 L13,17.18427 Z M11,20 C11,19.4477153 11.4477153,19 12,19 C12.5522847,19 13,19.4477153 13,20 L13,25 L11,25 L11,20 Z M36,25 L31,25 L31,11 L36,11 L36,25 Z M29,13 L27,13 L27,11 L29,11 L29,13 Z M25,13 L23,13 L23,11 L25,11 L25,13 Z M21,13 L19,13 L19,11 L21,11 L21,13 Z M17,13 L15,13 L15,11 L17,11 L17,13 Z M13,11 L13,13 L11,13 L11,11 L13,11 Z M9,11 L9,25 L6,25 L6,11 L9,11 Z M6,40 C6,39.4477153 6.44771525,39 7,39 C7.55228475,39 8,39.4477153 8,40 L8,45 L6,45 L6,40 Z M10,40 C10,39.4477153 10.4477153,39 11,39 C11.5522847,39 12,39.4477153 12,40 L12,45 L10,45 L10,40 Z M14,40 C14,39.4477153 14.4477153,39 15,39 C15.5522847,39 16,39.4477153 16,40 L16,45 L14,45 L14,40 Z M18,40 C18,39.4477153 18.4477153,39 19,39 C19.5522847,39 20,39.4477153 20,40 L20,45 L18,45 L18,40 Z M22,45 L22,40 C22,39.4477153 22.4477153,39 23,39 C23.5522847,39 24,39.4477153 24,40 L24,45 L22,45 Z M26,45 L26,31 L36,31 L36,45 L26,45 Z M38,30 L38,2 L40,2 L40,54 L38,54 L38,30 Z M58,45.38184 L42,53.38184 L42,2.61816 L58,10.61816 L58,45.38184 Z" id="Shape" fill="#428DFF"/><path d="M50.5,38 C53.584,38 56,33.60742 56,28 C56,22.39258 53.584,18 50.5,18 C47.416,18 45,22.39258 45,28 C45,33.60742 47.416,38 50.5,38 Z M50.5,20 C52.15527,20 54,23.28564 54,28 C54,32.71436 52.15527,36 50.5,36 C48.84473,36 47,32.71436 47,28 C47,23.28564 48.84473,20 50.5,20 Z" id="Shape" fill="#428DFF"/></g></g></g></svg>
