<?xml version="1.0" encoding="UTF-8"?>
<svg xmlns="http://www.w3.org/2000/svg" xmlns:xlink="http://www.w3.org/1999/xlink" width="512" height="512" viewBox="0 0 56 60" version="1.1"><!-- Generator: Sketch 49.3 (51167) - http://www.bohemiancoding.com/sketch --><title>009 - Restore from tape</title><desc>Created with Sketch.</desc><defs/><g id="Page-1" stroke="none" stroke-width="1" fill="none" fill-rule="evenodd"><g id="009---Restore-from-tape" fill-rule="nonzero"><g id="Colours" transform="translate(1.000000, 1.000000)"><path d="M54,6 L54,56 C53.9967543,57.1032223 53.1032223,57.9967543 52,58 L2,58 C0.896777692,57.9967543 0.00324565669,57.1032223 0,56 L0,6 C0.00322381203,4.89676861 0.896768606,4.00322381 2,4 L41,4 L46.29,9.29 C46.5748629,9.57700784 47.0045262,9.66423963 47.3787608,9.51104417 C47.7529954,9.35784871 47.9981582,8.99437236 48,8.59 L48,4 L52,4 C53.1032314,4.00322381 53.9967762,4.89676861 54,6 Z" id="Shape" fill="#A4C2F7"/><path d="M50,6 L50,56 C49.9967543,57.1032223 49.1032223,57.9967543 48,58 L2,58 C0.896777692,57.9967543 0.00324565669,57.1032223 0,56 L0,6 C0.00322381203,4.89676861 0.896768606,4.00322381 2,4 L37,4 L42.29,9.29 C42.5748629,9.57700784 43.0045262,9.66423963 43.3787608,9.51104417 C43.7529954,9.35784871 43.9981582,8.99437236 44,8.59 L44,7 L46.29,9.29 C46.5748629,9.57700784 47.0045262,9.66423963 47.3787608,9.51104417 C47.7529954,9.35784871 47.9981582,8.99437236 48,8.59 L48,4 C49.1032314,4.00322381 49.9967762,4.89676861 50,6 Z" id="Shape" fill="#E3E7F2"/><path d="M37.91992,58 L16.08008,58 C18.0402391,53.7339637 22.3051849,51.0000067 27,51.0000067 C31.6948151,51.0000067 35.9597609,53.7339637 37.91992,58 Z" id="Shape" fill="#A4C2F7"/><rect id="Rectangle-path" fill="#A4C2F7" x="0" y="44" width="4" height="6"/><polygon id="Shape" fill="#A4C2F7" points="4 36 4 40 0 40 0 34"/><rect id="Rectangle-path" fill="#A4C2F7" x="50" y="44" width="4" height="6"/><polygon id="Shape" fill="#A4C2F7" points="54 34 54 40 50 40 50 36"/><path d="M44,50 L40,50 C38.8967777,49.9967543 38.0032457,49.1032223 38,48 C38.00799,46.8987571 38.8987571,46.00799 40,46 L44,46 C42.8987571,46.00799 42.00799,46.8987571 42,48 C42.0032457,49.1032223 42.8967777,49.9967543 44,50 Z" id="Shape" fill="#A4C2F7"/><path d="M46,48 C45.9919563,49.1012205 45.1012205,49.9919563 44,50 C42.8967777,49.9967543 42.0032457,49.1032223 42,48 C42,46.8954305 42.8954305,46 44,46 C45.1045695,46 46,46.8954305 46,48 Z" id="Shape" fill="#A4C2F7"/><path d="M24.29,5.78 L16.71,13.7 C16.5235758,13.8917778 16.267496,13.9999791 16.00004,13.9999791 C15.732584,13.9999791 15.4765042,13.8917778 15.29008,13.7 L13.80008,12.14 L7.71,5.78 C7.41994326,5.48531445 7.3305443,5.047495 7.48185414,4.6626862 C7.63316399,4.27787739 7.99682271,4.01820378 8.40991,4 L10,4 L10,1 C10.0015983,0.448378624 10.4483786,0.00159825193 11,0 L21,0 C21.5516214,0.00159825193 21.9984017,0.448378624 22,1 L22,4 L23.59009,4 C24.0031773,4.01820378 24.366836,4.27787739 24.5181459,4.6626862 C24.6694557,5.047495 24.5800567,5.48531445 24.29,5.78 Z" id="Shape" fill="#A4C2F7"/><path d="M19.88,5.78 L13.80005,12.14 L7.71,5.78 C7.41994326,5.48531445 7.3305443,5.047495 7.48185414,4.6626862 C7.63316399,4.27787739 7.99682271,4.01820378 8.40991,4 L10,4 L10,1 C10.0015983,0.448378624 10.4483786,0.00159825193 11,0 L16.59009,0 C17.1416909,0.00164740056 17.5884426,0.448399067 17.59009,1 L17.59009,4 L19.17993,4 C19.5930736,4.01809222 19.9568324,4.27774026 20.1081909,4.66258504 C20.2595495,5.04742982 20.1701281,5.48531264 19.88,5.78 Z" id="Shape" fill="#E3E7F2"/><path d="M27,18 C19.8202983,18 14,23.8202983 14,31 C14,38.1797017 19.8202983,44 27,44 C34.1797017,44 40,38.1797017 40,31 C40.0000981,27.5521555 38.6304907,24.2454977 36.1924965,21.8075035 C33.7545023,19.3695093 30.4478445,17.9999019 27,18 Z M33.06,34.5 C31.3039708,37.5334052 27.5720111,38.7960135 24.3349602,37.451883 C21.0979093,36.1077525 19.3579611,32.5730271 20.2670929,29.1879621 C21.1762246,25.8028971 24.4529682,23.6155118 27.9278718,24.0740205 C31.4027755,24.5325291 34.0000057,27.4949771 34,31 C34.0000689,32.2290511 33.6758204,33.4363592 33.06,34.5 Z" id="Shape" fill="#E3E7F2"/><path d="M33.06,27.5 C31.3039708,24.4665948 27.5720111,23.2039865 24.3349602,24.548117 C21.0979093,25.8922475 19.3579611,29.4269729 20.2670929,32.8120379 C21.1762246,36.1971029 24.4529682,38.3844882 27.9278718,37.9259795 C31.4027755,37.4674709 34.0000057,34.5050229 34,31 C34.0000689,29.7709489 33.6758204,28.5636408 33.06,27.5 Z M27,33 C25.8954305,33 25,32.1045695 25,31 C25,29.8954305 25.8954305,29 27,29 C28.1045695,29 29,29.8954305 29,31 C28.9967543,32.1032223 28.1032223,32.9967543 27,33 Z" id="Shape" fill="#A4C2F7"/><circle id="Oval" fill="#E3E7F2" cx="27" cy="31" r="1"/></g><g id="White" transform="translate(1.000000, 5.000000)" fill="#FFFFFF"><path d="M5,54 L2,54 C0.896777692,53.9967543 0.00324565669,53.1032223 0,52 L0,2 C0.00322381203,0.896768606 0.896768606,0.00322381203 2,0 L5,0 C3.89676861,0.00322381203 3.00322381,0.896768606 3,2 L3,52 C3.00324566,53.1032223 3.89677769,53.9967543 5,54 Z" id="Shape"/></g><g id="Icons"><polygon id="Shape" fill="#FFFFFF" points="0 57 0 44 0 16 2 16 2 44 2 57"/><path d="M3,60 L53,60 C54.6561049,59.9981923 55.9981923,58.6561049 56,57 L56,7 C55.9981923,5.34389511 54.6561049,4.00180771 53,4 L49,4 C48.7347624,3.99993101 48.4803684,4.1052657 48.292817,4.29281703 C48.1052657,4.48036837 47.999931,4.73476237 48,5 L47.99707,9.583 L42.70707,4.293 C42.5196056,4.10536544 42.265235,3.99995781 42,4 L24,4 L24,2.00146 C23.9987325,0.897415928 23.1040441,0.00272746556 22,0.00146 L12,0.00146 C10.8959559,0.00272746556 10.0012675,0.897415928 10,2.00146 L10,4 L3,4 C1.34389511,4.00180771 0.00180771165,5.34389511 -6.8261828e-16,7 L-6.8261828e-16,51 C-6.89886937e-05,51.2652376 0.105265697,51.5196316 0.292817033,51.707183 C0.480368368,51.8947343 0.734762367,52.000069 1,52 L5,52 C5.26523763,52.000069 5.51963163,51.8947343 5.70718297,51.707183 C5.8947343,51.5196316 6.00006899,51.2652376 6,51 L6,45 C6.00006899,44.7347624 5.8947343,44.4803684 5.70718297,44.292817 C5.51963163,44.1052657 5.26523763,43.999931 5,44 L2,44 L2,42 L5,42 C5.26523763,42.000069 5.51963163,41.8947343 5.70718297,41.707183 C5.8947343,41.5196316 6.00006899,41.2652376 6,41 L6,37 C6.00008475,36.6211935 5.78608988,36.2748674 5.44727,36.10547 L2,34.38184 L2,7 C2.00055123,6.44794374 2.44794374,6.00055123 3,6 L7.43164,6 C7.4119152,6.54560558 7.61130152,7.07642382 7.98535,7.47412 L15.57129,15.3877 C15.9436785,15.7786998 16.4600425,15.9999955 17,15.9999955 C17.5399575,15.9999955 18.0563215,15.7786998 18.42871,15.3877 L26.01465,7.47412 C26.3886985,7.07642382 26.5880848,6.54560558 26.56836,6 L41.58594,6 L46.583,10.99707 C47.1538346,11.5701643 48.0136732,11.7429896 48.7616104,11.4349651 C49.5095477,11.1269406 49.9983065,10.3987197 50,9.58984 L50,6 L53,6 C53.5520563,6.00055123 53.9994488,6.44794374 54,7 L54,34.38184 L50.55273,36.10547 C50.2139101,36.2748674 49.9999152,36.6211935 50,37 L50,41 C49.999931,41.2652376 50.1052657,41.5196316 50.292817,41.707183 C50.4803684,41.8947343 50.7347624,42.000069 51,42 L54,42 L54,44 L51,44 C50.7347624,43.999931 50.4803684,44.1052657 50.292817,44.292817 C50.1052657,44.4803684 49.999931,44.7347624 50,45 L50,51 C49.999931,51.2652376 50.1052657,51.5196316 50.292817,51.707183 C50.4803684,51.8947343 50.7347624,52.000069 51,52 L54,52 L54,57 C53.9994488,57.5520563 53.5520563,57.9994488 53,58 L39.53418,58 C37.2955426,53.6984284 32.8492283,50.9999943 28,50.9999943 C23.1507717,50.9999943 18.7044574,53.6984284 16.46582,58 L3,58 C2.44794374,57.9994488 2.00055123,57.5520563 2,57 L2,53 C2,52.4477153 1.55228475,52 1,52 C0.44771525,52 -1.64844655e-17,52.4477153 -1.64844655e-17,53 L-1.64844655e-17,57 C0.00180771165,58.6561049 1.34389511,59.9981923 3,60 Z M4,50 L2,50 L2,46 L4,46 L4,50 Z M4,37.61816 L4,40 L2,40 L2,36.61816 L4,37.61816 Z M24.57129,6.09033 L17.01465,14.00391 L9.41406,6.00146 L11,6.00146 C11.2652376,6.00152899 11.5196316,5.8961943 11.707183,5.70864297 C11.8947343,5.52109163 12.000069,5.26669763 12,5.00146 L12,2.00146 L22,2.00146 L22,5.00146 C21.999931,5.26669763 22.1052657,5.52109163 22.292817,5.70864297 C22.4803684,5.8961943 22.7347624,6.00152899 23,6.00146 L24.58789,6.0498 C24.5891339,6.06518375 24.5829678,6.08023862 24.57129,6.09033 Z M52,40 L52,37.61816 L54,36.61816 L54,40 L52,40 Z M52,50 L52,46 L54,46 L54,50 L52,50 Z M28,53 C31.720848,53.0080166 35.1881308,54.8870338 37.22632,58 L18.77368,58 C20.8118692,54.8870338 24.279152,53.0080166 28,53 Z" id="Shape" fill="#428DFF"/><path d="M28,46 C35.7319865,46 42,39.7319865 42,32 C42,24.2680135 35.7319865,18 28,18 C20.2680135,18 14,24.2680135 14,32 C14.0086633,39.7283952 20.2716048,45.9913367 28,46 Z M28,20 C34.627417,20 40,25.372583 40,32 C40,38.627417 34.627417,44 28,44 C21.372583,44 16,38.627417 16,32 C16.0074013,25.3756512 21.3756512,20.0074013 28,20 Z" id="Shape" fill="#428DFF"/><path d="M20.70605,37.36572 L21.63647,36.82837 C22.0764942,37.406916 22.592824,37.9232222 23.17139,38.36322 L22.63379,39.29443 C22.357992,39.7727928 22.5220339,40.3841546 23.0002556,40.6601972 C23.4784773,40.9362398 24.089923,40.7725105 24.36621,40.29443 L24.89771,39.37354 C25.5696052,39.654763 26.277004,39.8421877 27,39.93054 L27,41 C27,41.5522847 27.4477153,42 28,42 C28.5522848,42 29,41.5522847 29,41 L29,39.93054 C29.7229961,39.8421877 30.4303949,39.654763 31.10229,39.37354 L31.63379,40.29443 C31.8123254,40.6040939 32.1425484,40.7949389 32.4999929,40.7950328 C32.8574375,40.7951268 33.1877606,40.6044552 33.3664587,40.2948852 C33.5451568,39.9853152 33.545062,39.6039111 33.36621,39.29443 L32.82861,38.36322 C33.4071761,37.9232222 33.9235058,37.406916 34.36353,36.82837 L35.2939501,37.36572 C35.4454625,37.4538668 35.6176622,37.5002054 35.7929501,37.5 C36.245745,37.5006028 36.642416,37.196816 36.7598446,36.7595127 C36.8772732,36.3222095 36.6861388,35.8605799 36.2939501,35.63428 L35.3732901,35.1026 C35.6546228,34.4306178 35.8421321,33.7231129 35.9305401,33 L37.0000001,33 C37.5522848,33 38.0000001,32.5522847 38.0000001,32 C38.0000001,31.4477153 37.5522848,31 37.0000001,31 L35.9305401,31 C35.8421321,30.2768871 35.6546228,29.5693822 35.3732901,28.8974 L36.2939501,28.36572 C36.6043947,28.1876582 36.7959779,27.8572335 36.7962802,27.4993483 C36.7965825,27.1414631 36.6055578,26.8107153 36.2954144,26.6321292 C35.985271,26.4535432 35.6033235,26.4543635 35.2939501,26.63428 L34.36353,27.17163 C33.9235058,26.593084 33.4071761,26.0767778 32.82861,25.63678 L33.36621,24.70557 C33.6420081,24.2272072 33.4779662,23.6158454 32.9997445,23.3398028 C32.5215228,23.0637602 31.9100771,23.2274895 31.63379,23.70557 L31.10229,24.62646 C30.4303949,24.345237 29.7229961,24.1578123 29,24.06946 L29,23 C29,22.4477153 28.5522848,22 28,22 C27.4477153,22 27,22.4477153 27,23 L27,24.06946 C26.277004,24.1578123 25.5696052,24.345237 24.89771,24.62646 L24.36621,23.70557 C24.089923,23.2274895 23.4784773,23.0637602 23.0002556,23.3398028 C22.5220339,23.6158454 22.357992,24.2272072 22.63379,24.70557 L23.17139,25.63678 C22.592824,26.0767778 22.0764942,26.593084 21.63647,27.17163 L20.70605,26.63428 C20.3966766,26.4543635 20.014729,26.4535432 19.7045857,26.6321292 C19.3944423,26.8107153 19.2034176,27.1414631 19.2037199,27.4993483 C19.2040222,27.8572335 19.3956054,28.1876582 19.70605,28.36572 L20.62671,28.8974 C20.3453772,29.5693822 20.1578679,30.2768871 20.06946,31 L19,31 C18.4477153,31 18.0000001,31.4477153 18.0000001,32 C18.0000001,32.5522847 18.4477153,33 19,33 L20.06946,33 C20.1578679,33.7231129 20.3453772,34.4306178 20.62671,35.1026 L19.70605,35.63428 C19.3956054,35.8123418 19.2040222,36.1427665 19.2037199,36.5006517 C19.2034176,36.8585369 19.3944423,37.1892847 19.7045857,37.3678708 C20.014729,37.5464568 20.3966766,37.5456365 20.70605,37.36572 Z M28,26 C31.3137085,26 34,28.6862915 34,32 C34,35.3137085 31.3137085,38 28,38 C24.6862915,38 22,35.3137085 22,32 C22.0036209,28.6877925 24.6877925,26.0036209 28,26 Z" id="Shape" fill="#428DFF"/><path d="M28,35 C29.6568542,35 31,33.6568542 31,32 C31,30.3431458 29.6568542,29 28,29 C26.3431458,29 25,30.3431458 25,32 C25.0018077,33.6561049 26.3438951,34.9981923 28,35 Z M28,31 C28.5522847,31 29,31.4477153 29,32 C29,32.5522847 28.5522847,33 28,33 C27.4477153,33 27,32.5522847 27,32 C27.0005512,31.4479437 27.4479437,31.0005512 28,31 Z" id="Shape" fill="#428DFF"/><path d="M38,49 C38.0018077,50.6561049 39.3438951,51.9981923 41,52 L45,52 C46.6568542,52 48,50.6568542 48,49 C48,47.3431458 46.6568542,46 45,46 L41,46 C39.3438951,46.0018077 38.0018077,47.3438951 38,49 Z M40,49 C40.0005512,48.4479437 40.4479437,48.0005512 41,48 L42.18433,48 C41.9385565,48.6440149 41.9385565,49.3559851 42.18433,50 L41,50 C40.4479437,49.9994488 40.0005512,49.5520563 40,49 Z M46,49 C46,49.5522847 45.5522847,50 45,50 C44.4477153,50 44,49.5522847 44,49 C44,48.4477153 44.4477153,48 45,48 C45.5520563,48.0005512 45.9994488,48.4479437 46,49 Z" id="Shape" fill="#428DFF"/><path d="M5.71,15.29 C5.37066847,14.9439667 4.83389996,14.8864531 4.42895974,15.1527394 C4.02401952,15.4190256 3.86414242,15.934649 4.04740047,16.3833153 C4.23065852,16.8319816 4.70580665,17.0882285 5.18137882,16.9948688 C5.656951,16.9015091 5.99996136,16.4846493 6,16 C5.99664428,15.7351664 5.89301441,15.4814519 5.71,15.29 Z" id="Shape" fill="#428DFF"/><path d="M4.29,55.71 C4.68431326,56.0967201 5.31560674,56.0967201 5.70992,55.71 C5.79819842,55.612729 5.86921905,55.5010981 5.91992,55.37992 C6.02669354,55.1377502 6.02669354,54.8618398 5.91992,54.61967 C5.86924299,54.4986212 5.79824727,54.3871256 5.71,54.29 C5.30905376,53.9198721 4.69102624,53.9198721 4.29008,54.29 C4.20181194,54.3870954 4.1307893,54.4985638 4.08008,54.61959 C3.97330646,54.8617598 3.97330646,55.1376702 4.08008,55.37984 C4.13074866,55.5010407 4.20174236,55.6126989 4.29,55.71 Z" id="Shape" fill="#428DFF"/><path d="M50.43945,16.82959 C50.495398,16.867584 50.556155,16.8979609 50.62012,16.91992 C50.6767513,16.9486255 50.7372901,16.9688613 50.7998,16.97998 C50.8660261,16.9910061 50.9329019,16.9976937 51,17 C51.2660007,17.0025856 51.5218597,16.8980593 51.7099595,16.7099595 C51.8980593,16.5218597 52.0025856,16.2660007 52,16 C51.9984448,15.8691924 51.9712375,15.7399611 51.91992,15.61963 C51.8692107,15.4986038 51.7981881,15.3871354 51.70992,15.29004 C51.4704372,15.0540696 51.1291801,14.9528353 50.79976,15.02004 C50.7372147,15.0307597 50.6766416,15.0508418 50.62008,15.07961 C50.556115,15.1015691 50.495358,15.131946 50.43941,15.16994 C50.3871528,15.2068066 50.3372521,15.2469048 50.29,15.29 C50.2017319,15.3870954 50.1307093,15.4985638 50.08,15.61959 C50.0287049,15.739939 50.0015247,15.8691843 50,16 C50.003556,16.2647929 50.1071571,16.5184369 50.29,16.71 C50.33984,16.75 50.38965,16.79 50.43945,16.82959 Z" id="Shape" fill="#428DFF"/><path d="M50.43945,55.82959 C50.495398,55.867584 50.556155,55.8979609 50.62012,55.91992 C50.6767513,55.9486255 50.7372901,55.9688613 50.7998,55.97998 C50.8660261,55.9910061 50.9329019,55.9976937 51,56 C51.404347,55.9984049 51.7682813,55.7544153 51.9233352,55.3809754 C52.0783892,55.0075356 51.9943027,54.5775256 51.71,54.29 C51.4705172,54.0540296 51.1292601,53.9527953 50.79984,54.02 C50.7372947,54.0307197 50.6767216,54.0508018 50.62016,54.07957 C50.556195,54.1015291 50.495438,54.131906 50.43949,54.1699 C50.3872043,54.2067768 50.3372768,54.2468885 50.29,54.29 C49.9032799,54.6843133 49.9032799,55.3156067 50.29,55.70992 C50.33984,55.75 50.38965,55.79 50.43945,55.82959 Z" id="Shape" fill="#428DFF"/></g></g></g></svg>
