<?xml version="1.0" encoding="UTF-8"?>
<svg xmlns="http://www.w3.org/2000/svg" xmlns:xlink="http://www.w3.org/1999/xlink" width="512" height="512" viewBox="0 0 56 60" version="1.1"><!-- Generator: Sketch 49.3 (51167) - http://www.bohemiancoding.com/sketch --><title>008 - Back up to Tape</title><desc>Created with Sketch.</desc><defs/><g id="Page-1" stroke="none" stroke-width="1" fill="none" fill-rule="evenodd"><g id="008---Back-up-to-Tape" fill-rule="nonzero"><g id="Colours" transform="translate(1.000000, 1.000000)"><path d="M54,6 L54,56 C53.9967543,57.1032223 53.1032223,57.9967543 52,58 L2,58 C0.896777692,57.9967543 0.00324565669,57.1032223 0,56 L0,6 C0.00322381203,4.89676861 0.896768606,4.00322381 2,4 L41,4 L46.29,9.29 C46.5748737,9.57697716 47.004521,9.66418954 47.3787425,9.51099946 C47.7529639,9.35780938 47.998129,8.99435803 48,8.59 L48,4 L52,4 C53.1032314,4.00322381 53.9967762,4.89676861 54,6 Z" id="Shape" fill="#A4C2F7"/><path d="M50,6 L50,56 C49.9967543,57.1032223 49.1032223,57.9967543 48,58 L2,58 C0.896777692,57.9967543 0.00324565669,57.1032223 0,56 L0,6 C0.00322381203,4.89676861 0.896768606,4.00322381 2,4 L37,4 L42.29,9.29 C42.5748737,9.57697716 43.004521,9.66418954 43.3787425,9.51099946 C43.7529639,9.35780938 43.998129,8.99435803 44,8.59 L44,7 L46.29,9.29 C46.5748737,9.57697716 47.004521,9.66418954 47.3787425,9.51099946 C47.7529639,9.35780938 47.998129,8.99435803 48,8.59 L48,4 C49.1032314,4.00322381 49.9967762,4.89676861 50,6 Z" id="Shape" fill="#E3E7F2"/><circle id="Oval" fill="#41767F" cx="27" cy="31" r="13"/><path d="M37.92,58 L16.08,58 C18.0401746,53.7339339 22.3051513,50.9999581 27,50.9999581 C31.6948487,50.9999581 35.9598254,53.7339339 37.92,58 Z" id="Shape" fill="#A4C2F7"/><path d="M33.06,27.5 C31.3039708,24.4665948 27.5720111,23.2039865 24.3349602,24.548117 C21.0979093,25.8922475 19.3579611,29.4269729 20.2670929,32.8120379 C21.1762246,36.1971029 24.4529682,38.3844882 27.9278718,37.9259795 C31.4027755,37.4674709 34.0000057,34.5050229 34,31 C34.0000689,29.7709489 33.6758204,28.5636408 33.06,27.5 Z M27,18 C19.8202983,18 14,23.8202983 14,31 C14,38.1797017 19.8202983,44 27,44 C34.1797017,44 40,38.1797017 40,31 C40.0000981,27.5521555 38.6304907,24.2454977 36.1924965,21.8075035 C33.7545023,19.3695093 30.4478445,17.9999019 27,18 Z" id="Shape" fill="#E3E7F2"/><path d="M33.06,27.5 C31.3039708,24.4665948 27.5720111,23.2039865 24.3349602,24.548117 C21.0979093,25.8922475 19.3579611,29.4269729 20.2670929,32.8120379 C21.1762246,36.1971029 24.4529682,38.3844882 27.9278718,37.9259795 C31.4027755,37.4674709 34.0000057,34.5050229 34,31 C34.0000689,29.7709489 33.6758204,28.5636408 33.06,27.5 Z M27,33 C25.8954305,33 25,32.1045695 25,31 C25,29.8954305 25.8954305,29 27,29 C28.1045695,29 29,29.8954305 29,31 C28.9967543,32.1032223 28.1032223,32.9967543 27,33 Z" id="Shape" fill="#A4C2F7"/><circle id="Oval" fill="#E3E7F2" cx="27" cy="31" r="1"/><rect id="Rectangle-path" fill="#A4C2F7" x="0" y="44" width="4" height="6"/><polygon id="Shape" fill="#A4C2F7" points="4 36 4 40 0 40 0 34"/><rect id="Rectangle-path" fill="#A4C2F7" x="50" y="44" width="4" height="6"/><polygon id="Shape" fill="#A4C2F7" points="54 34 54 40 50 40 50 36"/><path d="M44,50 L40,50 C38.8967777,49.9967543 38.0032457,49.1032223 38,48 C38.0079309,46.8987323 38.8987323,46.0079309 40,46 L44,46 C42.8987323,46.0079309 42.0079309,46.8987323 42,48 C42.0032457,49.1032223 42.8967777,49.9967543 44,50 Z" id="Shape" fill="#A4C2F7"/><path d="M46,48 C45.99201,49.1012429 45.1012429,49.99201 44,50 C42.8967777,49.9967543 42.0032457,49.1032223 42,48 C42,46.8954305 42.8954305,46 44,46 C45.1045695,46 46,46.8954305 46,48 Z" id="Shape" fill="#A4C2F7"/><path d="M23.59,10 L22,10 L22,13 C21.9983526,13.5516009 21.5516009,13.9983526 21,14 L11,14 C10.4483991,13.9983526 10.0016474,13.5516009 10,13 L10,10 L8.41,10 C7.99689195,9.98183833 7.63319468,9.72217776 7.48186107,9.33735801 C7.33052746,8.95253825 7.41992518,8.51469425 7.71,8.22 L11.75,4 L13.8,1.87 L15.29,0.31 C15.4740133,0.113801115 15.7310113,0.00249316721 16,0.00249316721 C16.2689887,0.00249316721 16.5259867,0.113801115 16.71,0.31 L20.25,4 L24.29,8.22 C24.5800748,8.51469425 24.6694725,8.95253825 24.5181389,9.33735801 C24.3668053,9.72217776 24.003108,9.98183833 23.59,10 Z" id="Shape" fill="#A4C2F7"/><path d="M19.18,10 L17.59,10 L17.59,13 C17.5883526,13.5516009 17.1416009,13.9983526 16.59,14 L11,14 C10.4483991,13.9983526 10.0016474,13.5516009 10,13 L10,10 L8.41,10 C7.99689195,9.98183833 7.63319468,9.72217776 7.48186107,9.33735801 C7.33052746,8.95253825 7.41992518,8.51469425 7.71,8.22 L11.75,4 L13.8,1.87 L15.84,4 L19.88,8.22 C20.1700748,8.51469425 20.2594725,8.95253825 20.1081389,9.33735801 C19.9568053,9.72217776 19.593108,9.98183833 19.18,10 Z" id="Shape" fill="#E3E7F2"/></g><g id="White" transform="translate(1.000000, 5.000000)" fill="#FFFFFF"><path d="M5,54 L2,54 C0.896777692,53.9967543 0.00324565669,53.1032223 0,52 L0,2 C0.00322381203,0.896768606 0.896768606,0.00322381203 2,0 L5,0 C3.89676861,0.00322381203 3.00322381,0.896768606 3,2 L3,52 C3.00324566,53.1032223 3.89677769,53.9967543 5,54 Z" id="Shape"/></g><g id="Icons"><polygon id="Shape" fill="#FFFFFF" points="0 57 0 44 0 16 2 16 2 44 2 57"/><path d="M3,60 L53,60 C54.6561049,59.9981923 55.9981923,58.6561049 56,57 L56,7 C55.9981923,5.34389511 54.6561049,4.00180771 53,4 L49,4 C48.7347624,3.99993101 48.4803684,4.1052657 48.292817,4.29281703 C48.1052657,4.48036837 47.999931,4.73476237 48,5 L47.99707,9.583 L42.70707,4.293 C42.5196056,4.10536544 42.265235,3.99995781 42,4 L21.67474,4 L18.42871,0.61377 C18.0500246,0.234415542 17.5360153,0.0212400905 17,0.0212400905 C16.4639847,0.0212400905 15.9499754,0.234415542 15.57129,0.61377 L12.32526,4 L3,4 C1.34389511,4.00180771 0.00180771165,5.34389511 -6.8261828e-16,7 L-6.8261828e-16,51 C-6.89886937e-05,51.2652376 0.105265697,51.5196316 0.292817033,51.707183 C0.480368368,51.8947343 0.734762367,52.000069 1,52 L5,52 C5.26523763,52.000069 5.51963163,51.8947343 5.70718297,51.707183 C5.8947343,51.5196316 6.00006899,51.2652376 6,51 L6,45 C6.00006899,44.7347624 5.8947343,44.4803684 5.70718297,44.292817 C5.51963163,44.1052657 5.26523763,43.999931 5,44 L2,44 L2,42 L5,42 C5.26523763,42.000069 5.51963163,41.8947343 5.70718297,41.707183 C5.8947343,41.5196316 6.00006899,41.2652376 6,41 L6,37 C6.00008475,36.6211935 5.78608988,36.2748674 5.44727,36.10547 L2,34.38184 L2,7 C2.00055123,6.44794374 2.44794374,6.00055123 3,6 L10.40808,6 L7.98535,8.52734 C7.4119103,9.12738629 7.25272697,10.0121157 7.58105,10.77441 C7.88564738,11.5179461 8.61055606,12.0026357 9.41406,12 L10,12 L10,14 C10.001262,15.1040464 10.8959536,15.998738 12,16 L22,16 C23.1040464,15.998738 23.998738,15.1040464 24,14 L24,12 L24.58594,12 C25.3894403,12.0026316 26.114344,11.5179427 26.41894,10.77441 C26.747263,10.0121157 26.5880797,9.12738629 26.01464,8.52734 L23.59192,6 L41.58592,6 L46.583,10.99707 C47.1538346,11.5701643 48.0136732,11.7429896 48.7616104,11.4349651 C49.5095477,11.1269406 49.9983065,10.3987197 50,9.58984 L50,6 L53,6 C53.5520563,6.00055123 53.9994488,6.44794374 54,7 L54,34.38184 L50.55273,36.10547 C50.2139101,36.2748674 49.9999152,36.6211935 50,37 L50,41 C49.999931,41.2652376 50.1052657,41.5196316 50.292817,41.707183 C50.4803684,41.8947343 50.7347624,42.000069 51,42 L54,42 L54,44 L51,44 C50.7347624,43.999931 50.4803684,44.1052657 50.292817,44.292817 C50.1052657,44.4803684 49.999931,44.7347624 50,45 L50,51 C49.999931,51.2652376 50.1052657,51.5196316 50.292817,51.707183 C50.4803684,51.8947343 50.7347624,52.000069 51,52 L54,52 L54,57 C53.9994488,57.5520563 53.5520563,57.9994488 53,58 L39.53412,58 C37.2955051,53.6984371 32.8492102,51.0000047 28,51.0000047 C23.1507898,51.0000047 18.7044949,53.6984371 16.46588,58 L3,58 C2.44794374,57.9994488 2.00055123,57.5520563 2,57 L2,53 C2,52.4477153 1.55228475,52 1,52 C0.44771525,52 -1.64844655e-17,52.4477153 -1.64844655e-17,53 L-1.64844655e-17,57 C0.00180771165,58.6561049 1.34389511,59.9981923 3,60 Z M4,50 L2,50 L2,46 L4,46 L4,50 Z M4,37.61816 L4,40 L2,40 L2,36.61816 L4,37.61816 Z M25.293,9.21924 L24.58594,10 L23,10 C22.7347624,9.99993101 22.4803684,10.1052657 22.292817,10.292817 C22.1052657,10.4803684 21.999931,10.7347624 22,11 L22,14 L12,14 L12,11 C12.000069,10.7347624 11.8947343,10.4803684 11.707183,10.292817 C11.5196316,10.1052657 11.2652376,9.99993101 11,10 L9.42871,9.91113 L13.41754,5.73389 C13.4435117,5.7095628 13.4681066,5.68380614 13.49121,5.65674 L16.98535,1.99756 L24.57129,9.91113 L25.293,9.21924 Z M52,40 L52,37.61816 L54,36.61816 L54,40 L52,40 Z M52,50 L52,46 L54,46 L54,50 L52,50 Z M28,53 C31.72086,53.0080327 35.1881538,54.8870436 37.22638,58 L18.77362,58 C20.8118462,54.8870436 24.27914,53.0080327 28,53 Z" id="Shape" fill="#428DFF"/><path d="M28,46 C35.7319865,46 42,39.7319865 42,32 C42,24.2680135 35.7319865,18 28,18 C20.2680135,18 14,24.2680135 14,32 C14.0086633,39.7283952 20.2716048,45.9913367 28,46 Z M28,20 C34.627417,20 40,25.372583 40,32 C40,38.627417 34.627417,44 28,44 C21.372583,44 16,38.627417 16,32 C16.0074013,25.3756512 21.3756512,20.0074013 28,20 Z" id="Shape" fill="#428DFF"/><path d="M20.70605,37.36572 L21.63647,36.82837 C22.0765209,37.4068726 22.5928245,37.9231729 23.17133,38.36322 L22.63379,39.29443 C22.357992,39.7727928 22.5220339,40.3841546 23.0002556,40.6601972 C23.4784773,40.9362398 24.0899229,40.7725105 24.36621,40.29443 L24.89777,39.37354 C25.569645,39.6547611 26.2770237,39.8421858 27,39.93054 L27,41 C27,41.5522847 27.4477153,42 28,42 C28.5522847,42 29,41.5522847 29,41 L29,39.93054 C29.7229763,39.8421858 30.430355,39.6547611 31.10223,39.37354 L31.63379,40.29443 C31.8123254,40.6040939 32.1425483,40.7949389 32.4999929,40.7950328 C32.8574374,40.7951268 33.1877606,40.6044552 33.3664587,40.2948852 C33.5451568,39.9853152 33.545062,39.6039111 33.36621,39.29443 L32.82867,38.36322 C33.4071755,37.9231729 33.9234791,37.4068726 34.36353,36.82837 L35.29395,37.36572 C35.4454625,37.4538668 35.6176621,37.5002054 35.79295,37.5 C36.2457449,37.5006028 36.6424159,37.196816 36.7598445,36.7595127 C36.8772732,36.3222095 36.6861387,35.8605799 36.29395,35.63428 L35.37335,35.1026 C35.6546356,34.4306057 35.8421237,33.7231047 35.93054,33 L37,33 C37.5522847,33 38,32.5522847 38,32 C38,31.4477153 37.5522847,31 37,31 L35.93054,31 C35.8421237,30.2768953 35.6546356,29.5693943 35.37335,28.8974 L36.29395,28.36572 C36.6043946,28.1876582 36.7959778,27.8572335 36.7962801,27.4993483 C36.7965825,27.1414631 36.6055577,26.8107153 36.2954144,26.6321292 C35.985271,26.4535432 35.6033235,26.4543635 35.29395,26.63428 L34.36353,27.17163 C33.9234791,26.5931274 33.4071755,26.0768271 32.82867,25.63678 L33.36621,24.70557 C33.642008,24.2272072 33.4779661,23.6158454 32.9997444,23.3398028 C32.5215227,23.0637602 31.9100771,23.2274895 31.63379,23.70557 L31.10223,24.62646 C30.430355,24.3452389 29.7229763,24.1578142 29,24.06946 L29,23 C29,22.4477153 28.5522847,22 28,22 C27.4477153,22 27,22.4477153 27,23 L27,24.06946 C26.2770237,24.1578142 25.569645,24.3452389 24.89777,24.62646 L24.36621,23.70557 C24.0899229,23.2274895 23.4784773,23.0637602 23.0002556,23.3398028 C22.5220339,23.6158454 22.357992,24.2272072 22.63379,24.70557 L23.17133,25.63678 C22.5928245,26.0768271 22.0765209,26.5931274 21.63647,27.17163 L20.70605,26.63428 C20.3966765,26.4543635 20.014729,26.4535432 19.7045856,26.6321292 C19.3944423,26.8107153 19.2034175,27.1414631 19.2037199,27.4993483 C19.2040222,27.8572335 19.3956054,28.1876582 19.70605,28.36572 L20.62665,28.8974 C20.3453644,29.5693943 20.1578763,30.2768953 20.06946,31 L19,31 C18.4477153,31 18,31.4477153 18,32 C18,32.5522847 18.4477153,33 19,33 L20.06946,33 C20.1578763,33.7231047 20.3453644,34.4306057 20.62665,35.1026 L19.70605,35.63428 C19.3956054,35.8123418 19.2040222,36.1427665 19.2037199,36.5006517 C19.2034175,36.8585369 19.3944423,37.1892847 19.7045856,37.3678708 C20.014729,37.5464568 20.3966765,37.5456365 20.70605,37.36572 Z M28,26 C31.3137085,26 34,28.6862915 34,32 C34,35.3137085 31.3137085,38 28,38 C24.6862915,38 22,35.3137085 22,32 C22.0036209,28.6877925 24.6877925,26.0036209 28,26 Z" id="Shape" fill="#428DFF"/><path d="M28,35 C29.6568542,35 31,33.6568542 31,32 C31,30.3431458 29.6568542,29 28,29 C26.3431458,29 25,30.3431458 25,32 C25.0018077,33.6561049 26.3438951,34.9981923 28,35 Z M28,31 C28.5522847,31 29,31.4477153 29,32 C29,32.5522847 28.5522847,33 28,33 C27.4477153,33 27,32.5522847 27,32 C27.0005512,31.4479437 27.4479437,31.0005512 28,31 Z" id="Shape" fill="#428DFF"/><path d="M38,49 C38.0018077,50.6561049 39.3438951,51.9981923 41,52 L45,52 C46.6568542,52 48,50.6568542 48,49 C48,47.3431458 46.6568542,46 45,46 L41,46 C39.3438951,46.0018077 38.0018077,47.3438951 38,49 Z M40,49 C40.0005512,48.4479437 40.4479437,48.0005512 41,48 L42.18427,48 C41.9385562,48.6440297 41.9385775,49.355985 42.18433,50 L41,50 C40.4479437,49.9994488 40.0005512,49.5520563 40,49 Z M46,49 C46,49.5522847 45.5522847,50 45,50 C44.4477153,50 44,49.5522847 44,49 C44,48.4477153 44.4477153,48 45,48 C45.5520563,48.0005512 45.9994488,48.4479437 46,49 Z" id="Shape" fill="#428DFF"/><path d="M5.71,15.29 C5.66242157,15.2468658 5.61219365,15.2067476 5.55961,15.16988 C5.50400185,15.1319046 5.44357098,15.1015261 5.37992,15.07955 C5.32328664,15.0509246 5.26272115,15.0308563 5.2002,15.02 C4.87077366,14.9526508 4.52944927,15.053905 4.29004,15.29 C4.10710532,15.4815069 4.00347671,15.7351833 4,16 C4.00213547,16.0669255 4.00865948,16.1336387 4.01953,16.19971 C4.03082163,16.2623975 4.05122084,16.3230965 4.08008,16.37988 C4.10166375,16.4437585 4.13189106,16.5043813 4.16992,16.56006 C4.20705916,16.6122856 4.24715112,16.6623471 4.29,16.71 C4.48176041,16.8925381 4.73527955,16.9960882 5,17 C5.06712579,16.9981302 5.13403092,16.9914464 5.2002,16.98 C5.26267214,16.9687335 5.32318997,16.9485047 5.37988,16.91994 C5.44353098,16.8979639 5.50396185,16.8675854 5.55957,16.82961 C5.61216419,16.7929236 5.66240611,16.7529752 5.71,16.71 C6.09672008,16.3156867 6.09672008,15.6843933 5.71,15.29008 L5.71,15.29 Z" id="Shape" fill="#428DFF"/><path d="M4.29,55.71 C4.48176041,55.8925381 4.73527955,55.9960882 5,56 C5.06712579,55.9981302 5.13403092,55.9914464 5.2002,55.98 C5.26267214,55.9687335 5.32318997,55.9485047 5.37988,55.91994 C5.44353098,55.8979639 5.50396185,55.8675854 5.55957,55.82961 C5.60938,55.79 5.66016,55.75 5.71,55.71 C5.80036298,55.6143361 5.87163805,55.5023053 5.92,55.37992 C6.02677354,55.1377502 6.02677354,54.8618398 5.92,54.61967 C5.86929873,54.4986155 5.79827573,54.3871195 5.71,54.29 C5.30905,53.9198817 4.69103,53.9198817 4.29008,54.29 C4.20181194,54.3870954 4.1307893,54.4985638 4.08008,54.61959 C3.97330646,54.8617598 3.97330646,55.1376702 4.08008,55.37984 C4.13074866,55.5010407 4.20174236,55.6126989 4.29,55.71 Z" id="Shape" fill="#428DFF"/><path d="M51,17 C51.4538614,16.9999589 51.851061,16.6949609 51.9682686,16.2564948 C52.0854762,15.8180286 51.8934407,15.3555205 51.5001364,15.1290213 C51.106832,14.9025221 50.6104143,14.9685582 50.29,15.29 C49.9032799,15.6843133 49.9032799,16.3156067 50.29,16.70992 C50.4817481,16.8924873 50.7352687,16.9960665 51,17 Z" id="Shape" fill="#428DFF"/><path d="M50.29,55.71 C50.4806322,55.8942746 50.7348695,55.998118 51,56 C51.2646826,55.995903 51.518137,55.8923794 51.71,55.71 C51.7982784,55.612729 51.8692991,55.5010981 51.92,55.37992 C52.0267735,55.1377502 52.0267735,54.8618398 51.92,54.61967 C51.8692907,54.4986438 51.7982681,54.3871754 51.71,54.29008 C51.30905,53.9199617 50.69103,53.9199617 50.29008,54.29008 C50.2018119,54.3871754 50.1307893,54.4986438 50.08008,54.61967 C49.9733065,54.8618398 49.9733065,55.1377502 50.08008,55.37992 C50.128418,55.502299 50.1996656,55.6143293 50.29,55.71 Z" id="Shape" fill="#428DFF"/></g></g></g></svg>
