<?xml version="1.0" encoding="UTF-8"?>
<svg xmlns="http://www.w3.org/2000/svg" xmlns:xlink="http://www.w3.org/1999/xlink" width="512" height="512" viewBox="0 0 60 44" version="1.1"><!-- Generator: Sketch 49.3 (51167) - http://www.bohemiancoding.com/sketch --><title>007 - Tape Drive</title><desc>Created with Sketch.</desc><defs/><g id="Page-1" stroke="none" stroke-width="1" fill="none" fill-rule="evenodd"><g id="007---Tape-Drive" fill-rule="nonzero"><g id="Colours" transform="translate(0.000000, 1.000000)"><rect id="Rectangle-path" fill="#A4C2F7" x="3" y="37" width="11" height="6" rx="1"/><rect id="Rectangle-path" fill="#A4C2F7" x="46" y="37" width="11" height="6" rx="1"/><rect id="Rectangle-path" fill="#A4C2F7" x="1" y="0" width="58" height="38" rx="2"/><path d="M55,2 L55,36 C55.0335357,37.0647777 54.2023872,37.9574921 53.13793,38 L2.86207,38 C1.79761277,37.9574921 0.966464339,37.0647777 1,36 L1,2 C0.966442291,0.935214064 1.79760294,0.0424864503 2.86207,0 L53.13793,0 C54.2023971,0.0424864503 55.0335577,0.935214064 55,2 Z" id="Shape" fill="#E3E7F2"/><path d="M54,4 L15,4 C14.4483991,4.0016474 14.0016474,4.44839907 14,5 L14,25 L55,25 L55,5 C54.9983526,4.44839907 54.5516009,4.0016474 54,4 Z" id="Shape" fill="#A4C2F7"/><path d="M51.07317,4 L14.92683,4 C14.3958055,4.02249488 13.9821576,4.4687988 14,5 L14,25 L52,25 L52,5 C52.0178424,4.4687988 51.6041945,4.02249488 51.07317,4 Z" id="Shape" fill="#E3E7F2"/><path d="M55,25 L55,33 C54.9983526,33.5516009 54.5516009,33.9983526 54,34 L15,34 C14.4483991,33.9983526 14.0016474,33.5516009 14,33 L14,25 L55,25 Z" id="Shape" fill="#A4C2F7"/><path d="M52,25 L52,33 C52.0178424,33.5312012 51.6041945,33.9775051 51.07317,34 L14.92683,34 C14.3958055,33.9775051 13.9821576,33.5312012 14,33 L14,25 L52,25 Z" id="Shape" fill="#E3E7F2"/><rect id="Rectangle-path" fill="#A4C2F7" x="18" y="8" width="27" height="8" rx="1"/><path d="M42,9 L42,15 C42.0272718,15.5204133 41.6311316,15.9660704 41.11111,16 L18.88889,16 C18.3688684,15.9660704 17.9727282,15.5204133 18,15 L18,9 C17.9727282,8.47958672 18.3688684,8.03392959 18.88889,8 L41.11111,8 C41.6311316,8.03392959 42.0272718,8.47958672 42,9 Z" id="Shape" fill="#E3E7F2"/></g><g id="White" transform="translate(0.000000, 1.000000)" fill="#FFFFFF"><path d="M7,43 L4,43 C3.44839907,42.9983526 3.0016474,42.5516009 3,42 L3,38 L2.86,38 C1.79662464,37.9558183 0.967030923,37.063782 1,36 L1,2 C0.967008959,0.936209719 1.79661482,0.0441604007 2.86,0 L5.85,0 C4.79016634,0.0485848804 3.96597833,0.939598947 4,2 L4,36 C3.96703092,37.063782 4.79662464,37.9558183 5.86,38 L6,38 L6,42 C6.0016474,42.5516009 6.44839907,42.9983526 7,43 Z" id="Shape"/><path d="M50,43 L47,43 C46.4483991,42.9983526 46.0016474,42.5516009 46,42 L46,38 L49,38 L49,42 C49.0016474,42.5516009 49.4483991,42.9983526 50,43 Z" id="Shape"/></g><g id="Icons"><polygon id="Shape" fill="#FFFFFF" points="2 3 2 16 2 37 0 37 0 16 0 3"/><path d="M1,12 C1.26470163,11.995996 1.51818849,11.8924591 1.71,11.71 C2.09672008,11.3156867 2.09672008,10.6843933 1.71,10.29008 L1.5601,10.16996 C1.50432178,10.1319755 1.44372787,10.1015979 1.37992,10.07963 C1.3231789,10.0508318 1.26242959,10.0307304 1.19971,10.02 C1.13367967,10.0087447 1.06695098,10.0020622 1,10 C0.735233018,10.0036835 0.481633787,10.1072663 0.29,10.29 C-0.0875531162,10.6880448 -0.0875531162,11.3119552 0.29,11.71 C0.385532731,11.8002924 0.497389252,11.8715624 0.61959,11.92 C0.739939045,11.9712951 0.869184251,11.9984753 1,12 Z" id="Shape" fill="#428DFF"/><path d="M57,-1.36725431e-24 L3,-1.36725431e-24 C1.34389511,0.00180771165 0.00180771165,1.34389511 4.93038066e-32,3 L4.93038066e-32,6.99999999 C6.76353751e-17,7.55228474 0.44771525,7.99999999 1,7.99999999 C1.55228475,7.99999999 2,7.55228474 2,6.99999999 L2,3 C2.00055123,2.44794374 2.44794374,2.00055123 3,2 L57,2 C57.5520563,2.00055123 57.9994488,2.44794374 58,3 L58,37 C57.9994488,37.5520562 57.5520563,37.9994487 57,38 L3,38 C2.44794374,37.9994487 2.00055123,37.5520562 2,37 L2,15 C2,14.4477152 1.55228475,14 1,14 C0.44771525,14 -1.5440923e-16,14.4477152 -2.22044605e-16,15 L-2.22044605e-16,37 C0.00180771165,38.6561049 1.34389511,39.9981923 3,40 L3,43 C2.99993101,43.2652376 3.1052657,43.5196316 3.29281703,43.7071829 C3.48036837,43.8947343 3.73476237,44.000069 4,44 L13,44 C13.2652376,44.000069 13.5196316,43.8947343 13.707183,43.7071829 C13.8947343,43.5196316 14.000069,43.2652376 14,43 L14,40 L46,40 L46,43 C45.999931,43.2652376 46.1052657,43.5196316 46.292817,43.7071829 C46.4803684,43.8947343 46.7347624,44.000069 47,44 L56,44 C56.2652376,44.000069 56.5196316,43.8947343 56.707183,43.7071829 C56.8947343,43.5196316 57.000069,43.2652376 57,43 L57,40 C58.6561049,39.9981923 59.9981923,38.6561049 60,37 L60,3 C59.9981923,1.34389511 58.6561049,0.00180771165 57,-1.36725431e-24 Z M12,42 L5,42 L5,40 L12,40 L12,42 Z M55,42 L48,42 L48,40 L55,40 L55,42 Z" id="Shape" fill="#428DFF"/><path d="M54,36 C55.1040464,35.998738 55.998738,35.1040464 56,34 L56,6 C55.998738,4.89595365 55.1040464,4.00126197 54,4 L15,4 C13.8959536,4.00126197 13.001262,4.89595365 13,6 L13,34 C13.001262,35.1040464 13.8959536,35.998738 15,36 L54,36 Z M15,34 L15,27 L54.00098,27 L54.00098,34 L15,34 Z M54,6 L54.00067,25 L15,25 L15,6 L54,6 Z" id="Shape" fill="#428DFF"/><path d="M22,28 L19,28 C18.4477153,28 18,28.4477153 18,29 C18,29.5522847 18.4477153,30 19,30 L22,30 C22.5522847,30 23,29.5522847 23,29 C23,28.4477153 22.5522847,28 22,28 Z" id="Shape" fill="#428DFF"/><path d="M22,31 L19,31 C18.4477153,31 18,31.4477153 18,32 C18,32.5522847 18.4477153,33 19,33 L22,33 C22.5522847,33 23,32.5522847 23,32 C23,31.4477153 22.5522847,31 22,31 Z" id="Shape" fill="#428DFF"/><path d="M29,28 L26,28 C25.4477153,28 25,28.4477153 25,29 C25,29.5522847 25.4477153,30 26,30 L29,30 C29.5522847,30 30,29.5522847 30,29 C30,28.4477153 29.5522847,28 29,28 Z" id="Shape" fill="#428DFF"/><path d="M29,31 L26,31 C25.4477153,31 25,31.4477153 25,32 C25,32.5522847 25.4477153,33 26,33 L29,33 C29.5522847,33 30,32.5522847 30,32 C30,31.4477153 29.5522847,31 29,31 Z" id="Shape" fill="#428DFF"/><path d="M36,28 L33,28 C32.4477153,28 32,28.4477153 32,29 C32,29.5522847 32.4477153,30 33,30 L36,30 C36.5522847,30 37,29.5522847 37,29 C37,28.4477153 36.5522847,28 36,28 Z" id="Shape" fill="#428DFF"/><path d="M36,31 L33,31 C32.4477153,31 32,31.4477153 32,32 C32,32.5522847 32.4477153,33 33,33 L36,33 C36.5522847,33 37,32.5522847 37,32 C37,31.4477153 36.5522847,31 36,31 Z" id="Shape" fill="#428DFF"/><path d="M43,28 L40,28 C39.4477153,28 39,28.4477153 39,29 C39,29.5522847 39.4477153,30 40,30 L43,30 C43.5522847,30 44,29.5522847 44,29 C44,28.4477153 43.5522847,28 43,28 Z" id="Shape" fill="#428DFF"/><path d="M43,31 L40,31 C39.4477153,31 39,31.4477153 39,32 C39,32.5522847 39.4477153,33 40,33 L43,33 C43.5522847,33 44,32.5522847 44,32 C44,31.4477153 43.5522847,31 43,31 Z" id="Shape" fill="#428DFF"/><path d="M47,30 L50,30 C50.5522847,30 51,29.5522847 51,29 C51,28.4477153 50.5522847,28 50,28 L47,28 C46.4477153,28 46,28.4477153 46,29 C46,29.5522847 46.4477153,30 47,30 Z" id="Shape" fill="#428DFF"/><path d="M50,31 L47,31 C46.4477153,31 46,31.4477153 46,32 C46,32.5522847 46.4477153,33 47,33 L50,33 C50.5522847,33 51,32.5522847 51,32 C51,31.4477153 50.5522847,31 50,31 Z" id="Shape" fill="#428DFF"/><path d="M19,18 L44,18 C45.1040464,17.998738 45.998738,17.1040464 46,16 L46,10 C45.998738,8.89595365 45.1040464,8.00126197 44,8 L19,8 C17.8959536,8.00126197 17.001262,8.89595365 17,10 L17,16 C17.001262,17.1040464 17.8959536,17.998738 19,18 Z M19,10 L44,10 L44.001,16 L19,16 L19,10 Z" id="Shape" fill="#428DFF"/><path d="M49,11 L51,11 C51.5522847,11 52,10.5522847 52,10 C52,9.44771525 51.5522847,9 51,9 L49,9 C48.4477153,9 48,9.44771525 48,10 C48,10.5522847 48.4477153,11 49,11 Z" id="Shape" fill="#428DFF"/><path d="M48.43945,13.82959 C48.495398,13.867584 48.556155,13.8979609 48.62012,13.91992 C48.67959,13.9500938 48.7435778,13.9703794 48.80957,13.97998 C48.8724468,13.9914754 48.9361073,13.998168 49,14 C49.2660007,14.0025856 49.5218597,13.8980593 49.7099595,13.7099595 C49.8980593,13.5218597 50.0025856,13.2660007 50,13 C49.9984448,12.8691924 49.9712375,12.7399611 49.91992,12.61963 C49.8716672,12.4973349 49.800376,12.3854451 49.70992,12.29004 C49.3089738,11.9199121 48.6909462,11.9199121 48.29,12.29004 C48.199544,12.3854451 48.1282528,12.4973349 48.08,12.61963 C48.0236846,12.7383284 47.9962704,12.8686729 48,13 C48.003556,13.2647929 48.1071571,13.5184369 48.29,13.71 C48.3372663,13.7529499 48.3871811,13.7928917 48.43945,13.82959 Z" id="Shape" fill="#428DFF"/><path d="M49,17 C49.4715743,16.9953779 49.8744841,16.6588898 49.963079,16.1956895 C50.051674,15.7324891 49.8013786,15.2710644 49.3647956,15.0927418 C48.9282126,14.9144192 48.4264466,15.0686638 48.1654197,15.4614343 C47.9043928,15.8542047 47.9565117,16.3765495 48.29,16.71 C48.4806322,16.8942746 48.7348695,16.998118 49,17 Z" id="Shape" fill="#428DFF"/><path d="M5,7 L10,7 C10.5522847,7 11,6.55228475 11,6 C11,5.44771525 10.5522847,5 10,5 L5,5 C4.44771525,5 4,5.44771525 4,6 C4,6.55228475 4.44771525,7 5,7 Z" id="Shape" fill="#428DFF"/><path d="M5,11 L10,11 C10.5522847,11 11,10.5522847 11,10 C11,9.44771525 10.5522847,9 10,9 L5,9 C4.44771525,9 4,9.44771525 4,10 C4,10.5522847 4.44771525,11 5,11 Z" id="Shape" fill="#428DFF"/><path d="M5,15 L10,15 C10.5522847,15 11,14.5522847 11,14 C11,13.4477153 10.5522847,13 10,13 L5,13 C4.44771525,13 4,13.4477153 4,14 C4,14.5522847 4.44771525,15 5,15 Z" id="Shape" fill="#428DFF"/><path d="M5,19 L10,19 C10.5522847,19 11,18.5522847 11,18 C11,17.4477153 10.5522847,17 10,17 L5,17 C4.44771525,17 4,17.4477153 4,18 C4,18.5522847 4.44771525,19 5,19 Z" id="Shape" fill="#428DFF"/><path d="M5,23 L10,23 C10.5522847,23 11,22.5522847 11,22 C11,21.4477153 10.5522847,21 10,21 L5,21 C4.44771525,21 4,21.4477153 4,22 C4,22.5522847 4.44771525,23 5,23 Z" id="Shape" fill="#428DFF"/><path d="M5,27 L10,27 C10.5522847,27 11,26.5522847 11,26 C11,25.4477153 10.5522847,25 10,25 L5,25 C4.44771525,25 4,25.4477153 4,26 C4,26.5522847 4.44771525,27 5,27 Z" id="Shape" fill="#428DFF"/><path d="M5,31 L10,31 C10.5522847,31 11,30.5522847 11,30 C11,29.4477153 10.5522847,29 10,29 L5,29 C4.44771525,29 4,29.4477153 4,30 C4,30.5522847 4.44771525,31 5,31 Z" id="Shape" fill="#428DFF"/><path d="M5,35 L10,35 C10.5522847,35 11,34.5522847 11,34 C11,33.4477153 10.5522847,33 10,33 L5,33 C4.44771525,33 4,33.4477153 4,34 C4,34.5522847 4.44771525,35 5,35 Z" id="Shape" fill="#428DFF"/><path d="M18,22 L22,22 C22.5522847,22 23,21.5522847 23,21 C23,20.4477153 22.5522847,20 22,20 L18,20 C17.4477153,20 17,20.4477153 17,21 C17,21.5522847 17.4477153,22 18,22 Z" id="Shape" fill="#428DFF"/></g></g></g></svg>
