<?xml version="1.0" encoding="UTF-8"?>
<svg xmlns="http://www.w3.org/2000/svg" xmlns:xlink="http://www.w3.org/1999/xlink" width="512" height="512" viewBox="0 0 60 60" version="1.1"><!-- Generator: Sketch 49.3 (51167) - http://www.bohemiancoding.com/sketch --><title>006 - UPS</title><desc>Created with Sketch.</desc><defs/><g id="Page-1" stroke="none" stroke-width="1" fill="none" fill-rule="evenodd"><g id="006---UPS" fill-rule="nonzero"><g id="Colours" transform="translate(1.000000, 1.000000)"><path d="M58,5 L58,39 C57.9983526,39.5516009 57.5516009,39.9983526 57,40 L56,40 L56,43 C55.9983526,43.5516009 55.5516009,43.9983526 55,44 L3,44 C2.44839907,43.9983526 2.0016474,43.5516009 2,43 L2,40 L1,40 C0.448399067,39.9983526 0.00164740056,39.5516009 2.22044605e-16,39 L2.22044605e-16,5 C0.00164740056,4.44839907 0.448399067,4.0016474 1,4 L2,4 L2,1 C2.0016474,0.448399067 2.44839907,0.00164740056 3,0 L55,0 C55.5516009,0.00164740056 55.9983526,0.448399067 56,1 L56,4 L57,4 C57.5516009,4.0016474 57.9983526,4.44839907 58,5 Z" id="Shape" fill="#A4C2F7"/><path d="M54,5 L54,39 C53.9983526,39.5516009 53.5516009,39.9983526 53,40 L52,40 L52,43 C51.9983526,43.5516009 51.5516009,43.9983526 51,44 L3,44 C2.44839907,43.9983526 2.0016474,43.5516009 2,43 L2,40 L1,40 C0.448399067,39.9983526 0.00164740056,39.5516009 2.22044605e-16,39 L2.22044605e-16,5 C0.00164740056,4.44839907 0.448399067,4.0016474 1,4 L2,4 L2,1 C2.0016474,0.448399067 2.44839907,0.00164740056 3,0 L51,0 C51.5516009,0.00164740056 51.9983526,0.448399067 52,1 L52,4 L53,4 C53.5516009,4.0016474 53.9983526,4.44839907 54,5 Z" id="Shape" fill="#E3E7F2"/><path d="M56,1 L56,4 L2,4 L2,1 C2.0016474,0.448399067 2.44839907,0.00164740056 3,0 L55,0 C55.5516009,0.00164740056 55.9983526,0.448399067 56,1 Z" id="Shape" fill="#A4C2F7"/><path d="M56,40 L56,43 C55.9983854,43.5516146 55.5516146,43.9983854 55,44 L3,44 C2.44838544,43.9983854 2.00161464,43.5516146 2,43 L2,40 L56,40 Z" id="Shape" fill="#A4C2F7"/><path d="M52,1 L52,4 L2,4 L2,1 C1.98194946,0.469061058 2.39517301,0.0227815857 2.92593,2.22044605e-16 L51.07407,2.22044605e-16 C51.604827,0.0227815857 52.0180505,0.469061058 52,1 Z" id="Shape" fill="#E3E7F2"/><path d="M52,40 L52,43 C52.0180505,43.5309389 51.604827,43.9772184 51.07407,44 L2.92593,44 C2.39517301,43.9772184 1.98194946,43.5309389 2,43 L2,40 L52,40 Z" id="Shape" fill="#E3E7F2"/><path d="M31,8 L5,8 C4.44839907,8.0016474 4.0016474,8.44839907 4,9 L4,35 C4.0016474,35.5516009 4.44839907,35.9983526 5,36 L31,36 C31.5516009,35.9983526 31.9983526,35.5516009 32,35 L32,9 C31.9983526,8.44839907 31.5516009,8.0016474 31,8 Z" id="Shape" fill="#A4C2F7"/><path d="M28,8 L5,8 C4.44839907,8.0016474 4.0016474,8.44839907 4,9 L4,35 C4.0016474,35.5516009 4.44839907,35.9983526 5,36 L28,36 C28.5516009,35.9983526 28.9983526,35.5516009 29,35 L29,9 C28.9983526,8.44839907 28.5516009,8.0016474 28,8 Z" id="Shape" fill="#E3E7F2"/><rect id="Rectangle-path" fill="#A4C2F7" x="8" y="12" width="4" height="4"/><rect id="Rectangle-path" fill="#A4C2F7" x="16" y="12" width="4" height="4"/><rect id="Rectangle-path" fill="#A4C2F7" x="24" y="12" width="4" height="4"/><rect id="Rectangle-path" fill="#A4C2F7" x="8" y="20" width="4" height="4"/><rect id="Rectangle-path" fill="#A4C2F7" x="16" y="20" width="4" height="4"/><rect id="Rectangle-path" fill="#A4C2F7" x="24" y="20" width="4" height="4"/><rect id="Rectangle-path" fill="#A4C2F7" x="8" y="28" width="4" height="4"/><rect id="Rectangle-path" fill="#A4C2F7" x="16" y="28" width="4" height="4"/><rect id="Rectangle-path" fill="#A4C2F7" x="24" y="28" width="4" height="4"/><rect id="Rectangle-path" fill="#A4C2F7" x="36" y="8" width="18" height="13" rx="2"/><path d="M50,10 L50,19 C50.1036929,19.9765114 49.4164297,20.860133 48.44444,21 L37.55556,21 C36.5835703,20.860133 35.8963071,19.9765114 36,19 L36,10 C35.8962856,9.02348248 36.5835591,8.13984767 37.55556,8 L48.44444,8 C49.4164409,8.13984767 50.1037144,9.02348248 50,10 Z" id="Shape" fill="#E3E7F2"/><circle id="Oval" fill="#E3E7F2" cx="39" cy="28" r="2"/><path d="M3,52.85714 C3.0011588,52.4631311 3.32028112,52.1440133 3.71429,52.14286 L5.14286,52.14286 C6.72081485,52.14286 8,53.4220451 8,55 C8,56.5779549 6.72081485,57.85714 5.14286,57.85714 L3.71429,57.85714 C3.32028112,57.8559867 3.0011588,57.5368689 3,57.14286 L3,52.85714 Z" id="Shape" fill="#A4C2F7"/></g><g id="White" transform="translate(1.000000, 1.000000)" fill="#FFFFFF"><path d="M4,44 L2.93,44 C2.39830619,43.9779225 1.98350173,43.5318962 2,43 L2,40 L1,40 C0.448399067,39.9983526 0.00164740056,39.5516009 2.22044605e-16,39 L2.22044605e-16,5 C0.00164740056,4.44839907 0.448399067,4.0016474 1,4 L2,4 L2,1 C1.98350173,0.468103829 2.39830619,0.0220775366 2.93,0 L5.93,0 C5.39830619,0.0220775366 4.98350173,0.468103829 5,1 L5,4 L4,4 C3.44839907,4.0016474 3.0016474,4.44839907 3,5 L3,39 C3.0016474,39.5516009 3.44839907,39.9983526 4,40 L5,40 L5,43 C4.98350173,43.5318962 5.39830619,43.9779225 5.93,44 L6,44" id="Shape"/></g><g id="Icons"><polygon id="Shape" fill="#FFFFFF" points="2 6 2 19 2 40 0 40 0 19 0 6"/><path d="M1,15 C1.26470163,14.995996 1.51818849,14.8924591 1.71,14.71 C2.09672008,14.3156867 2.09672008,13.6843933 1.71,13.29008 L1.5601,13.16996 C1.50432178,13.1319755 1.44372787,13.1015979 1.37992,13.07963 C1.3231789,13.0508318 1.26242959,13.0307304 1.19971,13.02 C1.13367967,13.0087447 1.06695098,13.0020622 1,13 C0.735233018,13.0036835 0.481633787,13.1072663 0.29,13.29 C-0.0875531162,13.6880448 -0.0875531162,14.3119552 0.29,14.71 C0.385532731,14.8002924 0.497389252,14.8715624 0.61959,14.92 C0.739939045,14.9712951 0.869184251,14.9984753 1,15 Z" id="Shape" fill="#428DFF"/><path d="M58,4 L58,2 C57.998738,0.895953646 57.1040464,0.00126196688 56,0 L4,0 C2.89595365,0.00126196688 2.00126197,0.895953646 2,2 L2,4 C0.895953647,4.00126196 0.00126196688,4.89595364 0,6 L0,9.99999999 C6.76353751e-17,10.5522847 0.44771525,11 1,11 C1.55228475,11 2,10.5522847 2,9.99999999 L2,6 L58,6 L58,40 L2,40 L2,18 C2,17.4477152 1.55228475,17 1,17 C0.44771525,17 6.76353751e-17,17.4477152 0,18 L0,40 C0.00126196688,41.1040463 0.895953647,41.998738 2,42 L2,44 C2.00126197,45.1040463 2.89595365,45.998738 4,46 L5.10107,46 C5.57920034,48.3261575 7.62521436,49.9967378 10,50 L50.5,50 C51.8807119,50 53,51.1192881 53,52.5 C53,53.8807118 51.8807119,55 50.5,55 L9.858,55 C9.40471913,53.238453 7.81892359,52.0053305 6,52 L4,52 C3.73476237,51.999931 3.48036837,52.1052657 3.29281703,52.292817 C3.1052657,52.4803683 2.99993101,52.7347623 3,53 L1,53 C0.44771525,53 6.76353751e-17,53.4477152 0,54 C-6.76353751e-17,54.5522847 0.44771525,55 1,55 L3,55 L3,57 L1,57 C0.44771525,57 6.76353751e-17,57.4477152 0,58 C-6.76353751e-17,58.5522847 0.44771525,59 1,59 L3,59 C2.99993101,59.2652376 3.1052657,59.5196316 3.29281703,59.7071829 C3.48036837,59.8947343 3.73476237,60.000069 4,60 L6,60 C7.81892359,59.9946695 9.40471913,58.761547 9.858,57 L50.5,57 C52.9852814,57 55,54.9852813 55,52.5 C55,50.0147186 52.9852814,48 50.5,48 L10,48 C8.73285823,47.9960973 7.60529629,47.1951782 7.18433,46 L56,46 C57.1040464,45.998738 57.998738,45.1040463 58,44 L58,42 C59.1040464,41.998738 59.998738,41.1040463 60,40 L60,6 C59.998738,4.89595364 59.1040464,4.00126196 58,4 Z M6,58 L5,58 L5,54 L6,54 C7.1045695,54 8,54.8954305 8,56 C8,57.1045695 7.1045695,58 6,58 Z M56,44 L4,44 L4,42 L56,42 L56,44 Z M4,2 L56,2 L56,4 L4,4 L4,2 Z" id="Shape" fill="#428DFF"/><path d="M32,38 C33.1040464,37.998738 33.998738,37.1040464 34,36 L34,10 C33.998738,8.89595365 33.1040464,8.00126197 32,8 L6,8 C4.89595365,8.00126197 4.00126197,8.89595365 4,10 L4,36 C4.00126197,37.1040464 4.89595365,37.998738 6,38 L32,38 Z M6,10 L32,10 L32.001,36 L6,36 L6,10 Z" id="Shape" fill="#428DFF"/><path d="M12.9999999,12 L8.99999999,12 C8.73476236,11.999931 8.48036836,12.1052657 8.29281703,12.292817 C8.1052657,12.4803684 7.99993101,12.7347624 8,13 L8,16.9999999 C7.99993101,17.2652376 8.1052657,17.5196316 8.29281703,17.7071829 C8.48036836,17.8947342 8.73476236,18.0000689 8.99999999,17.9999999 L12.9999999,17.9999999 C13.2652376,18.0000689 13.5196316,17.8947342 13.7071829,17.7071829 C13.8947342,17.5196316 14.0000689,17.2652376 13.9999999,16.9999999 L13.9999999,13 C14.0000689,12.7347624 13.8947342,12.4803684 13.7071829,12.292817 C13.5196316,12.1052657 13.2652376,11.999931 12.9999999,12 Z M12,16 L10,16 L10,14 L12,14 L12,16 Z" id="Shape" fill="#428DFF"/><path d="M20.9999999,12 L17,12 C16.7347624,11.999931 16.4803684,12.1052657 16.292817,12.292817 C16.1052657,12.4803684 15.999931,12.7347624 16,13 L16,16.9999999 C15.999931,17.2652376 16.1052657,17.5196316 16.292817,17.7071829 C16.4803684,17.8947342 16.7347624,18.0000689 17,17.9999999 L20.9999999,17.9999999 C21.2652376,18.0000689 21.5196316,17.8947342 21.7071829,17.7071829 C21.8947342,17.5196316 22.0000689,17.2652376 21.9999999,16.9999999 L21.9999999,13 C22.0000689,12.7347624 21.8947342,12.4803684 21.7071829,12.292817 C21.5196316,12.1052657 21.2652376,11.999931 20.9999999,12 Z M20,16 L18,16 L18,14 L20,14 L20,16 Z" id="Shape" fill="#428DFF"/><path d="M28.9999999,12 L25,12 C24.7347624,11.999931 24.4803684,12.1052657 24.292817,12.292817 C24.1052657,12.4803684 23.999931,12.7347624 24,13 L24,16.9999999 C23.999931,17.2652376 24.1052657,17.5196316 24.292817,17.7071829 C24.4803684,17.8947342 24.7347624,18.0000689 25,17.9999999 L28.9999999,17.9999999 C29.2652376,18.0000689 29.5196316,17.8947342 29.7071829,17.7071829 C29.8947342,17.5196316 30.0000689,17.2652376 29.9999999,16.9999999 L29.9999999,13 C30.0000689,12.7347624 29.8947342,12.4803684 29.7071829,12.292817 C29.5196316,12.1052657 29.2652376,11.999931 28.9999999,12 Z M28,16 L26,16 L26,14 L28,14 L28,16 Z" id="Shape" fill="#428DFF"/><path d="M12.9999999,20 L8.99999999,20 C8.73476236,19.999931 8.48036836,20.1052657 8.29281703,20.292817 C8.1052657,20.4803684 7.99993101,20.7347624 8,21 L8,24.9999999 C7.99993101,25.2652376 8.1052657,25.5196316 8.29281703,25.7071829 C8.48036836,25.8947342 8.73476236,26.0000689 8.99999999,25.9999999 L12.9999999,25.9999999 C13.2652376,26.0000689 13.5196316,25.8947342 13.7071829,25.7071829 C13.8947342,25.5196316 14.0000689,25.2652376 13.9999999,24.9999999 L13.9999999,21 C14.0000689,20.7347624 13.8947342,20.4803684 13.7071829,20.292817 C13.5196316,20.1052657 13.2652376,19.999931 12.9999999,20 Z M12,24 L10,24 L10,22 L12,22 L12,24 Z" id="Shape" fill="#428DFF"/><path d="M20.9999999,20 L17,20 C16.7347624,19.999931 16.4803684,20.1052657 16.292817,20.292817 C16.1052657,20.4803684 15.999931,20.7347624 16,21 L16,24.9999999 C15.999931,25.2652376 16.1052657,25.5196316 16.292817,25.7071829 C16.4803684,25.8947342 16.7347624,26.0000689 17,25.9999999 L20.9999999,25.9999999 C21.2652376,26.0000689 21.5196316,25.8947342 21.7071829,25.7071829 C21.8947342,25.5196316 22.0000689,25.2652376 21.9999999,24.9999999 L21.9999999,21 C22.0000689,20.7347624 21.8947342,20.4803684 21.7071829,20.292817 C21.5196316,20.1052657 21.2652376,19.999931 20.9999999,20 Z M20,24 L18,24 L18,22 L20,22 L20,24 Z" id="Shape" fill="#428DFF"/><path d="M28.9999999,20 L25,20 C24.7347624,19.999931 24.4803684,20.1052657 24.292817,20.292817 C24.1052657,20.4803684 23.999931,20.7347624 24,21 L24,24.9999999 C23.999931,25.2652376 24.1052657,25.5196316 24.292817,25.7071829 C24.4803684,25.8947342 24.7347624,26.0000689 25,25.9999999 L28.9999999,25.9999999 C29.2652376,26.0000689 29.5196316,25.8947342 29.7071829,25.7071829 C29.8947342,25.5196316 30.0000689,25.2652376 29.9999999,24.9999999 L29.9999999,21 C30.0000689,20.7347624 29.8947342,20.4803684 29.7071829,20.292817 C29.5196316,20.1052657 29.2652376,19.999931 28.9999999,20 Z M28,24 L26,24 L26,22 L28,22 L28,24 Z" id="Shape" fill="#428DFF"/><path d="M12.9999999,28 L8.99999999,28 C8.73476236,27.999931 8.48036836,28.1052657 8.29281703,28.292817 C8.1052657,28.4803684 7.99993101,28.7347624 8,29 L8,32.9999999 C7.99993101,33.2652376 8.1052657,33.5196316 8.29281703,33.7071829 C8.48036836,33.8947342 8.73476236,34.0000689 8.99999999,33.9999999 L12.9999999,33.9999999 C13.2652376,34.0000689 13.5196316,33.8947342 13.7071829,33.7071829 C13.8947342,33.5196316 14.0000689,33.2652376 13.9999999,32.9999999 L13.9999999,29 C14.0000689,28.7347624 13.8947342,28.4803684 13.7071829,28.292817 C13.5196316,28.1052657 13.2652376,27.999931 12.9999999,28 Z M12,32 L10,32 L10,30 L12,30 L12,32 Z" id="Shape" fill="#428DFF"/><path d="M20.9999999,28 L17,28 C16.7347624,27.999931 16.4803684,28.1052657 16.292817,28.292817 C16.1052657,28.4803684 15.999931,28.7347624 16,29 L16,32.9999999 C15.999931,33.2652376 16.1052657,33.5196316 16.292817,33.7071829 C16.4803684,33.8947342 16.7347624,34.0000689 17,33.9999999 L20.9999999,33.9999999 C21.2652376,34.0000689 21.5196316,33.8947342 21.7071829,33.7071829 C21.8947342,33.5196316 22.0000689,33.2652376 21.9999999,32.9999999 L21.9999999,29 C22.0000689,28.7347624 21.8947342,28.4803684 21.7071829,28.292817 C21.5196316,28.1052657 21.2652376,27.999931 20.9999999,28 Z M20,32 L18,32 L18,30 L20,30 L20,32 Z" id="Shape" fill="#428DFF"/><path d="M28.9999999,28 L25,28 C24.7347624,27.999931 24.4803684,28.1052657 24.292817,28.292817 C24.1052657,28.4803684 23.999931,28.7347624 24,29 L24,32.9999999 C23.999931,33.2652376 24.1052657,33.5196316 24.292817,33.7071829 C24.4803684,33.8947342 24.7347624,34.0000689 25,33.9999999 L28.9999999,33.9999999 C29.2652376,34.0000689 29.5196316,33.8947342 29.7071829,33.7071829 C29.8947342,33.5196316 30.0000689,33.2652376 29.9999999,32.9999999 L29.9999999,29 C30.0000689,28.7347624 29.8947342,28.4803684 29.7071829,28.292817 C29.5196316,28.1052657 29.2652376,27.999931 28.9999999,28 Z M28,32 L26,32 L26,30 L28,30 L28,32 Z" id="Shape" fill="#428DFF"/><path d="M56,20 L56,11 C55.9981923,9.34389511 54.6561049,8.00180771 53,8 L39,8 C37.3438951,8.00180771 36.0018077,9.34389511 36,11 L36,20 C36.0018077,21.6561049 37.3438951,22.9981923 39,23 L53,23 C54.6561049,22.9981923 55.9981923,21.6561049 56,20 Z M54,20 C53.9994488,20.5520563 53.5520563,20.9994488 53,21 L39,21 C38.4479437,20.9994488 38.0005512,20.5520563 38,20 L38,11 C38.0005512,10.4479437 38.4479437,10.0005512 39,10 L53,10 C53.5520563,10.0005512 53.9994488,10.4479437 54,11 L54,20 Z" id="Shape" fill="#428DFF"/><path d="M42.36133,14.48779 L43.7959,12.606 C44.1305846,12.1664366 44.0455634,11.5387846 43.606,11.2041 C43.1664366,10.8694154 42.5387846,10.9544366 42.2041,11.394 L40.2041,14.019 C39.8854362,14.4375003 39.9456354,15.0313614 40.3418,15.3774 L41.63867,16.51217 L40.2041,18.394 C39.8694155,18.8335634 39.9544366,19.4612154 40.394,19.7959 C40.8335634,20.1305845 41.4612154,20.0455634 41.7959,19.606 L43.7959,16.981 C44.1145638,16.5624997 44.0543646,15.9686386 43.6582,15.6226 L42.36133,14.48779 Z" id="Shape" fill="#428DFF"/><path d="M48,12 L46,12 C45.4477153,12 45,12.4477153 45,13 C45,13.5522847 45.4477153,14 46,14 L48,14 C48.5522847,14 49,13.5522847 49,13 C49,12.4477153 48.5522847,12 48,12 Z" id="Shape" fill="#428DFF"/><path d="M50.29,12.29 C50.1070799,12.4815131 50.0034659,12.7351888 50,13 C50.0021355,13.0669255 50.0086595,13.1336387 50.01953,13.19971 C50.0308216,13.2623975 50.0512208,13.3230965 50.08008,13.37988 C50.1016637,13.4437585 50.1318911,13.5043813 50.16992,13.56006 C50.2070592,13.6122856 50.2471511,13.6623471 50.29,13.71 C50.6843133,14.0967201 51.3156067,14.0967201 51.70992,13.71 C51.74992,13.65971 51.79,13.6099 51.83004,13.5601 C51.8676884,13.5041987 51.8978895,13.4436285 51.91988,13.37992 C51.9488736,13.3232798 51.9689661,13.2625101 51.97945,13.19975 C51.9911184,13.1337508 51.9979864,13.0669925 52,13 C52.0023626,12.5937349 51.7586962,12.22642 51.3834815,12.070629 C51.0082668,11.9148381 50.5760905,12.0015401 50.29,12.29 Z" id="Shape" fill="#428DFF"/><path d="M40,33 C42.209139,33 44,31.209139 44,29 C44,26.790861 42.209139,25 40,25 C37.790861,25 36,26.790861 36,29 C36.0023534,31.2081634 37.7918366,32.9976466 40,33 Z M40,27 C41.1045695,27 42,27.8954305 42,29 C42,30.1045695 41.1045695,31 40,31 C38.8954305,31 38,30.1045695 38,29 C38.001262,27.8959536 38.8959536,27.001262 40,27 Z" id="Shape" fill="#428DFF"/><path d="M47,28 C46.4477153,28 46,28.4477153 46,29 C46,29.5522847 46.4477153,30 47,30 L48,30 C48.5522847,30 49,29.5522847 49,29 C49,28.4477153 48.5522847,28 48,28 L47,28 Z" id="Shape" fill="#428DFF"/><path d="M52,28 C51.4477153,28 51,28.4477153 51,29 C51,29.5522847 51.4477153,30 52,30 L53,30 C53.5522847,30 54,29.5522847 54,29 C54,28.4477153 53.5522847,28 53,28 L52,28 Z" id="Shape" fill="#428DFF"/></g></g></g></svg>
