<?xml version="1.0" encoding="UTF-8"?>
<svg xmlns="http://www.w3.org/2000/svg" xmlns:xlink="http://www.w3.org/1999/xlink" width="512" height="512" viewBox="0 0 34 60" version="1.1"><!-- Generator: Sketch 49.3 (51167) - http://www.bohemiancoding.com/sketch --><title>005 - UPS</title><desc>Created with Sketch.</desc><defs/><g id="Page-1" stroke="none" stroke-width="1" fill="none" fill-rule="evenodd"><g id="005---UPS" transform="translate(-1.000000, 0.000000)" fill-rule="nonzero"><g id="Colours" transform="translate(2.000000, 1.000000)"><rect id="Rectangle-path" fill="#A4C2F7" x="0" y="3" width="32" height="55" rx="2"/><rect id="Rectangle-path" fill="#E3E7F2" x="0" y="3" width="29" height="55" rx="2"/><path d="M25,0 L7,0 C5.89676861,0.00322381203 5.00322381,0.896768606 5,2 L5,15 C4.99412319,20.4963031 9.05374835,25.1499155 14.5,25.89 C14.9962101,25.9671048 15.4978502,26.0038918 16,26 C18.9178865,26.0016487 21.7167376,24.8432529 23.7799952,22.7799952 C25.8432529,20.7167376 27.0016487,17.9178865 27,15 L27,2 C26.9967762,0.896768606 26.1032314,0.00322381203 25,0 Z" id="Shape" fill="#A4C2F7"/><path d="M22,0 L7,0 C5.89676861,0.00322381203 5.00322381,0.896768606 5,2 L5,15 C4.99412319,20.4963031 9.05374835,25.1499155 14.5,25.89 C19.9462516,25.1499155 24.0058768,20.4963031 24,15 L24,2 C23.9967762,0.896768606 23.1032314,0.00322381203 22,0 Z" id="Shape" fill="#E3E7F2"/><path d="M21.0000066,17 C20.9990077,19.7610099 18.761015,21.9990011 16.0000033,22 C15.4920791,21.9984521 14.9869791,21.9243709 14.5000023,21.78 C12.4161239,21.1199313 11.0000066,19.1859172 11.0000066,17 C11.0000066,14.8140828 12.4161239,12.8800687 14.5000023,12.22 C14.9869791,12.0756287 15.4920791,12.0015474 16.0000033,12 C18.761015,12.0009989 20.9990077,14.2389901 21.0000066,17 Z" id="Shape" fill="#A4C2F7"/><ellipse id="Oval" fill="#E3E7F2" cx="14.5" cy="16.99998" rx="3.5" ry="4.77998"/><circle id="Oval" fill="#E3E7F2" cx="16" cy="6" r="2"/><polygon id="Shape" fill="#A4C2F7" points="14 32 14 38 4 38 4 32 6 30 12 30"/><polygon id="Shape" fill="#A4C2F7" points="14 44 14 50 4 50 4 44 6 42 12 42"/><polygon id="Shape" fill="#A4C2F7" points="28 32 28 38 18 38 18 32 20 30 26 30"/><polygon id="Shape" fill="#A4C2F7" points="28 44 28 50 18 50 18 44 20 42 26 42"/><polygon id="Shape" fill="#E3E7F2" points="11 32 11 38 4 38 4 32 6 30 9 30"/><polygon id="Shape" fill="#E3E7F2" points="11 44 11 50 4 50 4 44 6 42 9 42"/><polygon id="Shape" fill="#E3E7F2" points="25 32 25 38 18 38 18 32 20 30 23 30"/><polygon id="Shape" fill="#E3E7F2" points="25 44 25 50 18 50 18 44 20 42 23 42"/><path d="M27,56 L27,58 L5,58 L5,56 C5.00322381,54.8967686 5.89676861,54.0032238 7,54 L25,54 C26.1032314,54.0032238 26.9967762,54.8967686 27,56 Z" id="Shape" fill="#A4C2F7"/><path d="M24,56 L24,58 L5,58 L5,56 C4.93343226,54.9736574 5.70216926,54.0835395 6.72727,54 L22.27273,54 C23.2978307,54.0835395 24.0665677,54.9736574 24,56 Z" id="Shape" fill="#E3E7F2"/></g><g id="White" transform="translate(2.000000, 4.000000)" fill="#FFFFFF"><path d="M5,55 L2,55 C0.896777692,54.9967543 0.00324565669,54.1032223 0,53 L0,2 C0.00322381203,0.896768606 0.896768606,0.00322381203 2,0 L5,0 C3.89676861,0.00322381203 3.00322381,0.896768606 3,2 L3,53 C3.00324566,54.1032223 3.89677769,54.9967543 5,55 Z" id="Shape"/></g><g id="Icons"><polygon id="Shape" fill="#FFFFFF" points="3 6 3 19 3 57 1 57 1 19 1 6"/><path d="M2,15 C2.40434698,14.9984049 2.76828126,14.7544153 2.92333521,14.3809754 C3.07838917,14.0075356 2.99430271,13.5775256 2.71,13.29 L2.5601,13.16988 C2.50432178,13.1318955 2.44372787,13.1015179 2.37992,13.07955 C2.32318804,13.0507764 2.26245263,13.0306953 2.19975,13.01998 C2.13370601,13.0087296 2.06696389,13.0020537 2,13 C1.73523302,13.0036835 1.48163379,13.1072663 1.29,13.29 C1.04738605,13.5237239 0.940920533,13.8651552 1.00769206,14.195352 C1.07446358,14.5255488 1.30522588,14.7987868 1.61959,14.91988 C1.7399307,14.9712163 1.86917622,14.9984374 2,15 Z" id="Shape" fill="#428DFF"/><path d="M4,60 L32,60 C33.6561049,59.9981923 34.9981923,58.6561049 35,57 L35,6 C34.9981923,4.34389511 33.6561049,3.00180771 32,3 L30,3 C29.9981923,1.34389511 28.6561049,0.00180771165 27,-2.00058636e-15 L9,-2.00058636e-15 C7.34389511,0.00180771165 6.00180771,1.34389511 6,3 L4,3 C2.34389511,3.00180771 1.00180771,4.34389511 1,6 L1,10 C1,10.5522847 1.44771525,11 2,11 C2.55228475,11 3,10.5522847 3,10 L3,6 C3.00071619,5.44801218 3.44801218,5.00071619 4,5 L6,5 L6,16 C6,22.627417 11.372583,28 18,28 C24.627417,28 30,22.627417 30,16 L30,5 L32,5 C32.5519878,5.00071619 32.9992838,5.44801218 33,6 L33,57 C32.9992838,57.5519878 32.5519878,57.9992838 32,58 L30,58 L30,57 C29.9981923,55.3438951 28.6561049,54.0018077 27,54 L9,54 C7.34389511,54.0018077 6.00180771,55.3438951 6,57 L6,58 L4,58 C3.44801218,57.9992838 3.00071619,57.5519878 3,57 L3,18 C3,17.4477153 2.55228475,17 2,17 C1.44771525,17 1,17.4477153 1,18 L1,57 C1.00180771,58.6561049 2.34389511,59.9981923 4,60 Z M28,16 C28,21.5228475 23.5228475,26 18,26 C12.4771525,26 8,21.5228475 8,16 L8,3 C8.00071619,2.44801218 8.44801218,2.00071619 9,2 L27,2 C27.5519878,2.00071619 27.9992838,2.44801218 28,3 L28,16 Z M8,57 C8.00071619,56.4480122 8.44801218,56.0007162 9,56 L27,56 C27.5519878,56.0007162 27.9992838,56.4480122 28,57 L28,58 L8,58 L8,57 Z" id="Shape" fill="#428DFF"/><path d="M18,12 C14.6862915,12 12,14.6862915 12,18 C12,21.3137085 14.6862915,24 18,24 C21.3137085,24 24,21.3137085 24,18 C23.9963791,14.6877925 21.3122075,12.0036209 18,12 Z M18,22 C15.790861,22 14,20.209139 14,18 C14,15.790861 15.790861,14 18,14 C20.209139,14 22,15.790861 22,18 C21.9974761,20.2080927 20.2080927,21.9974761 18,22 Z" id="Shape" fill="#428DFF"/><path d="M18,10 C19.6568542,10 21,8.65685425 21,7 C21,5.34314575 19.6568542,4 18,4 C16.3431458,4 15,5.34314575 15,7 C15.0018077,8.65610489 16.3438951,9.99819229 18,10 Z M18,6 C18.5522847,6 19,6.44771525 19,7 C19,7.55228475 18.5522847,8 18,8 C17.4477153,8 17,7.55228475 17,7 C17.0007162,6.44801218 17.4480122,6.00071619 18,6 Z" id="Shape" fill="#428DFF"/><path d="M16,40 C16.5522847,40 17,39.5522847 17,39 L17,33 C16.9999302,32.7348078 16.8945382,32.4805002 16.707,32.293 L14.707,30.293 C14.5194998,30.1054618 14.2651922,30.0000698 14,30 L8,30 C7.73480781,30.0000698 7.4805002,30.1054618 7.293,30.293 L5.293,32.293 C5.1054618,32.4805002 5.00006982,32.7348078 5,33 L5,39 C5,39.5522847 5.44771525,40 6,40 L16,40 Z M7,33.41406 L8.41406,32 L13.58594,32 L15,33.41406 L15,38 L7,38 L7,33.41406 Z" id="Shape" fill="#428DFF"/><path d="M9,34 C8.44771525,34 8,34.4477153 8,35 L8,36 C8,36.5522847 8.44771525,37 9,37 C9.55228475,37 10,36.5522847 10,36 L10,35 C10,34.4477153 9.55228475,34 9,34 Z" id="Shape" fill="#428DFF"/><path d="M13,34 C12.4477153,34 12,34.4477153 12,35 L12,36 C12,36.5522847 12.4477153,37 13,37 C13.5522847,37 14,36.5522847 14,36 L14,35 C14,34.4477153 13.5522847,34 13,34 Z" id="Shape" fill="#428DFF"/><path d="M5,51 C5,51.5522847 5.44771525,52 6,52 L16,52 C16.5522847,52 17,51.5522847 17,51 L17,45 C16.9999302,44.7348078 16.8945382,44.4805002 16.707,44.293 L14.707,42.293 C14.5194998,42.1054618 14.2651922,42.0000698 14,42 L8,42 C7.73480781,42.0000698 7.4805002,42.1054618 7.293,42.293 L5.293,44.293 C5.1054618,44.4805002 5.00006982,44.7348078 5,45 L5,51 Z M7,45.41406 L8.41406,44 L13.58594,44 L15,45.41406 L15,50 L7,50 L7,45.41406 Z" id="Shape" fill="#428DFF"/><path d="M9,46 C8.44771525,46 8,46.4477153 8,47 L8,48 C8,48.5522847 8.44771525,49 9,49 C9.55228475,49 10,48.5522847 10,48 L10,47 C10,46.4477153 9.55228475,46 9,46 Z" id="Shape" fill="#428DFF"/><path d="M13,46 C12.4477153,46 12,46.4477153 12,47 L12,48 C12,48.5522847 12.4477153,49 13,49 C13.5522847,49 14,48.5522847 14,48 L14,47 C14,46.4477153 13.5522847,46 13,46 Z" id="Shape" fill="#428DFF"/><path d="M30,40 C30.5522847,40 31,39.5522847 31,39 L31,33 C30.9999302,32.7348078 30.8945382,32.4805002 30.707,32.293 L28.707,30.293 C28.5194998,30.1054618 28.2651922,30.0000698 28,30 L22,30 C21.7348078,30.0000698 21.4805002,30.1054618 21.293,30.293 L19.293,32.293 C19.1054618,32.4805002 19.0000698,32.7348078 19,33 L19,39 C19,39.5522847 19.4477153,40 20,40 L30,40 Z M21,33.41406 L22.41406,32 L27.58594,32 L29,33.41406 L29,38 L21,38 L21,33.41406 Z" id="Shape" fill="#428DFF"/><path d="M23,34 C22.4477153,34 22,34.4477153 22,35 L22,36 C22,36.5522847 22.4477153,37 23,37 C23.5522847,37 24,36.5522847 24,36 L24,35 C24,34.4477153 23.5522847,34 23,34 Z" id="Shape" fill="#428DFF"/><path d="M27,34 C26.4477153,34 26,34.4477153 26,35 L26,36 C26,36.5522847 26.4477153,37 27,37 C27.5522847,37 28,36.5522847 28,36 L28,35 C28,34.4477153 27.5522847,34 27,34 Z" id="Shape" fill="#428DFF"/><path d="M19,51 C19,51.5522847 19.4477153,52 20,52 L30,52 C30.5522847,52 31,51.5522847 31,51 L31,45 C30.9999302,44.7348078 30.8945382,44.4805002 30.707,44.293 L28.707,42.293 C28.5194998,42.1054618 28.2651922,42.0000698 28,42 L22,42 C21.7348078,42.0000698 21.4805002,42.1054618 21.293,42.293 L19.293,44.293 C19.1054618,44.4805002 19.0000698,44.7348078 19,45 L19,51 Z M21,45.41406 L22.41406,44 L27.58594,44 L29,45.41406 L29,50 L21,50 L21,45.41406 Z" id="Shape" fill="#428DFF"/><path d="M23,46 C22.4477153,46 22,46.4477153 22,47 L22,48 C22,48.5522847 22.4477153,49 23,49 C23.5522847,49 24,48.5522847 24,48 L24,47 C24,46.4477153 23.5522847,46 23,46 Z" id="Shape" fill="#428DFF"/><path d="M27,46 C26.4477153,46 26,46.4477153 26,47 L26,48 C26,48.5522847 26.4477153,49 27,49 C27.5522847,49 28,48.5522847 28,48 L28,47 C28,46.4477153 27.5522847,46 27,46 Z" id="Shape" fill="#428DFF"/></g></g></g></svg>
