<?xml version="1.0" encoding="UTF-8"?>
<svg xmlns="http://www.w3.org/2000/svg" xmlns:xlink="http://www.w3.org/1999/xlink" width="512" height="512" viewBox="0 0 60 60" version="1.1"><!-- Generator: Sketch 49.3 (51167) - http://www.bohemiancoding.com/sketch --><title>004 - Shared Server</title><desc>Created with Sketch.</desc><defs/><g id="Page-1" stroke="none" stroke-width="1" fill="none" fill-rule="evenodd"><g id="004---Shared-Server" fill-rule="nonzero"><g id="Colours" transform="translate(0.000000, 1.000000)"><rect id="Rectangle-path" fill="#A4C2F7" x="1" y="0" width="16" height="16" rx="2"/><rect id="Rectangle-path" fill="#A4C2F7" x="22" y="0" width="16" height="16" rx="2"/><rect id="Rectangle-path" fill="#A4C2F7" x="43" y="0" width="16" height="16" rx="2"/><rect id="Rectangle-path" fill="#E3E7F2" x="1" y="0" width="13" height="16" rx="2"/><rect id="Rectangle-path" fill="#E3E7F2" x="22" y="0" width="13" height="16" rx="2"/><rect id="Rectangle-path" fill="#E3E7F2" x="43" y="0" width="13" height="16" rx="2"/><path d="M17,2 L17,4 L1,4 L1,2 C1.00322381,0.896768606 1.89676861,0.00322381203 3,2.22044605e-16 L15,2.22044605e-16 C16.1032314,0.00322381203 16.9967762,0.896768606 17,2 Z" id="Shape" fill="#A4C2F7"/><path d="M38,2 L38,4 L22,4 L22,2 C22.0032238,0.896768606 22.8967686,0.00322381203 24,2.22044605e-16 L36,2.22044605e-16 C37.1032314,0.00322381203 37.9967762,0.896768606 38,2 Z" id="Shape" fill="#A4C2F7"/><path d="M59,2 L59,4 L43,4 L43,2 C43.0032238,0.896768606 43.8967686,0.00322381203 45,2.22044605e-16 L57,2.22044605e-16 C58.1032314,0.00322381203 58.9967762,0.896768606 59,2 Z" id="Shape" fill="#A4C2F7"/><path d="M14,2 L14,4 L1,4 L1,2 C1.00322381,0.896768606 1.89676861,0.00322381203 3,2.22044605e-16 L12,2.22044605e-16 C13.1032314,0.00322381203 13.9967762,0.896768606 14,2 Z" id="Shape" fill="#E3E7F2"/><path d="M35,2 L35,4 L22,4 L22,2 C22.0032238,0.896768606 22.8967686,0.00322381203 24,2.22044605e-16 L33,2.22044605e-16 C34.1032314,0.00322381203 34.9967762,0.896768606 35,2 Z" id="Shape" fill="#E3E7F2"/><path d="M56,2 L56,4 L43,4 L43,2 C43.0032238,0.896768606 43.8967686,0.00322381203 45,2.22044605e-16 L54,2.22044605e-16 C55.1032314,0.00322381203 55.9967762,0.896768606 56,2 Z" id="Shape" fill="#E3E7F2"/><rect id="Rectangle-path" fill="#A4C2F7" x="1" y="38" width="58" height="20" rx="2"/><path d="M55,40 L55,56 C55.0335357,57.0647777 54.2023872,57.9574921 53.13793,58 L2.86207,58 C1.79761277,57.9574921 0.966464339,57.0647777 1,56 L1,40 C0.966442291,38.9352141 1.79760294,38.0424865 2.86207,38 L53.13793,38 C54.2023971,38.0424865 55.0335577,38.9352141 55,40 Z" id="Shape" fill="#E3E7F2"/><path d="M24,42 L24,54 L36,54 L36,42 L24,42 Z M30,50 C28.8954305,50 28,49.1045695 28,48 C28,46.8954305 28.8954305,46 30,46 C31.1045695,46 32,46.8954305 32,48 C31.9967543,49.1032223 31.1032223,49.9967543 30,50 Z" id="Shape" fill="#E3E7F2"/><path d="M9,42 L9,48 C9,46.8954305 8.1045695,46 7,46 C5.8954305,46 5,46.8954305 5,48 L5,43 C5.0016474,42.4483991 5.44839907,42.0016474 6,42 L9,42 Z" id="Shape" fill="#A4C2F7"/><path d="M9,48 L9,54 L6,54 C5.44839907,53.9983526 5.0016474,53.5516009 5,53 L5,48 C5,49.1045695 5.8954305,50 7,50 C8.1045695,50 9,49.1045695 9,48 Z" id="Shape" fill="#A4C2F7"/><path d="M55,43 L55,48 C55,46.8954305 54.1045695,46 53,46 C51.8954305,46 51,46.8954305 51,48 L51,42 L54,42 C54.5516009,42.0016474 54.9983526,42.4483991 55,43 Z" id="Shape" fill="#A4C2F7"/><path d="M55,48 L55,53 C54.9983526,53.5516009 54.5516009,53.9983526 54,54 L51,54 L51,48 C51,49.1045695 51.8954305,50 53,50 C54.1045695,50 55,49.1045695 55,48 Z" id="Shape" fill="#A4C2F7"/><rect id="Rectangle-path" fill="#7F8C8D" x="9" y="48" width="15" height="6"/><rect id="Rectangle-path" fill="#A4C2F7" x="9" y="42" width="15" height="6"/><circle id="Oval" fill="#E3E7F2" cx="7" cy="48" r="2"/><rect id="Rectangle-path" fill="#A4C2F7" x="36" y="42" width="15" height="6"/><rect id="Rectangle-path" fill="#E3E7F2" x="9" y="42" width="11" height="6"/><rect id="Rectangle-path" fill="#E3E7F2" x="36" y="42" width="11" height="6"/><rect id="Rectangle-path" fill="#A4C2F7" x="9" y="48" width="15" height="6"/><rect id="Rectangle-path" fill="#A4C2F7" x="36" y="48" width="15" height="6"/><rect id="Rectangle-path" fill="#E3E7F2" x="9" y="48" width="11" height="6"/><rect id="Rectangle-path" fill="#E3E7F2" x="36" y="48" width="11" height="6"/><circle id="Oval" fill="#E3E7F2" cx="53" cy="48" r="2"/><circle id="Oval" fill="#E3E7F2" cx="30" cy="48" r="2"/></g><g id="White" transform="translate(0.000000, 1.000000)" fill="#FFFFFF"><path d="M6,16 L3,16 C1.89677769,15.9967543 1.00324566,15.1032223 1,14 L1,2 C1.00322381,0.896768606 1.89676861,0.00322381203 3,-2.22044605e-16 L6,-2.22044605e-16 C4.89676861,0.00322381203 4.00322381,0.896768606 4,2 L4,14 C4.00324566,15.1032223 4.89677769,15.9967543 6,16 Z" id="Shape"/><path d="M27,16 L24,16 C22.8967777,15.9967543 22.0032457,15.1032223 22,14 L22,2 C22.0032238,0.896768606 22.8967686,0.00322381203 24,2.22044605e-16 L27,2.22044605e-16 C25.8967686,0.00322381203 25.0032238,0.896768606 25,2 L25,14 C25.0032457,15.1032223 25.8967777,15.9967543 27,16 Z" id="Shape"/><path d="M48,16 L45,16 C43.8967777,15.9967543 43.0032457,15.1032223 43,14 L43,2 C43.0032238,0.896768606 43.8967686,0.00322381203 45,2.22044605e-16 L48,2.22044605e-16 C46.8967686,0.00322381203 46.0032238,0.896768606 46,2 L46,14 C46.0032457,15.1032223 46.8967777,15.9967543 48,16 Z" id="Shape"/><path d="M5.86,58 L2.86,58 C1.79662464,57.9558183 0.967030923,57.063782 1,56 L1,40 C0.967008959,38.9362097 1.79661482,38.0441604 2.86,38 L5.85,38 C4.79016634,38.0485849 3.96597833,38.9395989 4,40 L4,56 C3.96703092,57.063782 4.79662464,57.9558183 5.86,58 Z" id="Shape"/></g><g id="Icons" fill="#428DFF"><path d="M57,38 L3,38 C1.34389511,38.0018077 0.00180771165,39.3438951 -6.66862121e-16,41 L-6.66862121e-16,57 C0.00180771165,58.6561049 1.34389511,59.9981923 3,60 L57,60 C58.6561049,59.9981923 59.9981923,58.6561049 60,57 L60,41 C59.9981923,39.3438951 58.6561049,38.0018077 57,38 Z M58,57 C57.9992838,57.5519878 57.5519878,57.9992838 57,58 L3,58 C2.44801218,57.9992838 2.00071619,57.5519878 2,57 L2,41 C2.00071619,40.4480122 2.44801218,40.0007162 3,40 L57,40 C57.5519878,40.0007162 57.9992838,40.4480122 58,41 L58,57 Z" id="Shape"/><path d="M54,42 L6,42 C4.89588748,42.0011025 4.00110246,42.8958875 4,44 L4,54 C4.00110246,55.1041125 4.89588748,55.9988975 6,56 L54,56 C55.1041125,55.9988975 55.9988975,55.1041125 56,54 L56,44 C55.9988975,42.8958875 55.1041125,42.0011025 54,42 Z M54.00031,46.18433 C53.3561875,45.9385812 52.6441373,45.9385598 52,46.18427 L52,44 L54,44 L54.00031,46.18433 Z M54,49 C54,49.5522847 53.5522847,50 53,50 C52.4477153,50 52,49.5522847 52,49 C52,48.4477153 52.4477153,48 53,48 C53.5519878,48.0007162 53.9992838,48.4480122 54,49 Z M50,44 L50,48 L37,48 L37,44 L50,44 Z M25,44 L35,44 L35,54 L25,54 L25,44 Z M23,44 L23,48 L10,48 L10,44 L23,44 Z M8,44 L8,46.18427 C7.35597037,45.9385762 6.64402963,45.9385762 6,46.18427 L6,44 L8,44 Z M8,49 C8,49.5522847 7.55228475,50 7,50 C6.44771525,50 6,49.5522847 6,49 C6,48.4477153 6.44771525,48 7,48 C7.55198782,48.0007162 7.99928381,48.4480122 8,49 Z M6,51.81567 C6.644015,52.0614225 7.35597025,52.0614438 8,51.81573 L8,54 L6,54 L6,51.81567 Z M10,54 L10,50 L23,50 L23,54 L10,54 Z M37,54 L37,50 L50,50 L50,54 L37,54 Z M52,54 L52,51.81567 C52.6444149,52.0615463 53.3568189,52.0614395 54.00116,51.81537 L54.00146,54 L52,54 Z" id="Shape"/><path d="M30,46 C28.3431458,46 27,47.3431458 27,49 C27,50.6568542 28.3431458,52 30,52 C31.6568542,52 33,50.6568542 33,49 C32.9981923,47.3438951 31.6561049,46.0018077 30,46 Z M30,50 C29.4477153,50 29,49.5522847 29,49 C29,48.4477153 29.4477153,48 30,48 C30.5522847,48 31,48.4477153 31,49 C30.9992838,49.5519878 30.5519878,49.9992838 30,50 Z" id="Shape"/><path d="M30,36 C30.5522847,36 31,35.5522847 31,35 L31,32 L51,32 C51.5522847,32 52,31.5522847 52,31 L52,24 C52,23.4477153 51.5522847,23 51,23 C50.4477153,23 50,23.4477153 50,24 L50,30 L31,30 L31,24 C31,23.4477153 30.5522847,23 30,23 C29.4477153,23 29,23.4477153 29,24 L29,30 L10,30 L10,24 C10,23.4477153 9.55228475,23 9,23 C8.44771525,23 8,23.4477153 8,24 L8,31 C8,31.5522847 8.44771525,32 9,32 L29,32 L29,35 C29,35.5522847 29.4477153,36 30,36 Z" id="Shape"/><path d="M3,18 L15,18 C16.6561049,17.9981923 17.9981923,16.6561049 18,15 L18,3 C17.9981923,1.34389511 16.6561049,0.00180771165 15,0 L3,0 C1.34389511,0.00180771165 0.00180771165,1.34389511 0,3 L0,15 C0.00180771165,16.6561049 1.34389511,17.9981923 3,18 Z M15,16 L3,16 C2.44801218,15.9992838 2.00071619,15.5519878 2,15 L2,6 L16,6 L16,15 C15.9992838,15.5519878 15.5519878,15.9992838 15,16 Z M3,2 L15,2 C15.5519878,2.00071619 15.9992838,2.44801218 16,3 L16,4 L2,4 L2,3 C2.00071619,2.44801218 2.44801218,2.00071619 3,2 Z" id="Shape"/><path d="M6,8 L5,8 C4.44771525,8 4,8.44771525 4,9 C4,9.55228475 4.44771525,10 5,10 L6,10 C6.55228475,10 7,9.55228475 7,9 C7,8.44771525 6.55228475,8 6,8 Z" id="Shape"/><path d="M6,12 L5,12 C4.44771525,12 4,12.4477153 4,13 C4,13.5522847 4.44771525,14 5,14 L6,14 C6.55228475,14 7,13.5522847 7,13 C7,12.4477153 6.55228475,12 6,12 Z" id="Shape"/><path d="M9.71,8.29 C9.30904227,7.91982282 8.69095773,7.91982282 8.29,8.29 C8.20159799,8.38708125 8.13042488,8.4985469 8.07955,8.61959 C7.97342987,8.86189702 7.97342987,9.13753298 8.07955,9.37984 C8.13040849,9.5010633 8.20157994,9.61271912 8.29,9.71 C8.68432301,10.0967724 9.31567699,10.0967724 9.71,9.71 C9.79811322,9.61260307 9.86911496,9.50100185 9.92,9.37992 C10.0267735,9.13775021 10.0267735,8.86183979 9.92,8.61967 C9.86911477,8.49871182 9.79811068,8.38724555 9.71,8.29 Z" id="Shape"/><path d="M8.29,12.29 C8.10726627,12.4816338 8.00368349,12.735233 8,13 C8.00158347,13.0669814 8.00826949,13.1337448 8.02,13.19971 C8.03071529,13.2624126 8.05079637,13.323148 8.07957,13.37988 C8.10153785,13.4436879 8.13191552,13.5042818 8.1699,13.56006 C8.2099,13.60986 8.24998,13.65967 8.29002,13.70996 C8.68433326,14.0966801 9.31562674,14.0966801 9.70994,13.70996 C9.74994,13.65967 9.79002,13.60986 9.82957,13.56006 C9.86755448,13.5042818 9.89793215,13.4436879 9.9199,13.37988 C9.94862457,13.3230806 9.9688729,13.2623794 9.98,13.19971 C9.99149378,13.1337121 9.99817803,13.0669665 10,13 C10.0023626,12.5937349 9.75869622,12.22642 9.38348151,12.070629 C9.00826679,11.9148381 8.57609046,12.0015401 8.29,12.29 Z" id="Shape"/><path d="M13,8 L12,8 C11.4477153,8 11,8.44771525 11,9 C11,9.55228475 11.4477153,10 12,10 L13,10 C13.5522847,10 14,9.55228475 14,9 C14,8.44771525 13.5522847,8 13,8 Z" id="Shape"/><path d="M13,12 L12,12 C11.4477153,12 11,12.4477153 11,13 C11,13.5522847 11.4477153,14 12,14 L13,14 C13.5522847,14 14,13.5522847 14,13 C14,12.4477153 13.5522847,12 13,12 Z" id="Shape"/><path d="M24,18 L36,18 C37.6561049,17.9981923 38.9981923,16.6561049 39,15 L39,3 C38.9981923,1.34389511 37.6561049,0.00180771165 36,0 L24,0 C22.3438951,0.00180771165 21.0018077,1.34389511 21,3 L21,15 C21.0018077,16.6561049 22.3438951,17.9981923 24,18 Z M36,16 L24,16 C23.4480122,15.9992838 23.0007162,15.5519878 23,15 L23,6 L37,6 L37,15 C36.9992838,15.5519878 36.5519878,15.9992838 36,16 Z M24,2 L36,2 C36.5519878,2.00071619 36.9992838,2.44801218 37,3 L37,4 L23,4 L23,3 C23.0007162,2.44801218 23.4480122,2.00071619 24,2 Z" id="Shape"/><path d="M27,8 L26,8 C25.4477153,8 25,8.44771525 25,9 C25,9.55228475 25.4477153,10 26,10 L27,10 C27.5522847,10 28,9.55228475 28,9 C28,8.44771525 27.5522847,8 27,8 Z" id="Shape"/><path d="M27,12 L26,12 C25.4477153,12 25,12.4477153 25,13 C25,13.5522847 25.4477153,14 26,14 L27,14 C27.5522847,14 28,13.5522847 28,13 C28,12.4477153 27.5522847,12 27,12 Z" id="Shape"/><path d="M29.7998,8.02 C29.7370978,8.03071691 29.6763626,8.05079791 29.61963,8.07957 C29.5560216,8.10164684 29.4956036,8.13201888 29.43994,8.1699 C29.38965,8.2099 29.33984,8.24998 29.29004,8.29002 C29.1994478,8.38540602 29.1280055,8.49729331 29.07959,8.61961 C28.9734699,8.86191702 28.9734699,9.13755298 29.07959,9.37986 C29.1280964,9.50228468 29.1995091,9.61433356 29.29,9.71 C29.3398,9.75 29.38961,9.79008 29.4399,9.82963 C29.4955636,9.86751112 29.5559816,9.89788316 29.61959,9.91996 C29.6764058,9.94866603 29.7371204,9.96889412 29.7998,9.98 C29.8660266,9.99101941 29.9329023,9.99770031 30,10 C30.404347,9.99840493 30.7682813,9.75441526 30.9233352,9.38097544 C31.0783892,9.00753562 30.9943027,8.57752565 30.71,8.29 C30.4672326,8.05962678 30.1289196,7.95927024 29.7998,8.02 Z" id="Shape"/><path d="M30.91992,12.61963 C30.8978432,12.5560216 30.8674711,12.4956036 30.82959,12.43994 C30.79004,12.38965 30.75,12.33984 30.70996,12.29004 C30.6127032,12.2016276 30.501075,12.1304565 30.37988,12.07959 C30.0069456,11.9280044 29.5797072,12.0104862 29.29,12.29 C29.1072663,12.4816338 29.0036835,12.735233 29,13 C29.0014416,13.130612 29.0284818,13.2596738 29.07959,13.37988 C29.1304404,13.5010863 29.201598,13.6127281 29.29,13.71 C29.3398,13.75 29.38961,13.79008 29.4399,13.82963 C29.4955636,13.8675111 29.5559816,13.8978832 29.61959,13.91996 C29.6763922,13.9486693 29.7370931,13.968904 29.79976,13.98002 C29.8660002,13.9910344 29.9328894,13.9977087 30,14 C30.2660007,14.0025856 30.5218597,13.8980593 30.7099595,13.7099595 C30.8980593,13.5218597 31.0025856,13.2660007 31,13 C30.9977003,12.9329023 30.9910194,12.8660266 30.98,12.7998 C30.9688777,12.737132 30.9486362,12.6764311 30.91992,12.61963 Z" id="Shape"/><path d="M34,8 L33,8 C32.4477153,8 32,8.44771525 32,9 C32,9.55228475 32.4477153,10 33,10 L34,10 C34.5522847,10 35,9.55228475 35,9 C35,8.44771525 34.5522847,8 34,8 Z" id="Shape"/><path d="M34,12 L33,12 C32.4477153,12 32,12.4477153 32,13 C32,13.5522847 32.4477153,14 33,14 L34,14 C34.5522847,14 35,13.5522847 35,13 C35,12.4477153 34.5522847,12 34,12 Z" id="Shape"/><path d="M57,0 L45,0 C43.3438951,0.00180771165 42.0018077,1.34389511 42,3 L42,15 C42.0018077,16.6561049 43.3438951,17.9981923 45,18 L57,18 C58.6561049,17.9981923 59.9981923,16.6561049 60,15 L60,3 C59.9981923,1.34389511 58.6561049,0.00180771165 57,-6.66862121e-16 Z M45,2 L57,2 C57.5519878,2.00071619 57.9992838,2.44801218 58,3 L58,4 L44,4 L44,3 C44.0007162,2.44801218 44.4480122,2.00071619 45,2 Z M57,16 L45,16 C44.4480122,15.9992838 44.0007162,15.5519878 44,15 L44,6 L58,6 L58,15 C57.9992838,15.5519878 57.5519878,15.9992838 57,16 Z" id="Shape"/><path d="M48,8 L47,8 C46.4477153,8 46,8.44771525 46,9 C46,9.55228475 46.4477153,10 47,10 L48,10 C48.5522847,10 49,9.55228475 49,9 C49,8.44771525 48.5522847,8 48,8 Z" id="Shape"/><path d="M48,12 L47,12 C46.4477153,12 46,12.4477153 46,13 C46,13.5522847 46.4477153,14 47,14 L48,14 C48.5522847,14 49,13.5522847 49,13 C49,12.4477153 48.5522847,12 48,12 Z" id="Shape"/><path d="M50.61963,8.07959 C50.4985756,8.13044874 50.3870963,8.20160839 50.29,8.29 C49.9032799,8.68431326 49.9032799,9.31560674 50.29,9.70992 C50.3872214,9.79802308 50.4986601,9.86902682 50.61959,9.91992 C50.7383708,9.97604044 50.8686747,10.0034707 51,10 C51.404347,9.99840493 51.7682813,9.75441526 51.9233352,9.38097544 C52.0783892,9.00753562 51.9943027,8.57752565 51.71,8.29 C51.4220595,8.00672281 50.9922994,7.92379148 50.61963,8.07959 Z" id="Shape"/><path d="M50.61963,12.07959 C50.4985756,12.1304487 50.3870963,12.2016084 50.29,12.29 C49.9032799,12.6843133 49.9032799,13.3156067 50.29,13.70992 C50.3872214,13.7980231 50.4986601,13.8690268 50.61959,13.91992 C50.7399335,13.9712426 50.8691789,13.99845 51,14 C51.404347,13.9984049 51.7682813,13.7544153 51.9233352,13.3809754 C52.0783892,13.0075356 51.9943027,12.5775256 51.71,12.29 C51.4220595,12.0067228 50.9922994,11.9237915 50.61963,12.07959 Z" id="Shape"/><path d="M55,8 L54,8 C53.4477153,8 53,8.44771525 53,9 C53,9.55228475 53.4477153,10 54,10 L55,10 C55.5522847,10 56,9.55228475 56,9 C56,8.44771525 55.5522847,8 55,8 Z" id="Shape"/><path d="M55,12 L54,12 C53.4477153,12 53,12.4477153 53,13 C53,13.5522847 53.4477153,14 54,14 L55,14 C55.5522847,14 56,13.5522847 56,13 C56,12.4477153 55.5522847,12 55,12 Z" id="Shape"/></g></g></g></svg>
