<?xml version="1.0" encoding="UTF-8"?>
<svg xmlns="http://www.w3.org/2000/svg" xmlns:xlink="http://www.w3.org/1999/xlink" width="512" height="512" viewBox="0 0 60 60" version="1.1"><!-- Generator: Sketch 49.3 (51167) - http://www.bohemiancoding.com/sketch --><title>003 - VM Server</title><desc>Created with Sketch.</desc><defs><linearGradient x1="0.253442276%" y1="6.83653333%" x2="99.7465577%" y2="93.1633333%" id="linearGradient-1"><stop stop-color="#D4E1F4" offset="0%"/><stop stop-color="#D4E1F4" offset="17.173%"/><stop stop-color="#D4E1F4" offset="20%"/><stop stop-color="#DAE4F4" offset="20.014%"/><stop stop-color="#EBEBF4" offset="20.069%"/><stop stop-color="#F6F1F4" offset="20.136%"/><stop stop-color="#FDF4F4" offset="20.231%"/><stop stop-color="#FFF5F4" offset="20.495%"/><stop stop-color="#FFF5F4" offset="25.222%"/><stop stop-color="#FFF5F4" offset="26%"/><stop stop-color="#D4E1F4" offset="26%"/><stop stop-color="#D4E1F4" offset="39.739%"/><stop stop-color="#D4E1F4" offset="42%"/><stop stop-color="#DAE4F4" offset="42.014%"/><stop stop-color="#EBEBF4" offset="42.069%"/><stop stop-color="#F6F1F4" offset="42.136%"/><stop stop-color="#FDF4F4" offset="42.231%"/><stop stop-color="#FFF5F4" offset="42.495%"/><stop stop-color="#FFF5F4" offset="48.939%"/><stop stop-color="#FFF5F4" offset="50%"/><stop stop-color="#F9F2F4" offset="50.003%"/><stop stop-color="#E8EBF4" offset="50.014%"/><stop stop-color="#DDE5F4" offset="50.028%"/><stop stop-color="#D6E2F4" offset="50.047%"/><stop stop-color="#D4E1F4" offset="50.1%"/><stop stop-color="#D4E1F4" offset="70.622%"/><stop stop-color="#D4E1F4" offset="74%"/><stop stop-color="#FFF5F4" offset="74.1%"/><stop stop-color="#FFF5F4" offset="83.459%"/><stop stop-color="#FFF5F4" offset="85%"/><stop stop-color="#D4E1F4" offset="85.1%"/></linearGradient><linearGradient x1="2202.549%" y1="164.844908%" x2="3497.451%" y2="1139.70463%" id="linearGradient-2"><stop stop-color="#D4E1F4" offset="0%"/><stop stop-color="#D4E1F4" offset="17.173%"/><stop stop-color="#D4E1F4" offset="20%"/><stop stop-color="#DAE4F4" offset="20.014%"/><stop stop-color="#EBEBF4" offset="20.069%"/><stop stop-color="#F6F1F4" offset="20.136%"/><stop stop-color="#FDF4F4" offset="20.231%"/><stop stop-color="#FFF5F4" offset="20.495%"/><stop stop-color="#FFF5F4" offset="25.222%"/><stop stop-color="#FFF5F4" offset="26%"/><stop stop-color="#D4E1F4" offset="26%"/><stop stop-color="#D4E1F4" offset="39.739%"/><stop stop-color="#D4E1F4" offset="42%"/><stop stop-color="#DAE4F4" offset="42.014%"/><stop stop-color="#EBEBF4" offset="42.069%"/><stop stop-color="#F6F1F4" offset="42.136%"/><stop stop-color="#FDF4F4" offset="42.231%"/><stop stop-color="#FFF5F4" offset="42.495%"/><stop stop-color="#FFF5F4" offset="48.939%"/><stop stop-color="#FFF5F4" offset="50%"/><stop stop-color="#F9F2F4" offset="50.003%"/><stop stop-color="#E8EBF4" offset="50.014%"/><stop stop-color="#DDE5F4" offset="50.028%"/><stop stop-color="#D6E2F4" offset="50.047%"/><stop stop-color="#D4E1F4" offset="50.1%"/><stop stop-color="#D4E1F4" offset="70.622%"/><stop stop-color="#D4E1F4" offset="74%"/><stop stop-color="#FFF5F4" offset="74.1%"/><stop stop-color="#FFF5F4" offset="83.459%"/><stop stop-color="#FFF5F4" offset="85%"/><stop stop-color="#D4E1F4" offset="85.1%"/></linearGradient><linearGradient x1="4302.549%" y1="164.844908%" x2="5597.451%" y2="1139.70463%" id="linearGradient-3"><stop stop-color="#D4E1F4" offset="0%"/><stop stop-color="#D4E1F4" offset="17.173%"/><stop stop-color="#D4E1F4" offset="20%"/><stop stop-color="#DAE4F4" offset="20.014%"/><stop stop-color="#EBEBF4" offset="20.069%"/><stop stop-color="#F6F1F4" offset="20.136%"/><stop stop-color="#FDF4F4" offset="20.231%"/><stop stop-color="#FFF5F4" offset="20.495%"/><stop stop-color="#FFF5F4" offset="25.222%"/><stop stop-color="#FFF5F4" offset="26%"/><stop stop-color="#D4E1F4" offset="26%"/><stop stop-color="#D4E1F4" offset="39.739%"/><stop stop-color="#D4E1F4" offset="42%"/><stop stop-color="#DAE4F4" offset="42.014%"/><stop stop-color="#EBEBF4" offset="42.069%"/><stop stop-color="#F6F1F4" offset="42.136%"/><stop stop-color="#FDF4F4" offset="42.231%"/><stop stop-color="#FFF5F4" offset="42.495%"/><stop stop-color="#FFF5F4" offset="48.939%"/><stop stop-color="#FFF5F4" offset="50%"/><stop stop-color="#F9F2F4" offset="50.003%"/><stop stop-color="#E8EBF4" offset="50.014%"/><stop stop-color="#DDE5F4" offset="50.028%"/><stop stop-color="#D6E2F4" offset="50.047%"/><stop stop-color="#D4E1F4" offset="50.1%"/><stop stop-color="#D4E1F4" offset="70.622%"/><stop stop-color="#D4E1F4" offset="74%"/><stop stop-color="#FFF5F4" offset="74.1%"/><stop stop-color="#FFF5F4" offset="83.459%"/><stop stop-color="#FFF5F4" offset="85%"/><stop stop-color="#D4E1F4" offset="85.1%"/></linearGradient></defs><g id="Page-1" stroke="none" stroke-width="1" fill="none" fill-rule="evenodd"><g id="003---VM-Server" fill-rule="nonzero"><g id="Colours" transform="translate(0.000000, 1.000000)"><rect id="Rectangle-path" fill="#A4C2F7" x="1" y="38" width="58" height="20" rx="2"/><path d="M55,40 L55,56 C55.0335357,57.0647777 54.2023872,57.9574921 53.13793,58 L2.86207,58 C1.79761277,57.9574921 0.966464339,57.0647777 1,56 L1,40 C0.966442291,38.9352141 1.79760294,38.0424865 2.86207,38 L53.13793,38 C54.2023971,38.0424865 55.0335577,38.9352141 55,40 Z" id="Shape" fill="#E3E7F2"/><path d="M24,42 L24,54 L36,54 L36,42 L24,42 Z M30,50 C28.8954305,50 28,49.1045695 28,48 C28,46.8954305 28.8954305,46 30,46 C31.1045695,46 32,46.8954305 32,48 C31.9967543,49.1032223 31.1032223,49.9967543 30,50 Z" id="Shape" fill="#E3E7F2"/><path d="M9,42 L9,48 C9,46.8954305 8.1045695,46 7,46 C5.8954305,46 5,46.8954305 5,48 L5,43 C5.0016474,42.4483991 5.44839907,42.0016474 6,42 L9,42 Z" id="Shape" fill="#A4C2F7"/><path d="M9,48 L9,54 L6,54 C5.44839907,53.9983526 5.0016474,53.5516009 5,53 L5,48 C5,49.1045695 5.8954305,50 7,50 C8.1045695,50 9,49.1045695 9,48 Z" id="Shape" fill="#A4C2F7"/><path d="M55,43 L55,48 C55,46.8954305 54.1045695,46 53,46 C51.8954305,46 51,46.8954305 51,48 L51,42 L54,42 C54.5516009,42.0016474 54.9983526,42.4483991 55,43 Z" id="Shape" fill="#A4C2F7"/><path d="M55,48 L55,53 C54.9983526,53.5516009 54.5516009,53.9983526 54,54 L51,54 L51,48 C51,49.1045695 51.8954305,50 53,50 C54.1045695,50 55,49.1045695 55,48 Z" id="Shape" fill="#A4C2F7"/><rect id="Rectangle-path" fill="#7F8C8D" x="9" y="48" width="15" height="6"/><rect id="Rectangle-path" fill="#A4C2F7" x="9" y="42" width="15" height="6"/><circle id="Oval" fill="#E3E7F2" cx="7" cy="48" r="2"/><rect id="Rectangle-path" fill="#A4C2F7" x="36" y="42" width="15" height="6"/><rect id="Rectangle-path" fill="#E3E7F2" x="9" y="42" width="11" height="6"/><rect id="Rectangle-path" fill="#E3E7F2" x="36" y="42" width="11" height="6"/><rect id="Rectangle-path" fill="#A4C2F7" x="9" y="48" width="15" height="6"/><rect id="Rectangle-path" fill="#A4C2F7" x="36" y="48" width="15" height="6"/><rect id="Rectangle-path" fill="#E3E7F2" x="9" y="48" width="11" height="6"/><rect id="Rectangle-path" fill="#E3E7F2" x="36" y="48" width="11" height="6"/><circle id="Oval" fill="#E3E7F2" cx="53" cy="48" r="2"/><circle id="Oval" fill="#E3E7F2" cx="30" cy="48" r="2"/><rect id="Rectangle-path" fill="#A4C2F7" x="1" y="0" width="16" height="15" rx="2"/><rect id="Rectangle-path" fill="#A4C2F7" x="22" y="0" width="16" height="15" rx="2"/><rect id="Rectangle-path" fill="#A4C2F7" x="43" y="0" width="16" height="15" rx="2"/><path d="M14,2 L14,13 C14.0893855,13.9967415 13.3689318,14.8834538 12.375,15 L2.625,15 C1.63106819,14.8834538 0.91061449,13.9967415 1,13 L1,2 C0.910592726,1.00325181 1.63105723,0.116526273 2.625,-2.22044605e-16 L12.375,-2.22044605e-16 C13.3689428,0.116526273 14.0894073,1.00325181 14,2 Z" id="Shape" fill="url(#linearGradient-1)"/><path d="M35,2 L35,13 C35.0893855,13.9967415 34.3689318,14.8834538 33.375,15 L23.625,15 C22.6310682,14.8834538 21.9106145,13.9967415 22,13 L22,2 C21.9105927,1.00325181 22.6310572,0.116526273 23.625,-2.22044605e-16 L33.375,-2.22044605e-16 C34.3689428,0.116526273 35.0894073,1.00325181 35,2 Z" id="Shape" fill="url(#linearGradient-2)"/><path d="M56,2 L56,13 C56.0893855,13.9967415 55.3689318,14.8834538 54.375,15 L44.625,15 C43.6310682,14.8834538 42.9106145,13.9967415 43,13 L43,2 C42.9105927,1.00325181 43.6310572,0.116526273 44.625,6.66133815e-16 L54.375,6.66133815e-16 C55.3689428,0.116526273 56.0894073,1.00325181 56,2 Z" id="Shape" fill="url(#linearGradient-3)"/></g><g id="White" transform="translate(0.000000, 1.000000)" fill="#FFFFFF"><path d="M5.86,58 L2.86,58 C1.79662464,57.9558183 0.967030923,57.063782 1,56 L1,40 C0.967008959,38.9362097 1.79661482,38.0441604 2.86,38 L5.85,38 C4.79016634,38.0485849 3.96597833,38.9395989 4,40 L4,56 C3.96703092,57.063782 4.79662464,57.9558183 5.86,58 Z" id="Shape"/><path d="M47.62,15 L44.62,15 C43.6278108,14.8814636 42.9099179,13.9951761 43,13 L43,2 C42.9098962,1.00481727 43.6277998,0.118516489 44.62,6.66133815e-16 L47.61,6.66133815e-16 C46.6216285,0.123098474 45.9091679,1.00814269 46,2 L46,13 C45.9099179,13.9951761 46.6278108,14.8814636 47.62,15 Z" id="Shape"/><path d="M5.62,15 L2.62,15 C1.62781079,14.8814636 0.909917903,13.9951761 1,13 L1,2 C0.909896184,1.00481727 1.62779982,0.118516489 2.62,2.22044605e-16 L5.6,2.22044605e-16 C4.61744473,0.131174046 3.91229181,1.01261519 4,2 L4,13 C3.9099179,13.9951761 4.62781079,14.8814636 5.62,15 Z" id="Shape"/><path d="M26.62,15 L23.62,15 C22.6278108,14.8814636 21.9099179,13.9951761 22,13 L22,2 C21.9098962,1.00481727 22.6277998,0.118516489 23.62,6.66133815e-16 L26.6,6.66133815e-16 C25.6174447,0.131174046 24.9122918,1.01261519 25,2 L25,13 C24.9099179,13.9951761 25.6278108,14.8814636 26.62,15 Z" id="Shape"/></g><g id="Icons" fill="#428DFF"><path d="M57,38 L3,38 C1.34389511,38.0018077 0.00180771165,39.3438951 -6.66862121e-16,41 L-6.66862121e-16,57 C0.00180771165,58.6561049 1.34389511,59.9981923 3,60 L57,60 C58.6561049,59.9981923 59.9981923,58.6561049 60,57 L60,41 C59.9981923,39.3438951 58.6561049,38.0018077 57,38 Z M58,57 C57.9992838,57.5519878 57.5519878,57.9992838 57,58 L3,58 C2.44801218,57.9992838 2.00071619,57.5519878 2,57 L2,41 C2.00071619,40.4480122 2.44801218,40.0007162 3,40 L57,40 C57.5519878,40.0007162 57.9992838,40.4480122 58,41 L58,57 Z" id="Shape"/><path d="M54,42 L6,42 C4.89588748,42.0011025 4.00110246,42.8958875 4,44 L4,54 C4.00110246,55.1041125 4.89588748,55.9988975 6,56 L54,56 C55.1041125,55.9988975 55.9988975,55.1041125 56,54 L56,44 C55.9988975,42.8958875 55.1041125,42.0011025 54,42 Z M54.00031,46.18433 C53.3561875,45.9385812 52.6441373,45.9385598 52,46.18427 L52,44 L54,44 L54.00031,46.18433 Z M54,49 C54,49.5522847 53.5522847,50 53,50 C52.4477153,50 52,49.5522847 52,49 C52,48.4477153 52.4477153,48 53,48 C53.5519878,48.0007162 53.9992838,48.4480122 54,49 Z M50,44 L50,48 L37,48 L37,44 L50,44 Z M25,44 L35,44 L35,54 L25,54 L25,44 Z M23,44 L23,48 L10,48 L10,44 L23,44 Z M8,44 L8,46.18427 C7.35597037,45.9385762 6.64402963,45.9385762 6,46.18427 L6,44 L8,44 Z M8,49 C8,49.5522847 7.55228475,50 7,50 C6.44771525,50 6,49.5522847 6,49 C6,48.4477153 6.44771525,48 7,48 C7.55198782,48.0007162 7.99928381,48.4480122 8,49 Z M6,51.81567 C6.644015,52.0614225 7.35597025,52.0614438 8,51.81573 L8,54 L6,54 L6,51.81567 Z M10,54 L10,50 L23,50 L23,54 L10,54 Z M37,54 L37,50 L50,50 L50,54 L37,54 Z M52,54 L52,51.81567 C52.6444149,52.0615463 53.3568189,52.0614395 54.00116,51.81537 L54.00146,54 L52,54 Z" id="Shape"/><path d="M30,46 C28.3431458,46 27,47.3431458 27,49 C27,50.6568542 28.3431458,52 30,52 C31.6568542,52 33,50.6568542 33,49 C32.9981923,47.3438951 31.6561049,46.0018077 30,46 Z M30,50 C29.4477153,50 29,49.5522847 29,49 C29,48.4477153 29.4477153,48 30,48 C30.5522847,48 31,48.4477153 31,49 C30.9992838,49.5519878 30.5519878,49.9992838 30,50 Z" id="Shape"/><path d="M3,17 L5,17 L5,19 L4,19 C3.44771525,19 3,19.4477153 3,20 C3,20.5522847 3.44771525,21 4,21 L14,21 C14.5522847,21 15,20.5522847 15,20 C15,19.4477153 14.5522847,19 14,19 L13,19 L13,17 L15,17 C16.6561049,16.9981923 17.9981923,15.6561049 18,14 L18,3 C17.9981923,1.34389511 16.6561049,0.00180771165 15,0 L3,0 C1.34389511,0.00180771165 0.00180771165,1.34389511 0,3 L0,14 C0.00180771165,15.6561049 1.34389511,16.9981923 3,17 Z M11,19 L7,19 L7,17 L11,17 L11,19 Z M2,3 C2.00071619,2.44801218 2.44801218,2.00071619 3,2 L15,2 C15.5519878,2.00071619 15.9992838,2.44801218 16,3 L16,14 C15.9992838,14.5519878 15.5519878,14.9992838 15,15 L3,15 C2.44801218,14.9992838 2.00071619,14.5519878 2,14 L2,3 Z" id="Shape"/><path d="M24,17 L26,17 L26,19 L25,19 C24.4477153,19 24,19.4477153 24,20 C24,20.5522847 24.4477153,21 25,21 L35,21 C35.5522847,21 36,20.5522847 36,20 C36,19.4477153 35.5522847,19 35,19 L34,19 L34,17 L36,17 C37.6561049,16.9981923 38.9981923,15.6561049 39,14 L39,3 C38.9981923,1.34389511 37.6561049,0.00180771165 36,0 L24,0 C22.3438951,0.00180771165 21.0018077,1.34389511 21,3 L21,14 C21.0018077,15.6561049 22.3438951,16.9981923 24,17 Z M32,19 L28,19 L28,17 L32,17 L32,19 Z M23,3 C23.0007162,2.44801218 23.4480122,2.00071619 24,2 L36,2 C36.5519878,2.00071619 36.9992838,2.44801218 37,3 L37,14 C36.9992838,14.5519878 36.5519878,14.9992838 36,15 L24,15 C23.4480122,14.9992838 23.0007162,14.5519878 23,14 L23,3 Z" id="Shape"/><path d="M57,-9.86076132e-32 L45,-9.86076132e-32 C43.3438951,0.00180771165 42.0018077,1.34389511 42,3 L42,14 C42.0018077,15.6561049 43.3438951,16.9981923 45,17 L47,17 L47,19 L46,19 C45.4477153,19 45,19.4477153 45,20 C45,20.5522847 45.4477153,21 46,21 L56,21 C56.5522847,21 57,20.5522847 57,20 C57,19.4477153 56.5522847,19 56,19 L55,19 L55,17 L57,17 C58.6561049,16.9981923 59.9981923,15.6561049 60,14 L60,3 C59.9981923,1.34389511 58.6561049,0.00180771165 57,-6.66862121e-16 Z M53,19 L49,19 L49,17 L53,17 L53,19 Z M58,14 C57.9992838,14.5519878 57.5519878,14.9992838 57,15 L45,15 C44.4480122,14.9992838 44.0007162,14.5519878 44,14 L44,3 C44.0007162,2.44801218 44.4480122,2.00071619 45,2 L57,2 C57.5519878,2.00071619 57.9992838,2.44801218 58,3 L58,14 Z" id="Shape"/><path d="M30,36 C30.5522847,36 31,35.5522847 31,35 L31,32 L51,32 C51.5522847,32 52,31.5522847 52,31 L52,24 C52,23.4477153 51.5522847,23 51,23 C50.4477153,23 50,23.4477153 50,24 L50,30 L31,30 L31,24 C31,23.4477153 30.5522847,23 30,23 C29.4477153,23 29,23.4477153 29,24 L29,30 L10,30 L10,24 C10,23.4477153 9.55228475,23 9,23 C8.44771525,23 8,23.4477153 8,24 L8,31 C8,31.5522847 8.44771525,32 9,32 L29,32 L29,35 C29,35.5522847 29.4477153,36 30,36 Z" id="Shape"/></g></g></g></svg>
