<?xml version="1.0" encoding="UTF-8"?>
<svg xmlns="http://www.w3.org/2000/svg" xmlns:xlink="http://www.w3.org/1999/xlink" width="512" height="512" viewBox="0 0 60 60" version="1.1"><!-- Generator: Sketch 49.3 (51167) - http://www.bohemiancoding.com/sketch --><title>002 - VM Manager</title><desc>Created with Sketch.</desc><defs><linearGradient x1="5.67900887%" y1="-1.83259091%" x2="94.3210096%" y2="106.964886%" id="linearGradient-1"><stop stop-color="#D4E1F4" offset="0%"/><stop stop-color="#D4E1F4" offset="17.173%"/><stop stop-color="#D4E1F4" offset="20%"/><stop stop-color="#DAE4F4" offset="20.014%"/><stop stop-color="#EBEBF4" offset="20.069%"/><stop stop-color="#F6F1F4" offset="20.136%"/><stop stop-color="#FDF4F4" offset="20.231%"/><stop stop-color="#FFF5F4" offset="20.495%"/><stop stop-color="#FFF5F4" offset="25.222%"/><stop stop-color="#FFF5F4" offset="26%"/><stop stop-color="#D4E1F4" offset="26%"/><stop stop-color="#D4E1F4" offset="39.739%"/><stop stop-color="#D4E1F4" offset="42%"/><stop stop-color="#DAE4F4" offset="42.014%"/><stop stop-color="#EBEBF4" offset="42.069%"/><stop stop-color="#F6F1F4" offset="42.136%"/><stop stop-color="#FDF4F4" offset="42.231%"/><stop stop-color="#FFF5F4" offset="42.495%"/><stop stop-color="#FFF5F4" offset="48.939%"/><stop stop-color="#FFF5F4" offset="50%"/><stop stop-color="#F9F2F4" offset="50.003%"/><stop stop-color="#E8EBF4" offset="50.014%"/><stop stop-color="#DDE5F4" offset="50.028%"/><stop stop-color="#D6E2F4" offset="50.047%"/><stop stop-color="#D4E1F4" offset="50.1%"/><stop stop-color="#D4E1F4" offset="70.622%"/><stop stop-color="#D4E1F4" offset="74%"/><stop stop-color="#FFF5F4" offset="74.1%"/><stop stop-color="#FFF5F4" offset="83.459%"/><stop stop-color="#FFF5F4" offset="85%"/><stop stop-color="#D4E1F4" offset="85.1%"/></linearGradient></defs><g id="Page-1" stroke="none" stroke-width="1" fill="none" fill-rule="evenodd"><g id="002---VM-Manager" fill-rule="nonzero"><g id="Colours" transform="translate(1.000000, 1.000000)"><path d="M57.9999997,3.99999999 L57.9999998,43.9999998 L-1.59934258e-07,43.9999998 L-9.21737124e-16,3.99999999 C-0.00029984767,2.93904214 0.421031221,1.92145226 1.17124174,1.17124174 C1.92145226,0.421031222 2.93904213,-0.000299847671 3.99999998,-6.92362455e-16 L53.9999997,-6.92362455e-16 C55.0609575,-0.000299847671 56.0785474,0.421031222 56.8287579,1.17124174 C57.5789685,1.92145226 58.0002995,2.93904214 57.9999997,3.99999999 Z" id="Shape" fill="#A4C2F7"/><path d="M54.83333,4 L54.83333,44 L0.83333,44 L0.83333,4 C0.759298834,1.86783846 2.42545947,0.0782595107 4.55747,-3.33066907e-16 L51.1092,-3.33066907e-16 C53.2412066,0.0782648809 54.9073612,1.86784223 54.83333,4 Z" id="Shape" fill="url(#linearGradient-1)"/><path d="M15,15 C13.3431458,15 12,13.6568542 12,12 C12,10.3431458 13.3431458,9 15,9 C16.6568542,9 18,10.3431458 18,12 C17.9981923,13.6561049 16.6561049,14.9981923 15,15 Z M15,11 C14.4477153,11 14,11.4477153 14,12 C14,12.5522847 14.4477153,13 15,13 C15.5522847,13 16,12.5522847 16,12 C15.9992838,11.4480122 15.5519878,11.0007162 15,11 Z" id="Shape" fill="#F18D46"/><polygon id="Shape" fill="#E3E7F2" points="23 22 15 26 7 22 15 18"/><polygon id="Shape" fill="#E3E7F2" points="51 22 43 26 35 22 43 18"/><rect id="Rectangle-path" fill="#E3E7F2" x="21" y="48" width="16" height="8"/><path d="M44.9999946,56.999998 L44.9999973,57.9999973 L12.9999973,57.9999973 L13,56.999998 C12.9989366,56.2040235 13.3146655,55.4403443 13.8775053,54.8775048 C14.440345,54.3146654 15.2040246,53.9989366 15.9999995,54 L41.9999951,54 C42.79597,53.9989366 43.5596497,54.3146654 44.1224894,54.8775048 C44.6853291,55.4403443 45.0010581,56.2040235 44.9999946,56.999998 Z" id="Shape" fill="#A4C2F7"/><path d="M41.9999946,56.999998 L41.9999973,57.9999973 L12.9999973,57.9999973 L13,56.999998 C12.9989366,56.2040235 13.3146655,55.4403443 13.8775052,54.8775048 C14.440345,54.3146654 15.2040246,53.9989366 15.9999994,54 L38.9999952,54 C39.7959701,53.9989366 40.5596497,54.3146654 41.1224894,54.8775048 C41.6853291,55.4403443 42.0010581,56.2040235 41.9999946,56.999998 Z" id="Shape" fill="#E3E7F2"/><polygon id="Shape" fill="#D4E1F4" points="15 26 15 36 7 32 7 22"/><polygon id="Shape" fill="#A4C2F7" points="23 22 23 32 15 36 15 26"/><polygon id="Shape" fill="#D4E1F4" points="43 26 43 36 35 32 35 22"/><polygon id="Shape" fill="#A4C2F7" points="51 22 51 32 43 36 43 26"/><path d="M57.9999999,42 L57.9999997,45.9999999 C58.0002889,47.0609545 57.5789545,48.0785382 56.8287462,48.8287464 C56.078538,49.5789546 55.0609543,50.0002891 53.9999997,49.9999999 L3.99999998,49.9999999 C2.93904539,50.0002891 1.92146168,49.5789546 1.17125347,48.8287464 C0.421045251,48.0785382 -0.000289228365,47.0609545 -5.41544744e-16,45.9999999 L-1.48808908e-07,42 L57.9999999,42 Z" id="Shape" fill="#A4C2F7"/><path d="M53.9999999,42 L53.9999997,45.9999999 C54.0002889,47.0609545 53.5789545,48.0785382 52.8287462,48.8287464 C52.078538,49.5789546 51.0609543,50.0002891 49.9999997,49.9999999 L3.99999998,49.9999999 C2.93904538,50.0002891 1.92146168,49.5789546 1.17125347,48.8287464 C0.421045251,48.0785382 -0.000289228365,47.0609545 -5.98106905e-16,45.9999999 L-1.48808908e-07,42 L53.9999999,42 Z" id="Shape" fill="#E3E7F2"/></g><g id="White" transform="translate(1.000000, 1.000000)" fill="#FFFFFF"><path d="M6.99999984,49.9999998 L3.99999991,49.9999997 C2.93904533,50.0002889 1.92146165,49.5789544 1.17125345,48.8287462 C0.421045244,48.078538 -0.00028922836,47.0609543 -3.47250765e-15,45.9999997 L-3.47250765e-15,3.99999998 C-0.000299847665,2.93904213 0.421031214,1.92145226 1.17124172,1.17124174 C1.92145222,0.421031221 2.93904208,-0.00029984767 3.99999991,-1.32063908e-15 L6.93999984,-1.32063908e-15 C4.75419503,0.0324783533 2.99944163,1.81395392 2.99999993,3.99999998 L2.99999993,45.9999997 C2.9997107,47.0609543 3.42104518,48.078538 4.17125338,48.8287462 C4.92146158,49.5789544 5.93904526,50.0002889 6.99999984,49.9999998 Z" id="Shape"/><path d="M15.9999987,53.9999973 L18.9999973,53.9999947 C18.2040227,53.9989339 17.4403433,54.3146627 16.8775037,54.8775022 C16.3146641,55.4403416 15.9989352,56.2040209 15.9999987,56.9999953 L15.9999987,57.9999947 L12.9999973,57.9999947 L13,56.9999953 C12.9989366,56.2040209 13.3146654,55.4403416 13.877505,54.8775022 C14.4403446,54.3146627 15.204024,53.9989339 15.9999987,53.9999973 Z" id="Shape"/><rect id="Rectangle-path" x="21" y="50" width="3" height="4"/></g><g id="Icons"><polygon id="Shape" fill="#FFFFFF" points="2 5 2 18 2 42.999 0 42.999 0 18 0 5"/><path d="M1,14 C1.26470163,13.995996 1.51818849,13.8924591 1.71,13.71 C2.09672008,13.3156867 2.09672008,12.6843933 1.71,12.29008 L1.5601,12.16996 C1.50432178,12.1319755 1.44372787,12.1015979 1.37992,12.07963 C1.3231789,12.0508318 1.26242959,12.0307304 1.19971,12.02 C1.13367967,12.0087447 1.06695098,12.0020622 1,12 C0.735233018,12.0036835 0.481633787,12.1072663 0.29,12.29 C-0.0875531162,12.6880448 -0.0875531162,13.3119552 0.29,13.71 C0.385532731,13.8002924 0.497389252,13.8715624 0.61959,13.92 C0.739939045,13.9712951 0.869184251,13.9984753 1,14 Z" id="Shape" fill="#428DFF"/><path d="M55,0 L5,0 C2.23991948,0.00324014244 0.00324014244,2.23991948 0,5 L0,9 C6.76353751e-17,9.55228475 0.44771525,10 1,10 C1.55228475,10 2,9.55228475 2,9 L2,5 C2.00180771,3.34389511 3.34389511,2.00180771 5,2 L55,2 C56.6561049,2.00180771 57.9981923,3.34389511 58,5 L58,42 L2,42 L2,17 C2,16.4477153 1.55228475,16 1,16 C0.44771525,16 6.76353751e-17,16.4477153 0,17 L0,46.999 C0.00324014244,49.7590805 2.23991948,51.9957599 5,51.999 L21,51.999 L21,54 L17,54 C14.7919073,54.0025239 13.0025239,55.7919073 13,58 L13,59 C13,59.5522847 13.4477153,60 14,60 L46,60 C46.5522847,60 47,59.5522847 47,59 L47,58 C46.9974761,55.7919073 45.2080927,54.0025239 43,54 L39,54 L39,51.999 L55,51.999 C57.7600805,51.9957599 59.9967599,49.7590805 60,46.999 L60,5 C59.9967599,2.23991948 57.7600805,0.00324014244 55,0 Z M45,58 L15,58 C15.0011025,56.8958875 15.8958875,56.0011025 17,56 L43,56 C44.1041125,56.0011025 44.9988975,56.8958875 45,58 Z M23,54 L23,52 L37,52 L37,54 L23,54 Z M55,49.999 L5,49.999 C3.34389511,49.9971923 2.00180771,48.6551049 2,46.999 L2,44 L58,44 L58,46.999 C57.9981923,48.6551049 56.6561049,49.9971923 55,49.999 Z" id="Shape" fill="#428DFF"/><path d="M7.52722,22.12537 C7.50995,22.13464 7.49091,22.13904 7.47412,22.14937 C7.39288567,22.200946 7.3195708,22.2640443 7.25647,22.33669 C7.24103,22.35402 7.23029,22.37319 7.21613,22.3915 C7.15709328,22.4676436 7.10947253,22.5519872 7.07477,22.64187 C7.06592,22.66463 7.05505,22.68514 7.04791,22.70852 C7.01746676,22.8027406 7.00131737,22.900992 7,23 L7,33 C6.99991525,33.3788065 7.21391012,33.7251326 7.55273,33.89453 L15.55273,37.89453 C15.56732,37.90179 15.58417,37.89893 15.599,37.90546 C15.8514742,38.0315132 16.1485258,38.0315132 16.401,37.90546 C16.41583,37.89893 16.43268,37.90179 16.44727,37.89453 L24.44727,33.89453 C24.7860899,33.7251326 25.0000848,33.3788065 25,33 L25,23 C24.9986786,22.9010054 24.9825293,22.8027678 24.95209,22.70856 C24.94495,22.68518 24.93409,22.66467 24.92523,22.64191 C24.8905275,22.5520272 24.8429067,22.4676836 24.78387,22.39154 C24.76971,22.37323 24.75897,22.35406 24.74353,22.33673 C24.6804292,22.2640843 24.6071143,22.200986 24.52588,22.14941 C24.50909,22.13904 24.49011,22.1347 24.47288,22.12541 C24.46305,22.1201 24.45738,22.11051 24.44731,22.10541 L16.44731,18.10541 C16.42619,18.09485 16.40324,18.09662 16.38175,18.08765 C16.1358858,17.994643 15.8645234,17.9946003 15.61863,18.08753 C15.59702,18.09653 15.57401,18.09479 15.55277,18.10541 L7.55277,22.10541 C7.54266,22.11047 7.53705,22.12006 7.52722,22.12537 Z M16,20.11816 L21.76367,23 L16,25.88184 L10.23633,23 L16,20.11816 Z M9,24.61816 L15,27.61816 L15,35.38184 L9,32.38184 L9,24.61816 Z M23,32.38184 L17,35.38184 L17,27.61816 L23,24.61816 L23,32.38184 Z" id="Shape" fill="#428DFF"/><path d="M44.382,18.08777 C44.1361478,17.9947423 43.8647931,17.9946534 43.61888,18.08752 C43.59721,18.09652 43.57408,18.09479 43.55271,18.10547 L35.55271,22.10547 C35.54264,22.11053 35.53697,22.12012 35.52714,22.12547 C35.50993,22.13474 35.49089,22.13908 35.47414,22.14947 C35.3929057,22.201046 35.3195908,22.2641443 35.25649,22.33679 C35.24105,22.35412 35.23031,22.37329 35.21615,22.3916 C35.1571133,22.4677436 35.1094925,22.5520872 35.07479,22.64197 C35.06594,22.66473 35.05507,22.68524 35.04793,22.70862 C35.0174898,22.8028076 35.0013338,22.9010246 35,23 L35,33 C34.9999152,33.3788065 35.2139101,33.7251326 35.55273,33.89453 L43.55273,37.89453 C43.56732,37.90179 43.58417,37.89893 43.599,37.90546 C43.8514742,38.0315132 44.1485258,38.0315132 44.401,37.90546 C44.41583,37.89893 44.43268,37.90179 44.44727,37.89453 L52.44727,33.89453 C52.7860899,33.7251326 53.0000848,33.3788065 53,33 L53,23 C52.9986786,22.9010054 52.9825293,22.8027678 52.95209,22.70856 C52.94495,22.68518 52.93409,22.66467 52.92523,22.64191 C52.8905275,22.5520272 52.8429067,22.4676836 52.78387,22.39154 C52.76971,22.37323 52.75897,22.35406 52.74353,22.33673 C52.6804292,22.2640843 52.6071143,22.200986 52.52588,22.14941 C52.50909,22.13904 52.49011,22.1347 52.47288,22.12541 C52.46305,22.1201 52.45738,22.11051 52.44731,22.10541 L44.44731,18.10541 C44.42627,18.09491 44.40338,18.09668 44.382,18.08777 Z M44,25.88184 L38.23633,23 L44,20.11816 L49.76367,23 L44,25.88184 Z M37,24.61816 L43,27.61816 L43,35.38184 L37,32.38184 L37,24.61816 Z M51,32.38184 L45,35.38184 L45,27.61816 L51,24.61816 L51,32.38184 Z" id="Shape" fill="#428DFF"/><path d="M41,7 L19,7 C17.1183758,7.0033325 15.4928818,8.31626911 15.09381,10.15509 C13.7210573,10.6035603 12.8672898,11.9716192 13.0676231,13.4018087 C13.2679564,14.8319983 14.4647509,15.9128254 15.9078918,15.9668603 C17.3510328,16.0208951 18.6253008,15.0325909 18.9320232,13.6213868 C19.2387455,12.2101827 18.4896723,10.7821094 17.1543,10.23224 C17.4647074,9.48684127 18.1925527,9.0009118 19,9 L41,9 C42.1041125,9.00110246 42.9988975,9.89588748 43,11 L43,12.58594 L41.707,11.29294 C41.3158083,10.9066574 40.686142,10.908652 40.2974053,11.2974051 C39.9086686,11.6861583 39.9067008,12.3158247 40.293,12.707 L43.293,15.707 C43.5779,15.992652 44.0068617,16.0784696 44.37973,15.92441 L44.38284,15.9238 C44.4915976,15.8765453 44.5909462,15.8100724 44.67612,15.72757 C44.68552,15.71884 44.69791,15.71616 44.70706,15.707 L47.70706,12.707 C47.962303,12.4549387 48.0629593,12.0854602 47.970834,11.7387661 C47.8787087,11.392072 47.6079207,11.1212955 47.2612227,11.0291849 C46.9145247,10.9370744 46.5450505,11.0377463 46.293,11.293 L45,12.58594 L45,11 C44.9974761,8.79190729 43.2080927,7.00252393 41,7 Z M16,14 C15.4477153,14 15,13.5522847 15,13 C15,12.4477153 15.4477153,12 16,12 C16.5522847,12 17,12.4477153 17,13 C16.9992838,13.5519878 16.5519878,13.9992838 16,14 Z" id="Shape" fill="#428DFF"/></g></g></g></svg>
