<?xml version="1.0" encoding="UTF-8"?>
<svg xmlns="http://www.w3.org/2000/svg" xmlns:xlink="http://www.w3.org/1999/xlink" width="512" height="512" viewBox="0 0 51 60" version="1.1"><!-- Generator: Sketch 49.3 (51167) - http://www.bohemiancoding.com/sketch --><title>001 -  Protected Website</title><desc>Created with Sketch.</desc><defs/><g id="Page-1" stroke="none" stroke-width="1" fill="none" fill-rule="evenodd"><g id="001----Protected-Website" transform="translate(-1.000000, 0.000000)" fill-rule="nonzero"><g id="Colours" transform="translate(2.000000, 3.000000)"><path d="M47.9,41.85 C47.0926811,40.5687578 46.0750801,39.4328311 44.89,38.49 L44.88,38.49 C42.2801233,36.2922097 40.7622817,33.0740936 40.72,29.67 C40.72,29.51 40.73,29.36 40.73,29.21 C40.7777544,28.1153408 40.9866682,27.0337066 41.35,26 C40.8850832,26.2221519 40.434236,26.4726226 40,26.75 L40,9.28 C40,9.28 24.69,6.81 20.86,0.8 C20.6789954,0.497580364 20.352449,0.312458232 20,0.312458232 C19.647551,0.312458232 19.3210046,0.497580364 19.14,0.8 C18.4269559,1.85152331 17.5168349,2.75485239 16.46,3.46 C16.41,3.5 16.35,3.53 16.3,3.57005 C10.52,7.58 0,9.28 0,9.28 L0,29.06 C0.0191751841,34.9770015 2.57964407,40.6005633 7.03,44.5 L12.73,49.56 L20,56 L24.05,52.41 L27.22,49.6 C29.1533569,53.6299397 33.2824722,56.1395634 37.75,56 C40.1597948,56.0205467 42.5207698,55.3206116 44.53,53.99 C46.2408405,52.8862178 47.5763723,51.2891589 48.36,49.41 C48.7867961,48.3658476 49.0042491,47.2480031 49,46.12 C48.9950764,44.6272164 48.6169401,43.1593602 47.9,41.85 Z" id="Shape" fill="#A4C2F7"/><path d="M46,49.12 C46.0042491,50.2480031 45.7867961,51.3658476 45.36,52.41 C45.1374323,52.9633594 44.8593441,53.492732 44.53,53.99 C42.5207698,55.3206116 40.1597948,56.0205467 37.75,56 C33.2824722,56.1395634 29.1533569,53.6299397 27.22,49.6 L24.05,52.41 L20,56 L12.73,49.56 L7.03,44.5 C2.57964407,40.6005633 0.0191751841,34.9770015 0,29.06 L0,9.28 C0,9.28 10.52,7.58 16.3,3.57 C16.35,3.53 16.41,3.5 16.46,3.45995 L16.46995,3.46995 C16.6967447,3.32453648 16.9729032,3.27755168 17.2350258,3.33978223 C17.4971484,3.40201278 17.7227184,3.56811298 17.85995,3.79995 C21.69,9.81 37,12.28 37,12.28 L37,29.75 C37.434236,29.4726226 37.8850832,29.2221519 38.35,29 C37.9866682,30.0337066 37.7777544,31.1153408 37.73,32.21 C37.73,32.36 37.72,32.51 37.72,32.67 C37.7622817,36.0740936 39.2801233,39.2922097 41.88,41.49 L41.89,41.49 C43.0750801,42.4328311 44.0926811,43.5687578 44.9,44.85 C45.6169401,46.1593602 45.9950764,47.6272164 46,49.12 Z" id="Shape" fill="#E3E7F2"/><path d="M34,36.93 L34,36.81 C34.028937,34.6278199 34.6926136,32.5012751 35.91,30.69 C35.9701598,30.1487524 36.0002061,29.6045807 36,29.06 L36,12.58 C31.55,11.59 24.44,9.52 20,5.72 C19.0150054,6.54691711 17.957381,7.28323785 16.84,7.92 C13.3635539,9.82029578 9.64672961,11.2431163 5.79,12.15 L5.78,12.15 C5.15,12.31 4.56,12.46 4,12.58 L4,29.06 C4.00241728,31.3344876 4.48279838,33.58308 5.41,35.66 C6.39329593,37.8957337 7.85416656,39.8890712 9.69,41.5 L18.55,49.36 L20,50.65 L26.6,44.8 L26.6,44.79 C26.8132514,43.4309788 27.333048,42.1383268 28.12,41.01 C28.5730031,40.3551569 29.1035194,39.7574867 29.7,39.23 C30.3819185,38.6106948 31.1416516,38.0829156 31.96,37.66 C32.2716124,40.3272812 33.9286739,42.648677 36.35,43.81 C34.8377314,41.8340989 34.0125228,39.418169 34,36.93 Z M27,19 L13,19 C12.1747079,19.0001693 11.4349839,19.5092266 11.14,20.28 C11.0475843,20.5087988 11.0000537,20.7532419 11,21 L11,33 C11.0032457,34.1032223 11.8967777,34.9967543 13,35 L27,35 C27.948646,34.994908 28.7650923,34.3284213 28.96,33.4 C28.9886271,33.2686415 29.0020486,33.134426 29,33 L29,21 C28.9967762,19.8967686 28.1032314,19.0032238 27,19 Z" id="Shape" fill="#A4C2F7"/><path d="M32,45.09 C30.2706111,44.2238627 28.8981953,42.7807038 28.12,41.01 C27.8438925,40.3505533 27.6718434,39.6522364 27.61,38.94 C24.790605,40.3284063 22.8003783,42.9758533 22.25,46.07 L22.25,46.08 L18.55,49.36 L9.69,41.5 C7.85416656,39.8890712 6.39329593,37.8957337 5.41,35.66 C4.48279838,33.58308 4.00241728,31.3344876 4,29.06 L4,12.72 C4.58,12.55 5.18,12.36 5.78,12.15 L5.79,12.15 C9.64672961,11.2431163 13.3635539,9.82029578 16.84,7.92 C21.28,11.14 27.58,12.95 31.65,13.86 L31.65,30.34 C31.6502091,30.8845808 31.6201628,31.4287526 31.56,31.97 C31.2309969,32.4585186 30.9433322,32.9736392 30.7,33.51 C30.62,33.69 30.54,33.87 30.47,34.05 C29.9433984,35.3326196 29.6651366,36.7035682 29.65,38.09 L29.65,38.21 C29.65,38.55 29.67,38.9 29.7,39.23 C29.9055102,41.3595223 30.7021466,43.3892131 32,45.09 Z" id="Shape" fill="#E3E7F2"/><path d="M29,23 L29,33 C28.9967543,34.1032223 28.1032223,34.9967543 27,35 L13,35 C11.8967777,34.9967543 11.0032457,34.1032223 11,33 L11,23 L29,23 Z" id="Shape" fill="#E3E7F2"/><path d="M26,23 L26,33 C26.080327,34.0088355 25.3401126,34.897091 24.33333,35 L12.66667,35 C11.6598874,34.897091 10.919673,34.0088355 11,33 L11,23 L26,23 Z" id="Shape" fill="#E3E7F2"/><path d="M29,21 L29,23 L11,23 L11,21 C11.0032238,19.8967686 11.8967686,19.0032238 13,19 L27,19 C28.1032314,19.0032238 28.9967762,19.8967686 29,21 Z" id="Shape" fill="#A4C2F7"/><path d="M26,21 L26,23 L11,23 L11,21 C11.0032238,19.8967686 11.8967686,19.0032238 13,19 L24,19 C25.1032314,19.0032238 25.9967762,19.8967686 26,21 Z" id="Shape" fill="#E3E7F2"/><path d="M47.9,41.85 C47.0926811,40.5687578 46.0750801,39.4328311 44.89,38.49 L44.88,38.49 C42.2801233,36.2922097 40.7622817,33.0740936 40.72,29.67 C40.72,29.51 40.73,29.36 40.73,29.21 C40.7777544,28.1153408 40.9866682,27.0337066 41.35,26 C40.8850832,26.2221519 40.434236,26.4726226 40,26.75 C38.5276563,27.644154 37.2492051,28.8240012 36.24,30.22 C36.18,30.29 36.13,30.36 36.08,30.43 C36.02,30.52 35.96,30.6 35.91,30.69 C34.6926136,32.5012751 34.028937,34.6278199 34,36.81 L34,36.93 C34.0125228,39.418169 34.8377314,41.8340989 36.35,43.81 C33.9286739,42.648677 32.2716124,40.3272812 31.96,37.66 C31.1611581,38.0788575 30.4157716,38.5925698 29.74,39.19 C29.2535352,39.6210078 28.8082783,40.0963949 28.41,40.61 C27.4627552,41.82777 26.8399902,43.2659786 26.6,44.79 L26.6,44.8 C26.5311893,45.2365909 26.4977473,45.6780255 26.5,46.12 C26.4982035,47.3171631 26.743308,48.5018345 27.22,49.6 C28.7628808,52.9206953 31.8690652,55.2456386 35.49,55.79 C36.2350273,55.9310985 36.9917306,56.0014116 37.75,56 C42.65,56 46.81,53.25 48.36,49.41 C48.7867961,48.3658476 49.0042491,47.2480031 49,46.12 C48.9950764,44.6272164 48.6169401,43.1593602 47.9,41.85 Z" id="Shape" fill="#A4C2F7"/><path d="M44.5,46.12 C44.5042491,47.2480031 44.2867961,48.3658476 43.86,49.41 C42.3490768,52.8315981 39.189669,55.2398444 35.49,55.79 C31.8690652,55.2456386 28.7628808,52.9206953 27.22,49.6 C26.743308,48.5018345 26.4982035,47.3171631 26.5,46.12 C26.4977473,45.6780255 26.5311893,45.2365909 26.6,44.8 L26.6,44.79 C26.8399902,43.2659786 27.4627552,41.82777 28.41,40.61 C28.8082783,40.0963949 29.2535352,39.6210078 29.74,39.19 C30.4157716,38.5925698 31.1611581,38.0788575 31.96,37.66 C32.2716124,40.3272812 33.9286739,42.648677 36.35,43.81 C34.8377314,41.8340989 34.0125228,39.418169 34,36.93 L34,36.81 C34.028937,34.6278199 34.6926136,32.5012751 35.91,30.69 C35.96,30.6 36.02005,30.52 36.08,30.43 C36.13,30.36 36.18,30.29 36.24,30.22 C36.4345395,33.4258752 37.9300139,36.4132117 40.38,38.49 L40.39,38.49 C41.5750801,39.4328311 42.5926811,40.5687578 43.4,41.85 C44.1169401,43.1593602 44.4950764,44.6272164 44.5,46.12 Z" id="Shape" fill="#E3E7F2"/></g><g id="White" transform="translate(2.000000, 12.000000)" fill="#FFFFFF"><path d="M3,0.28 L3,20.06 C3.01917518,25.9770015 5.57964407,31.6005633 10.03,35.5 L15.73,40.56 L21.5,45.67 L20,47 L12.73,40.56 L7.03,35.5 C2.57964407,31.6005633 0.0191751841,25.9770015 0,20.06 L0,0.28" id="Shape"/></g><g id="Icons"><polygon id="Shape" fill="#FFFFFF" points="3 12.28 3 25.28 3 32.06 1 32.06 1 25.28 1 12.28"/><path d="M2,21.28 C2.40434698,21.2784049 2.76828126,21.0344153 2.92333521,20.6609754 C3.07838917,20.2875356 2.99430271,19.8575256 2.71,19.57 L2.5601,19.44988 C2.50432178,19.4118955 2.44372787,19.3815179 2.37992,19.35955 C2.32317621,19.3307752 2.26242641,19.3107005 2.19971,19.3 C2.13368033,19.2887398 2.0669513,19.2820572 2,19.28 C1.73523302,19.2836835 1.48163379,19.3872663 1.29,19.57 C1.04738605,19.8037239 0.940920533,20.1451552 1.00769206,20.475352 C1.07446358,20.8055488 1.30522588,21.0787868 1.61959,21.19988 C1.73993219,21.2512116 1.86917676,21.2784324 2,21.28 Z" id="Shape" fill="#428DFF"/><path d="M32,36 L32,24 C31.9981923,22.3438951 30.6561049,21.0018077 29,21 L15,21 C13.3438951,21.0018077 12.0018077,22.3438951 12,24 L12,36 C12.0018077,37.6561049 13.3438951,38.9981923 15,39 L29,39 C30.6561049,38.9981923 31.9981923,37.6561049 32,36 Z M15,23 L29,23 C29.5519878,23.0007162 29.9992838,23.4480122 30,24 L30,25 L14,25 L14,24 C14.0007162,23.4480122 14.4480122,23.0007162 15,23 Z M14,36 L14,27 L30,27 L30,36 C29.9992838,36.5519878 29.5519878,36.9992838 29,37 L15,37 C14.4480122,36.9992838 14.0007162,36.5519878 14,36 Z" id="Shape" fill="#428DFF"/><path d="M18,29 L17,29 C16.4477153,29 16,29.4477153 16,30 C16,30.5522847 16.4477153,31 17,31 L18,31 C18.5522847,31 19,30.5522847 19,30 C19,29.4477153 18.5522847,29 18,29 Z" id="Shape" fill="#428DFF"/><path d="M18,33 L17,33 C16.4477153,33 16,33.4477153 16,34 C16,34.5522847 16.4477153,35 17,35 L18,35 C18.5522847,35 19,34.5522847 19,34 C19,33.4477153 18.5522847,33 18,33 Z" id="Shape" fill="#428DFF"/><path d="M23,29 L21,29 C20.4477153,29 20,29.4477153 20,30 C20,30.5522847 20.4477153,31 21,31 L23,31 C23.5522847,31 24,30.5522847 24,30 C24,29.4477153 23.5522847,29 23,29 Z" id="Shape" fill="#428DFF"/><path d="M23,33 L21,33 C20.4477153,33 20,33.4477153 20,34 C20,34.5522847 20.4477153,35 21,35 L23,35 C23.5522847,35 24,34.5522847 24,34 C24,33.4477153 23.5522847,33 23,33 Z" id="Shape" fill="#428DFF"/><path d="M27,29 L26,29 C25.4477153,29 25,29.4477153 25,30 C25,30.5522847 25.4477153,31 26,31 L27,31 C27.5522847,31 28,30.5522847 28,30 C28,29.4477153 27.5522847,29 27,29 Z" id="Shape" fill="#428DFF"/><path d="M27,33 L26,33 C25.4477153,33 25,33.4477153 25,34 C25,34.5522847 25.4477153,35 26,35 L27,35 C27.5522847,35 28,34.5522847 28,34 C28,33.4477153 27.5522847,33 27,33 Z" id="Shape" fill="#428DFF"/><path d="M47.54346,40.7373 C45.1557308,38.7316309 43.7611124,35.784607 43.72412,32.6665 C43.72412,32.53174 43.72612,32.39893 43.7334,32.25391 C43.7737333,31.2568938 43.9618156,30.2713841 44.2915,29.32959 C44.4210575,28.9644833 44.3262007,28.5573617 44.0486104,28.2871179 C43.7710201,28.0168742 43.3615013,27.9329686 43,28.07227 L43,12.27979 C42.9998876,11.7889795 42.6437099,11.3707475 42.15918,11.29248 C36.83008,10.43457 23,6.91309 23,1 C23,0.44771525 22.5522847,3.38176876e-17 22,0 C21.4477153,-3.38176876e-17 21,0.44771525 21,1 C21,6.9082 7.16992,10.43311 1.84082,11.29248 C1.36089889,11.3740559 1.01204731,11.7932449 1.019,12.28 L1,12.28 L1,16.28 C1,16.8322847 1.44771525,17.28 2,17.28 C2.55228475,17.28 3,16.8322847 3,16.28 L3,13.1221 C6.59058,12.46945 18.46649,9.9263 22,4.3223 C25.5332,9.9253 37.40771,12.4693 41,13.1221 L41,29.21893 C40.2866074,29.7054974 39.6173652,30.2538309 39,30.8576 L39,15.58008 C39.0001904,15.1114581 38.6747593,14.7056286 38.21729,14.604 C34.27829,13.72754 27.01855,11.69922 22.65039,7.96045 C22.2759523,7.64014074 21.7240477,7.64014074 21.34961,7.96045 C16.98145,11.69922 9.72168,13.72754 5.78271,14.604 C5.32524073,14.7056286 4.99980964,15.1114581 5,15.58008 L5,32.06008 C5.02331015,37.1171706 7.21823229,41.9204989 11.02637,45.24808 L21.33643,54.398 C21.7148528,54.7337442 22.2844193,54.7339546 22.66309,54.39849 L27.55359,50.06377 C27.6260097,50.829406 27.7888676,51.5837683 28.03876,52.31109 L22,57.66406 L9.69287,46.75146 C5.46411482,43.0364099 3.02795641,37.6888419 3,32.06006 L3,32.06 L3,24.28 C3,23.7277153 2.55228475,23.28 2,23.28 C1.44771525,23.28 1,23.7277153 1,24.28 L1,32.06 L1,32.06006 C1.02815111,38.2609198 3.70918815,44.1531649 8.36572,48.24806 L21.33691,59.74854 C21.7153966,60.0838204 22.2846034,60.0838204 22.66309,59.74854 L28.92352,54.19934 C31.2723964,57.8901615 35.3760439,60.0888321 39.75,60 C44.91406,60 49.55029,57.10156 51.28516,52.78955 C52.3938174,50.0500328 52.2053912,46.9562712 50.77246,44.37155 C49.9138131,42.9829487 48.8213647,41.7533944 47.54346,40.7373 Z M22.00046,52.31348 L12.35104,43.74948 C8.97246856,40.8014908 7.0234813,36.5439015 7,32.06006 L7,16.377 C11.70313,15.27251 17.77344,13.313 22,10.01128 C26.22656,13.313 32.29688,15.27246 37,16.377 L37,32.06006 C37,32.50354 36.96954,32.93286 36.92816,33.36694 C35.708081,35.2751981 35.0420658,37.4848638 35.00439,39.74951 C35.00049,39.80859 35,39.87158 35,39.93066 C34.9998444,40.4250581 35.0301753,40.9189954 35.09082,41.40966 C35.0256312,41.1341476 34.9804302,40.8542859 34.95557,40.57226 C34.9262276,40.2387403 34.7319607,39.9420201 34.4380083,39.7817443 C34.1440558,39.6214685 33.7894068,39.6188958 33.49316,39.77489 C30.5369288,41.2695954 28.4117595,44.0170108 27.70795,47.254 L22.00046,52.31348 Z M49.43063,52.04048 C47.99658,55.605 44.106,58 39.75,58 C34.09814,58 29.5,54.01855 29.5,49.125 C29.5446461,46.3610102 30.9461535,43.7958703 33.248,42.26514 C33.9838493,44.6372653 35.6640915,46.6016712 37.8935,47.69629 C38.3081201,47.909484 38.8150491,47.8078922 39.1154993,47.4513936 C39.4159494,47.094895 39.4301993,46.5780828 39.14985,46.20557 C37.7659967,44.405484 37.0107777,42.2011762 37,39.93066 L36,39.93066 L37.00244,39.82275 C37.0326939,37.808365 37.651273,35.8467817 38.78204,34.17944 L38.78247,34.17877 C38.82172,34.12 38.85647,34.0592 38.89697,34.00098 C39.7000709,32.8593443 40.6925799,31.8635309 41.83154,31.05664 C41.7822067,31.42432 41.7503067,31.79281 41.73584,32.16211 C41.72705,32.32959 41.72412,32.49658 41.72412,32.6665 C41.7582645,36.3641159 43.4041765,39.86276 46.231,42.24658 C47.3284776,43.1098741 48.2711061,44.1535674 49.01855,45.333 C49.6625162,46.493103 50.00029,47.7981499 50,49.125 C50.0005035,50.1245127 49.8071537,51.1146367 49.43066,52.04053 L49.43063,52.04048 Z" id="Shape" fill="#428DFF"/></g></g></g></svg>
